<?xml version="1.0" encoding="utf-8" standalone="no"?>
<!DOCTYPE svg PUBLIC "-//W3C//DTD SVG 1.1//EN"
  "http://www.w3.org/Graphics/SVG/1.1/DTD/svg11.dtd">
<!-- Created with matplotlib (http://matplotlib.org/) -->
<svg height="216pt" version="1.1" viewBox="0 0 648 216" width="648pt" xmlns="http://www.w3.org/2000/svg" xmlns:xlink="http://www.w3.org/1999/xlink">
 <defs>
  <style type="text/css">
*{stroke-linecap:butt;stroke-linejoin:round;}
  </style>
 </defs>
 <g id="figure_1">
  <g id="patch_1">
   <path d="
M0 216
L648 216
L648 0
L0 0
z
" style="fill:#ffffff;"/>
  </g>
  <g id="axes_1">
   <g id="patch_2">
    <path d="
M43.6219 178.2
L199.162 178.2
L199.162 15.3
L43.6219 15.3
z
" style="fill:#ffffff;"/>
   </g>
   <g id="line2d_1">
    <path clip-path="url(#p83588dca04)" d="
M58.0575 178.2
L63.1554 178.102
L71.6684 177.907
L75.048 177.581
L76.5397 177.451
L76.9899 177.288
L77.9803 177.092
L79.065 176.864
L79.1825 176.799
L81.9391 176.245
L82.0164 176.115
L82.5402 175.919
L83.2094 175.659
L83.3404 175.528
L85.6047 174.779
L86.1095 174.356
L87.3216 173.769
L87.6409 173.639
L87.7934 173.508
L88.2028 173.28
L88.2537 173.15
L88.6887 172.955
L88.8186 172.824
L89.5145 172.596
L90.3296 172.075
L90.5127 171.651
L91.343 171.032
L91.4377 170.935
L91.6071 170.739
L93.0435 169.338
L93.2972 169.012
L93.5588 168.817
L93.6637 168.719
L94.3067 168.165
L94.4236 167.937
L94.6232 167.677
L94.7693 167.383
L95.2981 166.797
L95.5789 166.471
L95.6828 166.178
L95.8248 166.015
L95.9647 165.82
L96.2484 165.461
L96.3968 165.266
L96.5455 165.005
L96.885 164.451
L96.9038 164.353
L97.0244 164.223
L97.5458 163.148
L97.6515 162.92
L97.8093 162.692
L98.2422 161.845
L98.3692 161.519
L98.7853 160.998
L98.9775 160.77
L99.097 160.476
L99.3426 160.248
L99.3902 160.118
L99.4938 159.955
L99.557 159.695
L99.6898 159.369
L99.9183 158.945
L100.055 158.652
L100.16 158.326
L100.298 158.163
L100.356 157.968
L100.487 157.772
L100.878 157.153
L100.972 156.99
L103.402 152.429
L103.526 152.103
L103.605 151.941
L103.928 151.191
L105.206 148.422
L105.404 148.161
L105.585 147.575
L106.009 146.663
L106.3 145.815
L106.412 145.522
L106.53 145.359
L107.353 143.242
L107.697 142.72
L107.76 142.492
L107.965 141.743
L108.028 141.515
L108.672 139.299
L108.799 139.006
L108.978 138.094
L109.084 137.899
L109.206 137.475
L109.251 137.149
L109.433 136.4
L109.501 136.009
L109.728 135.292
L109.838 134.966
L110.281 133.761
L110.359 133.5
L110.712 132.327
L110.801 132.067
L111.104 131.089
L111.268 130.601
L111.448 130.112
L111.572 129.558
L112.141 127.929
L112.296 127.245
L112.489 126.756
L112.704 126.105
L112.798 125.681
L112.851 125.486
L116.358 112.942
L116.508 112.454
L116.565 112.258
L116.679 111.965
L116.855 111.606
L116.988 111.183
L117.574 109.163
L117.783 108.316
L117.878 108.12
L118.074 107.371
L118.154 107.176
L118.25 106.785
L118.329 106.557
L118.811 104.765
L118.949 104.211
L119.36 102.712
L119.626 101.767
L119.757 101.311
L119.86 100.757
L119.931 100.627
L120.042 100.236
L120.118 99.9428
L120.685 97.8577
L120.793 97.6297
L120.975 97.0758
L121.256 96.2613
L123.067 89.615
L123.238 88.9634
L123.298 88.8005
L123.431 88.3444
L123.508 87.9208
L123.619 87.4321
L123.88 86.9434
L124.005 86.4547
L124.351 85.5425
L124.468 85.2818
L124.661 84.6628
L124.767 84.0112
L124.918 83.5551
L124.973 83.3596
L125.61 80.851
L125.767 80.069
L126.723 76.7785
L126.835 76.2572
L129.455 67.1022
L129.552 66.7764
L130.265 64.4306
L130.361 64.2677
L130.636 63.16
L130.768 62.9645
L131.082 61.8568
L131.495 60.4885
L131.571 60.1952
L131.699 59.7065
L131.809 59.2178
L132.038 58.4359
L132.489 57.2305
L132.701 56.5789
L132.82 56.2531
L132.925 55.7969
L133.065 55.4386
L133.161 55.015
L133.265 54.8195
L133.373 54.5263
L133.651 54.0702
L134.015 52.9299
L134.1 52.7018
L134.235 52.1154
L134.423 51.7244
L134.519 51.529
L134.619 51.3661
L134.833 51.0403
L135.021 50.747
L135.476 49.2809
L135.584 48.9877
L135.729 48.4339
L136.012 47.7823
L136.372 46.4465
L136.857 45.3713
L137.099 44.6546
L137.269 44.1333
L137.406 43.7098
L137.489 43.4491
L137.773 42.6672
L137.833 42.4391
L137.936 42.0156
L138.307 41.3314
L138.435 41.1034
L138.6 40.7776
L138.771 40.354
L138.964 39.9305
L139.226 39.4744
L139.35 39.1811
L139.647 38.497
L139.77 38.3666
L139.895 38.1712
L140.783 36.3467
L140.928 36.1512
L141 36.0209
L141.099 35.858
L141.463 35.1086
L141.566 34.9132
L141.728 34.6525
L142.349 32.9584
L142.574 32.7955
L142.801 32.4697
L143.033 32.1113
L143.149 31.9484
L143.405 31.3294
L143.752 30.6452
L144.026 30.2542
L144.185 29.9936
L144.369 29.7004
L144.455 29.5375
L144.58 29.2768
L145.396 28.1365
L145.912 27.6152
L146.114 27.3546
L146.323 27.1917
L146.542 26.5727
L147.307 25.7256
L147.691 25.3672
L147.829 25.1392
L149.058 23.6731
L149.262 23.5102
L149.486 23.3473
L150.112 23.054
L150.241 22.9889
L150.503 22.7608
L150.593 22.6305
L150.768 22.4676
L150.791 22.4024
L150.909 22.2721
L151.008 22.207
L151.316 21.9789
L151.427 21.8812
L151.903 21.5228
L152.58 21.2621
L152.671 21.197
L153.004 21.0341
L153.2 20.7734
L153.48 20.5128
L154.331 19.8612
L154.544 19.6331
L155.318 19.2422
L155.419 19.1444
L155.592 18.9815
L155.901 18.7209
L156.574 18.558
L156.733 18.4928
L157.052 18.2322
L159.096 17.5154
L159.135 17.4829
L160.013 17.2548
L160.345 17.1571
L161.455 17.0267
L161.535 16.9942
L163.444 16.7335
L164.786 16.5706
L166.503 16.3751
L168.73 16.0493
L168.884 16.0168
L170.673 15.8539
L175.978 15.4629
L184.986 15.3326
L184.986 15.3326" style="fill:none;stroke:#ff0000;stroke-linecap:square;"/>
   </g>
   <g id="line2d_2">
    <path clip-path="url(#p83588dca04)" d="
M86.5812 178.2
L86.5812 15.3" style="fill:none;stroke:#ff0000;stroke-linecap:square;"/>
   </g>
   <g id="line2d_3">
    <path clip-path="url(#p83588dca04)" d="
M155.153 178.2
L155.153 15.3" style="fill:none;stroke:#ff0000;stroke-linecap:square;"/>
   </g>
   <g id="line2d_4">
    <path clip-path="url(#p83588dca04)" d="
M54.3073 178.2
L69.3906 177.972
L76.6187 177.516
L76.7908 177.451
L79.2011 177.06
L79.6181 176.897
L80.9606 176.506
L81.7582 176.343
L82.0405 176.278
L82.2946 176.147
L82.7558 175.985
L84.411 175.333
L85.348 174.942
L85.7392 174.779
L86.8689 174.127
L86.9181 174.03
L88.4581 173.378
L88.5085 173.28
L88.8556 173.085
L88.8693 173.052
L89.1338 172.889
L89.4657 172.498
L89.7836 172.27
L90.5827 171.684
L90.7993 171.521
L90.971 171.293
L91.6664 170.772
L91.8329 170.576
L92.2846 170.055
L92.5134 169.86
L92.6146 169.794
L92.79 169.599
L92.92 169.338
L93.1579 169.012
L93.3226 168.882
L93.5907 168.752
L93.7436 168.459
L94.0762 167.937
L94.412 167.644
L94.5817 167.383
L94.7359 167.221
L94.8045 167.123
L95.0217 166.96
L95.8289 165.689
L95.9842 165.494
L96.2463 165.233
L96.7273 164.777
L96.8494 164.582
L96.9391 164.484
L97.1496 164.256
L97.4323 163.93
L97.8666 163.246
L98.206 162.887
L98.4056 162.431
L98.7717 161.975
L99.1566 161.193
L99.2691 161.128
L99.5542 160.476
L99.6678 160.216
L99.9097 159.923
L101.602 156.599
L101.718 156.437
L102.562 154.482
L102.679 154.189
L104.534 149.399
L104.666 149.236
L104.82 149.041
L104.976 148.715
L105.095 148.194
L105.227 147.998
L105.976 145.913
L106.149 145.49
L106.428 144.871
L106.567 144.708
L106.655 144.48
L106.79 144.317
L106.944 143.73
L107.067 143.274
L107.251 142.688
L107.348 142.362
L107.412 142.069
L107.541 141.58
L108.502 138.843
L108.601 138.55
L108.732 138.257
L108.853 137.67
L109.002 137.312
L109.394 136.074
L109.548 135.618
L109.677 135.39
L109.774 135.227
L109.88 134.673
L110.069 134.054
L110.185 133.891
L110.408 133.174
L110.57 132.588
L110.67 132.262
L110.791 131.643
L110.871 131.448
L111.121 130.34
L111.29 129.916
L111.395 129.493
L111.635 128.939
L112.176 126.854
L112.388 126.202
L112.507 125.844
L112.578 125.551
L112.716 124.769
L113.043 123.694
L113.162 123.205
L113.316 122.814
L113.367 122.651
L115.751 113.822
L115.907 113.073
L117.893 106.133
L118.012 105.807
L118.369 104.504
L118.5 104.243
L118.654 103.722
L119.028 102.549
L119.151 102.093
L119.274 101.572
L119.588 100.757
L119.691 100.334
L119.836 99.7474
L119.949 99.2587
L120.042 99.0958
L120.199 98.4767
L120.454 97.5645
L120.643 96.8152
L120.759 96.3265
L121.097 94.7952
L121.218 94.2088
L121.383 93.4594
L121.485 93.1662
L122.465 89.3543
L122.599 88.6702
L122.714 88.5073
L123.025 87.4973
L123.146 87.1715
L123.703 85.3144
L123.825 84.7606
L124.146 83.5551
L124.27 83.327
L124.559 82.2845
L124.643 82.0238
L124.781 81.47
L124.853 81.2093
L124.969 80.8835
L125.104 80.6229
L125.295 79.9387
L125.398 79.6781
L125.956 77.7233
L126.113 77.0717
L126.247 76.6481
L127.073 73.4227
L127.183 73.1295
L127.353 72.5756
L128.581 68.8941
L128.693 68.3728
L129.061 67.4606
L129.184 67.0696
L129.288 66.8416
L129.545 66.19
L130.607 62.9645
L130.677 62.7691
L131.269 60.6188
L131.433 60.2278
L131.577 59.902
L132.361 57.654
L132.462 57.4585
L132.551 57.1653
L132.609 56.9698
L132.722 56.7743
L132.888 56.416
L133.011 56.1227
L133.182 55.634
L133.326 55.2105
L133.563 54.6566
L133.723 54.3308
L133.849 53.9725
L133.984 53.6141
L134.241 52.9299
L134.353 52.6041
L134.73 51.7244
L134.829 51.4312
L135.733 49.1832
L135.817 48.9877
L136.091 48.2058
L136.297 47.6194
L136.488 47.2936
L136.643 46.7397
L136.75 46.4465
L136.857 46.251
L136.997 45.9252
L137.107 45.5342
L137.194 45.3062
L137.332 45.013
L137.71 44.2636
L138.35 42.6346
L138.442 42.4717
L138.679 41.755
L138.793 41.6246
L138.907 41.364
L139.111 40.8101
L139.313 40.4518
L140.094 39.0508
L140.209 38.5621
L140.379 38.2363
L140.485 37.7802
L140.586 37.6499
L140.739 37.3567
L140.875 37.1286
L141.057 36.7376
L141.152 36.5747
L141.276 36.3141
L141.481 36.0535
L141.668 35.7602
L141.801 35.5973
L142.163 35.0761
L142.268 34.8154
L142.366 34.5222
L142.961 33.1864
L143.21 32.6
L143.338 32.3393
L143.448 31.9158
L143.592 31.59
L143.904 31.199
L144.156 31.0361
L144.264 30.9058
L144.583 30.3845
L144.721 30.1565
L146.486 27.6478
L146.609 27.4523
L146.709 27.322
L146.855 27.1265
L147.112 26.8985
L147.249 26.6704
L147.305 26.5401
L147.453 26.3772
L147.571 26.1817
L147.829 25.9211
L148.019 25.6604
L148.06 25.5953
L148.292 25.3998
L148.475 25.1717
L148.543 25.0414
L148.769 24.8785
L149.053 24.5527
L149.406 24.3898
L149.645 24.1618
L149.929 23.9011
L150.138 23.7382
L150.274 23.5427
L150.666 22.9563
L150.785 22.8586
L151.363 22.207
L151.562 22.0115
L151.677 21.8812
L151.929 21.7183
L151.991 21.6205
L152.362 21.4576
L152.425 21.2947
L152.869 21.0667
L153.657 20.4151
L155.659 19.2422
L156.042 19.1119
L156.457 18.8512
L157.595 18.4603
L157.765 18.3625
L158.562 18.1996
L158.737 18.0693
L160.451 17.6783
L160.616 17.5806
L163.221 16.6684
L166.365 16.0819
L169.241 15.7887
L169.274 15.7561
L174.807 15.4629
L186.728 15.3326
L186.728 15.3326" style="fill:none;stroke:#0000ff;stroke-linecap:square;"/>
   </g>
   <g id="line2d_5">
    <path clip-path="url(#p83588dca04)" d="
M86.8689 178.2
L86.8689 15.3" style="fill:none;stroke:#0000ff;stroke-dasharray:6.000000,6.000000;stroke-dashoffset:0.0;"/>
   </g>
   <g id="line2d_6">
    <path clip-path="url(#p83588dca04)" d="
M155.425 178.2
L155.425 15.3" style="fill:none;stroke:#0000ff;stroke-dasharray:6.000000,6.000000;stroke-dashoffset:0.0;"/>
   </g>
   <g id="patch_3">
    <path d="
M43.6219 15.3
L199.163 15.3" style="fill:none;stroke:#000000;stroke-linecap:square;stroke-linejoin:miter;"/>
   </g>
   <g id="patch_4">
    <path d="
M199.162 178.2
L199.162 15.3" style="fill:none;stroke:#000000;stroke-linecap:square;stroke-linejoin:miter;"/>
   </g>
   <g id="patch_5">
    <path d="
M43.6219 178.2
L199.163 178.2" style="fill:none;stroke:#000000;stroke-linecap:square;stroke-linejoin:miter;"/>
   </g>
   <g id="patch_6">
    <path d="
M43.6219 178.2
L43.6219 15.3" style="fill:none;stroke:#000000;stroke-linecap:square;stroke-linejoin:miter;"/>
   </g>
   <g id="matplotlib.axis_1">
    <g id="xtick_1">
     <g id="line2d_7">
      <defs>
       <path d="
M0 0
L0 -4" id="m93b0483c22" style="stroke:#000000;stroke-width:0.5;"/>
      </defs>
      <g>
       <use style="stroke:#000000;stroke-width:0.5;" x="43.621875" xlink:href="#m93b0483c22" y="178.2"/>
      </g>
     </g>
     <g id="line2d_8">
      <defs>
       <path d="
M0 0
L0 4" id="m741efc42ff" style="stroke:#000000;stroke-width:0.5;"/>
      </defs>
      <g>
       <use style="stroke:#000000;stroke-width:0.5;" x="43.621875" xlink:href="#m741efc42ff" y="15.3"/>
      </g>
     </g>
     <g id="text_1">
      <!-- −0.74 -->
      <defs>
       <path d="
M10.5938 35.5
L73.1875 35.5
L73.1875 27.2031
L10.5938 27.2031
z
" id="BitstreamVeraSans-Roman-2212"/>
       <path d="
M31.7812 66.4062
Q24.1719 66.4062 20.3281 58.9062
Q16.5 51.4219 16.5 36.375
Q16.5 21.3906 20.3281 13.8906
Q24.1719 6.39062 31.7812 6.39062
Q39.4531 6.39062 43.2812 13.8906
Q47.125 21.3906 47.125 36.375
Q47.125 51.4219 43.2812 58.9062
Q39.4531 66.4062 31.7812 66.4062
M31.7812 74.2188
Q44.0469 74.2188 50.5156 64.5156
Q56.9844 54.8281 56.9844 36.375
Q56.9844 17.9688 50.5156 8.26562
Q44.0469 -1.42188 31.7812 -1.42188
Q19.5312 -1.42188 13.0625 8.26562
Q6.59375 17.9688 6.59375 36.375
Q6.59375 54.8281 13.0625 64.5156
Q19.5312 74.2188 31.7812 74.2188" id="BitstreamVeraSans-Roman-30"/>
       <path d="
M10.6875 12.4062
L21 12.4062
L21 0
L10.6875 0
z
" id="BitstreamVeraSans-Roman-2e"/>
       <path d="
M8.20312 72.9062
L55.0781 72.9062
L55.0781 68.7031
L28.6094 0
L18.3125 0
L43.2188 64.5938
L8.20312 64.5938
z
" id="BitstreamVeraSans-Roman-37"/>
       <path d="
M37.7969 64.3125
L12.8906 25.3906
L37.7969 25.3906
z

M35.2031 72.9062
L47.6094 72.9062
L47.6094 25.3906
L58.0156 25.3906
L58.0156 17.1875
L47.6094 17.1875
L47.6094 0
L37.7969 0
L37.7969 17.1875
L4.89062 17.1875
L4.89062 26.7031
z
" id="BitstreamVeraSans-Roman-34"/>
      </defs>
      <g transform="translate(29.109375 189.7984375)scale(0.1 -0.1)">
       <use xlink:href="#BitstreamVeraSans-Roman-2212"/>
       <use x="83.7890625" xlink:href="#BitstreamVeraSans-Roman-30"/>
       <use x="147.412109375" xlink:href="#BitstreamVeraSans-Roman-2e"/>
       <use x="179.19921875" xlink:href="#BitstreamVeraSans-Roman-37"/>
       <use x="242.822265625" xlink:href="#BitstreamVeraSans-Roman-34"/>
      </g>
     </g>
    </g>
    <g id="xtick_2">
     <g id="line2d_9">
      <g>
       <use style="stroke:#000000;stroke-width:0.5;" x="65.8419642857" xlink:href="#m93b0483c22" y="178.2"/>
      </g>
     </g>
     <g id="line2d_10">
      <g>
       <use style="stroke:#000000;stroke-width:0.5;" x="65.8419642857" xlink:href="#m741efc42ff" y="15.3"/>
      </g>
     </g>
     <g id="text_2">
      <!-- −0.72 -->
      <defs>
       <path d="
M19.1875 8.29688
L53.6094 8.29688
L53.6094 0
L7.32812 0
L7.32812 8.29688
Q12.9375 14.1094 22.625 23.8906
Q32.3281 33.6875 34.8125 36.5312
Q39.5469 41.8438 41.4219 45.5312
Q43.3125 49.2188 43.3125 52.7812
Q43.3125 58.5938 39.2344 62.25
Q35.1562 65.9219 28.6094 65.9219
Q23.9688 65.9219 18.8125 64.3125
Q13.6719 62.7031 7.8125 59.4219
L7.8125 69.3906
Q13.7656 71.7812 18.9375 73
Q24.125 74.2188 28.4219 74.2188
Q39.75 74.2188 46.4844 68.5469
Q53.2188 62.8906 53.2188 53.4219
Q53.2188 48.9219 51.5312 44.8906
Q49.8594 40.875 45.4062 35.4062
Q44.1875 33.9844 37.6406 27.2188
Q31.1094 20.4531 19.1875 8.29688" id="BitstreamVeraSans-Roman-32"/>
      </defs>
      <g transform="translate(51.5497767857 189.7984375)scale(0.1 -0.1)">
       <use xlink:href="#BitstreamVeraSans-Roman-2212"/>
       <use x="83.7890625" xlink:href="#BitstreamVeraSans-Roman-30"/>
       <use x="147.412109375" xlink:href="#BitstreamVeraSans-Roman-2e"/>
       <use x="179.19921875" xlink:href="#BitstreamVeraSans-Roman-37"/>
       <use x="242.822265625" xlink:href="#BitstreamVeraSans-Roman-32"/>
      </g>
     </g>
    </g>
    <g id="xtick_3">
     <g id="line2d_11">
      <g>
       <use style="stroke:#000000;stroke-width:0.5;" x="88.0620535714" xlink:href="#m93b0483c22" y="178.2"/>
      </g>
     </g>
     <g id="line2d_12">
      <g>
       <use style="stroke:#000000;stroke-width:0.5;" x="88.0620535714" xlink:href="#m741efc42ff" y="15.3"/>
      </g>
     </g>
     <g id="text_3">
      <!-- −0.70 -->
      <g transform="translate(73.6011160714 189.7984375)scale(0.1 -0.1)">
       <use xlink:href="#BitstreamVeraSans-Roman-2212"/>
       <use x="83.7890625" xlink:href="#BitstreamVeraSans-Roman-30"/>
       <use x="147.412109375" xlink:href="#BitstreamVeraSans-Roman-2e"/>
       <use x="179.19921875" xlink:href="#BitstreamVeraSans-Roman-37"/>
       <use x="242.822265625" xlink:href="#BitstreamVeraSans-Roman-30"/>
      </g>
     </g>
    </g>
    <g id="xtick_4">
     <g id="line2d_13">
      <g>
       <use style="stroke:#000000;stroke-width:0.5;" x="110.282142857" xlink:href="#m93b0483c22" y="178.2"/>
      </g>
     </g>
     <g id="line2d_14">
      <g>
       <use style="stroke:#000000;stroke-width:0.5;" x="110.282142857" xlink:href="#m741efc42ff" y="15.3"/>
      </g>
     </g>
     <g id="text_4">
      <!-- −0.68 -->
      <defs>
       <path d="
M31.7812 34.625
Q24.75 34.625 20.7188 30.8594
Q16.7031 27.0938 16.7031 20.5156
Q16.7031 13.9219 20.7188 10.1562
Q24.75 6.39062 31.7812 6.39062
Q38.8125 6.39062 42.8594 10.1719
Q46.9219 13.9688 46.9219 20.5156
Q46.9219 27.0938 42.8906 30.8594
Q38.875 34.625 31.7812 34.625
M21.9219 38.8125
Q15.5781 40.375 12.0312 44.7188
Q8.5 49.0781 8.5 55.3281
Q8.5 64.0625 14.7188 69.1406
Q20.9531 74.2188 31.7812 74.2188
Q42.6719 74.2188 48.875 69.1406
Q55.0781 64.0625 55.0781 55.3281
Q55.0781 49.0781 51.5312 44.7188
Q48 40.375 41.7031 38.8125
Q48.8281 37.1562 52.7969 32.3125
Q56.7812 27.4844 56.7812 20.5156
Q56.7812 9.90625 50.3125 4.23438
Q43.8438 -1.42188 31.7812 -1.42188
Q19.7344 -1.42188 13.25 4.23438
Q6.78125 9.90625 6.78125 20.5156
Q6.78125 27.4844 10.7812 32.3125
Q14.7969 37.1562 21.9219 38.8125
M18.3125 54.3906
Q18.3125 48.7344 21.8438 45.5625
Q25.3906 42.3906 31.7812 42.3906
Q38.1406 42.3906 41.7188 45.5625
Q45.3125 48.7344 45.3125 54.3906
Q45.3125 60.0625 41.7188 63.2344
Q38.1406 66.4062 31.7812 66.4062
Q25.3906 66.4062 21.8438 63.2344
Q18.3125 60.0625 18.3125 54.3906" id="BitstreamVeraSans-Roman-38"/>
       <path d="
M33.0156 40.375
Q26.375 40.375 22.4844 35.8281
Q18.6094 31.2969 18.6094 23.3906
Q18.6094 15.5312 22.4844 10.9531
Q26.375 6.39062 33.0156 6.39062
Q39.6562 6.39062 43.5312 10.9531
Q47.4062 15.5312 47.4062 23.3906
Q47.4062 31.2969 43.5312 35.8281
Q39.6562 40.375 33.0156 40.375
M52.5938 71.2969
L52.5938 62.3125
Q48.875 64.0625 45.0938 64.9844
Q41.3125 65.9219 37.5938 65.9219
Q27.8281 65.9219 22.6719 59.3281
Q17.5312 52.7344 16.7969 39.4062
Q19.6719 43.6562 24.0156 45.9219
Q28.375 48.1875 33.5938 48.1875
Q44.5781 48.1875 50.9531 41.5156
Q57.3281 34.8594 57.3281 23.3906
Q57.3281 12.1562 50.6875 5.35938
Q44.0469 -1.42188 33.0156 -1.42188
Q20.3594 -1.42188 13.6719 8.26562
Q6.98438 17.9688 6.98438 36.375
Q6.98438 53.6562 15.1875 63.9375
Q23.3906 74.2188 37.2031 74.2188
Q40.9219 74.2188 44.7031 73.4844
Q48.4844 72.75 52.5938 71.2969" id="BitstreamVeraSans-Roman-36"/>
      </defs>
      <g transform="translate(95.8313616071 189.7984375)scale(0.1 -0.1)">
       <use xlink:href="#BitstreamVeraSans-Roman-2212"/>
       <use x="83.7890625" xlink:href="#BitstreamVeraSans-Roman-30"/>
       <use x="147.412109375" xlink:href="#BitstreamVeraSans-Roman-2e"/>
       <use x="179.19921875" xlink:href="#BitstreamVeraSans-Roman-36"/>
       <use x="242.822265625" xlink:href="#BitstreamVeraSans-Roman-38"/>
      </g>
     </g>
    </g>
    <g id="xtick_5">
     <g id="line2d_15">
      <g>
       <use style="stroke:#000000;stroke-width:0.5;" x="132.502232143" xlink:href="#m93b0483c22" y="178.2"/>
      </g>
     </g>
     <g id="line2d_16">
      <g>
       <use style="stroke:#000000;stroke-width:0.5;" x="132.502232143" xlink:href="#m741efc42ff" y="15.3"/>
      </g>
     </g>
     <g id="text_5">
      <!-- −0.66 -->
      <g transform="translate(118.024107143 189.7984375)scale(0.1 -0.1)">
       <use xlink:href="#BitstreamVeraSans-Roman-2212"/>
       <use x="83.7890625" xlink:href="#BitstreamVeraSans-Roman-30"/>
       <use x="147.412109375" xlink:href="#BitstreamVeraSans-Roman-2e"/>
       <use x="179.19921875" xlink:href="#BitstreamVeraSans-Roman-36"/>
       <use x="242.822265625" xlink:href="#BitstreamVeraSans-Roman-36"/>
      </g>
     </g>
    </g>
    <g id="xtick_6">
     <g id="line2d_17">
      <g>
       <use style="stroke:#000000;stroke-width:0.5;" x="154.722321429" xlink:href="#m93b0483c22" y="178.2"/>
      </g>
     </g>
     <g id="line2d_18">
      <g>
       <use style="stroke:#000000;stroke-width:0.5;" x="154.722321429" xlink:href="#m741efc42ff" y="15.3"/>
      </g>
     </g>
     <g id="text_6">
      <!-- −0.64 -->
      <g transform="translate(140.209821429 189.7984375)scale(0.1 -0.1)">
       <use xlink:href="#BitstreamVeraSans-Roman-2212"/>
       <use x="83.7890625" xlink:href="#BitstreamVeraSans-Roman-30"/>
       <use x="147.412109375" xlink:href="#BitstreamVeraSans-Roman-2e"/>
       <use x="179.19921875" xlink:href="#BitstreamVeraSans-Roman-36"/>
       <use x="242.822265625" xlink:href="#BitstreamVeraSans-Roman-34"/>
      </g>
     </g>
    </g>
    <g id="xtick_7">
     <g id="line2d_19">
      <g>
       <use style="stroke:#000000;stroke-width:0.5;" x="176.942410714" xlink:href="#m93b0483c22" y="178.2"/>
      </g>
     </g>
     <g id="line2d_20">
      <g>
       <use style="stroke:#000000;stroke-width:0.5;" x="176.942410714" xlink:href="#m741efc42ff" y="15.3"/>
      </g>
     </g>
     <g id="text_7">
      <!-- −0.62 -->
      <g transform="translate(162.650223214 189.7984375)scale(0.1 -0.1)">
       <use xlink:href="#BitstreamVeraSans-Roman-2212"/>
       <use x="83.7890625" xlink:href="#BitstreamVeraSans-Roman-30"/>
       <use x="147.412109375" xlink:href="#BitstreamVeraSans-Roman-2e"/>
       <use x="179.19921875" xlink:href="#BitstreamVeraSans-Roman-36"/>
       <use x="242.822265625" xlink:href="#BitstreamVeraSans-Roman-32"/>
      </g>
     </g>
    </g>
    <g id="xtick_8">
     <g id="line2d_21">
      <g>
       <use style="stroke:#000000;stroke-width:0.5;" x="199.1625" xlink:href="#m93b0483c22" y="178.2"/>
      </g>
     </g>
     <g id="line2d_22">
      <g>
       <use style="stroke:#000000;stroke-width:0.5;" x="199.1625" xlink:href="#m741efc42ff" y="15.3"/>
      </g>
     </g>
     <g id="text_8">
      <!-- −0.60 -->
      <g transform="translate(184.7015625 189.7984375)scale(0.1 -0.1)">
       <use xlink:href="#BitstreamVeraSans-Roman-2212"/>
       <use x="83.7890625" xlink:href="#BitstreamVeraSans-Roman-30"/>
       <use x="147.412109375" xlink:href="#BitstreamVeraSans-Roman-2e"/>
       <use x="179.19921875" xlink:href="#BitstreamVeraSans-Roman-36"/>
       <use x="242.822265625" xlink:href="#BitstreamVeraSans-Roman-30"/>
      </g>
     </g>
    </g>
    <g id="text_9">
     <!-- X component -->
     <defs>
      <path id="BitstreamVeraSans-Roman-20"/>
      <path d="
M54.8906 33.0156
L54.8906 0
L45.9062 0
L45.9062 32.7188
Q45.9062 40.4844 42.875 44.3281
Q39.8438 48.1875 33.7969 48.1875
Q26.5156 48.1875 22.3125 43.5469
Q18.1094 38.9219 18.1094 30.9062
L18.1094 0
L9.07812 0
L9.07812 54.6875
L18.1094 54.6875
L18.1094 46.1875
Q21.3438 51.125 25.7031 53.5625
Q30.0781 56 35.7969 56
Q45.2188 56 50.0469 50.1719
Q54.8906 44.3438 54.8906 33.0156" id="BitstreamVeraSans-Roman-6e"/>
      <path d="
M52 44.1875
Q55.375 50.25 60.0625 53.125
Q64.75 56 71.0938 56
Q79.6406 56 84.2812 50.0156
Q88.9219 44.0469 88.9219 33.0156
L88.9219 0
L79.8906 0
L79.8906 32.7188
Q79.8906 40.5781 77.0938 44.375
Q74.3125 48.1875 68.6094 48.1875
Q61.625 48.1875 57.5625 43.5469
Q53.5156 38.9219 53.5156 30.9062
L53.5156 0
L44.4844 0
L44.4844 32.7188
Q44.4844 40.625 41.7031 44.4062
Q38.9219 48.1875 33.1094 48.1875
Q26.2188 48.1875 22.1562 43.5312
Q18.1094 38.875 18.1094 30.9062
L18.1094 0
L9.07812 0
L9.07812 54.6875
L18.1094 54.6875
L18.1094 46.1875
Q21.1875 51.2188 25.4844 53.6094
Q29.7812 56 35.6875 56
Q41.6562 56 45.8281 52.9688
Q50 49.9531 52 44.1875" id="BitstreamVeraSans-Roman-6d"/>
      <path d="
M30.6094 48.3906
Q23.3906 48.3906 19.1875 42.75
Q14.9844 37.1094 14.9844 27.2969
Q14.9844 17.4844 19.1562 11.8438
Q23.3438 6.20312 30.6094 6.20312
Q37.7969 6.20312 41.9844 11.8594
Q46.1875 17.5312 46.1875 27.2969
Q46.1875 37.0156 41.9844 42.7031
Q37.7969 48.3906 30.6094 48.3906
M30.6094 56
Q42.3281 56 49.0156 48.375
Q55.7188 40.7656 55.7188 27.2969
Q55.7188 13.875 49.0156 6.21875
Q42.3281 -1.42188 30.6094 -1.42188
Q18.8438 -1.42188 12.1719 6.21875
Q5.51562 13.875 5.51562 27.2969
Q5.51562 40.7656 12.1719 48.375
Q18.8438 56 30.6094 56" id="BitstreamVeraSans-Roman-6f"/>
      <path d="
M56.2031 29.5938
L56.2031 25.2031
L14.8906 25.2031
Q15.4844 15.9219 20.4844 11.0625
Q25.4844 6.20312 34.4219 6.20312
Q39.5938 6.20312 44.4531 7.46875
Q49.3125 8.73438 54.1094 11.2812
L54.1094 2.78125
Q49.2656 0.734375 44.1875 -0.34375
Q39.1094 -1.42188 33.8906 -1.42188
Q20.7969 -1.42188 13.1562 6.1875
Q5.51562 13.8125 5.51562 26.8125
Q5.51562 40.2344 12.7656 48.1094
Q20.0156 56 32.3281 56
Q43.3594 56 49.7812 48.8906
Q56.2031 41.7969 56.2031 29.5938
M47.2188 32.2344
Q47.125 39.5938 43.0938 43.9844
Q39.0625 48.3906 32.4219 48.3906
Q24.9062 48.3906 20.3906 44.1406
Q15.875 39.8906 15.1875 32.1719
z
" id="BitstreamVeraSans-Roman-65"/>
      <path d="
M48.7812 52.5938
L48.7812 44.1875
Q44.9688 46.2969 41.1406 47.3438
Q37.3125 48.3906 33.4062 48.3906
Q24.6562 48.3906 19.8125 42.8438
Q14.9844 37.3125 14.9844 27.2969
Q14.9844 17.2812 19.8125 11.7344
Q24.6562 6.20312 33.4062 6.20312
Q37.3125 6.20312 41.1406 7.25
Q44.9688 8.29688 48.7812 10.4062
L48.7812 2.09375
Q45.0156 0.34375 40.9844 -0.53125
Q36.9688 -1.42188 32.4219 -1.42188
Q20.0625 -1.42188 12.7812 6.34375
Q5.51562 14.1094 5.51562 27.2969
Q5.51562 40.6719 12.8594 48.3281
Q20.2188 56 33.0156 56
Q37.1562 56 41.1094 55.1406
Q45.0625 54.2969 48.7812 52.5938" id="BitstreamVeraSans-Roman-63"/>
      <path d="
M6.29688 72.9062
L16.8906 72.9062
L35.0156 45.7969
L53.2188 72.9062
L63.8125 72.9062
L40.375 37.8906
L65.375 0
L54.7812 0
L34.2812 31
L13.625 0
L2.98438 0
L29 38.9219
z
" id="BitstreamVeraSans-Roman-58"/>
      <path d="
M18.3125 70.2188
L18.3125 54.6875
L36.8125 54.6875
L36.8125 47.7031
L18.3125 47.7031
L18.3125 18.0156
Q18.3125 11.3281 20.1406 9.42188
Q21.9688 7.51562 27.5938 7.51562
L36.8125 7.51562
L36.8125 0
L27.5938 0
Q17.1875 0 13.2344 3.875
Q9.28125 7.76562 9.28125 18.0156
L9.28125 47.7031
L2.6875 47.7031
L2.6875 54.6875
L9.28125 54.6875
L9.28125 70.2188
z
" id="BitstreamVeraSans-Roman-74"/>
      <path d="
M18.1094 8.20312
L18.1094 -20.7969
L9.07812 -20.7969
L9.07812 54.6875
L18.1094 54.6875
L18.1094 46.3906
Q20.9531 51.2656 25.2656 53.625
Q29.5938 56 35.5938 56
Q45.5625 56 51.7812 48.0938
Q58.0156 40.1875 58.0156 27.2969
Q58.0156 14.4062 51.7812 6.48438
Q45.5625 -1.42188 35.5938 -1.42188
Q29.5938 -1.42188 25.2656 0.953125
Q20.9531 3.32812 18.1094 8.20312
M48.6875 27.2969
Q48.6875 37.2031 44.6094 42.8438
Q40.5312 48.4844 33.4062 48.4844
Q26.2656 48.4844 22.1875 42.8438
Q18.1094 37.2031 18.1094 27.2969
Q18.1094 17.3906 22.1875 11.75
Q26.2656 6.10938 33.4062 6.10938
Q40.5312 6.10938 44.6094 11.75
Q48.6875 17.3906 48.6875 27.2969" id="BitstreamVeraSans-Roman-70"/>
     </defs>
     <g transform="translate(88.2109375 204.4765625)scale(0.1 -0.1)">
      <use xlink:href="#BitstreamVeraSans-Roman-58"/>
      <use x="68.505859375" xlink:href="#BitstreamVeraSans-Roman-20"/>
      <use x="100.29296875" xlink:href="#BitstreamVeraSans-Roman-63"/>
      <use x="155.2734375" xlink:href="#BitstreamVeraSans-Roman-6f"/>
      <use x="216.455078125" xlink:href="#BitstreamVeraSans-Roman-6d"/>
      <use x="313.8671875" xlink:href="#BitstreamVeraSans-Roman-70"/>
      <use x="377.34375" xlink:href="#BitstreamVeraSans-Roman-6f"/>
      <use x="438.525390625" xlink:href="#BitstreamVeraSans-Roman-6e"/>
      <use x="501.904296875" xlink:href="#BitstreamVeraSans-Roman-65"/>
      <use x="563.427734375" xlink:href="#BitstreamVeraSans-Roman-6e"/>
      <use x="626.806640625" xlink:href="#BitstreamVeraSans-Roman-74"/>
     </g>
    </g>
   </g>
   <g id="matplotlib.axis_2">
    <g id="ytick_1">
     <g id="line2d_23">
      <defs>
       <path d="
M0 0
L4 0" id="m728421d6d4" style="stroke:#000000;stroke-width:0.5;"/>
      </defs>
      <g>
       <use style="stroke:#000000;stroke-width:0.5;" x="43.621875" xlink:href="#m728421d6d4" y="178.2"/>
      </g>
     </g>
     <g id="line2d_24">
      <defs>
       <path d="
M0 0
L-4 0" id="mcb0005524f" style="stroke:#000000;stroke-width:0.5;"/>
      </defs>
      <g>
       <use style="stroke:#000000;stroke-width:0.5;" x="199.1625" xlink:href="#mcb0005524f" y="178.2"/>
      </g>
     </g>
     <g id="text_10">
      <!-- 0.0 -->
      <g transform="translate(25.0421875 180.959375)scale(0.1 -0.1)">
       <use xlink:href="#BitstreamVeraSans-Roman-30"/>
       <use x="63.623046875" xlink:href="#BitstreamVeraSans-Roman-2e"/>
       <use x="95.41015625" xlink:href="#BitstreamVeraSans-Roman-30"/>
      </g>
     </g>
    </g>
    <g id="ytick_2">
     <g id="line2d_25">
      <g>
       <use style="stroke:#000000;stroke-width:0.5;" x="43.621875" xlink:href="#m728421d6d4" y="145.62"/>
      </g>
     </g>
     <g id="line2d_26">
      <g>
       <use style="stroke:#000000;stroke-width:0.5;" x="199.1625" xlink:href="#mcb0005524f" y="145.62"/>
      </g>
     </g>
     <g id="text_11">
      <!-- 0.2 -->
      <g transform="translate(25.3796875 148.379375)scale(0.1 -0.1)">
       <use xlink:href="#BitstreamVeraSans-Roman-30"/>
       <use x="63.623046875" xlink:href="#BitstreamVeraSans-Roman-2e"/>
       <use x="95.41015625" xlink:href="#BitstreamVeraSans-Roman-32"/>
      </g>
     </g>
    </g>
    <g id="ytick_3">
     <g id="line2d_27">
      <g>
       <use style="stroke:#000000;stroke-width:0.5;" x="43.621875" xlink:href="#m728421d6d4" y="113.04"/>
      </g>
     </g>
     <g id="line2d_28">
      <g>
       <use style="stroke:#000000;stroke-width:0.5;" x="199.1625" xlink:href="#mcb0005524f" y="113.04"/>
      </g>
     </g>
     <g id="text_12">
      <!-- 0.4 -->
      <g transform="translate(24.9390625 115.799375)scale(0.1 -0.1)">
       <use xlink:href="#BitstreamVeraSans-Roman-30"/>
       <use x="63.623046875" xlink:href="#BitstreamVeraSans-Roman-2e"/>
       <use x="95.41015625" xlink:href="#BitstreamVeraSans-Roman-34"/>
      </g>
     </g>
    </g>
    <g id="ytick_4">
     <g id="line2d_29">
      <g>
       <use style="stroke:#000000;stroke-width:0.5;" x="43.621875" xlink:href="#m728421d6d4" y="80.46"/>
      </g>
     </g>
     <g id="line2d_30">
      <g>
       <use style="stroke:#000000;stroke-width:0.5;" x="199.1625" xlink:href="#mcb0005524f" y="80.46"/>
      </g>
     </g>
     <g id="text_13">
      <!-- 0.6 -->
      <g transform="translate(25.0078125 83.219375)scale(0.1 -0.1)">
       <use xlink:href="#BitstreamVeraSans-Roman-30"/>
       <use x="63.623046875" xlink:href="#BitstreamVeraSans-Roman-2e"/>
       <use x="95.41015625" xlink:href="#BitstreamVeraSans-Roman-36"/>
      </g>
     </g>
    </g>
    <g id="ytick_5">
     <g id="line2d_31">
      <g>
       <use style="stroke:#000000;stroke-width:0.5;" x="43.621875" xlink:href="#m728421d6d4" y="47.88"/>
      </g>
     </g>
     <g id="line2d_32">
      <g>
       <use style="stroke:#000000;stroke-width:0.5;" x="199.1625" xlink:href="#mcb0005524f" y="47.88"/>
      </g>
     </g>
     <g id="text_14">
      <!-- 0.8 -->
      <g transform="translate(25.0625 50.639375)scale(0.1 -0.1)">
       <use xlink:href="#BitstreamVeraSans-Roman-30"/>
       <use x="63.623046875" xlink:href="#BitstreamVeraSans-Roman-2e"/>
       <use x="95.41015625" xlink:href="#BitstreamVeraSans-Roman-38"/>
      </g>
     </g>
    </g>
    <g id="ytick_6">
     <g id="line2d_33">
      <g>
       <use style="stroke:#000000;stroke-width:0.5;" x="43.621875" xlink:href="#m728421d6d4" y="15.3"/>
      </g>
     </g>
     <g id="line2d_34">
      <g>
       <use style="stroke:#000000;stroke-width:0.5;" x="199.1625" xlink:href="#mcb0005524f" y="15.3"/>
      </g>
     </g>
     <g id="text_15">
      <!-- 1.0 -->
      <defs>
       <path d="
M12.4062 8.29688
L28.5156 8.29688
L28.5156 63.9219
L10.9844 60.4062
L10.9844 69.3906
L28.4219 72.9062
L38.2812 72.9062
L38.2812 8.29688
L54.3906 8.29688
L54.3906 0
L12.4062 0
z
" id="BitstreamVeraSans-Roman-31"/>
      </defs>
      <g transform="translate(25.48125 18.059375)scale(0.1 -0.1)">
       <use xlink:href="#BitstreamVeraSans-Roman-31"/>
       <use x="63.623046875" xlink:href="#BitstreamVeraSans-Roman-2e"/>
       <use x="95.41015625" xlink:href="#BitstreamVeraSans-Roman-30"/>
      </g>
     </g>
    </g>
    <g id="text_16">
     <!-- Cumulative Distribution -->
     <defs>
      <path d="
M41.1094 46.2969
Q39.5938 47.1719 37.8125 47.5781
Q36.0312 48 33.8906 48
Q26.2656 48 22.1875 43.0469
Q18.1094 38.0938 18.1094 28.8125
L18.1094 0
L9.07812 0
L9.07812 54.6875
L18.1094 54.6875
L18.1094 46.1875
Q20.9531 51.1719 25.4844 53.5781
Q30.0312 56 36.5312 56
Q37.4531 56 38.5781 55.875
Q39.7031 55.7656 41.0625 55.5156
z
" id="BitstreamVeraSans-Roman-72"/>
      <path d="
M9.42188 75.9844
L18.4062 75.9844
L18.4062 0
L9.42188 0
z
" id="BitstreamVeraSans-Roman-6c"/>
      <path d="
M19.6719 64.7969
L19.6719 8.10938
L31.5938 8.10938
Q46.6875 8.10938 53.6875 14.9375
Q60.6875 21.7812 60.6875 36.5312
Q60.6875 51.1719 53.6875 57.9844
Q46.6875 64.7969 31.5938 64.7969
z

M9.8125 72.9062
L30.0781 72.9062
Q51.2656 72.9062 61.1719 64.0938
Q71.0938 55.2812 71.0938 36.5312
Q71.0938 17.6719 61.125 8.82812
Q51.1719 0 30.0781 0
L9.8125 0
z
" id="BitstreamVeraSans-Roman-44"/>
      <path d="
M9.42188 54.6875
L18.4062 54.6875
L18.4062 0
L9.42188 0
z

M9.42188 75.9844
L18.4062 75.9844
L18.4062 64.5938
L9.42188 64.5938
z
" id="BitstreamVeraSans-Roman-69"/>
      <path d="
M2.98438 54.6875
L12.5 54.6875
L29.5938 8.79688
L46.6875 54.6875
L56.2031 54.6875
L35.6875 0
L23.4844 0
z
" id="BitstreamVeraSans-Roman-76"/>
      <path d="
M64.4062 67.2812
L64.4062 56.8906
Q59.4219 61.5312 53.7812 63.8125
Q48.1406 66.1094 41.7969 66.1094
Q29.2969 66.1094 22.6562 58.4688
Q16.0156 50.8281 16.0156 36.375
Q16.0156 21.9688 22.6562 14.3281
Q29.2969 6.6875 41.7969 6.6875
Q48.1406 6.6875 53.7812 8.98438
Q59.4219 11.2812 64.4062 15.9219
L64.4062 5.60938
Q59.2344 2.09375 53.4375 0.328125
Q47.6562 -1.42188 41.2188 -1.42188
Q24.6562 -1.42188 15.125 8.70312
Q5.60938 18.8438 5.60938 36.375
Q5.60938 53.9531 15.125 64.0781
Q24.6562 74.2188 41.2188 74.2188
Q47.75 74.2188 53.5312 72.4844
Q59.3281 70.75 64.4062 67.2812" id="BitstreamVeraSans-Roman-43"/>
      <path d="
M8.5 21.5781
L8.5 54.6875
L17.4844 54.6875
L17.4844 21.9219
Q17.4844 14.1562 20.5 10.2656
Q23.5312 6.39062 29.5938 6.39062
Q36.8594 6.39062 41.0781 11.0312
Q45.3125 15.6719 45.3125 23.6875
L45.3125 54.6875
L54.2969 54.6875
L54.2969 0
L45.3125 0
L45.3125 8.40625
Q42.0469 3.42188 37.7188 1
Q33.4062 -1.42188 27.6875 -1.42188
Q18.2656 -1.42188 13.375 4.4375
Q8.5 10.2969 8.5 21.5781" id="BitstreamVeraSans-Roman-75"/>
      <path d="
M34.2812 27.4844
Q23.3906 27.4844 19.1875 25
Q14.9844 22.5156 14.9844 16.5
Q14.9844 11.7188 18.1406 8.90625
Q21.2969 6.10938 26.7031 6.10938
Q34.1875 6.10938 38.7031 11.4062
Q43.2188 16.7031 43.2188 25.4844
L43.2188 27.4844
z

M52.2031 31.2031
L52.2031 0
L43.2188 0
L43.2188 8.29688
Q40.1406 3.32812 35.5469 0.953125
Q30.9531 -1.42188 24.3125 -1.42188
Q15.9219 -1.42188 10.9531 3.29688
Q6 8.01562 6 15.9219
Q6 25.1406 12.1719 29.8281
Q18.3594 34.5156 30.6094 34.5156
L43.2188 34.5156
L43.2188 35.4062
Q43.2188 41.6094 39.1406 45
Q35.0625 48.3906 27.6875 48.3906
Q23 48.3906 18.5469 47.2656
Q14.1094 46.1406 10.0156 43.8906
L10.0156 52.2031
Q14.9375 54.1094 19.5781 55.0469
Q24.2188 56 28.6094 56
Q40.4844 56 46.3438 49.8438
Q52.2031 43.7031 52.2031 31.2031" id="BitstreamVeraSans-Roman-61"/>
      <path d="
M44.2812 53.0781
L44.2812 44.5781
Q40.4844 46.5312 36.375 47.5
Q32.2812 48.4844 27.875 48.4844
Q21.1875 48.4844 17.8438 46.4375
Q14.5 44.3906 14.5 40.2812
Q14.5 37.1562 16.8906 35.375
Q19.2812 33.5938 26.5156 31.9844
L29.5938 31.2969
Q39.1562 29.25 43.1875 25.5156
Q47.2188 21.7812 47.2188 15.0938
Q47.2188 7.46875 41.1875 3.01562
Q35.1562 -1.42188 24.6094 -1.42188
Q20.2188 -1.42188 15.4531 -0.5625
Q10.6875 0.296875 5.42188 2
L5.42188 11.2812
Q10.4062 8.6875 15.2344 7.39062
Q20.0625 6.10938 24.8125 6.10938
Q31.1562 6.10938 34.5625 8.28125
Q37.9844 10.4531 37.9844 14.4062
Q37.9844 18.0625 35.5156 20.0156
Q33.0625 21.9688 24.7031 23.7812
L21.5781 24.5156
Q13.2344 26.2656 9.51562 29.9062
Q5.8125 33.5469 5.8125 39.8906
Q5.8125 47.6094 11.2812 51.7969
Q16.75 56 26.8125 56
Q31.7812 56 36.1719 55.2656
Q40.5781 54.5469 44.2812 53.0781" id="BitstreamVeraSans-Roman-73"/>
      <path d="
M48.6875 27.2969
Q48.6875 37.2031 44.6094 42.8438
Q40.5312 48.4844 33.4062 48.4844
Q26.2656 48.4844 22.1875 42.8438
Q18.1094 37.2031 18.1094 27.2969
Q18.1094 17.3906 22.1875 11.75
Q26.2656 6.10938 33.4062 6.10938
Q40.5312 6.10938 44.6094 11.75
Q48.6875 17.3906 48.6875 27.2969
M18.1094 46.3906
Q20.9531 51.2656 25.2656 53.625
Q29.5938 56 35.5938 56
Q45.5625 56 51.7812 48.0938
Q58.0156 40.1875 58.0156 27.2969
Q58.0156 14.4062 51.7812 6.48438
Q45.5625 -1.42188 35.5938 -1.42188
Q29.5938 -1.42188 25.2656 0.953125
Q20.9531 3.32812 18.1094 8.20312
L18.1094 0
L9.07812 0
L9.07812 75.9844
L18.1094 75.9844
z
" id="BitstreamVeraSans-Roman-62"/>
     </defs>
     <g transform="translate(17.859375 155.62109375)rotate(-90.0)scale(0.1 -0.1)">
      <use xlink:href="#BitstreamVeraSans-Roman-43"/>
      <use x="69.82421875" xlink:href="#BitstreamVeraSans-Roman-75"/>
      <use x="133.203125" xlink:href="#BitstreamVeraSans-Roman-6d"/>
      <use x="230.615234375" xlink:href="#BitstreamVeraSans-Roman-75"/>
      <use x="293.994140625" xlink:href="#BitstreamVeraSans-Roman-6c"/>
      <use x="321.77734375" xlink:href="#BitstreamVeraSans-Roman-61"/>
      <use x="383.056640625" xlink:href="#BitstreamVeraSans-Roman-74"/>
      <use x="422.265625" xlink:href="#BitstreamVeraSans-Roman-69"/>
      <use x="450.048828125" xlink:href="#BitstreamVeraSans-Roman-76"/>
      <use x="509.228515625" xlink:href="#BitstreamVeraSans-Roman-65"/>
      <use x="570.751953125" xlink:href="#BitstreamVeraSans-Roman-20"/>
      <use x="602.5390625" xlink:href="#BitstreamVeraSans-Roman-44"/>
      <use x="679.541015625" xlink:href="#BitstreamVeraSans-Roman-69"/>
      <use x="707.32421875" xlink:href="#BitstreamVeraSans-Roman-73"/>
      <use x="759.423828125" xlink:href="#BitstreamVeraSans-Roman-74"/>
      <use x="798.6328125" xlink:href="#BitstreamVeraSans-Roman-72"/>
      <use x="839.74609375" xlink:href="#BitstreamVeraSans-Roman-69"/>
      <use x="867.529296875" xlink:href="#BitstreamVeraSans-Roman-62"/>
      <use x="931.005859375" xlink:href="#BitstreamVeraSans-Roman-75"/>
      <use x="994.384765625" xlink:href="#BitstreamVeraSans-Roman-74"/>
      <use x="1033.59375" xlink:href="#BitstreamVeraSans-Roman-69"/>
      <use x="1061.37695312" xlink:href="#BitstreamVeraSans-Roman-6f"/>
      <use x="1122.55859375" xlink:href="#BitstreamVeraSans-Roman-6e"/>
     </g>
    </g>
   </g>
  </g>
  <g id="axes_2">
   <g id="patch_7">
    <path d="
M257.367 178.2
L412.908 178.2
L412.908 15.3
L257.367 15.3
z
" style="fill:#ffffff;"/>
   </g>
   <g id="line2d_35">
    <path clip-path="url(#p1c38c01f63)" d="
M260.491 178.2
L274.559 177.776
L274.851 177.711
L278.153 177.581
L278.709 177.418
L278.713 177.385
L280.251 177.125
L280.683 176.962
L283.544 176.408
L283.597 176.376
L284.917 176.147
L285.668 175.854
L285.869 175.691
L286.865 175.463
L287.482 175.203
L287.656 175.072
L288.009 174.942
L288.074 174.844
L288.696 174.616
L289.386 174.29
L289.931 174.03
L290.738 173.704
L291.073 173.508
L291.362 173.28
L291.787 173.118
L291.822 173.052
L292.62 172.857
L292.845 172.727
L293.631 172.498
L293.783 172.368
L294.656 171.814
L295.015 171.586
L295.452 171.391
L295.829 171.13
L296.077 171
L296.311 170.739
L296.771 170.479
L297.198 170.316
L297.365 170.12
L297.509 169.957
L298.319 169.11
L298.639 168.947
L298.722 168.784
L298.969 168.621
L299.822 167.84
L300.174 167.677
L300.597 167.351
L300.743 167.221
L303.157 164.223
L303.413 163.995
L303.521 163.897
L303.685 163.572
L303.698 163.506
L303.848 163.376
L305.093 161.747
L305.198 161.519
L305.951 160.444
L306.988 158.652
L307.097 158.522
L309.856 153.667
L310.005 153.407
L310.096 153.244
L310.474 152.69
L310.643 152.331
L311.747 150.083
L312.072 149.725
L312.161 149.432
L312.274 149.171
L312.363 148.976
L312.724 148.226
L312.823 148.063
L313.272 146.793
L313.392 146.532
L313.501 146.239
L313.645 146.044
L313.819 145.457
L314.789 143.665
L314.898 143.47
L315.013 143.274
L315.118 143.014
L315.972 141.613
L316.469 140.603
L316.6 140.407
L316.789 139.821
L316.894 139.593
L317.206 138.843
L317.507 137.866
L317.629 137.605
L317.761 137.051
L317.95 136.53
L318.06 136.367
L318.22 135.748
L318.3 135.553
L318.457 135.194
L318.716 134.412
L319.005 133.859
L319.236 133.337
L319.596 132.881
L319.785 132.686
L320.075 131.904
L320.239 131.415
L320.392 130.959
L320.603 130.21
L320.753 129.721
L320.851 129.265
L321.074 128.646
L321.325 127.896
L321.423 127.701
L321.558 127.212
L321.725 126.789
L322.609 124.736
L322.718 124.508
L322.965 123.563
L323.113 123.075
L323.246 122.847
L323.473 122.293
L323.719 121.641
L323.851 121.315
L323.968 121.152
L324.087 120.729
L324.164 120.501
L324.279 120.338
L324.47 119.751
L324.63 119.165
L324.785 118.546
L326.501 113.398
L326.64 113.235
L326.788 112.551
L326.935 112.16
L327.01 111.965
L327.591 110.108
L327.775 109.489
L327.873 109.13
L328.017 108.414
L328.084 108.218
L328.827 105.807
L328.975 105.416
L329.096 105.221
L329.256 104.569
L329.414 104.178
L329.523 103.918
L329.652 103.527
L329.787 103.136
L329.971 102.614
L330.114 102.419
L330.215 102.126
L330.35 101.832
L330.451 101.474
L330.824 100.334
L330.925 100.106
L331.578 98.4767
L331.748 97.76
L332.103 96.9455
L332.217 96.5545
L333.901 91.8304
L333.978 91.6024
L334.076 91.3091
L334.174 90.9833
L334.233 90.7879
L334.471 90.0059
L334.636 89.8105
L334.842 88.996
L334.961 88.5724
L335.058 88.3118
L335.625 86.4873
L335.825 86.1941
L337.341 81.2419
L337.496 80.5577
L337.76 79.9387
L337.989 79.2871
L338.369 78.3749
L338.494 78.2446
L338.614 77.8862
L338.741 77.593
L338.919 77.1368
L339.009 76.811
L339.198 76.4852
L339.28 76.3223
L339.387 75.8988
L339.486 75.6382
L339.636 75.0191
L339.744 74.8237
L339.887 74.3024
L340.044 73.8137
L340.214 73.325
L340.325 73.0318
L340.957 71.2399
L341.583 69.9041
L341.734 69.3502
L341.82 69.1547
L342.073 68.2425
L342.219 68.0144
L342.351 67.6561
L342.588 66.7764
L343.221 64.789
L343.374 64.561
L343.522 64.2677
L343.655 64.0723
L343.815 63.7465
L343.991 63.3229
L344.157 63.0297
L344.294 62.6387
L344.542 61.6288
L344.654 61.4007
L344.913 60.9772
L345.054 60.6514
L345.196 60.2604
L345.389 59.674
L346.369 57.8495
L346.503 57.4585
L346.591 57.263
L346.953 56.5137
L347.039 56.3508
L347.211 56.0576
L347.298 55.8295
L347.489 55.4386
L347.726 54.8521
L348.375 53.5815
L348.959 51.8548
L349.48 50.4864
L349.598 50.3235
L349.735 49.9325
L349.988 49.2809
L350.073 49.0855
L350.153 48.9226
L350.295 48.499
L350.542 48.1081
L350.777 47.8148
L351.15 47.1307
L351.23 46.7071
L351.374 46.4791
L351.473 46.2184
L351.61 46.0229
L351.855 45.4365
L351.97 45.1759
L352.379 44.4265
L352.476 44.231
L352.627 44.0681
L352.78 43.7098
L352.914 43.2536
L353.108 43.0582
L353.3 42.6346
L353.496 42.3088
L353.8 42.0808
L354.235 41.1685
L354.318 40.8427
L354.67 40.354
L354.808 40.1911
L355.034 39.8653
L355.25 39.4092
L355.379 39.1486
L356.209 37.7476
L356.326 37.5847
L356.474 37.2915
L356.592 37.0634
L356.852 36.7702
L356.957 36.4444
L357.207 35.8906
L357.366 35.6951
L359.272 32.5022
L359.477 32.3393
L359.725 32.1439
L359.865 31.9158
L360.01 31.6877
L360.565 30.9384
L360.693 30.7755
L360.85 30.6126
L361.47 29.9284
L362.724 28.2668
L362.885 28.1039
L364.517 26.1491
L364.653 25.9862
L366.013 24.7482
L366.34 24.5527
L366.606 24.2269
L366.818 24.0966
L367.216 23.7382
L367.316 23.5427
L367.785 23.1192
L368.221 22.6305
L368.581 22.3373
L369.528 22.0115
L370.03 21.5228
L370.503 21.2947
L371.035 20.9363
L371.373 20.806
L371.889 20.5128
L372.293 20.3499
L372.62 20.1218
L372.823 19.9264
L373.454 19.6983
L373.475 19.6006
L374.019 19.4377
L374.301 19.2748
L377.407 17.939
L378.663 17.6458
L380.034 17.3525
L380.487 17.2222
L381.219 16.9942
L382.206 16.8638
L382.858 16.7335
L383.364 16.6684
L384.669 16.4729
L384.68 16.4403
L387.554 16.2774
L387.574 16.2448
L387.768 16.2122
L391.729 16.0493
L396.276 15.7887
L396.45 15.7235
L397.938 15.6258
L403.725 15.3977
L408.285 15.3326
L408.285 15.3326" style="fill:none;stroke:#ff0000;stroke-linecap:square;"/>
   </g>
   <g id="line2d_36">
    <path clip-path="url(#p1c38c01f63)" d="
M289.67 178.2
L289.67 15.3" style="fill:none;stroke:#ff0000;stroke-linecap:square;"/>
   </g>
   <g id="line2d_37">
    <path clip-path="url(#p1c38c01f63)" d="
M374.067 178.2
L374.067 15.3" style="fill:none;stroke:#ff0000;stroke-linecap:square;"/>
   </g>
   <g id="line2d_38">
    <path clip-path="url(#p1c38c01f63)" d="
M258.601 178.2
L272.658 177.907
L279.199 177.385
L279.21 177.353
L281.547 176.929
L281.871 176.864
L284.952 176.31
L285.814 176.017
L287.306 175.756
L287.449 175.626
L287.849 175.431
L288.239 175.203
L290.148 174.356
L290.255 174.258
L290.793 174.062
L290.902 173.867
L291.822 173.443
L292.491 173.215
L293.006 172.857
L293.165 172.694
L293.531 172.531
L294.166 172.14
L294.348 171.945
L294.708 171.717
L294.735 171.651
L295.001 171.521
L295.112 171.391
L295.253 171.195
L295.362 170.967
L296.045 170.674
L296.263 170.511
L296.307 170.479
L296.636 170.348
L297.316 169.729
L297.592 169.436
L297.826 169.24
L297.956 169.143
L298.205 168.915
L298.283 168.85
L298.566 168.654
L299.206 168.1
L299.738 167.579
L299.981 167.416
L300.212 167.155
L300.609 166.797
L300.76 166.602
L303.123 164.125
L303.556 163.376
L303.705 163.181
L303.833 163.018
L303.933 162.79
L304.076 162.659
L304.27 162.138
L304.409 162.008
L304.523 161.812
L304.737 161.552
L307.604 157.74
L307.777 157.544
L307.887 157.251
L308.007 157.023
L308.258 156.893
L308.547 156.404
L308.651 156.143
L308.891 155.655
L309.039 155.492
L309.267 155.003
L309.402 154.808
L309.867 154.091
L310.017 153.928
L310.25 153.407
L310.539 153.016
L310.7 152.429
L311.403 150.833
L311.623 150.312
L311.813 149.953
L311.948 149.725
L312.059 149.399
L312.408 148.976
L312.545 148.715
L312.729 148.324
L312.829 148.096
L313.037 147.803
L313.11 147.64
L313.184 147.477
L313.804 146.141
L313.912 145.978
L313.995 145.783
L314.204 145.327
L314.297 145.034
L314.512 144.805
L314.875 143.698
L315.156 143.144
L315.249 142.948
L315.348 142.786
L315.498 142.525
L315.726 142.069
L315.863 141.841
L315.949 141.613
L316.038 141.45
L316.19 140.994
L316.437 140.472
L316.568 140.244
L316.832 139.593
L316.971 139.43
L317.237 138.974
L317.312 138.68
L317.464 138.518
L318.09 136.856
L318.198 136.302
L318.921 134.25
L319.078 133.859
L319.478 132.979
L319.578 132.686
L319.717 132.295
L319.9 131.741
L320.219 131.024
L320.451 130.764
L320.607 130.535
L320.725 130.275
L321.184 129.33
L321.287 129.037
L321.413 128.744
L321.517 128.515
L321.721 128.255
L322.48 126.072
L322.915 124.867
L323.004 124.541
L323.112 124.15
L323.237 123.889
L323.431 123.303
L323.717 122.553
L323.906 122.097
L324.082 121.25
L324.442 120.175
L325.496 116.819
L325.618 116.526
L325.834 115.972
L326.097 115.451
L326.217 114.962
L326.308 114.669
L326.424 114.278
L326.546 114.05
L326.691 113.496
L326.79 113.203
L326.917 112.682
L327.547 110.89
L327.69 110.173
L327.755 110.01
L328.081 109
L328.581 107.404
L328.688 106.915
L328.769 106.719
L329.018 106.1
L329.158 105.677
L329.283 105.156
L329.388 104.602
L329.461 104.374
L329.575 104.113
L329.795 103.429
L329.911 103.038
L330.037 102.517
L330.475 101.148
L330.687 100.725
L330.772 100.562
L330.874 100.301
L331.068 99.7799
L331.227 99.0632
L331.749 97.6297
L331.818 97.4668
L331.955 97.1735
L332.072 96.8152
L332.226 96.3265
L332.286 96.131
L333.409 92.6775
L333.653 91.8956
L333.758 91.5372
L334.311 89.5824
L334.505 89.1589
L334.552 88.9308
L334.674 88.5073
L334.82 88.2466
L336.666 83.4248
L336.741 83.2293
L336.832 83.0338
L337.25 81.8935
L337.416 81.4374
L337.555 80.8835
L337.749 80.3623
L338.015 79.6129
L338.233 79.3523
L338.526 78.3097
L338.69 77.6907
L339.072 76.4201
L339.144 76.2246
L339.29 75.8662
L339.524 75.3124
L339.649 75.0517
L339.943 74.1069
L340.064 73.7159
L340.186 73.5205
L340.455 72.6082
L340.692 72.0218
L340.84 71.7286
L341.319 70.5231
L341.616 69.8715
L341.727 69.4805
L341.841 69.2525
L341.941 69.0244
L342.092 68.5683
L342.247 68.3728
L342.84 67.0696
L343.013 66.4506
L343.875 64.17
L343.983 63.9094
L344.123 63.6161
L344.314 63.1274
L345.059 61.3355
L345.248 61.0749
L345.335 60.7817
L345.503 60.4885
L345.826 59.5436
L346.011 59.0224
L346.164 58.4033
L346.396 57.7843
L346.452 57.6214
L346.568 57.3608
L346.665 57.1327
L346.779 56.8069
L346.849 56.5789
L347.23 55.6015
L347.425 54.9824
L347.543 54.6241
L349.744 49.7696
L349.889 49.3461
L350.574 48.0755
L350.68 47.88
L350.806 47.6519
L350.954 47.2284
L353.493 41.5269
L353.667 41.3314
L354.858 39.3115
L355.328 38.5947
L355.428 38.3666
L355.587 38.0734
L355.717 37.8779
L355.998 37.2263
L356.143 36.9005
L356.258 36.8028
L356.439 36.6399
L356.524 36.4444
L356.936 36.1186
L357.324 35.4996
L359.246 32.6977
L359.466 32.2742
L360.023 31.3945
L360.175 31.2316
L360.495 30.9384
L360.617 30.7755
L361.155 29.9936
L361.393 29.8307
L361.754 29.4397
L361.955 29.2117
L362.111 28.951
L362.383 28.6904
L362.565 28.4949
L362.841 28.2343
L363.042 27.941
L365.544 25.4975
L366.084 25.3346
L366.294 25.1717
L366.997 24.8459
L367.085 24.6505
L367.205 24.5853
L367.626 24.455
L367.758 24.2921
L368.293 23.9663
L368.375 23.8685
L368.656 23.6079
L368.698 23.5102
L369.104 23.2821
L370.41 22.435
L370.725 22.2721
L370.734 22.2395
L370.947 22.1092
L371.594 21.6205
L374.812 20.2847
L374.921 20.1544
L376.346 19.6331
L376.996 19.2748
L377.598 18.9164
L378.236 18.7535
L378.374 18.6883
L380.345 18.2322
L380.423 18.167
L381.132 18.0367
L382.587 17.5806
L383.689 17.4177
L383.989 17.1896
L385.959 16.7661
L388.866 16.4729
L389.058 16.3751
L399.161 15.4629
L400.659 15.3977
L408.705 15.3326
L408.705 15.3326" style="fill:none;stroke:#0000ff;stroke-linecap:square;"/>
   </g>
   <g id="line2d_39">
    <path clip-path="url(#p1c38c01f63)" d="
M290.676 178.2
L290.676 15.3" style="fill:none;stroke:#0000ff;stroke-dasharray:6.000000,6.000000;stroke-dashoffset:0.0;"/>
   </g>
   <g id="line2d_40">
    <path clip-path="url(#p1c38c01f63)" d="
M376.835 178.2
L376.835 15.3" style="fill:none;stroke:#0000ff;stroke-dasharray:6.000000,6.000000;stroke-dashoffset:0.0;"/>
   </g>
   <g id="patch_8">
    <path d="
M257.367 15.3
L412.908 15.3" style="fill:none;stroke:#000000;stroke-linecap:square;stroke-linejoin:miter;"/>
   </g>
   <g id="patch_9">
    <path d="
M412.908 178.2
L412.908 15.3" style="fill:none;stroke:#000000;stroke-linecap:square;stroke-linejoin:miter;"/>
   </g>
   <g id="patch_10">
    <path d="
M257.367 178.2
L412.908 178.2" style="fill:none;stroke:#000000;stroke-linecap:square;stroke-linejoin:miter;"/>
   </g>
   <g id="patch_11">
    <path d="
M257.367 178.2
L257.367 15.3" style="fill:none;stroke:#000000;stroke-linecap:square;stroke-linejoin:miter;"/>
   </g>
   <g id="matplotlib.axis_3">
    <g id="xtick_9">
     <g id="line2d_41">
      <g>
       <use style="stroke:#000000;stroke-width:0.5;" x="257.3671875" xlink:href="#m93b0483c22" y="178.2"/>
      </g>
     </g>
     <g id="line2d_42">
      <g>
       <use style="stroke:#000000;stroke-width:0.5;" x="257.3671875" xlink:href="#m741efc42ff" y="15.3"/>
      </g>
     </g>
     <g id="text_17">
      <!-- −0.32 -->
      <defs>
       <path d="
M40.5781 39.3125
Q47.6562 37.7969 51.625 33
Q55.6094 28.2188 55.6094 21.1875
Q55.6094 10.4062 48.1875 4.48438
Q40.7656 -1.42188 27.0938 -1.42188
Q22.5156 -1.42188 17.6562 -0.515625
Q12.7969 0.390625 7.625 2.20312
L7.625 11.7188
Q11.7188 9.32812 16.5938 8.10938
Q21.4844 6.89062 26.8125 6.89062
Q36.0781 6.89062 40.9375 10.5469
Q45.7969 14.2031 45.7969 21.1875
Q45.7969 27.6406 41.2812 31.2656
Q36.7656 34.9062 28.7188 34.9062
L20.2188 34.9062
L20.2188 43.0156
L29.1094 43.0156
Q36.375 43.0156 40.2344 45.9219
Q44.0938 48.8281 44.0938 54.2969
Q44.0938 59.9062 40.1094 62.9062
Q36.1406 65.9219 28.7188 65.9219
Q24.6562 65.9219 20.0156 65.0312
Q15.375 64.1562 9.8125 62.3125
L9.8125 71.0938
Q15.4375 72.6562 20.3438 73.4375
Q25.25 74.2188 29.5938 74.2188
Q40.8281 74.2188 47.3594 69.1094
Q53.9062 64.0156 53.9062 55.3281
Q53.9062 49.2656 50.4375 45.0938
Q46.9688 40.9219 40.5781 39.3125" id="BitstreamVeraSans-Roman-33"/>
      </defs>
      <g transform="translate(243.075 189.7984375)scale(0.1 -0.1)">
       <use xlink:href="#BitstreamVeraSans-Roman-2212"/>
       <use x="83.7890625" xlink:href="#BitstreamVeraSans-Roman-30"/>
       <use x="147.412109375" xlink:href="#BitstreamVeraSans-Roman-2e"/>
       <use x="179.19921875" xlink:href="#BitstreamVeraSans-Roman-33"/>
       <use x="242.822265625" xlink:href="#BitstreamVeraSans-Roman-32"/>
      </g>
     </g>
    </g>
    <g id="xtick_10">
     <g id="line2d_43">
      <g>
       <use style="stroke:#000000;stroke-width:0.5;" x="279.587276786" xlink:href="#m93b0483c22" y="178.2"/>
      </g>
     </g>
     <g id="line2d_44">
      <g>
       <use style="stroke:#000000;stroke-width:0.5;" x="279.587276786" xlink:href="#m741efc42ff" y="15.3"/>
      </g>
     </g>
     <g id="text_18">
      <!-- −0.30 -->
      <g transform="translate(265.126339286 189.7984375)scale(0.1 -0.1)">
       <use xlink:href="#BitstreamVeraSans-Roman-2212"/>
       <use x="83.7890625" xlink:href="#BitstreamVeraSans-Roman-30"/>
       <use x="147.412109375" xlink:href="#BitstreamVeraSans-Roman-2e"/>
       <use x="179.19921875" xlink:href="#BitstreamVeraSans-Roman-33"/>
       <use x="242.822265625" xlink:href="#BitstreamVeraSans-Roman-30"/>
      </g>
     </g>
    </g>
    <g id="xtick_11">
     <g id="line2d_45">
      <g>
       <use style="stroke:#000000;stroke-width:0.5;" x="301.807366071" xlink:href="#m93b0483c22" y="178.2"/>
      </g>
     </g>
     <g id="line2d_46">
      <g>
       <use style="stroke:#000000;stroke-width:0.5;" x="301.807366071" xlink:href="#m741efc42ff" y="15.3"/>
      </g>
     </g>
     <g id="text_19">
      <!-- −0.28 -->
      <g transform="translate(287.356584821 189.7984375)scale(0.1 -0.1)">
       <use xlink:href="#BitstreamVeraSans-Roman-2212"/>
       <use x="83.7890625" xlink:href="#BitstreamVeraSans-Roman-30"/>
       <use x="147.412109375" xlink:href="#BitstreamVeraSans-Roman-2e"/>
       <use x="179.19921875" xlink:href="#BitstreamVeraSans-Roman-32"/>
       <use x="242.822265625" xlink:href="#BitstreamVeraSans-Roman-38"/>
      </g>
     </g>
    </g>
    <g id="xtick_12">
     <g id="line2d_47">
      <g>
       <use style="stroke:#000000;stroke-width:0.5;" x="324.027455357" xlink:href="#m93b0483c22" y="178.2"/>
      </g>
     </g>
     <g id="line2d_48">
      <g>
       <use style="stroke:#000000;stroke-width:0.5;" x="324.027455357" xlink:href="#m741efc42ff" y="15.3"/>
      </g>
     </g>
     <g id="text_20">
      <!-- −0.26 -->
      <g transform="translate(309.549330357 189.7984375)scale(0.1 -0.1)">
       <use xlink:href="#BitstreamVeraSans-Roman-2212"/>
       <use x="83.7890625" xlink:href="#BitstreamVeraSans-Roman-30"/>
       <use x="147.412109375" xlink:href="#BitstreamVeraSans-Roman-2e"/>
       <use x="179.19921875" xlink:href="#BitstreamVeraSans-Roman-32"/>
       <use x="242.822265625" xlink:href="#BitstreamVeraSans-Roman-36"/>
      </g>
     </g>
    </g>
    <g id="xtick_13">
     <g id="line2d_49">
      <g>
       <use style="stroke:#000000;stroke-width:0.5;" x="346.247544643" xlink:href="#m93b0483c22" y="178.2"/>
      </g>
     </g>
     <g id="line2d_50">
      <g>
       <use style="stroke:#000000;stroke-width:0.5;" x="346.247544643" xlink:href="#m741efc42ff" y="15.3"/>
      </g>
     </g>
     <g id="text_21">
      <!-- −0.24 -->
      <g transform="translate(331.735044643 189.7984375)scale(0.1 -0.1)">
       <use xlink:href="#BitstreamVeraSans-Roman-2212"/>
       <use x="83.7890625" xlink:href="#BitstreamVeraSans-Roman-30"/>
       <use x="147.412109375" xlink:href="#BitstreamVeraSans-Roman-2e"/>
       <use x="179.19921875" xlink:href="#BitstreamVeraSans-Roman-32"/>
       <use x="242.822265625" xlink:href="#BitstreamVeraSans-Roman-34"/>
      </g>
     </g>
    </g>
    <g id="xtick_14">
     <g id="line2d_51">
      <g>
       <use style="stroke:#000000;stroke-width:0.5;" x="368.467633929" xlink:href="#m93b0483c22" y="178.2"/>
      </g>
     </g>
     <g id="line2d_52">
      <g>
       <use style="stroke:#000000;stroke-width:0.5;" x="368.467633929" xlink:href="#m741efc42ff" y="15.3"/>
      </g>
     </g>
     <g id="text_22">
      <!-- −0.22 -->
      <g transform="translate(354.175446429 189.7984375)scale(0.1 -0.1)">
       <use xlink:href="#BitstreamVeraSans-Roman-2212"/>
       <use x="83.7890625" xlink:href="#BitstreamVeraSans-Roman-30"/>
       <use x="147.412109375" xlink:href="#BitstreamVeraSans-Roman-2e"/>
       <use x="179.19921875" xlink:href="#BitstreamVeraSans-Roman-32"/>
       <use x="242.822265625" xlink:href="#BitstreamVeraSans-Roman-32"/>
      </g>
     </g>
    </g>
    <g id="xtick_15">
     <g id="line2d_53">
      <g>
       <use style="stroke:#000000;stroke-width:0.5;" x="390.687723214" xlink:href="#m93b0483c22" y="178.2"/>
      </g>
     </g>
     <g id="line2d_54">
      <g>
       <use style="stroke:#000000;stroke-width:0.5;" x="390.687723214" xlink:href="#m741efc42ff" y="15.3"/>
      </g>
     </g>
     <g id="text_23">
      <!-- −0.20 -->
      <g transform="translate(376.226785714 189.7984375)scale(0.1 -0.1)">
       <use xlink:href="#BitstreamVeraSans-Roman-2212"/>
       <use x="83.7890625" xlink:href="#BitstreamVeraSans-Roman-30"/>
       <use x="147.412109375" xlink:href="#BitstreamVeraSans-Roman-2e"/>
       <use x="179.19921875" xlink:href="#BitstreamVeraSans-Roman-32"/>
       <use x="242.822265625" xlink:href="#BitstreamVeraSans-Roman-30"/>
      </g>
     </g>
    </g>
    <g id="xtick_16">
     <g id="line2d_55">
      <g>
       <use style="stroke:#000000;stroke-width:0.5;" x="412.9078125" xlink:href="#m93b0483c22" y="178.2"/>
      </g>
     </g>
     <g id="line2d_56">
      <g>
       <use style="stroke:#000000;stroke-width:0.5;" x="412.9078125" xlink:href="#m741efc42ff" y="15.3"/>
      </g>
     </g>
     <g id="text_24">
      <!-- −0.18 -->
      <g transform="translate(398.45703125 189.7984375)scale(0.1 -0.1)">
       <use xlink:href="#BitstreamVeraSans-Roman-2212"/>
       <use x="83.7890625" xlink:href="#BitstreamVeraSans-Roman-30"/>
       <use x="147.412109375" xlink:href="#BitstreamVeraSans-Roman-2e"/>
       <use x="179.19921875" xlink:href="#BitstreamVeraSans-Roman-31"/>
       <use x="242.822265625" xlink:href="#BitstreamVeraSans-Roman-38"/>
      </g>
     </g>
    </g>
    <g id="text_25">
     <!-- Y component -->
     <defs>
      <path d="
M-0.203125 72.9062
L10.4062 72.9062
L30.6094 42.9219
L50.6875 72.9062
L61.2812 72.9062
L35.5 34.7188
L35.5 0
L25.5938 0
L25.5938 34.7188
z
" id="BitstreamVeraSans-Roman-59"/>
     </defs>
     <g transform="translate(302.3171875 204.4765625)scale(0.1 -0.1)">
      <use xlink:href="#BitstreamVeraSans-Roman-59"/>
      <use x="61.083984375" xlink:href="#BitstreamVeraSans-Roman-20"/>
      <use x="92.87109375" xlink:href="#BitstreamVeraSans-Roman-63"/>
      <use x="147.8515625" xlink:href="#BitstreamVeraSans-Roman-6f"/>
      <use x="209.033203125" xlink:href="#BitstreamVeraSans-Roman-6d"/>
      <use x="306.4453125" xlink:href="#BitstreamVeraSans-Roman-70"/>
      <use x="369.921875" xlink:href="#BitstreamVeraSans-Roman-6f"/>
      <use x="431.103515625" xlink:href="#BitstreamVeraSans-Roman-6e"/>
      <use x="494.482421875" xlink:href="#BitstreamVeraSans-Roman-65"/>
      <use x="556.005859375" xlink:href="#BitstreamVeraSans-Roman-6e"/>
      <use x="619.384765625" xlink:href="#BitstreamVeraSans-Roman-74"/>
     </g>
    </g>
   </g>
   <g id="matplotlib.axis_4">
    <g id="ytick_7">
     <g id="line2d_57">
      <g>
       <use style="stroke:#000000;stroke-width:0.5;" x="257.3671875" xlink:href="#m728421d6d4" y="178.2"/>
      </g>
     </g>
     <g id="line2d_58">
      <g>
       <use style="stroke:#000000;stroke-width:0.5;" x="412.9078125" xlink:href="#mcb0005524f" y="178.2"/>
      </g>
     </g>
     <g id="text_26">
      <!-- 0.0 -->
      <g transform="translate(238.7875 180.959375)scale(0.1 -0.1)">
       <use xlink:href="#BitstreamVeraSans-Roman-30"/>
       <use x="63.623046875" xlink:href="#BitstreamVeraSans-Roman-2e"/>
       <use x="95.41015625" xlink:href="#BitstreamVeraSans-Roman-30"/>
      </g>
     </g>
    </g>
    <g id="ytick_8">
     <g id="line2d_59">
      <g>
       <use style="stroke:#000000;stroke-width:0.5;" x="257.3671875" xlink:href="#m728421d6d4" y="145.62"/>
      </g>
     </g>
     <g id="line2d_60">
      <g>
       <use style="stroke:#000000;stroke-width:0.5;" x="412.9078125" xlink:href="#mcb0005524f" y="145.62"/>
      </g>
     </g>
     <g id="text_27">
      <!-- 0.2 -->
      <g transform="translate(239.125 148.379375)scale(0.1 -0.1)">
       <use xlink:href="#BitstreamVeraSans-Roman-30"/>
       <use x="63.623046875" xlink:href="#BitstreamVeraSans-Roman-2e"/>
       <use x="95.41015625" xlink:href="#BitstreamVeraSans-Roman-32"/>
      </g>
     </g>
    </g>
    <g id="ytick_9">
     <g id="line2d_61">
      <g>
       <use style="stroke:#000000;stroke-width:0.5;" x="257.3671875" xlink:href="#m728421d6d4" y="113.04"/>
      </g>
     </g>
     <g id="line2d_62">
      <g>
       <use style="stroke:#000000;stroke-width:0.5;" x="412.9078125" xlink:href="#mcb0005524f" y="113.04"/>
      </g>
     </g>
     <g id="text_28">
      <!-- 0.4 -->
      <g transform="translate(238.684375 115.799375)scale(0.1 -0.1)">
       <use xlink:href="#BitstreamVeraSans-Roman-30"/>
       <use x="63.623046875" xlink:href="#BitstreamVeraSans-Roman-2e"/>
       <use x="95.41015625" xlink:href="#BitstreamVeraSans-Roman-34"/>
      </g>
     </g>
    </g>
    <g id="ytick_10">
     <g id="line2d_63">
      <g>
       <use style="stroke:#000000;stroke-width:0.5;" x="257.3671875" xlink:href="#m728421d6d4" y="80.46"/>
      </g>
     </g>
     <g id="line2d_64">
      <g>
       <use style="stroke:#000000;stroke-width:0.5;" x="412.9078125" xlink:href="#mcb0005524f" y="80.46"/>
      </g>
     </g>
     <g id="text_29">
      <!-- 0.6 -->
      <g transform="translate(238.753125 83.219375)scale(0.1 -0.1)">
       <use xlink:href="#BitstreamVeraSans-Roman-30"/>
       <use x="63.623046875" xlink:href="#BitstreamVeraSans-Roman-2e"/>
       <use x="95.41015625" xlink:href="#BitstreamVeraSans-Roman-36"/>
      </g>
     </g>
    </g>
    <g id="ytick_11">
     <g id="line2d_65">
      <g>
       <use style="stroke:#000000;stroke-width:0.5;" x="257.3671875" xlink:href="#m728421d6d4" y="47.88"/>
      </g>
     </g>
     <g id="line2d_66">
      <g>
       <use style="stroke:#000000;stroke-width:0.5;" x="412.9078125" xlink:href="#mcb0005524f" y="47.88"/>
      </g>
     </g>
     <g id="text_30">
      <!-- 0.8 -->
      <g transform="translate(238.8078125 50.639375)scale(0.1 -0.1)">
       <use xlink:href="#BitstreamVeraSans-Roman-30"/>
       <use x="63.623046875" xlink:href="#BitstreamVeraSans-Roman-2e"/>
       <use x="95.41015625" xlink:href="#BitstreamVeraSans-Roman-38"/>
      </g>
     </g>
    </g>
    <g id="ytick_12">
     <g id="line2d_67">
      <g>
       <use style="stroke:#000000;stroke-width:0.5;" x="257.3671875" xlink:href="#m728421d6d4" y="15.3"/>
      </g>
     </g>
     <g id="line2d_68">
      <g>
       <use style="stroke:#000000;stroke-width:0.5;" x="412.9078125" xlink:href="#mcb0005524f" y="15.3"/>
      </g>
     </g>
     <g id="text_31">
      <!-- 1.0 -->
      <g transform="translate(239.2265625 18.059375)scale(0.1 -0.1)">
       <use xlink:href="#BitstreamVeraSans-Roman-31"/>
       <use x="63.623046875" xlink:href="#BitstreamVeraSans-Roman-2e"/>
       <use x="95.41015625" xlink:href="#BitstreamVeraSans-Roman-30"/>
      </g>
     </g>
    </g>
    <g id="text_32">
     <!-- Cumulative Distribution -->
     <g transform="translate(231.6046875 155.62109375)rotate(-90.0)scale(0.1 -0.1)">
      <use xlink:href="#BitstreamVeraSans-Roman-43"/>
      <use x="69.82421875" xlink:href="#BitstreamVeraSans-Roman-75"/>
      <use x="133.203125" xlink:href="#BitstreamVeraSans-Roman-6d"/>
      <use x="230.615234375" xlink:href="#BitstreamVeraSans-Roman-75"/>
      <use x="293.994140625" xlink:href="#BitstreamVeraSans-Roman-6c"/>
      <use x="321.77734375" xlink:href="#BitstreamVeraSans-Roman-61"/>
      <use x="383.056640625" xlink:href="#BitstreamVeraSans-Roman-74"/>
      <use x="422.265625" xlink:href="#BitstreamVeraSans-Roman-69"/>
      <use x="450.048828125" xlink:href="#BitstreamVeraSans-Roman-76"/>
      <use x="509.228515625" xlink:href="#BitstreamVeraSans-Roman-65"/>
      <use x="570.751953125" xlink:href="#BitstreamVeraSans-Roman-20"/>
      <use x="602.5390625" xlink:href="#BitstreamVeraSans-Roman-44"/>
      <use x="679.541015625" xlink:href="#BitstreamVeraSans-Roman-69"/>
      <use x="707.32421875" xlink:href="#BitstreamVeraSans-Roman-73"/>
      <use x="759.423828125" xlink:href="#BitstreamVeraSans-Roman-74"/>
      <use x="798.6328125" xlink:href="#BitstreamVeraSans-Roman-72"/>
      <use x="839.74609375" xlink:href="#BitstreamVeraSans-Roman-69"/>
      <use x="867.529296875" xlink:href="#BitstreamVeraSans-Roman-62"/>
      <use x="931.005859375" xlink:href="#BitstreamVeraSans-Roman-75"/>
      <use x="994.384765625" xlink:href="#BitstreamVeraSans-Roman-74"/>
      <use x="1033.59375" xlink:href="#BitstreamVeraSans-Roman-69"/>
      <use x="1061.37695312" xlink:href="#BitstreamVeraSans-Roman-6f"/>
      <use x="1122.55859375" xlink:href="#BitstreamVeraSans-Roman-6e"/>
     </g>
    </g>
   </g>
  </g>
  <g id="axes_3">
   <g id="patch_12">
    <path d="
M471.113 178.2
L626.653 178.2
L626.653 15.3
L471.113 15.3
z
" style="fill:#ffffff;"/>
   </g>
   <g id="line2d_69">
    <path clip-path="url(#p4814c24baf)" d="
M485.253 178.2
L498.678 178.167
L503.831 178.07
L512.551 177.711
L515.203 177.483
L515.938 177.223
L516.592 177.092
L516.612 177.06
L517.562 176.832
L517.693 176.734
L519.436 176.278
L520.22 175.789
L520.784 175.626
L520.785 175.594
L522.079 175.3
L522.583 175.04
L523.081 174.844
L523.22 174.747
L523.538 174.584
L523.808 174.453
L524.507 174.095
L524.647 173.965
L525.074 173.671
L525.181 173.606
L525.638 173.411
L525.77 173.215
L526.499 172.824
L526.613 172.694
L528.121 171.456
L528.424 171.195
L529.511 170.609
L529.679 170.348
L529.969 170.185
L530.08 169.957
L530.206 169.86
L530.506 169.403
L531.018 168.915
L531.18 168.687
L531.501 168.361
L532.144 167.677
L532.402 167.318
L532.534 167.123
L532.748 166.83
L532.949 166.439
L533.339 166.048
L533.553 165.526
L533.79 165.331
L533.919 165.135
L534.101 164.94
L534.258 164.549
L534.353 164.386
L534.495 164.223
L534.97 163.637
L535.167 163.246
L535.456 162.757
L535.633 162.594
L536.126 161.649
L536.538 161.063
L536.662 160.705
L536.739 160.509
L536.949 160.118
L537.058 159.89
L537.181 159.727
L537.299 159.466
L538.087 157.707
L538.25 157.512
L539.316 155.524
L539.677 154.612
L539.968 153.993
L540.098 153.667
L540.358 153.113
L541.601 150.246
L541.739 149.986
L542.008 149.367
L542.252 148.422
L542.525 147.901
L542.583 147.705
L542.925 147.086
L543.022 146.923
L543.822 144.415
L543.933 143.958
L544.088 143.405
L544.582 142.069
L544.718 141.547
L544.813 141.385
L544.952 140.928
L545.291 139.918
L545.441 139.593
L545.749 138.648
L545.873 138.387
L546.316 137.247
L546.468 136.726
L546.537 136.498
L546.847 135.162
L546.93 134.901
L547.154 134.184
L547.274 133.826
L547.422 133.305
L547.523 132.914
L547.664 132.36
L547.782 131.839
L548.043 130.829
L548.162 130.34
L548.334 129.916
L548.467 129.395
L548.569 129.167
L549.43 126.202
L551.148 119.621
L551.243 119.393
L551.36 118.97
L551.604 118.285
L551.723 117.829
L551.966 116.787
L552.16 116.005
L552.33 115.614
L552.502 114.702
L552.968 112.584
L553.116 112.16
L553.285 111.541
L553.395 111.085
L553.454 110.792
L554.409 107.013
L554.517 106.687
L554.715 105.97
L554.798 105.775
L554.945 105.09
L555.077 104.667
L555.205 104.243
L555.348 103.722
L555.597 102.68
L556.48 98.7048
L556.557 98.4767
L556.611 98.0532
L556.761 97.3039
L556.919 96.6197
L557.066 96.0984
L557.18 95.8052
L557.295 95.3816
L557.549 94.4042
L557.628 94.1762
L557.827 93.5246
L558.336 91.6349
L558.419 91.3743
L558.575 90.5924
L559.18 88.2466
L559.295 87.7579
L559.948 85.5425
L560.22 84.7931
L560.433 83.9461
L560.799 82.5125
L560.938 82.2519
L562.809 75.7359
L562.93 75.4101
L563.07 74.8237
L563.137 74.6282
L563.256 74.2372
L563.703 72.4453
L563.788 72.1847
L563.909 71.5982
L563.969 71.4028
L564.125 70.7837
L564.196 70.5231
L564.591 68.7964
L564.664 68.6335
L565.247 66.4506
L565.356 66.0596
L565.477 65.5709
L565.61 65.1148
L565.772 64.4958
L565.86 64.3329
L566.064 63.5836
L566.167 63.3229
L566.377 62.3781
L566.498 61.7917
L566.628 61.0423
L566.842 60.293
L566.902 60.1301
L567.094 59.3807
L567.566 57.4911
L567.735 57.1001
L567.874 56.5463
L567.978 56.2856
L568.162 55.3734
L568.28 54.7544
L568.467 54.396
L568.575 54.0702
L568.754 53.6792
L568.905 53.0602
L569.14 52.376
L569.275 51.9851
L569.503 51.3986
L569.584 51.2357
L570.134 49.6067
L570.558 48.1406
L570.859 47.6194
L571.008 47.0329
L571.047 46.87
L571.167 46.2836
L571.313 45.7297
L571.965 44.4265
L572.108 43.8727
L572.215 43.4817
L572.368 43.1233
L572.463 42.9278
L572.565 42.602
L572.677 42.1459
L572.857 41.6898
L573.335 40.354
L573.476 40.126
L573.676 39.7024
L573.782 39.4418
L573.968 39.1486
L574.62 37.1286
L574.784 36.5747
L574.904 36.2815
L575.057 35.8906
L575.509 34.8154
L575.586 34.5874
L576.078 33.5122
L576.216 33.0887
L576.336 32.828
L576.604 32.2416
L576.711 32.0461
L576.779 31.8506
L577.003 31.6226
L577.171 31.2642
L577.3 30.9058
L577.464 30.6452
L577.653 30.3845
L578.096 29.6352
L578.57 28.7881
L578.694 28.5601
L578.862 28.2994
L579.038 28.1039
L579.271 27.6152
L579.4 27.4198
L579.541 27.1591
L580.035 26.5075
L580.728 25.3021
L580.885 25.1066
L581.464 24.1943
L581.815 23.9663
L581.935 23.7382
L582.213 23.5753
L582.361 23.4124
L582.476 23.2169
L582.653 22.9889
L583.542 21.9137
L584.061 21.6531
L584.38 21.3925
L584.621 21.197
L584.937 20.9689
L585.129 20.806
L586.145 20.0241
L586.576 19.7635
L586.836 19.6331
L587.344 19.3399
L587.456 19.2748
L587.74 19.0793
L588.033 18.9164
L588.185 18.7535
L588.7 18.4603
L589.478 17.8738
L590.513 17.548
L590.729 17.3851
L591.296 17.1896
L597.14 15.9842
L602.8 15.6258
L602.879 15.5932
L619.939 15.3326
L619.939 15.3326" style="fill:none;stroke:#ff0000;stroke-linecap:square;"/>
   </g>
   <g id="line2d_70">
    <path clip-path="url(#p4814c24baf)" d="
M524.411 178.2
L524.411 15.3" style="fill:none;stroke:#ff0000;stroke-linecap:square;"/>
   </g>
   <g id="line2d_71">
    <path clip-path="url(#p4814c24baf)" d="
M587.288 178.2
L587.288 15.3" style="fill:none;stroke:#ff0000;stroke-linecap:square;"/>
   </g>
   <g id="line2d_72">
    <path clip-path="url(#p4814c24baf)" d="
M492.147 178.2
L504.373 178.005
L504.455 177.972
L508.395 177.809
L511.938 177.548
L514.804 177.157
L515.852 176.897
L516.77 176.766
L516.849 176.669
L518.052 176.343
L519.579 176.017
L519.671 175.952
L520.437 175.724
L521.512 175.561
L522.327 175.268
L522.398 175.203
L523.18 175.007
L523.536 174.779
L523.849 174.584
L523.852 174.551
L524.525 174.29
L525.708 173.769
L525.811 173.639
L525.904 173.476
L526.054 173.28
L526.869 173.052
L527.257 172.857
L527.383 172.661
L527.856 172.401
L527.953 172.238
L528.423 171.977
L528.537 171.847
L529.26 171.26
L529.372 171.13
L532.366 168.198
L532.58 167.807
L533.136 167.058
L533.23 166.96
L533.401 166.797
L533.493 166.699
L533.7 166.471
L533.838 166.145
L534.029 165.95
L534.153 165.754
L535.884 162.822
L536.085 162.627
L536.26 162.203
L536.373 161.975
L536.561 161.421
L536.807 161.226
L537.035 160.867
L537.203 160.639
L537.41 160.216
L537.514 159.955
L537.663 159.499
L538.13 158.75
L538.319 158.228
L538.443 158.066
L538.852 157.218
L538.961 157.023
L539.22 156.437
L539.522 155.98
L539.633 155.655
L540.257 154.254
L540.371 153.83
L540.476 153.667
L540.654 153.276
L540.809 152.853
L540.918 152.527
L541.017 152.136
L541.207 151.68
L541.315 151.517
L541.582 150.8
L541.909 149.953
L542.059 149.692
L542.283 148.748
L543.03 146.793
L543.113 146.63
L543.224 146.434
L543.402 146.206
L545.072 141.385
L545.244 140.863
L545.314 140.7
L545.416 140.277
L545.592 139.984
L545.719 139.397
L547.067 134.771
L547.129 134.608
L547.355 133.598
L547.535 133.142
L547.733 132.523
L547.956 131.545
L548.061 130.926
L548.702 128.776
L548.823 128.483
L549.021 127.766
L549.143 127.245
L549.37 126.3
L549.455 125.942
L549.619 125.192
L549.701 124.964
L549.814 124.638
L549.888 124.443
L550.016 123.954
L551.393 118.774
L551.488 118.611
L551.697 117.797
L552.039 116.819
L552.161 116.428
L553.43 110.987
L553.548 110.629
L553.676 110.238
L554.093 108.544
L554.22 107.958
L554.5 106.719
L554.703 106.003
L555.905 100.236
L556.105 99.2261
L556.271 98.4767
L556.381 97.988
L556.634 97.2387
L556.739 96.6523
L556.81 96.3916
L556.953 96.0007
L557.147 95.121
L557.246 94.8604
L557.462 93.9807
L557.575 93.7526
L557.73 92.7427
L557.79 92.3843
L558.174 90.7227
L558.333 90.1363
L558.714 88.5724
L558.891 87.9208
L559.236 86.9108
L559.861 84.0112
L561.318 77.593
L561.675 76.5178
L561.802 76.1269
L561.892 75.8662
L562 75.573
L562.073 75.3449
L562.288 74.4653
L562.7 72.8037
L562.943 71.8589
L563.349 70.1321
L563.402 69.9367
L563.961 67.819
L564.085 67.3628
L564.154 67.1348
L564.265 66.4506
L565.077 63.4207
L565.127 63.2578
L565.277 62.932
L565.852 61.2378
L565.979 60.8794
L566.103 60.4233
L566.765 58.5662
L566.906 58.273
L567.024 57.7192
L567.1 57.3608
L567.192 57.1327
L567.327 56.7092
L567.521 56.1553
L567.671 55.8621
L568.014 54.8847
L568.142 54.396
L568.417 53.6141
L568.512 53.4512
L568.67 53.2231
L568.739 53.0928
L568.926 52.8973
L569.564 51.0403
L569.707 50.8448
L569.888 50.2583
L573.665 40.8753
L573.764 40.6472
L574.488 38.4644
L574.577 38.1712
L574.713 37.8454
L574.829 37.4544
L575.093 37.0634
L575.518 36.1512
L575.659 35.9883
L577.163 32.3393
L577.314 31.8832
L577.421 31.59
L577.512 31.4271
L577.758 31.1339
L577.876 30.9384
L578.175 30.4823
L578.231 30.2868
L578.329 30.1239
L578.43 29.961
L578.741 29.7004
L579.126 28.8859
L579.248 28.723
L579.586 28.0714
L579.746 27.8759
L580.351 27.0614
L580.467 26.7682
L580.561 26.6053
L582.534 23.836
L582.645 23.5102
L585.679 20.3825
L586.082 20.2522
L586.497 19.9915
L586.812 19.8286
L586.875 19.7309
L587.226 19.568
L587.342 19.4702
L588.501 18.7209
L588.654 18.558
L589.004 18.3299
L589.055 18.2974
L589.523 18.1345
L590.635 17.8087
L590.715 17.7109
L591.056 17.5806
L591.911 17.2222
L593.195 16.9942
L594.005 16.7661
L597.702 16.0168
L597.794 15.9516
L602.04 15.6258
L602.042 15.5932
L603.308 15.4955
L612.414 15.3326
L612.414 15.3326" style="fill:none;stroke:#0000ff;stroke-linecap:square;"/>
   </g>
   <g id="line2d_73">
    <path clip-path="url(#p4814c24baf)" d="
M524.888 178.2
L524.888 15.3" style="fill:none;stroke:#0000ff;stroke-dasharray:6.000000,6.000000;stroke-dashoffset:0.0;"/>
   </g>
   <g id="line2d_74">
    <path clip-path="url(#p4814c24baf)" d="
M587.519 178.2
L587.519 15.3" style="fill:none;stroke:#0000ff;stroke-dasharray:6.000000,6.000000;stroke-dashoffset:0.0;"/>
   </g>
   <g id="patch_13">
    <path d="
M471.113 15.3
L626.653 15.3" style="fill:none;stroke:#000000;stroke-linecap:square;stroke-linejoin:miter;"/>
   </g>
   <g id="patch_14">
    <path d="
M626.653 178.2
L626.653 15.3" style="fill:none;stroke:#000000;stroke-linecap:square;stroke-linejoin:miter;"/>
   </g>
   <g id="patch_15">
    <path d="
M471.113 178.2
L626.653 178.2" style="fill:none;stroke:#000000;stroke-linecap:square;stroke-linejoin:miter;"/>
   </g>
   <g id="patch_16">
    <path d="
M471.113 178.2
L471.113 15.3" style="fill:none;stroke:#000000;stroke-linecap:square;stroke-linejoin:miter;"/>
   </g>
   <g id="matplotlib.axis_5">
    <g id="xtick_17">
     <g id="line2d_75">
      <g>
       <use style="stroke:#000000;stroke-width:0.5;" x="471.1125" xlink:href="#m93b0483c22" y="178.2"/>
      </g>
     </g>
     <g id="line2d_76">
      <g>
       <use style="stroke:#000000;stroke-width:0.5;" x="471.1125" xlink:href="#m741efc42ff" y="15.3"/>
      </g>
     </g>
     <g id="text_33">
      <!-- 0.62 -->
      <g transform="translate(460.81015625 189.7984375)scale(0.1 -0.1)">
       <use xlink:href="#BitstreamVeraSans-Roman-30"/>
       <use x="63.623046875" xlink:href="#BitstreamVeraSans-Roman-2e"/>
       <use x="95.41015625" xlink:href="#BitstreamVeraSans-Roman-36"/>
       <use x="159.033203125" xlink:href="#BitstreamVeraSans-Roman-32"/>
      </g>
     </g>
    </g>
    <g id="xtick_18">
     <g id="line2d_77">
      <g>
       <use style="stroke:#000000;stroke-width:0.5;" x="493.332589286" xlink:href="#m93b0483c22" y="178.2"/>
      </g>
     </g>
     <g id="line2d_78">
      <g>
       <use style="stroke:#000000;stroke-width:0.5;" x="493.332589286" xlink:href="#m741efc42ff" y="15.3"/>
      </g>
     </g>
     <g id="text_34">
      <!-- 0.64 -->
      <g transform="translate(482.809933036 189.7984375)scale(0.1 -0.1)">
       <use xlink:href="#BitstreamVeraSans-Roman-30"/>
       <use x="63.623046875" xlink:href="#BitstreamVeraSans-Roman-2e"/>
       <use x="95.41015625" xlink:href="#BitstreamVeraSans-Roman-36"/>
       <use x="159.033203125" xlink:href="#BitstreamVeraSans-Roman-34"/>
      </g>
     </g>
    </g>
    <g id="xtick_19">
     <g id="line2d_79">
      <g>
       <use style="stroke:#000000;stroke-width:0.5;" x="515.552678571" xlink:href="#m93b0483c22" y="178.2"/>
      </g>
     </g>
     <g id="line2d_80">
      <g>
       <use style="stroke:#000000;stroke-width:0.5;" x="515.552678571" xlink:href="#m741efc42ff" y="15.3"/>
      </g>
     </g>
     <g id="text_35">
      <!-- 0.66 -->
      <g transform="translate(505.064397321 189.7984375)scale(0.1 -0.1)">
       <use xlink:href="#BitstreamVeraSans-Roman-30"/>
       <use x="63.623046875" xlink:href="#BitstreamVeraSans-Roman-2e"/>
       <use x="95.41015625" xlink:href="#BitstreamVeraSans-Roman-36"/>
       <use x="159.033203125" xlink:href="#BitstreamVeraSans-Roman-36"/>
      </g>
     </g>
    </g>
    <g id="xtick_20">
     <g id="line2d_81">
      <g>
       <use style="stroke:#000000;stroke-width:0.5;" x="537.772767857" xlink:href="#m93b0483c22" y="178.2"/>
      </g>
     </g>
     <g id="line2d_82">
      <g>
       <use style="stroke:#000000;stroke-width:0.5;" x="537.772767857" xlink:href="#m741efc42ff" y="15.3"/>
      </g>
     </g>
     <g id="text_36">
      <!-- 0.68 -->
      <g transform="translate(527.311830357 189.7984375)scale(0.1 -0.1)">
       <use xlink:href="#BitstreamVeraSans-Roman-30"/>
       <use x="63.623046875" xlink:href="#BitstreamVeraSans-Roman-2e"/>
       <use x="95.41015625" xlink:href="#BitstreamVeraSans-Roman-36"/>
       <use x="159.033203125" xlink:href="#BitstreamVeraSans-Roman-38"/>
      </g>
     </g>
    </g>
    <g id="xtick_21">
     <g id="line2d_83">
      <g>
       <use style="stroke:#000000;stroke-width:0.5;" x="559.992857143" xlink:href="#m93b0483c22" y="178.2"/>
      </g>
     </g>
     <g id="line2d_84">
      <g>
       <use style="stroke:#000000;stroke-width:0.5;" x="559.992857143" xlink:href="#m741efc42ff" y="15.3"/>
      </g>
     </g>
     <g id="text_37">
      <!-- 0.70 -->
      <g transform="translate(549.521763393 189.7984375)scale(0.1 -0.1)">
       <use xlink:href="#BitstreamVeraSans-Roman-30"/>
       <use x="63.623046875" xlink:href="#BitstreamVeraSans-Roman-2e"/>
       <use x="95.41015625" xlink:href="#BitstreamVeraSans-Roman-37"/>
       <use x="159.033203125" xlink:href="#BitstreamVeraSans-Roman-30"/>
      </g>
     </g>
    </g>
    <g id="xtick_22">
     <g id="line2d_85">
      <g>
       <use style="stroke:#000000;stroke-width:0.5;" x="582.212946429" xlink:href="#m93b0483c22" y="178.2"/>
      </g>
     </g>
     <g id="line2d_86">
      <g>
       <use style="stroke:#000000;stroke-width:0.5;" x="582.212946429" xlink:href="#m741efc42ff" y="15.3"/>
      </g>
     </g>
     <g id="text_38">
      <!-- 0.72 -->
      <g transform="translate(571.910602679 189.7984375)scale(0.1 -0.1)">
       <use xlink:href="#BitstreamVeraSans-Roman-30"/>
       <use x="63.623046875" xlink:href="#BitstreamVeraSans-Roman-2e"/>
       <use x="95.41015625" xlink:href="#BitstreamVeraSans-Roman-37"/>
       <use x="159.033203125" xlink:href="#BitstreamVeraSans-Roman-32"/>
      </g>
     </g>
    </g>
    <g id="xtick_23">
     <g id="line2d_87">
      <g>
       <use style="stroke:#000000;stroke-width:0.5;" x="604.433035714" xlink:href="#m93b0483c22" y="178.2"/>
      </g>
     </g>
     <g id="line2d_88">
      <g>
       <use style="stroke:#000000;stroke-width:0.5;" x="604.433035714" xlink:href="#m741efc42ff" y="15.3"/>
      </g>
     </g>
     <g id="text_39">
      <!-- 0.74 -->
      <g transform="translate(593.910379464 189.7984375)scale(0.1 -0.1)">
       <use xlink:href="#BitstreamVeraSans-Roman-30"/>
       <use x="63.623046875" xlink:href="#BitstreamVeraSans-Roman-2e"/>
       <use x="95.41015625" xlink:href="#BitstreamVeraSans-Roman-37"/>
       <use x="159.033203125" xlink:href="#BitstreamVeraSans-Roman-34"/>
      </g>
     </g>
    </g>
    <g id="xtick_24">
     <g id="line2d_89">
      <g>
       <use style="stroke:#000000;stroke-width:0.5;" x="626.653125" xlink:href="#m93b0483c22" y="178.2"/>
      </g>
     </g>
     <g id="line2d_90">
      <g>
       <use style="stroke:#000000;stroke-width:0.5;" x="626.653125" xlink:href="#m741efc42ff" y="15.3"/>
      </g>
     </g>
     <g id="text_40">
      <!-- 0.76 -->
      <g transform="translate(616.16484375 189.7984375)scale(0.1 -0.1)">
       <use xlink:href="#BitstreamVeraSans-Roman-30"/>
       <use x="63.623046875" xlink:href="#BitstreamVeraSans-Roman-2e"/>
       <use x="95.41015625" xlink:href="#BitstreamVeraSans-Roman-37"/>
       <use x="159.033203125" xlink:href="#BitstreamVeraSans-Roman-36"/>
      </g>
     </g>
    </g>
    <g id="text_41">
     <!-- Z component -->
     <defs>
      <path d="
M5.60938 72.9062
L62.8906 72.9062
L62.8906 65.375
L16.7969 8.29688
L64.0156 8.29688
L64.0156 0
L4.5 0
L4.5 7.51562
L50.5938 64.5938
L5.60938 64.5938
z
" id="BitstreamVeraSans-Roman-5a"/>
     </defs>
     <g transform="translate(515.7015625 204.4765625)scale(0.1 -0.1)">
      <use xlink:href="#BitstreamVeraSans-Roman-5a"/>
      <use x="68.505859375" xlink:href="#BitstreamVeraSans-Roman-20"/>
      <use x="100.29296875" xlink:href="#BitstreamVeraSans-Roman-63"/>
      <use x="155.2734375" xlink:href="#BitstreamVeraSans-Roman-6f"/>
      <use x="216.455078125" xlink:href="#BitstreamVeraSans-Roman-6d"/>
      <use x="313.8671875" xlink:href="#BitstreamVeraSans-Roman-70"/>
      <use x="377.34375" xlink:href="#BitstreamVeraSans-Roman-6f"/>
      <use x="438.525390625" xlink:href="#BitstreamVeraSans-Roman-6e"/>
      <use x="501.904296875" xlink:href="#BitstreamVeraSans-Roman-65"/>
      <use x="563.427734375" xlink:href="#BitstreamVeraSans-Roman-6e"/>
      <use x="626.806640625" xlink:href="#BitstreamVeraSans-Roman-74"/>
     </g>
    </g>
   </g>
   <g id="matplotlib.axis_6">
    <g id="ytick_13">
     <g id="line2d_91">
      <g>
       <use style="stroke:#000000;stroke-width:0.5;" x="471.1125" xlink:href="#m728421d6d4" y="178.2"/>
      </g>
     </g>
     <g id="line2d_92">
      <g>
       <use style="stroke:#000000;stroke-width:0.5;" x="626.653125" xlink:href="#mcb0005524f" y="178.2"/>
      </g>
     </g>
     <g id="text_42">
      <!-- 0.0 -->
      <g transform="translate(452.5328125 180.959375)scale(0.1 -0.1)">
       <use xlink:href="#BitstreamVeraSans-Roman-30"/>
       <use x="63.623046875" xlink:href="#BitstreamVeraSans-Roman-2e"/>
       <use x="95.41015625" xlink:href="#BitstreamVeraSans-Roman-30"/>
      </g>
     </g>
    </g>
    <g id="ytick_14">
     <g id="line2d_93">
      <g>
       <use style="stroke:#000000;stroke-width:0.5;" x="471.1125" xlink:href="#m728421d6d4" y="145.62"/>
      </g>
     </g>
     <g id="line2d_94">
      <g>
       <use style="stroke:#000000;stroke-width:0.5;" x="626.653125" xlink:href="#mcb0005524f" y="145.62"/>
      </g>
     </g>
     <g id="text_43">
      <!-- 0.2 -->
      <g transform="translate(452.8703125 148.379375)scale(0.1 -0.1)">
       <use xlink:href="#BitstreamVeraSans-Roman-30"/>
       <use x="63.623046875" xlink:href="#BitstreamVeraSans-Roman-2e"/>
       <use x="95.41015625" xlink:href="#BitstreamVeraSans-Roman-32"/>
      </g>
     </g>
    </g>
    <g id="ytick_15">
     <g id="line2d_95">
      <g>
       <use style="stroke:#000000;stroke-width:0.5;" x="471.1125" xlink:href="#m728421d6d4" y="113.04"/>
      </g>
     </g>
     <g id="line2d_96">
      <g>
       <use style="stroke:#000000;stroke-width:0.5;" x="626.653125" xlink:href="#mcb0005524f" y="113.04"/>
      </g>
     </g>
     <g id="text_44">
      <!-- 0.4 -->
      <g transform="translate(452.4296875 115.799375)scale(0.1 -0.1)">
       <use xlink:href="#BitstreamVeraSans-Roman-30"/>
       <use x="63.623046875" xlink:href="#BitstreamVeraSans-Roman-2e"/>
       <use x="95.41015625" xlink:href="#BitstreamVeraSans-Roman-34"/>
      </g>
     </g>
    </g>
    <g id="ytick_16">
     <g id="line2d_97">
      <g>
       <use style="stroke:#000000;stroke-width:0.5;" x="471.1125" xlink:href="#m728421d6d4" y="80.46"/>
      </g>
     </g>
     <g id="line2d_98">
      <g>
       <use style="stroke:#000000;stroke-width:0.5;" x="626.653125" xlink:href="#mcb0005524f" y="80.46"/>
      </g>
     </g>
     <g id="text_45">
      <!-- 0.6 -->
      <g transform="translate(452.4984375 83.219375)scale(0.1 -0.1)">
       <use xlink:href="#BitstreamVeraSans-Roman-30"/>
       <use x="63.623046875" xlink:href="#BitstreamVeraSans-Roman-2e"/>
       <use x="95.41015625" xlink:href="#BitstreamVeraSans-Roman-36"/>
      </g>
     </g>
    </g>
    <g id="ytick_17">
     <g id="line2d_99">
      <g>
       <use style="stroke:#000000;stroke-width:0.5;" x="471.1125" xlink:href="#m728421d6d4" y="47.88"/>
      </g>
     </g>
     <g id="line2d_100">
      <g>
       <use style="stroke:#000000;stroke-width:0.5;" x="626.653125" xlink:href="#mcb0005524f" y="47.88"/>
      </g>
     </g>
     <g id="text_46">
      <!-- 0.8 -->
      <g transform="translate(452.553125 50.639375)scale(0.1 -0.1)">
       <use xlink:href="#BitstreamVeraSans-Roman-30"/>
       <use x="63.623046875" xlink:href="#BitstreamVeraSans-Roman-2e"/>
       <use x="95.41015625" xlink:href="#BitstreamVeraSans-Roman-38"/>
      </g>
     </g>
    </g>
    <g id="ytick_18">
     <g id="line2d_101">
      <g>
       <use style="stroke:#000000;stroke-width:0.5;" x="471.1125" xlink:href="#m728421d6d4" y="15.3"/>
      </g>
     </g>
     <g id="line2d_102">
      <g>
       <use style="stroke:#000000;stroke-width:0.5;" x="626.653125" xlink:href="#mcb0005524f" y="15.3"/>
      </g>
     </g>
     <g id="text_47">
      <!-- 1.0 -->
      <g transform="translate(452.971875 18.059375)scale(0.1 -0.1)">
       <use xlink:href="#BitstreamVeraSans-Roman-31"/>
       <use x="63.623046875" xlink:href="#BitstreamVeraSans-Roman-2e"/>
       <use x="95.41015625" xlink:href="#BitstreamVeraSans-Roman-30"/>
      </g>
     </g>
    </g>
    <g id="text_48">
     <!-- Cumulative Distribution -->
     <g transform="translate(445.35 155.62109375)rotate(-90.0)scale(0.1 -0.1)">
      <use xlink:href="#BitstreamVeraSans-Roman-43"/>
      <use x="69.82421875" xlink:href="#BitstreamVeraSans-Roman-75"/>
      <use x="133.203125" xlink:href="#BitstreamVeraSans-Roman-6d"/>
      <use x="230.615234375" xlink:href="#BitstreamVeraSans-Roman-75"/>
      <use x="293.994140625" xlink:href="#BitstreamVeraSans-Roman-6c"/>
      <use x="321.77734375" xlink:href="#BitstreamVeraSans-Roman-61"/>
      <use x="383.056640625" xlink:href="#BitstreamVeraSans-Roman-74"/>
      <use x="422.265625" xlink:href="#BitstreamVeraSans-Roman-69"/>
      <use x="450.048828125" xlink:href="#BitstreamVeraSans-Roman-76"/>
      <use x="509.228515625" xlink:href="#BitstreamVeraSans-Roman-65"/>
      <use x="570.751953125" xlink:href="#BitstreamVeraSans-Roman-20"/>
      <use x="602.5390625" xlink:href="#BitstreamVeraSans-Roman-44"/>
      <use x="679.541015625" xlink:href="#BitstreamVeraSans-Roman-69"/>
      <use x="707.32421875" xlink:href="#BitstreamVeraSans-Roman-73"/>
      <use x="759.423828125" xlink:href="#BitstreamVeraSans-Roman-74"/>
      <use x="798.6328125" xlink:href="#BitstreamVeraSans-Roman-72"/>
      <use x="839.74609375" xlink:href="#BitstreamVeraSans-Roman-69"/>
      <use x="867.529296875" xlink:href="#BitstreamVeraSans-Roman-62"/>
      <use x="931.005859375" xlink:href="#BitstreamVeraSans-Roman-75"/>
      <use x="994.384765625" xlink:href="#BitstreamVeraSans-Roman-74"/>
      <use x="1033.59375" xlink:href="#BitstreamVeraSans-Roman-69"/>
      <use x="1061.37695312" xlink:href="#BitstreamVeraSans-Roman-6f"/>
      <use x="1122.55859375" xlink:href="#BitstreamVeraSans-Roman-6e"/>
     </g>
    </g>
   </g>
  </g>
 </g>
 <defs>
  <clipPath id="p1c38c01f63">
   <rect height="162.9" width="155.540625" x="257.3671875" y="15.3"/>
  </clipPath>
  <clipPath id="p83588dca04">
   <rect height="162.9" width="155.540625" x="43.621875" y="15.3"/>
  </clipPath>
  <clipPath id="p4814c24baf">
   <rect height="162.9" width="155.540625" x="471.1125" y="15.3"/>
  </clipPath>
 </defs>
</svg>
