<?xml version="1.0" encoding="utf-8" standalone="no"?>
<!DOCTYPE svg PUBLIC "-//W3C//DTD SVG 1.1//EN"
  "http://www.w3.org/Graphics/SVG/1.1/DTD/svg11.dtd">
<!-- Created with matplotlib (http://matplotlib.org/) -->
<svg height="216pt" version="1.1" viewBox="0 0 648 216" width="648pt" xmlns="http://www.w3.org/2000/svg" xmlns:xlink="http://www.w3.org/1999/xlink">
 <defs>
  <style type="text/css">
*{stroke-linecap:butt;stroke-linejoin:round;}
  </style>
 </defs>
 <g id="figure_1">
  <g id="patch_1">
   <path d="
M0 216
L648 216
L648 0
L0 0
z
" style="fill:#ffffff;"/>
  </g>
  <g id="axes_1">
   <g id="patch_2">
    <path d="
M43.6219 178.2
L199.162 178.2
L199.162 15.3
L43.6219 15.3
z
" style="fill:#ffffff;"/>
   </g>
   <g id="line2d_1">
    <path clip-path="url(#p6c55c840d0)" d="
M56.4643 178.2
L69.0443 177.842
L69.0738 177.809
L72.0896 177.385
L73.808 177.19
L74.88 176.864
L75.9844 176.701
L75.9872 176.669
L77.4958 176.31
L78.8644 176.147
L79.092 176.05
L79.8226 175.789
L80.5056 175.528
L80.8678 175.398
L81.2215 175.235
L82.0065 174.877
L82.8623 174.681
L82.9834 174.584
L83.2134 174.421
L83.335 174.225
L83.8951 173.932
L84.1278 173.769
L84.179 173.737
L85.0183 173.574
L85.3916 173.346
L85.6981 173.02
L86.0344 172.694
L86.1816 172.564
L86.6046 172.27
L86.8547 172.108
L87.4765 171.749
L87.7599 171.326
L88.0539 171.163
L88.1191 171.065
L88.3351 170.837
L88.4391 170.739
L89.1249 169.925
L89.2393 169.794
L89.3774 169.631
L89.6293 169.306
L89.9497 168.85
L90.0383 168.784
L90.1912 168.524
L90.3084 168.361
L91.1747 167.416
L91.2528 167.188
L91.5334 167.025
L91.691 166.83
L91.8352 166.634
L91.9429 166.439
L92.626 165.82
L92.7351 165.526
L92.8333 165.363
L93.5355 164.516
L94.1637 163.8
L94.4247 163.474
L94.5061 163.344
L95.2626 162.399
L95.3589 162.236
L96.0683 161.356
L96.1834 161.193
L96.4743 160.607
L96.5562 160.444
L96.7926 160.053
L96.9834 159.825
L97.5781 158.489
L97.7178 158.294
L97.845 157.903
L97.9868 157.512
L98.1989 157.381
L98.3677 156.86
L98.5647 156.534
L98.763 156.241
L99.0328 155.818
L99.2008 155.459
L99.7175 154.449
L99.7991 154.286
L99.9187 154.123
L100.088 153.765
L100.749 152.462
L100.901 152.136
L101.053 151.875
L101.256 151.321
L101.522 150.637
L101.77 150.051
L101.849 149.888
L102.043 149.432
L102.301 148.976
L102.963 147.444
L103.125 146.825
L103.249 146.663
L103.513 145.978
L104.483 143.861
L104.771 143.274
L105.063 142.59
L105.327 141.645
L105.783 140.407
L106.163 139.56
L106.232 139.365
L107.844 135.162
L107.953 134.999
L108.081 134.608
L108.222 134.38
L108.332 134.054
L108.548 133.305
L109.665 129.656
L109.724 129.493
L109.929 128.678
L110.089 128.19
L110.137 127.994
L110.29 127.603
L110.394 127.31
L110.512 126.919
L110.629 126.593
L111.057 125.095
L111.169 124.769
L111.293 124.443
L111.858 122.814
L111.981 122.39
L112.128 122.162
L112.248 121.837
L112.42 121.38
L112.864 119.914
L114.55 113.92
L114.681 113.366
L115.661 109.065
L115.777 108.609
L116.117 107.11
L116.181 106.915
L117.287 103.038
L117.391 102.842
L117.503 102.419
L117.816 101.474
L118.153 100.008
L118.459 98.5745
L118.541 98.2813
L118.732 97.4993
L118.845 97.3364
L118.967 96.9455
L119.074 96.5871
L119.206 95.9355
L119.278 95.7726
L119.43 95.2839
L119.681 94.2413
L119.785 93.9481
L120.37 91.7327
L120.667 90.625
L120.787 90.2014
L120.925 89.7453
L121.001 89.4847
L121.122 89.0611
L121.235 88.8331
L121.527 87.8557
L121.729 87.1715
L122.087 85.7054
L122.351 84.7606
L122.585 84.0438
L122.762 83.5225
L122.883 83.0664
L122.991 82.7732
L124.068 79.2545
L124.157 78.8962
L124.233 78.6681
L124.437 77.8536
L124.548 77.6255
L125.015 75.6382
L125.16 75.3449
L125.281 74.8237
L125.42 74.4979
L125.537 74.3675
L125.62 74.1721
L125.768 73.4553
L125.952 72.9992
L126.059 72.4779
L126.121 72.2498
L126.23 71.7611
L126.355 71.5657
L126.485 71.077
L126.698 70.4579
L126.848 70.1973
L127.006 69.676
L127.142 69.0244
L127.243 68.7964
L127.926 66.8416
L128.058 66.6135
L128.204 66.1574
L128.397 65.3429
L128.524 64.8216
L129.424 62.4758
L129.61 62.15
L129.833 61.6939
L129.96 61.2378
L130.058 60.9772
L130.217 60.3907
L130.381 60.0649
L130.489 59.7717
L130.608 59.4785
L130.758 58.9246
L130.846 58.5011
L131.03 57.8495
L131.169 57.4259
L131.285 57.1001
L131.472 56.7743
L131.687 56.025
L131.912 55.1779
L132.31 54.5589
L132.412 54.2657
L132.518 54.0376
L133.954 50.747
L134.267 50.0954
L134.595 49.3787
L134.695 49.0529
L134.894 48.8248
L135 48.5316
L135.254 47.9777
L135.35 47.6519
L135.425 47.4239
L135.524 47.1307
L135.844 46.3813
L136.019 45.8926
L136.129 45.7623
L136.267 45.3062
L136.397 45.1107
L136.703 44.3939
L136.945 44.1333
L138.954 40.2563
L139.087 40.0934
L139.524 39.344
L139.656 38.9205
L139.752 38.7576
L141.36 35.8254
L141.479 35.5973
L141.787 35.1412
L142.176 34.3919
L142.335 34.1964
L142.599 33.6751
L142.747 33.5122
L143.006 32.9258
L143.306 32.6
L143.414 32.4697
L143.796 31.9158
L143.951 31.6877
L144.181 31.3619
L145.743 28.9836
L145.877 28.8207
L146.101 28.4949
L146.314 28.2994
L146.775 27.5827
L146.778 27.5501
L147.01 27.3872
L148.398 25.693
L148.517 25.5301
L148.78 25.2369
L148.941 25.074
L149.184 24.7482
L149.314 24.6179
L149.528 24.455
L149.549 24.3898
L149.798 24.2269
L149.909 24.064
L150.398 23.7382
L150.704 23.5753
L151.45 22.9889
L151.562 22.8586
L152.134 22.5002
L152.348 22.3373
L152.538 22.1744
L152.618 22.1092
L152.918 21.8812
L153.506 21.4902
L154.043 21.2296
L154.174 21.0992
L154.448 20.9363
L154.78 20.7734
L155.223 20.578
L156.741 19.7309
L157.029 19.6006
L157.174 19.4377
L157.379 19.2748
L157.728 19.1119
L158.444 18.7861
L158.644 18.6883
L159.805 18.2974
L162.675 17.3525
L164.635 16.929
L165.808 16.6684
L166.642 16.5055
L166.705 16.4729
L168.718 16.2774
L171.44 15.8864
L180.68 15.4955
L181.15 15.4303
L196.371 15.3326
L196.371 15.3326" style="fill:none;stroke:#ff0000;stroke-linecap:square;"/>
   </g>
   <g id="line2d_2">
    <path clip-path="url(#p6c55c840d0)" d="
M83.3982 178.2
L83.3982 15.3" style="fill:none;stroke:#ff0000;stroke-linecap:square;"/>
   </g>
   <g id="line2d_3">
    <path clip-path="url(#p6c55c840d0)" d="
M157.216 178.2
L157.216 15.3" style="fill:none;stroke:#ff0000;stroke-linecap:square;"/>
   </g>
   <g id="line2d_4">
    <path clip-path="url(#p6c55c840d0)" d="
M56.6655 178.2
L65.8506 177.972
L66.1771 177.907
L73.9775 177.125
L74.6031 176.995
L76.6961 176.799
L76.742 176.766
L77.7069 176.571
L81.6048 175.724
L82.0644 175.333
L82.1522 175.268
L83.6687 174.714
L84.1627 174.486
L84.395 174.356
L85.0186 173.899
L86.3865 173.085
L86.4996 172.987
L86.8659 172.596
L87.2557 172.433
L90.1546 169.566
L90.7967 168.817
L91.1307 168.556
L91.2486 168.361
L92.018 167.221
L92.1542 167.058
L92.4092 166.667
L92.7616 166.243
L92.889 166.113
L95.3395 162.627
L95.5062 162.236
L95.651 162.105
L95.8813 161.78
L96.8002 160.02
L97.0017 159.825
L97.2486 159.336
L97.3531 159.173
L97.46 159.01
L98.0039 158.261
L98.2257 157.675
L98.3653 157.447
L98.4523 157.153
L98.5908 156.893
L99.9259 153.863
L100.059 153.635
L100.195 153.407
L100.297 153.081
L100.443 152.853
L100.566 152.56
L101.615 150.572
L101.728 150.246
L101.994 149.823
L102.173 149.595
L102.301 149.236
L102.498 148.813
L103.974 146.044
L104.062 145.783
L104.184 145.62
L104.549 144.577
L105.83 141.515
L105.953 141.319
L106.385 140.114
L106.477 139.853
L106.663 139.593
L107.321 137.638
L107.446 137.182
L107.636 136.693
L107.751 136.27
L108.173 135.26
L108.337 134.999
L108.509 134.38
L108.77 133.663
L109.03 133.174
L109.199 132.621
L109.82 130.829
L109.899 130.666
L110.023 130.373
L110.291 129.982
L110.455 129.428
L110.553 129.102
L110.678 128.744
L110.803 128.287
L110.899 127.929
L111.005 127.538
L111.152 127.277
L111.254 126.984
L111.368 126.789
L111.747 125.453
L111.805 125.257
L112.41 123.335
L112.507 123.042
L112.678 122.553
L113.403 119.817
L113.528 119.523
L113.78 118.383
L113.926 118.025
L114.125 117.308
L114.412 116.07
L114.627 115.418
L114.739 115.125
L114.878 114.734
L115.177 113.789
L115.253 113.561
L115.434 112.942
L115.847 111.802
L116.01 111.313
L117.344 106.687
L117.432 106.426
L117.515 106.198
L117.83 105.188
L118.016 104.569
L120.512 95.6423
L120.66 95.0233
L120.792 94.73
L121.283 93.1336
L121.448 92.5472
L122.277 89.1914
L122.447 88.5724
L122.562 87.986
L122.81 86.976
L122.892 86.8131
L122.942 86.5525
L124.826 80.2319
L125.312 78.8962
L125.553 78.0491
L126.313 75.7685
L126.424 75.4753
L126.522 75.2146
L126.694 74.4653
L126.846 73.8137
L126.982 73.4227
L127.099 73.1295
L127.268 72.8689
L127.898 70.9792
L127.973 70.7512
L128.095 70.1973
L128.257 69.8389
L129.977 64.6261
L130.065 64.4306
L130.321 63.7139
L130.387 63.5184
L130.942 62.0197
L131.09 61.6613
L131.207 61.0097
L131.457 60.2604
L131.548 59.9998
L131.636 59.7717
L131.952 58.5662
L132.038 58.3056
L132.149 57.9472
L132.62 56.7092
L132.753 56.4811
L133.168 55.3734
L133.268 55.1128
L133.397 54.6566
L133.602 54.0702
L133.704 53.7118
L134.171 52.376
L134.298 52.0828
L134.43 51.7244
L134.718 51.0728
L134.832 50.9099
L134.932 50.6167
L135.045 50.0629
L135.875 48.4013
L136.327 47.5868
L136.522 47.0981
L136.651 46.8374
L140.452 38.2037
L140.543 37.9757
L141.96 35.239
L142.254 34.5874
L142.383 34.4245
L142.715 33.8054
L143.32 32.9258
L143.532 32.4045
L144.486 31.3945
L144.597 31.199
L146.222 28.723
L146.408 28.4949
L147.335 27.322
L147.439 27.094
L147.594 26.9311
L147.758 26.6704
L148.188 26.0514
L148.54 25.8885
L149.51 24.9437
L149.903 24.7808
L150.505 24.064
L151.231 23.5427
L151.265 23.4776
L151.717 23.2169
L151.805 23.1518
L151.943 23.0215
L152.072 22.826
L152.479 22.5002
L152.614 22.3373
L153.017 22.0115
L153.029 21.9789
L153.477 21.7834
L153.838 21.5879
L156.881 19.7309
L157.734 19.4702
L157.898 19.3725
L158.213 19.1444
L158.216 19.1119
L159.254 18.7861
L159.262 18.7535
L159.754 18.558
L163.218 17.3851
L164.514 17.1896
L164.594 17.1245
L168.563 16.538
L170.4 16.4077
L171.062 16.2774
L178.945 15.6258
L194.256 15.3326
L194.256 15.3326" style="fill:none;stroke:#0000ff;stroke-linecap:square;"/>
   </g>
   <g id="line2d_5">
    <path clip-path="url(#p6c55c840d0)" d="
M84.6996 178.2
L84.6996 15.3" style="fill:none;stroke:#0000ff;stroke-dasharray:6.000000,6.000000;stroke-dashoffset:0.0;"/>
   </g>
   <g id="line2d_6">
    <path clip-path="url(#p6c55c840d0)" d="
M157.898 178.2
L157.898 15.3" style="fill:none;stroke:#0000ff;stroke-dasharray:6.000000,6.000000;stroke-dashoffset:0.0;"/>
   </g>
   <g id="patch_3">
    <path d="
M43.6219 15.3
L199.163 15.3" style="fill:none;stroke:#000000;stroke-linecap:square;stroke-linejoin:miter;"/>
   </g>
   <g id="patch_4">
    <path d="
M199.162 178.2
L199.162 15.3" style="fill:none;stroke:#000000;stroke-linecap:square;stroke-linejoin:miter;"/>
   </g>
   <g id="patch_5">
    <path d="
M43.6219 178.2
L199.163 178.2" style="fill:none;stroke:#000000;stroke-linecap:square;stroke-linejoin:miter;"/>
   </g>
   <g id="patch_6">
    <path d="
M43.6219 178.2
L43.6219 15.3" style="fill:none;stroke:#000000;stroke-linecap:square;stroke-linejoin:miter;"/>
   </g>
   <g id="matplotlib.axis_1">
    <g id="xtick_1">
     <g id="line2d_7">
      <defs>
       <path d="
M0 0
L0 -4" id="m93b0483c22" style="stroke:#000000;stroke-width:0.5;"/>
      </defs>
      <g>
       <use style="stroke:#000000;stroke-width:0.5;" x="43.621875" xlink:href="#m93b0483c22" y="178.2"/>
      </g>
     </g>
     <g id="line2d_8">
      <defs>
       <path d="
M0 0
L0 4" id="m741efc42ff" style="stroke:#000000;stroke-width:0.5;"/>
      </defs>
      <g>
       <use style="stroke:#000000;stroke-width:0.5;" x="43.621875" xlink:href="#m741efc42ff" y="15.3"/>
      </g>
     </g>
     <g id="text_1">
      <!-- −0.76 -->
      <defs>
       <path d="
M10.5938 35.5
L73.1875 35.5
L73.1875 27.2031
L10.5938 27.2031
z
" id="BitstreamVeraSans-Roman-2212"/>
       <path d="
M33.0156 40.375
Q26.375 40.375 22.4844 35.8281
Q18.6094 31.2969 18.6094 23.3906
Q18.6094 15.5312 22.4844 10.9531
Q26.375 6.39062 33.0156 6.39062
Q39.6562 6.39062 43.5312 10.9531
Q47.4062 15.5312 47.4062 23.3906
Q47.4062 31.2969 43.5312 35.8281
Q39.6562 40.375 33.0156 40.375
M52.5938 71.2969
L52.5938 62.3125
Q48.875 64.0625 45.0938 64.9844
Q41.3125 65.9219 37.5938 65.9219
Q27.8281 65.9219 22.6719 59.3281
Q17.5312 52.7344 16.7969 39.4062
Q19.6719 43.6562 24.0156 45.9219
Q28.375 48.1875 33.5938 48.1875
Q44.5781 48.1875 50.9531 41.5156
Q57.3281 34.8594 57.3281 23.3906
Q57.3281 12.1562 50.6875 5.35938
Q44.0469 -1.42188 33.0156 -1.42188
Q20.3594 -1.42188 13.6719 8.26562
Q6.98438 17.9688 6.98438 36.375
Q6.98438 53.6562 15.1875 63.9375
Q23.3906 74.2188 37.2031 74.2188
Q40.9219 74.2188 44.7031 73.4844
Q48.4844 72.75 52.5938 71.2969" id="BitstreamVeraSans-Roman-36"/>
       <path d="
M31.7812 66.4062
Q24.1719 66.4062 20.3281 58.9062
Q16.5 51.4219 16.5 36.375
Q16.5 21.3906 20.3281 13.8906
Q24.1719 6.39062 31.7812 6.39062
Q39.4531 6.39062 43.2812 13.8906
Q47.125 21.3906 47.125 36.375
Q47.125 51.4219 43.2812 58.9062
Q39.4531 66.4062 31.7812 66.4062
M31.7812 74.2188
Q44.0469 74.2188 50.5156 64.5156
Q56.9844 54.8281 56.9844 36.375
Q56.9844 17.9688 50.5156 8.26562
Q44.0469 -1.42188 31.7812 -1.42188
Q19.5312 -1.42188 13.0625 8.26562
Q6.59375 17.9688 6.59375 36.375
Q6.59375 54.8281 13.0625 64.5156
Q19.5312 74.2188 31.7812 74.2188" id="BitstreamVeraSans-Roman-30"/>
       <path d="
M10.6875 12.4062
L21 12.4062
L21 0
L10.6875 0
z
" id="BitstreamVeraSans-Roman-2e"/>
       <path d="
M8.20312 72.9062
L55.0781 72.9062
L55.0781 68.7031
L28.6094 0
L18.3125 0
L43.2188 64.5938
L8.20312 64.5938
z
" id="BitstreamVeraSans-Roman-37"/>
      </defs>
      <g transform="translate(29.14375 189.7984375)scale(0.1 -0.1)">
       <use xlink:href="#BitstreamVeraSans-Roman-2212"/>
       <use x="83.7890625" xlink:href="#BitstreamVeraSans-Roman-30"/>
       <use x="147.412109375" xlink:href="#BitstreamVeraSans-Roman-2e"/>
       <use x="179.19921875" xlink:href="#BitstreamVeraSans-Roman-37"/>
       <use x="242.822265625" xlink:href="#BitstreamVeraSans-Roman-36"/>
      </g>
     </g>
    </g>
    <g id="xtick_2">
     <g id="line2d_9">
      <g>
       <use style="stroke:#000000;stroke-width:0.5;" x="65.8419642857" xlink:href="#m93b0483c22" y="178.2"/>
      </g>
     </g>
     <g id="line2d_10">
      <g>
       <use style="stroke:#000000;stroke-width:0.5;" x="65.8419642857" xlink:href="#m741efc42ff" y="15.3"/>
      </g>
     </g>
     <g id="text_2">
      <!-- −0.74 -->
      <defs>
       <path d="
M37.7969 64.3125
L12.8906 25.3906
L37.7969 25.3906
z

M35.2031 72.9062
L47.6094 72.9062
L47.6094 25.3906
L58.0156 25.3906
L58.0156 17.1875
L47.6094 17.1875
L47.6094 0
L37.7969 0
L37.7969 17.1875
L4.89062 17.1875
L4.89062 26.7031
z
" id="BitstreamVeraSans-Roman-34"/>
      </defs>
      <g transform="translate(51.3294642857 189.7984375)scale(0.1 -0.1)">
       <use xlink:href="#BitstreamVeraSans-Roman-2212"/>
       <use x="83.7890625" xlink:href="#BitstreamVeraSans-Roman-30"/>
       <use x="147.412109375" xlink:href="#BitstreamVeraSans-Roman-2e"/>
       <use x="179.19921875" xlink:href="#BitstreamVeraSans-Roman-37"/>
       <use x="242.822265625" xlink:href="#BitstreamVeraSans-Roman-34"/>
      </g>
     </g>
    </g>
    <g id="xtick_3">
     <g id="line2d_11">
      <g>
       <use style="stroke:#000000;stroke-width:0.5;" x="88.0620535714" xlink:href="#m93b0483c22" y="178.2"/>
      </g>
     </g>
     <g id="line2d_12">
      <g>
       <use style="stroke:#000000;stroke-width:0.5;" x="88.0620535714" xlink:href="#m741efc42ff" y="15.3"/>
      </g>
     </g>
     <g id="text_3">
      <!-- −0.72 -->
      <defs>
       <path d="
M19.1875 8.29688
L53.6094 8.29688
L53.6094 0
L7.32812 0
L7.32812 8.29688
Q12.9375 14.1094 22.625 23.8906
Q32.3281 33.6875 34.8125 36.5312
Q39.5469 41.8438 41.4219 45.5312
Q43.3125 49.2188 43.3125 52.7812
Q43.3125 58.5938 39.2344 62.25
Q35.1562 65.9219 28.6094 65.9219
Q23.9688 65.9219 18.8125 64.3125
Q13.6719 62.7031 7.8125 59.4219
L7.8125 69.3906
Q13.7656 71.7812 18.9375 73
Q24.125 74.2188 28.4219 74.2188
Q39.75 74.2188 46.4844 68.5469
Q53.2188 62.8906 53.2188 53.4219
Q53.2188 48.9219 51.5312 44.8906
Q49.8594 40.875 45.4062 35.4062
Q44.1875 33.9844 37.6406 27.2188
Q31.1094 20.4531 19.1875 8.29688" id="BitstreamVeraSans-Roman-32"/>
      </defs>
      <g transform="translate(73.7698660714 189.7984375)scale(0.1 -0.1)">
       <use xlink:href="#BitstreamVeraSans-Roman-2212"/>
       <use x="83.7890625" xlink:href="#BitstreamVeraSans-Roman-30"/>
       <use x="147.412109375" xlink:href="#BitstreamVeraSans-Roman-2e"/>
       <use x="179.19921875" xlink:href="#BitstreamVeraSans-Roman-37"/>
       <use x="242.822265625" xlink:href="#BitstreamVeraSans-Roman-32"/>
      </g>
     </g>
    </g>
    <g id="xtick_4">
     <g id="line2d_13">
      <g>
       <use style="stroke:#000000;stroke-width:0.5;" x="110.282142857" xlink:href="#m93b0483c22" y="178.2"/>
      </g>
     </g>
     <g id="line2d_14">
      <g>
       <use style="stroke:#000000;stroke-width:0.5;" x="110.282142857" xlink:href="#m741efc42ff" y="15.3"/>
      </g>
     </g>
     <g id="text_4">
      <!-- −0.70 -->
      <g transform="translate(95.8212053571 189.7984375)scale(0.1 -0.1)">
       <use xlink:href="#BitstreamVeraSans-Roman-2212"/>
       <use x="83.7890625" xlink:href="#BitstreamVeraSans-Roman-30"/>
       <use x="147.412109375" xlink:href="#BitstreamVeraSans-Roman-2e"/>
       <use x="179.19921875" xlink:href="#BitstreamVeraSans-Roman-37"/>
       <use x="242.822265625" xlink:href="#BitstreamVeraSans-Roman-30"/>
      </g>
     </g>
    </g>
    <g id="xtick_5">
     <g id="line2d_15">
      <g>
       <use style="stroke:#000000;stroke-width:0.5;" x="132.502232143" xlink:href="#m93b0483c22" y="178.2"/>
      </g>
     </g>
     <g id="line2d_16">
      <g>
       <use style="stroke:#000000;stroke-width:0.5;" x="132.502232143" xlink:href="#m741efc42ff" y="15.3"/>
      </g>
     </g>
     <g id="text_5">
      <!-- −0.68 -->
      <defs>
       <path d="
M31.7812 34.625
Q24.75 34.625 20.7188 30.8594
Q16.7031 27.0938 16.7031 20.5156
Q16.7031 13.9219 20.7188 10.1562
Q24.75 6.39062 31.7812 6.39062
Q38.8125 6.39062 42.8594 10.1719
Q46.9219 13.9688 46.9219 20.5156
Q46.9219 27.0938 42.8906 30.8594
Q38.875 34.625 31.7812 34.625
M21.9219 38.8125
Q15.5781 40.375 12.0312 44.7188
Q8.5 49.0781 8.5 55.3281
Q8.5 64.0625 14.7188 69.1406
Q20.9531 74.2188 31.7812 74.2188
Q42.6719 74.2188 48.875 69.1406
Q55.0781 64.0625 55.0781 55.3281
Q55.0781 49.0781 51.5312 44.7188
Q48 40.375 41.7031 38.8125
Q48.8281 37.1562 52.7969 32.3125
Q56.7812 27.4844 56.7812 20.5156
Q56.7812 9.90625 50.3125 4.23438
Q43.8438 -1.42188 31.7812 -1.42188
Q19.7344 -1.42188 13.25 4.23438
Q6.78125 9.90625 6.78125 20.5156
Q6.78125 27.4844 10.7812 32.3125
Q14.7969 37.1562 21.9219 38.8125
M18.3125 54.3906
Q18.3125 48.7344 21.8438 45.5625
Q25.3906 42.3906 31.7812 42.3906
Q38.1406 42.3906 41.7188 45.5625
Q45.3125 48.7344 45.3125 54.3906
Q45.3125 60.0625 41.7188 63.2344
Q38.1406 66.4062 31.7812 66.4062
Q25.3906 66.4062 21.8438 63.2344
Q18.3125 60.0625 18.3125 54.3906" id="BitstreamVeraSans-Roman-38"/>
      </defs>
      <g transform="translate(118.051450893 189.7984375)scale(0.1 -0.1)">
       <use xlink:href="#BitstreamVeraSans-Roman-2212"/>
       <use x="83.7890625" xlink:href="#BitstreamVeraSans-Roman-30"/>
       <use x="147.412109375" xlink:href="#BitstreamVeraSans-Roman-2e"/>
       <use x="179.19921875" xlink:href="#BitstreamVeraSans-Roman-36"/>
       <use x="242.822265625" xlink:href="#BitstreamVeraSans-Roman-38"/>
      </g>
     </g>
    </g>
    <g id="xtick_6">
     <g id="line2d_17">
      <g>
       <use style="stroke:#000000;stroke-width:0.5;" x="154.722321429" xlink:href="#m93b0483c22" y="178.2"/>
      </g>
     </g>
     <g id="line2d_18">
      <g>
       <use style="stroke:#000000;stroke-width:0.5;" x="154.722321429" xlink:href="#m741efc42ff" y="15.3"/>
      </g>
     </g>
     <g id="text_6">
      <!-- −0.66 -->
      <g transform="translate(140.244196429 189.7984375)scale(0.1 -0.1)">
       <use xlink:href="#BitstreamVeraSans-Roman-2212"/>
       <use x="83.7890625" xlink:href="#BitstreamVeraSans-Roman-30"/>
       <use x="147.412109375" xlink:href="#BitstreamVeraSans-Roman-2e"/>
       <use x="179.19921875" xlink:href="#BitstreamVeraSans-Roman-36"/>
       <use x="242.822265625" xlink:href="#BitstreamVeraSans-Roman-36"/>
      </g>
     </g>
    </g>
    <g id="xtick_7">
     <g id="line2d_19">
      <g>
       <use style="stroke:#000000;stroke-width:0.5;" x="176.942410714" xlink:href="#m93b0483c22" y="178.2"/>
      </g>
     </g>
     <g id="line2d_20">
      <g>
       <use style="stroke:#000000;stroke-width:0.5;" x="176.942410714" xlink:href="#m741efc42ff" y="15.3"/>
      </g>
     </g>
     <g id="text_7">
      <!-- −0.64 -->
      <g transform="translate(162.429910714 189.7984375)scale(0.1 -0.1)">
       <use xlink:href="#BitstreamVeraSans-Roman-2212"/>
       <use x="83.7890625" xlink:href="#BitstreamVeraSans-Roman-30"/>
       <use x="147.412109375" xlink:href="#BitstreamVeraSans-Roman-2e"/>
       <use x="179.19921875" xlink:href="#BitstreamVeraSans-Roman-36"/>
       <use x="242.822265625" xlink:href="#BitstreamVeraSans-Roman-34"/>
      </g>
     </g>
    </g>
    <g id="xtick_8">
     <g id="line2d_21">
      <g>
       <use style="stroke:#000000;stroke-width:0.5;" x="199.1625" xlink:href="#m93b0483c22" y="178.2"/>
      </g>
     </g>
     <g id="line2d_22">
      <g>
       <use style="stroke:#000000;stroke-width:0.5;" x="199.1625" xlink:href="#m741efc42ff" y="15.3"/>
      </g>
     </g>
     <g id="text_8">
      <!-- −0.62 -->
      <g transform="translate(184.8703125 189.7984375)scale(0.1 -0.1)">
       <use xlink:href="#BitstreamVeraSans-Roman-2212"/>
       <use x="83.7890625" xlink:href="#BitstreamVeraSans-Roman-30"/>
       <use x="147.412109375" xlink:href="#BitstreamVeraSans-Roman-2e"/>
       <use x="179.19921875" xlink:href="#BitstreamVeraSans-Roman-36"/>
       <use x="242.822265625" xlink:href="#BitstreamVeraSans-Roman-32"/>
      </g>
     </g>
    </g>
    <g id="text_9">
     <!-- X component -->
     <defs>
      <path id="BitstreamVeraSans-Roman-20"/>
      <path d="
M54.8906 33.0156
L54.8906 0
L45.9062 0
L45.9062 32.7188
Q45.9062 40.4844 42.875 44.3281
Q39.8438 48.1875 33.7969 48.1875
Q26.5156 48.1875 22.3125 43.5469
Q18.1094 38.9219 18.1094 30.9062
L18.1094 0
L9.07812 0
L9.07812 54.6875
L18.1094 54.6875
L18.1094 46.1875
Q21.3438 51.125 25.7031 53.5625
Q30.0781 56 35.7969 56
Q45.2188 56 50.0469 50.1719
Q54.8906 44.3438 54.8906 33.0156" id="BitstreamVeraSans-Roman-6e"/>
      <path d="
M52 44.1875
Q55.375 50.25 60.0625 53.125
Q64.75 56 71.0938 56
Q79.6406 56 84.2812 50.0156
Q88.9219 44.0469 88.9219 33.0156
L88.9219 0
L79.8906 0
L79.8906 32.7188
Q79.8906 40.5781 77.0938 44.375
Q74.3125 48.1875 68.6094 48.1875
Q61.625 48.1875 57.5625 43.5469
Q53.5156 38.9219 53.5156 30.9062
L53.5156 0
L44.4844 0
L44.4844 32.7188
Q44.4844 40.625 41.7031 44.4062
Q38.9219 48.1875 33.1094 48.1875
Q26.2188 48.1875 22.1562 43.5312
Q18.1094 38.875 18.1094 30.9062
L18.1094 0
L9.07812 0
L9.07812 54.6875
L18.1094 54.6875
L18.1094 46.1875
Q21.1875 51.2188 25.4844 53.6094
Q29.7812 56 35.6875 56
Q41.6562 56 45.8281 52.9688
Q50 49.9531 52 44.1875" id="BitstreamVeraSans-Roman-6d"/>
      <path d="
M30.6094 48.3906
Q23.3906 48.3906 19.1875 42.75
Q14.9844 37.1094 14.9844 27.2969
Q14.9844 17.4844 19.1562 11.8438
Q23.3438 6.20312 30.6094 6.20312
Q37.7969 6.20312 41.9844 11.8594
Q46.1875 17.5312 46.1875 27.2969
Q46.1875 37.0156 41.9844 42.7031
Q37.7969 48.3906 30.6094 48.3906
M30.6094 56
Q42.3281 56 49.0156 48.375
Q55.7188 40.7656 55.7188 27.2969
Q55.7188 13.875 49.0156 6.21875
Q42.3281 -1.42188 30.6094 -1.42188
Q18.8438 -1.42188 12.1719 6.21875
Q5.51562 13.875 5.51562 27.2969
Q5.51562 40.7656 12.1719 48.375
Q18.8438 56 30.6094 56" id="BitstreamVeraSans-Roman-6f"/>
      <path d="
M56.2031 29.5938
L56.2031 25.2031
L14.8906 25.2031
Q15.4844 15.9219 20.4844 11.0625
Q25.4844 6.20312 34.4219 6.20312
Q39.5938 6.20312 44.4531 7.46875
Q49.3125 8.73438 54.1094 11.2812
L54.1094 2.78125
Q49.2656 0.734375 44.1875 -0.34375
Q39.1094 -1.42188 33.8906 -1.42188
Q20.7969 -1.42188 13.1562 6.1875
Q5.51562 13.8125 5.51562 26.8125
Q5.51562 40.2344 12.7656 48.1094
Q20.0156 56 32.3281 56
Q43.3594 56 49.7812 48.8906
Q56.2031 41.7969 56.2031 29.5938
M47.2188 32.2344
Q47.125 39.5938 43.0938 43.9844
Q39.0625 48.3906 32.4219 48.3906
Q24.9062 48.3906 20.3906 44.1406
Q15.875 39.8906 15.1875 32.1719
z
" id="BitstreamVeraSans-Roman-65"/>
      <path d="
M48.7812 52.5938
L48.7812 44.1875
Q44.9688 46.2969 41.1406 47.3438
Q37.3125 48.3906 33.4062 48.3906
Q24.6562 48.3906 19.8125 42.8438
Q14.9844 37.3125 14.9844 27.2969
Q14.9844 17.2812 19.8125 11.7344
Q24.6562 6.20312 33.4062 6.20312
Q37.3125 6.20312 41.1406 7.25
Q44.9688 8.29688 48.7812 10.4062
L48.7812 2.09375
Q45.0156 0.34375 40.9844 -0.53125
Q36.9688 -1.42188 32.4219 -1.42188
Q20.0625 -1.42188 12.7812 6.34375
Q5.51562 14.1094 5.51562 27.2969
Q5.51562 40.6719 12.8594 48.3281
Q20.2188 56 33.0156 56
Q37.1562 56 41.1094 55.1406
Q45.0625 54.2969 48.7812 52.5938" id="BitstreamVeraSans-Roman-63"/>
      <path d="
M6.29688 72.9062
L16.8906 72.9062
L35.0156 45.7969
L53.2188 72.9062
L63.8125 72.9062
L40.375 37.8906
L65.375 0
L54.7812 0
L34.2812 31
L13.625 0
L2.98438 0
L29 38.9219
z
" id="BitstreamVeraSans-Roman-58"/>
      <path d="
M18.3125 70.2188
L18.3125 54.6875
L36.8125 54.6875
L36.8125 47.7031
L18.3125 47.7031
L18.3125 18.0156
Q18.3125 11.3281 20.1406 9.42188
Q21.9688 7.51562 27.5938 7.51562
L36.8125 7.51562
L36.8125 0
L27.5938 0
Q17.1875 0 13.2344 3.875
Q9.28125 7.76562 9.28125 18.0156
L9.28125 47.7031
L2.6875 47.7031
L2.6875 54.6875
L9.28125 54.6875
L9.28125 70.2188
z
" id="BitstreamVeraSans-Roman-74"/>
      <path d="
M18.1094 8.20312
L18.1094 -20.7969
L9.07812 -20.7969
L9.07812 54.6875
L18.1094 54.6875
L18.1094 46.3906
Q20.9531 51.2656 25.2656 53.625
Q29.5938 56 35.5938 56
Q45.5625 56 51.7812 48.0938
Q58.0156 40.1875 58.0156 27.2969
Q58.0156 14.4062 51.7812 6.48438
Q45.5625 -1.42188 35.5938 -1.42188
Q29.5938 -1.42188 25.2656 0.953125
Q20.9531 3.32812 18.1094 8.20312
M48.6875 27.2969
Q48.6875 37.2031 44.6094 42.8438
Q40.5312 48.4844 33.4062 48.4844
Q26.2656 48.4844 22.1875 42.8438
Q18.1094 37.2031 18.1094 27.2969
Q18.1094 17.3906 22.1875 11.75
Q26.2656 6.10938 33.4062 6.10938
Q40.5312 6.10938 44.6094 11.75
Q48.6875 17.3906 48.6875 27.2969" id="BitstreamVeraSans-Roman-70"/>
     </defs>
     <g transform="translate(88.2109375 204.4765625)scale(0.1 -0.1)">
      <use xlink:href="#BitstreamVeraSans-Roman-58"/>
      <use x="68.505859375" xlink:href="#BitstreamVeraSans-Roman-20"/>
      <use x="100.29296875" xlink:href="#BitstreamVeraSans-Roman-63"/>
      <use x="155.2734375" xlink:href="#BitstreamVeraSans-Roman-6f"/>
      <use x="216.455078125" xlink:href="#BitstreamVeraSans-Roman-6d"/>
      <use x="313.8671875" xlink:href="#BitstreamVeraSans-Roman-70"/>
      <use x="377.34375" xlink:href="#BitstreamVeraSans-Roman-6f"/>
      <use x="438.525390625" xlink:href="#BitstreamVeraSans-Roman-6e"/>
      <use x="501.904296875" xlink:href="#BitstreamVeraSans-Roman-65"/>
      <use x="563.427734375" xlink:href="#BitstreamVeraSans-Roman-6e"/>
      <use x="626.806640625" xlink:href="#BitstreamVeraSans-Roman-74"/>
     </g>
    </g>
   </g>
   <g id="matplotlib.axis_2">
    <g id="ytick_1">
     <g id="line2d_23">
      <defs>
       <path d="
M0 0
L4 0" id="m728421d6d4" style="stroke:#000000;stroke-width:0.5;"/>
      </defs>
      <g>
       <use style="stroke:#000000;stroke-width:0.5;" x="43.621875" xlink:href="#m728421d6d4" y="178.2"/>
      </g>
     </g>
     <g id="line2d_24">
      <defs>
       <path d="
M0 0
L-4 0" id="mcb0005524f" style="stroke:#000000;stroke-width:0.5;"/>
      </defs>
      <g>
       <use style="stroke:#000000;stroke-width:0.5;" x="199.1625" xlink:href="#mcb0005524f" y="178.2"/>
      </g>
     </g>
     <g id="text_10">
      <!-- 0.0 -->
      <g transform="translate(25.0421875 180.959375)scale(0.1 -0.1)">
       <use xlink:href="#BitstreamVeraSans-Roman-30"/>
       <use x="63.623046875" xlink:href="#BitstreamVeraSans-Roman-2e"/>
       <use x="95.41015625" xlink:href="#BitstreamVeraSans-Roman-30"/>
      </g>
     </g>
    </g>
    <g id="ytick_2">
     <g id="line2d_25">
      <g>
       <use style="stroke:#000000;stroke-width:0.5;" x="43.621875" xlink:href="#m728421d6d4" y="145.62"/>
      </g>
     </g>
     <g id="line2d_26">
      <g>
       <use style="stroke:#000000;stroke-width:0.5;" x="199.1625" xlink:href="#mcb0005524f" y="145.62"/>
      </g>
     </g>
     <g id="text_11">
      <!-- 0.2 -->
      <g transform="translate(25.3796875 148.379375)scale(0.1 -0.1)">
       <use xlink:href="#BitstreamVeraSans-Roman-30"/>
       <use x="63.623046875" xlink:href="#BitstreamVeraSans-Roman-2e"/>
       <use x="95.41015625" xlink:href="#BitstreamVeraSans-Roman-32"/>
      </g>
     </g>
    </g>
    <g id="ytick_3">
     <g id="line2d_27">
      <g>
       <use style="stroke:#000000;stroke-width:0.5;" x="43.621875" xlink:href="#m728421d6d4" y="113.04"/>
      </g>
     </g>
     <g id="line2d_28">
      <g>
       <use style="stroke:#000000;stroke-width:0.5;" x="199.1625" xlink:href="#mcb0005524f" y="113.04"/>
      </g>
     </g>
     <g id="text_12">
      <!-- 0.4 -->
      <g transform="translate(24.9390625 115.799375)scale(0.1 -0.1)">
       <use xlink:href="#BitstreamVeraSans-Roman-30"/>
       <use x="63.623046875" xlink:href="#BitstreamVeraSans-Roman-2e"/>
       <use x="95.41015625" xlink:href="#BitstreamVeraSans-Roman-34"/>
      </g>
     </g>
    </g>
    <g id="ytick_4">
     <g id="line2d_29">
      <g>
       <use style="stroke:#000000;stroke-width:0.5;" x="43.621875" xlink:href="#m728421d6d4" y="80.46"/>
      </g>
     </g>
     <g id="line2d_30">
      <g>
       <use style="stroke:#000000;stroke-width:0.5;" x="199.1625" xlink:href="#mcb0005524f" y="80.46"/>
      </g>
     </g>
     <g id="text_13">
      <!-- 0.6 -->
      <g transform="translate(25.0078125 83.219375)scale(0.1 -0.1)">
       <use xlink:href="#BitstreamVeraSans-Roman-30"/>
       <use x="63.623046875" xlink:href="#BitstreamVeraSans-Roman-2e"/>
       <use x="95.41015625" xlink:href="#BitstreamVeraSans-Roman-36"/>
      </g>
     </g>
    </g>
    <g id="ytick_5">
     <g id="line2d_31">
      <g>
       <use style="stroke:#000000;stroke-width:0.5;" x="43.621875" xlink:href="#m728421d6d4" y="47.88"/>
      </g>
     </g>
     <g id="line2d_32">
      <g>
       <use style="stroke:#000000;stroke-width:0.5;" x="199.1625" xlink:href="#mcb0005524f" y="47.88"/>
      </g>
     </g>
     <g id="text_14">
      <!-- 0.8 -->
      <g transform="translate(25.0625 50.639375)scale(0.1 -0.1)">
       <use xlink:href="#BitstreamVeraSans-Roman-30"/>
       <use x="63.623046875" xlink:href="#BitstreamVeraSans-Roman-2e"/>
       <use x="95.41015625" xlink:href="#BitstreamVeraSans-Roman-38"/>
      </g>
     </g>
    </g>
    <g id="ytick_6">
     <g id="line2d_33">
      <g>
       <use style="stroke:#000000;stroke-width:0.5;" x="43.621875" xlink:href="#m728421d6d4" y="15.3"/>
      </g>
     </g>
     <g id="line2d_34">
      <g>
       <use style="stroke:#000000;stroke-width:0.5;" x="199.1625" xlink:href="#mcb0005524f" y="15.3"/>
      </g>
     </g>
     <g id="text_15">
      <!-- 1.0 -->
      <defs>
       <path d="
M12.4062 8.29688
L28.5156 8.29688
L28.5156 63.9219
L10.9844 60.4062
L10.9844 69.3906
L28.4219 72.9062
L38.2812 72.9062
L38.2812 8.29688
L54.3906 8.29688
L54.3906 0
L12.4062 0
z
" id="BitstreamVeraSans-Roman-31"/>
      </defs>
      <g transform="translate(25.48125 18.059375)scale(0.1 -0.1)">
       <use xlink:href="#BitstreamVeraSans-Roman-31"/>
       <use x="63.623046875" xlink:href="#BitstreamVeraSans-Roman-2e"/>
       <use x="95.41015625" xlink:href="#BitstreamVeraSans-Roman-30"/>
      </g>
     </g>
    </g>
    <g id="text_16">
     <!-- Cumulative Distribution -->
     <defs>
      <path d="
M41.1094 46.2969
Q39.5938 47.1719 37.8125 47.5781
Q36.0312 48 33.8906 48
Q26.2656 48 22.1875 43.0469
Q18.1094 38.0938 18.1094 28.8125
L18.1094 0
L9.07812 0
L9.07812 54.6875
L18.1094 54.6875
L18.1094 46.1875
Q20.9531 51.1719 25.4844 53.5781
Q30.0312 56 36.5312 56
Q37.4531 56 38.5781 55.875
Q39.7031 55.7656 41.0625 55.5156
z
" id="BitstreamVeraSans-Roman-72"/>
      <path d="
M9.42188 75.9844
L18.4062 75.9844
L18.4062 0
L9.42188 0
z
" id="BitstreamVeraSans-Roman-6c"/>
      <path d="
M19.6719 64.7969
L19.6719 8.10938
L31.5938 8.10938
Q46.6875 8.10938 53.6875 14.9375
Q60.6875 21.7812 60.6875 36.5312
Q60.6875 51.1719 53.6875 57.9844
Q46.6875 64.7969 31.5938 64.7969
z

M9.8125 72.9062
L30.0781 72.9062
Q51.2656 72.9062 61.1719 64.0938
Q71.0938 55.2812 71.0938 36.5312
Q71.0938 17.6719 61.125 8.82812
Q51.1719 0 30.0781 0
L9.8125 0
z
" id="BitstreamVeraSans-Roman-44"/>
      <path d="
M9.42188 54.6875
L18.4062 54.6875
L18.4062 0
L9.42188 0
z

M9.42188 75.9844
L18.4062 75.9844
L18.4062 64.5938
L9.42188 64.5938
z
" id="BitstreamVeraSans-Roman-69"/>
      <path d="
M2.98438 54.6875
L12.5 54.6875
L29.5938 8.79688
L46.6875 54.6875
L56.2031 54.6875
L35.6875 0
L23.4844 0
z
" id="BitstreamVeraSans-Roman-76"/>
      <path d="
M64.4062 67.2812
L64.4062 56.8906
Q59.4219 61.5312 53.7812 63.8125
Q48.1406 66.1094 41.7969 66.1094
Q29.2969 66.1094 22.6562 58.4688
Q16.0156 50.8281 16.0156 36.375
Q16.0156 21.9688 22.6562 14.3281
Q29.2969 6.6875 41.7969 6.6875
Q48.1406 6.6875 53.7812 8.98438
Q59.4219 11.2812 64.4062 15.9219
L64.4062 5.60938
Q59.2344 2.09375 53.4375 0.328125
Q47.6562 -1.42188 41.2188 -1.42188
Q24.6562 -1.42188 15.125 8.70312
Q5.60938 18.8438 5.60938 36.375
Q5.60938 53.9531 15.125 64.0781
Q24.6562 74.2188 41.2188 74.2188
Q47.75 74.2188 53.5312 72.4844
Q59.3281 70.75 64.4062 67.2812" id="BitstreamVeraSans-Roman-43"/>
      <path d="
M8.5 21.5781
L8.5 54.6875
L17.4844 54.6875
L17.4844 21.9219
Q17.4844 14.1562 20.5 10.2656
Q23.5312 6.39062 29.5938 6.39062
Q36.8594 6.39062 41.0781 11.0312
Q45.3125 15.6719 45.3125 23.6875
L45.3125 54.6875
L54.2969 54.6875
L54.2969 0
L45.3125 0
L45.3125 8.40625
Q42.0469 3.42188 37.7188 1
Q33.4062 -1.42188 27.6875 -1.42188
Q18.2656 -1.42188 13.375 4.4375
Q8.5 10.2969 8.5 21.5781" id="BitstreamVeraSans-Roman-75"/>
      <path d="
M34.2812 27.4844
Q23.3906 27.4844 19.1875 25
Q14.9844 22.5156 14.9844 16.5
Q14.9844 11.7188 18.1406 8.90625
Q21.2969 6.10938 26.7031 6.10938
Q34.1875 6.10938 38.7031 11.4062
Q43.2188 16.7031 43.2188 25.4844
L43.2188 27.4844
z

M52.2031 31.2031
L52.2031 0
L43.2188 0
L43.2188 8.29688
Q40.1406 3.32812 35.5469 0.953125
Q30.9531 -1.42188 24.3125 -1.42188
Q15.9219 -1.42188 10.9531 3.29688
Q6 8.01562 6 15.9219
Q6 25.1406 12.1719 29.8281
Q18.3594 34.5156 30.6094 34.5156
L43.2188 34.5156
L43.2188 35.4062
Q43.2188 41.6094 39.1406 45
Q35.0625 48.3906 27.6875 48.3906
Q23 48.3906 18.5469 47.2656
Q14.1094 46.1406 10.0156 43.8906
L10.0156 52.2031
Q14.9375 54.1094 19.5781 55.0469
Q24.2188 56 28.6094 56
Q40.4844 56 46.3438 49.8438
Q52.2031 43.7031 52.2031 31.2031" id="BitstreamVeraSans-Roman-61"/>
      <path d="
M44.2812 53.0781
L44.2812 44.5781
Q40.4844 46.5312 36.375 47.5
Q32.2812 48.4844 27.875 48.4844
Q21.1875 48.4844 17.8438 46.4375
Q14.5 44.3906 14.5 40.2812
Q14.5 37.1562 16.8906 35.375
Q19.2812 33.5938 26.5156 31.9844
L29.5938 31.2969
Q39.1562 29.25 43.1875 25.5156
Q47.2188 21.7812 47.2188 15.0938
Q47.2188 7.46875 41.1875 3.01562
Q35.1562 -1.42188 24.6094 -1.42188
Q20.2188 -1.42188 15.4531 -0.5625
Q10.6875 0.296875 5.42188 2
L5.42188 11.2812
Q10.4062 8.6875 15.2344 7.39062
Q20.0625 6.10938 24.8125 6.10938
Q31.1562 6.10938 34.5625 8.28125
Q37.9844 10.4531 37.9844 14.4062
Q37.9844 18.0625 35.5156 20.0156
Q33.0625 21.9688 24.7031 23.7812
L21.5781 24.5156
Q13.2344 26.2656 9.51562 29.9062
Q5.8125 33.5469 5.8125 39.8906
Q5.8125 47.6094 11.2812 51.7969
Q16.75 56 26.8125 56
Q31.7812 56 36.1719 55.2656
Q40.5781 54.5469 44.2812 53.0781" id="BitstreamVeraSans-Roman-73"/>
      <path d="
M48.6875 27.2969
Q48.6875 37.2031 44.6094 42.8438
Q40.5312 48.4844 33.4062 48.4844
Q26.2656 48.4844 22.1875 42.8438
Q18.1094 37.2031 18.1094 27.2969
Q18.1094 17.3906 22.1875 11.75
Q26.2656 6.10938 33.4062 6.10938
Q40.5312 6.10938 44.6094 11.75
Q48.6875 17.3906 48.6875 27.2969
M18.1094 46.3906
Q20.9531 51.2656 25.2656 53.625
Q29.5938 56 35.5938 56
Q45.5625 56 51.7812 48.0938
Q58.0156 40.1875 58.0156 27.2969
Q58.0156 14.4062 51.7812 6.48438
Q45.5625 -1.42188 35.5938 -1.42188
Q29.5938 -1.42188 25.2656 0.953125
Q20.9531 3.32812 18.1094 8.20312
L18.1094 0
L9.07812 0
L9.07812 75.9844
L18.1094 75.9844
z
" id="BitstreamVeraSans-Roman-62"/>
     </defs>
     <g transform="translate(17.859375 155.62109375)rotate(-90.0)scale(0.1 -0.1)">
      <use xlink:href="#BitstreamVeraSans-Roman-43"/>
      <use x="69.82421875" xlink:href="#BitstreamVeraSans-Roman-75"/>
      <use x="133.203125" xlink:href="#BitstreamVeraSans-Roman-6d"/>
      <use x="230.615234375" xlink:href="#BitstreamVeraSans-Roman-75"/>
      <use x="293.994140625" xlink:href="#BitstreamVeraSans-Roman-6c"/>
      <use x="321.77734375" xlink:href="#BitstreamVeraSans-Roman-61"/>
      <use x="383.056640625" xlink:href="#BitstreamVeraSans-Roman-74"/>
      <use x="422.265625" xlink:href="#BitstreamVeraSans-Roman-69"/>
      <use x="450.048828125" xlink:href="#BitstreamVeraSans-Roman-76"/>
      <use x="509.228515625" xlink:href="#BitstreamVeraSans-Roman-65"/>
      <use x="570.751953125" xlink:href="#BitstreamVeraSans-Roman-20"/>
      <use x="602.5390625" xlink:href="#BitstreamVeraSans-Roman-44"/>
      <use x="679.541015625" xlink:href="#BitstreamVeraSans-Roman-69"/>
      <use x="707.32421875" xlink:href="#BitstreamVeraSans-Roman-73"/>
      <use x="759.423828125" xlink:href="#BitstreamVeraSans-Roman-74"/>
      <use x="798.6328125" xlink:href="#BitstreamVeraSans-Roman-72"/>
      <use x="839.74609375" xlink:href="#BitstreamVeraSans-Roman-69"/>
      <use x="867.529296875" xlink:href="#BitstreamVeraSans-Roman-62"/>
      <use x="931.005859375" xlink:href="#BitstreamVeraSans-Roman-75"/>
      <use x="994.384765625" xlink:href="#BitstreamVeraSans-Roman-74"/>
      <use x="1033.59375" xlink:href="#BitstreamVeraSans-Roman-69"/>
      <use x="1061.37695312" xlink:href="#BitstreamVeraSans-Roman-6f"/>
      <use x="1122.55859375" xlink:href="#BitstreamVeraSans-Roman-6e"/>
     </g>
    </g>
   </g>
  </g>
  <g id="axes_2">
   <g id="patch_7">
    <path d="
M257.367 178.2
L412.908 178.2
L412.908 15.3
L257.367 15.3
z
" style="fill:#ffffff;"/>
   </g>
   <g id="line2d_35">
    <path clip-path="url(#p44efea1c73)" d="
M283.998 178.2
L290.409 178.167
L291.538 178.07
L295.731 177.907
L295.785 177.874
L300.805 177.288
L301.46 177.092
L301.883 176.962
L302.525 176.766
L302.542 176.734
L303.162 176.571
L303.233 176.506
L303.746 176.376
L303.962 176.213
L304.418 176.05
L305.139 175.822
L305.635 175.594
L305.733 175.496
L306.41 175.235
L306.724 175.007
L307.276 174.616
L307.441 174.421
L307.887 174.225
L308 174.03
L308.41 173.802
L308.966 173.313
L309.25 173.15
L309.364 172.922
L309.584 172.759
L309.645 172.629
L310.234 172.27
L310.281 172.173
L310.56 171.977
L310.768 171.749
L310.907 171.586
L311.017 171.456
L311.319 171.13
L311.324 171.098
L311.587 170.935
L311.658 170.772
L312.014 170.544
L312.103 170.283
L312.446 169.664
L312.532 169.566
L312.653 169.403
L312.765 169.208
L312.911 169.045
L313.058 168.85
L313.155 168.687
L314.307 166.569
L314.757 165.787
L314.853 165.526
L315.032 165.135
L315.209 164.744
L315.316 164.647
L315.935 163.409
L316.115 162.79
L317.336 159.206
L317.473 158.75
L317.572 158.489
L317.766 157.837
L317.85 157.609
L318.105 156.599
L318.203 156.404
L319.753 152.95
L319.876 152.69
L319.969 152.494
L320.09 152.103
L320.244 151.615
L320.43 150.996
L320.629 150.344
L320.728 150.051
L321.053 149.008
L321.25 148.161
L321.427 147.412
L321.563 146.695
L321.745 145.913
L321.972 144.838
L322.133 144.154
L322.319 143.567
L322.392 143.339
L322.538 142.72
L322.977 141.222
L323.356 139.56
L323.445 139.332
L323.567 138.746
L323.617 138.583
L324.326 135.618
L324.445 135.097
L324.508 134.803
L324.754 133.565
L324.831 133.305
L324.945 132.914
L325.953 128.19
L326.025 127.896
L326.136 127.343
L326.205 126.984
L326.316 126.398
L326.475 125.811
L326.673 124.638
L327.602 120.045
L327.716 119.589
L327.847 118.937
L327.948 118.285
L328.01 118.057
L328.14 117.178
L328.375 116.233
L328.581 115.027
L328.744 114.376
L329.19 112.128
L329.302 111.737
L329.611 110.075
L330.988 102.614
L331.037 102.321
L331.196 101.702
L331.336 101.018
L331.473 100.399
L331.574 99.9103
L331.744 98.7048
L331.957 97.5971
L336.338 75.8011
L336.527 74.954
L336.64 74.4001
L337.28 71.3702
L337.404 70.8489
L337.81 68.2425
L337.96 67.7212
L338.038 67.3303
L338.274 65.9945
L338.448 65.4406
L338.68 64.3329
L338.771 63.8768
L338.89 63.4207
L339.009 62.9645
L339.21 62.3129
L339.291 62.1175
L339.74 60.3907
L339.793 60.1627
L342.252 50.1932
L342.36 50.0303
L342.491 49.4438
L342.537 49.1832
L342.64 48.7922
L342.734 48.3687
L342.88 47.8474
L343.182 47.1307
L343.294 46.9352
L343.398 46.4139
L343.473 46.1533
L343.61 45.4691
L343.933 44.4591
L344.075 43.8401
L346.755 35.5648
L347.052 35.0109
L347.2 34.4896
L347.36 33.9683
L347.609 33.5448
L347.746 33.0235
L347.93 32.6
L348.487 31.4271
L348.571 31.2642
L348.676 31.0687
L348.893 30.5149
L349.44 29.1791
L349.533 28.951
L349.882 28.4623
L350.017 28.1039
L350.281 27.7781
L350.403 27.6478
L350.68 27.322
L351.106 26.7682
L351.327 26.1817
L351.435 25.9537
L351.564 25.7256
L351.768 25.4324
L352.009 25.2695
L352.146 25.1066
L352.357 24.9437
L352.781 24.2595
L353.079 23.8685
L353.176 23.6405
L353.348 23.4124
L353.453 23.3473
L353.726 23.1518
L353.938 22.7608
L354.172 22.5653
L354.493 22.0766
L354.948 21.7834
L355.217 21.4902
L355.388 21.2947
L355.505 20.9689
L355.876 20.806
L356.133 20.4802
L356.93 19.9589
L358.322 18.8512
L358.716 18.6883
L358.726 18.6557
L359.36 18.4928
L359.45 18.3625
L359.936 18.1996
L360.207 17.939
L360.288 17.8738
L363.611 16.6684
L364.073 16.5055
L364.162 16.3751
L365.396 16.0493
L365.401 16.0168
L370.393 15.5606
L373.298 15.3977
L374.074 15.3652
L378.088 15.3326
L378.088 15.3326" style="fill:none;stroke:#ff0000;stroke-linecap:square;"/>
   </g>
   <g id="line2d_36">
    <path clip-path="url(#p44efea1c73)" d="
M307.94 178.2
L307.94 15.3" style="fill:none;stroke:#ff0000;stroke-linecap:square;"/>
   </g>
   <g id="line2d_37">
    <path clip-path="url(#p44efea1c73)" d="
M357.573 178.2
L357.573 15.3" style="fill:none;stroke:#ff0000;stroke-linecap:square;"/>
   </g>
   <g id="line2d_38">
    <path clip-path="url(#p44efea1c73)" d="
M287.503 178.2
L287.733 178.167
L298.1 177.939
L298.448 177.842
L299.476 177.614
L300.035 177.483
L301.737 177.32
L302.231 177.223
L302.87 177.06
L303.238 176.832
L304.039 176.669
L304.783 176.31
L304.803 176.278
L305.244 176.115
L305.302 176.017
L305.849 175.789
L305.982 175.691
L306.276 175.431
L306.419 175.3
L306.864 175.072
L307.027 174.844
L307.27 174.714
L307.474 174.551
L307.824 174.388
L308.241 174.03
L309.176 173.248
L309.647 173.02
L309.974 172.857
L310.27 172.401
L311.133 171.032
L311.393 170.772
L311.668 170.381
L311.798 170.185
L311.987 169.892
L312.458 169.306
L313.294 168.1
L313.403 167.774
L313.52 167.546
L313.677 167.286
L313.866 166.895
L314.117 166.439
L314.468 166.048
L314.741 165.592
L315.747 163.213
L315.824 163.05
L315.962 162.855
L316.116 162.334
L316.392 161.649
L316.74 160.77
L316.861 160.444
L317.968 158.131
L318.09 157.675
L318.73 155.589
L318.91 154.97
L319.378 153.211
L319.452 152.983
L319.578 152.56
L319.663 152.201
L319.782 151.908
L320.073 151.321
L320.165 151.126
L320.305 150.67
L320.378 150.409
L320.497 149.855
L320.686 148.943
L321.087 147.412
L321.635 145.685
L322.256 143.339
L322.362 142.948
L322.436 142.655
L322.549 142.069
L322.75 141.547
L322.896 140.928
L323.013 140.375
L323.389 139.006
L323.46 138.778
L323.625 138.289
L323.77 137.605
L323.947 137.019
L324.059 136.628
L324.737 133.793
L324.87 133.174
L324.987 132.783
L325.134 132.295
L325.317 131.611
L325.492 130.535
L325.562 130.275
L325.906 128.548
L325.97 128.255
L326.97 123.107
L327.15 121.999
L327.253 121.543
L327.463 120.631
L327.644 119.686
L327.763 118.872
L328.027 117.96
L328.62 115.06
L328.75 114.539
L329.755 109.391
L329.807 109.098
L330.023 108.316
L330.08 107.99
L330.221 107.143
L330.257 106.948
L330.486 105.612
L330.556 105.416
L330.684 104.83
L331.02 103.005
L331.103 102.777
L331.468 100.985
L331.692 99.8125
L331.76 99.5519
L332.051 97.7274
L332.184 97.0758
L332.326 96.4894
L332.436 95.7726
L333.331 91.3091
L333.422 90.8856
L333.5 90.7227
L333.618 89.9082
L333.68 89.7453
L333.811 89.1263
L334.276 87.1389
L334.33 86.9108
L334.54 85.6076
L334.688 84.8583
L334.842 84.1415
L334.899 83.8809
L335.253 82.0564
L335.349 81.6655
L335.526 80.6555
L335.588 80.2971
L337.289 71.8589
L337.337 71.6634
L337.452 71.0444
L337.624 70.1321
L337.715 69.8389
L337.847 69.2525
L337.943 68.8615
L338.066 68.4706
L338.39 66.9067
L338.527 66.19
L338.602 65.8642
L339.208 62.6062
L339.305 62.1175
L341.693 52.2131
L341.819 51.7896
L342.1 50.5516
L342.196 50.3887
L343.749 44.2962
L343.828 44.1333
L344.068 43.4491
L344.142 43.2862
L344.289 42.7975
L344.323 42.5369
L344.451 42.0808
L345.28 39.4418
L345.381 39.2137
L345.578 38.8879
L345.697 38.5295
L346.332 37.0634
L346.422 36.8354
L347.33 34.3267
L347.458 34.0009
L347.594 33.61
L347.739 33.4471
L348.029 32.7955
L348.102 32.5674
L349.356 30.0587
L349.541 29.8633
L350.014 28.951
L350.115 28.6578
L350.226 28.4949
L351.225 26.4424
L352.249 25.2369
L352.364 25.0414
L352.498 24.8134
L352.991 24.3898
L353.121 24.1618
L353.281 23.9663
L353.429 23.8034
L353.925 23.1518
L354.26 22.9563
L354.496 22.6957
L354.821 22.0766
L354.971 21.816
L355.481 21.1644
L355.84 20.8712
L356.518 20.1218
L356.686 19.9589
L356.899 19.7309
L357.008 19.6657
L358.239 18.9815
L358.325 18.9164
L358.896 18.4928
L359.136 18.3299
L359.208 18.2648
L359.81 17.9716
L360.073 17.548
L360.425 17.4177
L360.547 17.2874
L361.697 16.8964
L363.004 16.7009
L363.381 16.5706
L364.893 16.3426
L365.102 16.2448
L367.088 15.9842
L373.505 15.4955
L376.26 15.4303
L395.77 15.3326
L395.77 15.3326" style="fill:none;stroke:#0000ff;stroke-linecap:square;"/>
   </g>
   <g id="line2d_39">
    <path clip-path="url(#p44efea1c73)" d="
M308.226 178.2
L308.226 15.3" style="fill:none;stroke:#0000ff;stroke-dasharray:6.000000,6.000000;stroke-dashoffset:0.0;"/>
   </g>
   <g id="line2d_40">
    <path clip-path="url(#p44efea1c73)" d="
M357.617 178.2
L357.617 15.3" style="fill:none;stroke:#0000ff;stroke-dasharray:6.000000,6.000000;stroke-dashoffset:0.0;"/>
   </g>
   <g id="patch_8">
    <path d="
M257.367 15.3
L412.908 15.3" style="fill:none;stroke:#000000;stroke-linecap:square;stroke-linejoin:miter;"/>
   </g>
   <g id="patch_9">
    <path d="
M412.908 178.2
L412.908 15.3" style="fill:none;stroke:#000000;stroke-linecap:square;stroke-linejoin:miter;"/>
   </g>
   <g id="patch_10">
    <path d="
M257.367 178.2
L412.908 178.2" style="fill:none;stroke:#000000;stroke-linecap:square;stroke-linejoin:miter;"/>
   </g>
   <g id="patch_11">
    <path d="
M257.367 178.2
L257.367 15.3" style="fill:none;stroke:#000000;stroke-linecap:square;stroke-linejoin:miter;"/>
   </g>
   <g id="matplotlib.axis_3">
    <g id="xtick_9">
     <g id="line2d_41">
      <g>
       <use style="stroke:#000000;stroke-width:0.5;" x="257.3671875" xlink:href="#m93b0483c22" y="178.2"/>
      </g>
     </g>
     <g id="line2d_42">
      <g>
       <use style="stroke:#000000;stroke-width:0.5;" x="257.3671875" xlink:href="#m741efc42ff" y="15.3"/>
      </g>
     </g>
     <g id="text_17">
      <!-- −0.35 -->
      <defs>
       <path d="
M40.5781 39.3125
Q47.6562 37.7969 51.625 33
Q55.6094 28.2188 55.6094 21.1875
Q55.6094 10.4062 48.1875 4.48438
Q40.7656 -1.42188 27.0938 -1.42188
Q22.5156 -1.42188 17.6562 -0.515625
Q12.7969 0.390625 7.625 2.20312
L7.625 11.7188
Q11.7188 9.32812 16.5938 8.10938
Q21.4844 6.89062 26.8125 6.89062
Q36.0781 6.89062 40.9375 10.5469
Q45.7969 14.2031 45.7969 21.1875
Q45.7969 27.6406 41.2812 31.2656
Q36.7656 34.9062 28.7188 34.9062
L20.2188 34.9062
L20.2188 43.0156
L29.1094 43.0156
Q36.375 43.0156 40.2344 45.9219
Q44.0938 48.8281 44.0938 54.2969
Q44.0938 59.9062 40.1094 62.9062
Q36.1406 65.9219 28.7188 65.9219
Q24.6562 65.9219 20.0156 65.0312
Q15.375 64.1562 9.8125 62.3125
L9.8125 71.0938
Q15.4375 72.6562 20.3438 73.4375
Q25.25 74.2188 29.5938 74.2188
Q40.8281 74.2188 47.3594 69.1094
Q53.9062 64.0156 53.9062 55.3281
Q53.9062 49.2656 50.4375 45.0938
Q46.9688 40.9219 40.5781 39.3125" id="BitstreamVeraSans-Roman-33"/>
       <path d="
M10.7969 72.9062
L49.5156 72.9062
L49.5156 64.5938
L19.8281 64.5938
L19.8281 46.7344
Q21.9688 47.4688 24.1094 47.8281
Q26.2656 48.1875 28.4219 48.1875
Q40.625 48.1875 47.75 41.5
Q54.8906 34.8125 54.8906 23.3906
Q54.8906 11.625 47.5625 5.09375
Q40.2344 -1.42188 26.9062 -1.42188
Q22.3125 -1.42188 17.5469 -0.640625
Q12.7969 0.140625 7.71875 1.70312
L7.71875 11.625
Q12.1094 9.23438 16.7969 8.0625
Q21.4844 6.89062 26.7031 6.89062
Q35.1562 6.89062 40.0781 11.3281
Q45.0156 15.7656 45.0156 23.3906
Q45.0156 31 40.0781 35.4375
Q35.1562 39.8906 26.7031 39.8906
Q22.75 39.8906 18.8125 39.0156
Q14.8906 38.1406 10.7969 36.2812
z
" id="BitstreamVeraSans-Roman-35"/>
      </defs>
      <g transform="translate(243.0109375 189.7984375)scale(0.1 -0.1)">
       <use xlink:href="#BitstreamVeraSans-Roman-2212"/>
       <use x="83.7890625" xlink:href="#BitstreamVeraSans-Roman-30"/>
       <use x="147.412109375" xlink:href="#BitstreamVeraSans-Roman-2e"/>
       <use x="179.19921875" xlink:href="#BitstreamVeraSans-Roman-33"/>
       <use x="242.822265625" xlink:href="#BitstreamVeraSans-Roman-35"/>
      </g>
     </g>
    </g>
    <g id="xtick_10">
     <g id="line2d_43">
      <g>
       <use style="stroke:#000000;stroke-width:0.5;" x="288.4753125" xlink:href="#m93b0483c22" y="178.2"/>
      </g>
     </g>
     <g id="line2d_44">
      <g>
       <use style="stroke:#000000;stroke-width:0.5;" x="288.4753125" xlink:href="#m741efc42ff" y="15.3"/>
      </g>
     </g>
     <g id="text_18">
      <!-- −0.30 -->
      <g transform="translate(274.014375 189.7984375)scale(0.1 -0.1)">
       <use xlink:href="#BitstreamVeraSans-Roman-2212"/>
       <use x="83.7890625" xlink:href="#BitstreamVeraSans-Roman-30"/>
       <use x="147.412109375" xlink:href="#BitstreamVeraSans-Roman-2e"/>
       <use x="179.19921875" xlink:href="#BitstreamVeraSans-Roman-33"/>
       <use x="242.822265625" xlink:href="#BitstreamVeraSans-Roman-30"/>
      </g>
     </g>
    </g>
    <g id="xtick_11">
     <g id="line2d_45">
      <g>
       <use style="stroke:#000000;stroke-width:0.5;" x="319.5834375" xlink:href="#m93b0483c22" y="178.2"/>
      </g>
     </g>
     <g id="line2d_46">
      <g>
       <use style="stroke:#000000;stroke-width:0.5;" x="319.5834375" xlink:href="#m741efc42ff" y="15.3"/>
      </g>
     </g>
     <g id="text_19">
      <!-- −0.25 -->
      <g transform="translate(305.2271875 189.7984375)scale(0.1 -0.1)">
       <use xlink:href="#BitstreamVeraSans-Roman-2212"/>
       <use x="83.7890625" xlink:href="#BitstreamVeraSans-Roman-30"/>
       <use x="147.412109375" xlink:href="#BitstreamVeraSans-Roman-2e"/>
       <use x="179.19921875" xlink:href="#BitstreamVeraSans-Roman-32"/>
       <use x="242.822265625" xlink:href="#BitstreamVeraSans-Roman-35"/>
      </g>
     </g>
    </g>
    <g id="xtick_12">
     <g id="line2d_47">
      <g>
       <use style="stroke:#000000;stroke-width:0.5;" x="350.6915625" xlink:href="#m93b0483c22" y="178.2"/>
      </g>
     </g>
     <g id="line2d_48">
      <g>
       <use style="stroke:#000000;stroke-width:0.5;" x="350.6915625" xlink:href="#m741efc42ff" y="15.3"/>
      </g>
     </g>
     <g id="text_20">
      <!-- −0.20 -->
      <g transform="translate(336.230625 189.7984375)scale(0.1 -0.1)">
       <use xlink:href="#BitstreamVeraSans-Roman-2212"/>
       <use x="83.7890625" xlink:href="#BitstreamVeraSans-Roman-30"/>
       <use x="147.412109375" xlink:href="#BitstreamVeraSans-Roman-2e"/>
       <use x="179.19921875" xlink:href="#BitstreamVeraSans-Roman-32"/>
       <use x="242.822265625" xlink:href="#BitstreamVeraSans-Roman-30"/>
      </g>
     </g>
    </g>
    <g id="xtick_13">
     <g id="line2d_49">
      <g>
       <use style="stroke:#000000;stroke-width:0.5;" x="381.7996875" xlink:href="#m93b0483c22" y="178.2"/>
      </g>
     </g>
     <g id="line2d_50">
      <g>
       <use style="stroke:#000000;stroke-width:0.5;" x="381.7996875" xlink:href="#m741efc42ff" y="15.3"/>
      </g>
     </g>
     <g id="text_21">
      <!-- −0.15 -->
      <g transform="translate(367.4434375 189.7984375)scale(0.1 -0.1)">
       <use xlink:href="#BitstreamVeraSans-Roman-2212"/>
       <use x="83.7890625" xlink:href="#BitstreamVeraSans-Roman-30"/>
       <use x="147.412109375" xlink:href="#BitstreamVeraSans-Roman-2e"/>
       <use x="179.19921875" xlink:href="#BitstreamVeraSans-Roman-31"/>
       <use x="242.822265625" xlink:href="#BitstreamVeraSans-Roman-35"/>
      </g>
     </g>
    </g>
    <g id="xtick_14">
     <g id="line2d_51">
      <g>
       <use style="stroke:#000000;stroke-width:0.5;" x="412.9078125" xlink:href="#m93b0483c22" y="178.2"/>
      </g>
     </g>
     <g id="line2d_52">
      <g>
       <use style="stroke:#000000;stroke-width:0.5;" x="412.9078125" xlink:href="#m741efc42ff" y="15.3"/>
      </g>
     </g>
     <g id="text_22">
      <!-- −0.10 -->
      <g transform="translate(398.446875 189.7984375)scale(0.1 -0.1)">
       <use xlink:href="#BitstreamVeraSans-Roman-2212"/>
       <use x="83.7890625" xlink:href="#BitstreamVeraSans-Roman-30"/>
       <use x="147.412109375" xlink:href="#BitstreamVeraSans-Roman-2e"/>
       <use x="179.19921875" xlink:href="#BitstreamVeraSans-Roman-31"/>
       <use x="242.822265625" xlink:href="#BitstreamVeraSans-Roman-30"/>
      </g>
     </g>
    </g>
    <g id="text_23">
     <!-- Y component -->
     <defs>
      <path d="
M-0.203125 72.9062
L10.4062 72.9062
L30.6094 42.9219
L50.6875 72.9062
L61.2812 72.9062
L35.5 34.7188
L35.5 0
L25.5938 0
L25.5938 34.7188
z
" id="BitstreamVeraSans-Roman-59"/>
     </defs>
     <g transform="translate(302.3171875 204.4765625)scale(0.1 -0.1)">
      <use xlink:href="#BitstreamVeraSans-Roman-59"/>
      <use x="61.083984375" xlink:href="#BitstreamVeraSans-Roman-20"/>
      <use x="92.87109375" xlink:href="#BitstreamVeraSans-Roman-63"/>
      <use x="147.8515625" xlink:href="#BitstreamVeraSans-Roman-6f"/>
      <use x="209.033203125" xlink:href="#BitstreamVeraSans-Roman-6d"/>
      <use x="306.4453125" xlink:href="#BitstreamVeraSans-Roman-70"/>
      <use x="369.921875" xlink:href="#BitstreamVeraSans-Roman-6f"/>
      <use x="431.103515625" xlink:href="#BitstreamVeraSans-Roman-6e"/>
      <use x="494.482421875" xlink:href="#BitstreamVeraSans-Roman-65"/>
      <use x="556.005859375" xlink:href="#BitstreamVeraSans-Roman-6e"/>
      <use x="619.384765625" xlink:href="#BitstreamVeraSans-Roman-74"/>
     </g>
    </g>
   </g>
   <g id="matplotlib.axis_4">
    <g id="ytick_7">
     <g id="line2d_53">
      <g>
       <use style="stroke:#000000;stroke-width:0.5;" x="257.3671875" xlink:href="#m728421d6d4" y="178.2"/>
      </g>
     </g>
     <g id="line2d_54">
      <g>
       <use style="stroke:#000000;stroke-width:0.5;" x="412.9078125" xlink:href="#mcb0005524f" y="178.2"/>
      </g>
     </g>
     <g id="text_24">
      <!-- 0.0 -->
      <g transform="translate(238.7875 180.959375)scale(0.1 -0.1)">
       <use xlink:href="#BitstreamVeraSans-Roman-30"/>
       <use x="63.623046875" xlink:href="#BitstreamVeraSans-Roman-2e"/>
       <use x="95.41015625" xlink:href="#BitstreamVeraSans-Roman-30"/>
      </g>
     </g>
    </g>
    <g id="ytick_8">
     <g id="line2d_55">
      <g>
       <use style="stroke:#000000;stroke-width:0.5;" x="257.3671875" xlink:href="#m728421d6d4" y="145.62"/>
      </g>
     </g>
     <g id="line2d_56">
      <g>
       <use style="stroke:#000000;stroke-width:0.5;" x="412.9078125" xlink:href="#mcb0005524f" y="145.62"/>
      </g>
     </g>
     <g id="text_25">
      <!-- 0.2 -->
      <g transform="translate(239.125 148.379375)scale(0.1 -0.1)">
       <use xlink:href="#BitstreamVeraSans-Roman-30"/>
       <use x="63.623046875" xlink:href="#BitstreamVeraSans-Roman-2e"/>
       <use x="95.41015625" xlink:href="#BitstreamVeraSans-Roman-32"/>
      </g>
     </g>
    </g>
    <g id="ytick_9">
     <g id="line2d_57">
      <g>
       <use style="stroke:#000000;stroke-width:0.5;" x="257.3671875" xlink:href="#m728421d6d4" y="113.04"/>
      </g>
     </g>
     <g id="line2d_58">
      <g>
       <use style="stroke:#000000;stroke-width:0.5;" x="412.9078125" xlink:href="#mcb0005524f" y="113.04"/>
      </g>
     </g>
     <g id="text_26">
      <!-- 0.4 -->
      <g transform="translate(238.684375 115.799375)scale(0.1 -0.1)">
       <use xlink:href="#BitstreamVeraSans-Roman-30"/>
       <use x="63.623046875" xlink:href="#BitstreamVeraSans-Roman-2e"/>
       <use x="95.41015625" xlink:href="#BitstreamVeraSans-Roman-34"/>
      </g>
     </g>
    </g>
    <g id="ytick_10">
     <g id="line2d_59">
      <g>
       <use style="stroke:#000000;stroke-width:0.5;" x="257.3671875" xlink:href="#m728421d6d4" y="80.46"/>
      </g>
     </g>
     <g id="line2d_60">
      <g>
       <use style="stroke:#000000;stroke-width:0.5;" x="412.9078125" xlink:href="#mcb0005524f" y="80.46"/>
      </g>
     </g>
     <g id="text_27">
      <!-- 0.6 -->
      <g transform="translate(238.753125 83.219375)scale(0.1 -0.1)">
       <use xlink:href="#BitstreamVeraSans-Roman-30"/>
       <use x="63.623046875" xlink:href="#BitstreamVeraSans-Roman-2e"/>
       <use x="95.41015625" xlink:href="#BitstreamVeraSans-Roman-36"/>
      </g>
     </g>
    </g>
    <g id="ytick_11">
     <g id="line2d_61">
      <g>
       <use style="stroke:#000000;stroke-width:0.5;" x="257.3671875" xlink:href="#m728421d6d4" y="47.88"/>
      </g>
     </g>
     <g id="line2d_62">
      <g>
       <use style="stroke:#000000;stroke-width:0.5;" x="412.9078125" xlink:href="#mcb0005524f" y="47.88"/>
      </g>
     </g>
     <g id="text_28">
      <!-- 0.8 -->
      <g transform="translate(238.8078125 50.639375)scale(0.1 -0.1)">
       <use xlink:href="#BitstreamVeraSans-Roman-30"/>
       <use x="63.623046875" xlink:href="#BitstreamVeraSans-Roman-2e"/>
       <use x="95.41015625" xlink:href="#BitstreamVeraSans-Roman-38"/>
      </g>
     </g>
    </g>
    <g id="ytick_12">
     <g id="line2d_63">
      <g>
       <use style="stroke:#000000;stroke-width:0.5;" x="257.3671875" xlink:href="#m728421d6d4" y="15.3"/>
      </g>
     </g>
     <g id="line2d_64">
      <g>
       <use style="stroke:#000000;stroke-width:0.5;" x="412.9078125" xlink:href="#mcb0005524f" y="15.3"/>
      </g>
     </g>
     <g id="text_29">
      <!-- 1.0 -->
      <g transform="translate(239.2265625 18.059375)scale(0.1 -0.1)">
       <use xlink:href="#BitstreamVeraSans-Roman-31"/>
       <use x="63.623046875" xlink:href="#BitstreamVeraSans-Roman-2e"/>
       <use x="95.41015625" xlink:href="#BitstreamVeraSans-Roman-30"/>
      </g>
     </g>
    </g>
    <g id="text_30">
     <!-- Cumulative Distribution -->
     <g transform="translate(231.6046875 155.62109375)rotate(-90.0)scale(0.1 -0.1)">
      <use xlink:href="#BitstreamVeraSans-Roman-43"/>
      <use x="69.82421875" xlink:href="#BitstreamVeraSans-Roman-75"/>
      <use x="133.203125" xlink:href="#BitstreamVeraSans-Roman-6d"/>
      <use x="230.615234375" xlink:href="#BitstreamVeraSans-Roman-75"/>
      <use x="293.994140625" xlink:href="#BitstreamVeraSans-Roman-6c"/>
      <use x="321.77734375" xlink:href="#BitstreamVeraSans-Roman-61"/>
      <use x="383.056640625" xlink:href="#BitstreamVeraSans-Roman-74"/>
      <use x="422.265625" xlink:href="#BitstreamVeraSans-Roman-69"/>
      <use x="450.048828125" xlink:href="#BitstreamVeraSans-Roman-76"/>
      <use x="509.228515625" xlink:href="#BitstreamVeraSans-Roman-65"/>
      <use x="570.751953125" xlink:href="#BitstreamVeraSans-Roman-20"/>
      <use x="602.5390625" xlink:href="#BitstreamVeraSans-Roman-44"/>
      <use x="679.541015625" xlink:href="#BitstreamVeraSans-Roman-69"/>
      <use x="707.32421875" xlink:href="#BitstreamVeraSans-Roman-73"/>
      <use x="759.423828125" xlink:href="#BitstreamVeraSans-Roman-74"/>
      <use x="798.6328125" xlink:href="#BitstreamVeraSans-Roman-72"/>
      <use x="839.74609375" xlink:href="#BitstreamVeraSans-Roman-69"/>
      <use x="867.529296875" xlink:href="#BitstreamVeraSans-Roman-62"/>
      <use x="931.005859375" xlink:href="#BitstreamVeraSans-Roman-75"/>
      <use x="994.384765625" xlink:href="#BitstreamVeraSans-Roman-74"/>
      <use x="1033.59375" xlink:href="#BitstreamVeraSans-Roman-69"/>
      <use x="1061.37695312" xlink:href="#BitstreamVeraSans-Roman-6f"/>
      <use x="1122.55859375" xlink:href="#BitstreamVeraSans-Roman-6e"/>
     </g>
    </g>
   </g>
  </g>
  <g id="axes_3">
   <g id="patch_12">
    <path d="
M471.112 178.2
L626.653 178.2
L626.653 15.3
L471.112 15.3
z
" style="fill:#ffffff;"/>
   </g>
   <g id="line2d_65">
    <path clip-path="url(#p0c4051fb73)" d="
M485.377 178.2
L499.983 178.037
L500.997 177.939
L504.266 177.776
L505.392 177.581
L508.686 177.223
L511.689 176.604
L513.09 176.245
L513.711 176.082
L514.486 175.756
L514.603 175.691
L514.66 175.626
L515.194 175.431
L515.218 175.398
L515.65 175.203
L516.103 175.072
L516.477 174.909
L516.492 174.877
L517.697 174.616
L517.866 174.421
L518.087 174.258
L518.167 174.127
L518.577 173.932
L518.648 173.802
L519.552 173.541
L520.24 173.183
L520.31 173.085
L520.855 172.824
L521.689 172.205
L521.749 172.108
L522.687 171.684
L523.052 171.26
L523.479 171.065
L523.587 170.935
L524.133 170.316
L524.721 169.501
L525.914 168.426
L526.402 167.774
L526.528 167.611
L528.39 165.689
L528.538 165.429
L528.72 165.168
L528.862 164.842
L529.218 164.549
L531.549 161.095
L531.917 160.379
L532.151 160.183
L532.318 159.955
L532.476 159.76
L532.597 159.564
L532.821 159.108
L535.158 154.514
L536.38 151.908
L536.702 151.321
L536.904 150.702
L537.108 150.214
L537.27 149.692
L537.451 149.236
L537.575 149.041
L537.819 148.52
L537.915 148.324
L538.161 147.835
L538.277 147.444
L538.342 147.216
L538.501 146.793
L538.649 146.434
L538.763 145.978
L539.671 143.698
L539.797 143.437
L539.959 142.883
L540.031 142.655
L540.374 141.613
L540.46 141.45
L540.761 140.635
L540.938 139.984
L541.848 137.54
L541.947 137.377
L542.026 136.889
L542.158 136.693
L544.635 128.157
L544.761 127.734
L544.814 127.473
L544.928 127.147
L545.343 126.105
L545.456 125.681
L545.885 124.15
L545.942 123.954
L546.097 123.466
L546.218 123.172
L546.345 122.781
L546.549 121.934
L547.204 119.784
L548.016 116.884
L548.138 116.363
L548.237 116.005
L548.374 115.483
L548.508 115.125
L548.736 114.148
L549.908 109.261
L550.072 108.707
L550.132 108.511
L550.261 107.892
L550.485 107.143
L550.598 106.654
L550.699 106.198
L550.884 105.449
L550.999 104.83
L551.087 104.341
L551.164 104.113
L551.418 103.136
L551.829 101.93
L551.944 101.409
L552.028 101.051
L552.181 100.138
L552.353 99.6496
L552.47 99.1283
L552.619 98.77
L552.732 98.2487
L552.8 98.0532
L553.12 96.75
L553.264 96.3265
L553.362 95.6423
L553.449 95.4468
L553.572 94.9255
L553.763 94.1436
L554.036 92.6775
L554.145 92.1236
L554.277 91.7653
L554.393 91.1788
L554.685 89.7453
L554.79 89.2892
L554.918 88.6702
L555 88.3769
L555.109 88.0511
L557.085 80.5577
L557.193 80.2971
L557.313 79.8736
L557.402 79.6129
L557.55 79.0265
L557.603 78.7984
L557.8 78.1142
L558.118 76.9414
L558.652 74.563
L558.738 74.3024
L558.863 73.4879
L558.926 73.2924
L559.312 71.8915
L559.486 71.2724
L559.617 70.7512
L559.769 70.067
L559.883 69.8389
L560.037 69.3176
L560.183 68.8615
L560.289 68.3402
L560.435 67.8841
L560.585 67.428
L560.69 67.1348
L560.806 66.418
L560.92 65.9945
L561.031 65.5058
L561.166 65.18
L561.35 64.6913
L561.455 64.4632
L561.599 63.8442
L561.857 63.0297
L561.936 62.8342
L562.043 62.4107
L562.118 62.2478
L562.255 61.7265
L562.389 61.4984
L562.447 61.303
L562.705 60.293
L562.796 60.1301
L563.009 59.1201
L563.081 58.892
L563.583 57.654
L563.747 57.1327
L563.839 56.8069
L563.969 56.5463
L564.102 56.1553
L564.474 55.0802
L564.578 54.7218
L564.724 54.2331
L565.035 53.4838
L566.119 49.8348
L566.192 49.6067
L566.35 49.118
L566.591 48.3687
L566.711 48.0755
L567.021 47.2284
L567.116 46.9352
L567.199 46.6745
L567.31 46.3813
L567.363 46.1533
L567.454 45.7623
L567.572 45.5342
L567.7 45.3062
L568.182 44.2962
L568.275 44.1007
L568.35 43.9378
L568.461 43.5794
L568.739 42.9604
L569.136 42.0156
L569.252 41.6898
L569.473 41.2011
L569.529 41.0382
L569.631 40.745
L570.487 39.1486
L570.815 38.3015
L570.893 38.0734
L571.028 37.7476
L571.152 37.5847
L571.355 37.1612
L571.64 36.6399
L571.797 36.3793
L571.891 36.2164
L572.041 35.8906
L572.388 35.3041
L572.543 35.0435
L572.694 34.4896
L572.809 34.3593
L572.917 34.1312
L573.203 33.61
L573.642 32.7629
L573.763 32.5674
L573.905 32.3393
L574.134 32.0135
L574.453 31.2968
L574.699 30.8407
L574.864 30.6126
L574.983 30.2542
L575.134 29.9936
L575.264 29.6352
L575.452 29.342
L575.547 29.1465
L575.664 28.951
L576.625 27.3546
L576.699 27.1917
L576.949 26.8007
L577.217 26.6053
L577.365 26.3446
L578.03 25.465
L578.243 25.2043
L578.455 24.8459
L580.33 22.7934
L580.444 22.6631
L580.903 22.4676
L580.965 22.4024
L581.077 22.2395
L581.605 21.9137
L582.27 21.4576
L582.572 21.2621
L583.241 20.9363
L583.388 20.8386
L583.749 20.6757
L583.783 20.6105
L584.164 20.3499
L584.588 19.8612
L584.927 19.6983
L585.053 19.6006
L585.736 19.2422
L585.988 19.0467
L586.107 18.949
L586.96 18.5906
L587.218 18.4277
L588.09 18.0693
L588.342 18.0041
L588.798 17.8738
L589.923 17.4177
L590.559 17.2548
L590.703 17.1896
L591.996 17.0267
L593.65 16.5055
L595.874 16.1797
L595.899 16.1145
L596.638 15.919
L602.261 15.5281
L613.9 15.3326
L613.9 15.3326" style="fill:none;stroke:#ff0000;stroke-linecap:square;"/>
   </g>
   <g id="line2d_66">
    <path clip-path="url(#p0c4051fb73)" d="
M518.167 178.2
L518.167 15.3" style="fill:none;stroke:#ff0000;stroke-linecap:square;"/>
   </g>
   <g id="line2d_67">
    <path clip-path="url(#p0c4051fb73)" d="
M585.469 178.2
L585.469 15.3" style="fill:none;stroke:#ff0000;stroke-linecap:square;"/>
   </g>
   <g id="line2d_68">
    <path clip-path="url(#p0c4051fb73)" d="
M492.726 178.2
L492.885 178.167
L500.232 178.037
L500.335 178.005
L503.143 177.842
L503.367 177.776
L507.868 177.385
L508.612 177.223
L510.069 177.06
L510.223 176.995
L513.197 176.734
L513.21 176.701
L515.366 176.115
L515.384 176.05
L516.131 175.854
L516.234 175.789
L518.298 175.04
L518.428 174.975
L518.986 174.714
L519.053 174.616
L519.551 174.356
L519.614 174.258
L519.978 174.03
L521.573 173.183
L521.726 173.02
L522.319 172.727
L524.051 171.358
L524.242 171.26
L524.621 171.032
L524.946 170.544
L525.328 170.283
L525.726 169.892
L525.866 169.566
L526.112 169.338
L526.153 169.273
L526.454 169.078
L526.955 168.589
L527.117 168.393
L527.271 168.002
L527.488 167.84
L527.708 167.416
L528.069 166.927
L528.352 166.634
L528.727 166.178
L530.273 163.963
L530.49 163.702
L531.001 162.855
L531.095 162.757
L531.357 162.399
L531.591 161.943
L531.664 161.78
L531.751 161.552
L532.037 161.226
L532.104 161.03
L532.235 160.867
L532.317 160.672
L532.571 160.444
L532.68 160.281
L532.862 159.89
L533.192 159.238
L533.419 158.522
L533.64 158.033
L533.776 157.642
L533.934 157.381
L533.976 157.218
L534.132 157.088
L534.247 156.795
L534.359 156.534
L534.529 156.176
L534.688 155.557
L534.842 155.329
L534.967 155.133
L536.999 150.8
L537.294 150.344
L538.214 147.803
L538.579 146.988
L538.697 146.825
L538.83 146.304
L538.947 146.011
L539.176 145.164
L539.588 143.926
L539.712 143.502
L539.827 143.307
L539.98 142.916
L540.16 142.362
L540.342 141.743
L540.403 141.515
L540.68 140.928
L540.83 140.472
L541.699 137.866
L541.859 137.214
L543.097 134.25
L543.291 133.5
L543.384 133.305
L543.488 132.881
L543.556 132.653
L543.675 132.36
L543.77 132.002
L543.895 131.48
L544.058 130.992
L544.131 130.764
L544.258 130.307
L544.452 129.46
L544.551 129.102
L544.693 128.548
L544.829 128.125
L544.91 127.929
L545.044 127.571
L545.317 126.691
L545.396 126.528
L545.582 125.746
L545.681 125.583
L545.985 124.964
L546.266 123.759
L546.599 122.684
L546.847 121.674
L546.932 121.38
L547.116 120.533
L547.245 119.686
L547.378 119.328
L547.487 118.97
L547.62 118.383
L547.736 118.155
L547.891 117.569
L547.949 117.373
L548.193 116.428
L548.305 116.07
L548.467 115.516
L548.552 115.288
L548.795 114.311
L548.914 113.789
L549.087 113.17
L549.405 112.095
L550.369 108.446
L550.458 108.055
L550.596 107.827
L550.814 106.915
L550.914 106.752
L551.243 105.97
L551.428 105.319
L551.523 105.025
L551.838 103.559
L551.926 103.364
L552.007 103.038
L552.136 102.647
L552.21 102.484
L552.469 101.735
L552.613 101.018
L553.164 99.3238
L553.26 98.6396
L553.339 98.4442
L553.755 96.7826
L553.829 96.5219
L554.052 95.7074
L554.223 95.2187
L554.365 94.4694
L554.473 94.2413
L554.579 93.8178
L554.731 93.3617
L554.853 92.8078
L555.483 90.2992
L555.545 90.1037
L555.672 89.7779
L555.894 89.0937
L556.017 88.8005
L556.719 85.7705
L556.868 85.3796
L556.938 85.1189
L557.054 84.5651
L557.168 84.2719
L557.278 83.718
L557.538 82.6429
L557.676 82.089
L557.729 81.8935
L557.842 81.4048
L558.01 80.6555
L558.136 80.1994
L558.306 79.6455
L558.786 77.4626
L558.862 77.202
L559.197 75.9965
L559.525 75.0843
L559.668 74.4979
L559.768 74.0743
L560.448 71.7937
L560.61 71.1095
L560.822 70.5557
L560.986 70.1321
L561.08 69.8063
L561.214 69.2851
L561.424 68.6009
L562.196 65.799
L562.273 65.6361
L562.436 65.1148
L562.988 63.7465
L563.144 62.9971
L563.211 62.8016
L563.412 61.9871
L564.814 56.8721
L564.958 56.7418
L566.069 53.1254
L566.179 52.9299
L566.816 51.2032
L566.973 50.8774
L567.324 49.5742
L569.657 42.6346
L569.974 42.1133
L570.12 41.8853
L570.225 41.4943
L570.576 40.6798
L570.689 40.4518
L570.807 40.126
L571.019 39.7024
L571.213 39.2463
L571.458 38.7902
L571.583 38.4318
L571.795 37.9105
L571.91 37.5521
L572.058 37.2589
L572.171 36.9983
L572.437 36.4444
L572.534 36.0535
L572.759 35.5322
L572.858 35.2064
L573.274 34.457
L573.497 34.0009
L573.586 33.7403
L573.666 33.61
L573.886 33.3819
L574.064 32.9258
L574.236 32.6326
L574.352 32.4045
L574.868 31.2968
L575.192 31.1013
L576.79 28.8859
L576.91 28.5275
L577.013 28.332
L577.083 28.1691
L577.149 28.0062
L577.396 27.7456
L577.58 27.4198
L578.018 26.6378
L578.129 26.5075
L578.648 26.084
L578.721 25.9862
L578.905 25.7908
L579.296 25.3346
L579.453 25.2043
L579.534 25.1066
L579.957 24.7482
L580.024 24.5527
L580.394 24.2595
L580.778 23.8685
L581.004 23.6405
L581.317 23.3473
L581.745 22.8911
L582.415 22.2395
L582.729 22.0115
L583.043 21.6205
L583.287 21.425
L583.546 21.2296
L583.84 21.0015
L584.909 20.2847
L585.136 20.2196
L585.515 20.0567
L586.209 19.568
L586.584 19.3725
L586.929 19.1119
L587.294 18.9164
L588.859 18.4928
L589.014 18.3625
L589.717 18.0041
L590.304 17.8738
L590.308 17.8087
L590.943 17.6458
L591.868 17.1896
L592.605 17.0267
L593.284 16.8638
L593.738 16.6032
L595.938 16.4403
L598.076 16.1471
L598.11 16.1145
L602.637 15.4955
L613.635 15.3326
L613.635 15.3326" style="fill:none;stroke:#0000ff;stroke-linecap:square;"/>
   </g>
   <g id="line2d_69">
    <path clip-path="url(#p0c4051fb73)" d="
M519.828 178.2
L519.828 15.3" style="fill:none;stroke:#0000ff;stroke-dasharray:6.000000,6.000000;stroke-dashoffset:0.0;"/>
   </g>
   <g id="line2d_70">
    <path clip-path="url(#p0c4051fb73)" d="
M586.584 178.2
L586.584 15.3" style="fill:none;stroke:#0000ff;stroke-dasharray:6.000000,6.000000;stroke-dashoffset:0.0;"/>
   </g>
   <g id="patch_13">
    <path d="
M471.112 15.3
L626.653 15.3" style="fill:none;stroke:#000000;stroke-linecap:square;stroke-linejoin:miter;"/>
   </g>
   <g id="patch_14">
    <path d="
M626.653 178.2
L626.653 15.3" style="fill:none;stroke:#000000;stroke-linecap:square;stroke-linejoin:miter;"/>
   </g>
   <g id="patch_15">
    <path d="
M471.112 178.2
L626.653 178.2" style="fill:none;stroke:#000000;stroke-linecap:square;stroke-linejoin:miter;"/>
   </g>
   <g id="patch_16">
    <path d="
M471.112 178.2
L471.112 15.3" style="fill:none;stroke:#000000;stroke-linecap:square;stroke-linejoin:miter;"/>
   </g>
   <g id="matplotlib.axis_5">
    <g id="xtick_15">
     <g id="line2d_71">
      <g>
       <use style="stroke:#000000;stroke-width:0.5;" x="471.1125" xlink:href="#m93b0483c22" y="178.2"/>
      </g>
     </g>
     <g id="line2d_72">
      <g>
       <use style="stroke:#000000;stroke-width:0.5;" x="471.1125" xlink:href="#m741efc42ff" y="15.3"/>
      </g>
     </g>
     <g id="text_31">
      <!-- 0.60 -->
      <g transform="translate(460.64140625 189.7984375)scale(0.1 -0.1)">
       <use xlink:href="#BitstreamVeraSans-Roman-30"/>
       <use x="63.623046875" xlink:href="#BitstreamVeraSans-Roman-2e"/>
       <use x="95.41015625" xlink:href="#BitstreamVeraSans-Roman-36"/>
       <use x="159.033203125" xlink:href="#BitstreamVeraSans-Roman-30"/>
      </g>
     </g>
    </g>
    <g id="xtick_16">
     <g id="line2d_73">
      <g>
       <use style="stroke:#000000;stroke-width:0.5;" x="490.555078125" xlink:href="#m93b0483c22" y="178.2"/>
      </g>
     </g>
     <g id="line2d_74">
      <g>
       <use style="stroke:#000000;stroke-width:0.5;" x="490.555078125" xlink:href="#m741efc42ff" y="15.3"/>
      </g>
     </g>
     <g id="text_32">
      <!-- 0.62 -->
      <g transform="translate(480.252734375 189.7984375)scale(0.1 -0.1)">
       <use xlink:href="#BitstreamVeraSans-Roman-30"/>
       <use x="63.623046875" xlink:href="#BitstreamVeraSans-Roman-2e"/>
       <use x="95.41015625" xlink:href="#BitstreamVeraSans-Roman-36"/>
       <use x="159.033203125" xlink:href="#BitstreamVeraSans-Roman-32"/>
      </g>
     </g>
    </g>
    <g id="xtick_17">
     <g id="line2d_75">
      <g>
       <use style="stroke:#000000;stroke-width:0.5;" x="509.99765625" xlink:href="#m93b0483c22" y="178.2"/>
      </g>
     </g>
     <g id="line2d_76">
      <g>
       <use style="stroke:#000000;stroke-width:0.5;" x="509.99765625" xlink:href="#m741efc42ff" y="15.3"/>
      </g>
     </g>
     <g id="text_33">
      <!-- 0.64 -->
      <g transform="translate(499.475 189.7984375)scale(0.1 -0.1)">
       <use xlink:href="#BitstreamVeraSans-Roman-30"/>
       <use x="63.623046875" xlink:href="#BitstreamVeraSans-Roman-2e"/>
       <use x="95.41015625" xlink:href="#BitstreamVeraSans-Roman-36"/>
       <use x="159.033203125" xlink:href="#BitstreamVeraSans-Roman-34"/>
      </g>
     </g>
    </g>
    <g id="xtick_18">
     <g id="line2d_77">
      <g>
       <use style="stroke:#000000;stroke-width:0.5;" x="529.440234375" xlink:href="#m93b0483c22" y="178.2"/>
      </g>
     </g>
     <g id="line2d_78">
      <g>
       <use style="stroke:#000000;stroke-width:0.5;" x="529.440234375" xlink:href="#m741efc42ff" y="15.3"/>
      </g>
     </g>
     <g id="text_34">
      <!-- 0.66 -->
      <g transform="translate(518.951953125 189.7984375)scale(0.1 -0.1)">
       <use xlink:href="#BitstreamVeraSans-Roman-30"/>
       <use x="63.623046875" xlink:href="#BitstreamVeraSans-Roman-2e"/>
       <use x="95.41015625" xlink:href="#BitstreamVeraSans-Roman-36"/>
       <use x="159.033203125" xlink:href="#BitstreamVeraSans-Roman-36"/>
      </g>
     </g>
    </g>
    <g id="xtick_19">
     <g id="line2d_79">
      <g>
       <use style="stroke:#000000;stroke-width:0.5;" x="548.8828125" xlink:href="#m93b0483c22" y="178.2"/>
      </g>
     </g>
     <g id="line2d_80">
      <g>
       <use style="stroke:#000000;stroke-width:0.5;" x="548.8828125" xlink:href="#m741efc42ff" y="15.3"/>
      </g>
     </g>
     <g id="text_35">
      <!-- 0.68 -->
      <g transform="translate(538.421875 189.7984375)scale(0.1 -0.1)">
       <use xlink:href="#BitstreamVeraSans-Roman-30"/>
       <use x="63.623046875" xlink:href="#BitstreamVeraSans-Roman-2e"/>
       <use x="95.41015625" xlink:href="#BitstreamVeraSans-Roman-36"/>
       <use x="159.033203125" xlink:href="#BitstreamVeraSans-Roman-38"/>
      </g>
     </g>
    </g>
    <g id="xtick_20">
     <g id="line2d_81">
      <g>
       <use style="stroke:#000000;stroke-width:0.5;" x="568.325390625" xlink:href="#m93b0483c22" y="178.2"/>
      </g>
     </g>
     <g id="line2d_82">
      <g>
       <use style="stroke:#000000;stroke-width:0.5;" x="568.325390625" xlink:href="#m741efc42ff" y="15.3"/>
      </g>
     </g>
     <g id="text_36">
      <!-- 0.70 -->
      <g transform="translate(557.854296875 189.7984375)scale(0.1 -0.1)">
       <use xlink:href="#BitstreamVeraSans-Roman-30"/>
       <use x="63.623046875" xlink:href="#BitstreamVeraSans-Roman-2e"/>
       <use x="95.41015625" xlink:href="#BitstreamVeraSans-Roman-37"/>
       <use x="159.033203125" xlink:href="#BitstreamVeraSans-Roman-30"/>
      </g>
     </g>
    </g>
    <g id="xtick_21">
     <g id="line2d_83">
      <g>
       <use style="stroke:#000000;stroke-width:0.5;" x="587.76796875" xlink:href="#m93b0483c22" y="178.2"/>
      </g>
     </g>
     <g id="line2d_84">
      <g>
       <use style="stroke:#000000;stroke-width:0.5;" x="587.76796875" xlink:href="#m741efc42ff" y="15.3"/>
      </g>
     </g>
     <g id="text_37">
      <!-- 0.72 -->
      <g transform="translate(577.465625 189.7984375)scale(0.1 -0.1)">
       <use xlink:href="#BitstreamVeraSans-Roman-30"/>
       <use x="63.623046875" xlink:href="#BitstreamVeraSans-Roman-2e"/>
       <use x="95.41015625" xlink:href="#BitstreamVeraSans-Roman-37"/>
       <use x="159.033203125" xlink:href="#BitstreamVeraSans-Roman-32"/>
      </g>
     </g>
    </g>
    <g id="xtick_22">
     <g id="line2d_85">
      <g>
       <use style="stroke:#000000;stroke-width:0.5;" x="607.210546875" xlink:href="#m93b0483c22" y="178.2"/>
      </g>
     </g>
     <g id="line2d_86">
      <g>
       <use style="stroke:#000000;stroke-width:0.5;" x="607.210546875" xlink:href="#m741efc42ff" y="15.3"/>
      </g>
     </g>
     <g id="text_38">
      <!-- 0.74 -->
      <g transform="translate(596.687890625 189.7984375)scale(0.1 -0.1)">
       <use xlink:href="#BitstreamVeraSans-Roman-30"/>
       <use x="63.623046875" xlink:href="#BitstreamVeraSans-Roman-2e"/>
       <use x="95.41015625" xlink:href="#BitstreamVeraSans-Roman-37"/>
       <use x="159.033203125" xlink:href="#BitstreamVeraSans-Roman-34"/>
      </g>
     </g>
    </g>
    <g id="xtick_23">
     <g id="line2d_87">
      <g>
       <use style="stroke:#000000;stroke-width:0.5;" x="626.653125" xlink:href="#m93b0483c22" y="178.2"/>
      </g>
     </g>
     <g id="line2d_88">
      <g>
       <use style="stroke:#000000;stroke-width:0.5;" x="626.653125" xlink:href="#m741efc42ff" y="15.3"/>
      </g>
     </g>
     <g id="text_39">
      <!-- 0.76 -->
      <g transform="translate(616.16484375 189.7984375)scale(0.1 -0.1)">
       <use xlink:href="#BitstreamVeraSans-Roman-30"/>
       <use x="63.623046875" xlink:href="#BitstreamVeraSans-Roman-2e"/>
       <use x="95.41015625" xlink:href="#BitstreamVeraSans-Roman-37"/>
       <use x="159.033203125" xlink:href="#BitstreamVeraSans-Roman-36"/>
      </g>
     </g>
    </g>
    <g id="text_40">
     <!-- Z component -->
     <defs>
      <path d="
M5.60938 72.9062
L62.8906 72.9062
L62.8906 65.375
L16.7969 8.29688
L64.0156 8.29688
L64.0156 0
L4.5 0
L4.5 7.51562
L50.5938 64.5938
L5.60938 64.5938
z
" id="BitstreamVeraSans-Roman-5a"/>
     </defs>
     <g transform="translate(515.7015625 204.4765625)scale(0.1 -0.1)">
      <use xlink:href="#BitstreamVeraSans-Roman-5a"/>
      <use x="68.505859375" xlink:href="#BitstreamVeraSans-Roman-20"/>
      <use x="100.29296875" xlink:href="#BitstreamVeraSans-Roman-63"/>
      <use x="155.2734375" xlink:href="#BitstreamVeraSans-Roman-6f"/>
      <use x="216.455078125" xlink:href="#BitstreamVeraSans-Roman-6d"/>
      <use x="313.8671875" xlink:href="#BitstreamVeraSans-Roman-70"/>
      <use x="377.34375" xlink:href="#BitstreamVeraSans-Roman-6f"/>
      <use x="438.525390625" xlink:href="#BitstreamVeraSans-Roman-6e"/>
      <use x="501.904296875" xlink:href="#BitstreamVeraSans-Roman-65"/>
      <use x="563.427734375" xlink:href="#BitstreamVeraSans-Roman-6e"/>
      <use x="626.806640625" xlink:href="#BitstreamVeraSans-Roman-74"/>
     </g>
    </g>
   </g>
   <g id="matplotlib.axis_6">
    <g id="ytick_13">
     <g id="line2d_89">
      <g>
       <use style="stroke:#000000;stroke-width:0.5;" x="471.1125" xlink:href="#m728421d6d4" y="178.2"/>
      </g>
     </g>
     <g id="line2d_90">
      <g>
       <use style="stroke:#000000;stroke-width:0.5;" x="626.653125" xlink:href="#mcb0005524f" y="178.2"/>
      </g>
     </g>
     <g id="text_41">
      <!-- 0.0 -->
      <g transform="translate(452.5328125 180.959375)scale(0.1 -0.1)">
       <use xlink:href="#BitstreamVeraSans-Roman-30"/>
       <use x="63.623046875" xlink:href="#BitstreamVeraSans-Roman-2e"/>
       <use x="95.41015625" xlink:href="#BitstreamVeraSans-Roman-30"/>
      </g>
     </g>
    </g>
    <g id="ytick_14">
     <g id="line2d_91">
      <g>
       <use style="stroke:#000000;stroke-width:0.5;" x="471.1125" xlink:href="#m728421d6d4" y="145.62"/>
      </g>
     </g>
     <g id="line2d_92">
      <g>
       <use style="stroke:#000000;stroke-width:0.5;" x="626.653125" xlink:href="#mcb0005524f" y="145.62"/>
      </g>
     </g>
     <g id="text_42">
      <!-- 0.2 -->
      <g transform="translate(452.8703125 148.379375)scale(0.1 -0.1)">
       <use xlink:href="#BitstreamVeraSans-Roman-30"/>
       <use x="63.623046875" xlink:href="#BitstreamVeraSans-Roman-2e"/>
       <use x="95.41015625" xlink:href="#BitstreamVeraSans-Roman-32"/>
      </g>
     </g>
    </g>
    <g id="ytick_15">
     <g id="line2d_93">
      <g>
       <use style="stroke:#000000;stroke-width:0.5;" x="471.1125" xlink:href="#m728421d6d4" y="113.04"/>
      </g>
     </g>
     <g id="line2d_94">
      <g>
       <use style="stroke:#000000;stroke-width:0.5;" x="626.653125" xlink:href="#mcb0005524f" y="113.04"/>
      </g>
     </g>
     <g id="text_43">
      <!-- 0.4 -->
      <g transform="translate(452.4296875 115.799375)scale(0.1 -0.1)">
       <use xlink:href="#BitstreamVeraSans-Roman-30"/>
       <use x="63.623046875" xlink:href="#BitstreamVeraSans-Roman-2e"/>
       <use x="95.41015625" xlink:href="#BitstreamVeraSans-Roman-34"/>
      </g>
     </g>
    </g>
    <g id="ytick_16">
     <g id="line2d_95">
      <g>
       <use style="stroke:#000000;stroke-width:0.5;" x="471.1125" xlink:href="#m728421d6d4" y="80.46"/>
      </g>
     </g>
     <g id="line2d_96">
      <g>
       <use style="stroke:#000000;stroke-width:0.5;" x="626.653125" xlink:href="#mcb0005524f" y="80.46"/>
      </g>
     </g>
     <g id="text_44">
      <!-- 0.6 -->
      <g transform="translate(452.4984375 83.219375)scale(0.1 -0.1)">
       <use xlink:href="#BitstreamVeraSans-Roman-30"/>
       <use x="63.623046875" xlink:href="#BitstreamVeraSans-Roman-2e"/>
       <use x="95.41015625" xlink:href="#BitstreamVeraSans-Roman-36"/>
      </g>
     </g>
    </g>
    <g id="ytick_17">
     <g id="line2d_97">
      <g>
       <use style="stroke:#000000;stroke-width:0.5;" x="471.1125" xlink:href="#m728421d6d4" y="47.88"/>
      </g>
     </g>
     <g id="line2d_98">
      <g>
       <use style="stroke:#000000;stroke-width:0.5;" x="626.653125" xlink:href="#mcb0005524f" y="47.88"/>
      </g>
     </g>
     <g id="text_45">
      <!-- 0.8 -->
      <g transform="translate(452.553125 50.639375)scale(0.1 -0.1)">
       <use xlink:href="#BitstreamVeraSans-Roman-30"/>
       <use x="63.623046875" xlink:href="#BitstreamVeraSans-Roman-2e"/>
       <use x="95.41015625" xlink:href="#BitstreamVeraSans-Roman-38"/>
      </g>
     </g>
    </g>
    <g id="ytick_18">
     <g id="line2d_99">
      <g>
       <use style="stroke:#000000;stroke-width:0.5;" x="471.1125" xlink:href="#m728421d6d4" y="15.3"/>
      </g>
     </g>
     <g id="line2d_100">
      <g>
       <use style="stroke:#000000;stroke-width:0.5;" x="626.653125" xlink:href="#mcb0005524f" y="15.3"/>
      </g>
     </g>
     <g id="text_46">
      <!-- 1.0 -->
      <g transform="translate(452.971875 18.059375)scale(0.1 -0.1)">
       <use xlink:href="#BitstreamVeraSans-Roman-31"/>
       <use x="63.623046875" xlink:href="#BitstreamVeraSans-Roman-2e"/>
       <use x="95.41015625" xlink:href="#BitstreamVeraSans-Roman-30"/>
      </g>
     </g>
    </g>
    <g id="text_47">
     <!-- Cumulative Distribution -->
     <g transform="translate(445.35 155.62109375)rotate(-90.0)scale(0.1 -0.1)">
      <use xlink:href="#BitstreamVeraSans-Roman-43"/>
      <use x="69.82421875" xlink:href="#BitstreamVeraSans-Roman-75"/>
      <use x="133.203125" xlink:href="#BitstreamVeraSans-Roman-6d"/>
      <use x="230.615234375" xlink:href="#BitstreamVeraSans-Roman-75"/>
      <use x="293.994140625" xlink:href="#BitstreamVeraSans-Roman-6c"/>
      <use x="321.77734375" xlink:href="#BitstreamVeraSans-Roman-61"/>
      <use x="383.056640625" xlink:href="#BitstreamVeraSans-Roman-74"/>
      <use x="422.265625" xlink:href="#BitstreamVeraSans-Roman-69"/>
      <use x="450.048828125" xlink:href="#BitstreamVeraSans-Roman-76"/>
      <use x="509.228515625" xlink:href="#BitstreamVeraSans-Roman-65"/>
      <use x="570.751953125" xlink:href="#BitstreamVeraSans-Roman-20"/>
      <use x="602.5390625" xlink:href="#BitstreamVeraSans-Roman-44"/>
      <use x="679.541015625" xlink:href="#BitstreamVeraSans-Roman-69"/>
      <use x="707.32421875" xlink:href="#BitstreamVeraSans-Roman-73"/>
      <use x="759.423828125" xlink:href="#BitstreamVeraSans-Roman-74"/>
      <use x="798.6328125" xlink:href="#BitstreamVeraSans-Roman-72"/>
      <use x="839.74609375" xlink:href="#BitstreamVeraSans-Roman-69"/>
      <use x="867.529296875" xlink:href="#BitstreamVeraSans-Roman-62"/>
      <use x="931.005859375" xlink:href="#BitstreamVeraSans-Roman-75"/>
      <use x="994.384765625" xlink:href="#BitstreamVeraSans-Roman-74"/>
      <use x="1033.59375" xlink:href="#BitstreamVeraSans-Roman-69"/>
      <use x="1061.37695312" xlink:href="#BitstreamVeraSans-Roman-6f"/>
      <use x="1122.55859375" xlink:href="#BitstreamVeraSans-Roman-6e"/>
     </g>
    </g>
   </g>
  </g>
 </g>
 <defs>
  <clipPath id="p44efea1c73">
   <rect height="162.9" width="155.540625" x="257.3671875" y="15.3"/>
  </clipPath>
  <clipPath id="p6c55c840d0">
   <rect height="162.9" width="155.540625" x="43.621875" y="15.3"/>
  </clipPath>
  <clipPath id="p0c4051fb73">
   <rect height="162.9" width="155.540625" x="471.1125" y="15.3"/>
  </clipPath>
 </defs>
</svg>
