<?xml version="1.0" encoding="utf-8" standalone="no"?>
<!DOCTYPE svg PUBLIC "-//W3C//DTD SVG 1.1//EN"
  "http://www.w3.org/Graphics/SVG/1.1/DTD/svg11.dtd">
<!-- Created with matplotlib (http://matplotlib.org/) -->
<svg height="165pt" version="1.1" viewBox="0 0 504 165" width="504pt" xmlns="http://www.w3.org/2000/svg" xmlns:xlink="http://www.w3.org/1999/xlink">
 <defs>
  <style type="text/css">
*{stroke-linecap:butt;stroke-linejoin:round;stroke-miterlimit:100000;}
  </style>
 </defs>
 <g id="figure_1">
  <g id="patch_1">
   <path d="M 0 165.6 
L 504 165.6 
L 504 0 
L 0 0 
z
" style="fill:#ffffff;"/>
  </g>
  <g id="axes_1">
   <g id="patch_2">
    <path d="M 44.8875 127.8 
L 159.0375 127.8 
L 159.0375 15.3 
L 44.8875 15.3 
z
" style="fill:#ffffff;"/>
   </g>
   <g id="line2d_1">
    <path clip-path="url(#p52e8e11466)" d="M 61.803887 127.8 
L 62.183178 127.7775 
L 67.242962 127.6425 
L 69.164998 127.4625 
L 71.399333 126.945 
L 71.461078 126.9 
L 75.76683 125.01 
L 75.904157 124.8975 
L 76.319758 124.7175 
L 76.483542 124.47 
L 76.738746 124.29 
L 76.850985 124.1325 
L 77.042808 123.975 
L 77.500605 123.48 
L 77.604599 123.2325 
L 77.874979 123.075 
L 77.965081 122.94 
L 78.165604 122.805 
L 78.711199 122.1075 
L 79.072405 121.635 
L 79.179875 121.4775 
L 79.369203 121.14 
L 79.483784 120.9375 
L 80.804539 118.6875 
L 80.943692 118.395 
L 81.290472 117.6525 
L 81.674402 116.685 
L 81.854323 116.46 
L 82.164811 115.8525 
L 82.290855 115.695 
L 82.527023 114.975 
L 82.647217 114.6825 
L 82.785589 114.5025 
L 82.952149 113.895 
L 83.078951 113.5575 
L 83.188811 113.1075 
L 83.326156 112.86 
L 83.455814 112.5 
L 83.553827 112.2525 
L 83.712285 111.735 
L 83.818658 111.5325 
L 84.210784 110.52 
L 84.306734 110.34 
L 84.426821 109.8 
L 87.760184 97.0425 
L 87.884868 96.4125 
L 87.93934 96.1875 
L 88.214275 94.8375 
L 88.331168 94.41 
L 88.563446 93.375 
L 88.974612 91.8 
L 89.128248 91.17 
L 89.421676 90.0225 
L 89.539827 89.5275 
L 89.655667 88.9425 
L 89.768435 88.4925 
L 89.890417 87.93 
L 89.938167 87.6825 
L 90.053585 87.12 
L 90.601088 84.825 
L 90.740011 84.1275 
L 91.942674 78.2775 
L 92.059553 77.8275 
L 92.259467 76.9725 
L 92.364304 76.59 
L 92.490615 75.87 
L 92.553937 75.555 
L 92.696132 74.79 
L 92.729983 74.52 
L 92.843729 73.8 
L 92.954867 73.2825 
L 93.197792 71.64 
L 93.316847 71.1225 
L 93.942646 68.0625 
L 94.018913 67.7475 
L 94.346467 65.835 
L 94.435635 65.52 
L 94.625878 64.62 
L 95.053112 63.18 
L 95.290586 62.01 
L 95.3824 61.605 
L 95.552459 60.705 
L 96.958321 53.9325 
L 97.041989 53.4825 
L 97.509739 51.435 
L 97.567051 51.165 
L 97.82181 49.95 
L 97.960876 49.4775 
L 98.067949 48.96 
L 98.303409 47.9925 
L 98.49038 47.205 
L 98.970047 45.0675 
L 99.022301 44.7975 
L 99.214144 44.235 
L 99.291353 44.01 
L 99.500531 43.065 
L 99.570603 42.8175 
L 99.681654 42.3225 
L 99.969289 40.8375 
L 100.078482 40.275 
L 101.972405 34.245 
L 102.031 34.02 
L 102.15648 33.6375 
L 102.38987 33.1875 
L 102.527079 32.535 
L 104.70275 26.3925 
L 104.870399 26.1225 
L 104.97925 25.8975 
L 105.503782 24.75 
L 105.7135 24.21 
L 105.897965 24.0075 
L 106.075554 23.6925 
L 106.183617 23.49 
L 106.359734 23.1525 
L 106.536024 22.9725 
L 106.739987 22.7025 
L 106.822395 22.4775 
L 107.124406 21.96 
L 107.277942 21.735 
L 107.427223 21.555 
L 107.549979 21.3975 
L 107.669839 21.195 
L 107.95899 20.97 
L 108.168851 20.6775 
L 108.456748 20.385 
L 108.53939 20.25 
L 108.67426 20.0475 
L 108.78673 19.9125 
L 109.021056 19.71 
L 109.129446 19.5525 
L 109.307812 19.3275 
L 109.50826 19.17 
L 110.376955 18.54 
L 110.561399 18.3825 
L 110.935407 18.135 
L 111.125916 17.9775 
L 111.350801 17.7525 
L 111.747252 17.595 
L 111.963647 17.5275 
L 114.325552 16.5375 
L 115.350118 16.4025 
L 115.642855 16.2675 
L 116.199816 16.0875 
L 116.341795 16.0425 
L 116.522839 15.975 
L 117.320729 15.8175 
L 118.0936 15.705 
L 119.39214 15.48 
L 119.425762 15.435 
L 121.48422 15.3675 
L 125.218247 15.3225 
L 125.218247 15.3225 
" style="fill:none;stroke:#ff0000;stroke-linecap:square;"/>
   </g>
   <g id="line2d_2">
    <path clip-path="url(#p52e8e11466)" d="M 75.771616 127.8 
L 75.771616 15.3 
" style="fill:none;stroke:#ff0000;stroke-linecap:square;"/>
   </g>
   <g id="line2d_3">
    <path clip-path="url(#p52e8e11466)" d="M 111.033621 127.8 
L 111.033621 15.3 
" style="fill:none;stroke:#ff0000;stroke-linecap:square;"/>
   </g>
   <g id="line2d_4">
    <path clip-path="url(#p52e8e11466)" d="M 70.590819 127.8 
L 76.722118 127.5975 
L 80.344594 127.1025 
L 80.71916 126.9225 
L 81.816735 126.6975 
L 82.998311 126.27 
L 83.082036 126.18 
L 83.649723 126.045 
L 84.02541 125.91 
L 84.905017 125.595 
L 85.295566 125.325 
L 86.00679 125.055 
L 86.162618 124.875 
L 86.44409 124.7175 
L 87.723911 123.5925 
L 87.946979 123.435 
L 88.41806 122.85 
L 88.556531 122.58 
L 90.025498 120.825 
L 90.155152 120.5325 
L 90.444702 120.195 
L 90.601655 119.9475 
L 90.960793 119.52 
L 94.321409 113.04 
L 94.495031 112.6125 
L 94.612178 112.4325 
L 94.755213 112.0275 
L 94.929694 111.465 
L 95.014594 111.195 
L 95.156759 110.6775 
L 95.241403 110.34 
L 95.354406 110.0475 
L 95.605806 109.575 
L 95.710282 109.305 
L 95.925088 108.54 
L 98.320438 100.5075 
L 98.435669 100.2375 
L 98.749949 99 
L 98.874181 98.505 
L 98.952272 98.3025 
L 99.464442 96.57 
L 99.605075 96.03 
L 99.692964 95.67 
L 99.812639 94.9725 
L 99.883031 94.725 
L 100.141815 93.7575 
L 100.197431 93.5775 
L 100.281049 93.1275 
L 100.413109 92.79 
L 101.154243 89.3025 
L 101.282518 88.74 
L 101.351336 88.47 
L 101.485679 88.065 
L 101.605042 87.5925 
L 101.847432 86.4675 
L 101.98678 86.0625 
L 102.059151 85.6575 
L 102.191837 84.825 
L 105.125436 71.055 
L 105.311183 70.245 
L 105.393556 70.065 
L 105.4907 69.57 
L 105.547923 69.39 
L 106.249893 66.015 
L 106.306214 65.835 
L 106.440345 65.16 
L 106.493102 64.845 
L 106.624657 64.1475 
L 106.771388 63.495 
L 106.907991 62.685 
L 107.019555 62.19 
L 107.148812 61.515 
L 107.659317 59.49 
L 107.773773 58.9275 
L 107.971309 57.915 
L 108.036254 57.6675 
L 108.250409 56.9025 
L 109.122402 53.5275 
L 109.233442 53.01 
L 109.396136 52.2 
L 109.459674 51.8625 
L 109.658103 51.0525 
L 109.723983 50.6925 
L 109.82966 50.3775 
L 110.301721 48.4425 
L 110.555619 47.295 
L 110.671481 46.71 
L 110.850468 45.99 
L 110.916951 45.6975 
L 111.133584 45.1125 
L 111.18716 44.9325 
L 111.358427 43.9425 
L 111.75062 42.2325 
L 112.659682 38.745 
L 112.762942 38.52 
L 112.852092 38.16 
L 113.371723 36.09 
L 113.515041 35.6625 
L 113.625266 35.3475 
L 113.774458 34.8975 
L 113.878059 34.5375 
L 114.056823 34.1775 
L 114.174253 33.8625 
L 114.253604 33.6825 
L 114.690618 32.31 
L 114.792831 32.085 
L 114.938631 31.7925 
L 115.582869 29.7675 
L 115.68311 29.6325 
L 116.458129 27.4275 
L 116.620591 27 
L 116.840861 26.595 
L 119.489084 22.005 
L 119.610233 21.87 
L 119.692428 21.7575 
L 119.795485 21.6 
L 119.902722 21.465 
L 120.093699 21.2175 
L 120.417136 21.0375 
L 120.787764 20.4525 
L 120.994672 20.295 
L 121.111527 20.16 
L 121.379625 19.98 
L 121.510015 19.89 
L 121.6706 19.71 
L 121.905281 19.4625 
L 122.0159 19.2825 
L 122.143946 19.1025 
L 122.643629 18.8325 
L 122.812658 18.6075 
L 123.190809 18.45 
L 123.569902 18.09 
L 124.048271 17.82 
L 124.105367 17.7525 
L 124.428151 17.595 
L 124.717024 17.37 
L 124.760104 17.28 
L 125.268195 17.1 
L 125.3632 17.055 
L 128.937752 15.7725 
L 133.562361 15.5025 
L 133.5643 15.48 
L 136.449515 15.345 
L 139.055445 15.3225 
L 139.055445 15.3225 
" style="fill:none;stroke:#0000ff;stroke-linecap:square;"/>
   </g>
   <g id="line2d_5">
    <path clip-path="url(#p52e8e11466)" d="M 86.087125 127.8 
L 86.087125 15.3 
" style="fill:none;stroke:#0000ff;stroke-dasharray:6.000000,6.000000;stroke-dashoffset:0.0;"/>
   </g>
   <g id="line2d_6">
    <path clip-path="url(#p52e8e11466)" d="M 123.467712 127.8 
L 123.467712 15.3 
" style="fill:none;stroke:#0000ff;stroke-dasharray:6.000000,6.000000;stroke-dashoffset:0.0;"/>
   </g>
   <g id="patch_3">
    <path d="M 44.8875 15.3 
L 159.0375 15.3 
" style="fill:none;stroke:#000000;stroke-linecap:square;stroke-linejoin:miter;"/>
   </g>
   <g id="patch_4">
    <path d="M 159.0375 127.8 
L 159.0375 15.3 
" style="fill:none;stroke:#000000;stroke-linecap:square;stroke-linejoin:miter;"/>
   </g>
   <g id="patch_5">
    <path d="M 44.8875 127.8 
L 159.0375 127.8 
" style="fill:none;stroke:#000000;stroke-linecap:square;stroke-linejoin:miter;"/>
   </g>
   <g id="patch_6">
    <path d="M 44.8875 127.8 
L 44.8875 15.3 
" style="fill:none;stroke:#000000;stroke-linecap:square;stroke-linejoin:miter;"/>
   </g>
   <g id="matplotlib.axis_1">
    <g id="xtick_1">
     <g id="line2d_7">
      <defs>
       <path d="M 0 0 
L 0 -4 
" id="mc00ef43080" style="stroke:#000000;stroke-width:0.5;"/>
      </defs>
      <g>
       <use style="stroke:#000000;stroke-width:0.5;" x="44.8875" xlink:href="#mc00ef43080" y="127.8"/>
      </g>
     </g>
     <g id="line2d_8">
      <defs>
       <path d="M 0 0 
L 0 4 
" id="m6d9da7a04f" style="stroke:#000000;stroke-width:0.5;"/>
      </defs>
      <g>
       <use style="stroke:#000000;stroke-width:0.5;" x="44.8875" xlink:href="#m6d9da7a04f" y="15.3"/>
      </g>
     </g>
     <g id="text_1">
      <!-- 0.4 -->
      <defs>
       <path d="M 31.78125 66.40625 
Q 24.171875 66.40625 20.328125 58.90625 
Q 16.5 51.421875 16.5 36.375 
Q 16.5 21.390625 20.328125 13.890625 
Q 24.171875 6.390625 31.78125 6.390625 
Q 39.453125 6.390625 43.28125 13.890625 
Q 47.125 21.390625 47.125 36.375 
Q 47.125 51.421875 43.28125 58.90625 
Q 39.453125 66.40625 31.78125 66.40625 
M 31.78125 74.21875 
Q 44.046875 74.21875 50.515625 64.515625 
Q 56.984375 54.828125 56.984375 36.375 
Q 56.984375 17.96875 50.515625 8.265625 
Q 44.046875 -1.421875 31.78125 -1.421875 
Q 19.53125 -1.421875 13.0625 8.265625 
Q 6.59375 17.96875 6.59375 36.375 
Q 6.59375 54.828125 13.0625 64.515625 
Q 19.53125 74.21875 31.78125 74.21875 
" id="BitstreamVeraSans-Roman-30"/>
       <path d="M 10.6875 12.40625 
L 21 12.40625 
L 21 0 
L 10.6875 0 
z
" id="BitstreamVeraSans-Roman-2e"/>
       <path d="M 37.796875 64.3125 
L 12.890625 25.390625 
L 37.796875 25.390625 
z
M 35.203125 72.90625 
L 47.609375 72.90625 
L 47.609375 25.390625 
L 58.015625 25.390625 
L 58.015625 17.1875 
L 47.609375 17.1875 
L 47.609375 0 
L 37.796875 0 
L 37.796875 17.1875 
L 4.890625 17.1875 
L 4.890625 26.703125 
z
" id="BitstreamVeraSans-Roman-34"/>
      </defs>
      <g transform="translate(36.9359375 139.3984375)scale(0.1 -0.1)">
       <use xlink:href="#BitstreamVeraSans-Roman-30"/>
       <use x="63.623046875" xlink:href="#BitstreamVeraSans-Roman-2e"/>
       <use x="95.41015625" xlink:href="#BitstreamVeraSans-Roman-34"/>
      </g>
     </g>
    </g>
    <g id="xtick_2">
     <g id="line2d_9">
      <g>
       <use style="stroke:#000000;stroke-width:0.5;" x="73.425" xlink:href="#mc00ef43080" y="127.8"/>
      </g>
     </g>
     <g id="line2d_10">
      <g>
       <use style="stroke:#000000;stroke-width:0.5;" x="73.425" xlink:href="#m6d9da7a04f" y="15.3"/>
      </g>
     </g>
     <g id="text_2">
      <!-- 0.5 -->
      <defs>
       <path d="M 10.796875 72.90625 
L 49.515625 72.90625 
L 49.515625 64.59375 
L 19.828125 64.59375 
L 19.828125 46.734375 
Q 21.96875 47.46875 24.109375 47.828125 
Q 26.265625 48.1875 28.421875 48.1875 
Q 40.625 48.1875 47.75 41.5 
Q 54.890625 34.8125 54.890625 23.390625 
Q 54.890625 11.625 47.5625 5.09375 
Q 40.234375 -1.421875 26.90625 -1.421875 
Q 22.3125 -1.421875 17.546875 -0.640625 
Q 12.796875 0.140625 7.71875 1.703125 
L 7.71875 11.625 
Q 12.109375 9.234375 16.796875 8.0625 
Q 21.484375 6.890625 26.703125 6.890625 
Q 35.15625 6.890625 40.078125 11.328125 
Q 45.015625 15.765625 45.015625 23.390625 
Q 45.015625 31 40.078125 35.4375 
Q 35.15625 39.890625 26.703125 39.890625 
Q 22.75 39.890625 18.8125 39.015625 
Q 14.890625 38.140625 10.796875 36.28125 
z
" id="BitstreamVeraSans-Roman-35"/>
      </defs>
      <g transform="translate(65.4734375 139.3984375)scale(0.1 -0.1)">
       <use xlink:href="#BitstreamVeraSans-Roman-30"/>
       <use x="63.623046875" xlink:href="#BitstreamVeraSans-Roman-2e"/>
       <use x="95.41015625" xlink:href="#BitstreamVeraSans-Roman-35"/>
      </g>
     </g>
    </g>
    <g id="xtick_3">
     <g id="line2d_11">
      <g>
       <use style="stroke:#000000;stroke-width:0.5;" x="101.9625" xlink:href="#mc00ef43080" y="127.8"/>
      </g>
     </g>
     <g id="line2d_12">
      <g>
       <use style="stroke:#000000;stroke-width:0.5;" x="101.9625" xlink:href="#m6d9da7a04f" y="15.3"/>
      </g>
     </g>
     <g id="text_3">
      <!-- 0.6 -->
      <defs>
       <path d="M 33.015625 40.375 
Q 26.375 40.375 22.484375 35.828125 
Q 18.609375 31.296875 18.609375 23.390625 
Q 18.609375 15.53125 22.484375 10.953125 
Q 26.375 6.390625 33.015625 6.390625 
Q 39.65625 6.390625 43.53125 10.953125 
Q 47.40625 15.53125 47.40625 23.390625 
Q 47.40625 31.296875 43.53125 35.828125 
Q 39.65625 40.375 33.015625 40.375 
M 52.59375 71.296875 
L 52.59375 62.3125 
Q 48.875 64.0625 45.09375 64.984375 
Q 41.3125 65.921875 37.59375 65.921875 
Q 27.828125 65.921875 22.671875 59.328125 
Q 17.53125 52.734375 16.796875 39.40625 
Q 19.671875 43.65625 24.015625 45.921875 
Q 28.375 48.1875 33.59375 48.1875 
Q 44.578125 48.1875 50.953125 41.515625 
Q 57.328125 34.859375 57.328125 23.390625 
Q 57.328125 12.15625 50.6875 5.359375 
Q 44.046875 -1.421875 33.015625 -1.421875 
Q 20.359375 -1.421875 13.671875 8.265625 
Q 6.984375 17.96875 6.984375 36.375 
Q 6.984375 53.65625 15.1875 63.9375 
Q 23.390625 74.21875 37.203125 74.21875 
Q 40.921875 74.21875 44.703125 73.484375 
Q 48.484375 72.75 52.59375 71.296875 
" id="BitstreamVeraSans-Roman-36"/>
      </defs>
      <g transform="translate(94.0109375 139.3984375)scale(0.1 -0.1)">
       <use xlink:href="#BitstreamVeraSans-Roman-30"/>
       <use x="63.623046875" xlink:href="#BitstreamVeraSans-Roman-2e"/>
       <use x="95.41015625" xlink:href="#BitstreamVeraSans-Roman-36"/>
      </g>
     </g>
    </g>
    <g id="xtick_4">
     <g id="line2d_13">
      <g>
       <use style="stroke:#000000;stroke-width:0.5;" x="130.5" xlink:href="#mc00ef43080" y="127.8"/>
      </g>
     </g>
     <g id="line2d_14">
      <g>
       <use style="stroke:#000000;stroke-width:0.5;" x="130.5" xlink:href="#m6d9da7a04f" y="15.3"/>
      </g>
     </g>
     <g id="text_4">
      <!-- 0.7 -->
      <defs>
       <path d="M 8.203125 72.90625 
L 55.078125 72.90625 
L 55.078125 68.703125 
L 28.609375 0 
L 18.3125 0 
L 43.21875 64.59375 
L 8.203125 64.59375 
z
" id="BitstreamVeraSans-Roman-37"/>
      </defs>
      <g transform="translate(122.5484375 139.3984375)scale(0.1 -0.1)">
       <use xlink:href="#BitstreamVeraSans-Roman-30"/>
       <use x="63.623046875" xlink:href="#BitstreamVeraSans-Roman-2e"/>
       <use x="95.41015625" xlink:href="#BitstreamVeraSans-Roman-37"/>
      </g>
     </g>
    </g>
    <g id="xtick_5">
     <g id="line2d_15">
      <g>
       <use style="stroke:#000000;stroke-width:0.5;" x="159.0375" xlink:href="#mc00ef43080" y="127.8"/>
      </g>
     </g>
     <g id="line2d_16">
      <g>
       <use style="stroke:#000000;stroke-width:0.5;" x="159.0375" xlink:href="#m6d9da7a04f" y="15.3"/>
      </g>
     </g>
     <g id="text_5">
      <!-- 0.8 -->
      <defs>
       <path d="M 31.78125 34.625 
Q 24.75 34.625 20.71875 30.859375 
Q 16.703125 27.09375 16.703125 20.515625 
Q 16.703125 13.921875 20.71875 10.15625 
Q 24.75 6.390625 31.78125 6.390625 
Q 38.8125 6.390625 42.859375 10.171875 
Q 46.921875 13.96875 46.921875 20.515625 
Q 46.921875 27.09375 42.890625 30.859375 
Q 38.875 34.625 31.78125 34.625 
M 21.921875 38.8125 
Q 15.578125 40.375 12.03125 44.71875 
Q 8.5 49.078125 8.5 55.328125 
Q 8.5 64.0625 14.71875 69.140625 
Q 20.953125 74.21875 31.78125 74.21875 
Q 42.671875 74.21875 48.875 69.140625 
Q 55.078125 64.0625 55.078125 55.328125 
Q 55.078125 49.078125 51.53125 44.71875 
Q 48 40.375 41.703125 38.8125 
Q 48.828125 37.15625 52.796875 32.3125 
Q 56.78125 27.484375 56.78125 20.515625 
Q 56.78125 9.90625 50.3125 4.234375 
Q 43.84375 -1.421875 31.78125 -1.421875 
Q 19.734375 -1.421875 13.25 4.234375 
Q 6.78125 9.90625 6.78125 20.515625 
Q 6.78125 27.484375 10.78125 32.3125 
Q 14.796875 37.15625 21.921875 38.8125 
M 18.3125 54.390625 
Q 18.3125 48.734375 21.84375 45.5625 
Q 25.390625 42.390625 31.78125 42.390625 
Q 38.140625 42.390625 41.71875 45.5625 
Q 45.3125 48.734375 45.3125 54.390625 
Q 45.3125 60.0625 41.71875 63.234375 
Q 38.140625 66.40625 31.78125 66.40625 
Q 25.390625 66.40625 21.84375 63.234375 
Q 18.3125 60.0625 18.3125 54.390625 
" id="BitstreamVeraSans-Roman-38"/>
      </defs>
      <g transform="translate(151.0859375 139.3984375)scale(0.1 -0.1)">
       <use xlink:href="#BitstreamVeraSans-Roman-30"/>
       <use x="63.623046875" xlink:href="#BitstreamVeraSans-Roman-2e"/>
       <use x="95.41015625" xlink:href="#BitstreamVeraSans-Roman-38"/>
      </g>
     </g>
    </g>
    <g id="text_6">
     <!-- X component -->
     <defs>
      <path id="BitstreamVeraSans-Roman-20"/>
      <path d="M 54.890625 33.015625 
L 54.890625 0 
L 45.90625 0 
L 45.90625 32.71875 
Q 45.90625 40.484375 42.875 44.328125 
Q 39.84375 48.1875 33.796875 48.1875 
Q 26.515625 48.1875 22.3125 43.546875 
Q 18.109375 38.921875 18.109375 30.90625 
L 18.109375 0 
L 9.078125 0 
L 9.078125 54.6875 
L 18.109375 54.6875 
L 18.109375 46.1875 
Q 21.34375 51.125 25.703125 53.5625 
Q 30.078125 56 35.796875 56 
Q 45.21875 56 50.046875 50.171875 
Q 54.890625 44.34375 54.890625 33.015625 
" id="BitstreamVeraSans-Roman-6e"/>
      <path d="M 52 44.1875 
Q 55.375 50.25 60.0625 53.125 
Q 64.75 56 71.09375 56 
Q 79.640625 56 84.28125 50.015625 
Q 88.921875 44.046875 88.921875 33.015625 
L 88.921875 0 
L 79.890625 0 
L 79.890625 32.71875 
Q 79.890625 40.578125 77.09375 44.375 
Q 74.3125 48.1875 68.609375 48.1875 
Q 61.625 48.1875 57.5625 43.546875 
Q 53.515625 38.921875 53.515625 30.90625 
L 53.515625 0 
L 44.484375 0 
L 44.484375 32.71875 
Q 44.484375 40.625 41.703125 44.40625 
Q 38.921875 48.1875 33.109375 48.1875 
Q 26.21875 48.1875 22.15625 43.53125 
Q 18.109375 38.875 18.109375 30.90625 
L 18.109375 0 
L 9.078125 0 
L 9.078125 54.6875 
L 18.109375 54.6875 
L 18.109375 46.1875 
Q 21.1875 51.21875 25.484375 53.609375 
Q 29.78125 56 35.6875 56 
Q 41.65625 56 45.828125 52.96875 
Q 50 49.953125 52 44.1875 
" id="BitstreamVeraSans-Roman-6d"/>
      <path d="M 30.609375 48.390625 
Q 23.390625 48.390625 19.1875 42.75 
Q 14.984375 37.109375 14.984375 27.296875 
Q 14.984375 17.484375 19.15625 11.84375 
Q 23.34375 6.203125 30.609375 6.203125 
Q 37.796875 6.203125 41.984375 11.859375 
Q 46.1875 17.53125 46.1875 27.296875 
Q 46.1875 37.015625 41.984375 42.703125 
Q 37.796875 48.390625 30.609375 48.390625 
M 30.609375 56 
Q 42.328125 56 49.015625 48.375 
Q 55.71875 40.765625 55.71875 27.296875 
Q 55.71875 13.875 49.015625 6.21875 
Q 42.328125 -1.421875 30.609375 -1.421875 
Q 18.84375 -1.421875 12.171875 6.21875 
Q 5.515625 13.875 5.515625 27.296875 
Q 5.515625 40.765625 12.171875 48.375 
Q 18.84375 56 30.609375 56 
" id="BitstreamVeraSans-Roman-6f"/>
      <path d="M 56.203125 29.59375 
L 56.203125 25.203125 
L 14.890625 25.203125 
Q 15.484375 15.921875 20.484375 11.0625 
Q 25.484375 6.203125 34.421875 6.203125 
Q 39.59375 6.203125 44.453125 7.46875 
Q 49.3125 8.734375 54.109375 11.28125 
L 54.109375 2.78125 
Q 49.265625 0.734375 44.1875 -0.34375 
Q 39.109375 -1.421875 33.890625 -1.421875 
Q 20.796875 -1.421875 13.15625 6.1875 
Q 5.515625 13.8125 5.515625 26.8125 
Q 5.515625 40.234375 12.765625 48.109375 
Q 20.015625 56 32.328125 56 
Q 43.359375 56 49.78125 48.890625 
Q 56.203125 41.796875 56.203125 29.59375 
M 47.21875 32.234375 
Q 47.125 39.59375 43.09375 43.984375 
Q 39.0625 48.390625 32.421875 48.390625 
Q 24.90625 48.390625 20.390625 44.140625 
Q 15.875 39.890625 15.1875 32.171875 
z
" id="BitstreamVeraSans-Roman-65"/>
      <path d="M 48.78125 52.59375 
L 48.78125 44.1875 
Q 44.96875 46.296875 41.140625 47.34375 
Q 37.3125 48.390625 33.40625 48.390625 
Q 24.65625 48.390625 19.8125 42.84375 
Q 14.984375 37.3125 14.984375 27.296875 
Q 14.984375 17.28125 19.8125 11.734375 
Q 24.65625 6.203125 33.40625 6.203125 
Q 37.3125 6.203125 41.140625 7.25 
Q 44.96875 8.296875 48.78125 10.40625 
L 48.78125 2.09375 
Q 45.015625 0.34375 40.984375 -0.53125 
Q 36.96875 -1.421875 32.421875 -1.421875 
Q 20.0625 -1.421875 12.78125 6.34375 
Q 5.515625 14.109375 5.515625 27.296875 
Q 5.515625 40.671875 12.859375 48.328125 
Q 20.21875 56 33.015625 56 
Q 37.15625 56 41.109375 55.140625 
Q 45.0625 54.296875 48.78125 52.59375 
" id="BitstreamVeraSans-Roman-63"/>
      <path d="M 6.296875 72.90625 
L 16.890625 72.90625 
L 35.015625 45.796875 
L 53.21875 72.90625 
L 63.8125 72.90625 
L 40.375 37.890625 
L 65.375 0 
L 54.78125 0 
L 34.28125 31 
L 13.625 0 
L 2.984375 0 
L 29 38.921875 
z
" id="BitstreamVeraSans-Roman-58"/>
      <path d="M 18.3125 70.21875 
L 18.3125 54.6875 
L 36.8125 54.6875 
L 36.8125 47.703125 
L 18.3125 47.703125 
L 18.3125 18.015625 
Q 18.3125 11.328125 20.140625 9.421875 
Q 21.96875 7.515625 27.59375 7.515625 
L 36.8125 7.515625 
L 36.8125 0 
L 27.59375 0 
Q 17.1875 0 13.234375 3.875 
Q 9.28125 7.765625 9.28125 18.015625 
L 9.28125 47.703125 
L 2.6875 47.703125 
L 2.6875 54.6875 
L 9.28125 54.6875 
L 9.28125 70.21875 
z
" id="BitstreamVeraSans-Roman-74"/>
      <path d="M 18.109375 8.203125 
L 18.109375 -20.796875 
L 9.078125 -20.796875 
L 9.078125 54.6875 
L 18.109375 54.6875 
L 18.109375 46.390625 
Q 20.953125 51.265625 25.265625 53.625 
Q 29.59375 56 35.59375 56 
Q 45.5625 56 51.78125 48.09375 
Q 58.015625 40.1875 58.015625 27.296875 
Q 58.015625 14.40625 51.78125 6.484375 
Q 45.5625 -1.421875 35.59375 -1.421875 
Q 29.59375 -1.421875 25.265625 0.953125 
Q 20.953125 3.328125 18.109375 8.203125 
M 48.6875 27.296875 
Q 48.6875 37.203125 44.609375 42.84375 
Q 40.53125 48.484375 33.40625 48.484375 
Q 26.265625 48.484375 22.1875 42.84375 
Q 18.109375 37.203125 18.109375 27.296875 
Q 18.109375 17.390625 22.1875 11.75 
Q 26.265625 6.109375 33.40625 6.109375 
Q 40.53125 6.109375 44.609375 11.75 
Q 48.6875 17.390625 48.6875 27.296875 
" id="BitstreamVeraSans-Roman-70"/>
     </defs>
     <g transform="translate(68.66171875 154.0765625)scale(0.1 -0.1)">
      <use xlink:href="#BitstreamVeraSans-Roman-58"/>
      <use x="68.505859375" xlink:href="#BitstreamVeraSans-Roman-20"/>
      <use x="100.29296875" xlink:href="#BitstreamVeraSans-Roman-63"/>
      <use x="155.2734375" xlink:href="#BitstreamVeraSans-Roman-6f"/>
      <use x="216.455078125" xlink:href="#BitstreamVeraSans-Roman-6d"/>
      <use x="313.8671875" xlink:href="#BitstreamVeraSans-Roman-70"/>
      <use x="377.34375" xlink:href="#BitstreamVeraSans-Roman-6f"/>
      <use x="438.525390625" xlink:href="#BitstreamVeraSans-Roman-6e"/>
      <use x="501.904296875" xlink:href="#BitstreamVeraSans-Roman-65"/>
      <use x="563.427734375" xlink:href="#BitstreamVeraSans-Roman-6e"/>
      <use x="626.806640625" xlink:href="#BitstreamVeraSans-Roman-74"/>
     </g>
    </g>
   </g>
   <g id="matplotlib.axis_2">
    <g id="ytick_1">
     <g id="line2d_17">
      <defs>
       <path d="M 0 0 
L 4 0 
" id="m5e9411e878" style="stroke:#000000;stroke-width:0.5;"/>
      </defs>
      <g>
       <use style="stroke:#000000;stroke-width:0.5;" x="44.8875" xlink:href="#m5e9411e878" y="127.8"/>
      </g>
     </g>
     <g id="line2d_18">
      <defs>
       <path d="M 0 0 
L -4 0 
" id="m7adc772755" style="stroke:#000000;stroke-width:0.5;"/>
      </defs>
      <g>
       <use style="stroke:#000000;stroke-width:0.5;" x="159.0375" xlink:href="#m7adc772755" y="127.8"/>
      </g>
     </g>
     <g id="text_7">
      <!-- 0.0 -->
      <g transform="translate(24.984375 130.559375)scale(0.1 -0.1)">
       <use xlink:href="#BitstreamVeraSans-Roman-30"/>
       <use x="63.623046875" xlink:href="#BitstreamVeraSans-Roman-2e"/>
       <use x="95.41015625" xlink:href="#BitstreamVeraSans-Roman-30"/>
      </g>
     </g>
    </g>
    <g id="ytick_2">
     <g id="line2d_19">
      <g>
       <use style="stroke:#000000;stroke-width:0.5;" x="44.8875" xlink:href="#m5e9411e878" y="71.55"/>
      </g>
     </g>
     <g id="line2d_20">
      <g>
       <use style="stroke:#000000;stroke-width:0.5;" x="159.0375" xlink:href="#m7adc772755" y="71.55"/>
      </g>
     </g>
     <g id="text_8">
      <!-- 0.5 -->
      <g transform="translate(24.984375 74.309375)scale(0.1 -0.1)">
       <use xlink:href="#BitstreamVeraSans-Roman-30"/>
       <use x="63.623046875" xlink:href="#BitstreamVeraSans-Roman-2e"/>
       <use x="95.41015625" xlink:href="#BitstreamVeraSans-Roman-35"/>
      </g>
     </g>
    </g>
    <g id="ytick_3">
     <g id="line2d_21">
      <g>
       <use style="stroke:#000000;stroke-width:0.5;" x="44.8875" xlink:href="#m5e9411e878" y="15.3"/>
      </g>
     </g>
     <g id="line2d_22">
      <g>
       <use style="stroke:#000000;stroke-width:0.5;" x="159.0375" xlink:href="#m7adc772755" y="15.3"/>
      </g>
     </g>
     <g id="text_9">
      <!-- 1.0 -->
      <defs>
       <path d="M 12.40625 8.296875 
L 28.515625 8.296875 
L 28.515625 63.921875 
L 10.984375 60.40625 
L 10.984375 69.390625 
L 28.421875 72.90625 
L 38.28125 72.90625 
L 38.28125 8.296875 
L 54.390625 8.296875 
L 54.390625 0 
L 12.40625 0 
z
" id="BitstreamVeraSans-Roman-31"/>
      </defs>
      <g transform="translate(24.984375 18.059375)scale(0.1 -0.1)">
       <use xlink:href="#BitstreamVeraSans-Roman-31"/>
       <use x="63.623046875" xlink:href="#BitstreamVeraSans-Roman-2e"/>
       <use x="95.41015625" xlink:href="#BitstreamVeraSans-Roman-30"/>
      </g>
     </g>
    </g>
    <g id="text_10">
     <!-- Cumulative Distribution -->
     <defs>
      <path d="M 41.109375 46.296875 
Q 39.59375 47.171875 37.8125 47.578125 
Q 36.03125 48 33.890625 48 
Q 26.265625 48 22.1875 43.046875 
Q 18.109375 38.09375 18.109375 28.8125 
L 18.109375 0 
L 9.078125 0 
L 9.078125 54.6875 
L 18.109375 54.6875 
L 18.109375 46.1875 
Q 20.953125 51.171875 25.484375 53.578125 
Q 30.03125 56 36.53125 56 
Q 37.453125 56 38.578125 55.875 
Q 39.703125 55.765625 41.0625 55.515625 
z
" id="BitstreamVeraSans-Roman-72"/>
      <path d="M 9.421875 75.984375 
L 18.40625 75.984375 
L 18.40625 0 
L 9.421875 0 
z
" id="BitstreamVeraSans-Roman-6c"/>
      <path d="M 19.671875 64.796875 
L 19.671875 8.109375 
L 31.59375 8.109375 
Q 46.6875 8.109375 53.6875 14.9375 
Q 60.6875 21.78125 60.6875 36.53125 
Q 60.6875 51.171875 53.6875 57.984375 
Q 46.6875 64.796875 31.59375 64.796875 
z
M 9.8125 72.90625 
L 30.078125 72.90625 
Q 51.265625 72.90625 61.171875 64.09375 
Q 71.09375 55.28125 71.09375 36.53125 
Q 71.09375 17.671875 61.125 8.828125 
Q 51.171875 0 30.078125 0 
L 9.8125 0 
z
" id="BitstreamVeraSans-Roman-44"/>
      <path d="M 9.421875 54.6875 
L 18.40625 54.6875 
L 18.40625 0 
L 9.421875 0 
z
M 9.421875 75.984375 
L 18.40625 75.984375 
L 18.40625 64.59375 
L 9.421875 64.59375 
z
" id="BitstreamVeraSans-Roman-69"/>
      <path d="M 2.984375 54.6875 
L 12.5 54.6875 
L 29.59375 8.796875 
L 46.6875 54.6875 
L 56.203125 54.6875 
L 35.6875 0 
L 23.484375 0 
z
" id="BitstreamVeraSans-Roman-76"/>
      <path d="M 64.40625 67.28125 
L 64.40625 56.890625 
Q 59.421875 61.53125 53.78125 63.8125 
Q 48.140625 66.109375 41.796875 66.109375 
Q 29.296875 66.109375 22.65625 58.46875 
Q 16.015625 50.828125 16.015625 36.375 
Q 16.015625 21.96875 22.65625 14.328125 
Q 29.296875 6.6875 41.796875 6.6875 
Q 48.140625 6.6875 53.78125 8.984375 
Q 59.421875 11.28125 64.40625 15.921875 
L 64.40625 5.609375 
Q 59.234375 2.09375 53.4375 0.328125 
Q 47.65625 -1.421875 41.21875 -1.421875 
Q 24.65625 -1.421875 15.125 8.703125 
Q 5.609375 18.84375 5.609375 36.375 
Q 5.609375 53.953125 15.125 64.078125 
Q 24.65625 74.21875 41.21875 74.21875 
Q 47.75 74.21875 53.53125 72.484375 
Q 59.328125 70.75 64.40625 67.28125 
" id="BitstreamVeraSans-Roman-43"/>
      <path d="M 8.5 21.578125 
L 8.5 54.6875 
L 17.484375 54.6875 
L 17.484375 21.921875 
Q 17.484375 14.15625 20.5 10.265625 
Q 23.53125 6.390625 29.59375 6.390625 
Q 36.859375 6.390625 41.078125 11.03125 
Q 45.3125 15.671875 45.3125 23.6875 
L 45.3125 54.6875 
L 54.296875 54.6875 
L 54.296875 0 
L 45.3125 0 
L 45.3125 8.40625 
Q 42.046875 3.421875 37.71875 1 
Q 33.40625 -1.421875 27.6875 -1.421875 
Q 18.265625 -1.421875 13.375 4.4375 
Q 8.5 10.296875 8.5 21.578125 
" id="BitstreamVeraSans-Roman-75"/>
      <path d="M 34.28125 27.484375 
Q 23.390625 27.484375 19.1875 25 
Q 14.984375 22.515625 14.984375 16.5 
Q 14.984375 11.71875 18.140625 8.90625 
Q 21.296875 6.109375 26.703125 6.109375 
Q 34.1875 6.109375 38.703125 11.40625 
Q 43.21875 16.703125 43.21875 25.484375 
L 43.21875 27.484375 
z
M 52.203125 31.203125 
L 52.203125 0 
L 43.21875 0 
L 43.21875 8.296875 
Q 40.140625 3.328125 35.546875 0.953125 
Q 30.953125 -1.421875 24.3125 -1.421875 
Q 15.921875 -1.421875 10.953125 3.296875 
Q 6 8.015625 6 15.921875 
Q 6 25.140625 12.171875 29.828125 
Q 18.359375 34.515625 30.609375 34.515625 
L 43.21875 34.515625 
L 43.21875 35.40625 
Q 43.21875 41.609375 39.140625 45 
Q 35.0625 48.390625 27.6875 48.390625 
Q 23 48.390625 18.546875 47.265625 
Q 14.109375 46.140625 10.015625 43.890625 
L 10.015625 52.203125 
Q 14.9375 54.109375 19.578125 55.046875 
Q 24.21875 56 28.609375 56 
Q 40.484375 56 46.34375 49.84375 
Q 52.203125 43.703125 52.203125 31.203125 
" id="BitstreamVeraSans-Roman-61"/>
      <path d="M 44.28125 53.078125 
L 44.28125 44.578125 
Q 40.484375 46.53125 36.375 47.5 
Q 32.28125 48.484375 27.875 48.484375 
Q 21.1875 48.484375 17.84375 46.4375 
Q 14.5 44.390625 14.5 40.28125 
Q 14.5 37.15625 16.890625 35.375 
Q 19.28125 33.59375 26.515625 31.984375 
L 29.59375 31.296875 
Q 39.15625 29.25 43.1875 25.515625 
Q 47.21875 21.78125 47.21875 15.09375 
Q 47.21875 7.46875 41.1875 3.015625 
Q 35.15625 -1.421875 24.609375 -1.421875 
Q 20.21875 -1.421875 15.453125 -0.5625 
Q 10.6875 0.296875 5.421875 2 
L 5.421875 11.28125 
Q 10.40625 8.6875 15.234375 7.390625 
Q 20.0625 6.109375 24.8125 6.109375 
Q 31.15625 6.109375 34.5625 8.28125 
Q 37.984375 10.453125 37.984375 14.40625 
Q 37.984375 18.0625 35.515625 20.015625 
Q 33.0625 21.96875 24.703125 23.78125 
L 21.578125 24.515625 
Q 13.234375 26.265625 9.515625 29.90625 
Q 5.8125 33.546875 5.8125 39.890625 
Q 5.8125 47.609375 11.28125 51.796875 
Q 16.75 56 26.8125 56 
Q 31.78125 56 36.171875 55.265625 
Q 40.578125 54.546875 44.28125 53.078125 
" id="BitstreamVeraSans-Roman-73"/>
      <path d="M 48.6875 27.296875 
Q 48.6875 37.203125 44.609375 42.84375 
Q 40.53125 48.484375 33.40625 48.484375 
Q 26.265625 48.484375 22.1875 42.84375 
Q 18.109375 37.203125 18.109375 27.296875 
Q 18.109375 17.390625 22.1875 11.75 
Q 26.265625 6.109375 33.40625 6.109375 
Q 40.53125 6.109375 44.609375 11.75 
Q 48.6875 17.390625 48.6875 27.296875 
M 18.109375 46.390625 
Q 20.953125 51.265625 25.265625 53.625 
Q 29.59375 56 35.59375 56 
Q 45.5625 56 51.78125 48.09375 
Q 58.015625 40.1875 58.015625 27.296875 
Q 58.015625 14.40625 51.78125 6.484375 
Q 45.5625 -1.421875 35.59375 -1.421875 
Q 29.59375 -1.421875 25.265625 0.953125 
Q 20.953125 3.328125 18.109375 8.203125 
L 18.109375 0 
L 9.078125 0 
L 9.078125 75.984375 
L 18.109375 75.984375 
z
" id="BitstreamVeraSans-Roman-62"/>
     </defs>
     <g transform="translate(17.9046875 130.8453125)rotate(-90.0)scale(0.1 -0.1)">
      <use xlink:href="#BitstreamVeraSans-Roman-43"/>
      <use x="69.82421875" xlink:href="#BitstreamVeraSans-Roman-75"/>
      <use x="133.203125" xlink:href="#BitstreamVeraSans-Roman-6d"/>
      <use x="230.615234375" xlink:href="#BitstreamVeraSans-Roman-75"/>
      <use x="293.994140625" xlink:href="#BitstreamVeraSans-Roman-6c"/>
      <use x="321.77734375" xlink:href="#BitstreamVeraSans-Roman-61"/>
      <use x="383.056640625" xlink:href="#BitstreamVeraSans-Roman-74"/>
      <use x="422.265625" xlink:href="#BitstreamVeraSans-Roman-69"/>
      <use x="450.048828125" xlink:href="#BitstreamVeraSans-Roman-76"/>
      <use x="509.228515625" xlink:href="#BitstreamVeraSans-Roman-65"/>
      <use x="570.751953125" xlink:href="#BitstreamVeraSans-Roman-20"/>
      <use x="602.5390625" xlink:href="#BitstreamVeraSans-Roman-44"/>
      <use x="679.541015625" xlink:href="#BitstreamVeraSans-Roman-69"/>
      <use x="707.32421875" xlink:href="#BitstreamVeraSans-Roman-73"/>
      <use x="759.423828125" xlink:href="#BitstreamVeraSans-Roman-74"/>
      <use x="798.6328125" xlink:href="#BitstreamVeraSans-Roman-72"/>
      <use x="839.74609375" xlink:href="#BitstreamVeraSans-Roman-69"/>
      <use x="867.529296875" xlink:href="#BitstreamVeraSans-Roman-62"/>
      <use x="931.005859375" xlink:href="#BitstreamVeraSans-Roman-75"/>
      <use x="994.384765625" xlink:href="#BitstreamVeraSans-Roman-74"/>
      <use x="1033.59375" xlink:href="#BitstreamVeraSans-Roman-69"/>
      <use x="1061.37695312" xlink:href="#BitstreamVeraSans-Roman-6f"/>
      <use x="1122.55859375" xlink:href="#BitstreamVeraSans-Roman-6e"/>
     </g>
    </g>
   </g>
  </g>
  <g id="axes_2">
   <g id="patch_7">
    <path d="M 211.96875 127.8 
L 326.11875 127.8 
L 326.11875 15.3 
L 211.96875 15.3 
z
" style="fill:#ffffff;"/>
   </g>
   <g id="line2d_23">
    <path clip-path="url(#p8c1accb09b)" d="M 237.902515 127.8 
L 244.640559 127.5525 
L 246.298521 127.1475 
L 246.816317 127.0125 
L 246.947023 126.945 
L 247.74547 126.765 
L 247.924167 126.6525 
L 248.547994 126.4275 
L 248.704705 126.36 
L 249.187119 126.18 
L 249.189204 126.1575 
L 249.518102 126 
L 249.742463 125.73 
L 250.244647 125.4375 
L 250.353142 125.3475 
L 250.673468 125.19 
L 251.47254 124.7175 
L 251.701672 124.515 
L 251.988166 124.2225 
L 252.085974 124.11 
L 254.009367 121.77 
L 254.138239 121.545 
L 255.639777 119.1825 
L 255.806975 118.89 
L 255.88563 118.71 
L 256.000142 118.35 
L 256.067226 118.17 
L 256.159512 117.7875 
L 256.244811 117.6075 
L 256.406283 117.2025 
L 257.506923 115.2 
L 257.617911 114.9075 
L 259.78749 109.665 
L 259.872948 109.5075 
L 259.988378 109.3275 
L 260.577989 107.415 
L 260.68871 106.9875 
L 260.753243 106.695 
L 260.864105 106.3575 
L 261.439346 104.5125 
L 261.558782 104.085 
L 261.752111 103.4325 
L 261.816594 103.2975 
L 261.941138 103.005 
L 262.738646 99.9675 
L 263.81771 96.5925 
L 263.960896 95.715 
L 264.062083 95.31 
L 264.176412 94.905 
L 264.242097 94.545 
L 264.356853 93.96 
L 264.532889 93.2175 
L 265.19506 90.18 
L 265.36285 89.55 
L 265.534201 88.7625 
L 265.752189 87.57 
L 265.822546 87.2325 
L 266.377257 84.78 
L 266.423949 84.555 
L 266.559224 83.8575 
L 266.872655 82.215 
L 266.939947 81.945 
L 267.066785 81.4725 
L 267.198937 80.8425 
L 267.718169 78.3225 
L 267.829205 77.76 
L 267.976055 77.0175 
L 268.044785 76.635 
L 268.286514 75.51 
L 268.463185 74.745 
L 268.596262 73.89 
L 268.804709 72.765 
L 268.90978 72.2925 
L 269.216947 70.7175 
L 269.385098 69.885 
L 269.595079 68.625 
L 269.673115 68.1975 
L 269.781642 67.7025 
L 269.826749 67.5225 
L 269.970186 66.915 
L 270.029013 66.7575 
L 270.27236 65.6325 
L 270.417594 65.0025 
L 270.701491 63.585 
L 272.979193 52.875 
L 273.128918 52.1775 
L 273.199307 51.93 
L 273.359245 51.0525 
L 273.520768 50.355 
L 273.665727 49.68 
L 273.962448 48.4425 
L 274.075131 47.8125 
L 274.181436 47.295 
L 274.298162 46.665 
L 276.147993 39.0375 
L 276.21722 38.88 
L 279.271972 29.7225 
L 279.397067 29.52 
L 282.676051 22.0275 
L 282.837223 21.825 
L 282.982456 21.5325 
L 284.292832 20.0925 
L 284.510069 19.8675 
L 284.642736 19.6425 
L 284.790744 19.485 
L 285.880739 18.45 
L 286.029333 18.315 
L 288.903306 16.6275 
L 289.394501 16.47 
L 289.505981 16.3575 
L 289.929151 16.2225 
L 291.12779 15.9975 
L 296.253684 15.39 
L 302.962612 15.3225 
L 302.962612 15.3225 
" style="fill:none;stroke:#ff0000;stroke-linecap:square;"/>
   </g>
   <g id="line2d_24">
    <path clip-path="url(#p8c1accb09b)" d="M 251.061953 127.8 
L 251.061953 15.3 
" style="fill:none;stroke:#ff0000;stroke-linecap:square;"/>
   </g>
   <g id="line2d_25">
    <path clip-path="url(#p8c1accb09b)" d="M 286.334008 127.8 
L 286.334008 15.3 
" style="fill:none;stroke:#ff0000;stroke-linecap:square;"/>
   </g>
   <g id="line2d_26">
    <path clip-path="url(#p8c1accb09b)" d="M 218.302752 127.8 
L 224.606674 127.575 
L 226.158112 127.35 
L 226.355783 127.305 
L 228.585824 127.125 
L 230.790973 126.6075 
L 231.434789 126.2925 
L 232.207909 126.1125 
L 233.385462 125.5725 
L 233.456678 125.4825 
L 233.938511 125.28 
L 234.559366 124.9875 
L 234.659618 124.9425 
L 234.84416 124.74 
L 234.971731 124.5825 
L 235.198142 124.4475 
L 235.306023 124.3575 
L 235.961572 123.75 
L 235.982127 123.66 
L 236.248564 123.525 
L 236.849139 123.0975 
L 236.985605 122.985 
L 237.218094 122.85 
L 237.501254 122.5575 
L 237.972765 121.9725 
L 239.097673 120.3075 
L 239.200939 120.1275 
L 239.295978 120.015 
L 239.683295 119.5425 
L 240.251174 118.485 
L 240.443122 118.305 
L 240.599097 118.0575 
L 240.796691 117.8775 
L 240.996316 117.63 
L 241.13761 117.3375 
L 241.251584 117.2025 
L 241.987109 115.8975 
L 242.432562 114.795 
L 242.614376 114.66 
L 242.882154 113.985 
L 243.037077 113.6475 
L 243.170478 113.31 
L 243.322658 113.085 
L 243.458235 112.5225 
L 243.53952 112.2975 
L 243.652141 112.095 
L 243.7448 111.8925 
L 243.914631 111.3525 
L 244.314949 110.3625 
L 244.442297 109.7775 
L 244.537912 109.575 
L 245.001693 107.8875 
L 245.136627 107.64 
L 245.288123 107.2575 
L 245.529817 106.56 
L 246.621405 103.275 
L 246.743546 102.9375 
L 247.175295 101.5875 
L 247.24177 101.4075 
L 247.646242 99.7875 
L 247.760482 99.585 
L 247.843357 99.27 
L 248.730652 96.0525 
L 248.964075 94.815 
L 249.041036 94.545 
L 249.135821 94.1175 
L 249.2279 93.915 
L 249.352476 93.3075 
L 249.604196 92.34 
L 249.719316 91.7325 
L 251.959565 82.7775 
L 252.70152 79.785 
L 252.885584 78.795 
L 253.270271 76.5675 
L 253.485296 75.4875 
L 253.565338 75.1725 
L 253.689197 74.4975 
L 253.823422 73.98 
L 253.949438 73.3275 
L 254.134383 72.585 
L 254.445932 71.1225 
L 254.556448 70.5825 
L 254.693751 70.02 
L 256.969301 61.515 
L 257.064437 61.02 
L 257.128107 60.8175 
L 257.238341 60.48 
L 257.414022 59.8725 
L 257.454943 59.67 
L 257.58251 59.0625 
L 258.705205 53.46 
L 258.781344 53.145 
L 258.976918 52.38 
L 259.085301 51.9525 
L 261.872301 41.4 
L 261.977162 40.905 
L 262.08851 40.68 
L 262.538361 39.1725 
L 262.652791 38.745 
L 262.875781 37.935 
L 262.928223 37.8 
L 263.044078 37.3725 
L 263.135114 37.125 
L 263.496033 36.045 
L 263.669637 35.5275 
L 264.095353 34.4475 
L 264.212203 33.9075 
L 264.973395 31.7025 
L 265.083785 31.2975 
L 265.867692 29.2275 
L 265.956108 29.07 
L 266.032956 28.845 
L 266.234175 28.665 
L 266.618242 27.9 
L 266.912841 27.0675 
L 267.033457 26.7975 
L 267.586201 25.785 
L 267.927701 25.065 
L 268.030734 24.9075 
L 268.182802 24.5475 
L 268.552368 23.895 
L 269.826909 21.8475 
L 269.989886 21.6675 
L 270.282255 21.285 
L 270.594137 21.0825 
L 270.709319 20.7675 
L 270.90898 20.565 
L 271.278653 20.16 
L 271.590921 19.9125 
L 271.694849 19.6875 
L 271.838882 19.485 
L 272.325493 19.17 
L 272.456481 18.99 
L 272.919584 18.7425 
L 273.1726 18.45 
L 273.420076 18.27 
L 273.535274 18.1575 
L 273.956198 18 
L 274.053914 17.865 
L 274.98948 17.4825 
L 275.605239 16.9875 
L 276.230878 16.8075 
L 276.808978 16.4925 
L 277.415169 16.335 
L 277.517119 16.2675 
L 278.264674 16.065 
L 279.529198 15.8175 
L 281.583566 15.6375 
L 281.614366 15.615 
L 287.921101 15.345 
L 291.576522 15.3225 
L 291.576522 15.3225 
" style="fill:none;stroke:#0000ff;stroke-linecap:square;"/>
   </g>
   <g id="line2d_27">
    <path clip-path="url(#p8c1accb09b)" d="M 234.559366 127.8 
L 234.559366 15.3 
" style="fill:none;stroke:#0000ff;stroke-dasharray:6.000000,6.000000;stroke-dashoffset:0.0;"/>
   </g>
   <g id="line2d_28">
    <path clip-path="url(#p8c1accb09b)" d="M 273.728029 127.8 
L 273.728029 15.3 
" style="fill:none;stroke:#0000ff;stroke-dasharray:6.000000,6.000000;stroke-dashoffset:0.0;"/>
   </g>
   <g id="patch_8">
    <path d="M 211.96875 15.3 
L 326.11875 15.3 
" style="fill:none;stroke:#000000;stroke-linecap:square;stroke-linejoin:miter;"/>
   </g>
   <g id="patch_9">
    <path d="M 326.11875 127.8 
L 326.11875 15.3 
" style="fill:none;stroke:#000000;stroke-linecap:square;stroke-linejoin:miter;"/>
   </g>
   <g id="patch_10">
    <path d="M 211.96875 127.8 
L 326.11875 127.8 
" style="fill:none;stroke:#000000;stroke-linecap:square;stroke-linejoin:miter;"/>
   </g>
   <g id="patch_11">
    <path d="M 211.96875 127.8 
L 211.96875 15.3 
" style="fill:none;stroke:#000000;stroke-linecap:square;stroke-linejoin:miter;"/>
   </g>
   <g id="matplotlib.axis_3">
    <g id="xtick_6">
     <g id="line2d_29">
      <g>
       <use style="stroke:#000000;stroke-width:0.5;" x="211.96875" xlink:href="#mc00ef43080" y="127.8"/>
      </g>
     </g>
     <g id="line2d_30">
      <g>
       <use style="stroke:#000000;stroke-width:0.5;" x="211.96875" xlink:href="#m6d9da7a04f" y="15.3"/>
      </g>
     </g>
     <g id="text_11">
      <!-- 0.2 -->
      <defs>
       <path d="M 19.1875 8.296875 
L 53.609375 8.296875 
L 53.609375 0 
L 7.328125 0 
L 7.328125 8.296875 
Q 12.9375 14.109375 22.625 23.890625 
Q 32.328125 33.6875 34.8125 36.53125 
Q 39.546875 41.84375 41.421875 45.53125 
Q 43.3125 49.21875 43.3125 52.78125 
Q 43.3125 58.59375 39.234375 62.25 
Q 35.15625 65.921875 28.609375 65.921875 
Q 23.96875 65.921875 18.8125 64.3125 
Q 13.671875 62.703125 7.8125 59.421875 
L 7.8125 69.390625 
Q 13.765625 71.78125 18.9375 73 
Q 24.125 74.21875 28.421875 74.21875 
Q 39.75 74.21875 46.484375 68.546875 
Q 53.21875 62.890625 53.21875 53.421875 
Q 53.21875 48.921875 51.53125 44.890625 
Q 49.859375 40.875 45.40625 35.40625 
Q 44.1875 33.984375 37.640625 27.21875 
Q 31.109375 20.453125 19.1875 8.296875 
" id="BitstreamVeraSans-Roman-32"/>
      </defs>
      <g transform="translate(204.0171875 139.3984375)scale(0.1 -0.1)">
       <use xlink:href="#BitstreamVeraSans-Roman-30"/>
       <use x="63.623046875" xlink:href="#BitstreamVeraSans-Roman-2e"/>
       <use x="95.41015625" xlink:href="#BitstreamVeraSans-Roman-32"/>
      </g>
     </g>
    </g>
    <g id="xtick_7">
     <g id="line2d_31">
      <g>
       <use style="stroke:#000000;stroke-width:0.5;" x="269.04375" xlink:href="#mc00ef43080" y="127.8"/>
      </g>
     </g>
     <g id="line2d_32">
      <g>
       <use style="stroke:#000000;stroke-width:0.5;" x="269.04375" xlink:href="#m6d9da7a04f" y="15.3"/>
      </g>
     </g>
     <g id="text_12">
      <!-- 0.4 -->
      <g transform="translate(261.0921875 139.3984375)scale(0.1 -0.1)">
       <use xlink:href="#BitstreamVeraSans-Roman-30"/>
       <use x="63.623046875" xlink:href="#BitstreamVeraSans-Roman-2e"/>
       <use x="95.41015625" xlink:href="#BitstreamVeraSans-Roman-34"/>
      </g>
     </g>
    </g>
    <g id="xtick_8">
     <g id="line2d_33">
      <g>
       <use style="stroke:#000000;stroke-width:0.5;" x="326.11875" xlink:href="#mc00ef43080" y="127.8"/>
      </g>
     </g>
     <g id="line2d_34">
      <g>
       <use style="stroke:#000000;stroke-width:0.5;" x="326.11875" xlink:href="#m6d9da7a04f" y="15.3"/>
      </g>
     </g>
     <g id="text_13">
      <!-- 0.6 -->
      <g transform="translate(318.1671875 139.3984375)scale(0.1 -0.1)">
       <use xlink:href="#BitstreamVeraSans-Roman-30"/>
       <use x="63.623046875" xlink:href="#BitstreamVeraSans-Roman-2e"/>
       <use x="95.41015625" xlink:href="#BitstreamVeraSans-Roman-36"/>
      </g>
     </g>
    </g>
    <g id="text_14">
     <!-- Y component -->
     <defs>
      <path d="M -0.203125 72.90625 
L 10.40625 72.90625 
L 30.609375 42.921875 
L 50.6875 72.90625 
L 61.28125 72.90625 
L 35.5 34.71875 
L 35.5 0 
L 25.59375 0 
L 25.59375 34.71875 
z
" id="BitstreamVeraSans-Roman-59"/>
     </defs>
     <g transform="translate(236.1140625 154.0765625)scale(0.1 -0.1)">
      <use xlink:href="#BitstreamVeraSans-Roman-59"/>
      <use x="61.083984375" xlink:href="#BitstreamVeraSans-Roman-20"/>
      <use x="92.87109375" xlink:href="#BitstreamVeraSans-Roman-63"/>
      <use x="147.8515625" xlink:href="#BitstreamVeraSans-Roman-6f"/>
      <use x="209.033203125" xlink:href="#BitstreamVeraSans-Roman-6d"/>
      <use x="306.4453125" xlink:href="#BitstreamVeraSans-Roman-70"/>
      <use x="369.921875" xlink:href="#BitstreamVeraSans-Roman-6f"/>
      <use x="431.103515625" xlink:href="#BitstreamVeraSans-Roman-6e"/>
      <use x="494.482421875" xlink:href="#BitstreamVeraSans-Roman-65"/>
      <use x="556.005859375" xlink:href="#BitstreamVeraSans-Roman-6e"/>
      <use x="619.384765625" xlink:href="#BitstreamVeraSans-Roman-74"/>
     </g>
    </g>
   </g>
   <g id="matplotlib.axis_4">
    <g id="ytick_4">
     <g id="line2d_35">
      <g>
       <use style="stroke:#000000;stroke-width:0.5;" x="211.96875" xlink:href="#m5e9411e878" y="127.8"/>
      </g>
     </g>
     <g id="line2d_36">
      <g>
       <use style="stroke:#000000;stroke-width:0.5;" x="326.11875" xlink:href="#m7adc772755" y="127.8"/>
      </g>
     </g>
     <g id="text_15">
      <!-- 0.0 -->
      <g transform="translate(192.065625 130.559375)scale(0.1 -0.1)">
       <use xlink:href="#BitstreamVeraSans-Roman-30"/>
       <use x="63.623046875" xlink:href="#BitstreamVeraSans-Roman-2e"/>
       <use x="95.41015625" xlink:href="#BitstreamVeraSans-Roman-30"/>
      </g>
     </g>
    </g>
    <g id="ytick_5">
     <g id="line2d_37">
      <g>
       <use style="stroke:#000000;stroke-width:0.5;" x="211.96875" xlink:href="#m5e9411e878" y="71.55"/>
      </g>
     </g>
     <g id="line2d_38">
      <g>
       <use style="stroke:#000000;stroke-width:0.5;" x="326.11875" xlink:href="#m7adc772755" y="71.55"/>
      </g>
     </g>
     <g id="text_16">
      <!-- 0.5 -->
      <g transform="translate(192.065625 74.309375)scale(0.1 -0.1)">
       <use xlink:href="#BitstreamVeraSans-Roman-30"/>
       <use x="63.623046875" xlink:href="#BitstreamVeraSans-Roman-2e"/>
       <use x="95.41015625" xlink:href="#BitstreamVeraSans-Roman-35"/>
      </g>
     </g>
    </g>
    <g id="ytick_6">
     <g id="line2d_39">
      <g>
       <use style="stroke:#000000;stroke-width:0.5;" x="211.96875" xlink:href="#m5e9411e878" y="15.3"/>
      </g>
     </g>
     <g id="line2d_40">
      <g>
       <use style="stroke:#000000;stroke-width:0.5;" x="326.11875" xlink:href="#m7adc772755" y="15.3"/>
      </g>
     </g>
     <g id="text_17">
      <!-- 1.0 -->
      <g transform="translate(192.065625 18.059375)scale(0.1 -0.1)">
       <use xlink:href="#BitstreamVeraSans-Roman-31"/>
       <use x="63.623046875" xlink:href="#BitstreamVeraSans-Roman-2e"/>
       <use x="95.41015625" xlink:href="#BitstreamVeraSans-Roman-30"/>
      </g>
     </g>
    </g>
    <g id="text_18">
     <!-- Cumulative Distribution -->
     <g transform="translate(184.9859375 130.8453125)rotate(-90.0)scale(0.1 -0.1)">
      <use xlink:href="#BitstreamVeraSans-Roman-43"/>
      <use x="69.82421875" xlink:href="#BitstreamVeraSans-Roman-75"/>
      <use x="133.203125" xlink:href="#BitstreamVeraSans-Roman-6d"/>
      <use x="230.615234375" xlink:href="#BitstreamVeraSans-Roman-75"/>
      <use x="293.994140625" xlink:href="#BitstreamVeraSans-Roman-6c"/>
      <use x="321.77734375" xlink:href="#BitstreamVeraSans-Roman-61"/>
      <use x="383.056640625" xlink:href="#BitstreamVeraSans-Roman-74"/>
      <use x="422.265625" xlink:href="#BitstreamVeraSans-Roman-69"/>
      <use x="450.048828125" xlink:href="#BitstreamVeraSans-Roman-76"/>
      <use x="509.228515625" xlink:href="#BitstreamVeraSans-Roman-65"/>
      <use x="570.751953125" xlink:href="#BitstreamVeraSans-Roman-20"/>
      <use x="602.5390625" xlink:href="#BitstreamVeraSans-Roman-44"/>
      <use x="679.541015625" xlink:href="#BitstreamVeraSans-Roman-69"/>
      <use x="707.32421875" xlink:href="#BitstreamVeraSans-Roman-73"/>
      <use x="759.423828125" xlink:href="#BitstreamVeraSans-Roman-74"/>
      <use x="798.6328125" xlink:href="#BitstreamVeraSans-Roman-72"/>
      <use x="839.74609375" xlink:href="#BitstreamVeraSans-Roman-69"/>
      <use x="867.529296875" xlink:href="#BitstreamVeraSans-Roman-62"/>
      <use x="931.005859375" xlink:href="#BitstreamVeraSans-Roman-75"/>
      <use x="994.384765625" xlink:href="#BitstreamVeraSans-Roman-74"/>
      <use x="1033.59375" xlink:href="#BitstreamVeraSans-Roman-69"/>
      <use x="1061.37695312" xlink:href="#BitstreamVeraSans-Roman-6f"/>
      <use x="1122.55859375" xlink:href="#BitstreamVeraSans-Roman-6e"/>
     </g>
    </g>
   </g>
  </g>
  <g id="axes_3">
   <g id="patch_12">
    <path d="M 379.05 127.8 
L 493.2 127.8 
L 493.2 15.3 
L 379.05 15.3 
z
" style="fill:#ffffff;"/>
   </g>
   <g id="line2d_41">
    <path clip-path="url(#p8ec309c403)" d="M 410.960621 127.8 
L 415.56104 127.71 
L 418.50812 127.575 
L 420.315315 127.305 
L 421.824507 126.9675 
L 422.489068 126.7875 
L 423.326299 126.63 
L 423.612158 126.495 
L 424.111539 126.27 
L 424.723136 126 
L 425.089665 125.865 
L 425.300317 125.7525 
L 425.444846 125.6175 
L 425.603656 125.46 
L 426.186541 125.145 
L 426.470403 124.8075 
L 426.878315 124.515 
L 427.096735 124.335 
L 427.281284 124.155 
L 427.490105 123.7725 
L 427.731956 123.5475 
L 428.562658 122.6475 
L 428.823219 122.3325 
L 428.967688 122.1075 
L 429.272391 121.635 
L 429.390709 121.4775 
L 429.773034 120.8025 
L 430.04738 120.24 
L 430.563271 119.205 
L 430.663787 118.98 
L 432.212971 114.9075 
L 432.329345 114.615 
L 432.416566 114.345 
L 432.532594 114.0525 
L 432.749112 113.2875 
L 433.200484 111.8025 
L 433.25287 111.645 
L 433.379162 111.2175 
L 434.009914 108.765 
L 434.107849 108.3825 
L 434.301371 107.3025 
L 434.59379 106.2225 
L 434.669284 106.0425 
L 434.957779 104.6475 
L 435.008754 104.445 
L 435.209775 103.59 
L 435.360856 103.095 
L 435.546257 102.1275 
L 435.80798 101.025 
L 436.003636 99.9675 
L 436.15448 99.3375 
L 436.273348 98.775 
L 436.322392 98.5275 
L 436.602584 97.29 
L 436.755961 96.4125 
L 436.799862 96.1425 
L 437.246833 94.005 
L 437.664139 91.125 
L 437.822523 90.18 
L 437.927512 89.6625 
L 438.06564 88.8075 
L 438.146238 88.38 
L 440.064825 77.2425 
L 440.105058 77.0625 
L 440.508641 74.4975 
L 440.599245 74.07 
L 440.756371 73.2825 
L 445.034114 47.34 
L 445.084382 47.07 
L 445.258187 45.7425 
L 445.775117 43.74 
L 445.860639 43.425 
L 446.095725 42.0075 
L 446.18913 41.535 
L 446.503951 39.915 
L 446.634979 39.3075 
L 446.905736 37.9125 
L 447.035334 37.215 
L 447.125987 36.7425 
L 448.729583 29.79 
L 448.885144 29.25 
L 448.992596 28.845 
L 449.068703 28.5975 
L 449.346368 27.72 
L 449.409057 27.54 
L 449.611267 27 
L 449.734015 26.505 
L 450.280888 24.9525 
L 450.391952 24.6375 
L 450.575956 24.0075 
L 450.727768 23.76 
L 450.839478 23.4225 
L 451.007709 23.0625 
L 451.124929 22.8825 
L 451.269738 22.545 
L 451.424466 22.2975 
L 451.55174 22.0725 
L 451.734756 21.7125 
L 451.852413 21.4875 
L 451.960624 21.2175 
L 452.418426 20.6325 
L 452.742845 20.25 
L 452.951695 19.845 
L 453.647095 18.99 
L 454.213048 18.3825 
L 454.446616 18.1125 
L 454.89671 17.5725 
L 455.078347 17.37 
L 455.275131 17.145 
L 459.000243 15.84 
L 459.842654 15.6825 
L 459.867432 15.66 
L 462.535386 15.3675 
L 465.889838 15.3225 
L 465.889838 15.3225 
" style="fill:none;stroke:#ff0000;stroke-linecap:square;"/>
   </g>
   <g id="line2d_42">
    <path clip-path="url(#p8ec309c403)" d="M 426.273036 127.8 
L 426.273036 15.3 
" style="fill:none;stroke:#ff0000;stroke-linecap:square;"/>
   </g>
   <g id="line2d_43">
    <path clip-path="url(#p8ec309c403)" d="M 454.446616 127.8 
L 454.446616 15.3 
" style="fill:none;stroke:#ff0000;stroke-linecap:square;"/>
   </g>
   <g id="line2d_44">
    <path clip-path="url(#p8ec309c403)" d="M 400.417347 127.8 
L 404.245201 127.7775 
L 406.914591 127.665 
L 408.232951 127.62 
L 413.280625 127.2825 
L 413.72462 127.1925 
L 417.541401 126.5175 
L 418.120548 126.2475 
L 418.638077 125.9775 
L 418.77898 125.91 
L 419.081949 125.775 
L 419.627569 125.46 
L 420.678761 124.6725 
L 421.429614 124.2 
L 421.689136 123.9075 
L 422.149636 123.5925 
L 422.276135 123.4575 
L 422.430022 123.2775 
L 423.087167 122.535 
L 423.366517 122.2425 
L 424.444815 120.825 
L 426.006146 118.2825 
L 426.12776 117.9 
L 426.258681 117.5625 
L 427.463574 115.11 
L 427.660859 114.66 
L 427.915392 113.94 
L 428.04962 113.535 
L 428.231147 113.0625 
L 428.338434 112.8825 
L 428.529235 112.3875 
L 428.636656 112.1175 
L 429.014444 111.2625 
L 429.184966 110.9925 
L 429.306884 110.565 
L 429.392507 110.25 
L 429.493501 110.0025 
L 429.573351 109.755 
L 429.764509 109.0125 
L 429.846938 108.7875 
L 430.074758 108.1125 
L 431.052876 104.6925 
L 431.444457 103.1175 
L 431.547415 102.6225 
L 431.731372 102.15 
L 431.99339 100.935 
L 432.145921 100.26 
L 435.796852 85.4325 
L 436.91506 80.19 
L 437.074969 79.56 
L 437.322298 78.255 
L 437.374032 77.9625 
L 437.504454 77.4225 
L 437.669214 76.635 
L 437.911834 75.5325 
L 438.42263 73.035 
L 438.566258 72.315 
L 438.659138 71.685 
L 442.599238 52.92 
L 443.051207 50.7375 
L 443.578912 48.33 
L 443.674245 48.0375 
L 444.095111 46.5525 
L 444.395096 45.4725 
L 444.499319 45.18 
L 444.547157 44.9325 
L 444.731214 44.2575 
L 444.847592 43.7625 
L 444.967765 43.3575 
L 445.331188 42.165 
L 445.450611 41.715 
L 445.80521 40.1625 
L 445.865732 39.9375 
L 446.090564 38.9925 
L 446.202902 38.6775 
L 446.996002 36.405 
L 447.054871 36.225 
L 447.305527 35.415 
L 447.395689 35.2575 
L 447.914407 33.4575 
L 447.978366 33.255 
L 448.095998 32.8725 
L 448.691102 30.9375 
L 448.862774 30.3975 
L 448.971213 30.195 
L 449.104835 29.655 
L 449.251636 29.385 
L 449.392786 29.07 
L 449.758269 28.1025 
L 450.063594 27.2925 
L 450.358498 26.8425 
L 450.50856 26.5725 
L 450.615612 26.415 
L 450.844927 25.8975 
L 451.03262 25.515 
L 451.189643 25.29 
L 451.325596 25.0425 
L 451.417729 24.885 
L 451.587489 24.5475 
L 451.709898 24.2775 
L 451.824639 24.0075 
L 451.985738 23.715 
L 452.104073 23.4 
L 452.200114 23.22 
L 452.492822 22.5 
L 452.937133 22.005 
L 453.054043 21.78 
L 453.381699 21.33 
L 453.576264 21.1725 
L 453.732363 20.9025 
L 454.08948 20.565 
L 454.136083 20.4525 
L 454.390356 20.295 
L 454.509592 20.07 
L 455.097141 19.395 
L 455.237776 19.26 
L 455.890987 18.6525 
L 456.667222 18.2475 
L 456.808392 18.0675 
L 457.842985 17.6175 
L 458.10422 17.4375 
L 459.061116 16.8525 
L 459.325167 16.6725 
L 459.55117 16.515 
L 462.164304 15.84 
L 465.716998 15.4575 
L 473.909381 15.3225 
L 473.909381 15.3225 
" style="fill:none;stroke:#0000ff;stroke-linecap:square;"/>
   </g>
   <g id="line2d_45">
    <path clip-path="url(#p8ec309c403)" d="M 420.02397 127.8 
L 420.02397 15.3 
" style="fill:none;stroke:#0000ff;stroke-dasharray:6.000000,6.000000;stroke-dashoffset:0.0;"/>
   </g>
   <g id="line2d_46">
    <path clip-path="url(#p8ec309c403)" d="M 456.79439 127.8 
L 456.79439 15.3 
" style="fill:none;stroke:#0000ff;stroke-dasharray:6.000000,6.000000;stroke-dashoffset:0.0;"/>
   </g>
   <g id="patch_13">
    <path d="M 379.05 15.3 
L 493.2 15.3 
" style="fill:none;stroke:#000000;stroke-linecap:square;stroke-linejoin:miter;"/>
   </g>
   <g id="patch_14">
    <path d="M 493.2 127.8 
L 493.2 15.3 
" style="fill:none;stroke:#000000;stroke-linecap:square;stroke-linejoin:miter;"/>
   </g>
   <g id="patch_15">
    <path d="M 379.05 127.8 
L 493.2 127.8 
" style="fill:none;stroke:#000000;stroke-linecap:square;stroke-linejoin:miter;"/>
   </g>
   <g id="patch_16">
    <path d="M 379.05 127.8 
L 379.05 15.3 
" style="fill:none;stroke:#000000;stroke-linecap:square;stroke-linejoin:miter;"/>
   </g>
   <g id="matplotlib.axis_5">
    <g id="xtick_9">
     <g id="line2d_47">
      <g>
       <use style="stroke:#000000;stroke-width:0.5;" x="407.5875" xlink:href="#mc00ef43080" y="127.8"/>
      </g>
     </g>
     <g id="line2d_48">
      <g>
       <use style="stroke:#000000;stroke-width:0.5;" x="407.5875" xlink:href="#m6d9da7a04f" y="15.3"/>
      </g>
     </g>
     <g id="text_19">
      <!-- 0.6 -->
      <g transform="translate(399.6359375 139.3984375)scale(0.1 -0.1)">
       <use xlink:href="#BitstreamVeraSans-Roman-30"/>
       <use x="63.623046875" xlink:href="#BitstreamVeraSans-Roman-2e"/>
       <use x="95.41015625" xlink:href="#BitstreamVeraSans-Roman-36"/>
      </g>
     </g>
    </g>
    <g id="xtick_10">
     <g id="line2d_49">
      <g>
       <use style="stroke:#000000;stroke-width:0.5;" x="464.6625" xlink:href="#mc00ef43080" y="127.8"/>
      </g>
     </g>
     <g id="line2d_50">
      <g>
       <use style="stroke:#000000;stroke-width:0.5;" x="464.6625" xlink:href="#m6d9da7a04f" y="15.3"/>
      </g>
     </g>
     <g id="text_20">
      <!-- 0.8 -->
      <g transform="translate(456.7109375 139.3984375)scale(0.1 -0.1)">
       <use xlink:href="#BitstreamVeraSans-Roman-30"/>
       <use x="63.623046875" xlink:href="#BitstreamVeraSans-Roman-2e"/>
       <use x="95.41015625" xlink:href="#BitstreamVeraSans-Roman-38"/>
      </g>
     </g>
    </g>
    <g id="text_21">
     <!-- Z component -->
     <defs>
      <path d="M 5.609375 72.90625 
L 62.890625 72.90625 
L 62.890625 65.375 
L 16.796875 8.296875 
L 64.015625 8.296875 
L 64.015625 0 
L 4.5 0 
L 4.5 7.515625 
L 50.59375 64.59375 
L 5.609375 64.59375 
z
" id="BitstreamVeraSans-Roman-5a"/>
     </defs>
     <g transform="translate(402.82421875 154.0765625)scale(0.1 -0.1)">
      <use xlink:href="#BitstreamVeraSans-Roman-5a"/>
      <use x="68.505859375" xlink:href="#BitstreamVeraSans-Roman-20"/>
      <use x="100.29296875" xlink:href="#BitstreamVeraSans-Roman-63"/>
      <use x="155.2734375" xlink:href="#BitstreamVeraSans-Roman-6f"/>
      <use x="216.455078125" xlink:href="#BitstreamVeraSans-Roman-6d"/>
      <use x="313.8671875" xlink:href="#BitstreamVeraSans-Roman-70"/>
      <use x="377.34375" xlink:href="#BitstreamVeraSans-Roman-6f"/>
      <use x="438.525390625" xlink:href="#BitstreamVeraSans-Roman-6e"/>
      <use x="501.904296875" xlink:href="#BitstreamVeraSans-Roman-65"/>
      <use x="563.427734375" xlink:href="#BitstreamVeraSans-Roman-6e"/>
      <use x="626.806640625" xlink:href="#BitstreamVeraSans-Roman-74"/>
     </g>
    </g>
   </g>
   <g id="matplotlib.axis_6">
    <g id="ytick_7">
     <g id="line2d_51">
      <g>
       <use style="stroke:#000000;stroke-width:0.5;" x="379.05" xlink:href="#m5e9411e878" y="127.8"/>
      </g>
     </g>
     <g id="line2d_52">
      <g>
       <use style="stroke:#000000;stroke-width:0.5;" x="493.2" xlink:href="#m7adc772755" y="127.8"/>
      </g>
     </g>
     <g id="text_22">
      <!-- 0.0 -->
      <g transform="translate(359.146875 130.559375)scale(0.1 -0.1)">
       <use xlink:href="#BitstreamVeraSans-Roman-30"/>
       <use x="63.623046875" xlink:href="#BitstreamVeraSans-Roman-2e"/>
       <use x="95.41015625" xlink:href="#BitstreamVeraSans-Roman-30"/>
      </g>
     </g>
    </g>
    <g id="ytick_8">
     <g id="line2d_53">
      <g>
       <use style="stroke:#000000;stroke-width:0.5;" x="379.05" xlink:href="#m5e9411e878" y="71.55"/>
      </g>
     </g>
     <g id="line2d_54">
      <g>
       <use style="stroke:#000000;stroke-width:0.5;" x="493.2" xlink:href="#m7adc772755" y="71.55"/>
      </g>
     </g>
     <g id="text_23">
      <!-- 0.5 -->
      <g transform="translate(359.146875 74.309375)scale(0.1 -0.1)">
       <use xlink:href="#BitstreamVeraSans-Roman-30"/>
       <use x="63.623046875" xlink:href="#BitstreamVeraSans-Roman-2e"/>
       <use x="95.41015625" xlink:href="#BitstreamVeraSans-Roman-35"/>
      </g>
     </g>
    </g>
    <g id="ytick_9">
     <g id="line2d_55">
      <g>
       <use style="stroke:#000000;stroke-width:0.5;" x="379.05" xlink:href="#m5e9411e878" y="15.3"/>
      </g>
     </g>
     <g id="line2d_56">
      <g>
       <use style="stroke:#000000;stroke-width:0.5;" x="493.2" xlink:href="#m7adc772755" y="15.3"/>
      </g>
     </g>
     <g id="text_24">
      <!-- 1.0 -->
      <g transform="translate(359.146875 18.059375)scale(0.1 -0.1)">
       <use xlink:href="#BitstreamVeraSans-Roman-31"/>
       <use x="63.623046875" xlink:href="#BitstreamVeraSans-Roman-2e"/>
       <use x="95.41015625" xlink:href="#BitstreamVeraSans-Roman-30"/>
      </g>
     </g>
    </g>
    <g id="text_25">
     <!-- Cumulative Distribution -->
     <g transform="translate(352.0671875 130.8453125)rotate(-90.0)scale(0.1 -0.1)">
      <use xlink:href="#BitstreamVeraSans-Roman-43"/>
      <use x="69.82421875" xlink:href="#BitstreamVeraSans-Roman-75"/>
      <use x="133.203125" xlink:href="#BitstreamVeraSans-Roman-6d"/>
      <use x="230.615234375" xlink:href="#BitstreamVeraSans-Roman-75"/>
      <use x="293.994140625" xlink:href="#BitstreamVeraSans-Roman-6c"/>
      <use x="321.77734375" xlink:href="#BitstreamVeraSans-Roman-61"/>
      <use x="383.056640625" xlink:href="#BitstreamVeraSans-Roman-74"/>
      <use x="422.265625" xlink:href="#BitstreamVeraSans-Roman-69"/>
      <use x="450.048828125" xlink:href="#BitstreamVeraSans-Roman-76"/>
      <use x="509.228515625" xlink:href="#BitstreamVeraSans-Roman-65"/>
      <use x="570.751953125" xlink:href="#BitstreamVeraSans-Roman-20"/>
      <use x="602.5390625" xlink:href="#BitstreamVeraSans-Roman-44"/>
      <use x="679.541015625" xlink:href="#BitstreamVeraSans-Roman-69"/>
      <use x="707.32421875" xlink:href="#BitstreamVeraSans-Roman-73"/>
      <use x="759.423828125" xlink:href="#BitstreamVeraSans-Roman-74"/>
      <use x="798.6328125" xlink:href="#BitstreamVeraSans-Roman-72"/>
      <use x="839.74609375" xlink:href="#BitstreamVeraSans-Roman-69"/>
      <use x="867.529296875" xlink:href="#BitstreamVeraSans-Roman-62"/>
      <use x="931.005859375" xlink:href="#BitstreamVeraSans-Roman-75"/>
      <use x="994.384765625" xlink:href="#BitstreamVeraSans-Roman-74"/>
      <use x="1033.59375" xlink:href="#BitstreamVeraSans-Roman-69"/>
      <use x="1061.37695312" xlink:href="#BitstreamVeraSans-Roman-6f"/>
      <use x="1122.55859375" xlink:href="#BitstreamVeraSans-Roman-6e"/>
     </g>
    </g>
   </g>
  </g>
 </g>
 <defs>
  <clipPath id="p52e8e11466">
   <rect height="112.5" width="114.15" x="44.8875" y="15.3"/>
  </clipPath>
  <clipPath id="p8c1accb09b">
   <rect height="112.5" width="114.15" x="211.96875" y="15.3"/>
  </clipPath>
  <clipPath id="p8ec309c403">
   <rect height="112.5" width="114.15" x="379.05" y="15.3"/>
  </clipPath>
 </defs>
</svg>
