<?xml version="1.0" encoding="utf-8" standalone="no"?>
<!DOCTYPE svg PUBLIC "-//W3C//DTD SVG 1.1//EN"
  "http://www.w3.org/Graphics/SVG/1.1/DTD/svg11.dtd">
<!-- Created with matplotlib (http://matplotlib.org/) -->
<svg height="165pt" version="1.1" viewBox="0 0 504 165" width="504pt" xmlns="http://www.w3.org/2000/svg" xmlns:xlink="http://www.w3.org/1999/xlink">
 <defs>
  <style type="text/css">
*{stroke-linecap:butt;stroke-linejoin:round;stroke-miterlimit:100000;}
  </style>
 </defs>
 <g id="figure_1">
  <g id="patch_1">
   <path d="M 0 165.6 
L 504 165.6 
L 504 0 
L 0 0 
z
" style="fill:#ffffff;"/>
  </g>
  <g id="axes_1">
   <g id="patch_2">
    <path d="M 44.8875 127.8 
L 153.15 127.8 
L 153.15 15.3 
L 44.8875 15.3 
z
" style="fill:#ffffff;"/>
   </g>
   <g id="line2d_1">
    <path clip-path="url(#p79470b44ad)" d="M 50.980895 127.8 
L 57.888166 127.6425 
L 60.450545 127.395 
L 60.569391 127.35 
L 61.639843 127.1925 
L 62.121422 127.1025 
L 63.629868 126.7875 
L 63.960971 126.6975 
L 64.507908 126.54 
L 64.972275 126.3375 
L 65.202037 126.225 
L 65.76584 126.045 
L 66.34518 125.7525 
L 66.413352 125.7075 
L 66.661725 125.55 
L 66.922754 125.46 
L 67.135451 125.28 
L 67.43624 124.965 
L 68.056846 124.785 
L 68.715656 124.1775 
L 69.094294 124.0425 
L 69.28512 123.8625 
L 69.629728 123.5925 
L 69.759582 123.5025 
L 70.150652 123.1875 
L 70.787097 122.58 
L 70.896746 122.445 
L 71.099427 122.2875 
L 71.40215 121.95 
L 72.306 120.6675 
L 72.430779 120.4425 
L 72.789433 120.0375 
L 72.912947 119.8125 
L 73.06699 119.6325 
L 73.139857 119.475 
L 73.26813 119.295 
L 73.443808 119.0925 
L 73.568759 118.7775 
L 74.355466 117.225 
L 74.566028 116.865 
L 74.653099 116.7075 
L 74.769583 116.3925 
L 74.984699 116.055 
L 75.134182 115.5825 
L 75.244461 115.3575 
L 75.326656 115.2 
L 75.479746 114.8175 
L 75.769051 114.3225 
L 75.918835 113.94 
L 76.899472 111.51 
L 77.037364 111.0825 
L 77.105791 110.8125 
L 77.268226 110.205 
L 77.929593 108.63 
L 77.990248 108.405 
L 78.163837 107.775 
L 78.344538 107.3025 
L 78.464798 106.6275 
L 78.748981 105.84 
L 79.069554 104.7825 
L 79.142346 104.6025 
L 80.553403 99.81 
L 80.682971 99.18 
L 80.761373 98.8875 
L 80.880284 98.5275 
L 83.98575 84.87 
L 84.130682 84.15 
L 84.179035 83.9475 
L 85.01747 79.6725 
L 85.082831 79.4025 
L 85.412231 77.94 
L 85.59288 77.1525 
L 85.749794 76.545 
L 86.026734 74.9475 
L 86.200223 74.0475 
L 86.743537 71.4825 
L 86.865091 70.6725 
L 87.278158 68.2425 
L 87.531725 67.005 
L 88.646041 61.92 
L 88.847668 60.705 
L 89.027783 60.0525 
L 89.214132 59.2875 
L 89.272769 59.1075 
L 89.326995 58.815 
L 89.635538 57.4875 
L 89.767326 56.8125 
L 91.963848 47.7225 
L 92.131252 46.9125 
L 92.222509 46.6425 
L 92.403752 45.8775 
L 92.505412 45.3825 
L 92.62691 45 
L 92.779266 44.5275 
L 92.965997 43.74 
L 93.108204 43.0875 
L 93.233744 42.66 
L 93.293384 42.435 
L 93.428834 41.7375 
L 93.583255 41.22 
L 93.741334 40.59 
L 95.694844 33.975 
L 95.755102 33.7275 
L 95.86646 33.435 
L 95.955423 33.2325 
L 96.184317 32.535 
L 96.276463 32.265 
L 96.35169 32.13 
L 96.460411 31.815 
L 96.579177 31.635 
L 96.699526 31.2975 
L 96.835189 30.9825 
L 96.948982 30.7575 
L 97.107063 30.5325 
L 97.271278 30.1725 
L 97.45374 29.745 
L 98.377684 27.6075 
L 98.491561 27.27 
L 100.126956 23.6925 
L 100.247146 23.535 
L 100.329902 23.4 
L 100.460957 23.1975 
L 100.577737 22.9275 
L 100.686171 22.7925 
L 100.824042 22.455 
L 101.204485 21.9825 
L 101.289778 21.8925 
L 101.484897 21.6675 
L 101.602297 21.4425 
L 101.80241 21.285 
L 102.513063 20.3175 
L 102.570356 20.205 
L 102.710425 20.0475 
L 102.803563 19.935 
L 103.282107 19.5525 
L 103.458256 19.395 
L 104.292824 18.7425 
L 104.551941 18.495 
L 104.99325 18.27 
L 105.121303 18.18 
L 105.318936 18.0225 
L 105.488928 17.91 
L 106.039789 17.7525 
L 106.199419 17.6625 
L 106.390059 17.5275 
L 106.716796 17.37 
L 106.803705 17.325 
L 108.100245 16.6725 
L 108.67508 16.425 
L 109.272602 16.3125 
L 110.040597 16.1775 
L 110.727088 15.9525 
L 110.736019 15.93 
L 114.075447 15.525 
L 121.06061 15.3225 
L 121.06061 15.3225 
" style="fill:none;stroke:#ff0000;stroke-linecap:square;"/>
   </g>
   <g id="line2d_2">
    <path clip-path="url(#p79470b44ad)" d="M 67.429492 127.8 
L 67.429492 15.3 
" style="fill:none;stroke:#ff0000;stroke-linecap:square;"/>
   </g>
   <g id="line2d_3">
    <path clip-path="url(#p79470b44ad)" d="M 105.272947 127.8 
L 105.272947 15.3 
" style="fill:none;stroke:#ff0000;stroke-linecap:square;"/>
   </g>
   <g id="line2d_4">
    <path clip-path="url(#p79470b44ad)" d="M 66.351816 127.8 
L 73.5488 127.62 
L 74.894312 127.4625 
L 74.92267 127.44 
L 76.607071 127.26 
L 76.622966 127.2375 
L 78.217369 127.0575 
L 78.253035 127.035 
L 79.151856 126.855 
L 80.318768 126.585 
L 80.660049 126.495 
L 81.371018 126.3375 
L 82.718745 125.82 
L 82.759869 125.775 
L 82.953493 125.6175 
L 83.070026 125.505 
L 83.48858 125.3475 
L 83.969119 125.1225 
L 84.3395 124.965 
L 84.684619 124.83 
L 85.045284 124.6725 
L 85.2806 124.515 
L 86.157057 123.8175 
L 86.265263 123.705 
L 86.882475 123.165 
L 87.03592 123.03 
L 87.671655 122.6475 
L 87.837113 122.5125 
L 88.138966 122.22 
L 88.30494 121.995 
L 88.416652 121.7475 
L 90.662735 119.3625 
L 90.862621 119.115 
L 91.10448 118.9125 
L 91.235237 118.6875 
L 91.48224 118.3725 
L 91.604733 118.215 
L 91.708375 118.035 
L 91.818675 117.8325 
L 92.359136 117.0225 
L 92.515925 116.775 
L 92.637182 116.5275 
L 93.281558 115.2 
L 93.389532 115.0425 
L 94.423486 112.77 
L 94.486954 112.6125 
L 94.719576 112.05 
L 95.079066 111.5325 
L 95.346026 110.8575 
L 95.590953 110.5425 
L 95.725986 110.07 
L 95.828903 109.89 
L 95.975509 109.53 
L 96.112572 109.3725 
L 96.26949 108.9675 
L 96.392779 108.7875 
L 96.672609 107.7975 
L 96.753448 107.5725 
L 96.8788 107.235 
L 97.015722 106.875 
L 97.530934 105.2325 
L 97.639131 105.0075 
L 98.459486 102.735 
L 98.596884 102.51 
L 98.905099 101.6775 
L 99.429307 100.0125 
L 99.525212 99.855 
L 99.679061 99.2025 
L 99.858111 98.73 
L 100.071487 98.28 
L 100.802408 95.895 
L 100.873258 95.6925 
L 100.992704 95.1975 
L 101.15282 94.77 
L 101.480811 93.3525 
L 102.796006 88.0425 
L 102.941558 87.2775 
L 104.349447 81.945 
L 104.561002 81.36 
L 104.740171 80.7075 
L 104.896433 80.28 
L 105.00301 79.8975 
L 105.277615 78.615 
L 105.433531 78.12 
L 105.578796 77.5575 
L 105.709935 77.0175 
L 105.986517 75.735 
L 106.572061 73.5075 
L 106.664883 73.35 
L 106.793832 72.6975 
L 106.851924 72.405 
L 106.990526 71.82 
L 107.192464 70.92 
L 107.299286 70.5375 
L 107.410909 69.9075 
L 107.508525 69.705 
L 107.645263 69.03 
L 107.698866 68.8725 
L 107.748101 68.67 
L 107.85799 68.1075 
L 108.246455 66.5775 
L 108.390301 65.88 
L 108.480357 65.6325 
L 108.618862 65.115 
L 109.558507 61.6725 
L 109.701851 61.3125 
L 109.769158 61.065 
L 109.910745 60.2775 
L 109.974549 60.03 
L 110.083441 59.5125 
L 110.310071 58.815 
L 110.411442 58.32 
L 110.500696 57.9825 
L 110.904138 56.7 
L 111.055319 56.115 
L 111.169606 55.71 
L 111.392329 54.81 
L 111.491889 54.495 
L 111.664415 53.955 
L 111.702269 53.73 
L 111.973712 52.785 
L 112.09576 52.6275 
L 112.273481 52.065 
L 112.388349 51.615 
L 112.477548 51.21 
L 112.569088 50.895 
L 112.635769 50.6925 
L 112.734223 50.4 
L 112.775968 50.1975 
L 113.438791 47.7225 
L 113.653595 47.205 
L 113.877447 46.4175 
L 114.00923 46.0125 
L 114.569024 44.01 
L 114.6462 43.83 
L 114.951966 42.615 
L 115.063937 42.2775 
L 115.212218 41.7825 
L 115.340825 41.2875 
L 115.737531 40.1175 
L 115.811911 39.87 
L 116.030805 39.24 
L 116.211231 38.9475 
L 116.364608 38.2725 
L 116.431461 38.115 
L 116.591646 37.5975 
L 116.706965 37.1925 
L 116.897559 36.6075 
L 117.023166 36.315 
L 117.132993 35.955 
L 117.233708 35.7525 
L 117.340781 35.505 
L 117.392912 35.325 
L 117.600412 34.7175 
L 117.76563 34.3125 
L 117.86082 34.0875 
L 118.037069 33.6825 
L 118.207058 33.1875 
L 118.487311 32.58 
L 118.733293 31.995 
L 118.860709 31.68 
L 122.665627 24.21 
L 122.92784 24.03 
L 123.322358 23.3325 
L 123.425912 23.1525 
L 124.363301 22.0275 
L 124.511845 21.8025 
L 124.673521 21.6 
L 125.258107 21.195 
L 125.842914 20.4075 
L 125.968616 20.3175 
L 126.159842 20.2275 
L 126.557707 19.8225 
L 126.865989 19.62 
L 127.150447 19.3275 
L 127.37188 19.035 
L 127.404394 18.99 
L 127.800335 18.81 
L 127.965722 18.675 
L 128.30068 18.45 
L 130.072213 17.37 
L 131.188742 16.9425 
L 131.263985 16.8525 
L 135.498775 15.795 
L 140.059548 15.4125 
L 140.078551 15.39 
L 150.021916 15.3225 
L 150.021916 15.3225 
" style="fill:none;stroke:#0000ff;stroke-linecap:square;"/>
   </g>
   <g id="line2d_5">
    <path clip-path="url(#p79470b44ad)" d="M 84.30958 127.8 
L 84.30958 15.3 
" style="fill:none;stroke:#0000ff;stroke-dasharray:6.000000,6.000000;stroke-dashoffset:0.0;"/>
   </g>
   <g id="line2d_6">
    <path clip-path="url(#p79470b44ad)" d="M 128.765283 127.8 
L 128.765283 15.3 
" style="fill:none;stroke:#0000ff;stroke-dasharray:6.000000,6.000000;stroke-dashoffset:0.0;"/>
   </g>
   <g id="patch_3">
    <path d="M 44.8875 15.3 
L 153.15 15.3 
" style="fill:none;stroke:#000000;stroke-linecap:square;stroke-linejoin:miter;"/>
   </g>
   <g id="patch_4">
    <path d="M 153.15 127.8 
L 153.15 15.3 
" style="fill:none;stroke:#000000;stroke-linecap:square;stroke-linejoin:miter;"/>
   </g>
   <g id="patch_5">
    <path d="M 44.8875 127.8 
L 153.15 127.8 
" style="fill:none;stroke:#000000;stroke-linecap:square;stroke-linejoin:miter;"/>
   </g>
   <g id="patch_6">
    <path d="M 44.8875 127.8 
L 44.8875 15.3 
" style="fill:none;stroke:#000000;stroke-linecap:square;stroke-linejoin:miter;"/>
   </g>
   <g id="matplotlib.axis_1">
    <g id="xtick_1">
     <g id="line2d_7">
      <defs>
       <path d="M 0 0 
L 0 -4 
" id="m4ed3ca9dc9" style="stroke:#000000;stroke-width:0.5;"/>
      </defs>
      <g>
       <use style="stroke:#000000;stroke-width:0.5;" x="44.8875" xlink:href="#m4ed3ca9dc9" y="127.8"/>
      </g>
     </g>
     <g id="line2d_8">
      <defs>
       <path d="M 0 0 
L 0 4 
" id="m5170dc7d11" style="stroke:#000000;stroke-width:0.5;"/>
      </defs>
      <g>
       <use style="stroke:#000000;stroke-width:0.5;" x="44.8875" xlink:href="#m5170dc7d11" y="15.3"/>
      </g>
     </g>
     <g id="text_1">
      <!-- 0.50 -->
      <defs>
       <path d="M 31.78125 66.40625 
Q 24.171875 66.40625 20.328125 58.90625 
Q 16.5 51.421875 16.5 36.375 
Q 16.5 21.390625 20.328125 13.890625 
Q 24.171875 6.390625 31.78125 6.390625 
Q 39.453125 6.390625 43.28125 13.890625 
Q 47.125 21.390625 47.125 36.375 
Q 47.125 51.421875 43.28125 58.90625 
Q 39.453125 66.40625 31.78125 66.40625 
M 31.78125 74.21875 
Q 44.046875 74.21875 50.515625 64.515625 
Q 56.984375 54.828125 56.984375 36.375 
Q 56.984375 17.96875 50.515625 8.265625 
Q 44.046875 -1.421875 31.78125 -1.421875 
Q 19.53125 -1.421875 13.0625 8.265625 
Q 6.59375 17.96875 6.59375 36.375 
Q 6.59375 54.828125 13.0625 64.515625 
Q 19.53125 74.21875 31.78125 74.21875 
" id="BitstreamVeraSans-Roman-30"/>
       <path d="M 10.6875 12.40625 
L 21 12.40625 
L 21 0 
L 10.6875 0 
z
" id="BitstreamVeraSans-Roman-2e"/>
       <path d="M 10.796875 72.90625 
L 49.515625 72.90625 
L 49.515625 64.59375 
L 19.828125 64.59375 
L 19.828125 46.734375 
Q 21.96875 47.46875 24.109375 47.828125 
Q 26.265625 48.1875 28.421875 48.1875 
Q 40.625 48.1875 47.75 41.5 
Q 54.890625 34.8125 54.890625 23.390625 
Q 54.890625 11.625 47.5625 5.09375 
Q 40.234375 -1.421875 26.90625 -1.421875 
Q 22.3125 -1.421875 17.546875 -0.640625 
Q 12.796875 0.140625 7.71875 1.703125 
L 7.71875 11.625 
Q 12.109375 9.234375 16.796875 8.0625 
Q 21.484375 6.890625 26.703125 6.890625 
Q 35.15625 6.890625 40.078125 11.328125 
Q 45.015625 15.765625 45.015625 23.390625 
Q 45.015625 31 40.078125 35.4375 
Q 35.15625 39.890625 26.703125 39.890625 
Q 22.75 39.890625 18.8125 39.015625 
Q 14.890625 38.140625 10.796875 36.28125 
z
" id="BitstreamVeraSans-Roman-35"/>
      </defs>
      <g transform="translate(33.7546875 139.3984375)scale(0.1 -0.1)">
       <use xlink:href="#BitstreamVeraSans-Roman-30"/>
       <use x="63.623046875" xlink:href="#BitstreamVeraSans-Roman-2e"/>
       <use x="95.41015625" xlink:href="#BitstreamVeraSans-Roman-35"/>
       <use x="159.033203125" xlink:href="#BitstreamVeraSans-Roman-30"/>
      </g>
     </g>
    </g>
    <g id="xtick_2">
     <g id="line2d_9">
      <g>
       <use style="stroke:#000000;stroke-width:0.5;" x="66.54" xlink:href="#m4ed3ca9dc9" y="127.8"/>
      </g>
     </g>
     <g id="line2d_10">
      <g>
       <use style="stroke:#000000;stroke-width:0.5;" x="66.54" xlink:href="#m5170dc7d11" y="15.3"/>
      </g>
     </g>
     <g id="text_2">
      <!-- 0.55 -->
      <g transform="translate(55.4071875 139.3984375)scale(0.1 -0.1)">
       <use xlink:href="#BitstreamVeraSans-Roman-30"/>
       <use x="63.623046875" xlink:href="#BitstreamVeraSans-Roman-2e"/>
       <use x="95.41015625" xlink:href="#BitstreamVeraSans-Roman-35"/>
       <use x="159.033203125" xlink:href="#BitstreamVeraSans-Roman-35"/>
      </g>
     </g>
    </g>
    <g id="xtick_3">
     <g id="line2d_11">
      <g>
       <use style="stroke:#000000;stroke-width:0.5;" x="88.1925" xlink:href="#m4ed3ca9dc9" y="127.8"/>
      </g>
     </g>
     <g id="line2d_12">
      <g>
       <use style="stroke:#000000;stroke-width:0.5;" x="88.1925" xlink:href="#m5170dc7d11" y="15.3"/>
      </g>
     </g>
     <g id="text_3">
      <!-- 0.60 -->
      <defs>
       <path d="M 33.015625 40.375 
Q 26.375 40.375 22.484375 35.828125 
Q 18.609375 31.296875 18.609375 23.390625 
Q 18.609375 15.53125 22.484375 10.953125 
Q 26.375 6.390625 33.015625 6.390625 
Q 39.65625 6.390625 43.53125 10.953125 
Q 47.40625 15.53125 47.40625 23.390625 
Q 47.40625 31.296875 43.53125 35.828125 
Q 39.65625 40.375 33.015625 40.375 
M 52.59375 71.296875 
L 52.59375 62.3125 
Q 48.875 64.0625 45.09375 64.984375 
Q 41.3125 65.921875 37.59375 65.921875 
Q 27.828125 65.921875 22.671875 59.328125 
Q 17.53125 52.734375 16.796875 39.40625 
Q 19.671875 43.65625 24.015625 45.921875 
Q 28.375 48.1875 33.59375 48.1875 
Q 44.578125 48.1875 50.953125 41.515625 
Q 57.328125 34.859375 57.328125 23.390625 
Q 57.328125 12.15625 50.6875 5.359375 
Q 44.046875 -1.421875 33.015625 -1.421875 
Q 20.359375 -1.421875 13.671875 8.265625 
Q 6.984375 17.96875 6.984375 36.375 
Q 6.984375 53.65625 15.1875 63.9375 
Q 23.390625 74.21875 37.203125 74.21875 
Q 40.921875 74.21875 44.703125 73.484375 
Q 48.484375 72.75 52.59375 71.296875 
" id="BitstreamVeraSans-Roman-36"/>
      </defs>
      <g transform="translate(77.0596875 139.3984375)scale(0.1 -0.1)">
       <use xlink:href="#BitstreamVeraSans-Roman-30"/>
       <use x="63.623046875" xlink:href="#BitstreamVeraSans-Roman-2e"/>
       <use x="95.41015625" xlink:href="#BitstreamVeraSans-Roman-36"/>
       <use x="159.033203125" xlink:href="#BitstreamVeraSans-Roman-30"/>
      </g>
     </g>
    </g>
    <g id="xtick_4">
     <g id="line2d_13">
      <g>
       <use style="stroke:#000000;stroke-width:0.5;" x="109.845" xlink:href="#m4ed3ca9dc9" y="127.8"/>
      </g>
     </g>
     <g id="line2d_14">
      <g>
       <use style="stroke:#000000;stroke-width:0.5;" x="109.845" xlink:href="#m5170dc7d11" y="15.3"/>
      </g>
     </g>
     <g id="text_4">
      <!-- 0.65 -->
      <g transform="translate(98.7121875 139.3984375)scale(0.1 -0.1)">
       <use xlink:href="#BitstreamVeraSans-Roman-30"/>
       <use x="63.623046875" xlink:href="#BitstreamVeraSans-Roman-2e"/>
       <use x="95.41015625" xlink:href="#BitstreamVeraSans-Roman-36"/>
       <use x="159.033203125" xlink:href="#BitstreamVeraSans-Roman-35"/>
      </g>
     </g>
    </g>
    <g id="xtick_5">
     <g id="line2d_15">
      <g>
       <use style="stroke:#000000;stroke-width:0.5;" x="131.4975" xlink:href="#m4ed3ca9dc9" y="127.8"/>
      </g>
     </g>
     <g id="line2d_16">
      <g>
       <use style="stroke:#000000;stroke-width:0.5;" x="131.4975" xlink:href="#m5170dc7d11" y="15.3"/>
      </g>
     </g>
     <g id="text_5">
      <!-- 0.70 -->
      <defs>
       <path d="M 8.203125 72.90625 
L 55.078125 72.90625 
L 55.078125 68.703125 
L 28.609375 0 
L 18.3125 0 
L 43.21875 64.59375 
L 8.203125 64.59375 
z
" id="BitstreamVeraSans-Roman-37"/>
      </defs>
      <g transform="translate(120.3646875 139.3984375)scale(0.1 -0.1)">
       <use xlink:href="#BitstreamVeraSans-Roman-30"/>
       <use x="63.623046875" xlink:href="#BitstreamVeraSans-Roman-2e"/>
       <use x="95.41015625" xlink:href="#BitstreamVeraSans-Roman-37"/>
       <use x="159.033203125" xlink:href="#BitstreamVeraSans-Roman-30"/>
      </g>
     </g>
    </g>
    <g id="xtick_6">
     <g id="line2d_17">
      <g>
       <use style="stroke:#000000;stroke-width:0.5;" x="153.15" xlink:href="#m4ed3ca9dc9" y="127.8"/>
      </g>
     </g>
     <g id="line2d_18">
      <g>
       <use style="stroke:#000000;stroke-width:0.5;" x="153.15" xlink:href="#m5170dc7d11" y="15.3"/>
      </g>
     </g>
     <g id="text_6">
      <!-- 0.75 -->
      <g transform="translate(142.0171875 139.3984375)scale(0.1 -0.1)">
       <use xlink:href="#BitstreamVeraSans-Roman-30"/>
       <use x="63.623046875" xlink:href="#BitstreamVeraSans-Roman-2e"/>
       <use x="95.41015625" xlink:href="#BitstreamVeraSans-Roman-37"/>
       <use x="159.033203125" xlink:href="#BitstreamVeraSans-Roman-35"/>
      </g>
     </g>
    </g>
    <g id="text_7">
     <!-- X component -->
     <defs>
      <path id="BitstreamVeraSans-Roman-20"/>
      <path d="M 54.890625 33.015625 
L 54.890625 0 
L 45.90625 0 
L 45.90625 32.71875 
Q 45.90625 40.484375 42.875 44.328125 
Q 39.84375 48.1875 33.796875 48.1875 
Q 26.515625 48.1875 22.3125 43.546875 
Q 18.109375 38.921875 18.109375 30.90625 
L 18.109375 0 
L 9.078125 0 
L 9.078125 54.6875 
L 18.109375 54.6875 
L 18.109375 46.1875 
Q 21.34375 51.125 25.703125 53.5625 
Q 30.078125 56 35.796875 56 
Q 45.21875 56 50.046875 50.171875 
Q 54.890625 44.34375 54.890625 33.015625 
" id="BitstreamVeraSans-Roman-6e"/>
      <path d="M 52 44.1875 
Q 55.375 50.25 60.0625 53.125 
Q 64.75 56 71.09375 56 
Q 79.640625 56 84.28125 50.015625 
Q 88.921875 44.046875 88.921875 33.015625 
L 88.921875 0 
L 79.890625 0 
L 79.890625 32.71875 
Q 79.890625 40.578125 77.09375 44.375 
Q 74.3125 48.1875 68.609375 48.1875 
Q 61.625 48.1875 57.5625 43.546875 
Q 53.515625 38.921875 53.515625 30.90625 
L 53.515625 0 
L 44.484375 0 
L 44.484375 32.71875 
Q 44.484375 40.625 41.703125 44.40625 
Q 38.921875 48.1875 33.109375 48.1875 
Q 26.21875 48.1875 22.15625 43.53125 
Q 18.109375 38.875 18.109375 30.90625 
L 18.109375 0 
L 9.078125 0 
L 9.078125 54.6875 
L 18.109375 54.6875 
L 18.109375 46.1875 
Q 21.1875 51.21875 25.484375 53.609375 
Q 29.78125 56 35.6875 56 
Q 41.65625 56 45.828125 52.96875 
Q 50 49.953125 52 44.1875 
" id="BitstreamVeraSans-Roman-6d"/>
      <path d="M 30.609375 48.390625 
Q 23.390625 48.390625 19.1875 42.75 
Q 14.984375 37.109375 14.984375 27.296875 
Q 14.984375 17.484375 19.15625 11.84375 
Q 23.34375 6.203125 30.609375 6.203125 
Q 37.796875 6.203125 41.984375 11.859375 
Q 46.1875 17.53125 46.1875 27.296875 
Q 46.1875 37.015625 41.984375 42.703125 
Q 37.796875 48.390625 30.609375 48.390625 
M 30.609375 56 
Q 42.328125 56 49.015625 48.375 
Q 55.71875 40.765625 55.71875 27.296875 
Q 55.71875 13.875 49.015625 6.21875 
Q 42.328125 -1.421875 30.609375 -1.421875 
Q 18.84375 -1.421875 12.171875 6.21875 
Q 5.515625 13.875 5.515625 27.296875 
Q 5.515625 40.765625 12.171875 48.375 
Q 18.84375 56 30.609375 56 
" id="BitstreamVeraSans-Roman-6f"/>
      <path d="M 56.203125 29.59375 
L 56.203125 25.203125 
L 14.890625 25.203125 
Q 15.484375 15.921875 20.484375 11.0625 
Q 25.484375 6.203125 34.421875 6.203125 
Q 39.59375 6.203125 44.453125 7.46875 
Q 49.3125 8.734375 54.109375 11.28125 
L 54.109375 2.78125 
Q 49.265625 0.734375 44.1875 -0.34375 
Q 39.109375 -1.421875 33.890625 -1.421875 
Q 20.796875 -1.421875 13.15625 6.1875 
Q 5.515625 13.8125 5.515625 26.8125 
Q 5.515625 40.234375 12.765625 48.109375 
Q 20.015625 56 32.328125 56 
Q 43.359375 56 49.78125 48.890625 
Q 56.203125 41.796875 56.203125 29.59375 
M 47.21875 32.234375 
Q 47.125 39.59375 43.09375 43.984375 
Q 39.0625 48.390625 32.421875 48.390625 
Q 24.90625 48.390625 20.390625 44.140625 
Q 15.875 39.890625 15.1875 32.171875 
z
" id="BitstreamVeraSans-Roman-65"/>
      <path d="M 48.78125 52.59375 
L 48.78125 44.1875 
Q 44.96875 46.296875 41.140625 47.34375 
Q 37.3125 48.390625 33.40625 48.390625 
Q 24.65625 48.390625 19.8125 42.84375 
Q 14.984375 37.3125 14.984375 27.296875 
Q 14.984375 17.28125 19.8125 11.734375 
Q 24.65625 6.203125 33.40625 6.203125 
Q 37.3125 6.203125 41.140625 7.25 
Q 44.96875 8.296875 48.78125 10.40625 
L 48.78125 2.09375 
Q 45.015625 0.34375 40.984375 -0.53125 
Q 36.96875 -1.421875 32.421875 -1.421875 
Q 20.0625 -1.421875 12.78125 6.34375 
Q 5.515625 14.109375 5.515625 27.296875 
Q 5.515625 40.671875 12.859375 48.328125 
Q 20.21875 56 33.015625 56 
Q 37.15625 56 41.109375 55.140625 
Q 45.0625 54.296875 48.78125 52.59375 
" id="BitstreamVeraSans-Roman-63"/>
      <path d="M 6.296875 72.90625 
L 16.890625 72.90625 
L 35.015625 45.796875 
L 53.21875 72.90625 
L 63.8125 72.90625 
L 40.375 37.890625 
L 65.375 0 
L 54.78125 0 
L 34.28125 31 
L 13.625 0 
L 2.984375 0 
L 29 38.921875 
z
" id="BitstreamVeraSans-Roman-58"/>
      <path d="M 18.3125 70.21875 
L 18.3125 54.6875 
L 36.8125 54.6875 
L 36.8125 47.703125 
L 18.3125 47.703125 
L 18.3125 18.015625 
Q 18.3125 11.328125 20.140625 9.421875 
Q 21.96875 7.515625 27.59375 7.515625 
L 36.8125 7.515625 
L 36.8125 0 
L 27.59375 0 
Q 17.1875 0 13.234375 3.875 
Q 9.28125 7.765625 9.28125 18.015625 
L 9.28125 47.703125 
L 2.6875 47.703125 
L 2.6875 54.6875 
L 9.28125 54.6875 
L 9.28125 70.21875 
z
" id="BitstreamVeraSans-Roman-74"/>
      <path d="M 18.109375 8.203125 
L 18.109375 -20.796875 
L 9.078125 -20.796875 
L 9.078125 54.6875 
L 18.109375 54.6875 
L 18.109375 46.390625 
Q 20.953125 51.265625 25.265625 53.625 
Q 29.59375 56 35.59375 56 
Q 45.5625 56 51.78125 48.09375 
Q 58.015625 40.1875 58.015625 27.296875 
Q 58.015625 14.40625 51.78125 6.484375 
Q 45.5625 -1.421875 35.59375 -1.421875 
Q 29.59375 -1.421875 25.265625 0.953125 
Q 20.953125 3.328125 18.109375 8.203125 
M 48.6875 27.296875 
Q 48.6875 37.203125 44.609375 42.84375 
Q 40.53125 48.484375 33.40625 48.484375 
Q 26.265625 48.484375 22.1875 42.84375 
Q 18.109375 37.203125 18.109375 27.296875 
Q 18.109375 17.390625 22.1875 11.75 
Q 26.265625 6.109375 33.40625 6.109375 
Q 40.53125 6.109375 44.609375 11.75 
Q 48.6875 17.390625 48.6875 27.296875 
" id="BitstreamVeraSans-Roman-70"/>
     </defs>
     <g transform="translate(65.71796875 154.0765625)scale(0.1 -0.1)">
      <use xlink:href="#BitstreamVeraSans-Roman-58"/>
      <use x="68.505859375" xlink:href="#BitstreamVeraSans-Roman-20"/>
      <use x="100.29296875" xlink:href="#BitstreamVeraSans-Roman-63"/>
      <use x="155.2734375" xlink:href="#BitstreamVeraSans-Roman-6f"/>
      <use x="216.455078125" xlink:href="#BitstreamVeraSans-Roman-6d"/>
      <use x="313.8671875" xlink:href="#BitstreamVeraSans-Roman-70"/>
      <use x="377.34375" xlink:href="#BitstreamVeraSans-Roman-6f"/>
      <use x="438.525390625" xlink:href="#BitstreamVeraSans-Roman-6e"/>
      <use x="501.904296875" xlink:href="#BitstreamVeraSans-Roman-65"/>
      <use x="563.427734375" xlink:href="#BitstreamVeraSans-Roman-6e"/>
      <use x="626.806640625" xlink:href="#BitstreamVeraSans-Roman-74"/>
     </g>
    </g>
   </g>
   <g id="matplotlib.axis_2">
    <g id="ytick_1">
     <g id="line2d_19">
      <defs>
       <path d="M 0 0 
L 4 0 
" id="ma23cb4ed13" style="stroke:#000000;stroke-width:0.5;"/>
      </defs>
      <g>
       <use style="stroke:#000000;stroke-width:0.5;" x="44.8875" xlink:href="#ma23cb4ed13" y="127.8"/>
      </g>
     </g>
     <g id="line2d_20">
      <defs>
       <path d="M 0 0 
L -4 0 
" id="m6a96013a0f" style="stroke:#000000;stroke-width:0.5;"/>
      </defs>
      <g>
       <use style="stroke:#000000;stroke-width:0.5;" x="153.15" xlink:href="#m6a96013a0f" y="127.8"/>
      </g>
     </g>
     <g id="text_8">
      <!-- 0.0 -->
      <g transform="translate(24.984375 130.559375)scale(0.1 -0.1)">
       <use xlink:href="#BitstreamVeraSans-Roman-30"/>
       <use x="63.623046875" xlink:href="#BitstreamVeraSans-Roman-2e"/>
       <use x="95.41015625" xlink:href="#BitstreamVeraSans-Roman-30"/>
      </g>
     </g>
    </g>
    <g id="ytick_2">
     <g id="line2d_21">
      <g>
       <use style="stroke:#000000;stroke-width:0.5;" x="44.8875" xlink:href="#ma23cb4ed13" y="105.3"/>
      </g>
     </g>
     <g id="line2d_22">
      <g>
       <use style="stroke:#000000;stroke-width:0.5;" x="153.15" xlink:href="#m6a96013a0f" y="105.3"/>
      </g>
     </g>
     <g id="text_9">
      <!-- 0.2 -->
      <defs>
       <path d="M 19.1875 8.296875 
L 53.609375 8.296875 
L 53.609375 0 
L 7.328125 0 
L 7.328125 8.296875 
Q 12.9375 14.109375 22.625 23.890625 
Q 32.328125 33.6875 34.8125 36.53125 
Q 39.546875 41.84375 41.421875 45.53125 
Q 43.3125 49.21875 43.3125 52.78125 
Q 43.3125 58.59375 39.234375 62.25 
Q 35.15625 65.921875 28.609375 65.921875 
Q 23.96875 65.921875 18.8125 64.3125 
Q 13.671875 62.703125 7.8125 59.421875 
L 7.8125 69.390625 
Q 13.765625 71.78125 18.9375 73 
Q 24.125 74.21875 28.421875 74.21875 
Q 39.75 74.21875 46.484375 68.546875 
Q 53.21875 62.890625 53.21875 53.421875 
Q 53.21875 48.921875 51.53125 44.890625 
Q 49.859375 40.875 45.40625 35.40625 
Q 44.1875 33.984375 37.640625 27.21875 
Q 31.109375 20.453125 19.1875 8.296875 
" id="BitstreamVeraSans-Roman-32"/>
      </defs>
      <g transform="translate(24.984375 108.059375)scale(0.1 -0.1)">
       <use xlink:href="#BitstreamVeraSans-Roman-30"/>
       <use x="63.623046875" xlink:href="#BitstreamVeraSans-Roman-2e"/>
       <use x="95.41015625" xlink:href="#BitstreamVeraSans-Roman-32"/>
      </g>
     </g>
    </g>
    <g id="ytick_3">
     <g id="line2d_23">
      <g>
       <use style="stroke:#000000;stroke-width:0.5;" x="44.8875" xlink:href="#ma23cb4ed13" y="82.8"/>
      </g>
     </g>
     <g id="line2d_24">
      <g>
       <use style="stroke:#000000;stroke-width:0.5;" x="153.15" xlink:href="#m6a96013a0f" y="82.8"/>
      </g>
     </g>
     <g id="text_10">
      <!-- 0.4 -->
      <defs>
       <path d="M 37.796875 64.3125 
L 12.890625 25.390625 
L 37.796875 25.390625 
z
M 35.203125 72.90625 
L 47.609375 72.90625 
L 47.609375 25.390625 
L 58.015625 25.390625 
L 58.015625 17.1875 
L 47.609375 17.1875 
L 47.609375 0 
L 37.796875 0 
L 37.796875 17.1875 
L 4.890625 17.1875 
L 4.890625 26.703125 
z
" id="BitstreamVeraSans-Roman-34"/>
      </defs>
      <g transform="translate(24.984375 85.559375)scale(0.1 -0.1)">
       <use xlink:href="#BitstreamVeraSans-Roman-30"/>
       <use x="63.623046875" xlink:href="#BitstreamVeraSans-Roman-2e"/>
       <use x="95.41015625" xlink:href="#BitstreamVeraSans-Roman-34"/>
      </g>
     </g>
    </g>
    <g id="ytick_4">
     <g id="line2d_25">
      <g>
       <use style="stroke:#000000;stroke-width:0.5;" x="44.8875" xlink:href="#ma23cb4ed13" y="60.3"/>
      </g>
     </g>
     <g id="line2d_26">
      <g>
       <use style="stroke:#000000;stroke-width:0.5;" x="153.15" xlink:href="#m6a96013a0f" y="60.3"/>
      </g>
     </g>
     <g id="text_11">
      <!-- 0.6 -->
      <g transform="translate(24.984375 63.059375)scale(0.1 -0.1)">
       <use xlink:href="#BitstreamVeraSans-Roman-30"/>
       <use x="63.623046875" xlink:href="#BitstreamVeraSans-Roman-2e"/>
       <use x="95.41015625" xlink:href="#BitstreamVeraSans-Roman-36"/>
      </g>
     </g>
    </g>
    <g id="ytick_5">
     <g id="line2d_27">
      <g>
       <use style="stroke:#000000;stroke-width:0.5;" x="44.8875" xlink:href="#ma23cb4ed13" y="37.8"/>
      </g>
     </g>
     <g id="line2d_28">
      <g>
       <use style="stroke:#000000;stroke-width:0.5;" x="153.15" xlink:href="#m6a96013a0f" y="37.8"/>
      </g>
     </g>
     <g id="text_12">
      <!-- 0.8 -->
      <defs>
       <path d="M 31.78125 34.625 
Q 24.75 34.625 20.71875 30.859375 
Q 16.703125 27.09375 16.703125 20.515625 
Q 16.703125 13.921875 20.71875 10.15625 
Q 24.75 6.390625 31.78125 6.390625 
Q 38.8125 6.390625 42.859375 10.171875 
Q 46.921875 13.96875 46.921875 20.515625 
Q 46.921875 27.09375 42.890625 30.859375 
Q 38.875 34.625 31.78125 34.625 
M 21.921875 38.8125 
Q 15.578125 40.375 12.03125 44.71875 
Q 8.5 49.078125 8.5 55.328125 
Q 8.5 64.0625 14.71875 69.140625 
Q 20.953125 74.21875 31.78125 74.21875 
Q 42.671875 74.21875 48.875 69.140625 
Q 55.078125 64.0625 55.078125 55.328125 
Q 55.078125 49.078125 51.53125 44.71875 
Q 48 40.375 41.703125 38.8125 
Q 48.828125 37.15625 52.796875 32.3125 
Q 56.78125 27.484375 56.78125 20.515625 
Q 56.78125 9.90625 50.3125 4.234375 
Q 43.84375 -1.421875 31.78125 -1.421875 
Q 19.734375 -1.421875 13.25 4.234375 
Q 6.78125 9.90625 6.78125 20.515625 
Q 6.78125 27.484375 10.78125 32.3125 
Q 14.796875 37.15625 21.921875 38.8125 
M 18.3125 54.390625 
Q 18.3125 48.734375 21.84375 45.5625 
Q 25.390625 42.390625 31.78125 42.390625 
Q 38.140625 42.390625 41.71875 45.5625 
Q 45.3125 48.734375 45.3125 54.390625 
Q 45.3125 60.0625 41.71875 63.234375 
Q 38.140625 66.40625 31.78125 66.40625 
Q 25.390625 66.40625 21.84375 63.234375 
Q 18.3125 60.0625 18.3125 54.390625 
" id="BitstreamVeraSans-Roman-38"/>
      </defs>
      <g transform="translate(24.984375 40.559375)scale(0.1 -0.1)">
       <use xlink:href="#BitstreamVeraSans-Roman-30"/>
       <use x="63.623046875" xlink:href="#BitstreamVeraSans-Roman-2e"/>
       <use x="95.41015625" xlink:href="#BitstreamVeraSans-Roman-38"/>
      </g>
     </g>
    </g>
    <g id="ytick_6">
     <g id="line2d_29">
      <g>
       <use style="stroke:#000000;stroke-width:0.5;" x="44.8875" xlink:href="#ma23cb4ed13" y="15.3"/>
      </g>
     </g>
     <g id="line2d_30">
      <g>
       <use style="stroke:#000000;stroke-width:0.5;" x="153.15" xlink:href="#m6a96013a0f" y="15.3"/>
      </g>
     </g>
     <g id="text_13">
      <!-- 1.0 -->
      <defs>
       <path d="M 12.40625 8.296875 
L 28.515625 8.296875 
L 28.515625 63.921875 
L 10.984375 60.40625 
L 10.984375 69.390625 
L 28.421875 72.90625 
L 38.28125 72.90625 
L 38.28125 8.296875 
L 54.390625 8.296875 
L 54.390625 0 
L 12.40625 0 
z
" id="BitstreamVeraSans-Roman-31"/>
      </defs>
      <g transform="translate(24.984375 18.059375)scale(0.1 -0.1)">
       <use xlink:href="#BitstreamVeraSans-Roman-31"/>
       <use x="63.623046875" xlink:href="#BitstreamVeraSans-Roman-2e"/>
       <use x="95.41015625" xlink:href="#BitstreamVeraSans-Roman-30"/>
      </g>
     </g>
    </g>
    <g id="text_14">
     <!-- Cumulative Distribution -->
     <defs>
      <path d="M 41.109375 46.296875 
Q 39.59375 47.171875 37.8125 47.578125 
Q 36.03125 48 33.890625 48 
Q 26.265625 48 22.1875 43.046875 
Q 18.109375 38.09375 18.109375 28.8125 
L 18.109375 0 
L 9.078125 0 
L 9.078125 54.6875 
L 18.109375 54.6875 
L 18.109375 46.1875 
Q 20.953125 51.171875 25.484375 53.578125 
Q 30.03125 56 36.53125 56 
Q 37.453125 56 38.578125 55.875 
Q 39.703125 55.765625 41.0625 55.515625 
z
" id="BitstreamVeraSans-Roman-72"/>
      <path d="M 9.421875 75.984375 
L 18.40625 75.984375 
L 18.40625 0 
L 9.421875 0 
z
" id="BitstreamVeraSans-Roman-6c"/>
      <path d="M 19.671875 64.796875 
L 19.671875 8.109375 
L 31.59375 8.109375 
Q 46.6875 8.109375 53.6875 14.9375 
Q 60.6875 21.78125 60.6875 36.53125 
Q 60.6875 51.171875 53.6875 57.984375 
Q 46.6875 64.796875 31.59375 64.796875 
z
M 9.8125 72.90625 
L 30.078125 72.90625 
Q 51.265625 72.90625 61.171875 64.09375 
Q 71.09375 55.28125 71.09375 36.53125 
Q 71.09375 17.671875 61.125 8.828125 
Q 51.171875 0 30.078125 0 
L 9.8125 0 
z
" id="BitstreamVeraSans-Roman-44"/>
      <path d="M 9.421875 54.6875 
L 18.40625 54.6875 
L 18.40625 0 
L 9.421875 0 
z
M 9.421875 75.984375 
L 18.40625 75.984375 
L 18.40625 64.59375 
L 9.421875 64.59375 
z
" id="BitstreamVeraSans-Roman-69"/>
      <path d="M 2.984375 54.6875 
L 12.5 54.6875 
L 29.59375 8.796875 
L 46.6875 54.6875 
L 56.203125 54.6875 
L 35.6875 0 
L 23.484375 0 
z
" id="BitstreamVeraSans-Roman-76"/>
      <path d="M 64.40625 67.28125 
L 64.40625 56.890625 
Q 59.421875 61.53125 53.78125 63.8125 
Q 48.140625 66.109375 41.796875 66.109375 
Q 29.296875 66.109375 22.65625 58.46875 
Q 16.015625 50.828125 16.015625 36.375 
Q 16.015625 21.96875 22.65625 14.328125 
Q 29.296875 6.6875 41.796875 6.6875 
Q 48.140625 6.6875 53.78125 8.984375 
Q 59.421875 11.28125 64.40625 15.921875 
L 64.40625 5.609375 
Q 59.234375 2.09375 53.4375 0.328125 
Q 47.65625 -1.421875 41.21875 -1.421875 
Q 24.65625 -1.421875 15.125 8.703125 
Q 5.609375 18.84375 5.609375 36.375 
Q 5.609375 53.953125 15.125 64.078125 
Q 24.65625 74.21875 41.21875 74.21875 
Q 47.75 74.21875 53.53125 72.484375 
Q 59.328125 70.75 64.40625 67.28125 
" id="BitstreamVeraSans-Roman-43"/>
      <path d="M 8.5 21.578125 
L 8.5 54.6875 
L 17.484375 54.6875 
L 17.484375 21.921875 
Q 17.484375 14.15625 20.5 10.265625 
Q 23.53125 6.390625 29.59375 6.390625 
Q 36.859375 6.390625 41.078125 11.03125 
Q 45.3125 15.671875 45.3125 23.6875 
L 45.3125 54.6875 
L 54.296875 54.6875 
L 54.296875 0 
L 45.3125 0 
L 45.3125 8.40625 
Q 42.046875 3.421875 37.71875 1 
Q 33.40625 -1.421875 27.6875 -1.421875 
Q 18.265625 -1.421875 13.375 4.4375 
Q 8.5 10.296875 8.5 21.578125 
" id="BitstreamVeraSans-Roman-75"/>
      <path d="M 34.28125 27.484375 
Q 23.390625 27.484375 19.1875 25 
Q 14.984375 22.515625 14.984375 16.5 
Q 14.984375 11.71875 18.140625 8.90625 
Q 21.296875 6.109375 26.703125 6.109375 
Q 34.1875 6.109375 38.703125 11.40625 
Q 43.21875 16.703125 43.21875 25.484375 
L 43.21875 27.484375 
z
M 52.203125 31.203125 
L 52.203125 0 
L 43.21875 0 
L 43.21875 8.296875 
Q 40.140625 3.328125 35.546875 0.953125 
Q 30.953125 -1.421875 24.3125 -1.421875 
Q 15.921875 -1.421875 10.953125 3.296875 
Q 6 8.015625 6 15.921875 
Q 6 25.140625 12.171875 29.828125 
Q 18.359375 34.515625 30.609375 34.515625 
L 43.21875 34.515625 
L 43.21875 35.40625 
Q 43.21875 41.609375 39.140625 45 
Q 35.0625 48.390625 27.6875 48.390625 
Q 23 48.390625 18.546875 47.265625 
Q 14.109375 46.140625 10.015625 43.890625 
L 10.015625 52.203125 
Q 14.9375 54.109375 19.578125 55.046875 
Q 24.21875 56 28.609375 56 
Q 40.484375 56 46.34375 49.84375 
Q 52.203125 43.703125 52.203125 31.203125 
" id="BitstreamVeraSans-Roman-61"/>
      <path d="M 44.28125 53.078125 
L 44.28125 44.578125 
Q 40.484375 46.53125 36.375 47.5 
Q 32.28125 48.484375 27.875 48.484375 
Q 21.1875 48.484375 17.84375 46.4375 
Q 14.5 44.390625 14.5 40.28125 
Q 14.5 37.15625 16.890625 35.375 
Q 19.28125 33.59375 26.515625 31.984375 
L 29.59375 31.296875 
Q 39.15625 29.25 43.1875 25.515625 
Q 47.21875 21.78125 47.21875 15.09375 
Q 47.21875 7.46875 41.1875 3.015625 
Q 35.15625 -1.421875 24.609375 -1.421875 
Q 20.21875 -1.421875 15.453125 -0.5625 
Q 10.6875 0.296875 5.421875 2 
L 5.421875 11.28125 
Q 10.40625 8.6875 15.234375 7.390625 
Q 20.0625 6.109375 24.8125 6.109375 
Q 31.15625 6.109375 34.5625 8.28125 
Q 37.984375 10.453125 37.984375 14.40625 
Q 37.984375 18.0625 35.515625 20.015625 
Q 33.0625 21.96875 24.703125 23.78125 
L 21.578125 24.515625 
Q 13.234375 26.265625 9.515625 29.90625 
Q 5.8125 33.546875 5.8125 39.890625 
Q 5.8125 47.609375 11.28125 51.796875 
Q 16.75 56 26.8125 56 
Q 31.78125 56 36.171875 55.265625 
Q 40.578125 54.546875 44.28125 53.078125 
" id="BitstreamVeraSans-Roman-73"/>
      <path d="M 48.6875 27.296875 
Q 48.6875 37.203125 44.609375 42.84375 
Q 40.53125 48.484375 33.40625 48.484375 
Q 26.265625 48.484375 22.1875 42.84375 
Q 18.109375 37.203125 18.109375 27.296875 
Q 18.109375 17.390625 22.1875 11.75 
Q 26.265625 6.109375 33.40625 6.109375 
Q 40.53125 6.109375 44.609375 11.75 
Q 48.6875 17.390625 48.6875 27.296875 
M 18.109375 46.390625 
Q 20.953125 51.265625 25.265625 53.625 
Q 29.59375 56 35.59375 56 
Q 45.5625 56 51.78125 48.09375 
Q 58.015625 40.1875 58.015625 27.296875 
Q 58.015625 14.40625 51.78125 6.484375 
Q 45.5625 -1.421875 35.59375 -1.421875 
Q 29.59375 -1.421875 25.265625 0.953125 
Q 20.953125 3.328125 18.109375 8.203125 
L 18.109375 0 
L 9.078125 0 
L 9.078125 75.984375 
L 18.109375 75.984375 
z
" id="BitstreamVeraSans-Roman-62"/>
     </defs>
     <g transform="translate(17.9046875 130.8453125)rotate(-90.0)scale(0.1 -0.1)">
      <use xlink:href="#BitstreamVeraSans-Roman-43"/>
      <use x="69.82421875" xlink:href="#BitstreamVeraSans-Roman-75"/>
      <use x="133.203125" xlink:href="#BitstreamVeraSans-Roman-6d"/>
      <use x="230.615234375" xlink:href="#BitstreamVeraSans-Roman-75"/>
      <use x="293.994140625" xlink:href="#BitstreamVeraSans-Roman-6c"/>
      <use x="321.77734375" xlink:href="#BitstreamVeraSans-Roman-61"/>
      <use x="383.056640625" xlink:href="#BitstreamVeraSans-Roman-74"/>
      <use x="422.265625" xlink:href="#BitstreamVeraSans-Roman-69"/>
      <use x="450.048828125" xlink:href="#BitstreamVeraSans-Roman-76"/>
      <use x="509.228515625" xlink:href="#BitstreamVeraSans-Roman-65"/>
      <use x="570.751953125" xlink:href="#BitstreamVeraSans-Roman-20"/>
      <use x="602.5390625" xlink:href="#BitstreamVeraSans-Roman-44"/>
      <use x="679.541015625" xlink:href="#BitstreamVeraSans-Roman-69"/>
      <use x="707.32421875" xlink:href="#BitstreamVeraSans-Roman-73"/>
      <use x="759.423828125" xlink:href="#BitstreamVeraSans-Roman-74"/>
      <use x="798.6328125" xlink:href="#BitstreamVeraSans-Roman-72"/>
      <use x="839.74609375" xlink:href="#BitstreamVeraSans-Roman-69"/>
      <use x="867.529296875" xlink:href="#BitstreamVeraSans-Roman-62"/>
      <use x="931.005859375" xlink:href="#BitstreamVeraSans-Roman-75"/>
      <use x="994.384765625" xlink:href="#BitstreamVeraSans-Roman-74"/>
      <use x="1033.59375" xlink:href="#BitstreamVeraSans-Roman-69"/>
      <use x="1061.37695312" xlink:href="#BitstreamVeraSans-Roman-6f"/>
      <use x="1122.55859375" xlink:href="#BitstreamVeraSans-Roman-6e"/>
     </g>
    </g>
   </g>
  </g>
  <g id="axes_2">
   <g id="patch_7">
    <path d="M 209.2875 127.8 
L 317.55 127.8 
L 317.55 15.3 
L 209.2875 15.3 
z
" style="fill:#ffffff;"/>
   </g>
   <g id="line2d_31">
    <path clip-path="url(#p2ad1beb743)" d="M 220.635948 127.8 
L 232.021185 127.5975 
L 232.103866 127.575 
L 233.594566 127.4175 
L 234.317122 127.2375 
L 235.248367 127.08 
L 236.359835 126.8775 
L 238.287851 126.36 
L 238.47792 126.27 
L 239.26215 125.91 
L 239.473528 125.775 
L 239.934604 125.3925 
L 240.324095 125.0775 
L 240.500209 124.92 
L 240.88773 124.695 
L 240.970436 124.56 
L 241.163003 124.4025 
L 241.256751 124.3125 
L 241.42286 124.1325 
L 241.614344 123.975 
L 241.830876 123.795 
L 242.116556 123.39 
L 242.55651 122.895 
L 242.801791 122.58 
L 243.282028 122.1075 
L 243.605596 121.5675 
L 243.74326 121.41 
L 244.101763 120.8475 
L 244.281311 120.69 
L 244.509698 120.33 
L 244.916389 119.835 
L 245.167179 119.52 
L 246.445281 117.0675 
L 247.963585 113.67 
L 248.06012 113.3775 
L 248.158277 113.1525 
L 248.702992 111.42 
L 248.963927 110.6775 
L 249.191953 110.07 
L 249.443792 109.35 
L 250.147087 107.2125 
L 250.332809 106.8075 
L 251.16176 104.1525 
L 251.344914 103.3875 
L 251.74123 102.0375 
L 251.858754 101.6325 
L 252.006772 101.025 
L 252.109461 100.665 
L 253.925274 92.385 
L 254.128506 91.395 
L 254.253364 90.9225 
L 254.366516 90.3375 
L 254.464438 90.045 
L 254.638709 89.1225 
L 254.799426 88.155 
L 254.894804 87.7725 
L 255.006599 87.3 
L 255.106137 86.625 
L 255.256653 85.9725 
L 255.360812 85.7925 
L 255.511676 85.185 
L 255.578633 84.825 
L 255.707973 84.2625 
L 255.818993 83.745 
L 256.011691 82.755 
L 256.057644 82.485 
L 256.122493 82.08 
L 256.231947 81.36 
L 257.032776 77.355 
L 257.145517 76.7025 
L 257.315905 76.05 
L 257.521375 74.925 
L 257.59517 74.52 
L 257.710329 74.0025 
L 257.81966 73.26 
L 257.951496 72.72 
L 258.050576 72.3375 
L 258.154427 71.6175 
L 258.200827 71.415 
L 259.503311 64.9125 
L 259.543657 64.71 
L 259.719214 63.675 
L 259.810008 63.27 
L 261.344926 56.205 
L 261.41993 55.89 
L 261.558373 55.26 
L 261.63491 54.855 
L 262.445084 50.6925 
L 262.612865 50.1075 
L 262.740288 49.365 
L 262.977014 48.6 
L 263.179436 47.6775 
L 263.2739 47.1375 
L 263.371306 46.8675 
L 265.301898 38.655 
L 265.480688 38.1375 
L 265.595305 37.8 
L 265.78567 37.1025 
L 265.894532 36.72 
L 266.000279 36.4725 
L 266.157664 35.8875 
L 266.266438 35.28 
L 266.698171 33.8625 
L 266.770904 33.615 
L 266.94916 32.76 
L 267.032951 32.6025 
L 267.451306 31.185 
L 267.656408 30.5775 
L 267.77045 30.285 
L 267.960042 29.79 
L 269.681498 25.7175 
L 269.858857 25.5375 
L 271.548625 22.05 
L 271.682998 21.8925 
L 271.935678 21.4875 
L 272.037828 21.3075 
L 272.319323 20.8125 
L 272.878283 20.2275 
L 272.937302 20.115 
L 273.128818 19.9575 
L 273.324408 19.71 
L 273.812078 19.1925 
L 274.263946 18.8775 
L 275.271986 18.09 
L 275.38371 17.8875 
L 275.970294 17.4825 
L 277.184401 16.8075 
L 279.540874 15.9075 
L 280.588656 15.7725 
L 280.755122 15.705 
L 281.057501 15.66 
L 287.964135 15.3225 
L 287.964135 15.3225 
" style="fill:none;stroke:#ff0000;stroke-linecap:square;"/>
   </g>
   <g id="line2d_32">
    <path clip-path="url(#p2ad1beb743)" d="M 240.358163 127.8 
L 240.358163 15.3 
" style="fill:none;stroke:#ff0000;stroke-linecap:square;"/>
   </g>
   <g id="line2d_33">
    <path clip-path="url(#p2ad1beb743)" d="M 275.24506 127.8 
L 275.24506 15.3 
" style="fill:none;stroke:#ff0000;stroke-linecap:square;"/>
   </g>
   <g id="line2d_34">
    <path clip-path="url(#p2ad1beb743)" d="M 226.734231 127.8 
L 234.796528 127.62 
L 234.848199 127.5975 
L 239.691987 127.17 
L 240.372326 127.035 
L 242.835321 126.6975 
L 244.309831 126.4275 
L 245.292281 126.045 
L 245.897602 125.8425 
L 246.192355 125.73 
L 248.162729 124.8075 
L 248.302631 124.7175 
L 248.523859 124.515 
L 248.939189 124.2675 
L 249.511548 123.9525 
L 249.798868 123.795 
L 250.065746 123.5925 
L 250.306263 123.3675 
L 250.526128 123.165 
L 250.715961 122.94 
L 252.208775 121.4775 
L 252.322204 121.2975 
L 252.398665 121.2525 
L 252.617192 121.095 
L 253.226253 120.5775 
L 253.53148 120.285 
L 253.633782 120.105 
L 253.826476 119.97 
L 253.958332 119.7 
L 254.484996 119.1375 
L 254.772077 118.8 
L 254.859155 118.62 
L 255.195191 118.3275 
L 255.28399 118.1925 
L 255.571233 117.9675 
L 256.375792 116.955 
L 256.559464 116.7525 
L 256.642291 116.6625 
L 256.778466 116.505 
L 256.897445 116.235 
L 257.110893 115.9875 
L 257.659237 115.3125 
L 257.77533 115.0425 
L 259.089936 112.77 
L 260.009504 110.79 
L 260.081381 110.61 
L 260.211193 110.2725 
L 260.35011 109.935 
L 260.46832 109.755 
L 260.735162 109.3275 
L 260.875662 108.9675 
L 261.028865 108.6975 
L 261.176676 108.27 
L 261.319151 108.1125 
L 261.827254 106.8525 
L 261.947606 106.6275 
L 262.138931 106.29 
L 262.273801 106.0875 
L 262.442696 105.7725 
L 262.551478 105.5025 
L 262.640966 105.1875 
L 263.151846 104.04 
L 263.279592 103.815 
L 263.577064 102.87 
L 263.828457 102.2625 
L 263.923113 102.06 
L 265.812296 96.48 
L 265.952204 95.6925 
L 266.229325 94.905 
L 266.618241 93.555 
L 266.72682 93.3525 
L 266.859479 93.0825 
L 267.421484 91.035 
L 267.556432 90.675 
L 268.064576 89.055 
L 268.276899 88.4025 
L 268.531529 87.435 
L 268.659431 87.0075 
L 268.779467 86.6475 
L 268.910543 86.13 
L 269.005073 85.8825 
L 273.069069 71.01 
L 273.207002 70.29 
L 273.264293 70.0425 
L 273.38965 69.525 
L 273.554262 68.85 
L 273.859842 67.8825 
L 273.973021 67.4325 
L 274.258813 66.195 
L 274.370692 65.835 
L 274.597502 64.935 
L 274.674361 64.71 
L 275.266974 62.145 
L 275.354649 61.9875 
L 275.488963 61.245 
L 275.624533 60.66 
L 278.746745 49.3425 
L 278.805846 49.185 
L 278.921424 48.8025 
L 279.21451 47.5875 
L 279.391947 47.0925 
L 280.347019 44.1675 
L 280.43529 43.8525 
L 280.576652 43.335 
L 280.74637 42.8175 
L 280.852765 42.5025 
L 281.195745 41.5575 
L 281.302882 41.085 
L 281.565494 40.2975 
L 281.904451 39.33 
L 282.329375 38.295 
L 284.215189 32.94 
L 284.281931 32.7825 
L 284.502165 32.3325 
L 285.14114 31.32 
L 285.495346 30.4875 
L 285.676135 30.24 
L 285.789091 29.9475 
L 285.929244 29.745 
L 286.068984 29.4525 
L 286.258469 29.205 
L 286.427309 28.9125 
L 286.643266 28.53 
L 286.773917 28.2825 
L 286.902114 28.08 
L 287.009933 27.81 
L 287.081979 27.6525 
L 287.269179 27.315 
L 287.5729 26.775 
L 287.74888 26.4825 
L 287.87112 26.19 
L 288.096667 25.8075 
L 288.381207 25.335 
L 289.036011 24.2775 
L 289.455792 23.7825 
L 290.668307 22.05 
L 291.0375 21.78 
L 291.227079 21.3975 
L 293.333462 19.5975 
L 293.468226 19.395 
L 295.364685 18.3375 
L 295.725758 18.2025 
L 299.564293 16.65 
L 300.819474 16.38 
L 303.119799 15.84 
L 305.061353 15.6375 
L 305.163248 15.5925 
L 308.187754 15.345 
L 309.467266 15.3225 
L 309.467266 15.3225 
" style="fill:none;stroke:#0000ff;stroke-linecap:square;"/>
   </g>
   <g id="line2d_35">
    <path clip-path="url(#p2ad1beb743)" d="M 247.945718 127.8 
L 247.945718 15.3 
" style="fill:none;stroke:#0000ff;stroke-dasharray:6.000000,6.000000;stroke-dashoffset:0.0;"/>
   </g>
   <g id="line2d_36">
    <path clip-path="url(#p2ad1beb743)" d="M 296.021028 127.8 
L 296.021028 15.3 
" style="fill:none;stroke:#0000ff;stroke-dasharray:6.000000,6.000000;stroke-dashoffset:0.0;"/>
   </g>
   <g id="patch_8">
    <path d="M 209.2875 15.3 
L 317.55 15.3 
" style="fill:none;stroke:#000000;stroke-linecap:square;stroke-linejoin:miter;"/>
   </g>
   <g id="patch_9">
    <path d="M 317.55 127.8 
L 317.55 15.3 
" style="fill:none;stroke:#000000;stroke-linecap:square;stroke-linejoin:miter;"/>
   </g>
   <g id="patch_10">
    <path d="M 209.2875 127.8 
L 317.55 127.8 
" style="fill:none;stroke:#000000;stroke-linecap:square;stroke-linejoin:miter;"/>
   </g>
   <g id="patch_11">
    <path d="M 209.2875 127.8 
L 209.2875 15.3 
" style="fill:none;stroke:#000000;stroke-linecap:square;stroke-linejoin:miter;"/>
   </g>
   <g id="matplotlib.axis_3">
    <g id="xtick_7">
     <g id="line2d_37">
      <g>
       <use style="stroke:#000000;stroke-width:0.5;" x="209.2875" xlink:href="#m4ed3ca9dc9" y="127.8"/>
      </g>
     </g>
     <g id="line2d_38">
      <g>
       <use style="stroke:#000000;stroke-width:0.5;" x="209.2875" xlink:href="#m5170dc7d11" y="15.3"/>
      </g>
     </g>
     <g id="text_15">
      <!-- 0.20 -->
      <g transform="translate(198.1546875 139.3984375)scale(0.1 -0.1)">
       <use xlink:href="#BitstreamVeraSans-Roman-30"/>
       <use x="63.623046875" xlink:href="#BitstreamVeraSans-Roman-2e"/>
       <use x="95.41015625" xlink:href="#BitstreamVeraSans-Roman-32"/>
       <use x="159.033203125" xlink:href="#BitstreamVeraSans-Roman-30"/>
      </g>
     </g>
    </g>
    <g id="xtick_8">
     <g id="line2d_39">
      <g>
       <use style="stroke:#000000;stroke-width:0.5;" x="224.753571429" xlink:href="#m4ed3ca9dc9" y="127.8"/>
      </g>
     </g>
     <g id="line2d_40">
      <g>
       <use style="stroke:#000000;stroke-width:0.5;" x="224.753571429" xlink:href="#m5170dc7d11" y="15.3"/>
      </g>
     </g>
     <g id="text_16">
      <!-- 0.25 -->
      <g transform="translate(213.620758929 139.3984375)scale(0.1 -0.1)">
       <use xlink:href="#BitstreamVeraSans-Roman-30"/>
       <use x="63.623046875" xlink:href="#BitstreamVeraSans-Roman-2e"/>
       <use x="95.41015625" xlink:href="#BitstreamVeraSans-Roman-32"/>
       <use x="159.033203125" xlink:href="#BitstreamVeraSans-Roman-35"/>
      </g>
     </g>
    </g>
    <g id="xtick_9">
     <g id="line2d_41">
      <g>
       <use style="stroke:#000000;stroke-width:0.5;" x="240.219642857" xlink:href="#m4ed3ca9dc9" y="127.8"/>
      </g>
     </g>
     <g id="line2d_42">
      <g>
       <use style="stroke:#000000;stroke-width:0.5;" x="240.219642857" xlink:href="#m5170dc7d11" y="15.3"/>
      </g>
     </g>
     <g id="text_17">
      <!-- 0.30 -->
      <defs>
       <path d="M 40.578125 39.3125 
Q 47.65625 37.796875 51.625 33 
Q 55.609375 28.21875 55.609375 21.1875 
Q 55.609375 10.40625 48.1875 4.484375 
Q 40.765625 -1.421875 27.09375 -1.421875 
Q 22.515625 -1.421875 17.65625 -0.515625 
Q 12.796875 0.390625 7.625 2.203125 
L 7.625 11.71875 
Q 11.71875 9.328125 16.59375 8.109375 
Q 21.484375 6.890625 26.8125 6.890625 
Q 36.078125 6.890625 40.9375 10.546875 
Q 45.796875 14.203125 45.796875 21.1875 
Q 45.796875 27.640625 41.28125 31.265625 
Q 36.765625 34.90625 28.71875 34.90625 
L 20.21875 34.90625 
L 20.21875 43.015625 
L 29.109375 43.015625 
Q 36.375 43.015625 40.234375 45.921875 
Q 44.09375 48.828125 44.09375 54.296875 
Q 44.09375 59.90625 40.109375 62.90625 
Q 36.140625 65.921875 28.71875 65.921875 
Q 24.65625 65.921875 20.015625 65.03125 
Q 15.375 64.15625 9.8125 62.3125 
L 9.8125 71.09375 
Q 15.4375 72.65625 20.34375 73.4375 
Q 25.25 74.21875 29.59375 74.21875 
Q 40.828125 74.21875 47.359375 69.109375 
Q 53.90625 64.015625 53.90625 55.328125 
Q 53.90625 49.265625 50.4375 45.09375 
Q 46.96875 40.921875 40.578125 39.3125 
" id="BitstreamVeraSans-Roman-33"/>
      </defs>
      <g transform="translate(229.086830357 139.3984375)scale(0.1 -0.1)">
       <use xlink:href="#BitstreamVeraSans-Roman-30"/>
       <use x="63.623046875" xlink:href="#BitstreamVeraSans-Roman-2e"/>
       <use x="95.41015625" xlink:href="#BitstreamVeraSans-Roman-33"/>
       <use x="159.033203125" xlink:href="#BitstreamVeraSans-Roman-30"/>
      </g>
     </g>
    </g>
    <g id="xtick_10">
     <g id="line2d_43">
      <g>
       <use style="stroke:#000000;stroke-width:0.5;" x="255.685714286" xlink:href="#m4ed3ca9dc9" y="127.8"/>
      </g>
     </g>
     <g id="line2d_44">
      <g>
       <use style="stroke:#000000;stroke-width:0.5;" x="255.685714286" xlink:href="#m5170dc7d11" y="15.3"/>
      </g>
     </g>
     <g id="text_18">
      <!-- 0.35 -->
      <g transform="translate(244.552901786 139.3984375)scale(0.1 -0.1)">
       <use xlink:href="#BitstreamVeraSans-Roman-30"/>
       <use x="63.623046875" xlink:href="#BitstreamVeraSans-Roman-2e"/>
       <use x="95.41015625" xlink:href="#BitstreamVeraSans-Roman-33"/>
       <use x="159.033203125" xlink:href="#BitstreamVeraSans-Roman-35"/>
      </g>
     </g>
    </g>
    <g id="xtick_11">
     <g id="line2d_45">
      <g>
       <use style="stroke:#000000;stroke-width:0.5;" x="271.151785714" xlink:href="#m4ed3ca9dc9" y="127.8"/>
      </g>
     </g>
     <g id="line2d_46">
      <g>
       <use style="stroke:#000000;stroke-width:0.5;" x="271.151785714" xlink:href="#m5170dc7d11" y="15.3"/>
      </g>
     </g>
     <g id="text_19">
      <!-- 0.40 -->
      <g transform="translate(260.018973214 139.3984375)scale(0.1 -0.1)">
       <use xlink:href="#BitstreamVeraSans-Roman-30"/>
       <use x="63.623046875" xlink:href="#BitstreamVeraSans-Roman-2e"/>
       <use x="95.41015625" xlink:href="#BitstreamVeraSans-Roman-34"/>
       <use x="159.033203125" xlink:href="#BitstreamVeraSans-Roman-30"/>
      </g>
     </g>
    </g>
    <g id="xtick_12">
     <g id="line2d_47">
      <g>
       <use style="stroke:#000000;stroke-width:0.5;" x="286.617857143" xlink:href="#m4ed3ca9dc9" y="127.8"/>
      </g>
     </g>
     <g id="line2d_48">
      <g>
       <use style="stroke:#000000;stroke-width:0.5;" x="286.617857143" xlink:href="#m5170dc7d11" y="15.3"/>
      </g>
     </g>
     <g id="text_20">
      <!-- 0.45 -->
      <g transform="translate(275.485044643 139.3984375)scale(0.1 -0.1)">
       <use xlink:href="#BitstreamVeraSans-Roman-30"/>
       <use x="63.623046875" xlink:href="#BitstreamVeraSans-Roman-2e"/>
       <use x="95.41015625" xlink:href="#BitstreamVeraSans-Roman-34"/>
       <use x="159.033203125" xlink:href="#BitstreamVeraSans-Roman-35"/>
      </g>
     </g>
    </g>
    <g id="xtick_13">
     <g id="line2d_49">
      <g>
       <use style="stroke:#000000;stroke-width:0.5;" x="302.083928571" xlink:href="#m4ed3ca9dc9" y="127.8"/>
      </g>
     </g>
     <g id="line2d_50">
      <g>
       <use style="stroke:#000000;stroke-width:0.5;" x="302.083928571" xlink:href="#m5170dc7d11" y="15.3"/>
      </g>
     </g>
     <g id="text_21">
      <!-- 0.50 -->
      <g transform="translate(290.951116071 139.3984375)scale(0.1 -0.1)">
       <use xlink:href="#BitstreamVeraSans-Roman-30"/>
       <use x="63.623046875" xlink:href="#BitstreamVeraSans-Roman-2e"/>
       <use x="95.41015625" xlink:href="#BitstreamVeraSans-Roman-35"/>
       <use x="159.033203125" xlink:href="#BitstreamVeraSans-Roman-30"/>
      </g>
     </g>
    </g>
    <g id="xtick_14">
     <g id="line2d_51">
      <g>
       <use style="stroke:#000000;stroke-width:0.5;" x="317.55" xlink:href="#m4ed3ca9dc9" y="127.8"/>
      </g>
     </g>
     <g id="line2d_52">
      <g>
       <use style="stroke:#000000;stroke-width:0.5;" x="317.55" xlink:href="#m5170dc7d11" y="15.3"/>
      </g>
     </g>
     <g id="text_22">
      <!-- 0.55 -->
      <g transform="translate(306.4171875 139.3984375)scale(0.1 -0.1)">
       <use xlink:href="#BitstreamVeraSans-Roman-30"/>
       <use x="63.623046875" xlink:href="#BitstreamVeraSans-Roman-2e"/>
       <use x="95.41015625" xlink:href="#BitstreamVeraSans-Roman-35"/>
       <use x="159.033203125" xlink:href="#BitstreamVeraSans-Roman-35"/>
      </g>
     </g>
    </g>
    <g id="text_23">
     <!-- Y component -->
     <defs>
      <path d="M -0.203125 72.90625 
L 10.40625 72.90625 
L 30.609375 42.921875 
L 50.6875 72.90625 
L 61.28125 72.90625 
L 35.5 34.71875 
L 35.5 0 
L 25.59375 0 
L 25.59375 34.71875 
z
" id="BitstreamVeraSans-Roman-59"/>
     </defs>
     <g transform="translate(230.4890625 154.0765625)scale(0.1 -0.1)">
      <use xlink:href="#BitstreamVeraSans-Roman-59"/>
      <use x="61.083984375" xlink:href="#BitstreamVeraSans-Roman-20"/>
      <use x="92.87109375" xlink:href="#BitstreamVeraSans-Roman-63"/>
      <use x="147.8515625" xlink:href="#BitstreamVeraSans-Roman-6f"/>
      <use x="209.033203125" xlink:href="#BitstreamVeraSans-Roman-6d"/>
      <use x="306.4453125" xlink:href="#BitstreamVeraSans-Roman-70"/>
      <use x="369.921875" xlink:href="#BitstreamVeraSans-Roman-6f"/>
      <use x="431.103515625" xlink:href="#BitstreamVeraSans-Roman-6e"/>
      <use x="494.482421875" xlink:href="#BitstreamVeraSans-Roman-65"/>
      <use x="556.005859375" xlink:href="#BitstreamVeraSans-Roman-6e"/>
      <use x="619.384765625" xlink:href="#BitstreamVeraSans-Roman-74"/>
     </g>
    </g>
   </g>
   <g id="matplotlib.axis_4">
    <g id="ytick_7">
     <g id="line2d_53">
      <g>
       <use style="stroke:#000000;stroke-width:0.5;" x="209.2875" xlink:href="#ma23cb4ed13" y="127.8"/>
      </g>
     </g>
     <g id="line2d_54">
      <g>
       <use style="stroke:#000000;stroke-width:0.5;" x="317.55" xlink:href="#m6a96013a0f" y="127.8"/>
      </g>
     </g>
     <g id="text_24">
      <!-- 0.0 -->
      <g transform="translate(189.384375 130.559375)scale(0.1 -0.1)">
       <use xlink:href="#BitstreamVeraSans-Roman-30"/>
       <use x="63.623046875" xlink:href="#BitstreamVeraSans-Roman-2e"/>
       <use x="95.41015625" xlink:href="#BitstreamVeraSans-Roman-30"/>
      </g>
     </g>
    </g>
    <g id="ytick_8">
     <g id="line2d_55">
      <g>
       <use style="stroke:#000000;stroke-width:0.5;" x="209.2875" xlink:href="#ma23cb4ed13" y="105.3"/>
      </g>
     </g>
     <g id="line2d_56">
      <g>
       <use style="stroke:#000000;stroke-width:0.5;" x="317.55" xlink:href="#m6a96013a0f" y="105.3"/>
      </g>
     </g>
     <g id="text_25">
      <!-- 0.2 -->
      <g transform="translate(189.384375 108.059375)scale(0.1 -0.1)">
       <use xlink:href="#BitstreamVeraSans-Roman-30"/>
       <use x="63.623046875" xlink:href="#BitstreamVeraSans-Roman-2e"/>
       <use x="95.41015625" xlink:href="#BitstreamVeraSans-Roman-32"/>
      </g>
     </g>
    </g>
    <g id="ytick_9">
     <g id="line2d_57">
      <g>
       <use style="stroke:#000000;stroke-width:0.5;" x="209.2875" xlink:href="#ma23cb4ed13" y="82.8"/>
      </g>
     </g>
     <g id="line2d_58">
      <g>
       <use style="stroke:#000000;stroke-width:0.5;" x="317.55" xlink:href="#m6a96013a0f" y="82.8"/>
      </g>
     </g>
     <g id="text_26">
      <!-- 0.4 -->
      <g transform="translate(189.384375 85.559375)scale(0.1 -0.1)">
       <use xlink:href="#BitstreamVeraSans-Roman-30"/>
       <use x="63.623046875" xlink:href="#BitstreamVeraSans-Roman-2e"/>
       <use x="95.41015625" xlink:href="#BitstreamVeraSans-Roman-34"/>
      </g>
     </g>
    </g>
    <g id="ytick_10">
     <g id="line2d_59">
      <g>
       <use style="stroke:#000000;stroke-width:0.5;" x="209.2875" xlink:href="#ma23cb4ed13" y="60.3"/>
      </g>
     </g>
     <g id="line2d_60">
      <g>
       <use style="stroke:#000000;stroke-width:0.5;" x="317.55" xlink:href="#m6a96013a0f" y="60.3"/>
      </g>
     </g>
     <g id="text_27">
      <!-- 0.6 -->
      <g transform="translate(189.384375 63.059375)scale(0.1 -0.1)">
       <use xlink:href="#BitstreamVeraSans-Roman-30"/>
       <use x="63.623046875" xlink:href="#BitstreamVeraSans-Roman-2e"/>
       <use x="95.41015625" xlink:href="#BitstreamVeraSans-Roman-36"/>
      </g>
     </g>
    </g>
    <g id="ytick_11">
     <g id="line2d_61">
      <g>
       <use style="stroke:#000000;stroke-width:0.5;" x="209.2875" xlink:href="#ma23cb4ed13" y="37.8"/>
      </g>
     </g>
     <g id="line2d_62">
      <g>
       <use style="stroke:#000000;stroke-width:0.5;" x="317.55" xlink:href="#m6a96013a0f" y="37.8"/>
      </g>
     </g>
     <g id="text_28">
      <!-- 0.8 -->
      <g transform="translate(189.384375 40.559375)scale(0.1 -0.1)">
       <use xlink:href="#BitstreamVeraSans-Roman-30"/>
       <use x="63.623046875" xlink:href="#BitstreamVeraSans-Roman-2e"/>
       <use x="95.41015625" xlink:href="#BitstreamVeraSans-Roman-38"/>
      </g>
     </g>
    </g>
    <g id="ytick_12">
     <g id="line2d_63">
      <g>
       <use style="stroke:#000000;stroke-width:0.5;" x="209.2875" xlink:href="#ma23cb4ed13" y="15.3"/>
      </g>
     </g>
     <g id="line2d_64">
      <g>
       <use style="stroke:#000000;stroke-width:0.5;" x="317.55" xlink:href="#m6a96013a0f" y="15.3"/>
      </g>
     </g>
     <g id="text_29">
      <!-- 1.0 -->
      <g transform="translate(189.384375 18.059375)scale(0.1 -0.1)">
       <use xlink:href="#BitstreamVeraSans-Roman-31"/>
       <use x="63.623046875" xlink:href="#BitstreamVeraSans-Roman-2e"/>
       <use x="95.41015625" xlink:href="#BitstreamVeraSans-Roman-30"/>
      </g>
     </g>
    </g>
    <g id="text_30">
     <!-- Cumulative Distribution -->
     <g transform="translate(182.3046875 130.8453125)rotate(-90.0)scale(0.1 -0.1)">
      <use xlink:href="#BitstreamVeraSans-Roman-43"/>
      <use x="69.82421875" xlink:href="#BitstreamVeraSans-Roman-75"/>
      <use x="133.203125" xlink:href="#BitstreamVeraSans-Roman-6d"/>
      <use x="230.615234375" xlink:href="#BitstreamVeraSans-Roman-75"/>
      <use x="293.994140625" xlink:href="#BitstreamVeraSans-Roman-6c"/>
      <use x="321.77734375" xlink:href="#BitstreamVeraSans-Roman-61"/>
      <use x="383.056640625" xlink:href="#BitstreamVeraSans-Roman-74"/>
      <use x="422.265625" xlink:href="#BitstreamVeraSans-Roman-69"/>
      <use x="450.048828125" xlink:href="#BitstreamVeraSans-Roman-76"/>
      <use x="509.228515625" xlink:href="#BitstreamVeraSans-Roman-65"/>
      <use x="570.751953125" xlink:href="#BitstreamVeraSans-Roman-20"/>
      <use x="602.5390625" xlink:href="#BitstreamVeraSans-Roman-44"/>
      <use x="679.541015625" xlink:href="#BitstreamVeraSans-Roman-69"/>
      <use x="707.32421875" xlink:href="#BitstreamVeraSans-Roman-73"/>
      <use x="759.423828125" xlink:href="#BitstreamVeraSans-Roman-74"/>
      <use x="798.6328125" xlink:href="#BitstreamVeraSans-Roman-72"/>
      <use x="839.74609375" xlink:href="#BitstreamVeraSans-Roman-69"/>
      <use x="867.529296875" xlink:href="#BitstreamVeraSans-Roman-62"/>
      <use x="931.005859375" xlink:href="#BitstreamVeraSans-Roman-75"/>
      <use x="994.384765625" xlink:href="#BitstreamVeraSans-Roman-74"/>
      <use x="1033.59375" xlink:href="#BitstreamVeraSans-Roman-69"/>
      <use x="1061.37695312" xlink:href="#BitstreamVeraSans-Roman-6f"/>
      <use x="1122.55859375" xlink:href="#BitstreamVeraSans-Roman-6e"/>
     </g>
    </g>
   </g>
  </g>
  <g id="axes_3">
   <g id="patch_12">
    <path d="M 373.6875 127.8 
L 481.95 127.8 
L 481.95 15.3 
L 373.6875 15.3 
z
" style="fill:#ffffff;"/>
   </g>
   <g id="line2d_65">
    <path clip-path="url(#p3a1dc1003a)" d="M 417.489795 127.8 
L 427.875466 127.5975 
L 429.390819 127.3725 
L 429.408418 127.35 
L 429.959139 127.215 
L 432.926783 126.5625 
L 433.217786 126.45 
L 434.773337 125.4825 
L 434.868905 125.4375 
L 436.307547 124.4925 
L 436.396375 124.4475 
L 436.785341 124.2 
L 436.878681 123.93 
L 437.057009 123.66 
L 437.256579 123.39 
L 437.407725 123.2325 
L 438.28604 122.31 
L 438.471806 121.95 
L 439.473113 120.3975 
L 439.780743 119.835 
L 439.951856 119.6775 
L 441.065684 117.6525 
L 441.309019 117.2475 
L 441.411355 116.9775 
L 441.524861 116.775 
L 441.686148 116.595 
L 441.867429 116.145 
L 441.917315 115.965 
L 442.281323 115.1775 
L 442.82838 113.625 
L 442.984943 113.1075 
L 443.072621 112.7925 
L 443.212807 112.41 
L 443.974031 110.0025 
L 444.225502 109.3725 
L 444.33157 109.215 
L 444.442938 108.855 
L 444.52134 108.6075 
L 444.65845 108.045 
L 444.798765 107.6175 
L 444.901015 107.3475 
L 445.009482 106.965 
L 445.458377 105.8625 
L 445.728252 104.715 
L 445.882753 104.0625 
L 446.164244 102.87 
L 446.264 102.3975 
L 446.33533 102.1275 
L 446.660055 100.7325 
L 446.953766 99.7425 
L 447.419504 97.335 
L 447.5471 96.84 
L 450.558248 82.2375 
L 450.599718 82.0125 
L 451.518647 76.2525 
L 451.663452 75.0825 
L 451.766669 74.52 
L 451.877646 73.8225 
L 451.97835 73.44 
L 452.130567 72.4275 
L 452.338318 71.28 
L 452.483898 70.245 
L 452.564337 69.7725 
L 452.950316 67.41 
L 453.010915 67.185 
L 453.105947 66.7575 
L 453.302279 65.655 
L 453.364783 65.4525 
L 453.447357 64.8675 
L 453.571112 64.1475 
L 453.615781 63.6975 
L 457.374935 44.055 
L 457.44768 43.695 
L 457.565236 43.245 
L 457.708996 42.57 
L 457.960484 41.445 
L 458.174202 40.185 
L 458.238451 40.005 
L 458.404709 39.33 
L 458.724206 37.845 
L 459.074375 36.405 
L 459.213555 35.6625 
L 459.383378 35.19 
L 461.112504 29.1825 
L 461.228348 28.89 
L 461.52552 27.9225 
L 461.622961 27.7425 
L 461.714092 27.45 
L 461.847172 27.09 
L 462.300699 25.83 
L 462.74831 24.75 
L 463.045496 24.3225 
L 463.687273 22.905 
L 463.844139 22.7475 
L 464.063619 22.3875 
L 464.204051 22.1175 
L 464.397163 21.8025 
L 464.611509 21.5325 
L 464.947775 21.3075 
L 465.170988 21.105 
L 465.42815 20.565 
L 465.5587 20.34 
L 466.962734 18.2025 
L 467.148246 18 
L 467.270336 17.8875 
L 467.592032 17.7525 
L 467.704947 17.6175 
L 467.936357 17.46 
L 468.437239 17.0775 
L 468.592801 16.92 
L 471.159247 15.8625 
L 472.394836 15.705 
L 475.549886 15.435 
L 478.857974 15.3225 
L 478.857974 15.3225 
" style="fill:none;stroke:#ff0000;stroke-linecap:square;"/>
   </g>
   <g id="line2d_66">
    <path clip-path="url(#p3a1dc1003a)" d="M 435.56668 127.8 
L 435.56668 15.3 
" style="fill:none;stroke:#ff0000;stroke-linecap:square;"/>
   </g>
   <g id="line2d_67">
    <path clip-path="url(#p3a1dc1003a)" d="M 467.042398 127.8 
L 467.042398 15.3 
" style="fill:none;stroke:#ff0000;stroke-linecap:square;"/>
   </g>
   <g id="line2d_68">
    <path clip-path="url(#p3a1dc1003a)" d="M 382.869191 127.8 
L 392.91125 127.6425 
L 393.024319 127.5975 
L 395.458691 127.35 
L 398.298816 126.8325 
L 401.092165 126.2025 
L 403.318021 125.1 
L 403.666547 124.74 
L 403.890396 124.605 
L 404.007617 124.47 
L 404.670547 124.11 
L 404.900407 123.975 
L 405.860221 123.3225 
L 406.298098 123.1425 
L 406.301364 123.12 
L 406.527448 122.985 
L 406.664434 122.8275 
L 407.895792 121.8375 
L 408.112653 121.4775 
L 408.586978 121.05 
L 408.661678 120.96 
L 408.840006 120.8025 
L 409.447288 120.1275 
L 409.541671 119.9925 
L 409.673475 119.8125 
L 409.803106 119.6325 
L 410.099098 119.1825 
L 410.363392 118.665 
L 413.668532 113.085 
L 413.83084 112.905 
L 414.542627 111.2625 
L 414.695583 110.9475 
L 416.46637 107.37 
L 416.579016 106.9425 
L 416.686035 106.74 
L 417.156603 105.5925 
L 417.850028 103.77 
L 417.928021 103.5 
L 418.037825 103.275 
L 418.268879 102.5775 
L 418.722366 101.3175 
L 418.828953 101.025 
L 418.935164 100.575 
L 419.212742 99.855 
L 419.357959 99.495 
L 419.455489 99.18 
L 419.522018 99 
L 419.659244 98.46 
L 420.047892 97.38 
L 420.178666 97.1325 
L 420.286544 96.7725 
L 420.562971 95.6925 
L 420.624054 95.4675 
L 420.971351 94.365 
L 421.080464 94.005 
L 421.220646 93.4425 
L 421.345069 93.0825 
L 421.461095 92.745 
L 421.538527 92.565 
L 421.585517 92.385 
L 421.707323 92.07 
L 421.964061 91.305 
L 422.080239 90.855 
L 423.209273 86.94 
L 423.320491 86.4 
L 423.391648 86.1975 
L 423.697039 84.87 
L 423.893632 84.15 
L 424.01243 83.565 
L 424.200718 82.7325 
L 424.392908 82.0575 
L 424.490624 81.72 
L 424.771817 80.55 
L 424.84137 80.3475 
L 424.943681 80.055 
L 425.09989 79.4475 
L 425.231617 78.75 
L 425.317009 78.4575 
L 425.656842 77.445 
L 425.725416 77.265 
L 425.847578 76.6575 
L 425.916285 76.3875 
L 426.402623 74.7675 
L 426.522943 74.115 
L 426.602489 73.8 
L 426.861316 72.81 
L 426.933584 72.495 
L 427.233331 71.3925 
L 427.297478 71.2125 
L 428.109505 67.9725 
L 428.167106 67.77 
L 428.277695 67.23 
L 428.568173 66.15 
L 428.747246 65.34 
L 428.791915 65.115 
L 429.428023 62.5725 
L 429.488812 62.3475 
L 429.607462 61.83 
L 429.83609 61.065 
L 429.89416 60.885 
L 430.190371 59.67 
L 430.312311 59.265 
L 430.390362 58.905 
L 431.071573 55.845 
L 431.142339 55.6425 
L 431.254313 55.26 
L 431.398114 54.765 
L 431.461383 54.5175 
L 431.543858 54.2025 
L 431.652245 53.7525 
L 431.710644 53.5275 
L 431.935241 52.7625 
L 432.575205 50.85 
L 433.139451 48.9375 
L 433.241497 48.51 
L 433.475807 47.835 
L 433.535567 47.6325 
L 434.206378 45.6075 
L 434.289412 45.45 
L 434.462157 44.6175 
L 434.742207 43.875 
L 435.057353 42.57 
L 435.189629 42.0975 
L 435.42721 41.1525 
L 435.576261 40.77 
L 435.902518 39.7575 
L 436.045213 39.3075 
L 436.881418 37.0125 
L 439.053637 31.275 
L 439.262577 30.96 
L 440.168857 28.98 
L 440.436554 28.5975 
L 440.562752 28.35 
L 440.709987 28.08 
L 440.876053 27.7425 
L 441.145529 27.3375 
L 441.349676 26.91 
L 441.533339 26.6625 
L 441.633009 26.415 
L 441.784476 26.145 
L 441.991476 25.8975 
L 442.243806 25.47 
L 442.349418 25.3125 
L 442.886015 24.75 
L 443.187515 24.165 
L 443.374567 23.94 
L 443.497622 23.76 
L 443.8125 23.31 
L 443.926165 23.1525 
L 444.134316 22.9275 
L 444.245181 22.725 
L 444.697184 21.96 
L 444.950717 21.7125 
L 445.114758 21.4875 
L 445.447573 21.33 
L 445.553664 21.2175 
L 445.838156 21.06 
L 445.946824 20.88 
L 446.134067 20.7225 
L 446.665106 20.43 
L 446.952935 20.295 
L 447.308749 20.07 
L 448.040509 19.3725 
L 448.133053 19.305 
L 448.667599 18.9225 
L 449.699212 18.18 
L 450.200736 18 
L 450.621775 17.7075 
L 451.076106 17.4825 
L 451.279263 17.37 
L 451.821455 17.1 
L 451.821995 17.0775 
L 452.620605 16.8525 
L 452.785432 16.8075 
L 453.234084 16.6275 
L 453.357665 16.56 
L 454.32333 16.3575 
L 455.102963 16.1325 
L 457.201415 15.885 
L 459.201224 15.705 
L 463.058992 15.4125 
L 471.137824 15.3225 
L 471.137824 15.3225 
" style="fill:none;stroke:#0000ff;stroke-linecap:square;"/>
   </g>
   <g id="line2d_69">
    <path clip-path="url(#p3a1dc1003a)" d="M 403.429822 127.8 
L 403.429822 15.3 
" style="fill:none;stroke:#0000ff;stroke-dasharray:6.000000,6.000000;stroke-dashoffset:0.0;"/>
   </g>
   <g id="line2d_70">
    <path clip-path="url(#p3a1dc1003a)" d="M 449.890739 127.8 
L 449.890739 15.3 
" style="fill:none;stroke:#0000ff;stroke-dasharray:6.000000,6.000000;stroke-dashoffset:0.0;"/>
   </g>
   <g id="patch_13">
    <path d="M 373.6875 15.3 
L 481.95 15.3 
" style="fill:none;stroke:#000000;stroke-linecap:square;stroke-linejoin:miter;"/>
   </g>
   <g id="patch_14">
    <path d="M 481.95 127.8 
L 481.95 15.3 
" style="fill:none;stroke:#000000;stroke-linecap:square;stroke-linejoin:miter;"/>
   </g>
   <g id="patch_15">
    <path d="M 373.6875 127.8 
L 481.95 127.8 
" style="fill:none;stroke:#000000;stroke-linecap:square;stroke-linejoin:miter;"/>
   </g>
   <g id="patch_16">
    <path d="M 373.6875 127.8 
L 373.6875 15.3 
" style="fill:none;stroke:#000000;stroke-linecap:square;stroke-linejoin:miter;"/>
   </g>
   <g id="matplotlib.axis_5">
    <g id="xtick_15">
     <g id="line2d_71">
      <g>
       <use style="stroke:#000000;stroke-width:0.5;" x="373.6875" xlink:href="#m4ed3ca9dc9" y="127.8"/>
      </g>
     </g>
     <g id="line2d_72">
      <g>
       <use style="stroke:#000000;stroke-width:0.5;" x="373.6875" xlink:href="#m5170dc7d11" y="15.3"/>
      </g>
     </g>
     <g id="text_31">
      <!-- 0.50 -->
      <g transform="translate(362.5546875 139.3984375)scale(0.1 -0.1)">
       <use xlink:href="#BitstreamVeraSans-Roman-30"/>
       <use x="63.623046875" xlink:href="#BitstreamVeraSans-Roman-2e"/>
       <use x="95.41015625" xlink:href="#BitstreamVeraSans-Roman-35"/>
       <use x="159.033203125" xlink:href="#BitstreamVeraSans-Roman-30"/>
      </g>
     </g>
    </g>
    <g id="xtick_16">
     <g id="line2d_73">
      <g>
       <use style="stroke:#000000;stroke-width:0.5;" x="391.73125" xlink:href="#m4ed3ca9dc9" y="127.8"/>
      </g>
     </g>
     <g id="line2d_74">
      <g>
       <use style="stroke:#000000;stroke-width:0.5;" x="391.73125" xlink:href="#m5170dc7d11" y="15.3"/>
      </g>
     </g>
     <g id="text_32">
      <!-- 0.55 -->
      <g transform="translate(380.5984375 139.3984375)scale(0.1 -0.1)">
       <use xlink:href="#BitstreamVeraSans-Roman-30"/>
       <use x="63.623046875" xlink:href="#BitstreamVeraSans-Roman-2e"/>
       <use x="95.41015625" xlink:href="#BitstreamVeraSans-Roman-35"/>
       <use x="159.033203125" xlink:href="#BitstreamVeraSans-Roman-35"/>
      </g>
     </g>
    </g>
    <g id="xtick_17">
     <g id="line2d_75">
      <g>
       <use style="stroke:#000000;stroke-width:0.5;" x="409.775" xlink:href="#m4ed3ca9dc9" y="127.8"/>
      </g>
     </g>
     <g id="line2d_76">
      <g>
       <use style="stroke:#000000;stroke-width:0.5;" x="409.775" xlink:href="#m5170dc7d11" y="15.3"/>
      </g>
     </g>
     <g id="text_33">
      <!-- 0.60 -->
      <g transform="translate(398.6421875 139.3984375)scale(0.1 -0.1)">
       <use xlink:href="#BitstreamVeraSans-Roman-30"/>
       <use x="63.623046875" xlink:href="#BitstreamVeraSans-Roman-2e"/>
       <use x="95.41015625" xlink:href="#BitstreamVeraSans-Roman-36"/>
       <use x="159.033203125" xlink:href="#BitstreamVeraSans-Roman-30"/>
      </g>
     </g>
    </g>
    <g id="xtick_18">
     <g id="line2d_77">
      <g>
       <use style="stroke:#000000;stroke-width:0.5;" x="427.81875" xlink:href="#m4ed3ca9dc9" y="127.8"/>
      </g>
     </g>
     <g id="line2d_78">
      <g>
       <use style="stroke:#000000;stroke-width:0.5;" x="427.81875" xlink:href="#m5170dc7d11" y="15.3"/>
      </g>
     </g>
     <g id="text_34">
      <!-- 0.65 -->
      <g transform="translate(416.6859375 139.3984375)scale(0.1 -0.1)">
       <use xlink:href="#BitstreamVeraSans-Roman-30"/>
       <use x="63.623046875" xlink:href="#BitstreamVeraSans-Roman-2e"/>
       <use x="95.41015625" xlink:href="#BitstreamVeraSans-Roman-36"/>
       <use x="159.033203125" xlink:href="#BitstreamVeraSans-Roman-35"/>
      </g>
     </g>
    </g>
    <g id="xtick_19">
     <g id="line2d_79">
      <g>
       <use style="stroke:#000000;stroke-width:0.5;" x="445.8625" xlink:href="#m4ed3ca9dc9" y="127.8"/>
      </g>
     </g>
     <g id="line2d_80">
      <g>
       <use style="stroke:#000000;stroke-width:0.5;" x="445.8625" xlink:href="#m5170dc7d11" y="15.3"/>
      </g>
     </g>
     <g id="text_35">
      <!-- 0.70 -->
      <g transform="translate(434.7296875 139.3984375)scale(0.1 -0.1)">
       <use xlink:href="#BitstreamVeraSans-Roman-30"/>
       <use x="63.623046875" xlink:href="#BitstreamVeraSans-Roman-2e"/>
       <use x="95.41015625" xlink:href="#BitstreamVeraSans-Roman-37"/>
       <use x="159.033203125" xlink:href="#BitstreamVeraSans-Roman-30"/>
      </g>
     </g>
    </g>
    <g id="xtick_20">
     <g id="line2d_81">
      <g>
       <use style="stroke:#000000;stroke-width:0.5;" x="463.90625" xlink:href="#m4ed3ca9dc9" y="127.8"/>
      </g>
     </g>
     <g id="line2d_82">
      <g>
       <use style="stroke:#000000;stroke-width:0.5;" x="463.90625" xlink:href="#m5170dc7d11" y="15.3"/>
      </g>
     </g>
     <g id="text_36">
      <!-- 0.75 -->
      <g transform="translate(452.7734375 139.3984375)scale(0.1 -0.1)">
       <use xlink:href="#BitstreamVeraSans-Roman-30"/>
       <use x="63.623046875" xlink:href="#BitstreamVeraSans-Roman-2e"/>
       <use x="95.41015625" xlink:href="#BitstreamVeraSans-Roman-37"/>
       <use x="159.033203125" xlink:href="#BitstreamVeraSans-Roman-35"/>
      </g>
     </g>
    </g>
    <g id="xtick_21">
     <g id="line2d_83">
      <g>
       <use style="stroke:#000000;stroke-width:0.5;" x="481.95" xlink:href="#m4ed3ca9dc9" y="127.8"/>
      </g>
     </g>
     <g id="line2d_84">
      <g>
       <use style="stroke:#000000;stroke-width:0.5;" x="481.95" xlink:href="#m5170dc7d11" y="15.3"/>
      </g>
     </g>
     <g id="text_37">
      <!-- 0.80 -->
      <g transform="translate(470.8171875 139.3984375)scale(0.1 -0.1)">
       <use xlink:href="#BitstreamVeraSans-Roman-30"/>
       <use x="63.623046875" xlink:href="#BitstreamVeraSans-Roman-2e"/>
       <use x="95.41015625" xlink:href="#BitstreamVeraSans-Roman-38"/>
       <use x="159.033203125" xlink:href="#BitstreamVeraSans-Roman-30"/>
      </g>
     </g>
    </g>
    <g id="text_38">
     <!-- Z component -->
     <defs>
      <path d="M 5.609375 72.90625 
L 62.890625 72.90625 
L 62.890625 65.375 
L 16.796875 8.296875 
L 64.015625 8.296875 
L 64.015625 0 
L 4.5 0 
L 4.5 7.515625 
L 50.59375 64.59375 
L 5.609375 64.59375 
z
" id="BitstreamVeraSans-Roman-5a"/>
     </defs>
     <g transform="translate(394.51796875 154.0765625)scale(0.1 -0.1)">
      <use xlink:href="#BitstreamVeraSans-Roman-5a"/>
      <use x="68.505859375" xlink:href="#BitstreamVeraSans-Roman-20"/>
      <use x="100.29296875" xlink:href="#BitstreamVeraSans-Roman-63"/>
      <use x="155.2734375" xlink:href="#BitstreamVeraSans-Roman-6f"/>
      <use x="216.455078125" xlink:href="#BitstreamVeraSans-Roman-6d"/>
      <use x="313.8671875" xlink:href="#BitstreamVeraSans-Roman-70"/>
      <use x="377.34375" xlink:href="#BitstreamVeraSans-Roman-6f"/>
      <use x="438.525390625" xlink:href="#BitstreamVeraSans-Roman-6e"/>
      <use x="501.904296875" xlink:href="#BitstreamVeraSans-Roman-65"/>
      <use x="563.427734375" xlink:href="#BitstreamVeraSans-Roman-6e"/>
      <use x="626.806640625" xlink:href="#BitstreamVeraSans-Roman-74"/>
     </g>
    </g>
   </g>
   <g id="matplotlib.axis_6">
    <g id="ytick_13">
     <g id="line2d_85">
      <g>
       <use style="stroke:#000000;stroke-width:0.5;" x="373.6875" xlink:href="#ma23cb4ed13" y="127.8"/>
      </g>
     </g>
     <g id="line2d_86">
      <g>
       <use style="stroke:#000000;stroke-width:0.5;" x="481.95" xlink:href="#m6a96013a0f" y="127.8"/>
      </g>
     </g>
     <g id="text_39">
      <!-- 0.0 -->
      <g transform="translate(353.784375 130.559375)scale(0.1 -0.1)">
       <use xlink:href="#BitstreamVeraSans-Roman-30"/>
       <use x="63.623046875" xlink:href="#BitstreamVeraSans-Roman-2e"/>
       <use x="95.41015625" xlink:href="#BitstreamVeraSans-Roman-30"/>
      </g>
     </g>
    </g>
    <g id="ytick_14">
     <g id="line2d_87">
      <g>
       <use style="stroke:#000000;stroke-width:0.5;" x="373.6875" xlink:href="#ma23cb4ed13" y="105.3"/>
      </g>
     </g>
     <g id="line2d_88">
      <g>
       <use style="stroke:#000000;stroke-width:0.5;" x="481.95" xlink:href="#m6a96013a0f" y="105.3"/>
      </g>
     </g>
     <g id="text_40">
      <!-- 0.2 -->
      <g transform="translate(353.784375 108.059375)scale(0.1 -0.1)">
       <use xlink:href="#BitstreamVeraSans-Roman-30"/>
       <use x="63.623046875" xlink:href="#BitstreamVeraSans-Roman-2e"/>
       <use x="95.41015625" xlink:href="#BitstreamVeraSans-Roman-32"/>
      </g>
     </g>
    </g>
    <g id="ytick_15">
     <g id="line2d_89">
      <g>
       <use style="stroke:#000000;stroke-width:0.5;" x="373.6875" xlink:href="#ma23cb4ed13" y="82.8"/>
      </g>
     </g>
     <g id="line2d_90">
      <g>
       <use style="stroke:#000000;stroke-width:0.5;" x="481.95" xlink:href="#m6a96013a0f" y="82.8"/>
      </g>
     </g>
     <g id="text_41">
      <!-- 0.4 -->
      <g transform="translate(353.784375 85.559375)scale(0.1 -0.1)">
       <use xlink:href="#BitstreamVeraSans-Roman-30"/>
       <use x="63.623046875" xlink:href="#BitstreamVeraSans-Roman-2e"/>
       <use x="95.41015625" xlink:href="#BitstreamVeraSans-Roman-34"/>
      </g>
     </g>
    </g>
    <g id="ytick_16">
     <g id="line2d_91">
      <g>
       <use style="stroke:#000000;stroke-width:0.5;" x="373.6875" xlink:href="#ma23cb4ed13" y="60.3"/>
      </g>
     </g>
     <g id="line2d_92">
      <g>
       <use style="stroke:#000000;stroke-width:0.5;" x="481.95" xlink:href="#m6a96013a0f" y="60.3"/>
      </g>
     </g>
     <g id="text_42">
      <!-- 0.6 -->
      <g transform="translate(353.784375 63.059375)scale(0.1 -0.1)">
       <use xlink:href="#BitstreamVeraSans-Roman-30"/>
       <use x="63.623046875" xlink:href="#BitstreamVeraSans-Roman-2e"/>
       <use x="95.41015625" xlink:href="#BitstreamVeraSans-Roman-36"/>
      </g>
     </g>
    </g>
    <g id="ytick_17">
     <g id="line2d_93">
      <g>
       <use style="stroke:#000000;stroke-width:0.5;" x="373.6875" xlink:href="#ma23cb4ed13" y="37.8"/>
      </g>
     </g>
     <g id="line2d_94">
      <g>
       <use style="stroke:#000000;stroke-width:0.5;" x="481.95" xlink:href="#m6a96013a0f" y="37.8"/>
      </g>
     </g>
     <g id="text_43">
      <!-- 0.8 -->
      <g transform="translate(353.784375 40.559375)scale(0.1 -0.1)">
       <use xlink:href="#BitstreamVeraSans-Roman-30"/>
       <use x="63.623046875" xlink:href="#BitstreamVeraSans-Roman-2e"/>
       <use x="95.41015625" xlink:href="#BitstreamVeraSans-Roman-38"/>
      </g>
     </g>
    </g>
    <g id="ytick_18">
     <g id="line2d_95">
      <g>
       <use style="stroke:#000000;stroke-width:0.5;" x="373.6875" xlink:href="#ma23cb4ed13" y="15.3"/>
      </g>
     </g>
     <g id="line2d_96">
      <g>
       <use style="stroke:#000000;stroke-width:0.5;" x="481.95" xlink:href="#m6a96013a0f" y="15.3"/>
      </g>
     </g>
     <g id="text_44">
      <!-- 1.0 -->
      <g transform="translate(353.784375 18.059375)scale(0.1 -0.1)">
       <use xlink:href="#BitstreamVeraSans-Roman-31"/>
       <use x="63.623046875" xlink:href="#BitstreamVeraSans-Roman-2e"/>
       <use x="95.41015625" xlink:href="#BitstreamVeraSans-Roman-30"/>
      </g>
     </g>
    </g>
    <g id="text_45">
     <!-- Cumulative Distribution -->
     <g transform="translate(346.7046875 130.8453125)rotate(-90.0)scale(0.1 -0.1)">
      <use xlink:href="#BitstreamVeraSans-Roman-43"/>
      <use x="69.82421875" xlink:href="#BitstreamVeraSans-Roman-75"/>
      <use x="133.203125" xlink:href="#BitstreamVeraSans-Roman-6d"/>
      <use x="230.615234375" xlink:href="#BitstreamVeraSans-Roman-75"/>
      <use x="293.994140625" xlink:href="#BitstreamVeraSans-Roman-6c"/>
      <use x="321.77734375" xlink:href="#BitstreamVeraSans-Roman-61"/>
      <use x="383.056640625" xlink:href="#BitstreamVeraSans-Roman-74"/>
      <use x="422.265625" xlink:href="#BitstreamVeraSans-Roman-69"/>
      <use x="450.048828125" xlink:href="#BitstreamVeraSans-Roman-76"/>
      <use x="509.228515625" xlink:href="#BitstreamVeraSans-Roman-65"/>
      <use x="570.751953125" xlink:href="#BitstreamVeraSans-Roman-20"/>
      <use x="602.5390625" xlink:href="#BitstreamVeraSans-Roman-44"/>
      <use x="679.541015625" xlink:href="#BitstreamVeraSans-Roman-69"/>
      <use x="707.32421875" xlink:href="#BitstreamVeraSans-Roman-73"/>
      <use x="759.423828125" xlink:href="#BitstreamVeraSans-Roman-74"/>
      <use x="798.6328125" xlink:href="#BitstreamVeraSans-Roman-72"/>
      <use x="839.74609375" xlink:href="#BitstreamVeraSans-Roman-69"/>
      <use x="867.529296875" xlink:href="#BitstreamVeraSans-Roman-62"/>
      <use x="931.005859375" xlink:href="#BitstreamVeraSans-Roman-75"/>
      <use x="994.384765625" xlink:href="#BitstreamVeraSans-Roman-74"/>
      <use x="1033.59375" xlink:href="#BitstreamVeraSans-Roman-69"/>
      <use x="1061.37695312" xlink:href="#BitstreamVeraSans-Roman-6f"/>
      <use x="1122.55859375" xlink:href="#BitstreamVeraSans-Roman-6e"/>
     </g>
    </g>
   </g>
  </g>
 </g>
 <defs>
  <clipPath id="p79470b44ad">
   <rect height="112.5" width="108.2625" x="44.8875" y="15.3"/>
  </clipPath>
  <clipPath id="p3a1dc1003a">
   <rect height="112.5" width="108.2625" x="373.6875" y="15.3"/>
  </clipPath>
  <clipPath id="p2ad1beb743">
   <rect height="112.5" width="108.2625" x="209.2875" y="15.3"/>
  </clipPath>
 </defs>
</svg>
