<?xml version="1.0" encoding="utf-8" standalone="no"?>
<!DOCTYPE svg PUBLIC "-//W3C//DTD SVG 1.1//EN"
  "http://www.w3.org/Graphics/SVG/1.1/DTD/svg11.dtd">
<!-- Created with matplotlib (http://matplotlib.org/) -->
<svg height="165pt" version="1.1" viewBox="0 0 504 165" width="504pt" xmlns="http://www.w3.org/2000/svg" xmlns:xlink="http://www.w3.org/1999/xlink">
 <defs>
  <style type="text/css">
*{stroke-linecap:butt;stroke-linejoin:round;stroke-miterlimit:100000;}
  </style>
 </defs>
 <g id="figure_1">
  <g id="patch_1">
   <path d="M 0 165.6 
L 504 165.6 
L 504 0 
L 0 0 
z
" style="fill:#ffffff;"/>
  </g>
  <g id="axes_1">
   <g id="patch_2">
    <path d="M 44.8875 127.8 
L 156.35625 127.8 
L 156.35625 15.3 
L 44.8875 15.3 
z
" style="fill:#ffffff;"/>
   </g>
   <g id="line2d_1">
    <path clip-path="url(#pfeaf02e4a1)" d="M 58.246791 127.8 
L 60.239308 127.755 
L 66.261836 127.62 
L 67.997768 127.4625 
L 68.406292 127.4175 
L 72.853149 126.6525 
L 73.344818 126.4725 
L 74.3515 126.2025 
L 75.060282 126.0225 
L 75.784375 125.865 
L 76.893736 125.505 
L 77.060987 125.3925 
L 77.307173 125.1675 
L 78.201328 124.8075 
L 78.719462 124.5825 
L 78.818847 124.4925 
L 79.745847 123.8175 
L 79.973044 123.6825 
L 80.14786 123.525 
L 80.446599 123.21 
L 80.619258 123.1425 
L 80.962709 122.85 
L 81.099851 122.7825 
L 81.720322 122.2875 
L 81.94259 122.085 
L 82.093201 121.905 
L 82.906243 120.915 
L 82.970535 120.825 
L 83.134119 120.69 
L 83.251898 120.4875 
L 84.548087 119.1375 
L 84.726556 118.8675 
L 84.827519 118.71 
L 84.944143 118.53 
L 85.048496 118.3725 
L 85.226819 118.125 
L 85.825511 117.495 
L 86.015101 117.315 
L 86.277481 116.8875 
L 86.415641 116.64 
L 86.650357 116.37 
L 86.810694 116.1 
L 87.273602 115.2675 
L 87.590141 114.9975 
L 88.019739 114.03 
L 88.111128 113.895 
L 88.229239 113.6925 
L 88.377984 113.445 
L 88.550058 113.04 
L 88.927071 112.3425 
L 89.104649 112.05 
L 89.344841 111.42 
L 89.564387 111.015 
L 89.63222 110.88 
L 89.68545 110.6775 
L 89.809498 110.3175 
L 90.278923 109.35 
L 90.424802 109.08 
L 90.878271 108 
L 92.513165 103.2525 
L 92.699355 102.8025 
L 92.881263 102.15 
L 92.969872 101.9025 
L 93.269365 101.115 
L 93.434616 100.53 
L 93.558781 100.26 
L 93.666855 99.9225 
L 93.786324 99.72 
L 94.012989 99.135 
L 94.145392 98.7075 
L 94.21157 98.55 
L 94.328509 98.0325 
L 94.402509 97.74 
L 94.575174 97.1775 
L 94.650851 97.02 
L 95.055115 95.6925 
L 95.247369 95.0175 
L 95.317598 94.7925 
L 95.898779 93.15 
L 96.240205 91.9125 
L 96.481172 91.26 
L 96.89897 89.325 
L 96.988745 89.01 
L 98.823698 81.855 
L 98.99962 81.135 
L 99.176778 80.37 
L 99.507971 79.155 
L 99.573535 78.75 
L 99.696103 77.985 
L 100.121063 76.1175 
L 100.252632 75.6675 
L 100.468959 74.7225 
L 100.53792 74.475 
L 100.667485 73.845 
L 102.816194 65.34 
L 103.159034 63.81 
L 103.235846 63.6075 
L 103.35821 63.2475 
L 103.923799 61.29 
L 104.340539 59.265 
L 104.490154 58.725 
L 104.679299 57.915 
L 104.779404 57.5775 
L 105.009752 56.655 
L 105.1516 56.205 
L 105.304587 55.8225 
L 105.630668 54.405 
L 105.712043 54.2025 
L 105.83542 53.73 
L 105.943 53.325 
L 106.044392 52.7625 
L 106.14516 52.4025 
L 106.322182 51.8625 
L 106.540607 51.12 
L 110.083146 39.0825 
L 110.496551 38.1825 
L 110.670513 37.6425 
L 111.112548 36.225 
L 111.249731 35.8875 
L 111.374152 35.55 
L 113.971217 28.755 
L 114.241535 28.395 
L 114.366478 27.9675 
L 114.736921 27.0675 
L 115.756714 25.38 
L 115.989491 25.0875 
L 117.659892 22.41 
L 117.815262 22.1625 
L 118.444961 21.51 
L 118.660926 21.3525 
L 121.12263 18.63 
L 121.391237 18.45 
L 121.898019 18.045 
L 122.199434 17.865 
L 123.060717 17.235 
L 123.463756 17.0775 
L 123.566826 17.01 
L 124.222826 16.7175 
L 125.081863 16.5375 
L 125.282958 16.4025 
L 126.051937 16.065 
L 126.076596 16.0425 
L 132.46624 15.3675 
L 136.768366 15.3225 
L 136.768366 15.3225 
" style="fill:none;stroke:#ff0000;stroke-linecap:square;"/>
   </g>
   <g id="line2d_2">
    <path clip-path="url(#pfeaf02e4a1)" d="M 77.642988 127.8 
L 77.642988 15.3 
" style="fill:none;stroke:#ff0000;stroke-linecap:square;"/>
   </g>
   <g id="line2d_3">
    <path clip-path="url(#pfeaf02e4a1)" d="M 121.863441 127.8 
L 121.863441 15.3 
" style="fill:none;stroke:#ff0000;stroke-linecap:square;"/>
   </g>
   <g id="line2d_4">
    <path clip-path="url(#pfeaf02e4a1)" d="M 79.167945 127.8 
L 90.280642 127.6425 
L 90.309398 127.62 
L 94.516506 127.1925 
L 95.669615 126.945 
L 95.964212 126.8775 
L 96.883478 126.72 
L 98.429631 126.315 
L 98.638478 126.225 
L 99.597397 126.045 
L 100.098163 125.8425 
L 100.975705 125.37 
L 101.420368 125.19 
L 101.60791 125.0325 
L 101.824229 124.875 
L 101.927305 124.7625 
L 102.181047 124.605 
L 102.436304 124.4025 
L 103.264032 123.885 
L 103.401191 123.6825 
L 103.622141 123.48 
L 103.997727 123.12 
L 104.496362 122.8725 
L 105.368608 122.1075 
L 106.068386 121.41 
L 106.213231 121.2525 
L 106.323874 121.095 
L 106.504655 120.915 
L 106.665439 120.735 
L 106.740634 120.5775 
L 106.998248 120.3075 
L 107.361361 119.8575 
L 107.546754 119.6325 
L 107.656744 119.5425 
L 107.830857 119.385 
L 107.947194 119.2275 
L 108.102374 119.0025 
L 108.639447 118.215 
L 108.738666 117.855 
L 108.864253 117.6975 
L 109.124866 117.225 
L 109.433773 116.7975 
L 109.654542 116.325 
L 109.998076 115.74 
L 110.172192 115.1775 
L 110.719036 114.0075 
L 110.876914 113.76 
L 111.055151 113.3325 
L 111.319405 112.5675 
L 111.598725 111.9825 
L 111.770988 111.5775 
L 111.999518 110.6775 
L 112.085331 110.4525 
L 112.243413 110.07 
L 112.421575 109.8225 
L 112.579001 109.485 
L 112.676332 109.2825 
L 112.778094 109.0125 
L 112.861269 108.6525 
L 113.072073 108.0225 
L 113.184335 107.7975 
L 113.286398 107.5725 
L 113.38513 107.3475 
L 113.764283 106.2675 
L 113.876981 106.02 
L 113.996371 105.7275 
L 114.186185 105.435 
L 114.323831 104.895 
L 114.452984 104.6025 
L 114.567271 104.175 
L 114.623761 103.9725 
L 114.79065 103.41 
L 114.894236 103.2525 
L 115.056157 102.6225 
L 115.113541 102.42 
L 115.35095 101.655 
L 115.438143 101.43 
L 117.088974 96.075 
L 117.192629 95.67 
L 117.356641 95.4225 
L 117.501678 94.8825 
L 117.736159 94.1175 
L 118.125222 92.565 
L 118.227211 92.295 
L 118.437795 91.5525 
L 118.494969 91.395 
L 118.829916 90.3825 
L 118.99805 89.82 
L 119.093681 89.505 
L 119.204722 89.0325 
L 119.285741 88.695 
L 119.488057 87.8175 
L 119.556136 87.615 
L 120.040368 85.6125 
L 120.262394 85.095 
L 123.124446 73.17 
L 123.2343 72.675 
L 123.418617 71.9775 
L 123.570895 71.4375 
L 123.663844 70.965 
L 123.81491 70.3125 
L 124.022958 69.615 
L 124.134011 68.94 
L 124.397482 67.8825 
L 124.487624 67.5225 
L 124.615848 66.8025 
L 124.669981 66.6 
L 124.82801 65.9025 
L 129.95242 45.0675 
L 130.005029 44.82 
L 130.297092 43.7625 
L 130.408697 43.335 
L 130.845628 41.76 
L 130.961148 41.355 
L 131.256821 40.185 
L 131.399605 39.7575 
L 132.385294 36.9675 
L 132.45293 36.7875 
L 132.558468 36.4725 
L 132.787126 35.7525 
L 132.970028 35.145 
L 133.166668 34.6275 
L 133.349121 34.29 
L 133.736908 33.3 
L 134.537165 31.1625 
L 134.989243 29.835 
L 135.184631 29.3175 
L 135.400442 28.6425 
L 137.736896 23.85 
L 137.852673 23.625 
L 138.065522 23.1975 
L 138.213659 23.04 
L 138.330236 22.8375 
L 138.951144 22.0725 
L 139.016736 21.915 
L 139.169304 21.7575 
L 139.277853 21.555 
L 139.417213 21.285 
L 139.64828 21.06 
L 140.771817 19.755 
L 140.775746 19.7325 
L 141.009044 19.5975 
L 141.333602 19.305 
L 141.6852 19.0125 
L 141.827047 18.81 
L 141.968388 18.63 
L 142.055429 18.5175 
L 142.249714 18.3825 
L 142.481558 18.225 
L 142.711566 18.0675 
L 142.736153 18.0225 
L 143.11013 17.865 
L 143.223408 17.7075 
L 143.731706 17.46 
L 143.817841 17.3475 
L 144.117925 17.19 
L 144.544508 16.9425 
L 144.971902 16.695 
L 145.974645 16.4925 
L 146.108829 16.3575 
L 146.409896 16.2225 
L 146.734511 16.065 
L 146.742714 16.02 
L 147.388898 15.8175 
L 147.560212 15.7725 
L 150.136156 15.48 
L 153.977083 15.3225 
L 153.977083 15.3225 
" style="fill:none;stroke:#0000ff;stroke-linecap:square;"/>
   </g>
   <g id="line2d_5">
    <path clip-path="url(#pfeaf02e4a1)" d="M 101.710028 127.8 
L 101.710028 15.3 
" style="fill:none;stroke:#0000ff;stroke-dasharray:6.000000,6.000000;stroke-dashoffset:0.0;"/>
   </g>
   <g id="line2d_6">
    <path clip-path="url(#pfeaf02e4a1)" d="M 142.679056 127.8 
L 142.679056 15.3 
" style="fill:none;stroke:#0000ff;stroke-dasharray:6.000000,6.000000;stroke-dashoffset:0.0;"/>
   </g>
   <g id="patch_3">
    <path d="M 44.8875 15.3 
L 156.35625 15.3 
" style="fill:none;stroke:#000000;stroke-linecap:square;stroke-linejoin:miter;"/>
   </g>
   <g id="patch_4">
    <path d="M 156.35625 127.8 
L 156.35625 15.3 
" style="fill:none;stroke:#000000;stroke-linecap:square;stroke-linejoin:miter;"/>
   </g>
   <g id="patch_5">
    <path d="M 44.8875 127.8 
L 156.35625 127.8 
" style="fill:none;stroke:#000000;stroke-linecap:square;stroke-linejoin:miter;"/>
   </g>
   <g id="patch_6">
    <path d="M 44.8875 127.8 
L 44.8875 15.3 
" style="fill:none;stroke:#000000;stroke-linecap:square;stroke-linejoin:miter;"/>
   </g>
   <g id="matplotlib.axis_1">
    <g id="xtick_1">
     <g id="line2d_7">
      <defs>
       <path d="M 0 0 
L 0 -4 
" id="m7fbe1c246f" style="stroke:#000000;stroke-width:0.5;"/>
      </defs>
      <g>
       <use style="stroke:#000000;stroke-width:0.5;" x="44.8875" xlink:href="#m7fbe1c246f" y="127.8"/>
      </g>
     </g>
     <g id="line2d_8">
      <defs>
       <path d="M 0 0 
L 0 4 
" id="m1348165a6f" style="stroke:#000000;stroke-width:0.5;"/>
      </defs>
      <g>
       <use style="stroke:#000000;stroke-width:0.5;" x="44.8875" xlink:href="#m1348165a6f" y="15.3"/>
      </g>
     </g>
     <g id="text_1">
      <!-- 0.4 -->
      <defs>
       <path d="M 31.78125 66.40625 
Q 24.171875 66.40625 20.328125 58.90625 
Q 16.5 51.421875 16.5 36.375 
Q 16.5 21.390625 20.328125 13.890625 
Q 24.171875 6.390625 31.78125 6.390625 
Q 39.453125 6.390625 43.28125 13.890625 
Q 47.125 21.390625 47.125 36.375 
Q 47.125 51.421875 43.28125 58.90625 
Q 39.453125 66.40625 31.78125 66.40625 
M 31.78125 74.21875 
Q 44.046875 74.21875 50.515625 64.515625 
Q 56.984375 54.828125 56.984375 36.375 
Q 56.984375 17.96875 50.515625 8.265625 
Q 44.046875 -1.421875 31.78125 -1.421875 
Q 19.53125 -1.421875 13.0625 8.265625 
Q 6.59375 17.96875 6.59375 36.375 
Q 6.59375 54.828125 13.0625 64.515625 
Q 19.53125 74.21875 31.78125 74.21875 
" id="BitstreamVeraSans-Roman-30"/>
       <path d="M 10.6875 12.40625 
L 21 12.40625 
L 21 0 
L 10.6875 0 
z
" id="BitstreamVeraSans-Roman-2e"/>
       <path d="M 37.796875 64.3125 
L 12.890625 25.390625 
L 37.796875 25.390625 
z
M 35.203125 72.90625 
L 47.609375 72.90625 
L 47.609375 25.390625 
L 58.015625 25.390625 
L 58.015625 17.1875 
L 47.609375 17.1875 
L 47.609375 0 
L 37.796875 0 
L 37.796875 17.1875 
L 4.890625 17.1875 
L 4.890625 26.703125 
z
" id="BitstreamVeraSans-Roman-34"/>
      </defs>
      <g transform="translate(36.9359375 139.3984375)scale(0.1 -0.1)">
       <use xlink:href="#BitstreamVeraSans-Roman-30"/>
       <use x="63.623046875" xlink:href="#BitstreamVeraSans-Roman-2e"/>
       <use x="95.41015625" xlink:href="#BitstreamVeraSans-Roman-34"/>
      </g>
     </g>
    </g>
    <g id="xtick_2">
     <g id="line2d_9">
      <g>
       <use style="stroke:#000000;stroke-width:0.5;" x="82.04375" xlink:href="#m7fbe1c246f" y="127.8"/>
      </g>
     </g>
     <g id="line2d_10">
      <g>
       <use style="stroke:#000000;stroke-width:0.5;" x="82.04375" xlink:href="#m1348165a6f" y="15.3"/>
      </g>
     </g>
     <g id="text_2">
      <!-- 0.5 -->
      <defs>
       <path d="M 10.796875 72.90625 
L 49.515625 72.90625 
L 49.515625 64.59375 
L 19.828125 64.59375 
L 19.828125 46.734375 
Q 21.96875 47.46875 24.109375 47.828125 
Q 26.265625 48.1875 28.421875 48.1875 
Q 40.625 48.1875 47.75 41.5 
Q 54.890625 34.8125 54.890625 23.390625 
Q 54.890625 11.625 47.5625 5.09375 
Q 40.234375 -1.421875 26.90625 -1.421875 
Q 22.3125 -1.421875 17.546875 -0.640625 
Q 12.796875 0.140625 7.71875 1.703125 
L 7.71875 11.625 
Q 12.109375 9.234375 16.796875 8.0625 
Q 21.484375 6.890625 26.703125 6.890625 
Q 35.15625 6.890625 40.078125 11.328125 
Q 45.015625 15.765625 45.015625 23.390625 
Q 45.015625 31 40.078125 35.4375 
Q 35.15625 39.890625 26.703125 39.890625 
Q 22.75 39.890625 18.8125 39.015625 
Q 14.890625 38.140625 10.796875 36.28125 
z
" id="BitstreamVeraSans-Roman-35"/>
      </defs>
      <g transform="translate(74.0921875 139.3984375)scale(0.1 -0.1)">
       <use xlink:href="#BitstreamVeraSans-Roman-30"/>
       <use x="63.623046875" xlink:href="#BitstreamVeraSans-Roman-2e"/>
       <use x="95.41015625" xlink:href="#BitstreamVeraSans-Roman-35"/>
      </g>
     </g>
    </g>
    <g id="xtick_3">
     <g id="line2d_11">
      <g>
       <use style="stroke:#000000;stroke-width:0.5;" x="119.2" xlink:href="#m7fbe1c246f" y="127.8"/>
      </g>
     </g>
     <g id="line2d_12">
      <g>
       <use style="stroke:#000000;stroke-width:0.5;" x="119.2" xlink:href="#m1348165a6f" y="15.3"/>
      </g>
     </g>
     <g id="text_3">
      <!-- 0.6 -->
      <defs>
       <path d="M 33.015625 40.375 
Q 26.375 40.375 22.484375 35.828125 
Q 18.609375 31.296875 18.609375 23.390625 
Q 18.609375 15.53125 22.484375 10.953125 
Q 26.375 6.390625 33.015625 6.390625 
Q 39.65625 6.390625 43.53125 10.953125 
Q 47.40625 15.53125 47.40625 23.390625 
Q 47.40625 31.296875 43.53125 35.828125 
Q 39.65625 40.375 33.015625 40.375 
M 52.59375 71.296875 
L 52.59375 62.3125 
Q 48.875 64.0625 45.09375 64.984375 
Q 41.3125 65.921875 37.59375 65.921875 
Q 27.828125 65.921875 22.671875 59.328125 
Q 17.53125 52.734375 16.796875 39.40625 
Q 19.671875 43.65625 24.015625 45.921875 
Q 28.375 48.1875 33.59375 48.1875 
Q 44.578125 48.1875 50.953125 41.515625 
Q 57.328125 34.859375 57.328125 23.390625 
Q 57.328125 12.15625 50.6875 5.359375 
Q 44.046875 -1.421875 33.015625 -1.421875 
Q 20.359375 -1.421875 13.671875 8.265625 
Q 6.984375 17.96875 6.984375 36.375 
Q 6.984375 53.65625 15.1875 63.9375 
Q 23.390625 74.21875 37.203125 74.21875 
Q 40.921875 74.21875 44.703125 73.484375 
Q 48.484375 72.75 52.59375 71.296875 
" id="BitstreamVeraSans-Roman-36"/>
      </defs>
      <g transform="translate(111.2484375 139.3984375)scale(0.1 -0.1)">
       <use xlink:href="#BitstreamVeraSans-Roman-30"/>
       <use x="63.623046875" xlink:href="#BitstreamVeraSans-Roman-2e"/>
       <use x="95.41015625" xlink:href="#BitstreamVeraSans-Roman-36"/>
      </g>
     </g>
    </g>
    <g id="xtick_4">
     <g id="line2d_13">
      <g>
       <use style="stroke:#000000;stroke-width:0.5;" x="156.35625" xlink:href="#m7fbe1c246f" y="127.8"/>
      </g>
     </g>
     <g id="line2d_14">
      <g>
       <use style="stroke:#000000;stroke-width:0.5;" x="156.35625" xlink:href="#m1348165a6f" y="15.3"/>
      </g>
     </g>
     <g id="text_4">
      <!-- 0.7 -->
      <defs>
       <path d="M 8.203125 72.90625 
L 55.078125 72.90625 
L 55.078125 68.703125 
L 28.609375 0 
L 18.3125 0 
L 43.21875 64.59375 
L 8.203125 64.59375 
z
" id="BitstreamVeraSans-Roman-37"/>
      </defs>
      <g transform="translate(148.4046875 139.3984375)scale(0.1 -0.1)">
       <use xlink:href="#BitstreamVeraSans-Roman-30"/>
       <use x="63.623046875" xlink:href="#BitstreamVeraSans-Roman-2e"/>
       <use x="95.41015625" xlink:href="#BitstreamVeraSans-Roman-37"/>
      </g>
     </g>
    </g>
    <g id="text_5">
     <!-- X component -->
     <defs>
      <path id="BitstreamVeraSans-Roman-20"/>
      <path d="M 54.890625 33.015625 
L 54.890625 0 
L 45.90625 0 
L 45.90625 32.71875 
Q 45.90625 40.484375 42.875 44.328125 
Q 39.84375 48.1875 33.796875 48.1875 
Q 26.515625 48.1875 22.3125 43.546875 
Q 18.109375 38.921875 18.109375 30.90625 
L 18.109375 0 
L 9.078125 0 
L 9.078125 54.6875 
L 18.109375 54.6875 
L 18.109375 46.1875 
Q 21.34375 51.125 25.703125 53.5625 
Q 30.078125 56 35.796875 56 
Q 45.21875 56 50.046875 50.171875 
Q 54.890625 44.34375 54.890625 33.015625 
" id="BitstreamVeraSans-Roman-6e"/>
      <path d="M 52 44.1875 
Q 55.375 50.25 60.0625 53.125 
Q 64.75 56 71.09375 56 
Q 79.640625 56 84.28125 50.015625 
Q 88.921875 44.046875 88.921875 33.015625 
L 88.921875 0 
L 79.890625 0 
L 79.890625 32.71875 
Q 79.890625 40.578125 77.09375 44.375 
Q 74.3125 48.1875 68.609375 48.1875 
Q 61.625 48.1875 57.5625 43.546875 
Q 53.515625 38.921875 53.515625 30.90625 
L 53.515625 0 
L 44.484375 0 
L 44.484375 32.71875 
Q 44.484375 40.625 41.703125 44.40625 
Q 38.921875 48.1875 33.109375 48.1875 
Q 26.21875 48.1875 22.15625 43.53125 
Q 18.109375 38.875 18.109375 30.90625 
L 18.109375 0 
L 9.078125 0 
L 9.078125 54.6875 
L 18.109375 54.6875 
L 18.109375 46.1875 
Q 21.1875 51.21875 25.484375 53.609375 
Q 29.78125 56 35.6875 56 
Q 41.65625 56 45.828125 52.96875 
Q 50 49.953125 52 44.1875 
" id="BitstreamVeraSans-Roman-6d"/>
      <path d="M 30.609375 48.390625 
Q 23.390625 48.390625 19.1875 42.75 
Q 14.984375 37.109375 14.984375 27.296875 
Q 14.984375 17.484375 19.15625 11.84375 
Q 23.34375 6.203125 30.609375 6.203125 
Q 37.796875 6.203125 41.984375 11.859375 
Q 46.1875 17.53125 46.1875 27.296875 
Q 46.1875 37.015625 41.984375 42.703125 
Q 37.796875 48.390625 30.609375 48.390625 
M 30.609375 56 
Q 42.328125 56 49.015625 48.375 
Q 55.71875 40.765625 55.71875 27.296875 
Q 55.71875 13.875 49.015625 6.21875 
Q 42.328125 -1.421875 30.609375 -1.421875 
Q 18.84375 -1.421875 12.171875 6.21875 
Q 5.515625 13.875 5.515625 27.296875 
Q 5.515625 40.765625 12.171875 48.375 
Q 18.84375 56 30.609375 56 
" id="BitstreamVeraSans-Roman-6f"/>
      <path d="M 56.203125 29.59375 
L 56.203125 25.203125 
L 14.890625 25.203125 
Q 15.484375 15.921875 20.484375 11.0625 
Q 25.484375 6.203125 34.421875 6.203125 
Q 39.59375 6.203125 44.453125 7.46875 
Q 49.3125 8.734375 54.109375 11.28125 
L 54.109375 2.78125 
Q 49.265625 0.734375 44.1875 -0.34375 
Q 39.109375 -1.421875 33.890625 -1.421875 
Q 20.796875 -1.421875 13.15625 6.1875 
Q 5.515625 13.8125 5.515625 26.8125 
Q 5.515625 40.234375 12.765625 48.109375 
Q 20.015625 56 32.328125 56 
Q 43.359375 56 49.78125 48.890625 
Q 56.203125 41.796875 56.203125 29.59375 
M 47.21875 32.234375 
Q 47.125 39.59375 43.09375 43.984375 
Q 39.0625 48.390625 32.421875 48.390625 
Q 24.90625 48.390625 20.390625 44.140625 
Q 15.875 39.890625 15.1875 32.171875 
z
" id="BitstreamVeraSans-Roman-65"/>
      <path d="M 48.78125 52.59375 
L 48.78125 44.1875 
Q 44.96875 46.296875 41.140625 47.34375 
Q 37.3125 48.390625 33.40625 48.390625 
Q 24.65625 48.390625 19.8125 42.84375 
Q 14.984375 37.3125 14.984375 27.296875 
Q 14.984375 17.28125 19.8125 11.734375 
Q 24.65625 6.203125 33.40625 6.203125 
Q 37.3125 6.203125 41.140625 7.25 
Q 44.96875 8.296875 48.78125 10.40625 
L 48.78125 2.09375 
Q 45.015625 0.34375 40.984375 -0.53125 
Q 36.96875 -1.421875 32.421875 -1.421875 
Q 20.0625 -1.421875 12.78125 6.34375 
Q 5.515625 14.109375 5.515625 27.296875 
Q 5.515625 40.671875 12.859375 48.328125 
Q 20.21875 56 33.015625 56 
Q 37.15625 56 41.109375 55.140625 
Q 45.0625 54.296875 48.78125 52.59375 
" id="BitstreamVeraSans-Roman-63"/>
      <path d="M 6.296875 72.90625 
L 16.890625 72.90625 
L 35.015625 45.796875 
L 53.21875 72.90625 
L 63.8125 72.90625 
L 40.375 37.890625 
L 65.375 0 
L 54.78125 0 
L 34.28125 31 
L 13.625 0 
L 2.984375 0 
L 29 38.921875 
z
" id="BitstreamVeraSans-Roman-58"/>
      <path d="M 18.3125 70.21875 
L 18.3125 54.6875 
L 36.8125 54.6875 
L 36.8125 47.703125 
L 18.3125 47.703125 
L 18.3125 18.015625 
Q 18.3125 11.328125 20.140625 9.421875 
Q 21.96875 7.515625 27.59375 7.515625 
L 36.8125 7.515625 
L 36.8125 0 
L 27.59375 0 
Q 17.1875 0 13.234375 3.875 
Q 9.28125 7.765625 9.28125 18.015625 
L 9.28125 47.703125 
L 2.6875 47.703125 
L 2.6875 54.6875 
L 9.28125 54.6875 
L 9.28125 70.21875 
z
" id="BitstreamVeraSans-Roman-74"/>
      <path d="M 18.109375 8.203125 
L 18.109375 -20.796875 
L 9.078125 -20.796875 
L 9.078125 54.6875 
L 18.109375 54.6875 
L 18.109375 46.390625 
Q 20.953125 51.265625 25.265625 53.625 
Q 29.59375 56 35.59375 56 
Q 45.5625 56 51.78125 48.09375 
Q 58.015625 40.1875 58.015625 27.296875 
Q 58.015625 14.40625 51.78125 6.484375 
Q 45.5625 -1.421875 35.59375 -1.421875 
Q 29.59375 -1.421875 25.265625 0.953125 
Q 20.953125 3.328125 18.109375 8.203125 
M 48.6875 27.296875 
Q 48.6875 37.203125 44.609375 42.84375 
Q 40.53125 48.484375 33.40625 48.484375 
Q 26.265625 48.484375 22.1875 42.84375 
Q 18.109375 37.203125 18.109375 27.296875 
Q 18.109375 17.390625 22.1875 11.75 
Q 26.265625 6.109375 33.40625 6.109375 
Q 40.53125 6.109375 44.609375 11.75 
Q 48.6875 17.390625 48.6875 27.296875 
" id="BitstreamVeraSans-Roman-70"/>
     </defs>
     <g transform="translate(67.32109375 154.0765625)scale(0.1 -0.1)">
      <use xlink:href="#BitstreamVeraSans-Roman-58"/>
      <use x="68.505859375" xlink:href="#BitstreamVeraSans-Roman-20"/>
      <use x="100.29296875" xlink:href="#BitstreamVeraSans-Roman-63"/>
      <use x="155.2734375" xlink:href="#BitstreamVeraSans-Roman-6f"/>
      <use x="216.455078125" xlink:href="#BitstreamVeraSans-Roman-6d"/>
      <use x="313.8671875" xlink:href="#BitstreamVeraSans-Roman-70"/>
      <use x="377.34375" xlink:href="#BitstreamVeraSans-Roman-6f"/>
      <use x="438.525390625" xlink:href="#BitstreamVeraSans-Roman-6e"/>
      <use x="501.904296875" xlink:href="#BitstreamVeraSans-Roman-65"/>
      <use x="563.427734375" xlink:href="#BitstreamVeraSans-Roman-6e"/>
      <use x="626.806640625" xlink:href="#BitstreamVeraSans-Roman-74"/>
     </g>
    </g>
   </g>
   <g id="matplotlib.axis_2">
    <g id="ytick_1">
     <g id="line2d_15">
      <defs>
       <path d="M 0 0 
L 4 0 
" id="meef64e6441" style="stroke:#000000;stroke-width:0.5;"/>
      </defs>
      <g>
       <use style="stroke:#000000;stroke-width:0.5;" x="44.8875" xlink:href="#meef64e6441" y="127.8"/>
      </g>
     </g>
     <g id="line2d_16">
      <defs>
       <path d="M 0 0 
L -4 0 
" id="m391789f84c" style="stroke:#000000;stroke-width:0.5;"/>
      </defs>
      <g>
       <use style="stroke:#000000;stroke-width:0.5;" x="156.35625" xlink:href="#m391789f84c" y="127.8"/>
      </g>
     </g>
     <g id="text_6">
      <!-- 0.0 -->
      <g transform="translate(24.984375 130.559375)scale(0.1 -0.1)">
       <use xlink:href="#BitstreamVeraSans-Roman-30"/>
       <use x="63.623046875" xlink:href="#BitstreamVeraSans-Roman-2e"/>
       <use x="95.41015625" xlink:href="#BitstreamVeraSans-Roman-30"/>
      </g>
     </g>
    </g>
    <g id="ytick_2">
     <g id="line2d_17">
      <g>
       <use style="stroke:#000000;stroke-width:0.5;" x="44.8875" xlink:href="#meef64e6441" y="71.55"/>
      </g>
     </g>
     <g id="line2d_18">
      <g>
       <use style="stroke:#000000;stroke-width:0.5;" x="156.35625" xlink:href="#m391789f84c" y="71.55"/>
      </g>
     </g>
     <g id="text_7">
      <!-- 0.5 -->
      <g transform="translate(24.984375 74.309375)scale(0.1 -0.1)">
       <use xlink:href="#BitstreamVeraSans-Roman-30"/>
       <use x="63.623046875" xlink:href="#BitstreamVeraSans-Roman-2e"/>
       <use x="95.41015625" xlink:href="#BitstreamVeraSans-Roman-35"/>
      </g>
     </g>
    </g>
    <g id="ytick_3">
     <g id="line2d_19">
      <g>
       <use style="stroke:#000000;stroke-width:0.5;" x="44.8875" xlink:href="#meef64e6441" y="15.3"/>
      </g>
     </g>
     <g id="line2d_20">
      <g>
       <use style="stroke:#000000;stroke-width:0.5;" x="156.35625" xlink:href="#m391789f84c" y="15.3"/>
      </g>
     </g>
     <g id="text_8">
      <!-- 1.0 -->
      <defs>
       <path d="M 12.40625 8.296875 
L 28.515625 8.296875 
L 28.515625 63.921875 
L 10.984375 60.40625 
L 10.984375 69.390625 
L 28.421875 72.90625 
L 38.28125 72.90625 
L 38.28125 8.296875 
L 54.390625 8.296875 
L 54.390625 0 
L 12.40625 0 
z
" id="BitstreamVeraSans-Roman-31"/>
      </defs>
      <g transform="translate(24.984375 18.059375)scale(0.1 -0.1)">
       <use xlink:href="#BitstreamVeraSans-Roman-31"/>
       <use x="63.623046875" xlink:href="#BitstreamVeraSans-Roman-2e"/>
       <use x="95.41015625" xlink:href="#BitstreamVeraSans-Roman-30"/>
      </g>
     </g>
    </g>
    <g id="text_9">
     <!-- Cumulative Distribution -->
     <defs>
      <path d="M 41.109375 46.296875 
Q 39.59375 47.171875 37.8125 47.578125 
Q 36.03125 48 33.890625 48 
Q 26.265625 48 22.1875 43.046875 
Q 18.109375 38.09375 18.109375 28.8125 
L 18.109375 0 
L 9.078125 0 
L 9.078125 54.6875 
L 18.109375 54.6875 
L 18.109375 46.1875 
Q 20.953125 51.171875 25.484375 53.578125 
Q 30.03125 56 36.53125 56 
Q 37.453125 56 38.578125 55.875 
Q 39.703125 55.765625 41.0625 55.515625 
z
" id="BitstreamVeraSans-Roman-72"/>
      <path d="M 9.421875 75.984375 
L 18.40625 75.984375 
L 18.40625 0 
L 9.421875 0 
z
" id="BitstreamVeraSans-Roman-6c"/>
      <path d="M 19.671875 64.796875 
L 19.671875 8.109375 
L 31.59375 8.109375 
Q 46.6875 8.109375 53.6875 14.9375 
Q 60.6875 21.78125 60.6875 36.53125 
Q 60.6875 51.171875 53.6875 57.984375 
Q 46.6875 64.796875 31.59375 64.796875 
z
M 9.8125 72.90625 
L 30.078125 72.90625 
Q 51.265625 72.90625 61.171875 64.09375 
Q 71.09375 55.28125 71.09375 36.53125 
Q 71.09375 17.671875 61.125 8.828125 
Q 51.171875 0 30.078125 0 
L 9.8125 0 
z
" id="BitstreamVeraSans-Roman-44"/>
      <path d="M 9.421875 54.6875 
L 18.40625 54.6875 
L 18.40625 0 
L 9.421875 0 
z
M 9.421875 75.984375 
L 18.40625 75.984375 
L 18.40625 64.59375 
L 9.421875 64.59375 
z
" id="BitstreamVeraSans-Roman-69"/>
      <path d="M 2.984375 54.6875 
L 12.5 54.6875 
L 29.59375 8.796875 
L 46.6875 54.6875 
L 56.203125 54.6875 
L 35.6875 0 
L 23.484375 0 
z
" id="BitstreamVeraSans-Roman-76"/>
      <path d="M 64.40625 67.28125 
L 64.40625 56.890625 
Q 59.421875 61.53125 53.78125 63.8125 
Q 48.140625 66.109375 41.796875 66.109375 
Q 29.296875 66.109375 22.65625 58.46875 
Q 16.015625 50.828125 16.015625 36.375 
Q 16.015625 21.96875 22.65625 14.328125 
Q 29.296875 6.6875 41.796875 6.6875 
Q 48.140625 6.6875 53.78125 8.984375 
Q 59.421875 11.28125 64.40625 15.921875 
L 64.40625 5.609375 
Q 59.234375 2.09375 53.4375 0.328125 
Q 47.65625 -1.421875 41.21875 -1.421875 
Q 24.65625 -1.421875 15.125 8.703125 
Q 5.609375 18.84375 5.609375 36.375 
Q 5.609375 53.953125 15.125 64.078125 
Q 24.65625 74.21875 41.21875 74.21875 
Q 47.75 74.21875 53.53125 72.484375 
Q 59.328125 70.75 64.40625 67.28125 
" id="BitstreamVeraSans-Roman-43"/>
      <path d="M 8.5 21.578125 
L 8.5 54.6875 
L 17.484375 54.6875 
L 17.484375 21.921875 
Q 17.484375 14.15625 20.5 10.265625 
Q 23.53125 6.390625 29.59375 6.390625 
Q 36.859375 6.390625 41.078125 11.03125 
Q 45.3125 15.671875 45.3125 23.6875 
L 45.3125 54.6875 
L 54.296875 54.6875 
L 54.296875 0 
L 45.3125 0 
L 45.3125 8.40625 
Q 42.046875 3.421875 37.71875 1 
Q 33.40625 -1.421875 27.6875 -1.421875 
Q 18.265625 -1.421875 13.375 4.4375 
Q 8.5 10.296875 8.5 21.578125 
" id="BitstreamVeraSans-Roman-75"/>
      <path d="M 34.28125 27.484375 
Q 23.390625 27.484375 19.1875 25 
Q 14.984375 22.515625 14.984375 16.5 
Q 14.984375 11.71875 18.140625 8.90625 
Q 21.296875 6.109375 26.703125 6.109375 
Q 34.1875 6.109375 38.703125 11.40625 
Q 43.21875 16.703125 43.21875 25.484375 
L 43.21875 27.484375 
z
M 52.203125 31.203125 
L 52.203125 0 
L 43.21875 0 
L 43.21875 8.296875 
Q 40.140625 3.328125 35.546875 0.953125 
Q 30.953125 -1.421875 24.3125 -1.421875 
Q 15.921875 -1.421875 10.953125 3.296875 
Q 6 8.015625 6 15.921875 
Q 6 25.140625 12.171875 29.828125 
Q 18.359375 34.515625 30.609375 34.515625 
L 43.21875 34.515625 
L 43.21875 35.40625 
Q 43.21875 41.609375 39.140625 45 
Q 35.0625 48.390625 27.6875 48.390625 
Q 23 48.390625 18.546875 47.265625 
Q 14.109375 46.140625 10.015625 43.890625 
L 10.015625 52.203125 
Q 14.9375 54.109375 19.578125 55.046875 
Q 24.21875 56 28.609375 56 
Q 40.484375 56 46.34375 49.84375 
Q 52.203125 43.703125 52.203125 31.203125 
" id="BitstreamVeraSans-Roman-61"/>
      <path d="M 44.28125 53.078125 
L 44.28125 44.578125 
Q 40.484375 46.53125 36.375 47.5 
Q 32.28125 48.484375 27.875 48.484375 
Q 21.1875 48.484375 17.84375 46.4375 
Q 14.5 44.390625 14.5 40.28125 
Q 14.5 37.15625 16.890625 35.375 
Q 19.28125 33.59375 26.515625 31.984375 
L 29.59375 31.296875 
Q 39.15625 29.25 43.1875 25.515625 
Q 47.21875 21.78125 47.21875 15.09375 
Q 47.21875 7.46875 41.1875 3.015625 
Q 35.15625 -1.421875 24.609375 -1.421875 
Q 20.21875 -1.421875 15.453125 -0.5625 
Q 10.6875 0.296875 5.421875 2 
L 5.421875 11.28125 
Q 10.40625 8.6875 15.234375 7.390625 
Q 20.0625 6.109375 24.8125 6.109375 
Q 31.15625 6.109375 34.5625 8.28125 
Q 37.984375 10.453125 37.984375 14.40625 
Q 37.984375 18.0625 35.515625 20.015625 
Q 33.0625 21.96875 24.703125 23.78125 
L 21.578125 24.515625 
Q 13.234375 26.265625 9.515625 29.90625 
Q 5.8125 33.546875 5.8125 39.890625 
Q 5.8125 47.609375 11.28125 51.796875 
Q 16.75 56 26.8125 56 
Q 31.78125 56 36.171875 55.265625 
Q 40.578125 54.546875 44.28125 53.078125 
" id="BitstreamVeraSans-Roman-73"/>
      <path d="M 48.6875 27.296875 
Q 48.6875 37.203125 44.609375 42.84375 
Q 40.53125 48.484375 33.40625 48.484375 
Q 26.265625 48.484375 22.1875 42.84375 
Q 18.109375 37.203125 18.109375 27.296875 
Q 18.109375 17.390625 22.1875 11.75 
Q 26.265625 6.109375 33.40625 6.109375 
Q 40.53125 6.109375 44.609375 11.75 
Q 48.6875 17.390625 48.6875 27.296875 
M 18.109375 46.390625 
Q 20.953125 51.265625 25.265625 53.625 
Q 29.59375 56 35.59375 56 
Q 45.5625 56 51.78125 48.09375 
Q 58.015625 40.1875 58.015625 27.296875 
Q 58.015625 14.40625 51.78125 6.484375 
Q 45.5625 -1.421875 35.59375 -1.421875 
Q 29.59375 -1.421875 25.265625 0.953125 
Q 20.953125 3.328125 18.109375 8.203125 
L 18.109375 0 
L 9.078125 0 
L 9.078125 75.984375 
L 18.109375 75.984375 
z
" id="BitstreamVeraSans-Roman-62"/>
     </defs>
     <g transform="translate(17.9046875 130.8453125)rotate(-90.0)scale(0.1 -0.1)">
      <use xlink:href="#BitstreamVeraSans-Roman-43"/>
      <use x="69.82421875" xlink:href="#BitstreamVeraSans-Roman-75"/>
      <use x="133.203125" xlink:href="#BitstreamVeraSans-Roman-6d"/>
      <use x="230.615234375" xlink:href="#BitstreamVeraSans-Roman-75"/>
      <use x="293.994140625" xlink:href="#BitstreamVeraSans-Roman-6c"/>
      <use x="321.77734375" xlink:href="#BitstreamVeraSans-Roman-61"/>
      <use x="383.056640625" xlink:href="#BitstreamVeraSans-Roman-74"/>
      <use x="422.265625" xlink:href="#BitstreamVeraSans-Roman-69"/>
      <use x="450.048828125" xlink:href="#BitstreamVeraSans-Roman-76"/>
      <use x="509.228515625" xlink:href="#BitstreamVeraSans-Roman-65"/>
      <use x="570.751953125" xlink:href="#BitstreamVeraSans-Roman-20"/>
      <use x="602.5390625" xlink:href="#BitstreamVeraSans-Roman-44"/>
      <use x="679.541015625" xlink:href="#BitstreamVeraSans-Roman-69"/>
      <use x="707.32421875" xlink:href="#BitstreamVeraSans-Roman-73"/>
      <use x="759.423828125" xlink:href="#BitstreamVeraSans-Roman-74"/>
      <use x="798.6328125" xlink:href="#BitstreamVeraSans-Roman-72"/>
      <use x="839.74609375" xlink:href="#BitstreamVeraSans-Roman-69"/>
      <use x="867.529296875" xlink:href="#BitstreamVeraSans-Roman-62"/>
      <use x="931.005859375" xlink:href="#BitstreamVeraSans-Roman-75"/>
      <use x="994.384765625" xlink:href="#BitstreamVeraSans-Roman-74"/>
      <use x="1033.59375" xlink:href="#BitstreamVeraSans-Roman-69"/>
      <use x="1061.37695312" xlink:href="#BitstreamVeraSans-Roman-6f"/>
      <use x="1122.55859375" xlink:href="#BitstreamVeraSans-Roman-6e"/>
     </g>
    </g>
   </g>
  </g>
  <g id="axes_2">
   <g id="patch_7">
    <path d="M 209.2875 127.8 
L 320.75625 127.8 
L 320.75625 15.3 
L 209.2875 15.3 
z
" style="fill:#ffffff;"/>
   </g>
   <g id="line2d_21">
    <path clip-path="url(#pb5dad43b51)" d="M 224.227087 127.8 
L 224.29044 127.7775 
L 228.368656 127.6425 
L 228.378048 127.62 
L 233.128604 127.2825 
L 233.457982 127.1925 
L 235.062297 126.855 
L 235.59864 126.6525 
L 236.096035 126.4725 
L 236.152028 126.4275 
L 236.514344 126.2925 
L 236.649809 126.2475 
L 237.180993 126.1125 
L 237.294221 126.0225 
L 237.800863 125.82 
L 237.850368 125.775 
L 238.535218 125.505 
L 238.866275 125.3475 
L 239.029063 125.1675 
L 239.40525 124.92 
L 239.656191 124.7625 
L 239.792738 124.6725 
L 240.029506 124.425 
L 240.195928 124.2225 
L 240.414676 124.065 
L 240.517988 123.975 
L 240.75076 123.7725 
L 241.040283 123.48 
L 241.253833 123.3225 
L 241.810441 122.8725 
L 241.932496 122.76 
L 243.165407 121.2525 
L 243.397785 120.9375 
L 243.54582 120.7575 
L 243.638997 120.6 
L 243.884063 120.24 
L 244.391986 119.25 
L 244.549559 118.98 
L 244.669243 118.7325 
L 244.977243 118.215 
L 245.086266 118.08 
L 245.356368 117.6975 
L 245.698811 116.8425 
L 245.810276 116.505 
L 245.91681 116.3475 
L 246.051979 115.92 
L 246.325549 115.2225 
L 246.4535 114.9975 
L 246.604039 114.705 
L 246.8453 114.12 
L 246.974154 113.94 
L 248.278812 110.79 
L 248.357719 110.61 
L 248.445257 110.43 
L 248.750024 109.5075 
L 248.890092 109.215 
L 249.176621 108.4725 
L 249.326859 108.0675 
L 249.442227 107.7075 
L 249.512868 107.415 
L 249.64823 106.8525 
L 249.763743 106.56 
L 249.940887 106.1775 
L 250.014935 105.9525 
L 251.002305 102.51 
L 251.116604 102.105 
L 251.299895 101.7 
L 251.532905 100.845 
L 251.729738 100.395 
L 252.451215 97.9875 
L 252.78687 96.84 
L 252.922881 96.3 
L 253.123954 95.22 
L 253.208234 94.8825 
L 253.341626 94.41 
L 253.445869 94.05 
L 253.569832 93.645 
L 253.824249 92.745 
L 253.869526 92.475 
L 254.093001 91.8675 
L 254.25735 91.35 
L 254.40734 90.6525 
L 254.692341 89.595 
L 254.754159 89.3925 
L 254.864353 88.875 
L 255.067363 87.7725 
L 255.179659 87.12 
L 255.459066 85.8825 
L 255.69634 84.555 
L 255.905386 83.565 
L 255.969883 83.2725 
L 256.227669 82.125 
L 256.304841 81.8775 
L 256.424057 81.1575 
L 256.609374 80.415 
L 257.830352 75.0375 
L 257.951089 74.5425 
L 258.019423 74.2725 
L 258.13779 73.62 
L 258.202613 73.395 
L 258.410375 72.315 
L 258.614528 71.4825 
L 258.818942 70.4025 
L 258.862409 70.1325 
L 259.915226 65.745 
L 260.102268 64.8 
L 260.283175 64.1025 
L 260.384694 63.765 
L 261.051843 60.48 
L 261.185036 59.7825 
L 263.198965 51.435 
L 263.262119 51.165 
L 263.366872 50.8275 
L 263.476459 50.2875 
L 263.659392 49.68 
L 263.738218 49.455 
L 263.910494 48.7575 
L 266.198226 40.2525 
L 266.321007 40.095 
L 266.636827 38.9925 
L 266.695373 38.79 
L 266.992747 37.71 
L 267.1268 37.26 
L 267.205245 36.9675 
L 267.741257 35.235 
L 267.831272 34.965 
L 267.963244 34.38 
L 268.035777 34.1325 
L 268.28975 33.435 
L 268.468204 33.0075 
L 268.682904 32.265 
L 268.943268 31.41 
L 269.123868 30.8925 
L 269.25292 30.645 
L 269.462524 30.1275 
L 269.886067 29.025 
L 269.987026 28.89 
L 270.15121 28.5075 
L 270.362122 27.7875 
L 270.952189 26.6625 
L 271.076704 26.3475 
L 271.252567 25.875 
L 271.44279 25.4025 
L 271.617904 25.1325 
L 271.769466 24.8175 
L 271.953066 24.3675 
L 273.541343 21.735 
L 273.621798 21.5775 
L 275.784608 19.3275 
L 276.02916 19.1475 
L 276.28794 18.9 
L 276.511495 18.7425 
L 276.611032 18.585 
L 276.842786 18.405 
L 278.805563 17.1675 
L 279.272313 16.875 
L 279.461803 16.7625 
L 279.905463 16.605 
L 280.383396 16.4475 
L 281.105137 16.2 
L 282.913879 15.795 
L 283.248666 15.75 
L 285.536254 15.435 
L 289.065393 15.345 
L 289.98366 15.3225 
L 289.98366 15.3225 
" style="fill:none;stroke:#ff0000;stroke-linecap:square;"/>
   </g>
   <g id="line2d_22">
    <path clip-path="url(#pb5dad43b51)" d="M 239.302974 127.8 
L 239.302974 15.3 
" style="fill:none;stroke:#ff0000;stroke-linecap:square;"/>
   </g>
   <g id="line2d_23">
    <path clip-path="url(#pb5dad43b51)" d="M 277.205423 127.8 
L 277.205423 15.3 
" style="fill:none;stroke:#ff0000;stroke-linecap:square;"/>
   </g>
   <g id="line2d_24">
    <path clip-path="url(#pb5dad43b51)" d="M 216.322483 127.8 
L 227.486668 127.7775 
L 232.267999 127.665 
L 234.103861 127.5075 
L 234.620381 127.3725 
L 235.815129 127.215 
L 236.735641 127.035 
L 237.883194 126.63 
L 238.390944 126.495 
L 238.444428 126.45 
L 239.083859 126.2475 
L 239.332505 126.1125 
L 239.84733 125.9325 
L 240.67683 125.325 
L 240.793492 125.2125 
L 241.01156 125.055 
L 241.424225 124.7625 
L 241.895102 124.29 
L 242.23364 123.975 
L 242.391574 123.795 
L 242.594816 123.48 
L 243.248667 123.1875 
L 243.588419 122.8275 
L 243.73624 122.535 
L 243.855499 122.355 
L 244.001425 122.0625 
L 244.229935 121.815 
L 244.392329 121.59 
L 244.620986 121.2525 
L 244.709991 121.095 
L 245.047712 120.7125 
L 245.201833 120.3975 
L 245.574851 119.7225 
L 245.737366 119.565 
L 245.868928 119.295 
L 246.075408 118.8 
L 246.246252 118.5525 
L 246.376964 118.26 
L 246.475179 118.1025 
L 246.561625 117.8325 
L 246.717232 117.585 
L 246.83293 117.4275 
L 248.857286 112.77 
L 249.130485 112.14 
L 249.221716 111.9375 
L 249.354422 111.51 
L 249.620731 110.745 
L 249.844259 110.295 
L 250.100916 109.485 
L 251.467707 105.5925 
L 251.60095 105.1425 
L 253.917341 96.8625 
L 254.08483 96.2325 
L 254.572902 94.545 
L 254.646558 94.2975 
L 257.934588 81 
L 258.148931 80.055 
L 259.245417 75.015 
L 259.357109 74.7 
L 259.599819 73.5525 
L 259.713309 73.035 
L 259.899593 72.315 
L 259.953472 72.0225 
L 260.121375 71.19 
L 260.159281 70.9875 
L 260.281676 70.5375 
L 260.559198 69.4125 
L 260.7401 68.6925 
L 260.807729 68.49 
L 260.914644 68.0625 
L 260.998843 67.7025 
L 261.125409 66.915 
L 261.609654 64.6425 
L 261.731247 63.9225 
L 261.829141 63.6525 
L 262.020067 62.55 
L 262.293964 61.3575 
L 262.669151 59.5575 
L 262.705498 59.355 
L 262.758215 59.13 
L 262.883014 58.4775 
L 263.28945 56.6325 
L 263.478393 55.7325 
L 263.796644 54.36 
L 263.870714 54.1575 
L 264.021144 53.5275 
L 264.105689 53.1 
L 264.292289 52.38 
L 264.386775 52.11 
L 264.567342 51.12 
L 264.9367 49.7925 
L 265.54548 47.5875 
L 265.69393 46.89 
L 266.273095 44.505 
L 266.425389 43.83 
L 266.50675 43.6275 
L 266.675697 42.84 
L 266.93174 41.6925 
L 267.101743 41.085 
L 267.943767 38.0925 
L 268.160512 37.35 
L 268.322991 36.99 
L 268.510424 36.2025 
L 268.649259 35.91 
L 268.893379 35.1225 
L 269.180995 34.1775 
L 269.305039 33.8175 
L 269.367457 33.57 
L 269.552477 33.03 
L 269.71288 32.6925 
L 269.866779 32.0625 
L 270.020025 31.635 
L 270.143271 31.365 
L 270.222818 31.095 
L 270.340681 30.825 
L 270.49105 30.6225 
L 270.636583 30.3075 
L 270.763747 30.105 
L 271.074165 29.115 
L 271.252502 28.6875 
L 271.449396 28.2825 
L 271.818668 27.4275 
L 271.926888 27.0675 
L 272.240353 26.6175 
L 274.463765 22.7025 
L 274.916294 22.0275 
L 275.026419 21.87 
L 275.634059 21.2625 
L 276.194119 20.43 
L 276.285946 20.2725 
L 276.391286 20.0925 
L 277.317143 19.395 
L 277.476227 19.215 
L 277.752085 19.0575 
L 277.918308 18.8775 
L 278.465639 18.4275 
L 278.647897 18.18 
L 278.872948 17.9775 
L 278.983718 17.8875 
L 279.379602 17.6625 
L 279.713521 17.46 
L 279.713968 17.4375 
L 280.28348 17.2575 
L 280.318467 17.19 
L 282.291476 16.5825 
L 282.315447 16.56 
L 283.047836 16.4025 
L 286.607666 15.6375 
L 288.691424 15.4575 
L 296.28459 15.3225 
L 296.28459 15.3225 
" style="fill:none;stroke:#0000ff;stroke-linecap:square;"/>
   </g>
   <g id="line2d_25">
    <path clip-path="url(#pb5dad43b51)" d="M 241.073435 127.8 
L 241.073435 15.3 
" style="fill:none;stroke:#0000ff;stroke-dasharray:6.000000,6.000000;stroke-dashoffset:0.0;"/>
   </g>
   <g id="line2d_26">
    <path clip-path="url(#pb5dad43b51)" d="M 278.703857 127.8 
L 278.703857 15.3 
" style="fill:none;stroke:#0000ff;stroke-dasharray:6.000000,6.000000;stroke-dashoffset:0.0;"/>
   </g>
   <g id="patch_8">
    <path d="M 209.2875 15.3 
L 320.75625 15.3 
" style="fill:none;stroke:#000000;stroke-linecap:square;stroke-linejoin:miter;"/>
   </g>
   <g id="patch_9">
    <path d="M 320.75625 127.8 
L 320.75625 15.3 
" style="fill:none;stroke:#000000;stroke-linecap:square;stroke-linejoin:miter;"/>
   </g>
   <g id="patch_10">
    <path d="M 209.2875 127.8 
L 320.75625 127.8 
" style="fill:none;stroke:#000000;stroke-linecap:square;stroke-linejoin:miter;"/>
   </g>
   <g id="patch_11">
    <path d="M 209.2875 127.8 
L 209.2875 15.3 
" style="fill:none;stroke:#000000;stroke-linecap:square;stroke-linejoin:miter;"/>
   </g>
   <g id="matplotlib.axis_3">
    <g id="xtick_5">
     <g id="line2d_27">
      <g>
       <use style="stroke:#000000;stroke-width:0.5;" x="209.2875" xlink:href="#m7fbe1c246f" y="127.8"/>
      </g>
     </g>
     <g id="line2d_28">
      <g>
       <use style="stroke:#000000;stroke-width:0.5;" x="209.2875" xlink:href="#m1348165a6f" y="15.3"/>
      </g>
     </g>
     <g id="text_10">
      <!-- 0.2 -->
      <defs>
       <path d="M 19.1875 8.296875 
L 53.609375 8.296875 
L 53.609375 0 
L 7.328125 0 
L 7.328125 8.296875 
Q 12.9375 14.109375 22.625 23.890625 
Q 32.328125 33.6875 34.8125 36.53125 
Q 39.546875 41.84375 41.421875 45.53125 
Q 43.3125 49.21875 43.3125 52.78125 
Q 43.3125 58.59375 39.234375 62.25 
Q 35.15625 65.921875 28.609375 65.921875 
Q 23.96875 65.921875 18.8125 64.3125 
Q 13.671875 62.703125 7.8125 59.421875 
L 7.8125 69.390625 
Q 13.765625 71.78125 18.9375 73 
Q 24.125 74.21875 28.421875 74.21875 
Q 39.75 74.21875 46.484375 68.546875 
Q 53.21875 62.890625 53.21875 53.421875 
Q 53.21875 48.921875 51.53125 44.890625 
Q 49.859375 40.875 45.40625 35.40625 
Q 44.1875 33.984375 37.640625 27.21875 
Q 31.109375 20.453125 19.1875 8.296875 
" id="BitstreamVeraSans-Roman-32"/>
      </defs>
      <g transform="translate(201.3359375 139.3984375)scale(0.1 -0.1)">
       <use xlink:href="#BitstreamVeraSans-Roman-30"/>
       <use x="63.623046875" xlink:href="#BitstreamVeraSans-Roman-2e"/>
       <use x="95.41015625" xlink:href="#BitstreamVeraSans-Roman-32"/>
      </g>
     </g>
    </g>
    <g id="xtick_6">
     <g id="line2d_29">
      <g>
       <use style="stroke:#000000;stroke-width:0.5;" x="265.021875" xlink:href="#m7fbe1c246f" y="127.8"/>
      </g>
     </g>
     <g id="line2d_30">
      <g>
       <use style="stroke:#000000;stroke-width:0.5;" x="265.021875" xlink:href="#m1348165a6f" y="15.3"/>
      </g>
     </g>
     <g id="text_11">
      <!-- 0.4 -->
      <g transform="translate(257.0703125 139.3984375)scale(0.1 -0.1)">
       <use xlink:href="#BitstreamVeraSans-Roman-30"/>
       <use x="63.623046875" xlink:href="#BitstreamVeraSans-Roman-2e"/>
       <use x="95.41015625" xlink:href="#BitstreamVeraSans-Roman-34"/>
      </g>
     </g>
    </g>
    <g id="xtick_7">
     <g id="line2d_31">
      <g>
       <use style="stroke:#000000;stroke-width:0.5;" x="320.75625" xlink:href="#m7fbe1c246f" y="127.8"/>
      </g>
     </g>
     <g id="line2d_32">
      <g>
       <use style="stroke:#000000;stroke-width:0.5;" x="320.75625" xlink:href="#m1348165a6f" y="15.3"/>
      </g>
     </g>
     <g id="text_12">
      <!-- 0.6 -->
      <g transform="translate(312.8046875 139.3984375)scale(0.1 -0.1)">
       <use xlink:href="#BitstreamVeraSans-Roman-30"/>
       <use x="63.623046875" xlink:href="#BitstreamVeraSans-Roman-2e"/>
       <use x="95.41015625" xlink:href="#BitstreamVeraSans-Roman-36"/>
      </g>
     </g>
    </g>
    <g id="text_13">
     <!-- Y component -->
     <defs>
      <path d="M -0.203125 72.90625 
L 10.40625 72.90625 
L 30.609375 42.921875 
L 50.6875 72.90625 
L 61.28125 72.90625 
L 35.5 34.71875 
L 35.5 0 
L 25.59375 0 
L 25.59375 34.71875 
z
" id="BitstreamVeraSans-Roman-59"/>
     </defs>
     <g transform="translate(232.0921875 154.0765625)scale(0.1 -0.1)">
      <use xlink:href="#BitstreamVeraSans-Roman-59"/>
      <use x="61.083984375" xlink:href="#BitstreamVeraSans-Roman-20"/>
      <use x="92.87109375" xlink:href="#BitstreamVeraSans-Roman-63"/>
      <use x="147.8515625" xlink:href="#BitstreamVeraSans-Roman-6f"/>
      <use x="209.033203125" xlink:href="#BitstreamVeraSans-Roman-6d"/>
      <use x="306.4453125" xlink:href="#BitstreamVeraSans-Roman-70"/>
      <use x="369.921875" xlink:href="#BitstreamVeraSans-Roman-6f"/>
      <use x="431.103515625" xlink:href="#BitstreamVeraSans-Roman-6e"/>
      <use x="494.482421875" xlink:href="#BitstreamVeraSans-Roman-65"/>
      <use x="556.005859375" xlink:href="#BitstreamVeraSans-Roman-6e"/>
      <use x="619.384765625" xlink:href="#BitstreamVeraSans-Roman-74"/>
     </g>
    </g>
   </g>
   <g id="matplotlib.axis_4">
    <g id="ytick_4">
     <g id="line2d_33">
      <g>
       <use style="stroke:#000000;stroke-width:0.5;" x="209.2875" xlink:href="#meef64e6441" y="127.8"/>
      </g>
     </g>
     <g id="line2d_34">
      <g>
       <use style="stroke:#000000;stroke-width:0.5;" x="320.75625" xlink:href="#m391789f84c" y="127.8"/>
      </g>
     </g>
     <g id="text_14">
      <!-- 0.0 -->
      <g transform="translate(189.384375 130.559375)scale(0.1 -0.1)">
       <use xlink:href="#BitstreamVeraSans-Roman-30"/>
       <use x="63.623046875" xlink:href="#BitstreamVeraSans-Roman-2e"/>
       <use x="95.41015625" xlink:href="#BitstreamVeraSans-Roman-30"/>
      </g>
     </g>
    </g>
    <g id="ytick_5">
     <g id="line2d_35">
      <g>
       <use style="stroke:#000000;stroke-width:0.5;" x="209.2875" xlink:href="#meef64e6441" y="71.55"/>
      </g>
     </g>
     <g id="line2d_36">
      <g>
       <use style="stroke:#000000;stroke-width:0.5;" x="320.75625" xlink:href="#m391789f84c" y="71.55"/>
      </g>
     </g>
     <g id="text_15">
      <!-- 0.5 -->
      <g transform="translate(189.384375 74.309375)scale(0.1 -0.1)">
       <use xlink:href="#BitstreamVeraSans-Roman-30"/>
       <use x="63.623046875" xlink:href="#BitstreamVeraSans-Roman-2e"/>
       <use x="95.41015625" xlink:href="#BitstreamVeraSans-Roman-35"/>
      </g>
     </g>
    </g>
    <g id="ytick_6">
     <g id="line2d_37">
      <g>
       <use style="stroke:#000000;stroke-width:0.5;" x="209.2875" xlink:href="#meef64e6441" y="15.3"/>
      </g>
     </g>
     <g id="line2d_38">
      <g>
       <use style="stroke:#000000;stroke-width:0.5;" x="320.75625" xlink:href="#m391789f84c" y="15.3"/>
      </g>
     </g>
     <g id="text_16">
      <!-- 1.0 -->
      <g transform="translate(189.384375 18.059375)scale(0.1 -0.1)">
       <use xlink:href="#BitstreamVeraSans-Roman-31"/>
       <use x="63.623046875" xlink:href="#BitstreamVeraSans-Roman-2e"/>
       <use x="95.41015625" xlink:href="#BitstreamVeraSans-Roman-30"/>
      </g>
     </g>
    </g>
    <g id="text_17">
     <!-- Cumulative Distribution -->
     <g transform="translate(182.3046875 130.8453125)rotate(-90.0)scale(0.1 -0.1)">
      <use xlink:href="#BitstreamVeraSans-Roman-43"/>
      <use x="69.82421875" xlink:href="#BitstreamVeraSans-Roman-75"/>
      <use x="133.203125" xlink:href="#BitstreamVeraSans-Roman-6d"/>
      <use x="230.615234375" xlink:href="#BitstreamVeraSans-Roman-75"/>
      <use x="293.994140625" xlink:href="#BitstreamVeraSans-Roman-6c"/>
      <use x="321.77734375" xlink:href="#BitstreamVeraSans-Roman-61"/>
      <use x="383.056640625" xlink:href="#BitstreamVeraSans-Roman-74"/>
      <use x="422.265625" xlink:href="#BitstreamVeraSans-Roman-69"/>
      <use x="450.048828125" xlink:href="#BitstreamVeraSans-Roman-76"/>
      <use x="509.228515625" xlink:href="#BitstreamVeraSans-Roman-65"/>
      <use x="570.751953125" xlink:href="#BitstreamVeraSans-Roman-20"/>
      <use x="602.5390625" xlink:href="#BitstreamVeraSans-Roman-44"/>
      <use x="679.541015625" xlink:href="#BitstreamVeraSans-Roman-69"/>
      <use x="707.32421875" xlink:href="#BitstreamVeraSans-Roman-73"/>
      <use x="759.423828125" xlink:href="#BitstreamVeraSans-Roman-74"/>
      <use x="798.6328125" xlink:href="#BitstreamVeraSans-Roman-72"/>
      <use x="839.74609375" xlink:href="#BitstreamVeraSans-Roman-69"/>
      <use x="867.529296875" xlink:href="#BitstreamVeraSans-Roman-62"/>
      <use x="931.005859375" xlink:href="#BitstreamVeraSans-Roman-75"/>
      <use x="994.384765625" xlink:href="#BitstreamVeraSans-Roman-74"/>
      <use x="1033.59375" xlink:href="#BitstreamVeraSans-Roman-69"/>
      <use x="1061.37695312" xlink:href="#BitstreamVeraSans-Roman-6f"/>
      <use x="1122.55859375" xlink:href="#BitstreamVeraSans-Roman-6e"/>
     </g>
    </g>
   </g>
  </g>
  <g id="axes_3">
   <g id="patch_12">
    <path d="M 373.6875 127.8 
L 485.15625 127.8 
L 485.15625 15.3 
L 373.6875 15.3 
z
" style="fill:#ffffff;"/>
   </g>
   <g id="line2d_39">
    <path clip-path="url(#p7ec42e5da5)" d="M 385.534217 127.8 
L 386.330792 127.7775 
L 398.854654 127.6425 
L 398.864428 127.62 
L 401.414662 127.4175 
L 403.250723 127.035 
L 403.264047 127.0125 
L 403.936654 126.8325 
L 404.291761 126.6525 
L 404.98306 126.45 
L 405.440062 126.2925 
L 405.777831 126.1575 
L 408.648094 124.515 
L 408.746585 124.47 
L 409.069518 124.1775 
L 409.26631 123.9525 
L 409.416145 123.7725 
L 409.530904 123.705 
L 410.562305 122.985 
L 410.76576 122.625 
L 410.839088 122.4675 
L 411.15645 122.0625 
L 411.924962 121.1625 
L 412.025957 120.96 
L 412.118854 120.825 
L 412.301779 120.6225 
L 412.464226 120.4425 
L 412.829729 119.8125 
L 414.288166 117.585 
L 414.397731 117.36 
L 414.503562 117.0675 
L 414.61516 116.775 
L 414.755372 116.505 
L 415.013993 115.965 
L 415.125281 115.8075 
L 415.238331 115.4475 
L 415.427517 115.0425 
L 415.565883 114.705 
L 415.843436 114.165 
L 416.078749 113.2875 
L 416.240591 112.9725 
L 416.432158 112.455 
L 416.57108 112.095 
L 416.767374 111.735 
L 416.91548 111.3975 
L 417.026941 111.15 
L 417.143391 110.88 
L 417.337488 110.2275 
L 417.477877 109.6425 
L 417.544173 109.4625 
L 417.647901 109.17 
L 419.152044 104.985 
L 419.299141 104.5125 
L 419.344344 104.355 
L 419.456938 103.95 
L 419.701267 103.3875 
L 419.847363 102.8475 
L 420.086141 102.2625 
L 420.208841 101.8125 
L 420.353971 101.295 
L 420.579811 100.125 
L 420.766656 99.54 
L 420.881056 99.1575 
L 421.020222 98.685 
L 421.158325 98.1225 
L 421.661523 96.1425 
L 421.783102 95.805 
L 421.895307 95.1975 
L 422.014475 94.6575 
L 422.149136 94.0725 
L 422.257209 93.69 
L 422.425176 92.8125 
L 422.810546 91.17 
L 423.048483 89.82 
L 423.160422 89.3925 
L 423.267631 88.875 
L 423.553372 87.7275 
L 424.062332 85.6575 
L 424.130248 85.4325 
L 424.308021 84.6225 
L 424.361134 84.24 
L 424.509702 83.4975 
L 424.596953 83.115 
L 425.357756 79.875 
L 425.495182 79.3125 
L 425.745229 78.165 
L 425.85634 77.67 
L 426.126332 76.0725 
L 426.215123 75.6 
L 426.340882 74.9475 
L 426.605661 73.6875 
L 426.722887 73.035 
L 426.834323 72.54 
L 426.930569 72.135 
L 427.08976 71.28 
L 427.554981 69.0525 
L 427.671501 68.535 
L 428.215841 65.8125 
L 428.320815 65.4525 
L 428.545076 64.3725 
L 428.69153 63.6525 
L 428.831231 62.9325 
L 430.216564 55.9125 
L 430.287831 55.575 
L 430.889247 53.055 
L 431.032952 52.4925 
L 431.183476 51.885 
L 432.255237 47.34 
L 432.318186 47.115 
L 432.461923 46.3275 
L 432.501161 46.1475 
L 432.610848 45.4725 
L 432.715773 44.9325 
L 432.979376 43.74 
L 433.871761 40.05 
L 434.012698 39.6675 
L 434.108749 39.33 
L 434.589774 37.395 
L 434.660235 37.1475 
L 435.330463 35.055 
L 435.414513 34.875 
L 435.610085 34.02 
L 435.662519 33.8175 
L 435.845462 33.255 
L 436.178384 32.22 
L 436.235314 32.0175 
L 436.543319 31.1175 
L 436.906707 30.0825 
L 437.546331 28.2825 
L 437.666944 27.99 
L 437.855188 27.54 
L 437.966338 27.1575 
L 438.487109 25.92 
L 438.615592 25.5375 
L 438.704467 25.38 
L 439.068898 24.9075 
L 439.198966 24.705 
L 439.37433 24.345 
L 439.473527 24.1875 
L 439.887347 23.49 
L 440.018268 23.1525 
L 441.525773 20.9025 
L 441.98978 20.3175 
L 442.084955 20.16 
L 442.169062 20.0025 
L 442.323498 19.8225 
L 442.609491 19.5525 
L 443.329547 18.945 
L 443.440957 18.8325 
L 443.788267 18.6975 
L 443.827599 18.6075 
L 444.051831 18.4725 
L 444.275414 18.135 
L 444.683882 17.865 
L 445.00742 17.55 
L 445.402859 17.3925 
L 445.405097 17.37 
L 445.723537 17.2125 
L 446.04735 16.875 
L 446.437401 16.74 
L 447.851613 16.155 
L 448.690147 15.93 
L 449.711265 15.7725 
L 451.459343 15.48 
L 451.519446 15.4575 
L 455.898951 15.3225 
L 455.898951 15.3225 
" style="fill:none;stroke:#ff0000;stroke-linecap:square;"/>
   </g>
   <g id="line2d_40">
    <path clip-path="url(#p7ec42e5da5)" d="M 407.971219 127.8 
L 407.971219 15.3 
" style="fill:none;stroke:#ff0000;stroke-linecap:square;"/>
   </g>
   <g id="line2d_41">
    <path clip-path="url(#p7ec42e5da5)" d="M 444.334765 127.8 
L 444.334765 15.3 
" style="fill:none;stroke:#ff0000;stroke-linecap:square;"/>
   </g>
   <g id="line2d_42">
    <path clip-path="url(#p7ec42e5da5)" d="M 373.917052 127.8 
L 373.939469 127.7775 
L 375.128018 127.7325 
L 379.048034 127.575 
L 379.101455 127.5075 
L 381.04905 127.3275 
L 381.110763 127.2825 
L 383.339379 127.0125 
L 383.517882 126.945 
L 385.834029 126 
L 386.305722 125.8425 
L 386.812828 125.5725 
L 387.128591 125.3925 
L 390.046623 123.3675 
L 390.276794 123.075 
L 390.441876 122.8725 
L 392.140536 121.0275 
L 392.593149 120.2625 
L 393.108654 119.655 
L 393.242482 119.295 
L 393.543422 118.98 
L 394.136011 118.0575 
L 394.574863 117.045 
L 394.757076 116.7525 
L 396.863718 111.78 
L 396.967326 111.5325 
L 397.115704 111.285 
L 398.013984 108.9675 
L 398.120322 108.4725 
L 398.46514 107.4825 
L 399.349461 104.7375 
L 399.562477 104.1975 
L 400.293809 101.9025 
L 400.570087 100.755 
L 400.695935 100.3725 
L 400.99702 99.3825 
L 401.125789 98.82 
L 401.285452 98.4375 
L 401.905848 96.03 
L 402.016621 95.7375 
L 402.132298 95.4675 
L 402.96147 92.34 
L 403.023724 92.1825 
L 403.351228 90.8775 
L 403.413527 90.63 
L 403.602075 89.73 
L 405.194148 82.8225 
L 405.251747 82.62 
L 405.458829 81.7875 
L 405.520707 81.6075 
L 405.749765 80.7975 
L 405.868583 80.2125 
L 405.995535 79.56 
L 406.240639 78.6825 
L 406.422634 77.895 
L 406.776847 76.3875 
L 406.825656 76.1625 
L 406.911207 75.8475 
L 407.042086 75.33 
L 407.149772 74.8125 
L 407.322667 73.935 
L 407.646757 72.5625 
L 407.734 72.3375 
L 407.868049 71.955 
L 407.917386 71.685 
L 408.08754 71.145 
L 408.201598 70.74 
L 408.416008 69.7275 
L 408.578507 69.21 
L 411.032792 58.95 
L 411.148316 58.4775 
L 411.288316 57.8475 
L 411.438393 57.195 
L 411.534138 56.745 
L 411.66605 56.2725 
L 411.832506 55.44 
L 411.95141 54.7875 
L 411.999597 54.4275 
L 412.271889 53.46 
L 412.387213 52.9875 
L 412.476488 52.74 
L 412.676153 51.9525 
L 412.74184 51.705 
L 412.854194 51.165 
L 412.995758 50.4 
L 413.40091 48.735 
L 414.433573 45.2025 
L 414.551867 44.73 
L 414.698708 44.46 
L 414.807676 43.875 
L 414.873498 43.7175 
L 415.29266 42.2325 
L 415.456796 41.4225 
L 415.597457 40.95 
L 415.761697 40.365 
L 416.061118 39.4425 
L 416.239476 38.7675 
L 416.51096 38.0025 
L 416.783097 37.0125 
L 416.9694 36.5625 
L 417.209299 35.6625 
L 417.40679 34.8525 
L 417.51372 34.6275 
L 418.463018 32.085 
L 418.728767 31.5675 
L 418.890974 31.2075 
L 418.967219 30.915 
L 419.496804 29.3175 
L 420.348225 27.2925 
L 420.449099 26.955 
L 420.548634 26.64 
L 420.665891 26.4825 
L 420.768094 26.3475 
L 420.841868 26.2125 
L 420.997723 25.785 
L 421.137526 25.6275 
L 421.224686 25.47 
L 421.365311 25.29 
L 421.463509 25.1325 
L 421.558315 24.9525 
L 423.310161 22.6125 
L 423.417349 22.4775 
L 424.008029 21.6 
L 424.156745 21.3975 
L 424.789233 20.7225 
L 425.661188 19.89 
L 425.983253 19.5525 
L 426.166513 19.3725 
L 426.826239 18.81 
L 427.186475 18.6525 
L 427.300694 18.4725 
L 427.650975 18.135 
L 427.764732 18 
L 428.014708 17.7975 
L 428.670541 17.3475 
L 429.112686 17.1675 
L 430.717184 16.2675 
L 431.792268 16.0875 
L 431.918221 16.02 
L 433.612079 15.7275 
L 433.878973 15.66 
L 434.856179 15.5475 
L 446.213986 15.3225 
L 446.213986 15.3225 
" style="fill:none;stroke:#0000ff;stroke-linecap:square;"/>
   </g>
   <g id="line2d_43">
    <path clip-path="url(#p7ec42e5da5)" d="M 387.657659 127.8 
L 387.657659 15.3 
" style="fill:none;stroke:#0000ff;stroke-dasharray:6.000000,6.000000;stroke-dashoffset:0.0;"/>
   </g>
   <g id="line2d_44">
    <path clip-path="url(#p7ec42e5da5)" d="M 427.651744 127.8 
L 427.651744 15.3 
" style="fill:none;stroke:#0000ff;stroke-dasharray:6.000000,6.000000;stroke-dashoffset:0.0;"/>
   </g>
   <g id="patch_13">
    <path d="M 373.6875 15.3 
L 485.15625 15.3 
" style="fill:none;stroke:#000000;stroke-linecap:square;stroke-linejoin:miter;"/>
   </g>
   <g id="patch_14">
    <path d="M 485.15625 127.8 
L 485.15625 15.3 
" style="fill:none;stroke:#000000;stroke-linecap:square;stroke-linejoin:miter;"/>
   </g>
   <g id="patch_15">
    <path d="M 373.6875 127.8 
L 485.15625 127.8 
" style="fill:none;stroke:#000000;stroke-linecap:square;stroke-linejoin:miter;"/>
   </g>
   <g id="patch_16">
    <path d="M 373.6875 127.8 
L 373.6875 15.3 
" style="fill:none;stroke:#000000;stroke-linecap:square;stroke-linejoin:miter;"/>
   </g>
   <g id="matplotlib.axis_5">
    <g id="xtick_8">
     <g id="line2d_45">
      <g>
       <use style="stroke:#000000;stroke-width:0.5;" x="373.6875" xlink:href="#m7fbe1c246f" y="127.8"/>
      </g>
     </g>
     <g id="line2d_46">
      <g>
       <use style="stroke:#000000;stroke-width:0.5;" x="373.6875" xlink:href="#m1348165a6f" y="15.3"/>
      </g>
     </g>
     <g id="text_18">
      <!-- 0.6 -->
      <g transform="translate(365.7359375 139.3984375)scale(0.1 -0.1)">
       <use xlink:href="#BitstreamVeraSans-Roman-30"/>
       <use x="63.623046875" xlink:href="#BitstreamVeraSans-Roman-2e"/>
       <use x="95.41015625" xlink:href="#BitstreamVeraSans-Roman-36"/>
      </g>
     </g>
    </g>
    <g id="xtick_9">
     <g id="line2d_47">
      <g>
       <use style="stroke:#000000;stroke-width:0.5;" x="410.84375" xlink:href="#m7fbe1c246f" y="127.8"/>
      </g>
     </g>
     <g id="line2d_48">
      <g>
       <use style="stroke:#000000;stroke-width:0.5;" x="410.84375" xlink:href="#m1348165a6f" y="15.3"/>
      </g>
     </g>
     <g id="text_19">
      <!-- 0.7 -->
      <g transform="translate(402.8921875 139.3984375)scale(0.1 -0.1)">
       <use xlink:href="#BitstreamVeraSans-Roman-30"/>
       <use x="63.623046875" xlink:href="#BitstreamVeraSans-Roman-2e"/>
       <use x="95.41015625" xlink:href="#BitstreamVeraSans-Roman-37"/>
      </g>
     </g>
    </g>
    <g id="xtick_10">
     <g id="line2d_49">
      <g>
       <use style="stroke:#000000;stroke-width:0.5;" x="448.0" xlink:href="#m7fbe1c246f" y="127.8"/>
      </g>
     </g>
     <g id="line2d_50">
      <g>
       <use style="stroke:#000000;stroke-width:0.5;" x="448.0" xlink:href="#m1348165a6f" y="15.3"/>
      </g>
     </g>
     <g id="text_20">
      <!-- 0.8 -->
      <defs>
       <path d="M 31.78125 34.625 
Q 24.75 34.625 20.71875 30.859375 
Q 16.703125 27.09375 16.703125 20.515625 
Q 16.703125 13.921875 20.71875 10.15625 
Q 24.75 6.390625 31.78125 6.390625 
Q 38.8125 6.390625 42.859375 10.171875 
Q 46.921875 13.96875 46.921875 20.515625 
Q 46.921875 27.09375 42.890625 30.859375 
Q 38.875 34.625 31.78125 34.625 
M 21.921875 38.8125 
Q 15.578125 40.375 12.03125 44.71875 
Q 8.5 49.078125 8.5 55.328125 
Q 8.5 64.0625 14.71875 69.140625 
Q 20.953125 74.21875 31.78125 74.21875 
Q 42.671875 74.21875 48.875 69.140625 
Q 55.078125 64.0625 55.078125 55.328125 
Q 55.078125 49.078125 51.53125 44.71875 
Q 48 40.375 41.703125 38.8125 
Q 48.828125 37.15625 52.796875 32.3125 
Q 56.78125 27.484375 56.78125 20.515625 
Q 56.78125 9.90625 50.3125 4.234375 
Q 43.84375 -1.421875 31.78125 -1.421875 
Q 19.734375 -1.421875 13.25 4.234375 
Q 6.78125 9.90625 6.78125 20.515625 
Q 6.78125 27.484375 10.78125 32.3125 
Q 14.796875 37.15625 21.921875 38.8125 
M 18.3125 54.390625 
Q 18.3125 48.734375 21.84375 45.5625 
Q 25.390625 42.390625 31.78125 42.390625 
Q 38.140625 42.390625 41.71875 45.5625 
Q 45.3125 48.734375 45.3125 54.390625 
Q 45.3125 60.0625 41.71875 63.234375 
Q 38.140625 66.40625 31.78125 66.40625 
Q 25.390625 66.40625 21.84375 63.234375 
Q 18.3125 60.0625 18.3125 54.390625 
" id="BitstreamVeraSans-Roman-38"/>
      </defs>
      <g transform="translate(440.0484375 139.3984375)scale(0.1 -0.1)">
       <use xlink:href="#BitstreamVeraSans-Roman-30"/>
       <use x="63.623046875" xlink:href="#BitstreamVeraSans-Roman-2e"/>
       <use x="95.41015625" xlink:href="#BitstreamVeraSans-Roman-38"/>
      </g>
     </g>
    </g>
    <g id="xtick_11">
     <g id="line2d_51">
      <g>
       <use style="stroke:#000000;stroke-width:0.5;" x="485.15625" xlink:href="#m7fbe1c246f" y="127.8"/>
      </g>
     </g>
     <g id="line2d_52">
      <g>
       <use style="stroke:#000000;stroke-width:0.5;" x="485.15625" xlink:href="#m1348165a6f" y="15.3"/>
      </g>
     </g>
     <g id="text_21">
      <!-- 0.9 -->
      <defs>
       <path d="M 10.984375 1.515625 
L 10.984375 10.5 
Q 14.703125 8.734375 18.5 7.8125 
Q 22.3125 6.890625 25.984375 6.890625 
Q 35.75 6.890625 40.890625 13.453125 
Q 46.046875 20.015625 46.78125 33.40625 
Q 43.953125 29.203125 39.59375 26.953125 
Q 35.25 24.703125 29.984375 24.703125 
Q 19.046875 24.703125 12.671875 31.3125 
Q 6.296875 37.9375 6.296875 49.421875 
Q 6.296875 60.640625 12.9375 67.421875 
Q 19.578125 74.21875 30.609375 74.21875 
Q 43.265625 74.21875 49.921875 64.515625 
Q 56.59375 54.828125 56.59375 36.375 
Q 56.59375 19.140625 48.40625 8.859375 
Q 40.234375 -1.421875 26.421875 -1.421875 
Q 22.703125 -1.421875 18.890625 -0.6875 
Q 15.09375 0.046875 10.984375 1.515625 
M 30.609375 32.421875 
Q 37.25 32.421875 41.125 36.953125 
Q 45.015625 41.5 45.015625 49.421875 
Q 45.015625 57.28125 41.125 61.84375 
Q 37.25 66.40625 30.609375 66.40625 
Q 23.96875 66.40625 20.09375 61.84375 
Q 16.21875 57.28125 16.21875 49.421875 
Q 16.21875 41.5 20.09375 36.953125 
Q 23.96875 32.421875 30.609375 32.421875 
" id="BitstreamVeraSans-Roman-39"/>
      </defs>
      <g transform="translate(477.2046875 139.3984375)scale(0.1 -0.1)">
       <use xlink:href="#BitstreamVeraSans-Roman-30"/>
       <use x="63.623046875" xlink:href="#BitstreamVeraSans-Roman-2e"/>
       <use x="95.41015625" xlink:href="#BitstreamVeraSans-Roman-39"/>
      </g>
     </g>
    </g>
    <g id="text_22">
     <!-- Z component -->
     <defs>
      <path d="M 5.609375 72.90625 
L 62.890625 72.90625 
L 62.890625 65.375 
L 16.796875 8.296875 
L 64.015625 8.296875 
L 64.015625 0 
L 4.5 0 
L 4.5 7.515625 
L 50.59375 64.59375 
L 5.609375 64.59375 
z
" id="BitstreamVeraSans-Roman-5a"/>
     </defs>
     <g transform="translate(396.12109375 154.0765625)scale(0.1 -0.1)">
      <use xlink:href="#BitstreamVeraSans-Roman-5a"/>
      <use x="68.505859375" xlink:href="#BitstreamVeraSans-Roman-20"/>
      <use x="100.29296875" xlink:href="#BitstreamVeraSans-Roman-63"/>
      <use x="155.2734375" xlink:href="#BitstreamVeraSans-Roman-6f"/>
      <use x="216.455078125" xlink:href="#BitstreamVeraSans-Roman-6d"/>
      <use x="313.8671875" xlink:href="#BitstreamVeraSans-Roman-70"/>
      <use x="377.34375" xlink:href="#BitstreamVeraSans-Roman-6f"/>
      <use x="438.525390625" xlink:href="#BitstreamVeraSans-Roman-6e"/>
      <use x="501.904296875" xlink:href="#BitstreamVeraSans-Roman-65"/>
      <use x="563.427734375" xlink:href="#BitstreamVeraSans-Roman-6e"/>
      <use x="626.806640625" xlink:href="#BitstreamVeraSans-Roman-74"/>
     </g>
    </g>
   </g>
   <g id="matplotlib.axis_6">
    <g id="ytick_7">
     <g id="line2d_53">
      <g>
       <use style="stroke:#000000;stroke-width:0.5;" x="373.6875" xlink:href="#meef64e6441" y="127.8"/>
      </g>
     </g>
     <g id="line2d_54">
      <g>
       <use style="stroke:#000000;stroke-width:0.5;" x="485.15625" xlink:href="#m391789f84c" y="127.8"/>
      </g>
     </g>
     <g id="text_23">
      <!-- 0.0 -->
      <g transform="translate(353.784375 130.559375)scale(0.1 -0.1)">
       <use xlink:href="#BitstreamVeraSans-Roman-30"/>
       <use x="63.623046875" xlink:href="#BitstreamVeraSans-Roman-2e"/>
       <use x="95.41015625" xlink:href="#BitstreamVeraSans-Roman-30"/>
      </g>
     </g>
    </g>
    <g id="ytick_8">
     <g id="line2d_55">
      <g>
       <use style="stroke:#000000;stroke-width:0.5;" x="373.6875" xlink:href="#meef64e6441" y="71.55"/>
      </g>
     </g>
     <g id="line2d_56">
      <g>
       <use style="stroke:#000000;stroke-width:0.5;" x="485.15625" xlink:href="#m391789f84c" y="71.55"/>
      </g>
     </g>
     <g id="text_24">
      <!-- 0.5 -->
      <g transform="translate(353.784375 74.309375)scale(0.1 -0.1)">
       <use xlink:href="#BitstreamVeraSans-Roman-30"/>
       <use x="63.623046875" xlink:href="#BitstreamVeraSans-Roman-2e"/>
       <use x="95.41015625" xlink:href="#BitstreamVeraSans-Roman-35"/>
      </g>
     </g>
    </g>
    <g id="ytick_9">
     <g id="line2d_57">
      <g>
       <use style="stroke:#000000;stroke-width:0.5;" x="373.6875" xlink:href="#meef64e6441" y="15.3"/>
      </g>
     </g>
     <g id="line2d_58">
      <g>
       <use style="stroke:#000000;stroke-width:0.5;" x="485.15625" xlink:href="#m391789f84c" y="15.3"/>
      </g>
     </g>
     <g id="text_25">
      <!-- 1.0 -->
      <g transform="translate(353.784375 18.059375)scale(0.1 -0.1)">
       <use xlink:href="#BitstreamVeraSans-Roman-31"/>
       <use x="63.623046875" xlink:href="#BitstreamVeraSans-Roman-2e"/>
       <use x="95.41015625" xlink:href="#BitstreamVeraSans-Roman-30"/>
      </g>
     </g>
    </g>
    <g id="text_26">
     <!-- Cumulative Distribution -->
     <g transform="translate(346.7046875 130.8453125)rotate(-90.0)scale(0.1 -0.1)">
      <use xlink:href="#BitstreamVeraSans-Roman-43"/>
      <use x="69.82421875" xlink:href="#BitstreamVeraSans-Roman-75"/>
      <use x="133.203125" xlink:href="#BitstreamVeraSans-Roman-6d"/>
      <use x="230.615234375" xlink:href="#BitstreamVeraSans-Roman-75"/>
      <use x="293.994140625" xlink:href="#BitstreamVeraSans-Roman-6c"/>
      <use x="321.77734375" xlink:href="#BitstreamVeraSans-Roman-61"/>
      <use x="383.056640625" xlink:href="#BitstreamVeraSans-Roman-74"/>
      <use x="422.265625" xlink:href="#BitstreamVeraSans-Roman-69"/>
      <use x="450.048828125" xlink:href="#BitstreamVeraSans-Roman-76"/>
      <use x="509.228515625" xlink:href="#BitstreamVeraSans-Roman-65"/>
      <use x="570.751953125" xlink:href="#BitstreamVeraSans-Roman-20"/>
      <use x="602.5390625" xlink:href="#BitstreamVeraSans-Roman-44"/>
      <use x="679.541015625" xlink:href="#BitstreamVeraSans-Roman-69"/>
      <use x="707.32421875" xlink:href="#BitstreamVeraSans-Roman-73"/>
      <use x="759.423828125" xlink:href="#BitstreamVeraSans-Roman-74"/>
      <use x="798.6328125" xlink:href="#BitstreamVeraSans-Roman-72"/>
      <use x="839.74609375" xlink:href="#BitstreamVeraSans-Roman-69"/>
      <use x="867.529296875" xlink:href="#BitstreamVeraSans-Roman-62"/>
      <use x="931.005859375" xlink:href="#BitstreamVeraSans-Roman-75"/>
      <use x="994.384765625" xlink:href="#BitstreamVeraSans-Roman-74"/>
      <use x="1033.59375" xlink:href="#BitstreamVeraSans-Roman-69"/>
      <use x="1061.37695312" xlink:href="#BitstreamVeraSans-Roman-6f"/>
      <use x="1122.55859375" xlink:href="#BitstreamVeraSans-Roman-6e"/>
     </g>
    </g>
   </g>
  </g>
 </g>
 <defs>
  <clipPath id="pb5dad43b51">
   <rect height="112.5" width="111.46875" x="209.2875" y="15.3"/>
  </clipPath>
  <clipPath id="p7ec42e5da5">
   <rect height="112.5" width="111.46875" x="373.6875" y="15.3"/>
  </clipPath>
  <clipPath id="pfeaf02e4a1">
   <rect height="112.5" width="111.46875" x="44.8875" y="15.3"/>
  </clipPath>
 </defs>
</svg>
