<?xml version="1.0" encoding="utf-8" standalone="no"?>
<!DOCTYPE svg PUBLIC "-//W3C//DTD SVG 1.1//EN"
  "http://www.w3.org/Graphics/SVG/1.1/DTD/svg11.dtd">
<!-- Created with matplotlib (http://matplotlib.org/) -->
<svg height="165pt" version="1.1" viewBox="0 0 504 165" width="504pt" xmlns="http://www.w3.org/2000/svg" xmlns:xlink="http://www.w3.org/1999/xlink">
 <defs>
  <style type="text/css">
*{stroke-linecap:butt;stroke-linejoin:round;stroke-miterlimit:100000;}
  </style>
 </defs>
 <g id="figure_1">
  <g id="patch_1">
   <path d="M 0 165.6 
L 504 165.6 
L 504 0 
L 0 0 
z
" style="fill:#ffffff;"/>
  </g>
  <g id="axes_1">
   <g id="patch_2">
    <path d="M 44.8875 127.8 
L 153.15 127.8 
L 153.15 15.3 
L 44.8875 15.3 
z
" style="fill:#ffffff;"/>
   </g>
   <g id="line2d_1">
    <path clip-path="url(#p6c9c640d2f)" d="M 60.142512 127.8 
L 70.097519 127.62 
L 75.455816 127.1925 
L 75.552197 127.17 
L 77.6192 126.99 
L 77.867812 126.9 
L 79.000846 126.7425 
L 79.946288 126.36 
L 80.833986 126.225 
L 81.050168 126.1575 
L 81.554851 126 
L 81.79434 125.91 
L 82.793533 125.505 
L 82.906588 125.37 
L 83.629036 125.145 
L 83.748147 125.0775 
L 84.921324 124.38 
L 85.065752 124.3125 
L 86.760509 123.0525 
L 86.87882 122.94 
L 87.419631 122.4 
L 87.614517 122.2425 
L 88.149314 121.5 
L 88.251028 121.2525 
L 88.332964 121.095 
L 88.427524 120.8475 
L 88.603152 120.7125 
L 88.97139 120.1725 
L 89.882649 119.0475 
L 90.718004 117.6075 
L 90.99923 116.955 
L 91.402167 116.2125 
L 91.509397 116.01 
L 92.649634 113.6925 
L 92.777503 113.3325 
L 92.843936 113.0625 
L 93.143948 112.3425 
L 93.22746 112.1625 
L 93.44037 111.465 
L 93.715935 110.7675 
L 93.972345 110.07 
L 94.03424 109.935 
L 95.242695 106.7625 
L 95.38587 106.2 
L 95.574809 105.7725 
L 95.758932 105.255 
L 98.918178 94.9275 
L 99.065732 94.23 
L 99.38868 93.0375 
L 99.571128 92.43 
L 99.690829 91.89 
L 99.781306 91.575 
L 100.02961 90.63 
L 100.085689 90.405 
L 100.286264 89.595 
L 100.379723 89.3025 
L 100.729049 88.11 
L 100.859052 87.4575 
L 100.996986 86.94 
L 101.112956 86.3325 
L 101.203318 85.995 
L 101.880571 83.385 
L 101.943399 83.16 
L 102.078704 82.62 
L 102.124355 82.3275 
L 102.558022 80.37 
L 102.594889 80.145 
L 102.885686 78.525 
L 104.425384 72.1125 
L 104.546354 71.5725 
L 104.683421 70.8525 
L 104.803187 70.4025 
L 105.139953 69.075 
L 105.313133 68.2425 
L 105.43289 67.6575 
L 105.541513 67.2975 
L 106.574544 62.3925 
L 106.730712 61.74 
L 106.852726 61.335 
L 107.069892 60.4575 
L 107.195007 59.49 
L 107.63545 58.05 
L 107.74586 57.5325 
L 108.217354 55.5525 
L 108.463338 54.45 
L 108.624332 53.8875 
L 109.789783 49.005 
L 109.904303 48.4425 
L 110.319043 46.9125 
L 110.384157 46.5525 
L 110.524845 45.9675 
L 110.584858 45.7875 
L 110.742378 45.1575 
L 110.8512 44.73 
L 111.680539 41.5125 
L 111.831443 40.9275 
L 111.954668 40.5225 
L 112.03795 40.23 
L 112.199947 39.7125 
L 112.382637 39.195 
L 112.459752 38.9925 
L 112.701091 38.07 
L 112.764298 37.89 
L 113.19945 36.5625 
L 113.313592 36.27 
L 113.824248 34.8075 
L 113.906044 34.56 
L 113.996231 34.4475 
L 114.066249 34.2675 
L 114.167005 33.9075 
L 114.244295 33.7725 
L 114.366975 33.3 
L 114.472327 33.075 
L 115.296469 30.555 
L 115.392441 30.42 
L 115.560292 30.0825 
L 115.887631 29.2275 
L 116.020406 28.9125 
L 117.081883 26.2575 
L 117.194463 26.1 
L 117.337499 25.8525 
L 117.436329 25.6725 
L 117.935277 24.9525 
L 118.282698 24.3675 
L 118.348294 24.255 
L 118.523158 24.075 
L 118.947258 23.4225 
L 119.204546 22.9725 
L 119.471983 22.4775 
L 120.456123 20.9025 
L 120.824905 20.52 
L 121.05988 20.07 
L 121.970478 19.035 
L 121.982625 18.9675 
L 122.278358 18.8325 
L 124.990254 17.01 
L 125.275087 16.8525 
L 126.046234 16.4925 
L 126.405457 16.3575 
L 126.879852 16.2225 
L 127.312342 16.0425 
L 127.565714 15.975 
L 128.679769 15.6825 
L 131.839116 15.4125 
L 137.1285 15.3225 
L 137.1285 15.3225 
" style="fill:none;stroke:#ff0000;stroke-linecap:square;"/>
   </g>
   <g id="line2d_2">
    <path clip-path="url(#p6c9c640d2f)" d="M 83.924869 127.8 
L 83.924869 15.3 
" style="fill:none;stroke:#ff0000;stroke-linecap:square;"/>
   </g>
   <g id="line2d_3">
    <path clip-path="url(#p6c9c640d2f)" d="M 123.32273 127.8 
L 123.32273 15.3 
" style="fill:none;stroke:#ff0000;stroke-linecap:square;"/>
   </g>
   <g id="line2d_4">
    <path clip-path="url(#p6c9c640d2f)" d="M 53.288772 127.8 
L 60.575665 127.53 
L 67.533847 126.8325 
L 68.172625 126.6975 
L 70.356672 126.27 
L 70.507058 126.18 
L 71.640531 125.8875 
L 72.368917 125.73 
L 72.482578 125.685 
L 73.051272 125.46 
L 73.472379 125.3025 
L 74.597727 124.6275 
L 74.804771 124.47 
L 75.057592 124.3125 
L 76.606916 123.3675 
L 77.015146 123.0075 
L 77.340546 122.7825 
L 77.374005 122.7375 
L 77.572767 122.6025 
L 77.694746 122.4675 
L 77.858871 122.22 
L 78.277059 121.7925 
L 78.459659 121.635 
L 78.917182 121.2075 
L 79.032792 121.0725 
L 79.308068 120.7125 
L 79.394512 120.645 
L 79.56944 120.4875 
L 79.763263 120.2625 
L 81.263824 118.26 
L 81.428914 117.99 
L 81.610527 117.81 
L 82.118615 117 
L 82.252125 116.8425 
L 83.030251 115.3575 
L 83.211499 115.2225 
L 83.562054 114.5025 
L 83.706711 114.2325 
L 83.892722 113.76 
L 84.064575 113.4 
L 84.627609 112.5225 
L 84.8004 112.1625 
L 84.94091 111.8025 
L 85.11566 111.3975 
L 85.287444 111.0375 
L 85.376883 110.8575 
L 85.722505 110.4075 
L 85.872972 110.115 
L 85.968446 109.935 
L 86.079389 109.6875 
L 86.376943 108.945 
L 86.477399 108.6975 
L 86.808345 107.7525 
L 86.872206 107.595 
L 87.021241 107.28 
L 87.244523 106.8525 
L 87.410944 106.2675 
L 87.659135 105.885 
L 87.773596 105.5925 
L 88.017007 105.03 
L 88.14111 104.6025 
L 88.825751 102.9375 
L 89.220871 102.015 
L 89.396165 101.3175 
L 89.783003 100.35 
L 89.953609 99.9225 
L 90.38012 98.64 
L 90.500579 98.1675 
L 90.574901 97.965 
L 90.821343 97.0875 
L 91.06379 96.5025 
L 91.211034 96.0075 
L 91.321822 95.715 
L 91.469674 95.13 
L 91.711584 94.0725 
L 92.075325 92.925 
L 92.184801 92.3625 
L 92.659172 90.8325 
L 92.784702 90.495 
L 92.891713 90.2025 
L 92.984351 90 
L 93.149287 89.37 
L 93.298068 88.9875 
L 93.420593 88.605 
L 93.802471 87.345 
L 94.251892 85.815 
L 95.156728 82.8225 
L 95.35158 82.1925 
L 95.445045 82.0125 
L 95.546084 81.5625 
L 95.771398 80.9325 
L 95.885345 80.3475 
L 96.006462 79.6725 
L 96.060178 79.5375 
L 96.212901 78.8175 
L 96.442258 78.0525 
L 96.526626 77.8275 
L 96.970763 76.32 
L 97.274032 75.42 
L 97.390973 74.97 
L 97.499753 74.745 
L 97.610776 74.4075 
L 98.781071 70.11 
L 98.869236 69.8175 
L 99.057986 69.12 
L 101.057453 61.83 
L 101.128089 61.6275 
L 101.352349 60.705 
L 102.731855 55.6875 
L 102.797807 55.53 
L 103.123784 54.4725 
L 103.459531 53.3925 
L 103.568877 52.92 
L 103.709004 52.4475 
L 103.82371 52.0875 
L 104.155331 50.985 
L 104.266189 50.67 
L 104.340186 50.4675 
L 104.452076 50.0175 
L 104.546884 49.7925 
L 104.662688 49.59 
L 104.793607 49.185 
L 104.976531 48.6225 
L 105.074453 48.1725 
L 105.183891 47.565 
L 105.255708 47.34 
L 105.388305 46.845 
L 105.509 46.44 
L 105.644758 45.6975 
L 105.970305 44.64 
L 106.058618 44.46 
L 106.200812 43.875 
L 106.350293 43.38 
L 109.47288 33.8625 
L 109.616468 33.66 
L 109.809409 33.0975 
L 109.955396 32.7375 
L 110.263078 32.0175 
L 110.984704 30.2175 
L 111.210327 29.4525 
L 111.410766 28.9125 
L 111.61635 28.44 
L 111.728248 28.125 
L 111.865247 27.6975 
L 112.095649 27.2475 
L 112.248069 26.9775 
L 112.363106 26.82 
L 112.489566 26.595 
L 112.629936 26.37 
L 112.767365 25.9875 
L 112.985617 25.695 
L 113.09381 25.47 
L 113.182871 25.11 
L 113.33673 24.8175 
L 113.45635 24.6825 
L 113.57993 24.5025 
L 114.207204 23.4225 
L 114.296704 23.2425 
L 114.440578 23.0175 
L 114.607882 22.8825 
L 114.724954 22.6575 
L 114.829185 22.4325 
L 114.955352 22.23 
L 115.555387 21.375 
L 115.742594 21.2175 
L 116.15058 20.655 
L 116.391715 20.52 
L 116.556124 20.295 
L 116.798107 20.0025 
L 116.909848 19.755 
L 117.0819 19.5525 
L 117.142065 19.485 
L 117.462543 19.3275 
L 117.730539 19.1025 
L 118.096636 18.8775 
L 118.326596 18.765 
L 118.612568 18.585 
L 118.732816 18.3825 
L 118.990342 18.225 
L 119.279617 18.1125 
L 122.767654 16.6725 
L 123.00847 16.5375 
L 123.342146 16.425 
L 124.15603 16.245 
L 124.183954 16.2 
L 125.448631 15.9075 
L 126.558633 15.7275 
L 127.590127 15.5475 
L 127.876466 15.5025 
L 131.199306 15.3225 
L 131.199306 15.3225 
" style="fill:none;stroke:#0000ff;stroke-linecap:square;"/>
   </g>
   <g id="line2d_5">
    <path clip-path="url(#p6c9c640d2f)" d="M 73.937409 127.8 
L 73.937409 15.3 
" style="fill:none;stroke:#0000ff;stroke-dasharray:6.000000,6.000000;stroke-dashoffset:0.0;"/>
   </g>
   <g id="line2d_6">
    <path clip-path="url(#p6c9c640d2f)" d="M 119.279617 127.8 
L 119.279617 15.3 
" style="fill:none;stroke:#0000ff;stroke-dasharray:6.000000,6.000000;stroke-dashoffset:0.0;"/>
   </g>
   <g id="patch_3">
    <path d="M 44.8875 15.3 
L 153.15 15.3 
" style="fill:none;stroke:#000000;stroke-linecap:square;stroke-linejoin:miter;"/>
   </g>
   <g id="patch_4">
    <path d="M 153.15 127.8 
L 153.15 15.3 
" style="fill:none;stroke:#000000;stroke-linecap:square;stroke-linejoin:miter;"/>
   </g>
   <g id="patch_5">
    <path d="M 44.8875 127.8 
L 153.15 127.8 
" style="fill:none;stroke:#000000;stroke-linecap:square;stroke-linejoin:miter;"/>
   </g>
   <g id="patch_6">
    <path d="M 44.8875 127.8 
L 44.8875 15.3 
" style="fill:none;stroke:#000000;stroke-linecap:square;stroke-linejoin:miter;"/>
   </g>
   <g id="matplotlib.axis_1">
    <g id="xtick_1">
     <g id="line2d_7">
      <defs>
       <path d="M 0 0 
L 0 -4 
" id="m8f643698a9" style="stroke:#000000;stroke-width:0.5;"/>
      </defs>
      <g>
       <use style="stroke:#000000;stroke-width:0.5;" x="44.8875" xlink:href="#m8f643698a9" y="127.8"/>
      </g>
     </g>
     <g id="line2d_8">
      <defs>
       <path d="M 0 0 
L 0 4 
" id="m1d6c1d74c0" style="stroke:#000000;stroke-width:0.5;"/>
      </defs>
      <g>
       <use style="stroke:#000000;stroke-width:0.5;" x="44.8875" xlink:href="#m1d6c1d74c0" y="15.3"/>
      </g>
     </g>
     <g id="text_1">
      <!-- 0.50 -->
      <defs>
       <path d="M 31.78125 66.40625 
Q 24.171875 66.40625 20.328125 58.90625 
Q 16.5 51.421875 16.5 36.375 
Q 16.5 21.390625 20.328125 13.890625 
Q 24.171875 6.390625 31.78125 6.390625 
Q 39.453125 6.390625 43.28125 13.890625 
Q 47.125 21.390625 47.125 36.375 
Q 47.125 51.421875 43.28125 58.90625 
Q 39.453125 66.40625 31.78125 66.40625 
M 31.78125 74.21875 
Q 44.046875 74.21875 50.515625 64.515625 
Q 56.984375 54.828125 56.984375 36.375 
Q 56.984375 17.96875 50.515625 8.265625 
Q 44.046875 -1.421875 31.78125 -1.421875 
Q 19.53125 -1.421875 13.0625 8.265625 
Q 6.59375 17.96875 6.59375 36.375 
Q 6.59375 54.828125 13.0625 64.515625 
Q 19.53125 74.21875 31.78125 74.21875 
" id="BitstreamVeraSans-Roman-30"/>
       <path d="M 10.6875 12.40625 
L 21 12.40625 
L 21 0 
L 10.6875 0 
z
" id="BitstreamVeraSans-Roman-2e"/>
       <path d="M 10.796875 72.90625 
L 49.515625 72.90625 
L 49.515625 64.59375 
L 19.828125 64.59375 
L 19.828125 46.734375 
Q 21.96875 47.46875 24.109375 47.828125 
Q 26.265625 48.1875 28.421875 48.1875 
Q 40.625 48.1875 47.75 41.5 
Q 54.890625 34.8125 54.890625 23.390625 
Q 54.890625 11.625 47.5625 5.09375 
Q 40.234375 -1.421875 26.90625 -1.421875 
Q 22.3125 -1.421875 17.546875 -0.640625 
Q 12.796875 0.140625 7.71875 1.703125 
L 7.71875 11.625 
Q 12.109375 9.234375 16.796875 8.0625 
Q 21.484375 6.890625 26.703125 6.890625 
Q 35.15625 6.890625 40.078125 11.328125 
Q 45.015625 15.765625 45.015625 23.390625 
Q 45.015625 31 40.078125 35.4375 
Q 35.15625 39.890625 26.703125 39.890625 
Q 22.75 39.890625 18.8125 39.015625 
Q 14.890625 38.140625 10.796875 36.28125 
z
" id="BitstreamVeraSans-Roman-35"/>
      </defs>
      <g transform="translate(33.7546875 139.3984375)scale(0.1 -0.1)">
       <use xlink:href="#BitstreamVeraSans-Roman-30"/>
       <use x="63.623046875" xlink:href="#BitstreamVeraSans-Roman-2e"/>
       <use x="95.41015625" xlink:href="#BitstreamVeraSans-Roman-35"/>
       <use x="159.033203125" xlink:href="#BitstreamVeraSans-Roman-30"/>
      </g>
     </g>
    </g>
    <g id="xtick_2">
     <g id="line2d_9">
      <g>
       <use style="stroke:#000000;stroke-width:0.5;" x="62.93125" xlink:href="#m8f643698a9" y="127.8"/>
      </g>
     </g>
     <g id="line2d_10">
      <g>
       <use style="stroke:#000000;stroke-width:0.5;" x="62.93125" xlink:href="#m1d6c1d74c0" y="15.3"/>
      </g>
     </g>
     <g id="text_2">
      <!-- 0.55 -->
      <g transform="translate(51.7984375 139.3984375)scale(0.1 -0.1)">
       <use xlink:href="#BitstreamVeraSans-Roman-30"/>
       <use x="63.623046875" xlink:href="#BitstreamVeraSans-Roman-2e"/>
       <use x="95.41015625" xlink:href="#BitstreamVeraSans-Roman-35"/>
       <use x="159.033203125" xlink:href="#BitstreamVeraSans-Roman-35"/>
      </g>
     </g>
    </g>
    <g id="xtick_3">
     <g id="line2d_11">
      <g>
       <use style="stroke:#000000;stroke-width:0.5;" x="80.975" xlink:href="#m8f643698a9" y="127.8"/>
      </g>
     </g>
     <g id="line2d_12">
      <g>
       <use style="stroke:#000000;stroke-width:0.5;" x="80.975" xlink:href="#m1d6c1d74c0" y="15.3"/>
      </g>
     </g>
     <g id="text_3">
      <!-- 0.60 -->
      <defs>
       <path d="M 33.015625 40.375 
Q 26.375 40.375 22.484375 35.828125 
Q 18.609375 31.296875 18.609375 23.390625 
Q 18.609375 15.53125 22.484375 10.953125 
Q 26.375 6.390625 33.015625 6.390625 
Q 39.65625 6.390625 43.53125 10.953125 
Q 47.40625 15.53125 47.40625 23.390625 
Q 47.40625 31.296875 43.53125 35.828125 
Q 39.65625 40.375 33.015625 40.375 
M 52.59375 71.296875 
L 52.59375 62.3125 
Q 48.875 64.0625 45.09375 64.984375 
Q 41.3125 65.921875 37.59375 65.921875 
Q 27.828125 65.921875 22.671875 59.328125 
Q 17.53125 52.734375 16.796875 39.40625 
Q 19.671875 43.65625 24.015625 45.921875 
Q 28.375 48.1875 33.59375 48.1875 
Q 44.578125 48.1875 50.953125 41.515625 
Q 57.328125 34.859375 57.328125 23.390625 
Q 57.328125 12.15625 50.6875 5.359375 
Q 44.046875 -1.421875 33.015625 -1.421875 
Q 20.359375 -1.421875 13.671875 8.265625 
Q 6.984375 17.96875 6.984375 36.375 
Q 6.984375 53.65625 15.1875 63.9375 
Q 23.390625 74.21875 37.203125 74.21875 
Q 40.921875 74.21875 44.703125 73.484375 
Q 48.484375 72.75 52.59375 71.296875 
" id="BitstreamVeraSans-Roman-36"/>
      </defs>
      <g transform="translate(69.8421875 139.3984375)scale(0.1 -0.1)">
       <use xlink:href="#BitstreamVeraSans-Roman-30"/>
       <use x="63.623046875" xlink:href="#BitstreamVeraSans-Roman-2e"/>
       <use x="95.41015625" xlink:href="#BitstreamVeraSans-Roman-36"/>
       <use x="159.033203125" xlink:href="#BitstreamVeraSans-Roman-30"/>
      </g>
     </g>
    </g>
    <g id="xtick_4">
     <g id="line2d_13">
      <g>
       <use style="stroke:#000000;stroke-width:0.5;" x="99.01875" xlink:href="#m8f643698a9" y="127.8"/>
      </g>
     </g>
     <g id="line2d_14">
      <g>
       <use style="stroke:#000000;stroke-width:0.5;" x="99.01875" xlink:href="#m1d6c1d74c0" y="15.3"/>
      </g>
     </g>
     <g id="text_4">
      <!-- 0.65 -->
      <g transform="translate(87.8859375 139.3984375)scale(0.1 -0.1)">
       <use xlink:href="#BitstreamVeraSans-Roman-30"/>
       <use x="63.623046875" xlink:href="#BitstreamVeraSans-Roman-2e"/>
       <use x="95.41015625" xlink:href="#BitstreamVeraSans-Roman-36"/>
       <use x="159.033203125" xlink:href="#BitstreamVeraSans-Roman-35"/>
      </g>
     </g>
    </g>
    <g id="xtick_5">
     <g id="line2d_15">
      <g>
       <use style="stroke:#000000;stroke-width:0.5;" x="117.0625" xlink:href="#m8f643698a9" y="127.8"/>
      </g>
     </g>
     <g id="line2d_16">
      <g>
       <use style="stroke:#000000;stroke-width:0.5;" x="117.0625" xlink:href="#m1d6c1d74c0" y="15.3"/>
      </g>
     </g>
     <g id="text_5">
      <!-- 0.70 -->
      <defs>
       <path d="M 8.203125 72.90625 
L 55.078125 72.90625 
L 55.078125 68.703125 
L 28.609375 0 
L 18.3125 0 
L 43.21875 64.59375 
L 8.203125 64.59375 
z
" id="BitstreamVeraSans-Roman-37"/>
      </defs>
      <g transform="translate(105.9296875 139.3984375)scale(0.1 -0.1)">
       <use xlink:href="#BitstreamVeraSans-Roman-30"/>
       <use x="63.623046875" xlink:href="#BitstreamVeraSans-Roman-2e"/>
       <use x="95.41015625" xlink:href="#BitstreamVeraSans-Roman-37"/>
       <use x="159.033203125" xlink:href="#BitstreamVeraSans-Roman-30"/>
      </g>
     </g>
    </g>
    <g id="xtick_6">
     <g id="line2d_17">
      <g>
       <use style="stroke:#000000;stroke-width:0.5;" x="135.10625" xlink:href="#m8f643698a9" y="127.8"/>
      </g>
     </g>
     <g id="line2d_18">
      <g>
       <use style="stroke:#000000;stroke-width:0.5;" x="135.10625" xlink:href="#m1d6c1d74c0" y="15.3"/>
      </g>
     </g>
     <g id="text_6">
      <!-- 0.75 -->
      <g transform="translate(123.9734375 139.3984375)scale(0.1 -0.1)">
       <use xlink:href="#BitstreamVeraSans-Roman-30"/>
       <use x="63.623046875" xlink:href="#BitstreamVeraSans-Roman-2e"/>
       <use x="95.41015625" xlink:href="#BitstreamVeraSans-Roman-37"/>
       <use x="159.033203125" xlink:href="#BitstreamVeraSans-Roman-35"/>
      </g>
     </g>
    </g>
    <g id="xtick_7">
     <g id="line2d_19">
      <g>
       <use style="stroke:#000000;stroke-width:0.5;" x="153.15" xlink:href="#m8f643698a9" y="127.8"/>
      </g>
     </g>
     <g id="line2d_20">
      <g>
       <use style="stroke:#000000;stroke-width:0.5;" x="153.15" xlink:href="#m1d6c1d74c0" y="15.3"/>
      </g>
     </g>
     <g id="text_7">
      <!-- 0.80 -->
      <defs>
       <path d="M 31.78125 34.625 
Q 24.75 34.625 20.71875 30.859375 
Q 16.703125 27.09375 16.703125 20.515625 
Q 16.703125 13.921875 20.71875 10.15625 
Q 24.75 6.390625 31.78125 6.390625 
Q 38.8125 6.390625 42.859375 10.171875 
Q 46.921875 13.96875 46.921875 20.515625 
Q 46.921875 27.09375 42.890625 30.859375 
Q 38.875 34.625 31.78125 34.625 
M 21.921875 38.8125 
Q 15.578125 40.375 12.03125 44.71875 
Q 8.5 49.078125 8.5 55.328125 
Q 8.5 64.0625 14.71875 69.140625 
Q 20.953125 74.21875 31.78125 74.21875 
Q 42.671875 74.21875 48.875 69.140625 
Q 55.078125 64.0625 55.078125 55.328125 
Q 55.078125 49.078125 51.53125 44.71875 
Q 48 40.375 41.703125 38.8125 
Q 48.828125 37.15625 52.796875 32.3125 
Q 56.78125 27.484375 56.78125 20.515625 
Q 56.78125 9.90625 50.3125 4.234375 
Q 43.84375 -1.421875 31.78125 -1.421875 
Q 19.734375 -1.421875 13.25 4.234375 
Q 6.78125 9.90625 6.78125 20.515625 
Q 6.78125 27.484375 10.78125 32.3125 
Q 14.796875 37.15625 21.921875 38.8125 
M 18.3125 54.390625 
Q 18.3125 48.734375 21.84375 45.5625 
Q 25.390625 42.390625 31.78125 42.390625 
Q 38.140625 42.390625 41.71875 45.5625 
Q 45.3125 48.734375 45.3125 54.390625 
Q 45.3125 60.0625 41.71875 63.234375 
Q 38.140625 66.40625 31.78125 66.40625 
Q 25.390625 66.40625 21.84375 63.234375 
Q 18.3125 60.0625 18.3125 54.390625 
" id="BitstreamVeraSans-Roman-38"/>
      </defs>
      <g transform="translate(142.0171875 139.3984375)scale(0.1 -0.1)">
       <use xlink:href="#BitstreamVeraSans-Roman-30"/>
       <use x="63.623046875" xlink:href="#BitstreamVeraSans-Roman-2e"/>
       <use x="95.41015625" xlink:href="#BitstreamVeraSans-Roman-38"/>
       <use x="159.033203125" xlink:href="#BitstreamVeraSans-Roman-30"/>
      </g>
     </g>
    </g>
    <g id="text_8">
     <!-- X component -->
     <defs>
      <path id="BitstreamVeraSans-Roman-20"/>
      <path d="M 54.890625 33.015625 
L 54.890625 0 
L 45.90625 0 
L 45.90625 32.71875 
Q 45.90625 40.484375 42.875 44.328125 
Q 39.84375 48.1875 33.796875 48.1875 
Q 26.515625 48.1875 22.3125 43.546875 
Q 18.109375 38.921875 18.109375 30.90625 
L 18.109375 0 
L 9.078125 0 
L 9.078125 54.6875 
L 18.109375 54.6875 
L 18.109375 46.1875 
Q 21.34375 51.125 25.703125 53.5625 
Q 30.078125 56 35.796875 56 
Q 45.21875 56 50.046875 50.171875 
Q 54.890625 44.34375 54.890625 33.015625 
" id="BitstreamVeraSans-Roman-6e"/>
      <path d="M 52 44.1875 
Q 55.375 50.25 60.0625 53.125 
Q 64.75 56 71.09375 56 
Q 79.640625 56 84.28125 50.015625 
Q 88.921875 44.046875 88.921875 33.015625 
L 88.921875 0 
L 79.890625 0 
L 79.890625 32.71875 
Q 79.890625 40.578125 77.09375 44.375 
Q 74.3125 48.1875 68.609375 48.1875 
Q 61.625 48.1875 57.5625 43.546875 
Q 53.515625 38.921875 53.515625 30.90625 
L 53.515625 0 
L 44.484375 0 
L 44.484375 32.71875 
Q 44.484375 40.625 41.703125 44.40625 
Q 38.921875 48.1875 33.109375 48.1875 
Q 26.21875 48.1875 22.15625 43.53125 
Q 18.109375 38.875 18.109375 30.90625 
L 18.109375 0 
L 9.078125 0 
L 9.078125 54.6875 
L 18.109375 54.6875 
L 18.109375 46.1875 
Q 21.1875 51.21875 25.484375 53.609375 
Q 29.78125 56 35.6875 56 
Q 41.65625 56 45.828125 52.96875 
Q 50 49.953125 52 44.1875 
" id="BitstreamVeraSans-Roman-6d"/>
      <path d="M 30.609375 48.390625 
Q 23.390625 48.390625 19.1875 42.75 
Q 14.984375 37.109375 14.984375 27.296875 
Q 14.984375 17.484375 19.15625 11.84375 
Q 23.34375 6.203125 30.609375 6.203125 
Q 37.796875 6.203125 41.984375 11.859375 
Q 46.1875 17.53125 46.1875 27.296875 
Q 46.1875 37.015625 41.984375 42.703125 
Q 37.796875 48.390625 30.609375 48.390625 
M 30.609375 56 
Q 42.328125 56 49.015625 48.375 
Q 55.71875 40.765625 55.71875 27.296875 
Q 55.71875 13.875 49.015625 6.21875 
Q 42.328125 -1.421875 30.609375 -1.421875 
Q 18.84375 -1.421875 12.171875 6.21875 
Q 5.515625 13.875 5.515625 27.296875 
Q 5.515625 40.765625 12.171875 48.375 
Q 18.84375 56 30.609375 56 
" id="BitstreamVeraSans-Roman-6f"/>
      <path d="M 56.203125 29.59375 
L 56.203125 25.203125 
L 14.890625 25.203125 
Q 15.484375 15.921875 20.484375 11.0625 
Q 25.484375 6.203125 34.421875 6.203125 
Q 39.59375 6.203125 44.453125 7.46875 
Q 49.3125 8.734375 54.109375 11.28125 
L 54.109375 2.78125 
Q 49.265625 0.734375 44.1875 -0.34375 
Q 39.109375 -1.421875 33.890625 -1.421875 
Q 20.796875 -1.421875 13.15625 6.1875 
Q 5.515625 13.8125 5.515625 26.8125 
Q 5.515625 40.234375 12.765625 48.109375 
Q 20.015625 56 32.328125 56 
Q 43.359375 56 49.78125 48.890625 
Q 56.203125 41.796875 56.203125 29.59375 
M 47.21875 32.234375 
Q 47.125 39.59375 43.09375 43.984375 
Q 39.0625 48.390625 32.421875 48.390625 
Q 24.90625 48.390625 20.390625 44.140625 
Q 15.875 39.890625 15.1875 32.171875 
z
" id="BitstreamVeraSans-Roman-65"/>
      <path d="M 48.78125 52.59375 
L 48.78125 44.1875 
Q 44.96875 46.296875 41.140625 47.34375 
Q 37.3125 48.390625 33.40625 48.390625 
Q 24.65625 48.390625 19.8125 42.84375 
Q 14.984375 37.3125 14.984375 27.296875 
Q 14.984375 17.28125 19.8125 11.734375 
Q 24.65625 6.203125 33.40625 6.203125 
Q 37.3125 6.203125 41.140625 7.25 
Q 44.96875 8.296875 48.78125 10.40625 
L 48.78125 2.09375 
Q 45.015625 0.34375 40.984375 -0.53125 
Q 36.96875 -1.421875 32.421875 -1.421875 
Q 20.0625 -1.421875 12.78125 6.34375 
Q 5.515625 14.109375 5.515625 27.296875 
Q 5.515625 40.671875 12.859375 48.328125 
Q 20.21875 56 33.015625 56 
Q 37.15625 56 41.109375 55.140625 
Q 45.0625 54.296875 48.78125 52.59375 
" id="BitstreamVeraSans-Roman-63"/>
      <path d="M 6.296875 72.90625 
L 16.890625 72.90625 
L 35.015625 45.796875 
L 53.21875 72.90625 
L 63.8125 72.90625 
L 40.375 37.890625 
L 65.375 0 
L 54.78125 0 
L 34.28125 31 
L 13.625 0 
L 2.984375 0 
L 29 38.921875 
z
" id="BitstreamVeraSans-Roman-58"/>
      <path d="M 18.3125 70.21875 
L 18.3125 54.6875 
L 36.8125 54.6875 
L 36.8125 47.703125 
L 18.3125 47.703125 
L 18.3125 18.015625 
Q 18.3125 11.328125 20.140625 9.421875 
Q 21.96875 7.515625 27.59375 7.515625 
L 36.8125 7.515625 
L 36.8125 0 
L 27.59375 0 
Q 17.1875 0 13.234375 3.875 
Q 9.28125 7.765625 9.28125 18.015625 
L 9.28125 47.703125 
L 2.6875 47.703125 
L 2.6875 54.6875 
L 9.28125 54.6875 
L 9.28125 70.21875 
z
" id="BitstreamVeraSans-Roman-74"/>
      <path d="M 18.109375 8.203125 
L 18.109375 -20.796875 
L 9.078125 -20.796875 
L 9.078125 54.6875 
L 18.109375 54.6875 
L 18.109375 46.390625 
Q 20.953125 51.265625 25.265625 53.625 
Q 29.59375 56 35.59375 56 
Q 45.5625 56 51.78125 48.09375 
Q 58.015625 40.1875 58.015625 27.296875 
Q 58.015625 14.40625 51.78125 6.484375 
Q 45.5625 -1.421875 35.59375 -1.421875 
Q 29.59375 -1.421875 25.265625 0.953125 
Q 20.953125 3.328125 18.109375 8.203125 
M 48.6875 27.296875 
Q 48.6875 37.203125 44.609375 42.84375 
Q 40.53125 48.484375 33.40625 48.484375 
Q 26.265625 48.484375 22.1875 42.84375 
Q 18.109375 37.203125 18.109375 27.296875 
Q 18.109375 17.390625 22.1875 11.75 
Q 26.265625 6.109375 33.40625 6.109375 
Q 40.53125 6.109375 44.609375 11.75 
Q 48.6875 17.390625 48.6875 27.296875 
" id="BitstreamVeraSans-Roman-70"/>
     </defs>
     <g transform="translate(65.71796875 154.0765625)scale(0.1 -0.1)">
      <use xlink:href="#BitstreamVeraSans-Roman-58"/>
      <use x="68.505859375" xlink:href="#BitstreamVeraSans-Roman-20"/>
      <use x="100.29296875" xlink:href="#BitstreamVeraSans-Roman-63"/>
      <use x="155.2734375" xlink:href="#BitstreamVeraSans-Roman-6f"/>
      <use x="216.455078125" xlink:href="#BitstreamVeraSans-Roman-6d"/>
      <use x="313.8671875" xlink:href="#BitstreamVeraSans-Roman-70"/>
      <use x="377.34375" xlink:href="#BitstreamVeraSans-Roman-6f"/>
      <use x="438.525390625" xlink:href="#BitstreamVeraSans-Roman-6e"/>
      <use x="501.904296875" xlink:href="#BitstreamVeraSans-Roman-65"/>
      <use x="563.427734375" xlink:href="#BitstreamVeraSans-Roman-6e"/>
      <use x="626.806640625" xlink:href="#BitstreamVeraSans-Roman-74"/>
     </g>
    </g>
   </g>
   <g id="matplotlib.axis_2">
    <g id="ytick_1">
     <g id="line2d_21">
      <defs>
       <path d="M 0 0 
L 4 0 
" id="m0fc8f7f576" style="stroke:#000000;stroke-width:0.5;"/>
      </defs>
      <g>
       <use style="stroke:#000000;stroke-width:0.5;" x="44.8875" xlink:href="#m0fc8f7f576" y="127.8"/>
      </g>
     </g>
     <g id="line2d_22">
      <defs>
       <path d="M 0 0 
L -4 0 
" id="mc6e5164fb7" style="stroke:#000000;stroke-width:0.5;"/>
      </defs>
      <g>
       <use style="stroke:#000000;stroke-width:0.5;" x="153.15" xlink:href="#mc6e5164fb7" y="127.8"/>
      </g>
     </g>
     <g id="text_9">
      <!-- 0.0 -->
      <g transform="translate(24.984375 130.559375)scale(0.1 -0.1)">
       <use xlink:href="#BitstreamVeraSans-Roman-30"/>
       <use x="63.623046875" xlink:href="#BitstreamVeraSans-Roman-2e"/>
       <use x="95.41015625" xlink:href="#BitstreamVeraSans-Roman-30"/>
      </g>
     </g>
    </g>
    <g id="ytick_2">
     <g id="line2d_23">
      <g>
       <use style="stroke:#000000;stroke-width:0.5;" x="44.8875" xlink:href="#m0fc8f7f576" y="105.3"/>
      </g>
     </g>
     <g id="line2d_24">
      <g>
       <use style="stroke:#000000;stroke-width:0.5;" x="153.15" xlink:href="#mc6e5164fb7" y="105.3"/>
      </g>
     </g>
     <g id="text_10">
      <!-- 0.2 -->
      <defs>
       <path d="M 19.1875 8.296875 
L 53.609375 8.296875 
L 53.609375 0 
L 7.328125 0 
L 7.328125 8.296875 
Q 12.9375 14.109375 22.625 23.890625 
Q 32.328125 33.6875 34.8125 36.53125 
Q 39.546875 41.84375 41.421875 45.53125 
Q 43.3125 49.21875 43.3125 52.78125 
Q 43.3125 58.59375 39.234375 62.25 
Q 35.15625 65.921875 28.609375 65.921875 
Q 23.96875 65.921875 18.8125 64.3125 
Q 13.671875 62.703125 7.8125 59.421875 
L 7.8125 69.390625 
Q 13.765625 71.78125 18.9375 73 
Q 24.125 74.21875 28.421875 74.21875 
Q 39.75 74.21875 46.484375 68.546875 
Q 53.21875 62.890625 53.21875 53.421875 
Q 53.21875 48.921875 51.53125 44.890625 
Q 49.859375 40.875 45.40625 35.40625 
Q 44.1875 33.984375 37.640625 27.21875 
Q 31.109375 20.453125 19.1875 8.296875 
" id="BitstreamVeraSans-Roman-32"/>
      </defs>
      <g transform="translate(24.984375 108.059375)scale(0.1 -0.1)">
       <use xlink:href="#BitstreamVeraSans-Roman-30"/>
       <use x="63.623046875" xlink:href="#BitstreamVeraSans-Roman-2e"/>
       <use x="95.41015625" xlink:href="#BitstreamVeraSans-Roman-32"/>
      </g>
     </g>
    </g>
    <g id="ytick_3">
     <g id="line2d_25">
      <g>
       <use style="stroke:#000000;stroke-width:0.5;" x="44.8875" xlink:href="#m0fc8f7f576" y="82.8"/>
      </g>
     </g>
     <g id="line2d_26">
      <g>
       <use style="stroke:#000000;stroke-width:0.5;" x="153.15" xlink:href="#mc6e5164fb7" y="82.8"/>
      </g>
     </g>
     <g id="text_11">
      <!-- 0.4 -->
      <defs>
       <path d="M 37.796875 64.3125 
L 12.890625 25.390625 
L 37.796875 25.390625 
z
M 35.203125 72.90625 
L 47.609375 72.90625 
L 47.609375 25.390625 
L 58.015625 25.390625 
L 58.015625 17.1875 
L 47.609375 17.1875 
L 47.609375 0 
L 37.796875 0 
L 37.796875 17.1875 
L 4.890625 17.1875 
L 4.890625 26.703125 
z
" id="BitstreamVeraSans-Roman-34"/>
      </defs>
      <g transform="translate(24.984375 85.559375)scale(0.1 -0.1)">
       <use xlink:href="#BitstreamVeraSans-Roman-30"/>
       <use x="63.623046875" xlink:href="#BitstreamVeraSans-Roman-2e"/>
       <use x="95.41015625" xlink:href="#BitstreamVeraSans-Roman-34"/>
      </g>
     </g>
    </g>
    <g id="ytick_4">
     <g id="line2d_27">
      <g>
       <use style="stroke:#000000;stroke-width:0.5;" x="44.8875" xlink:href="#m0fc8f7f576" y="60.3"/>
      </g>
     </g>
     <g id="line2d_28">
      <g>
       <use style="stroke:#000000;stroke-width:0.5;" x="153.15" xlink:href="#mc6e5164fb7" y="60.3"/>
      </g>
     </g>
     <g id="text_12">
      <!-- 0.6 -->
      <g transform="translate(24.984375 63.059375)scale(0.1 -0.1)">
       <use xlink:href="#BitstreamVeraSans-Roman-30"/>
       <use x="63.623046875" xlink:href="#BitstreamVeraSans-Roman-2e"/>
       <use x="95.41015625" xlink:href="#BitstreamVeraSans-Roman-36"/>
      </g>
     </g>
    </g>
    <g id="ytick_5">
     <g id="line2d_29">
      <g>
       <use style="stroke:#000000;stroke-width:0.5;" x="44.8875" xlink:href="#m0fc8f7f576" y="37.8"/>
      </g>
     </g>
     <g id="line2d_30">
      <g>
       <use style="stroke:#000000;stroke-width:0.5;" x="153.15" xlink:href="#mc6e5164fb7" y="37.8"/>
      </g>
     </g>
     <g id="text_13">
      <!-- 0.8 -->
      <g transform="translate(24.984375 40.559375)scale(0.1 -0.1)">
       <use xlink:href="#BitstreamVeraSans-Roman-30"/>
       <use x="63.623046875" xlink:href="#BitstreamVeraSans-Roman-2e"/>
       <use x="95.41015625" xlink:href="#BitstreamVeraSans-Roman-38"/>
      </g>
     </g>
    </g>
    <g id="ytick_6">
     <g id="line2d_31">
      <g>
       <use style="stroke:#000000;stroke-width:0.5;" x="44.8875" xlink:href="#m0fc8f7f576" y="15.3"/>
      </g>
     </g>
     <g id="line2d_32">
      <g>
       <use style="stroke:#000000;stroke-width:0.5;" x="153.15" xlink:href="#mc6e5164fb7" y="15.3"/>
      </g>
     </g>
     <g id="text_14">
      <!-- 1.0 -->
      <defs>
       <path d="M 12.40625 8.296875 
L 28.515625 8.296875 
L 28.515625 63.921875 
L 10.984375 60.40625 
L 10.984375 69.390625 
L 28.421875 72.90625 
L 38.28125 72.90625 
L 38.28125 8.296875 
L 54.390625 8.296875 
L 54.390625 0 
L 12.40625 0 
z
" id="BitstreamVeraSans-Roman-31"/>
      </defs>
      <g transform="translate(24.984375 18.059375)scale(0.1 -0.1)">
       <use xlink:href="#BitstreamVeraSans-Roman-31"/>
       <use x="63.623046875" xlink:href="#BitstreamVeraSans-Roman-2e"/>
       <use x="95.41015625" xlink:href="#BitstreamVeraSans-Roman-30"/>
      </g>
     </g>
    </g>
    <g id="text_15">
     <!-- Cumulative Distribution -->
     <defs>
      <path d="M 41.109375 46.296875 
Q 39.59375 47.171875 37.8125 47.578125 
Q 36.03125 48 33.890625 48 
Q 26.265625 48 22.1875 43.046875 
Q 18.109375 38.09375 18.109375 28.8125 
L 18.109375 0 
L 9.078125 0 
L 9.078125 54.6875 
L 18.109375 54.6875 
L 18.109375 46.1875 
Q 20.953125 51.171875 25.484375 53.578125 
Q 30.03125 56 36.53125 56 
Q 37.453125 56 38.578125 55.875 
Q 39.703125 55.765625 41.0625 55.515625 
z
" id="BitstreamVeraSans-Roman-72"/>
      <path d="M 9.421875 75.984375 
L 18.40625 75.984375 
L 18.40625 0 
L 9.421875 0 
z
" id="BitstreamVeraSans-Roman-6c"/>
      <path d="M 19.671875 64.796875 
L 19.671875 8.109375 
L 31.59375 8.109375 
Q 46.6875 8.109375 53.6875 14.9375 
Q 60.6875 21.78125 60.6875 36.53125 
Q 60.6875 51.171875 53.6875 57.984375 
Q 46.6875 64.796875 31.59375 64.796875 
z
M 9.8125 72.90625 
L 30.078125 72.90625 
Q 51.265625 72.90625 61.171875 64.09375 
Q 71.09375 55.28125 71.09375 36.53125 
Q 71.09375 17.671875 61.125 8.828125 
Q 51.171875 0 30.078125 0 
L 9.8125 0 
z
" id="BitstreamVeraSans-Roman-44"/>
      <path d="M 9.421875 54.6875 
L 18.40625 54.6875 
L 18.40625 0 
L 9.421875 0 
z
M 9.421875 75.984375 
L 18.40625 75.984375 
L 18.40625 64.59375 
L 9.421875 64.59375 
z
" id="BitstreamVeraSans-Roman-69"/>
      <path d="M 2.984375 54.6875 
L 12.5 54.6875 
L 29.59375 8.796875 
L 46.6875 54.6875 
L 56.203125 54.6875 
L 35.6875 0 
L 23.484375 0 
z
" id="BitstreamVeraSans-Roman-76"/>
      <path d="M 64.40625 67.28125 
L 64.40625 56.890625 
Q 59.421875 61.53125 53.78125 63.8125 
Q 48.140625 66.109375 41.796875 66.109375 
Q 29.296875 66.109375 22.65625 58.46875 
Q 16.015625 50.828125 16.015625 36.375 
Q 16.015625 21.96875 22.65625 14.328125 
Q 29.296875 6.6875 41.796875 6.6875 
Q 48.140625 6.6875 53.78125 8.984375 
Q 59.421875 11.28125 64.40625 15.921875 
L 64.40625 5.609375 
Q 59.234375 2.09375 53.4375 0.328125 
Q 47.65625 -1.421875 41.21875 -1.421875 
Q 24.65625 -1.421875 15.125 8.703125 
Q 5.609375 18.84375 5.609375 36.375 
Q 5.609375 53.953125 15.125 64.078125 
Q 24.65625 74.21875 41.21875 74.21875 
Q 47.75 74.21875 53.53125 72.484375 
Q 59.328125 70.75 64.40625 67.28125 
" id="BitstreamVeraSans-Roman-43"/>
      <path d="M 8.5 21.578125 
L 8.5 54.6875 
L 17.484375 54.6875 
L 17.484375 21.921875 
Q 17.484375 14.15625 20.5 10.265625 
Q 23.53125 6.390625 29.59375 6.390625 
Q 36.859375 6.390625 41.078125 11.03125 
Q 45.3125 15.671875 45.3125 23.6875 
L 45.3125 54.6875 
L 54.296875 54.6875 
L 54.296875 0 
L 45.3125 0 
L 45.3125 8.40625 
Q 42.046875 3.421875 37.71875 1 
Q 33.40625 -1.421875 27.6875 -1.421875 
Q 18.265625 -1.421875 13.375 4.4375 
Q 8.5 10.296875 8.5 21.578125 
" id="BitstreamVeraSans-Roman-75"/>
      <path d="M 34.28125 27.484375 
Q 23.390625 27.484375 19.1875 25 
Q 14.984375 22.515625 14.984375 16.5 
Q 14.984375 11.71875 18.140625 8.90625 
Q 21.296875 6.109375 26.703125 6.109375 
Q 34.1875 6.109375 38.703125 11.40625 
Q 43.21875 16.703125 43.21875 25.484375 
L 43.21875 27.484375 
z
M 52.203125 31.203125 
L 52.203125 0 
L 43.21875 0 
L 43.21875 8.296875 
Q 40.140625 3.328125 35.546875 0.953125 
Q 30.953125 -1.421875 24.3125 -1.421875 
Q 15.921875 -1.421875 10.953125 3.296875 
Q 6 8.015625 6 15.921875 
Q 6 25.140625 12.171875 29.828125 
Q 18.359375 34.515625 30.609375 34.515625 
L 43.21875 34.515625 
L 43.21875 35.40625 
Q 43.21875 41.609375 39.140625 45 
Q 35.0625 48.390625 27.6875 48.390625 
Q 23 48.390625 18.546875 47.265625 
Q 14.109375 46.140625 10.015625 43.890625 
L 10.015625 52.203125 
Q 14.9375 54.109375 19.578125 55.046875 
Q 24.21875 56 28.609375 56 
Q 40.484375 56 46.34375 49.84375 
Q 52.203125 43.703125 52.203125 31.203125 
" id="BitstreamVeraSans-Roman-61"/>
      <path d="M 44.28125 53.078125 
L 44.28125 44.578125 
Q 40.484375 46.53125 36.375 47.5 
Q 32.28125 48.484375 27.875 48.484375 
Q 21.1875 48.484375 17.84375 46.4375 
Q 14.5 44.390625 14.5 40.28125 
Q 14.5 37.15625 16.890625 35.375 
Q 19.28125 33.59375 26.515625 31.984375 
L 29.59375 31.296875 
Q 39.15625 29.25 43.1875 25.515625 
Q 47.21875 21.78125 47.21875 15.09375 
Q 47.21875 7.46875 41.1875 3.015625 
Q 35.15625 -1.421875 24.609375 -1.421875 
Q 20.21875 -1.421875 15.453125 -0.5625 
Q 10.6875 0.296875 5.421875 2 
L 5.421875 11.28125 
Q 10.40625 8.6875 15.234375 7.390625 
Q 20.0625 6.109375 24.8125 6.109375 
Q 31.15625 6.109375 34.5625 8.28125 
Q 37.984375 10.453125 37.984375 14.40625 
Q 37.984375 18.0625 35.515625 20.015625 
Q 33.0625 21.96875 24.703125 23.78125 
L 21.578125 24.515625 
Q 13.234375 26.265625 9.515625 29.90625 
Q 5.8125 33.546875 5.8125 39.890625 
Q 5.8125 47.609375 11.28125 51.796875 
Q 16.75 56 26.8125 56 
Q 31.78125 56 36.171875 55.265625 
Q 40.578125 54.546875 44.28125 53.078125 
" id="BitstreamVeraSans-Roman-73"/>
      <path d="M 48.6875 27.296875 
Q 48.6875 37.203125 44.609375 42.84375 
Q 40.53125 48.484375 33.40625 48.484375 
Q 26.265625 48.484375 22.1875 42.84375 
Q 18.109375 37.203125 18.109375 27.296875 
Q 18.109375 17.390625 22.1875 11.75 
Q 26.265625 6.109375 33.40625 6.109375 
Q 40.53125 6.109375 44.609375 11.75 
Q 48.6875 17.390625 48.6875 27.296875 
M 18.109375 46.390625 
Q 20.953125 51.265625 25.265625 53.625 
Q 29.59375 56 35.59375 56 
Q 45.5625 56 51.78125 48.09375 
Q 58.015625 40.1875 58.015625 27.296875 
Q 58.015625 14.40625 51.78125 6.484375 
Q 45.5625 -1.421875 35.59375 -1.421875 
Q 29.59375 -1.421875 25.265625 0.953125 
Q 20.953125 3.328125 18.109375 8.203125 
L 18.109375 0 
L 9.078125 0 
L 9.078125 75.984375 
L 18.109375 75.984375 
z
" id="BitstreamVeraSans-Roman-62"/>
     </defs>
     <g transform="translate(17.9046875 130.8453125)rotate(-90.0)scale(0.1 -0.1)">
      <use xlink:href="#BitstreamVeraSans-Roman-43"/>
      <use x="69.82421875" xlink:href="#BitstreamVeraSans-Roman-75"/>
      <use x="133.203125" xlink:href="#BitstreamVeraSans-Roman-6d"/>
      <use x="230.615234375" xlink:href="#BitstreamVeraSans-Roman-75"/>
      <use x="293.994140625" xlink:href="#BitstreamVeraSans-Roman-6c"/>
      <use x="321.77734375" xlink:href="#BitstreamVeraSans-Roman-61"/>
      <use x="383.056640625" xlink:href="#BitstreamVeraSans-Roman-74"/>
      <use x="422.265625" xlink:href="#BitstreamVeraSans-Roman-69"/>
      <use x="450.048828125" xlink:href="#BitstreamVeraSans-Roman-76"/>
      <use x="509.228515625" xlink:href="#BitstreamVeraSans-Roman-65"/>
      <use x="570.751953125" xlink:href="#BitstreamVeraSans-Roman-20"/>
      <use x="602.5390625" xlink:href="#BitstreamVeraSans-Roman-44"/>
      <use x="679.541015625" xlink:href="#BitstreamVeraSans-Roman-69"/>
      <use x="707.32421875" xlink:href="#BitstreamVeraSans-Roman-73"/>
      <use x="759.423828125" xlink:href="#BitstreamVeraSans-Roman-74"/>
      <use x="798.6328125" xlink:href="#BitstreamVeraSans-Roman-72"/>
      <use x="839.74609375" xlink:href="#BitstreamVeraSans-Roman-69"/>
      <use x="867.529296875" xlink:href="#BitstreamVeraSans-Roman-62"/>
      <use x="931.005859375" xlink:href="#BitstreamVeraSans-Roman-75"/>
      <use x="994.384765625" xlink:href="#BitstreamVeraSans-Roman-74"/>
      <use x="1033.59375" xlink:href="#BitstreamVeraSans-Roman-69"/>
      <use x="1061.37695312" xlink:href="#BitstreamVeraSans-Roman-6f"/>
      <use x="1122.55859375" xlink:href="#BitstreamVeraSans-Roman-6e"/>
     </g>
    </g>
   </g>
  </g>
  <g id="axes_2">
   <g id="patch_7">
    <path d="M 209.2875 127.8 
L 317.55 127.8 
L 317.55 15.3 
L 209.2875 15.3 
z
" style="fill:#ffffff;"/>
   </g>
   <g id="line2d_33">
    <path clip-path="url(#p8b7c71eabd)" d="M 236.758958 127.8 
L 245.041623 127.53 
L 245.725908 127.4175 
L 246.849979 127.2825 
L 247.484718 127.1925 
L 249.010005 126.945 
L 249.521777 126.675 
L 250.253386 126.4275 
L 250.710522 126.1575 
L 251.457108 126 
L 251.601364 125.9325 
L 252.148852 125.7075 
L 252.208368 125.6625 
L 252.55586 125.505 
L 252.927224 125.2575 
L 253.421923 124.7625 
L 253.706599 124.605 
L 253.886287 124.47 
L 254.367088 124.1775 
L 255.252951 123.2325 
L 255.842617 122.85 
L 256.724376 121.905 
L 256.84479 121.725 
L 257.188895 121.275 
L 257.284785 121.095 
L 257.461168 120.8925 
L 257.635833 120.645 
L 257.732778 120.4875 
L 257.901044 120.2625 
L 258.047684 120.0825 
L 259.214344 118.35 
L 259.48814 117.7875 
L 259.858351 117.225 
L 260.197336 116.4375 
L 260.30926 116.235 
L 260.444419 115.9425 
L 260.60316 115.65 
L 260.734553 115.4025 
L 260.834262 115.2675 
L 260.960432 114.975 
L 261.113283 114.75 
L 261.235136 114.3675 
L 261.342488 114.1875 
L 261.51622 113.895 
L 261.603324 113.6025 
L 261.7228 113.4225 
L 263.421533 108.855 
L 263.534484 108.585 
L 263.649946 108.2025 
L 263.779208 107.82 
L 263.888651 107.55 
L 264.125115 107.01 
L 265.672344 102.0375 
L 265.741867 101.8125 
L 265.851622 101.52 
L 265.932265 101.25 
L 266.071187 100.6875 
L 266.545019 98.82 
L 266.679949 98.55 
L 266.777661 98.1225 
L 266.941087 97.875 
L 267.086327 97.2 
L 267.164413 96.9975 
L 268.224503 92.5875 
L 268.396951 91.89 
L 269.379518 87.9975 
L 269.527929 87.2775 
L 269.666546 86.94 
L 269.797528 86.31 
L 269.905931 86.0175 
L 269.993949 85.8375 
L 270.159708 85.2075 
L 270.299092 84.78 
L 270.431581 84.2175 
L 270.501356 83.925 
L 270.643814 83.16 
L 271.382928 79.65 
L 271.423117 79.425 
L 271.64339 78.255 
L 271.731695 77.9175 
L 273.512825 69.0525 
L 273.676058 68.3325 
L 273.839628 67.59 
L 273.977943 67.005 
L 274.068979 66.735 
L 274.433284 65.16 
L 275.168662 61.7175 
L 275.258995 61.38 
L 275.371768 60.795 
L 275.757344 59.265 
L 275.890427 58.7025 
L 276.084767 58.005 
L 276.325724 57.2175 
L 276.554218 56.115 
L 276.663942 55.755 
L 276.776623 55.26 
L 277.049139 54.1575 
L 277.175356 53.6625 
L 277.344339 52.965 
L 277.573446 51.93 
L 277.754927 51.1425 
L 277.869231 50.5125 
L 277.97121 49.9275 
L 278.236906 49.2525 
L 278.303129 49.0275 
L 278.55244 48.105 
L 278.626363 47.88 
L 278.713618 47.4075 
L 278.827121 46.89 
L 278.919506 46.44 
L 279.031604 45.9 
L 279.300618 44.775 
L 279.341359 44.595 
L 279.593135 43.74 
L 280.164713 41.8725 
L 280.270017 41.535 
L 280.385398 41.1075 
L 280.449346 40.9275 
L 280.5962 40.455 
L 280.815592 39.555 
L 280.951932 39.3075 
L 281.10551 38.9025 
L 281.335361 37.935 
L 281.393581 37.7775 
L 281.667119 36.945 
L 281.744859 36.54 
L 281.892514 36.045 
L 282.282232 34.74 
L 282.430833 34.3125 
L 282.510978 34.0875 
L 282.638236 33.8175 
L 282.735402 33.5025 
L 282.841097 33.1875 
L 282.977786 32.6925 
L 283.192333 32.1975 
L 283.826832 30.555 
L 283.934395 30.2175 
L 284.10193 29.9925 
L 284.316198 29.475 
L 284.399649 29.3175 
L 284.511407 28.9575 
L 285.064427 27.99 
L 285.234074 27.5625 
L 285.390921 27.2925 
L 285.584489 26.7975 
L 286.329269 25.56 
L 286.451305 25.3125 
L 286.611732 24.9075 
L 287.106431 24.0525 
L 287.206588 23.8725 
L 287.387879 23.6025 
L 289.195723 21.15 
L 289.32561 20.925 
L 289.500797 20.6775 
L 292.045219 18.1125 
L 292.330856 17.9775 
L 293.273169 17.3925 
L 293.384655 17.3025 
L 293.786732 16.9875 
L 293.849506 16.9425 
L 294.517774 16.695 
L 295.18911 16.47 
L 295.889384 16.29 
L 296.033878 16.245 
L 296.871897 16.0875 
L 296.895432 16.065 
L 297.966755 15.885 
L 298.001303 15.8625 
L 299.241817 15.6825 
L 299.745619 15.615 
L 299.882433 15.5925 
L 303.739539 15.39 
L 304.058443 15.345 
L 307.814054 15.3225 
L 307.814054 15.3225 
" style="fill:none;stroke:#ff0000;stroke-linecap:square;"/>
   </g>
   <g id="line2d_34">
    <path clip-path="url(#p8b7c71eabd)" d="M 253.269459 127.8 
L 253.269459 15.3 
" style="fill:none;stroke:#ff0000;stroke-linecap:square;"/>
   </g>
   <g id="line2d_35">
    <path clip-path="url(#p8b7c71eabd)" d="M 292.045219 127.8 
L 292.045219 15.3 
" style="fill:none;stroke:#ff0000;stroke-linecap:square;"/>
   </g>
   <g id="line2d_36">
    <path clip-path="url(#p8b7c71eabd)" d="M 220.930658 127.8 
L 228.121122 127.7775 
L 231.977376 127.665 
L 234.414967 127.485 
L 234.565441 127.44 
L 236.316672 127.26 
L 237.005692 127.08 
L 237.171082 127.0125 
L 237.973065 126.8325 
L 238.780367 126.495 
L 238.869443 126.45 
L 241.925342 125.37 
L 242.083001 125.2125 
L 243.655352 124.0425 
L 243.813249 123.975 
L 245.996238 121.7475 
L 246.118935 121.5675 
L 246.319858 121.3875 
L 246.465062 121.14 
L 246.774696 120.8925 
L 246.838499 120.7575 
L 247.125629 120.3525 
L 247.299895 120.2175 
L 247.413106 119.97 
L 247.611803 119.61 
L 247.719778 119.4525 
L 249.243593 116.8425 
L 249.414144 116.55 
L 249.694198 116.0775 
L 250.629468 113.9625 
L 250.828245 113.5575 
L 250.93199 113.2425 
L 251.070166 112.9275 
L 251.175935 112.6125 
L 251.834556 111.195 
L 252.152953 110.6775 
L 252.46977 109.845 
L 252.568617 109.5975 
L 252.92864 108.2925 
L 253.067525 107.91 
L 253.206254 107.7075 
L 253.432777 106.7625 
L 253.536629 106.4475 
L 253.777249 105.93 
L 253.898518 105.6375 
L 254.024235 105.3 
L 254.166534 104.8725 
L 254.317787 104.535 
L 254.440686 104.1975 
L 254.797663 102.6225 
L 254.889809 102.3525 
L 255.013863 101.9925 
L 255.306677 101.1825 
L 255.414503 100.8225 
L 255.516903 100.5075 
L 255.7286 99.7425 
L 255.808218 99.495 
L 255.995534 98.9325 
L 256.074406 98.7075 
L 256.189541 98.3475 
L 256.326212 98.01 
L 256.4421 97.4925 
L 256.578022 96.885 
L 256.660669 96.525 
L 256.84407 95.76 
L 257.024561 95.04 
L 257.077037 94.86 
L 257.240341 94.365 
L 257.341182 94.005 
L 257.461522 93.5325 
L 258.166402 90.6525 
L 258.766783 88.1775 
L 259.153291 86.49 
L 259.333477 85.86 
L 259.866462 83.7 
L 259.965116 83.295 
L 260.386718 81.6075 
L 265.293683 61.4025 
L 265.403404 60.7725 
L 265.685366 59.4675 
L 265.988096 58.4325 
L 267.980038 50.6925 
L 268.054461 50.4225 
L 268.20234 49.8825 
L 268.328274 49.41 
L 268.73622 47.79 
L 268.967748 47.0025 
L 269.062284 46.845 
L 269.684392 44.7525 
L 269.876127 43.5825 
L 269.987532 43.245 
L 270.439622 41.895 
L 270.496082 41.6925 
L 270.630086 41.085 
L 273.710077 31.86 
L 273.839074 31.5675 
L 273.987556 30.9825 
L 274.120495 30.8025 
L 274.409308 29.9925 
L 274.677547 29.2275 
L 274.824198 29.0475 
L 275.04122 28.575 
L 275.144601 28.4175 
L 275.267184 28.125 
L 275.352834 27.9 
L 275.493058 27.6075 
L 276.322685 25.9875 
L 276.659847 25.6275 
L 276.867841 24.9975 
L 276.977873 24.75 
L 277.368372 24.21 
L 277.52378 23.8725 
L 277.802409 23.49 
L 277.945028 23.265 
L 278.223166 22.9275 
L 278.325749 22.725 
L 278.592915 22.545 
L 278.898239 22.14 
L 279.456265 21.42 
L 279.947689 21.105 
L 280.874092 20.2725 
L 281.033303 20.0925 
L 281.292769 19.89 
L 281.381092 19.7775 
L 281.76931 19.575 
L 281.967099 19.3725 
L 282.284566 19.1025 
L 282.726717 18.8775 
L 283.343253 18.36 
L 283.690398 18.18 
L 285.752772 17.055 
L 286.278504 16.8975 
L 286.986865 16.605 
L 288.67438 16.2225 
L 289.402471 16.065 
L 291.07606 15.795 
L 291.137328 15.7725 
L 292.07123 15.6375 
L 294.271111 15.5475 
L 304.281047 15.3225 
L 304.281047 15.3225 
" style="fill:none;stroke:#0000ff;stroke-linecap:square;"/>
   </g>
   <g id="line2d_37">
    <path clip-path="url(#p8b7c71eabd)" d="M 242.374932 127.8 
L 242.374932 15.3 
" style="fill:none;stroke:#0000ff;stroke-dasharray:6.000000,6.000000;stroke-dashoffset:0.0;"/>
   </g>
   <g id="line2d_38">
    <path clip-path="url(#p8b7c71eabd)" d="M 283.832116 127.8 
L 283.832116 15.3 
" style="fill:none;stroke:#0000ff;stroke-dasharray:6.000000,6.000000;stroke-dashoffset:0.0;"/>
   </g>
   <g id="patch_8">
    <path d="M 209.2875 15.3 
L 317.55 15.3 
" style="fill:none;stroke:#000000;stroke-linecap:square;stroke-linejoin:miter;"/>
   </g>
   <g id="patch_9">
    <path d="M 317.55 127.8 
L 317.55 15.3 
" style="fill:none;stroke:#000000;stroke-linecap:square;stroke-linejoin:miter;"/>
   </g>
   <g id="patch_10">
    <path d="M 209.2875 127.8 
L 317.55 127.8 
" style="fill:none;stroke:#000000;stroke-linecap:square;stroke-linejoin:miter;"/>
   </g>
   <g id="patch_11">
    <path d="M 209.2875 127.8 
L 209.2875 15.3 
" style="fill:none;stroke:#000000;stroke-linecap:square;stroke-linejoin:miter;"/>
   </g>
   <g id="matplotlib.axis_3">
    <g id="xtick_8">
     <g id="line2d_39">
      <g>
       <use style="stroke:#000000;stroke-width:0.5;" x="209.2875" xlink:href="#m8f643698a9" y="127.8"/>
      </g>
     </g>
     <g id="line2d_40">
      <g>
       <use style="stroke:#000000;stroke-width:0.5;" x="209.2875" xlink:href="#m1d6c1d74c0" y="15.3"/>
      </g>
     </g>
     <g id="text_16">
      <!-- 0.15 -->
      <g transform="translate(198.1546875 139.3984375)scale(0.1 -0.1)">
       <use xlink:href="#BitstreamVeraSans-Roman-30"/>
       <use x="63.623046875" xlink:href="#BitstreamVeraSans-Roman-2e"/>
       <use x="95.41015625" xlink:href="#BitstreamVeraSans-Roman-31"/>
       <use x="159.033203125" xlink:href="#BitstreamVeraSans-Roman-35"/>
      </g>
     </g>
    </g>
    <g id="xtick_9">
     <g id="line2d_41">
      <g>
       <use style="stroke:#000000;stroke-width:0.5;" x="224.753571429" xlink:href="#m8f643698a9" y="127.8"/>
      </g>
     </g>
     <g id="line2d_42">
      <g>
       <use style="stroke:#000000;stroke-width:0.5;" x="224.753571429" xlink:href="#m1d6c1d74c0" y="15.3"/>
      </g>
     </g>
     <g id="text_17">
      <!-- 0.20 -->
      <g transform="translate(213.620758929 139.3984375)scale(0.1 -0.1)">
       <use xlink:href="#BitstreamVeraSans-Roman-30"/>
       <use x="63.623046875" xlink:href="#BitstreamVeraSans-Roman-2e"/>
       <use x="95.41015625" xlink:href="#BitstreamVeraSans-Roman-32"/>
       <use x="159.033203125" xlink:href="#BitstreamVeraSans-Roman-30"/>
      </g>
     </g>
    </g>
    <g id="xtick_10">
     <g id="line2d_43">
      <g>
       <use style="stroke:#000000;stroke-width:0.5;" x="240.219642857" xlink:href="#m8f643698a9" y="127.8"/>
      </g>
     </g>
     <g id="line2d_44">
      <g>
       <use style="stroke:#000000;stroke-width:0.5;" x="240.219642857" xlink:href="#m1d6c1d74c0" y="15.3"/>
      </g>
     </g>
     <g id="text_18">
      <!-- 0.25 -->
      <g transform="translate(229.086830357 139.3984375)scale(0.1 -0.1)">
       <use xlink:href="#BitstreamVeraSans-Roman-30"/>
       <use x="63.623046875" xlink:href="#BitstreamVeraSans-Roman-2e"/>
       <use x="95.41015625" xlink:href="#BitstreamVeraSans-Roman-32"/>
       <use x="159.033203125" xlink:href="#BitstreamVeraSans-Roman-35"/>
      </g>
     </g>
    </g>
    <g id="xtick_11">
     <g id="line2d_45">
      <g>
       <use style="stroke:#000000;stroke-width:0.5;" x="255.685714286" xlink:href="#m8f643698a9" y="127.8"/>
      </g>
     </g>
     <g id="line2d_46">
      <g>
       <use style="stroke:#000000;stroke-width:0.5;" x="255.685714286" xlink:href="#m1d6c1d74c0" y="15.3"/>
      </g>
     </g>
     <g id="text_19">
      <!-- 0.30 -->
      <defs>
       <path d="M 40.578125 39.3125 
Q 47.65625 37.796875 51.625 33 
Q 55.609375 28.21875 55.609375 21.1875 
Q 55.609375 10.40625 48.1875 4.484375 
Q 40.765625 -1.421875 27.09375 -1.421875 
Q 22.515625 -1.421875 17.65625 -0.515625 
Q 12.796875 0.390625 7.625 2.203125 
L 7.625 11.71875 
Q 11.71875 9.328125 16.59375 8.109375 
Q 21.484375 6.890625 26.8125 6.890625 
Q 36.078125 6.890625 40.9375 10.546875 
Q 45.796875 14.203125 45.796875 21.1875 
Q 45.796875 27.640625 41.28125 31.265625 
Q 36.765625 34.90625 28.71875 34.90625 
L 20.21875 34.90625 
L 20.21875 43.015625 
L 29.109375 43.015625 
Q 36.375 43.015625 40.234375 45.921875 
Q 44.09375 48.828125 44.09375 54.296875 
Q 44.09375 59.90625 40.109375 62.90625 
Q 36.140625 65.921875 28.71875 65.921875 
Q 24.65625 65.921875 20.015625 65.03125 
Q 15.375 64.15625 9.8125 62.3125 
L 9.8125 71.09375 
Q 15.4375 72.65625 20.34375 73.4375 
Q 25.25 74.21875 29.59375 74.21875 
Q 40.828125 74.21875 47.359375 69.109375 
Q 53.90625 64.015625 53.90625 55.328125 
Q 53.90625 49.265625 50.4375 45.09375 
Q 46.96875 40.921875 40.578125 39.3125 
" id="BitstreamVeraSans-Roman-33"/>
      </defs>
      <g transform="translate(244.552901786 139.3984375)scale(0.1 -0.1)">
       <use xlink:href="#BitstreamVeraSans-Roman-30"/>
       <use x="63.623046875" xlink:href="#BitstreamVeraSans-Roman-2e"/>
       <use x="95.41015625" xlink:href="#BitstreamVeraSans-Roman-33"/>
       <use x="159.033203125" xlink:href="#BitstreamVeraSans-Roman-30"/>
      </g>
     </g>
    </g>
    <g id="xtick_12">
     <g id="line2d_47">
      <g>
       <use style="stroke:#000000;stroke-width:0.5;" x="271.151785714" xlink:href="#m8f643698a9" y="127.8"/>
      </g>
     </g>
     <g id="line2d_48">
      <g>
       <use style="stroke:#000000;stroke-width:0.5;" x="271.151785714" xlink:href="#m1d6c1d74c0" y="15.3"/>
      </g>
     </g>
     <g id="text_20">
      <!-- 0.35 -->
      <g transform="translate(260.018973214 139.3984375)scale(0.1 -0.1)">
       <use xlink:href="#BitstreamVeraSans-Roman-30"/>
       <use x="63.623046875" xlink:href="#BitstreamVeraSans-Roman-2e"/>
       <use x="95.41015625" xlink:href="#BitstreamVeraSans-Roman-33"/>
       <use x="159.033203125" xlink:href="#BitstreamVeraSans-Roman-35"/>
      </g>
     </g>
    </g>
    <g id="xtick_13">
     <g id="line2d_49">
      <g>
       <use style="stroke:#000000;stroke-width:0.5;" x="286.617857143" xlink:href="#m8f643698a9" y="127.8"/>
      </g>
     </g>
     <g id="line2d_50">
      <g>
       <use style="stroke:#000000;stroke-width:0.5;" x="286.617857143" xlink:href="#m1d6c1d74c0" y="15.3"/>
      </g>
     </g>
     <g id="text_21">
      <!-- 0.40 -->
      <g transform="translate(275.485044643 139.3984375)scale(0.1 -0.1)">
       <use xlink:href="#BitstreamVeraSans-Roman-30"/>
       <use x="63.623046875" xlink:href="#BitstreamVeraSans-Roman-2e"/>
       <use x="95.41015625" xlink:href="#BitstreamVeraSans-Roman-34"/>
       <use x="159.033203125" xlink:href="#BitstreamVeraSans-Roman-30"/>
      </g>
     </g>
    </g>
    <g id="xtick_14">
     <g id="line2d_51">
      <g>
       <use style="stroke:#000000;stroke-width:0.5;" x="302.083928571" xlink:href="#m8f643698a9" y="127.8"/>
      </g>
     </g>
     <g id="line2d_52">
      <g>
       <use style="stroke:#000000;stroke-width:0.5;" x="302.083928571" xlink:href="#m1d6c1d74c0" y="15.3"/>
      </g>
     </g>
     <g id="text_22">
      <!-- 0.45 -->
      <g transform="translate(290.951116071 139.3984375)scale(0.1 -0.1)">
       <use xlink:href="#BitstreamVeraSans-Roman-30"/>
       <use x="63.623046875" xlink:href="#BitstreamVeraSans-Roman-2e"/>
       <use x="95.41015625" xlink:href="#BitstreamVeraSans-Roman-34"/>
       <use x="159.033203125" xlink:href="#BitstreamVeraSans-Roman-35"/>
      </g>
     </g>
    </g>
    <g id="xtick_15">
     <g id="line2d_53">
      <g>
       <use style="stroke:#000000;stroke-width:0.5;" x="317.55" xlink:href="#m8f643698a9" y="127.8"/>
      </g>
     </g>
     <g id="line2d_54">
      <g>
       <use style="stroke:#000000;stroke-width:0.5;" x="317.55" xlink:href="#m1d6c1d74c0" y="15.3"/>
      </g>
     </g>
     <g id="text_23">
      <!-- 0.50 -->
      <g transform="translate(306.4171875 139.3984375)scale(0.1 -0.1)">
       <use xlink:href="#BitstreamVeraSans-Roman-30"/>
       <use x="63.623046875" xlink:href="#BitstreamVeraSans-Roman-2e"/>
       <use x="95.41015625" xlink:href="#BitstreamVeraSans-Roman-35"/>
       <use x="159.033203125" xlink:href="#BitstreamVeraSans-Roman-30"/>
      </g>
     </g>
    </g>
    <g id="text_24">
     <!-- Y component -->
     <defs>
      <path d="M -0.203125 72.90625 
L 10.40625 72.90625 
L 30.609375 42.921875 
L 50.6875 72.90625 
L 61.28125 72.90625 
L 35.5 34.71875 
L 35.5 0 
L 25.59375 0 
L 25.59375 34.71875 
z
" id="BitstreamVeraSans-Roman-59"/>
     </defs>
     <g transform="translate(230.4890625 154.0765625)scale(0.1 -0.1)">
      <use xlink:href="#BitstreamVeraSans-Roman-59"/>
      <use x="61.083984375" xlink:href="#BitstreamVeraSans-Roman-20"/>
      <use x="92.87109375" xlink:href="#BitstreamVeraSans-Roman-63"/>
      <use x="147.8515625" xlink:href="#BitstreamVeraSans-Roman-6f"/>
      <use x="209.033203125" xlink:href="#BitstreamVeraSans-Roman-6d"/>
      <use x="306.4453125" xlink:href="#BitstreamVeraSans-Roman-70"/>
      <use x="369.921875" xlink:href="#BitstreamVeraSans-Roman-6f"/>
      <use x="431.103515625" xlink:href="#BitstreamVeraSans-Roman-6e"/>
      <use x="494.482421875" xlink:href="#BitstreamVeraSans-Roman-65"/>
      <use x="556.005859375" xlink:href="#BitstreamVeraSans-Roman-6e"/>
      <use x="619.384765625" xlink:href="#BitstreamVeraSans-Roman-74"/>
     </g>
    </g>
   </g>
   <g id="matplotlib.axis_4">
    <g id="ytick_7">
     <g id="line2d_55">
      <g>
       <use style="stroke:#000000;stroke-width:0.5;" x="209.2875" xlink:href="#m0fc8f7f576" y="127.8"/>
      </g>
     </g>
     <g id="line2d_56">
      <g>
       <use style="stroke:#000000;stroke-width:0.5;" x="317.55" xlink:href="#mc6e5164fb7" y="127.8"/>
      </g>
     </g>
     <g id="text_25">
      <!-- 0.0 -->
      <g transform="translate(189.384375 130.559375)scale(0.1 -0.1)">
       <use xlink:href="#BitstreamVeraSans-Roman-30"/>
       <use x="63.623046875" xlink:href="#BitstreamVeraSans-Roman-2e"/>
       <use x="95.41015625" xlink:href="#BitstreamVeraSans-Roman-30"/>
      </g>
     </g>
    </g>
    <g id="ytick_8">
     <g id="line2d_57">
      <g>
       <use style="stroke:#000000;stroke-width:0.5;" x="209.2875" xlink:href="#m0fc8f7f576" y="105.3"/>
      </g>
     </g>
     <g id="line2d_58">
      <g>
       <use style="stroke:#000000;stroke-width:0.5;" x="317.55" xlink:href="#mc6e5164fb7" y="105.3"/>
      </g>
     </g>
     <g id="text_26">
      <!-- 0.2 -->
      <g transform="translate(189.384375 108.059375)scale(0.1 -0.1)">
       <use xlink:href="#BitstreamVeraSans-Roman-30"/>
       <use x="63.623046875" xlink:href="#BitstreamVeraSans-Roman-2e"/>
       <use x="95.41015625" xlink:href="#BitstreamVeraSans-Roman-32"/>
      </g>
     </g>
    </g>
    <g id="ytick_9">
     <g id="line2d_59">
      <g>
       <use style="stroke:#000000;stroke-width:0.5;" x="209.2875" xlink:href="#m0fc8f7f576" y="82.8"/>
      </g>
     </g>
     <g id="line2d_60">
      <g>
       <use style="stroke:#000000;stroke-width:0.5;" x="317.55" xlink:href="#mc6e5164fb7" y="82.8"/>
      </g>
     </g>
     <g id="text_27">
      <!-- 0.4 -->
      <g transform="translate(189.384375 85.559375)scale(0.1 -0.1)">
       <use xlink:href="#BitstreamVeraSans-Roman-30"/>
       <use x="63.623046875" xlink:href="#BitstreamVeraSans-Roman-2e"/>
       <use x="95.41015625" xlink:href="#BitstreamVeraSans-Roman-34"/>
      </g>
     </g>
    </g>
    <g id="ytick_10">
     <g id="line2d_61">
      <g>
       <use style="stroke:#000000;stroke-width:0.5;" x="209.2875" xlink:href="#m0fc8f7f576" y="60.3"/>
      </g>
     </g>
     <g id="line2d_62">
      <g>
       <use style="stroke:#000000;stroke-width:0.5;" x="317.55" xlink:href="#mc6e5164fb7" y="60.3"/>
      </g>
     </g>
     <g id="text_28">
      <!-- 0.6 -->
      <g transform="translate(189.384375 63.059375)scale(0.1 -0.1)">
       <use xlink:href="#BitstreamVeraSans-Roman-30"/>
       <use x="63.623046875" xlink:href="#BitstreamVeraSans-Roman-2e"/>
       <use x="95.41015625" xlink:href="#BitstreamVeraSans-Roman-36"/>
      </g>
     </g>
    </g>
    <g id="ytick_11">
     <g id="line2d_63">
      <g>
       <use style="stroke:#000000;stroke-width:0.5;" x="209.2875" xlink:href="#m0fc8f7f576" y="37.8"/>
      </g>
     </g>
     <g id="line2d_64">
      <g>
       <use style="stroke:#000000;stroke-width:0.5;" x="317.55" xlink:href="#mc6e5164fb7" y="37.8"/>
      </g>
     </g>
     <g id="text_29">
      <!-- 0.8 -->
      <g transform="translate(189.384375 40.559375)scale(0.1 -0.1)">
       <use xlink:href="#BitstreamVeraSans-Roman-30"/>
       <use x="63.623046875" xlink:href="#BitstreamVeraSans-Roman-2e"/>
       <use x="95.41015625" xlink:href="#BitstreamVeraSans-Roman-38"/>
      </g>
     </g>
    </g>
    <g id="ytick_12">
     <g id="line2d_65">
      <g>
       <use style="stroke:#000000;stroke-width:0.5;" x="209.2875" xlink:href="#m0fc8f7f576" y="15.3"/>
      </g>
     </g>
     <g id="line2d_66">
      <g>
       <use style="stroke:#000000;stroke-width:0.5;" x="317.55" xlink:href="#mc6e5164fb7" y="15.3"/>
      </g>
     </g>
     <g id="text_30">
      <!-- 1.0 -->
      <g transform="translate(189.384375 18.059375)scale(0.1 -0.1)">
       <use xlink:href="#BitstreamVeraSans-Roman-31"/>
       <use x="63.623046875" xlink:href="#BitstreamVeraSans-Roman-2e"/>
       <use x="95.41015625" xlink:href="#BitstreamVeraSans-Roman-30"/>
      </g>
     </g>
    </g>
    <g id="text_31">
     <!-- Cumulative Distribution -->
     <g transform="translate(182.3046875 130.8453125)rotate(-90.0)scale(0.1 -0.1)">
      <use xlink:href="#BitstreamVeraSans-Roman-43"/>
      <use x="69.82421875" xlink:href="#BitstreamVeraSans-Roman-75"/>
      <use x="133.203125" xlink:href="#BitstreamVeraSans-Roman-6d"/>
      <use x="230.615234375" xlink:href="#BitstreamVeraSans-Roman-75"/>
      <use x="293.994140625" xlink:href="#BitstreamVeraSans-Roman-6c"/>
      <use x="321.77734375" xlink:href="#BitstreamVeraSans-Roman-61"/>
      <use x="383.056640625" xlink:href="#BitstreamVeraSans-Roman-74"/>
      <use x="422.265625" xlink:href="#BitstreamVeraSans-Roman-69"/>
      <use x="450.048828125" xlink:href="#BitstreamVeraSans-Roman-76"/>
      <use x="509.228515625" xlink:href="#BitstreamVeraSans-Roman-65"/>
      <use x="570.751953125" xlink:href="#BitstreamVeraSans-Roman-20"/>
      <use x="602.5390625" xlink:href="#BitstreamVeraSans-Roman-44"/>
      <use x="679.541015625" xlink:href="#BitstreamVeraSans-Roman-69"/>
      <use x="707.32421875" xlink:href="#BitstreamVeraSans-Roman-73"/>
      <use x="759.423828125" xlink:href="#BitstreamVeraSans-Roman-74"/>
      <use x="798.6328125" xlink:href="#BitstreamVeraSans-Roman-72"/>
      <use x="839.74609375" xlink:href="#BitstreamVeraSans-Roman-69"/>
      <use x="867.529296875" xlink:href="#BitstreamVeraSans-Roman-62"/>
      <use x="931.005859375" xlink:href="#BitstreamVeraSans-Roman-75"/>
      <use x="994.384765625" xlink:href="#BitstreamVeraSans-Roman-74"/>
      <use x="1033.59375" xlink:href="#BitstreamVeraSans-Roman-69"/>
      <use x="1061.37695312" xlink:href="#BitstreamVeraSans-Roman-6f"/>
      <use x="1122.55859375" xlink:href="#BitstreamVeraSans-Roman-6e"/>
     </g>
    </g>
   </g>
  </g>
  <g id="axes_3">
   <g id="patch_12">
    <path d="M 373.6875 127.8 
L 481.95 127.8 
L 481.95 15.3 
L 373.6875 15.3 
z
" style="fill:#ffffff;"/>
   </g>
   <g id="line2d_67">
    <path clip-path="url(#p4ab544d480)" d="M 389.918957 127.8 
L 390.41233 127.7775 
L 399.362742 127.62 
L 399.430111 127.5975 
L 403.227139 127.3725 
L 403.299817 127.3275 
L 404.889163 126.99 
L 405.359962 126.8325 
L 406.303514 126.4725 
L 407.690774 126.2475 
L 407.698332 126.2025 
L 408.019963 126.0675 
L 408.972554 125.685 
L 409.531301 125.5275 
L 409.910394 125.1675 
L 410.556184 124.8525 
L 410.821038 124.56 
L 410.996489 124.335 
L 411.67147 123.795 
L 411.832868 123.57 
L 412.375234 123.03 
L 412.582905 122.805 
L 412.71782 122.67 
L 412.826748 122.5125 
L 412.883774 122.4225 
L 413.295404 122.2425 
L 413.696541 121.77 
L 414.061348 121.3875 
L 414.202571 121.23 
L 414.516197 120.735 
L 414.616499 120.51 
L 415.152903 119.2725 
L 415.236845 119.16 
L 415.337605 119.0025 
L 415.426302 118.845 
L 415.634857 118.665 
L 415.764964 118.485 
L 416.064792 117.945 
L 416.219504 117.6525 
L 416.324269 117.45 
L 416.501436 117.225 
L 416.609134 116.9325 
L 416.771279 116.7525 
L 416.85791 116.46 
L 416.959719 116.325 
L 417.383995 115.65 
L 418.205495 113.94 
L 418.52541 113.1075 
L 418.599103 112.815 
L 418.808027 112.2525 
L 419.187456 111.33 
L 419.344419 110.8575 
L 419.460116 110.61 
L 419.604465 110.34 
L 419.886158 109.5525 
L 420.011473 109.0575 
L 422.459669 102.2175 
L 422.569163 101.7225 
L 422.878452 100.71 
L 423.056325 99.945 
L 423.123902 99.7425 
L 425.292577 92.16 
L 425.411037 91.62 
L 425.758059 89.775 
L 426.143566 88.02 
L 426.317086 87.525 
L 427.009502 84.465 
L 427.120813 83.8575 
L 427.278635 83.1825 
L 427.329184 83.025 
L 427.552277 82.08 
L 427.73689 81.2475 
L 428.090968 79.65 
L 428.183876 79.4025 
L 428.351766 78.5925 
L 428.750911 76.7925 
L 429.019512 75.51 
L 429.084975 75.3075 
L 429.281899 74.3175 
L 430.061025 70.65 
L 430.229225 69.885 
L 430.360467 69.2775 
L 430.452757 69.0075 
L 431.005293 66.5775 
L 431.333611 65.25 
L 432.425814 60.345 
L 432.568325 59.715 
L 432.678631 59.22 
L 432.737958 58.995 
L 432.843111 58.6125 
L 432.90775 58.3425 
L 434.817894 50.4 
L 434.89464 50.175 
L 435.036663 49.365 
L 435.175543 48.7575 
L 435.717404 46.5975 
L 435.779859 46.395 
L 436.136983 44.64 
L 436.672465 42.48 
L 436.777485 41.9625 
L 436.88082 41.625 
L 437.378387 39.78 
L 437.517453 39.2625 
L 437.633963 38.835 
L 437.780079 38.43 
L 438.166964 37.26 
L 438.247605 36.9 
L 438.396611 36.54 
L 438.496665 36.2025 
L 438.603544 35.7525 
L 438.758662 35.3475 
L 438.893263 34.8975 
L 439.160923 34.0875 
L 440.297384 30.6675 
L 440.413291 30.4875 
L 441.099416 28.665 
L 441.196668 28.395 
L 441.31905 28.1925 
L 441.450276 27.81 
L 443.026231 24.5925 
L 443.161757 24.255 
L 443.383987 23.76 
L 443.454858 23.6025 
L 443.593176 23.4 
L 443.922383 22.77 
L 444.197869 22.23 
L 444.21062 22.1625 
L 444.390278 22.0275 
L 444.901578 21.0825 
L 445.179553 20.8575 
L 445.388469 20.6325 
L 445.891955 20.0025 
L 446.017217 19.89 
L 446.219202 19.6875 
L 446.419089 19.44 
L 447.345139 18.765 
L 447.468712 18.63 
L 447.920354 18.2025 
L 448.047423 18.045 
L 448.547349 17.73 
L 448.702843 17.595 
L 449.547587 17.0775 
L 449.669016 16.9875 
L 450.367444 16.785 
L 450.421393 16.7175 
L 451.225759 16.56 
L 451.247078 16.5375 
L 452.387807 16.3125 
L 452.490823 16.245 
L 453.619899 15.9525 
L 453.702161 15.9075 
L 455.157364 15.7275 
L 455.359418 15.6825 
L 462.47825 15.3225 
L 462.47825 15.3225 
" style="fill:none;stroke:#ff0000;stroke-linecap:square;"/>
   </g>
   <g id="line2d_68">
    <path clip-path="url(#p4ab544d480)" d="M 410.289613 127.8 
L 410.289613 15.3 
" style="fill:none;stroke:#ff0000;stroke-linecap:square;"/>
   </g>
   <g id="line2d_69">
    <path clip-path="url(#p4ab544d480)" d="M 447.995129 127.8 
L 447.995129 15.3 
" style="fill:none;stroke:#ff0000;stroke-linecap:square;"/>
   </g>
   <g id="line2d_70">
    <path clip-path="url(#p4ab544d480)" d="M 402.606317 127.8 
L 403.55624 127.755 
L 412.443742 127.3275 
L 413.631775 127.08 
L 413.65535 127.0575 
L 415.193046 126.7875 
L 415.611692 126.6075 
L 416.094088 126.4275 
L 416.449999 126.225 
L 417.134575 126.09 
L 417.355438 125.9775 
L 418.068324 125.82 
L 418.167908 125.7075 
L 418.603589 125.55 
L 418.901041 125.4825 
L 419.630247 125.1675 
L 421.437042 123.885 
L 421.491136 123.795 
L 421.678395 123.615 
L 422.048328 123.345 
L 422.289943 123.075 
L 422.709297 122.7825 
L 422.83325 122.6475 
L 423.089994 122.445 
L 423.200449 122.355 
L 424.509088 120.96 
L 424.833709 120.51 
L 425.108597 120.24 
L 425.276669 120.06 
L 425.472641 119.9025 
L 426.124501 119.115 
L 426.266782 118.845 
L 426.418246 118.665 
L 426.902638 118.0125 
L 427.025952 117.855 
L 427.371229 117.225 
L 427.632141 116.8875 
L 427.83468 116.505 
L 427.973485 116.2125 
L 429.712339 112.545 
L 429.837625 112.32 
L 430.876909 109.7325 
L 430.980674 109.4625 
L 431.081459 109.1925 
L 431.36438 108.405 
L 431.479054 108.2025 
L 434.053708 100.4175 
L 434.174798 100.08 
L 434.247729 99.9 
L 434.448986 99.135 
L 434.850521 97.8525 
L 434.965362 97.3575 
L 435.126641 96.9075 
L 435.340764 95.895 
L 439.149976 81.63 
L 439.345388 80.91 
L 439.867196 78.84 
L 439.939169 78.6375 
L 440.220874 77.715 
L 440.295271 77.445 
L 440.606366 76.05 
L 440.756447 75.465 
L 441.059402 74.205 
L 441.125871 73.98 
L 441.203185 73.53 
L 441.490362 72.4725 
L 441.660619 71.8875 
L 441.812829 71.19 
L 441.883686 70.9425 
L 442.269914 69.2775 
L 442.456714 68.6925 
L 442.87368 66.96 
L 442.965047 66.6675 
L 443.246924 65.5425 
L 443.333653 65.205 
L 443.483819 64.575 
L 444.325775 61.92 
L 444.461137 61.425 
L 444.501101 61.2675 
L 444.605395 60.6375 
L 444.685885 60.345 
L 444.829077 59.67 
L 445.029342 58.725 
L 445.447637 57.015 
L 445.574014 56.565 
L 445.700597 56.0475 
L 446.156412 54.405 
L 447.245047 50.4 
L 447.742568 48.6225 
L 447.879392 48.24 
L 447.949773 48.06 
L 448.266126 46.8225 
L 448.346223 46.6425 
L 448.458679 46.17 
L 448.789455 45.3375 
L 449.019704 44.5725 
L 449.152832 44.19 
L 449.3004 43.785 
L 449.459305 43.5375 
L 449.660581 42.84 
L 449.779015 42.5025 
L 449.91979 42.165 
L 450.342492 40.8825 
L 450.478028 40.4325 
L 450.668875 39.8475 
L 450.74999 39.555 
L 450.845016 39.375 
L 451.370282 37.845 
L 451.486965 37.35 
L 451.653422 36.9 
L 451.873234 36.2925 
L 451.938102 36.09 
L 453.245245 32.6025 
L 453.367464 32.265 
L 453.445247 32.1075 
L 453.537849 31.9275 
L 453.637127 31.77 
L 453.864564 31.1175 
L 455.010322 28.35 
L 455.284306 27.9225 
L 455.430232 27.675 
L 455.622912 27.5175 
L 455.817503 27.18 
L 456.288359 26.2125 
L 456.519436 25.74 
L 456.703101 25.38 
L 458.01596 22.95 
L 458.289726 22.77 
L 458.397384 22.5675 
L 458.602708 22.32 
L 458.730741 22.1625 
L 458.83239 21.96 
L 459.161167 21.51 
L 459.450694 21.06 
L 459.811628 20.61 
L 459.902634 20.4975 
L 460.224783 20.205 
L 460.330512 20.115 
L 462.784482 18.225 
L 463.241606 18.0225 
L 463.944562 17.55 
L 464.575407 17.28 
L 465.114684 17.0775 
L 465.634476 16.7625 
L 465.70848 16.7175 
L 467.763381 16.065 
L 468.829707 15.93 
L 468.985774 15.8625 
L 470.243804 15.615 
L 470.302662 15.57 
L 472.66627 15.39 
L 475.004097 15.3225 
L 475.004097 15.3225 
" style="fill:none;stroke:#0000ff;stroke-linecap:square;"/>
   </g>
   <g id="line2d_71">
    <path clip-path="url(#p4ab544d480)" d="M 419.817752 127.8 
L 419.817752 15.3 
" style="fill:none;stroke:#0000ff;stroke-dasharray:6.000000,6.000000;stroke-dashoffset:0.0;"/>
   </g>
   <g id="line2d_72">
    <path clip-path="url(#p4ab544d480)" d="M 463.120186 127.8 
L 463.120186 15.3 
" style="fill:none;stroke:#0000ff;stroke-dasharray:6.000000,6.000000;stroke-dashoffset:0.0;"/>
   </g>
   <g id="patch_13">
    <path d="M 373.6875 15.3 
L 481.95 15.3 
" style="fill:none;stroke:#000000;stroke-linecap:square;stroke-linejoin:miter;"/>
   </g>
   <g id="patch_14">
    <path d="M 481.95 127.8 
L 481.95 15.3 
" style="fill:none;stroke:#000000;stroke-linecap:square;stroke-linejoin:miter;"/>
   </g>
   <g id="patch_15">
    <path d="M 373.6875 127.8 
L 481.95 127.8 
" style="fill:none;stroke:#000000;stroke-linecap:square;stroke-linejoin:miter;"/>
   </g>
   <g id="patch_16">
    <path d="M 373.6875 127.8 
L 373.6875 15.3 
" style="fill:none;stroke:#000000;stroke-linecap:square;stroke-linejoin:miter;"/>
   </g>
   <g id="matplotlib.axis_5">
    <g id="xtick_16">
     <g id="line2d_73">
      <g>
       <use style="stroke:#000000;stroke-width:0.5;" x="373.6875" xlink:href="#m8f643698a9" y="127.8"/>
      </g>
     </g>
     <g id="line2d_74">
      <g>
       <use style="stroke:#000000;stroke-width:0.5;" x="373.6875" xlink:href="#m1d6c1d74c0" y="15.3"/>
      </g>
     </g>
     <g id="text_32">
      <!-- 0.50 -->
      <g transform="translate(362.5546875 139.3984375)scale(0.1 -0.1)">
       <use xlink:href="#BitstreamVeraSans-Roman-30"/>
       <use x="63.623046875" xlink:href="#BitstreamVeraSans-Roman-2e"/>
       <use x="95.41015625" xlink:href="#BitstreamVeraSans-Roman-35"/>
       <use x="159.033203125" xlink:href="#BitstreamVeraSans-Roman-30"/>
      </g>
     </g>
    </g>
    <g id="xtick_17">
     <g id="line2d_75">
      <g>
       <use style="stroke:#000000;stroke-width:0.5;" x="391.73125" xlink:href="#m8f643698a9" y="127.8"/>
      </g>
     </g>
     <g id="line2d_76">
      <g>
       <use style="stroke:#000000;stroke-width:0.5;" x="391.73125" xlink:href="#m1d6c1d74c0" y="15.3"/>
      </g>
     </g>
     <g id="text_33">
      <!-- 0.55 -->
      <g transform="translate(380.5984375 139.3984375)scale(0.1 -0.1)">
       <use xlink:href="#BitstreamVeraSans-Roman-30"/>
       <use x="63.623046875" xlink:href="#BitstreamVeraSans-Roman-2e"/>
       <use x="95.41015625" xlink:href="#BitstreamVeraSans-Roman-35"/>
       <use x="159.033203125" xlink:href="#BitstreamVeraSans-Roman-35"/>
      </g>
     </g>
    </g>
    <g id="xtick_18">
     <g id="line2d_77">
      <g>
       <use style="stroke:#000000;stroke-width:0.5;" x="409.775" xlink:href="#m8f643698a9" y="127.8"/>
      </g>
     </g>
     <g id="line2d_78">
      <g>
       <use style="stroke:#000000;stroke-width:0.5;" x="409.775" xlink:href="#m1d6c1d74c0" y="15.3"/>
      </g>
     </g>
     <g id="text_34">
      <!-- 0.60 -->
      <g transform="translate(398.6421875 139.3984375)scale(0.1 -0.1)">
       <use xlink:href="#BitstreamVeraSans-Roman-30"/>
       <use x="63.623046875" xlink:href="#BitstreamVeraSans-Roman-2e"/>
       <use x="95.41015625" xlink:href="#BitstreamVeraSans-Roman-36"/>
       <use x="159.033203125" xlink:href="#BitstreamVeraSans-Roman-30"/>
      </g>
     </g>
    </g>
    <g id="xtick_19">
     <g id="line2d_79">
      <g>
       <use style="stroke:#000000;stroke-width:0.5;" x="427.81875" xlink:href="#m8f643698a9" y="127.8"/>
      </g>
     </g>
     <g id="line2d_80">
      <g>
       <use style="stroke:#000000;stroke-width:0.5;" x="427.81875" xlink:href="#m1d6c1d74c0" y="15.3"/>
      </g>
     </g>
     <g id="text_35">
      <!-- 0.65 -->
      <g transform="translate(416.6859375 139.3984375)scale(0.1 -0.1)">
       <use xlink:href="#BitstreamVeraSans-Roman-30"/>
       <use x="63.623046875" xlink:href="#BitstreamVeraSans-Roman-2e"/>
       <use x="95.41015625" xlink:href="#BitstreamVeraSans-Roman-36"/>
       <use x="159.033203125" xlink:href="#BitstreamVeraSans-Roman-35"/>
      </g>
     </g>
    </g>
    <g id="xtick_20">
     <g id="line2d_81">
      <g>
       <use style="stroke:#000000;stroke-width:0.5;" x="445.8625" xlink:href="#m8f643698a9" y="127.8"/>
      </g>
     </g>
     <g id="line2d_82">
      <g>
       <use style="stroke:#000000;stroke-width:0.5;" x="445.8625" xlink:href="#m1d6c1d74c0" y="15.3"/>
      </g>
     </g>
     <g id="text_36">
      <!-- 0.70 -->
      <g transform="translate(434.7296875 139.3984375)scale(0.1 -0.1)">
       <use xlink:href="#BitstreamVeraSans-Roman-30"/>
       <use x="63.623046875" xlink:href="#BitstreamVeraSans-Roman-2e"/>
       <use x="95.41015625" xlink:href="#BitstreamVeraSans-Roman-37"/>
       <use x="159.033203125" xlink:href="#BitstreamVeraSans-Roman-30"/>
      </g>
     </g>
    </g>
    <g id="xtick_21">
     <g id="line2d_83">
      <g>
       <use style="stroke:#000000;stroke-width:0.5;" x="463.90625" xlink:href="#m8f643698a9" y="127.8"/>
      </g>
     </g>
     <g id="line2d_84">
      <g>
       <use style="stroke:#000000;stroke-width:0.5;" x="463.90625" xlink:href="#m1d6c1d74c0" y="15.3"/>
      </g>
     </g>
     <g id="text_37">
      <!-- 0.75 -->
      <g transform="translate(452.7734375 139.3984375)scale(0.1 -0.1)">
       <use xlink:href="#BitstreamVeraSans-Roman-30"/>
       <use x="63.623046875" xlink:href="#BitstreamVeraSans-Roman-2e"/>
       <use x="95.41015625" xlink:href="#BitstreamVeraSans-Roman-37"/>
       <use x="159.033203125" xlink:href="#BitstreamVeraSans-Roman-35"/>
      </g>
     </g>
    </g>
    <g id="xtick_22">
     <g id="line2d_85">
      <g>
       <use style="stroke:#000000;stroke-width:0.5;" x="481.95" xlink:href="#m8f643698a9" y="127.8"/>
      </g>
     </g>
     <g id="line2d_86">
      <g>
       <use style="stroke:#000000;stroke-width:0.5;" x="481.95" xlink:href="#m1d6c1d74c0" y="15.3"/>
      </g>
     </g>
     <g id="text_38">
      <!-- 0.80 -->
      <g transform="translate(470.8171875 139.3984375)scale(0.1 -0.1)">
       <use xlink:href="#BitstreamVeraSans-Roman-30"/>
       <use x="63.623046875" xlink:href="#BitstreamVeraSans-Roman-2e"/>
       <use x="95.41015625" xlink:href="#BitstreamVeraSans-Roman-38"/>
       <use x="159.033203125" xlink:href="#BitstreamVeraSans-Roman-30"/>
      </g>
     </g>
    </g>
    <g id="text_39">
     <!-- Z component -->
     <defs>
      <path d="M 5.609375 72.90625 
L 62.890625 72.90625 
L 62.890625 65.375 
L 16.796875 8.296875 
L 64.015625 8.296875 
L 64.015625 0 
L 4.5 0 
L 4.5 7.515625 
L 50.59375 64.59375 
L 5.609375 64.59375 
z
" id="BitstreamVeraSans-Roman-5a"/>
     </defs>
     <g transform="translate(394.51796875 154.0765625)scale(0.1 -0.1)">
      <use xlink:href="#BitstreamVeraSans-Roman-5a"/>
      <use x="68.505859375" xlink:href="#BitstreamVeraSans-Roman-20"/>
      <use x="100.29296875" xlink:href="#BitstreamVeraSans-Roman-63"/>
      <use x="155.2734375" xlink:href="#BitstreamVeraSans-Roman-6f"/>
      <use x="216.455078125" xlink:href="#BitstreamVeraSans-Roman-6d"/>
      <use x="313.8671875" xlink:href="#BitstreamVeraSans-Roman-70"/>
      <use x="377.34375" xlink:href="#BitstreamVeraSans-Roman-6f"/>
      <use x="438.525390625" xlink:href="#BitstreamVeraSans-Roman-6e"/>
      <use x="501.904296875" xlink:href="#BitstreamVeraSans-Roman-65"/>
      <use x="563.427734375" xlink:href="#BitstreamVeraSans-Roman-6e"/>
      <use x="626.806640625" xlink:href="#BitstreamVeraSans-Roman-74"/>
     </g>
    </g>
   </g>
   <g id="matplotlib.axis_6">
    <g id="ytick_13">
     <g id="line2d_87">
      <g>
       <use style="stroke:#000000;stroke-width:0.5;" x="373.6875" xlink:href="#m0fc8f7f576" y="127.8"/>
      </g>
     </g>
     <g id="line2d_88">
      <g>
       <use style="stroke:#000000;stroke-width:0.5;" x="481.95" xlink:href="#mc6e5164fb7" y="127.8"/>
      </g>
     </g>
     <g id="text_40">
      <!-- 0.0 -->
      <g transform="translate(353.784375 130.559375)scale(0.1 -0.1)">
       <use xlink:href="#BitstreamVeraSans-Roman-30"/>
       <use x="63.623046875" xlink:href="#BitstreamVeraSans-Roman-2e"/>
       <use x="95.41015625" xlink:href="#BitstreamVeraSans-Roman-30"/>
      </g>
     </g>
    </g>
    <g id="ytick_14">
     <g id="line2d_89">
      <g>
       <use style="stroke:#000000;stroke-width:0.5;" x="373.6875" xlink:href="#m0fc8f7f576" y="105.3"/>
      </g>
     </g>
     <g id="line2d_90">
      <g>
       <use style="stroke:#000000;stroke-width:0.5;" x="481.95" xlink:href="#mc6e5164fb7" y="105.3"/>
      </g>
     </g>
     <g id="text_41">
      <!-- 0.2 -->
      <g transform="translate(353.784375 108.059375)scale(0.1 -0.1)">
       <use xlink:href="#BitstreamVeraSans-Roman-30"/>
       <use x="63.623046875" xlink:href="#BitstreamVeraSans-Roman-2e"/>
       <use x="95.41015625" xlink:href="#BitstreamVeraSans-Roman-32"/>
      </g>
     </g>
    </g>
    <g id="ytick_15">
     <g id="line2d_91">
      <g>
       <use style="stroke:#000000;stroke-width:0.5;" x="373.6875" xlink:href="#m0fc8f7f576" y="82.8"/>
      </g>
     </g>
     <g id="line2d_92">
      <g>
       <use style="stroke:#000000;stroke-width:0.5;" x="481.95" xlink:href="#mc6e5164fb7" y="82.8"/>
      </g>
     </g>
     <g id="text_42">
      <!-- 0.4 -->
      <g transform="translate(353.784375 85.559375)scale(0.1 -0.1)">
       <use xlink:href="#BitstreamVeraSans-Roman-30"/>
       <use x="63.623046875" xlink:href="#BitstreamVeraSans-Roman-2e"/>
       <use x="95.41015625" xlink:href="#BitstreamVeraSans-Roman-34"/>
      </g>
     </g>
    </g>
    <g id="ytick_16">
     <g id="line2d_93">
      <g>
       <use style="stroke:#000000;stroke-width:0.5;" x="373.6875" xlink:href="#m0fc8f7f576" y="60.3"/>
      </g>
     </g>
     <g id="line2d_94">
      <g>
       <use style="stroke:#000000;stroke-width:0.5;" x="481.95" xlink:href="#mc6e5164fb7" y="60.3"/>
      </g>
     </g>
     <g id="text_43">
      <!-- 0.6 -->
      <g transform="translate(353.784375 63.059375)scale(0.1 -0.1)">
       <use xlink:href="#BitstreamVeraSans-Roman-30"/>
       <use x="63.623046875" xlink:href="#BitstreamVeraSans-Roman-2e"/>
       <use x="95.41015625" xlink:href="#BitstreamVeraSans-Roman-36"/>
      </g>
     </g>
    </g>
    <g id="ytick_17">
     <g id="line2d_95">
      <g>
       <use style="stroke:#000000;stroke-width:0.5;" x="373.6875" xlink:href="#m0fc8f7f576" y="37.8"/>
      </g>
     </g>
     <g id="line2d_96">
      <g>
       <use style="stroke:#000000;stroke-width:0.5;" x="481.95" xlink:href="#mc6e5164fb7" y="37.8"/>
      </g>
     </g>
     <g id="text_44">
      <!-- 0.8 -->
      <g transform="translate(353.784375 40.559375)scale(0.1 -0.1)">
       <use xlink:href="#BitstreamVeraSans-Roman-30"/>
       <use x="63.623046875" xlink:href="#BitstreamVeraSans-Roman-2e"/>
       <use x="95.41015625" xlink:href="#BitstreamVeraSans-Roman-38"/>
      </g>
     </g>
    </g>
    <g id="ytick_18">
     <g id="line2d_97">
      <g>
       <use style="stroke:#000000;stroke-width:0.5;" x="373.6875" xlink:href="#m0fc8f7f576" y="15.3"/>
      </g>
     </g>
     <g id="line2d_98">
      <g>
       <use style="stroke:#000000;stroke-width:0.5;" x="481.95" xlink:href="#mc6e5164fb7" y="15.3"/>
      </g>
     </g>
     <g id="text_45">
      <!-- 1.0 -->
      <g transform="translate(353.784375 18.059375)scale(0.1 -0.1)">
       <use xlink:href="#BitstreamVeraSans-Roman-31"/>
       <use x="63.623046875" xlink:href="#BitstreamVeraSans-Roman-2e"/>
       <use x="95.41015625" xlink:href="#BitstreamVeraSans-Roman-30"/>
      </g>
     </g>
    </g>
    <g id="text_46">
     <!-- Cumulative Distribution -->
     <g transform="translate(346.7046875 130.8453125)rotate(-90.0)scale(0.1 -0.1)">
      <use xlink:href="#BitstreamVeraSans-Roman-43"/>
      <use x="69.82421875" xlink:href="#BitstreamVeraSans-Roman-75"/>
      <use x="133.203125" xlink:href="#BitstreamVeraSans-Roman-6d"/>
      <use x="230.615234375" xlink:href="#BitstreamVeraSans-Roman-75"/>
      <use x="293.994140625" xlink:href="#BitstreamVeraSans-Roman-6c"/>
      <use x="321.77734375" xlink:href="#BitstreamVeraSans-Roman-61"/>
      <use x="383.056640625" xlink:href="#BitstreamVeraSans-Roman-74"/>
      <use x="422.265625" xlink:href="#BitstreamVeraSans-Roman-69"/>
      <use x="450.048828125" xlink:href="#BitstreamVeraSans-Roman-76"/>
      <use x="509.228515625" xlink:href="#BitstreamVeraSans-Roman-65"/>
      <use x="570.751953125" xlink:href="#BitstreamVeraSans-Roman-20"/>
      <use x="602.5390625" xlink:href="#BitstreamVeraSans-Roman-44"/>
      <use x="679.541015625" xlink:href="#BitstreamVeraSans-Roman-69"/>
      <use x="707.32421875" xlink:href="#BitstreamVeraSans-Roman-73"/>
      <use x="759.423828125" xlink:href="#BitstreamVeraSans-Roman-74"/>
      <use x="798.6328125" xlink:href="#BitstreamVeraSans-Roman-72"/>
      <use x="839.74609375" xlink:href="#BitstreamVeraSans-Roman-69"/>
      <use x="867.529296875" xlink:href="#BitstreamVeraSans-Roman-62"/>
      <use x="931.005859375" xlink:href="#BitstreamVeraSans-Roman-75"/>
      <use x="994.384765625" xlink:href="#BitstreamVeraSans-Roman-74"/>
      <use x="1033.59375" xlink:href="#BitstreamVeraSans-Roman-69"/>
      <use x="1061.37695312" xlink:href="#BitstreamVeraSans-Roman-6f"/>
      <use x="1122.55859375" xlink:href="#BitstreamVeraSans-Roman-6e"/>
     </g>
    </g>
   </g>
  </g>
 </g>
 <defs>
  <clipPath id="p6c9c640d2f">
   <rect height="112.5" width="108.2625" x="44.8875" y="15.3"/>
  </clipPath>
  <clipPath id="p4ab544d480">
   <rect height="112.5" width="108.2625" x="373.6875" y="15.3"/>
  </clipPath>
  <clipPath id="p8b7c71eabd">
   <rect height="112.5" width="108.2625" x="209.2875" y="15.3"/>
  </clipPath>
 </defs>
</svg>
