<?xml version="1.0" encoding="utf-8" standalone="no"?>
<!DOCTYPE svg PUBLIC "-//W3C//DTD SVG 1.1//EN"
  "http://www.w3.org/Graphics/SVG/1.1/DTD/svg11.dtd">
<!-- Created with matplotlib (http://matplotlib.org/) -->
<svg height="216pt" version="1.1" viewBox="0 0 648 216" width="648pt" xmlns="http://www.w3.org/2000/svg" xmlns:xlink="http://www.w3.org/1999/xlink">
 <defs>
  <style type="text/css">
*{stroke-linecap:butt;stroke-linejoin:round;}
  </style>
 </defs>
 <g id="figure_1">
  <g id="patch_1">
   <path d="
M0 216
L648 216
L648 0
L0 0
z
" style="fill:#ffffff;"/>
  </g>
  <g id="axes_1">
   <g id="patch_2">
    <path d="
M43.6219 178.2
L201.853 178.2
L201.853 15.3
L43.6219 15.3
z
" style="fill:#ffffff;"/>
   </g>
   <g id="line2d_1">
    <path clip-path="url(#p6285ca8f12)" d="
M69.8343 178.2
L77.6645 178.005
L77.6969 177.972
L79.6905 177.711
L81.0372 177.581
L82.497 177.385
L87.7678 175.985
L87.8722 175.919
L88.544 175.659
L88.7142 175.528
L88.9304 175.366
L89.1137 175.268
L90.4654 174.29
L90.5555 174.127
L91.561 173.346
L91.8817 173.085
L92.1274 172.889
L92.4669 172.629
L92.7212 172.433
L92.9026 172.205
L93.2364 171.879
L93.3472 171.749
L93.5783 171.554
L94.1321 171.098
L94.3602 170.837
L94.4581 170.641
L94.8427 170.446
L94.9421 170.25
L95.1223 169.99
L95.2298 169.762
L95.7158 169.078
L95.9521 168.882
L96.2157 168.491
L96.3727 168.328
L96.4718 168.068
L96.5668 167.905
L96.6613 167.742
L96.7988 167.546
L96.859 167.416
L96.9931 167.221
L97.2017 166.895
L97.5807 166.145
L97.7908 165.787
L97.9642 165.461
L98.0654 165.298
L98.1877 165.038
L98.2877 164.875
L98.4603 164.712
L99.2438 163.213
L99.3125 163.018
L99.511 162.529
L99.5589 162.301
L99.6718 162.203
L100.132 161.193
L100.302 160.933
L100.483 160.574
L100.641 160.216
L100.793 159.857
L101.157 159.173
L101.279 159.01
L101.412 158.652
L102.446 155.524
L103.228 153.504
L103.362 153.211
L103.526 152.657
L103.747 152.234
L103.801 151.973
L103.946 151.647
L104.052 151.289
L104.265 150.54
L104.833 148.748
L105.008 148.292
L105.146 147.868
L105.338 147.347
L105.48 147.021
L105.638 146.467
L105.747 146.109
L105.9 145.653
L106.036 145.001
L106.175 144.675
L106.444 143.502
L106.641 142.851
L106.792 142.264
L106.908 141.808
L107.201 140.57
L107.294 140.277
L107.548 139.43
L107.685 138.974
L107.925 138.257
L108.007 137.996
L108.172 137.214
L108.302 136.986
L108.96 134.087
L109.131 133.565
L109.304 133.174
L109.501 132.718
L109.943 131.024
L109.986 130.861
L110.212 130.014
L110.282 129.558
L110.453 128.711
L110.56 128.515
L110.687 127.896
L111.652 123.596
L111.762 123.238
L111.833 122.977
L112.072 122.13
L112.211 121.543
L112.4 120.664
L112.651 119.589
L112.85 118.481
L112.908 118.155
L113.213 116.722
L113.317 116.2
L113.44 115.483
L113.566 114.995
L113.732 114.017
L113.903 113.17
L114.036 112.616
L114.167 111.932
L114.302 111.183
L114.375 110.922
L115.495 105.221
L115.562 104.993
L115.815 103.755
L116.078 102.256
L116.366 101.246
L116.503 100.627
L117.314 96.4568
L117.394 96.1961
L117.505 95.6749
L117.604 94.9907
L117.761 94.2413
L118.243 92.0259
L118.317 91.7653
L118.473 91.1462
L118.61 90.4946
L118.752 89.615
L118.9 88.8656
L119.217 87.2692
L119.393 86.5525
L119.999 83.6203
L120.203 82.5451
L120.284 82.2845
L120.422 81.4048
L120.557 80.8835
L120.67 80.3948
L120.912 79.1242
L121.046 78.5704
L121.211 77.821
L121.623 76.192
L121.674 75.9965
L122.057 74.1395
L122.118 73.8788
L122.341 72.7385
L122.45 72.4127
L122.539 72.0218
L122.654 71.4028
L122.841 70.1973
L122.996 69.7086
L123.508 67.2325
L123.611 66.9719
L123.736 66.4506
L123.83 66.1248
L124.181 65.0171
L124.456 63.4207
L124.628 63.1274
L124.757 62.4758
L124.841 62.2152
L125.192 60.3581
L125.239 60.1301
L125.442 59.2178
L125.68 58.3056
L125.873 57.654
L126.007 57.035
L127.515 51.7896
L127.675 51.3009
L127.937 50.3235
L128.029 49.9651
L128.176 49.2484
L128.53 47.6519
L128.7 47.2284
L129.053 46.1858
L129.306 45.2736
L129.382 45.0455
L129.624 43.9704
L129.976 42.6672
L130.053 42.3414
L130.15 42.1459
L130.316 41.3966
L130.596 40.9079
L130.724 40.6147
L130.933 40.126
L131.066 39.8979
L133.176 34.1638
L133.299 33.9358
L133.446 33.6751
L133.546 33.5122
L133.643 33.2516
L133.772 32.8932
L133.914 32.6326
L134.689 30.9384
L135.207 29.6352
L135.337 29.4071
L135.563 29.0162
L135.681 28.8207
L136.129 28.1039
L136.376 27.4198
L136.918 26.6704
L137.05 26.5075
L137.224 25.8885
L137.337 25.7582
L137.56 25.2695
L137.753 24.9437
L138.045 24.5853
L138.318 24.1618
L138.539 23.9663
L138.733 23.7382
L139.145 23.0866
L139.28 22.8911
L140.032 22.1418
L140.231 21.9789
L140.513 21.5554
L140.906 21.0992
L141.357 20.7734
L141.443 20.6105
L141.576 20.4476
L141.667 20.2196
L141.755 20.0241
L142.135 19.6331
L142.813 19.2422
L142.963 19.1444
L143.124 19.0467
L143.606 18.8186
L143.616 18.7861
L144.122 18.558
L144.199 18.3951
L144.653 18.2322
L144.779 18.0693
L145.208 17.9064
L145.844 17.6132
L146.585 17.2222
L147.147 17.0267
L147.187 16.9942
L147.701 16.8313
L148.181 16.6684
L148.858 16.3751
L149.488 16.2774
L150.82 16.1145
L155.635 15.5606
L159.762 15.3652
L169.57 15.3326
L169.57 15.3326" style="fill:none;stroke:#ff0000;stroke-linecap:square;"/>
   </g>
   <g id="line2d_2">
    <path clip-path="url(#p6285ca8f12)" d="
M90.5555 178.2
L90.5555 15.3" style="fill:none;stroke:#ff0000;stroke-linecap:square;"/>
   </g>
   <g id="line2d_3">
    <path clip-path="url(#p6285ca8f12)" d="
M142.629 178.2
L142.629 15.3" style="fill:none;stroke:#ff0000;stroke-linecap:square;"/>
   </g>
   <g id="line2d_4">
    <path clip-path="url(#p6285ca8f12)" d="
M48.7364 178.2
L70.8433 178.005
L76.7619 177.581
L76.9698 177.516
L78.5836 177.32
L80.2061 176.897
L80.8706 176.766
L81.9463 176.604
L84.7943 176.05
L84.7965 176.017
L85.565 175.822
L85.6532 175.724
L86.0062 175.594
L86.6 175.366
L86.8926 175.203
L87.5265 175.007
L88.3209 174.812
L88.6857 174.616
L89.2038 174.453
L89.6832 174.29
L90.1521 174.127
L90.8418 173.704
L91.4449 173.183
L91.9636 172.792
L92.3038 172.596
L92.6837 172.368
L92.7054 172.303
L93.2472 172.108
L93.7882 171.651
L94.6611 171.195
L94.9181 171.032
L95.1856 170.869
L95.3372 170.707
L96.0001 170.022
L96.3851 169.599
L96.5362 169.436
L97.3295 168.426
L97.4752 168.263
L97.7691 167.97
L97.8586 167.807
L97.9811 167.677
L98.17 167.514
L98.4743 166.96
L98.7506 166.764
L99.0331 166.504
L99.2647 166.341
L100.007 165.103
L100.123 164.973
L100.311 164.712
L100.491 164.451
L100.813 164.158
L100.997 163.963
L101.117 163.734
L101.375 163.311
L101.48 163.148
L101.662 162.985
L102.375 161.715
L102.512 161.421
L102.756 161.161
L103.01 160.705
L103.128 160.542
L103.631 159.825
L103.771 159.597
L103.965 159.271
L104.095 159.108
L104.209 158.913
L104.984 157.381
L105.163 157.153
L105.267 156.925
L105.525 156.534
L105.658 156.208
L105.958 155.687
L107.421 152.201
L107.524 152.006
L107.756 151.354
L107.825 151.126
L107.961 150.572
L108.066 150.312
L108.207 149.823
L108.733 148.715
L108.913 148.161
L109.063 147.901
L109.16 147.673
L109.266 147.379
L109.982 145.457
L110.102 145.131
L110.31 144.577
L110.409 144.154
L110.563 143.633
L110.68 143.339
L110.893 143.111
L111.059 142.753
L111.522 141.613
L111.616 141.385
L111.658 141.287
L111.76 141.157
L112.04 140.505
L112.224 140.212
L112.991 137.866
L113.056 137.605
L113.369 136.628
L114.025 134.641
L114.164 134.315
L114.748 132.653
L115.558 130.307
L115.722 129.721
L115.804 129.525
L115.932 128.874
L116.099 128.418
L116.21 127.994
L116.358 127.506
L116.593 126.43
L117.677 123.009
L117.739 122.814
L117.947 122.097
L118.239 121.152
L118.347 120.827
L118.454 120.599
L118.585 120.142
L120.736 111.411
L120.891 110.662
L121.177 109.749
L121.285 109.228
L121.362 109
L121.483 108.479
L121.569 108.186
L121.869 107.241
L121.996 106.687
L122.586 105.025
L122.697 104.602
L122.76 104.341
L123.622 100.497
L123.725 100.106
L123.839 99.617
L123.937 99.2587
L125.473 92.482
L125.549 92.254
L126.183 89.3218
L126.286 89.1589
L126.399 88.4421
L126.496 88.2792
L126.721 87.1063
L126.809 86.8783
L126.999 86.2592
L127.27 85.4447
L127.43 85.0864
L127.579 84.3696
L127.826 83.3922
L127.996 82.6754
L131.022 70.5883
L131.071 70.3928
L131.173 70.0344
L131.388 69.5457
L131.575 68.7964
L131.86 67.8841
L132.357 66.1574
L132.479 65.4732
L132.9 63.9094
L133.067 63.6161
L133.176 63.16
L133.46 62.0849
L133.523 61.922
L133.647 61.303
L133.744 61.1075
L133.876 60.5536
L133.962 60.3256
L134.067 60.0323
L134.199 59.8043
L134.519 59.0224
L134.604 58.8269
L134.944 57.6214
L135.034 57.4585
L135.661 55.7644
L136.048 54.2657
L136.188 53.777
L136.386 53.1905
L136.522 52.6693
L136.844 51.7896
L136.926 51.5615
L137.13 50.8448
L139.479 44.003
L139.602 43.8075
L139.92 43.1233
L140.041 42.7975
L140.135 42.602
L140.349 42.2437
L140.656 41.6246
L140.78 41.2011
L140.952 40.5821
L141.122 40.1911
L141.258 39.735
L141.557 39.0508
L141.651 38.8228
L141.718 38.5621
L141.842 38.0083
L141.986 37.487
L142.21 37.0309
L142.311 36.7051
L142.434 36.477
L142.577 36.1838
L142.677 35.6951
L142.844 35.5322
L142.997 35.1738
L143.116 35.0109
L143.319 34.6851
L143.41 34.4896
L143.6 33.9358
L143.908 33.0887
L144.027 32.9258
L144.167 32.5674
L144.264 32.4045
L144.351 32.209
L144.574 31.8181
L144.76 31.3945
L145.122 30.7755
L145.631 29.6026
L145.791 29.4071
L146.162 28.5601
L147.537 26.5727
L147.641 26.312
L147.757 26.1166
L147.903 25.9862
L148.442 25.074
L148.617 24.9111
L148.723 24.6505
L149.279 23.836
L149.387 23.7382
L149.492 23.5753
L149.72 23.3473
L149.85 23.2169
L150.038 23.054
L150.269 22.8586
L150.68 22.3699
L150.839 22.207
L151.319 21.5879
L151.32 21.5554
L151.535 21.3925
L151.989 21.0667
L152.14 20.8386
L152.303 20.7083
L152.513 20.5128
L152.604 20.3825
L152.893 20.187
L153 19.9264
L153.16 19.7635
L155.493 18.3625
L155.562 18.2648
L156.987 17.8412
L157.149 17.7435
L157.916 17.32
L158.069 17.1896
L159.766 16.6358
L159.823 16.6032
L160.364 16.4729
L160.365 16.4403
L161.946 16.1471
L166.443 15.6258
L172.21 15.3977
L183.762 15.3326
L183.762 15.3326" style="fill:none;stroke:#0000ff;stroke-linecap:square;"/>
   </g>
   <g id="line2d_5">
    <path clip-path="url(#p6285ca8f12)" d="
M90.1521 178.2
L90.1521 15.3" style="fill:none;stroke:#0000ff;stroke-dasharray:6.000000,6.000000;stroke-dashoffset:0.0;"/>
   </g>
   <g id="line2d_6">
    <path clip-path="url(#p6285ca8f12)" d="
M153.844 178.2
L153.844 15.3" style="fill:none;stroke:#0000ff;stroke-dasharray:6.000000,6.000000;stroke-dashoffset:0.0;"/>
   </g>
   <g id="patch_3">
    <path d="
M43.6219 15.3
L201.853 15.3" style="fill:none;stroke:#000000;stroke-linecap:square;stroke-linejoin:miter;"/>
   </g>
   <g id="patch_4">
    <path d="
M201.853 178.2
L201.853 15.3" style="fill:none;stroke:#000000;stroke-linecap:square;stroke-linejoin:miter;"/>
   </g>
   <g id="patch_5">
    <path d="
M43.6219 178.2
L201.853 178.2" style="fill:none;stroke:#000000;stroke-linecap:square;stroke-linejoin:miter;"/>
   </g>
   <g id="patch_6">
    <path d="
M43.6219 178.2
L43.6219 15.3" style="fill:none;stroke:#000000;stroke-linecap:square;stroke-linejoin:miter;"/>
   </g>
   <g id="matplotlib.axis_1">
    <g id="xtick_1">
     <g id="line2d_7">
      <defs>
       <path d="
M0 0
L0 -4" id="m93b0483c22" style="stroke:#000000;stroke-width:0.5;"/>
      </defs>
      <g>
       <use style="stroke:#000000;stroke-width:0.5;" x="43.621875" xlink:href="#m93b0483c22" y="178.2"/>
      </g>
     </g>
     <g id="line2d_8">
      <defs>
       <path d="
M0 0
L0 4" id="m741efc42ff" style="stroke:#000000;stroke-width:0.5;"/>
      </defs>
      <g>
       <use style="stroke:#000000;stroke-width:0.5;" x="43.621875" xlink:href="#m741efc42ff" y="15.3"/>
      </g>
     </g>
     <g id="text_1">
      <!-- 0.45 -->
      <defs>
       <path d="
M31.7812 66.4062
Q24.1719 66.4062 20.3281 58.9062
Q16.5 51.4219 16.5 36.375
Q16.5 21.3906 20.3281 13.8906
Q24.1719 6.39062 31.7812 6.39062
Q39.4531 6.39062 43.2812 13.8906
Q47.125 21.3906 47.125 36.375
Q47.125 51.4219 43.2812 58.9062
Q39.4531 66.4062 31.7812 66.4062
M31.7812 74.2188
Q44.0469 74.2188 50.5156 64.5156
Q56.9844 54.8281 56.9844 36.375
Q56.9844 17.9688 50.5156 8.26562
Q44.0469 -1.42188 31.7812 -1.42188
Q19.5312 -1.42188 13.0625 8.26562
Q6.59375 17.9688 6.59375 36.375
Q6.59375 54.8281 13.0625 64.5156
Q19.5312 74.2188 31.7812 74.2188" id="BitstreamVeraSans-Roman-30"/>
       <path d="
M10.6875 12.4062
L21 12.4062
L21 0
L10.6875 0
z
" id="BitstreamVeraSans-Roman-2e"/>
       <path d="
M37.7969 64.3125
L12.8906 25.3906
L37.7969 25.3906
z

M35.2031 72.9062
L47.6094 72.9062
L47.6094 25.3906
L58.0156 25.3906
L58.0156 17.1875
L47.6094 17.1875
L47.6094 0
L37.7969 0
L37.7969 17.1875
L4.89062 17.1875
L4.89062 26.7031
z
" id="BitstreamVeraSans-Roman-34"/>
       <path d="
M10.7969 72.9062
L49.5156 72.9062
L49.5156 64.5938
L19.8281 64.5938
L19.8281 46.7344
Q21.9688 47.4688 24.1094 47.8281
Q26.2656 48.1875 28.4219 48.1875
Q40.625 48.1875 47.75 41.5
Q54.8906 34.8125 54.8906 23.3906
Q54.8906 11.625 47.5625 5.09375
Q40.2344 -1.42188 26.9062 -1.42188
Q22.3125 -1.42188 17.5469 -0.640625
Q12.7969 0.140625 7.71875 1.70312
L7.71875 11.625
Q12.1094 9.23438 16.7969 8.0625
Q21.4844 6.89062 26.7031 6.89062
Q35.1562 6.89062 40.0781 11.3281
Q45.0156 15.7656 45.0156 23.3906
Q45.0156 31 40.0781 35.4375
Q35.1562 39.8906 26.7031 39.8906
Q22.75 39.8906 18.8125 39.0156
Q14.8906 38.1406 10.7969 36.2812
z
" id="BitstreamVeraSans-Roman-35"/>
      </defs>
      <g transform="translate(33.25546875 189.7984375)scale(0.1 -0.1)">
       <use xlink:href="#BitstreamVeraSans-Roman-30"/>
       <use x="63.623046875" xlink:href="#BitstreamVeraSans-Roman-2e"/>
       <use x="95.41015625" xlink:href="#BitstreamVeraSans-Roman-34"/>
       <use x="159.033203125" xlink:href="#BitstreamVeraSans-Roman-35"/>
      </g>
     </g>
    </g>
    <g id="xtick_2">
     <g id="line2d_9">
      <g>
       <use style="stroke:#000000;stroke-width:0.5;" x="66.2263392857" xlink:href="#m93b0483c22" y="178.2"/>
      </g>
     </g>
     <g id="line2d_10">
      <g>
       <use style="stroke:#000000;stroke-width:0.5;" x="66.2263392857" xlink:href="#m741efc42ff" y="15.3"/>
      </g>
     </g>
     <g id="text_2">
      <!-- 0.50 -->
      <g transform="translate(55.7552455357 189.7984375)scale(0.1 -0.1)">
       <use xlink:href="#BitstreamVeraSans-Roman-30"/>
       <use x="63.623046875" xlink:href="#BitstreamVeraSans-Roman-2e"/>
       <use x="95.41015625" xlink:href="#BitstreamVeraSans-Roman-35"/>
       <use x="159.033203125" xlink:href="#BitstreamVeraSans-Roman-30"/>
      </g>
     </g>
    </g>
    <g id="xtick_3">
     <g id="line2d_11">
      <g>
       <use style="stroke:#000000;stroke-width:0.5;" x="88.8308035714" xlink:href="#m93b0483c22" y="178.2"/>
      </g>
     </g>
     <g id="line2d_12">
      <g>
       <use style="stroke:#000000;stroke-width:0.5;" x="88.8308035714" xlink:href="#m741efc42ff" y="15.3"/>
      </g>
     </g>
     <g id="text_3">
      <!-- 0.55 -->
      <g transform="translate(78.4643973214 189.7984375)scale(0.1 -0.1)">
       <use xlink:href="#BitstreamVeraSans-Roman-30"/>
       <use x="63.623046875" xlink:href="#BitstreamVeraSans-Roman-2e"/>
       <use x="95.41015625" xlink:href="#BitstreamVeraSans-Roman-35"/>
       <use x="159.033203125" xlink:href="#BitstreamVeraSans-Roman-35"/>
      </g>
     </g>
    </g>
    <g id="xtick_4">
     <g id="line2d_13">
      <g>
       <use style="stroke:#000000;stroke-width:0.5;" x="111.435267857" xlink:href="#m93b0483c22" y="178.2"/>
      </g>
     </g>
     <g id="line2d_14">
      <g>
       <use style="stroke:#000000;stroke-width:0.5;" x="111.435267857" xlink:href="#m741efc42ff" y="15.3"/>
      </g>
     </g>
     <g id="text_4">
      <!-- 0.60 -->
      <defs>
       <path d="
M33.0156 40.375
Q26.375 40.375 22.4844 35.8281
Q18.6094 31.2969 18.6094 23.3906
Q18.6094 15.5312 22.4844 10.9531
Q26.375 6.39062 33.0156 6.39062
Q39.6562 6.39062 43.5312 10.9531
Q47.4062 15.5312 47.4062 23.3906
Q47.4062 31.2969 43.5312 35.8281
Q39.6562 40.375 33.0156 40.375
M52.5938 71.2969
L52.5938 62.3125
Q48.875 64.0625 45.0938 64.9844
Q41.3125 65.9219 37.5938 65.9219
Q27.8281 65.9219 22.6719 59.3281
Q17.5312 52.7344 16.7969 39.4062
Q19.6719 43.6562 24.0156 45.9219
Q28.375 48.1875 33.5938 48.1875
Q44.5781 48.1875 50.9531 41.5156
Q57.3281 34.8594 57.3281 23.3906
Q57.3281 12.1562 50.6875 5.35938
Q44.0469 -1.42188 33.0156 -1.42188
Q20.3594 -1.42188 13.6719 8.26562
Q6.98438 17.9688 6.98438 36.375
Q6.98438 53.6562 15.1875 63.9375
Q23.3906 74.2188 37.2031 74.2188
Q40.9219 74.2188 44.7031 73.4844
Q48.4844 72.75 52.5938 71.2969" id="BitstreamVeraSans-Roman-36"/>
      </defs>
      <g transform="translate(100.964174107 189.7984375)scale(0.1 -0.1)">
       <use xlink:href="#BitstreamVeraSans-Roman-30"/>
       <use x="63.623046875" xlink:href="#BitstreamVeraSans-Roman-2e"/>
       <use x="95.41015625" xlink:href="#BitstreamVeraSans-Roman-36"/>
       <use x="159.033203125" xlink:href="#BitstreamVeraSans-Roman-30"/>
      </g>
     </g>
    </g>
    <g id="xtick_5">
     <g id="line2d_15">
      <g>
       <use style="stroke:#000000;stroke-width:0.5;" x="134.039732143" xlink:href="#m93b0483c22" y="178.2"/>
      </g>
     </g>
     <g id="line2d_16">
      <g>
       <use style="stroke:#000000;stroke-width:0.5;" x="134.039732143" xlink:href="#m741efc42ff" y="15.3"/>
      </g>
     </g>
     <g id="text_5">
      <!-- 0.65 -->
      <g transform="translate(123.673325893 189.7984375)scale(0.1 -0.1)">
       <use xlink:href="#BitstreamVeraSans-Roman-30"/>
       <use x="63.623046875" xlink:href="#BitstreamVeraSans-Roman-2e"/>
       <use x="95.41015625" xlink:href="#BitstreamVeraSans-Roman-36"/>
       <use x="159.033203125" xlink:href="#BitstreamVeraSans-Roman-35"/>
      </g>
     </g>
    </g>
    <g id="xtick_6">
     <g id="line2d_17">
      <g>
       <use style="stroke:#000000;stroke-width:0.5;" x="156.644196429" xlink:href="#m93b0483c22" y="178.2"/>
      </g>
     </g>
     <g id="line2d_18">
      <g>
       <use style="stroke:#000000;stroke-width:0.5;" x="156.644196429" xlink:href="#m741efc42ff" y="15.3"/>
      </g>
     </g>
     <g id="text_6">
      <!-- 0.70 -->
      <defs>
       <path d="
M8.20312 72.9062
L55.0781 72.9062
L55.0781 68.7031
L28.6094 0
L18.3125 0
L43.2188 64.5938
L8.20312 64.5938
z
" id="BitstreamVeraSans-Roman-37"/>
      </defs>
      <g transform="translate(146.173102679 189.7984375)scale(0.1 -0.1)">
       <use xlink:href="#BitstreamVeraSans-Roman-30"/>
       <use x="63.623046875" xlink:href="#BitstreamVeraSans-Roman-2e"/>
       <use x="95.41015625" xlink:href="#BitstreamVeraSans-Roman-37"/>
       <use x="159.033203125" xlink:href="#BitstreamVeraSans-Roman-30"/>
      </g>
     </g>
    </g>
    <g id="xtick_7">
     <g id="line2d_19">
      <g>
       <use style="stroke:#000000;stroke-width:0.5;" x="179.248660714" xlink:href="#m93b0483c22" y="178.2"/>
      </g>
     </g>
     <g id="line2d_20">
      <g>
       <use style="stroke:#000000;stroke-width:0.5;" x="179.248660714" xlink:href="#m741efc42ff" y="15.3"/>
      </g>
     </g>
     <g id="text_7">
      <!-- 0.75 -->
      <g transform="translate(168.882254464 189.7984375)scale(0.1 -0.1)">
       <use xlink:href="#BitstreamVeraSans-Roman-30"/>
       <use x="63.623046875" xlink:href="#BitstreamVeraSans-Roman-2e"/>
       <use x="95.41015625" xlink:href="#BitstreamVeraSans-Roman-37"/>
       <use x="159.033203125" xlink:href="#BitstreamVeraSans-Roman-35"/>
      </g>
     </g>
    </g>
    <g id="xtick_8">
     <g id="line2d_21">
      <g>
       <use style="stroke:#000000;stroke-width:0.5;" x="201.853125" xlink:href="#m93b0483c22" y="178.2"/>
      </g>
     </g>
     <g id="line2d_22">
      <g>
       <use style="stroke:#000000;stroke-width:0.5;" x="201.853125" xlink:href="#m741efc42ff" y="15.3"/>
      </g>
     </g>
     <g id="text_8">
      <!-- 0.80 -->
      <defs>
       <path d="
M31.7812 34.625
Q24.75 34.625 20.7188 30.8594
Q16.7031 27.0938 16.7031 20.5156
Q16.7031 13.9219 20.7188 10.1562
Q24.75 6.39062 31.7812 6.39062
Q38.8125 6.39062 42.8594 10.1719
Q46.9219 13.9688 46.9219 20.5156
Q46.9219 27.0938 42.8906 30.8594
Q38.875 34.625 31.7812 34.625
M21.9219 38.8125
Q15.5781 40.375 12.0312 44.7188
Q8.5 49.0781 8.5 55.3281
Q8.5 64.0625 14.7188 69.1406
Q20.9531 74.2188 31.7812 74.2188
Q42.6719 74.2188 48.875 69.1406
Q55.0781 64.0625 55.0781 55.3281
Q55.0781 49.0781 51.5312 44.7188
Q48 40.375 41.7031 38.8125
Q48.8281 37.1562 52.7969 32.3125
Q56.7812 27.4844 56.7812 20.5156
Q56.7812 9.90625 50.3125 4.23438
Q43.8438 -1.42188 31.7812 -1.42188
Q19.7344 -1.42188 13.25 4.23438
Q6.78125 9.90625 6.78125 20.5156
Q6.78125 27.4844 10.7812 32.3125
Q14.7969 37.1562 21.9219 38.8125
M18.3125 54.3906
Q18.3125 48.7344 21.8438 45.5625
Q25.3906 42.3906 31.7812 42.3906
Q38.1406 42.3906 41.7188 45.5625
Q45.3125 48.7344 45.3125 54.3906
Q45.3125 60.0625 41.7188 63.2344
Q38.1406 66.4062 31.7812 66.4062
Q25.3906 66.4062 21.8438 63.2344
Q18.3125 60.0625 18.3125 54.3906" id="BitstreamVeraSans-Roman-38"/>
      </defs>
      <g transform="translate(191.38203125 189.7984375)scale(0.1 -0.1)">
       <use xlink:href="#BitstreamVeraSans-Roman-30"/>
       <use x="63.623046875" xlink:href="#BitstreamVeraSans-Roman-2e"/>
       <use x="95.41015625" xlink:href="#BitstreamVeraSans-Roman-38"/>
       <use x="159.033203125" xlink:href="#BitstreamVeraSans-Roman-30"/>
      </g>
     </g>
    </g>
    <g id="text_9">
     <!-- X component -->
     <defs>
      <path id="BitstreamVeraSans-Roman-20"/>
      <path d="
M54.8906 33.0156
L54.8906 0
L45.9062 0
L45.9062 32.7188
Q45.9062 40.4844 42.875 44.3281
Q39.8438 48.1875 33.7969 48.1875
Q26.5156 48.1875 22.3125 43.5469
Q18.1094 38.9219 18.1094 30.9062
L18.1094 0
L9.07812 0
L9.07812 54.6875
L18.1094 54.6875
L18.1094 46.1875
Q21.3438 51.125 25.7031 53.5625
Q30.0781 56 35.7969 56
Q45.2188 56 50.0469 50.1719
Q54.8906 44.3438 54.8906 33.0156" id="BitstreamVeraSans-Roman-6e"/>
      <path d="
M52 44.1875
Q55.375 50.25 60.0625 53.125
Q64.75 56 71.0938 56
Q79.6406 56 84.2812 50.0156
Q88.9219 44.0469 88.9219 33.0156
L88.9219 0
L79.8906 0
L79.8906 32.7188
Q79.8906 40.5781 77.0938 44.375
Q74.3125 48.1875 68.6094 48.1875
Q61.625 48.1875 57.5625 43.5469
Q53.5156 38.9219 53.5156 30.9062
L53.5156 0
L44.4844 0
L44.4844 32.7188
Q44.4844 40.625 41.7031 44.4062
Q38.9219 48.1875 33.1094 48.1875
Q26.2188 48.1875 22.1562 43.5312
Q18.1094 38.875 18.1094 30.9062
L18.1094 0
L9.07812 0
L9.07812 54.6875
L18.1094 54.6875
L18.1094 46.1875
Q21.1875 51.2188 25.4844 53.6094
Q29.7812 56 35.6875 56
Q41.6562 56 45.8281 52.9688
Q50 49.9531 52 44.1875" id="BitstreamVeraSans-Roman-6d"/>
      <path d="
M30.6094 48.3906
Q23.3906 48.3906 19.1875 42.75
Q14.9844 37.1094 14.9844 27.2969
Q14.9844 17.4844 19.1562 11.8438
Q23.3438 6.20312 30.6094 6.20312
Q37.7969 6.20312 41.9844 11.8594
Q46.1875 17.5312 46.1875 27.2969
Q46.1875 37.0156 41.9844 42.7031
Q37.7969 48.3906 30.6094 48.3906
M30.6094 56
Q42.3281 56 49.0156 48.375
Q55.7188 40.7656 55.7188 27.2969
Q55.7188 13.875 49.0156 6.21875
Q42.3281 -1.42188 30.6094 -1.42188
Q18.8438 -1.42188 12.1719 6.21875
Q5.51562 13.875 5.51562 27.2969
Q5.51562 40.7656 12.1719 48.375
Q18.8438 56 30.6094 56" id="BitstreamVeraSans-Roman-6f"/>
      <path d="
M56.2031 29.5938
L56.2031 25.2031
L14.8906 25.2031
Q15.4844 15.9219 20.4844 11.0625
Q25.4844 6.20312 34.4219 6.20312
Q39.5938 6.20312 44.4531 7.46875
Q49.3125 8.73438 54.1094 11.2812
L54.1094 2.78125
Q49.2656 0.734375 44.1875 -0.34375
Q39.1094 -1.42188 33.8906 -1.42188
Q20.7969 -1.42188 13.1562 6.1875
Q5.51562 13.8125 5.51562 26.8125
Q5.51562 40.2344 12.7656 48.1094
Q20.0156 56 32.3281 56
Q43.3594 56 49.7812 48.8906
Q56.2031 41.7969 56.2031 29.5938
M47.2188 32.2344
Q47.125 39.5938 43.0938 43.9844
Q39.0625 48.3906 32.4219 48.3906
Q24.9062 48.3906 20.3906 44.1406
Q15.875 39.8906 15.1875 32.1719
z
" id="BitstreamVeraSans-Roman-65"/>
      <path d="
M48.7812 52.5938
L48.7812 44.1875
Q44.9688 46.2969 41.1406 47.3438
Q37.3125 48.3906 33.4062 48.3906
Q24.6562 48.3906 19.8125 42.8438
Q14.9844 37.3125 14.9844 27.2969
Q14.9844 17.2812 19.8125 11.7344
Q24.6562 6.20312 33.4062 6.20312
Q37.3125 6.20312 41.1406 7.25
Q44.9688 8.29688 48.7812 10.4062
L48.7812 2.09375
Q45.0156 0.34375 40.9844 -0.53125
Q36.9688 -1.42188 32.4219 -1.42188
Q20.0625 -1.42188 12.7812 6.34375
Q5.51562 14.1094 5.51562 27.2969
Q5.51562 40.6719 12.8594 48.3281
Q20.2188 56 33.0156 56
Q37.1562 56 41.1094 55.1406
Q45.0625 54.2969 48.7812 52.5938" id="BitstreamVeraSans-Roman-63"/>
      <path d="
M6.29688 72.9062
L16.8906 72.9062
L35.0156 45.7969
L53.2188 72.9062
L63.8125 72.9062
L40.375 37.8906
L65.375 0
L54.7812 0
L34.2812 31
L13.625 0
L2.98438 0
L29 38.9219
z
" id="BitstreamVeraSans-Roman-58"/>
      <path d="
M18.3125 70.2188
L18.3125 54.6875
L36.8125 54.6875
L36.8125 47.7031
L18.3125 47.7031
L18.3125 18.0156
Q18.3125 11.3281 20.1406 9.42188
Q21.9688 7.51562 27.5938 7.51562
L36.8125 7.51562
L36.8125 0
L27.5938 0
Q17.1875 0 13.2344 3.875
Q9.28125 7.76562 9.28125 18.0156
L9.28125 47.7031
L2.6875 47.7031
L2.6875 54.6875
L9.28125 54.6875
L9.28125 70.2188
z
" id="BitstreamVeraSans-Roman-74"/>
      <path d="
M18.1094 8.20312
L18.1094 -20.7969
L9.07812 -20.7969
L9.07812 54.6875
L18.1094 54.6875
L18.1094 46.3906
Q20.9531 51.2656 25.2656 53.625
Q29.5938 56 35.5938 56
Q45.5625 56 51.7812 48.0938
Q58.0156 40.1875 58.0156 27.2969
Q58.0156 14.4062 51.7812 6.48438
Q45.5625 -1.42188 35.5938 -1.42188
Q29.5938 -1.42188 25.2656 0.953125
Q20.9531 3.32812 18.1094 8.20312
M48.6875 27.2969
Q48.6875 37.2031 44.6094 42.8438
Q40.5312 48.4844 33.4062 48.4844
Q26.2656 48.4844 22.1875 42.8438
Q18.1094 37.2031 18.1094 27.2969
Q18.1094 17.3906 22.1875 11.75
Q26.2656 6.10938 33.4062 6.10938
Q40.5312 6.10938 44.6094 11.75
Q48.6875 17.3906 48.6875 27.2969" id="BitstreamVeraSans-Roman-70"/>
     </defs>
     <g transform="translate(89.55625 204.4765625)scale(0.1 -0.1)">
      <use xlink:href="#BitstreamVeraSans-Roman-58"/>
      <use x="68.505859375" xlink:href="#BitstreamVeraSans-Roman-20"/>
      <use x="100.29296875" xlink:href="#BitstreamVeraSans-Roman-63"/>
      <use x="155.2734375" xlink:href="#BitstreamVeraSans-Roman-6f"/>
      <use x="216.455078125" xlink:href="#BitstreamVeraSans-Roman-6d"/>
      <use x="313.8671875" xlink:href="#BitstreamVeraSans-Roman-70"/>
      <use x="377.34375" xlink:href="#BitstreamVeraSans-Roman-6f"/>
      <use x="438.525390625" xlink:href="#BitstreamVeraSans-Roman-6e"/>
      <use x="501.904296875" xlink:href="#BitstreamVeraSans-Roman-65"/>
      <use x="563.427734375" xlink:href="#BitstreamVeraSans-Roman-6e"/>
      <use x="626.806640625" xlink:href="#BitstreamVeraSans-Roman-74"/>
     </g>
    </g>
   </g>
   <g id="matplotlib.axis_2">
    <g id="ytick_1">
     <g id="line2d_23">
      <defs>
       <path d="
M0 0
L4 0" id="m728421d6d4" style="stroke:#000000;stroke-width:0.5;"/>
      </defs>
      <g>
       <use style="stroke:#000000;stroke-width:0.5;" x="43.621875" xlink:href="#m728421d6d4" y="178.2"/>
      </g>
     </g>
     <g id="line2d_24">
      <defs>
       <path d="
M0 0
L-4 0" id="mcb0005524f" style="stroke:#000000;stroke-width:0.5;"/>
      </defs>
      <g>
       <use style="stroke:#000000;stroke-width:0.5;" x="201.853125" xlink:href="#mcb0005524f" y="178.2"/>
      </g>
     </g>
     <g id="text_10">
      <!-- 0.0 -->
      <g transform="translate(25.0421875 180.959375)scale(0.1 -0.1)">
       <use xlink:href="#BitstreamVeraSans-Roman-30"/>
       <use x="63.623046875" xlink:href="#BitstreamVeraSans-Roman-2e"/>
       <use x="95.41015625" xlink:href="#BitstreamVeraSans-Roman-30"/>
      </g>
     </g>
    </g>
    <g id="ytick_2">
     <g id="line2d_25">
      <g>
       <use style="stroke:#000000;stroke-width:0.5;" x="43.621875" xlink:href="#m728421d6d4" y="145.62"/>
      </g>
     </g>
     <g id="line2d_26">
      <g>
       <use style="stroke:#000000;stroke-width:0.5;" x="201.853125" xlink:href="#mcb0005524f" y="145.62"/>
      </g>
     </g>
     <g id="text_11">
      <!-- 0.2 -->
      <defs>
       <path d="
M19.1875 8.29688
L53.6094 8.29688
L53.6094 0
L7.32812 0
L7.32812 8.29688
Q12.9375 14.1094 22.625 23.8906
Q32.3281 33.6875 34.8125 36.5312
Q39.5469 41.8438 41.4219 45.5312
Q43.3125 49.2188 43.3125 52.7812
Q43.3125 58.5938 39.2344 62.25
Q35.1562 65.9219 28.6094 65.9219
Q23.9688 65.9219 18.8125 64.3125
Q13.6719 62.7031 7.8125 59.4219
L7.8125 69.3906
Q13.7656 71.7812 18.9375 73
Q24.125 74.2188 28.4219 74.2188
Q39.75 74.2188 46.4844 68.5469
Q53.2188 62.8906 53.2188 53.4219
Q53.2188 48.9219 51.5312 44.8906
Q49.8594 40.875 45.4062 35.4062
Q44.1875 33.9844 37.6406 27.2188
Q31.1094 20.4531 19.1875 8.29688" id="BitstreamVeraSans-Roman-32"/>
      </defs>
      <g transform="translate(25.3796875 148.379375)scale(0.1 -0.1)">
       <use xlink:href="#BitstreamVeraSans-Roman-30"/>
       <use x="63.623046875" xlink:href="#BitstreamVeraSans-Roman-2e"/>
       <use x="95.41015625" xlink:href="#BitstreamVeraSans-Roman-32"/>
      </g>
     </g>
    </g>
    <g id="ytick_3">
     <g id="line2d_27">
      <g>
       <use style="stroke:#000000;stroke-width:0.5;" x="43.621875" xlink:href="#m728421d6d4" y="113.04"/>
      </g>
     </g>
     <g id="line2d_28">
      <g>
       <use style="stroke:#000000;stroke-width:0.5;" x="201.853125" xlink:href="#mcb0005524f" y="113.04"/>
      </g>
     </g>
     <g id="text_12">
      <!-- 0.4 -->
      <g transform="translate(24.9390625 115.799375)scale(0.1 -0.1)">
       <use xlink:href="#BitstreamVeraSans-Roman-30"/>
       <use x="63.623046875" xlink:href="#BitstreamVeraSans-Roman-2e"/>
       <use x="95.41015625" xlink:href="#BitstreamVeraSans-Roman-34"/>
      </g>
     </g>
    </g>
    <g id="ytick_4">
     <g id="line2d_29">
      <g>
       <use style="stroke:#000000;stroke-width:0.5;" x="43.621875" xlink:href="#m728421d6d4" y="80.46"/>
      </g>
     </g>
     <g id="line2d_30">
      <g>
       <use style="stroke:#000000;stroke-width:0.5;" x="201.853125" xlink:href="#mcb0005524f" y="80.46"/>
      </g>
     </g>
     <g id="text_13">
      <!-- 0.6 -->
      <g transform="translate(25.0078125 83.219375)scale(0.1 -0.1)">
       <use xlink:href="#BitstreamVeraSans-Roman-30"/>
       <use x="63.623046875" xlink:href="#BitstreamVeraSans-Roman-2e"/>
       <use x="95.41015625" xlink:href="#BitstreamVeraSans-Roman-36"/>
      </g>
     </g>
    </g>
    <g id="ytick_5">
     <g id="line2d_31">
      <g>
       <use style="stroke:#000000;stroke-width:0.5;" x="43.621875" xlink:href="#m728421d6d4" y="47.88"/>
      </g>
     </g>
     <g id="line2d_32">
      <g>
       <use style="stroke:#000000;stroke-width:0.5;" x="201.853125" xlink:href="#mcb0005524f" y="47.88"/>
      </g>
     </g>
     <g id="text_14">
      <!-- 0.8 -->
      <g transform="translate(25.0625 50.639375)scale(0.1 -0.1)">
       <use xlink:href="#BitstreamVeraSans-Roman-30"/>
       <use x="63.623046875" xlink:href="#BitstreamVeraSans-Roman-2e"/>
       <use x="95.41015625" xlink:href="#BitstreamVeraSans-Roman-38"/>
      </g>
     </g>
    </g>
    <g id="ytick_6">
     <g id="line2d_33">
      <g>
       <use style="stroke:#000000;stroke-width:0.5;" x="43.621875" xlink:href="#m728421d6d4" y="15.3"/>
      </g>
     </g>
     <g id="line2d_34">
      <g>
       <use style="stroke:#000000;stroke-width:0.5;" x="201.853125" xlink:href="#mcb0005524f" y="15.3"/>
      </g>
     </g>
     <g id="text_15">
      <!-- 1.0 -->
      <defs>
       <path d="
M12.4062 8.29688
L28.5156 8.29688
L28.5156 63.9219
L10.9844 60.4062
L10.9844 69.3906
L28.4219 72.9062
L38.2812 72.9062
L38.2812 8.29688
L54.3906 8.29688
L54.3906 0
L12.4062 0
z
" id="BitstreamVeraSans-Roman-31"/>
      </defs>
      <g transform="translate(25.48125 18.059375)scale(0.1 -0.1)">
       <use xlink:href="#BitstreamVeraSans-Roman-31"/>
       <use x="63.623046875" xlink:href="#BitstreamVeraSans-Roman-2e"/>
       <use x="95.41015625" xlink:href="#BitstreamVeraSans-Roman-30"/>
      </g>
     </g>
    </g>
    <g id="text_16">
     <!-- Cumulative Distribution -->
     <defs>
      <path d="
M41.1094 46.2969
Q39.5938 47.1719 37.8125 47.5781
Q36.0312 48 33.8906 48
Q26.2656 48 22.1875 43.0469
Q18.1094 38.0938 18.1094 28.8125
L18.1094 0
L9.07812 0
L9.07812 54.6875
L18.1094 54.6875
L18.1094 46.1875
Q20.9531 51.1719 25.4844 53.5781
Q30.0312 56 36.5312 56
Q37.4531 56 38.5781 55.875
Q39.7031 55.7656 41.0625 55.5156
z
" id="BitstreamVeraSans-Roman-72"/>
      <path d="
M9.42188 75.9844
L18.4062 75.9844
L18.4062 0
L9.42188 0
z
" id="BitstreamVeraSans-Roman-6c"/>
      <path d="
M19.6719 64.7969
L19.6719 8.10938
L31.5938 8.10938
Q46.6875 8.10938 53.6875 14.9375
Q60.6875 21.7812 60.6875 36.5312
Q60.6875 51.1719 53.6875 57.9844
Q46.6875 64.7969 31.5938 64.7969
z

M9.8125 72.9062
L30.0781 72.9062
Q51.2656 72.9062 61.1719 64.0938
Q71.0938 55.2812 71.0938 36.5312
Q71.0938 17.6719 61.125 8.82812
Q51.1719 0 30.0781 0
L9.8125 0
z
" id="BitstreamVeraSans-Roman-44"/>
      <path d="
M9.42188 54.6875
L18.4062 54.6875
L18.4062 0
L9.42188 0
z

M9.42188 75.9844
L18.4062 75.9844
L18.4062 64.5938
L9.42188 64.5938
z
" id="BitstreamVeraSans-Roman-69"/>
      <path d="
M2.98438 54.6875
L12.5 54.6875
L29.5938 8.79688
L46.6875 54.6875
L56.2031 54.6875
L35.6875 0
L23.4844 0
z
" id="BitstreamVeraSans-Roman-76"/>
      <path d="
M64.4062 67.2812
L64.4062 56.8906
Q59.4219 61.5312 53.7812 63.8125
Q48.1406 66.1094 41.7969 66.1094
Q29.2969 66.1094 22.6562 58.4688
Q16.0156 50.8281 16.0156 36.375
Q16.0156 21.9688 22.6562 14.3281
Q29.2969 6.6875 41.7969 6.6875
Q48.1406 6.6875 53.7812 8.98438
Q59.4219 11.2812 64.4062 15.9219
L64.4062 5.60938
Q59.2344 2.09375 53.4375 0.328125
Q47.6562 -1.42188 41.2188 -1.42188
Q24.6562 -1.42188 15.125 8.70312
Q5.60938 18.8438 5.60938 36.375
Q5.60938 53.9531 15.125 64.0781
Q24.6562 74.2188 41.2188 74.2188
Q47.75 74.2188 53.5312 72.4844
Q59.3281 70.75 64.4062 67.2812" id="BitstreamVeraSans-Roman-43"/>
      <path d="
M8.5 21.5781
L8.5 54.6875
L17.4844 54.6875
L17.4844 21.9219
Q17.4844 14.1562 20.5 10.2656
Q23.5312 6.39062 29.5938 6.39062
Q36.8594 6.39062 41.0781 11.0312
Q45.3125 15.6719 45.3125 23.6875
L45.3125 54.6875
L54.2969 54.6875
L54.2969 0
L45.3125 0
L45.3125 8.40625
Q42.0469 3.42188 37.7188 1
Q33.4062 -1.42188 27.6875 -1.42188
Q18.2656 -1.42188 13.375 4.4375
Q8.5 10.2969 8.5 21.5781" id="BitstreamVeraSans-Roman-75"/>
      <path d="
M34.2812 27.4844
Q23.3906 27.4844 19.1875 25
Q14.9844 22.5156 14.9844 16.5
Q14.9844 11.7188 18.1406 8.90625
Q21.2969 6.10938 26.7031 6.10938
Q34.1875 6.10938 38.7031 11.4062
Q43.2188 16.7031 43.2188 25.4844
L43.2188 27.4844
z

M52.2031 31.2031
L52.2031 0
L43.2188 0
L43.2188 8.29688
Q40.1406 3.32812 35.5469 0.953125
Q30.9531 -1.42188 24.3125 -1.42188
Q15.9219 -1.42188 10.9531 3.29688
Q6 8.01562 6 15.9219
Q6 25.1406 12.1719 29.8281
Q18.3594 34.5156 30.6094 34.5156
L43.2188 34.5156
L43.2188 35.4062
Q43.2188 41.6094 39.1406 45
Q35.0625 48.3906 27.6875 48.3906
Q23 48.3906 18.5469 47.2656
Q14.1094 46.1406 10.0156 43.8906
L10.0156 52.2031
Q14.9375 54.1094 19.5781 55.0469
Q24.2188 56 28.6094 56
Q40.4844 56 46.3438 49.8438
Q52.2031 43.7031 52.2031 31.2031" id="BitstreamVeraSans-Roman-61"/>
      <path d="
M44.2812 53.0781
L44.2812 44.5781
Q40.4844 46.5312 36.375 47.5
Q32.2812 48.4844 27.875 48.4844
Q21.1875 48.4844 17.8438 46.4375
Q14.5 44.3906 14.5 40.2812
Q14.5 37.1562 16.8906 35.375
Q19.2812 33.5938 26.5156 31.9844
L29.5938 31.2969
Q39.1562 29.25 43.1875 25.5156
Q47.2188 21.7812 47.2188 15.0938
Q47.2188 7.46875 41.1875 3.01562
Q35.1562 -1.42188 24.6094 -1.42188
Q20.2188 -1.42188 15.4531 -0.5625
Q10.6875 0.296875 5.42188 2
L5.42188 11.2812
Q10.4062 8.6875 15.2344 7.39062
Q20.0625 6.10938 24.8125 6.10938
Q31.1562 6.10938 34.5625 8.28125
Q37.9844 10.4531 37.9844 14.4062
Q37.9844 18.0625 35.5156 20.0156
Q33.0625 21.9688 24.7031 23.7812
L21.5781 24.5156
Q13.2344 26.2656 9.51562 29.9062
Q5.8125 33.5469 5.8125 39.8906
Q5.8125 47.6094 11.2812 51.7969
Q16.75 56 26.8125 56
Q31.7812 56 36.1719 55.2656
Q40.5781 54.5469 44.2812 53.0781" id="BitstreamVeraSans-Roman-73"/>
      <path d="
M48.6875 27.2969
Q48.6875 37.2031 44.6094 42.8438
Q40.5312 48.4844 33.4062 48.4844
Q26.2656 48.4844 22.1875 42.8438
Q18.1094 37.2031 18.1094 27.2969
Q18.1094 17.3906 22.1875 11.75
Q26.2656 6.10938 33.4062 6.10938
Q40.5312 6.10938 44.6094 11.75
Q48.6875 17.3906 48.6875 27.2969
M18.1094 46.3906
Q20.9531 51.2656 25.2656 53.625
Q29.5938 56 35.5938 56
Q45.5625 56 51.7812 48.0938
Q58.0156 40.1875 58.0156 27.2969
Q58.0156 14.4062 51.7812 6.48438
Q45.5625 -1.42188 35.5938 -1.42188
Q29.5938 -1.42188 25.2656 0.953125
Q20.9531 3.32812 18.1094 8.20312
L18.1094 0
L9.07812 0
L9.07812 75.9844
L18.1094 75.9844
z
" id="BitstreamVeraSans-Roman-62"/>
     </defs>
     <g transform="translate(17.859375 155.62109375)rotate(-90.0)scale(0.1 -0.1)">
      <use xlink:href="#BitstreamVeraSans-Roman-43"/>
      <use x="69.82421875" xlink:href="#BitstreamVeraSans-Roman-75"/>
      <use x="133.203125" xlink:href="#BitstreamVeraSans-Roman-6d"/>
      <use x="230.615234375" xlink:href="#BitstreamVeraSans-Roman-75"/>
      <use x="293.994140625" xlink:href="#BitstreamVeraSans-Roman-6c"/>
      <use x="321.77734375" xlink:href="#BitstreamVeraSans-Roman-61"/>
      <use x="383.056640625" xlink:href="#BitstreamVeraSans-Roman-74"/>
      <use x="422.265625" xlink:href="#BitstreamVeraSans-Roman-69"/>
      <use x="450.048828125" xlink:href="#BitstreamVeraSans-Roman-76"/>
      <use x="509.228515625" xlink:href="#BitstreamVeraSans-Roman-65"/>
      <use x="570.751953125" xlink:href="#BitstreamVeraSans-Roman-20"/>
      <use x="602.5390625" xlink:href="#BitstreamVeraSans-Roman-44"/>
      <use x="679.541015625" xlink:href="#BitstreamVeraSans-Roman-69"/>
      <use x="707.32421875" xlink:href="#BitstreamVeraSans-Roman-73"/>
      <use x="759.423828125" xlink:href="#BitstreamVeraSans-Roman-74"/>
      <use x="798.6328125" xlink:href="#BitstreamVeraSans-Roman-72"/>
      <use x="839.74609375" xlink:href="#BitstreamVeraSans-Roman-69"/>
      <use x="867.529296875" xlink:href="#BitstreamVeraSans-Roman-62"/>
      <use x="931.005859375" xlink:href="#BitstreamVeraSans-Roman-75"/>
      <use x="994.384765625" xlink:href="#BitstreamVeraSans-Roman-74"/>
      <use x="1033.59375" xlink:href="#BitstreamVeraSans-Roman-69"/>
      <use x="1061.37695312" xlink:href="#BitstreamVeraSans-Roman-6f"/>
      <use x="1122.55859375" xlink:href="#BitstreamVeraSans-Roman-6e"/>
     </g>
    </g>
   </g>
  </g>
  <g id="axes_2">
   <g id="patch_7">
    <path d="
M256.022 178.2
L414.253 178.2
L414.253 15.3
L256.022 15.3
z
" style="fill:#ffffff;"/>
   </g>
   <g id="line2d_35">
    <path clip-path="url(#p8077f715d1)" d="
M274.459 178.2
L275.452 178.167
L284.971 178.037
L286.891 177.842
L294.245 177.483
L294.315 177.451
L296.148 177.19
L296.162 177.157
L297.044 176.995
L297.081 176.962
L297.98 176.766
L299.061 176.506
L299.773 176.278
L301.124 175.789
L301.23 175.691
L301.916 175.431
L302.013 175.3
L302.48 175.17
L304.324 174.356
L304.532 174.225
L305.764 173.378
L306.225 172.987
L306.529 172.759
L306.685 172.596
L306.881 172.433
L307.001 172.238
L307.283 172.01
L307.318 171.912
L307.425 171.782
L307.547 171.651
L308.651 170.902
L309.601 169.99
L309.724 169.729
L310.095 169.371
L312.104 166.83
L312.179 166.699
L312.384 166.439
L312.844 165.852
L313.025 165.657
L313.275 165.266
L313.994 164.353
L314.11 164.191
L314.443 163.963
L314.651 163.702
L315.082 162.659
L315.242 162.496
L315.332 162.268
L315.508 161.91
L315.614 161.78
L316.094 160.77
L316.222 160.476
L316.461 159.89
L316.615 159.597
L316.733 159.238
L317.025 158.717
L317.647 157.414
L318.563 155.296
L318.805 154.677
L318.943 154.482
L319.103 153.993
L319.695 152.527
L319.915 152.006
L320.021 151.778
L321.096 148.65
L321.217 148.52
L321.365 147.933
L321.557 147.151
L321.682 146.858
L321.945 146.044
L322.088 145.587
L322.333 144.805
L322.598 143.828
L322.744 143.6
L323.188 142.036
L323.371 141.254
L323.703 140.277
L323.856 139.528
L325.426 133.793
L325.773 132.49
L325.867 132.23
L326.056 131.024
L326.25 130.275
L326.371 129.688
L326.523 129.232
L326.625 128.646
L326.694 128.45
L326.827 127.962
L327.237 126.105
L327.295 125.877
L330.829 110.043
L330.883 109.88
L330.997 109.326
L331.094 108.805
L331.249 108.055
L332.627 102.419
L332.798 101.67
L333.005 100.692
L333.438 99.2912
L333.541 98.9329
L333.877 97.5971
L334.008 97.1084
L334.231 96.0007
L334.386 95.2187
L334.469 95.0233
L334.81 93.0359
L334.939 92.5798
L335.179 91.7327
L335.33 91.2114
L335.423 90.7879
L335.652 89.4847
L336.253 86.8457
L336.398 86.1941
L336.501 85.8357
L337.046 83.1641
L337.332 81.8935
L337.482 81.2745
L337.559 81.0139
L337.683 80.3948
L338.193 78.1142
L338.277 77.8536
L338.35 77.4952
L338.772 75.8011
L339.143 74.4001
L339.256 73.9114
L339.386 73.553
L339.491 73.2598
L339.695 72.4453
L339.949 71.3376
L340.038 71.1421
L340.202 70.5231
L340.329 70.1321
L340.437 69.8715
L340.545 69.3176
L340.735 68.6986
L340.857 68.5357
L340.958 68.1448
L341.06 67.5257
L341.333 66.3203
L341.464 65.9619
L341.6 65.408
L341.763 64.7564
L341.965 64.0723
L342.158 63.4207
L342.233 63.16
L345.246 51.9851
L345.332 51.8222
L345.448 51.2683
L346.106 49.0855
L346.217 48.6945
L346.716 47.0655
L346.766 46.8374
L346.903 46.3162
L347.486 44.5568
L347.652 43.9378
L347.759 43.5794
L347.899 43.2211
L348.064 42.6998
L348.188 42.3414
L348.314 42.1133
L348.456 41.6898
L348.631 41.364
L348.776 40.9079
L348.915 40.4843
L349.623 38.6273
L349.733 38.2363
L353.05 30.58
L353.196 30.3845
L353.315 30.0587
L353.651 29.342
L353.811 28.8859
L354.025 28.5275
L354.22 28.2017
L354.435 27.9085
L354.897 27.0288
L355 26.7356
L355.098 26.5727
L355.217 26.312
L355.408 26.084
L355.717 25.6604
L355.972 25.3998
L356.251 24.8459
L356.518 24.5527
L356.641 24.3898
L356.808 24.1943
L356.951 23.9989
L357.124 23.8034
L357.256 23.5427
L358.087 22.7934
L358.32 22.5328
L358.523 22.4024
L358.641 22.1744
L358.897 21.9137
L359.049 21.7508
L359.547 21.3273
L359.753 21.1318
L359.961 20.9689
L360.042 20.7734
L360.714 20.3825
L360.78 20.2847
L360.914 20.1544
L360.993 20.0241
L361.246 19.8286
L361.313 19.7635
L361.6 19.568
L362.783 18.5254
L363.196 18.2974
L363.366 18.0367
L363.518 17.9716
L364.275 17.7761
L364.303 17.7435
L365.329 17.4829
L365.584 17.2222
L365.585 17.1896
L366.272 16.929
L366.875 16.6358
L367.522 16.5055
L367.781 16.4077
L368.051 16.31
L370.045 16.0493
L371.647 15.8213
L372.739 15.7235
L374.77 15.5932
L374.917 15.5281
L382.074 15.3326
L382.074 15.3326" style="fill:none;stroke:#ff0000;stroke-linecap:square;"/>
   </g>
   <g id="line2d_36">
    <path clip-path="url(#p8077f715d1)" d="
M304.741 178.2
L304.741 15.3" style="fill:none;stroke:#ff0000;stroke-linecap:square;"/>
   </g>
   <g id="line2d_37">
    <path clip-path="url(#p8077f715d1)" d="
M361.877 178.2
L361.877 15.3" style="fill:none;stroke:#ff0000;stroke-linecap:square;"/>
   </g>
   <g id="line2d_38">
    <path clip-path="url(#p8077f715d1)" d="
M268.154 178.2
L283.107 177.874
L285.652 177.679
L285.957 177.614
L289.193 177.125
L292.419 176.897
L296.04 176.31
L299.204 175.594
L299.301 175.528
L299.829 175.366
L300.749 175.105
L301.439 174.649
L301.488 174.584
L302.226 174.421
L302.497 174.29
L302.764 174.127
L303.481 173.834
L303.5 173.802
L303.88 173.639
L303.961 173.508
L305.024 172.955
L305.171 172.759
L305.506 172.596
L305.776 172.433
L306.059 172.303
L306.334 172.042
L306.677 171.782
L306.762 171.684
L307.102 171.456
L307.674 170.837
L308.9 170.022
L308.996 169.86
L309.906 169.11
L310.188 168.947
L310.288 168.882
L312.195 167.058
L312.357 166.862
L312.807 166.569
L314.899 163.734
L315.151 163.572
L315.21 163.441
L315.385 163.311
L315.634 162.953
L315.968 162.724
L316.251 162.236
L316.358 162.008
L316.597 161.552
L316.696 161.389
L317.041 161.063
L317.191 160.867
L317.289 160.77
L317.802 159.89
L317.902 159.76
L318.045 159.434
L318.165 159.304
L318.326 159.108
L318.477 158.815
L318.625 158.554
L320.272 155.948
L320.389 155.785
L320.519 155.589
L320.628 155.231
L321.596 153.895
L321.809 153.472
L321.929 153.211
L322.134 152.853
L322.77 151.68
L322.902 151.289
L323.07 150.996
L323.169 150.865
L323.467 150.181
L323.582 149.888
L323.945 149.073
L324.276 148.357
L324.566 147.705
L324.751 147.314
L324.862 147.021
L325.187 146.5
L325.444 145.815
L325.712 145.229
L325.843 145.001
L325.99 144.74
L326.134 144.577
L326.271 143.958
L326.4 143.633
L326.519 143.339
L326.661 143.079
L326.77 142.786
L327.996 140.44
L328.077 140.309
L328.227 139.951
L328.397 139.462
L328.727 138.387
L328.951 138.224
L329.847 135.976
L329.879 135.846
L330.027 135.683
L330.849 133.793
L330.952 133.631
L331.086 133.337
L331.174 133.109
L331.849 131.741
L331.985 131.383
L332.258 130.601
L332.427 130.112
L332.675 129.297
L332.943 128.483
L334.144 125.225
L334.258 124.834
L335.648 121.283
L335.829 120.599
L337.037 117.406
L337.165 116.819
L337.243 116.493
L337.575 115.418
L337.714 114.995
L338.659 112.258
L338.801 111.9
L338.964 111.281
L339.557 109.717
L339.637 109.554
L339.777 109.163
L339.859 108.837
L340.051 108.251
L340.242 107.795
L340.424 107.013
L340.519 106.752
L340.647 106.198
L340.716 105.938
L340.82 105.449
L340.928 105.025
L341.066 104.634
L341.15 104.341
L341.242 104.146
L342.058 101.148
L342.151 100.888
L346.074 89.0937
L346.298 88.605
L346.434 88.1489
L346.573 87.7253
L346.705 87.3995
L346.811 87.0737
L347.57 84.4673
L347.719 84.0438
L347.775 83.8157
L347.882 83.5225
L348.017 83.0012
L348.338 81.698
L348.461 81.1116
L348.871 79.9713
L349.025 79.3197
L349.249 78.6681
L349.369 78.1794
L349.739 77.2997
L349.868 76.9739
L349.979 76.7785
L350.186 75.9314
L350.577 74.8888
L350.679 74.6282
L350.96 73.7159
L351.113 73.2924
L351.237 73.0318
L351.352 72.6408
L352.264 70.1321
L352.407 69.676
L352.739 68.9267
L352.85 68.666
L352.963 68.3728
L353.041 68.047
L353.605 66.2551
L353.727 66.0596
L353.822 65.8316
L353.96 65.5384
L354.389 64.4958
L354.755 63.551
L354.838 63.4207
L354.968 63.16
L355.332 62.4433
L355.442 61.8568
L355.553 61.6288
L355.664 61.2052
L355.79 60.9446
L355.872 60.8143
L355.947 60.6514
L356.731 58.5337
L356.915 58.0124
L357.052 57.7517
L357.162 57.4259
L357.349 56.8721
L357.649 55.9598
L357.763 55.6992
L358.165 54.6566
L358.254 54.4612
L358.772 52.9299
L358.963 52.4738
L359.721 50.4864
L359.848 50.1606
L359.953 49.9651
L360.041 49.6719
L360.171 49.4438
L360.312 49.0855
L360.474 48.4664
L360.843 47.5868
L361.05 47.0655
L361.159 46.9026
L361.924 45.1759
L362.107 45.013
L362.69 43.8727
L363.063 42.9604
L363.823 41.7224
L363.944 41.4943
L364.086 41.3314
L364.457 40.5169
L364.592 40.1585
L364.819 39.7024
L365.007 39.344
L365.132 39.0834
L365.273 38.6599
L365.416 38.4318
L366.036 37.487
L366.168 37.2589
L366.317 36.9331
L366.396 36.7702
L366.757 35.9883
L366.85 35.858
L368.504 32.6651
L368.561 32.4697
L368.596 32.3719
L368.852 32.209
L369.236 31.5574
L369.457 31.4271
L369.706 30.9058
L369.854 30.7429
L370.002 30.4497
L370.318 30.2216
L370.478 29.9936
L370.818 29.6678
L371.129 29.1791
L371.346 28.8859
L371.477 28.6252
L371.586 28.4297
L371.691 28.2668
L372.279 27.7456
L372.795 27.094
L373.052 26.8985
L373.944 25.9862
L374.233 25.8233
L374.658 25.3346
L374.751 25.1717
L374.935 25.0088
L375.016 24.7808
L375.259 24.5201
L375.532 24.2595
L375.812 24.0966
L376.099 23.9337
L376.908 23.4124
L377.182 23.1844
L377.521 22.9237
L377.605 22.7282
L378.006 22.5002
L378.057 22.435
L378.258 22.3047
L380.396 20.8712
L380.546 20.7409
L382.458 19.7635
L382.572 19.6657
L382.872 19.4702
L383.127 19.2748
L383.546 19.1119
L384.053 18.8186
L384.667 18.6557
L385.08 18.3625
L388.443 17.548
L388.922 17.3851
L389.275 17.2548
L389.322 17.2222
L390.415 17.0267
L394.96 16.0168
L396.54 15.8213
L396.543 15.7887
L401.81 15.3652
L405.103 15.3326
L405.103 15.3326" style="fill:none;stroke:#0000ff;stroke-linecap:square;"/>
   </g>
   <g id="line2d_39">
    <path clip-path="url(#p8077f715d1)" d="
M302.764 178.2
L302.764 15.3" style="fill:none;stroke:#0000ff;stroke-dasharray:6.000000,6.000000;stroke-dashoffset:0.0;"/>
   </g>
   <g id="line2d_40">
    <path clip-path="url(#p8077f715d1)" d="
M382.968 178.2
L382.968 15.3" style="fill:none;stroke:#0000ff;stroke-dasharray:6.000000,6.000000;stroke-dashoffset:0.0;"/>
   </g>
   <g id="patch_8">
    <path d="
M256.022 15.3
L414.253 15.3" style="fill:none;stroke:#000000;stroke-linecap:square;stroke-linejoin:miter;"/>
   </g>
   <g id="patch_9">
    <path d="
M414.253 178.2
L414.253 15.3" style="fill:none;stroke:#000000;stroke-linecap:square;stroke-linejoin:miter;"/>
   </g>
   <g id="patch_10">
    <path d="
M256.022 178.2
L414.253 178.2" style="fill:none;stroke:#000000;stroke-linecap:square;stroke-linejoin:miter;"/>
   </g>
   <g id="patch_11">
    <path d="
M256.022 178.2
L256.022 15.3" style="fill:none;stroke:#000000;stroke-linecap:square;stroke-linejoin:miter;"/>
   </g>
   <g id="matplotlib.axis_3">
    <g id="xtick_9">
     <g id="line2d_41">
      <g>
       <use style="stroke:#000000;stroke-width:0.5;" x="256.021875" xlink:href="#m93b0483c22" y="178.2"/>
      </g>
     </g>
     <g id="line2d_42">
      <g>
       <use style="stroke:#000000;stroke-width:0.5;" x="256.021875" xlink:href="#m741efc42ff" y="15.3"/>
      </g>
     </g>
     <g id="text_17">
      <!-- 0.20 -->
      <g transform="translate(245.55078125 189.7984375)scale(0.1 -0.1)">
       <use xlink:href="#BitstreamVeraSans-Roman-30"/>
       <use x="63.623046875" xlink:href="#BitstreamVeraSans-Roman-2e"/>
       <use x="95.41015625" xlink:href="#BitstreamVeraSans-Roman-32"/>
       <use x="159.033203125" xlink:href="#BitstreamVeraSans-Roman-30"/>
      </g>
     </g>
    </g>
    <g id="xtick_10">
     <g id="line2d_43">
      <g>
       <use style="stroke:#000000;stroke-width:0.5;" x="282.39375" xlink:href="#m93b0483c22" y="178.2"/>
      </g>
     </g>
     <g id="line2d_44">
      <g>
       <use style="stroke:#000000;stroke-width:0.5;" x="282.39375" xlink:href="#m741efc42ff" y="15.3"/>
      </g>
     </g>
     <g id="text_18">
      <!-- 0.25 -->
      <g transform="translate(272.02734375 189.7984375)scale(0.1 -0.1)">
       <use xlink:href="#BitstreamVeraSans-Roman-30"/>
       <use x="63.623046875" xlink:href="#BitstreamVeraSans-Roman-2e"/>
       <use x="95.41015625" xlink:href="#BitstreamVeraSans-Roman-32"/>
       <use x="159.033203125" xlink:href="#BitstreamVeraSans-Roman-35"/>
      </g>
     </g>
    </g>
    <g id="xtick_11">
     <g id="line2d_45">
      <g>
       <use style="stroke:#000000;stroke-width:0.5;" x="308.765625" xlink:href="#m93b0483c22" y="178.2"/>
      </g>
     </g>
     <g id="line2d_46">
      <g>
       <use style="stroke:#000000;stroke-width:0.5;" x="308.765625" xlink:href="#m741efc42ff" y="15.3"/>
      </g>
     </g>
     <g id="text_19">
      <!-- 0.30 -->
      <defs>
       <path d="
M40.5781 39.3125
Q47.6562 37.7969 51.625 33
Q55.6094 28.2188 55.6094 21.1875
Q55.6094 10.4062 48.1875 4.48438
Q40.7656 -1.42188 27.0938 -1.42188
Q22.5156 -1.42188 17.6562 -0.515625
Q12.7969 0.390625 7.625 2.20312
L7.625 11.7188
Q11.7188 9.32812 16.5938 8.10938
Q21.4844 6.89062 26.8125 6.89062
Q36.0781 6.89062 40.9375 10.5469
Q45.7969 14.2031 45.7969 21.1875
Q45.7969 27.6406 41.2812 31.2656
Q36.7656 34.9062 28.7188 34.9062
L20.2188 34.9062
L20.2188 43.0156
L29.1094 43.0156
Q36.375 43.0156 40.2344 45.9219
Q44.0938 48.8281 44.0938 54.2969
Q44.0938 59.9062 40.1094 62.9062
Q36.1406 65.9219 28.7188 65.9219
Q24.6562 65.9219 20.0156 65.0312
Q15.375 64.1562 9.8125 62.3125
L9.8125 71.0938
Q15.4375 72.6562 20.3438 73.4375
Q25.25 74.2188 29.5938 74.2188
Q40.8281 74.2188 47.3594 69.1094
Q53.9062 64.0156 53.9062 55.3281
Q53.9062 49.2656 50.4375 45.0938
Q46.9688 40.9219 40.5781 39.3125" id="BitstreamVeraSans-Roman-33"/>
      </defs>
      <g transform="translate(298.29453125 189.7984375)scale(0.1 -0.1)">
       <use xlink:href="#BitstreamVeraSans-Roman-30"/>
       <use x="63.623046875" xlink:href="#BitstreamVeraSans-Roman-2e"/>
       <use x="95.41015625" xlink:href="#BitstreamVeraSans-Roman-33"/>
       <use x="159.033203125" xlink:href="#BitstreamVeraSans-Roman-30"/>
      </g>
     </g>
    </g>
    <g id="xtick_12">
     <g id="line2d_47">
      <g>
       <use style="stroke:#000000;stroke-width:0.5;" x="335.1375" xlink:href="#m93b0483c22" y="178.2"/>
      </g>
     </g>
     <g id="line2d_48">
      <g>
       <use style="stroke:#000000;stroke-width:0.5;" x="335.1375" xlink:href="#m741efc42ff" y="15.3"/>
      </g>
     </g>
     <g id="text_20">
      <!-- 0.35 -->
      <g transform="translate(324.77109375 189.7984375)scale(0.1 -0.1)">
       <use xlink:href="#BitstreamVeraSans-Roman-30"/>
       <use x="63.623046875" xlink:href="#BitstreamVeraSans-Roman-2e"/>
       <use x="95.41015625" xlink:href="#BitstreamVeraSans-Roman-33"/>
       <use x="159.033203125" xlink:href="#BitstreamVeraSans-Roman-35"/>
      </g>
     </g>
    </g>
    <g id="xtick_13">
     <g id="line2d_49">
      <g>
       <use style="stroke:#000000;stroke-width:0.5;" x="361.509375" xlink:href="#m93b0483c22" y="178.2"/>
      </g>
     </g>
     <g id="line2d_50">
      <g>
       <use style="stroke:#000000;stroke-width:0.5;" x="361.509375" xlink:href="#m741efc42ff" y="15.3"/>
      </g>
     </g>
     <g id="text_21">
      <!-- 0.40 -->
      <g transform="translate(351.03828125 189.7984375)scale(0.1 -0.1)">
       <use xlink:href="#BitstreamVeraSans-Roman-30"/>
       <use x="63.623046875" xlink:href="#BitstreamVeraSans-Roman-2e"/>
       <use x="95.41015625" xlink:href="#BitstreamVeraSans-Roman-34"/>
       <use x="159.033203125" xlink:href="#BitstreamVeraSans-Roman-30"/>
      </g>
     </g>
    </g>
    <g id="xtick_14">
     <g id="line2d_51">
      <g>
       <use style="stroke:#000000;stroke-width:0.5;" x="387.88125" xlink:href="#m93b0483c22" y="178.2"/>
      </g>
     </g>
     <g id="line2d_52">
      <g>
       <use style="stroke:#000000;stroke-width:0.5;" x="387.88125" xlink:href="#m741efc42ff" y="15.3"/>
      </g>
     </g>
     <g id="text_22">
      <!-- 0.45 -->
      <g transform="translate(377.51484375 189.7984375)scale(0.1 -0.1)">
       <use xlink:href="#BitstreamVeraSans-Roman-30"/>
       <use x="63.623046875" xlink:href="#BitstreamVeraSans-Roman-2e"/>
       <use x="95.41015625" xlink:href="#BitstreamVeraSans-Roman-34"/>
       <use x="159.033203125" xlink:href="#BitstreamVeraSans-Roman-35"/>
      </g>
     </g>
    </g>
    <g id="xtick_15">
     <g id="line2d_53">
      <g>
       <use style="stroke:#000000;stroke-width:0.5;" x="414.253125" xlink:href="#m93b0483c22" y="178.2"/>
      </g>
     </g>
     <g id="line2d_54">
      <g>
       <use style="stroke:#000000;stroke-width:0.5;" x="414.253125" xlink:href="#m741efc42ff" y="15.3"/>
      </g>
     </g>
     <g id="text_23">
      <!-- 0.50 -->
      <g transform="translate(403.78203125 189.7984375)scale(0.1 -0.1)">
       <use xlink:href="#BitstreamVeraSans-Roman-30"/>
       <use x="63.623046875" xlink:href="#BitstreamVeraSans-Roman-2e"/>
       <use x="95.41015625" xlink:href="#BitstreamVeraSans-Roman-35"/>
       <use x="159.033203125" xlink:href="#BitstreamVeraSans-Roman-30"/>
      </g>
     </g>
    </g>
    <g id="text_24">
     <!-- Y component -->
     <defs>
      <path d="
M-0.203125 72.9062
L10.4062 72.9062
L30.6094 42.9219
L50.6875 72.9062
L61.2812 72.9062
L35.5 34.7188
L35.5 0
L25.5938 0
L25.5938 34.7188
z
" id="BitstreamVeraSans-Roman-59"/>
     </defs>
     <g transform="translate(302.3171875 204.4765625)scale(0.1 -0.1)">
      <use xlink:href="#BitstreamVeraSans-Roman-59"/>
      <use x="61.083984375" xlink:href="#BitstreamVeraSans-Roman-20"/>
      <use x="92.87109375" xlink:href="#BitstreamVeraSans-Roman-63"/>
      <use x="147.8515625" xlink:href="#BitstreamVeraSans-Roman-6f"/>
      <use x="209.033203125" xlink:href="#BitstreamVeraSans-Roman-6d"/>
      <use x="306.4453125" xlink:href="#BitstreamVeraSans-Roman-70"/>
      <use x="369.921875" xlink:href="#BitstreamVeraSans-Roman-6f"/>
      <use x="431.103515625" xlink:href="#BitstreamVeraSans-Roman-6e"/>
      <use x="494.482421875" xlink:href="#BitstreamVeraSans-Roman-65"/>
      <use x="556.005859375" xlink:href="#BitstreamVeraSans-Roman-6e"/>
      <use x="619.384765625" xlink:href="#BitstreamVeraSans-Roman-74"/>
     </g>
    </g>
   </g>
   <g id="matplotlib.axis_4">
    <g id="ytick_7">
     <g id="line2d_55">
      <g>
       <use style="stroke:#000000;stroke-width:0.5;" x="256.021875" xlink:href="#m728421d6d4" y="178.2"/>
      </g>
     </g>
     <g id="line2d_56">
      <g>
       <use style="stroke:#000000;stroke-width:0.5;" x="414.253125" xlink:href="#mcb0005524f" y="178.2"/>
      </g>
     </g>
     <g id="text_25">
      <!-- 0.0 -->
      <g transform="translate(237.4421875 180.959375)scale(0.1 -0.1)">
       <use xlink:href="#BitstreamVeraSans-Roman-30"/>
       <use x="63.623046875" xlink:href="#BitstreamVeraSans-Roman-2e"/>
       <use x="95.41015625" xlink:href="#BitstreamVeraSans-Roman-30"/>
      </g>
     </g>
    </g>
    <g id="ytick_8">
     <g id="line2d_57">
      <g>
       <use style="stroke:#000000;stroke-width:0.5;" x="256.021875" xlink:href="#m728421d6d4" y="145.62"/>
      </g>
     </g>
     <g id="line2d_58">
      <g>
       <use style="stroke:#000000;stroke-width:0.5;" x="414.253125" xlink:href="#mcb0005524f" y="145.62"/>
      </g>
     </g>
     <g id="text_26">
      <!-- 0.2 -->
      <g transform="translate(237.7796875 148.379375)scale(0.1 -0.1)">
       <use xlink:href="#BitstreamVeraSans-Roman-30"/>
       <use x="63.623046875" xlink:href="#BitstreamVeraSans-Roman-2e"/>
       <use x="95.41015625" xlink:href="#BitstreamVeraSans-Roman-32"/>
      </g>
     </g>
    </g>
    <g id="ytick_9">
     <g id="line2d_59">
      <g>
       <use style="stroke:#000000;stroke-width:0.5;" x="256.021875" xlink:href="#m728421d6d4" y="113.04"/>
      </g>
     </g>
     <g id="line2d_60">
      <g>
       <use style="stroke:#000000;stroke-width:0.5;" x="414.253125" xlink:href="#mcb0005524f" y="113.04"/>
      </g>
     </g>
     <g id="text_27">
      <!-- 0.4 -->
      <g transform="translate(237.3390625 115.799375)scale(0.1 -0.1)">
       <use xlink:href="#BitstreamVeraSans-Roman-30"/>
       <use x="63.623046875" xlink:href="#BitstreamVeraSans-Roman-2e"/>
       <use x="95.41015625" xlink:href="#BitstreamVeraSans-Roman-34"/>
      </g>
     </g>
    </g>
    <g id="ytick_10">
     <g id="line2d_61">
      <g>
       <use style="stroke:#000000;stroke-width:0.5;" x="256.021875" xlink:href="#m728421d6d4" y="80.46"/>
      </g>
     </g>
     <g id="line2d_62">
      <g>
       <use style="stroke:#000000;stroke-width:0.5;" x="414.253125" xlink:href="#mcb0005524f" y="80.46"/>
      </g>
     </g>
     <g id="text_28">
      <!-- 0.6 -->
      <g transform="translate(237.4078125 83.219375)scale(0.1 -0.1)">
       <use xlink:href="#BitstreamVeraSans-Roman-30"/>
       <use x="63.623046875" xlink:href="#BitstreamVeraSans-Roman-2e"/>
       <use x="95.41015625" xlink:href="#BitstreamVeraSans-Roman-36"/>
      </g>
     </g>
    </g>
    <g id="ytick_11">
     <g id="line2d_63">
      <g>
       <use style="stroke:#000000;stroke-width:0.5;" x="256.021875" xlink:href="#m728421d6d4" y="47.88"/>
      </g>
     </g>
     <g id="line2d_64">
      <g>
       <use style="stroke:#000000;stroke-width:0.5;" x="414.253125" xlink:href="#mcb0005524f" y="47.88"/>
      </g>
     </g>
     <g id="text_29">
      <!-- 0.8 -->
      <g transform="translate(237.4625 50.639375)scale(0.1 -0.1)">
       <use xlink:href="#BitstreamVeraSans-Roman-30"/>
       <use x="63.623046875" xlink:href="#BitstreamVeraSans-Roman-2e"/>
       <use x="95.41015625" xlink:href="#BitstreamVeraSans-Roman-38"/>
      </g>
     </g>
    </g>
    <g id="ytick_12">
     <g id="line2d_65">
      <g>
       <use style="stroke:#000000;stroke-width:0.5;" x="256.021875" xlink:href="#m728421d6d4" y="15.3"/>
      </g>
     </g>
     <g id="line2d_66">
      <g>
       <use style="stroke:#000000;stroke-width:0.5;" x="414.253125" xlink:href="#mcb0005524f" y="15.3"/>
      </g>
     </g>
     <g id="text_30">
      <!-- 1.0 -->
      <g transform="translate(237.88125 18.059375)scale(0.1 -0.1)">
       <use xlink:href="#BitstreamVeraSans-Roman-31"/>
       <use x="63.623046875" xlink:href="#BitstreamVeraSans-Roman-2e"/>
       <use x="95.41015625" xlink:href="#BitstreamVeraSans-Roman-30"/>
      </g>
     </g>
    </g>
    <g id="text_31">
     <!-- Cumulative Distribution -->
     <g transform="translate(230.259375 155.62109375)rotate(-90.0)scale(0.1 -0.1)">
      <use xlink:href="#BitstreamVeraSans-Roman-43"/>
      <use x="69.82421875" xlink:href="#BitstreamVeraSans-Roman-75"/>
      <use x="133.203125" xlink:href="#BitstreamVeraSans-Roman-6d"/>
      <use x="230.615234375" xlink:href="#BitstreamVeraSans-Roman-75"/>
      <use x="293.994140625" xlink:href="#BitstreamVeraSans-Roman-6c"/>
      <use x="321.77734375" xlink:href="#BitstreamVeraSans-Roman-61"/>
      <use x="383.056640625" xlink:href="#BitstreamVeraSans-Roman-74"/>
      <use x="422.265625" xlink:href="#BitstreamVeraSans-Roman-69"/>
      <use x="450.048828125" xlink:href="#BitstreamVeraSans-Roman-76"/>
      <use x="509.228515625" xlink:href="#BitstreamVeraSans-Roman-65"/>
      <use x="570.751953125" xlink:href="#BitstreamVeraSans-Roman-20"/>
      <use x="602.5390625" xlink:href="#BitstreamVeraSans-Roman-44"/>
      <use x="679.541015625" xlink:href="#BitstreamVeraSans-Roman-69"/>
      <use x="707.32421875" xlink:href="#BitstreamVeraSans-Roman-73"/>
      <use x="759.423828125" xlink:href="#BitstreamVeraSans-Roman-74"/>
      <use x="798.6328125" xlink:href="#BitstreamVeraSans-Roman-72"/>
      <use x="839.74609375" xlink:href="#BitstreamVeraSans-Roman-69"/>
      <use x="867.529296875" xlink:href="#BitstreamVeraSans-Roman-62"/>
      <use x="931.005859375" xlink:href="#BitstreamVeraSans-Roman-75"/>
      <use x="994.384765625" xlink:href="#BitstreamVeraSans-Roman-74"/>
      <use x="1033.59375" xlink:href="#BitstreamVeraSans-Roman-69"/>
      <use x="1061.37695312" xlink:href="#BitstreamVeraSans-Roman-6f"/>
      <use x="1122.55859375" xlink:href="#BitstreamVeraSans-Roman-6e"/>
     </g>
    </g>
   </g>
  </g>
  <g id="axes_3">
   <g id="patch_12">
    <path d="
M468.422 178.2
L626.653 178.2
L626.653 15.3
L468.422 15.3
z
" style="fill:#ffffff;"/>
   </g>
   <g id="line2d_67">
    <path clip-path="url(#p4b9b0e9bef)" d="
M510.035 178.2
L512.896 178.102
L518.407 177.939
L518.633 177.907
L523.638 177.679
L523.742 177.614
L525.251 177.418
L526.451 177.092
L527.222 176.962
L527.601 176.864
L528.548 176.734
L531.003 176.245
L531.103 176.115
L531.619 175.952
L531.986 175.756
L532.699 175.463
L533.393 175.203
L536.233 173.965
L536.567 173.769
L536.745 173.704
L538.868 172.401
L539.008 172.205
L539.444 171.879
L539.586 171.717
L540.321 171.456
L540.452 171.293
L540.674 171.098
L540.838 170.967
L541.202 170.772
L541.398 170.479
L541.78 170.055
L542.594 169.143
L542.873 168.98
L543.048 168.817
L543.168 168.621
L543.27 168.491
L543.587 168.328
L544.014 167.677
L544.193 167.481
L544.505 167.025
L544.672 166.83
L545.371 165.885
L545.474 165.689
L545.565 165.429
L545.683 165.168
L545.851 164.907
L546.116 164.288
L546.472 163.865
L546.601 163.572
L548.195 160.835
L548.356 160.444
L548.511 160.314
L548.615 160.053
L548.802 159.857
L548.918 159.564
L549.108 159.336
L549.264 159.043
L550.226 157.544
L550.43 157.218
L550.545 157.023
L550.659 156.795
L550.859 156.437
L550.964 156.208
L551.097 155.785
L551.741 154.547
L551.851 154.384
L552.075 153.732
L552.217 153.407
L552.989 151.419
L553.087 151.191
L553.426 150.507
L553.7 149.692
L553.981 149.139
L554.722 147.282
L554.968 146.793
L555.249 145.946
L555.362 145.62
L555.841 144.415
L555.963 144.024
L556.265 143.502
L556.536 142.851
L557.641 139.593
L557.76 139.071
L557.909 138.518
L558.011 138.224
L558.225 137.41
L558.408 136.758
L558.56 136.4
L559.45 133.37
L559.538 133.142
L559.709 132.425
L559.93 131.806
L560.117 131.22
L560.406 130.503
L560.561 130.047
L560.649 129.754
L561.341 127.44
L561.496 127.18
L561.567 126.724
L561.682 126.3
L561.914 125.127
L562.058 124.606
L562.171 124.215
L562.285 123.791
L562.426 123.27
L562.602 122.423
L562.694 121.934
L562.864 121.283
L562.97 120.957
L565.611 110.792
L565.77 110.336
L566.139 109.163
L566.257 108.935
L566.432 107.925
L566.482 107.567
L566.603 106.882
L566.779 106.133
L566.902 105.775
L567.072 105.221
L567.416 103.755
L567.621 102.712
L567.683 102.419
L567.8 101.898
L568.042 100.822
L568.212 99.8777
L568.341 99.0958
L568.397 98.9003
L568.627 98.0206
L568.718 97.8251
L568.827 97.2061
L568.949 96.8152
L569.741 93.492
L569.856 93.0685
L570.005 92.3517
L570.13 91.8304
L570.319 90.9833
L570.419 90.4946
L570.725 89.0937
L570.878 88.7027
L570.985 88.0511
L571.065 87.7253
L571.278 86.7479
L571.417 86.357
L571.543 85.9334
L571.699 85.3796
L571.839 84.8909
L571.994 83.6854
L573.974 76.3875
L574.051 76.1269
L577.778 62.4107
L577.903 61.8894
L578.095 61.4007
L579.192 56.8395
L579.418 56.0902
L579.543 55.7644
L579.917 54.396
L580.001 54.1354
L580.174 53.7444
L580.27 53.5489
L580.66 52.3435
L580.814 51.6267
L582.177 47.3587
L582.298 46.9678
L582.379 46.7397
L583.005 45.1759
L583.106 44.9804
L583.244 44.3288
L583.406 43.8401
L584.054 42.0482
L584.16 41.8853
L584.43 41.2663
L584.568 40.8753
L584.731 40.4192
L586.318 36.1512
L586.501 35.9883
L586.668 35.5322
L586.795 35.2715
L586.929 35.0435
L587.903 32.4371
L588.056 31.8832
L588.449 31.1665
L588.561 30.9384
L588.912 30.7103
L589.079 30.4497
L589.272 30.0262
L589.37 29.7655
L589.434 29.6026
L589.547 29.342
L590.266 28.1365
L590.498 27.9085
L590.886 27.1917
L591.01 27.0288
L591.917 25.5627
L592.153 25.2695
L592.378 25.0088
L592.451 24.8459
L592.783 24.5527
L593.11 24.064
L593.397 23.6405
L593.804 23.1518
L594.262 22.6631
L594.341 22.5328
L594.523 22.4024
L594.641 22.1418
L594.968 21.7508
L595.293 21.6205
L595.375 21.4902
L595.954 20.9363
L596.095 20.7734
L596.634 20.3825
L596.714 20.3173
L597.154 20.0241
L597.29 19.9589
L597.492 19.7635
L599.288 18.4928
L599.629 18.2648
L600.115 17.939
L600.836 17.6783
L600.876 17.5806
L601.861 17.2222
L601.927 17.1245
L602.369 16.9942
L602.661 16.8638
L603.497 16.4403
L606.016 16.1471
L609.3 15.7887
L609.312 15.7561
L610.45 15.5606
L616.051 15.3652
L621.973 15.3326
L621.973 15.3326" style="fill:none;stroke:#ff0000;stroke-linecap:square;"/>
   </g>
   <g id="line2d_68">
    <path clip-path="url(#p4b9b0e9bef)" d="
M535.735 178.2
L535.735 15.3" style="fill:none;stroke:#ff0000;stroke-linecap:square;"/>
   </g>
   <g id="line2d_69">
    <path clip-path="url(#p4b9b0e9bef)" d="
M597.94 178.2
L597.94 15.3" style="fill:none;stroke:#ff0000;stroke-linecap:square;"/>
   </g>
   <g id="line2d_70">
    <path clip-path="url(#p4b9b0e9bef)" d="
M474.901 178.2
L487.776 178.167
L492.871 178.07
L492.914 178.037
L496.555 177.809
L500.571 177.581
L500.855 177.516
L504.033 177.288
L504.142 177.223
L504.904 177.06
L504.914 177.027
L507.046 176.766
L507.555 176.604
L508.724 176.18
L509.553 175.985
L509.573 175.887
L512.709 174.975
L512.908 174.877
L513.748 174.486
L513.814 174.421
L514.702 174.193
L515.111 173.834
L515.618 173.606
L516.288 173.085
L516.614 172.889
L516.756 172.792
L517.186 172.629
L518.639 171.912
L518.696 171.847
L519.917 171.26
L520.62 170.674
L520.776 170.544
L520.88 170.413
L521.122 170.25
L521.196 170.088
L521.477 169.925
L521.711 169.697
L521.864 169.534
L521.97 169.403
L522.446 168.915
L522.513 168.687
L523.008 168.459
L523.091 168.328
L523.494 168.068
L523.615 167.937
L523.986 167.807
L524.364 167.383
L524.807 166.96
L525.224 166.569
L525.344 166.243
L525.498 166.048
L525.63 165.852
L525.812 165.624
L525.96 165.526
L526.234 165.363
L526.344 165.233
L526.548 165.07
L527.182 164.516
L527.413 164.223
L528.307 163.115
L528.657 162.236
L528.849 161.943
L529.143 161.584
L529.369 161.356
L529.456 161.161
L529.821 160.835
L529.936 160.639
L530.055 160.476
L530.063 160.411
L530.235 160.281
L530.335 160.151
L530.537 159.988
L531.542 158.326
L531.75 158.066
L531.941 157.772
L532.4 156.86
L532.693 156.339
L532.879 155.85
L532.972 155.589
L533.087 155.329
L533.252 154.938
L533.413 154.775
L533.58 154.514
L533.948 153.993
L534.101 153.602
L534.197 153.309
L534.388 152.82
L534.503 152.69
L535.612 150.442
L535.835 149.66
L535.966 149.464
L536.086 149.106
L536.354 148.65
L536.569 148.52
L536.589 148.422
L536.765 148.292
L536.883 148.129
L537.044 147.705
L537.193 147.477
L537.328 147.216
L537.434 147.054
L539.38 141.547
L539.473 141.352
L539.697 140.798
L539.818 140.505
L540.278 139.462
L540.388 139.267
L540.538 138.746
L541.199 137.117
L541.618 135.748
L541.759 135.488
L542.259 134.087
L542.46 133.891
L542.674 133.402
L543.019 132.262
L543.164 131.676
L543.245 131.448
L543.416 130.894
L545.369 125.323
L545.657 124.41
L545.797 123.987
L545.895 123.563
L545.988 123.205
L546.146 122.912
L546.488 122.228
L547.683 118.579
L547.781 118.351
L547.945 117.634
L548.102 117.341
L548.913 114.083
L549.1 113.431
L549.243 112.812
L549.329 112.616
L549.445 112.258
L549.714 111.281
L550.476 108.967
L550.826 107.697
L551.014 107.013
L551.861 104.113
L552.204 103.103
L552.297 102.745
L552.397 102.484
L552.552 102.289
L552.669 101.963
L553.299 100.334
L553.414 100.171
L553.534 99.7799
L553.774 99.0632
L553.889 98.5419
L554.442 96.75
L554.64 96.0007
L554.747 95.6423
L554.886 95.1536
L554.985 94.8604
L555.116 94.0784
L555.295 93.6549
L555.486 93.0685
L555.767 91.7653
L555.852 91.5698
L555.983 90.8856
L556.317 89.7779
L556.63 88.5073
L556.744 88.0186
L556.92 87.6602
L557.025 87.3018
L557.177 86.585
L558.415 81.9913
L558.494 81.6003
L558.592 81.4374
L558.826 80.2319
L558.901 80.0365
L559.046 79.6129
L559.136 79.1894
L559.228 78.9287
L559.343 78.7333
L559.535 78.0817
L559.599 77.8862
L559.737 77.3323
L561.798 70.3602
L561.896 69.9367
L562.024 69.6109
L562.163 69.1222
L562.512 68.2099
L562.61 67.9819
L562.863 67.3628
L563.057 66.809
L563.327 66.0596
L563.43 65.8967
L563.931 64.3655
L564.052 64.0723
L564.264 63.5184
L564.399 63.3555
L564.514 63.0297
L565.18 61.0097
L565.359 60.3907
L565.495 59.8694
L565.886 58.9572
L565.997 58.7291
L566.109 58.3382
L566.235 58.1427
L566.441 57.5237
L566.601 57.263
L566.708 57.1327
L566.806 56.9047
L566.917 56.5789
L567.433 55.015
L567.605 54.2005
L567.731 53.8096
L567.877 53.5489
L567.983 53.158
L568.054 52.9299
L568.214 52.3109
L568.318 52.0502
L568.694 51.0077
L568.958 50.2909
L569.223 49.8022
L569.327 49.4438
L569.426 49.2484
L569.743 48.7597
L570.007 48.1732
L570.15 47.8148
L570.454 47.0981
L570.544 46.8374
L570.698 46.4791
L570.835 46.0229
L571.524 44.2636
L571.672 43.7423
L571.9 43.2862
L572.086 42.8301
L572.288 42.374
L572.447 41.9179
L572.535 41.755
L573.076 40.4518
L573.165 40.354
L573.28 40.1585
L573.382 39.8653
L573.55 39.6373
L574.276 38.1386
L574.442 37.715
L574.543 37.5521
L574.914 36.9657
L575.042 36.8028
L575.259 36.2489
L575.555 35.6299
L575.636 35.4344
L575.936 35.1086
L575.942 35.0761
L576.144 34.9132
L576.271 34.6525
L576.446 34.1964
L576.573 34.0009
L576.776 33.838
L577.009 33.4145
L577.313 33.0235
L577.513 32.6977
L577.772 31.8832
L577.877 31.6226
L577.957 31.4271
L578.214 31.2642
L578.869 30.2216
L579.067 29.7655
L579.246 29.5375
L579.484 29.2117
L579.591 29.0162
L579.601 28.9836
L579.855 28.8207
L580.009 28.6578
L580.763 27.2894
L581.248 26.9311
L581.468 26.6704
L581.648 26.4424
L581.82 26.2143
L582.471 25.6604
L582.653 25.4975
L582.747 25.4324
L582.924 25.2695
L583.083 25.1717
L583.417 24.7808
L583.456 24.683
L583.702 24.5201
L583.909 24.2269
L584.272 24.0314
L584.504 23.6405
L584.69 23.5102
L584.988 23.3473
L585.118 23.2821
L585.436 22.9563
L585.821 22.5002
L586.151 22.2721
L586.242 22.1744
L586.654 21.7183
L587.091 21.4902
L587.389 21.3273
L587.493 21.1644
L587.848 20.8386
L588.101 20.6431
L588.153 20.5128
L588.578 20.2196
L590.638 18.949
L591.461 18.7861
L591.675 18.558
L591.702 18.5254
L592.049 18.3951
L592.216 18.2648
L595.119 17.2548
L596.528 17.0267
L596.539 16.9942
L598.614 16.6684
L600.175 16.3426
L603.225 15.9516
L603.252 15.919
L605.743 15.691
L608.966 15.4629
L609.012 15.4303
L610.932 15.3652
L615.921 15.3326
L615.921 15.3326" style="fill:none;stroke:#0000ff;stroke-linecap:square;"/>
   </g>
   <g id="line2d_71">
    <path clip-path="url(#p4b9b0e9bef)" d="
M514.793 178.2
L514.793 15.3" style="fill:none;stroke:#0000ff;stroke-dasharray:6.000000,6.000000;stroke-dashoffset:0.0;"/>
   </g>
   <g id="line2d_72">
    <path clip-path="url(#p4b9b0e9bef)" d="
M589.839 178.2
L589.839 15.3" style="fill:none;stroke:#0000ff;stroke-dasharray:6.000000,6.000000;stroke-dashoffset:0.0;"/>
   </g>
   <g id="patch_13">
    <path d="
M468.422 15.3
L626.653 15.3" style="fill:none;stroke:#000000;stroke-linecap:square;stroke-linejoin:miter;"/>
   </g>
   <g id="patch_14">
    <path d="
M626.653 178.2
L626.653 15.3" style="fill:none;stroke:#000000;stroke-linecap:square;stroke-linejoin:miter;"/>
   </g>
   <g id="patch_15">
    <path d="
M468.422 178.2
L626.653 178.2" style="fill:none;stroke:#000000;stroke-linecap:square;stroke-linejoin:miter;"/>
   </g>
   <g id="patch_16">
    <path d="
M468.422 178.2
L468.422 15.3" style="fill:none;stroke:#000000;stroke-linecap:square;stroke-linejoin:miter;"/>
   </g>
   <g id="matplotlib.axis_5">
    <g id="xtick_16">
     <g id="line2d_73">
      <g>
       <use style="stroke:#000000;stroke-width:0.5;" x="468.421875" xlink:href="#m93b0483c22" y="178.2"/>
      </g>
     </g>
     <g id="line2d_74">
      <g>
       <use style="stroke:#000000;stroke-width:0.5;" x="468.421875" xlink:href="#m741efc42ff" y="15.3"/>
      </g>
     </g>
     <g id="text_32">
      <!-- 0.55 -->
      <g transform="translate(458.05546875 189.7984375)scale(0.1 -0.1)">
       <use xlink:href="#BitstreamVeraSans-Roman-30"/>
       <use x="63.623046875" xlink:href="#BitstreamVeraSans-Roman-2e"/>
       <use x="95.41015625" xlink:href="#BitstreamVeraSans-Roman-35"/>
       <use x="159.033203125" xlink:href="#BitstreamVeraSans-Roman-35"/>
      </g>
     </g>
    </g>
    <g id="xtick_17">
     <g id="line2d_75">
      <g>
       <use style="stroke:#000000;stroke-width:0.5;" x="500.068125" xlink:href="#m93b0483c22" y="178.2"/>
      </g>
     </g>
     <g id="line2d_76">
      <g>
       <use style="stroke:#000000;stroke-width:0.5;" x="500.068125" xlink:href="#m741efc42ff" y="15.3"/>
      </g>
     </g>
     <g id="text_33">
      <!-- 0.60 -->
      <g transform="translate(489.59703125 189.7984375)scale(0.1 -0.1)">
       <use xlink:href="#BitstreamVeraSans-Roman-30"/>
       <use x="63.623046875" xlink:href="#BitstreamVeraSans-Roman-2e"/>
       <use x="95.41015625" xlink:href="#BitstreamVeraSans-Roman-36"/>
       <use x="159.033203125" xlink:href="#BitstreamVeraSans-Roman-30"/>
      </g>
     </g>
    </g>
    <g id="xtick_18">
     <g id="line2d_77">
      <g>
       <use style="stroke:#000000;stroke-width:0.5;" x="531.714375" xlink:href="#m93b0483c22" y="178.2"/>
      </g>
     </g>
     <g id="line2d_78">
      <g>
       <use style="stroke:#000000;stroke-width:0.5;" x="531.714375" xlink:href="#m741efc42ff" y="15.3"/>
      </g>
     </g>
     <g id="text_34">
      <!-- 0.65 -->
      <g transform="translate(521.34796875 189.7984375)scale(0.1 -0.1)">
       <use xlink:href="#BitstreamVeraSans-Roman-30"/>
       <use x="63.623046875" xlink:href="#BitstreamVeraSans-Roman-2e"/>
       <use x="95.41015625" xlink:href="#BitstreamVeraSans-Roman-36"/>
       <use x="159.033203125" xlink:href="#BitstreamVeraSans-Roman-35"/>
      </g>
     </g>
    </g>
    <g id="xtick_19">
     <g id="line2d_79">
      <g>
       <use style="stroke:#000000;stroke-width:0.5;" x="563.360625" xlink:href="#m93b0483c22" y="178.2"/>
      </g>
     </g>
     <g id="line2d_80">
      <g>
       <use style="stroke:#000000;stroke-width:0.5;" x="563.360625" xlink:href="#m741efc42ff" y="15.3"/>
      </g>
     </g>
     <g id="text_35">
      <!-- 0.70 -->
      <g transform="translate(552.88953125 189.7984375)scale(0.1 -0.1)">
       <use xlink:href="#BitstreamVeraSans-Roman-30"/>
       <use x="63.623046875" xlink:href="#BitstreamVeraSans-Roman-2e"/>
       <use x="95.41015625" xlink:href="#BitstreamVeraSans-Roman-37"/>
       <use x="159.033203125" xlink:href="#BitstreamVeraSans-Roman-30"/>
      </g>
     </g>
    </g>
    <g id="xtick_20">
     <g id="line2d_81">
      <g>
       <use style="stroke:#000000;stroke-width:0.5;" x="595.006875" xlink:href="#m93b0483c22" y="178.2"/>
      </g>
     </g>
     <g id="line2d_82">
      <g>
       <use style="stroke:#000000;stroke-width:0.5;" x="595.006875" xlink:href="#m741efc42ff" y="15.3"/>
      </g>
     </g>
     <g id="text_36">
      <!-- 0.75 -->
      <g transform="translate(584.64046875 189.7984375)scale(0.1 -0.1)">
       <use xlink:href="#BitstreamVeraSans-Roman-30"/>
       <use x="63.623046875" xlink:href="#BitstreamVeraSans-Roman-2e"/>
       <use x="95.41015625" xlink:href="#BitstreamVeraSans-Roman-37"/>
       <use x="159.033203125" xlink:href="#BitstreamVeraSans-Roman-35"/>
      </g>
     </g>
    </g>
    <g id="xtick_21">
     <g id="line2d_83">
      <g>
       <use style="stroke:#000000;stroke-width:0.5;" x="626.653125" xlink:href="#m93b0483c22" y="178.2"/>
      </g>
     </g>
     <g id="line2d_84">
      <g>
       <use style="stroke:#000000;stroke-width:0.5;" x="626.653125" xlink:href="#m741efc42ff" y="15.3"/>
      </g>
     </g>
     <g id="text_37">
      <!-- 0.80 -->
      <g transform="translate(616.18203125 189.7984375)scale(0.1 -0.1)">
       <use xlink:href="#BitstreamVeraSans-Roman-30"/>
       <use x="63.623046875" xlink:href="#BitstreamVeraSans-Roman-2e"/>
       <use x="95.41015625" xlink:href="#BitstreamVeraSans-Roman-38"/>
       <use x="159.033203125" xlink:href="#BitstreamVeraSans-Roman-30"/>
      </g>
     </g>
    </g>
    <g id="text_38">
     <!-- Z component -->
     <defs>
      <path d="
M5.60938 72.9062
L62.8906 72.9062
L62.8906 65.375
L16.7969 8.29688
L64.0156 8.29688
L64.0156 0
L4.5 0
L4.5 7.51562
L50.5938 64.5938
L5.60938 64.5938
z
" id="BitstreamVeraSans-Roman-5a"/>
     </defs>
     <g transform="translate(514.35625 204.4765625)scale(0.1 -0.1)">
      <use xlink:href="#BitstreamVeraSans-Roman-5a"/>
      <use x="68.505859375" xlink:href="#BitstreamVeraSans-Roman-20"/>
      <use x="100.29296875" xlink:href="#BitstreamVeraSans-Roman-63"/>
      <use x="155.2734375" xlink:href="#BitstreamVeraSans-Roman-6f"/>
      <use x="216.455078125" xlink:href="#BitstreamVeraSans-Roman-6d"/>
      <use x="313.8671875" xlink:href="#BitstreamVeraSans-Roman-70"/>
      <use x="377.34375" xlink:href="#BitstreamVeraSans-Roman-6f"/>
      <use x="438.525390625" xlink:href="#BitstreamVeraSans-Roman-6e"/>
      <use x="501.904296875" xlink:href="#BitstreamVeraSans-Roman-65"/>
      <use x="563.427734375" xlink:href="#BitstreamVeraSans-Roman-6e"/>
      <use x="626.806640625" xlink:href="#BitstreamVeraSans-Roman-74"/>
     </g>
    </g>
   </g>
   <g id="matplotlib.axis_6">
    <g id="ytick_13">
     <g id="line2d_85">
      <g>
       <use style="stroke:#000000;stroke-width:0.5;" x="468.421875" xlink:href="#m728421d6d4" y="178.2"/>
      </g>
     </g>
     <g id="line2d_86">
      <g>
       <use style="stroke:#000000;stroke-width:0.5;" x="626.653125" xlink:href="#mcb0005524f" y="178.2"/>
      </g>
     </g>
     <g id="text_39">
      <!-- 0.0 -->
      <g transform="translate(449.8421875 180.959375)scale(0.1 -0.1)">
       <use xlink:href="#BitstreamVeraSans-Roman-30"/>
       <use x="63.623046875" xlink:href="#BitstreamVeraSans-Roman-2e"/>
       <use x="95.41015625" xlink:href="#BitstreamVeraSans-Roman-30"/>
      </g>
     </g>
    </g>
    <g id="ytick_14">
     <g id="line2d_87">
      <g>
       <use style="stroke:#000000;stroke-width:0.5;" x="468.421875" xlink:href="#m728421d6d4" y="145.62"/>
      </g>
     </g>
     <g id="line2d_88">
      <g>
       <use style="stroke:#000000;stroke-width:0.5;" x="626.653125" xlink:href="#mcb0005524f" y="145.62"/>
      </g>
     </g>
     <g id="text_40">
      <!-- 0.2 -->
      <g transform="translate(450.1796875 148.379375)scale(0.1 -0.1)">
       <use xlink:href="#BitstreamVeraSans-Roman-30"/>
       <use x="63.623046875" xlink:href="#BitstreamVeraSans-Roman-2e"/>
       <use x="95.41015625" xlink:href="#BitstreamVeraSans-Roman-32"/>
      </g>
     </g>
    </g>
    <g id="ytick_15">
     <g id="line2d_89">
      <g>
       <use style="stroke:#000000;stroke-width:0.5;" x="468.421875" xlink:href="#m728421d6d4" y="113.04"/>
      </g>
     </g>
     <g id="line2d_90">
      <g>
       <use style="stroke:#000000;stroke-width:0.5;" x="626.653125" xlink:href="#mcb0005524f" y="113.04"/>
      </g>
     </g>
     <g id="text_41">
      <!-- 0.4 -->
      <g transform="translate(449.7390625 115.799375)scale(0.1 -0.1)">
       <use xlink:href="#BitstreamVeraSans-Roman-30"/>
       <use x="63.623046875" xlink:href="#BitstreamVeraSans-Roman-2e"/>
       <use x="95.41015625" xlink:href="#BitstreamVeraSans-Roman-34"/>
      </g>
     </g>
    </g>
    <g id="ytick_16">
     <g id="line2d_91">
      <g>
       <use style="stroke:#000000;stroke-width:0.5;" x="468.421875" xlink:href="#m728421d6d4" y="80.46"/>
      </g>
     </g>
     <g id="line2d_92">
      <g>
       <use style="stroke:#000000;stroke-width:0.5;" x="626.653125" xlink:href="#mcb0005524f" y="80.46"/>
      </g>
     </g>
     <g id="text_42">
      <!-- 0.6 -->
      <g transform="translate(449.8078125 83.219375)scale(0.1 -0.1)">
       <use xlink:href="#BitstreamVeraSans-Roman-30"/>
       <use x="63.623046875" xlink:href="#BitstreamVeraSans-Roman-2e"/>
       <use x="95.41015625" xlink:href="#BitstreamVeraSans-Roman-36"/>
      </g>
     </g>
    </g>
    <g id="ytick_17">
     <g id="line2d_93">
      <g>
       <use style="stroke:#000000;stroke-width:0.5;" x="468.421875" xlink:href="#m728421d6d4" y="47.88"/>
      </g>
     </g>
     <g id="line2d_94">
      <g>
       <use style="stroke:#000000;stroke-width:0.5;" x="626.653125" xlink:href="#mcb0005524f" y="47.88"/>
      </g>
     </g>
     <g id="text_43">
      <!-- 0.8 -->
      <g transform="translate(449.8625 50.639375)scale(0.1 -0.1)">
       <use xlink:href="#BitstreamVeraSans-Roman-30"/>
       <use x="63.623046875" xlink:href="#BitstreamVeraSans-Roman-2e"/>
       <use x="95.41015625" xlink:href="#BitstreamVeraSans-Roman-38"/>
      </g>
     </g>
    </g>
    <g id="ytick_18">
     <g id="line2d_95">
      <g>
       <use style="stroke:#000000;stroke-width:0.5;" x="468.421875" xlink:href="#m728421d6d4" y="15.3"/>
      </g>
     </g>
     <g id="line2d_96">
      <g>
       <use style="stroke:#000000;stroke-width:0.5;" x="626.653125" xlink:href="#mcb0005524f" y="15.3"/>
      </g>
     </g>
     <g id="text_44">
      <!-- 1.0 -->
      <g transform="translate(450.28125 18.059375)scale(0.1 -0.1)">
       <use xlink:href="#BitstreamVeraSans-Roman-31"/>
       <use x="63.623046875" xlink:href="#BitstreamVeraSans-Roman-2e"/>
       <use x="95.41015625" xlink:href="#BitstreamVeraSans-Roman-30"/>
      </g>
     </g>
    </g>
    <g id="text_45">
     <!-- Cumulative Distribution -->
     <g transform="translate(442.659375 155.62109375)rotate(-90.0)scale(0.1 -0.1)">
      <use xlink:href="#BitstreamVeraSans-Roman-43"/>
      <use x="69.82421875" xlink:href="#BitstreamVeraSans-Roman-75"/>
      <use x="133.203125" xlink:href="#BitstreamVeraSans-Roman-6d"/>
      <use x="230.615234375" xlink:href="#BitstreamVeraSans-Roman-75"/>
      <use x="293.994140625" xlink:href="#BitstreamVeraSans-Roman-6c"/>
      <use x="321.77734375" xlink:href="#BitstreamVeraSans-Roman-61"/>
      <use x="383.056640625" xlink:href="#BitstreamVeraSans-Roman-74"/>
      <use x="422.265625" xlink:href="#BitstreamVeraSans-Roman-69"/>
      <use x="450.048828125" xlink:href="#BitstreamVeraSans-Roman-76"/>
      <use x="509.228515625" xlink:href="#BitstreamVeraSans-Roman-65"/>
      <use x="570.751953125" xlink:href="#BitstreamVeraSans-Roman-20"/>
      <use x="602.5390625" xlink:href="#BitstreamVeraSans-Roman-44"/>
      <use x="679.541015625" xlink:href="#BitstreamVeraSans-Roman-69"/>
      <use x="707.32421875" xlink:href="#BitstreamVeraSans-Roman-73"/>
      <use x="759.423828125" xlink:href="#BitstreamVeraSans-Roman-74"/>
      <use x="798.6328125" xlink:href="#BitstreamVeraSans-Roman-72"/>
      <use x="839.74609375" xlink:href="#BitstreamVeraSans-Roman-69"/>
      <use x="867.529296875" xlink:href="#BitstreamVeraSans-Roman-62"/>
      <use x="931.005859375" xlink:href="#BitstreamVeraSans-Roman-75"/>
      <use x="994.384765625" xlink:href="#BitstreamVeraSans-Roman-74"/>
      <use x="1033.59375" xlink:href="#BitstreamVeraSans-Roman-69"/>
      <use x="1061.37695312" xlink:href="#BitstreamVeraSans-Roman-6f"/>
      <use x="1122.55859375" xlink:href="#BitstreamVeraSans-Roman-6e"/>
     </g>
    </g>
   </g>
  </g>
 </g>
 <defs>
  <clipPath id="p6285ca8f12">
   <rect height="162.9" width="158.23125" x="43.621875" y="15.3"/>
  </clipPath>
  <clipPath id="p4b9b0e9bef">
   <rect height="162.9" width="158.23125" x="468.421875" y="15.3"/>
  </clipPath>
  <clipPath id="p8077f715d1">
   <rect height="162.9" width="158.23125" x="256.021875" y="15.3"/>
  </clipPath>
 </defs>
</svg>
