<?xml version="1.0" encoding="utf-8" standalone="no"?>
<!DOCTYPE svg PUBLIC "-//W3C//DTD SVG 1.1//EN"
  "http://www.w3.org/Graphics/SVG/1.1/DTD/svg11.dtd">
<!-- Created with matplotlib (http://matplotlib.org/) -->
<svg height="216pt" version="1.1" viewBox="0 0 648 216" width="648pt" xmlns="http://www.w3.org/2000/svg" xmlns:xlink="http://www.w3.org/1999/xlink">
 <defs>
  <style type="text/css">
*{stroke-linecap:butt;stroke-linejoin:round;}
  </style>
 </defs>
 <g id="figure_1">
  <g id="patch_1">
   <path d="
M0 216
L648 216
L648 0
L0 0
z
" style="fill:#ffffff;"/>
  </g>
  <g id="axes_1">
   <g id="patch_2">
    <path d="
M43.6219 178.2
L201.853 178.2
L201.853 15.3
L43.6219 15.3
z
" style="fill:#ffffff;"/>
   </g>
   <g id="line2d_1">
    <path clip-path="url(#p6285ca8f12)" d="
M55.2642 178.2
L70.5532 178.005
L72.9472 177.842
L72.9713 177.809
L80.4384 176.864
L80.4419 176.832
L82.1385 176.604
L82.4543 176.506
L83.363 176.31
L83.5216 176.213
L84.2447 176.017
L84.822 175.854
L84.8506 175.822
L85.6937 175.594
L85.7452 175.496
L86.3915 175.268
L86.7818 174.975
L88.308 174.258
L88.663 174.095
L88.9977 173.899
L89.3289 173.606
L89.9513 173.248
L91.4373 172.205
L91.5715 171.945
L91.7668 171.749
L91.841 171.619
L92.1332 171.456
L92.2177 171.391
L92.7088 171.098
L92.8525 170.935
L93.1153 170.772
L93.3161 170.576
L93.419 170.511
L93.7026 170.283
L94.6596 169.469
L94.7594 169.371
L95.6924 168.393
L95.9319 168.231
L97.3822 166.048
L97.5664 165.885
L97.6959 165.689
L97.7897 165.461
L98.0206 165.233
L98.1333 164.973
L99.1337 163.181
L99.2293 162.985
L99.3877 162.659
L99.6703 162.334
L100.781 159.923
L101.139 159.304
L101.972 157.609
L102.099 157.414
L102.253 156.893
L102.489 156.502
L102.983 155.394
L103.108 155.068
L103.713 153.667
L103.887 153.016
L103.997 152.755
L104.184 152.266
L104.273 152.038
L105.013 149.432
L105.226 148.748
L105.331 148.585
L105.542 148.096
L105.726 147.77
L107.295 143.502
L107.414 143.176
L107.693 142.134
L107.965 140.961
L108.49 139.625
L110.999 130.992
L111.122 130.438
L111.292 129.851
L111.328 129.558
L111.524 129.2
L111.71 128.613
L111.877 127.864
L111.943 127.603
L112.068 127.049
L112.314 125.942
L112.416 125.714
L112.518 125.323
L112.569 125.127
L112.717 124.345
L112.815 123.954
L113.026 122.977
L113.126 122.716
L113.421 121.413
L113.529 121.022
L113.769 120.142
L114.185 118.057
L114.293 117.797
L114.428 116.95
L114.748 115.842
L114.862 115.386
L115.097 114.604
L115.349 113.594
L115.415 113.398
L116.889 107.567
L116.991 107.176
L117.069 106.915
L117.238 106.198
L117.325 105.677
L118.143 102.419
L118.23 101.963
L118.363 101.507
L118.457 101.116
L118.991 98.8025
L119.094 98.5093
L119.808 95.3816
L119.936 94.7952
L120.111 94.0133
L120.192 93.8504
L120.467 92.6123
L120.674 91.9282
L120.801 90.8856
L121.049 89.7127
L121.287 88.8005
L121.444 88.1815
L121.561 87.6602
L121.682 87.2041
L121.832 86.3244
L121.891 86.0638
L122.214 84.4999
L122.363 83.6528
L122.578 82.7732
L122.745 82.089
L122.9 81.5026
L123.058 80.7532
L123.113 80.4274
L123.278 79.6455
L123.444 78.8636
L123.678 77.9839
L123.786 77.3975
L123.884 77.0391
L124.139 76.4201
L124.226 76.1269
L124.322 75.8988
L124.448 75.4427
L124.607 74.8562
L124.684 74.5956
L125.338 71.8263
L125.436 71.5657
L125.503 71.2724
L126.087 69.1547
L126.175 68.9267
L126.308 68.1773
L126.469 67.6235
L126.72 66.8741
L126.821 66.5809
L126.921 66.0596
L127.313 64.7564
L127.621 63.3881
L127.746 62.932
L128.101 61.4333
L129.376 57.0024
L129.641 56.1879
L129.815 55.6015
L130.475 53.158
L130.607 52.7344
L130.743 52.4738
L130.808 52.3109
L131.165 51.0728
L131.289 50.6167
L131.475 50.0954
L131.67 49.509
L131.787 49.0529
L132.113 47.88
L133.834 42.374
L134.041 42.2111
L134.213 41.7875
L135.154 39.344
L135.246 39.1486
L135.448 38.497
L135.658 38.106
L135.789 37.7476
L135.901 37.4218
L136.068 36.9983
L136.467 35.7928
L136.644 35.0761
L136.763 34.7503
L136.852 34.3593
L137.145 34.0009
L137.246 33.7403
L137.34 33.3819
L137.502 33.0561
L137.637 32.6326
L137.729 32.4371
L137.893 32.1439
L138.043 31.7855
L138.152 31.4597
L138.35 31.2642
L139.269 29.5375
L139.436 29.2117
L139.773 28.4949
L139.932 28.1039
L139.999 27.941
L140.186 27.7781
L140.346 27.5501
L140.422 27.3872
L140.727 26.7682
L142.557 23.7056
L142.822 23.4124
L142.874 23.3147
L143.331 22.9889
L143.444 22.8586
L143.622 22.6957
L144.113 22.3047
L144.565 21.7508
L144.816 21.5879
L144.996 21.3273
L145.779 20.6431
L146.228 20.3825
L146.778 19.6983
L147.022 19.5354
L147.166 19.3399
L147.341 19.177
L147.794 18.7535
L148.264 18.6232
L148.367 18.4603
L150.312 17.5806
L151.023 17.3525
L151.39 17.0919
L152.514 16.8313
L153.171 16.6684
L154.578 16.3426
L155.868 16.1145
L156.226 16.0168
L160.141 15.5606
L160.252 15.5281
L165.285 15.3652
L167.173 15.3326
L167.173 15.3326" style="fill:none;stroke:#ff0000;stroke-linecap:square;"/>
   </g>
   <g id="line2d_2">
    <path clip-path="url(#p6285ca8f12)" d="
M88.6191 178.2
L88.6191 15.3" style="fill:none;stroke:#ff0000;stroke-linecap:square;"/>
   </g>
   <g id="line2d_3">
    <path clip-path="url(#p6285ca8f12)" d="
M147.159 178.2
L147.159 15.3" style="fill:none;stroke:#ff0000;stroke-linecap:square;"/>
   </g>
   <g id="line2d_4">
    <path clip-path="url(#p6285ca8f12)" d="
M65.3556 178.2
L76.0821 177.744
L76.3276 177.679
L80.1391 177.385
L80.509 177.255
L83.2073 176.734
L83.2895 176.669
L84.3611 176.473
L85.4378 176.115
L87.4853 175.398
L87.5477 175.333
L87.8716 175.137
L88.0902 175.007
L88.7706 174.844
L89.4518 174.551
L90.1252 174.225
L90.4505 174.062
L90.7974 173.834
L91.7044 173.346
L91.8423 173.183
L92.3621 172.987
L93.6113 172.336
L93.9882 172.173
L94.1164 171.879
L94.7495 171.521
L94.8367 171.456
L95.3634 171.228
L95.4687 171.13
L95.687 170.967
L96.0771 170.641
L96.209 170.511
L96.3309 170.381
L96.6142 170.153
L96.7443 170.088
L96.9204 169.925
L97.0516 169.86
L97.1963 169.664
L97.3137 169.534
L97.4357 169.338
L97.5881 169.24
L97.7911 169.045
L97.9012 168.915
L98.995 168.035
L99.3657 167.514
L99.601 167.286
L100.453 166.113
L100.686 165.95
L100.821 165.363
L100.948 165.168
L101.062 165.005
L101.223 164.81
L101.369 164.712
L101.653 164.419
L101.795 164.158
L101.925 163.995
L102.215 163.409
L102.75 162.627
L102.963 162.366
L103.3 162.04
L103.407 161.877
L103.673 161.682
L103.772 161.486
L104.01 161.226
L104.646 160.216
L105.097 159.662
L105.233 159.499
L105.342 159.336
L105.489 159.01
L105.642 158.685
L105.843 158.457
L105.947 158.261
L106.064 158.098
L106.36 157.544
L106.558 157.023
L106.868 156.599
L106.914 156.437
L107.058 156.274
L107.167 155.98
L107.329 155.557
L108.131 154.221
L108.236 153.993
L108.469 153.374
L108.604 153.244
L108.763 152.885
L108.869 152.657
L109.451 151.745
L109.558 151.354
L110.284 150.018
L110.396 149.627
L110.54 149.464
L110.613 149.204
L110.917 148.324
L111.269 147.51
L111.398 147.216
L111.612 146.858
L111.7 146.532
L111.823 146.272
L111.883 146.076
L112.02 145.75
L112.246 145.229
L112.36 144.838
L113.857 141.352
L113.971 141.157
L114.738 139.104
L114.834 138.974
L114.941 138.518
L115.724 136.302
L116.047 135.227
L116.123 135.064
L116.674 133.468
L116.841 132.914
L116.982 132.425
L117.156 131.839
L117.261 131.643
L117.353 131.448
L117.486 131.089
L117.608 130.796
L118 129.721
L118.096 129.363
L118.199 129.167
L118.5 128.385
L118.743 127.049
L119.093 125.616
L119.172 125.486
L119.387 124.801
L119.478 124.541
L120.023 123.172
L120.195 122.716
L120.354 122.325
L120.452 121.999
L120.726 121.185
L120.859 120.957
L120.907 120.761
L121.059 120.142
L121.377 119.589
L121.495 119.165
L123.235 113.854
L123.394 113.333
L123.702 112.356
L123.915 111.574
L124.295 110.368
L124.486 109.945
L124.599 109.717
L125.333 107.176
L125.452 106.817
L125.672 105.872
L125.725 105.709
L125.838 105.319
L126.017 104.732
L126.086 104.471
L126.231 104.048
L126.316 103.657
L127.221 100.138
L127.38 99.4541
L127.528 98.998
L127.573 98.8025
L127.69 98.2813
L127.762 97.8577
L127.876 97.4993
L128.115 96.2287
L128.199 95.8703
L128.424 94.9255
L128.678 94.0133
L128.816 93.7201
L129.067 93.0033
L129.122 92.7752
L129.232 92.254
L129.411 91.6024
L129.525 91.3417
L130.688 87.1389
L130.795 86.6828
L131.029 86.0638
L131.147 85.7705
L131.222 85.4122
L131.701 83.4899
L134.023 75.8011
L134.126 75.4753
L134.181 75.2798
L134.533 73.8463
L137.202 65.5058
L137.287 65.3429
L140.622 55.015
L140.72 54.6566
L140.893 53.9399
L140.973 53.6467
L143.039 48.0755
L143.208 47.9126
L143.307 47.7823
L144.026 46.5116
L144.195 46.0229
L144.835 44.3939
L145.094 43.5794
L145.235 43.3188
L145.357 43.1233
L145.621 42.3088
L145.778 41.8201
L146.097 41.2663
L146.933 39.735
L147.023 39.6047
L147.135 39.3766
L147.189 39.1811
L147.339 39.0182
L147.47 38.5947
L147.667 38.2037
L147.778 37.9431
L147.892 37.7476
L148.014 37.4218
L148.169 37.096
L148.289 36.7376
L148.578 36.1512
L149.779 34.0335
L150.012 33.838
L150.293 33.2842
L150.467 33.0561
L150.568 32.8606
L150.765 32.4371
L150.828 32.3068
L151.038 32.1113
L151.316 31.6877
L151.704 31.3294
L152.108 30.352
L152.325 30.0587
L152.44 29.8958
L152.611 29.7329
L153.039 29.0813
L153.271 28.9184
L153.75 28.3972
L153.85 28.2343
L154.054 28.0714
L154.137 27.8759
L154.271 27.6152
L154.337 27.4849
L154.713 27.1917
L156.029 25.5301
L156.203 25.2695
L156.439 25.0414
L156.579 24.8134
L156.802 24.6505
L156.939 24.4224
L157.237 24.2921
L157.552 23.9337
L157.926 23.3798
L158.08 23.054
L158.368 22.8586
L159.07 21.9137
L159.668 21.3925
L159.96 21.2296
L160.057 21.0667
L160.387 20.9363
L160.616 20.806
L160.726 20.7409
L161.191 20.3499
L161.697 20.187
L161.71 20.1544
L162.299 19.9589
L162.391 19.8612
L162.965 19.6331
L163.148 19.4377
L164.232 18.949
L164.276 18.8838
L164.668 18.6883
L164.995 18.3951
L165.292 18.2648
L165.299 18.2322
L166.214 17.939
L168.742 16.9942
L169.712 16.7987
L170.54 16.6032
L175.876 15.7561
L177.668 15.6258
L179.665 15.3977
L189.639 15.3326
L189.639 15.3326" style="fill:none;stroke:#0000ff;stroke-linecap:square;"/>
   </g>
   <g id="line2d_5">
    <path clip-path="url(#p6285ca8f12)" d="
M90.3962 178.2
L90.3962 15.3" style="fill:none;stroke:#0000ff;stroke-dasharray:6.000000,6.000000;stroke-dashoffset:0.0;"/>
   </g>
   <g id="line2d_6">
    <path clip-path="url(#p6285ca8f12)" d="
M163.278 178.2
L163.278 15.3" style="fill:none;stroke:#0000ff;stroke-dasharray:6.000000,6.000000;stroke-dashoffset:0.0;"/>
   </g>
   <g id="patch_3">
    <path d="
M43.6219 15.3
L201.853 15.3" style="fill:none;stroke:#000000;stroke-linecap:square;stroke-linejoin:miter;"/>
   </g>
   <g id="patch_4">
    <path d="
M201.853 178.2
L201.853 15.3" style="fill:none;stroke:#000000;stroke-linecap:square;stroke-linejoin:miter;"/>
   </g>
   <g id="patch_5">
    <path d="
M43.6219 178.2
L201.853 178.2" style="fill:none;stroke:#000000;stroke-linecap:square;stroke-linejoin:miter;"/>
   </g>
   <g id="patch_6">
    <path d="
M43.6219 178.2
L43.6219 15.3" style="fill:none;stroke:#000000;stroke-linecap:square;stroke-linejoin:miter;"/>
   </g>
   <g id="matplotlib.axis_1">
    <g id="xtick_1">
     <g id="line2d_7">
      <defs>
       <path d="
M0 0
L0 -4" id="m93b0483c22" style="stroke:#000000;stroke-width:0.5;"/>
      </defs>
      <g>
       <use style="stroke:#000000;stroke-width:0.5;" x="43.621875" xlink:href="#m93b0483c22" y="178.2"/>
      </g>
     </g>
     <g id="line2d_8">
      <defs>
       <path d="
M0 0
L0 4" id="m741efc42ff" style="stroke:#000000;stroke-width:0.5;"/>
      </defs>
      <g>
       <use style="stroke:#000000;stroke-width:0.5;" x="43.621875" xlink:href="#m741efc42ff" y="15.3"/>
      </g>
     </g>
     <g id="text_1">
      <!-- 0.50 -->
      <defs>
       <path d="
M31.7812 66.4062
Q24.1719 66.4062 20.3281 58.9062
Q16.5 51.4219 16.5 36.375
Q16.5 21.3906 20.3281 13.8906
Q24.1719 6.39062 31.7812 6.39062
Q39.4531 6.39062 43.2812 13.8906
Q47.125 21.3906 47.125 36.375
Q47.125 51.4219 43.2812 58.9062
Q39.4531 66.4062 31.7812 66.4062
M31.7812 74.2188
Q44.0469 74.2188 50.5156 64.5156
Q56.9844 54.8281 56.9844 36.375
Q56.9844 17.9688 50.5156 8.26562
Q44.0469 -1.42188 31.7812 -1.42188
Q19.5312 -1.42188 13.0625 8.26562
Q6.59375 17.9688 6.59375 36.375
Q6.59375 54.8281 13.0625 64.5156
Q19.5312 74.2188 31.7812 74.2188" id="BitstreamVeraSans-Roman-30"/>
       <path d="
M10.6875 12.4062
L21 12.4062
L21 0
L10.6875 0
z
" id="BitstreamVeraSans-Roman-2e"/>
       <path d="
M10.7969 72.9062
L49.5156 72.9062
L49.5156 64.5938
L19.8281 64.5938
L19.8281 46.7344
Q21.9688 47.4688 24.1094 47.8281
Q26.2656 48.1875 28.4219 48.1875
Q40.625 48.1875 47.75 41.5
Q54.8906 34.8125 54.8906 23.3906
Q54.8906 11.625 47.5625 5.09375
Q40.2344 -1.42188 26.9062 -1.42188
Q22.3125 -1.42188 17.5469 -0.640625
Q12.7969 0.140625 7.71875 1.70312
L7.71875 11.625
Q12.1094 9.23438 16.7969 8.0625
Q21.4844 6.89062 26.7031 6.89062
Q35.1562 6.89062 40.0781 11.3281
Q45.0156 15.7656 45.0156 23.3906
Q45.0156 31 40.0781 35.4375
Q35.1562 39.8906 26.7031 39.8906
Q22.75 39.8906 18.8125 39.0156
Q14.8906 38.1406 10.7969 36.2812
z
" id="BitstreamVeraSans-Roman-35"/>
      </defs>
      <g transform="translate(33.15078125 189.7984375)scale(0.1 -0.1)">
       <use xlink:href="#BitstreamVeraSans-Roman-30"/>
       <use x="63.623046875" xlink:href="#BitstreamVeraSans-Roman-2e"/>
       <use x="95.41015625" xlink:href="#BitstreamVeraSans-Roman-35"/>
       <use x="159.033203125" xlink:href="#BitstreamVeraSans-Roman-30"/>
      </g>
     </g>
    </g>
    <g id="xtick_2">
     <g id="line2d_9">
      <g>
       <use style="stroke:#000000;stroke-width:0.5;" x="69.99375" xlink:href="#m93b0483c22" y="178.2"/>
      </g>
     </g>
     <g id="line2d_10">
      <g>
       <use style="stroke:#000000;stroke-width:0.5;" x="69.99375" xlink:href="#m741efc42ff" y="15.3"/>
      </g>
     </g>
     <g id="text_2">
      <!-- 0.55 -->
      <g transform="translate(59.62734375 189.7984375)scale(0.1 -0.1)">
       <use xlink:href="#BitstreamVeraSans-Roman-30"/>
       <use x="63.623046875" xlink:href="#BitstreamVeraSans-Roman-2e"/>
       <use x="95.41015625" xlink:href="#BitstreamVeraSans-Roman-35"/>
       <use x="159.033203125" xlink:href="#BitstreamVeraSans-Roman-35"/>
      </g>
     </g>
    </g>
    <g id="xtick_3">
     <g id="line2d_11">
      <g>
       <use style="stroke:#000000;stroke-width:0.5;" x="96.365625" xlink:href="#m93b0483c22" y="178.2"/>
      </g>
     </g>
     <g id="line2d_12">
      <g>
       <use style="stroke:#000000;stroke-width:0.5;" x="96.365625" xlink:href="#m741efc42ff" y="15.3"/>
      </g>
     </g>
     <g id="text_3">
      <!-- 0.60 -->
      <defs>
       <path d="
M33.0156 40.375
Q26.375 40.375 22.4844 35.8281
Q18.6094 31.2969 18.6094 23.3906
Q18.6094 15.5312 22.4844 10.9531
Q26.375 6.39062 33.0156 6.39062
Q39.6562 6.39062 43.5312 10.9531
Q47.4062 15.5312 47.4062 23.3906
Q47.4062 31.2969 43.5312 35.8281
Q39.6562 40.375 33.0156 40.375
M52.5938 71.2969
L52.5938 62.3125
Q48.875 64.0625 45.0938 64.9844
Q41.3125 65.9219 37.5938 65.9219
Q27.8281 65.9219 22.6719 59.3281
Q17.5312 52.7344 16.7969 39.4062
Q19.6719 43.6562 24.0156 45.9219
Q28.375 48.1875 33.5938 48.1875
Q44.5781 48.1875 50.9531 41.5156
Q57.3281 34.8594 57.3281 23.3906
Q57.3281 12.1562 50.6875 5.35938
Q44.0469 -1.42188 33.0156 -1.42188
Q20.3594 -1.42188 13.6719 8.26562
Q6.98438 17.9688 6.98438 36.375
Q6.98438 53.6562 15.1875 63.9375
Q23.3906 74.2188 37.2031 74.2188
Q40.9219 74.2188 44.7031 73.4844
Q48.4844 72.75 52.5938 71.2969" id="BitstreamVeraSans-Roman-36"/>
      </defs>
      <g transform="translate(85.89453125 189.7984375)scale(0.1 -0.1)">
       <use xlink:href="#BitstreamVeraSans-Roman-30"/>
       <use x="63.623046875" xlink:href="#BitstreamVeraSans-Roman-2e"/>
       <use x="95.41015625" xlink:href="#BitstreamVeraSans-Roman-36"/>
       <use x="159.033203125" xlink:href="#BitstreamVeraSans-Roman-30"/>
      </g>
     </g>
    </g>
    <g id="xtick_4">
     <g id="line2d_13">
      <g>
       <use style="stroke:#000000;stroke-width:0.5;" x="122.7375" xlink:href="#m93b0483c22" y="178.2"/>
      </g>
     </g>
     <g id="line2d_14">
      <g>
       <use style="stroke:#000000;stroke-width:0.5;" x="122.7375" xlink:href="#m741efc42ff" y="15.3"/>
      </g>
     </g>
     <g id="text_4">
      <!-- 0.65 -->
      <g transform="translate(112.37109375 189.7984375)scale(0.1 -0.1)">
       <use xlink:href="#BitstreamVeraSans-Roman-30"/>
       <use x="63.623046875" xlink:href="#BitstreamVeraSans-Roman-2e"/>
       <use x="95.41015625" xlink:href="#BitstreamVeraSans-Roman-36"/>
       <use x="159.033203125" xlink:href="#BitstreamVeraSans-Roman-35"/>
      </g>
     </g>
    </g>
    <g id="xtick_5">
     <g id="line2d_15">
      <g>
       <use style="stroke:#000000;stroke-width:0.5;" x="149.109375" xlink:href="#m93b0483c22" y="178.2"/>
      </g>
     </g>
     <g id="line2d_16">
      <g>
       <use style="stroke:#000000;stroke-width:0.5;" x="149.109375" xlink:href="#m741efc42ff" y="15.3"/>
      </g>
     </g>
     <g id="text_5">
      <!-- 0.70 -->
      <defs>
       <path d="
M8.20312 72.9062
L55.0781 72.9062
L55.0781 68.7031
L28.6094 0
L18.3125 0
L43.2188 64.5938
L8.20312 64.5938
z
" id="BitstreamVeraSans-Roman-37"/>
      </defs>
      <g transform="translate(138.63828125 189.7984375)scale(0.1 -0.1)">
       <use xlink:href="#BitstreamVeraSans-Roman-30"/>
       <use x="63.623046875" xlink:href="#BitstreamVeraSans-Roman-2e"/>
       <use x="95.41015625" xlink:href="#BitstreamVeraSans-Roman-37"/>
       <use x="159.033203125" xlink:href="#BitstreamVeraSans-Roman-30"/>
      </g>
     </g>
    </g>
    <g id="xtick_6">
     <g id="line2d_17">
      <g>
       <use style="stroke:#000000;stroke-width:0.5;" x="175.48125" xlink:href="#m93b0483c22" y="178.2"/>
      </g>
     </g>
     <g id="line2d_18">
      <g>
       <use style="stroke:#000000;stroke-width:0.5;" x="175.48125" xlink:href="#m741efc42ff" y="15.3"/>
      </g>
     </g>
     <g id="text_6">
      <!-- 0.75 -->
      <g transform="translate(165.11484375 189.7984375)scale(0.1 -0.1)">
       <use xlink:href="#BitstreamVeraSans-Roman-30"/>
       <use x="63.623046875" xlink:href="#BitstreamVeraSans-Roman-2e"/>
       <use x="95.41015625" xlink:href="#BitstreamVeraSans-Roman-37"/>
       <use x="159.033203125" xlink:href="#BitstreamVeraSans-Roman-35"/>
      </g>
     </g>
    </g>
    <g id="xtick_7">
     <g id="line2d_19">
      <g>
       <use style="stroke:#000000;stroke-width:0.5;" x="201.853125" xlink:href="#m93b0483c22" y="178.2"/>
      </g>
     </g>
     <g id="line2d_20">
      <g>
       <use style="stroke:#000000;stroke-width:0.5;" x="201.853125" xlink:href="#m741efc42ff" y="15.3"/>
      </g>
     </g>
     <g id="text_7">
      <!-- 0.80 -->
      <defs>
       <path d="
M31.7812 34.625
Q24.75 34.625 20.7188 30.8594
Q16.7031 27.0938 16.7031 20.5156
Q16.7031 13.9219 20.7188 10.1562
Q24.75 6.39062 31.7812 6.39062
Q38.8125 6.39062 42.8594 10.1719
Q46.9219 13.9688 46.9219 20.5156
Q46.9219 27.0938 42.8906 30.8594
Q38.875 34.625 31.7812 34.625
M21.9219 38.8125
Q15.5781 40.375 12.0312 44.7188
Q8.5 49.0781 8.5 55.3281
Q8.5 64.0625 14.7188 69.1406
Q20.9531 74.2188 31.7812 74.2188
Q42.6719 74.2188 48.875 69.1406
Q55.0781 64.0625 55.0781 55.3281
Q55.0781 49.0781 51.5312 44.7188
Q48 40.375 41.7031 38.8125
Q48.8281 37.1562 52.7969 32.3125
Q56.7812 27.4844 56.7812 20.5156
Q56.7812 9.90625 50.3125 4.23438
Q43.8438 -1.42188 31.7812 -1.42188
Q19.7344 -1.42188 13.25 4.23438
Q6.78125 9.90625 6.78125 20.5156
Q6.78125 27.4844 10.7812 32.3125
Q14.7969 37.1562 21.9219 38.8125
M18.3125 54.3906
Q18.3125 48.7344 21.8438 45.5625
Q25.3906 42.3906 31.7812 42.3906
Q38.1406 42.3906 41.7188 45.5625
Q45.3125 48.7344 45.3125 54.3906
Q45.3125 60.0625 41.7188 63.2344
Q38.1406 66.4062 31.7812 66.4062
Q25.3906 66.4062 21.8438 63.2344
Q18.3125 60.0625 18.3125 54.3906" id="BitstreamVeraSans-Roman-38"/>
      </defs>
      <g transform="translate(191.38203125 189.7984375)scale(0.1 -0.1)">
       <use xlink:href="#BitstreamVeraSans-Roman-30"/>
       <use x="63.623046875" xlink:href="#BitstreamVeraSans-Roman-2e"/>
       <use x="95.41015625" xlink:href="#BitstreamVeraSans-Roman-38"/>
       <use x="159.033203125" xlink:href="#BitstreamVeraSans-Roman-30"/>
      </g>
     </g>
    </g>
    <g id="text_8">
     <!-- X component -->
     <defs>
      <path id="BitstreamVeraSans-Roman-20"/>
      <path d="
M54.8906 33.0156
L54.8906 0
L45.9062 0
L45.9062 32.7188
Q45.9062 40.4844 42.875 44.3281
Q39.8438 48.1875 33.7969 48.1875
Q26.5156 48.1875 22.3125 43.5469
Q18.1094 38.9219 18.1094 30.9062
L18.1094 0
L9.07812 0
L9.07812 54.6875
L18.1094 54.6875
L18.1094 46.1875
Q21.3438 51.125 25.7031 53.5625
Q30.0781 56 35.7969 56
Q45.2188 56 50.0469 50.1719
Q54.8906 44.3438 54.8906 33.0156" id="BitstreamVeraSans-Roman-6e"/>
      <path d="
M52 44.1875
Q55.375 50.25 60.0625 53.125
Q64.75 56 71.0938 56
Q79.6406 56 84.2812 50.0156
Q88.9219 44.0469 88.9219 33.0156
L88.9219 0
L79.8906 0
L79.8906 32.7188
Q79.8906 40.5781 77.0938 44.375
Q74.3125 48.1875 68.6094 48.1875
Q61.625 48.1875 57.5625 43.5469
Q53.5156 38.9219 53.5156 30.9062
L53.5156 0
L44.4844 0
L44.4844 32.7188
Q44.4844 40.625 41.7031 44.4062
Q38.9219 48.1875 33.1094 48.1875
Q26.2188 48.1875 22.1562 43.5312
Q18.1094 38.875 18.1094 30.9062
L18.1094 0
L9.07812 0
L9.07812 54.6875
L18.1094 54.6875
L18.1094 46.1875
Q21.1875 51.2188 25.4844 53.6094
Q29.7812 56 35.6875 56
Q41.6562 56 45.8281 52.9688
Q50 49.9531 52 44.1875" id="BitstreamVeraSans-Roman-6d"/>
      <path d="
M30.6094 48.3906
Q23.3906 48.3906 19.1875 42.75
Q14.9844 37.1094 14.9844 27.2969
Q14.9844 17.4844 19.1562 11.8438
Q23.3438 6.20312 30.6094 6.20312
Q37.7969 6.20312 41.9844 11.8594
Q46.1875 17.5312 46.1875 27.2969
Q46.1875 37.0156 41.9844 42.7031
Q37.7969 48.3906 30.6094 48.3906
M30.6094 56
Q42.3281 56 49.0156 48.375
Q55.7188 40.7656 55.7188 27.2969
Q55.7188 13.875 49.0156 6.21875
Q42.3281 -1.42188 30.6094 -1.42188
Q18.8438 -1.42188 12.1719 6.21875
Q5.51562 13.875 5.51562 27.2969
Q5.51562 40.7656 12.1719 48.375
Q18.8438 56 30.6094 56" id="BitstreamVeraSans-Roman-6f"/>
      <path d="
M56.2031 29.5938
L56.2031 25.2031
L14.8906 25.2031
Q15.4844 15.9219 20.4844 11.0625
Q25.4844 6.20312 34.4219 6.20312
Q39.5938 6.20312 44.4531 7.46875
Q49.3125 8.73438 54.1094 11.2812
L54.1094 2.78125
Q49.2656 0.734375 44.1875 -0.34375
Q39.1094 -1.42188 33.8906 -1.42188
Q20.7969 -1.42188 13.1562 6.1875
Q5.51562 13.8125 5.51562 26.8125
Q5.51562 40.2344 12.7656 48.1094
Q20.0156 56 32.3281 56
Q43.3594 56 49.7812 48.8906
Q56.2031 41.7969 56.2031 29.5938
M47.2188 32.2344
Q47.125 39.5938 43.0938 43.9844
Q39.0625 48.3906 32.4219 48.3906
Q24.9062 48.3906 20.3906 44.1406
Q15.875 39.8906 15.1875 32.1719
z
" id="BitstreamVeraSans-Roman-65"/>
      <path d="
M48.7812 52.5938
L48.7812 44.1875
Q44.9688 46.2969 41.1406 47.3438
Q37.3125 48.3906 33.4062 48.3906
Q24.6562 48.3906 19.8125 42.8438
Q14.9844 37.3125 14.9844 27.2969
Q14.9844 17.2812 19.8125 11.7344
Q24.6562 6.20312 33.4062 6.20312
Q37.3125 6.20312 41.1406 7.25
Q44.9688 8.29688 48.7812 10.4062
L48.7812 2.09375
Q45.0156 0.34375 40.9844 -0.53125
Q36.9688 -1.42188 32.4219 -1.42188
Q20.0625 -1.42188 12.7812 6.34375
Q5.51562 14.1094 5.51562 27.2969
Q5.51562 40.6719 12.8594 48.3281
Q20.2188 56 33.0156 56
Q37.1562 56 41.1094 55.1406
Q45.0625 54.2969 48.7812 52.5938" id="BitstreamVeraSans-Roman-63"/>
      <path d="
M6.29688 72.9062
L16.8906 72.9062
L35.0156 45.7969
L53.2188 72.9062
L63.8125 72.9062
L40.375 37.8906
L65.375 0
L54.7812 0
L34.2812 31
L13.625 0
L2.98438 0
L29 38.9219
z
" id="BitstreamVeraSans-Roman-58"/>
      <path d="
M18.3125 70.2188
L18.3125 54.6875
L36.8125 54.6875
L36.8125 47.7031
L18.3125 47.7031
L18.3125 18.0156
Q18.3125 11.3281 20.1406 9.42188
Q21.9688 7.51562 27.5938 7.51562
L36.8125 7.51562
L36.8125 0
L27.5938 0
Q17.1875 0 13.2344 3.875
Q9.28125 7.76562 9.28125 18.0156
L9.28125 47.7031
L2.6875 47.7031
L2.6875 54.6875
L9.28125 54.6875
L9.28125 70.2188
z
" id="BitstreamVeraSans-Roman-74"/>
      <path d="
M18.1094 8.20312
L18.1094 -20.7969
L9.07812 -20.7969
L9.07812 54.6875
L18.1094 54.6875
L18.1094 46.3906
Q20.9531 51.2656 25.2656 53.625
Q29.5938 56 35.5938 56
Q45.5625 56 51.7812 48.0938
Q58.0156 40.1875 58.0156 27.2969
Q58.0156 14.4062 51.7812 6.48438
Q45.5625 -1.42188 35.5938 -1.42188
Q29.5938 -1.42188 25.2656 0.953125
Q20.9531 3.32812 18.1094 8.20312
M48.6875 27.2969
Q48.6875 37.2031 44.6094 42.8438
Q40.5312 48.4844 33.4062 48.4844
Q26.2656 48.4844 22.1875 42.8438
Q18.1094 37.2031 18.1094 27.2969
Q18.1094 17.3906 22.1875 11.75
Q26.2656 6.10938 33.4062 6.10938
Q40.5312 6.10938 44.6094 11.75
Q48.6875 17.3906 48.6875 27.2969" id="BitstreamVeraSans-Roman-70"/>
     </defs>
     <g transform="translate(89.55625 204.4765625)scale(0.1 -0.1)">
      <use xlink:href="#BitstreamVeraSans-Roman-58"/>
      <use x="68.505859375" xlink:href="#BitstreamVeraSans-Roman-20"/>
      <use x="100.29296875" xlink:href="#BitstreamVeraSans-Roman-63"/>
      <use x="155.2734375" xlink:href="#BitstreamVeraSans-Roman-6f"/>
      <use x="216.455078125" xlink:href="#BitstreamVeraSans-Roman-6d"/>
      <use x="313.8671875" xlink:href="#BitstreamVeraSans-Roman-70"/>
      <use x="377.34375" xlink:href="#BitstreamVeraSans-Roman-6f"/>
      <use x="438.525390625" xlink:href="#BitstreamVeraSans-Roman-6e"/>
      <use x="501.904296875" xlink:href="#BitstreamVeraSans-Roman-65"/>
      <use x="563.427734375" xlink:href="#BitstreamVeraSans-Roman-6e"/>
      <use x="626.806640625" xlink:href="#BitstreamVeraSans-Roman-74"/>
     </g>
    </g>
   </g>
   <g id="matplotlib.axis_2">
    <g id="ytick_1">
     <g id="line2d_21">
      <defs>
       <path d="
M0 0
L4 0" id="m728421d6d4" style="stroke:#000000;stroke-width:0.5;"/>
      </defs>
      <g>
       <use style="stroke:#000000;stroke-width:0.5;" x="43.621875" xlink:href="#m728421d6d4" y="178.2"/>
      </g>
     </g>
     <g id="line2d_22">
      <defs>
       <path d="
M0 0
L-4 0" id="mcb0005524f" style="stroke:#000000;stroke-width:0.5;"/>
      </defs>
      <g>
       <use style="stroke:#000000;stroke-width:0.5;" x="201.853125" xlink:href="#mcb0005524f" y="178.2"/>
      </g>
     </g>
     <g id="text_9">
      <!-- 0.0 -->
      <g transform="translate(25.0421875 180.959375)scale(0.1 -0.1)">
       <use xlink:href="#BitstreamVeraSans-Roman-30"/>
       <use x="63.623046875" xlink:href="#BitstreamVeraSans-Roman-2e"/>
       <use x="95.41015625" xlink:href="#BitstreamVeraSans-Roman-30"/>
      </g>
     </g>
    </g>
    <g id="ytick_2">
     <g id="line2d_23">
      <g>
       <use style="stroke:#000000;stroke-width:0.5;" x="43.621875" xlink:href="#m728421d6d4" y="145.62"/>
      </g>
     </g>
     <g id="line2d_24">
      <g>
       <use style="stroke:#000000;stroke-width:0.5;" x="201.853125" xlink:href="#mcb0005524f" y="145.62"/>
      </g>
     </g>
     <g id="text_10">
      <!-- 0.2 -->
      <defs>
       <path d="
M19.1875 8.29688
L53.6094 8.29688
L53.6094 0
L7.32812 0
L7.32812 8.29688
Q12.9375 14.1094 22.625 23.8906
Q32.3281 33.6875 34.8125 36.5312
Q39.5469 41.8438 41.4219 45.5312
Q43.3125 49.2188 43.3125 52.7812
Q43.3125 58.5938 39.2344 62.25
Q35.1562 65.9219 28.6094 65.9219
Q23.9688 65.9219 18.8125 64.3125
Q13.6719 62.7031 7.8125 59.4219
L7.8125 69.3906
Q13.7656 71.7812 18.9375 73
Q24.125 74.2188 28.4219 74.2188
Q39.75 74.2188 46.4844 68.5469
Q53.2188 62.8906 53.2188 53.4219
Q53.2188 48.9219 51.5312 44.8906
Q49.8594 40.875 45.4062 35.4062
Q44.1875 33.9844 37.6406 27.2188
Q31.1094 20.4531 19.1875 8.29688" id="BitstreamVeraSans-Roman-32"/>
      </defs>
      <g transform="translate(25.3796875 148.379375)scale(0.1 -0.1)">
       <use xlink:href="#BitstreamVeraSans-Roman-30"/>
       <use x="63.623046875" xlink:href="#BitstreamVeraSans-Roman-2e"/>
       <use x="95.41015625" xlink:href="#BitstreamVeraSans-Roman-32"/>
      </g>
     </g>
    </g>
    <g id="ytick_3">
     <g id="line2d_25">
      <g>
       <use style="stroke:#000000;stroke-width:0.5;" x="43.621875" xlink:href="#m728421d6d4" y="113.04"/>
      </g>
     </g>
     <g id="line2d_26">
      <g>
       <use style="stroke:#000000;stroke-width:0.5;" x="201.853125" xlink:href="#mcb0005524f" y="113.04"/>
      </g>
     </g>
     <g id="text_11">
      <!-- 0.4 -->
      <defs>
       <path d="
M37.7969 64.3125
L12.8906 25.3906
L37.7969 25.3906
z

M35.2031 72.9062
L47.6094 72.9062
L47.6094 25.3906
L58.0156 25.3906
L58.0156 17.1875
L47.6094 17.1875
L47.6094 0
L37.7969 0
L37.7969 17.1875
L4.89062 17.1875
L4.89062 26.7031
z
" id="BitstreamVeraSans-Roman-34"/>
      </defs>
      <g transform="translate(24.9390625 115.799375)scale(0.1 -0.1)">
       <use xlink:href="#BitstreamVeraSans-Roman-30"/>
       <use x="63.623046875" xlink:href="#BitstreamVeraSans-Roman-2e"/>
       <use x="95.41015625" xlink:href="#BitstreamVeraSans-Roman-34"/>
      </g>
     </g>
    </g>
    <g id="ytick_4">
     <g id="line2d_27">
      <g>
       <use style="stroke:#000000;stroke-width:0.5;" x="43.621875" xlink:href="#m728421d6d4" y="80.46"/>
      </g>
     </g>
     <g id="line2d_28">
      <g>
       <use style="stroke:#000000;stroke-width:0.5;" x="201.853125" xlink:href="#mcb0005524f" y="80.46"/>
      </g>
     </g>
     <g id="text_12">
      <!-- 0.6 -->
      <g transform="translate(25.0078125 83.219375)scale(0.1 -0.1)">
       <use xlink:href="#BitstreamVeraSans-Roman-30"/>
       <use x="63.623046875" xlink:href="#BitstreamVeraSans-Roman-2e"/>
       <use x="95.41015625" xlink:href="#BitstreamVeraSans-Roman-36"/>
      </g>
     </g>
    </g>
    <g id="ytick_5">
     <g id="line2d_29">
      <g>
       <use style="stroke:#000000;stroke-width:0.5;" x="43.621875" xlink:href="#m728421d6d4" y="47.88"/>
      </g>
     </g>
     <g id="line2d_30">
      <g>
       <use style="stroke:#000000;stroke-width:0.5;" x="201.853125" xlink:href="#mcb0005524f" y="47.88"/>
      </g>
     </g>
     <g id="text_13">
      <!-- 0.8 -->
      <g transform="translate(25.0625 50.639375)scale(0.1 -0.1)">
       <use xlink:href="#BitstreamVeraSans-Roman-30"/>
       <use x="63.623046875" xlink:href="#BitstreamVeraSans-Roman-2e"/>
       <use x="95.41015625" xlink:href="#BitstreamVeraSans-Roman-38"/>
      </g>
     </g>
    </g>
    <g id="ytick_6">
     <g id="line2d_31">
      <g>
       <use style="stroke:#000000;stroke-width:0.5;" x="43.621875" xlink:href="#m728421d6d4" y="15.3"/>
      </g>
     </g>
     <g id="line2d_32">
      <g>
       <use style="stroke:#000000;stroke-width:0.5;" x="201.853125" xlink:href="#mcb0005524f" y="15.3"/>
      </g>
     </g>
     <g id="text_14">
      <!-- 1.0 -->
      <defs>
       <path d="
M12.4062 8.29688
L28.5156 8.29688
L28.5156 63.9219
L10.9844 60.4062
L10.9844 69.3906
L28.4219 72.9062
L38.2812 72.9062
L38.2812 8.29688
L54.3906 8.29688
L54.3906 0
L12.4062 0
z
" id="BitstreamVeraSans-Roman-31"/>
      </defs>
      <g transform="translate(25.48125 18.059375)scale(0.1 -0.1)">
       <use xlink:href="#BitstreamVeraSans-Roman-31"/>
       <use x="63.623046875" xlink:href="#BitstreamVeraSans-Roman-2e"/>
       <use x="95.41015625" xlink:href="#BitstreamVeraSans-Roman-30"/>
      </g>
     </g>
    </g>
    <g id="text_15">
     <!-- Cumulative Distribution -->
     <defs>
      <path d="
M41.1094 46.2969
Q39.5938 47.1719 37.8125 47.5781
Q36.0312 48 33.8906 48
Q26.2656 48 22.1875 43.0469
Q18.1094 38.0938 18.1094 28.8125
L18.1094 0
L9.07812 0
L9.07812 54.6875
L18.1094 54.6875
L18.1094 46.1875
Q20.9531 51.1719 25.4844 53.5781
Q30.0312 56 36.5312 56
Q37.4531 56 38.5781 55.875
Q39.7031 55.7656 41.0625 55.5156
z
" id="BitstreamVeraSans-Roman-72"/>
      <path d="
M9.42188 75.9844
L18.4062 75.9844
L18.4062 0
L9.42188 0
z
" id="BitstreamVeraSans-Roman-6c"/>
      <path d="
M19.6719 64.7969
L19.6719 8.10938
L31.5938 8.10938
Q46.6875 8.10938 53.6875 14.9375
Q60.6875 21.7812 60.6875 36.5312
Q60.6875 51.1719 53.6875 57.9844
Q46.6875 64.7969 31.5938 64.7969
z

M9.8125 72.9062
L30.0781 72.9062
Q51.2656 72.9062 61.1719 64.0938
Q71.0938 55.2812 71.0938 36.5312
Q71.0938 17.6719 61.125 8.82812
Q51.1719 0 30.0781 0
L9.8125 0
z
" id="BitstreamVeraSans-Roman-44"/>
      <path d="
M9.42188 54.6875
L18.4062 54.6875
L18.4062 0
L9.42188 0
z

M9.42188 75.9844
L18.4062 75.9844
L18.4062 64.5938
L9.42188 64.5938
z
" id="BitstreamVeraSans-Roman-69"/>
      <path d="
M2.98438 54.6875
L12.5 54.6875
L29.5938 8.79688
L46.6875 54.6875
L56.2031 54.6875
L35.6875 0
L23.4844 0
z
" id="BitstreamVeraSans-Roman-76"/>
      <path d="
M64.4062 67.2812
L64.4062 56.8906
Q59.4219 61.5312 53.7812 63.8125
Q48.1406 66.1094 41.7969 66.1094
Q29.2969 66.1094 22.6562 58.4688
Q16.0156 50.8281 16.0156 36.375
Q16.0156 21.9688 22.6562 14.3281
Q29.2969 6.6875 41.7969 6.6875
Q48.1406 6.6875 53.7812 8.98438
Q59.4219 11.2812 64.4062 15.9219
L64.4062 5.60938
Q59.2344 2.09375 53.4375 0.328125
Q47.6562 -1.42188 41.2188 -1.42188
Q24.6562 -1.42188 15.125 8.70312
Q5.60938 18.8438 5.60938 36.375
Q5.60938 53.9531 15.125 64.0781
Q24.6562 74.2188 41.2188 74.2188
Q47.75 74.2188 53.5312 72.4844
Q59.3281 70.75 64.4062 67.2812" id="BitstreamVeraSans-Roman-43"/>
      <path d="
M8.5 21.5781
L8.5 54.6875
L17.4844 54.6875
L17.4844 21.9219
Q17.4844 14.1562 20.5 10.2656
Q23.5312 6.39062 29.5938 6.39062
Q36.8594 6.39062 41.0781 11.0312
Q45.3125 15.6719 45.3125 23.6875
L45.3125 54.6875
L54.2969 54.6875
L54.2969 0
L45.3125 0
L45.3125 8.40625
Q42.0469 3.42188 37.7188 1
Q33.4062 -1.42188 27.6875 -1.42188
Q18.2656 -1.42188 13.375 4.4375
Q8.5 10.2969 8.5 21.5781" id="BitstreamVeraSans-Roman-75"/>
      <path d="
M34.2812 27.4844
Q23.3906 27.4844 19.1875 25
Q14.9844 22.5156 14.9844 16.5
Q14.9844 11.7188 18.1406 8.90625
Q21.2969 6.10938 26.7031 6.10938
Q34.1875 6.10938 38.7031 11.4062
Q43.2188 16.7031 43.2188 25.4844
L43.2188 27.4844
z

M52.2031 31.2031
L52.2031 0
L43.2188 0
L43.2188 8.29688
Q40.1406 3.32812 35.5469 0.953125
Q30.9531 -1.42188 24.3125 -1.42188
Q15.9219 -1.42188 10.9531 3.29688
Q6 8.01562 6 15.9219
Q6 25.1406 12.1719 29.8281
Q18.3594 34.5156 30.6094 34.5156
L43.2188 34.5156
L43.2188 35.4062
Q43.2188 41.6094 39.1406 45
Q35.0625 48.3906 27.6875 48.3906
Q23 48.3906 18.5469 47.2656
Q14.1094 46.1406 10.0156 43.8906
L10.0156 52.2031
Q14.9375 54.1094 19.5781 55.0469
Q24.2188 56 28.6094 56
Q40.4844 56 46.3438 49.8438
Q52.2031 43.7031 52.2031 31.2031" id="BitstreamVeraSans-Roman-61"/>
      <path d="
M44.2812 53.0781
L44.2812 44.5781
Q40.4844 46.5312 36.375 47.5
Q32.2812 48.4844 27.875 48.4844
Q21.1875 48.4844 17.8438 46.4375
Q14.5 44.3906 14.5 40.2812
Q14.5 37.1562 16.8906 35.375
Q19.2812 33.5938 26.5156 31.9844
L29.5938 31.2969
Q39.1562 29.25 43.1875 25.5156
Q47.2188 21.7812 47.2188 15.0938
Q47.2188 7.46875 41.1875 3.01562
Q35.1562 -1.42188 24.6094 -1.42188
Q20.2188 -1.42188 15.4531 -0.5625
Q10.6875 0.296875 5.42188 2
L5.42188 11.2812
Q10.4062 8.6875 15.2344 7.39062
Q20.0625 6.10938 24.8125 6.10938
Q31.1562 6.10938 34.5625 8.28125
Q37.9844 10.4531 37.9844 14.4062
Q37.9844 18.0625 35.5156 20.0156
Q33.0625 21.9688 24.7031 23.7812
L21.5781 24.5156
Q13.2344 26.2656 9.51562 29.9062
Q5.8125 33.5469 5.8125 39.8906
Q5.8125 47.6094 11.2812 51.7969
Q16.75 56 26.8125 56
Q31.7812 56 36.1719 55.2656
Q40.5781 54.5469 44.2812 53.0781" id="BitstreamVeraSans-Roman-73"/>
      <path d="
M48.6875 27.2969
Q48.6875 37.2031 44.6094 42.8438
Q40.5312 48.4844 33.4062 48.4844
Q26.2656 48.4844 22.1875 42.8438
Q18.1094 37.2031 18.1094 27.2969
Q18.1094 17.3906 22.1875 11.75
Q26.2656 6.10938 33.4062 6.10938
Q40.5312 6.10938 44.6094 11.75
Q48.6875 17.3906 48.6875 27.2969
M18.1094 46.3906
Q20.9531 51.2656 25.2656 53.625
Q29.5938 56 35.5938 56
Q45.5625 56 51.7812 48.0938
Q58.0156 40.1875 58.0156 27.2969
Q58.0156 14.4062 51.7812 6.48438
Q45.5625 -1.42188 35.5938 -1.42188
Q29.5938 -1.42188 25.2656 0.953125
Q20.9531 3.32812 18.1094 8.20312
L18.1094 0
L9.07812 0
L9.07812 75.9844
L18.1094 75.9844
z
" id="BitstreamVeraSans-Roman-62"/>
     </defs>
     <g transform="translate(17.859375 155.62109375)rotate(-90.0)scale(0.1 -0.1)">
      <use xlink:href="#BitstreamVeraSans-Roman-43"/>
      <use x="69.82421875" xlink:href="#BitstreamVeraSans-Roman-75"/>
      <use x="133.203125" xlink:href="#BitstreamVeraSans-Roman-6d"/>
      <use x="230.615234375" xlink:href="#BitstreamVeraSans-Roman-75"/>
      <use x="293.994140625" xlink:href="#BitstreamVeraSans-Roman-6c"/>
      <use x="321.77734375" xlink:href="#BitstreamVeraSans-Roman-61"/>
      <use x="383.056640625" xlink:href="#BitstreamVeraSans-Roman-74"/>
      <use x="422.265625" xlink:href="#BitstreamVeraSans-Roman-69"/>
      <use x="450.048828125" xlink:href="#BitstreamVeraSans-Roman-76"/>
      <use x="509.228515625" xlink:href="#BitstreamVeraSans-Roman-65"/>
      <use x="570.751953125" xlink:href="#BitstreamVeraSans-Roman-20"/>
      <use x="602.5390625" xlink:href="#BitstreamVeraSans-Roman-44"/>
      <use x="679.541015625" xlink:href="#BitstreamVeraSans-Roman-69"/>
      <use x="707.32421875" xlink:href="#BitstreamVeraSans-Roman-73"/>
      <use x="759.423828125" xlink:href="#BitstreamVeraSans-Roman-74"/>
      <use x="798.6328125" xlink:href="#BitstreamVeraSans-Roman-72"/>
      <use x="839.74609375" xlink:href="#BitstreamVeraSans-Roman-69"/>
      <use x="867.529296875" xlink:href="#BitstreamVeraSans-Roman-62"/>
      <use x="931.005859375" xlink:href="#BitstreamVeraSans-Roman-75"/>
      <use x="994.384765625" xlink:href="#BitstreamVeraSans-Roman-74"/>
      <use x="1033.59375" xlink:href="#BitstreamVeraSans-Roman-69"/>
      <use x="1061.37695312" xlink:href="#BitstreamVeraSans-Roman-6f"/>
      <use x="1122.55859375" xlink:href="#BitstreamVeraSans-Roman-6e"/>
     </g>
    </g>
   </g>
  </g>
  <g id="axes_2">
   <g id="patch_7">
    <path d="
M256.022 178.2
L414.253 178.2
L414.253 15.3
L256.022 15.3
z
" style="fill:#ffffff;"/>
   </g>
   <g id="line2d_33">
    <path clip-path="url(#p86bc4e6650)" d="
M263.471 178.2
L271.695 178.005
L274.77 177.744
L277.257 177.483
L277.264 177.451
L278.167 177.223
L278.291 177.157
L280.739 176.929
L280.853 176.864
L281.34 176.734
L281.472 176.636
L282.143 176.441
L282.662 176.31
L282.997 176.213
L283.501 176.05
L283.544 176.017
L284.273 175.822
L284.434 175.691
L285.088 175.496
L286.088 175.072
L286.265 174.942
L286.832 174.779
L287.466 174.551
L288.709 173.639
L288.812 173.508
L289.178 173.28
L289.263 173.15
L290.097 172.498
L290.201 172.401
L290.678 172.042
L291.08 171.879
L291.209 171.749
L291.598 171.456
L291.664 171.391
L291.944 171.228
L292.16 170.902
L294.411 168.393
L295.262 167.221
L296.694 165.266
L296.866 165.038
L296.955 164.842
L297.037 164.679
L297.187 164.516
L297.308 164.353
L297.456 164.191
L297.708 163.767
L297.932 163.539
L298.035 163.344
L298.24 163.115
L298.45 162.855
L298.725 162.366
L298.848 162.105
L299.077 161.877
L300.502 159.401
L300.616 159.043
L300.741 158.75
L300.87 158.424
L300.942 158.261
L301.037 158.098
L301.223 157.609
L301.571 156.925
L301.684 156.697
L301.806 156.339
L302.306 155.329
L302.442 154.873
L302.557 154.579
L302.676 154.189
L302.82 153.83
L303.386 152.56
L303.684 151.843
L303.746 151.615
L303.892 150.996
L303.991 150.768
L304.427 149.595
L304.517 149.432
L304.697 148.715
L304.797 148.552
L305.099 147.542
L305.204 146.956
L305.426 146.565
L305.559 146.011
L305.619 145.75
L305.785 145.066
L305.93 144.903
L306.345 143.502
L306.463 143.339
L306.923 142.232
L307.022 142.069
L307.456 140.635
L307.566 140.375
L307.724 139.821
L307.814 139.528
L308.04 138.615
L308.148 138.257
L308.256 137.996
L308.804 136.237
L308.86 136.041
L309.017 135.26
L309.264 134.771
L309.551 133.728
L309.664 133.468
L309.953 132.458
L310.06 131.936
L310.134 131.643
L310.623 130.047
L310.707 129.754
L310.875 129.102
L310.997 128.874
L311.499 127.245
L311.594 126.952
L311.706 126.43
L311.85 125.974
L311.969 125.681
L312.094 125.323
L312.266 124.704
L315.885 111.02
L316.019 110.596
L316.178 109.717
L316.272 109.261
L316.369 108.642
L316.521 107.762
L316.786 106.98
L316.929 106.426
L317.204 105.384
L317.368 104.895
L317.424 104.7
L317.546 104.211
L317.688 103.69
L317.809 103.103
L318.803 99.2587
L318.91 98.6396
L319.113 97.8577
L319.184 97.5645
L319.365 96.6523
L319.455 96.4568
L319.639 95.5771
L319.928 94.73
L320.153 93.4594
L320.254 93.1988
L320.458 92.6775
L320.976 90.4621
L321.048 90.1363
L321.188 89.615
L321.247 89.3218
L321.365 88.8982
L321.504 88.3444
L321.628 87.6928
L321.764 87.1063
L321.882 86.585
L321.98 86.2592
L322.149 85.7054
L322.29 85.3796
L322.42 84.956
L323.019 82.708
L323.076 82.48
L323.528 80.7858
L323.613 80.5252
L323.794 80.0365
L323.947 79.2871
L324.072 78.6029
L324.115 78.3749
L324.226 77.9513
L324.401 77.1694
L324.525 76.9088
L326.888 67.7864
L327.003 67.6235
L327.294 66.418
L327.731 64.2026
L328.036 62.9971
L328.204 62.3129
L328.276 62.0197
L328.411 61.7591
L328.562 61.4984
L329.807 57.2956
L329.924 56.8721
L330.003 56.5789
L330.362 55.2757
L330.658 54.0376
L330.753 53.8421
L330.913 53.2883
L331.607 51.6267
L331.783 51.0728
L332.607 48.4664
L332.733 48.1081
L333.702 45.7623
L333.827 45.5342
L334.057 44.7849
L334.234 44.5894
L334.523 43.9704
L334.644 43.6772
L334.769 43.2211
L334.934 42.8627
L335.031 42.6998
L335.155 42.0482
L335.221 41.8201
L336.465 38.2689
L336.728 37.9105
L336.857 37.5521
L336.971 37.3241
L337.1 37.0634
L337.189 36.8354
L337.923 35.239
L338.069 34.9457
L338.187 34.5548
L338.284 34.2616
L338.379 34.0335
L338.451 33.8706
L338.519 33.6751
L338.674 33.4796
L338.838 33.219
L339.088 32.7303
L339.502 32.2416
L339.988 31.3945
L340.108 31.1665
L340.195 30.971
L340.387 30.6452
L340.733 30.0262
L340.921 29.7329
L341.036 29.5375
L341.295 29.1791
L342.239 27.941
L342.426 27.713
L342.714 27.0614
L343.701 25.8559
L343.897 25.6604
L344.526 24.8459
L344.739 24.7156
L347.478 21.6205
L347.666 21.425
L348.415 20.7083
L348.969 20.5128
L349.337 20.2847
L349.387 20.1218
L349.642 19.9589
L349.748 19.8938
L350.263 19.7309
L350.403 19.5354
L350.632 19.3725
L350.901 19.177
L351.883 18.9164
L351.909 18.8512
L352.142 18.6883
L352.36 18.4603
L353.637 17.9716
L353.815 17.8738
L354.157 17.6783
L354.44 17.548
L355.284 17.1896
L356.487 17.0267
L356.506 16.9942
L357.523 16.7987
L358.254 16.6684
L359.048 16.4729
L360.185 16.2774
L362.085 16.0819
L369.691 15.5606
L384.167 15.3326
L384.167 15.3326" style="fill:none;stroke:#ff0000;stroke-linecap:square;"/>
   </g>
   <g id="line2d_34">
    <path clip-path="url(#p86bc4e6650)" d="
M288.069 178.2
L288.069 15.3" style="fill:none;stroke:#ff0000;stroke-linecap:square;"/>
   </g>
   <g id="line2d_35">
    <path clip-path="url(#p86bc4e6650)" d="
M350.632 178.2
L350.632 15.3" style="fill:none;stroke:#ff0000;stroke-linecap:square;"/>
   </g>
   <g id="line2d_36">
    <path clip-path="url(#p86bc4e6650)" d="
M271.154 178.2
L280.175 177.907
L280.26 177.874
L284.08 177.614
L289.513 176.864
L289.705 176.799
L290.402 176.604
L290.447 176.571
L291.219 176.408
L292.946 175.919
L292.964 175.887
L293.387 175.724
L293.443 175.659
L294.212 175.398
L294.216 175.366
L294.684 175.203
L294.717 175.17
L295.096 175.007
L295.617 174.714
L295.947 174.486
L296.794 174.16
L297.146 173.932
L297.59 173.704
L298.321 173.378
L299.53 172.303
L299.642 172.173
L300.068 171.879
L300.153 171.619
L300.429 171.423
L300.867 171.293
L301.13 171.065
L301.92 170.218
L302.08 170.055
L302.491 169.501
L302.751 169.24
L304.073 167.905
L304.245 167.546
L304.379 167.351
L304.507 167.221
L305.557 165.559
L305.663 165.233
L305.821 164.907
L306.782 163.278
L306.879 163.05
L307.227 162.562
L307.377 162.203
L307.558 161.91
L307.864 161.193
L308.054 160.933
L308.226 160.574
L308.354 160.379
L308.483 159.988
L308.531 159.923
L308.638 159.792
L308.789 159.466
L309.126 158.815
L309.278 158.522
L309.963 157.056
L310.076 156.893
L310.285 156.567
L310.333 156.339
L310.439 155.98
L310.903 155.231
L311.112 155.036
L311.245 154.775
L311.393 154.547
L311.598 154.123
L311.831 153.895
L312.059 153.309
L312.41 152.755
L312.57 152.592
L312.935 151.484
L313.07 151.159
L313.764 149.367
L313.927 148.878
L314.206 148.389
L314.305 148.226
L314.426 147.803
L315.03 146.695
L315.447 145.522
L315.734 144.838
L316.291 143.111
L316.398 142.786
L316.755 141.776
L316.906 141.547
L317.02 141.157
L317.465 139.528
L317.68 138.843
L317.735 138.68
L317.982 137.899
L318.095 137.605
L318.203 137.214
L318.495 136.465
L318.62 135.911
L318.748 135.683
L318.903 135.162
L319.112 134.445
L319.215 134.152
L319.318 133.826
L319.544 132.914
L319.728 132.295
L319.96 131.513
L320.448 129.623
L320.565 129.037
L320.662 128.646
L320.79 127.994
L320.886 127.831
L321.051 127.31
L321.262 126.789
L322.933 120.436
L323.104 119.686
L323.177 119.523
L323.309 118.872
L323.492 118.09
L323.592 117.601
L323.655 117.275
L323.755 117.112
L323.86 116.819
L324.103 115.712
L326.557 105.872
L327.124 103.201
L328.429 98.2813
L328.503 98.0532
L328.634 97.6297
L328.71 97.3364
L328.833 96.7174
L328.992 96.1636
L329.099 95.7726
L329.256 95.3491
L329.493 94.5671
L330.565 90.2992
L330.683 89.6476
L332.033 85.0864
L332.19 84.2067
L332.384 83.1967
L333.205 79.6129
L334.013 75.964
L334.164 75.4427
L334.659 73.7811
L334.821 73.1621
L335.062 72.1521
L337.552 63.8116
L337.679 63.3555
L337.838 62.9645
L338.032 62.1175
L338.149 61.7591
L338.363 61.3355
L338.688 60.293
L338.995 59.283
L341.939 49.6719
L342.045 49.4764
L342.19 49.0855
L343.007 46.7071
L343.092 46.4465
L344.028 43.384
L344.373 42.602
L344.485 42.1785
L344.645 41.755
L344.809 41.2988
L345.062 40.8101
L345.178 40.5495
L345.35 40.0608
L345.537 39.735
L345.631 39.4744
L345.735 39.116
L346.048 38.4644
L346.234 38.106
L346.393 37.9105
L346.525 37.5521
L346.733 37.1286
L346.903 36.6725
L346.978 36.477
L347.098 36.2164
L347.252 36.0209
L347.367 35.8254
L348.198 34.1312
L348.308 33.9032
L348.454 33.6751
L349.084 32.4697
L349.183 32.3068
L349.28 32.0461
L349.62 31.3945
L349.749 31.0687
L349.929 30.8081
L349.98 30.6778
L350.197 30.5149
L350.482 29.961
L350.597 29.8633
L351.06 29.0488
L351.7 27.7781
L351.892 27.6152
L355.437 23.4776
L355.753 23.3147
L355.853 23.0215
L356.887 21.9789
L356.974 21.8812
L358.028 20.8712
L358.134 20.806
L358.535 20.6431
L359.267 20.0567
L359.634 19.8612
L359.654 19.8286
L360.135 19.6657
L360.144 19.6331
L360.8 19.4377
L361.149 19.2422
L361.168 19.2096
L361.499 19.0467
L361.513 18.9815
L361.987 18.7861
L362.103 18.6883
L362.746 18.4603
L363.332 18.167
L363.333 18.1345
L363.662 17.9716
L364.484 17.7435
L364.933 17.6132
L365.46 17.3851
L366.786 16.929
L367.354 16.7661
L367.995 16.6358
L368.022 16.6032
L368.817 16.3426
L368.986 16.2774
L371.169 15.9842
L373.859 15.8213
L374.564 15.7235
L380.094 15.4629
L394.959 15.3326
L394.959 15.3326" style="fill:none;stroke:#0000ff;stroke-linecap:square;"/>
   </g>
   <g id="line2d_37">
    <path clip-path="url(#p86bc4e6650)" d="
M296.83 178.2
L296.83 15.3" style="fill:none;stroke:#0000ff;stroke-dasharray:6.000000,6.000000;stroke-dashoffset:0.0;"/>
   </g>
   <g id="line2d_38">
    <path clip-path="url(#p86bc4e6650)" d="
M360.944 178.2
L360.944 15.3" style="fill:none;stroke:#0000ff;stroke-dasharray:6.000000,6.000000;stroke-dashoffset:0.0;"/>
   </g>
   <g id="patch_8">
    <path d="
M256.022 15.3
L414.253 15.3" style="fill:none;stroke:#000000;stroke-linecap:square;stroke-linejoin:miter;"/>
   </g>
   <g id="patch_9">
    <path d="
M414.253 178.2
L414.253 15.3" style="fill:none;stroke:#000000;stroke-linecap:square;stroke-linejoin:miter;"/>
   </g>
   <g id="patch_10">
    <path d="
M256.022 178.2
L414.253 178.2" style="fill:none;stroke:#000000;stroke-linecap:square;stroke-linejoin:miter;"/>
   </g>
   <g id="patch_11">
    <path d="
M256.022 178.2
L256.022 15.3" style="fill:none;stroke:#000000;stroke-linecap:square;stroke-linejoin:miter;"/>
   </g>
   <g id="matplotlib.axis_3">
    <g id="xtick_8">
     <g id="line2d_39">
      <g>
       <use style="stroke:#000000;stroke-width:0.5;" x="256.021875" xlink:href="#m93b0483c22" y="178.2"/>
      </g>
     </g>
     <g id="line2d_40">
      <g>
       <use style="stroke:#000000;stroke-width:0.5;" x="256.021875" xlink:href="#m741efc42ff" y="15.3"/>
      </g>
     </g>
     <g id="text_16">
      <!-- 0.20 -->
      <g transform="translate(245.55078125 189.7984375)scale(0.1 -0.1)">
       <use xlink:href="#BitstreamVeraSans-Roman-30"/>
       <use x="63.623046875" xlink:href="#BitstreamVeraSans-Roman-2e"/>
       <use x="95.41015625" xlink:href="#BitstreamVeraSans-Roman-32"/>
       <use x="159.033203125" xlink:href="#BitstreamVeraSans-Roman-30"/>
      </g>
     </g>
    </g>
    <g id="xtick_9">
     <g id="line2d_41">
      <g>
       <use style="stroke:#000000;stroke-width:0.5;" x="278.626339286" xlink:href="#m93b0483c22" y="178.2"/>
      </g>
     </g>
     <g id="line2d_42">
      <g>
       <use style="stroke:#000000;stroke-width:0.5;" x="278.626339286" xlink:href="#m741efc42ff" y="15.3"/>
      </g>
     </g>
     <g id="text_17">
      <!-- 0.25 -->
      <g transform="translate(268.259933036 189.7984375)scale(0.1 -0.1)">
       <use xlink:href="#BitstreamVeraSans-Roman-30"/>
       <use x="63.623046875" xlink:href="#BitstreamVeraSans-Roman-2e"/>
       <use x="95.41015625" xlink:href="#BitstreamVeraSans-Roman-32"/>
       <use x="159.033203125" xlink:href="#BitstreamVeraSans-Roman-35"/>
      </g>
     </g>
    </g>
    <g id="xtick_10">
     <g id="line2d_43">
      <g>
       <use style="stroke:#000000;stroke-width:0.5;" x="301.230803571" xlink:href="#m93b0483c22" y="178.2"/>
      </g>
     </g>
     <g id="line2d_44">
      <g>
       <use style="stroke:#000000;stroke-width:0.5;" x="301.230803571" xlink:href="#m741efc42ff" y="15.3"/>
      </g>
     </g>
     <g id="text_18">
      <!-- 0.30 -->
      <defs>
       <path d="
M40.5781 39.3125
Q47.6562 37.7969 51.625 33
Q55.6094 28.2188 55.6094 21.1875
Q55.6094 10.4062 48.1875 4.48438
Q40.7656 -1.42188 27.0938 -1.42188
Q22.5156 -1.42188 17.6562 -0.515625
Q12.7969 0.390625 7.625 2.20312
L7.625 11.7188
Q11.7188 9.32812 16.5938 8.10938
Q21.4844 6.89062 26.8125 6.89062
Q36.0781 6.89062 40.9375 10.5469
Q45.7969 14.2031 45.7969 21.1875
Q45.7969 27.6406 41.2812 31.2656
Q36.7656 34.9062 28.7188 34.9062
L20.2188 34.9062
L20.2188 43.0156
L29.1094 43.0156
Q36.375 43.0156 40.2344 45.9219
Q44.0938 48.8281 44.0938 54.2969
Q44.0938 59.9062 40.1094 62.9062
Q36.1406 65.9219 28.7188 65.9219
Q24.6562 65.9219 20.0156 65.0312
Q15.375 64.1562 9.8125 62.3125
L9.8125 71.0938
Q15.4375 72.6562 20.3438 73.4375
Q25.25 74.2188 29.5938 74.2188
Q40.8281 74.2188 47.3594 69.1094
Q53.9062 64.0156 53.9062 55.3281
Q53.9062 49.2656 50.4375 45.0938
Q46.9688 40.9219 40.5781 39.3125" id="BitstreamVeraSans-Roman-33"/>
      </defs>
      <g transform="translate(290.759709821 189.7984375)scale(0.1 -0.1)">
       <use xlink:href="#BitstreamVeraSans-Roman-30"/>
       <use x="63.623046875" xlink:href="#BitstreamVeraSans-Roman-2e"/>
       <use x="95.41015625" xlink:href="#BitstreamVeraSans-Roman-33"/>
       <use x="159.033203125" xlink:href="#BitstreamVeraSans-Roman-30"/>
      </g>
     </g>
    </g>
    <g id="xtick_11">
     <g id="line2d_45">
      <g>
       <use style="stroke:#000000;stroke-width:0.5;" x="323.835267857" xlink:href="#m93b0483c22" y="178.2"/>
      </g>
     </g>
     <g id="line2d_46">
      <g>
       <use style="stroke:#000000;stroke-width:0.5;" x="323.835267857" xlink:href="#m741efc42ff" y="15.3"/>
      </g>
     </g>
     <g id="text_19">
      <!-- 0.35 -->
      <g transform="translate(313.468861607 189.7984375)scale(0.1 -0.1)">
       <use xlink:href="#BitstreamVeraSans-Roman-30"/>
       <use x="63.623046875" xlink:href="#BitstreamVeraSans-Roman-2e"/>
       <use x="95.41015625" xlink:href="#BitstreamVeraSans-Roman-33"/>
       <use x="159.033203125" xlink:href="#BitstreamVeraSans-Roman-35"/>
      </g>
     </g>
    </g>
    <g id="xtick_12">
     <g id="line2d_47">
      <g>
       <use style="stroke:#000000;stroke-width:0.5;" x="346.439732143" xlink:href="#m93b0483c22" y="178.2"/>
      </g>
     </g>
     <g id="line2d_48">
      <g>
       <use style="stroke:#000000;stroke-width:0.5;" x="346.439732143" xlink:href="#m741efc42ff" y="15.3"/>
      </g>
     </g>
     <g id="text_20">
      <!-- 0.40 -->
      <g transform="translate(335.968638393 189.7984375)scale(0.1 -0.1)">
       <use xlink:href="#BitstreamVeraSans-Roman-30"/>
       <use x="63.623046875" xlink:href="#BitstreamVeraSans-Roman-2e"/>
       <use x="95.41015625" xlink:href="#BitstreamVeraSans-Roman-34"/>
       <use x="159.033203125" xlink:href="#BitstreamVeraSans-Roman-30"/>
      </g>
     </g>
    </g>
    <g id="xtick_13">
     <g id="line2d_49">
      <g>
       <use style="stroke:#000000;stroke-width:0.5;" x="369.044196429" xlink:href="#m93b0483c22" y="178.2"/>
      </g>
     </g>
     <g id="line2d_50">
      <g>
       <use style="stroke:#000000;stroke-width:0.5;" x="369.044196429" xlink:href="#m741efc42ff" y="15.3"/>
      </g>
     </g>
     <g id="text_21">
      <!-- 0.45 -->
      <g transform="translate(358.677790179 189.7984375)scale(0.1 -0.1)">
       <use xlink:href="#BitstreamVeraSans-Roman-30"/>
       <use x="63.623046875" xlink:href="#BitstreamVeraSans-Roman-2e"/>
       <use x="95.41015625" xlink:href="#BitstreamVeraSans-Roman-34"/>
       <use x="159.033203125" xlink:href="#BitstreamVeraSans-Roman-35"/>
      </g>
     </g>
    </g>
    <g id="xtick_14">
     <g id="line2d_51">
      <g>
       <use style="stroke:#000000;stroke-width:0.5;" x="391.648660714" xlink:href="#m93b0483c22" y="178.2"/>
      </g>
     </g>
     <g id="line2d_52">
      <g>
       <use style="stroke:#000000;stroke-width:0.5;" x="391.648660714" xlink:href="#m741efc42ff" y="15.3"/>
      </g>
     </g>
     <g id="text_22">
      <!-- 0.50 -->
      <g transform="translate(381.177566964 189.7984375)scale(0.1 -0.1)">
       <use xlink:href="#BitstreamVeraSans-Roman-30"/>
       <use x="63.623046875" xlink:href="#BitstreamVeraSans-Roman-2e"/>
       <use x="95.41015625" xlink:href="#BitstreamVeraSans-Roman-35"/>
       <use x="159.033203125" xlink:href="#BitstreamVeraSans-Roman-30"/>
      </g>
     </g>
    </g>
    <g id="xtick_15">
     <g id="line2d_53">
      <g>
       <use style="stroke:#000000;stroke-width:0.5;" x="414.253125" xlink:href="#m93b0483c22" y="178.2"/>
      </g>
     </g>
     <g id="line2d_54">
      <g>
       <use style="stroke:#000000;stroke-width:0.5;" x="414.253125" xlink:href="#m741efc42ff" y="15.3"/>
      </g>
     </g>
     <g id="text_23">
      <!-- 0.55 -->
      <g transform="translate(403.88671875 189.7984375)scale(0.1 -0.1)">
       <use xlink:href="#BitstreamVeraSans-Roman-30"/>
       <use x="63.623046875" xlink:href="#BitstreamVeraSans-Roman-2e"/>
       <use x="95.41015625" xlink:href="#BitstreamVeraSans-Roman-35"/>
       <use x="159.033203125" xlink:href="#BitstreamVeraSans-Roman-35"/>
      </g>
     </g>
    </g>
    <g id="text_24">
     <!-- Y component -->
     <defs>
      <path d="
M-0.203125 72.9062
L10.4062 72.9062
L30.6094 42.9219
L50.6875 72.9062
L61.2812 72.9062
L35.5 34.7188
L35.5 0
L25.5938 0
L25.5938 34.7188
z
" id="BitstreamVeraSans-Roman-59"/>
     </defs>
     <g transform="translate(302.3171875 204.4765625)scale(0.1 -0.1)">
      <use xlink:href="#BitstreamVeraSans-Roman-59"/>
      <use x="61.083984375" xlink:href="#BitstreamVeraSans-Roman-20"/>
      <use x="92.87109375" xlink:href="#BitstreamVeraSans-Roman-63"/>
      <use x="147.8515625" xlink:href="#BitstreamVeraSans-Roman-6f"/>
      <use x="209.033203125" xlink:href="#BitstreamVeraSans-Roman-6d"/>
      <use x="306.4453125" xlink:href="#BitstreamVeraSans-Roman-70"/>
      <use x="369.921875" xlink:href="#BitstreamVeraSans-Roman-6f"/>
      <use x="431.103515625" xlink:href="#BitstreamVeraSans-Roman-6e"/>
      <use x="494.482421875" xlink:href="#BitstreamVeraSans-Roman-65"/>
      <use x="556.005859375" xlink:href="#BitstreamVeraSans-Roman-6e"/>
      <use x="619.384765625" xlink:href="#BitstreamVeraSans-Roman-74"/>
     </g>
    </g>
   </g>
   <g id="matplotlib.axis_4">
    <g id="ytick_7">
     <g id="line2d_55">
      <g>
       <use style="stroke:#000000;stroke-width:0.5;" x="256.021875" xlink:href="#m728421d6d4" y="178.2"/>
      </g>
     </g>
     <g id="line2d_56">
      <g>
       <use style="stroke:#000000;stroke-width:0.5;" x="414.253125" xlink:href="#mcb0005524f" y="178.2"/>
      </g>
     </g>
     <g id="text_25">
      <!-- 0.0 -->
      <g transform="translate(237.4421875 180.959375)scale(0.1 -0.1)">
       <use xlink:href="#BitstreamVeraSans-Roman-30"/>
       <use x="63.623046875" xlink:href="#BitstreamVeraSans-Roman-2e"/>
       <use x="95.41015625" xlink:href="#BitstreamVeraSans-Roman-30"/>
      </g>
     </g>
    </g>
    <g id="ytick_8">
     <g id="line2d_57">
      <g>
       <use style="stroke:#000000;stroke-width:0.5;" x="256.021875" xlink:href="#m728421d6d4" y="145.62"/>
      </g>
     </g>
     <g id="line2d_58">
      <g>
       <use style="stroke:#000000;stroke-width:0.5;" x="414.253125" xlink:href="#mcb0005524f" y="145.62"/>
      </g>
     </g>
     <g id="text_26">
      <!-- 0.2 -->
      <g transform="translate(237.7796875 148.379375)scale(0.1 -0.1)">
       <use xlink:href="#BitstreamVeraSans-Roman-30"/>
       <use x="63.623046875" xlink:href="#BitstreamVeraSans-Roman-2e"/>
       <use x="95.41015625" xlink:href="#BitstreamVeraSans-Roman-32"/>
      </g>
     </g>
    </g>
    <g id="ytick_9">
     <g id="line2d_59">
      <g>
       <use style="stroke:#000000;stroke-width:0.5;" x="256.021875" xlink:href="#m728421d6d4" y="113.04"/>
      </g>
     </g>
     <g id="line2d_60">
      <g>
       <use style="stroke:#000000;stroke-width:0.5;" x="414.253125" xlink:href="#mcb0005524f" y="113.04"/>
      </g>
     </g>
     <g id="text_27">
      <!-- 0.4 -->
      <g transform="translate(237.3390625 115.799375)scale(0.1 -0.1)">
       <use xlink:href="#BitstreamVeraSans-Roman-30"/>
       <use x="63.623046875" xlink:href="#BitstreamVeraSans-Roman-2e"/>
       <use x="95.41015625" xlink:href="#BitstreamVeraSans-Roman-34"/>
      </g>
     </g>
    </g>
    <g id="ytick_10">
     <g id="line2d_61">
      <g>
       <use style="stroke:#000000;stroke-width:0.5;" x="256.021875" xlink:href="#m728421d6d4" y="80.46"/>
      </g>
     </g>
     <g id="line2d_62">
      <g>
       <use style="stroke:#000000;stroke-width:0.5;" x="414.253125" xlink:href="#mcb0005524f" y="80.46"/>
      </g>
     </g>
     <g id="text_28">
      <!-- 0.6 -->
      <g transform="translate(237.4078125 83.219375)scale(0.1 -0.1)">
       <use xlink:href="#BitstreamVeraSans-Roman-30"/>
       <use x="63.623046875" xlink:href="#BitstreamVeraSans-Roman-2e"/>
       <use x="95.41015625" xlink:href="#BitstreamVeraSans-Roman-36"/>
      </g>
     </g>
    </g>
    <g id="ytick_11">
     <g id="line2d_63">
      <g>
       <use style="stroke:#000000;stroke-width:0.5;" x="256.021875" xlink:href="#m728421d6d4" y="47.88"/>
      </g>
     </g>
     <g id="line2d_64">
      <g>
       <use style="stroke:#000000;stroke-width:0.5;" x="414.253125" xlink:href="#mcb0005524f" y="47.88"/>
      </g>
     </g>
     <g id="text_29">
      <!-- 0.8 -->
      <g transform="translate(237.4625 50.639375)scale(0.1 -0.1)">
       <use xlink:href="#BitstreamVeraSans-Roman-30"/>
       <use x="63.623046875" xlink:href="#BitstreamVeraSans-Roman-2e"/>
       <use x="95.41015625" xlink:href="#BitstreamVeraSans-Roman-38"/>
      </g>
     </g>
    </g>
    <g id="ytick_12">
     <g id="line2d_65">
      <g>
       <use style="stroke:#000000;stroke-width:0.5;" x="256.021875" xlink:href="#m728421d6d4" y="15.3"/>
      </g>
     </g>
     <g id="line2d_66">
      <g>
       <use style="stroke:#000000;stroke-width:0.5;" x="414.253125" xlink:href="#mcb0005524f" y="15.3"/>
      </g>
     </g>
     <g id="text_30">
      <!-- 1.0 -->
      <g transform="translate(237.88125 18.059375)scale(0.1 -0.1)">
       <use xlink:href="#BitstreamVeraSans-Roman-31"/>
       <use x="63.623046875" xlink:href="#BitstreamVeraSans-Roman-2e"/>
       <use x="95.41015625" xlink:href="#BitstreamVeraSans-Roman-30"/>
      </g>
     </g>
    </g>
    <g id="text_31">
     <!-- Cumulative Distribution -->
     <g transform="translate(230.259375 155.62109375)rotate(-90.0)scale(0.1 -0.1)">
      <use xlink:href="#BitstreamVeraSans-Roman-43"/>
      <use x="69.82421875" xlink:href="#BitstreamVeraSans-Roman-75"/>
      <use x="133.203125" xlink:href="#BitstreamVeraSans-Roman-6d"/>
      <use x="230.615234375" xlink:href="#BitstreamVeraSans-Roman-75"/>
      <use x="293.994140625" xlink:href="#BitstreamVeraSans-Roman-6c"/>
      <use x="321.77734375" xlink:href="#BitstreamVeraSans-Roman-61"/>
      <use x="383.056640625" xlink:href="#BitstreamVeraSans-Roman-74"/>
      <use x="422.265625" xlink:href="#BitstreamVeraSans-Roman-69"/>
      <use x="450.048828125" xlink:href="#BitstreamVeraSans-Roman-76"/>
      <use x="509.228515625" xlink:href="#BitstreamVeraSans-Roman-65"/>
      <use x="570.751953125" xlink:href="#BitstreamVeraSans-Roman-20"/>
      <use x="602.5390625" xlink:href="#BitstreamVeraSans-Roman-44"/>
      <use x="679.541015625" xlink:href="#BitstreamVeraSans-Roman-69"/>
      <use x="707.32421875" xlink:href="#BitstreamVeraSans-Roman-73"/>
      <use x="759.423828125" xlink:href="#BitstreamVeraSans-Roman-74"/>
      <use x="798.6328125" xlink:href="#BitstreamVeraSans-Roman-72"/>
      <use x="839.74609375" xlink:href="#BitstreamVeraSans-Roman-69"/>
      <use x="867.529296875" xlink:href="#BitstreamVeraSans-Roman-62"/>
      <use x="931.005859375" xlink:href="#BitstreamVeraSans-Roman-75"/>
      <use x="994.384765625" xlink:href="#BitstreamVeraSans-Roman-74"/>
      <use x="1033.59375" xlink:href="#BitstreamVeraSans-Roman-69"/>
      <use x="1061.37695312" xlink:href="#BitstreamVeraSans-Roman-6f"/>
      <use x="1122.55859375" xlink:href="#BitstreamVeraSans-Roman-6e"/>
     </g>
    </g>
   </g>
  </g>
  <g id="axes_3">
   <g id="patch_12">
    <path d="
M468.422 178.2
L626.653 178.2
L626.653 15.3
L468.422 15.3
z
" style="fill:#ffffff;"/>
   </g>
   <g id="line2d_67">
    <path clip-path="url(#p363ce1e41e)" d="
M510.764 178.2
L516.771 178.167
L518.037 178.07
L527.062 177.646
L531.426 176.962
L531.766 176.864
L532.479 176.669
L532.559 176.571
L534.867 175.789
L534.976 175.724
L536.963 174.747
L537.051 174.616
L537.779 174.258
L537.976 174.095
L538.693 173.769
L539.969 172.857
L540.37 172.564
L540.479 172.368
L540.725 172.205
L541.331 171.684
L541.462 171.521
L542.039 170.707
L542.278 170.283
L542.35 170.088
L542.448 169.99
L543.432 168.426
L543.588 168.035
L543.871 167.807
L543.987 167.611
L544.226 167.286
L544.711 166.699
L545.571 165.331
L545.687 165.201
L545.788 164.973
L546.011 164.679
L546.162 164.516
L546.263 164.288
L546.401 163.995
L546.706 163.702
L546.808 163.539
L546.95 163.376
L547.49 162.301
L547.566 162.138
L547.748 161.877
L547.901 161.78
L548.866 159.727
L549.154 158.945
L549.307 158.782
L549.459 158.424
L550.376 156.013
L550.446 155.818
L550.681 155.231
L550.817 154.97
L553.177 148.063
L553.333 147.477
L553.488 147.054
L553.611 146.63
L553.824 145.815
L553.98 145.327
L554.099 145.034
L554.431 144.024
L554.498 143.828
L554.604 143.274
L556.444 136.693
L556.556 136.4
L556.668 136.009
L556.867 135.194
L557.506 132.783
L557.654 132.197
L557.771 131.904
L558.402 129.004
L558.48 128.776
L559.037 126.039
L559.292 125.388
L559.414 124.801
L559.996 122.651
L560.108 122.228
L563.182 108.055
L563.264 107.827
L563.555 106.296
L563.664 105.905
L565 100.171
L565.117 99.5519
L565.204 99.2261
L565.33 98.5745
L565.434 98.0858
L565.559 97.5971
L565.964 95.5445
L566.077 94.8604
L566.387 93.2639
L566.516 92.9381
L566.702 92.0259
L566.75 91.5698
L566.866 90.9182
L567.038 90.3317
L567.172 89.6476
L567.228 89.4521
L567.337 88.9308
L567.456 88.214
L567.586 87.6276
L567.98 85.738
L568.137 85.1189
L568.373 84.3044
L568.811 82.089
L569.633 78.0491
L570.002 75.7359
L570.112 75.3449
L570.395 74.2698
L570.465 74.1069
L570.74 72.8689
L570.923 71.6308
L571.06 71.1095
L571.157 70.7186
L571.259 70.1647
L571.446 69.6109
L571.604 68.9267
L572.098 67.1999
L572.901 64.2352
L573.077 63.5836
L573.203 62.9645
L573.367 62.2478
L573.589 61.2704
L573.711 60.6514
L573.961 59.8369
L574.046 59.5762
L574.235 59.0549
L574.658 57.4259
L574.811 56.7743
L574.892 56.5137
L575.156 55.6015
L575.315 55.0802
L575.458 54.5263
L575.73 53.1905
L575.867 52.8973
L578.636 43.9378
L578.717 43.7423
L578.87 43.2536
L578.959 43.0256
L579.266 42.0156
L579.336 41.755
L581.043 36.5747
L581.141 36.3467
L581.267 35.858
L581.412 35.6625
L581.768 34.5548
L581.862 34.3593
L581.998 34.1638
L582.115 33.8054
L582.335 33.4471
L584.509 28.6252
L584.601 28.4949
L584.805 28.0388
L585.023 27.7781
L585.133 27.5501
L585.35 27.1265
L585.457 26.9311
L585.621 26.703
L585.748 26.312
L585.89 26.0188
L586.131 25.7908
L586.248 25.5953
L586.366 25.2369
L586.481 25.0414
L586.705 24.8134
L586.784 24.6505
L587.595 23.4124
L587.823 23.1844
L587.877 23.0866
L588.136 22.8911
L588.238 22.7608
L588.602 22.3373
L588.735 22.1744
L589.032 21.9789
L589.157 21.7834
L589.278 21.6205
L589.301 21.5554
L589.521 21.425
L590.448 20.7734
L590.786 20.6105
L591.017 20.4476
L591.704 19.8286
L592.128 19.568
L592.185 19.5028
L592.477 19.3399
L592.921 18.8186
L593.949 18.1996
L594.323 17.9064
L595.016 17.6132
L595.487 17.3525
L595.71 17.1896
L596.18 17.0267
L597.25 16.7335
L598.347 16.4729
L598.528 16.3426
L598.567 16.31
L605.467 15.5281
L613.452 15.3326
L613.452 15.3326" style="fill:none;stroke:#ff0000;stroke-linecap:square;"/>
   </g>
   <g id="line2d_68">
    <path clip-path="url(#p363ce1e41e)" d="
M537.932 178.2
L537.932 15.3" style="fill:none;stroke:#ff0000;stroke-linecap:square;"/>
   </g>
   <g id="line2d_69">
    <path clip-path="url(#p363ce1e41e)" d="
M592.467 178.2
L592.467 15.3" style="fill:none;stroke:#ff0000;stroke-linecap:square;"/>
   </g>
   <g id="line2d_70">
    <path clip-path="url(#p363ce1e41e)" d="
M490.64 178.2
L498.628 178.167
L500.967 178.07
L503.855 177.874
L503.856 177.842
L505.865 177.581
L506.156 177.483
L508.523 177.19
L510.328 176.799
L510.493 176.701
L510.803 176.636
L512.476 176.441
L513.482 176.147
L514.096 175.985
L516.879 175.04
L517.899 174.649
L518.853 174.03
L519.504 173.639
L519.627 173.541
L521.066 172.629
L521.728 172.336
L521.857 172.238
L522.844 171.554
L522.925 171.391
L523.08 171.228
L523.191 171.065
L524.765 169.794
L524.933 169.631
L525.25 169.338
L525.379 169.045
L525.62 168.817
L526.043 167.97
L526.29 167.807
L526.911 166.797
L527.091 166.602
L527.259 166.471
L527.487 166.243
L527.907 165.592
L528.231 165.233
L528.375 164.94
L528.627 164.712
L528.816 164.321
L529.053 164.093
L529.297 163.669
L529.742 163.05
L529.911 162.659
L530.136 162.366
L530.959 160.998
L531.072 160.737
L531.235 160.542
L531.428 160.281
L531.633 160.118
L531.829 159.857
L532.364 159.173
L532.587 158.978
L532.701 158.75
L536.518 149.855
L536.684 149.139
L537.077 148.259
L537.227 147.901
L537.428 147.477
L537.617 146.793
L537.871 146.141
L538.09 145.327
L538.337 144.936
L539.178 142.362
L539.262 142.199
L539.431 141.678
L539.885 140.342
L539.951 140.114
L540.18 139.658
L540.336 139.299
L540.539 138.518
L540.755 137.964
L540.832 137.703
L541.029 137.149
L541.131 136.889
L541.441 135.944
L541.657 135.162
L542.006 133.826
L542.074 133.631
L542.232 133.142
L542.411 132.49
L543.073 129.982
L543.198 129.428
L543.526 128.222
L543.738 127.212
L544.032 126.267
L544.267 125.095
L544.398 124.638
L544.568 123.791
L544.983 122.293
L545.395 120.468
L545.464 120.11
L545.566 119.817
L545.633 119.621
L549.493 104.048
L549.727 103.038
L550.213 101.735
L550.321 101.311
L551.105 97.9229
L551.258 97.1084
L551.358 96.5219
L551.434 96.2613
L551.901 94.111
L552.04 93.7852
L552.176 93.2965
L552.233 93.0685
L552.392 92.2865
L552.702 90.7879
L553.213 88.8005
L553.316 88.4421
L553.624 87.4647
L555.887 78.2446
L555.93 78.0817
L556.118 77.3649
L556.189 77.1043
L556.372 76.4527
L556.435 76.1594
L556.976 74.0417
L557.26 72.8037
L557.503 72.0218
L557.674 71.4353
L557.863 70.9792
L557.977 70.4905
L558.233 69.448
L558.411 68.7312
L558.717 67.6235
L559.013 66.2877
L559.18 65.9293
L559.264 65.5709
L559.442 64.9193
L559.534 64.6913
L559.695 63.9419
L559.868 63.0949
L560.126 62.5736
L560.232 62.2152
L560.39 61.922
L560.638 60.9772
L560.78 60.521
L560.983 59.8043
L561.042 59.6088
L561.883 56.6766
L562.051 56.3182
L562.208 55.5363
L562.272 55.2757
L562.375 55.015
L562.501 54.5915
L562.628 53.9399
L562.727 53.6792
L562.878 53.1254
L562.95 52.8973
L563.094 52.5064
L563.188 52.3109
L563.328 51.8548
L563.423 51.7244
L563.56 51.2683
L563.675 51.0077
L564.181 49.2484
L564.409 48.7922
L566.327 42.9604
L566.478 42.5043
L566.574 42.3414
L566.696 41.9179
L566.84 41.5595
L566.966 41.1685
L567.43 40.0282
L567.608 39.7024
L567.846 39.0182
L567.928 38.7902
L568.112 38.3341
L569.601 35.0761
L569.772 34.6851
L569.882 34.5222
L570.028 34.0661
L570.217 33.6425
L571.346 31.4923
L571.476 31.2316
L571.643 30.971
L571.746 30.7755
L572.14 30.1565
L572.326 29.9936
L572.385 29.8307
L572.505 29.6678
L572.687 29.342
L572.859 29.2117
L573.086 28.9836
L573.248 28.7881
L573.35 28.4949
L573.616 28.1691
L573.727 27.9736
L573.894 27.7781
L574.036 27.5175
L575.195 25.8233
L575.211 25.7908
L575.525 25.6279
L575.66 25.3672
L575.844 25.2043
L575.997 25.0088
L576.417 24.455
L576.598 24.2269
L577.028 23.5427
L577.223 23.2821
L577.341 23.0866
L577.562 22.9237
L577.809 22.5979
L578.123 22.3047
L578.483 21.9463
L578.687 21.6857
L580.247 20.5454
L580.623 20.3173
L580.673 20.2522
L581.069 20.0893
L581.859 19.6006
L582.022 19.2748
L582.926 18.6883
L583.537 18.3299
L584.119 18.167
L584.432 18.0041
L584.456 17.939
L584.951 17.7761
L585.126 17.6458
L587.401 16.6684
L588.263 16.4403
L588.405 16.31
L589.35 16.0819
L589.415 16.0493
L591.039 15.8539
L591.57 15.7561
L592.592 15.6258
L592.941 15.4955
L596.114 15.3652
L606.066 15.3326
L606.066 15.3326" style="fill:none;stroke:#0000ff;stroke-linecap:square;"/>
   </g>
   <g id="line2d_71">
    <path clip-path="url(#p363ce1e41e)" d="
M518.665 178.2
L518.665 15.3" style="fill:none;stroke:#0000ff;stroke-dasharray:6.000000,6.000000;stroke-dashoffset:0.0;"/>
   </g>
   <g id="line2d_72">
    <path clip-path="url(#p363ce1e41e)" d="
M581.964 178.2
L581.964 15.3" style="fill:none;stroke:#0000ff;stroke-dasharray:6.000000,6.000000;stroke-dashoffset:0.0;"/>
   </g>
   <g id="patch_13">
    <path d="
M468.422 15.3
L626.653 15.3" style="fill:none;stroke:#000000;stroke-linecap:square;stroke-linejoin:miter;"/>
   </g>
   <g id="patch_14">
    <path d="
M626.653 178.2
L626.653 15.3" style="fill:none;stroke:#000000;stroke-linecap:square;stroke-linejoin:miter;"/>
   </g>
   <g id="patch_15">
    <path d="
M468.422 178.2
L626.653 178.2" style="fill:none;stroke:#000000;stroke-linecap:square;stroke-linejoin:miter;"/>
   </g>
   <g id="patch_16">
    <path d="
M468.422 178.2
L468.422 15.3" style="fill:none;stroke:#000000;stroke-linecap:square;stroke-linejoin:miter;"/>
   </g>
   <g id="matplotlib.axis_5">
    <g id="xtick_16">
     <g id="line2d_73">
      <g>
       <use style="stroke:#000000;stroke-width:0.5;" x="468.421875" xlink:href="#m93b0483c22" y="178.2"/>
      </g>
     </g>
     <g id="line2d_74">
      <g>
       <use style="stroke:#000000;stroke-width:0.5;" x="468.421875" xlink:href="#m741efc42ff" y="15.3"/>
      </g>
     </g>
     <g id="text_32">
      <!-- 0.50 -->
      <g transform="translate(457.95078125 189.7984375)scale(0.1 -0.1)">
       <use xlink:href="#BitstreamVeraSans-Roman-30"/>
       <use x="63.623046875" xlink:href="#BitstreamVeraSans-Roman-2e"/>
       <use x="95.41015625" xlink:href="#BitstreamVeraSans-Roman-35"/>
       <use x="159.033203125" xlink:href="#BitstreamVeraSans-Roman-30"/>
      </g>
     </g>
    </g>
    <g id="xtick_17">
     <g id="line2d_75">
      <g>
       <use style="stroke:#000000;stroke-width:0.5;" x="494.79375" xlink:href="#m93b0483c22" y="178.2"/>
      </g>
     </g>
     <g id="line2d_76">
      <g>
       <use style="stroke:#000000;stroke-width:0.5;" x="494.79375" xlink:href="#m741efc42ff" y="15.3"/>
      </g>
     </g>
     <g id="text_33">
      <!-- 0.55 -->
      <g transform="translate(484.42734375 189.7984375)scale(0.1 -0.1)">
       <use xlink:href="#BitstreamVeraSans-Roman-30"/>
       <use x="63.623046875" xlink:href="#BitstreamVeraSans-Roman-2e"/>
       <use x="95.41015625" xlink:href="#BitstreamVeraSans-Roman-35"/>
       <use x="159.033203125" xlink:href="#BitstreamVeraSans-Roman-35"/>
      </g>
     </g>
    </g>
    <g id="xtick_18">
     <g id="line2d_77">
      <g>
       <use style="stroke:#000000;stroke-width:0.5;" x="521.165625" xlink:href="#m93b0483c22" y="178.2"/>
      </g>
     </g>
     <g id="line2d_78">
      <g>
       <use style="stroke:#000000;stroke-width:0.5;" x="521.165625" xlink:href="#m741efc42ff" y="15.3"/>
      </g>
     </g>
     <g id="text_34">
      <!-- 0.60 -->
      <g transform="translate(510.69453125 189.7984375)scale(0.1 -0.1)">
       <use xlink:href="#BitstreamVeraSans-Roman-30"/>
       <use x="63.623046875" xlink:href="#BitstreamVeraSans-Roman-2e"/>
       <use x="95.41015625" xlink:href="#BitstreamVeraSans-Roman-36"/>
       <use x="159.033203125" xlink:href="#BitstreamVeraSans-Roman-30"/>
      </g>
     </g>
    </g>
    <g id="xtick_19">
     <g id="line2d_79">
      <g>
       <use style="stroke:#000000;stroke-width:0.5;" x="547.5375" xlink:href="#m93b0483c22" y="178.2"/>
      </g>
     </g>
     <g id="line2d_80">
      <g>
       <use style="stroke:#000000;stroke-width:0.5;" x="547.5375" xlink:href="#m741efc42ff" y="15.3"/>
      </g>
     </g>
     <g id="text_35">
      <!-- 0.65 -->
      <g transform="translate(537.17109375 189.7984375)scale(0.1 -0.1)">
       <use xlink:href="#BitstreamVeraSans-Roman-30"/>
       <use x="63.623046875" xlink:href="#BitstreamVeraSans-Roman-2e"/>
       <use x="95.41015625" xlink:href="#BitstreamVeraSans-Roman-36"/>
       <use x="159.033203125" xlink:href="#BitstreamVeraSans-Roman-35"/>
      </g>
     </g>
    </g>
    <g id="xtick_20">
     <g id="line2d_81">
      <g>
       <use style="stroke:#000000;stroke-width:0.5;" x="573.909375" xlink:href="#m93b0483c22" y="178.2"/>
      </g>
     </g>
     <g id="line2d_82">
      <g>
       <use style="stroke:#000000;stroke-width:0.5;" x="573.909375" xlink:href="#m741efc42ff" y="15.3"/>
      </g>
     </g>
     <g id="text_36">
      <!-- 0.70 -->
      <g transform="translate(563.43828125 189.7984375)scale(0.1 -0.1)">
       <use xlink:href="#BitstreamVeraSans-Roman-30"/>
       <use x="63.623046875" xlink:href="#BitstreamVeraSans-Roman-2e"/>
       <use x="95.41015625" xlink:href="#BitstreamVeraSans-Roman-37"/>
       <use x="159.033203125" xlink:href="#BitstreamVeraSans-Roman-30"/>
      </g>
     </g>
    </g>
    <g id="xtick_21">
     <g id="line2d_83">
      <g>
       <use style="stroke:#000000;stroke-width:0.5;" x="600.28125" xlink:href="#m93b0483c22" y="178.2"/>
      </g>
     </g>
     <g id="line2d_84">
      <g>
       <use style="stroke:#000000;stroke-width:0.5;" x="600.28125" xlink:href="#m741efc42ff" y="15.3"/>
      </g>
     </g>
     <g id="text_37">
      <!-- 0.75 -->
      <g transform="translate(589.91484375 189.7984375)scale(0.1 -0.1)">
       <use xlink:href="#BitstreamVeraSans-Roman-30"/>
       <use x="63.623046875" xlink:href="#BitstreamVeraSans-Roman-2e"/>
       <use x="95.41015625" xlink:href="#BitstreamVeraSans-Roman-37"/>
       <use x="159.033203125" xlink:href="#BitstreamVeraSans-Roman-35"/>
      </g>
     </g>
    </g>
    <g id="xtick_22">
     <g id="line2d_85">
      <g>
       <use style="stroke:#000000;stroke-width:0.5;" x="626.653125" xlink:href="#m93b0483c22" y="178.2"/>
      </g>
     </g>
     <g id="line2d_86">
      <g>
       <use style="stroke:#000000;stroke-width:0.5;" x="626.653125" xlink:href="#m741efc42ff" y="15.3"/>
      </g>
     </g>
     <g id="text_38">
      <!-- 0.80 -->
      <g transform="translate(616.18203125 189.7984375)scale(0.1 -0.1)">
       <use xlink:href="#BitstreamVeraSans-Roman-30"/>
       <use x="63.623046875" xlink:href="#BitstreamVeraSans-Roman-2e"/>
       <use x="95.41015625" xlink:href="#BitstreamVeraSans-Roman-38"/>
       <use x="159.033203125" xlink:href="#BitstreamVeraSans-Roman-30"/>
      </g>
     </g>
    </g>
    <g id="text_39">
     <!-- Z component -->
     <defs>
      <path d="
M5.60938 72.9062
L62.8906 72.9062
L62.8906 65.375
L16.7969 8.29688
L64.0156 8.29688
L64.0156 0
L4.5 0
L4.5 7.51562
L50.5938 64.5938
L5.60938 64.5938
z
" id="BitstreamVeraSans-Roman-5a"/>
     </defs>
     <g transform="translate(514.35625 204.4765625)scale(0.1 -0.1)">
      <use xlink:href="#BitstreamVeraSans-Roman-5a"/>
      <use x="68.505859375" xlink:href="#BitstreamVeraSans-Roman-20"/>
      <use x="100.29296875" xlink:href="#BitstreamVeraSans-Roman-63"/>
      <use x="155.2734375" xlink:href="#BitstreamVeraSans-Roman-6f"/>
      <use x="216.455078125" xlink:href="#BitstreamVeraSans-Roman-6d"/>
      <use x="313.8671875" xlink:href="#BitstreamVeraSans-Roman-70"/>
      <use x="377.34375" xlink:href="#BitstreamVeraSans-Roman-6f"/>
      <use x="438.525390625" xlink:href="#BitstreamVeraSans-Roman-6e"/>
      <use x="501.904296875" xlink:href="#BitstreamVeraSans-Roman-65"/>
      <use x="563.427734375" xlink:href="#BitstreamVeraSans-Roman-6e"/>
      <use x="626.806640625" xlink:href="#BitstreamVeraSans-Roman-74"/>
     </g>
    </g>
   </g>
   <g id="matplotlib.axis_6">
    <g id="ytick_13">
     <g id="line2d_87">
      <g>
       <use style="stroke:#000000;stroke-width:0.5;" x="468.421875" xlink:href="#m728421d6d4" y="178.2"/>
      </g>
     </g>
     <g id="line2d_88">
      <g>
       <use style="stroke:#000000;stroke-width:0.5;" x="626.653125" xlink:href="#mcb0005524f" y="178.2"/>
      </g>
     </g>
     <g id="text_40">
      <!-- 0.0 -->
      <g transform="translate(449.8421875 180.959375)scale(0.1 -0.1)">
       <use xlink:href="#BitstreamVeraSans-Roman-30"/>
       <use x="63.623046875" xlink:href="#BitstreamVeraSans-Roman-2e"/>
       <use x="95.41015625" xlink:href="#BitstreamVeraSans-Roman-30"/>
      </g>
     </g>
    </g>
    <g id="ytick_14">
     <g id="line2d_89">
      <g>
       <use style="stroke:#000000;stroke-width:0.5;" x="468.421875" xlink:href="#m728421d6d4" y="145.62"/>
      </g>
     </g>
     <g id="line2d_90">
      <g>
       <use style="stroke:#000000;stroke-width:0.5;" x="626.653125" xlink:href="#mcb0005524f" y="145.62"/>
      </g>
     </g>
     <g id="text_41">
      <!-- 0.2 -->
      <g transform="translate(450.1796875 148.379375)scale(0.1 -0.1)">
       <use xlink:href="#BitstreamVeraSans-Roman-30"/>
       <use x="63.623046875" xlink:href="#BitstreamVeraSans-Roman-2e"/>
       <use x="95.41015625" xlink:href="#BitstreamVeraSans-Roman-32"/>
      </g>
     </g>
    </g>
    <g id="ytick_15">
     <g id="line2d_91">
      <g>
       <use style="stroke:#000000;stroke-width:0.5;" x="468.421875" xlink:href="#m728421d6d4" y="113.04"/>
      </g>
     </g>
     <g id="line2d_92">
      <g>
       <use style="stroke:#000000;stroke-width:0.5;" x="626.653125" xlink:href="#mcb0005524f" y="113.04"/>
      </g>
     </g>
     <g id="text_42">
      <!-- 0.4 -->
      <g transform="translate(449.7390625 115.799375)scale(0.1 -0.1)">
       <use xlink:href="#BitstreamVeraSans-Roman-30"/>
       <use x="63.623046875" xlink:href="#BitstreamVeraSans-Roman-2e"/>
       <use x="95.41015625" xlink:href="#BitstreamVeraSans-Roman-34"/>
      </g>
     </g>
    </g>
    <g id="ytick_16">
     <g id="line2d_93">
      <g>
       <use style="stroke:#000000;stroke-width:0.5;" x="468.421875" xlink:href="#m728421d6d4" y="80.46"/>
      </g>
     </g>
     <g id="line2d_94">
      <g>
       <use style="stroke:#000000;stroke-width:0.5;" x="626.653125" xlink:href="#mcb0005524f" y="80.46"/>
      </g>
     </g>
     <g id="text_43">
      <!-- 0.6 -->
      <g transform="translate(449.8078125 83.219375)scale(0.1 -0.1)">
       <use xlink:href="#BitstreamVeraSans-Roman-30"/>
       <use x="63.623046875" xlink:href="#BitstreamVeraSans-Roman-2e"/>
       <use x="95.41015625" xlink:href="#BitstreamVeraSans-Roman-36"/>
      </g>
     </g>
    </g>
    <g id="ytick_17">
     <g id="line2d_95">
      <g>
       <use style="stroke:#000000;stroke-width:0.5;" x="468.421875" xlink:href="#m728421d6d4" y="47.88"/>
      </g>
     </g>
     <g id="line2d_96">
      <g>
       <use style="stroke:#000000;stroke-width:0.5;" x="626.653125" xlink:href="#mcb0005524f" y="47.88"/>
      </g>
     </g>
     <g id="text_44">
      <!-- 0.8 -->
      <g transform="translate(449.8625 50.639375)scale(0.1 -0.1)">
       <use xlink:href="#BitstreamVeraSans-Roman-30"/>
       <use x="63.623046875" xlink:href="#BitstreamVeraSans-Roman-2e"/>
       <use x="95.41015625" xlink:href="#BitstreamVeraSans-Roman-38"/>
      </g>
     </g>
    </g>
    <g id="ytick_18">
     <g id="line2d_97">
      <g>
       <use style="stroke:#000000;stroke-width:0.5;" x="468.421875" xlink:href="#m728421d6d4" y="15.3"/>
      </g>
     </g>
     <g id="line2d_98">
      <g>
       <use style="stroke:#000000;stroke-width:0.5;" x="626.653125" xlink:href="#mcb0005524f" y="15.3"/>
      </g>
     </g>
     <g id="text_45">
      <!-- 1.0 -->
      <g transform="translate(450.28125 18.059375)scale(0.1 -0.1)">
       <use xlink:href="#BitstreamVeraSans-Roman-31"/>
       <use x="63.623046875" xlink:href="#BitstreamVeraSans-Roman-2e"/>
       <use x="95.41015625" xlink:href="#BitstreamVeraSans-Roman-30"/>
      </g>
     </g>
    </g>
    <g id="text_46">
     <!-- Cumulative Distribution -->
     <g transform="translate(442.659375 155.62109375)rotate(-90.0)scale(0.1 -0.1)">
      <use xlink:href="#BitstreamVeraSans-Roman-43"/>
      <use x="69.82421875" xlink:href="#BitstreamVeraSans-Roman-75"/>
      <use x="133.203125" xlink:href="#BitstreamVeraSans-Roman-6d"/>
      <use x="230.615234375" xlink:href="#BitstreamVeraSans-Roman-75"/>
      <use x="293.994140625" xlink:href="#BitstreamVeraSans-Roman-6c"/>
      <use x="321.77734375" xlink:href="#BitstreamVeraSans-Roman-61"/>
      <use x="383.056640625" xlink:href="#BitstreamVeraSans-Roman-74"/>
      <use x="422.265625" xlink:href="#BitstreamVeraSans-Roman-69"/>
      <use x="450.048828125" xlink:href="#BitstreamVeraSans-Roman-76"/>
      <use x="509.228515625" xlink:href="#BitstreamVeraSans-Roman-65"/>
      <use x="570.751953125" xlink:href="#BitstreamVeraSans-Roman-20"/>
      <use x="602.5390625" xlink:href="#BitstreamVeraSans-Roman-44"/>
      <use x="679.541015625" xlink:href="#BitstreamVeraSans-Roman-69"/>
      <use x="707.32421875" xlink:href="#BitstreamVeraSans-Roman-73"/>
      <use x="759.423828125" xlink:href="#BitstreamVeraSans-Roman-74"/>
      <use x="798.6328125" xlink:href="#BitstreamVeraSans-Roman-72"/>
      <use x="839.74609375" xlink:href="#BitstreamVeraSans-Roman-69"/>
      <use x="867.529296875" xlink:href="#BitstreamVeraSans-Roman-62"/>
      <use x="931.005859375" xlink:href="#BitstreamVeraSans-Roman-75"/>
      <use x="994.384765625" xlink:href="#BitstreamVeraSans-Roman-74"/>
      <use x="1033.59375" xlink:href="#BitstreamVeraSans-Roman-69"/>
      <use x="1061.37695312" xlink:href="#BitstreamVeraSans-Roman-6f"/>
      <use x="1122.55859375" xlink:href="#BitstreamVeraSans-Roman-6e"/>
     </g>
    </g>
   </g>
  </g>
 </g>
 <defs>
  <clipPath id="p6285ca8f12">
   <rect height="162.9" width="158.23125" x="43.621875" y="15.3"/>
  </clipPath>
  <clipPath id="p363ce1e41e">
   <rect height="162.9" width="158.23125" x="468.421875" y="15.3"/>
  </clipPath>
  <clipPath id="p86bc4e6650">
   <rect height="162.9" width="158.23125" x="256.021875" y="15.3"/>
  </clipPath>
 </defs>
</svg>
