<?xml version="1.0" encoding="utf-8" standalone="no"?>
<!DOCTYPE svg PUBLIC "-//W3C//DTD SVG 1.1//EN"
  "http://www.w3.org/Graphics/SVG/1.1/DTD/svg11.dtd">
<!-- Created with matplotlib (http://matplotlib.org/) -->
<svg height="165pt" version="1.1" viewBox="0 0 504 165" width="504pt" xmlns="http://www.w3.org/2000/svg" xmlns:xlink="http://www.w3.org/1999/xlink">
 <defs>
  <style type="text/css">
*{stroke-linecap:butt;stroke-linejoin:round;stroke-miterlimit:100000;}
  </style>
 </defs>
 <g id="figure_1">
  <g id="patch_1">
   <path d="M 0 165.6 
L 504 165.6 
L 504 0 
L 0 0 
z
" style="fill:#ffffff;"/>
  </g>
  <g id="axes_1">
   <g id="patch_2">
    <path d="M 44.8875 127.8 
L 156.35625 127.8 
L 156.35625 15.3 
L 44.8875 15.3 
z
" style="fill:#ffffff;"/>
   </g>
   <g id="line2d_1">
    <path clip-path="url(#p95769f6034)" d="M 73.414953 127.8 
L 76.034869 127.62 
L 77.446732 127.4175 
L 79.24857 126.9675 
L 79.351929 126.9 
L 80.085164 126.72 
L 80.271043 126.585 
L 80.959698 126.2925 
L 81.036791 126.225 
L 81.460435 126.0675 
L 81.935173 125.7525 
L 82.538046 125.3025 
L 82.604802 125.2125 
L 83.181687 124.92 
L 83.58441 124.5825 
L 83.80804 124.425 
L 83.940079 124.335 
L 84.112433 124.1775 
L 84.265406 123.9525 
L 85.175611 122.49 
L 85.315866 122.31 
L 86.648937 120.0375 
L 86.84464 119.655 
L 87.254833 118.845 
L 87.392607 118.4625 
L 87.819111 117.495 
L 87.917957 117.3375 
L 88.120757 116.955 
L 88.17977 116.73 
L 88.304317 116.5275 
L 88.453088 116.19 
L 88.566649 115.83 
L 88.797905 115.1325 
L 88.948793 114.7275 
L 89.056173 114.5475 
L 89.174539 114.255 
L 89.268348 113.985 
L 89.480854 113.3775 
L 89.811008 112.59 
L 90.015306 112.095 
L 90.108583 111.825 
L 90.332875 111.15 
L 90.68355 109.9575 
L 90.796116 109.71 
L 90.969213 109.0575 
L 93.519495 98.7525 
L 93.646503 98.325 
L 93.686237 98.0775 
L 93.842129 97.1775 
L 93.908108 96.93 
L 94.112854 95.895 
L 94.351666 94.59 
L 94.540973 93.645 
L 94.69432 92.7675 
L 94.745261 92.61 
L 94.875576 91.6425 
L 95.038734 90.9225 
L 95.229046 89.82 
L 95.472077 88.605 
L 95.780191 87.12 
L 95.895146 86.535 
L 96.015332 85.8375 
L 96.136731 85.05 
L 96.202388 84.735 
L 96.312578 84.285 
L 96.406007 83.8125 
L 96.542015 82.9575 
L 96.702812 81.9675 
L 96.820814 81.135 
L 97.267083 78.4575 
L 97.491314 77.2425 
L 97.525002 77.0175 
L 97.651773 76.2525 
L 97.866751 74.9475 
L 98.036239 73.98 
L 98.53289 71.5725 
L 98.723163 70.3125 
L 98.759919 70.0425 
L 98.921085 68.8275 
L 99.119728 67.59 
L 99.689654 64.125 
L 99.727916 63.945 
L 99.832713 63.225 
L 99.884755 62.9325 
L 99.97228 62.505 
L 100.116262 61.7625 
L 100.166796 61.425 
L 100.459197 59.5125 
L 100.5619 59.04 
L 100.740029 57.78 
L 100.789901 57.555 
L 102.520388 48.15 
L 102.694616 47.2275 
L 102.992606 45.495 
L 103.080017 45.045 
L 103.272788 44.0775 
L 103.738211 42.03 
L 103.811373 41.7825 
L 103.989715 40.95 
L 104.187397 40.1175 
L 104.312257 39.6225 
L 105.735298 33.75 
L 105.792788 33.5925 
L 105.864802 33.3675 
L 106.219473 32.0175 
L 106.362825 31.6575 
L 106.607297 30.735 
L 106.734996 30.0825 
L 106.844515 29.6775 
L 106.955652 29.385 
L 107.030506 29.16 
L 107.282353 28.44 
L 107.366232 28.17 
L 108.167998 25.74 
L 108.267689 25.5825 
L 108.999889 23.8725 
L 109.209388 23.58 
L 109.618759 22.77 
L 109.783287 22.5675 
L 110.922459 20.385 
L 111.074807 20.1825 
L 111.148957 20.0025 
L 111.264443 19.845 
L 111.393493 19.62 
L 111.597751 19.3725 
L 111.73264 19.125 
L 111.920583 18.8325 
L 112.083896 18.63 
L 112.228878 18.4725 
L 112.522099 18.0675 
L 112.775783 17.91 
L 112.933519 17.7075 
L 113.209179 17.55 
L 113.326014 17.4375 
L 113.483714 17.28 
L 114.352149 16.8525 
L 114.355515 16.83 
L 114.820875 16.65 
L 114.929901 16.56 
L 115.185483 16.425 
L 117.536756 15.795 
L 119.171058 15.5925 
L 119.83865 15.525 
L 122.970101 15.3225 
L 122.970101 15.3225 
" style="fill:none;stroke:#ff0000;stroke-linecap:square;"/>
   </g>
   <g id="line2d_2">
    <path clip-path="url(#p95769f6034)" d="M 83.109419 127.8 
L 83.109419 15.3 
" style="fill:none;stroke:#ff0000;stroke-linecap:square;"/>
   </g>
   <g id="line2d_3">
    <path clip-path="url(#p95769f6034)" d="M 112.460561 127.8 
L 112.460561 15.3 
" style="fill:none;stroke:#ff0000;stroke-linecap:square;"/>
   </g>
   <g id="line2d_4">
    <path clip-path="url(#p95769f6034)" d="M 58.861487 127.8 
L 68.769396 127.6425 
L 72.960367 127.4625 
L 73.779644 127.3275 
L 75.488614 126.8775 
L 75.608536 126.765 
L 76.91897 126.45 
L 77.814982 126.2475 
L 78.471958 126.09 
L 79.379394 125.6625 
L 79.382339 125.64 
L 79.706126 125.4825 
L 79.916178 125.3475 
L 80.863841 125.055 
L 81.059132 124.9425 
L 81.516902 124.7625 
L 81.582299 124.695 
L 81.872836 124.5375 
L 82.459292 124.1325 
L 82.798186 123.93 
L 82.918811 123.84 
L 83.09975 123.6825 
L 83.218545 123.525 
L 84.223175 122.445 
L 84.648009 122.0175 
L 84.859697 121.8375 
L 85.000775 121.635 
L 85.77094 120.6 
L 86.175151 120.3075 
L 88.969038 115.875 
L 89.508129 114.6825 
L 89.613375 114.5025 
L 90.297493 113.175 
L 90.452285 112.905 
L 90.57492 112.635 
L 90.998155 111.7575 
L 91.12639 111.42 
L 91.295106 110.97 
L 92.477215 108.27 
L 92.651873 107.91 
L 92.716862 107.685 
L 93.213364 106.1775 
L 93.454785 105.2325 
L 93.572173 104.805 
L 93.754631 104.22 
L 93.844296 103.995 
L 94.441374 101.925 
L 94.648402 101.43 
L 94.765972 101.115 
L 94.911561 100.845 
L 95.006206 100.4625 
L 95.090163 100.215 
L 95.247066 99.5625 
L 95.5607 98.6175 
L 96.26852 96.3225 
L 96.382734 96.0075 
L 96.527399 95.355 
L 96.771253 94.365 
L 96.833069 94.0275 
L 96.966631 93.555 
L 97.056393 93.2625 
L 97.413655 91.8675 
L 97.648055 91.0125 
L 97.731636 90.72 
L 98.776667 86.5125 
L 98.89858 85.995 
L 99.147994 85.1175 
L 99.284573 84.465 
L 99.920377 81.9675 
L 99.97751 81.7875 
L 100.082353 81.4275 
L 100.250421 80.55 
L 100.316946 80.3025 
L 100.559144 78.9075 
L 100.740711 78.255 
L 100.873504 77.8725 
L 101.159413 76.4775 
L 101.241548 76.2525 
L 101.852063 73.755 
L 101.9607 73.4175 
L 102.153024 72.6075 
L 102.304862 71.685 
L 102.517544 70.74 
L 102.627165 69.975 
L 102.70471 69.7725 
L 102.827527 69.03 
L 102.94178 68.715 
L 103.103109 68.2875 
L 103.415907 66.8475 
L 103.554658 66.24 
L 104.317687 63.405 
L 104.423812 62.7525 
L 104.483627 62.5275 
L 105.198886 59.265 
L 105.307315 58.8825 
L 105.443061 58.23 
L 105.534199 57.7575 
L 105.647439 57.42 
L 106.125912 55.305 
L 106.206929 55.1475 
L 106.329375 54.675 
L 106.432412 54.27 
L 107.143071 50.895 
L 107.224708 50.715 
L 107.615408 49.095 
L 107.851842 48.42 
L 109.643947 41.31 
L 109.74213 40.9275 
L 109.869218 40.41 
L 109.973505 40.095 
L 110.122348 39.375 
L 110.203075 39.1725 
L 110.359758 38.745 
L 110.464184 38.385 
L 110.611915 38.025 
L 110.79929 37.3275 
L 110.927194 36.81 
L 113.104923 30.825 
L 113.180673 30.645 
L 114.056078 28.6425 
L 114.178954 28.395 
L 114.309879 28.08 
L 114.423589 27.7875 
L 114.640726 27.3375 
L 115.744385 24.8175 
L 115.984837 24.525 
L 116.791839 23.175 
L 117.066073 22.8375 
L 117.306964 22.41 
L 117.591479 22.1175 
L 117.71693 21.9375 
L 117.859446 21.735 
L 118.051188 21.3975 
L 118.336875 20.9925 
L 118.447732 20.88 
L 118.814199 20.475 
L 119.717553 19.3725 
L 119.94206 19.215 
L 120.149689 19.0575 
L 120.235388 18.99 
L 120.456665 18.765 
L 120.58869 18.6525 
L 120.760931 18.5175 
L 121.383774 18 
L 121.527948 17.91 
L 122.041549 17.6625 
L 122.168316 17.55 
L 122.694853 17.2575 
L 123.054356 17.1 
L 123.268451 17.0325 
L 123.571084 16.8525 
L 123.631442 16.7625 
L 126.056903 15.9975 
L 131.492837 15.3675 
L 133.159554 15.3225 
L 133.159554 15.3225 
" style="fill:none;stroke:#0000ff;stroke-linecap:square;"/>
   </g>
   <g id="line2d_5">
    <path clip-path="url(#p95769f6034)" d="M 81.007068 127.8 
L 81.007068 15.3 
" style="fill:none;stroke:#0000ff;stroke-dasharray:6.000000,6.000000;stroke-dashoffset:0.0;"/>
   </g>
   <g id="line2d_6">
    <path clip-path="url(#p95769f6034)" d="M 121.269906 127.8 
L 121.269906 15.3 
" style="fill:none;stroke:#0000ff;stroke-dasharray:6.000000,6.000000;stroke-dashoffset:0.0;"/>
   </g>
   <g id="patch_3">
    <path d="M 44.8875 15.3 
L 156.35625 15.3 
" style="fill:none;stroke:#000000;stroke-linecap:square;stroke-linejoin:miter;"/>
   </g>
   <g id="patch_4">
    <path d="M 156.35625 127.8 
L 156.35625 15.3 
" style="fill:none;stroke:#000000;stroke-linecap:square;stroke-linejoin:miter;"/>
   </g>
   <g id="patch_5">
    <path d="M 44.8875 127.8 
L 156.35625 127.8 
" style="fill:none;stroke:#000000;stroke-linecap:square;stroke-linejoin:miter;"/>
   </g>
   <g id="patch_6">
    <path d="M 44.8875 127.8 
L 44.8875 15.3 
" style="fill:none;stroke:#000000;stroke-linecap:square;stroke-linejoin:miter;"/>
   </g>
   <g id="matplotlib.axis_1">
    <g id="xtick_1">
     <g id="line2d_7">
      <defs>
       <path d="M 0 0 
L 0 -4 
" id="md07ffde124" style="stroke:#000000;stroke-width:0.5;"/>
      </defs>
      <g>
       <use style="stroke:#000000;stroke-width:0.5;" x="44.8875" xlink:href="#md07ffde124" y="127.8"/>
      </g>
     </g>
     <g id="line2d_8">
      <defs>
       <path d="M 0 0 
L 0 4 
" id="mdae4f473cc" style="stroke:#000000;stroke-width:0.5;"/>
      </defs>
      <g>
       <use style="stroke:#000000;stroke-width:0.5;" x="44.8875" xlink:href="#mdae4f473cc" y="15.3"/>
      </g>
     </g>
     <g id="text_1">
      <!-- 0.4 -->
      <defs>
       <path d="M 31.78125 66.40625 
Q 24.171875 66.40625 20.328125 58.90625 
Q 16.5 51.421875 16.5 36.375 
Q 16.5 21.390625 20.328125 13.890625 
Q 24.171875 6.390625 31.78125 6.390625 
Q 39.453125 6.390625 43.28125 13.890625 
Q 47.125 21.390625 47.125 36.375 
Q 47.125 51.421875 43.28125 58.90625 
Q 39.453125 66.40625 31.78125 66.40625 
M 31.78125 74.21875 
Q 44.046875 74.21875 50.515625 64.515625 
Q 56.984375 54.828125 56.984375 36.375 
Q 56.984375 17.96875 50.515625 8.265625 
Q 44.046875 -1.421875 31.78125 -1.421875 
Q 19.53125 -1.421875 13.0625 8.265625 
Q 6.59375 17.96875 6.59375 36.375 
Q 6.59375 54.828125 13.0625 64.515625 
Q 19.53125 74.21875 31.78125 74.21875 
" id="BitstreamVeraSans-Roman-30"/>
       <path d="M 10.6875 12.40625 
L 21 12.40625 
L 21 0 
L 10.6875 0 
z
" id="BitstreamVeraSans-Roman-2e"/>
       <path d="M 37.796875 64.3125 
L 12.890625 25.390625 
L 37.796875 25.390625 
z
M 35.203125 72.90625 
L 47.609375 72.90625 
L 47.609375 25.390625 
L 58.015625 25.390625 
L 58.015625 17.1875 
L 47.609375 17.1875 
L 47.609375 0 
L 37.796875 0 
L 37.796875 17.1875 
L 4.890625 17.1875 
L 4.890625 26.703125 
z
" id="BitstreamVeraSans-Roman-34"/>
      </defs>
      <g transform="translate(36.9359375 139.3984375)scale(0.1 -0.1)">
       <use xlink:href="#BitstreamVeraSans-Roman-30"/>
       <use x="63.623046875" xlink:href="#BitstreamVeraSans-Roman-2e"/>
       <use x="95.41015625" xlink:href="#BitstreamVeraSans-Roman-34"/>
      </g>
     </g>
    </g>
    <g id="xtick_2">
     <g id="line2d_9">
      <g>
       <use style="stroke:#000000;stroke-width:0.5;" x="72.7546875" xlink:href="#md07ffde124" y="127.8"/>
      </g>
     </g>
     <g id="line2d_10">
      <g>
       <use style="stroke:#000000;stroke-width:0.5;" x="72.7546875" xlink:href="#mdae4f473cc" y="15.3"/>
      </g>
     </g>
     <g id="text_2">
      <!-- 0.5 -->
      <defs>
       <path d="M 10.796875 72.90625 
L 49.515625 72.90625 
L 49.515625 64.59375 
L 19.828125 64.59375 
L 19.828125 46.734375 
Q 21.96875 47.46875 24.109375 47.828125 
Q 26.265625 48.1875 28.421875 48.1875 
Q 40.625 48.1875 47.75 41.5 
Q 54.890625 34.8125 54.890625 23.390625 
Q 54.890625 11.625 47.5625 5.09375 
Q 40.234375 -1.421875 26.90625 -1.421875 
Q 22.3125 -1.421875 17.546875 -0.640625 
Q 12.796875 0.140625 7.71875 1.703125 
L 7.71875 11.625 
Q 12.109375 9.234375 16.796875 8.0625 
Q 21.484375 6.890625 26.703125 6.890625 
Q 35.15625 6.890625 40.078125 11.328125 
Q 45.015625 15.765625 45.015625 23.390625 
Q 45.015625 31 40.078125 35.4375 
Q 35.15625 39.890625 26.703125 39.890625 
Q 22.75 39.890625 18.8125 39.015625 
Q 14.890625 38.140625 10.796875 36.28125 
z
" id="BitstreamVeraSans-Roman-35"/>
      </defs>
      <g transform="translate(64.803125 139.3984375)scale(0.1 -0.1)">
       <use xlink:href="#BitstreamVeraSans-Roman-30"/>
       <use x="63.623046875" xlink:href="#BitstreamVeraSans-Roman-2e"/>
       <use x="95.41015625" xlink:href="#BitstreamVeraSans-Roman-35"/>
      </g>
     </g>
    </g>
    <g id="xtick_3">
     <g id="line2d_11">
      <g>
       <use style="stroke:#000000;stroke-width:0.5;" x="100.621875" xlink:href="#md07ffde124" y="127.8"/>
      </g>
     </g>
     <g id="line2d_12">
      <g>
       <use style="stroke:#000000;stroke-width:0.5;" x="100.621875" xlink:href="#mdae4f473cc" y="15.3"/>
      </g>
     </g>
     <g id="text_3">
      <!-- 0.6 -->
      <defs>
       <path d="M 33.015625 40.375 
Q 26.375 40.375 22.484375 35.828125 
Q 18.609375 31.296875 18.609375 23.390625 
Q 18.609375 15.53125 22.484375 10.953125 
Q 26.375 6.390625 33.015625 6.390625 
Q 39.65625 6.390625 43.53125 10.953125 
Q 47.40625 15.53125 47.40625 23.390625 
Q 47.40625 31.296875 43.53125 35.828125 
Q 39.65625 40.375 33.015625 40.375 
M 52.59375 71.296875 
L 52.59375 62.3125 
Q 48.875 64.0625 45.09375 64.984375 
Q 41.3125 65.921875 37.59375 65.921875 
Q 27.828125 65.921875 22.671875 59.328125 
Q 17.53125 52.734375 16.796875 39.40625 
Q 19.671875 43.65625 24.015625 45.921875 
Q 28.375 48.1875 33.59375 48.1875 
Q 44.578125 48.1875 50.953125 41.515625 
Q 57.328125 34.859375 57.328125 23.390625 
Q 57.328125 12.15625 50.6875 5.359375 
Q 44.046875 -1.421875 33.015625 -1.421875 
Q 20.359375 -1.421875 13.671875 8.265625 
Q 6.984375 17.96875 6.984375 36.375 
Q 6.984375 53.65625 15.1875 63.9375 
Q 23.390625 74.21875 37.203125 74.21875 
Q 40.921875 74.21875 44.703125 73.484375 
Q 48.484375 72.75 52.59375 71.296875 
" id="BitstreamVeraSans-Roman-36"/>
      </defs>
      <g transform="translate(92.6703125 139.3984375)scale(0.1 -0.1)">
       <use xlink:href="#BitstreamVeraSans-Roman-30"/>
       <use x="63.623046875" xlink:href="#BitstreamVeraSans-Roman-2e"/>
       <use x="95.41015625" xlink:href="#BitstreamVeraSans-Roman-36"/>
      </g>
     </g>
    </g>
    <g id="xtick_4">
     <g id="line2d_13">
      <g>
       <use style="stroke:#000000;stroke-width:0.5;" x="128.4890625" xlink:href="#md07ffde124" y="127.8"/>
      </g>
     </g>
     <g id="line2d_14">
      <g>
       <use style="stroke:#000000;stroke-width:0.5;" x="128.4890625" xlink:href="#mdae4f473cc" y="15.3"/>
      </g>
     </g>
     <g id="text_4">
      <!-- 0.7 -->
      <defs>
       <path d="M 8.203125 72.90625 
L 55.078125 72.90625 
L 55.078125 68.703125 
L 28.609375 0 
L 18.3125 0 
L 43.21875 64.59375 
L 8.203125 64.59375 
z
" id="BitstreamVeraSans-Roman-37"/>
      </defs>
      <g transform="translate(120.5375 139.3984375)scale(0.1 -0.1)">
       <use xlink:href="#BitstreamVeraSans-Roman-30"/>
       <use x="63.623046875" xlink:href="#BitstreamVeraSans-Roman-2e"/>
       <use x="95.41015625" xlink:href="#BitstreamVeraSans-Roman-37"/>
      </g>
     </g>
    </g>
    <g id="xtick_5">
     <g id="line2d_15">
      <g>
       <use style="stroke:#000000;stroke-width:0.5;" x="156.35625" xlink:href="#md07ffde124" y="127.8"/>
      </g>
     </g>
     <g id="line2d_16">
      <g>
       <use style="stroke:#000000;stroke-width:0.5;" x="156.35625" xlink:href="#mdae4f473cc" y="15.3"/>
      </g>
     </g>
     <g id="text_5">
      <!-- 0.8 -->
      <defs>
       <path d="M 31.78125 34.625 
Q 24.75 34.625 20.71875 30.859375 
Q 16.703125 27.09375 16.703125 20.515625 
Q 16.703125 13.921875 20.71875 10.15625 
Q 24.75 6.390625 31.78125 6.390625 
Q 38.8125 6.390625 42.859375 10.171875 
Q 46.921875 13.96875 46.921875 20.515625 
Q 46.921875 27.09375 42.890625 30.859375 
Q 38.875 34.625 31.78125 34.625 
M 21.921875 38.8125 
Q 15.578125 40.375 12.03125 44.71875 
Q 8.5 49.078125 8.5 55.328125 
Q 8.5 64.0625 14.71875 69.140625 
Q 20.953125 74.21875 31.78125 74.21875 
Q 42.671875 74.21875 48.875 69.140625 
Q 55.078125 64.0625 55.078125 55.328125 
Q 55.078125 49.078125 51.53125 44.71875 
Q 48 40.375 41.703125 38.8125 
Q 48.828125 37.15625 52.796875 32.3125 
Q 56.78125 27.484375 56.78125 20.515625 
Q 56.78125 9.90625 50.3125 4.234375 
Q 43.84375 -1.421875 31.78125 -1.421875 
Q 19.734375 -1.421875 13.25 4.234375 
Q 6.78125 9.90625 6.78125 20.515625 
Q 6.78125 27.484375 10.78125 32.3125 
Q 14.796875 37.15625 21.921875 38.8125 
M 18.3125 54.390625 
Q 18.3125 48.734375 21.84375 45.5625 
Q 25.390625 42.390625 31.78125 42.390625 
Q 38.140625 42.390625 41.71875 45.5625 
Q 45.3125 48.734375 45.3125 54.390625 
Q 45.3125 60.0625 41.71875 63.234375 
Q 38.140625 66.40625 31.78125 66.40625 
Q 25.390625 66.40625 21.84375 63.234375 
Q 18.3125 60.0625 18.3125 54.390625 
" id="BitstreamVeraSans-Roman-38"/>
      </defs>
      <g transform="translate(148.4046875 139.3984375)scale(0.1 -0.1)">
       <use xlink:href="#BitstreamVeraSans-Roman-30"/>
       <use x="63.623046875" xlink:href="#BitstreamVeraSans-Roman-2e"/>
       <use x="95.41015625" xlink:href="#BitstreamVeraSans-Roman-38"/>
      </g>
     </g>
    </g>
    <g id="text_6">
     <!-- X component -->
     <defs>
      <path id="BitstreamVeraSans-Roman-20"/>
      <path d="M 54.890625 33.015625 
L 54.890625 0 
L 45.90625 0 
L 45.90625 32.71875 
Q 45.90625 40.484375 42.875 44.328125 
Q 39.84375 48.1875 33.796875 48.1875 
Q 26.515625 48.1875 22.3125 43.546875 
Q 18.109375 38.921875 18.109375 30.90625 
L 18.109375 0 
L 9.078125 0 
L 9.078125 54.6875 
L 18.109375 54.6875 
L 18.109375 46.1875 
Q 21.34375 51.125 25.703125 53.5625 
Q 30.078125 56 35.796875 56 
Q 45.21875 56 50.046875 50.171875 
Q 54.890625 44.34375 54.890625 33.015625 
" id="BitstreamVeraSans-Roman-6e"/>
      <path d="M 52 44.1875 
Q 55.375 50.25 60.0625 53.125 
Q 64.75 56 71.09375 56 
Q 79.640625 56 84.28125 50.015625 
Q 88.921875 44.046875 88.921875 33.015625 
L 88.921875 0 
L 79.890625 0 
L 79.890625 32.71875 
Q 79.890625 40.578125 77.09375 44.375 
Q 74.3125 48.1875 68.609375 48.1875 
Q 61.625 48.1875 57.5625 43.546875 
Q 53.515625 38.921875 53.515625 30.90625 
L 53.515625 0 
L 44.484375 0 
L 44.484375 32.71875 
Q 44.484375 40.625 41.703125 44.40625 
Q 38.921875 48.1875 33.109375 48.1875 
Q 26.21875 48.1875 22.15625 43.53125 
Q 18.109375 38.875 18.109375 30.90625 
L 18.109375 0 
L 9.078125 0 
L 9.078125 54.6875 
L 18.109375 54.6875 
L 18.109375 46.1875 
Q 21.1875 51.21875 25.484375 53.609375 
Q 29.78125 56 35.6875 56 
Q 41.65625 56 45.828125 52.96875 
Q 50 49.953125 52 44.1875 
" id="BitstreamVeraSans-Roman-6d"/>
      <path d="M 30.609375 48.390625 
Q 23.390625 48.390625 19.1875 42.75 
Q 14.984375 37.109375 14.984375 27.296875 
Q 14.984375 17.484375 19.15625 11.84375 
Q 23.34375 6.203125 30.609375 6.203125 
Q 37.796875 6.203125 41.984375 11.859375 
Q 46.1875 17.53125 46.1875 27.296875 
Q 46.1875 37.015625 41.984375 42.703125 
Q 37.796875 48.390625 30.609375 48.390625 
M 30.609375 56 
Q 42.328125 56 49.015625 48.375 
Q 55.71875 40.765625 55.71875 27.296875 
Q 55.71875 13.875 49.015625 6.21875 
Q 42.328125 -1.421875 30.609375 -1.421875 
Q 18.84375 -1.421875 12.171875 6.21875 
Q 5.515625 13.875 5.515625 27.296875 
Q 5.515625 40.765625 12.171875 48.375 
Q 18.84375 56 30.609375 56 
" id="BitstreamVeraSans-Roman-6f"/>
      <path d="M 56.203125 29.59375 
L 56.203125 25.203125 
L 14.890625 25.203125 
Q 15.484375 15.921875 20.484375 11.0625 
Q 25.484375 6.203125 34.421875 6.203125 
Q 39.59375 6.203125 44.453125 7.46875 
Q 49.3125 8.734375 54.109375 11.28125 
L 54.109375 2.78125 
Q 49.265625 0.734375 44.1875 -0.34375 
Q 39.109375 -1.421875 33.890625 -1.421875 
Q 20.796875 -1.421875 13.15625 6.1875 
Q 5.515625 13.8125 5.515625 26.8125 
Q 5.515625 40.234375 12.765625 48.109375 
Q 20.015625 56 32.328125 56 
Q 43.359375 56 49.78125 48.890625 
Q 56.203125 41.796875 56.203125 29.59375 
M 47.21875 32.234375 
Q 47.125 39.59375 43.09375 43.984375 
Q 39.0625 48.390625 32.421875 48.390625 
Q 24.90625 48.390625 20.390625 44.140625 
Q 15.875 39.890625 15.1875 32.171875 
z
" id="BitstreamVeraSans-Roman-65"/>
      <path d="M 48.78125 52.59375 
L 48.78125 44.1875 
Q 44.96875 46.296875 41.140625 47.34375 
Q 37.3125 48.390625 33.40625 48.390625 
Q 24.65625 48.390625 19.8125 42.84375 
Q 14.984375 37.3125 14.984375 27.296875 
Q 14.984375 17.28125 19.8125 11.734375 
Q 24.65625 6.203125 33.40625 6.203125 
Q 37.3125 6.203125 41.140625 7.25 
Q 44.96875 8.296875 48.78125 10.40625 
L 48.78125 2.09375 
Q 45.015625 0.34375 40.984375 -0.53125 
Q 36.96875 -1.421875 32.421875 -1.421875 
Q 20.0625 -1.421875 12.78125 6.34375 
Q 5.515625 14.109375 5.515625 27.296875 
Q 5.515625 40.671875 12.859375 48.328125 
Q 20.21875 56 33.015625 56 
Q 37.15625 56 41.109375 55.140625 
Q 45.0625 54.296875 48.78125 52.59375 
" id="BitstreamVeraSans-Roman-63"/>
      <path d="M 6.296875 72.90625 
L 16.890625 72.90625 
L 35.015625 45.796875 
L 53.21875 72.90625 
L 63.8125 72.90625 
L 40.375 37.890625 
L 65.375 0 
L 54.78125 0 
L 34.28125 31 
L 13.625 0 
L 2.984375 0 
L 29 38.921875 
z
" id="BitstreamVeraSans-Roman-58"/>
      <path d="M 18.3125 70.21875 
L 18.3125 54.6875 
L 36.8125 54.6875 
L 36.8125 47.703125 
L 18.3125 47.703125 
L 18.3125 18.015625 
Q 18.3125 11.328125 20.140625 9.421875 
Q 21.96875 7.515625 27.59375 7.515625 
L 36.8125 7.515625 
L 36.8125 0 
L 27.59375 0 
Q 17.1875 0 13.234375 3.875 
Q 9.28125 7.765625 9.28125 18.015625 
L 9.28125 47.703125 
L 2.6875 47.703125 
L 2.6875 54.6875 
L 9.28125 54.6875 
L 9.28125 70.21875 
z
" id="BitstreamVeraSans-Roman-74"/>
      <path d="M 18.109375 8.203125 
L 18.109375 -20.796875 
L 9.078125 -20.796875 
L 9.078125 54.6875 
L 18.109375 54.6875 
L 18.109375 46.390625 
Q 20.953125 51.265625 25.265625 53.625 
Q 29.59375 56 35.59375 56 
Q 45.5625 56 51.78125 48.09375 
Q 58.015625 40.1875 58.015625 27.296875 
Q 58.015625 14.40625 51.78125 6.484375 
Q 45.5625 -1.421875 35.59375 -1.421875 
Q 29.59375 -1.421875 25.265625 0.953125 
Q 20.953125 3.328125 18.109375 8.203125 
M 48.6875 27.296875 
Q 48.6875 37.203125 44.609375 42.84375 
Q 40.53125 48.484375 33.40625 48.484375 
Q 26.265625 48.484375 22.1875 42.84375 
Q 18.109375 37.203125 18.109375 27.296875 
Q 18.109375 17.390625 22.1875 11.75 
Q 26.265625 6.109375 33.40625 6.109375 
Q 40.53125 6.109375 44.609375 11.75 
Q 48.6875 17.390625 48.6875 27.296875 
" id="BitstreamVeraSans-Roman-70"/>
     </defs>
     <g transform="translate(67.32109375 154.0765625)scale(0.1 -0.1)">
      <use xlink:href="#BitstreamVeraSans-Roman-58"/>
      <use x="68.505859375" xlink:href="#BitstreamVeraSans-Roman-20"/>
      <use x="100.29296875" xlink:href="#BitstreamVeraSans-Roman-63"/>
      <use x="155.2734375" xlink:href="#BitstreamVeraSans-Roman-6f"/>
      <use x="216.455078125" xlink:href="#BitstreamVeraSans-Roman-6d"/>
      <use x="313.8671875" xlink:href="#BitstreamVeraSans-Roman-70"/>
      <use x="377.34375" xlink:href="#BitstreamVeraSans-Roman-6f"/>
      <use x="438.525390625" xlink:href="#BitstreamVeraSans-Roman-6e"/>
      <use x="501.904296875" xlink:href="#BitstreamVeraSans-Roman-65"/>
      <use x="563.427734375" xlink:href="#BitstreamVeraSans-Roman-6e"/>
      <use x="626.806640625" xlink:href="#BitstreamVeraSans-Roman-74"/>
     </g>
    </g>
   </g>
   <g id="matplotlib.axis_2">
    <g id="ytick_1">
     <g id="line2d_17">
      <defs>
       <path d="M 0 0 
L 4 0 
" id="mfa5eee0d0c" style="stroke:#000000;stroke-width:0.5;"/>
      </defs>
      <g>
       <use style="stroke:#000000;stroke-width:0.5;" x="44.8875" xlink:href="#mfa5eee0d0c" y="127.8"/>
      </g>
     </g>
     <g id="line2d_18">
      <defs>
       <path d="M 0 0 
L -4 0 
" id="md9e74a891b" style="stroke:#000000;stroke-width:0.5;"/>
      </defs>
      <g>
       <use style="stroke:#000000;stroke-width:0.5;" x="156.35625" xlink:href="#md9e74a891b" y="127.8"/>
      </g>
     </g>
     <g id="text_7">
      <!-- 0.0 -->
      <g transform="translate(24.984375 130.559375)scale(0.1 -0.1)">
       <use xlink:href="#BitstreamVeraSans-Roman-30"/>
       <use x="63.623046875" xlink:href="#BitstreamVeraSans-Roman-2e"/>
       <use x="95.41015625" xlink:href="#BitstreamVeraSans-Roman-30"/>
      </g>
     </g>
    </g>
    <g id="ytick_2">
     <g id="line2d_19">
      <g>
       <use style="stroke:#000000;stroke-width:0.5;" x="44.8875" xlink:href="#mfa5eee0d0c" y="71.55"/>
      </g>
     </g>
     <g id="line2d_20">
      <g>
       <use style="stroke:#000000;stroke-width:0.5;" x="156.35625" xlink:href="#md9e74a891b" y="71.55"/>
      </g>
     </g>
     <g id="text_8">
      <!-- 0.5 -->
      <g transform="translate(24.984375 74.309375)scale(0.1 -0.1)">
       <use xlink:href="#BitstreamVeraSans-Roman-30"/>
       <use x="63.623046875" xlink:href="#BitstreamVeraSans-Roman-2e"/>
       <use x="95.41015625" xlink:href="#BitstreamVeraSans-Roman-35"/>
      </g>
     </g>
    </g>
    <g id="ytick_3">
     <g id="line2d_21">
      <g>
       <use style="stroke:#000000;stroke-width:0.5;" x="44.8875" xlink:href="#mfa5eee0d0c" y="15.3"/>
      </g>
     </g>
     <g id="line2d_22">
      <g>
       <use style="stroke:#000000;stroke-width:0.5;" x="156.35625" xlink:href="#md9e74a891b" y="15.3"/>
      </g>
     </g>
     <g id="text_9">
      <!-- 1.0 -->
      <defs>
       <path d="M 12.40625 8.296875 
L 28.515625 8.296875 
L 28.515625 63.921875 
L 10.984375 60.40625 
L 10.984375 69.390625 
L 28.421875 72.90625 
L 38.28125 72.90625 
L 38.28125 8.296875 
L 54.390625 8.296875 
L 54.390625 0 
L 12.40625 0 
z
" id="BitstreamVeraSans-Roman-31"/>
      </defs>
      <g transform="translate(24.984375 18.059375)scale(0.1 -0.1)">
       <use xlink:href="#BitstreamVeraSans-Roman-31"/>
       <use x="63.623046875" xlink:href="#BitstreamVeraSans-Roman-2e"/>
       <use x="95.41015625" xlink:href="#BitstreamVeraSans-Roman-30"/>
      </g>
     </g>
    </g>
    <g id="text_10">
     <!-- Cumulative Distribution -->
     <defs>
      <path d="M 41.109375 46.296875 
Q 39.59375 47.171875 37.8125 47.578125 
Q 36.03125 48 33.890625 48 
Q 26.265625 48 22.1875 43.046875 
Q 18.109375 38.09375 18.109375 28.8125 
L 18.109375 0 
L 9.078125 0 
L 9.078125 54.6875 
L 18.109375 54.6875 
L 18.109375 46.1875 
Q 20.953125 51.171875 25.484375 53.578125 
Q 30.03125 56 36.53125 56 
Q 37.453125 56 38.578125 55.875 
Q 39.703125 55.765625 41.0625 55.515625 
z
" id="BitstreamVeraSans-Roman-72"/>
      <path d="M 9.421875 75.984375 
L 18.40625 75.984375 
L 18.40625 0 
L 9.421875 0 
z
" id="BitstreamVeraSans-Roman-6c"/>
      <path d="M 19.671875 64.796875 
L 19.671875 8.109375 
L 31.59375 8.109375 
Q 46.6875 8.109375 53.6875 14.9375 
Q 60.6875 21.78125 60.6875 36.53125 
Q 60.6875 51.171875 53.6875 57.984375 
Q 46.6875 64.796875 31.59375 64.796875 
z
M 9.8125 72.90625 
L 30.078125 72.90625 
Q 51.265625 72.90625 61.171875 64.09375 
Q 71.09375 55.28125 71.09375 36.53125 
Q 71.09375 17.671875 61.125 8.828125 
Q 51.171875 0 30.078125 0 
L 9.8125 0 
z
" id="BitstreamVeraSans-Roman-44"/>
      <path d="M 9.421875 54.6875 
L 18.40625 54.6875 
L 18.40625 0 
L 9.421875 0 
z
M 9.421875 75.984375 
L 18.40625 75.984375 
L 18.40625 64.59375 
L 9.421875 64.59375 
z
" id="BitstreamVeraSans-Roman-69"/>
      <path d="M 2.984375 54.6875 
L 12.5 54.6875 
L 29.59375 8.796875 
L 46.6875 54.6875 
L 56.203125 54.6875 
L 35.6875 0 
L 23.484375 0 
z
" id="BitstreamVeraSans-Roman-76"/>
      <path d="M 64.40625 67.28125 
L 64.40625 56.890625 
Q 59.421875 61.53125 53.78125 63.8125 
Q 48.140625 66.109375 41.796875 66.109375 
Q 29.296875 66.109375 22.65625 58.46875 
Q 16.015625 50.828125 16.015625 36.375 
Q 16.015625 21.96875 22.65625 14.328125 
Q 29.296875 6.6875 41.796875 6.6875 
Q 48.140625 6.6875 53.78125 8.984375 
Q 59.421875 11.28125 64.40625 15.921875 
L 64.40625 5.609375 
Q 59.234375 2.09375 53.4375 0.328125 
Q 47.65625 -1.421875 41.21875 -1.421875 
Q 24.65625 -1.421875 15.125 8.703125 
Q 5.609375 18.84375 5.609375 36.375 
Q 5.609375 53.953125 15.125 64.078125 
Q 24.65625 74.21875 41.21875 74.21875 
Q 47.75 74.21875 53.53125 72.484375 
Q 59.328125 70.75 64.40625 67.28125 
" id="BitstreamVeraSans-Roman-43"/>
      <path d="M 8.5 21.578125 
L 8.5 54.6875 
L 17.484375 54.6875 
L 17.484375 21.921875 
Q 17.484375 14.15625 20.5 10.265625 
Q 23.53125 6.390625 29.59375 6.390625 
Q 36.859375 6.390625 41.078125 11.03125 
Q 45.3125 15.671875 45.3125 23.6875 
L 45.3125 54.6875 
L 54.296875 54.6875 
L 54.296875 0 
L 45.3125 0 
L 45.3125 8.40625 
Q 42.046875 3.421875 37.71875 1 
Q 33.40625 -1.421875 27.6875 -1.421875 
Q 18.265625 -1.421875 13.375 4.4375 
Q 8.5 10.296875 8.5 21.578125 
" id="BitstreamVeraSans-Roman-75"/>
      <path d="M 34.28125 27.484375 
Q 23.390625 27.484375 19.1875 25 
Q 14.984375 22.515625 14.984375 16.5 
Q 14.984375 11.71875 18.140625 8.90625 
Q 21.296875 6.109375 26.703125 6.109375 
Q 34.1875 6.109375 38.703125 11.40625 
Q 43.21875 16.703125 43.21875 25.484375 
L 43.21875 27.484375 
z
M 52.203125 31.203125 
L 52.203125 0 
L 43.21875 0 
L 43.21875 8.296875 
Q 40.140625 3.328125 35.546875 0.953125 
Q 30.953125 -1.421875 24.3125 -1.421875 
Q 15.921875 -1.421875 10.953125 3.296875 
Q 6 8.015625 6 15.921875 
Q 6 25.140625 12.171875 29.828125 
Q 18.359375 34.515625 30.609375 34.515625 
L 43.21875 34.515625 
L 43.21875 35.40625 
Q 43.21875 41.609375 39.140625 45 
Q 35.0625 48.390625 27.6875 48.390625 
Q 23 48.390625 18.546875 47.265625 
Q 14.109375 46.140625 10.015625 43.890625 
L 10.015625 52.203125 
Q 14.9375 54.109375 19.578125 55.046875 
Q 24.21875 56 28.609375 56 
Q 40.484375 56 46.34375 49.84375 
Q 52.203125 43.703125 52.203125 31.203125 
" id="BitstreamVeraSans-Roman-61"/>
      <path d="M 44.28125 53.078125 
L 44.28125 44.578125 
Q 40.484375 46.53125 36.375 47.5 
Q 32.28125 48.484375 27.875 48.484375 
Q 21.1875 48.484375 17.84375 46.4375 
Q 14.5 44.390625 14.5 40.28125 
Q 14.5 37.15625 16.890625 35.375 
Q 19.28125 33.59375 26.515625 31.984375 
L 29.59375 31.296875 
Q 39.15625 29.25 43.1875 25.515625 
Q 47.21875 21.78125 47.21875 15.09375 
Q 47.21875 7.46875 41.1875 3.015625 
Q 35.15625 -1.421875 24.609375 -1.421875 
Q 20.21875 -1.421875 15.453125 -0.5625 
Q 10.6875 0.296875 5.421875 2 
L 5.421875 11.28125 
Q 10.40625 8.6875 15.234375 7.390625 
Q 20.0625 6.109375 24.8125 6.109375 
Q 31.15625 6.109375 34.5625 8.28125 
Q 37.984375 10.453125 37.984375 14.40625 
Q 37.984375 18.0625 35.515625 20.015625 
Q 33.0625 21.96875 24.703125 23.78125 
L 21.578125 24.515625 
Q 13.234375 26.265625 9.515625 29.90625 
Q 5.8125 33.546875 5.8125 39.890625 
Q 5.8125 47.609375 11.28125 51.796875 
Q 16.75 56 26.8125 56 
Q 31.78125 56 36.171875 55.265625 
Q 40.578125 54.546875 44.28125 53.078125 
" id="BitstreamVeraSans-Roman-73"/>
      <path d="M 48.6875 27.296875 
Q 48.6875 37.203125 44.609375 42.84375 
Q 40.53125 48.484375 33.40625 48.484375 
Q 26.265625 48.484375 22.1875 42.84375 
Q 18.109375 37.203125 18.109375 27.296875 
Q 18.109375 17.390625 22.1875 11.75 
Q 26.265625 6.109375 33.40625 6.109375 
Q 40.53125 6.109375 44.609375 11.75 
Q 48.6875 17.390625 48.6875 27.296875 
M 18.109375 46.390625 
Q 20.953125 51.265625 25.265625 53.625 
Q 29.59375 56 35.59375 56 
Q 45.5625 56 51.78125 48.09375 
Q 58.015625 40.1875 58.015625 27.296875 
Q 58.015625 14.40625 51.78125 6.484375 
Q 45.5625 -1.421875 35.59375 -1.421875 
Q 29.59375 -1.421875 25.265625 0.953125 
Q 20.953125 3.328125 18.109375 8.203125 
L 18.109375 0 
L 9.078125 0 
L 9.078125 75.984375 
L 18.109375 75.984375 
z
" id="BitstreamVeraSans-Roman-62"/>
     </defs>
     <g transform="translate(17.9046875 130.8453125)rotate(-90.0)scale(0.1 -0.1)">
      <use xlink:href="#BitstreamVeraSans-Roman-43"/>
      <use x="69.82421875" xlink:href="#BitstreamVeraSans-Roman-75"/>
      <use x="133.203125" xlink:href="#BitstreamVeraSans-Roman-6d"/>
      <use x="230.615234375" xlink:href="#BitstreamVeraSans-Roman-75"/>
      <use x="293.994140625" xlink:href="#BitstreamVeraSans-Roman-6c"/>
      <use x="321.77734375" xlink:href="#BitstreamVeraSans-Roman-61"/>
      <use x="383.056640625" xlink:href="#BitstreamVeraSans-Roman-74"/>
      <use x="422.265625" xlink:href="#BitstreamVeraSans-Roman-69"/>
      <use x="450.048828125" xlink:href="#BitstreamVeraSans-Roman-76"/>
      <use x="509.228515625" xlink:href="#BitstreamVeraSans-Roman-65"/>
      <use x="570.751953125" xlink:href="#BitstreamVeraSans-Roman-20"/>
      <use x="602.5390625" xlink:href="#BitstreamVeraSans-Roman-44"/>
      <use x="679.541015625" xlink:href="#BitstreamVeraSans-Roman-69"/>
      <use x="707.32421875" xlink:href="#BitstreamVeraSans-Roman-73"/>
      <use x="759.423828125" xlink:href="#BitstreamVeraSans-Roman-74"/>
      <use x="798.6328125" xlink:href="#BitstreamVeraSans-Roman-72"/>
      <use x="839.74609375" xlink:href="#BitstreamVeraSans-Roman-69"/>
      <use x="867.529296875" xlink:href="#BitstreamVeraSans-Roman-62"/>
      <use x="931.005859375" xlink:href="#BitstreamVeraSans-Roman-75"/>
      <use x="994.384765625" xlink:href="#BitstreamVeraSans-Roman-74"/>
      <use x="1033.59375" xlink:href="#BitstreamVeraSans-Roman-69"/>
      <use x="1061.37695312" xlink:href="#BitstreamVeraSans-Roman-6f"/>
      <use x="1122.55859375" xlink:href="#BitstreamVeraSans-Roman-6e"/>
     </g>
    </g>
   </g>
  </g>
  <g id="axes_2">
   <g id="patch_7">
    <path d="M 209.2875 127.8 
L 320.75625 127.8 
L 320.75625 15.3 
L 209.2875 15.3 
z
" style="fill:#ffffff;"/>
   </g>
   <g id="line2d_23">
    <path clip-path="url(#p7957d4175f)" d="M 230.76308 127.8 
L 240.548838 127.5975 
L 240.988681 127.4625 
L 242.339701 127.1475 
L 242.67605 126.945 
L 242.806954 126.8325 
L 243.156361 126.675 
L 243.245884 126.63 
L 243.906049 126.495 
L 244.07515 126.315 
L 244.943751 125.7975 
L 245.083863 125.64 
L 245.688728 124.92 
L 245.977175 124.4025 
L 246.193604 124.2675 
L 246.368428 124.0875 
L 246.913301 123.39 
L 247.056515 123.0975 
L 247.831796 121.455 
L 248.04115 121.185 
L 248.182708 120.78 
L 248.935701 118.8675 
L 249.386076 117.3375 
L 249.530872 116.685 
L 251.168031 111.33 
L 251.358682 110.8575 
L 251.443721 110.4975 
L 252.860751 103.77 
L 252.967789 103.2525 
L 253.043523 103.005 
L 253.159868 102.3075 
L 253.227117 101.9925 
L 253.342648 101.2725 
L 253.446696 100.8 
L 253.582947 100.2375 
L 253.632397 100.0125 
L 253.76354 99.2025 
L 254.445486 95.265 
L 254.800979 93.1725 
L 254.855437 92.925 
L 254.970256 92.115 
L 255.109431 91.26 
L 255.233304 90.3825 
L 255.469283 88.7625 
L 255.589993 87.9525 
L 255.722561 87.165 
L 256.060506 85.2975 
L 256.122347 84.8475 
L 257.168359 78.165 
L 257.336653 77.265 
L 257.44724 76.365 
L 257.710302 74.07 
L 257.842824 73.0575 
L 257.877109 72.8775 
L 258.010649 71.775 
L 259.607827 60.66 
L 259.665168 60.2775 
L 259.846135 58.905 
L 260.008888 57.7125 
L 260.13848 56.8125 
L 260.223436 56.205 
L 260.357734 55.53 
L 260.541791 54.0675 
L 260.651746 53.415 
L 260.713396 53.1225 
L 260.977887 51.615 
L 261.095662 50.67 
L 261.270894 49.41 
L 261.401065 48.51 
L 261.562147 47.5875 
L 261.667147 46.7325 
L 261.747759 46.5075 
L 261.887788 45.5625 
L 262.876613 40.05 
L 262.942455 39.8025 
L 263.252788 38.475 
L 263.309141 38.0925 
L 263.459256 37.4625 
L 263.566101 36.9675 
L 263.714111 36.0675 
L 263.78027 35.775 
L 264.250495 33.7275 
L 264.353479 33.2775 
L 264.824196 31.275 
L 264.929073 31.0275 
L 265.148804 29.9475 
L 265.817284 27.6525 
L 266.188849 26.325 
L 266.390194 25.4925 
L 266.882942 24.2325 
L 266.988039 24.0075 
L 267.299379 23.2425 
L 267.422402 22.9275 
L 268.156332 21.285 
L 268.276644 21.0375 
L 268.875517 19.98 
L 269.012895 19.8225 
L 269.371553 19.17 
L 269.618727 19.035 
L 269.938596 18.6075 
L 270.105378 18.45 
L 270.281326 18.27 
L 270.64611 17.775 
L 270.872947 17.3925 
L 270.985255 17.2125 
L 271.112706 17.1225 
L 272.419825 16.3575 
L 272.786924 16.155 
L 274.020698 15.705 
L 274.609718 15.5475 
L 275.07307 15.435 
L 276.089548 15.345 
L 278.627414 15.3225 
L 278.627414 15.3225 
" style="fill:none;stroke:#ff0000;stroke-linecap:square;"/>
   </g>
   <g id="line2d_24">
    <path clip-path="url(#p7957d4175f)" d="M 245.670905 127.8 
L 245.670905 15.3 
" style="fill:none;stroke:#ff0000;stroke-linecap:square;"/>
   </g>
   <g id="line2d_25">
    <path clip-path="url(#p7957d4175f)" d="M 270.391024 127.8 
L 270.391024 15.3 
" style="fill:none;stroke:#ff0000;stroke-linecap:square;"/>
   </g>
   <g id="line2d_26">
    <path clip-path="url(#p7957d4175f)" d="M 245.131735 127.8 
L 246.723138 127.7775 
L 248.067697 127.665 
L 248.718941 127.53 
L 249.439006 127.395 
L 249.667904 127.305 
L 251.843291 126.8775 
L 251.872526 126.855 
L 252.329472 126.6975 
L 255.287887 125.37 
L 255.682442 125.0775 
L 256.263007 124.695 
L 256.381151 124.5825 
L 256.631228 124.335 
L 256.692103 124.29 
L 256.97015 124.11 
L 257.784672 123.39 
L 257.962761 123.075 
L 258.11765 122.94 
L 258.289644 122.6925 
L 258.371851 122.5575 
L 258.557341 122.3325 
L 258.66149 122.22 
L 259.18685 121.4325 
L 259.361903 121.0275 
L 259.486235 120.87 
L 259.61629 120.645 
L 259.797084 120.24 
L 259.90881 120.0825 
L 260.117882 119.8125 
L 260.230731 119.4975 
L 260.620641 118.845 
L 260.789981 118.62 
L 260.996414 118.0125 
L 261.118887 117.7875 
L 261.201008 117.6075 
L 261.310165 117.36 
L 261.538263 116.9325 
L 261.663045 116.5725 
L 261.804186 116.1675 
L 261.927186 115.785 
L 262.081766 115.3575 
L 262.176537 115.1775 
L 262.331982 114.795 
L 262.456449 114.255 
L 262.570401 113.9625 
L 262.679473 113.76 
L 262.875482 113.22 
L 263.052884 112.7925 
L 263.172976 112.5675 
L 263.286529 112.275 
L 263.39196 111.915 
L 263.506389 111.555 
L 263.563542 111.3075 
L 264.093418 109.7325 
L 264.297546 109.0575 
L 264.666009 107.7075 
L 264.750959 107.415 
L 264.862749 107.1 
L 264.976088 106.8525 
L 265.157624 106.425 
L 265.350258 105.7275 
L 265.437578 105.4575 
L 265.592172 105.0075 
L 265.885038 104.175 
L 266.037109 103.5225 
L 266.205962 102.87 
L 266.512361 101.9925 
L 266.632233 101.6775 
L 268.379529 94.32 
L 268.5142 93.69 
L 268.597383 93.3075 
L 268.787041 92.3175 
L 269.017566 91.1925 
L 269.27743 90.135 
L 269.339988 89.82 
L 269.490308 88.92 
L 269.697889 88.2225 
L 270.219211 85.2525 
L 270.322693 84.6675 
L 270.426634 84.375 
L 271.248494 80.1 
L 271.29116 79.92 
L 271.383399 79.425 
L 271.765534 76.95 
L 271.844863 76.5 
L 272.591075 72.045 
L 272.643625 71.865 
L 272.869952 70.6275 
L 273.005772 69.885 
L 273.138602 69.03 
L 273.290586 68.1075 
L 273.354168 67.8825 
L 273.543014 66.8475 
L 273.595038 66.6675 
L 273.759567 65.8125 
L 273.798464 65.5425 
L 273.922139 64.89 
L 274.090242 63.945 
L 274.325452 62.7075 
L 274.377735 62.46 
L 274.629411 61.0875 
L 274.684276 60.75 
L 274.837425 59.985 
L 275.710379 55.8225 
L 275.838274 55.1925 
L 275.995077 54.3375 
L 276.072941 54.0225 
L 276.215647 53.145 
L 276.355098 52.4925 
L 276.546533 51.5025 
L 276.676308 50.8275 
L 276.754084 50.4675 
L 276.870205 49.7925 
L 277.078447 48.78 
L 277.354156 47.5425 
L 277.509549 46.9575 
L 277.683939 46.0125 
L 277.768765 45.675 
L 278.01595 44.4825 
L 278.219825 43.6275 
L 278.430532 42.345 
L 278.478103 42.0975 
L 278.612796 41.535 
L 279.026728 39.8025 
L 279.096721 39.51 
L 279.492606 38.25 
L 279.593306 37.9575 
L 279.717041 37.5525 
L 282.341694 28.6875 
L 282.420765 28.53 
L 282.710241 27.7875 
L 282.803308 27.5625 
L 283.179955 26.8425 
L 283.426501 26.2125 
L 283.685046 25.4475 
L 283.798138 25.11 
L 284.236668 24.3 
L 284.546715 23.7375 
L 284.700518 23.5125 
L 285.050177 22.8825 
L 285.190522 22.6125 
L 285.517977 22.05 
L 285.68774 21.87 
L 285.846989 21.645 
L 286.089209 21.1725 
L 286.2213 20.9925 
L 286.49086 20.5875 
L 286.677997 20.3175 
L 286.902726 19.9575 
L 287.102066 19.6425 
L 287.646327 18.9675 
L 287.715582 18.855 
L 287.95058 18.6525 
L 288.05099 18.4275 
L 289.267537 17.2575 
L 290.01416 17.0325 
L 290.167555 16.9875 
L 290.943353 16.5825 
L 291.014812 16.515 
L 291.543495 16.3575 
L 291.777075 16.2675 
L 292.23453 16.1325 
L 292.77621 15.975 
L 292.781392 15.9525 
L 294.571576 15.615 
L 294.591546 15.5925 
L 298.570325 15.3225 
L 298.570325 15.3225 
" style="fill:none;stroke:#0000ff;stroke-linecap:square;"/>
   </g>
   <g id="line2d_27">
    <path clip-path="url(#p7957d4175f)" d="M 255.868068 127.8 
L 255.868068 15.3 
" style="fill:none;stroke:#0000ff;stroke-dasharray:6.000000,6.000000;stroke-dashoffset:0.0;"/>
   </g>
   <g id="line2d_28">
    <path clip-path="url(#p7957d4175f)" d="M 288.378679 127.8 
L 288.378679 15.3 
" style="fill:none;stroke:#0000ff;stroke-dasharray:6.000000,6.000000;stroke-dashoffset:0.0;"/>
   </g>
   <g id="patch_8">
    <path d="M 209.2875 15.3 
L 320.75625 15.3 
" style="fill:none;stroke:#000000;stroke-linecap:square;stroke-linejoin:miter;"/>
   </g>
   <g id="patch_9">
    <path d="M 320.75625 127.8 
L 320.75625 15.3 
" style="fill:none;stroke:#000000;stroke-linecap:square;stroke-linejoin:miter;"/>
   </g>
   <g id="patch_10">
    <path d="M 209.2875 127.8 
L 320.75625 127.8 
" style="fill:none;stroke:#000000;stroke-linecap:square;stroke-linejoin:miter;"/>
   </g>
   <g id="patch_11">
    <path d="M 209.2875 127.8 
L 209.2875 15.3 
" style="fill:none;stroke:#000000;stroke-linecap:square;stroke-linejoin:miter;"/>
   </g>
   <g id="matplotlib.axis_3">
    <g id="xtick_6">
     <g id="line2d_29">
      <g>
       <use style="stroke:#000000;stroke-width:0.5;" x="231.58125" xlink:href="#md07ffde124" y="127.8"/>
      </g>
     </g>
     <g id="line2d_30">
      <g>
       <use style="stroke:#000000;stroke-width:0.5;" x="231.58125" xlink:href="#mdae4f473cc" y="15.3"/>
      </g>
     </g>
     <g id="text_11">
      <!-- 0.2 -->
      <defs>
       <path d="M 19.1875 8.296875 
L 53.609375 8.296875 
L 53.609375 0 
L 7.328125 0 
L 7.328125 8.296875 
Q 12.9375 14.109375 22.625 23.890625 
Q 32.328125 33.6875 34.8125 36.53125 
Q 39.546875 41.84375 41.421875 45.53125 
Q 43.3125 49.21875 43.3125 52.78125 
Q 43.3125 58.59375 39.234375 62.25 
Q 35.15625 65.921875 28.609375 65.921875 
Q 23.96875 65.921875 18.8125 64.3125 
Q 13.671875 62.703125 7.8125 59.421875 
L 7.8125 69.390625 
Q 13.765625 71.78125 18.9375 73 
Q 24.125 74.21875 28.421875 74.21875 
Q 39.75 74.21875 46.484375 68.546875 
Q 53.21875 62.890625 53.21875 53.421875 
Q 53.21875 48.921875 51.53125 44.890625 
Q 49.859375 40.875 45.40625 35.40625 
Q 44.1875 33.984375 37.640625 27.21875 
Q 31.109375 20.453125 19.1875 8.296875 
" id="BitstreamVeraSans-Roman-32"/>
      </defs>
      <g transform="translate(223.6296875 139.3984375)scale(0.1 -0.1)">
       <use xlink:href="#BitstreamVeraSans-Roman-30"/>
       <use x="63.623046875" xlink:href="#BitstreamVeraSans-Roman-2e"/>
       <use x="95.41015625" xlink:href="#BitstreamVeraSans-Roman-32"/>
      </g>
     </g>
    </g>
    <g id="xtick_7">
     <g id="line2d_31">
      <g>
       <use style="stroke:#000000;stroke-width:0.5;" x="276.16875" xlink:href="#md07ffde124" y="127.8"/>
      </g>
     </g>
     <g id="line2d_32">
      <g>
       <use style="stroke:#000000;stroke-width:0.5;" x="276.16875" xlink:href="#mdae4f473cc" y="15.3"/>
      </g>
     </g>
     <g id="text_12">
      <!-- 0.4 -->
      <g transform="translate(268.2171875 139.3984375)scale(0.1 -0.1)">
       <use xlink:href="#BitstreamVeraSans-Roman-30"/>
       <use x="63.623046875" xlink:href="#BitstreamVeraSans-Roman-2e"/>
       <use x="95.41015625" xlink:href="#BitstreamVeraSans-Roman-34"/>
      </g>
     </g>
    </g>
    <g id="xtick_8">
     <g id="text_13">
      <!-- 0.6 -->
      <g transform="translate(312.8046875 139.3984375)scale(0.1 -0.1)">
       <use xlink:href="#BitstreamVeraSans-Roman-30"/>
       <use x="63.623046875" xlink:href="#BitstreamVeraSans-Roman-2e"/>
       <use x="95.41015625" xlink:href="#BitstreamVeraSans-Roman-36"/>
      </g>
     </g>
    </g>
    <g id="text_14">
     <!-- Y component -->
     <defs>
      <path d="M -0.203125 72.90625 
L 10.40625 72.90625 
L 30.609375 42.921875 
L 50.6875 72.90625 
L 61.28125 72.90625 
L 35.5 34.71875 
L 35.5 0 
L 25.59375 0 
L 25.59375 34.71875 
z
" id="BitstreamVeraSans-Roman-59"/>
     </defs>
     <g transform="translate(232.0921875 154.0765625)scale(0.1 -0.1)">
      <use xlink:href="#BitstreamVeraSans-Roman-59"/>
      <use x="61.083984375" xlink:href="#BitstreamVeraSans-Roman-20"/>
      <use x="92.87109375" xlink:href="#BitstreamVeraSans-Roman-63"/>
      <use x="147.8515625" xlink:href="#BitstreamVeraSans-Roman-6f"/>
      <use x="209.033203125" xlink:href="#BitstreamVeraSans-Roman-6d"/>
      <use x="306.4453125" xlink:href="#BitstreamVeraSans-Roman-70"/>
      <use x="369.921875" xlink:href="#BitstreamVeraSans-Roman-6f"/>
      <use x="431.103515625" xlink:href="#BitstreamVeraSans-Roman-6e"/>
      <use x="494.482421875" xlink:href="#BitstreamVeraSans-Roman-65"/>
      <use x="556.005859375" xlink:href="#BitstreamVeraSans-Roman-6e"/>
      <use x="619.384765625" xlink:href="#BitstreamVeraSans-Roman-74"/>
     </g>
    </g>
   </g>
   <g id="matplotlib.axis_4">
    <g id="ytick_4">
     <g id="line2d_33">
      <g>
       <use style="stroke:#000000;stroke-width:0.5;" x="209.2875" xlink:href="#mfa5eee0d0c" y="127.8"/>
      </g>
     </g>
     <g id="line2d_34">
      <g>
       <use style="stroke:#000000;stroke-width:0.5;" x="320.75625" xlink:href="#md9e74a891b" y="127.8"/>
      </g>
     </g>
     <g id="text_15">
      <!-- 0.0 -->
      <g transform="translate(189.384375 130.559375)scale(0.1 -0.1)">
       <use xlink:href="#BitstreamVeraSans-Roman-30"/>
       <use x="63.623046875" xlink:href="#BitstreamVeraSans-Roman-2e"/>
       <use x="95.41015625" xlink:href="#BitstreamVeraSans-Roman-30"/>
      </g>
     </g>
    </g>
    <g id="ytick_5">
     <g id="line2d_35">
      <g>
       <use style="stroke:#000000;stroke-width:0.5;" x="209.2875" xlink:href="#mfa5eee0d0c" y="71.55"/>
      </g>
     </g>
     <g id="line2d_36">
      <g>
       <use style="stroke:#000000;stroke-width:0.5;" x="320.75625" xlink:href="#md9e74a891b" y="71.55"/>
      </g>
     </g>
     <g id="text_16">
      <!-- 0.5 -->
      <g transform="translate(189.384375 74.309375)scale(0.1 -0.1)">
       <use xlink:href="#BitstreamVeraSans-Roman-30"/>
       <use x="63.623046875" xlink:href="#BitstreamVeraSans-Roman-2e"/>
       <use x="95.41015625" xlink:href="#BitstreamVeraSans-Roman-35"/>
      </g>
     </g>
    </g>
    <g id="ytick_6">
     <g id="line2d_37">
      <g>
       <use style="stroke:#000000;stroke-width:0.5;" x="209.2875" xlink:href="#mfa5eee0d0c" y="15.3"/>
      </g>
     </g>
     <g id="line2d_38">
      <g>
       <use style="stroke:#000000;stroke-width:0.5;" x="320.75625" xlink:href="#md9e74a891b" y="15.3"/>
      </g>
     </g>
     <g id="text_17">
      <!-- 1.0 -->
      <g transform="translate(189.384375 18.059375)scale(0.1 -0.1)">
       <use xlink:href="#BitstreamVeraSans-Roman-31"/>
       <use x="63.623046875" xlink:href="#BitstreamVeraSans-Roman-2e"/>
       <use x="95.41015625" xlink:href="#BitstreamVeraSans-Roman-30"/>
      </g>
     </g>
    </g>
    <g id="text_18">
     <!-- Cumulative Distribution -->
     <g transform="translate(182.3046875 130.8453125)rotate(-90.0)scale(0.1 -0.1)">
      <use xlink:href="#BitstreamVeraSans-Roman-43"/>
      <use x="69.82421875" xlink:href="#BitstreamVeraSans-Roman-75"/>
      <use x="133.203125" xlink:href="#BitstreamVeraSans-Roman-6d"/>
      <use x="230.615234375" xlink:href="#BitstreamVeraSans-Roman-75"/>
      <use x="293.994140625" xlink:href="#BitstreamVeraSans-Roman-6c"/>
      <use x="321.77734375" xlink:href="#BitstreamVeraSans-Roman-61"/>
      <use x="383.056640625" xlink:href="#BitstreamVeraSans-Roman-74"/>
      <use x="422.265625" xlink:href="#BitstreamVeraSans-Roman-69"/>
      <use x="450.048828125" xlink:href="#BitstreamVeraSans-Roman-76"/>
      <use x="509.228515625" xlink:href="#BitstreamVeraSans-Roman-65"/>
      <use x="570.751953125" xlink:href="#BitstreamVeraSans-Roman-20"/>
      <use x="602.5390625" xlink:href="#BitstreamVeraSans-Roman-44"/>
      <use x="679.541015625" xlink:href="#BitstreamVeraSans-Roman-69"/>
      <use x="707.32421875" xlink:href="#BitstreamVeraSans-Roman-73"/>
      <use x="759.423828125" xlink:href="#BitstreamVeraSans-Roman-74"/>
      <use x="798.6328125" xlink:href="#BitstreamVeraSans-Roman-72"/>
      <use x="839.74609375" xlink:href="#BitstreamVeraSans-Roman-69"/>
      <use x="867.529296875" xlink:href="#BitstreamVeraSans-Roman-62"/>
      <use x="931.005859375" xlink:href="#BitstreamVeraSans-Roman-75"/>
      <use x="994.384765625" xlink:href="#BitstreamVeraSans-Roman-74"/>
      <use x="1033.59375" xlink:href="#BitstreamVeraSans-Roman-69"/>
      <use x="1061.37695312" xlink:href="#BitstreamVeraSans-Roman-6f"/>
      <use x="1122.55859375" xlink:href="#BitstreamVeraSans-Roman-6e"/>
     </g>
    </g>
   </g>
  </g>
  <g id="axes_3">
   <g id="patch_12">
    <path d="M 373.6875 127.8 
L 485.15625 127.8 
L 485.15625 15.3 
L 373.6875 15.3 
z
" style="fill:#ffffff;"/>
   </g>
   <g id="line2d_39">
    <path clip-path="url(#p564e5244e6)" d="M 409.781872 127.8 
L 420.35722 127.5975 
L 421.097015 127.4625 
L 422.737238 127.305 
L 423.582009 127.1475 
L 424.207921 126.9225 
L 424.236022 126.8775 
L 424.53276 126.72 
L 425.457832 126.225 
L 425.574049 126.18 
L 425.805206 125.8875 
L 426.157399 125.73 
L 426.576067 125.4375 
L 426.845276 125.1675 
L 427.129246 124.92 
L 427.416688 124.74 
L 427.698824 124.605 
L 428.119283 124.155 
L 428.250185 123.9525 
L 428.380681 123.8175 
L 428.43648 123.7275 
L 428.641381 123.57 
L 429.049976 122.8725 
L 429.217613 122.7375 
L 429.329674 122.535 
L 430.206209 121.05 
L 430.435128 120.645 
L 430.523265 120.51 
L 430.808147 119.6775 
L 430.936945 119.4075 
L 432.37059 115.4025 
L 432.471501 115.0875 
L 432.551223 114.8625 
L 432.689967 114.255 
L 433.155998 112.77 
L 433.41103 111.78 
L 433.567187 111.105 
L 433.840656 109.9125 
L 433.909602 109.71 
L 434.0491 109.215 
L 436.250486 98.505 
L 436.418208 97.47 
L 436.468423 97.155 
L 436.593813 96.48 
L 437.542876 91.305 
L 437.644367 90.9 
L 437.776148 90.27 
L 438.043654 88.47 
L 438.140096 87.84 
L 438.449611 85.68 
L 438.586806 84.6675 
L 438.702278 83.9925 
L 439.104029 81.3825 
L 440.163463 74.0925 
L 440.284831 73.3725 
L 440.364559 72.855 
L 440.583788 71.4825 
L 440.636072 71.1675 
L 440.816197 69.9525 
L 440.998139 68.7375 
L 441.122296 67.635 
L 441.17347 67.2525 
L 441.312654 66.42 
L 441.367363 66.015 
L 441.503392 65.0025 
L 441.629097 63.9675 
L 441.713773 63.315 
L 441.842099 62.235 
L 441.936325 61.4925 
L 442.044599 60.8175 
L 442.144294 59.895 
L 442.375533 58.59 
L 443.122056 53.2575 
L 443.279622 52.335 
L 443.600116 50.3775 
L 443.751324 49.275 
L 443.810169 48.8025 
L 444.646483 44.235 
L 444.700057 43.965 
L 445.331547 40.95 
L 445.634666 39.3975 
L 445.976694 37.8675 
L 448.20101 27.7875 
L 448.389729 27.27 
L 448.54401 26.7975 
L 448.589579 26.6175 
L 448.882884 25.6275 
L 448.935543 25.425 
L 449.050231 25.065 
L 449.142855 24.7275 
L 449.261765 24.3225 
L 449.348319 24.0975 
L 450.60775 21.105 
L 450.889998 20.7 
L 451.806234 19.1025 
L 451.983532 18.945 
L 452.163031 18.7425 
L 452.238003 18.5625 
L 452.438936 18.3825 
L 452.574837 18.225 
L 452.845394 18.045 
L 452.953634 17.8875 
L 453.48006 17.415 
L 453.809618 17.19 
L 454.084984 17.01 
L 454.240606 16.9425 
L 454.51483 16.7625 
L 454.637164 16.6275 
L 454.95309 16.47 
L 455.417603 16.11 
L 455.51232 16.065 
L 455.662701 15.9975 
L 456.632493 15.8625 
L 458.215718 15.48 
L 460.061028 15.3225 
L 460.061028 15.3225 
" style="fill:none;stroke:#ff0000;stroke-linecap:square;"/>
   </g>
   <g id="line2d_40">
    <path clip-path="url(#p564e5244e6)" d="M 427.057105 127.8 
L 427.057105 15.3 
" style="fill:none;stroke:#ff0000;stroke-linecap:square;"/>
   </g>
   <g id="line2d_41">
    <path clip-path="url(#p564e5244e6)" d="M 452.780031 127.8 
L 452.780031 15.3 
" style="fill:none;stroke:#ff0000;stroke-linecap:square;"/>
   </g>
   <g id="line2d_42">
    <path clip-path="url(#p564e5244e6)" d="M 389.082515 127.8 
L 402.674681 127.5975 
L 402.67884 127.575 
L 403.673069 127.44 
L 403.903017 127.3725 
L 405.012258 127.1925 
L 405.331117 127.125 
L 405.829225 126.9 
L 405.956864 126.855 
L 406.791802 126.585 
L 407.539596 126.405 
L 407.641165 126.36 
L 408.245707 126.135 
L 408.517387 125.9325 
L 408.680449 125.8425 
L 409.014042 125.6625 
L 409.705002 125.19 
L 410.802271 124.2675 
L 411.033472 124.1325 
L 411.935551 123.1875 
L 412.173431 123.0075 
L 412.336767 122.6925 
L 412.505423 122.4 
L 412.782688 122.175 
L 413.028686 121.77 
L 413.205393 121.5675 
L 413.34096 121.41 
L 414.250007 119.88 
L 414.509602 119.4075 
L 414.694884 119.1375 
L 414.791437 119.0025 
L 414.959352 118.755 
L 415.406427 117.765 
L 415.533019 117.54 
L 415.716339 117.18 
L 415.789868 116.8875 
L 415.948994 116.505 
L 416.044969 116.325 
L 417.638773 113.085 
L 418.751038 110.4525 
L 418.863128 110.2725 
L 419.071188 109.665 
L 419.253354 109.035 
L 419.451871 108.54 
L 420.464276 105.0075 
L 420.532679 104.85 
L 420.587145 104.6475 
L 421.081559 102.6225 
L 421.196668 102.2625 
L 421.292219 101.925 
L 421.376488 101.655 
L 421.443898 101.475 
L 421.529239 101.16 
L 421.642291 100.665 
L 423.754658 91.755 
L 423.967383 90.675 
L 424.053078 90.225 
L 424.598575 87.705 
L 424.698103 87.48 
L 424.915246 86.22 
L 425.076228 85.4325 
L 425.164136 85.05 
L 425.360646 84.015 
L 425.41107 83.745 
L 425.633634 82.845 
L 425.728962 82.395 
L 425.848088 81.8325 
L 425.921386 81.45 
L 426.180939 79.875 
L 426.318003 79.4475 
L 427.233193 74.8125 
L 427.359558 74.34 
L 428.511037 68.6925 
L 428.56483 68.5125 
L 429.40753 64.8675 
L 429.560682 64.08 
L 429.67148 63.54 
L 429.897899 62.64 
L 430.187916 61.155 
L 430.246306 60.84 
L 430.396174 60.1425 
L 430.454754 59.85 
L 431.417213 55.395 
L 431.475201 55.1475 
L 431.572196 54.63 
L 431.640825 54.36 
L 431.942947 53.01 
L 432.011717 52.7625 
L 432.109088 52.38 
L 432.459385 50.6025 
L 432.69407 49.7925 
L 432.905173 48.6675 
L 433.040352 48.2625 
L 433.191681 47.655 
L 433.592705 46.1475 
L 433.692731 45.6075 
L 433.752709 45.3825 
L 434.01049 44.37 
L 434.129002 43.605 
L 434.614795 41.8725 
L 434.7674 41.4225 
L 434.868578 40.95 
L 434.983214 40.5675 
L 435.076835 40.23 
L 435.411222 38.7 
L 435.532613 38.43 
L 435.674775 37.845 
L 435.803317 37.53 
L 436.453297 35.325 
L 436.538414 35.145 
L 436.661662 34.7175 
L 436.834017 34.2 
L 436.9714 33.7725 
L 437.194354 32.9175 
L 437.760368 31.3875 
L 437.936083 30.8925 
L 438.091151 30.7125 
L 438.206288 30.3525 
L 438.30322 30.15 
L 438.646861 29.475 
L 438.779094 29.2725 
L 438.98856 28.4625 
L 439.240575 27.9675 
L 439.427876 27.36 
L 439.585939 27.135 
L 439.87761 26.55 
L 440.133271 26.28 
L 440.389816 25.785 
L 440.596287 25.3575 
L 440.712444 24.9525 
L 440.847878 24.615 
L 441.02304 24.39 
L 441.184599 24.1425 
L 441.565706 23.4 
L 441.898704 22.86 
L 442.014775 22.6575 
L 442.302023 22.14 
L 442.389386 21.915 
L 442.530154 21.6 
L 442.646425 21.42 
L 442.762807 21.0825 
L 442.851182 20.925 
L 443.055395 20.745 
L 443.136871 20.61 
L 443.424795 20.34 
L 443.96381 19.7325 
L 444.113506 19.575 
L 444.700925 18.855 
L 444.930519 18.6975 
L 445.130134 18.495 
L 445.322755 18.36 
L 445.454185 18.2025 
L 445.831029 18 
L 445.963437 17.8875 
L 446.630092 17.6175 
L 446.879711 17.4375 
L 447.801995 17.1 
L 447.876536 17.01 
L 448.667064 16.6725 
L 448.916027 16.515 
L 449.743149 16.2225 
L 450.287741 16.065 
L 450.730917 15.9525 
L 452.002859 15.75 
L 452.180134 15.705 
L 453.229538 15.5025 
L 456.949267 15.3675 
L 458.746584 15.3225 
L 458.746584 15.3225 
" style="fill:none;stroke:#0000ff;stroke-linecap:square;"/>
   </g>
   <g id="line2d_43">
    <path clip-path="url(#p564e5244e6)" d="M 409.978966 127.8 
L 409.978966 15.3 
" style="fill:none;stroke:#0000ff;stroke-dasharray:6.000000,6.000000;stroke-dashoffset:0.0;"/>
   </g>
   <g id="line2d_44">
    <path clip-path="url(#p564e5244e6)" d="M 445.613778 127.8 
L 445.613778 15.3 
" style="fill:none;stroke:#0000ff;stroke-dasharray:6.000000,6.000000;stroke-dashoffset:0.0;"/>
   </g>
   <g id="patch_13">
    <path d="M 373.6875 15.3 
L 485.15625 15.3 
" style="fill:none;stroke:#000000;stroke-linecap:square;stroke-linejoin:miter;"/>
   </g>
   <g id="patch_14">
    <path d="M 485.15625 127.8 
L 485.15625 15.3 
" style="fill:none;stroke:#000000;stroke-linecap:square;stroke-linejoin:miter;"/>
   </g>
   <g id="patch_15">
    <path d="M 373.6875 127.8 
L 485.15625 127.8 
" style="fill:none;stroke:#000000;stroke-linecap:square;stroke-linejoin:miter;"/>
   </g>
   <g id="patch_16">
    <path d="M 373.6875 127.8 
L 373.6875 15.3 
" style="fill:none;stroke:#000000;stroke-linecap:square;stroke-linejoin:miter;"/>
   </g>
   <g id="matplotlib.axis_5">
    <g id="xtick_9">
     <g id="line2d_45">
      <g>
       <use style="stroke:#000000;stroke-width:0.5;" x="373.6875" xlink:href="#md07ffde124" y="127.8"/>
      </g>
     </g>
     <g id="line2d_46">
      <g>
       <use style="stroke:#000000;stroke-width:0.5;" x="373.6875" xlink:href="#mdae4f473cc" y="15.3"/>
      </g>
     </g>
     <g id="text_19">
      <!-- 0.5 -->
      <g transform="translate(365.7359375 139.3984375)scale(0.1 -0.1)">
       <use xlink:href="#BitstreamVeraSans-Roman-30"/>
       <use x="63.623046875" xlink:href="#BitstreamVeraSans-Roman-2e"/>
       <use x="95.41015625" xlink:href="#BitstreamVeraSans-Roman-35"/>
      </g>
     </g>
    </g>
    <g id="xtick_10">
     <g id="line2d_47">
      <g>
       <use style="stroke:#000000;stroke-width:0.5;" x="401.5546875" xlink:href="#md07ffde124" y="127.8"/>
      </g>
     </g>
     <g id="line2d_48">
      <g>
       <use style="stroke:#000000;stroke-width:0.5;" x="401.5546875" xlink:href="#mdae4f473cc" y="15.3"/>
      </g>
     </g>
     <g id="text_20">
      <!-- 0.6 -->
      <g transform="translate(393.603125 139.3984375)scale(0.1 -0.1)">
       <use xlink:href="#BitstreamVeraSans-Roman-30"/>
       <use x="63.623046875" xlink:href="#BitstreamVeraSans-Roman-2e"/>
       <use x="95.41015625" xlink:href="#BitstreamVeraSans-Roman-36"/>
      </g>
     </g>
    </g>
    <g id="xtick_11">
     <g id="line2d_49">
      <g>
       <use style="stroke:#000000;stroke-width:0.5;" x="429.421875" xlink:href="#md07ffde124" y="127.8"/>
      </g>
     </g>
     <g id="line2d_50">
      <g>
       <use style="stroke:#000000;stroke-width:0.5;" x="429.421875" xlink:href="#mdae4f473cc" y="15.3"/>
      </g>
     </g>
     <g id="text_21">
      <!-- 0.7 -->
      <g transform="translate(421.4703125 139.3984375)scale(0.1 -0.1)">
       <use xlink:href="#BitstreamVeraSans-Roman-30"/>
       <use x="63.623046875" xlink:href="#BitstreamVeraSans-Roman-2e"/>
       <use x="95.41015625" xlink:href="#BitstreamVeraSans-Roman-37"/>
      </g>
     </g>
    </g>
    <g id="xtick_12">
     <g id="line2d_51">
      <g>
       <use style="stroke:#000000;stroke-width:0.5;" x="457.2890625" xlink:href="#md07ffde124" y="127.8"/>
      </g>
     </g>
     <g id="line2d_52">
      <g>
       <use style="stroke:#000000;stroke-width:0.5;" x="457.2890625" xlink:href="#mdae4f473cc" y="15.3"/>
      </g>
     </g>
     <g id="text_22">
      <!-- 0.8 -->
      <g transform="translate(449.3375 139.3984375)scale(0.1 -0.1)">
       <use xlink:href="#BitstreamVeraSans-Roman-30"/>
       <use x="63.623046875" xlink:href="#BitstreamVeraSans-Roman-2e"/>
       <use x="95.41015625" xlink:href="#BitstreamVeraSans-Roman-38"/>
      </g>
     </g>
    </g>
    <g id="xtick_13">
     <g id="line2d_53">
      <g>
       <use style="stroke:#000000;stroke-width:0.5;" x="485.15625" xlink:href="#md07ffde124" y="127.8"/>
      </g>
     </g>
     <g id="line2d_54">
      <g>
       <use style="stroke:#000000;stroke-width:0.5;" x="485.15625" xlink:href="#mdae4f473cc" y="15.3"/>
      </g>
     </g>
     <g id="text_23">
      <!-- 0.9 -->
      <defs>
       <path d="M 10.984375 1.515625 
L 10.984375 10.5 
Q 14.703125 8.734375 18.5 7.8125 
Q 22.3125 6.890625 25.984375 6.890625 
Q 35.75 6.890625 40.890625 13.453125 
Q 46.046875 20.015625 46.78125 33.40625 
Q 43.953125 29.203125 39.59375 26.953125 
Q 35.25 24.703125 29.984375 24.703125 
Q 19.046875 24.703125 12.671875 31.3125 
Q 6.296875 37.9375 6.296875 49.421875 
Q 6.296875 60.640625 12.9375 67.421875 
Q 19.578125 74.21875 30.609375 74.21875 
Q 43.265625 74.21875 49.921875 64.515625 
Q 56.59375 54.828125 56.59375 36.375 
Q 56.59375 19.140625 48.40625 8.859375 
Q 40.234375 -1.421875 26.421875 -1.421875 
Q 22.703125 -1.421875 18.890625 -0.6875 
Q 15.09375 0.046875 10.984375 1.515625 
M 30.609375 32.421875 
Q 37.25 32.421875 41.125 36.953125 
Q 45.015625 41.5 45.015625 49.421875 
Q 45.015625 57.28125 41.125 61.84375 
Q 37.25 66.40625 30.609375 66.40625 
Q 23.96875 66.40625 20.09375 61.84375 
Q 16.21875 57.28125 16.21875 49.421875 
Q 16.21875 41.5 20.09375 36.953125 
Q 23.96875 32.421875 30.609375 32.421875 
" id="BitstreamVeraSans-Roman-39"/>
      </defs>
      <g transform="translate(477.2046875 139.3984375)scale(0.1 -0.1)">
       <use xlink:href="#BitstreamVeraSans-Roman-30"/>
       <use x="63.623046875" xlink:href="#BitstreamVeraSans-Roman-2e"/>
       <use x="95.41015625" xlink:href="#BitstreamVeraSans-Roman-39"/>
      </g>
     </g>
    </g>
    <g id="text_24">
     <!-- Z component -->
     <defs>
      <path d="M 5.609375 72.90625 
L 62.890625 72.90625 
L 62.890625 65.375 
L 16.796875 8.296875 
L 64.015625 8.296875 
L 64.015625 0 
L 4.5 0 
L 4.5 7.515625 
L 50.59375 64.59375 
L 5.609375 64.59375 
z
" id="BitstreamVeraSans-Roman-5a"/>
     </defs>
     <g transform="translate(396.12109375 154.0765625)scale(0.1 -0.1)">
      <use xlink:href="#BitstreamVeraSans-Roman-5a"/>
      <use x="68.505859375" xlink:href="#BitstreamVeraSans-Roman-20"/>
      <use x="100.29296875" xlink:href="#BitstreamVeraSans-Roman-63"/>
      <use x="155.2734375" xlink:href="#BitstreamVeraSans-Roman-6f"/>
      <use x="216.455078125" xlink:href="#BitstreamVeraSans-Roman-6d"/>
      <use x="313.8671875" xlink:href="#BitstreamVeraSans-Roman-70"/>
      <use x="377.34375" xlink:href="#BitstreamVeraSans-Roman-6f"/>
      <use x="438.525390625" xlink:href="#BitstreamVeraSans-Roman-6e"/>
      <use x="501.904296875" xlink:href="#BitstreamVeraSans-Roman-65"/>
      <use x="563.427734375" xlink:href="#BitstreamVeraSans-Roman-6e"/>
      <use x="626.806640625" xlink:href="#BitstreamVeraSans-Roman-74"/>
     </g>
    </g>
   </g>
   <g id="matplotlib.axis_6">
    <g id="ytick_7">
     <g id="line2d_55">
      <g>
       <use style="stroke:#000000;stroke-width:0.5;" x="373.6875" xlink:href="#mfa5eee0d0c" y="127.8"/>
      </g>
     </g>
     <g id="line2d_56">
      <g>
       <use style="stroke:#000000;stroke-width:0.5;" x="485.15625" xlink:href="#md9e74a891b" y="127.8"/>
      </g>
     </g>
     <g id="text_25">
      <!-- 0.0 -->
      <g transform="translate(353.784375 130.559375)scale(0.1 -0.1)">
       <use xlink:href="#BitstreamVeraSans-Roman-30"/>
       <use x="63.623046875" xlink:href="#BitstreamVeraSans-Roman-2e"/>
       <use x="95.41015625" xlink:href="#BitstreamVeraSans-Roman-30"/>
      </g>
     </g>
    </g>
    <g id="ytick_8">
     <g id="line2d_57">
      <g>
       <use style="stroke:#000000;stroke-width:0.5;" x="373.6875" xlink:href="#mfa5eee0d0c" y="71.55"/>
      </g>
     </g>
     <g id="line2d_58">
      <g>
       <use style="stroke:#000000;stroke-width:0.5;" x="485.15625" xlink:href="#md9e74a891b" y="71.55"/>
      </g>
     </g>
     <g id="text_26">
      <!-- 0.5 -->
      <g transform="translate(353.784375 74.309375)scale(0.1 -0.1)">
       <use xlink:href="#BitstreamVeraSans-Roman-30"/>
       <use x="63.623046875" xlink:href="#BitstreamVeraSans-Roman-2e"/>
       <use x="95.41015625" xlink:href="#BitstreamVeraSans-Roman-35"/>
      </g>
     </g>
    </g>
    <g id="ytick_9">
     <g id="line2d_59">
      <g>
       <use style="stroke:#000000;stroke-width:0.5;" x="373.6875" xlink:href="#mfa5eee0d0c" y="15.3"/>
      </g>
     </g>
     <g id="line2d_60">
      <g>
       <use style="stroke:#000000;stroke-width:0.5;" x="485.15625" xlink:href="#md9e74a891b" y="15.3"/>
      </g>
     </g>
     <g id="text_27">
      <!-- 1.0 -->
      <g transform="translate(353.784375 18.059375)scale(0.1 -0.1)">
       <use xlink:href="#BitstreamVeraSans-Roman-31"/>
       <use x="63.623046875" xlink:href="#BitstreamVeraSans-Roman-2e"/>
       <use x="95.41015625" xlink:href="#BitstreamVeraSans-Roman-30"/>
      </g>
     </g>
    </g>
    <g id="text_28">
     <!-- Cumulative Distribution -->
     <g transform="translate(346.7046875 130.8453125)rotate(-90.0)scale(0.1 -0.1)">
      <use xlink:href="#BitstreamVeraSans-Roman-43"/>
      <use x="69.82421875" xlink:href="#BitstreamVeraSans-Roman-75"/>
      <use x="133.203125" xlink:href="#BitstreamVeraSans-Roman-6d"/>
      <use x="230.615234375" xlink:href="#BitstreamVeraSans-Roman-75"/>
      <use x="293.994140625" xlink:href="#BitstreamVeraSans-Roman-6c"/>
      <use x="321.77734375" xlink:href="#BitstreamVeraSans-Roman-61"/>
      <use x="383.056640625" xlink:href="#BitstreamVeraSans-Roman-74"/>
      <use x="422.265625" xlink:href="#BitstreamVeraSans-Roman-69"/>
      <use x="450.048828125" xlink:href="#BitstreamVeraSans-Roman-76"/>
      <use x="509.228515625" xlink:href="#BitstreamVeraSans-Roman-65"/>
      <use x="570.751953125" xlink:href="#BitstreamVeraSans-Roman-20"/>
      <use x="602.5390625" xlink:href="#BitstreamVeraSans-Roman-44"/>
      <use x="679.541015625" xlink:href="#BitstreamVeraSans-Roman-69"/>
      <use x="707.32421875" xlink:href="#BitstreamVeraSans-Roman-73"/>
      <use x="759.423828125" xlink:href="#BitstreamVeraSans-Roman-74"/>
      <use x="798.6328125" xlink:href="#BitstreamVeraSans-Roman-72"/>
      <use x="839.74609375" xlink:href="#BitstreamVeraSans-Roman-69"/>
      <use x="867.529296875" xlink:href="#BitstreamVeraSans-Roman-62"/>
      <use x="931.005859375" xlink:href="#BitstreamVeraSans-Roman-75"/>
      <use x="994.384765625" xlink:href="#BitstreamVeraSans-Roman-74"/>
      <use x="1033.59375" xlink:href="#BitstreamVeraSans-Roman-69"/>
      <use x="1061.37695312" xlink:href="#BitstreamVeraSans-Roman-6f"/>
      <use x="1122.55859375" xlink:href="#BitstreamVeraSans-Roman-6e"/>
     </g>
    </g>
   </g>
  </g>
 </g>
 <defs>
  <clipPath id="p7957d4175f">
   <rect height="112.5" width="111.46875" x="209.2875" y="15.3"/>
  </clipPath>
  <clipPath id="p95769f6034">
   <rect height="112.5" width="111.46875" x="44.8875" y="15.3"/>
  </clipPath>
  <clipPath id="p564e5244e6">
   <rect height="112.5" width="111.46875" x="373.6875" y="15.3"/>
  </clipPath>
 </defs>
</svg>
