<?xml version="1.0" encoding="utf-8" standalone="no"?>
<!DOCTYPE svg PUBLIC "-//W3C//DTD SVG 1.1//EN"
  "http://www.w3.org/Graphics/SVG/1.1/DTD/svg11.dtd">
<!-- Created with matplotlib (http://matplotlib.org/) -->
<svg height="216pt" version="1.1" viewBox="0 0 648 216" width="648pt" xmlns="http://www.w3.org/2000/svg" xmlns:xlink="http://www.w3.org/1999/xlink">
 <defs>
  <style type="text/css">
*{stroke-linecap:butt;stroke-linejoin:round;}
  </style>
 </defs>
 <g id="figure_1">
  <g id="patch_1">
   <path d="
M0 216
L648 216
L648 0
L0 0
z
" style="fill:#ffffff;"/>
  </g>
  <g id="axes_1">
   <g id="patch_2">
    <path d="
M43.6219 178.2
L199.116 178.2
L199.116 15.3
L43.6219 15.3
z
" style="fill:#ffffff;"/>
   </g>
   <g id="line2d_1">
    <path clip-path="url(#p644a15f2ee)" d="
M61.2791 178.2
L72.9117 178.167
L77.0732 178.07
L86.3191 177.581
L87.0186 177.451
L88.5766 177.32
L88.6106 177.288
L89.4799 177.125
L89.9039 176.962
L89.9433 176.897
L91.7767 176.571
L91.8481 176.506
L92.9212 176.278
L93.0614 176.213
L93.4395 175.919
L93.7877 175.756
L94.0404 175.626
L94.3205 175.463
L94.3942 175.398
L95.7574 174.844
L95.8262 174.779
L96.0546 174.616
L96.1298 174.551
L96.4946 174.388
L97.0334 174.062
L97.3267 173.932
L97.4448 173.867
L98.0963 173.574
L98.1787 173.476
L98.3949 173.313
L99.3196 172.531
L99.7994 172.14
L100.051 171.814
L100.251 171.651
L100.519 171.358
L101.238 170.316
L101.486 170.12
L101.56 170.022
L101.965 169.599
L102.025 169.534
L102.199 169.371
L102.272 169.273
L102.435 169.078
L102.489 168.98
L102.612 168.817
L102.638 168.719
L102.875 168.556
L103.04 168.198
L103.383 167.742
L103.508 167.579
L103.99 167.155
L104.392 166.602
L104.987 165.592
L105.151 165.363
L105.446 164.907
L105.619 164.647
L106.77 162.92
L106.907 162.659
L106.969 162.529
L107.106 162.366
L107.246 161.975
L107.443 161.78
L108.073 160.639
L108.605 159.466
L111.264 154.873
L111.873 152.885
L111.971 152.625
L112.223 152.103
L112.367 151.843
L112.555 151.484
L112.666 151.028
L112.801 150.768
L112.963 150.246
L113.009 150.051
L113.15 149.627
L113.203 149.399
L113.454 148.813
L113.606 148.617
L113.711 148.161
L113.864 147.803
L114.074 147.314
L114.157 147.021
L114.348 146.663
L114.927 145.653
L115.513 144.317
L115.664 143.73
L115.844 143.144
L115.986 142.72
L116.097 142.492
L116.178 142.329
L116.277 141.938
L116.35 141.678
L116.867 139.756
L116.914 139.56
L117.109 138.909
L117.598 137.41
L117.706 137.214
L117.815 136.726
L118.006 136.041
L119.182 132.067
L119.405 131.187
L119.507 130.894
L119.631 130.373
L119.812 129.623
L119.911 129.395
L120.285 128.059
L120.383 127.668
L120.475 127.44
L120.647 126.658
L121.554 123.791
L121.692 123.466
L123.258 117.373
L123.334 117.178
L123.487 116.396
L123.594 115.842
L123.791 114.93
L123.919 114.441
L124.075 113.985
L124.133 113.724
L124.282 113.203
L124.422 112.942
L124.538 112.616
L124.725 111.867
L124.861 111.509
L125.184 110.466
L125.268 110.108
L125.819 107.436
L125.922 106.785
L126.116 105.905
L126.193 105.612
L126.351 105.123
L126.466 104.862
L126.574 104.374
L127.188 101.963
L127.261 101.702
L127.375 101.116
L127.494 100.725
L127.624 100.203
L128.145 97.6948
L128.273 97.2061
L128.374 96.6197
L128.72 95.512
L128.877 94.9581
L128.992 94.3717
L129.184 93.2965
L129.832 90.5924
L129.889 90.4295
L130.079 89.5824
L130.161 89.3543
L130.329 88.5724
L130.491 87.8231
L130.578 87.595
L130.846 86.6828
L130.993 85.9009
L131.206 85.4447
L131.358 84.8257
L131.435 84.5325
L131.581 83.8157
L131.71 83.1641
L132.08 81.7306
L132.163 81.5026
L132.279 81.079
L132.388 80.6881
L132.68 79.5478
L132.757 79.3197
L133.121 77.3975
L134.202 73.5205
L134.404 72.706
L135.159 70.1321
L135.226 69.9692
L135.697 68.4054
L135.792 68.2099
L136.045 67.1999
L136.11 67.0045
L136.229 66.3529
L136.289 66.1574
L136.701 64.5935
L136.783 64.4306
L136.933 63.5836
L137.031 63.3555
L137.127 62.9971
L137.193 62.7039
L137.344 61.9546
L137.412 61.7265
L137.532 61.2052
L137.807 59.7717
L138.173 58.5337
L138.305 58.1101
L138.502 57.3934
L139.806 52.8647
L139.875 52.5715
L140.069 52.0828
L140.228 51.5615
L140.346 51.1054
L140.437 50.8448
L140.556 50.4538
L142.252 46.3487
L142.385 46.1207
L142.547 45.6646
L142.925 44.7197
L143.051 44.4591
L143.358 43.4817
L143.512 43.0582
L143.713 42.5043
L143.823 42.3088
L143.874 42.1133
L144.013 41.6572
L144.116 41.4292
L144.351 40.8427
L144.494 40.6798
L144.671 40.1585
L144.793 39.6373
L145.69 37.3892
L145.816 37.0309
L145.971 36.8354
L146.238 36.2815
L146.364 36.0535
L146.526 35.7277
L146.731 35.4996
L146.893 35.0109
L147.007 34.8154
L147.254 34.3919
L147.385 34.229
L149.036 31.1665
L149.485 30.6452
L149.607 30.4823
L149.754 30.3194
L150.234 29.6026
L150.334 29.4397
L151.624 27.4849
L151.831 27.2894
L152.414 26.6378
L152.59 26.312
L152.72 26.1491
L152.834 25.9862
L153.231 25.3998
L153.342 25.2369
L153.528 24.9763
L153.935 24.6179
L154.207 24.2921
L154.745 23.9663
L154.851 23.8685
L156.186 22.5328
L156.364 22.3699
L156.55 22.1418
L156.698 21.9137
L156.847 21.7508
L157.196 21.3273
L157.464 21.1644
L157.629 21.0015
L157.914 20.806
L158.01 20.6757
L158.345 20.2847
L158.804 20.1218
L159.088 19.9264
L159.413 19.5028
L160.679 18.9164
L160.806 18.8186
L161.117 18.5906
L162.285 18.1345
L162.575 18.0367
L164.807 17.32
L164.917 17.2222
L170.286 16.0493
L173.641 15.7561
L180.589 15.4629
L191.665 15.3326
L191.665 15.3326" style="fill:none;stroke:#ff0000;stroke-linecap:square;"/>
   </g>
   <g id="line2d_2">
    <path clip-path="url(#p644a15f2ee)" d="
M97.0078 178.2
L97.0078 15.3" style="fill:none;stroke:#ff0000;stroke-linecap:square;"/>
   </g>
   <g id="line2d_3">
    <path clip-path="url(#p644a15f2ee)" d="
M159.752 178.2
L159.752 15.3" style="fill:none;stroke:#ff0000;stroke-linecap:square;"/>
   </g>
   <g id="line2d_4">
    <path clip-path="url(#p644a15f2ee)" d="
M71.3486 178.2
L82.7495 177.842
L85.9526 177.679
L85.962 177.646
L89.4211 177.027
L89.7543 176.929
L94.9646 175.659
L95.2117 175.463
L95.5693 175.137
L95.9198 174.975
L96.3487 174.779
L96.9238 174.486
L98.746 172.955
L99.0615 172.727
L99.2711 172.564
L99.5696 172.238
L99.7408 172.075
L100.077 171.684
L100.319 171.521
L100.481 171.293
L101.032 171.032
L101.373 170.739
L101.65 170.576
L101.765 170.511
L101.953 170.25
L102.312 169.827
L102.572 169.631
L102.647 169.469
L102.964 169.11
L103.154 168.882
L103.212 168.752
L103.358 168.589
L103.763 168.1
L103.897 167.774
L104.036 167.611
L104.156 167.286
L105.769 165.429
L106.182 164.94
L106.698 164.093
L107.022 163.767
L107.396 163.246
L107.686 162.562
L107.824 162.366
L107.968 162.171
L108.061 162.008
L108.298 161.291
L108.575 160.77
L108.693 160.444
L108.88 160.248
L109.067 159.955
L109.18 159.792
L109.352 159.466
L109.47 159.238
L109.602 158.978
L109.766 158.587
L109.903 158.294
L110.041 157.837
L110.238 157.675
L110.88 156.665
L110.987 156.339
L111.178 155.883
L111.278 155.687
L111.395 155.492
L112.447 152.429
L112.931 151.159
L113.146 150.735
L113.28 150.442
L113.568 149.79
L113.953 148.683
L114.088 148.454
L114.223 148.129
L114.381 147.933
L114.603 147.184
L114.712 146.793
L115 146.174
L115.293 145.457
L115.423 145.262
L115.827 143.893
L116.057 143.405
L117.72 137.703
L117.839 137.312
L118.057 136.628
L118.291 136.367
L118.415 135.944
L118.512 135.651
L118.666 134.999
L118.905 134.315
L118.993 133.924
L119.104 133.468
L119.219 133.142
L119.813 131.089
L119.929 130.829
L120.004 130.601
L120.339 129.363
L120.461 129.004
L120.628 128.581
L120.972 127.277
L121.042 127.082
L121.414 125.616
L122.98 119.654
L123.034 119.458
L125.875 107.273
L126.004 106.85
L126.251 105.742
L126.383 105.286
L126.503 105.058
L127.667 100.562
L127.909 99.5519
L128.05 98.9654
L128.189 98.5745
L128.431 97.9229
L128.533 97.4668
L128.8 96.359
L128.872 96.0984
L128.987 95.7074
L129.116 95.1536
L129.27 94.3717
L129.541 93.5572
L130.223 90.7879
L130.266 90.5924
L130.389 90.1363
L130.596 89.224
L130.874 88.1163
L131.109 87.6602
L131.389 86.7154
L131.543 86.2592
L131.766 85.347
L131.945 84.8583
L132.179 83.6528
L132.244 83.3922
L132.623 82.0238
L133.873 76.7459
L133.975 76.583
L134.051 76.0291
L134.314 75.1495
L134.437 74.6282
L134.947 72.8689
L135.042 72.6734
L135.083 72.4453
L135.15 72.1195
L135.391 71.4028
L135.523 70.9792
L135.66 70.295
L135.932 69.1547
L136.007 68.8615
L136.112 68.2751
L136.66 66.2225
L137.813 61.4659
L137.927 61.1401
L138.145 60.5536
L138.344 60.0323
L138.458 59.6414
L139.235 56.9047
L139.301 56.7418
L139.468 56.1879
L139.72 55.5689
L139.901 54.9499
L141.757 49.4438
L141.822 49.1832
L142.077 48.5642
L142.146 48.3361
L142.257 48.0429
L142.706 47.0329
L142.882 46.3487
L143.027 46.0229
L143.178 45.5668
L143.265 45.2736
L143.427 44.6872
L143.51 44.4917
L143.757 43.4817
L143.833 43.2862
L143.978 42.6346
L144.128 42.2437
L144.388 41.9504
L144.76 41.1685
L144.906 40.5495
L145.118 40.126
L145.26 39.9956
L145.377 39.7024
L146.142 38.3341
L146.206 38.1712
L147.921 34.2616
L148.104 34.0335
L148.242 33.5774
L148.641 32.6977
L148.825 32.3068
L148.934 32.209
L149.022 32.0461
L149.229 31.59
L149.35 31.4271
L149.473 31.1339
L149.566 30.9384
L149.668 30.7103
L149.765 30.5149
L149.867 30.352
L149.945 30.1891
L150.059 29.7981
L150.812 29.1139
L150.891 29.0488
L151.013 28.8859
L151.109 28.6904
L152.015 27.3546
L152.15 27.1917
L152.305 26.8007
L152.69 26.4098
L152.78 26.2795
L152.903 26.0514
L153.158 25.7256
L153.323 25.5301
L153.724 24.9437
L154.069 24.4876
L154.258 24.1618
L154.424 23.9989
L154.578 23.836
L154.696 23.7708
L154.799 23.5427
L155.081 23.3473
L155.163 23.1844
L155.84 22.7608
L155.96 22.5328
L156.267 22.207
L156.448 22.0115
L156.51 21.8812
L156.79 21.6205
L157.432 21.0341
L157.79 20.7409
L158.077 20.5454
L158.17 20.4476
L158.692 20.1218
L158.821 19.9589
L159.537 19.4377
L159.749 19.3073
L160.443 18.9815
L161.231 18.6883
L161.532 18.558
L161.598 18.4603
L162.909 18.167
L163.136 18.0693
L163.465 17.9064
L164.515 17.4829
L164.517 17.4503
L167.333 16.7335
L167.929 16.6032
L171.142 16.0493
L173.035 15.7887
L173.475 15.7235
L182.451 15.3326
L182.451 15.3326" style="fill:none;stroke:#0000ff;stroke-linecap:square;"/>
   </g>
   <g id="line2d_5">
    <path clip-path="url(#p644a15f2ee)" d="
M97.4074 178.2
L97.4074 15.3" style="fill:none;stroke:#0000ff;stroke-dasharray:6.000000,6.000000;stroke-dashoffset:0.0;"/>
   </g>
   <g id="line2d_6">
    <path clip-path="url(#p644a15f2ee)" d="
M159.684 178.2
L159.684 15.3" style="fill:none;stroke:#0000ff;stroke-dasharray:6.000000,6.000000;stroke-dashoffset:0.0;"/>
   </g>
   <g id="patch_3">
    <path d="
M43.6219 15.3
L199.116 15.3" style="fill:none;stroke:#000000;stroke-linecap:square;stroke-linejoin:miter;"/>
   </g>
   <g id="patch_4">
    <path d="
M199.116 178.2
L199.116 15.3" style="fill:none;stroke:#000000;stroke-linecap:square;stroke-linejoin:miter;"/>
   </g>
   <g id="patch_5">
    <path d="
M43.6219 178.2
L199.116 178.2" style="fill:none;stroke:#000000;stroke-linecap:square;stroke-linejoin:miter;"/>
   </g>
   <g id="patch_6">
    <path d="
M43.6219 178.2
L43.6219 15.3" style="fill:none;stroke:#000000;stroke-linecap:square;stroke-linejoin:miter;"/>
   </g>
   <g id="matplotlib.axis_1">
    <g id="xtick_1">
     <g id="line2d_7">
      <defs>
       <path d="
M0 0
L0 -4" id="m93b0483c22" style="stroke:#000000;stroke-width:0.5;"/>
      </defs>
      <g>
       <use style="stroke:#000000;stroke-width:0.5;" x="43.621875" xlink:href="#m93b0483c22" y="178.2"/>
      </g>
     </g>
     <g id="line2d_8">
      <defs>
       <path d="
M0 0
L0 4" id="m741efc42ff" style="stroke:#000000;stroke-width:0.5;"/>
      </defs>
      <g>
       <use style="stroke:#000000;stroke-width:0.5;" x="43.621875" xlink:href="#m741efc42ff" y="15.3"/>
      </g>
     </g>
     <g id="text_1">
      <!-- −0.76 -->
      <defs>
       <path d="
M10.5938 35.5
L73.1875 35.5
L73.1875 27.2031
L10.5938 27.2031
z
" id="BitstreamVeraSans-Roman-2212"/>
       <path d="
M33.0156 40.375
Q26.375 40.375 22.4844 35.8281
Q18.6094 31.2969 18.6094 23.3906
Q18.6094 15.5312 22.4844 10.9531
Q26.375 6.39062 33.0156 6.39062
Q39.6562 6.39062 43.5312 10.9531
Q47.4062 15.5312 47.4062 23.3906
Q47.4062 31.2969 43.5312 35.8281
Q39.6562 40.375 33.0156 40.375
M52.5938 71.2969
L52.5938 62.3125
Q48.875 64.0625 45.0938 64.9844
Q41.3125 65.9219 37.5938 65.9219
Q27.8281 65.9219 22.6719 59.3281
Q17.5312 52.7344 16.7969 39.4062
Q19.6719 43.6562 24.0156 45.9219
Q28.375 48.1875 33.5938 48.1875
Q44.5781 48.1875 50.9531 41.5156
Q57.3281 34.8594 57.3281 23.3906
Q57.3281 12.1562 50.6875 5.35938
Q44.0469 -1.42188 33.0156 -1.42188
Q20.3594 -1.42188 13.6719 8.26562
Q6.98438 17.9688 6.98438 36.375
Q6.98438 53.6562 15.1875 63.9375
Q23.3906 74.2188 37.2031 74.2188
Q40.9219 74.2188 44.7031 73.4844
Q48.4844 72.75 52.5938 71.2969" id="BitstreamVeraSans-Roman-36"/>
       <path d="
M31.7812 66.4062
Q24.1719 66.4062 20.3281 58.9062
Q16.5 51.4219 16.5 36.375
Q16.5 21.3906 20.3281 13.8906
Q24.1719 6.39062 31.7812 6.39062
Q39.4531 6.39062 43.2812 13.8906
Q47.125 21.3906 47.125 36.375
Q47.125 51.4219 43.2812 58.9062
Q39.4531 66.4062 31.7812 66.4062
M31.7812 74.2188
Q44.0469 74.2188 50.5156 64.5156
Q56.9844 54.8281 56.9844 36.375
Q56.9844 17.9688 50.5156 8.26562
Q44.0469 -1.42188 31.7812 -1.42188
Q19.5312 -1.42188 13.0625 8.26562
Q6.59375 17.9688 6.59375 36.375
Q6.59375 54.8281 13.0625 64.5156
Q19.5312 74.2188 31.7812 74.2188" id="BitstreamVeraSans-Roman-30"/>
       <path d="
M10.6875 12.4062
L21 12.4062
L21 0
L10.6875 0
z
" id="BitstreamVeraSans-Roman-2e"/>
       <path d="
M8.20312 72.9062
L55.0781 72.9062
L55.0781 68.7031
L28.6094 0
L18.3125 0
L43.2188 64.5938
L8.20312 64.5938
z
" id="BitstreamVeraSans-Roman-37"/>
      </defs>
      <g transform="translate(29.14375 189.7984375)scale(0.1 -0.1)">
       <use xlink:href="#BitstreamVeraSans-Roman-2212"/>
       <use x="83.7890625" xlink:href="#BitstreamVeraSans-Roman-30"/>
       <use x="147.412109375" xlink:href="#BitstreamVeraSans-Roman-2e"/>
       <use x="179.19921875" xlink:href="#BitstreamVeraSans-Roman-37"/>
       <use x="242.822265625" xlink:href="#BitstreamVeraSans-Roman-36"/>
      </g>
     </g>
    </g>
    <g id="xtick_2">
     <g id="line2d_9">
      <g>
       <use style="stroke:#000000;stroke-width:0.5;" x="63.05859375" xlink:href="#m93b0483c22" y="178.2"/>
      </g>
     </g>
     <g id="line2d_10">
      <g>
       <use style="stroke:#000000;stroke-width:0.5;" x="63.05859375" xlink:href="#m741efc42ff" y="15.3"/>
      </g>
     </g>
     <g id="text_2">
      <!-- −0.74 -->
      <defs>
       <path d="
M37.7969 64.3125
L12.8906 25.3906
L37.7969 25.3906
z

M35.2031 72.9062
L47.6094 72.9062
L47.6094 25.3906
L58.0156 25.3906
L58.0156 17.1875
L47.6094 17.1875
L47.6094 0
L37.7969 0
L37.7969 17.1875
L4.89062 17.1875
L4.89062 26.7031
z
" id="BitstreamVeraSans-Roman-34"/>
      </defs>
      <g transform="translate(48.54609375 189.7984375)scale(0.1 -0.1)">
       <use xlink:href="#BitstreamVeraSans-Roman-2212"/>
       <use x="83.7890625" xlink:href="#BitstreamVeraSans-Roman-30"/>
       <use x="147.412109375" xlink:href="#BitstreamVeraSans-Roman-2e"/>
       <use x="179.19921875" xlink:href="#BitstreamVeraSans-Roman-37"/>
       <use x="242.822265625" xlink:href="#BitstreamVeraSans-Roman-34"/>
      </g>
     </g>
    </g>
    <g id="xtick_3">
     <g id="line2d_11">
      <g>
       <use style="stroke:#000000;stroke-width:0.5;" x="82.4953125" xlink:href="#m93b0483c22" y="178.2"/>
      </g>
     </g>
     <g id="line2d_12">
      <g>
       <use style="stroke:#000000;stroke-width:0.5;" x="82.4953125" xlink:href="#m741efc42ff" y="15.3"/>
      </g>
     </g>
     <g id="text_3">
      <!-- −0.72 -->
      <defs>
       <path d="
M19.1875 8.29688
L53.6094 8.29688
L53.6094 0
L7.32812 0
L7.32812 8.29688
Q12.9375 14.1094 22.625 23.8906
Q32.3281 33.6875 34.8125 36.5312
Q39.5469 41.8438 41.4219 45.5312
Q43.3125 49.2188 43.3125 52.7812
Q43.3125 58.5938 39.2344 62.25
Q35.1562 65.9219 28.6094 65.9219
Q23.9688 65.9219 18.8125 64.3125
Q13.6719 62.7031 7.8125 59.4219
L7.8125 69.3906
Q13.7656 71.7812 18.9375 73
Q24.125 74.2188 28.4219 74.2188
Q39.75 74.2188 46.4844 68.5469
Q53.2188 62.8906 53.2188 53.4219
Q53.2188 48.9219 51.5312 44.8906
Q49.8594 40.875 45.4062 35.4062
Q44.1875 33.9844 37.6406 27.2188
Q31.1094 20.4531 19.1875 8.29688" id="BitstreamVeraSans-Roman-32"/>
      </defs>
      <g transform="translate(68.203125 189.7984375)scale(0.1 -0.1)">
       <use xlink:href="#BitstreamVeraSans-Roman-2212"/>
       <use x="83.7890625" xlink:href="#BitstreamVeraSans-Roman-30"/>
       <use x="147.412109375" xlink:href="#BitstreamVeraSans-Roman-2e"/>
       <use x="179.19921875" xlink:href="#BitstreamVeraSans-Roman-37"/>
       <use x="242.822265625" xlink:href="#BitstreamVeraSans-Roman-32"/>
      </g>
     </g>
    </g>
    <g id="xtick_4">
     <g id="line2d_13">
      <g>
       <use style="stroke:#000000;stroke-width:0.5;" x="101.93203125" xlink:href="#m93b0483c22" y="178.2"/>
      </g>
     </g>
     <g id="line2d_14">
      <g>
       <use style="stroke:#000000;stroke-width:0.5;" x="101.93203125" xlink:href="#m741efc42ff" y="15.3"/>
      </g>
     </g>
     <g id="text_4">
      <!-- −0.70 -->
      <g transform="translate(87.47109375 189.7984375)scale(0.1 -0.1)">
       <use xlink:href="#BitstreamVeraSans-Roman-2212"/>
       <use x="83.7890625" xlink:href="#BitstreamVeraSans-Roman-30"/>
       <use x="147.412109375" xlink:href="#BitstreamVeraSans-Roman-2e"/>
       <use x="179.19921875" xlink:href="#BitstreamVeraSans-Roman-37"/>
       <use x="242.822265625" xlink:href="#BitstreamVeraSans-Roman-30"/>
      </g>
     </g>
    </g>
    <g id="xtick_5">
     <g id="line2d_15">
      <g>
       <use style="stroke:#000000;stroke-width:0.5;" x="121.36875" xlink:href="#m93b0483c22" y="178.2"/>
      </g>
     </g>
     <g id="line2d_16">
      <g>
       <use style="stroke:#000000;stroke-width:0.5;" x="121.36875" xlink:href="#m741efc42ff" y="15.3"/>
      </g>
     </g>
     <g id="text_5">
      <!-- −0.68 -->
      <defs>
       <path d="
M31.7812 34.625
Q24.75 34.625 20.7188 30.8594
Q16.7031 27.0938 16.7031 20.5156
Q16.7031 13.9219 20.7188 10.1562
Q24.75 6.39062 31.7812 6.39062
Q38.8125 6.39062 42.8594 10.1719
Q46.9219 13.9688 46.9219 20.5156
Q46.9219 27.0938 42.8906 30.8594
Q38.875 34.625 31.7812 34.625
M21.9219 38.8125
Q15.5781 40.375 12.0312 44.7188
Q8.5 49.0781 8.5 55.3281
Q8.5 64.0625 14.7188 69.1406
Q20.9531 74.2188 31.7812 74.2188
Q42.6719 74.2188 48.875 69.1406
Q55.0781 64.0625 55.0781 55.3281
Q55.0781 49.0781 51.5312 44.7188
Q48 40.375 41.7031 38.8125
Q48.8281 37.1562 52.7969 32.3125
Q56.7812 27.4844 56.7812 20.5156
Q56.7812 9.90625 50.3125 4.23438
Q43.8438 -1.42188 31.7812 -1.42188
Q19.7344 -1.42188 13.25 4.23438
Q6.78125 9.90625 6.78125 20.5156
Q6.78125 27.4844 10.7812 32.3125
Q14.7969 37.1562 21.9219 38.8125
M18.3125 54.3906
Q18.3125 48.7344 21.8438 45.5625
Q25.3906 42.3906 31.7812 42.3906
Q38.1406 42.3906 41.7188 45.5625
Q45.3125 48.7344 45.3125 54.3906
Q45.3125 60.0625 41.7188 63.2344
Q38.1406 66.4062 31.7812 66.4062
Q25.3906 66.4062 21.8438 63.2344
Q18.3125 60.0625 18.3125 54.3906" id="BitstreamVeraSans-Roman-38"/>
      </defs>
      <g transform="translate(106.91796875 189.7984375)scale(0.1 -0.1)">
       <use xlink:href="#BitstreamVeraSans-Roman-2212"/>
       <use x="83.7890625" xlink:href="#BitstreamVeraSans-Roman-30"/>
       <use x="147.412109375" xlink:href="#BitstreamVeraSans-Roman-2e"/>
       <use x="179.19921875" xlink:href="#BitstreamVeraSans-Roman-36"/>
       <use x="242.822265625" xlink:href="#BitstreamVeraSans-Roman-38"/>
      </g>
     </g>
    </g>
    <g id="xtick_6">
     <g id="line2d_17">
      <g>
       <use style="stroke:#000000;stroke-width:0.5;" x="140.80546875" xlink:href="#m93b0483c22" y="178.2"/>
      </g>
     </g>
     <g id="line2d_18">
      <g>
       <use style="stroke:#000000;stroke-width:0.5;" x="140.80546875" xlink:href="#m741efc42ff" y="15.3"/>
      </g>
     </g>
     <g id="text_6">
      <!-- −0.66 -->
      <g transform="translate(126.32734375 189.7984375)scale(0.1 -0.1)">
       <use xlink:href="#BitstreamVeraSans-Roman-2212"/>
       <use x="83.7890625" xlink:href="#BitstreamVeraSans-Roman-30"/>
       <use x="147.412109375" xlink:href="#BitstreamVeraSans-Roman-2e"/>
       <use x="179.19921875" xlink:href="#BitstreamVeraSans-Roman-36"/>
       <use x="242.822265625" xlink:href="#BitstreamVeraSans-Roman-36"/>
      </g>
     </g>
    </g>
    <g id="xtick_7">
     <g id="line2d_19">
      <g>
       <use style="stroke:#000000;stroke-width:0.5;" x="160.2421875" xlink:href="#m93b0483c22" y="178.2"/>
      </g>
     </g>
     <g id="line2d_20">
      <g>
       <use style="stroke:#000000;stroke-width:0.5;" x="160.2421875" xlink:href="#m741efc42ff" y="15.3"/>
      </g>
     </g>
     <g id="text_7">
      <!-- −0.64 -->
      <g transform="translate(145.7296875 189.7984375)scale(0.1 -0.1)">
       <use xlink:href="#BitstreamVeraSans-Roman-2212"/>
       <use x="83.7890625" xlink:href="#BitstreamVeraSans-Roman-30"/>
       <use x="147.412109375" xlink:href="#BitstreamVeraSans-Roman-2e"/>
       <use x="179.19921875" xlink:href="#BitstreamVeraSans-Roman-36"/>
       <use x="242.822265625" xlink:href="#BitstreamVeraSans-Roman-34"/>
      </g>
     </g>
    </g>
    <g id="xtick_8">
     <g id="line2d_21">
      <g>
       <use style="stroke:#000000;stroke-width:0.5;" x="179.67890625" xlink:href="#m93b0483c22" y="178.2"/>
      </g>
     </g>
     <g id="line2d_22">
      <g>
       <use style="stroke:#000000;stroke-width:0.5;" x="179.67890625" xlink:href="#m741efc42ff" y="15.3"/>
      </g>
     </g>
     <g id="text_8">
      <!-- −0.62 -->
      <g transform="translate(165.38671875 189.7984375)scale(0.1 -0.1)">
       <use xlink:href="#BitstreamVeraSans-Roman-2212"/>
       <use x="83.7890625" xlink:href="#BitstreamVeraSans-Roman-30"/>
       <use x="147.412109375" xlink:href="#BitstreamVeraSans-Roman-2e"/>
       <use x="179.19921875" xlink:href="#BitstreamVeraSans-Roman-36"/>
       <use x="242.822265625" xlink:href="#BitstreamVeraSans-Roman-32"/>
      </g>
     </g>
    </g>
    <g id="xtick_9">
     <g id="line2d_23">
      <g>
       <use style="stroke:#000000;stroke-width:0.5;" x="199.115625" xlink:href="#m93b0483c22" y="178.2"/>
      </g>
     </g>
     <g id="line2d_24">
      <g>
       <use style="stroke:#000000;stroke-width:0.5;" x="199.115625" xlink:href="#m741efc42ff" y="15.3"/>
      </g>
     </g>
     <g id="text_9">
      <!-- −0.60 -->
      <g transform="translate(184.6546875 189.7984375)scale(0.1 -0.1)">
       <use xlink:href="#BitstreamVeraSans-Roman-2212"/>
       <use x="83.7890625" xlink:href="#BitstreamVeraSans-Roman-30"/>
       <use x="147.412109375" xlink:href="#BitstreamVeraSans-Roman-2e"/>
       <use x="179.19921875" xlink:href="#BitstreamVeraSans-Roman-36"/>
       <use x="242.822265625" xlink:href="#BitstreamVeraSans-Roman-30"/>
      </g>
     </g>
    </g>
    <g id="text_10">
     <!-- X component -->
     <defs>
      <path id="BitstreamVeraSans-Roman-20"/>
      <path d="
M54.8906 33.0156
L54.8906 0
L45.9062 0
L45.9062 32.7188
Q45.9062 40.4844 42.875 44.3281
Q39.8438 48.1875 33.7969 48.1875
Q26.5156 48.1875 22.3125 43.5469
Q18.1094 38.9219 18.1094 30.9062
L18.1094 0
L9.07812 0
L9.07812 54.6875
L18.1094 54.6875
L18.1094 46.1875
Q21.3438 51.125 25.7031 53.5625
Q30.0781 56 35.7969 56
Q45.2188 56 50.0469 50.1719
Q54.8906 44.3438 54.8906 33.0156" id="BitstreamVeraSans-Roman-6e"/>
      <path d="
M52 44.1875
Q55.375 50.25 60.0625 53.125
Q64.75 56 71.0938 56
Q79.6406 56 84.2812 50.0156
Q88.9219 44.0469 88.9219 33.0156
L88.9219 0
L79.8906 0
L79.8906 32.7188
Q79.8906 40.5781 77.0938 44.375
Q74.3125 48.1875 68.6094 48.1875
Q61.625 48.1875 57.5625 43.5469
Q53.5156 38.9219 53.5156 30.9062
L53.5156 0
L44.4844 0
L44.4844 32.7188
Q44.4844 40.625 41.7031 44.4062
Q38.9219 48.1875 33.1094 48.1875
Q26.2188 48.1875 22.1562 43.5312
Q18.1094 38.875 18.1094 30.9062
L18.1094 0
L9.07812 0
L9.07812 54.6875
L18.1094 54.6875
L18.1094 46.1875
Q21.1875 51.2188 25.4844 53.6094
Q29.7812 56 35.6875 56
Q41.6562 56 45.8281 52.9688
Q50 49.9531 52 44.1875" id="BitstreamVeraSans-Roman-6d"/>
      <path d="
M30.6094 48.3906
Q23.3906 48.3906 19.1875 42.75
Q14.9844 37.1094 14.9844 27.2969
Q14.9844 17.4844 19.1562 11.8438
Q23.3438 6.20312 30.6094 6.20312
Q37.7969 6.20312 41.9844 11.8594
Q46.1875 17.5312 46.1875 27.2969
Q46.1875 37.0156 41.9844 42.7031
Q37.7969 48.3906 30.6094 48.3906
M30.6094 56
Q42.3281 56 49.0156 48.375
Q55.7188 40.7656 55.7188 27.2969
Q55.7188 13.875 49.0156 6.21875
Q42.3281 -1.42188 30.6094 -1.42188
Q18.8438 -1.42188 12.1719 6.21875
Q5.51562 13.875 5.51562 27.2969
Q5.51562 40.7656 12.1719 48.375
Q18.8438 56 30.6094 56" id="BitstreamVeraSans-Roman-6f"/>
      <path d="
M56.2031 29.5938
L56.2031 25.2031
L14.8906 25.2031
Q15.4844 15.9219 20.4844 11.0625
Q25.4844 6.20312 34.4219 6.20312
Q39.5938 6.20312 44.4531 7.46875
Q49.3125 8.73438 54.1094 11.2812
L54.1094 2.78125
Q49.2656 0.734375 44.1875 -0.34375
Q39.1094 -1.42188 33.8906 -1.42188
Q20.7969 -1.42188 13.1562 6.1875
Q5.51562 13.8125 5.51562 26.8125
Q5.51562 40.2344 12.7656 48.1094
Q20.0156 56 32.3281 56
Q43.3594 56 49.7812 48.8906
Q56.2031 41.7969 56.2031 29.5938
M47.2188 32.2344
Q47.125 39.5938 43.0938 43.9844
Q39.0625 48.3906 32.4219 48.3906
Q24.9062 48.3906 20.3906 44.1406
Q15.875 39.8906 15.1875 32.1719
z
" id="BitstreamVeraSans-Roman-65"/>
      <path d="
M48.7812 52.5938
L48.7812 44.1875
Q44.9688 46.2969 41.1406 47.3438
Q37.3125 48.3906 33.4062 48.3906
Q24.6562 48.3906 19.8125 42.8438
Q14.9844 37.3125 14.9844 27.2969
Q14.9844 17.2812 19.8125 11.7344
Q24.6562 6.20312 33.4062 6.20312
Q37.3125 6.20312 41.1406 7.25
Q44.9688 8.29688 48.7812 10.4062
L48.7812 2.09375
Q45.0156 0.34375 40.9844 -0.53125
Q36.9688 -1.42188 32.4219 -1.42188
Q20.0625 -1.42188 12.7812 6.34375
Q5.51562 14.1094 5.51562 27.2969
Q5.51562 40.6719 12.8594 48.3281
Q20.2188 56 33.0156 56
Q37.1562 56 41.1094 55.1406
Q45.0625 54.2969 48.7812 52.5938" id="BitstreamVeraSans-Roman-63"/>
      <path d="
M6.29688 72.9062
L16.8906 72.9062
L35.0156 45.7969
L53.2188 72.9062
L63.8125 72.9062
L40.375 37.8906
L65.375 0
L54.7812 0
L34.2812 31
L13.625 0
L2.98438 0
L29 38.9219
z
" id="BitstreamVeraSans-Roman-58"/>
      <path d="
M18.3125 70.2188
L18.3125 54.6875
L36.8125 54.6875
L36.8125 47.7031
L18.3125 47.7031
L18.3125 18.0156
Q18.3125 11.3281 20.1406 9.42188
Q21.9688 7.51562 27.5938 7.51562
L36.8125 7.51562
L36.8125 0
L27.5938 0
Q17.1875 0 13.2344 3.875
Q9.28125 7.76562 9.28125 18.0156
L9.28125 47.7031
L2.6875 47.7031
L2.6875 54.6875
L9.28125 54.6875
L9.28125 70.2188
z
" id="BitstreamVeraSans-Roman-74"/>
      <path d="
M18.1094 8.20312
L18.1094 -20.7969
L9.07812 -20.7969
L9.07812 54.6875
L18.1094 54.6875
L18.1094 46.3906
Q20.9531 51.2656 25.2656 53.625
Q29.5938 56 35.5938 56
Q45.5625 56 51.7812 48.0938
Q58.0156 40.1875 58.0156 27.2969
Q58.0156 14.4062 51.7812 6.48438
Q45.5625 -1.42188 35.5938 -1.42188
Q29.5938 -1.42188 25.2656 0.953125
Q20.9531 3.32812 18.1094 8.20312
M48.6875 27.2969
Q48.6875 37.2031 44.6094 42.8438
Q40.5312 48.4844 33.4062 48.4844
Q26.2656 48.4844 22.1875 42.8438
Q18.1094 37.2031 18.1094 27.2969
Q18.1094 17.3906 22.1875 11.75
Q26.2656 6.10938 33.4062 6.10938
Q40.5312 6.10938 44.6094 11.75
Q48.6875 17.3906 48.6875 27.2969" id="BitstreamVeraSans-Roman-70"/>
     </defs>
     <g transform="translate(88.1875 204.4765625)scale(0.1 -0.1)">
      <use xlink:href="#BitstreamVeraSans-Roman-58"/>
      <use x="68.505859375" xlink:href="#BitstreamVeraSans-Roman-20"/>
      <use x="100.29296875" xlink:href="#BitstreamVeraSans-Roman-63"/>
      <use x="155.2734375" xlink:href="#BitstreamVeraSans-Roman-6f"/>
      <use x="216.455078125" xlink:href="#BitstreamVeraSans-Roman-6d"/>
      <use x="313.8671875" xlink:href="#BitstreamVeraSans-Roman-70"/>
      <use x="377.34375" xlink:href="#BitstreamVeraSans-Roman-6f"/>
      <use x="438.525390625" xlink:href="#BitstreamVeraSans-Roman-6e"/>
      <use x="501.904296875" xlink:href="#BitstreamVeraSans-Roman-65"/>
      <use x="563.427734375" xlink:href="#BitstreamVeraSans-Roman-6e"/>
      <use x="626.806640625" xlink:href="#BitstreamVeraSans-Roman-74"/>
     </g>
    </g>
   </g>
   <g id="matplotlib.axis_2">
    <g id="ytick_1">
     <g id="line2d_25">
      <defs>
       <path d="
M0 0
L4 0" id="m728421d6d4" style="stroke:#000000;stroke-width:0.5;"/>
      </defs>
      <g>
       <use style="stroke:#000000;stroke-width:0.5;" x="43.621875" xlink:href="#m728421d6d4" y="178.2"/>
      </g>
     </g>
     <g id="line2d_26">
      <defs>
       <path d="
M0 0
L-4 0" id="mcb0005524f" style="stroke:#000000;stroke-width:0.5;"/>
      </defs>
      <g>
       <use style="stroke:#000000;stroke-width:0.5;" x="199.115625" xlink:href="#mcb0005524f" y="178.2"/>
      </g>
     </g>
     <g id="text_11">
      <!-- 0.0 -->
      <g transform="translate(25.0421875 180.959375)scale(0.1 -0.1)">
       <use xlink:href="#BitstreamVeraSans-Roman-30"/>
       <use x="63.623046875" xlink:href="#BitstreamVeraSans-Roman-2e"/>
       <use x="95.41015625" xlink:href="#BitstreamVeraSans-Roman-30"/>
      </g>
     </g>
    </g>
    <g id="ytick_2">
     <g id="line2d_27">
      <g>
       <use style="stroke:#000000;stroke-width:0.5;" x="43.621875" xlink:href="#m728421d6d4" y="145.62"/>
      </g>
     </g>
     <g id="line2d_28">
      <g>
       <use style="stroke:#000000;stroke-width:0.5;" x="199.115625" xlink:href="#mcb0005524f" y="145.62"/>
      </g>
     </g>
     <g id="text_12">
      <!-- 0.2 -->
      <g transform="translate(25.3796875 148.379375)scale(0.1 -0.1)">
       <use xlink:href="#BitstreamVeraSans-Roman-30"/>
       <use x="63.623046875" xlink:href="#BitstreamVeraSans-Roman-2e"/>
       <use x="95.41015625" xlink:href="#BitstreamVeraSans-Roman-32"/>
      </g>
     </g>
    </g>
    <g id="ytick_3">
     <g id="line2d_29">
      <g>
       <use style="stroke:#000000;stroke-width:0.5;" x="43.621875" xlink:href="#m728421d6d4" y="113.04"/>
      </g>
     </g>
     <g id="line2d_30">
      <g>
       <use style="stroke:#000000;stroke-width:0.5;" x="199.115625" xlink:href="#mcb0005524f" y="113.04"/>
      </g>
     </g>
     <g id="text_13">
      <!-- 0.4 -->
      <g transform="translate(24.9390625 115.799375)scale(0.1 -0.1)">
       <use xlink:href="#BitstreamVeraSans-Roman-30"/>
       <use x="63.623046875" xlink:href="#BitstreamVeraSans-Roman-2e"/>
       <use x="95.41015625" xlink:href="#BitstreamVeraSans-Roman-34"/>
      </g>
     </g>
    </g>
    <g id="ytick_4">
     <g id="line2d_31">
      <g>
       <use style="stroke:#000000;stroke-width:0.5;" x="43.621875" xlink:href="#m728421d6d4" y="80.46"/>
      </g>
     </g>
     <g id="line2d_32">
      <g>
       <use style="stroke:#000000;stroke-width:0.5;" x="199.115625" xlink:href="#mcb0005524f" y="80.46"/>
      </g>
     </g>
     <g id="text_14">
      <!-- 0.6 -->
      <g transform="translate(25.0078125 83.219375)scale(0.1 -0.1)">
       <use xlink:href="#BitstreamVeraSans-Roman-30"/>
       <use x="63.623046875" xlink:href="#BitstreamVeraSans-Roman-2e"/>
       <use x="95.41015625" xlink:href="#BitstreamVeraSans-Roman-36"/>
      </g>
     </g>
    </g>
    <g id="ytick_5">
     <g id="line2d_33">
      <g>
       <use style="stroke:#000000;stroke-width:0.5;" x="43.621875" xlink:href="#m728421d6d4" y="47.88"/>
      </g>
     </g>
     <g id="line2d_34">
      <g>
       <use style="stroke:#000000;stroke-width:0.5;" x="199.115625" xlink:href="#mcb0005524f" y="47.88"/>
      </g>
     </g>
     <g id="text_15">
      <!-- 0.8 -->
      <g transform="translate(25.0625 50.639375)scale(0.1 -0.1)">
       <use xlink:href="#BitstreamVeraSans-Roman-30"/>
       <use x="63.623046875" xlink:href="#BitstreamVeraSans-Roman-2e"/>
       <use x="95.41015625" xlink:href="#BitstreamVeraSans-Roman-38"/>
      </g>
     </g>
    </g>
    <g id="ytick_6">
     <g id="line2d_35">
      <g>
       <use style="stroke:#000000;stroke-width:0.5;" x="43.621875" xlink:href="#m728421d6d4" y="15.3"/>
      </g>
     </g>
     <g id="line2d_36">
      <g>
       <use style="stroke:#000000;stroke-width:0.5;" x="199.115625" xlink:href="#mcb0005524f" y="15.3"/>
      </g>
     </g>
     <g id="text_16">
      <!-- 1.0 -->
      <defs>
       <path d="
M12.4062 8.29688
L28.5156 8.29688
L28.5156 63.9219
L10.9844 60.4062
L10.9844 69.3906
L28.4219 72.9062
L38.2812 72.9062
L38.2812 8.29688
L54.3906 8.29688
L54.3906 0
L12.4062 0
z
" id="BitstreamVeraSans-Roman-31"/>
      </defs>
      <g transform="translate(25.48125 18.059375)scale(0.1 -0.1)">
       <use xlink:href="#BitstreamVeraSans-Roman-31"/>
       <use x="63.623046875" xlink:href="#BitstreamVeraSans-Roman-2e"/>
       <use x="95.41015625" xlink:href="#BitstreamVeraSans-Roman-30"/>
      </g>
     </g>
    </g>
    <g id="text_17">
     <!-- Cumulative Distribution -->
     <defs>
      <path d="
M41.1094 46.2969
Q39.5938 47.1719 37.8125 47.5781
Q36.0312 48 33.8906 48
Q26.2656 48 22.1875 43.0469
Q18.1094 38.0938 18.1094 28.8125
L18.1094 0
L9.07812 0
L9.07812 54.6875
L18.1094 54.6875
L18.1094 46.1875
Q20.9531 51.1719 25.4844 53.5781
Q30.0312 56 36.5312 56
Q37.4531 56 38.5781 55.875
Q39.7031 55.7656 41.0625 55.5156
z
" id="BitstreamVeraSans-Roman-72"/>
      <path d="
M9.42188 75.9844
L18.4062 75.9844
L18.4062 0
L9.42188 0
z
" id="BitstreamVeraSans-Roman-6c"/>
      <path d="
M19.6719 64.7969
L19.6719 8.10938
L31.5938 8.10938
Q46.6875 8.10938 53.6875 14.9375
Q60.6875 21.7812 60.6875 36.5312
Q60.6875 51.1719 53.6875 57.9844
Q46.6875 64.7969 31.5938 64.7969
z

M9.8125 72.9062
L30.0781 72.9062
Q51.2656 72.9062 61.1719 64.0938
Q71.0938 55.2812 71.0938 36.5312
Q71.0938 17.6719 61.125 8.82812
Q51.1719 0 30.0781 0
L9.8125 0
z
" id="BitstreamVeraSans-Roman-44"/>
      <path d="
M9.42188 54.6875
L18.4062 54.6875
L18.4062 0
L9.42188 0
z

M9.42188 75.9844
L18.4062 75.9844
L18.4062 64.5938
L9.42188 64.5938
z
" id="BitstreamVeraSans-Roman-69"/>
      <path d="
M2.98438 54.6875
L12.5 54.6875
L29.5938 8.79688
L46.6875 54.6875
L56.2031 54.6875
L35.6875 0
L23.4844 0
z
" id="BitstreamVeraSans-Roman-76"/>
      <path d="
M64.4062 67.2812
L64.4062 56.8906
Q59.4219 61.5312 53.7812 63.8125
Q48.1406 66.1094 41.7969 66.1094
Q29.2969 66.1094 22.6562 58.4688
Q16.0156 50.8281 16.0156 36.375
Q16.0156 21.9688 22.6562 14.3281
Q29.2969 6.6875 41.7969 6.6875
Q48.1406 6.6875 53.7812 8.98438
Q59.4219 11.2812 64.4062 15.9219
L64.4062 5.60938
Q59.2344 2.09375 53.4375 0.328125
Q47.6562 -1.42188 41.2188 -1.42188
Q24.6562 -1.42188 15.125 8.70312
Q5.60938 18.8438 5.60938 36.375
Q5.60938 53.9531 15.125 64.0781
Q24.6562 74.2188 41.2188 74.2188
Q47.75 74.2188 53.5312 72.4844
Q59.3281 70.75 64.4062 67.2812" id="BitstreamVeraSans-Roman-43"/>
      <path d="
M8.5 21.5781
L8.5 54.6875
L17.4844 54.6875
L17.4844 21.9219
Q17.4844 14.1562 20.5 10.2656
Q23.5312 6.39062 29.5938 6.39062
Q36.8594 6.39062 41.0781 11.0312
Q45.3125 15.6719 45.3125 23.6875
L45.3125 54.6875
L54.2969 54.6875
L54.2969 0
L45.3125 0
L45.3125 8.40625
Q42.0469 3.42188 37.7188 1
Q33.4062 -1.42188 27.6875 -1.42188
Q18.2656 -1.42188 13.375 4.4375
Q8.5 10.2969 8.5 21.5781" id="BitstreamVeraSans-Roman-75"/>
      <path d="
M34.2812 27.4844
Q23.3906 27.4844 19.1875 25
Q14.9844 22.5156 14.9844 16.5
Q14.9844 11.7188 18.1406 8.90625
Q21.2969 6.10938 26.7031 6.10938
Q34.1875 6.10938 38.7031 11.4062
Q43.2188 16.7031 43.2188 25.4844
L43.2188 27.4844
z

M52.2031 31.2031
L52.2031 0
L43.2188 0
L43.2188 8.29688
Q40.1406 3.32812 35.5469 0.953125
Q30.9531 -1.42188 24.3125 -1.42188
Q15.9219 -1.42188 10.9531 3.29688
Q6 8.01562 6 15.9219
Q6 25.1406 12.1719 29.8281
Q18.3594 34.5156 30.6094 34.5156
L43.2188 34.5156
L43.2188 35.4062
Q43.2188 41.6094 39.1406 45
Q35.0625 48.3906 27.6875 48.3906
Q23 48.3906 18.5469 47.2656
Q14.1094 46.1406 10.0156 43.8906
L10.0156 52.2031
Q14.9375 54.1094 19.5781 55.0469
Q24.2188 56 28.6094 56
Q40.4844 56 46.3438 49.8438
Q52.2031 43.7031 52.2031 31.2031" id="BitstreamVeraSans-Roman-61"/>
      <path d="
M44.2812 53.0781
L44.2812 44.5781
Q40.4844 46.5312 36.375 47.5
Q32.2812 48.4844 27.875 48.4844
Q21.1875 48.4844 17.8438 46.4375
Q14.5 44.3906 14.5 40.2812
Q14.5 37.1562 16.8906 35.375
Q19.2812 33.5938 26.5156 31.9844
L29.5938 31.2969
Q39.1562 29.25 43.1875 25.5156
Q47.2188 21.7812 47.2188 15.0938
Q47.2188 7.46875 41.1875 3.01562
Q35.1562 -1.42188 24.6094 -1.42188
Q20.2188 -1.42188 15.4531 -0.5625
Q10.6875 0.296875 5.42188 2
L5.42188 11.2812
Q10.4062 8.6875 15.2344 7.39062
Q20.0625 6.10938 24.8125 6.10938
Q31.1562 6.10938 34.5625 8.28125
Q37.9844 10.4531 37.9844 14.4062
Q37.9844 18.0625 35.5156 20.0156
Q33.0625 21.9688 24.7031 23.7812
L21.5781 24.5156
Q13.2344 26.2656 9.51562 29.9062
Q5.8125 33.5469 5.8125 39.8906
Q5.8125 47.6094 11.2812 51.7969
Q16.75 56 26.8125 56
Q31.7812 56 36.1719 55.2656
Q40.5781 54.5469 44.2812 53.0781" id="BitstreamVeraSans-Roman-73"/>
      <path d="
M48.6875 27.2969
Q48.6875 37.2031 44.6094 42.8438
Q40.5312 48.4844 33.4062 48.4844
Q26.2656 48.4844 22.1875 42.8438
Q18.1094 37.2031 18.1094 27.2969
Q18.1094 17.3906 22.1875 11.75
Q26.2656 6.10938 33.4062 6.10938
Q40.5312 6.10938 44.6094 11.75
Q48.6875 17.3906 48.6875 27.2969
M18.1094 46.3906
Q20.9531 51.2656 25.2656 53.625
Q29.5938 56 35.5938 56
Q45.5625 56 51.7812 48.0938
Q58.0156 40.1875 58.0156 27.2969
Q58.0156 14.4062 51.7812 6.48438
Q45.5625 -1.42188 35.5938 -1.42188
Q29.5938 -1.42188 25.2656 0.953125
Q20.9531 3.32812 18.1094 8.20312
L18.1094 0
L9.07812 0
L9.07812 75.9844
L18.1094 75.9844
z
" id="BitstreamVeraSans-Roman-62"/>
     </defs>
     <g transform="translate(17.859375 155.62109375)rotate(-90.0)scale(0.1 -0.1)">
      <use xlink:href="#BitstreamVeraSans-Roman-43"/>
      <use x="69.82421875" xlink:href="#BitstreamVeraSans-Roman-75"/>
      <use x="133.203125" xlink:href="#BitstreamVeraSans-Roman-6d"/>
      <use x="230.615234375" xlink:href="#BitstreamVeraSans-Roman-75"/>
      <use x="293.994140625" xlink:href="#BitstreamVeraSans-Roman-6c"/>
      <use x="321.77734375" xlink:href="#BitstreamVeraSans-Roman-61"/>
      <use x="383.056640625" xlink:href="#BitstreamVeraSans-Roman-74"/>
      <use x="422.265625" xlink:href="#BitstreamVeraSans-Roman-69"/>
      <use x="450.048828125" xlink:href="#BitstreamVeraSans-Roman-76"/>
      <use x="509.228515625" xlink:href="#BitstreamVeraSans-Roman-65"/>
      <use x="570.751953125" xlink:href="#BitstreamVeraSans-Roman-20"/>
      <use x="602.5390625" xlink:href="#BitstreamVeraSans-Roman-44"/>
      <use x="679.541015625" xlink:href="#BitstreamVeraSans-Roman-69"/>
      <use x="707.32421875" xlink:href="#BitstreamVeraSans-Roman-73"/>
      <use x="759.423828125" xlink:href="#BitstreamVeraSans-Roman-74"/>
      <use x="798.6328125" xlink:href="#BitstreamVeraSans-Roman-72"/>
      <use x="839.74609375" xlink:href="#BitstreamVeraSans-Roman-69"/>
      <use x="867.529296875" xlink:href="#BitstreamVeraSans-Roman-62"/>
      <use x="931.005859375" xlink:href="#BitstreamVeraSans-Roman-75"/>
      <use x="994.384765625" xlink:href="#BitstreamVeraSans-Roman-74"/>
      <use x="1033.59375" xlink:href="#BitstreamVeraSans-Roman-69"/>
      <use x="1061.37695312" xlink:href="#BitstreamVeraSans-Roman-6f"/>
      <use x="1122.55859375" xlink:href="#BitstreamVeraSans-Roman-6e"/>
     </g>
    </g>
   </g>
  </g>
  <g id="axes_2">
   <g id="patch_7">
    <path d="
M257.391 178.2
L412.884 178.2
L412.884 15.3
L257.391 15.3
z
" style="fill:#ffffff;"/>
   </g>
   <g id="line2d_37">
    <path clip-path="url(#pc89c4ae0d0)" d="
M263.403 178.2
L277.973 178.167
L283.837 178.07
L287.649 177.842
L287.657 177.809
L289.249 177.679
L289.258 177.646
L290.033 177.516
L290.294 177.451
L291.074 177.32
L292.262 177.19
L293.033 177.027
L294.608 176.799
L294.695 176.701
L295.535 176.441
L295.906 176.31
L296.053 176.213
L296.08 176.18
L296.547 176.05
L296.959 175.756
L298.187 175.398
L298.263 175.3
L299.074 174.975
L299.281 174.844
L299.816 174.518
L299.913 174.388
L300.285 174.16
L300.475 173.965
L301.769 173.28
L302.019 173.052
L302.344 172.694
L302.459 172.433
L303.558 171.782
L304.106 171.195
L304.256 171.065
L304.495 170.804
L304.824 170.576
L305.23 170.381
L305.312 170.283
L305.53 170.12
L306.546 169.208
L306.729 169.045
L306.898 168.817
L307.102 168.621
L307.258 168.491
L307.35 168.328
L307.76 167.872
L308.119 167.253
L308.885 166.797
L309.478 166.113
L309.601 165.95
L309.852 165.624
L310.055 165.331
L310.118 165.201
L310.37 165.038
L310.69 164.582
L310.883 164.353
L310.995 164.125
L311.537 163.409
L312.491 161.747
L312.635 161.454
L312.729 161.258
L312.848 160.835
L313.224 160.183
L313.336 159.955
L313.564 159.629
L313.755 159.336
L314.084 158.587
L314.186 158.457
L314.535 157.87
L315.433 155.915
L315.538 155.687
L315.635 155.459
L315.887 154.873
L316.002 154.645
L316.138 154.351
L316.312 153.928
L316.39 153.732
L317.089 152.103
L317.229 151.778
L317.376 151.484
L317.448 151.191
L317.567 150.963
L317.791 150.507
L317.927 150.344
L318.061 149.79
L318.233 149.53
L318.386 149.073
L318.482 148.878
L318.763 147.803
L318.906 147.607
L319.596 145.327
L319.663 145.131
L319.796 144.74
L319.997 144.317
L320.158 143.893
L320.281 143.47
L320.383 143.274
L320.556 142.981
L321.61 140.342
L322.049 138.974
L322.187 138.583
L322.347 138.061
L324.388 131.448
L324.526 131.024
L325.33 128.027
L325.55 127.245
L326.111 125.095
L326.231 124.932
L327.121 121.706
L327.237 121.25
L327.417 120.729
L327.481 120.468
L327.749 119.426
L329.43 114.05
L329.517 113.757
L329.708 113.138
L329.769 112.877
L329.963 112.193
L330.101 111.769
L330.232 111.183
L330.707 109.163
L330.794 109
L331.138 108.023
L331.268 107.86
L331.39 107.338
L332.665 102.126
L332.811 101.572
L332.962 100.79
L333.04 100.562
L333.271 99.7148
L333.425 98.9003
L333.595 98.1835
L333.822 97.3039
L333.965 96.9455
L334.071 96.7174
L334.39 95.4468
L334.442 95.2187
L334.865 93.6549
L334.943 93.2639
L335.525 90.6901
L335.682 90.1037
L335.923 89.6801
L336.015 89.224
L336.161 88.4747
L336.242 88.2792
L336.349 87.8557
L336.403 87.6276
L336.537 86.8457
L336.608 86.6828
L336.743 86.1289
L336.81 85.8031
L337.295 83.9135
L337.384 83.6854
L337.799 82.0564
L337.898 81.7632
L338.259 80.46
L338.407 79.9713
L338.552 79.45
L338.658 79.1242
L339.74 75.0517
L339.816 74.7911
L339.941 74.4653
L340.481 72.6734
L340.659 72.1847
L340.817 71.5005
L340.896 71.2724
L341.062 70.4254
L341.55 68.2751
L341.651 68.047
L341.793 67.428
L341.879 66.809
L342.02 66.2551
L342.203 65.8316
L344.651 58.0775
L345.093 56.7092
L345.23 56.0576
L345.6 55.015
L345.662 54.8195
L345.767 54.4286
L346.257 53.158
L346.564 52.376
L349.961 43.2536
L350.105 43.0907
L351.008 40.6798
L351.114 40.5169
L351.525 39.8653
L351.649 39.6373
L351.785 39.2789
L352.042 39.0508
L352.168 38.8553
L352.312 38.5947
L352.637 37.8779
L352.734 37.6499
L353.689 35.5322
L353.85 35.1086
L354.127 34.7177
L354.624 34.1964
L354.786 33.9032
L354.937 33.5122
L355.032 33.3167
L355.22 33.1213
L355.306 32.8932
L355.726 32.3393
L355.859 32.1439
L356.085 31.9158
L356.202 31.59
L356.397 31.4271
L356.571 31.2316
L357.138 30.58
L358.034 29.3094
L358.191 29.0813
L358.38 28.8207
L358.472 28.6578
L358.679 28.4949
L359.397 27.4849
L359.726 27.2894
L359.782 27.1917
L359.937 26.9962
L360.098 26.6704
L360.276 26.5075
L360.869 25.8233
L361.097 25.5627
L361.213 25.465
L361.691 25.1066
L361.855 24.8785
L363.864 22.7608
L363.992 22.4676
L364.202 22.1744
L366.224 20.6105
L366.423 20.4802
L366.689 20.3173
L366.79 20.2196
L367.182 20.0241
L367.301 19.9264
L367.72 19.6983
L367.996 19.5354
L368.384 19.3399
L368.986 18.9815
L369.376 18.8186
L369.571 18.6883
L370.666 18.1996
L370.92 18.0367
L371.332 17.8738
L372.6 17.6783
L373.121 17.3851
L373.701 17.2222
L377.109 16.4403
L378.636 16.2448
L379.919 16.0819
L382.636 15.919
L383.645 15.8539
L386.229 15.6584
L386.433 15.5932
L398.125 15.3977
L403.115 15.3326
L403.115 15.3326" style="fill:none;stroke:#ff0000;stroke-linecap:square;"/>
   </g>
   <g id="line2d_38">
    <path clip-path="url(#pc89c4ae0d0)" d="
M300.3 178.2
L300.3 15.3" style="fill:none;stroke:#ff0000;stroke-linecap:square;"/>
   </g>
   <g id="line2d_39">
    <path clip-path="url(#pc89c4ae0d0)" d="
M368.315 178.2
L368.315 15.3" style="fill:none;stroke:#ff0000;stroke-linecap:square;"/>
   </g>
   <g id="line2d_40">
    <path clip-path="url(#pc89c4ae0d0)" d="
M274.649 178.2
L281.281 178.167
L284.78 178.07
L285.244 177.972
L289.297 177.776
L289.35 177.711
L290.822 177.451
L292.92 176.995
L294.046 176.832
L294.174 176.766
L297.529 175.952
L297.692 175.854
L298.383 175.691
L298.942 175.463
L298.988 175.398
L300.609 174.942
L300.62 174.909
L301.254 174.681
L301.254 174.649
L302.128 174.421
L302.331 174.258
L302.618 173.965
L302.957 173.769
L303.607 173.476
L304.017 173.15
L304.919 172.238
L306.417 170.935
L306.541 170.707
L306.745 170.446
L307.725 169.501
L307.908 169.273
L308.005 169.175
L308.07 168.98
L308.313 168.654
L308.916 167.872
L309.086 167.677
L309.708 166.83
L309.809 166.634
L309.976 166.373
L310.144 166.08
L310.362 165.787
L310.608 165.592
L310.914 165.266
L311.316 164.549
L311.609 164.288
L311.727 164.028
L311.847 163.832
L312.186 162.985
L312.266 162.79
L312.558 162.203
L312.655 161.91
L312.904 161.291
L313.072 161.095
L313.382 160.476
L313.586 160.248
L313.786 159.499
L314 159.271
L314.094 159.108
L314.255 158.88
L314.378 158.522
L316.075 154.71
L316.199 154.286
L316.4 154.026
L316.556 153.732
L316.612 153.537
L316.846 153.016
L316.961 152.82
L317.177 152.103
L317.793 150.474
L318.11 149.692
L318.209 149.399
L318.444 148.878
L318.569 148.65
L318.773 148.129
L319.919 144.805
L320.004 144.545
L320.111 144.219
L320.195 143.926
L320.335 143.567
L320.418 143.437
L320.55 143.274
L320.658 142.948
L320.871 142.264
L320.952 142.069
L321.024 141.776
L321.119 141.613
L321.314 141.189
L321.533 140.375
L322.642 136.595
L322.809 135.911
L322.886 135.683
L323.015 135.064
L323.121 134.803
L323.263 134.217
L323.688 132.653
L323.825 131.806
L323.9 131.611
L324.036 130.829
L324.181 130.535
L325.144 127.831
L325.225 127.538
L325.368 126.919
L325.612 126.039
L326.33 123.596
L326.422 123.368
L326.525 122.879
L326.621 122.521
L327.026 121.283
L327.128 120.924
L327.192 120.696
L327.356 119.784
L327.513 119.23
L327.615 118.937
L327.68 118.741
L328.973 113.854
L329.086 113.366
L329.339 112.747
L329.476 112.095
L329.607 111.476
L330.047 109.912
L330.11 109.652
L330.408 108.511
L330.567 108.218
L330.857 107.273
L331.025 106.622
L331.524 104.667
L331.586 104.471
L331.725 103.95
L331.798 103.592
L331.937 102.842
L332.271 101.507
L332.431 100.822
L332.582 100.399
L332.835 99.2912
L332.938 98.6396
L333.133 97.8251
L333.262 97.3364
L333.389 97.0758
L333.492 96.8152
L334.428 93.2639
L334.515 92.9381
L335.173 90.7879
L335.333 90.1037
L337.018 83.6528
L337.207 83.2619
L337.384 82.5125
L337.57 81.9587
L337.699 81.2745
L339.465 74.4979
L339.565 74.1395
L339.751 73.6834
L340.267 71.8263
L340.379 71.5657
L340.957 69.676
L341.082 68.9918
L341.489 67.5583
L341.599 67.2977
L341.738 66.9393
L341.853 66.4506
L342.213 65.0497
L342.508 64.561
L342.625 64.0723
L342.82 63.7465
L342.925 63.3881
L344.116 59.8043
L344.237 59.5436
L344.371 59.1853
L344.685 58.1101
L344.798 57.8169
L345.098 56.9047
L345.185 56.5463
L345.32 56.025
L345.524 55.3408
L345.641 54.9173
L345.892 54.1679
L345.973 53.8421
L346.062 53.7118
L346.159 53.4512
L346.308 53.0928
L346.443 52.7996
L346.575 52.5715
L346.783 52.148
L347.007 51.2357
L347.944 48.7922
L348.186 48.0755
L348.614 47.0981
L348.746 46.7071
L348.913 46.4139
L349.296 45.0781
L349.396 44.8175
L350.204 42.5695
L350.333 42.1785
L350.434 41.983
L350.703 41.5921
L350.861 41.2011
L351.014 40.8101
L351.188 40.4843
L351.264 40.2889
L351.724 39.1811
L351.945 38.7576
L352.108 38.5295
L352.3 38.1386
L352.433 37.9431
L353.038 36.477
L353.174 36.1512
L353.402 35.8906
L355.433 32.6326
L355.601 32.4697
L355.666 32.3393
L355.811 32.1764
L356.357 31.2968
L356.616 30.5474
L356.727 30.3194
L356.865 30.0587
L357.434 29.0813
L357.639 28.8533
L357.788 28.6252
L357.964 28.332
L358.09 28.2343
L358.401 27.5501
L358.591 27.3546
L358.95 27.0288
L359.144 26.6704
L359.452 26.312
L359.616 26.084
L359.836 25.8885
L360.293 25.3346
L360.429 25.074
L360.581 24.8785
L360.677 24.6505
L360.911 24.455
L361.015 24.2921
L361.339 23.8685
L361.616 23.7056
L361.744 23.5102
L362.074 23.2821
L362.166 23.1518
L362.441 22.8586
L362.555 22.6957
L362.967 22.435
L363.304 22.1092
L363.362 21.9789
L363.741 21.8486
L364.846 20.7734
L365.538 20.5454
L365.689 20.3499
L366.014 20.1218
L366.216 19.9264
L366.226 19.8938
L366.831 19.7309
L367.815 19.3399
L367.955 19.2096
L368.064 19.1119
L368.625 18.8838
L369.003 18.6883
L370.069 18.4928
L370.222 18.3951
L370.794 18.0367
L371.804 17.8087
L372.189 17.6783
L372.701 17.548
L372.725 17.5154
L373.308 17.3525
L373.526 17.2548
L374.5 17.0919
L376.578 16.6032
L378.532 16.4077
L378.643 16.3751
L379.984 16.2122
L380.047 16.1797
L391.535 15.3977
L395.967 15.3326
L395.967 15.3326" style="fill:none;stroke:#0000ff;stroke-linecap:square;"/>
   </g>
   <g id="line2d_41">
    <path clip-path="url(#pc89c4ae0d0)" d="
M302.419 178.2
L302.419 15.3" style="fill:none;stroke:#0000ff;stroke-dasharray:6.000000,6.000000;stroke-dashoffset:0.0;"/>
   </g>
   <g id="line2d_42">
    <path clip-path="url(#pc89c4ae0d0)" d="
M367.793 178.2
L367.793 15.3" style="fill:none;stroke:#0000ff;stroke-dasharray:6.000000,6.000000;stroke-dashoffset:0.0;"/>
   </g>
   <g id="patch_8">
    <path d="
M257.391 15.3
L412.884 15.3" style="fill:none;stroke:#000000;stroke-linecap:square;stroke-linejoin:miter;"/>
   </g>
   <g id="patch_9">
    <path d="
M412.884 178.2
L412.884 15.3" style="fill:none;stroke:#000000;stroke-linecap:square;stroke-linejoin:miter;"/>
   </g>
   <g id="patch_10">
    <path d="
M257.391 178.2
L412.884 178.2" style="fill:none;stroke:#000000;stroke-linecap:square;stroke-linejoin:miter;"/>
   </g>
   <g id="patch_11">
    <path d="
M257.391 178.2
L257.391 15.3" style="fill:none;stroke:#000000;stroke-linecap:square;stroke-linejoin:miter;"/>
   </g>
   <g id="matplotlib.axis_3">
    <g id="xtick_10">
     <g id="line2d_43">
      <g>
       <use style="stroke:#000000;stroke-width:0.5;" x="257.390625" xlink:href="#m93b0483c22" y="178.2"/>
      </g>
     </g>
     <g id="line2d_44">
      <g>
       <use style="stroke:#000000;stroke-width:0.5;" x="257.390625" xlink:href="#m741efc42ff" y="15.3"/>
      </g>
     </g>
     <g id="text_18">
      <!-- −0.32 -->
      <defs>
       <path d="
M40.5781 39.3125
Q47.6562 37.7969 51.625 33
Q55.6094 28.2188 55.6094 21.1875
Q55.6094 10.4062 48.1875 4.48438
Q40.7656 -1.42188 27.0938 -1.42188
Q22.5156 -1.42188 17.6562 -0.515625
Q12.7969 0.390625 7.625 2.20312
L7.625 11.7188
Q11.7188 9.32812 16.5938 8.10938
Q21.4844 6.89062 26.8125 6.89062
Q36.0781 6.89062 40.9375 10.5469
Q45.7969 14.2031 45.7969 21.1875
Q45.7969 27.6406 41.2812 31.2656
Q36.7656 34.9062 28.7188 34.9062
L20.2188 34.9062
L20.2188 43.0156
L29.1094 43.0156
Q36.375 43.0156 40.2344 45.9219
Q44.0938 48.8281 44.0938 54.2969
Q44.0938 59.9062 40.1094 62.9062
Q36.1406 65.9219 28.7188 65.9219
Q24.6562 65.9219 20.0156 65.0312
Q15.375 64.1562 9.8125 62.3125
L9.8125 71.0938
Q15.4375 72.6562 20.3438 73.4375
Q25.25 74.2188 29.5938 74.2188
Q40.8281 74.2188 47.3594 69.1094
Q53.9062 64.0156 53.9062 55.3281
Q53.9062 49.2656 50.4375 45.0938
Q46.9688 40.9219 40.5781 39.3125" id="BitstreamVeraSans-Roman-33"/>
      </defs>
      <g transform="translate(243.0984375 189.7984375)scale(0.1 -0.1)">
       <use xlink:href="#BitstreamVeraSans-Roman-2212"/>
       <use x="83.7890625" xlink:href="#BitstreamVeraSans-Roman-30"/>
       <use x="147.412109375" xlink:href="#BitstreamVeraSans-Roman-2e"/>
       <use x="179.19921875" xlink:href="#BitstreamVeraSans-Roman-33"/>
       <use x="242.822265625" xlink:href="#BitstreamVeraSans-Roman-32"/>
      </g>
     </g>
    </g>
    <g id="xtick_11">
     <g id="line2d_45">
      <g>
       <use style="stroke:#000000;stroke-width:0.5;" x="274.667708333" xlink:href="#m93b0483c22" y="178.2"/>
      </g>
     </g>
     <g id="line2d_46">
      <g>
       <use style="stroke:#000000;stroke-width:0.5;" x="274.667708333" xlink:href="#m741efc42ff" y="15.3"/>
      </g>
     </g>
     <g id="text_19">
      <!-- −0.30 -->
      <g transform="translate(260.206770833 189.7984375)scale(0.1 -0.1)">
       <use xlink:href="#BitstreamVeraSans-Roman-2212"/>
       <use x="83.7890625" xlink:href="#BitstreamVeraSans-Roman-30"/>
       <use x="147.412109375" xlink:href="#BitstreamVeraSans-Roman-2e"/>
       <use x="179.19921875" xlink:href="#BitstreamVeraSans-Roman-33"/>
       <use x="242.822265625" xlink:href="#BitstreamVeraSans-Roman-30"/>
      </g>
     </g>
    </g>
    <g id="xtick_12">
     <g id="line2d_47">
      <g>
       <use style="stroke:#000000;stroke-width:0.5;" x="291.944791667" xlink:href="#m93b0483c22" y="178.2"/>
      </g>
     </g>
     <g id="line2d_48">
      <g>
       <use style="stroke:#000000;stroke-width:0.5;" x="291.944791667" xlink:href="#m741efc42ff" y="15.3"/>
      </g>
     </g>
     <g id="text_20">
      <!-- −0.28 -->
      <g transform="translate(277.494010417 189.7984375)scale(0.1 -0.1)">
       <use xlink:href="#BitstreamVeraSans-Roman-2212"/>
       <use x="83.7890625" xlink:href="#BitstreamVeraSans-Roman-30"/>
       <use x="147.412109375" xlink:href="#BitstreamVeraSans-Roman-2e"/>
       <use x="179.19921875" xlink:href="#BitstreamVeraSans-Roman-32"/>
       <use x="242.822265625" xlink:href="#BitstreamVeraSans-Roman-38"/>
      </g>
     </g>
    </g>
    <g id="xtick_13">
     <g id="line2d_49">
      <g>
       <use style="stroke:#000000;stroke-width:0.5;" x="309.221875" xlink:href="#m93b0483c22" y="178.2"/>
      </g>
     </g>
     <g id="line2d_50">
      <g>
       <use style="stroke:#000000;stroke-width:0.5;" x="309.221875" xlink:href="#m741efc42ff" y="15.3"/>
      </g>
     </g>
     <g id="text_21">
      <!-- −0.26 -->
      <g transform="translate(294.74375 189.7984375)scale(0.1 -0.1)">
       <use xlink:href="#BitstreamVeraSans-Roman-2212"/>
       <use x="83.7890625" xlink:href="#BitstreamVeraSans-Roman-30"/>
       <use x="147.412109375" xlink:href="#BitstreamVeraSans-Roman-2e"/>
       <use x="179.19921875" xlink:href="#BitstreamVeraSans-Roman-32"/>
       <use x="242.822265625" xlink:href="#BitstreamVeraSans-Roman-36"/>
      </g>
     </g>
    </g>
    <g id="xtick_14">
     <g id="line2d_51">
      <g>
       <use style="stroke:#000000;stroke-width:0.5;" x="326.498958333" xlink:href="#m93b0483c22" y="178.2"/>
      </g>
     </g>
     <g id="line2d_52">
      <g>
       <use style="stroke:#000000;stroke-width:0.5;" x="326.498958333" xlink:href="#m741efc42ff" y="15.3"/>
      </g>
     </g>
     <g id="text_22">
      <!-- −0.24 -->
      <g transform="translate(311.986458333 189.7984375)scale(0.1 -0.1)">
       <use xlink:href="#BitstreamVeraSans-Roman-2212"/>
       <use x="83.7890625" xlink:href="#BitstreamVeraSans-Roman-30"/>
       <use x="147.412109375" xlink:href="#BitstreamVeraSans-Roman-2e"/>
       <use x="179.19921875" xlink:href="#BitstreamVeraSans-Roman-32"/>
       <use x="242.822265625" xlink:href="#BitstreamVeraSans-Roman-34"/>
      </g>
     </g>
    </g>
    <g id="xtick_15">
     <g id="line2d_53">
      <g>
       <use style="stroke:#000000;stroke-width:0.5;" x="343.776041667" xlink:href="#m93b0483c22" y="178.2"/>
      </g>
     </g>
     <g id="line2d_54">
      <g>
       <use style="stroke:#000000;stroke-width:0.5;" x="343.776041667" xlink:href="#m741efc42ff" y="15.3"/>
      </g>
     </g>
     <g id="text_23">
      <!-- −0.22 -->
      <g transform="translate(329.483854167 189.7984375)scale(0.1 -0.1)">
       <use xlink:href="#BitstreamVeraSans-Roman-2212"/>
       <use x="83.7890625" xlink:href="#BitstreamVeraSans-Roman-30"/>
       <use x="147.412109375" xlink:href="#BitstreamVeraSans-Roman-2e"/>
       <use x="179.19921875" xlink:href="#BitstreamVeraSans-Roman-32"/>
       <use x="242.822265625" xlink:href="#BitstreamVeraSans-Roman-32"/>
      </g>
     </g>
    </g>
    <g id="xtick_16">
     <g id="line2d_55">
      <g>
       <use style="stroke:#000000;stroke-width:0.5;" x="361.053125" xlink:href="#m93b0483c22" y="178.2"/>
      </g>
     </g>
     <g id="line2d_56">
      <g>
       <use style="stroke:#000000;stroke-width:0.5;" x="361.053125" xlink:href="#m741efc42ff" y="15.3"/>
      </g>
     </g>
     <g id="text_24">
      <!-- −0.20 -->
      <g transform="translate(346.5921875 189.7984375)scale(0.1 -0.1)">
       <use xlink:href="#BitstreamVeraSans-Roman-2212"/>
       <use x="83.7890625" xlink:href="#BitstreamVeraSans-Roman-30"/>
       <use x="147.412109375" xlink:href="#BitstreamVeraSans-Roman-2e"/>
       <use x="179.19921875" xlink:href="#BitstreamVeraSans-Roman-32"/>
       <use x="242.822265625" xlink:href="#BitstreamVeraSans-Roman-30"/>
      </g>
     </g>
    </g>
    <g id="xtick_17">
     <g id="line2d_57">
      <g>
       <use style="stroke:#000000;stroke-width:0.5;" x="378.330208333" xlink:href="#m93b0483c22" y="178.2"/>
      </g>
     </g>
     <g id="line2d_58">
      <g>
       <use style="stroke:#000000;stroke-width:0.5;" x="378.330208333" xlink:href="#m741efc42ff" y="15.3"/>
      </g>
     </g>
     <g id="text_25">
      <!-- −0.18 -->
      <g transform="translate(363.879427083 189.7984375)scale(0.1 -0.1)">
       <use xlink:href="#BitstreamVeraSans-Roman-2212"/>
       <use x="83.7890625" xlink:href="#BitstreamVeraSans-Roman-30"/>
       <use x="147.412109375" xlink:href="#BitstreamVeraSans-Roman-2e"/>
       <use x="179.19921875" xlink:href="#BitstreamVeraSans-Roman-31"/>
       <use x="242.822265625" xlink:href="#BitstreamVeraSans-Roman-38"/>
      </g>
     </g>
    </g>
    <g id="xtick_18">
     <g id="line2d_59">
      <g>
       <use style="stroke:#000000;stroke-width:0.5;" x="395.607291667" xlink:href="#m93b0483c22" y="178.2"/>
      </g>
     </g>
     <g id="line2d_60">
      <g>
       <use style="stroke:#000000;stroke-width:0.5;" x="395.607291667" xlink:href="#m741efc42ff" y="15.3"/>
      </g>
     </g>
     <g id="text_26">
      <!-- −0.16 -->
      <g transform="translate(381.129166667 189.7984375)scale(0.1 -0.1)">
       <use xlink:href="#BitstreamVeraSans-Roman-2212"/>
       <use x="83.7890625" xlink:href="#BitstreamVeraSans-Roman-30"/>
       <use x="147.412109375" xlink:href="#BitstreamVeraSans-Roman-2e"/>
       <use x="179.19921875" xlink:href="#BitstreamVeraSans-Roman-31"/>
       <use x="242.822265625" xlink:href="#BitstreamVeraSans-Roman-36"/>
      </g>
     </g>
    </g>
    <g id="xtick_19">
     <g id="line2d_61">
      <g>
       <use style="stroke:#000000;stroke-width:0.5;" x="412.884375" xlink:href="#m93b0483c22" y="178.2"/>
      </g>
     </g>
     <g id="line2d_62">
      <g>
       <use style="stroke:#000000;stroke-width:0.5;" x="412.884375" xlink:href="#m741efc42ff" y="15.3"/>
      </g>
     </g>
     <g id="text_27">
      <!-- −0.14 -->
      <g transform="translate(398.371875 189.7984375)scale(0.1 -0.1)">
       <use xlink:href="#BitstreamVeraSans-Roman-2212"/>
       <use x="83.7890625" xlink:href="#BitstreamVeraSans-Roman-30"/>
       <use x="147.412109375" xlink:href="#BitstreamVeraSans-Roman-2e"/>
       <use x="179.19921875" xlink:href="#BitstreamVeraSans-Roman-31"/>
       <use x="242.822265625" xlink:href="#BitstreamVeraSans-Roman-34"/>
      </g>
     </g>
    </g>
    <g id="text_28">
     <!-- Y component -->
     <defs>
      <path d="
M-0.203125 72.9062
L10.4062 72.9062
L30.6094 42.9219
L50.6875 72.9062
L61.2812 72.9062
L35.5 34.7188
L35.5 0
L25.5938 0
L25.5938 34.7188
z
" id="BitstreamVeraSans-Roman-59"/>
     </defs>
     <g transform="translate(302.3171875 204.4765625)scale(0.1 -0.1)">
      <use xlink:href="#BitstreamVeraSans-Roman-59"/>
      <use x="61.083984375" xlink:href="#BitstreamVeraSans-Roman-20"/>
      <use x="92.87109375" xlink:href="#BitstreamVeraSans-Roman-63"/>
      <use x="147.8515625" xlink:href="#BitstreamVeraSans-Roman-6f"/>
      <use x="209.033203125" xlink:href="#BitstreamVeraSans-Roman-6d"/>
      <use x="306.4453125" xlink:href="#BitstreamVeraSans-Roman-70"/>
      <use x="369.921875" xlink:href="#BitstreamVeraSans-Roman-6f"/>
      <use x="431.103515625" xlink:href="#BitstreamVeraSans-Roman-6e"/>
      <use x="494.482421875" xlink:href="#BitstreamVeraSans-Roman-65"/>
      <use x="556.005859375" xlink:href="#BitstreamVeraSans-Roman-6e"/>
      <use x="619.384765625" xlink:href="#BitstreamVeraSans-Roman-74"/>
     </g>
    </g>
   </g>
   <g id="matplotlib.axis_4">
    <g id="ytick_7">
     <g id="line2d_63">
      <g>
       <use style="stroke:#000000;stroke-width:0.5;" x="257.390625" xlink:href="#m728421d6d4" y="178.2"/>
      </g>
     </g>
     <g id="line2d_64">
      <g>
       <use style="stroke:#000000;stroke-width:0.5;" x="412.884375" xlink:href="#mcb0005524f" y="178.2"/>
      </g>
     </g>
     <g id="text_29">
      <!-- 0.0 -->
      <g transform="translate(238.8109375 180.959375)scale(0.1 -0.1)">
       <use xlink:href="#BitstreamVeraSans-Roman-30"/>
       <use x="63.623046875" xlink:href="#BitstreamVeraSans-Roman-2e"/>
       <use x="95.41015625" xlink:href="#BitstreamVeraSans-Roman-30"/>
      </g>
     </g>
    </g>
    <g id="ytick_8">
     <g id="line2d_65">
      <g>
       <use style="stroke:#000000;stroke-width:0.5;" x="257.390625" xlink:href="#m728421d6d4" y="145.62"/>
      </g>
     </g>
     <g id="line2d_66">
      <g>
       <use style="stroke:#000000;stroke-width:0.5;" x="412.884375" xlink:href="#mcb0005524f" y="145.62"/>
      </g>
     </g>
     <g id="text_30">
      <!-- 0.2 -->
      <g transform="translate(239.1484375 148.379375)scale(0.1 -0.1)">
       <use xlink:href="#BitstreamVeraSans-Roman-30"/>
       <use x="63.623046875" xlink:href="#BitstreamVeraSans-Roman-2e"/>
       <use x="95.41015625" xlink:href="#BitstreamVeraSans-Roman-32"/>
      </g>
     </g>
    </g>
    <g id="ytick_9">
     <g id="line2d_67">
      <g>
       <use style="stroke:#000000;stroke-width:0.5;" x="257.390625" xlink:href="#m728421d6d4" y="113.04"/>
      </g>
     </g>
     <g id="line2d_68">
      <g>
       <use style="stroke:#000000;stroke-width:0.5;" x="412.884375" xlink:href="#mcb0005524f" y="113.04"/>
      </g>
     </g>
     <g id="text_31">
      <!-- 0.4 -->
      <g transform="translate(238.7078125 115.799375)scale(0.1 -0.1)">
       <use xlink:href="#BitstreamVeraSans-Roman-30"/>
       <use x="63.623046875" xlink:href="#BitstreamVeraSans-Roman-2e"/>
       <use x="95.41015625" xlink:href="#BitstreamVeraSans-Roman-34"/>
      </g>
     </g>
    </g>
    <g id="ytick_10">
     <g id="line2d_69">
      <g>
       <use style="stroke:#000000;stroke-width:0.5;" x="257.390625" xlink:href="#m728421d6d4" y="80.46"/>
      </g>
     </g>
     <g id="line2d_70">
      <g>
       <use style="stroke:#000000;stroke-width:0.5;" x="412.884375" xlink:href="#mcb0005524f" y="80.46"/>
      </g>
     </g>
     <g id="text_32">
      <!-- 0.6 -->
      <g transform="translate(238.7765625 83.219375)scale(0.1 -0.1)">
       <use xlink:href="#BitstreamVeraSans-Roman-30"/>
       <use x="63.623046875" xlink:href="#BitstreamVeraSans-Roman-2e"/>
       <use x="95.41015625" xlink:href="#BitstreamVeraSans-Roman-36"/>
      </g>
     </g>
    </g>
    <g id="ytick_11">
     <g id="line2d_71">
      <g>
       <use style="stroke:#000000;stroke-width:0.5;" x="257.390625" xlink:href="#m728421d6d4" y="47.88"/>
      </g>
     </g>
     <g id="line2d_72">
      <g>
       <use style="stroke:#000000;stroke-width:0.5;" x="412.884375" xlink:href="#mcb0005524f" y="47.88"/>
      </g>
     </g>
     <g id="text_33">
      <!-- 0.8 -->
      <g transform="translate(238.83125 50.639375)scale(0.1 -0.1)">
       <use xlink:href="#BitstreamVeraSans-Roman-30"/>
       <use x="63.623046875" xlink:href="#BitstreamVeraSans-Roman-2e"/>
       <use x="95.41015625" xlink:href="#BitstreamVeraSans-Roman-38"/>
      </g>
     </g>
    </g>
    <g id="ytick_12">
     <g id="line2d_73">
      <g>
       <use style="stroke:#000000;stroke-width:0.5;" x="257.390625" xlink:href="#m728421d6d4" y="15.3"/>
      </g>
     </g>
     <g id="line2d_74">
      <g>
       <use style="stroke:#000000;stroke-width:0.5;" x="412.884375" xlink:href="#mcb0005524f" y="15.3"/>
      </g>
     </g>
     <g id="text_34">
      <!-- 1.0 -->
      <g transform="translate(239.25 18.059375)scale(0.1 -0.1)">
       <use xlink:href="#BitstreamVeraSans-Roman-31"/>
       <use x="63.623046875" xlink:href="#BitstreamVeraSans-Roman-2e"/>
       <use x="95.41015625" xlink:href="#BitstreamVeraSans-Roman-30"/>
      </g>
     </g>
    </g>
    <g id="text_35">
     <!-- Cumulative Distribution -->
     <g transform="translate(231.628125 155.62109375)rotate(-90.0)scale(0.1 -0.1)">
      <use xlink:href="#BitstreamVeraSans-Roman-43"/>
      <use x="69.82421875" xlink:href="#BitstreamVeraSans-Roman-75"/>
      <use x="133.203125" xlink:href="#BitstreamVeraSans-Roman-6d"/>
      <use x="230.615234375" xlink:href="#BitstreamVeraSans-Roman-75"/>
      <use x="293.994140625" xlink:href="#BitstreamVeraSans-Roman-6c"/>
      <use x="321.77734375" xlink:href="#BitstreamVeraSans-Roman-61"/>
      <use x="383.056640625" xlink:href="#BitstreamVeraSans-Roman-74"/>
      <use x="422.265625" xlink:href="#BitstreamVeraSans-Roman-69"/>
      <use x="450.048828125" xlink:href="#BitstreamVeraSans-Roman-76"/>
      <use x="509.228515625" xlink:href="#BitstreamVeraSans-Roman-65"/>
      <use x="570.751953125" xlink:href="#BitstreamVeraSans-Roman-20"/>
      <use x="602.5390625" xlink:href="#BitstreamVeraSans-Roman-44"/>
      <use x="679.541015625" xlink:href="#BitstreamVeraSans-Roman-69"/>
      <use x="707.32421875" xlink:href="#BitstreamVeraSans-Roman-73"/>
      <use x="759.423828125" xlink:href="#BitstreamVeraSans-Roman-74"/>
      <use x="798.6328125" xlink:href="#BitstreamVeraSans-Roman-72"/>
      <use x="839.74609375" xlink:href="#BitstreamVeraSans-Roman-69"/>
      <use x="867.529296875" xlink:href="#BitstreamVeraSans-Roman-62"/>
      <use x="931.005859375" xlink:href="#BitstreamVeraSans-Roman-75"/>
      <use x="994.384765625" xlink:href="#BitstreamVeraSans-Roman-74"/>
      <use x="1033.59375" xlink:href="#BitstreamVeraSans-Roman-69"/>
      <use x="1061.37695312" xlink:href="#BitstreamVeraSans-Roman-6f"/>
      <use x="1122.55859375" xlink:href="#BitstreamVeraSans-Roman-6e"/>
     </g>
    </g>
   </g>
  </g>
  <g id="axes_3">
   <g id="patch_12">
    <path d="
M471.159 178.2
L626.653 178.2
L626.653 15.3
L471.159 15.3
z
" style="fill:#ffffff;"/>
   </g>
   <g id="line2d_75">
    <path clip-path="url(#p488a265953)" d="
M481.056 178.2
L505.161 178.167
L508.477 178.07
L516.487 177.418
L516.99 177.32
L519.585 176.962
L519.607 176.929
L521.231 176.669
L521.478 176.571
L522.498 176.376
L522.635 176.245
L523.234 176.082
L523.403 175.985
L524.45 175.691
L525.081 175.431
L525.805 175.105
L526.125 174.909
L526.334 174.714
L526.907 174.356
L527.184 174.16
L527.696 173.899
L527.796 173.834
L528.05 173.671
L528.142 173.574
L529.308 172.727
L529.371 172.596
L530.309 172.238
L530.431 172.108
L530.655 171.847
L531.766 171.065
L531.923 170.837
L532.133 170.641
L532.377 170.348
L532.804 170.12
L532.809 170.055
L533.039 169.892
L534.33 168.817
L534.438 168.621
L535.195 167.872
L535.274 167.742
L535.405 167.546
L535.535 167.449
L535.711 167.155
L535.935 166.862
L536.105 166.667
L536.297 166.406
L536.755 166.015
L536.854 165.917
L538.164 164.028
L538.312 163.865
L538.667 163.115
L538.932 162.92
L539.053 162.724
L539.159 162.529
L539.423 162.203
L539.55 161.845
L539.917 161.258
L540.185 160.802
L540.722 160.02
L540.842 159.857
L541.053 159.695
L541.168 159.401
L541.387 158.913
L541.611 158.685
L541.698 158.391
L541.915 158.196
L542.05 157.903
L542.206 157.609
L542.533 157.316
L542.765 156.665
L542.938 156.306
L543.281 155.459
L543.404 155.199
L544.144 153.407
L544.294 153.244
L544.432 153.016
L544.775 152.494
L544.939 152.169
L545.028 151.973
L545.182 151.484
L545.314 151.191
L545.778 150.344
L545.904 150.051
L549.512 139.788
L549.649 139.332
L549.813 138.843
L550.047 138.257
L550.173 137.996
L550.341 137.573
L550.46 137.41
L550.58 137.149
L550.827 136.27
L550.921 136.074
L551.088 135.618
L551.203 135.39
L551.594 134.184
L551.733 133.793
L551.833 133.533
L551.96 133.142
L552.592 131.089
L552.71 130.601
L552.914 129.916
L553.028 129.623
L553.388 128.548
L553.459 128.222
L553.591 127.766
L553.686 127.571
L553.794 127.049
L553.937 126.626
L554.095 125.974
L555.363 121.674
L555.462 121.218
L555.964 119.751
L556.226 118.513
L556.467 117.601
L556.712 116.982
L556.88 116.233
L556.99 115.874
L557.265 115.158
L557.378 114.864
L557.462 114.702
L557.672 114.18
L557.754 113.985
L557.907 113.366
L558.173 112.584
L558.333 112.03
L558.396 111.802
L558.759 110.336
L558.853 110.108
L560.052 105.481
L560.139 105.286
L561.826 99.6496
L561.907 99.4867
L562.069 98.8351
L562.645 96.5871
L562.708 96.2613
L564.961 88.7679
L565.059 88.4421
L565.22 87.8882
L565.381 87.2041
L565.49 86.9434
L565.683 86.1289
L565.762 85.8357
L565.908 85.4447
L570.092 69.6109
L570.233 69.3828
L570.347 69.0244
L572.703 60.7165
L572.86 60.0975
L573.046 59.674
L573.615 57.6866
L573.726 57.4259
L573.866 56.8395
L574.207 55.7318
L574.353 55.406
L574.435 55.1779
L575.84 51.1054
L576.242 50.3561
L576.538 49.4438
L576.792 48.8248
L576.977 48.5316
L577.181 47.88
L577.646 46.87
L577.767 46.6745
L578.041 46.0555
L578.216 45.6646
L578.321 45.2084
L578.453 44.7523
L578.694 44.4591
L579.484 42.2111
L579.561 41.8201
L579.746 41.1034
L579.82 40.9079
L579.992 40.5495
L580.155 40.126
L580.397 39.6373
L580.673 39.0182
L580.741 38.8553
L580.913 38.3666
L581.808 36.477
L581.91 36.3141
L582.025 36.0209
L582.381 35.467
L582.498 35.0761
L582.672 34.8154
L582.775 34.6525
L583.165 34.0661
L583.279 33.838
L584.198 32.1764
L584.608 31.4271
L584.736 31.199
L585.235 30.3845
L585.363 30.0262
L585.499 29.7655
L587.354 27.5501
L587.463 27.322
L587.711 26.9962
L587.885 26.7682
L588.017 26.5401
L588.503 25.693
L588.596 25.465
L588.866 25.2043
L589.097 25.0414
L589.206 24.8785
L589.411 24.7156
L590.317 23.445
L590.639 23.2821
L590.888 23.0866
L591.061 22.8911
L591.348 22.7282
L591.565 22.4024
L592.677 21.7508
L592.845 21.425
L593.123 21.2621
L593.464 20.7734
L593.575 20.7083
L594.058 20.4151
L594.185 20.187
L594.764 20.0241
L595.54 19.6006
L595.968 19.4051
L596.818 19.0467
L596.929 18.9815
L597.305 18.6232
L597.312 18.5906
L597.524 18.4277
L597.61 18.3299
L600.813 17.2222
L600.957 17.1571
L602.222 16.8964
L602.537 16.7009
L603.259 16.4729
L603.366 16.4077
L603.478 16.3426
L604.565 16.2448
L606.999 15.9516
L607.001 15.919
L614.45 15.5606
L620.178 15.3977
L623.063 15.3326
L623.063 15.3326" style="fill:none;stroke:#ff0000;stroke-linecap:square;"/>
   </g>
   <g id="line2d_76">
    <path clip-path="url(#p488a265953)" d="
M527.29 178.2
L527.29 15.3" style="fill:none;stroke:#ff0000;stroke-linecap:square;"/>
   </g>
   <g id="line2d_77">
    <path clip-path="url(#p488a265953)" d="
M596.077 178.2
L596.077 15.3" style="fill:none;stroke:#ff0000;stroke-linecap:square;"/>
   </g>
   <g id="line2d_78">
    <path clip-path="url(#p488a265953)" d="
M500.188 178.2
L510.881 177.809
L510.908 177.776
L513.804 177.614
L514.199 177.516
L517.682 177.255
L518.009 177.157
L518.747 177.027
L518.82 176.962
L519.22 176.799
L519.248 176.766
L521.013 176.571
L522.165 176.245
L522.379 176.147
L523.507 175.919
L523.511 175.887
L524.659 175.463
L524.742 175.333
L525.872 175.04
L525.898 175.007
L526.865 174.747
L527.168 174.616
L527.602 174.486
L527.688 174.388
L528.435 174.127
L528.453 174.062
L528.915 173.932
L528.919 173.899
L529.209 173.737
L529.635 173.443
L531.027 172.857
L531.819 172.27
L532.173 172.108
L534.07 170.055
L534.324 169.925
L534.388 169.86
L534.518 169.729
L534.547 169.631
L534.853 169.501
L534.992 169.338
L535.633 168.752
L535.756 168.556
L536.035 168.393
L536.177 168.1
L536.386 167.84
L536.553 167.514
L536.642 167.351
L536.826 167.123
L536.981 166.927
L537.079 166.699
L537.344 166.569
L538.133 165.429
L538.331 165.266
L538.441 165.135
L538.584 164.973
L539.926 163.115
L540.041 162.953
L540.283 162.594
L540.388 162.268
L540.738 161.845
L540.902 161.617
L541.011 161.421
L541.41 160.9
L541.529 160.705
L541.672 160.509
L541.839 160.118
L542.348 159.271
L542.429 159.108
L542.566 158.913
L543.017 157.837
L543.197 157.609
L543.545 156.795
L543.709 156.599
L543.95 156.013
L544.049 155.85
L544.156 155.622
L545.182 153.798
L545.329 153.602
L545.554 153.048
L546.117 151.647
L546.243 151.321
L546.441 150.735
L546.585 150.54
L546.65 150.377
L546.74 150.214
L547.227 149.106
L547.422 148.617
L547.649 148.161
L548.125 147.021
L548.201 146.728
L548.715 145.262
L548.844 144.903
L548.961 144.577
L549.098 144.252
L549.226 143.893
L549.528 143.176
L549.696 142.818
L549.801 142.395
L549.871 142.232
L550.019 141.71
L550.114 141.547
L550.259 140.994
L551.346 137.866
L551.508 137.182
L551.748 136.498
L551.994 135.781
L552.967 132.393
L555.723 122.619
L555.822 122.358
L555.973 121.706
L556.06 121.413
L556.501 119.947
L556.656 119.328
L556.9 118.416
L556.969 118.188
L557.074 117.862
L557.289 116.884
L557.435 116.526
L557.759 115.255
L557.876 114.767
L558.056 114.245
L559.071 110.466
L559.194 109.945
L559.315 109.619
L559.58 108.674
L560.09 106.85
L560.203 106.459
L560.37 105.97
L563.916 92.9707
L564.022 92.5146
L564.149 92.3191
L564.267 91.7653
L564.327 91.5372
L564.439 91.1462
L564.651 90.3969
L564.93 89.2892
L565.157 88.3444
L565.243 88.0837
L565.361 87.6276
L565.411 87.4321
L566.014 84.9886
L566.137 84.6628
L567.446 80.0039
L567.502 79.7758
L567.624 79.1894
L567.679 78.9939
L568.024 77.6255
L568.556 75.7033
L571.467 65.2126
L571.715 64.4958
L572.1 63.2903
L572.247 62.8668
L572.604 61.5636
L574.272 55.9273
L574.367 55.7969
L574.432 55.634
L574.536 55.2105
L574.644 54.9499
L575.873 50.8122
L576.054 50.3887
L576.148 50.0303
L576.246 49.8022
L576.387 49.4438
L576.632 48.9226
L576.84 48.271
L578.146 45.3713
L578.333 44.8501
L578.526 44.4917
L578.858 43.8075
L578.957 43.612
L580.671 39.4418
L580.807 39.2463
L580.933 38.9531
L581.785 37.2915
L581.926 37.0634
L582.165 36.477
L583.339 34.1312
L583.402 33.9683
L583.578 33.7729
L583.857 33.2842
L583.922 33.0561
L584.04 32.8932
L585.826 29.8633
L585.927 29.7004
L587.798 27.2243
L588.15 26.5401
L588.422 26.2795
L588.531 26.084
L588.838 25.9211
L588.918 25.7908
L589.129 25.6279
L590.264 24.1618
L590.595 23.9989
L590.731 23.6405
L590.828 23.5102
L591.813 22.2721
L591.947 22.1092
L592.484 21.5554
L592.84 21.3599
L593.982 20.3825
L594.454 20.0567
L594.696 19.8286
L595.041 19.6657
L596.817 18.558
L597.236 18.3625
L597.252 18.3299
L598.728 18.0041
L598.776 17.9064
L598.945 17.7761
L599.293 17.4503
L600.271 17.0919
L600.282 17.0593
L602.923 16.4729
L603.949 16.31
L606.323 15.919
L608.679 15.7561
L610.205 15.6258
L612.338 15.4629
L621.107 15.3326
L621.107 15.3326" style="fill:none;stroke:#0000ff;stroke-linecap:square;"/>
   </g>
   <g id="line2d_79">
    <path clip-path="url(#p488a265953)" d="
M528.435 178.2
L528.435 15.3" style="fill:none;stroke:#0000ff;stroke-dasharray:6.000000,6.000000;stroke-dashoffset:0.0;"/>
   </g>
   <g id="line2d_80">
    <path clip-path="url(#p488a265953)" d="
M595.431 178.2
L595.431 15.3" style="fill:none;stroke:#0000ff;stroke-dasharray:6.000000,6.000000;stroke-dashoffset:0.0;"/>
   </g>
   <g id="patch_13">
    <path d="
M471.159 15.3
L626.653 15.3" style="fill:none;stroke:#000000;stroke-linecap:square;stroke-linejoin:miter;"/>
   </g>
   <g id="patch_14">
    <path d="
M626.653 178.2
L626.653 15.3" style="fill:none;stroke:#000000;stroke-linecap:square;stroke-linejoin:miter;"/>
   </g>
   <g id="patch_15">
    <path d="
M471.159 178.2
L626.653 178.2" style="fill:none;stroke:#000000;stroke-linecap:square;stroke-linejoin:miter;"/>
   </g>
   <g id="patch_16">
    <path d="
M471.159 178.2
L471.159 15.3" style="fill:none;stroke:#000000;stroke-linecap:square;stroke-linejoin:miter;"/>
   </g>
   <g id="matplotlib.axis_5">
    <g id="xtick_20">
     <g id="line2d_81">
      <g>
       <use style="stroke:#000000;stroke-width:0.5;" x="471.159375" xlink:href="#m93b0483c22" y="178.2"/>
      </g>
     </g>
     <g id="line2d_82">
      <g>
       <use style="stroke:#000000;stroke-width:0.5;" x="471.159375" xlink:href="#m741efc42ff" y="15.3"/>
      </g>
     </g>
     <g id="text_36">
      <!-- 0.62 -->
      <g transform="translate(460.85703125 189.7984375)scale(0.1 -0.1)">
       <use xlink:href="#BitstreamVeraSans-Roman-30"/>
       <use x="63.623046875" xlink:href="#BitstreamVeraSans-Roman-2e"/>
       <use x="95.41015625" xlink:href="#BitstreamVeraSans-Roman-36"/>
       <use x="159.033203125" xlink:href="#BitstreamVeraSans-Roman-32"/>
      </g>
     </g>
    </g>
    <g id="xtick_21">
     <g id="line2d_83">
      <g>
       <use style="stroke:#000000;stroke-width:0.5;" x="493.372767857" xlink:href="#m93b0483c22" y="178.2"/>
      </g>
     </g>
     <g id="line2d_84">
      <g>
       <use style="stroke:#000000;stroke-width:0.5;" x="493.372767857" xlink:href="#m741efc42ff" y="15.3"/>
      </g>
     </g>
     <g id="text_37">
      <!-- 0.64 -->
      <g transform="translate(482.850111607 189.7984375)scale(0.1 -0.1)">
       <use xlink:href="#BitstreamVeraSans-Roman-30"/>
       <use x="63.623046875" xlink:href="#BitstreamVeraSans-Roman-2e"/>
       <use x="95.41015625" xlink:href="#BitstreamVeraSans-Roman-36"/>
       <use x="159.033203125" xlink:href="#BitstreamVeraSans-Roman-34"/>
      </g>
     </g>
    </g>
    <g id="xtick_22">
     <g id="line2d_85">
      <g>
       <use style="stroke:#000000;stroke-width:0.5;" x="515.586160714" xlink:href="#m93b0483c22" y="178.2"/>
      </g>
     </g>
     <g id="line2d_86">
      <g>
       <use style="stroke:#000000;stroke-width:0.5;" x="515.586160714" xlink:href="#m741efc42ff" y="15.3"/>
      </g>
     </g>
     <g id="text_38">
      <!-- 0.66 -->
      <g transform="translate(505.097879464 189.7984375)scale(0.1 -0.1)">
       <use xlink:href="#BitstreamVeraSans-Roman-30"/>
       <use x="63.623046875" xlink:href="#BitstreamVeraSans-Roman-2e"/>
       <use x="95.41015625" xlink:href="#BitstreamVeraSans-Roman-36"/>
       <use x="159.033203125" xlink:href="#BitstreamVeraSans-Roman-36"/>
      </g>
     </g>
    </g>
    <g id="xtick_23">
     <g id="line2d_87">
      <g>
       <use style="stroke:#000000;stroke-width:0.5;" x="537.799553571" xlink:href="#m93b0483c22" y="178.2"/>
      </g>
     </g>
     <g id="line2d_88">
      <g>
       <use style="stroke:#000000;stroke-width:0.5;" x="537.799553571" xlink:href="#m741efc42ff" y="15.3"/>
      </g>
     </g>
     <g id="text_39">
      <!-- 0.68 -->
      <g transform="translate(527.338616071 189.7984375)scale(0.1 -0.1)">
       <use xlink:href="#BitstreamVeraSans-Roman-30"/>
       <use x="63.623046875" xlink:href="#BitstreamVeraSans-Roman-2e"/>
       <use x="95.41015625" xlink:href="#BitstreamVeraSans-Roman-36"/>
       <use x="159.033203125" xlink:href="#BitstreamVeraSans-Roman-38"/>
      </g>
     </g>
    </g>
    <g id="xtick_24">
     <g id="line2d_89">
      <g>
       <use style="stroke:#000000;stroke-width:0.5;" x="560.012946429" xlink:href="#m93b0483c22" y="178.2"/>
      </g>
     </g>
     <g id="line2d_90">
      <g>
       <use style="stroke:#000000;stroke-width:0.5;" x="560.012946429" xlink:href="#m741efc42ff" y="15.3"/>
      </g>
     </g>
     <g id="text_40">
      <!-- 0.70 -->
      <g transform="translate(549.541852679 189.7984375)scale(0.1 -0.1)">
       <use xlink:href="#BitstreamVeraSans-Roman-30"/>
       <use x="63.623046875" xlink:href="#BitstreamVeraSans-Roman-2e"/>
       <use x="95.41015625" xlink:href="#BitstreamVeraSans-Roman-37"/>
       <use x="159.033203125" xlink:href="#BitstreamVeraSans-Roman-30"/>
      </g>
     </g>
    </g>
    <g id="xtick_25">
     <g id="line2d_91">
      <g>
       <use style="stroke:#000000;stroke-width:0.5;" x="582.226339286" xlink:href="#m93b0483c22" y="178.2"/>
      </g>
     </g>
     <g id="line2d_92">
      <g>
       <use style="stroke:#000000;stroke-width:0.5;" x="582.226339286" xlink:href="#m741efc42ff" y="15.3"/>
      </g>
     </g>
     <g id="text_41">
      <!-- 0.72 -->
      <g transform="translate(571.923995536 189.7984375)scale(0.1 -0.1)">
       <use xlink:href="#BitstreamVeraSans-Roman-30"/>
       <use x="63.623046875" xlink:href="#BitstreamVeraSans-Roman-2e"/>
       <use x="95.41015625" xlink:href="#BitstreamVeraSans-Roman-37"/>
       <use x="159.033203125" xlink:href="#BitstreamVeraSans-Roman-32"/>
      </g>
     </g>
    </g>
    <g id="xtick_26">
     <g id="line2d_93">
      <g>
       <use style="stroke:#000000;stroke-width:0.5;" x="604.439732143" xlink:href="#m93b0483c22" y="178.2"/>
      </g>
     </g>
     <g id="line2d_94">
      <g>
       <use style="stroke:#000000;stroke-width:0.5;" x="604.439732143" xlink:href="#m741efc42ff" y="15.3"/>
      </g>
     </g>
     <g id="text_42">
      <!-- 0.74 -->
      <g transform="translate(593.917075893 189.7984375)scale(0.1 -0.1)">
       <use xlink:href="#BitstreamVeraSans-Roman-30"/>
       <use x="63.623046875" xlink:href="#BitstreamVeraSans-Roman-2e"/>
       <use x="95.41015625" xlink:href="#BitstreamVeraSans-Roman-37"/>
       <use x="159.033203125" xlink:href="#BitstreamVeraSans-Roman-34"/>
      </g>
     </g>
    </g>
    <g id="xtick_27">
     <g id="line2d_95">
      <g>
       <use style="stroke:#000000;stroke-width:0.5;" x="626.653125" xlink:href="#m93b0483c22" y="178.2"/>
      </g>
     </g>
     <g id="line2d_96">
      <g>
       <use style="stroke:#000000;stroke-width:0.5;" x="626.653125" xlink:href="#m741efc42ff" y="15.3"/>
      </g>
     </g>
     <g id="text_43">
      <!-- 0.76 -->
      <g transform="translate(616.16484375 189.7984375)scale(0.1 -0.1)">
       <use xlink:href="#BitstreamVeraSans-Roman-30"/>
       <use x="63.623046875" xlink:href="#BitstreamVeraSans-Roman-2e"/>
       <use x="95.41015625" xlink:href="#BitstreamVeraSans-Roman-37"/>
       <use x="159.033203125" xlink:href="#BitstreamVeraSans-Roman-36"/>
      </g>
     </g>
    </g>
    <g id="text_44">
     <!-- Z component -->
     <defs>
      <path d="
M5.60938 72.9062
L62.8906 72.9062
L62.8906 65.375
L16.7969 8.29688
L64.0156 8.29688
L64.0156 0
L4.5 0
L4.5 7.51562
L50.5938 64.5938
L5.60938 64.5938
z
" id="BitstreamVeraSans-Roman-5a"/>
     </defs>
     <g transform="translate(515.725 204.4765625)scale(0.1 -0.1)">
      <use xlink:href="#BitstreamVeraSans-Roman-5a"/>
      <use x="68.505859375" xlink:href="#BitstreamVeraSans-Roman-20"/>
      <use x="100.29296875" xlink:href="#BitstreamVeraSans-Roman-63"/>
      <use x="155.2734375" xlink:href="#BitstreamVeraSans-Roman-6f"/>
      <use x="216.455078125" xlink:href="#BitstreamVeraSans-Roman-6d"/>
      <use x="313.8671875" xlink:href="#BitstreamVeraSans-Roman-70"/>
      <use x="377.34375" xlink:href="#BitstreamVeraSans-Roman-6f"/>
      <use x="438.525390625" xlink:href="#BitstreamVeraSans-Roman-6e"/>
      <use x="501.904296875" xlink:href="#BitstreamVeraSans-Roman-65"/>
      <use x="563.427734375" xlink:href="#BitstreamVeraSans-Roman-6e"/>
      <use x="626.806640625" xlink:href="#BitstreamVeraSans-Roman-74"/>
     </g>
    </g>
   </g>
   <g id="matplotlib.axis_6">
    <g id="ytick_13">
     <g id="line2d_97">
      <g>
       <use style="stroke:#000000;stroke-width:0.5;" x="471.159375" xlink:href="#m728421d6d4" y="178.2"/>
      </g>
     </g>
     <g id="line2d_98">
      <g>
       <use style="stroke:#000000;stroke-width:0.5;" x="626.653125" xlink:href="#mcb0005524f" y="178.2"/>
      </g>
     </g>
     <g id="text_45">
      <!-- 0.0 -->
      <g transform="translate(452.5796875 180.959375)scale(0.1 -0.1)">
       <use xlink:href="#BitstreamVeraSans-Roman-30"/>
       <use x="63.623046875" xlink:href="#BitstreamVeraSans-Roman-2e"/>
       <use x="95.41015625" xlink:href="#BitstreamVeraSans-Roman-30"/>
      </g>
     </g>
    </g>
    <g id="ytick_14">
     <g id="line2d_99">
      <g>
       <use style="stroke:#000000;stroke-width:0.5;" x="471.159375" xlink:href="#m728421d6d4" y="145.62"/>
      </g>
     </g>
     <g id="line2d_100">
      <g>
       <use style="stroke:#000000;stroke-width:0.5;" x="626.653125" xlink:href="#mcb0005524f" y="145.62"/>
      </g>
     </g>
     <g id="text_46">
      <!-- 0.2 -->
      <g transform="translate(452.9171875 148.379375)scale(0.1 -0.1)">
       <use xlink:href="#BitstreamVeraSans-Roman-30"/>
       <use x="63.623046875" xlink:href="#BitstreamVeraSans-Roman-2e"/>
       <use x="95.41015625" xlink:href="#BitstreamVeraSans-Roman-32"/>
      </g>
     </g>
    </g>
    <g id="ytick_15">
     <g id="line2d_101">
      <g>
       <use style="stroke:#000000;stroke-width:0.5;" x="471.159375" xlink:href="#m728421d6d4" y="113.04"/>
      </g>
     </g>
     <g id="line2d_102">
      <g>
       <use style="stroke:#000000;stroke-width:0.5;" x="626.653125" xlink:href="#mcb0005524f" y="113.04"/>
      </g>
     </g>
     <g id="text_47">
      <!-- 0.4 -->
      <g transform="translate(452.4765625 115.799375)scale(0.1 -0.1)">
       <use xlink:href="#BitstreamVeraSans-Roman-30"/>
       <use x="63.623046875" xlink:href="#BitstreamVeraSans-Roman-2e"/>
       <use x="95.41015625" xlink:href="#BitstreamVeraSans-Roman-34"/>
      </g>
     </g>
    </g>
    <g id="ytick_16">
     <g id="line2d_103">
      <g>
       <use style="stroke:#000000;stroke-width:0.5;" x="471.159375" xlink:href="#m728421d6d4" y="80.46"/>
      </g>
     </g>
     <g id="line2d_104">
      <g>
       <use style="stroke:#000000;stroke-width:0.5;" x="626.653125" xlink:href="#mcb0005524f" y="80.46"/>
      </g>
     </g>
     <g id="text_48">
      <!-- 0.6 -->
      <g transform="translate(452.5453125 83.219375)scale(0.1 -0.1)">
       <use xlink:href="#BitstreamVeraSans-Roman-30"/>
       <use x="63.623046875" xlink:href="#BitstreamVeraSans-Roman-2e"/>
       <use x="95.41015625" xlink:href="#BitstreamVeraSans-Roman-36"/>
      </g>
     </g>
    </g>
    <g id="ytick_17">
     <g id="line2d_105">
      <g>
       <use style="stroke:#000000;stroke-width:0.5;" x="471.159375" xlink:href="#m728421d6d4" y="47.88"/>
      </g>
     </g>
     <g id="line2d_106">
      <g>
       <use style="stroke:#000000;stroke-width:0.5;" x="626.653125" xlink:href="#mcb0005524f" y="47.88"/>
      </g>
     </g>
     <g id="text_49">
      <!-- 0.8 -->
      <g transform="translate(452.6 50.639375)scale(0.1 -0.1)">
       <use xlink:href="#BitstreamVeraSans-Roman-30"/>
       <use x="63.623046875" xlink:href="#BitstreamVeraSans-Roman-2e"/>
       <use x="95.41015625" xlink:href="#BitstreamVeraSans-Roman-38"/>
      </g>
     </g>
    </g>
    <g id="ytick_18">
     <g id="line2d_107">
      <g>
       <use style="stroke:#000000;stroke-width:0.5;" x="471.159375" xlink:href="#m728421d6d4" y="15.3"/>
      </g>
     </g>
     <g id="line2d_108">
      <g>
       <use style="stroke:#000000;stroke-width:0.5;" x="626.653125" xlink:href="#mcb0005524f" y="15.3"/>
      </g>
     </g>
     <g id="text_50">
      <!-- 1.0 -->
      <g transform="translate(453.01875 18.059375)scale(0.1 -0.1)">
       <use xlink:href="#BitstreamVeraSans-Roman-31"/>
       <use x="63.623046875" xlink:href="#BitstreamVeraSans-Roman-2e"/>
       <use x="95.41015625" xlink:href="#BitstreamVeraSans-Roman-30"/>
      </g>
     </g>
    </g>
    <g id="text_51">
     <!-- Cumulative Distribution -->
     <g transform="translate(445.396875 155.62109375)rotate(-90.0)scale(0.1 -0.1)">
      <use xlink:href="#BitstreamVeraSans-Roman-43"/>
      <use x="69.82421875" xlink:href="#BitstreamVeraSans-Roman-75"/>
      <use x="133.203125" xlink:href="#BitstreamVeraSans-Roman-6d"/>
      <use x="230.615234375" xlink:href="#BitstreamVeraSans-Roman-75"/>
      <use x="293.994140625" xlink:href="#BitstreamVeraSans-Roman-6c"/>
      <use x="321.77734375" xlink:href="#BitstreamVeraSans-Roman-61"/>
      <use x="383.056640625" xlink:href="#BitstreamVeraSans-Roman-74"/>
      <use x="422.265625" xlink:href="#BitstreamVeraSans-Roman-69"/>
      <use x="450.048828125" xlink:href="#BitstreamVeraSans-Roman-76"/>
      <use x="509.228515625" xlink:href="#BitstreamVeraSans-Roman-65"/>
      <use x="570.751953125" xlink:href="#BitstreamVeraSans-Roman-20"/>
      <use x="602.5390625" xlink:href="#BitstreamVeraSans-Roman-44"/>
      <use x="679.541015625" xlink:href="#BitstreamVeraSans-Roman-69"/>
      <use x="707.32421875" xlink:href="#BitstreamVeraSans-Roman-73"/>
      <use x="759.423828125" xlink:href="#BitstreamVeraSans-Roman-74"/>
      <use x="798.6328125" xlink:href="#BitstreamVeraSans-Roman-72"/>
      <use x="839.74609375" xlink:href="#BitstreamVeraSans-Roman-69"/>
      <use x="867.529296875" xlink:href="#BitstreamVeraSans-Roman-62"/>
      <use x="931.005859375" xlink:href="#BitstreamVeraSans-Roman-75"/>
      <use x="994.384765625" xlink:href="#BitstreamVeraSans-Roman-74"/>
      <use x="1033.59375" xlink:href="#BitstreamVeraSans-Roman-69"/>
      <use x="1061.37695312" xlink:href="#BitstreamVeraSans-Roman-6f"/>
      <use x="1122.55859375" xlink:href="#BitstreamVeraSans-Roman-6e"/>
     </g>
    </g>
   </g>
  </g>
 </g>
 <defs>
  <clipPath id="pc89c4ae0d0">
   <rect height="162.9" width="155.49375" x="257.390625" y="15.3"/>
  </clipPath>
  <clipPath id="p644a15f2ee">
   <rect height="162.9" width="155.49375" x="43.621875" y="15.3"/>
  </clipPath>
  <clipPath id="p488a265953">
   <rect height="162.9" width="155.49375" x="471.159375" y="15.3"/>
  </clipPath>
 </defs>
</svg>
