<?xml version="1.0" encoding="utf-8" standalone="no"?>
<!DOCTYPE svg PUBLIC "-//W3C//DTD SVG 1.1//EN"
  "http://www.w3.org/Graphics/SVG/1.1/DTD/svg11.dtd">
<!-- Created with matplotlib (http://matplotlib.org/) -->
<svg height="165pt" version="1.1" viewBox="0 0 504 165" width="504pt" xmlns="http://www.w3.org/2000/svg" xmlns:xlink="http://www.w3.org/1999/xlink">
 <defs>
  <style type="text/css">
*{stroke-linecap:butt;stroke-linejoin:round;stroke-miterlimit:100000;}
  </style>
 </defs>
 <g id="figure_1">
  <g id="patch_1">
   <path d="M 0 165.6 
L 504 165.6 
L 504 0 
L 0 0 
z
" style="fill:#ffffff;"/>
  </g>
  <g id="axes_1">
   <g id="patch_2">
    <path d="M 44.8875 127.8 
L 153.15 127.8 
L 153.15 15.3 
L 44.8875 15.3 
z
" style="fill:#ffffff;"/>
   </g>
   <g id="line2d_1">
    <path clip-path="url(#p62e0b0a6ee)" d="M 90.259979 127.8 
L 93.216648 127.62 
L 96.835087 127.08 
L 96.845373 127.0575 
L 97.713784 126.855 
L 97.723233 126.8325 
L 98.615867 126.585 
L 99.10822 126.3825 
L 99.788915 126.135 
L 99.924402 125.955 
L 101.059149 125.37 
L 101.280996 125.19 
L 101.670655 124.8525 
L 101.812855 124.6275 
L 102.031097 124.4475 
L 102.578082 123.93 
L 102.757687 123.7275 
L 103.158204 123.075 
L 103.381204 122.895 
L 103.684056 122.5575 
L 103.803535 122.3775 
L 104.078783 122.04 
L 104.864611 121.095 
L 105.166766 120.7575 
L 105.466539 120.3975 
L 105.609327 120.24 
L 105.705456 120.06 
L 105.93203 119.6775 
L 106.089351 119.475 
L 107.097451 117.585 
L 107.523939 116.5275 
L 107.622306 116.3475 
L 107.790984 115.65 
L 107.870592 115.515 
L 108.090885 114.9075 
L 108.374201 114.1875 
L 108.507494 113.94 
L 108.820868 113.1075 
L 109.086483 112.41 
L 109.225429 112.1175 
L 109.409407 111.7575 
L 110.037513 110.0475 
L 110.161969 109.7775 
L 110.503686 108.72 
L 110.600611 108.54 
L 110.729537 107.955 
L 110.818032 107.7525 
L 110.990649 107.3475 
L 111.145887 106.9875 
L 111.353714 106.3125 
L 111.490028 105.75 
L 111.603334 105.1875 
L 111.661914 104.94 
L 111.877285 104.355 
L 113.164209 98.955 
L 113.280286 98.415 
L 113.495704 97.5825 
L 113.612113 97.0875 
L 114.378444 93.915 
L 114.455089 93.6675 
L 114.600204 92.925 
L 114.661284 92.6775 
L 114.777744 91.8225 
L 114.968708 91.0125 
L 115.085687 90.5625 
L 115.127685 90.36 
L 115.269109 89.505 
L 115.372632 89.235 
L 115.750578 87.3675 
L 115.822728 86.9625 
L 116.074391 85.455 
L 116.156452 85.1625 
L 116.330806 84.375 
L 116.501139 83.4975 
L 116.557835 83.2275 
L 116.766805 82.0125 
L 116.846886 81.54 
L 116.959878 80.73 
L 117.678834 77.85 
L 117.962063 76.3875 
L 118.115157 75.7125 
L 118.316098 74.6775 
L 118.377707 74.43 
L 118.753764 72.6525 
L 119.351376 69.3 
L 119.498183 68.6025 
L 119.905585 66.06 
L 120.010136 65.5425 
L 120.136282 64.8225 
L 120.195883 64.5975 
L 120.444814 63.5175 
L 120.504656 63.2475 
L 120.617849 62.5725 
L 121.460042 58.365 
L 121.731187 56.7225 
L 121.812328 56.34 
L 121.942846 55.845 
L 122.181193 54.6525 
L 122.234599 54.45 
L 122.356374 53.775 
L 122.486402 53.1 
L 122.652776 52.245 
L 123.128284 50.0175 
L 123.225536 49.59 
L 123.466109 48.555 
L 123.598552 47.9025 
L 123.661234 47.655 
L 123.874845 46.935 
L 123.9737 46.4625 
L 124.078727 46.125 
L 124.157036 45.675 
L 124.413646 44.64 
L 124.642278 43.7625 
L 124.898192 42.4575 
L 124.970587 42.0075 
L 125.089827 41.49 
L 125.176438 41.1525 
L 125.342356 40.455 
L 125.40615 40.2075 
L 125.548021 39.5775 
L 125.628457 39.24 
L 125.906447 38.0475 
L 129.575466 27.225 
L 129.736377 27.0225 
L 130.333421 25.6725 
L 130.475592 25.3125 
L 130.656526 25.065 
L 130.918864 24.435 
L 131.111053 24.165 
L 132.887802 21.4875 
L 133.087399 21.2625 
L 133.156773 21.1275 
L 133.329742 20.97 
L 134.943397 19.035 
L 135.273546 18.855 
L 136.240098 17.7525 
L 136.785938 17.5725 
L 136.984228 17.37 
L 137.623988 16.8975 
L 137.860921 16.785 
L 139.160919 16.3125 
L 139.993376 16.11 
L 144.45235 15.4125 
L 146.55481 15.345 
L 149.73899 15.3225 
L 149.73899 15.3225 
" style="fill:none;stroke:#ff0000;stroke-linecap:square;"/>
   </g>
   <g id="line2d_2">
    <path clip-path="url(#p62e0b0a6ee)" d="M 101.564017 127.8 
L 101.564017 15.3 
" style="fill:none;stroke:#ff0000;stroke-linecap:square;"/>
   </g>
   <g id="line2d_3">
    <path clip-path="url(#p62e0b0a6ee)" d="M 135.904909 127.8 
L 135.904909 15.3 
" style="fill:none;stroke:#ff0000;stroke-linecap:square;"/>
   </g>
   <g id="line2d_4">
    <path clip-path="url(#p62e0b0a6ee)" d="M 52.165216 127.8 
L 63.55484 127.5075 
L 65.750113 127.305 
L 68.041212 127.17 
L 72.230169 126.54 
L 72.657023 126.45 
L 73.64544 126.2925 
L 73.674451 126.27 
L 74.710296 126.0675 
L 75.026671 125.9325 
L 75.56453 125.775 
L 75.730081 125.595 
L 77.9685 124.785 
L 78.108257 124.6275 
L 78.667007 124.335 
L 79.397642 123.9525 
L 81.614524 122.67 
L 82.231557 122.0175 
L 82.507777 121.86 
L 83.06005 121.3875 
L 83.191244 121.2975 
L 83.671469 120.915 
L 83.767581 120.735 
L 84.059628 120.42 
L 84.307614 120.105 
L 84.842845 119.4975 
L 85.056328 119.3625 
L 85.465278 118.9575 
L 85.81106 118.5075 
L 86.138373 118.17 
L 86.603784 117.63 
L 86.760082 117.54 
L 87.546356 116.64 
L 87.698036 116.4825 
L 87.814713 116.37 
L 88.01658 116.0325 
L 88.157555 115.7625 
L 88.615698 115.29 
L 89.068182 114.3 
L 89.30487 114.1425 
L 89.516946 113.7375 
L 89.842828 113.1975 
L 90.039237 112.8375 
L 90.862581 111.915 
L 90.996036 111.69 
L 91.110999 111.5325 
L 91.278703 111.195 
L 91.433485 110.9475 
L 92.360318 108.99 
L 92.541802 108.7875 
L 93.432907 107.3025 
L 93.578947 107.145 
L 93.742166 106.7625 
L 93.906749 106.3125 
L 94.046348 106.02 
L 94.691925 104.6025 
L 94.834036 104.2875 
L 95.332778 103.2075 
L 95.706978 102.3975 
L 95.821883 102.105 
L 96.03755 101.4975 
L 97.061067 98.865 
L 97.18113 98.46 
L 97.380655 97.8075 
L 97.624065 97.3125 
L 97.858255 96.705 
L 97.990706 96.4125 
L 98.13232 96.075 
L 98.462846 95.1975 
L 98.590332 94.86 
L 98.671363 94.7025 
L 99.111431 93.3075 
L 99.255942 92.835 
L 99.319712 92.655 
L 99.855079 90.7425 
L 99.922588 90.54 
L 100.095514 90.0225 
L 100.260394 89.5275 
L 100.542442 88.4925 
L 101.019676 86.895 
L 101.140441 86.535 
L 101.269058 86.1075 
L 101.322163 85.86 
L 101.427629 85.5225 
L 101.512044 85.2075 
L 101.662182 84.735 
L 101.818336 84.3075 
L 102.123402 83.2725 
L 102.269397 82.8675 
L 102.381899 82.5525 
L 102.479349 82.35 
L 102.605856 81.765 
L 102.698329 81.5625 
L 102.82175 81.1575 
L 103.299639 79.6725 
L 103.506081 78.9525 
L 103.580528 78.66 
L 103.701106 78.4575 
L 103.779153 78.255 
L 105.065997 74.115 
L 105.173209 73.7325 
L 105.263203 73.5075 
L 105.393521 72.99 
L 105.663409 72.045 
L 105.938333 71.415 
L 106.080856 70.83 
L 106.724302 68.805 
L 106.828862 68.625 
L 107.741547 65.4975 
L 107.84888 65.16 
L 107.940579 64.845 
L 108.06266 64.4175 
L 108.189845 64.17 
L 108.300317 63.8325 
L 108.772123 62.19 
L 108.862554 61.92 
L 108.909805 61.7625 
L 109.035424 61.335 
L 109.118276 60.9975 
L 109.243445 60.48 
L 109.354016 60.165 
L 109.483048 59.715 
L 109.776225 59.0175 
L 109.90886 58.7475 
L 110.088452 58.14 
L 110.179198 57.8925 
L 110.341721 57.3525 
L 110.520484 56.79 
L 110.836454 55.71 
L 111.006485 55.2825 
L 111.146777 54.675 
L 111.234484 54.4725 
L 111.444627 53.7075 
L 111.585528 53.325 
L 111.68128 53.01 
L 111.772442 52.785 
L 111.914494 52.065 
L 112.075353 51.5925 
L 112.486009 50.535 
L 112.5727 50.355 
L 112.782904 49.7475 
L 112.894633 49.4325 
L 113.025701 49.0725 
L 113.474348 47.7225 
L 113.60254 47.2725 
L 113.79157 46.755 
L 114.024592 45.9225 
L 114.067025 45.7425 
L 114.191308 45.45 
L 114.283554 45.18 
L 114.420396 44.73 
L 114.482809 44.505 
L 114.626405 43.965 
L 114.701926 43.74 
L 114.933655 43.0875 
L 115.040731 42.84 
L 115.147669 42.4575 
L 115.240245 42.3 
L 115.437245 41.805 
L 115.513571 41.625 
L 116.457611 39.2625 
L 116.564451 39.06 
L 116.688751 38.745 
L 116.742481 38.565 
L 117.238382 37.035 
L 117.420214 36.4725 
L 117.542345 35.9775 
L 117.643417 35.7525 
L 117.758009 35.55 
L 117.931286 35.2125 
L 118.054029 34.9875 
L 119.34712 31.815 
L 119.54276 31.2975 
L 119.654936 31.095 
L 119.91834 30.465 
L 120.012105 30.3075 
L 120.325349 29.5875 
L 120.511293 29.4075 
L 120.652203 29.0925 
L 120.763047 28.935 
L 120.924488 28.6425 
L 121.265072 27.8775 
L 121.378297 27.5625 
L 121.553318 27.225 
L 122.069981 26.3475 
L 122.40411 25.92 
L 122.619912 25.6275 
L 122.720791 25.38 
L 122.970824 25.155 
L 123.079175 25.0425 
L 123.34771 24.5925 
L 123.456371 24.4575 
L 123.688025 24.0525 
L 123.788505 23.85 
L 124.113325 23.535 
L 124.253392 23.2875 
L 124.989116 22.32 
L 125.153771 22.185 
L 125.248969 22.0275 
L 125.356323 21.825 
L 125.560434 21.5775 
L 125.658595 21.4875 
L 126.050729 21.1725 
L 126.152393 21.06 
L 126.558057 20.7675 
L 126.678276 20.6325 
L 126.882593 20.4525 
L 126.958596 20.3175 
L 127.249063 20.1375 
L 127.40913 19.98 
L 127.715809 19.8225 
L 128.253203 19.4175 
L 128.566525 19.125 
L 129.206576 18.5625 
L 129.665295 18.405 
L 129.788862 18.2925 
L 129.843221 18.225 
L 130.157102 18.09 
L 130.796979 17.7975 
L 130.927149 17.685 
L 130.989501 17.6175 
L 131.887007 17.3925 
L 133.953278 16.5825 
L 136.210285 16.1325 
L 137.265778 15.93 
L 137.322886 15.885 
L 142.348462 15.435 
L 148.359151 15.3225 
L 148.359151 15.3225 
" style="fill:none;stroke:#0000ff;stroke-linecap:square;"/>
   </g>
   <g id="line2d_5">
    <path clip-path="url(#p62e0b0a6ee)" d="M 77.540261 127.8 
L 77.540261 15.3 
" style="fill:none;stroke:#0000ff;stroke-dasharray:6.000000,6.000000;stroke-dashoffset:0.0;"/>
   </g>
   <g id="line2d_6">
    <path clip-path="url(#p62e0b0a6ee)" d="M 130.111012 127.8 
L 130.111012 15.3 
" style="fill:none;stroke:#0000ff;stroke-dasharray:6.000000,6.000000;stroke-dashoffset:0.0;"/>
   </g>
   <g id="patch_3">
    <path d="M 44.8875 15.3 
L 153.15 15.3 
" style="fill:none;stroke:#000000;stroke-linecap:square;stroke-linejoin:miter;"/>
   </g>
   <g id="patch_4">
    <path d="M 153.15 127.8 
L 153.15 15.3 
" style="fill:none;stroke:#000000;stroke-linecap:square;stroke-linejoin:miter;"/>
   </g>
   <g id="patch_5">
    <path d="M 44.8875 127.8 
L 153.15 127.8 
" style="fill:none;stroke:#000000;stroke-linecap:square;stroke-linejoin:miter;"/>
   </g>
   <g id="patch_6">
    <path d="M 44.8875 127.8 
L 44.8875 15.3 
" style="fill:none;stroke:#000000;stroke-linecap:square;stroke-linejoin:miter;"/>
   </g>
   <g id="matplotlib.axis_1">
    <g id="xtick_1">
     <g id="line2d_7">
      <defs>
       <path d="M 0 0 
L 0 -4 
" id="mab768ee742" style="stroke:#000000;stroke-width:0.5;"/>
      </defs>
      <g>
       <use style="stroke:#000000;stroke-width:0.5;" x="44.8875" xlink:href="#mab768ee742" y="127.8"/>
      </g>
     </g>
     <g id="line2d_8">
      <defs>
       <path d="M 0 0 
L 0 4 
" id="m2efe55d5c3" style="stroke:#000000;stroke-width:0.5;"/>
      </defs>
      <g>
       <use style="stroke:#000000;stroke-width:0.5;" x="44.8875" xlink:href="#m2efe55d5c3" y="15.3"/>
      </g>
     </g>
     <g id="text_1">
      <!-- 0.45 -->
      <defs>
       <path d="M 31.78125 66.40625 
Q 24.171875 66.40625 20.328125 58.90625 
Q 16.5 51.421875 16.5 36.375 
Q 16.5 21.390625 20.328125 13.890625 
Q 24.171875 6.390625 31.78125 6.390625 
Q 39.453125 6.390625 43.28125 13.890625 
Q 47.125 21.390625 47.125 36.375 
Q 47.125 51.421875 43.28125 58.90625 
Q 39.453125 66.40625 31.78125 66.40625 
M 31.78125 74.21875 
Q 44.046875 74.21875 50.515625 64.515625 
Q 56.984375 54.828125 56.984375 36.375 
Q 56.984375 17.96875 50.515625 8.265625 
Q 44.046875 -1.421875 31.78125 -1.421875 
Q 19.53125 -1.421875 13.0625 8.265625 
Q 6.59375 17.96875 6.59375 36.375 
Q 6.59375 54.828125 13.0625 64.515625 
Q 19.53125 74.21875 31.78125 74.21875 
" id="BitstreamVeraSans-Roman-30"/>
       <path d="M 10.6875 12.40625 
L 21 12.40625 
L 21 0 
L 10.6875 0 
z
" id="BitstreamVeraSans-Roman-2e"/>
       <path d="M 37.796875 64.3125 
L 12.890625 25.390625 
L 37.796875 25.390625 
z
M 35.203125 72.90625 
L 47.609375 72.90625 
L 47.609375 25.390625 
L 58.015625 25.390625 
L 58.015625 17.1875 
L 47.609375 17.1875 
L 47.609375 0 
L 37.796875 0 
L 37.796875 17.1875 
L 4.890625 17.1875 
L 4.890625 26.703125 
z
" id="BitstreamVeraSans-Roman-34"/>
       <path d="M 10.796875 72.90625 
L 49.515625 72.90625 
L 49.515625 64.59375 
L 19.828125 64.59375 
L 19.828125 46.734375 
Q 21.96875 47.46875 24.109375 47.828125 
Q 26.265625 48.1875 28.421875 48.1875 
Q 40.625 48.1875 47.75 41.5 
Q 54.890625 34.8125 54.890625 23.390625 
Q 54.890625 11.625 47.5625 5.09375 
Q 40.234375 -1.421875 26.90625 -1.421875 
Q 22.3125 -1.421875 17.546875 -0.640625 
Q 12.796875 0.140625 7.71875 1.703125 
L 7.71875 11.625 
Q 12.109375 9.234375 16.796875 8.0625 
Q 21.484375 6.890625 26.703125 6.890625 
Q 35.15625 6.890625 40.078125 11.328125 
Q 45.015625 15.765625 45.015625 23.390625 
Q 45.015625 31 40.078125 35.4375 
Q 35.15625 39.890625 26.703125 39.890625 
Q 22.75 39.890625 18.8125 39.015625 
Q 14.890625 38.140625 10.796875 36.28125 
z
" id="BitstreamVeraSans-Roman-35"/>
      </defs>
      <g transform="translate(33.7546875 139.3984375)scale(0.1 -0.1)">
       <use xlink:href="#BitstreamVeraSans-Roman-30"/>
       <use x="63.623046875" xlink:href="#BitstreamVeraSans-Roman-2e"/>
       <use x="95.41015625" xlink:href="#BitstreamVeraSans-Roman-34"/>
       <use x="159.033203125" xlink:href="#BitstreamVeraSans-Roman-35"/>
      </g>
     </g>
    </g>
    <g id="xtick_2">
     <g id="line2d_9">
      <g>
       <use style="stroke:#000000;stroke-width:0.5;" x="62.93125" xlink:href="#mab768ee742" y="127.8"/>
      </g>
     </g>
     <g id="line2d_10">
      <g>
       <use style="stroke:#000000;stroke-width:0.5;" x="62.93125" xlink:href="#m2efe55d5c3" y="15.3"/>
      </g>
     </g>
     <g id="text_2">
      <!-- 0.50 -->
      <g transform="translate(51.7984375 139.3984375)scale(0.1 -0.1)">
       <use xlink:href="#BitstreamVeraSans-Roman-30"/>
       <use x="63.623046875" xlink:href="#BitstreamVeraSans-Roman-2e"/>
       <use x="95.41015625" xlink:href="#BitstreamVeraSans-Roman-35"/>
       <use x="159.033203125" xlink:href="#BitstreamVeraSans-Roman-30"/>
      </g>
     </g>
    </g>
    <g id="xtick_3">
     <g id="line2d_11">
      <g>
       <use style="stroke:#000000;stroke-width:0.5;" x="80.975" xlink:href="#mab768ee742" y="127.8"/>
      </g>
     </g>
     <g id="line2d_12">
      <g>
       <use style="stroke:#000000;stroke-width:0.5;" x="80.975" xlink:href="#m2efe55d5c3" y="15.3"/>
      </g>
     </g>
     <g id="text_3">
      <!-- 0.55 -->
      <g transform="translate(69.8421875 139.3984375)scale(0.1 -0.1)">
       <use xlink:href="#BitstreamVeraSans-Roman-30"/>
       <use x="63.623046875" xlink:href="#BitstreamVeraSans-Roman-2e"/>
       <use x="95.41015625" xlink:href="#BitstreamVeraSans-Roman-35"/>
       <use x="159.033203125" xlink:href="#BitstreamVeraSans-Roman-35"/>
      </g>
     </g>
    </g>
    <g id="xtick_4">
     <g id="line2d_13">
      <g>
       <use style="stroke:#000000;stroke-width:0.5;" x="99.01875" xlink:href="#mab768ee742" y="127.8"/>
      </g>
     </g>
     <g id="line2d_14">
      <g>
       <use style="stroke:#000000;stroke-width:0.5;" x="99.01875" xlink:href="#m2efe55d5c3" y="15.3"/>
      </g>
     </g>
     <g id="text_4">
      <!-- 0.60 -->
      <defs>
       <path d="M 33.015625 40.375 
Q 26.375 40.375 22.484375 35.828125 
Q 18.609375 31.296875 18.609375 23.390625 
Q 18.609375 15.53125 22.484375 10.953125 
Q 26.375 6.390625 33.015625 6.390625 
Q 39.65625 6.390625 43.53125 10.953125 
Q 47.40625 15.53125 47.40625 23.390625 
Q 47.40625 31.296875 43.53125 35.828125 
Q 39.65625 40.375 33.015625 40.375 
M 52.59375 71.296875 
L 52.59375 62.3125 
Q 48.875 64.0625 45.09375 64.984375 
Q 41.3125 65.921875 37.59375 65.921875 
Q 27.828125 65.921875 22.671875 59.328125 
Q 17.53125 52.734375 16.796875 39.40625 
Q 19.671875 43.65625 24.015625 45.921875 
Q 28.375 48.1875 33.59375 48.1875 
Q 44.578125 48.1875 50.953125 41.515625 
Q 57.328125 34.859375 57.328125 23.390625 
Q 57.328125 12.15625 50.6875 5.359375 
Q 44.046875 -1.421875 33.015625 -1.421875 
Q 20.359375 -1.421875 13.671875 8.265625 
Q 6.984375 17.96875 6.984375 36.375 
Q 6.984375 53.65625 15.1875 63.9375 
Q 23.390625 74.21875 37.203125 74.21875 
Q 40.921875 74.21875 44.703125 73.484375 
Q 48.484375 72.75 52.59375 71.296875 
" id="BitstreamVeraSans-Roman-36"/>
      </defs>
      <g transform="translate(87.8859375 139.3984375)scale(0.1 -0.1)">
       <use xlink:href="#BitstreamVeraSans-Roman-30"/>
       <use x="63.623046875" xlink:href="#BitstreamVeraSans-Roman-2e"/>
       <use x="95.41015625" xlink:href="#BitstreamVeraSans-Roman-36"/>
       <use x="159.033203125" xlink:href="#BitstreamVeraSans-Roman-30"/>
      </g>
     </g>
    </g>
    <g id="xtick_5">
     <g id="line2d_15">
      <g>
       <use style="stroke:#000000;stroke-width:0.5;" x="117.0625" xlink:href="#mab768ee742" y="127.8"/>
      </g>
     </g>
     <g id="line2d_16">
      <g>
       <use style="stroke:#000000;stroke-width:0.5;" x="117.0625" xlink:href="#m2efe55d5c3" y="15.3"/>
      </g>
     </g>
     <g id="text_5">
      <!-- 0.65 -->
      <g transform="translate(105.9296875 139.3984375)scale(0.1 -0.1)">
       <use xlink:href="#BitstreamVeraSans-Roman-30"/>
       <use x="63.623046875" xlink:href="#BitstreamVeraSans-Roman-2e"/>
       <use x="95.41015625" xlink:href="#BitstreamVeraSans-Roman-36"/>
       <use x="159.033203125" xlink:href="#BitstreamVeraSans-Roman-35"/>
      </g>
     </g>
    </g>
    <g id="xtick_6">
     <g id="line2d_17">
      <g>
       <use style="stroke:#000000;stroke-width:0.5;" x="135.10625" xlink:href="#mab768ee742" y="127.8"/>
      </g>
     </g>
     <g id="line2d_18">
      <g>
       <use style="stroke:#000000;stroke-width:0.5;" x="135.10625" xlink:href="#m2efe55d5c3" y="15.3"/>
      </g>
     </g>
     <g id="text_6">
      <!-- 0.70 -->
      <defs>
       <path d="M 8.203125 72.90625 
L 55.078125 72.90625 
L 55.078125 68.703125 
L 28.609375 0 
L 18.3125 0 
L 43.21875 64.59375 
L 8.203125 64.59375 
z
" id="BitstreamVeraSans-Roman-37"/>
      </defs>
      <g transform="translate(123.9734375 139.3984375)scale(0.1 -0.1)">
       <use xlink:href="#BitstreamVeraSans-Roman-30"/>
       <use x="63.623046875" xlink:href="#BitstreamVeraSans-Roman-2e"/>
       <use x="95.41015625" xlink:href="#BitstreamVeraSans-Roman-37"/>
       <use x="159.033203125" xlink:href="#BitstreamVeraSans-Roman-30"/>
      </g>
     </g>
    </g>
    <g id="xtick_7">
     <g id="line2d_19">
      <g>
       <use style="stroke:#000000;stroke-width:0.5;" x="153.15" xlink:href="#mab768ee742" y="127.8"/>
      </g>
     </g>
     <g id="line2d_20">
      <g>
       <use style="stroke:#000000;stroke-width:0.5;" x="153.15" xlink:href="#m2efe55d5c3" y="15.3"/>
      </g>
     </g>
     <g id="text_7">
      <!-- 0.75 -->
      <g transform="translate(142.0171875 139.3984375)scale(0.1 -0.1)">
       <use xlink:href="#BitstreamVeraSans-Roman-30"/>
       <use x="63.623046875" xlink:href="#BitstreamVeraSans-Roman-2e"/>
       <use x="95.41015625" xlink:href="#BitstreamVeraSans-Roman-37"/>
       <use x="159.033203125" xlink:href="#BitstreamVeraSans-Roman-35"/>
      </g>
     </g>
    </g>
    <g id="text_8">
     <!-- X component -->
     <defs>
      <path id="BitstreamVeraSans-Roman-20"/>
      <path d="M 54.890625 33.015625 
L 54.890625 0 
L 45.90625 0 
L 45.90625 32.71875 
Q 45.90625 40.484375 42.875 44.328125 
Q 39.84375 48.1875 33.796875 48.1875 
Q 26.515625 48.1875 22.3125 43.546875 
Q 18.109375 38.921875 18.109375 30.90625 
L 18.109375 0 
L 9.078125 0 
L 9.078125 54.6875 
L 18.109375 54.6875 
L 18.109375 46.1875 
Q 21.34375 51.125 25.703125 53.5625 
Q 30.078125 56 35.796875 56 
Q 45.21875 56 50.046875 50.171875 
Q 54.890625 44.34375 54.890625 33.015625 
" id="BitstreamVeraSans-Roman-6e"/>
      <path d="M 52 44.1875 
Q 55.375 50.25 60.0625 53.125 
Q 64.75 56 71.09375 56 
Q 79.640625 56 84.28125 50.015625 
Q 88.921875 44.046875 88.921875 33.015625 
L 88.921875 0 
L 79.890625 0 
L 79.890625 32.71875 
Q 79.890625 40.578125 77.09375 44.375 
Q 74.3125 48.1875 68.609375 48.1875 
Q 61.625 48.1875 57.5625 43.546875 
Q 53.515625 38.921875 53.515625 30.90625 
L 53.515625 0 
L 44.484375 0 
L 44.484375 32.71875 
Q 44.484375 40.625 41.703125 44.40625 
Q 38.921875 48.1875 33.109375 48.1875 
Q 26.21875 48.1875 22.15625 43.53125 
Q 18.109375 38.875 18.109375 30.90625 
L 18.109375 0 
L 9.078125 0 
L 9.078125 54.6875 
L 18.109375 54.6875 
L 18.109375 46.1875 
Q 21.1875 51.21875 25.484375 53.609375 
Q 29.78125 56 35.6875 56 
Q 41.65625 56 45.828125 52.96875 
Q 50 49.953125 52 44.1875 
" id="BitstreamVeraSans-Roman-6d"/>
      <path d="M 30.609375 48.390625 
Q 23.390625 48.390625 19.1875 42.75 
Q 14.984375 37.109375 14.984375 27.296875 
Q 14.984375 17.484375 19.15625 11.84375 
Q 23.34375 6.203125 30.609375 6.203125 
Q 37.796875 6.203125 41.984375 11.859375 
Q 46.1875 17.53125 46.1875 27.296875 
Q 46.1875 37.015625 41.984375 42.703125 
Q 37.796875 48.390625 30.609375 48.390625 
M 30.609375 56 
Q 42.328125 56 49.015625 48.375 
Q 55.71875 40.765625 55.71875 27.296875 
Q 55.71875 13.875 49.015625 6.21875 
Q 42.328125 -1.421875 30.609375 -1.421875 
Q 18.84375 -1.421875 12.171875 6.21875 
Q 5.515625 13.875 5.515625 27.296875 
Q 5.515625 40.765625 12.171875 48.375 
Q 18.84375 56 30.609375 56 
" id="BitstreamVeraSans-Roman-6f"/>
      <path d="M 56.203125 29.59375 
L 56.203125 25.203125 
L 14.890625 25.203125 
Q 15.484375 15.921875 20.484375 11.0625 
Q 25.484375 6.203125 34.421875 6.203125 
Q 39.59375 6.203125 44.453125 7.46875 
Q 49.3125 8.734375 54.109375 11.28125 
L 54.109375 2.78125 
Q 49.265625 0.734375 44.1875 -0.34375 
Q 39.109375 -1.421875 33.890625 -1.421875 
Q 20.796875 -1.421875 13.15625 6.1875 
Q 5.515625 13.8125 5.515625 26.8125 
Q 5.515625 40.234375 12.765625 48.109375 
Q 20.015625 56 32.328125 56 
Q 43.359375 56 49.78125 48.890625 
Q 56.203125 41.796875 56.203125 29.59375 
M 47.21875 32.234375 
Q 47.125 39.59375 43.09375 43.984375 
Q 39.0625 48.390625 32.421875 48.390625 
Q 24.90625 48.390625 20.390625 44.140625 
Q 15.875 39.890625 15.1875 32.171875 
z
" id="BitstreamVeraSans-Roman-65"/>
      <path d="M 48.78125 52.59375 
L 48.78125 44.1875 
Q 44.96875 46.296875 41.140625 47.34375 
Q 37.3125 48.390625 33.40625 48.390625 
Q 24.65625 48.390625 19.8125 42.84375 
Q 14.984375 37.3125 14.984375 27.296875 
Q 14.984375 17.28125 19.8125 11.734375 
Q 24.65625 6.203125 33.40625 6.203125 
Q 37.3125 6.203125 41.140625 7.25 
Q 44.96875 8.296875 48.78125 10.40625 
L 48.78125 2.09375 
Q 45.015625 0.34375 40.984375 -0.53125 
Q 36.96875 -1.421875 32.421875 -1.421875 
Q 20.0625 -1.421875 12.78125 6.34375 
Q 5.515625 14.109375 5.515625 27.296875 
Q 5.515625 40.671875 12.859375 48.328125 
Q 20.21875 56 33.015625 56 
Q 37.15625 56 41.109375 55.140625 
Q 45.0625 54.296875 48.78125 52.59375 
" id="BitstreamVeraSans-Roman-63"/>
      <path d="M 6.296875 72.90625 
L 16.890625 72.90625 
L 35.015625 45.796875 
L 53.21875 72.90625 
L 63.8125 72.90625 
L 40.375 37.890625 
L 65.375 0 
L 54.78125 0 
L 34.28125 31 
L 13.625 0 
L 2.984375 0 
L 29 38.921875 
z
" id="BitstreamVeraSans-Roman-58"/>
      <path d="M 18.3125 70.21875 
L 18.3125 54.6875 
L 36.8125 54.6875 
L 36.8125 47.703125 
L 18.3125 47.703125 
L 18.3125 18.015625 
Q 18.3125 11.328125 20.140625 9.421875 
Q 21.96875 7.515625 27.59375 7.515625 
L 36.8125 7.515625 
L 36.8125 0 
L 27.59375 0 
Q 17.1875 0 13.234375 3.875 
Q 9.28125 7.765625 9.28125 18.015625 
L 9.28125 47.703125 
L 2.6875 47.703125 
L 2.6875 54.6875 
L 9.28125 54.6875 
L 9.28125 70.21875 
z
" id="BitstreamVeraSans-Roman-74"/>
      <path d="M 18.109375 8.203125 
L 18.109375 -20.796875 
L 9.078125 -20.796875 
L 9.078125 54.6875 
L 18.109375 54.6875 
L 18.109375 46.390625 
Q 20.953125 51.265625 25.265625 53.625 
Q 29.59375 56 35.59375 56 
Q 45.5625 56 51.78125 48.09375 
Q 58.015625 40.1875 58.015625 27.296875 
Q 58.015625 14.40625 51.78125 6.484375 
Q 45.5625 -1.421875 35.59375 -1.421875 
Q 29.59375 -1.421875 25.265625 0.953125 
Q 20.953125 3.328125 18.109375 8.203125 
M 48.6875 27.296875 
Q 48.6875 37.203125 44.609375 42.84375 
Q 40.53125 48.484375 33.40625 48.484375 
Q 26.265625 48.484375 22.1875 42.84375 
Q 18.109375 37.203125 18.109375 27.296875 
Q 18.109375 17.390625 22.1875 11.75 
Q 26.265625 6.109375 33.40625 6.109375 
Q 40.53125 6.109375 44.609375 11.75 
Q 48.6875 17.390625 48.6875 27.296875 
" id="BitstreamVeraSans-Roman-70"/>
     </defs>
     <g transform="translate(65.71796875 154.0765625)scale(0.1 -0.1)">
      <use xlink:href="#BitstreamVeraSans-Roman-58"/>
      <use x="68.505859375" xlink:href="#BitstreamVeraSans-Roman-20"/>
      <use x="100.29296875" xlink:href="#BitstreamVeraSans-Roman-63"/>
      <use x="155.2734375" xlink:href="#BitstreamVeraSans-Roman-6f"/>
      <use x="216.455078125" xlink:href="#BitstreamVeraSans-Roman-6d"/>
      <use x="313.8671875" xlink:href="#BitstreamVeraSans-Roman-70"/>
      <use x="377.34375" xlink:href="#BitstreamVeraSans-Roman-6f"/>
      <use x="438.525390625" xlink:href="#BitstreamVeraSans-Roman-6e"/>
      <use x="501.904296875" xlink:href="#BitstreamVeraSans-Roman-65"/>
      <use x="563.427734375" xlink:href="#BitstreamVeraSans-Roman-6e"/>
      <use x="626.806640625" xlink:href="#BitstreamVeraSans-Roman-74"/>
     </g>
    </g>
   </g>
   <g id="matplotlib.axis_2">
    <g id="ytick_1">
     <g id="line2d_21">
      <defs>
       <path d="M 0 0 
L 4 0 
" id="m5cf7dc86d8" style="stroke:#000000;stroke-width:0.5;"/>
      </defs>
      <g>
       <use style="stroke:#000000;stroke-width:0.5;" x="44.8875" xlink:href="#m5cf7dc86d8" y="127.8"/>
      </g>
     </g>
     <g id="line2d_22">
      <defs>
       <path d="M 0 0 
L -4 0 
" id="mf36066b384" style="stroke:#000000;stroke-width:0.5;"/>
      </defs>
      <g>
       <use style="stroke:#000000;stroke-width:0.5;" x="153.15" xlink:href="#mf36066b384" y="127.8"/>
      </g>
     </g>
     <g id="text_9">
      <!-- 0.0 -->
      <g transform="translate(24.984375 130.559375)scale(0.1 -0.1)">
       <use xlink:href="#BitstreamVeraSans-Roman-30"/>
       <use x="63.623046875" xlink:href="#BitstreamVeraSans-Roman-2e"/>
       <use x="95.41015625" xlink:href="#BitstreamVeraSans-Roman-30"/>
      </g>
     </g>
    </g>
    <g id="ytick_2">
     <g id="line2d_23">
      <g>
       <use style="stroke:#000000;stroke-width:0.5;" x="44.8875" xlink:href="#m5cf7dc86d8" y="105.3"/>
      </g>
     </g>
     <g id="line2d_24">
      <g>
       <use style="stroke:#000000;stroke-width:0.5;" x="153.15" xlink:href="#mf36066b384" y="105.3"/>
      </g>
     </g>
     <g id="text_10">
      <!-- 0.2 -->
      <defs>
       <path d="M 19.1875 8.296875 
L 53.609375 8.296875 
L 53.609375 0 
L 7.328125 0 
L 7.328125 8.296875 
Q 12.9375 14.109375 22.625 23.890625 
Q 32.328125 33.6875 34.8125 36.53125 
Q 39.546875 41.84375 41.421875 45.53125 
Q 43.3125 49.21875 43.3125 52.78125 
Q 43.3125 58.59375 39.234375 62.25 
Q 35.15625 65.921875 28.609375 65.921875 
Q 23.96875 65.921875 18.8125 64.3125 
Q 13.671875 62.703125 7.8125 59.421875 
L 7.8125 69.390625 
Q 13.765625 71.78125 18.9375 73 
Q 24.125 74.21875 28.421875 74.21875 
Q 39.75 74.21875 46.484375 68.546875 
Q 53.21875 62.890625 53.21875 53.421875 
Q 53.21875 48.921875 51.53125 44.890625 
Q 49.859375 40.875 45.40625 35.40625 
Q 44.1875 33.984375 37.640625 27.21875 
Q 31.109375 20.453125 19.1875 8.296875 
" id="BitstreamVeraSans-Roman-32"/>
      </defs>
      <g transform="translate(24.984375 108.059375)scale(0.1 -0.1)">
       <use xlink:href="#BitstreamVeraSans-Roman-30"/>
       <use x="63.623046875" xlink:href="#BitstreamVeraSans-Roman-2e"/>
       <use x="95.41015625" xlink:href="#BitstreamVeraSans-Roman-32"/>
      </g>
     </g>
    </g>
    <g id="ytick_3">
     <g id="line2d_25">
      <g>
       <use style="stroke:#000000;stroke-width:0.5;" x="44.8875" xlink:href="#m5cf7dc86d8" y="82.8"/>
      </g>
     </g>
     <g id="line2d_26">
      <g>
       <use style="stroke:#000000;stroke-width:0.5;" x="153.15" xlink:href="#mf36066b384" y="82.8"/>
      </g>
     </g>
     <g id="text_11">
      <!-- 0.4 -->
      <g transform="translate(24.984375 85.559375)scale(0.1 -0.1)">
       <use xlink:href="#BitstreamVeraSans-Roman-30"/>
       <use x="63.623046875" xlink:href="#BitstreamVeraSans-Roman-2e"/>
       <use x="95.41015625" xlink:href="#BitstreamVeraSans-Roman-34"/>
      </g>
     </g>
    </g>
    <g id="ytick_4">
     <g id="line2d_27">
      <g>
       <use style="stroke:#000000;stroke-width:0.5;" x="44.8875" xlink:href="#m5cf7dc86d8" y="60.3"/>
      </g>
     </g>
     <g id="line2d_28">
      <g>
       <use style="stroke:#000000;stroke-width:0.5;" x="153.15" xlink:href="#mf36066b384" y="60.3"/>
      </g>
     </g>
     <g id="text_12">
      <!-- 0.6 -->
      <g transform="translate(24.984375 63.059375)scale(0.1 -0.1)">
       <use xlink:href="#BitstreamVeraSans-Roman-30"/>
       <use x="63.623046875" xlink:href="#BitstreamVeraSans-Roman-2e"/>
       <use x="95.41015625" xlink:href="#BitstreamVeraSans-Roman-36"/>
      </g>
     </g>
    </g>
    <g id="ytick_5">
     <g id="line2d_29">
      <g>
       <use style="stroke:#000000;stroke-width:0.5;" x="44.8875" xlink:href="#m5cf7dc86d8" y="37.8"/>
      </g>
     </g>
     <g id="line2d_30">
      <g>
       <use style="stroke:#000000;stroke-width:0.5;" x="153.15" xlink:href="#mf36066b384" y="37.8"/>
      </g>
     </g>
     <g id="text_13">
      <!-- 0.8 -->
      <defs>
       <path d="M 31.78125 34.625 
Q 24.75 34.625 20.71875 30.859375 
Q 16.703125 27.09375 16.703125 20.515625 
Q 16.703125 13.921875 20.71875 10.15625 
Q 24.75 6.390625 31.78125 6.390625 
Q 38.8125 6.390625 42.859375 10.171875 
Q 46.921875 13.96875 46.921875 20.515625 
Q 46.921875 27.09375 42.890625 30.859375 
Q 38.875 34.625 31.78125 34.625 
M 21.921875 38.8125 
Q 15.578125 40.375 12.03125 44.71875 
Q 8.5 49.078125 8.5 55.328125 
Q 8.5 64.0625 14.71875 69.140625 
Q 20.953125 74.21875 31.78125 74.21875 
Q 42.671875 74.21875 48.875 69.140625 
Q 55.078125 64.0625 55.078125 55.328125 
Q 55.078125 49.078125 51.53125 44.71875 
Q 48 40.375 41.703125 38.8125 
Q 48.828125 37.15625 52.796875 32.3125 
Q 56.78125 27.484375 56.78125 20.515625 
Q 56.78125 9.90625 50.3125 4.234375 
Q 43.84375 -1.421875 31.78125 -1.421875 
Q 19.734375 -1.421875 13.25 4.234375 
Q 6.78125 9.90625 6.78125 20.515625 
Q 6.78125 27.484375 10.78125 32.3125 
Q 14.796875 37.15625 21.921875 38.8125 
M 18.3125 54.390625 
Q 18.3125 48.734375 21.84375 45.5625 
Q 25.390625 42.390625 31.78125 42.390625 
Q 38.140625 42.390625 41.71875 45.5625 
Q 45.3125 48.734375 45.3125 54.390625 
Q 45.3125 60.0625 41.71875 63.234375 
Q 38.140625 66.40625 31.78125 66.40625 
Q 25.390625 66.40625 21.84375 63.234375 
Q 18.3125 60.0625 18.3125 54.390625 
" id="BitstreamVeraSans-Roman-38"/>
      </defs>
      <g transform="translate(24.984375 40.559375)scale(0.1 -0.1)">
       <use xlink:href="#BitstreamVeraSans-Roman-30"/>
       <use x="63.623046875" xlink:href="#BitstreamVeraSans-Roman-2e"/>
       <use x="95.41015625" xlink:href="#BitstreamVeraSans-Roman-38"/>
      </g>
     </g>
    </g>
    <g id="ytick_6">
     <g id="line2d_31">
      <g>
       <use style="stroke:#000000;stroke-width:0.5;" x="44.8875" xlink:href="#m5cf7dc86d8" y="15.3"/>
      </g>
     </g>
     <g id="line2d_32">
      <g>
       <use style="stroke:#000000;stroke-width:0.5;" x="153.15" xlink:href="#mf36066b384" y="15.3"/>
      </g>
     </g>
     <g id="text_14">
      <!-- 1.0 -->
      <defs>
       <path d="M 12.40625 8.296875 
L 28.515625 8.296875 
L 28.515625 63.921875 
L 10.984375 60.40625 
L 10.984375 69.390625 
L 28.421875 72.90625 
L 38.28125 72.90625 
L 38.28125 8.296875 
L 54.390625 8.296875 
L 54.390625 0 
L 12.40625 0 
z
" id="BitstreamVeraSans-Roman-31"/>
      </defs>
      <g transform="translate(24.984375 18.059375)scale(0.1 -0.1)">
       <use xlink:href="#BitstreamVeraSans-Roman-31"/>
       <use x="63.623046875" xlink:href="#BitstreamVeraSans-Roman-2e"/>
       <use x="95.41015625" xlink:href="#BitstreamVeraSans-Roman-30"/>
      </g>
     </g>
    </g>
    <g id="text_15">
     <!-- Cumulative Distribution -->
     <defs>
      <path d="M 41.109375 46.296875 
Q 39.59375 47.171875 37.8125 47.578125 
Q 36.03125 48 33.890625 48 
Q 26.265625 48 22.1875 43.046875 
Q 18.109375 38.09375 18.109375 28.8125 
L 18.109375 0 
L 9.078125 0 
L 9.078125 54.6875 
L 18.109375 54.6875 
L 18.109375 46.1875 
Q 20.953125 51.171875 25.484375 53.578125 
Q 30.03125 56 36.53125 56 
Q 37.453125 56 38.578125 55.875 
Q 39.703125 55.765625 41.0625 55.515625 
z
" id="BitstreamVeraSans-Roman-72"/>
      <path d="M 9.421875 75.984375 
L 18.40625 75.984375 
L 18.40625 0 
L 9.421875 0 
z
" id="BitstreamVeraSans-Roman-6c"/>
      <path d="M 19.671875 64.796875 
L 19.671875 8.109375 
L 31.59375 8.109375 
Q 46.6875 8.109375 53.6875 14.9375 
Q 60.6875 21.78125 60.6875 36.53125 
Q 60.6875 51.171875 53.6875 57.984375 
Q 46.6875 64.796875 31.59375 64.796875 
z
M 9.8125 72.90625 
L 30.078125 72.90625 
Q 51.265625 72.90625 61.171875 64.09375 
Q 71.09375 55.28125 71.09375 36.53125 
Q 71.09375 17.671875 61.125 8.828125 
Q 51.171875 0 30.078125 0 
L 9.8125 0 
z
" id="BitstreamVeraSans-Roman-44"/>
      <path d="M 9.421875 54.6875 
L 18.40625 54.6875 
L 18.40625 0 
L 9.421875 0 
z
M 9.421875 75.984375 
L 18.40625 75.984375 
L 18.40625 64.59375 
L 9.421875 64.59375 
z
" id="BitstreamVeraSans-Roman-69"/>
      <path d="M 2.984375 54.6875 
L 12.5 54.6875 
L 29.59375 8.796875 
L 46.6875 54.6875 
L 56.203125 54.6875 
L 35.6875 0 
L 23.484375 0 
z
" id="BitstreamVeraSans-Roman-76"/>
      <path d="M 64.40625 67.28125 
L 64.40625 56.890625 
Q 59.421875 61.53125 53.78125 63.8125 
Q 48.140625 66.109375 41.796875 66.109375 
Q 29.296875 66.109375 22.65625 58.46875 
Q 16.015625 50.828125 16.015625 36.375 
Q 16.015625 21.96875 22.65625 14.328125 
Q 29.296875 6.6875 41.796875 6.6875 
Q 48.140625 6.6875 53.78125 8.984375 
Q 59.421875 11.28125 64.40625 15.921875 
L 64.40625 5.609375 
Q 59.234375 2.09375 53.4375 0.328125 
Q 47.65625 -1.421875 41.21875 -1.421875 
Q 24.65625 -1.421875 15.125 8.703125 
Q 5.609375 18.84375 5.609375 36.375 
Q 5.609375 53.953125 15.125 64.078125 
Q 24.65625 74.21875 41.21875 74.21875 
Q 47.75 74.21875 53.53125 72.484375 
Q 59.328125 70.75 64.40625 67.28125 
" id="BitstreamVeraSans-Roman-43"/>
      <path d="M 8.5 21.578125 
L 8.5 54.6875 
L 17.484375 54.6875 
L 17.484375 21.921875 
Q 17.484375 14.15625 20.5 10.265625 
Q 23.53125 6.390625 29.59375 6.390625 
Q 36.859375 6.390625 41.078125 11.03125 
Q 45.3125 15.671875 45.3125 23.6875 
L 45.3125 54.6875 
L 54.296875 54.6875 
L 54.296875 0 
L 45.3125 0 
L 45.3125 8.40625 
Q 42.046875 3.421875 37.71875 1 
Q 33.40625 -1.421875 27.6875 -1.421875 
Q 18.265625 -1.421875 13.375 4.4375 
Q 8.5 10.296875 8.5 21.578125 
" id="BitstreamVeraSans-Roman-75"/>
      <path d="M 34.28125 27.484375 
Q 23.390625 27.484375 19.1875 25 
Q 14.984375 22.515625 14.984375 16.5 
Q 14.984375 11.71875 18.140625 8.90625 
Q 21.296875 6.109375 26.703125 6.109375 
Q 34.1875 6.109375 38.703125 11.40625 
Q 43.21875 16.703125 43.21875 25.484375 
L 43.21875 27.484375 
z
M 52.203125 31.203125 
L 52.203125 0 
L 43.21875 0 
L 43.21875 8.296875 
Q 40.140625 3.328125 35.546875 0.953125 
Q 30.953125 -1.421875 24.3125 -1.421875 
Q 15.921875 -1.421875 10.953125 3.296875 
Q 6 8.015625 6 15.921875 
Q 6 25.140625 12.171875 29.828125 
Q 18.359375 34.515625 30.609375 34.515625 
L 43.21875 34.515625 
L 43.21875 35.40625 
Q 43.21875 41.609375 39.140625 45 
Q 35.0625 48.390625 27.6875 48.390625 
Q 23 48.390625 18.546875 47.265625 
Q 14.109375 46.140625 10.015625 43.890625 
L 10.015625 52.203125 
Q 14.9375 54.109375 19.578125 55.046875 
Q 24.21875 56 28.609375 56 
Q 40.484375 56 46.34375 49.84375 
Q 52.203125 43.703125 52.203125 31.203125 
" id="BitstreamVeraSans-Roman-61"/>
      <path d="M 44.28125 53.078125 
L 44.28125 44.578125 
Q 40.484375 46.53125 36.375 47.5 
Q 32.28125 48.484375 27.875 48.484375 
Q 21.1875 48.484375 17.84375 46.4375 
Q 14.5 44.390625 14.5 40.28125 
Q 14.5 37.15625 16.890625 35.375 
Q 19.28125 33.59375 26.515625 31.984375 
L 29.59375 31.296875 
Q 39.15625 29.25 43.1875 25.515625 
Q 47.21875 21.78125 47.21875 15.09375 
Q 47.21875 7.46875 41.1875 3.015625 
Q 35.15625 -1.421875 24.609375 -1.421875 
Q 20.21875 -1.421875 15.453125 -0.5625 
Q 10.6875 0.296875 5.421875 2 
L 5.421875 11.28125 
Q 10.40625 8.6875 15.234375 7.390625 
Q 20.0625 6.109375 24.8125 6.109375 
Q 31.15625 6.109375 34.5625 8.28125 
Q 37.984375 10.453125 37.984375 14.40625 
Q 37.984375 18.0625 35.515625 20.015625 
Q 33.0625 21.96875 24.703125 23.78125 
L 21.578125 24.515625 
Q 13.234375 26.265625 9.515625 29.90625 
Q 5.8125 33.546875 5.8125 39.890625 
Q 5.8125 47.609375 11.28125 51.796875 
Q 16.75 56 26.8125 56 
Q 31.78125 56 36.171875 55.265625 
Q 40.578125 54.546875 44.28125 53.078125 
" id="BitstreamVeraSans-Roman-73"/>
      <path d="M 48.6875 27.296875 
Q 48.6875 37.203125 44.609375 42.84375 
Q 40.53125 48.484375 33.40625 48.484375 
Q 26.265625 48.484375 22.1875 42.84375 
Q 18.109375 37.203125 18.109375 27.296875 
Q 18.109375 17.390625 22.1875 11.75 
Q 26.265625 6.109375 33.40625 6.109375 
Q 40.53125 6.109375 44.609375 11.75 
Q 48.6875 17.390625 48.6875 27.296875 
M 18.109375 46.390625 
Q 20.953125 51.265625 25.265625 53.625 
Q 29.59375 56 35.59375 56 
Q 45.5625 56 51.78125 48.09375 
Q 58.015625 40.1875 58.015625 27.296875 
Q 58.015625 14.40625 51.78125 6.484375 
Q 45.5625 -1.421875 35.59375 -1.421875 
Q 29.59375 -1.421875 25.265625 0.953125 
Q 20.953125 3.328125 18.109375 8.203125 
L 18.109375 0 
L 9.078125 0 
L 9.078125 75.984375 
L 18.109375 75.984375 
z
" id="BitstreamVeraSans-Roman-62"/>
     </defs>
     <g transform="translate(17.9046875 130.8453125)rotate(-90.0)scale(0.1 -0.1)">
      <use xlink:href="#BitstreamVeraSans-Roman-43"/>
      <use x="69.82421875" xlink:href="#BitstreamVeraSans-Roman-75"/>
      <use x="133.203125" xlink:href="#BitstreamVeraSans-Roman-6d"/>
      <use x="230.615234375" xlink:href="#BitstreamVeraSans-Roman-75"/>
      <use x="293.994140625" xlink:href="#BitstreamVeraSans-Roman-6c"/>
      <use x="321.77734375" xlink:href="#BitstreamVeraSans-Roman-61"/>
      <use x="383.056640625" xlink:href="#BitstreamVeraSans-Roman-74"/>
      <use x="422.265625" xlink:href="#BitstreamVeraSans-Roman-69"/>
      <use x="450.048828125" xlink:href="#BitstreamVeraSans-Roman-76"/>
      <use x="509.228515625" xlink:href="#BitstreamVeraSans-Roman-65"/>
      <use x="570.751953125" xlink:href="#BitstreamVeraSans-Roman-20"/>
      <use x="602.5390625" xlink:href="#BitstreamVeraSans-Roman-44"/>
      <use x="679.541015625" xlink:href="#BitstreamVeraSans-Roman-69"/>
      <use x="707.32421875" xlink:href="#BitstreamVeraSans-Roman-73"/>
      <use x="759.423828125" xlink:href="#BitstreamVeraSans-Roman-74"/>
      <use x="798.6328125" xlink:href="#BitstreamVeraSans-Roman-72"/>
      <use x="839.74609375" xlink:href="#BitstreamVeraSans-Roman-69"/>
      <use x="867.529296875" xlink:href="#BitstreamVeraSans-Roman-62"/>
      <use x="931.005859375" xlink:href="#BitstreamVeraSans-Roman-75"/>
      <use x="994.384765625" xlink:href="#BitstreamVeraSans-Roman-74"/>
      <use x="1033.59375" xlink:href="#BitstreamVeraSans-Roman-69"/>
      <use x="1061.37695312" xlink:href="#BitstreamVeraSans-Roman-6f"/>
      <use x="1122.55859375" xlink:href="#BitstreamVeraSans-Roman-6e"/>
     </g>
    </g>
   </g>
  </g>
  <g id="axes_2">
   <g id="patch_7">
    <path d="M 209.2875 127.8 
L 317.55 127.8 
L 317.55 15.3 
L 209.2875 15.3 
z
" style="fill:#ffffff;"/>
   </g>
   <g id="line2d_33">
    <path clip-path="url(#p92fae9c0c6)" d="M 222.96935 127.8 
L 235.213907 127.3725 
L 235.655636 127.2825 
L 237.664737 126.99 
L 238.3739 126.7425 
L 238.429032 126.6975 
L 239.710754 126.4725 
L 239.911062 126.3375 
L 239.935183 126.315 
L 240.924786 126.1125 
L 240.935605 126.09 
L 241.459824 125.91 
L 242.753498 125.28 
L 243.328961 125.055 
L 244.078736 124.605 
L 244.230551 124.4925 
L 244.594972 124.2675 
L 244.879291 124.1325 
L 245.301623 123.9975 
L 246.007953 123.6375 
L 246.269023 123.39 
L 246.494251 123.165 
L 248.577 120.735 
L 248.716172 120.6 
L 248.849306 120.33 
L 249.062695 120.1725 
L 249.512454 119.565 
L 249.684253 119.3625 
L 249.853901 119.1375 
L 250.009815 118.71 
L 250.275238 118.2825 
L 250.633775 117.585 
L 250.865361 117.2925 
L 251.352649 116.64 
L 251.492104 116.4825 
L 251.605171 116.28 
L 252.03357 115.695 
L 252.379617 115.2 
L 252.605528 114.705 
L 252.668963 114.5475 
L 252.979606 113.8725 
L 253.082762 113.5575 
L 253.205577 113.3325 
L 253.289922 113.1075 
L 253.426274 112.8375 
L 253.611094 112.5675 
L 253.896858 112.05 
L 254.003646 111.735 
L 254.070877 111.5325 
L 254.275922 111.015 
L 254.360453 110.8125 
L 254.671962 110.0925 
L 255.008422 109.5525 
L 255.293901 108.7875 
L 255.526635 108.1125 
L 255.653237 107.7525 
L 255.744899 107.5725 
L 255.984631 106.9875 
L 256.065832 106.7625 
L 256.225467 106.2675 
L 256.300075 106.11 
L 256.498216 105.5925 
L 256.710251 105.12 
L 256.80834 104.76 
L 256.884298 104.535 
L 257.004024 104.22 
L 257.224024 103.7025 
L 257.810777 102.06 
L 257.890391 101.7675 
L 258.853681 98.6625 
L 259.147759 97.4925 
L 259.234727 97.335 
L 260.56191 92.655 
L 260.849786 91.5075 
L 260.97237 91.17 
L 261.126146 90.6075 
L 261.193889 90.405 
L 261.554651 89.28 
L 261.673279 88.8075 
L 261.72193 88.6275 
L 262.023814 87.525 
L 262.165886 87.03 
L 262.433299 86.1525 
L 262.598719 85.5 
L 262.704199 85.095 
L 263.372242 83.025 
L 263.488089 82.755 
L 263.694751 81.675 
L 263.756594 81.495 
L 263.889347 81.09 
L 264.292032 79.605 
L 264.386914 79.335 
L 264.542815 78.66 
L 264.736096 77.85 
L 264.856064 77.445 
L 266.029947 72.9225 
L 266.245578 71.775 
L 266.754627 69.75 
L 266.833273 69.4575 
L 266.948433 68.94 
L 267.01512 68.49 
L 267.401244 66.8475 
L 267.586715 66.15 
L 267.811604 65.2725 
L 267.906381 65.0025 
L 268.028302 64.6425 
L 268.21297 64.0125 
L 268.335597 63.3825 
L 268.426909 63.0225 
L 269.67075 57.78 
L 269.809324 57.24 
L 270.024372 56.475 
L 270.179536 56.025 
L 270.347331 55.5975 
L 270.428441 55.3725 
L 271.7043 50.085 
L 271.804905 49.77 
L 271.92002 49.275 
L 272.316103 47.88 
L 272.432058 47.5425 
L 272.654174 46.755 
L 272.768165 46.3725 
L 273.271369 44.73 
L 273.439217 44.1 
L 273.497224 43.83 
L 273.645924 43.3125 
L 273.941395 42.4125 
L 274.047937 42.0975 
L 274.247122 41.6925 
L 274.333303 41.4 
L 274.394932 41.2425 
L 274.585278 40.725 
L 274.667942 40.545 
L 278.253631 31.4325 
L 278.782182 30.33 
L 279.249106 29.0475 
L 279.372597 28.8 
L 279.516117 28.395 
L 279.65968 28.1925 
L 279.779366 27.9225 
L 280.065643 27.27 
L 280.168374 27.0225 
L 280.278616 26.8875 
L 280.540092 26.2575 
L 280.684369 26.055 
L 280.801522 25.83 
L 283.273262 22.2075 
L 283.551038 21.8925 
L 284.195304 20.8575 
L 284.504769 20.655 
L 284.631925 20.5425 
L 286.440563 18.6075 
L 286.881162 18.405 
L 286.983204 18.2475 
L 288.022468 17.82 
L 288.310501 17.6625 
L 288.818438 17.415 
L 289.056536 17.28 
L 289.991023 16.9425 
L 290.104414 16.8525 
L 292.059792 16.3125 
L 292.618827 16.1325 
L 292.953105 16.0425 
L 295.112992 15.705 
L 295.40999 15.615 
L 298.264324 15.48 
L 298.846091 15.435 
L 309.56972 15.3225 
L 309.56972 15.3225 
" style="fill:none;stroke:#ff0000;stroke-linecap:square;"/>
   </g>
   <g id="line2d_34">
    <path clip-path="url(#p92fae9c0c6)" d="M 243.537181 127.8 
L 243.537181 15.3 
" style="fill:none;stroke:#ff0000;stroke-linecap:square;"/>
   </g>
   <g id="line2d_35">
    <path clip-path="url(#p92fae9c0c6)" d="M 287.294078 127.8 
L 287.294078 15.3 
" style="fill:none;stroke:#ff0000;stroke-linecap:square;"/>
   </g>
   <g id="line2d_36">
    <path clip-path="url(#p92fae9c0c6)" d="M 222.78522 127.8 
L 229.602986 127.7775 
L 234.695498 127.665 
L 236.369909 127.485 
L 239.889423 126.9675 
L 239.898863 126.9225 
L 240.631294 126.7425 
L 240.65662 126.72 
L 241.472488 126.5625 
L 241.740592 126.5175 
L 244.849974 125.19 
L 244.996873 125.1225 
L 245.330629 124.9425 
L 246.896582 124.065 
L 247.418162 123.5925 
L 247.876211 123.345 
L 247.986488 123.2325 
L 248.725894 122.7825 
L 248.910855 122.625 
L 249.065691 122.3325 
L 249.314916 122.13 
L 249.449926 121.905 
L 252.535402 117.0225 
L 252.654138 116.7075 
L 253.076695 115.785 
L 253.528069 114.93 
L 253.726392 114.5475 
L 253.858248 114.3 
L 253.992889 114.12 
L 254.089232 113.8275 
L 254.33252 113.535 
L 254.982709 112.41 
L 255.101512 112.23 
L 255.325891 111.78 
L 255.512761 111.5325 
L 255.8204 110.9925 
L 255.997532 110.565 
L 256.11008 110.3625 
L 256.528087 109.4625 
L 256.647658 109.215 
L 256.770367 108.72 
L 257.171462 107.64 
L 257.402824 107.1675 
L 257.747684 106.1775 
L 258.140902 105.345 
L 258.311053 104.8725 
L 258.433964 104.49 
L 258.538898 104.1525 
L 258.612541 103.9725 
L 258.758457 103.4325 
L 258.938539 102.9375 
L 259.235834 102.15 
L 259.350595 101.8125 
L 259.437749 101.4975 
L 259.5604 101.295 
L 260.054536 99.7875 
L 260.158053 99.5625 
L 260.381401 98.865 
L 260.479162 98.685 
L 260.702807 97.965 
L 260.785441 97.695 
L 262.061031 93.5775 
L 262.329909 92.4975 
L 262.394451 92.295 
L 262.569898 91.6425 
L 262.692529 91.215 
L 262.808539 90.6075 
L 262.906322 90.36 
L 263.011152 89.9775 
L 263.060172 89.7525 
L 263.203744 89.1675 
L 263.363979 88.6725 
L 263.483259 88.1325 
L 265.551269 80.865 
L 265.765275 80.145 
L 265.841499 79.92 
L 265.955516 79.5375 
L 266.005179 79.3575 
L 268.667561 68.67 
L 268.72939 68.4225 
L 268.858362 67.7475 
L 269.053042 66.9825 
L 269.113225 66.8025 
L 269.283939 66.1725 
L 269.346615 65.835 
L 269.466553 65.1375 
L 269.650799 64.485 
L 270.258984 62.1675 
L 270.637731 60.3675 
L 270.748833 60.075 
L 270.833679 59.67 
L 270.892127 59.49 
L 271.265215 57.9375 
L 271.342268 57.6225 
L 271.447022 57.3525 
L 271.561882 57.1275 
L 271.632479 56.7 
L 271.806947 55.935 
L 271.913954 55.71 
L 272.178813 54.6975 
L 272.316959 54.3825 
L 272.829981 52.11 
L 273.038093 51.39 
L 273.185529 50.76 
L 273.237433 50.5575 
L 273.44502 49.68 
L 273.511837 49.5225 
L 273.96989 47.475 
L 274.050353 47.205 
L 274.118393 46.89 
L 274.323715 45.9675 
L 274.484401 45.54 
L 274.831651 44.0775 
L 274.905191 43.8975 
L 275.587396 41.76 
L 275.68379 41.5125 
L 275.803916 41.085 
L 275.949383 40.6125 
L 276.326413 39.3525 
L 276.456552 38.8575 
L 276.69667 38.3175 
L 276.826187 37.8675 
L 277.478778 36.2475 
L 277.620252 35.73 
L 278.184098 34.2675 
L 278.457736 33.255 
L 278.610038 32.8725 
L 278.722474 32.6025 
L 278.897406 32.355 
L 279.169589 31.7475 
L 279.272263 31.59 
L 279.39144 31.2975 
L 279.491051 30.9825 
L 279.595606 30.7575 
L 279.680129 30.6675 
L 279.770043 30.51 
L 279.85648 30.3075 
L 280.006028 29.9475 
L 280.562105 28.845 
L 280.658635 28.5525 
L 280.872699 28.35 
L 281.235307 27.5625 
L 281.509191 27.1125 
L 281.619729 26.9775 
L 281.885588 26.325 
L 281.992614 26.145 
L 283.192183 24.0525 
L 284.164853 22.5225 
L 284.287168 22.3425 
L 284.492544 22.14 
L 284.681219 21.8475 
L 284.925589 21.6675 
L 285.101372 21.51 
L 285.323479 21.3525 
L 285.456727 21.1725 
L 285.727707 20.835 
L 285.931909 20.61 
L 286.057525 20.385 
L 287.532447 18.99 
L 287.676525 18.81 
L 288.619465 18.09 
L 289.03299 17.91 
L 289.364434 17.6625 
L 289.915263 17.3025 
L 293.947783 15.93 
L 295.728348 15.6825 
L 298.533173 15.4575 
L 305.458252 15.3225 
L 305.458252 15.3225 
" style="fill:none;stroke:#0000ff;stroke-linecap:square;"/>
   </g>
   <g id="line2d_37">
    <path clip-path="url(#p92fae9c0c6)" d="M 245.302691 127.8 
L 245.302691 15.3 
" style="fill:none;stroke:#0000ff;stroke-dasharray:6.000000,6.000000;stroke-dashoffset:0.0;"/>
   </g>
   <g id="line2d_38">
    <path clip-path="url(#p92fae9c0c6)" d="M 288.600219 127.8 
L 288.600219 15.3 
" style="fill:none;stroke:#0000ff;stroke-dasharray:6.000000,6.000000;stroke-dashoffset:0.0;"/>
   </g>
   <g id="patch_8">
    <path d="M 209.2875 15.3 
L 317.55 15.3 
" style="fill:none;stroke:#000000;stroke-linecap:square;stroke-linejoin:miter;"/>
   </g>
   <g id="patch_9">
    <path d="M 317.55 127.8 
L 317.55 15.3 
" style="fill:none;stroke:#000000;stroke-linecap:square;stroke-linejoin:miter;"/>
   </g>
   <g id="patch_10">
    <path d="M 209.2875 127.8 
L 317.55 127.8 
" style="fill:none;stroke:#000000;stroke-linecap:square;stroke-linejoin:miter;"/>
   </g>
   <g id="patch_11">
    <path d="M 209.2875 127.8 
L 209.2875 15.3 
" style="fill:none;stroke:#000000;stroke-linecap:square;stroke-linejoin:miter;"/>
   </g>
   <g id="matplotlib.axis_3">
    <g id="xtick_8">
     <g id="line2d_39">
      <g>
       <use style="stroke:#000000;stroke-width:0.5;" x="209.2875" xlink:href="#mab768ee742" y="127.8"/>
      </g>
     </g>
     <g id="line2d_40">
      <g>
       <use style="stroke:#000000;stroke-width:0.5;" x="209.2875" xlink:href="#m2efe55d5c3" y="15.3"/>
      </g>
     </g>
     <g id="text_16">
      <!-- 0.15 -->
      <g transform="translate(198.1546875 139.3984375)scale(0.1 -0.1)">
       <use xlink:href="#BitstreamVeraSans-Roman-30"/>
       <use x="63.623046875" xlink:href="#BitstreamVeraSans-Roman-2e"/>
       <use x="95.41015625" xlink:href="#BitstreamVeraSans-Roman-31"/>
       <use x="159.033203125" xlink:href="#BitstreamVeraSans-Roman-35"/>
      </g>
     </g>
    </g>
    <g id="xtick_9">
     <g id="line2d_41">
      <g>
       <use style="stroke:#000000;stroke-width:0.5;" x="224.753571429" xlink:href="#mab768ee742" y="127.8"/>
      </g>
     </g>
     <g id="line2d_42">
      <g>
       <use style="stroke:#000000;stroke-width:0.5;" x="224.753571429" xlink:href="#m2efe55d5c3" y="15.3"/>
      </g>
     </g>
     <g id="text_17">
      <!-- 0.20 -->
      <g transform="translate(213.620758929 139.3984375)scale(0.1 -0.1)">
       <use xlink:href="#BitstreamVeraSans-Roman-30"/>
       <use x="63.623046875" xlink:href="#BitstreamVeraSans-Roman-2e"/>
       <use x="95.41015625" xlink:href="#BitstreamVeraSans-Roman-32"/>
       <use x="159.033203125" xlink:href="#BitstreamVeraSans-Roman-30"/>
      </g>
     </g>
    </g>
    <g id="xtick_10">
     <g id="line2d_43">
      <g>
       <use style="stroke:#000000;stroke-width:0.5;" x="240.219642857" xlink:href="#mab768ee742" y="127.8"/>
      </g>
     </g>
     <g id="line2d_44">
      <g>
       <use style="stroke:#000000;stroke-width:0.5;" x="240.219642857" xlink:href="#m2efe55d5c3" y="15.3"/>
      </g>
     </g>
     <g id="text_18">
      <!-- 0.25 -->
      <g transform="translate(229.086830357 139.3984375)scale(0.1 -0.1)">
       <use xlink:href="#BitstreamVeraSans-Roman-30"/>
       <use x="63.623046875" xlink:href="#BitstreamVeraSans-Roman-2e"/>
       <use x="95.41015625" xlink:href="#BitstreamVeraSans-Roman-32"/>
       <use x="159.033203125" xlink:href="#BitstreamVeraSans-Roman-35"/>
      </g>
     </g>
    </g>
    <g id="xtick_11">
     <g id="line2d_45">
      <g>
       <use style="stroke:#000000;stroke-width:0.5;" x="255.685714286" xlink:href="#mab768ee742" y="127.8"/>
      </g>
     </g>
     <g id="line2d_46">
      <g>
       <use style="stroke:#000000;stroke-width:0.5;" x="255.685714286" xlink:href="#m2efe55d5c3" y="15.3"/>
      </g>
     </g>
     <g id="text_19">
      <!-- 0.30 -->
      <defs>
       <path d="M 40.578125 39.3125 
Q 47.65625 37.796875 51.625 33 
Q 55.609375 28.21875 55.609375 21.1875 
Q 55.609375 10.40625 48.1875 4.484375 
Q 40.765625 -1.421875 27.09375 -1.421875 
Q 22.515625 -1.421875 17.65625 -0.515625 
Q 12.796875 0.390625 7.625 2.203125 
L 7.625 11.71875 
Q 11.71875 9.328125 16.59375 8.109375 
Q 21.484375 6.890625 26.8125 6.890625 
Q 36.078125 6.890625 40.9375 10.546875 
Q 45.796875 14.203125 45.796875 21.1875 
Q 45.796875 27.640625 41.28125 31.265625 
Q 36.765625 34.90625 28.71875 34.90625 
L 20.21875 34.90625 
L 20.21875 43.015625 
L 29.109375 43.015625 
Q 36.375 43.015625 40.234375 45.921875 
Q 44.09375 48.828125 44.09375 54.296875 
Q 44.09375 59.90625 40.109375 62.90625 
Q 36.140625 65.921875 28.71875 65.921875 
Q 24.65625 65.921875 20.015625 65.03125 
Q 15.375 64.15625 9.8125 62.3125 
L 9.8125 71.09375 
Q 15.4375 72.65625 20.34375 73.4375 
Q 25.25 74.21875 29.59375 74.21875 
Q 40.828125 74.21875 47.359375 69.109375 
Q 53.90625 64.015625 53.90625 55.328125 
Q 53.90625 49.265625 50.4375 45.09375 
Q 46.96875 40.921875 40.578125 39.3125 
" id="BitstreamVeraSans-Roman-33"/>
      </defs>
      <g transform="translate(244.552901786 139.3984375)scale(0.1 -0.1)">
       <use xlink:href="#BitstreamVeraSans-Roman-30"/>
       <use x="63.623046875" xlink:href="#BitstreamVeraSans-Roman-2e"/>
       <use x="95.41015625" xlink:href="#BitstreamVeraSans-Roman-33"/>
       <use x="159.033203125" xlink:href="#BitstreamVeraSans-Roman-30"/>
      </g>
     </g>
    </g>
    <g id="xtick_12">
     <g id="line2d_47">
      <g>
       <use style="stroke:#000000;stroke-width:0.5;" x="271.151785714" xlink:href="#mab768ee742" y="127.8"/>
      </g>
     </g>
     <g id="line2d_48">
      <g>
       <use style="stroke:#000000;stroke-width:0.5;" x="271.151785714" xlink:href="#m2efe55d5c3" y="15.3"/>
      </g>
     </g>
     <g id="text_20">
      <!-- 0.35 -->
      <g transform="translate(260.018973214 139.3984375)scale(0.1 -0.1)">
       <use xlink:href="#BitstreamVeraSans-Roman-30"/>
       <use x="63.623046875" xlink:href="#BitstreamVeraSans-Roman-2e"/>
       <use x="95.41015625" xlink:href="#BitstreamVeraSans-Roman-33"/>
       <use x="159.033203125" xlink:href="#BitstreamVeraSans-Roman-35"/>
      </g>
     </g>
    </g>
    <g id="xtick_13">
     <g id="line2d_49">
      <g>
       <use style="stroke:#000000;stroke-width:0.5;" x="286.617857143" xlink:href="#mab768ee742" y="127.8"/>
      </g>
     </g>
     <g id="line2d_50">
      <g>
       <use style="stroke:#000000;stroke-width:0.5;" x="286.617857143" xlink:href="#m2efe55d5c3" y="15.3"/>
      </g>
     </g>
     <g id="text_21">
      <!-- 0.40 -->
      <g transform="translate(275.485044643 139.3984375)scale(0.1 -0.1)">
       <use xlink:href="#BitstreamVeraSans-Roman-30"/>
       <use x="63.623046875" xlink:href="#BitstreamVeraSans-Roman-2e"/>
       <use x="95.41015625" xlink:href="#BitstreamVeraSans-Roman-34"/>
       <use x="159.033203125" xlink:href="#BitstreamVeraSans-Roman-30"/>
      </g>
     </g>
    </g>
    <g id="xtick_14">
     <g id="line2d_51">
      <g>
       <use style="stroke:#000000;stroke-width:0.5;" x="302.083928571" xlink:href="#mab768ee742" y="127.8"/>
      </g>
     </g>
     <g id="line2d_52">
      <g>
       <use style="stroke:#000000;stroke-width:0.5;" x="302.083928571" xlink:href="#m2efe55d5c3" y="15.3"/>
      </g>
     </g>
     <g id="text_22">
      <!-- 0.45 -->
      <g transform="translate(290.951116071 139.3984375)scale(0.1 -0.1)">
       <use xlink:href="#BitstreamVeraSans-Roman-30"/>
       <use x="63.623046875" xlink:href="#BitstreamVeraSans-Roman-2e"/>
       <use x="95.41015625" xlink:href="#BitstreamVeraSans-Roman-34"/>
       <use x="159.033203125" xlink:href="#BitstreamVeraSans-Roman-35"/>
      </g>
     </g>
    </g>
    <g id="xtick_15">
     <g id="line2d_53">
      <g>
       <use style="stroke:#000000;stroke-width:0.5;" x="317.55" xlink:href="#mab768ee742" y="127.8"/>
      </g>
     </g>
     <g id="line2d_54">
      <g>
       <use style="stroke:#000000;stroke-width:0.5;" x="317.55" xlink:href="#m2efe55d5c3" y="15.3"/>
      </g>
     </g>
     <g id="text_23">
      <!-- 0.50 -->
      <g transform="translate(306.4171875 139.3984375)scale(0.1 -0.1)">
       <use xlink:href="#BitstreamVeraSans-Roman-30"/>
       <use x="63.623046875" xlink:href="#BitstreamVeraSans-Roman-2e"/>
       <use x="95.41015625" xlink:href="#BitstreamVeraSans-Roman-35"/>
       <use x="159.033203125" xlink:href="#BitstreamVeraSans-Roman-30"/>
      </g>
     </g>
    </g>
    <g id="text_24">
     <!-- Y component -->
     <defs>
      <path d="M -0.203125 72.90625 
L 10.40625 72.90625 
L 30.609375 42.921875 
L 50.6875 72.90625 
L 61.28125 72.90625 
L 35.5 34.71875 
L 35.5 0 
L 25.59375 0 
L 25.59375 34.71875 
z
" id="BitstreamVeraSans-Roman-59"/>
     </defs>
     <g transform="translate(230.4890625 154.0765625)scale(0.1 -0.1)">
      <use xlink:href="#BitstreamVeraSans-Roman-59"/>
      <use x="61.083984375" xlink:href="#BitstreamVeraSans-Roman-20"/>
      <use x="92.87109375" xlink:href="#BitstreamVeraSans-Roman-63"/>
      <use x="147.8515625" xlink:href="#BitstreamVeraSans-Roman-6f"/>
      <use x="209.033203125" xlink:href="#BitstreamVeraSans-Roman-6d"/>
      <use x="306.4453125" xlink:href="#BitstreamVeraSans-Roman-70"/>
      <use x="369.921875" xlink:href="#BitstreamVeraSans-Roman-6f"/>
      <use x="431.103515625" xlink:href="#BitstreamVeraSans-Roman-6e"/>
      <use x="494.482421875" xlink:href="#BitstreamVeraSans-Roman-65"/>
      <use x="556.005859375" xlink:href="#BitstreamVeraSans-Roman-6e"/>
      <use x="619.384765625" xlink:href="#BitstreamVeraSans-Roman-74"/>
     </g>
    </g>
   </g>
   <g id="matplotlib.axis_4">
    <g id="ytick_7">
     <g id="line2d_55">
      <g>
       <use style="stroke:#000000;stroke-width:0.5;" x="209.2875" xlink:href="#m5cf7dc86d8" y="127.8"/>
      </g>
     </g>
     <g id="line2d_56">
      <g>
       <use style="stroke:#000000;stroke-width:0.5;" x="317.55" xlink:href="#mf36066b384" y="127.8"/>
      </g>
     </g>
     <g id="text_25">
      <!-- 0.0 -->
      <g transform="translate(189.384375 130.559375)scale(0.1 -0.1)">
       <use xlink:href="#BitstreamVeraSans-Roman-30"/>
       <use x="63.623046875" xlink:href="#BitstreamVeraSans-Roman-2e"/>
       <use x="95.41015625" xlink:href="#BitstreamVeraSans-Roman-30"/>
      </g>
     </g>
    </g>
    <g id="ytick_8">
     <g id="line2d_57">
      <g>
       <use style="stroke:#000000;stroke-width:0.5;" x="209.2875" xlink:href="#m5cf7dc86d8" y="105.3"/>
      </g>
     </g>
     <g id="line2d_58">
      <g>
       <use style="stroke:#000000;stroke-width:0.5;" x="317.55" xlink:href="#mf36066b384" y="105.3"/>
      </g>
     </g>
     <g id="text_26">
      <!-- 0.2 -->
      <g transform="translate(189.384375 108.059375)scale(0.1 -0.1)">
       <use xlink:href="#BitstreamVeraSans-Roman-30"/>
       <use x="63.623046875" xlink:href="#BitstreamVeraSans-Roman-2e"/>
       <use x="95.41015625" xlink:href="#BitstreamVeraSans-Roman-32"/>
      </g>
     </g>
    </g>
    <g id="ytick_9">
     <g id="line2d_59">
      <g>
       <use style="stroke:#000000;stroke-width:0.5;" x="209.2875" xlink:href="#m5cf7dc86d8" y="82.8"/>
      </g>
     </g>
     <g id="line2d_60">
      <g>
       <use style="stroke:#000000;stroke-width:0.5;" x="317.55" xlink:href="#mf36066b384" y="82.8"/>
      </g>
     </g>
     <g id="text_27">
      <!-- 0.4 -->
      <g transform="translate(189.384375 85.559375)scale(0.1 -0.1)">
       <use xlink:href="#BitstreamVeraSans-Roman-30"/>
       <use x="63.623046875" xlink:href="#BitstreamVeraSans-Roman-2e"/>
       <use x="95.41015625" xlink:href="#BitstreamVeraSans-Roman-34"/>
      </g>
     </g>
    </g>
    <g id="ytick_10">
     <g id="line2d_61">
      <g>
       <use style="stroke:#000000;stroke-width:0.5;" x="209.2875" xlink:href="#m5cf7dc86d8" y="60.3"/>
      </g>
     </g>
     <g id="line2d_62">
      <g>
       <use style="stroke:#000000;stroke-width:0.5;" x="317.55" xlink:href="#mf36066b384" y="60.3"/>
      </g>
     </g>
     <g id="text_28">
      <!-- 0.6 -->
      <g transform="translate(189.384375 63.059375)scale(0.1 -0.1)">
       <use xlink:href="#BitstreamVeraSans-Roman-30"/>
       <use x="63.623046875" xlink:href="#BitstreamVeraSans-Roman-2e"/>
       <use x="95.41015625" xlink:href="#BitstreamVeraSans-Roman-36"/>
      </g>
     </g>
    </g>
    <g id="ytick_11">
     <g id="line2d_63">
      <g>
       <use style="stroke:#000000;stroke-width:0.5;" x="209.2875" xlink:href="#m5cf7dc86d8" y="37.8"/>
      </g>
     </g>
     <g id="line2d_64">
      <g>
       <use style="stroke:#000000;stroke-width:0.5;" x="317.55" xlink:href="#mf36066b384" y="37.8"/>
      </g>
     </g>
     <g id="text_29">
      <!-- 0.8 -->
      <g transform="translate(189.384375 40.559375)scale(0.1 -0.1)">
       <use xlink:href="#BitstreamVeraSans-Roman-30"/>
       <use x="63.623046875" xlink:href="#BitstreamVeraSans-Roman-2e"/>
       <use x="95.41015625" xlink:href="#BitstreamVeraSans-Roman-38"/>
      </g>
     </g>
    </g>
    <g id="ytick_12">
     <g id="line2d_65">
      <g>
       <use style="stroke:#000000;stroke-width:0.5;" x="209.2875" xlink:href="#m5cf7dc86d8" y="15.3"/>
      </g>
     </g>
     <g id="line2d_66">
      <g>
       <use style="stroke:#000000;stroke-width:0.5;" x="317.55" xlink:href="#mf36066b384" y="15.3"/>
      </g>
     </g>
     <g id="text_30">
      <!-- 1.0 -->
      <g transform="translate(189.384375 18.059375)scale(0.1 -0.1)">
       <use xlink:href="#BitstreamVeraSans-Roman-31"/>
       <use x="63.623046875" xlink:href="#BitstreamVeraSans-Roman-2e"/>
       <use x="95.41015625" xlink:href="#BitstreamVeraSans-Roman-30"/>
      </g>
     </g>
    </g>
    <g id="text_31">
     <!-- Cumulative Distribution -->
     <g transform="translate(182.3046875 130.8453125)rotate(-90.0)scale(0.1 -0.1)">
      <use xlink:href="#BitstreamVeraSans-Roman-43"/>
      <use x="69.82421875" xlink:href="#BitstreamVeraSans-Roman-75"/>
      <use x="133.203125" xlink:href="#BitstreamVeraSans-Roman-6d"/>
      <use x="230.615234375" xlink:href="#BitstreamVeraSans-Roman-75"/>
      <use x="293.994140625" xlink:href="#BitstreamVeraSans-Roman-6c"/>
      <use x="321.77734375" xlink:href="#BitstreamVeraSans-Roman-61"/>
      <use x="383.056640625" xlink:href="#BitstreamVeraSans-Roman-74"/>
      <use x="422.265625" xlink:href="#BitstreamVeraSans-Roman-69"/>
      <use x="450.048828125" xlink:href="#BitstreamVeraSans-Roman-76"/>
      <use x="509.228515625" xlink:href="#BitstreamVeraSans-Roman-65"/>
      <use x="570.751953125" xlink:href="#BitstreamVeraSans-Roman-20"/>
      <use x="602.5390625" xlink:href="#BitstreamVeraSans-Roman-44"/>
      <use x="679.541015625" xlink:href="#BitstreamVeraSans-Roman-69"/>
      <use x="707.32421875" xlink:href="#BitstreamVeraSans-Roman-73"/>
      <use x="759.423828125" xlink:href="#BitstreamVeraSans-Roman-74"/>
      <use x="798.6328125" xlink:href="#BitstreamVeraSans-Roman-72"/>
      <use x="839.74609375" xlink:href="#BitstreamVeraSans-Roman-69"/>
      <use x="867.529296875" xlink:href="#BitstreamVeraSans-Roman-62"/>
      <use x="931.005859375" xlink:href="#BitstreamVeraSans-Roman-75"/>
      <use x="994.384765625" xlink:href="#BitstreamVeraSans-Roman-74"/>
      <use x="1033.59375" xlink:href="#BitstreamVeraSans-Roman-69"/>
      <use x="1061.37695312" xlink:href="#BitstreamVeraSans-Roman-6f"/>
      <use x="1122.55859375" xlink:href="#BitstreamVeraSans-Roman-6e"/>
     </g>
    </g>
   </g>
  </g>
  <g id="axes_3">
   <g id="patch_12">
    <path d="M 373.6875 127.8 
L 481.95 127.8 
L 481.95 15.3 
L 373.6875 15.3 
z
" style="fill:#ffffff;"/>
   </g>
   <g id="line2d_67">
    <path clip-path="url(#p86994bc8c1)" d="M 390.299261 127.8 
L 391.639142 127.6875 
L 396.620527 127.485 
L 397.564177 127.3725 
L 398.029652 127.2375 
L 398.198116 127.1925 
L 400.219237 126.6525 
L 400.348466 126.54 
L 400.725782 126.2925 
L 400.928823 126.2025 
L 402.201795 125.775 
L 402.622845 125.4825 
L 402.772261 125.3475 
L 402.936923 125.235 
L 403.592081 124.7625 
L 403.804768 124.5825 
L 404.096038 124.425 
L 404.280857 124.2675 
L 404.471743 123.975 
L 404.646752 123.8175 
L 405.397654 122.67 
L 405.502123 122.49 
L 405.672704 122.2425 
L 405.764934 122.1075 
L 405.96332 121.86 
L 406.091782 121.725 
L 406.319248 121.365 
L 406.443646 121.05 
L 406.702462 120.6225 
L 407.938439 117.9675 
L 408.245259 117.2475 
L 408.34689 117.045 
L 408.932954 115.515 
L 410.025757 112.905 
L 410.159918 112.4775 
L 410.265931 112.23 
L 410.561133 111.3525 
L 410.624399 111.1275 
L 410.932506 110.115 
L 411.065171 109.845 
L 411.189859 109.44 
L 412.229391 106.2675 
L 412.369562 105.8175 
L 412.492322 105.39 
L 412.739267 104.265 
L 412.905474 103.59 
L 413.017787 103.23 
L 413.15018 102.78 
L 413.378401 101.925 
L 413.48432 101.4975 
L 413.636728 100.8225 
L 414.53815 96.39 
L 414.654237 95.7825 
L 414.8148 95.175 
L 414.86667 94.9275 
L 415.054202 94.05 
L 415.184581 93.375 
L 415.338359 92.7225 
L 415.551463 91.71 
L 416.097314 89.1 
L 417.987267 79.695 
L 418.04222 79.4925 
L 418.188604 78.75 
L 418.261941 78.3675 
L 418.381658 77.58 
L 422.670724 54.0675 
L 422.710976 53.7975 
L 422.784703 53.37 
L 423.46477 49.8375 
L 423.647345 48.8475 
L 423.749512 48.375 
L 423.900408 47.655 
L 424.020468 47.0925 
L 424.132767 46.665 
L 424.190132 46.485 
L 424.368318 45.6075 
L 424.414413 45.3375 
L 425.93463 39.015 
L 426.096403 38.61 
L 426.288875 37.6875 
L 426.53928 36.495 
L 426.788998 35.415 
L 427.250149 33.7275 
L 427.366825 33.4125 
L 427.456176 33.1425 
L 427.56705 32.6475 
L 428.276189 30.285 
L 428.389947 29.8575 
L 429.005945 28.2375 
L 429.125309 27.675 
L 429.473535 26.8425 
L 429.560004 26.64 
L 429.69169 26.415 
L 429.983384 25.9425 
L 430.225312 25.245 
L 430.325276 24.8175 
L 430.442024 24.6375 
L 430.540772 24.435 
L 430.979494 23.6475 
L 431.113476 23.265 
L 432.001645 22.1175 
L 432.490525 21.195 
L 432.847687 20.8125 
L 432.997689 20.4975 
L 433.2313 20.25 
L 433.3974 20.07 
L 434.482187 18.6975 
L 434.810682 18.54 
L 435.267083 18.0675 
L 437.257106 16.6725 
L 437.532147 16.515 
L 437.98589 16.3575 
L 438.994369 16.155 
L 440.660123 15.7725 
L 445.939692 15.345 
L 449.617955 15.3225 
L 449.617955 15.3225 
" style="fill:none;stroke:#ff0000;stroke-linecap:square;"/>
   </g>
   <g id="line2d_68">
    <path clip-path="url(#p86994bc8c1)" d="M 403.269316 127.8 
L 403.269316 15.3 
" style="fill:none;stroke:#ff0000;stroke-linecap:square;"/>
   </g>
   <g id="line2d_69">
    <path clip-path="url(#p86994bc8c1)" d="M 435.190755 127.8 
L 435.190755 15.3 
" style="fill:none;stroke:#ff0000;stroke-linecap:square;"/>
   </g>
   <g id="line2d_70">
    <path clip-path="url(#p86994bc8c1)" d="M 385.967923 127.8 
L 392.993242 127.7775 
L 396.504936 127.665 
L 401.346456 127.215 
L 402.604029 126.99 
L 402.991905 126.9 
L 404.546788 126.585 
L 404.75491 126.495 
L 406.61034 125.7525 
L 407.373939 125.505 
L 407.458311 125.46 
L 408.378901 125.145 
L 408.394364 125.055 
L 408.764481 124.8975 
L 408.875542 124.74 
L 409.537326 124.515 
L 409.836508 124.29 
L 409.953205 124.1325 
L 410.391561 123.8625 
L 410.561118 123.75 
L 410.854654 123.525 
L 411.349652 123.075 
L 411.824145 122.58 
L 412.22669 122.3325 
L 412.460697 122.04 
L 412.601537 121.8825 
L 412.883211 121.7475 
L 413.064822 121.59 
L 413.220317 121.365 
L 413.593061 120.8025 
L 413.71171 120.6225 
L 414.008104 120.2175 
L 414.190328 120.06 
L 414.296373 119.8125 
L 415.810673 117.72 
L 416.016951 117.1575 
L 416.140952 116.865 
L 416.255632 116.64 
L 417.698093 114.03 
L 417.858579 113.67 
L 417.956098 113.49 
L 418.192687 112.9725 
L 418.453942 112.05 
L 419.014978 110.88 
L 419.136277 110.43 
L 419.513462 109.7325 
L 419.616967 109.395 
L 419.773267 109.17 
L 419.927044 108.81 
L 420.191835 108.2925 
L 420.27296 108.1125 
L 420.429328 107.7525 
L 420.548733 107.37 
L 420.738016 106.785 
L 420.984307 106.11 
L 421.09569 105.75 
L 421.194213 105.4575 
L 421.368781 104.76 
L 421.575242 104.3775 
L 421.802907 103.5675 
L 421.891996 103.275 
L 422.100534 102.69 
L 422.176981 102.51 
L 422.271078 102.1275 
L 422.376413 101.97 
L 422.538173 101.565 
L 423.687637 98.2575 
L 425.560758 91.62 
L 425.753706 90.8325 
L 425.846481 90.45 
L 426.048881 89.64 
L 426.433965 88.1325 
L 426.543785 87.8175 
L 426.890926 86.445 
L 427.644155 84.015 
L 427.775283 83.475 
L 427.905728 82.8675 
L 428.081147 81.7875 
L 428.150447 81.6075 
L 428.364328 81.09 
L 428.48202 80.685 
L 428.920934 78.975 
L 429.070697 78.3675 
L 430.230823 73.485 
L 430.367171 73.0125 
L 430.626721 72.1125 
L 430.780854 71.3925 
L 430.827361 71.2125 
L 431.035383 70.515 
L 431.226992 69.615 
L 431.336483 69.1425 
L 432.609491 64.035 
L 432.724475 63.6075 
L 432.819618 63.3375 
L 432.885281 63.0225 
L 433.114142 62.0325 
L 433.287121 61.515 
L 433.435057 60.7275 
L 433.571259 60.1425 
L 433.866409 58.995 
L 433.972352 58.59 
L 434.021064 58.2975 
L 434.142241 57.8025 
L 434.387047 57.105 
L 434.653002 55.8675 
L 434.742627 55.71 
L 434.85632 55.035 
L 435.235738 53.5725 
L 435.337611 53.2575 
L 435.530113 52.4475 
L 436.489095 48.51 
L 436.533478 48.3075 
L 436.651747 47.97 
L 436.747278 47.7675 
L 437.394469 45.45 
L 437.437813 45.2925 
L 437.645996 44.4825 
L 437.819648 43.92 
L 441.169736 33.975 
L 441.417982 33.2325 
L 441.505519 32.9175 
L 441.644956 32.67 
L 441.793558 32.3325 
L 442.018277 31.7925 
L 442.983189 29.52 
L 443.362239 28.7325 
L 443.477979 28.485 
L 443.649023 28.3275 
L 443.743554 28.1025 
L 444.383563 26.91 
L 444.523966 26.64 
L 444.692559 26.37 
L 445.015529 25.605 
L 445.104524 25.245 
L 445.196803 24.9525 
L 445.311785 24.7725 
L 448.139976 20.4975 
L 448.287937 20.34 
L 448.526776 20.1375 
L 448.907857 19.9575 
L 450.389227 18.8325 
L 450.946077 18.5625 
L 451.085729 18.45 
L 451.306993 18.2925 
L 452.101241 17.82 
L 452.185133 17.7525 
L 452.675626 17.5275 
L 452.790188 17.4825 
L 456.020321 16.4025 
L 456.43524 16.245 
L 456.713383 16.155 
L 457.719829 15.93 
L 457.843378 15.84 
L 458.567711 15.705 
L 458.857187 15.615 
L 460.315832 15.48 
L 467.01374 15.3225 
L 467.01374 15.3225 
" style="fill:none;stroke:#0000ff;stroke-linecap:square;"/>
   </g>
   <g id="line2d_71">
    <path clip-path="url(#p86994bc8c1)" d="M 408.68342 127.8 
L 408.68342 15.3 
" style="fill:none;stroke:#0000ff;stroke-dasharray:6.000000,6.000000;stroke-dashoffset:0.0;"/>
   </g>
   <g id="line2d_72">
    <path clip-path="url(#p86994bc8c1)" d="M 451.698172 127.8 
L 451.698172 15.3 
" style="fill:none;stroke:#0000ff;stroke-dasharray:6.000000,6.000000;stroke-dashoffset:0.0;"/>
   </g>
   <g id="patch_13">
    <path d="M 373.6875 15.3 
L 481.95 15.3 
" style="fill:none;stroke:#000000;stroke-linecap:square;stroke-linejoin:miter;"/>
   </g>
   <g id="patch_14">
    <path d="M 481.95 127.8 
L 481.95 15.3 
" style="fill:none;stroke:#000000;stroke-linecap:square;stroke-linejoin:miter;"/>
   </g>
   <g id="patch_15">
    <path d="M 373.6875 127.8 
L 481.95 127.8 
" style="fill:none;stroke:#000000;stroke-linecap:square;stroke-linejoin:miter;"/>
   </g>
   <g id="patch_16">
    <path d="M 373.6875 127.8 
L 373.6875 15.3 
" style="fill:none;stroke:#000000;stroke-linecap:square;stroke-linejoin:miter;"/>
   </g>
   <g id="matplotlib.axis_5">
    <g id="xtick_16">
     <g id="line2d_73">
      <g>
       <use style="stroke:#000000;stroke-width:0.5;" x="373.6875" xlink:href="#mab768ee742" y="127.8"/>
      </g>
     </g>
     <g id="line2d_74">
      <g>
       <use style="stroke:#000000;stroke-width:0.5;" x="373.6875" xlink:href="#m2efe55d5c3" y="15.3"/>
      </g>
     </g>
     <g id="text_32">
      <!-- 0.55 -->
      <g transform="translate(362.5546875 139.3984375)scale(0.1 -0.1)">
       <use xlink:href="#BitstreamVeraSans-Roman-30"/>
       <use x="63.623046875" xlink:href="#BitstreamVeraSans-Roman-2e"/>
       <use x="95.41015625" xlink:href="#BitstreamVeraSans-Roman-35"/>
       <use x="159.033203125" xlink:href="#BitstreamVeraSans-Roman-35"/>
      </g>
     </g>
    </g>
    <g id="xtick_17">
     <g id="line2d_75">
      <g>
       <use style="stroke:#000000;stroke-width:0.5;" x="391.73125" xlink:href="#mab768ee742" y="127.8"/>
      </g>
     </g>
     <g id="line2d_76">
      <g>
       <use style="stroke:#000000;stroke-width:0.5;" x="391.73125" xlink:href="#m2efe55d5c3" y="15.3"/>
      </g>
     </g>
     <g id="text_33">
      <!-- 0.60 -->
      <g transform="translate(380.5984375 139.3984375)scale(0.1 -0.1)">
       <use xlink:href="#BitstreamVeraSans-Roman-30"/>
       <use x="63.623046875" xlink:href="#BitstreamVeraSans-Roman-2e"/>
       <use x="95.41015625" xlink:href="#BitstreamVeraSans-Roman-36"/>
       <use x="159.033203125" xlink:href="#BitstreamVeraSans-Roman-30"/>
      </g>
     </g>
    </g>
    <g id="xtick_18">
     <g id="line2d_77">
      <g>
       <use style="stroke:#000000;stroke-width:0.5;" x="409.775" xlink:href="#mab768ee742" y="127.8"/>
      </g>
     </g>
     <g id="line2d_78">
      <g>
       <use style="stroke:#000000;stroke-width:0.5;" x="409.775" xlink:href="#m2efe55d5c3" y="15.3"/>
      </g>
     </g>
     <g id="text_34">
      <!-- 0.65 -->
      <g transform="translate(398.6421875 139.3984375)scale(0.1 -0.1)">
       <use xlink:href="#BitstreamVeraSans-Roman-30"/>
       <use x="63.623046875" xlink:href="#BitstreamVeraSans-Roman-2e"/>
       <use x="95.41015625" xlink:href="#BitstreamVeraSans-Roman-36"/>
       <use x="159.033203125" xlink:href="#BitstreamVeraSans-Roman-35"/>
      </g>
     </g>
    </g>
    <g id="xtick_19">
     <g id="line2d_79">
      <g>
       <use style="stroke:#000000;stroke-width:0.5;" x="427.81875" xlink:href="#mab768ee742" y="127.8"/>
      </g>
     </g>
     <g id="line2d_80">
      <g>
       <use style="stroke:#000000;stroke-width:0.5;" x="427.81875" xlink:href="#m2efe55d5c3" y="15.3"/>
      </g>
     </g>
     <g id="text_35">
      <!-- 0.70 -->
      <g transform="translate(416.6859375 139.3984375)scale(0.1 -0.1)">
       <use xlink:href="#BitstreamVeraSans-Roman-30"/>
       <use x="63.623046875" xlink:href="#BitstreamVeraSans-Roman-2e"/>
       <use x="95.41015625" xlink:href="#BitstreamVeraSans-Roman-37"/>
       <use x="159.033203125" xlink:href="#BitstreamVeraSans-Roman-30"/>
      </g>
     </g>
    </g>
    <g id="xtick_20">
     <g id="line2d_81">
      <g>
       <use style="stroke:#000000;stroke-width:0.5;" x="445.8625" xlink:href="#mab768ee742" y="127.8"/>
      </g>
     </g>
     <g id="line2d_82">
      <g>
       <use style="stroke:#000000;stroke-width:0.5;" x="445.8625" xlink:href="#m2efe55d5c3" y="15.3"/>
      </g>
     </g>
     <g id="text_36">
      <!-- 0.75 -->
      <g transform="translate(434.7296875 139.3984375)scale(0.1 -0.1)">
       <use xlink:href="#BitstreamVeraSans-Roman-30"/>
       <use x="63.623046875" xlink:href="#BitstreamVeraSans-Roman-2e"/>
       <use x="95.41015625" xlink:href="#BitstreamVeraSans-Roman-37"/>
       <use x="159.033203125" xlink:href="#BitstreamVeraSans-Roman-35"/>
      </g>
     </g>
    </g>
    <g id="xtick_21">
     <g id="line2d_83">
      <g>
       <use style="stroke:#000000;stroke-width:0.5;" x="463.90625" xlink:href="#mab768ee742" y="127.8"/>
      </g>
     </g>
     <g id="line2d_84">
      <g>
       <use style="stroke:#000000;stroke-width:0.5;" x="463.90625" xlink:href="#m2efe55d5c3" y="15.3"/>
      </g>
     </g>
     <g id="text_37">
      <!-- 0.80 -->
      <g transform="translate(452.7734375 139.3984375)scale(0.1 -0.1)">
       <use xlink:href="#BitstreamVeraSans-Roman-30"/>
       <use x="63.623046875" xlink:href="#BitstreamVeraSans-Roman-2e"/>
       <use x="95.41015625" xlink:href="#BitstreamVeraSans-Roman-38"/>
       <use x="159.033203125" xlink:href="#BitstreamVeraSans-Roman-30"/>
      </g>
     </g>
    </g>
    <g id="xtick_22">
     <g id="line2d_85">
      <g>
       <use style="stroke:#000000;stroke-width:0.5;" x="481.95" xlink:href="#mab768ee742" y="127.8"/>
      </g>
     </g>
     <g id="line2d_86">
      <g>
       <use style="stroke:#000000;stroke-width:0.5;" x="481.95" xlink:href="#m2efe55d5c3" y="15.3"/>
      </g>
     </g>
     <g id="text_38">
      <!-- 0.85 -->
      <g transform="translate(470.8171875 139.3984375)scale(0.1 -0.1)">
       <use xlink:href="#BitstreamVeraSans-Roman-30"/>
       <use x="63.623046875" xlink:href="#BitstreamVeraSans-Roman-2e"/>
       <use x="95.41015625" xlink:href="#BitstreamVeraSans-Roman-38"/>
       <use x="159.033203125" xlink:href="#BitstreamVeraSans-Roman-35"/>
      </g>
     </g>
    </g>
    <g id="text_39">
     <!-- Z component -->
     <defs>
      <path d="M 5.609375 72.90625 
L 62.890625 72.90625 
L 62.890625 65.375 
L 16.796875 8.296875 
L 64.015625 8.296875 
L 64.015625 0 
L 4.5 0 
L 4.5 7.515625 
L 50.59375 64.59375 
L 5.609375 64.59375 
z
" id="BitstreamVeraSans-Roman-5a"/>
     </defs>
     <g transform="translate(394.51796875 154.0765625)scale(0.1 -0.1)">
      <use xlink:href="#BitstreamVeraSans-Roman-5a"/>
      <use x="68.505859375" xlink:href="#BitstreamVeraSans-Roman-20"/>
      <use x="100.29296875" xlink:href="#BitstreamVeraSans-Roman-63"/>
      <use x="155.2734375" xlink:href="#BitstreamVeraSans-Roman-6f"/>
      <use x="216.455078125" xlink:href="#BitstreamVeraSans-Roman-6d"/>
      <use x="313.8671875" xlink:href="#BitstreamVeraSans-Roman-70"/>
      <use x="377.34375" xlink:href="#BitstreamVeraSans-Roman-6f"/>
      <use x="438.525390625" xlink:href="#BitstreamVeraSans-Roman-6e"/>
      <use x="501.904296875" xlink:href="#BitstreamVeraSans-Roman-65"/>
      <use x="563.427734375" xlink:href="#BitstreamVeraSans-Roman-6e"/>
      <use x="626.806640625" xlink:href="#BitstreamVeraSans-Roman-74"/>
     </g>
    </g>
   </g>
   <g id="matplotlib.axis_6">
    <g id="ytick_13">
     <g id="line2d_87">
      <g>
       <use style="stroke:#000000;stroke-width:0.5;" x="373.6875" xlink:href="#m5cf7dc86d8" y="127.8"/>
      </g>
     </g>
     <g id="line2d_88">
      <g>
       <use style="stroke:#000000;stroke-width:0.5;" x="481.95" xlink:href="#mf36066b384" y="127.8"/>
      </g>
     </g>
     <g id="text_40">
      <!-- 0.0 -->
      <g transform="translate(353.784375 130.559375)scale(0.1 -0.1)">
       <use xlink:href="#BitstreamVeraSans-Roman-30"/>
       <use x="63.623046875" xlink:href="#BitstreamVeraSans-Roman-2e"/>
       <use x="95.41015625" xlink:href="#BitstreamVeraSans-Roman-30"/>
      </g>
     </g>
    </g>
    <g id="ytick_14">
     <g id="line2d_89">
      <g>
       <use style="stroke:#000000;stroke-width:0.5;" x="373.6875" xlink:href="#m5cf7dc86d8" y="105.3"/>
      </g>
     </g>
     <g id="line2d_90">
      <g>
       <use style="stroke:#000000;stroke-width:0.5;" x="481.95" xlink:href="#mf36066b384" y="105.3"/>
      </g>
     </g>
     <g id="text_41">
      <!-- 0.2 -->
      <g transform="translate(353.784375 108.059375)scale(0.1 -0.1)">
       <use xlink:href="#BitstreamVeraSans-Roman-30"/>
       <use x="63.623046875" xlink:href="#BitstreamVeraSans-Roman-2e"/>
       <use x="95.41015625" xlink:href="#BitstreamVeraSans-Roman-32"/>
      </g>
     </g>
    </g>
    <g id="ytick_15">
     <g id="line2d_91">
      <g>
       <use style="stroke:#000000;stroke-width:0.5;" x="373.6875" xlink:href="#m5cf7dc86d8" y="82.8"/>
      </g>
     </g>
     <g id="line2d_92">
      <g>
       <use style="stroke:#000000;stroke-width:0.5;" x="481.95" xlink:href="#mf36066b384" y="82.8"/>
      </g>
     </g>
     <g id="text_42">
      <!-- 0.4 -->
      <g transform="translate(353.784375 85.559375)scale(0.1 -0.1)">
       <use xlink:href="#BitstreamVeraSans-Roman-30"/>
       <use x="63.623046875" xlink:href="#BitstreamVeraSans-Roman-2e"/>
       <use x="95.41015625" xlink:href="#BitstreamVeraSans-Roman-34"/>
      </g>
     </g>
    </g>
    <g id="ytick_16">
     <g id="line2d_93">
      <g>
       <use style="stroke:#000000;stroke-width:0.5;" x="373.6875" xlink:href="#m5cf7dc86d8" y="60.3"/>
      </g>
     </g>
     <g id="line2d_94">
      <g>
       <use style="stroke:#000000;stroke-width:0.5;" x="481.95" xlink:href="#mf36066b384" y="60.3"/>
      </g>
     </g>
     <g id="text_43">
      <!-- 0.6 -->
      <g transform="translate(353.784375 63.059375)scale(0.1 -0.1)">
       <use xlink:href="#BitstreamVeraSans-Roman-30"/>
       <use x="63.623046875" xlink:href="#BitstreamVeraSans-Roman-2e"/>
       <use x="95.41015625" xlink:href="#BitstreamVeraSans-Roman-36"/>
      </g>
     </g>
    </g>
    <g id="ytick_17">
     <g id="line2d_95">
      <g>
       <use style="stroke:#000000;stroke-width:0.5;" x="373.6875" xlink:href="#m5cf7dc86d8" y="37.8"/>
      </g>
     </g>
     <g id="line2d_96">
      <g>
       <use style="stroke:#000000;stroke-width:0.5;" x="481.95" xlink:href="#mf36066b384" y="37.8"/>
      </g>
     </g>
     <g id="text_44">
      <!-- 0.8 -->
      <g transform="translate(353.784375 40.559375)scale(0.1 -0.1)">
       <use xlink:href="#BitstreamVeraSans-Roman-30"/>
       <use x="63.623046875" xlink:href="#BitstreamVeraSans-Roman-2e"/>
       <use x="95.41015625" xlink:href="#BitstreamVeraSans-Roman-38"/>
      </g>
     </g>
    </g>
    <g id="ytick_18">
     <g id="line2d_97">
      <g>
       <use style="stroke:#000000;stroke-width:0.5;" x="373.6875" xlink:href="#m5cf7dc86d8" y="15.3"/>
      </g>
     </g>
     <g id="line2d_98">
      <g>
       <use style="stroke:#000000;stroke-width:0.5;" x="481.95" xlink:href="#mf36066b384" y="15.3"/>
      </g>
     </g>
     <g id="text_45">
      <!-- 1.0 -->
      <g transform="translate(353.784375 18.059375)scale(0.1 -0.1)">
       <use xlink:href="#BitstreamVeraSans-Roman-31"/>
       <use x="63.623046875" xlink:href="#BitstreamVeraSans-Roman-2e"/>
       <use x="95.41015625" xlink:href="#BitstreamVeraSans-Roman-30"/>
      </g>
     </g>
    </g>
    <g id="text_46">
     <!-- Cumulative Distribution -->
     <g transform="translate(346.7046875 130.8453125)rotate(-90.0)scale(0.1 -0.1)">
      <use xlink:href="#BitstreamVeraSans-Roman-43"/>
      <use x="69.82421875" xlink:href="#BitstreamVeraSans-Roman-75"/>
      <use x="133.203125" xlink:href="#BitstreamVeraSans-Roman-6d"/>
      <use x="230.615234375" xlink:href="#BitstreamVeraSans-Roman-75"/>
      <use x="293.994140625" xlink:href="#BitstreamVeraSans-Roman-6c"/>
      <use x="321.77734375" xlink:href="#BitstreamVeraSans-Roman-61"/>
      <use x="383.056640625" xlink:href="#BitstreamVeraSans-Roman-74"/>
      <use x="422.265625" xlink:href="#BitstreamVeraSans-Roman-69"/>
      <use x="450.048828125" xlink:href="#BitstreamVeraSans-Roman-76"/>
      <use x="509.228515625" xlink:href="#BitstreamVeraSans-Roman-65"/>
      <use x="570.751953125" xlink:href="#BitstreamVeraSans-Roman-20"/>
      <use x="602.5390625" xlink:href="#BitstreamVeraSans-Roman-44"/>
      <use x="679.541015625" xlink:href="#BitstreamVeraSans-Roman-69"/>
      <use x="707.32421875" xlink:href="#BitstreamVeraSans-Roman-73"/>
      <use x="759.423828125" xlink:href="#BitstreamVeraSans-Roman-74"/>
      <use x="798.6328125" xlink:href="#BitstreamVeraSans-Roman-72"/>
      <use x="839.74609375" xlink:href="#BitstreamVeraSans-Roman-69"/>
      <use x="867.529296875" xlink:href="#BitstreamVeraSans-Roman-62"/>
      <use x="931.005859375" xlink:href="#BitstreamVeraSans-Roman-75"/>
      <use x="994.384765625" xlink:href="#BitstreamVeraSans-Roman-74"/>
      <use x="1033.59375" xlink:href="#BitstreamVeraSans-Roman-69"/>
      <use x="1061.37695312" xlink:href="#BitstreamVeraSans-Roman-6f"/>
      <use x="1122.55859375" xlink:href="#BitstreamVeraSans-Roman-6e"/>
     </g>
    </g>
   </g>
  </g>
 </g>
 <defs>
  <clipPath id="p62e0b0a6ee">
   <rect height="112.5" width="108.2625" x="44.8875" y="15.3"/>
  </clipPath>
  <clipPath id="p86994bc8c1">
   <rect height="112.5" width="108.2625" x="373.6875" y="15.3"/>
  </clipPath>
  <clipPath id="p92fae9c0c6">
   <rect height="112.5" width="108.2625" x="209.2875" y="15.3"/>
  </clipPath>
 </defs>
</svg>
