<?xml version="1.0" encoding="utf-8" standalone="no"?>
<!DOCTYPE svg PUBLIC "-//W3C//DTD SVG 1.1//EN"
  "http://www.w3.org/Graphics/SVG/1.1/DTD/svg11.dtd">
<!-- Created with matplotlib (http://matplotlib.org/) -->
<svg height="165pt" version="1.1" viewBox="0 0 504 165" width="504pt" xmlns="http://www.w3.org/2000/svg" xmlns:xlink="http://www.w3.org/1999/xlink">
 <defs>
  <style type="text/css">
*{stroke-linecap:butt;stroke-linejoin:round;stroke-miterlimit:100000;}
  </style>
 </defs>
 <g id="figure_1">
  <g id="patch_1">
   <path d="M 0 165.6 
L 504 165.6 
L 504 0 
L 0 0 
z
" style="fill:#ffffff;"/>
  </g>
  <g id="axes_1">
   <g id="patch_2">
    <path d="M 44.8875 127.8 
L 156.35625 127.8 
L 156.35625 15.3 
L 44.8875 15.3 
z
" style="fill:#ffffff;"/>
   </g>
   <g id="line2d_1">
    <path clip-path="url(#pbbd7456199)" d="M 77.335454 127.8 
L 79.705645 127.7775 
L 81.91753 127.665 
L 82.268473 127.575 
L 84.451288 127.3275 
L 84.885814 127.2375 
L 86.227172 127.08 
L 86.324641 127.0125 
L 87.372536 126.7875 
L 88.755151 126.315 
L 90.098896 125.685 
L 91.983127 124.155 
L 92.370612 123.615 
L 92.377394 123.5925 
L 92.580996 123.4575 
L 92.907066 123.21 
L 92.99172 123.0075 
L 93.12008 122.76 
L 93.240561 122.625 
L 93.493612 122.1975 
L 93.847047 121.7475 
L 94.218623 121.185 
L 94.347592 120.9825 
L 94.772336 120.285 
L 95.102067 119.52 
L 95.204784 119.34 
L 95.305716 119.1375 
L 95.454855 118.8 
L 95.557276 118.4625 
L 95.870464 117.8325 
L 95.966963 117.63 
L 96.073385 117.3825 
L 96.166587 117.225 
L 96.30467 116.775 
L 96.563379 115.9875 
L 96.866112 114.9975 
L 97.076589 114.3 
L 97.222045 114.03 
L 97.324493 113.8725 
L 97.596869 113.31 
L 97.711014 112.86 
L 97.924914 111.9825 
L 98.046556 111.4875 
L 98.270895 110.8575 
L 98.383159 110.475 
L 98.510865 110.2275 
L 98.707373 109.53 
L 98.82362 109.08 
L 98.892943 108.9225 
L 99.001366 108.63 
L 99.667097 105.795 
L 99.909864 104.6025 
L 100.008632 104.355 
L 100.224537 103.3425 
L 100.346173 102.8475 
L 101.054212 99.4275 
L 101.265578 98.325 
L 101.308006 98.0325 
L 101.457307 97.3575 
L 101.554922 96.9975 
L 101.788191 95.8725 
L 101.905952 95.3325 
L 102.752511 91.0125 
L 102.956225 89.9325 
L 103.394005 87.39 
L 103.648338 85.9725 
L 103.725734 85.5 
L 104.218281 82.5975 
L 104.313833 82.08 
L 104.545955 80.775 
L 104.590242 80.55 
L 107.541429 62.235 
L 107.601372 61.9425 
L 107.886691 60.6825 
L 108.0688 59.6475 
L 108.190506 59.0625 
L 108.305419 58.2075 
L 108.422991 57.5775 
L 108.85524 55.4625 
L 108.89396 55.2825 
L 109.025915 54.5175 
L 109.072175 54.27 
L 111.861331 40.2525 
L 112.005946 39.5775 
L 112.129591 38.9925 
L 112.254915 38.4075 
L 112.380496 37.6875 
L 112.491027 37.2825 
L 113.277076 34.02 
L 113.319439 33.795 
L 113.570551 32.895 
L 113.683023 32.67 
L 114.372462 30.0375 
L 114.693119 29.115 
L 114.846048 28.665 
L 115.344965 27.1125 
L 115.508442 26.5725 
L 115.598502 26.415 
L 115.833779 25.65 
L 116.009153 25.29 
L 116.118997 24.9525 
L 116.384009 24.57 
L 116.530821 24.1425 
L 116.818671 23.625 
L 117.274349 22.725 
L 117.397639 22.59 
L 117.730816 21.8925 
L 117.884247 21.5325 
L 117.996385 21.3075 
L 118.241396 21.105 
L 118.469053 20.8575 
L 118.693687 20.61 
L 118.95218 20.2275 
L 119.090075 19.89 
L 119.258979 19.71 
L 119.340871 19.5975 
L 119.572738 19.44 
L 120.593372 18.4275 
L 120.773568 18.2475 
L 120.964745 18.045 
L 121.520118 17.73 
L 121.787139 17.46 
L 121.861562 17.3925 
L 122.300434 17.1675 
L 122.370359 17.1225 
L 122.71132 16.92 
L 123.405237 16.5825 
L 123.512156 16.47 
L 125.248948 15.8175 
L 126.011072 15.66 
L 126.859254 15.48 
L 128.010115 15.39 
L 133.29549 15.3225 
L 133.29549 15.3225 
" style="fill:none;stroke:#ff0000;stroke-linecap:square;"/>
   </g>
   <g id="line2d_2">
    <path clip-path="url(#pbbd7456199)" d="M 91.064004 127.8 
L 91.064004 15.3 
" style="fill:none;stroke:#ff0000;stroke-linecap:square;"/>
   </g>
   <g id="line2d_3">
    <path clip-path="url(#pbbd7456199)" d="M 120.927061 127.8 
L 120.927061 15.3 
" style="fill:none;stroke:#ff0000;stroke-linecap:square;"/>
   </g>
   <g id="line2d_4">
    <path clip-path="url(#pbbd7456199)" d="M 68.864791 127.8 
L 74.378861 127.44 
L 75.660431 127.3275 
L 77.362126 127.17 
L 77.364147 127.1475 
L 78.268708 126.8775 
L 78.482008 126.8325 
L 80.271094 126.27 
L 80.406425 126.2025 
L 80.973299 125.865 
L 81.613863 125.55 
L 82.223027 125.1675 
L 82.338841 125.055 
L 82.827861 124.6275 
L 82.922022 124.515 
L 83.201946 124.29 
L 83.497325 124.1325 
L 83.855614 123.93 
L 84.252459 123.4125 
L 84.37329 123.2325 
L 85.436444 121.7475 
L 85.644288 121.59 
L 86.616196 119.8125 
L 87.004381 119.43 
L 87.189251 119.1375 
L 87.344224 118.8 
L 88.755698 115.875 
L 88.865783 115.56 
L 88.954256 115.3575 
L 89.464636 114.165 
L 89.550936 113.9175 
L 89.858994 112.95 
L 89.949215 112.7475 
L 90.46372 111.5775 
L 90.661549 110.9475 
L 90.774212 110.4975 
L 90.876016 110.115 
L 91.067095 109.8225 
L 93.206866 102.87 
L 93.371387 102.3525 
L 93.459706 102.195 
L 93.601854 101.88 
L 93.787845 101.385 
L 93.973222 100.665 
L 94.254809 99.6525 
L 94.840481 97.515 
L 95.127716 96.255 
L 95.223797 95.895 
L 95.569999 94.5675 
L 95.651396 94.275 
L 96.31167 91.2375 
L 96.428568 90.855 
L 97.034503 88.335 
L 97.137098 87.84 
L 97.313652 87.0075 
L 97.487185 86.13 
L 97.539294 85.8825 
L 97.6536 85.275 
L 97.689521 85.0725 
L 97.846185 84.6225 
L 97.934703 84.33 
L 98.058671 83.79 
L 98.119356 83.4975 
L 98.233611 83.025 
L 99.522856 76.9725 
L 99.624141 76.7475 
L 99.732572 76.1175 
L 99.881 75.3975 
L 99.958579 75.105 
L 100.742086 71.325 
L 100.903441 70.65 
L 101.239652 69.0525 
L 101.332864 68.715 
L 101.471791 68.0625 
L 101.722924 67.005 
L 102.156637 65.025 
L 102.273146 64.5525 
L 102.54435 63.225 
L 102.657227 62.64 
L 105.829979 47.97 
L 105.915077 47.7675 
L 106.187951 46.6875 
L 106.258333 46.4175 
L 106.762684 44.3925 
L 106.864089 44.055 
L 107.898542 40.5 
L 108.007067 40.32 
L 108.121213 39.9375 
L 108.721052 37.44 
L 108.85114 36.81 
L 109.061976 35.955 
L 109.132257 35.7525 
L 109.290409 35.1225 
L 109.382531 34.785 
L 110.529738 31.23 
L 110.633368 30.9825 
L 110.750091 30.6675 
L 111.862612 27.81 
L 111.953105 27.585 
L 112.240864 26.91 
L 112.330884 26.73 
L 112.444086 26.3925 
L 113.027241 25.2 
L 113.145822 24.84 
L 113.281429 24.48 
L 113.648295 23.985 
L 114.3171 22.905 
L 114.831919 22.1625 
L 115.189002 21.465 
L 115.309044 21.3075 
L 115.95886 20.4975 
L 116.192231 20.3175 
L 116.37653 19.935 
L 116.685306 19.8 
L 116.83104 19.53 
L 117.248057 18.9675 
L 117.427988 18.855 
L 117.685109 18.72 
L 117.797695 18.585 
L 117.951722 18.45 
L 118.286098 18.18 
L 118.430499 17.9325 
L 118.516764 17.7975 
L 118.997185 17.5725 
L 119.29137 17.37 
L 119.337298 17.3025 
L 119.90988 17.145 
L 119.935648 17.0775 
L 120.290879 16.9425 
L 120.419473 16.83 
L 120.976083 16.6725 
L 121.113714 16.605 
L 121.550243 16.4475 
L 121.550382 16.425 
L 122.668364 16.155 
L 122.766183 16.11 
L 123.858752 15.93 
L 124.065139 15.8625 
L 126.206352 15.5025 
L 130.248398 15.345 
L 131.765705 15.3225 
L 131.765705 15.3225 
" style="fill:none;stroke:#0000ff;stroke-linecap:square;"/>
   </g>
   <g id="line2d_5">
    <path clip-path="url(#pbbd7456199)" d="M 82.396705 127.8 
L 82.396705 15.3 
" style="fill:none;stroke:#0000ff;stroke-dasharray:6.000000,6.000000;stroke-dashoffset:0.0;"/>
   </g>
   <g id="line2d_6">
    <path clip-path="url(#pbbd7456199)" d="M 118.326238 127.8 
L 118.326238 15.3 
" style="fill:none;stroke:#0000ff;stroke-dasharray:6.000000,6.000000;stroke-dashoffset:0.0;"/>
   </g>
   <g id="patch_3">
    <path d="M 44.8875 15.3 
L 156.35625 15.3 
" style="fill:none;stroke:#000000;stroke-linecap:square;stroke-linejoin:miter;"/>
   </g>
   <g id="patch_4">
    <path d="M 156.35625 127.8 
L 156.35625 15.3 
" style="fill:none;stroke:#000000;stroke-linecap:square;stroke-linejoin:miter;"/>
   </g>
   <g id="patch_5">
    <path d="M 44.8875 127.8 
L 156.35625 127.8 
" style="fill:none;stroke:#000000;stroke-linecap:square;stroke-linejoin:miter;"/>
   </g>
   <g id="patch_6">
    <path d="M 44.8875 127.8 
L 44.8875 15.3 
" style="fill:none;stroke:#000000;stroke-linecap:square;stroke-linejoin:miter;"/>
   </g>
   <g id="matplotlib.axis_1">
    <g id="xtick_1">
     <g id="line2d_7">
      <defs>
       <path d="M 0 0 
L 0 -4 
" id="m28618f83d7" style="stroke:#000000;stroke-width:0.5;"/>
      </defs>
      <g>
       <use style="stroke:#000000;stroke-width:0.5;" x="44.8875" xlink:href="#m28618f83d7" y="127.8"/>
      </g>
     </g>
     <g id="line2d_8">
      <defs>
       <path d="M 0 0 
L 0 4 
" id="m699b0200f4" style="stroke:#000000;stroke-width:0.5;"/>
      </defs>
      <g>
       <use style="stroke:#000000;stroke-width:0.5;" x="44.8875" xlink:href="#m699b0200f4" y="15.3"/>
      </g>
     </g>
     <g id="text_1">
      <!-- 0.4 -->
      <defs>
       <path d="M 31.78125 66.40625 
Q 24.171875 66.40625 20.328125 58.90625 
Q 16.5 51.421875 16.5 36.375 
Q 16.5 21.390625 20.328125 13.890625 
Q 24.171875 6.390625 31.78125 6.390625 
Q 39.453125 6.390625 43.28125 13.890625 
Q 47.125 21.390625 47.125 36.375 
Q 47.125 51.421875 43.28125 58.90625 
Q 39.453125 66.40625 31.78125 66.40625 
M 31.78125 74.21875 
Q 44.046875 74.21875 50.515625 64.515625 
Q 56.984375 54.828125 56.984375 36.375 
Q 56.984375 17.96875 50.515625 8.265625 
Q 44.046875 -1.421875 31.78125 -1.421875 
Q 19.53125 -1.421875 13.0625 8.265625 
Q 6.59375 17.96875 6.59375 36.375 
Q 6.59375 54.828125 13.0625 64.515625 
Q 19.53125 74.21875 31.78125 74.21875 
" id="BitstreamVeraSans-Roman-30"/>
       <path d="M 10.6875 12.40625 
L 21 12.40625 
L 21 0 
L 10.6875 0 
z
" id="BitstreamVeraSans-Roman-2e"/>
       <path d="M 37.796875 64.3125 
L 12.890625 25.390625 
L 37.796875 25.390625 
z
M 35.203125 72.90625 
L 47.609375 72.90625 
L 47.609375 25.390625 
L 58.015625 25.390625 
L 58.015625 17.1875 
L 47.609375 17.1875 
L 47.609375 0 
L 37.796875 0 
L 37.796875 17.1875 
L 4.890625 17.1875 
L 4.890625 26.703125 
z
" id="BitstreamVeraSans-Roman-34"/>
      </defs>
      <g transform="translate(36.9359375 139.3984375)scale(0.1 -0.1)">
       <use xlink:href="#BitstreamVeraSans-Roman-30"/>
       <use x="63.623046875" xlink:href="#BitstreamVeraSans-Roman-2e"/>
       <use x="95.41015625" xlink:href="#BitstreamVeraSans-Roman-34"/>
      </g>
     </g>
    </g>
    <g id="xtick_2">
     <g id="line2d_9">
      <g>
       <use style="stroke:#000000;stroke-width:0.5;" x="72.7546875" xlink:href="#m28618f83d7" y="127.8"/>
      </g>
     </g>
     <g id="line2d_10">
      <g>
       <use style="stroke:#000000;stroke-width:0.5;" x="72.7546875" xlink:href="#m699b0200f4" y="15.3"/>
      </g>
     </g>
     <g id="text_2">
      <!-- 0.5 -->
      <defs>
       <path d="M 10.796875 72.90625 
L 49.515625 72.90625 
L 49.515625 64.59375 
L 19.828125 64.59375 
L 19.828125 46.734375 
Q 21.96875 47.46875 24.109375 47.828125 
Q 26.265625 48.1875 28.421875 48.1875 
Q 40.625 48.1875 47.75 41.5 
Q 54.890625 34.8125 54.890625 23.390625 
Q 54.890625 11.625 47.5625 5.09375 
Q 40.234375 -1.421875 26.90625 -1.421875 
Q 22.3125 -1.421875 17.546875 -0.640625 
Q 12.796875 0.140625 7.71875 1.703125 
L 7.71875 11.625 
Q 12.109375 9.234375 16.796875 8.0625 
Q 21.484375 6.890625 26.703125 6.890625 
Q 35.15625 6.890625 40.078125 11.328125 
Q 45.015625 15.765625 45.015625 23.390625 
Q 45.015625 31 40.078125 35.4375 
Q 35.15625 39.890625 26.703125 39.890625 
Q 22.75 39.890625 18.8125 39.015625 
Q 14.890625 38.140625 10.796875 36.28125 
z
" id="BitstreamVeraSans-Roman-35"/>
      </defs>
      <g transform="translate(64.803125 139.3984375)scale(0.1 -0.1)">
       <use xlink:href="#BitstreamVeraSans-Roman-30"/>
       <use x="63.623046875" xlink:href="#BitstreamVeraSans-Roman-2e"/>
       <use x="95.41015625" xlink:href="#BitstreamVeraSans-Roman-35"/>
      </g>
     </g>
    </g>
    <g id="xtick_3">
     <g id="line2d_11">
      <g>
       <use style="stroke:#000000;stroke-width:0.5;" x="100.621875" xlink:href="#m28618f83d7" y="127.8"/>
      </g>
     </g>
     <g id="line2d_12">
      <g>
       <use style="stroke:#000000;stroke-width:0.5;" x="100.621875" xlink:href="#m699b0200f4" y="15.3"/>
      </g>
     </g>
     <g id="text_3">
      <!-- 0.6 -->
      <defs>
       <path d="M 33.015625 40.375 
Q 26.375 40.375 22.484375 35.828125 
Q 18.609375 31.296875 18.609375 23.390625 
Q 18.609375 15.53125 22.484375 10.953125 
Q 26.375 6.390625 33.015625 6.390625 
Q 39.65625 6.390625 43.53125 10.953125 
Q 47.40625 15.53125 47.40625 23.390625 
Q 47.40625 31.296875 43.53125 35.828125 
Q 39.65625 40.375 33.015625 40.375 
M 52.59375 71.296875 
L 52.59375 62.3125 
Q 48.875 64.0625 45.09375 64.984375 
Q 41.3125 65.921875 37.59375 65.921875 
Q 27.828125 65.921875 22.671875 59.328125 
Q 17.53125 52.734375 16.796875 39.40625 
Q 19.671875 43.65625 24.015625 45.921875 
Q 28.375 48.1875 33.59375 48.1875 
Q 44.578125 48.1875 50.953125 41.515625 
Q 57.328125 34.859375 57.328125 23.390625 
Q 57.328125 12.15625 50.6875 5.359375 
Q 44.046875 -1.421875 33.015625 -1.421875 
Q 20.359375 -1.421875 13.671875 8.265625 
Q 6.984375 17.96875 6.984375 36.375 
Q 6.984375 53.65625 15.1875 63.9375 
Q 23.390625 74.21875 37.203125 74.21875 
Q 40.921875 74.21875 44.703125 73.484375 
Q 48.484375 72.75 52.59375 71.296875 
" id="BitstreamVeraSans-Roman-36"/>
      </defs>
      <g transform="translate(92.6703125 139.3984375)scale(0.1 -0.1)">
       <use xlink:href="#BitstreamVeraSans-Roman-30"/>
       <use x="63.623046875" xlink:href="#BitstreamVeraSans-Roman-2e"/>
       <use x="95.41015625" xlink:href="#BitstreamVeraSans-Roman-36"/>
      </g>
     </g>
    </g>
    <g id="xtick_4">
     <g id="line2d_13">
      <g>
       <use style="stroke:#000000;stroke-width:0.5;" x="128.4890625" xlink:href="#m28618f83d7" y="127.8"/>
      </g>
     </g>
     <g id="line2d_14">
      <g>
       <use style="stroke:#000000;stroke-width:0.5;" x="128.4890625" xlink:href="#m699b0200f4" y="15.3"/>
      </g>
     </g>
     <g id="text_4">
      <!-- 0.7 -->
      <defs>
       <path d="M 8.203125 72.90625 
L 55.078125 72.90625 
L 55.078125 68.703125 
L 28.609375 0 
L 18.3125 0 
L 43.21875 64.59375 
L 8.203125 64.59375 
z
" id="BitstreamVeraSans-Roman-37"/>
      </defs>
      <g transform="translate(120.5375 139.3984375)scale(0.1 -0.1)">
       <use xlink:href="#BitstreamVeraSans-Roman-30"/>
       <use x="63.623046875" xlink:href="#BitstreamVeraSans-Roman-2e"/>
       <use x="95.41015625" xlink:href="#BitstreamVeraSans-Roman-37"/>
      </g>
     </g>
    </g>
    <g id="xtick_5">
     <g id="line2d_15">
      <g>
       <use style="stroke:#000000;stroke-width:0.5;" x="156.35625" xlink:href="#m28618f83d7" y="127.8"/>
      </g>
     </g>
     <g id="line2d_16">
      <g>
       <use style="stroke:#000000;stroke-width:0.5;" x="156.35625" xlink:href="#m699b0200f4" y="15.3"/>
      </g>
     </g>
     <g id="text_5">
      <!-- 0.8 -->
      <defs>
       <path d="M 31.78125 34.625 
Q 24.75 34.625 20.71875 30.859375 
Q 16.703125 27.09375 16.703125 20.515625 
Q 16.703125 13.921875 20.71875 10.15625 
Q 24.75 6.390625 31.78125 6.390625 
Q 38.8125 6.390625 42.859375 10.171875 
Q 46.921875 13.96875 46.921875 20.515625 
Q 46.921875 27.09375 42.890625 30.859375 
Q 38.875 34.625 31.78125 34.625 
M 21.921875 38.8125 
Q 15.578125 40.375 12.03125 44.71875 
Q 8.5 49.078125 8.5 55.328125 
Q 8.5 64.0625 14.71875 69.140625 
Q 20.953125 74.21875 31.78125 74.21875 
Q 42.671875 74.21875 48.875 69.140625 
Q 55.078125 64.0625 55.078125 55.328125 
Q 55.078125 49.078125 51.53125 44.71875 
Q 48 40.375 41.703125 38.8125 
Q 48.828125 37.15625 52.796875 32.3125 
Q 56.78125 27.484375 56.78125 20.515625 
Q 56.78125 9.90625 50.3125 4.234375 
Q 43.84375 -1.421875 31.78125 -1.421875 
Q 19.734375 -1.421875 13.25 4.234375 
Q 6.78125 9.90625 6.78125 20.515625 
Q 6.78125 27.484375 10.78125 32.3125 
Q 14.796875 37.15625 21.921875 38.8125 
M 18.3125 54.390625 
Q 18.3125 48.734375 21.84375 45.5625 
Q 25.390625 42.390625 31.78125 42.390625 
Q 38.140625 42.390625 41.71875 45.5625 
Q 45.3125 48.734375 45.3125 54.390625 
Q 45.3125 60.0625 41.71875 63.234375 
Q 38.140625 66.40625 31.78125 66.40625 
Q 25.390625 66.40625 21.84375 63.234375 
Q 18.3125 60.0625 18.3125 54.390625 
" id="BitstreamVeraSans-Roman-38"/>
      </defs>
      <g transform="translate(148.4046875 139.3984375)scale(0.1 -0.1)">
       <use xlink:href="#BitstreamVeraSans-Roman-30"/>
       <use x="63.623046875" xlink:href="#BitstreamVeraSans-Roman-2e"/>
       <use x="95.41015625" xlink:href="#BitstreamVeraSans-Roman-38"/>
      </g>
     </g>
    </g>
    <g id="text_6">
     <!-- X component -->
     <defs>
      <path id="BitstreamVeraSans-Roman-20"/>
      <path d="M 54.890625 33.015625 
L 54.890625 0 
L 45.90625 0 
L 45.90625 32.71875 
Q 45.90625 40.484375 42.875 44.328125 
Q 39.84375 48.1875 33.796875 48.1875 
Q 26.515625 48.1875 22.3125 43.546875 
Q 18.109375 38.921875 18.109375 30.90625 
L 18.109375 0 
L 9.078125 0 
L 9.078125 54.6875 
L 18.109375 54.6875 
L 18.109375 46.1875 
Q 21.34375 51.125 25.703125 53.5625 
Q 30.078125 56 35.796875 56 
Q 45.21875 56 50.046875 50.171875 
Q 54.890625 44.34375 54.890625 33.015625 
" id="BitstreamVeraSans-Roman-6e"/>
      <path d="M 52 44.1875 
Q 55.375 50.25 60.0625 53.125 
Q 64.75 56 71.09375 56 
Q 79.640625 56 84.28125 50.015625 
Q 88.921875 44.046875 88.921875 33.015625 
L 88.921875 0 
L 79.890625 0 
L 79.890625 32.71875 
Q 79.890625 40.578125 77.09375 44.375 
Q 74.3125 48.1875 68.609375 48.1875 
Q 61.625 48.1875 57.5625 43.546875 
Q 53.515625 38.921875 53.515625 30.90625 
L 53.515625 0 
L 44.484375 0 
L 44.484375 32.71875 
Q 44.484375 40.625 41.703125 44.40625 
Q 38.921875 48.1875 33.109375 48.1875 
Q 26.21875 48.1875 22.15625 43.53125 
Q 18.109375 38.875 18.109375 30.90625 
L 18.109375 0 
L 9.078125 0 
L 9.078125 54.6875 
L 18.109375 54.6875 
L 18.109375 46.1875 
Q 21.1875 51.21875 25.484375 53.609375 
Q 29.78125 56 35.6875 56 
Q 41.65625 56 45.828125 52.96875 
Q 50 49.953125 52 44.1875 
" id="BitstreamVeraSans-Roman-6d"/>
      <path d="M 30.609375 48.390625 
Q 23.390625 48.390625 19.1875 42.75 
Q 14.984375 37.109375 14.984375 27.296875 
Q 14.984375 17.484375 19.15625 11.84375 
Q 23.34375 6.203125 30.609375 6.203125 
Q 37.796875 6.203125 41.984375 11.859375 
Q 46.1875 17.53125 46.1875 27.296875 
Q 46.1875 37.015625 41.984375 42.703125 
Q 37.796875 48.390625 30.609375 48.390625 
M 30.609375 56 
Q 42.328125 56 49.015625 48.375 
Q 55.71875 40.765625 55.71875 27.296875 
Q 55.71875 13.875 49.015625 6.21875 
Q 42.328125 -1.421875 30.609375 -1.421875 
Q 18.84375 -1.421875 12.171875 6.21875 
Q 5.515625 13.875 5.515625 27.296875 
Q 5.515625 40.765625 12.171875 48.375 
Q 18.84375 56 30.609375 56 
" id="BitstreamVeraSans-Roman-6f"/>
      <path d="M 56.203125 29.59375 
L 56.203125 25.203125 
L 14.890625 25.203125 
Q 15.484375 15.921875 20.484375 11.0625 
Q 25.484375 6.203125 34.421875 6.203125 
Q 39.59375 6.203125 44.453125 7.46875 
Q 49.3125 8.734375 54.109375 11.28125 
L 54.109375 2.78125 
Q 49.265625 0.734375 44.1875 -0.34375 
Q 39.109375 -1.421875 33.890625 -1.421875 
Q 20.796875 -1.421875 13.15625 6.1875 
Q 5.515625 13.8125 5.515625 26.8125 
Q 5.515625 40.234375 12.765625 48.109375 
Q 20.015625 56 32.328125 56 
Q 43.359375 56 49.78125 48.890625 
Q 56.203125 41.796875 56.203125 29.59375 
M 47.21875 32.234375 
Q 47.125 39.59375 43.09375 43.984375 
Q 39.0625 48.390625 32.421875 48.390625 
Q 24.90625 48.390625 20.390625 44.140625 
Q 15.875 39.890625 15.1875 32.171875 
z
" id="BitstreamVeraSans-Roman-65"/>
      <path d="M 48.78125 52.59375 
L 48.78125 44.1875 
Q 44.96875 46.296875 41.140625 47.34375 
Q 37.3125 48.390625 33.40625 48.390625 
Q 24.65625 48.390625 19.8125 42.84375 
Q 14.984375 37.3125 14.984375 27.296875 
Q 14.984375 17.28125 19.8125 11.734375 
Q 24.65625 6.203125 33.40625 6.203125 
Q 37.3125 6.203125 41.140625 7.25 
Q 44.96875 8.296875 48.78125 10.40625 
L 48.78125 2.09375 
Q 45.015625 0.34375 40.984375 -0.53125 
Q 36.96875 -1.421875 32.421875 -1.421875 
Q 20.0625 -1.421875 12.78125 6.34375 
Q 5.515625 14.109375 5.515625 27.296875 
Q 5.515625 40.671875 12.859375 48.328125 
Q 20.21875 56 33.015625 56 
Q 37.15625 56 41.109375 55.140625 
Q 45.0625 54.296875 48.78125 52.59375 
" id="BitstreamVeraSans-Roman-63"/>
      <path d="M 6.296875 72.90625 
L 16.890625 72.90625 
L 35.015625 45.796875 
L 53.21875 72.90625 
L 63.8125 72.90625 
L 40.375 37.890625 
L 65.375 0 
L 54.78125 0 
L 34.28125 31 
L 13.625 0 
L 2.984375 0 
L 29 38.921875 
z
" id="BitstreamVeraSans-Roman-58"/>
      <path d="M 18.3125 70.21875 
L 18.3125 54.6875 
L 36.8125 54.6875 
L 36.8125 47.703125 
L 18.3125 47.703125 
L 18.3125 18.015625 
Q 18.3125 11.328125 20.140625 9.421875 
Q 21.96875 7.515625 27.59375 7.515625 
L 36.8125 7.515625 
L 36.8125 0 
L 27.59375 0 
Q 17.1875 0 13.234375 3.875 
Q 9.28125 7.765625 9.28125 18.015625 
L 9.28125 47.703125 
L 2.6875 47.703125 
L 2.6875 54.6875 
L 9.28125 54.6875 
L 9.28125 70.21875 
z
" id="BitstreamVeraSans-Roman-74"/>
      <path d="M 18.109375 8.203125 
L 18.109375 -20.796875 
L 9.078125 -20.796875 
L 9.078125 54.6875 
L 18.109375 54.6875 
L 18.109375 46.390625 
Q 20.953125 51.265625 25.265625 53.625 
Q 29.59375 56 35.59375 56 
Q 45.5625 56 51.78125 48.09375 
Q 58.015625 40.1875 58.015625 27.296875 
Q 58.015625 14.40625 51.78125 6.484375 
Q 45.5625 -1.421875 35.59375 -1.421875 
Q 29.59375 -1.421875 25.265625 0.953125 
Q 20.953125 3.328125 18.109375 8.203125 
M 48.6875 27.296875 
Q 48.6875 37.203125 44.609375 42.84375 
Q 40.53125 48.484375 33.40625 48.484375 
Q 26.265625 48.484375 22.1875 42.84375 
Q 18.109375 37.203125 18.109375 27.296875 
Q 18.109375 17.390625 22.1875 11.75 
Q 26.265625 6.109375 33.40625 6.109375 
Q 40.53125 6.109375 44.609375 11.75 
Q 48.6875 17.390625 48.6875 27.296875 
" id="BitstreamVeraSans-Roman-70"/>
     </defs>
     <g transform="translate(67.32109375 154.0765625)scale(0.1 -0.1)">
      <use xlink:href="#BitstreamVeraSans-Roman-58"/>
      <use x="68.505859375" xlink:href="#BitstreamVeraSans-Roman-20"/>
      <use x="100.29296875" xlink:href="#BitstreamVeraSans-Roman-63"/>
      <use x="155.2734375" xlink:href="#BitstreamVeraSans-Roman-6f"/>
      <use x="216.455078125" xlink:href="#BitstreamVeraSans-Roman-6d"/>
      <use x="313.8671875" xlink:href="#BitstreamVeraSans-Roman-70"/>
      <use x="377.34375" xlink:href="#BitstreamVeraSans-Roman-6f"/>
      <use x="438.525390625" xlink:href="#BitstreamVeraSans-Roman-6e"/>
      <use x="501.904296875" xlink:href="#BitstreamVeraSans-Roman-65"/>
      <use x="563.427734375" xlink:href="#BitstreamVeraSans-Roman-6e"/>
      <use x="626.806640625" xlink:href="#BitstreamVeraSans-Roman-74"/>
     </g>
    </g>
   </g>
   <g id="matplotlib.axis_2">
    <g id="ytick_1">
     <g id="line2d_17">
      <defs>
       <path d="M 0 0 
L 4 0 
" id="m0dc04b4b6c" style="stroke:#000000;stroke-width:0.5;"/>
      </defs>
      <g>
       <use style="stroke:#000000;stroke-width:0.5;" x="44.8875" xlink:href="#m0dc04b4b6c" y="127.8"/>
      </g>
     </g>
     <g id="line2d_18">
      <defs>
       <path d="M 0 0 
L -4 0 
" id="mcaecec3374" style="stroke:#000000;stroke-width:0.5;"/>
      </defs>
      <g>
       <use style="stroke:#000000;stroke-width:0.5;" x="156.35625" xlink:href="#mcaecec3374" y="127.8"/>
      </g>
     </g>
     <g id="text_7">
      <!-- 0.0 -->
      <g transform="translate(24.984375 130.559375)scale(0.1 -0.1)">
       <use xlink:href="#BitstreamVeraSans-Roman-30"/>
       <use x="63.623046875" xlink:href="#BitstreamVeraSans-Roman-2e"/>
       <use x="95.41015625" xlink:href="#BitstreamVeraSans-Roman-30"/>
      </g>
     </g>
    </g>
    <g id="ytick_2">
     <g id="line2d_19">
      <g>
       <use style="stroke:#000000;stroke-width:0.5;" x="44.8875" xlink:href="#m0dc04b4b6c" y="71.55"/>
      </g>
     </g>
     <g id="line2d_20">
      <g>
       <use style="stroke:#000000;stroke-width:0.5;" x="156.35625" xlink:href="#mcaecec3374" y="71.55"/>
      </g>
     </g>
     <g id="text_8">
      <!-- 0.5 -->
      <g transform="translate(24.984375 74.309375)scale(0.1 -0.1)">
       <use xlink:href="#BitstreamVeraSans-Roman-30"/>
       <use x="63.623046875" xlink:href="#BitstreamVeraSans-Roman-2e"/>
       <use x="95.41015625" xlink:href="#BitstreamVeraSans-Roman-35"/>
      </g>
     </g>
    </g>
    <g id="ytick_3">
     <g id="line2d_21">
      <g>
       <use style="stroke:#000000;stroke-width:0.5;" x="44.8875" xlink:href="#m0dc04b4b6c" y="15.3"/>
      </g>
     </g>
     <g id="line2d_22">
      <g>
       <use style="stroke:#000000;stroke-width:0.5;" x="156.35625" xlink:href="#mcaecec3374" y="15.3"/>
      </g>
     </g>
     <g id="text_9">
      <!-- 1.0 -->
      <defs>
       <path d="M 12.40625 8.296875 
L 28.515625 8.296875 
L 28.515625 63.921875 
L 10.984375 60.40625 
L 10.984375 69.390625 
L 28.421875 72.90625 
L 38.28125 72.90625 
L 38.28125 8.296875 
L 54.390625 8.296875 
L 54.390625 0 
L 12.40625 0 
z
" id="BitstreamVeraSans-Roman-31"/>
      </defs>
      <g transform="translate(24.984375 18.059375)scale(0.1 -0.1)">
       <use xlink:href="#BitstreamVeraSans-Roman-31"/>
       <use x="63.623046875" xlink:href="#BitstreamVeraSans-Roman-2e"/>
       <use x="95.41015625" xlink:href="#BitstreamVeraSans-Roman-30"/>
      </g>
     </g>
    </g>
    <g id="text_10">
     <!-- Cumulative Distribution -->
     <defs>
      <path d="M 41.109375 46.296875 
Q 39.59375 47.171875 37.8125 47.578125 
Q 36.03125 48 33.890625 48 
Q 26.265625 48 22.1875 43.046875 
Q 18.109375 38.09375 18.109375 28.8125 
L 18.109375 0 
L 9.078125 0 
L 9.078125 54.6875 
L 18.109375 54.6875 
L 18.109375 46.1875 
Q 20.953125 51.171875 25.484375 53.578125 
Q 30.03125 56 36.53125 56 
Q 37.453125 56 38.578125 55.875 
Q 39.703125 55.765625 41.0625 55.515625 
z
" id="BitstreamVeraSans-Roman-72"/>
      <path d="M 9.421875 75.984375 
L 18.40625 75.984375 
L 18.40625 0 
L 9.421875 0 
z
" id="BitstreamVeraSans-Roman-6c"/>
      <path d="M 19.671875 64.796875 
L 19.671875 8.109375 
L 31.59375 8.109375 
Q 46.6875 8.109375 53.6875 14.9375 
Q 60.6875 21.78125 60.6875 36.53125 
Q 60.6875 51.171875 53.6875 57.984375 
Q 46.6875 64.796875 31.59375 64.796875 
z
M 9.8125 72.90625 
L 30.078125 72.90625 
Q 51.265625 72.90625 61.171875 64.09375 
Q 71.09375 55.28125 71.09375 36.53125 
Q 71.09375 17.671875 61.125 8.828125 
Q 51.171875 0 30.078125 0 
L 9.8125 0 
z
" id="BitstreamVeraSans-Roman-44"/>
      <path d="M 9.421875 54.6875 
L 18.40625 54.6875 
L 18.40625 0 
L 9.421875 0 
z
M 9.421875 75.984375 
L 18.40625 75.984375 
L 18.40625 64.59375 
L 9.421875 64.59375 
z
" id="BitstreamVeraSans-Roman-69"/>
      <path d="M 2.984375 54.6875 
L 12.5 54.6875 
L 29.59375 8.796875 
L 46.6875 54.6875 
L 56.203125 54.6875 
L 35.6875 0 
L 23.484375 0 
z
" id="BitstreamVeraSans-Roman-76"/>
      <path d="M 64.40625 67.28125 
L 64.40625 56.890625 
Q 59.421875 61.53125 53.78125 63.8125 
Q 48.140625 66.109375 41.796875 66.109375 
Q 29.296875 66.109375 22.65625 58.46875 
Q 16.015625 50.828125 16.015625 36.375 
Q 16.015625 21.96875 22.65625 14.328125 
Q 29.296875 6.6875 41.796875 6.6875 
Q 48.140625 6.6875 53.78125 8.984375 
Q 59.421875 11.28125 64.40625 15.921875 
L 64.40625 5.609375 
Q 59.234375 2.09375 53.4375 0.328125 
Q 47.65625 -1.421875 41.21875 -1.421875 
Q 24.65625 -1.421875 15.125 8.703125 
Q 5.609375 18.84375 5.609375 36.375 
Q 5.609375 53.953125 15.125 64.078125 
Q 24.65625 74.21875 41.21875 74.21875 
Q 47.75 74.21875 53.53125 72.484375 
Q 59.328125 70.75 64.40625 67.28125 
" id="BitstreamVeraSans-Roman-43"/>
      <path d="M 8.5 21.578125 
L 8.5 54.6875 
L 17.484375 54.6875 
L 17.484375 21.921875 
Q 17.484375 14.15625 20.5 10.265625 
Q 23.53125 6.390625 29.59375 6.390625 
Q 36.859375 6.390625 41.078125 11.03125 
Q 45.3125 15.671875 45.3125 23.6875 
L 45.3125 54.6875 
L 54.296875 54.6875 
L 54.296875 0 
L 45.3125 0 
L 45.3125 8.40625 
Q 42.046875 3.421875 37.71875 1 
Q 33.40625 -1.421875 27.6875 -1.421875 
Q 18.265625 -1.421875 13.375 4.4375 
Q 8.5 10.296875 8.5 21.578125 
" id="BitstreamVeraSans-Roman-75"/>
      <path d="M 34.28125 27.484375 
Q 23.390625 27.484375 19.1875 25 
Q 14.984375 22.515625 14.984375 16.5 
Q 14.984375 11.71875 18.140625 8.90625 
Q 21.296875 6.109375 26.703125 6.109375 
Q 34.1875 6.109375 38.703125 11.40625 
Q 43.21875 16.703125 43.21875 25.484375 
L 43.21875 27.484375 
z
M 52.203125 31.203125 
L 52.203125 0 
L 43.21875 0 
L 43.21875 8.296875 
Q 40.140625 3.328125 35.546875 0.953125 
Q 30.953125 -1.421875 24.3125 -1.421875 
Q 15.921875 -1.421875 10.953125 3.296875 
Q 6 8.015625 6 15.921875 
Q 6 25.140625 12.171875 29.828125 
Q 18.359375 34.515625 30.609375 34.515625 
L 43.21875 34.515625 
L 43.21875 35.40625 
Q 43.21875 41.609375 39.140625 45 
Q 35.0625 48.390625 27.6875 48.390625 
Q 23 48.390625 18.546875 47.265625 
Q 14.109375 46.140625 10.015625 43.890625 
L 10.015625 52.203125 
Q 14.9375 54.109375 19.578125 55.046875 
Q 24.21875 56 28.609375 56 
Q 40.484375 56 46.34375 49.84375 
Q 52.203125 43.703125 52.203125 31.203125 
" id="BitstreamVeraSans-Roman-61"/>
      <path d="M 44.28125 53.078125 
L 44.28125 44.578125 
Q 40.484375 46.53125 36.375 47.5 
Q 32.28125 48.484375 27.875 48.484375 
Q 21.1875 48.484375 17.84375 46.4375 
Q 14.5 44.390625 14.5 40.28125 
Q 14.5 37.15625 16.890625 35.375 
Q 19.28125 33.59375 26.515625 31.984375 
L 29.59375 31.296875 
Q 39.15625 29.25 43.1875 25.515625 
Q 47.21875 21.78125 47.21875 15.09375 
Q 47.21875 7.46875 41.1875 3.015625 
Q 35.15625 -1.421875 24.609375 -1.421875 
Q 20.21875 -1.421875 15.453125 -0.5625 
Q 10.6875 0.296875 5.421875 2 
L 5.421875 11.28125 
Q 10.40625 8.6875 15.234375 7.390625 
Q 20.0625 6.109375 24.8125 6.109375 
Q 31.15625 6.109375 34.5625 8.28125 
Q 37.984375 10.453125 37.984375 14.40625 
Q 37.984375 18.0625 35.515625 20.015625 
Q 33.0625 21.96875 24.703125 23.78125 
L 21.578125 24.515625 
Q 13.234375 26.265625 9.515625 29.90625 
Q 5.8125 33.546875 5.8125 39.890625 
Q 5.8125 47.609375 11.28125 51.796875 
Q 16.75 56 26.8125 56 
Q 31.78125 56 36.171875 55.265625 
Q 40.578125 54.546875 44.28125 53.078125 
" id="BitstreamVeraSans-Roman-73"/>
      <path d="M 48.6875 27.296875 
Q 48.6875 37.203125 44.609375 42.84375 
Q 40.53125 48.484375 33.40625 48.484375 
Q 26.265625 48.484375 22.1875 42.84375 
Q 18.109375 37.203125 18.109375 27.296875 
Q 18.109375 17.390625 22.1875 11.75 
Q 26.265625 6.109375 33.40625 6.109375 
Q 40.53125 6.109375 44.609375 11.75 
Q 48.6875 17.390625 48.6875 27.296875 
M 18.109375 46.390625 
Q 20.953125 51.265625 25.265625 53.625 
Q 29.59375 56 35.59375 56 
Q 45.5625 56 51.78125 48.09375 
Q 58.015625 40.1875 58.015625 27.296875 
Q 58.015625 14.40625 51.78125 6.484375 
Q 45.5625 -1.421875 35.59375 -1.421875 
Q 29.59375 -1.421875 25.265625 0.953125 
Q 20.953125 3.328125 18.109375 8.203125 
L 18.109375 0 
L 9.078125 0 
L 9.078125 75.984375 
L 18.109375 75.984375 
z
" id="BitstreamVeraSans-Roman-62"/>
     </defs>
     <g transform="translate(17.9046875 130.8453125)rotate(-90.0)scale(0.1 -0.1)">
      <use xlink:href="#BitstreamVeraSans-Roman-43"/>
      <use x="69.82421875" xlink:href="#BitstreamVeraSans-Roman-75"/>
      <use x="133.203125" xlink:href="#BitstreamVeraSans-Roman-6d"/>
      <use x="230.615234375" xlink:href="#BitstreamVeraSans-Roman-75"/>
      <use x="293.994140625" xlink:href="#BitstreamVeraSans-Roman-6c"/>
      <use x="321.77734375" xlink:href="#BitstreamVeraSans-Roman-61"/>
      <use x="383.056640625" xlink:href="#BitstreamVeraSans-Roman-74"/>
      <use x="422.265625" xlink:href="#BitstreamVeraSans-Roman-69"/>
      <use x="450.048828125" xlink:href="#BitstreamVeraSans-Roman-76"/>
      <use x="509.228515625" xlink:href="#BitstreamVeraSans-Roman-65"/>
      <use x="570.751953125" xlink:href="#BitstreamVeraSans-Roman-20"/>
      <use x="602.5390625" xlink:href="#BitstreamVeraSans-Roman-44"/>
      <use x="679.541015625" xlink:href="#BitstreamVeraSans-Roman-69"/>
      <use x="707.32421875" xlink:href="#BitstreamVeraSans-Roman-73"/>
      <use x="759.423828125" xlink:href="#BitstreamVeraSans-Roman-74"/>
      <use x="798.6328125" xlink:href="#BitstreamVeraSans-Roman-72"/>
      <use x="839.74609375" xlink:href="#BitstreamVeraSans-Roman-69"/>
      <use x="867.529296875" xlink:href="#BitstreamVeraSans-Roman-62"/>
      <use x="931.005859375" xlink:href="#BitstreamVeraSans-Roman-75"/>
      <use x="994.384765625" xlink:href="#BitstreamVeraSans-Roman-74"/>
      <use x="1033.59375" xlink:href="#BitstreamVeraSans-Roman-69"/>
      <use x="1061.37695312" xlink:href="#BitstreamVeraSans-Roman-6f"/>
      <use x="1122.55859375" xlink:href="#BitstreamVeraSans-Roman-6e"/>
     </g>
    </g>
   </g>
  </g>
  <g id="axes_2">
   <g id="patch_7">
    <path d="M 209.2875 127.8 
L 320.75625 127.8 
L 320.75625 15.3 
L 209.2875 15.3 
z
" style="fill:#ffffff;"/>
   </g>
   <g id="line2d_23">
    <path clip-path="url(#p8252dce00e)" d="M 230.06349 127.8 
L 235.137826 127.6425 
L 236.209965 127.4175 
L 237.914157 127.0125 
L 238.093988 126.8775 
L 239.100949 126.54 
L 239.355975 126.3375 
L 239.813318 126.0675 
L 239.966161 125.9775 
L 240.202254 125.7525 
L 241.047512 125.055 
L 241.178266 124.9425 
L 241.35737 124.7625 
L 241.486404 124.4925 
L 241.587508 124.335 
L 241.85147 123.975 
L 242.052055 123.75 
L 242.18521 123.525 
L 242.311061 123.2775 
L 242.418966 123.0075 
L 242.89638 122.31 
L 243.15977 121.635 
L 243.275972 121.365 
L 243.457044 120.9825 
L 243.566389 120.78 
L 243.633408 120.6225 
L 244.01112 119.6775 
L 244.125491 119.4525 
L 244.275316 118.935 
L 244.455429 118.35 
L 244.649224 118.035 
L 245.044845 116.775 
L 245.180378 116.3925 
L 245.26193 116.1225 
L 247.353419 108.09 
L 247.55003 106.9425 
L 247.603997 106.695 
L 247.840438 105.57 
L 248.062586 104.445 
L 248.30985 103.2975 
L 248.438337 102.555 
L 248.724632 100.98 
L 248.827475 100.44 
L 249.042397 99.0225 
L 249.137303 98.505 
L 249.418218 96.8625 
L 249.517324 96.3675 
L 250.018557 93.06 
L 250.135526 92.3625 
L 250.278833 91.3275 
L 250.363123 90.72 
L 250.505366 89.685 
L 250.702737 88.2675 
L 251.111802 85.9725 
L 251.167017 85.6575 
L 251.494868 83.61 
L 251.572885 83.1825 
L 251.700113 82.4175 
L 251.875216 81.4725 
L 251.985624 80.55 
L 256.067263 51.5925 
L 256.147223 51.0975 
L 256.350823 49.86 
L 256.431898 49.5 
L 256.613692 48.1725 
L 256.743282 47.655 
L 257.381596 43.83 
L 257.482037 43.2225 
L 257.532236 42.9525 
L 258.469331 37.8 
L 258.571438 37.2825 
L 258.936773 35.28 
L 259.038657 34.8075 
L 259.34009 33.2325 
L 260.714378 28.125 
L 260.793469 27.945 
L 261.095908 26.955 
L 261.183079 26.64 
L 261.328006 26.1225 
L 263.178506 21.42 
L 263.386159 21.1725 
L 264.235289 19.6875 
L 264.529922 19.5075 
L 264.827169 19.08 
L 264.925338 18.8325 
L 265.13732 18.6075 
L 265.532598 18.1125 
L 265.632945 17.9775 
L 265.860251 17.6625 
L 266.053944 17.505 
L 266.224688 17.19 
L 266.596209 16.965 
L 267.1702 16.4925 
L 267.640686 16.29 
L 268.11344 16.0875 
L 269.657941 15.705 
L 272.090355 15.435 
L 272.331049 15.39 
L 278.893323 15.3225 
L 278.893323 15.3225 
" style="fill:none;stroke:#ff0000;stroke-linecap:square;"/>
   </g>
   <g id="line2d_24">
    <path clip-path="url(#p8252dce00e)" d="M 241.120628 127.8 
L 241.120628 15.3 
" style="fill:none;stroke:#ff0000;stroke-linecap:square;"/>
   </g>
   <g id="line2d_25">
    <path clip-path="url(#p8252dce00e)" d="M 265.532598 127.8 
L 265.532598 15.3 
" style="fill:none;stroke:#ff0000;stroke-linecap:square;"/>
   </g>
   <g id="line2d_26">
    <path clip-path="url(#p8252dce00e)" d="M 248.320497 127.8 
L 253.594284 127.5525 
L 253.643001 127.5075 
L 255.076928 127.35 
L 255.824369 127.17 
L 256.332884 126.99 
L 256.813409 126.81 
L 257.339173 126.54 
L 258.575841 126.135 
L 258.899006 126 
L 258.945873 125.9325 
L 259.487831 125.6625 
L 259.721197 125.415 
L 260.091047 125.1225 
L 260.528312 124.875 
L 260.753146 124.7625 
L 261.095209 124.5825 
L 261.216228 124.3575 
L 263.233448 121.9725 
L 263.34582 121.6125 
L 263.616281 121.3425 
L 263.792507 121.005 
L 264.025259 120.7575 
L 264.195647 120.33 
L 264.492466 119.8125 
L 264.814936 119.16 
L 264.892979 118.9125 
L 265.388268 117.9675 
L 265.476152 117.7875 
L 267.765328 110.925 
L 268.227863 109.1025 
L 268.462374 108.495 
L 269.585863 103.2525 
L 269.7392 102.465 
L 269.814719 102.2625 
L 270.085156 100.9575 
L 270.164477 100.71 
L 270.311631 99.99 
L 270.418977 99.5175 
L 271.585854 94.1625 
L 271.71884 93.555 
L 271.953985 92.475 
L 272.149638 91.6425 
L 272.219063 91.26 
L 272.647589 88.47 
L 272.715161 88.2 
L 272.828081 87.57 
L 272.926258 86.8275 
L 273.220698 85.2525 
L 273.312967 84.87 
L 276.811529 66.15 
L 276.85857 65.97 
L 276.984601 65.0025 
L 277.042387 64.71 
L 277.683389 61.0425 
L 277.928055 59.67 
L 277.971344 59.4 
L 279.100334 53.5725 
L 279.160701 53.2575 
L 279.314534 52.4025 
L 279.43021 51.5475 
L 280.413855 46.215 
L 280.467476 45.9675 
L 280.667263 45.1125 
L 280.804891 44.46 
L 281.055993 43.515 
L 281.119137 43.1325 
L 281.261824 42.5475 
L 281.438442 41.6475 
L 281.884741 39.735 
L 281.936279 39.5775 
L 281.997074 39.285 
L 282.124496 38.7225 
L 282.187162 38.475 
L 282.328467 37.9125 
L 285.109542 28.26 
L 285.203847 28.035 
L 286.940074 23.4675 
L 286.991753 23.265 
L 287.518176 22.005 
L 287.700916 21.8025 
L 287.90958 21.5325 
L 288.07594 21.3075 
L 288.462262 20.655 
L 288.581861 20.34 
L 289.348836 19.215 
L 289.575533 18.99 
L 289.730652 18.765 
L 290.046496 18.4725 
L 290.177964 18.2925 
L 290.426837 18.135 
L 290.793151 17.8425 
L 291.585036 17.3925 
L 291.668414 17.3025 
L 292.041027 17.1675 
L 292.113799 17.1 
L 292.548365 16.9425 
L 292.750677 16.785 
L 293.69397 16.47 
L 294.051635 16.155 
L 294.342566 15.975 
L 295.133831 15.795 
L 295.302596 15.7275 
L 300.23421 15.3225 
L 300.23421 15.3225 
" style="fill:none;stroke:#0000ff;stroke-linecap:square;"/>
   </g>
   <g id="line2d_27">
    <path clip-path="url(#p8252dce00e)" d="M 260.294072 127.8 
L 260.294072 15.3 
" style="fill:none;stroke:#0000ff;stroke-dasharray:6.000000,6.000000;stroke-dashoffset:0.0;"/>
   </g>
   <g id="line2d_28">
    <path clip-path="url(#p8252dce00e)" d="M 290.444464 127.8 
L 290.444464 15.3 
" style="fill:none;stroke:#0000ff;stroke-dasharray:6.000000,6.000000;stroke-dashoffset:0.0;"/>
   </g>
   <g id="patch_8">
    <path d="M 209.2875 15.3 
L 320.75625 15.3 
" style="fill:none;stroke:#000000;stroke-linecap:square;stroke-linejoin:miter;"/>
   </g>
   <g id="patch_9">
    <path d="M 320.75625 127.8 
L 320.75625 15.3 
" style="fill:none;stroke:#000000;stroke-linecap:square;stroke-linejoin:miter;"/>
   </g>
   <g id="patch_10">
    <path d="M 209.2875 127.8 
L 320.75625 127.8 
" style="fill:none;stroke:#000000;stroke-linecap:square;stroke-linejoin:miter;"/>
   </g>
   <g id="patch_11">
    <path d="M 209.2875 127.8 
L 209.2875 15.3 
" style="fill:none;stroke:#000000;stroke-linecap:square;stroke-linejoin:miter;"/>
   </g>
   <g id="matplotlib.axis_3">
    <g id="xtick_6">
     <g id="line2d_29">
      <g>
       <use style="stroke:#000000;stroke-width:0.5;" x="231.58125" xlink:href="#m28618f83d7" y="127.8"/>
      </g>
     </g>
     <g id="line2d_30">
      <g>
       <use style="stroke:#000000;stroke-width:0.5;" x="231.58125" xlink:href="#m699b0200f4" y="15.3"/>
      </g>
     </g>
     <g id="text_11">
      <!-- 0.2 -->
      <defs>
       <path d="M 19.1875 8.296875 
L 53.609375 8.296875 
L 53.609375 0 
L 7.328125 0 
L 7.328125 8.296875 
Q 12.9375 14.109375 22.625 23.890625 
Q 32.328125 33.6875 34.8125 36.53125 
Q 39.546875 41.84375 41.421875 45.53125 
Q 43.3125 49.21875 43.3125 52.78125 
Q 43.3125 58.59375 39.234375 62.25 
Q 35.15625 65.921875 28.609375 65.921875 
Q 23.96875 65.921875 18.8125 64.3125 
Q 13.671875 62.703125 7.8125 59.421875 
L 7.8125 69.390625 
Q 13.765625 71.78125 18.9375 73 
Q 24.125 74.21875 28.421875 74.21875 
Q 39.75 74.21875 46.484375 68.546875 
Q 53.21875 62.890625 53.21875 53.421875 
Q 53.21875 48.921875 51.53125 44.890625 
Q 49.859375 40.875 45.40625 35.40625 
Q 44.1875 33.984375 37.640625 27.21875 
Q 31.109375 20.453125 19.1875 8.296875 
" id="BitstreamVeraSans-Roman-32"/>
      </defs>
      <g transform="translate(223.6296875 139.3984375)scale(0.1 -0.1)">
       <use xlink:href="#BitstreamVeraSans-Roman-30"/>
       <use x="63.623046875" xlink:href="#BitstreamVeraSans-Roman-2e"/>
       <use x="95.41015625" xlink:href="#BitstreamVeraSans-Roman-32"/>
      </g>
     </g>
    </g>
    <g id="xtick_7">
     <g id="line2d_31">
      <g>
       <use style="stroke:#000000;stroke-width:0.5;" x="276.16875" xlink:href="#m28618f83d7" y="127.8"/>
      </g>
     </g>
     <g id="line2d_32">
      <g>
       <use style="stroke:#000000;stroke-width:0.5;" x="276.16875" xlink:href="#m699b0200f4" y="15.3"/>
      </g>
     </g>
     <g id="text_12">
      <!-- 0.4 -->
      <g transform="translate(268.2171875 139.3984375)scale(0.1 -0.1)">
       <use xlink:href="#BitstreamVeraSans-Roman-30"/>
       <use x="63.623046875" xlink:href="#BitstreamVeraSans-Roman-2e"/>
       <use x="95.41015625" xlink:href="#BitstreamVeraSans-Roman-34"/>
      </g>
     </g>
    </g>
    <g id="xtick_8">
     <g id="text_13">
      <!-- 0.6 -->
      <g transform="translate(312.8046875 139.3984375)scale(0.1 -0.1)">
       <use xlink:href="#BitstreamVeraSans-Roman-30"/>
       <use x="63.623046875" xlink:href="#BitstreamVeraSans-Roman-2e"/>
       <use x="95.41015625" xlink:href="#BitstreamVeraSans-Roman-36"/>
      </g>
     </g>
    </g>
    <g id="text_14">
     <!-- Y component -->
     <defs>
      <path d="M -0.203125 72.90625 
L 10.40625 72.90625 
L 30.609375 42.921875 
L 50.6875 72.90625 
L 61.28125 72.90625 
L 35.5 34.71875 
L 35.5 0 
L 25.59375 0 
L 25.59375 34.71875 
z
" id="BitstreamVeraSans-Roman-59"/>
     </defs>
     <g transform="translate(232.0921875 154.0765625)scale(0.1 -0.1)">
      <use xlink:href="#BitstreamVeraSans-Roman-59"/>
      <use x="61.083984375" xlink:href="#BitstreamVeraSans-Roman-20"/>
      <use x="92.87109375" xlink:href="#BitstreamVeraSans-Roman-63"/>
      <use x="147.8515625" xlink:href="#BitstreamVeraSans-Roman-6f"/>
      <use x="209.033203125" xlink:href="#BitstreamVeraSans-Roman-6d"/>
      <use x="306.4453125" xlink:href="#BitstreamVeraSans-Roman-70"/>
      <use x="369.921875" xlink:href="#BitstreamVeraSans-Roman-6f"/>
      <use x="431.103515625" xlink:href="#BitstreamVeraSans-Roman-6e"/>
      <use x="494.482421875" xlink:href="#BitstreamVeraSans-Roman-65"/>
      <use x="556.005859375" xlink:href="#BitstreamVeraSans-Roman-6e"/>
      <use x="619.384765625" xlink:href="#BitstreamVeraSans-Roman-74"/>
     </g>
    </g>
   </g>
   <g id="matplotlib.axis_4">
    <g id="ytick_4">
     <g id="line2d_33">
      <g>
       <use style="stroke:#000000;stroke-width:0.5;" x="209.2875" xlink:href="#m0dc04b4b6c" y="127.8"/>
      </g>
     </g>
     <g id="line2d_34">
      <g>
       <use style="stroke:#000000;stroke-width:0.5;" x="320.75625" xlink:href="#mcaecec3374" y="127.8"/>
      </g>
     </g>
     <g id="text_15">
      <!-- 0.0 -->
      <g transform="translate(189.384375 130.559375)scale(0.1 -0.1)">
       <use xlink:href="#BitstreamVeraSans-Roman-30"/>
       <use x="63.623046875" xlink:href="#BitstreamVeraSans-Roman-2e"/>
       <use x="95.41015625" xlink:href="#BitstreamVeraSans-Roman-30"/>
      </g>
     </g>
    </g>
    <g id="ytick_5">
     <g id="line2d_35">
      <g>
       <use style="stroke:#000000;stroke-width:0.5;" x="209.2875" xlink:href="#m0dc04b4b6c" y="71.55"/>
      </g>
     </g>
     <g id="line2d_36">
      <g>
       <use style="stroke:#000000;stroke-width:0.5;" x="320.75625" xlink:href="#mcaecec3374" y="71.55"/>
      </g>
     </g>
     <g id="text_16">
      <!-- 0.5 -->
      <g transform="translate(189.384375 74.309375)scale(0.1 -0.1)">
       <use xlink:href="#BitstreamVeraSans-Roman-30"/>
       <use x="63.623046875" xlink:href="#BitstreamVeraSans-Roman-2e"/>
       <use x="95.41015625" xlink:href="#BitstreamVeraSans-Roman-35"/>
      </g>
     </g>
    </g>
    <g id="ytick_6">
     <g id="line2d_37">
      <g>
       <use style="stroke:#000000;stroke-width:0.5;" x="209.2875" xlink:href="#m0dc04b4b6c" y="15.3"/>
      </g>
     </g>
     <g id="line2d_38">
      <g>
       <use style="stroke:#000000;stroke-width:0.5;" x="320.75625" xlink:href="#mcaecec3374" y="15.3"/>
      </g>
     </g>
     <g id="text_17">
      <!-- 1.0 -->
      <g transform="translate(189.384375 18.059375)scale(0.1 -0.1)">
       <use xlink:href="#BitstreamVeraSans-Roman-31"/>
       <use x="63.623046875" xlink:href="#BitstreamVeraSans-Roman-2e"/>
       <use x="95.41015625" xlink:href="#BitstreamVeraSans-Roman-30"/>
      </g>
     </g>
    </g>
    <g id="text_18">
     <!-- Cumulative Distribution -->
     <g transform="translate(182.3046875 130.8453125)rotate(-90.0)scale(0.1 -0.1)">
      <use xlink:href="#BitstreamVeraSans-Roman-43"/>
      <use x="69.82421875" xlink:href="#BitstreamVeraSans-Roman-75"/>
      <use x="133.203125" xlink:href="#BitstreamVeraSans-Roman-6d"/>
      <use x="230.615234375" xlink:href="#BitstreamVeraSans-Roman-75"/>
      <use x="293.994140625" xlink:href="#BitstreamVeraSans-Roman-6c"/>
      <use x="321.77734375" xlink:href="#BitstreamVeraSans-Roman-61"/>
      <use x="383.056640625" xlink:href="#BitstreamVeraSans-Roman-74"/>
      <use x="422.265625" xlink:href="#BitstreamVeraSans-Roman-69"/>
      <use x="450.048828125" xlink:href="#BitstreamVeraSans-Roman-76"/>
      <use x="509.228515625" xlink:href="#BitstreamVeraSans-Roman-65"/>
      <use x="570.751953125" xlink:href="#BitstreamVeraSans-Roman-20"/>
      <use x="602.5390625" xlink:href="#BitstreamVeraSans-Roman-44"/>
      <use x="679.541015625" xlink:href="#BitstreamVeraSans-Roman-69"/>
      <use x="707.32421875" xlink:href="#BitstreamVeraSans-Roman-73"/>
      <use x="759.423828125" xlink:href="#BitstreamVeraSans-Roman-74"/>
      <use x="798.6328125" xlink:href="#BitstreamVeraSans-Roman-72"/>
      <use x="839.74609375" xlink:href="#BitstreamVeraSans-Roman-69"/>
      <use x="867.529296875" xlink:href="#BitstreamVeraSans-Roman-62"/>
      <use x="931.005859375" xlink:href="#BitstreamVeraSans-Roman-75"/>
      <use x="994.384765625" xlink:href="#BitstreamVeraSans-Roman-74"/>
      <use x="1033.59375" xlink:href="#BitstreamVeraSans-Roman-69"/>
      <use x="1061.37695312" xlink:href="#BitstreamVeraSans-Roman-6f"/>
      <use x="1122.55859375" xlink:href="#BitstreamVeraSans-Roman-6e"/>
     </g>
    </g>
   </g>
  </g>
  <g id="axes_3">
   <g id="patch_12">
    <path d="M 373.6875 127.8 
L 485.15625 127.8 
L 485.15625 15.3 
L 373.6875 15.3 
z
" style="fill:#ffffff;"/>
   </g>
   <g id="line2d_39">
    <path clip-path="url(#pc930331151)" d="M 409.535179 127.8 
L 413.332952 127.6425 
L 413.645482 127.5975 
L 415.421972 127.395 
L 418.126787 126.9 
L 420.573952 125.685 
L 422.708399 124.065 
L 422.830315 123.975 
L 423.018856 123.795 
L 423.085405 123.6825 
L 423.297782 123.5475 
L 423.599015 123.1425 
L 423.926078 122.7825 
L 424.276786 122.49 
L 424.449924 122.085 
L 424.60484 121.8375 
L 424.762878 121.635 
L 424.90616 121.4775 
L 425.128988 121.005 
L 425.211978 120.78 
L 425.31378 120.6225 
L 425.65716 120.015 
L 425.939267 119.61 
L 426.273933 118.9125 
L 426.514726 118.35 
L 426.647245 118.0575 
L 427.11645 116.91 
L 427.285277 116.55 
L 427.386782 116.3025 
L 427.562879 115.83 
L 427.667251 115.5375 
L 427.776405 115.245 
L 428.018383 114.57 
L 428.529082 112.8375 
L 428.65148 112.5225 
L 428.872539 111.51 
L 429.063344 110.8575 
L 429.250665 110.25 
L 430.138885 107.1675 
L 430.250412 106.7175 
L 430.357699 106.2 
L 430.605968 104.7825 
L 430.67323 104.5125 
L 430.839359 103.815 
L 430.905855 103.5225 
L 431.577689 100.3725 
L 431.718393 99.765 
L 431.842327 99.2475 
L 431.997469 98.4375 
L 432.101843 97.8975 
L 432.447881 96.165 
L 432.600437 95.175 
L 432.993479 93.15 
L 433.038435 92.925 
L 433.145089 92.1825 
L 433.266708 91.71 
L 433.662466 89.2125 
L 433.878608 88.2675 
L 433.995625 87.3 
L 434.376046 85.32 
L 434.433721 84.9375 
L 434.536871 84.195 
L 434.592384 83.925 
L 434.797521 82.8225 
L 434.96918 81.945 
L 435.049438 81.5175 
L 436.641755 71.28 
L 436.731021 70.83 
L 436.845094 70.155 
L 436.995296 69.255 
L 439.156885 55.8675 
L 439.249796 55.3725 
L 439.367799 54.4725 
L 439.410766 54.2475 
L 439.515369 53.7075 
L 439.748876 52.38 
L 439.809958 52.02 
L 439.935821 51.1875 
L 439.98445 50.985 
L 440.441686 48.5775 
L 440.719516 46.89 
L 441.119573 44.685 
L 441.208586 44.37 
L 441.318346 43.65 
L 441.377913 43.335 
L 444.358731 30.51 
L 444.590072 29.8125 
L 444.716259 29.4525 
L 445.475351 27.27 
L 445.599546 27.09 
L 445.732019 26.6175 
L 445.935409 25.8525 
L 446.102387 25.3575 
L 446.24215 25.0875 
L 446.431391 24.8625 
L 446.679547 23.9625 
L 447.216801 22.545 
L 447.393297 22.14 
L 448.115198 20.4975 
L 448.303084 20.2725 
L 448.398409 20.115 
L 448.619503 19.71 
L 448.694707 19.53 
L 449.028505 19.305 
L 449.148096 19.125 
L 450.090978 17.9775 
L 450.19159 17.865 
L 450.521885 17.6175 
L 450.754939 17.3025 
L 450.970836 17.1225 
L 451.054547 17.055 
L 451.788794 16.785 
L 454.31962 15.84 
L 457.399083 15.5025 
L 462.130887 15.3225 
L 462.130887 15.3225 
" style="fill:none;stroke:#ff0000;stroke-linecap:square;"/>
   </g>
   <g id="line2d_40">
    <path clip-path="url(#pc930331151)" d="M 421.68244 127.8 
L 421.68244 15.3 
" style="fill:none;stroke:#ff0000;stroke-linecap:square;"/>
   </g>
   <g id="line2d_41">
    <path clip-path="url(#pc930331151)" d="M 449.981324 127.8 
L 449.981324 15.3 
" style="fill:none;stroke:#ff0000;stroke-linecap:square;"/>
   </g>
   <g id="line2d_42">
    <path clip-path="url(#pc930331151)" d="M 394.210711 127.8 
L 401.206817 127.6425 
L 401.333905 127.5975 
L 403.532248 127.2375 
L 405.495391 126.99 
L 407.441427 126.405 
L 407.88173 126.045 
L 409.052604 125.4375 
L 409.240621 125.28 
L 409.41257 125.1 
L 410.079269 124.6275 
L 410.350155 124.3125 
L 410.429334 124.245 
L 410.949054 123.9975 
L 411.704537 123.1875 
L 411.968804 123.0075 
L 412.140567 122.6475 
L 413.19892 121.5675 
L 413.398959 121.1625 
L 413.594751 120.9375 
L 416.154148 116.3475 
L 416.496355 115.5825 
L 416.63063 115.38 
L 416.874545 114.7275 
L 416.984502 114.5025 
L 417.400225 113.13 
L 417.768075 112.095 
L 417.90022 111.6225 
L 420.366265 103.7025 
L 420.524972 103.005 
L 421.15361 99.8775 
L 422.445731 93.5775 
L 422.569051 92.9475 
L 422.628133 92.745 
L 422.736699 92.1375 
L 423.000242 90.99 
L 423.148512 90.4725 
L 423.876529 87.1425 
L 424.003891 86.6475 
L 426.552555 74.4075 
L 426.591622 74.205 
L 427.138699 72.045 
L 427.264208 71.37 
L 428.84479 63.6525 
L 428.955585 63.1575 
L 429.005135 62.9325 
L 429.258235 61.5375 
L 429.368522 61.11 
L 429.56085 60.12 
L 429.613178 59.805 
L 429.897448 58.455 
L 430.146958 57.6 
L 430.367523 56.79 
L 430.437283 56.52 
L 430.596225 55.6425 
L 430.756761 55.0575 
L 432.736025 45.945 
L 432.85121 45.135 
L 433.052421 44.01 
L 433.332718 42.7725 
L 433.429182 42.4125 
L 433.732388 40.95 
L 433.927595 40.365 
L 434.064087 39.735 
L 434.132393 39.42 
L 434.463861 38.0925 
L 434.536932 37.9125 
L 434.794828 36.8775 
L 434.923152 36.3375 
L 435.241143 35.2125 
L 435.40715 34.5375 
L 435.949765 33.075 
L 436.053075 32.7375 
L 436.097925 32.58 
L 436.202711 32.2425 
L 436.30333 32.04 
L 437.834958 27.8325 
L 437.976186 27.4725 
L 438.513868 25.965 
L 439.256833 24.525 
L 439.429601 24.165 
L 439.554177 24.03 
L 439.642889 23.9175 
L 439.787462 23.715 
L 439.940451 23.445 
L 440.261169 22.77 
L 440.342242 22.6575 
L 440.470908 22.5 
L 440.768943 21.8475 
L 441.839409 20.0025 
L 441.995069 19.8225 
L 442.094562 19.7325 
L 442.401768 19.305 
L 442.565593 18.99 
L 442.829149 18.72 
L 443.157242 18.45 
L 443.440628 18.18 
L 443.639321 18.0225 
L 443.855192 17.865 
L 446.810944 16.3125 
L 447.407147 16.1775 
L 447.511214 16.1325 
L 447.636732 16.065 
L 448.350442 15.93 
L 448.525948 15.8175 
L 449.36107 15.705 
L 451.241265 15.48 
L 451.275664 15.4575 
L 453.0277 15.3675 
L 456.963173 15.3225 
L 456.963173 15.3225 
" style="fill:none;stroke:#0000ff;stroke-linecap:square;"/>
   </g>
   <g id="line2d_43">
    <path clip-path="url(#pc930331151)" d="M 409.521935 127.8 
L 409.521935 15.3 
" style="fill:none;stroke:#0000ff;stroke-dasharray:6.000000,6.000000;stroke-dashoffset:0.0;"/>
   </g>
   <g id="line2d_44">
    <path clip-path="url(#pc930331151)" d="M 443.501438 127.8 
L 443.501438 15.3 
" style="fill:none;stroke:#0000ff;stroke-dasharray:6.000000,6.000000;stroke-dashoffset:0.0;"/>
   </g>
   <g id="patch_13">
    <path d="M 373.6875 15.3 
L 485.15625 15.3 
" style="fill:none;stroke:#000000;stroke-linecap:square;stroke-linejoin:miter;"/>
   </g>
   <g id="patch_14">
    <path d="M 485.15625 127.8 
L 485.15625 15.3 
" style="fill:none;stroke:#000000;stroke-linecap:square;stroke-linejoin:miter;"/>
   </g>
   <g id="patch_15">
    <path d="M 373.6875 127.8 
L 485.15625 127.8 
" style="fill:none;stroke:#000000;stroke-linecap:square;stroke-linejoin:miter;"/>
   </g>
   <g id="patch_16">
    <path d="M 373.6875 127.8 
L 373.6875 15.3 
" style="fill:none;stroke:#000000;stroke-linecap:square;stroke-linejoin:miter;"/>
   </g>
   <g id="matplotlib.axis_5">
    <g id="xtick_9">
     <g id="line2d_45">
      <g>
       <use style="stroke:#000000;stroke-width:0.5;" x="373.6875" xlink:href="#m28618f83d7" y="127.8"/>
      </g>
     </g>
     <g id="line2d_46">
      <g>
       <use style="stroke:#000000;stroke-width:0.5;" x="373.6875" xlink:href="#m699b0200f4" y="15.3"/>
      </g>
     </g>
     <g id="text_19">
      <!-- 0.5 -->
      <g transform="translate(365.7359375 139.3984375)scale(0.1 -0.1)">
       <use xlink:href="#BitstreamVeraSans-Roman-30"/>
       <use x="63.623046875" xlink:href="#BitstreamVeraSans-Roman-2e"/>
       <use x="95.41015625" xlink:href="#BitstreamVeraSans-Roman-35"/>
      </g>
     </g>
    </g>
    <g id="xtick_10">
     <g id="line2d_47">
      <g>
       <use style="stroke:#000000;stroke-width:0.5;" x="401.5546875" xlink:href="#m28618f83d7" y="127.8"/>
      </g>
     </g>
     <g id="line2d_48">
      <g>
       <use style="stroke:#000000;stroke-width:0.5;" x="401.5546875" xlink:href="#m699b0200f4" y="15.3"/>
      </g>
     </g>
     <g id="text_20">
      <!-- 0.6 -->
      <g transform="translate(393.603125 139.3984375)scale(0.1 -0.1)">
       <use xlink:href="#BitstreamVeraSans-Roman-30"/>
       <use x="63.623046875" xlink:href="#BitstreamVeraSans-Roman-2e"/>
       <use x="95.41015625" xlink:href="#BitstreamVeraSans-Roman-36"/>
      </g>
     </g>
    </g>
    <g id="xtick_11">
     <g id="line2d_49">
      <g>
       <use style="stroke:#000000;stroke-width:0.5;" x="429.421875" xlink:href="#m28618f83d7" y="127.8"/>
      </g>
     </g>
     <g id="line2d_50">
      <g>
       <use style="stroke:#000000;stroke-width:0.5;" x="429.421875" xlink:href="#m699b0200f4" y="15.3"/>
      </g>
     </g>
     <g id="text_21">
      <!-- 0.7 -->
      <g transform="translate(421.4703125 139.3984375)scale(0.1 -0.1)">
       <use xlink:href="#BitstreamVeraSans-Roman-30"/>
       <use x="63.623046875" xlink:href="#BitstreamVeraSans-Roman-2e"/>
       <use x="95.41015625" xlink:href="#BitstreamVeraSans-Roman-37"/>
      </g>
     </g>
    </g>
    <g id="xtick_12">
     <g id="line2d_51">
      <g>
       <use style="stroke:#000000;stroke-width:0.5;" x="457.2890625" xlink:href="#m28618f83d7" y="127.8"/>
      </g>
     </g>
     <g id="line2d_52">
      <g>
       <use style="stroke:#000000;stroke-width:0.5;" x="457.2890625" xlink:href="#m699b0200f4" y="15.3"/>
      </g>
     </g>
     <g id="text_22">
      <!-- 0.8 -->
      <g transform="translate(449.3375 139.3984375)scale(0.1 -0.1)">
       <use xlink:href="#BitstreamVeraSans-Roman-30"/>
       <use x="63.623046875" xlink:href="#BitstreamVeraSans-Roman-2e"/>
       <use x="95.41015625" xlink:href="#BitstreamVeraSans-Roman-38"/>
      </g>
     </g>
    </g>
    <g id="xtick_13">
     <g id="line2d_53">
      <g>
       <use style="stroke:#000000;stroke-width:0.5;" x="485.15625" xlink:href="#m28618f83d7" y="127.8"/>
      </g>
     </g>
     <g id="line2d_54">
      <g>
       <use style="stroke:#000000;stroke-width:0.5;" x="485.15625" xlink:href="#m699b0200f4" y="15.3"/>
      </g>
     </g>
     <g id="text_23">
      <!-- 0.9 -->
      <defs>
       <path d="M 10.984375 1.515625 
L 10.984375 10.5 
Q 14.703125 8.734375 18.5 7.8125 
Q 22.3125 6.890625 25.984375 6.890625 
Q 35.75 6.890625 40.890625 13.453125 
Q 46.046875 20.015625 46.78125 33.40625 
Q 43.953125 29.203125 39.59375 26.953125 
Q 35.25 24.703125 29.984375 24.703125 
Q 19.046875 24.703125 12.671875 31.3125 
Q 6.296875 37.9375 6.296875 49.421875 
Q 6.296875 60.640625 12.9375 67.421875 
Q 19.578125 74.21875 30.609375 74.21875 
Q 43.265625 74.21875 49.921875 64.515625 
Q 56.59375 54.828125 56.59375 36.375 
Q 56.59375 19.140625 48.40625 8.859375 
Q 40.234375 -1.421875 26.421875 -1.421875 
Q 22.703125 -1.421875 18.890625 -0.6875 
Q 15.09375 0.046875 10.984375 1.515625 
M 30.609375 32.421875 
Q 37.25 32.421875 41.125 36.953125 
Q 45.015625 41.5 45.015625 49.421875 
Q 45.015625 57.28125 41.125 61.84375 
Q 37.25 66.40625 30.609375 66.40625 
Q 23.96875 66.40625 20.09375 61.84375 
Q 16.21875 57.28125 16.21875 49.421875 
Q 16.21875 41.5 20.09375 36.953125 
Q 23.96875 32.421875 30.609375 32.421875 
" id="BitstreamVeraSans-Roman-39"/>
      </defs>
      <g transform="translate(477.2046875 139.3984375)scale(0.1 -0.1)">
       <use xlink:href="#BitstreamVeraSans-Roman-30"/>
       <use x="63.623046875" xlink:href="#BitstreamVeraSans-Roman-2e"/>
       <use x="95.41015625" xlink:href="#BitstreamVeraSans-Roman-39"/>
      </g>
     </g>
    </g>
    <g id="text_24">
     <!-- Z component -->
     <defs>
      <path d="M 5.609375 72.90625 
L 62.890625 72.90625 
L 62.890625 65.375 
L 16.796875 8.296875 
L 64.015625 8.296875 
L 64.015625 0 
L 4.5 0 
L 4.5 7.515625 
L 50.59375 64.59375 
L 5.609375 64.59375 
z
" id="BitstreamVeraSans-Roman-5a"/>
     </defs>
     <g transform="translate(396.12109375 154.0765625)scale(0.1 -0.1)">
      <use xlink:href="#BitstreamVeraSans-Roman-5a"/>
      <use x="68.505859375" xlink:href="#BitstreamVeraSans-Roman-20"/>
      <use x="100.29296875" xlink:href="#BitstreamVeraSans-Roman-63"/>
      <use x="155.2734375" xlink:href="#BitstreamVeraSans-Roman-6f"/>
      <use x="216.455078125" xlink:href="#BitstreamVeraSans-Roman-6d"/>
      <use x="313.8671875" xlink:href="#BitstreamVeraSans-Roman-70"/>
      <use x="377.34375" xlink:href="#BitstreamVeraSans-Roman-6f"/>
      <use x="438.525390625" xlink:href="#BitstreamVeraSans-Roman-6e"/>
      <use x="501.904296875" xlink:href="#BitstreamVeraSans-Roman-65"/>
      <use x="563.427734375" xlink:href="#BitstreamVeraSans-Roman-6e"/>
      <use x="626.806640625" xlink:href="#BitstreamVeraSans-Roman-74"/>
     </g>
    </g>
   </g>
   <g id="matplotlib.axis_6">
    <g id="ytick_7">
     <g id="line2d_55">
      <g>
       <use style="stroke:#000000;stroke-width:0.5;" x="373.6875" xlink:href="#m0dc04b4b6c" y="127.8"/>
      </g>
     </g>
     <g id="line2d_56">
      <g>
       <use style="stroke:#000000;stroke-width:0.5;" x="485.15625" xlink:href="#mcaecec3374" y="127.8"/>
      </g>
     </g>
     <g id="text_25">
      <!-- 0.0 -->
      <g transform="translate(353.784375 130.559375)scale(0.1 -0.1)">
       <use xlink:href="#BitstreamVeraSans-Roman-30"/>
       <use x="63.623046875" xlink:href="#BitstreamVeraSans-Roman-2e"/>
       <use x="95.41015625" xlink:href="#BitstreamVeraSans-Roman-30"/>
      </g>
     </g>
    </g>
    <g id="ytick_8">
     <g id="line2d_57">
      <g>
       <use style="stroke:#000000;stroke-width:0.5;" x="373.6875" xlink:href="#m0dc04b4b6c" y="71.55"/>
      </g>
     </g>
     <g id="line2d_58">
      <g>
       <use style="stroke:#000000;stroke-width:0.5;" x="485.15625" xlink:href="#mcaecec3374" y="71.55"/>
      </g>
     </g>
     <g id="text_26">
      <!-- 0.5 -->
      <g transform="translate(353.784375 74.309375)scale(0.1 -0.1)">
       <use xlink:href="#BitstreamVeraSans-Roman-30"/>
       <use x="63.623046875" xlink:href="#BitstreamVeraSans-Roman-2e"/>
       <use x="95.41015625" xlink:href="#BitstreamVeraSans-Roman-35"/>
      </g>
     </g>
    </g>
    <g id="ytick_9">
     <g id="line2d_59">
      <g>
       <use style="stroke:#000000;stroke-width:0.5;" x="373.6875" xlink:href="#m0dc04b4b6c" y="15.3"/>
      </g>
     </g>
     <g id="line2d_60">
      <g>
       <use style="stroke:#000000;stroke-width:0.5;" x="485.15625" xlink:href="#mcaecec3374" y="15.3"/>
      </g>
     </g>
     <g id="text_27">
      <!-- 1.0 -->
      <g transform="translate(353.784375 18.059375)scale(0.1 -0.1)">
       <use xlink:href="#BitstreamVeraSans-Roman-31"/>
       <use x="63.623046875" xlink:href="#BitstreamVeraSans-Roman-2e"/>
       <use x="95.41015625" xlink:href="#BitstreamVeraSans-Roman-30"/>
      </g>
     </g>
    </g>
    <g id="text_28">
     <!-- Cumulative Distribution -->
     <g transform="translate(346.7046875 130.8453125)rotate(-90.0)scale(0.1 -0.1)">
      <use xlink:href="#BitstreamVeraSans-Roman-43"/>
      <use x="69.82421875" xlink:href="#BitstreamVeraSans-Roman-75"/>
      <use x="133.203125" xlink:href="#BitstreamVeraSans-Roman-6d"/>
      <use x="230.615234375" xlink:href="#BitstreamVeraSans-Roman-75"/>
      <use x="293.994140625" xlink:href="#BitstreamVeraSans-Roman-6c"/>
      <use x="321.77734375" xlink:href="#BitstreamVeraSans-Roman-61"/>
      <use x="383.056640625" xlink:href="#BitstreamVeraSans-Roman-74"/>
      <use x="422.265625" xlink:href="#BitstreamVeraSans-Roman-69"/>
      <use x="450.048828125" xlink:href="#BitstreamVeraSans-Roman-76"/>
      <use x="509.228515625" xlink:href="#BitstreamVeraSans-Roman-65"/>
      <use x="570.751953125" xlink:href="#BitstreamVeraSans-Roman-20"/>
      <use x="602.5390625" xlink:href="#BitstreamVeraSans-Roman-44"/>
      <use x="679.541015625" xlink:href="#BitstreamVeraSans-Roman-69"/>
      <use x="707.32421875" xlink:href="#BitstreamVeraSans-Roman-73"/>
      <use x="759.423828125" xlink:href="#BitstreamVeraSans-Roman-74"/>
      <use x="798.6328125" xlink:href="#BitstreamVeraSans-Roman-72"/>
      <use x="839.74609375" xlink:href="#BitstreamVeraSans-Roman-69"/>
      <use x="867.529296875" xlink:href="#BitstreamVeraSans-Roman-62"/>
      <use x="931.005859375" xlink:href="#BitstreamVeraSans-Roman-75"/>
      <use x="994.384765625" xlink:href="#BitstreamVeraSans-Roman-74"/>
      <use x="1033.59375" xlink:href="#BitstreamVeraSans-Roman-69"/>
      <use x="1061.37695312" xlink:href="#BitstreamVeraSans-Roman-6f"/>
      <use x="1122.55859375" xlink:href="#BitstreamVeraSans-Roman-6e"/>
     </g>
    </g>
   </g>
  </g>
 </g>
 <defs>
  <clipPath id="p8252dce00e">
   <rect height="112.5" width="111.46875" x="209.2875" y="15.3"/>
  </clipPath>
  <clipPath id="pbbd7456199">
   <rect height="112.5" width="111.46875" x="44.8875" y="15.3"/>
  </clipPath>
  <clipPath id="pc930331151">
   <rect height="112.5" width="111.46875" x="373.6875" y="15.3"/>
  </clipPath>
 </defs>
</svg>
