<?xml version="1.0" encoding="utf-8" standalone="no"?>
<!DOCTYPE svg PUBLIC "-//W3C//DTD SVG 1.1//EN"
  "http://www.w3.org/Graphics/SVG/1.1/DTD/svg11.dtd">
<!-- Created with matplotlib (http://matplotlib.org/) -->
<svg height="216pt" version="1.1" viewBox="0 0 648 216" width="648pt" xmlns="http://www.w3.org/2000/svg" xmlns:xlink="http://www.w3.org/1999/xlink">
 <defs>
  <style type="text/css">
*{stroke-linecap:butt;stroke-linejoin:round;stroke-miterlimit:100000;}
  </style>
 </defs>
 <g id="figure_1">
  <g id="patch_1">
   <path d="M 0 216 
L 648 216 
L 648 0 
L 0 0 
z
" style="fill:#ffffff;"/>
  </g>
  <g id="axes_1">
   <g id="patch_2">
    <path d="M 44.8875 178.2 
L 198.3375 178.2 
L 198.3375 15.3 
L 44.8875 15.3 
z
" style="fill:#ffffff;"/>
   </g>
   <g id="line2d_1">
    <path clip-path="url(#p2fa43d7888)" d="M 62.730214 178.2 
L 73.650142 177.7113 
L 74.028934 177.5484 
L 74.848681 177.41808 
L 74.85613 177.3855 
L 78.332658 176.76648 
L 79.228155 176.2452 
L 80.258173 176.0823 
L 80.920482 175.72392 
L 81.629514 175.52844 
L 81.746142 175.33296 
L 82.802738 174.84426 
L 83.695164 174.6162 
L 83.813637 174.4533 
L 84.093877 174.38814 
L 84.591863 174.22524 
L 85.15576 173.93202 
L 85.159714 173.89944 
L 86.080244 173.60622 
L 86.223587 173.54106 
L 86.459432 173.44332 
L 87.254983 173.01978 
L 87.380395 172.85688 
L 87.87205 172.46592 
L 88.014121 172.23786 
L 88.267654 171.97722 
L 88.384414 171.8469 
L 89.012135 171.45594 
L 89.121786 171.3582 
L 89.626164 170.90208 
L 90.086184 170.12016 
L 90.264073 169.95726 
L 90.582473 169.59888 
L 90.875559 169.43598 
L 91.006827 169.27308 
L 91.236081 168.88212 
L 91.340013 168.71922 
L 92.469032 167.2857 
L 92.935436 166.43862 
L 93.131822 166.27572 
L 93.339003 165.94992 
L 94.012704 164.97252 
L 94.2257 164.6793 
L 95.088304 163.34352 
L 95.252239 163.08288 
L 96.019477 161.77968 
L 96.138921 161.61678 
L 96.357864 161.0955 
L 96.477233 160.9326 
L 96.635396 160.57422 
L 96.761295 160.281 
L 97.391553 158.8149 
L 97.689272 158.29362 
L 97.779421 157.96782 
L 97.964534 157.73976 
L 98.349224 156.92526 
L 99.864988 153.9279 
L 99.954473 153.66726 
L 100.165705 153.2763 
L 100.249546 152.98308 
L 100.321652 152.82018 
L 100.432015 152.59212 
L 100.783819 151.61472 
L 100.894801 151.28892 
L 101.550329 149.72508 
L 101.681962 149.3667 
L 101.737215 149.17122 
L 102.07381 148.16124 
L 102.169236 147.9006 
L 102.288602 147.47706 
L 102.479863 146.85804 
L 102.60268 146.46708 
L 102.735857 145.9458 
L 103.28291 144.4797 
L 103.376687 144.3168 
L 103.545959 144.02358 
L 104.213651 141.67782 
L 104.402681 140.66784 
L 104.508946 140.43978 
L 104.842603 139.23432 
L 104.927643 139.07142 
L 105.196567 138.02886 
L 105.337431 137.54016 
L 105.456526 137.08404 
L 105.592297 136.72566 
L 105.691788 136.39986 
L 105.848811 135.87858 
L 106.238212 134.47764 
L 106.34371 133.98894 
L 106.426925 133.66314 
L 106.537422 133.2396 
L 106.997353 131.83866 
L 107.170775 131.02416 
L 107.21592 130.7961 
L 107.326429 130.20966 
L 107.39446 129.85128 
L 107.508447 129.03678 
L 107.709701 128.3526 
L 107.846148 127.83132 
L 108.195904 126.13716 
L 108.302932 125.84394 
L 108.337961 125.5833 
L 108.439876 125.29008 
L 108.567487 124.83396 
L 108.677725 124.1172 
L 108.825514 123.6285 
L 108.950016 123.10722 
L 109.216755 122.1624 
L 109.319435 121.57596 
L 109.401526 121.21758 
L 111.537245 113.10516 
L 111.654998 112.3884 
L 111.956744 110.82456 
L 112.015306 110.56392 
L 114.014584 102.25602 
L 114.104804 101.83248 
L 114.483128 100.56186 
L 114.599981 100.1709 
L 114.651787 99.81252 
L 114.883462 98.7048 
L 115.081084 98.24868 
L 115.735017 95.51196 
L 116.44003 92.6775 
L 116.517133 92.3517 
L 116.6319 91.92816 
L 116.746648 91.50462 
L 116.878125 91.0485 
L 118.546017 84.49992 
L 118.749242 83.78316 
L 118.807765 83.5551 
L 119.002387 82.54512 
L 119.11685 82.18674 
L 119.268833 81.53514 
L 119.829759 78.9939 
L 119.954472 78.21198 
L 120.103629 77.65812 
L 120.19363 77.43006 
L 120.310281 76.90878 
L 120.561875 76.19202 
L 120.75416 75.2472 
L 125.247706 58.50108 
L 125.55177 57.42594 
L 125.804693 56.41596 
L 125.916912 56.05758 
L 128.286236 48.5316 
L 128.367994 48.30354 
L 128.639397 47.68452 
L 129.016282 46.67454 
L 129.067726 46.47906 
L 129.389108 45.53424 
L 129.737534 44.65458 
L 129.856273 44.23104 
L 130.060033 43.70976 
L 130.171493 43.35138 
L 130.224923 43.18848 
L 130.415145 42.43914 
L 132.039474 38.13858 
L 132.127158 37.97568 
L 132.227271 37.91052 
L 132.379269 37.64988 
L 134.321623 33.51222 
L 134.482368 33.25158 
L 134.594916 32.99094 
L 134.746316 32.76288 
L 134.898008 32.53482 
L 135.031902 32.20902 
L 135.369148 31.55742 
L 135.481624 31.4271 
L 136.677213 29.11392 
L 136.864292 28.88586 
L 137.04567 28.52748 
L 137.119857 28.332 
L 137.247798 28.10394 
L 137.631782 27.5175 
L 137.778747 27.28944 
L 137.989844 26.89848 
L 139.021184 25.13916 
L 139.185609 24.9111 
L 139.402789 24.61788 
L 139.453146 24.48756 
L 139.662075 24.32466 
L 139.772453 24.0966 
L 139.867795 23.9337 
L 142.731525 21.42504 
L 143.370055 21.03408 
L 143.54637 20.87118 
L 143.674369 20.70828 
L 143.745767 20.64312 
L 143.879151 20.5128 
L 144.01073 20.44764 
L 144.320537 20.28474 
L 144.494889 20.12184 
L 144.873936 19.89378 
L 145.090909 19.73088 
L 145.497428 19.63314 
L 146.174579 19.40508 
L 147.130075 18.81864 
L 147.269065 18.7209 
L 151.238248 16.83126 
L 153.013503 16.53804 
L 155.779858 15.91902 
L 158.448449 15.59322 
L 158.462629 15.56064 
L 173.173621 15.33258 
L 173.173621 15.33258 
" style="fill:none;stroke:#ff0000;stroke-linecap:square;"/>
   </g>
   <g id="line2d_2">
    <path clip-path="url(#p2fa43d7888)" d="M 84.824087 178.2 
L 84.824087 15.3 
" style="fill:none;stroke:#ff0000;stroke-linecap:square;"/>
   </g>
   <g id="line2d_3">
    <path clip-path="url(#p2fa43d7888)" d="M 146.240715 178.2 
L 146.240715 15.3 
" style="fill:none;stroke:#ff0000;stroke-linecap:square;"/>
   </g>
   <g id="line2d_4">
    <path clip-path="url(#p2fa43d7888)" d="M 68.332446 178.2 
L 70.576593 177.97194 
L 76.074916 177.41808 
L 76.875076 177.25518 
L 78.013119 177.0597 
L 79.966297 176.571 
L 80.442392 176.44068 
L 82.205509 175.98456 
L 82.557269 175.82166 
L 83.418884 175.56102 
L 83.720853 175.33296 
L 83.919619 175.20264 
L 84.106806 175.00716 
L 84.694535 174.81168 
L 84.892911 174.74652 
L 85.397788 174.58362 
L 85.542475 174.42072 
L 86.110534 174.1275 
L 86.61269 173.8017 
L 86.614719 173.76912 
L 86.958649 173.60622 
L 87.452474 173.21526 
L 87.783149 172.95462 
L 88.016909 172.8243 
L 88.095638 172.6614 
L 89.00838 172.07496 
L 89.321782 171.71658 
L 89.450287 171.61884 
L 89.562409 171.39078 
L 89.644843 171.1953 
L 89.783987 170.96724 
L 89.885487 170.77176 
L 90.243906 170.60886 
L 90.556129 170.15274 
L 90.697927 170.02242 
L 91.470704 169.04502 
L 91.544667 168.84954 
L 91.649456 168.68664 
L 91.801388 168.2631 
L 91.908813 168.1002 
L 92.1738 167.9373 
L 92.207446 167.7744 
L 92.483599 167.6115 
L 92.907103 167.18796 
L 93.096099 166.92732 
L 93.216716 166.69926 
L 93.621298 165.91734 
L 93.734583 165.59154 
L 93.854411 165.39606 
L 94.284333 164.61414 
L 94.413303 164.45124 
L 95.115313 163.31094 
L 95.226291 163.0503 
L 95.243507 162.91998 
L 95.511036 162.7245 
L 95.616626 162.43128 
L 95.748324 162.20322 
L 95.862175 161.84484 
L 95.968443 161.68194 
L 96.064027 161.19324 
L 96.289233 160.83486 
L 96.613072 160.1181 
L 96.727948 159.92262 
L 96.827646 159.72714 
L 96.956035 159.49908 
L 97.099938 159.07554 
L 97.616583 157.77234 
L 97.697145 157.6746 
L 97.827497 157.5117 
L 98.059269 156.92526 
L 98.508943 155.85012 
L 98.623246 155.62206 
L 99.380846 153.89532 
L 99.480447 153.53694 
L 99.589548 153.37404 
L 99.710661 153.08082 
L 99.849879 152.88534 
L 100.015148 152.33148 
L 100.167217 152.03826 
L 100.259373 151.77762 
L 100.439134 151.1586 
L 100.549735 150.73506 
L 100.965978 149.6925 
L 101.151564 149.30154 
L 101.323061 148.84542 
L 102.419356 145.42452 
L 102.518908 145.22904 
L 102.674472 144.61002 
L 103.11771 143.5023 
L 103.271286 143.07876 
L 103.502309 142.5249 
L 103.603702 142.10136 
L 103.690714 141.80814 
L 103.948719 140.79816 
L 104.048663 140.47236 
L 104.238617 139.95108 
L 104.526256 139.00626 
L 104.602588 138.81078 
L 104.803109 138.02886 
L 104.935604 137.83338 
L 105.156342 137.08404 
L 105.879447 135.0315 
L 105.936354 134.8686 
L 106.262213 133.95636 
L 106.336345 133.69572 
L 107.922771 127.79874 
L 108.029944 127.31004 
L 108.237758 126.49554 
L 108.352249 126.20232 
L 108.433889 125.9091 
L 108.551833 125.55072 
L 108.666902 125.06202 
L 108.731232 124.89912 
L 108.877507 124.1172 
L 108.968497 123.59592 
L 109.73107 120.40308 
L 109.780875 120.17502 
L 109.974323 119.29536 
L 110.836255 116.03736 
L 111.498847 113.5287 
L 111.647578 112.5513 
L 111.79851 112.16034 
L 112.060562 111.18294 
L 112.14818 110.7594 
L 112.41083 109.48878 
L 112.614341 109.03266 
L 112.724682 108.54396 
L 112.806663 108.34848 
L 113.018457 107.27334 
L 113.291965 106.0353 
L 113.652327 104.50404 
L 113.732169 104.14566 
L 113.858789 103.5918 
L 113.967192 103.33116 
L 114.070757 102.90762 
L 114.190917 102.2886 
L 114.697219 100.04058 
L 114.811074 99.6822 
L 114.861127 99.38898 
L 115.009262 98.8677 
L 115.44103 97.01064 
L 115.56594 96.4242 
L 115.743319 95.74002 
L 115.840634 95.34906 
L 116.414643 92.80782 
L 116.497748 92.5146 
L 116.777152 91.2114 
L 116.83856 90.82044 
L 116.950942 90.42948 
L 117.01525 90.20142 
L 117.125456 89.5824 
L 117.726155 86.87826 
L 117.882509 86.09634 
L 118.022645 85.47732 
L 118.22168 84.5325 
L 118.309735 84.30444 
L 119.496051 79.45002 
L 119.719111 78.73326 
L 119.764464 78.5052 
L 119.961597 77.56038 
L 120.029866 77.3649 
L 120.156813 76.94136 
L 120.263008 76.45266 
L 120.354373 76.19202 
L 120.459056 75.86622 
L 120.584894 75.60558 
L 123.101615 66.38544 
L 123.206778 65.99448 
L 123.319649 65.57094 
L 123.455316 64.95192 
L 124.211154 62.15004 
L 124.335078 61.7265 
L 124.478787 61.43328 
L 124.604166 60.87942 
L 124.846538 60.06492 
L 124.987591 59.47848 
L 125.096848 59.18526 
L 125.574776 57.62142 
L 125.68742 57.26304 
L 126.018667 55.76436 
L 126.151167 55.17792 
L 126.306699 54.49374 
L 126.434578 53.87472 
L 126.549919 53.4186 
L 126.692128 53.02764 
L 126.965055 51.9525 
L 127.082575 51.65928 
L 127.211405 51.26832 
L 127.418015 50.6493 
L 127.83495 49.15062 
L 127.959306 48.72708 
L 128.04566 48.40128 
L 128.321598 47.19582 
L 128.438979 47.03292 
L 132.416127 36.37926 
L 132.62759 36.08604 
L 132.795813 35.6625 
L 132.91936 35.40186 
L 133.385447 34.29414 
L 133.51684 34.06608 
L 133.644892 33.83802 
L 133.754967 33.67512 
L 133.922097 33.3819 
L 134.025784 33.219 
L 134.196114 32.86062 
L 134.407992 32.50224 
L 135.028026 31.62258 
L 135.519159 30.67776 
L 135.83653 30.2868 
L 135.9616 30.02616 
L 137.097747 28.07136 
L 137.26185 27.90846 
L 137.615625 27.58266 
L 139.423761 25.2369 
L 139.572878 24.97626 
L 139.84335 24.7482 
L 140.032461 24.35724 
L 140.815844 23.34726 
L 140.917383 23.24952 
L 141.169292 22.9563 
L 141.34591 22.76082 
L 142.205566 21.94632 
L 143.027435 21.26214 
L 143.258374 21.06666 
L 143.286351 21.0015 
L 143.520562 20.87118 
L 143.616065 20.77344 
L 143.814753 20.61054 
L 145.526875 19.17702 
L 146.349233 18.94896 
L 146.466666 18.8838 
L 146.958367 18.68832 
L 147.089176 18.59058 
L 147.48493 18.49284 
L 148.519804 18.10188 
L 148.816189 17.80866 
L 148.820058 17.77608 
L 150.560389 17.31996 
L 150.794892 17.22222 
L 151.180013 17.0919 
L 151.30654 17.02674 
L 152.352959 16.79868 
L 152.559279 16.70094 
L 155.027372 16.14708 
L 155.14451 16.08192 
L 158.506216 15.72354 
L 165.272465 15.49548 
L 168.758576 15.36516 
L 179.737658 15.33258 
L 179.737658 15.33258 
" style="fill:none;stroke:#0000ff;stroke-linecap:square;"/>
   </g>
   <g id="line2d_5">
    <path clip-path="url(#p2fa43d7888)" d="M 86.110534 178.2 
L 86.110534 15.3 
" style="fill:none;stroke:#0000ff;stroke-dasharray:6.000000,6.000000;stroke-dashoffset:0.0;"/>
   </g>
   <g id="line2d_6">
    <path clip-path="url(#p2fa43d7888)" d="M 145.260389 178.2 
L 145.260389 15.3 
" style="fill:none;stroke:#0000ff;stroke-dasharray:6.000000,6.000000;stroke-dashoffset:0.0;"/>
   </g>
   <g id="patch_3">
    <path d="M 44.8875 15.3 
L 198.3375 15.3 
" style="fill:none;stroke:#000000;stroke-linecap:square;stroke-linejoin:miter;"/>
   </g>
   <g id="patch_4">
    <path d="M 198.3375 178.2 
L 198.3375 15.3 
" style="fill:none;stroke:#000000;stroke-linecap:square;stroke-linejoin:miter;"/>
   </g>
   <g id="patch_5">
    <path d="M 44.8875 178.2 
L 198.3375 178.2 
" style="fill:none;stroke:#000000;stroke-linecap:square;stroke-linejoin:miter;"/>
   </g>
   <g id="patch_6">
    <path d="M 44.8875 178.2 
L 44.8875 15.3 
" style="fill:none;stroke:#000000;stroke-linecap:square;stroke-linejoin:miter;"/>
   </g>
   <g id="matplotlib.axis_1">
    <g id="xtick_1">
     <g id="line2d_7">
      <defs>
       <path d="M 0 0 
L 0 -4 
" id="m43e15b8a79" style="stroke:#000000;stroke-width:0.5;"/>
      </defs>
      <g>
       <use style="stroke:#000000;stroke-width:0.5;" x="44.8875" xlink:href="#m43e15b8a79" y="178.2"/>
      </g>
     </g>
     <g id="line2d_8">
      <defs>
       <path d="M 0 0 
L 0 4 
" id="med421cb203" style="stroke:#000000;stroke-width:0.5;"/>
      </defs>
      <g>
       <use style="stroke:#000000;stroke-width:0.5;" x="44.8875" xlink:href="#med421cb203" y="15.3"/>
      </g>
     </g>
     <g id="text_1">
      <!-- −0.66 -->
      <defs>
       <path d="M 10.59375 35.5 
L 73.1875 35.5 
L 73.1875 27.203125 
L 10.59375 27.203125 
z
" id="BitstreamVeraSans-Roman-2212"/>
       <path d="M 33.015625 40.375 
Q 26.375 40.375 22.484375 35.828125 
Q 18.609375 31.296875 18.609375 23.390625 
Q 18.609375 15.53125 22.484375 10.953125 
Q 26.375 6.390625 33.015625 6.390625 
Q 39.65625 6.390625 43.53125 10.953125 
Q 47.40625 15.53125 47.40625 23.390625 
Q 47.40625 31.296875 43.53125 35.828125 
Q 39.65625 40.375 33.015625 40.375 
M 52.59375 71.296875 
L 52.59375 62.3125 
Q 48.875 64.0625 45.09375 64.984375 
Q 41.3125 65.921875 37.59375 65.921875 
Q 27.828125 65.921875 22.671875 59.328125 
Q 17.53125 52.734375 16.796875 39.40625 
Q 19.671875 43.65625 24.015625 45.921875 
Q 28.375 48.1875 33.59375 48.1875 
Q 44.578125 48.1875 50.953125 41.515625 
Q 57.328125 34.859375 57.328125 23.390625 
Q 57.328125 12.15625 50.6875 5.359375 
Q 44.046875 -1.421875 33.015625 -1.421875 
Q 20.359375 -1.421875 13.671875 8.265625 
Q 6.984375 17.96875 6.984375 36.375 
Q 6.984375 53.65625 15.1875 63.9375 
Q 23.390625 74.21875 37.203125 74.21875 
Q 40.921875 74.21875 44.703125 73.484375 
Q 48.484375 72.75 52.59375 71.296875 
" id="BitstreamVeraSans-Roman-36"/>
       <path d="M 31.78125 66.40625 
Q 24.171875 66.40625 20.328125 58.90625 
Q 16.5 51.421875 16.5 36.375 
Q 16.5 21.390625 20.328125 13.890625 
Q 24.171875 6.390625 31.78125 6.390625 
Q 39.453125 6.390625 43.28125 13.890625 
Q 47.125 21.390625 47.125 36.375 
Q 47.125 51.421875 43.28125 58.90625 
Q 39.453125 66.40625 31.78125 66.40625 
M 31.78125 74.21875 
Q 44.046875 74.21875 50.515625 64.515625 
Q 56.984375 54.828125 56.984375 36.375 
Q 56.984375 17.96875 50.515625 8.265625 
Q 44.046875 -1.421875 31.78125 -1.421875 
Q 19.53125 -1.421875 13.0625 8.265625 
Q 6.59375 17.96875 6.59375 36.375 
Q 6.59375 54.828125 13.0625 64.515625 
Q 19.53125 74.21875 31.78125 74.21875 
" id="BitstreamVeraSans-Roman-30"/>
       <path d="M 10.6875 12.40625 
L 21 12.40625 
L 21 0 
L 10.6875 0 
z
" id="BitstreamVeraSans-Roman-2e"/>
      </defs>
      <g transform="translate(29.56484375 189.7984375)scale(0.1 -0.1)">
       <use xlink:href="#BitstreamVeraSans-Roman-2212"/>
       <use x="83.7890625" xlink:href="#BitstreamVeraSans-Roman-30"/>
       <use x="147.412109375" xlink:href="#BitstreamVeraSans-Roman-2e"/>
       <use x="179.19921875" xlink:href="#BitstreamVeraSans-Roman-36"/>
       <use x="242.822265625" xlink:href="#BitstreamVeraSans-Roman-36"/>
      </g>
     </g>
    </g>
    <g id="xtick_2">
     <g id="line2d_9">
      <g>
       <use style="stroke:#000000;stroke-width:0.5;" x="66.8089285714" xlink:href="#m43e15b8a79" y="178.2"/>
      </g>
     </g>
     <g id="line2d_10">
      <g>
       <use style="stroke:#000000;stroke-width:0.5;" x="66.8089285714" xlink:href="#med421cb203" y="15.3"/>
      </g>
     </g>
     <g id="text_2">
      <!-- −0.64 -->
      <defs>
       <path d="M 37.796875 64.3125 
L 12.890625 25.390625 
L 37.796875 25.390625 
z
M 35.203125 72.90625 
L 47.609375 72.90625 
L 47.609375 25.390625 
L 58.015625 25.390625 
L 58.015625 17.1875 
L 47.609375 17.1875 
L 47.609375 0 
L 37.796875 0 
L 37.796875 17.1875 
L 4.890625 17.1875 
L 4.890625 26.703125 
z
" id="BitstreamVeraSans-Roman-34"/>
      </defs>
      <g transform="translate(51.4862723214 189.7984375)scale(0.1 -0.1)">
       <use xlink:href="#BitstreamVeraSans-Roman-2212"/>
       <use x="83.7890625" xlink:href="#BitstreamVeraSans-Roman-30"/>
       <use x="147.412109375" xlink:href="#BitstreamVeraSans-Roman-2e"/>
       <use x="179.19921875" xlink:href="#BitstreamVeraSans-Roman-36"/>
       <use x="242.822265625" xlink:href="#BitstreamVeraSans-Roman-34"/>
      </g>
     </g>
    </g>
    <g id="xtick_3">
     <g id="line2d_11">
      <g>
       <use style="stroke:#000000;stroke-width:0.5;" x="88.7303571429" xlink:href="#m43e15b8a79" y="178.2"/>
      </g>
     </g>
     <g id="line2d_12">
      <g>
       <use style="stroke:#000000;stroke-width:0.5;" x="88.7303571429" xlink:href="#med421cb203" y="15.3"/>
      </g>
     </g>
     <g id="text_3">
      <!-- −0.62 -->
      <defs>
       <path d="M 19.1875 8.296875 
L 53.609375 8.296875 
L 53.609375 0 
L 7.328125 0 
L 7.328125 8.296875 
Q 12.9375 14.109375 22.625 23.890625 
Q 32.328125 33.6875 34.8125 36.53125 
Q 39.546875 41.84375 41.421875 45.53125 
Q 43.3125 49.21875 43.3125 52.78125 
Q 43.3125 58.59375 39.234375 62.25 
Q 35.15625 65.921875 28.609375 65.921875 
Q 23.96875 65.921875 18.8125 64.3125 
Q 13.671875 62.703125 7.8125 59.421875 
L 7.8125 69.390625 
Q 13.765625 71.78125 18.9375 73 
Q 24.125 74.21875 28.421875 74.21875 
Q 39.75 74.21875 46.484375 68.546875 
Q 53.21875 62.890625 53.21875 53.421875 
Q 53.21875 48.921875 51.53125 44.890625 
Q 49.859375 40.875 45.40625 35.40625 
Q 44.1875 33.984375 37.640625 27.21875 
Q 31.109375 20.453125 19.1875 8.296875 
" id="BitstreamVeraSans-Roman-32"/>
      </defs>
      <g transform="translate(73.4077008929 189.7984375)scale(0.1 -0.1)">
       <use xlink:href="#BitstreamVeraSans-Roman-2212"/>
       <use x="83.7890625" xlink:href="#BitstreamVeraSans-Roman-30"/>
       <use x="147.412109375" xlink:href="#BitstreamVeraSans-Roman-2e"/>
       <use x="179.19921875" xlink:href="#BitstreamVeraSans-Roman-36"/>
       <use x="242.822265625" xlink:href="#BitstreamVeraSans-Roman-32"/>
      </g>
     </g>
    </g>
    <g id="xtick_4">
     <g id="line2d_13">
      <g>
       <use style="stroke:#000000;stroke-width:0.5;" x="110.651785714" xlink:href="#m43e15b8a79" y="178.2"/>
      </g>
     </g>
     <g id="line2d_14">
      <g>
       <use style="stroke:#000000;stroke-width:0.5;" x="110.651785714" xlink:href="#med421cb203" y="15.3"/>
      </g>
     </g>
     <g id="text_4">
      <!-- −0.60 -->
      <g transform="translate(95.3291294643 189.7984375)scale(0.1 -0.1)">
       <use xlink:href="#BitstreamVeraSans-Roman-2212"/>
       <use x="83.7890625" xlink:href="#BitstreamVeraSans-Roman-30"/>
       <use x="147.412109375" xlink:href="#BitstreamVeraSans-Roman-2e"/>
       <use x="179.19921875" xlink:href="#BitstreamVeraSans-Roman-36"/>
       <use x="242.822265625" xlink:href="#BitstreamVeraSans-Roman-30"/>
      </g>
     </g>
    </g>
    <g id="xtick_5">
     <g id="line2d_15">
      <g>
       <use style="stroke:#000000;stroke-width:0.5;" x="132.573214286" xlink:href="#m43e15b8a79" y="178.2"/>
      </g>
     </g>
     <g id="line2d_16">
      <g>
       <use style="stroke:#000000;stroke-width:0.5;" x="132.573214286" xlink:href="#med421cb203" y="15.3"/>
      </g>
     </g>
     <g id="text_5">
      <!-- −0.58 -->
      <defs>
       <path d="M 31.78125 34.625 
Q 24.75 34.625 20.71875 30.859375 
Q 16.703125 27.09375 16.703125 20.515625 
Q 16.703125 13.921875 20.71875 10.15625 
Q 24.75 6.390625 31.78125 6.390625 
Q 38.8125 6.390625 42.859375 10.171875 
Q 46.921875 13.96875 46.921875 20.515625 
Q 46.921875 27.09375 42.890625 30.859375 
Q 38.875 34.625 31.78125 34.625 
M 21.921875 38.8125 
Q 15.578125 40.375 12.03125 44.71875 
Q 8.5 49.078125 8.5 55.328125 
Q 8.5 64.0625 14.71875 69.140625 
Q 20.953125 74.21875 31.78125 74.21875 
Q 42.671875 74.21875 48.875 69.140625 
Q 55.078125 64.0625 55.078125 55.328125 
Q 55.078125 49.078125 51.53125 44.71875 
Q 48 40.375 41.703125 38.8125 
Q 48.828125 37.15625 52.796875 32.3125 
Q 56.78125 27.484375 56.78125 20.515625 
Q 56.78125 9.90625 50.3125 4.234375 
Q 43.84375 -1.421875 31.78125 -1.421875 
Q 19.734375 -1.421875 13.25 4.234375 
Q 6.78125 9.90625 6.78125 20.515625 
Q 6.78125 27.484375 10.78125 32.3125 
Q 14.796875 37.15625 21.921875 38.8125 
M 18.3125 54.390625 
Q 18.3125 48.734375 21.84375 45.5625 
Q 25.390625 42.390625 31.78125 42.390625 
Q 38.140625 42.390625 41.71875 45.5625 
Q 45.3125 48.734375 45.3125 54.390625 
Q 45.3125 60.0625 41.71875 63.234375 
Q 38.140625 66.40625 31.78125 66.40625 
Q 25.390625 66.40625 21.84375 63.234375 
Q 18.3125 60.0625 18.3125 54.390625 
" id="BitstreamVeraSans-Roman-38"/>
       <path d="M 10.796875 72.90625 
L 49.515625 72.90625 
L 49.515625 64.59375 
L 19.828125 64.59375 
L 19.828125 46.734375 
Q 21.96875 47.46875 24.109375 47.828125 
Q 26.265625 48.1875 28.421875 48.1875 
Q 40.625 48.1875 47.75 41.5 
Q 54.890625 34.8125 54.890625 23.390625 
Q 54.890625 11.625 47.5625 5.09375 
Q 40.234375 -1.421875 26.90625 -1.421875 
Q 22.3125 -1.421875 17.546875 -0.640625 
Q 12.796875 0.140625 7.71875 1.703125 
L 7.71875 11.625 
Q 12.109375 9.234375 16.796875 8.0625 
Q 21.484375 6.890625 26.703125 6.890625 
Q 35.15625 6.890625 40.078125 11.328125 
Q 45.015625 15.765625 45.015625 23.390625 
Q 45.015625 31 40.078125 35.4375 
Q 35.15625 39.890625 26.703125 39.890625 
Q 22.75 39.890625 18.8125 39.015625 
Q 14.890625 38.140625 10.796875 36.28125 
z
" id="BitstreamVeraSans-Roman-35"/>
      </defs>
      <g transform="translate(117.250558036 189.7984375)scale(0.1 -0.1)">
       <use xlink:href="#BitstreamVeraSans-Roman-2212"/>
       <use x="83.7890625" xlink:href="#BitstreamVeraSans-Roman-30"/>
       <use x="147.412109375" xlink:href="#BitstreamVeraSans-Roman-2e"/>
       <use x="179.19921875" xlink:href="#BitstreamVeraSans-Roman-35"/>
       <use x="242.822265625" xlink:href="#BitstreamVeraSans-Roman-38"/>
      </g>
     </g>
    </g>
    <g id="xtick_6">
     <g id="line2d_17">
      <g>
       <use style="stroke:#000000;stroke-width:0.5;" x="154.494642857" xlink:href="#m43e15b8a79" y="178.2"/>
      </g>
     </g>
     <g id="line2d_18">
      <g>
       <use style="stroke:#000000;stroke-width:0.5;" x="154.494642857" xlink:href="#med421cb203" y="15.3"/>
      </g>
     </g>
     <g id="text_6">
      <!-- −0.56 -->
      <g transform="translate(139.171986607 189.7984375)scale(0.1 -0.1)">
       <use xlink:href="#BitstreamVeraSans-Roman-2212"/>
       <use x="83.7890625" xlink:href="#BitstreamVeraSans-Roman-30"/>
       <use x="147.412109375" xlink:href="#BitstreamVeraSans-Roman-2e"/>
       <use x="179.19921875" xlink:href="#BitstreamVeraSans-Roman-35"/>
       <use x="242.822265625" xlink:href="#BitstreamVeraSans-Roman-36"/>
      </g>
     </g>
    </g>
    <g id="xtick_7">
     <g id="line2d_19">
      <g>
       <use style="stroke:#000000;stroke-width:0.5;" x="176.416071429" xlink:href="#m43e15b8a79" y="178.2"/>
      </g>
     </g>
     <g id="line2d_20">
      <g>
       <use style="stroke:#000000;stroke-width:0.5;" x="176.416071429" xlink:href="#med421cb203" y="15.3"/>
      </g>
     </g>
     <g id="text_7">
      <!-- −0.54 -->
      <g transform="translate(161.093415179 189.7984375)scale(0.1 -0.1)">
       <use xlink:href="#BitstreamVeraSans-Roman-2212"/>
       <use x="83.7890625" xlink:href="#BitstreamVeraSans-Roman-30"/>
       <use x="147.412109375" xlink:href="#BitstreamVeraSans-Roman-2e"/>
       <use x="179.19921875" xlink:href="#BitstreamVeraSans-Roman-35"/>
       <use x="242.822265625" xlink:href="#BitstreamVeraSans-Roman-34"/>
      </g>
     </g>
    </g>
    <g id="xtick_8">
     <g id="line2d_21">
      <g>
       <use style="stroke:#000000;stroke-width:0.5;" x="198.3375" xlink:href="#m43e15b8a79" y="178.2"/>
      </g>
     </g>
     <g id="line2d_22">
      <g>
       <use style="stroke:#000000;stroke-width:0.5;" x="198.3375" xlink:href="#med421cb203" y="15.3"/>
      </g>
     </g>
     <g id="text_8">
      <!-- −0.52 -->
      <g transform="translate(183.01484375 189.7984375)scale(0.1 -0.1)">
       <use xlink:href="#BitstreamVeraSans-Roman-2212"/>
       <use x="83.7890625" xlink:href="#BitstreamVeraSans-Roman-30"/>
       <use x="147.412109375" xlink:href="#BitstreamVeraSans-Roman-2e"/>
       <use x="179.19921875" xlink:href="#BitstreamVeraSans-Roman-35"/>
       <use x="242.822265625" xlink:href="#BitstreamVeraSans-Roman-32"/>
      </g>
     </g>
    </g>
    <g id="text_9">
     <!-- X component -->
     <defs>
      <path id="BitstreamVeraSans-Roman-20"/>
      <path d="M 54.890625 33.015625 
L 54.890625 0 
L 45.90625 0 
L 45.90625 32.71875 
Q 45.90625 40.484375 42.875 44.328125 
Q 39.84375 48.1875 33.796875 48.1875 
Q 26.515625 48.1875 22.3125 43.546875 
Q 18.109375 38.921875 18.109375 30.90625 
L 18.109375 0 
L 9.078125 0 
L 9.078125 54.6875 
L 18.109375 54.6875 
L 18.109375 46.1875 
Q 21.34375 51.125 25.703125 53.5625 
Q 30.078125 56 35.796875 56 
Q 45.21875 56 50.046875 50.171875 
Q 54.890625 44.34375 54.890625 33.015625 
" id="BitstreamVeraSans-Roman-6e"/>
      <path d="M 52 44.1875 
Q 55.375 50.25 60.0625 53.125 
Q 64.75 56 71.09375 56 
Q 79.640625 56 84.28125 50.015625 
Q 88.921875 44.046875 88.921875 33.015625 
L 88.921875 0 
L 79.890625 0 
L 79.890625 32.71875 
Q 79.890625 40.578125 77.09375 44.375 
Q 74.3125 48.1875 68.609375 48.1875 
Q 61.625 48.1875 57.5625 43.546875 
Q 53.515625 38.921875 53.515625 30.90625 
L 53.515625 0 
L 44.484375 0 
L 44.484375 32.71875 
Q 44.484375 40.625 41.703125 44.40625 
Q 38.921875 48.1875 33.109375 48.1875 
Q 26.21875 48.1875 22.15625 43.53125 
Q 18.109375 38.875 18.109375 30.90625 
L 18.109375 0 
L 9.078125 0 
L 9.078125 54.6875 
L 18.109375 54.6875 
L 18.109375 46.1875 
Q 21.1875 51.21875 25.484375 53.609375 
Q 29.78125 56 35.6875 56 
Q 41.65625 56 45.828125 52.96875 
Q 50 49.953125 52 44.1875 
" id="BitstreamVeraSans-Roman-6d"/>
      <path d="M 30.609375 48.390625 
Q 23.390625 48.390625 19.1875 42.75 
Q 14.984375 37.109375 14.984375 27.296875 
Q 14.984375 17.484375 19.15625 11.84375 
Q 23.34375 6.203125 30.609375 6.203125 
Q 37.796875 6.203125 41.984375 11.859375 
Q 46.1875 17.53125 46.1875 27.296875 
Q 46.1875 37.015625 41.984375 42.703125 
Q 37.796875 48.390625 30.609375 48.390625 
M 30.609375 56 
Q 42.328125 56 49.015625 48.375 
Q 55.71875 40.765625 55.71875 27.296875 
Q 55.71875 13.875 49.015625 6.21875 
Q 42.328125 -1.421875 30.609375 -1.421875 
Q 18.84375 -1.421875 12.171875 6.21875 
Q 5.515625 13.875 5.515625 27.296875 
Q 5.515625 40.765625 12.171875 48.375 
Q 18.84375 56 30.609375 56 
" id="BitstreamVeraSans-Roman-6f"/>
      <path d="M 56.203125 29.59375 
L 56.203125 25.203125 
L 14.890625 25.203125 
Q 15.484375 15.921875 20.484375 11.0625 
Q 25.484375 6.203125 34.421875 6.203125 
Q 39.59375 6.203125 44.453125 7.46875 
Q 49.3125 8.734375 54.109375 11.28125 
L 54.109375 2.78125 
Q 49.265625 0.734375 44.1875 -0.34375 
Q 39.109375 -1.421875 33.890625 -1.421875 
Q 20.796875 -1.421875 13.15625 6.1875 
Q 5.515625 13.8125 5.515625 26.8125 
Q 5.515625 40.234375 12.765625 48.109375 
Q 20.015625 56 32.328125 56 
Q 43.359375 56 49.78125 48.890625 
Q 56.203125 41.796875 56.203125 29.59375 
M 47.21875 32.234375 
Q 47.125 39.59375 43.09375 43.984375 
Q 39.0625 48.390625 32.421875 48.390625 
Q 24.90625 48.390625 20.390625 44.140625 
Q 15.875 39.890625 15.1875 32.171875 
z
" id="BitstreamVeraSans-Roman-65"/>
      <path d="M 48.78125 52.59375 
L 48.78125 44.1875 
Q 44.96875 46.296875 41.140625 47.34375 
Q 37.3125 48.390625 33.40625 48.390625 
Q 24.65625 48.390625 19.8125 42.84375 
Q 14.984375 37.3125 14.984375 27.296875 
Q 14.984375 17.28125 19.8125 11.734375 
Q 24.65625 6.203125 33.40625 6.203125 
Q 37.3125 6.203125 41.140625 7.25 
Q 44.96875 8.296875 48.78125 10.40625 
L 48.78125 2.09375 
Q 45.015625 0.34375 40.984375 -0.53125 
Q 36.96875 -1.421875 32.421875 -1.421875 
Q 20.0625 -1.421875 12.78125 6.34375 
Q 5.515625 14.109375 5.515625 27.296875 
Q 5.515625 40.671875 12.859375 48.328125 
Q 20.21875 56 33.015625 56 
Q 37.15625 56 41.109375 55.140625 
Q 45.0625 54.296875 48.78125 52.59375 
" id="BitstreamVeraSans-Roman-63"/>
      <path d="M 6.296875 72.90625 
L 16.890625 72.90625 
L 35.015625 45.796875 
L 53.21875 72.90625 
L 63.8125 72.90625 
L 40.375 37.890625 
L 65.375 0 
L 54.78125 0 
L 34.28125 31 
L 13.625 0 
L 2.984375 0 
L 29 38.921875 
z
" id="BitstreamVeraSans-Roman-58"/>
      <path d="M 18.3125 70.21875 
L 18.3125 54.6875 
L 36.8125 54.6875 
L 36.8125 47.703125 
L 18.3125 47.703125 
L 18.3125 18.015625 
Q 18.3125 11.328125 20.140625 9.421875 
Q 21.96875 7.515625 27.59375 7.515625 
L 36.8125 7.515625 
L 36.8125 0 
L 27.59375 0 
Q 17.1875 0 13.234375 3.875 
Q 9.28125 7.765625 9.28125 18.015625 
L 9.28125 47.703125 
L 2.6875 47.703125 
L 2.6875 54.6875 
L 9.28125 54.6875 
L 9.28125 70.21875 
z
" id="BitstreamVeraSans-Roman-74"/>
      <path d="M 18.109375 8.203125 
L 18.109375 -20.796875 
L 9.078125 -20.796875 
L 9.078125 54.6875 
L 18.109375 54.6875 
L 18.109375 46.390625 
Q 20.953125 51.265625 25.265625 53.625 
Q 29.59375 56 35.59375 56 
Q 45.5625 56 51.78125 48.09375 
Q 58.015625 40.1875 58.015625 27.296875 
Q 58.015625 14.40625 51.78125 6.484375 
Q 45.5625 -1.421875 35.59375 -1.421875 
Q 29.59375 -1.421875 25.265625 0.953125 
Q 20.953125 3.328125 18.109375 8.203125 
M 48.6875 27.296875 
Q 48.6875 37.203125 44.609375 42.84375 
Q 40.53125 48.484375 33.40625 48.484375 
Q 26.265625 48.484375 22.1875 42.84375 
Q 18.109375 37.203125 18.109375 27.296875 
Q 18.109375 17.390625 22.1875 11.75 
Q 26.265625 6.109375 33.40625 6.109375 
Q 40.53125 6.109375 44.609375 11.75 
Q 48.6875 17.390625 48.6875 27.296875 
" id="BitstreamVeraSans-Roman-70"/>
     </defs>
     <g transform="translate(88.31171875 204.4765625)scale(0.1 -0.1)">
      <use xlink:href="#BitstreamVeraSans-Roman-58"/>
      <use x="68.505859375" xlink:href="#BitstreamVeraSans-Roman-20"/>
      <use x="100.29296875" xlink:href="#BitstreamVeraSans-Roman-63"/>
      <use x="155.2734375" xlink:href="#BitstreamVeraSans-Roman-6f"/>
      <use x="216.455078125" xlink:href="#BitstreamVeraSans-Roman-6d"/>
      <use x="313.8671875" xlink:href="#BitstreamVeraSans-Roman-70"/>
      <use x="377.34375" xlink:href="#BitstreamVeraSans-Roman-6f"/>
      <use x="438.525390625" xlink:href="#BitstreamVeraSans-Roman-6e"/>
      <use x="501.904296875" xlink:href="#BitstreamVeraSans-Roman-65"/>
      <use x="563.427734375" xlink:href="#BitstreamVeraSans-Roman-6e"/>
      <use x="626.806640625" xlink:href="#BitstreamVeraSans-Roman-74"/>
     </g>
    </g>
   </g>
   <g id="matplotlib.axis_2">
    <g id="ytick_1">
     <g id="line2d_23">
      <defs>
       <path d="M 0 0 
L 4 0 
" id="m3d67a335ee" style="stroke:#000000;stroke-width:0.5;"/>
      </defs>
      <g>
       <use style="stroke:#000000;stroke-width:0.5;" x="44.8875" xlink:href="#m3d67a335ee" y="178.2"/>
      </g>
     </g>
     <g id="line2d_24">
      <defs>
       <path d="M 0 0 
L -4 0 
" id="mfdee3420f2" style="stroke:#000000;stroke-width:0.5;"/>
      </defs>
      <g>
       <use style="stroke:#000000;stroke-width:0.5;" x="198.3375" xlink:href="#mfdee3420f2" y="178.2"/>
      </g>
     </g>
     <g id="text_10">
      <!-- 0.0 -->
      <g transform="translate(24.984375 180.959375)scale(0.1 -0.1)">
       <use xlink:href="#BitstreamVeraSans-Roman-30"/>
       <use x="63.623046875" xlink:href="#BitstreamVeraSans-Roman-2e"/>
       <use x="95.41015625" xlink:href="#BitstreamVeraSans-Roman-30"/>
      </g>
     </g>
    </g>
    <g id="ytick_2">
     <g id="line2d_25">
      <g>
       <use style="stroke:#000000;stroke-width:0.5;" x="44.8875" xlink:href="#m3d67a335ee" y="145.62"/>
      </g>
     </g>
     <g id="line2d_26">
      <g>
       <use style="stroke:#000000;stroke-width:0.5;" x="198.3375" xlink:href="#mfdee3420f2" y="145.62"/>
      </g>
     </g>
     <g id="text_11">
      <!-- 0.2 -->
      <g transform="translate(24.984375 148.379375)scale(0.1 -0.1)">
       <use xlink:href="#BitstreamVeraSans-Roman-30"/>
       <use x="63.623046875" xlink:href="#BitstreamVeraSans-Roman-2e"/>
       <use x="95.41015625" xlink:href="#BitstreamVeraSans-Roman-32"/>
      </g>
     </g>
    </g>
    <g id="ytick_3">
     <g id="line2d_27">
      <g>
       <use style="stroke:#000000;stroke-width:0.5;" x="44.8875" xlink:href="#m3d67a335ee" y="113.04"/>
      </g>
     </g>
     <g id="line2d_28">
      <g>
       <use style="stroke:#000000;stroke-width:0.5;" x="198.3375" xlink:href="#mfdee3420f2" y="113.04"/>
      </g>
     </g>
     <g id="text_12">
      <!-- 0.4 -->
      <g transform="translate(24.984375 115.799375)scale(0.1 -0.1)">
       <use xlink:href="#BitstreamVeraSans-Roman-30"/>
       <use x="63.623046875" xlink:href="#BitstreamVeraSans-Roman-2e"/>
       <use x="95.41015625" xlink:href="#BitstreamVeraSans-Roman-34"/>
      </g>
     </g>
    </g>
    <g id="ytick_4">
     <g id="line2d_29">
      <g>
       <use style="stroke:#000000;stroke-width:0.5;" x="44.8875" xlink:href="#m3d67a335ee" y="80.46"/>
      </g>
     </g>
     <g id="line2d_30">
      <g>
       <use style="stroke:#000000;stroke-width:0.5;" x="198.3375" xlink:href="#mfdee3420f2" y="80.46"/>
      </g>
     </g>
     <g id="text_13">
      <!-- 0.6 -->
      <g transform="translate(24.984375 83.219375)scale(0.1 -0.1)">
       <use xlink:href="#BitstreamVeraSans-Roman-30"/>
       <use x="63.623046875" xlink:href="#BitstreamVeraSans-Roman-2e"/>
       <use x="95.41015625" xlink:href="#BitstreamVeraSans-Roman-36"/>
      </g>
     </g>
    </g>
    <g id="ytick_5">
     <g id="line2d_31">
      <g>
       <use style="stroke:#000000;stroke-width:0.5;" x="44.8875" xlink:href="#m3d67a335ee" y="47.88"/>
      </g>
     </g>
     <g id="line2d_32">
      <g>
       <use style="stroke:#000000;stroke-width:0.5;" x="198.3375" xlink:href="#mfdee3420f2" y="47.88"/>
      </g>
     </g>
     <g id="text_14">
      <!-- 0.8 -->
      <g transform="translate(24.984375 50.639375)scale(0.1 -0.1)">
       <use xlink:href="#BitstreamVeraSans-Roman-30"/>
       <use x="63.623046875" xlink:href="#BitstreamVeraSans-Roman-2e"/>
       <use x="95.41015625" xlink:href="#BitstreamVeraSans-Roman-38"/>
      </g>
     </g>
    </g>
    <g id="ytick_6">
     <g id="line2d_33">
      <g>
       <use style="stroke:#000000;stroke-width:0.5;" x="44.8875" xlink:href="#m3d67a335ee" y="15.3"/>
      </g>
     </g>
     <g id="line2d_34">
      <g>
       <use style="stroke:#000000;stroke-width:0.5;" x="198.3375" xlink:href="#mfdee3420f2" y="15.3"/>
      </g>
     </g>
     <g id="text_15">
      <!-- 1.0 -->
      <defs>
       <path d="M 12.40625 8.296875 
L 28.515625 8.296875 
L 28.515625 63.921875 
L 10.984375 60.40625 
L 10.984375 69.390625 
L 28.421875 72.90625 
L 38.28125 72.90625 
L 38.28125 8.296875 
L 54.390625 8.296875 
L 54.390625 0 
L 12.40625 0 
z
" id="BitstreamVeraSans-Roman-31"/>
      </defs>
      <g transform="translate(24.984375 18.059375)scale(0.1 -0.1)">
       <use xlink:href="#BitstreamVeraSans-Roman-31"/>
       <use x="63.623046875" xlink:href="#BitstreamVeraSans-Roman-2e"/>
       <use x="95.41015625" xlink:href="#BitstreamVeraSans-Roman-30"/>
      </g>
     </g>
    </g>
    <g id="text_16">
     <!-- Cumulative Distribution -->
     <defs>
      <path d="M 41.109375 46.296875 
Q 39.59375 47.171875 37.8125 47.578125 
Q 36.03125 48 33.890625 48 
Q 26.265625 48 22.1875 43.046875 
Q 18.109375 38.09375 18.109375 28.8125 
L 18.109375 0 
L 9.078125 0 
L 9.078125 54.6875 
L 18.109375 54.6875 
L 18.109375 46.1875 
Q 20.953125 51.171875 25.484375 53.578125 
Q 30.03125 56 36.53125 56 
Q 37.453125 56 38.578125 55.875 
Q 39.703125 55.765625 41.0625 55.515625 
z
" id="BitstreamVeraSans-Roman-72"/>
      <path d="M 9.421875 75.984375 
L 18.40625 75.984375 
L 18.40625 0 
L 9.421875 0 
z
" id="BitstreamVeraSans-Roman-6c"/>
      <path d="M 19.671875 64.796875 
L 19.671875 8.109375 
L 31.59375 8.109375 
Q 46.6875 8.109375 53.6875 14.9375 
Q 60.6875 21.78125 60.6875 36.53125 
Q 60.6875 51.171875 53.6875 57.984375 
Q 46.6875 64.796875 31.59375 64.796875 
z
M 9.8125 72.90625 
L 30.078125 72.90625 
Q 51.265625 72.90625 61.171875 64.09375 
Q 71.09375 55.28125 71.09375 36.53125 
Q 71.09375 17.671875 61.125 8.828125 
Q 51.171875 0 30.078125 0 
L 9.8125 0 
z
" id="BitstreamVeraSans-Roman-44"/>
      <path d="M 9.421875 54.6875 
L 18.40625 54.6875 
L 18.40625 0 
L 9.421875 0 
z
M 9.421875 75.984375 
L 18.40625 75.984375 
L 18.40625 64.59375 
L 9.421875 64.59375 
z
" id="BitstreamVeraSans-Roman-69"/>
      <path d="M 2.984375 54.6875 
L 12.5 54.6875 
L 29.59375 8.796875 
L 46.6875 54.6875 
L 56.203125 54.6875 
L 35.6875 0 
L 23.484375 0 
z
" id="BitstreamVeraSans-Roman-76"/>
      <path d="M 64.40625 67.28125 
L 64.40625 56.890625 
Q 59.421875 61.53125 53.78125 63.8125 
Q 48.140625 66.109375 41.796875 66.109375 
Q 29.296875 66.109375 22.65625 58.46875 
Q 16.015625 50.828125 16.015625 36.375 
Q 16.015625 21.96875 22.65625 14.328125 
Q 29.296875 6.6875 41.796875 6.6875 
Q 48.140625 6.6875 53.78125 8.984375 
Q 59.421875 11.28125 64.40625 15.921875 
L 64.40625 5.609375 
Q 59.234375 2.09375 53.4375 0.328125 
Q 47.65625 -1.421875 41.21875 -1.421875 
Q 24.65625 -1.421875 15.125 8.703125 
Q 5.609375 18.84375 5.609375 36.375 
Q 5.609375 53.953125 15.125 64.078125 
Q 24.65625 74.21875 41.21875 74.21875 
Q 47.75 74.21875 53.53125 72.484375 
Q 59.328125 70.75 64.40625 67.28125 
" id="BitstreamVeraSans-Roman-43"/>
      <path d="M 8.5 21.578125 
L 8.5 54.6875 
L 17.484375 54.6875 
L 17.484375 21.921875 
Q 17.484375 14.15625 20.5 10.265625 
Q 23.53125 6.390625 29.59375 6.390625 
Q 36.859375 6.390625 41.078125 11.03125 
Q 45.3125 15.671875 45.3125 23.6875 
L 45.3125 54.6875 
L 54.296875 54.6875 
L 54.296875 0 
L 45.3125 0 
L 45.3125 8.40625 
Q 42.046875 3.421875 37.71875 1 
Q 33.40625 -1.421875 27.6875 -1.421875 
Q 18.265625 -1.421875 13.375 4.4375 
Q 8.5 10.296875 8.5 21.578125 
" id="BitstreamVeraSans-Roman-75"/>
      <path d="M 34.28125 27.484375 
Q 23.390625 27.484375 19.1875 25 
Q 14.984375 22.515625 14.984375 16.5 
Q 14.984375 11.71875 18.140625 8.90625 
Q 21.296875 6.109375 26.703125 6.109375 
Q 34.1875 6.109375 38.703125 11.40625 
Q 43.21875 16.703125 43.21875 25.484375 
L 43.21875 27.484375 
z
M 52.203125 31.203125 
L 52.203125 0 
L 43.21875 0 
L 43.21875 8.296875 
Q 40.140625 3.328125 35.546875 0.953125 
Q 30.953125 -1.421875 24.3125 -1.421875 
Q 15.921875 -1.421875 10.953125 3.296875 
Q 6 8.015625 6 15.921875 
Q 6 25.140625 12.171875 29.828125 
Q 18.359375 34.515625 30.609375 34.515625 
L 43.21875 34.515625 
L 43.21875 35.40625 
Q 43.21875 41.609375 39.140625 45 
Q 35.0625 48.390625 27.6875 48.390625 
Q 23 48.390625 18.546875 47.265625 
Q 14.109375 46.140625 10.015625 43.890625 
L 10.015625 52.203125 
Q 14.9375 54.109375 19.578125 55.046875 
Q 24.21875 56 28.609375 56 
Q 40.484375 56 46.34375 49.84375 
Q 52.203125 43.703125 52.203125 31.203125 
" id="BitstreamVeraSans-Roman-61"/>
      <path d="M 44.28125 53.078125 
L 44.28125 44.578125 
Q 40.484375 46.53125 36.375 47.5 
Q 32.28125 48.484375 27.875 48.484375 
Q 21.1875 48.484375 17.84375 46.4375 
Q 14.5 44.390625 14.5 40.28125 
Q 14.5 37.15625 16.890625 35.375 
Q 19.28125 33.59375 26.515625 31.984375 
L 29.59375 31.296875 
Q 39.15625 29.25 43.1875 25.515625 
Q 47.21875 21.78125 47.21875 15.09375 
Q 47.21875 7.46875 41.1875 3.015625 
Q 35.15625 -1.421875 24.609375 -1.421875 
Q 20.21875 -1.421875 15.453125 -0.5625 
Q 10.6875 0.296875 5.421875 2 
L 5.421875 11.28125 
Q 10.40625 8.6875 15.234375 7.390625 
Q 20.0625 6.109375 24.8125 6.109375 
Q 31.15625 6.109375 34.5625 8.28125 
Q 37.984375 10.453125 37.984375 14.40625 
Q 37.984375 18.0625 35.515625 20.015625 
Q 33.0625 21.96875 24.703125 23.78125 
L 21.578125 24.515625 
Q 13.234375 26.265625 9.515625 29.90625 
Q 5.8125 33.546875 5.8125 39.890625 
Q 5.8125 47.609375 11.28125 51.796875 
Q 16.75 56 26.8125 56 
Q 31.78125 56 36.171875 55.265625 
Q 40.578125 54.546875 44.28125 53.078125 
" id="BitstreamVeraSans-Roman-73"/>
      <path d="M 48.6875 27.296875 
Q 48.6875 37.203125 44.609375 42.84375 
Q 40.53125 48.484375 33.40625 48.484375 
Q 26.265625 48.484375 22.1875 42.84375 
Q 18.109375 37.203125 18.109375 27.296875 
Q 18.109375 17.390625 22.1875 11.75 
Q 26.265625 6.109375 33.40625 6.109375 
Q 40.53125 6.109375 44.609375 11.75 
Q 48.6875 17.390625 48.6875 27.296875 
M 18.109375 46.390625 
Q 20.953125 51.265625 25.265625 53.625 
Q 29.59375 56 35.59375 56 
Q 45.5625 56 51.78125 48.09375 
Q 58.015625 40.1875 58.015625 27.296875 
Q 58.015625 14.40625 51.78125 6.484375 
Q 45.5625 -1.421875 35.59375 -1.421875 
Q 29.59375 -1.421875 25.265625 0.953125 
Q 20.953125 3.328125 18.109375 8.203125 
L 18.109375 0 
L 9.078125 0 
L 9.078125 75.984375 
L 18.109375 75.984375 
z
" id="BitstreamVeraSans-Roman-62"/>
     </defs>
     <g transform="translate(17.9046875 156.0453125)rotate(-90.0)scale(0.1 -0.1)">
      <use xlink:href="#BitstreamVeraSans-Roman-43"/>
      <use x="69.82421875" xlink:href="#BitstreamVeraSans-Roman-75"/>
      <use x="133.203125" xlink:href="#BitstreamVeraSans-Roman-6d"/>
      <use x="230.615234375" xlink:href="#BitstreamVeraSans-Roman-75"/>
      <use x="293.994140625" xlink:href="#BitstreamVeraSans-Roman-6c"/>
      <use x="321.77734375" xlink:href="#BitstreamVeraSans-Roman-61"/>
      <use x="383.056640625" xlink:href="#BitstreamVeraSans-Roman-74"/>
      <use x="422.265625" xlink:href="#BitstreamVeraSans-Roman-69"/>
      <use x="450.048828125" xlink:href="#BitstreamVeraSans-Roman-76"/>
      <use x="509.228515625" xlink:href="#BitstreamVeraSans-Roman-65"/>
      <use x="570.751953125" xlink:href="#BitstreamVeraSans-Roman-20"/>
      <use x="602.5390625" xlink:href="#BitstreamVeraSans-Roman-44"/>
      <use x="679.541015625" xlink:href="#BitstreamVeraSans-Roman-69"/>
      <use x="707.32421875" xlink:href="#BitstreamVeraSans-Roman-73"/>
      <use x="759.423828125" xlink:href="#BitstreamVeraSans-Roman-74"/>
      <use x="798.6328125" xlink:href="#BitstreamVeraSans-Roman-72"/>
      <use x="839.74609375" xlink:href="#BitstreamVeraSans-Roman-69"/>
      <use x="867.529296875" xlink:href="#BitstreamVeraSans-Roman-62"/>
      <use x="931.005859375" xlink:href="#BitstreamVeraSans-Roman-75"/>
      <use x="994.384765625" xlink:href="#BitstreamVeraSans-Roman-74"/>
      <use x="1033.59375" xlink:href="#BitstreamVeraSans-Roman-69"/>
      <use x="1061.37695312" xlink:href="#BitstreamVeraSans-Roman-6f"/>
      <use x="1122.55859375" xlink:href="#BitstreamVeraSans-Roman-6e"/>
     </g>
    </g>
   </g>
  </g>
  <g id="axes_2">
   <g id="patch_7">
    <path d="M 258.69375 178.2 
L 412.14375 178.2 
L 412.14375 15.3 
L 258.69375 15.3 
z
" style="fill:#ffffff;"/>
   </g>
   <g id="line2d_35">
    <path clip-path="url(#pdcab533dae)" d="M 281.900284 178.2 
L 286.255083 178.16742 
L 289.071044 178.0371 
L 289.33387 177.97194 
L 292.021074 177.8742 
L 294.462444 177.7113 
L 299.650852 177.2226 
L 299.748428 177.19002 
L 300.810143 177.02712 
L 303.008577 176.50584 
L 303.971198 176.2452 
L 304.675799 175.98456 
L 304.835998 175.78908 
L 310.231953 173.1501 
L 310.441879 172.88946 
L 310.821965 172.6614 
L 310.933544 172.53108 
L 311.327485 172.36818 
L 311.538157 172.1727 
L 312.035809 171.94464 
L 312.209619 171.8469 
L 312.669783 171.55368 
L 312.838786 171.3582 
L 313.503429 170.90208 
L 313.587598 170.83692 
L 314.189955 170.31564 
L 314.491811 170.12016 
L 314.675433 169.95726 
L 314.882414 169.66404 
L 315.123137 169.50114 
L 315.713208 168.9147 
L 316.189991 168.16536 
L 316.384973 168.03504 
L 316.550004 167.70924 
L 316.750505 167.48118 
L 316.860013 167.31828 
L 317.070572 166.99248 
L 317.46543 166.37346 
L 317.571946 166.11282 
L 317.675705 165.88476 
L 317.821623 165.72186 
L 318.268065 165.29832 
L 318.434636 165.13542 
L 318.812586 164.80962 
L 319.03403 164.41866 
L 319.230931 164.25576 
L 319.256949 164.15802 
L 319.386352 164.0277 
L 319.545314 163.60416 
L 319.936275 163.2132 
L 320.044452 162.91998 
L 320.183571 162.7245 
L 320.349252 162.43128 
L 320.701531 162.04032 
L 320.908748 161.5842 
L 321.099093 161.38872 
L 323.188768 157.31622 
L 323.271294 157.05558 
L 323.454896 156.6972 
L 324.319469 154.93788 
L 324.40043 154.80756 
L 324.598891 154.35144 
L 324.695709 154.15596 
L 325.068255 153.34146 
L 325.173403 153.1134 
L 325.946014 151.38666 
L 326.140003 150.96312 
L 326.215948 150.80022 
L 326.418042 150.31152 
L 328.349341 145.55484 
L 328.638344 144.61002 
L 328.89803 144.21906 
L 329.040455 143.89326 
L 329.133865 143.60004 
L 329.269252 143.07876 
L 329.552406 142.1991 
L 329.623305 142.0362 
L 329.739322 141.64524 
L 329.902391 141.35202 
L 330.029115 141.09138 
L 330.908993 138.48498 
L 331.047112 138.19176 
L 331.37361 137.21436 
L 331.476323 136.85598 
L 331.566951 136.53018 
L 331.71652 136.26954 
L 331.801276 135.94374 
L 332.925392 132.4251 
L 333.013008 132.2622 
L 333.279807 131.48028 
L 334.889598 126.85392 
L 335.026066 126.59328 
L 335.086083 126.30006 
L 335.235972 125.55072 
L 335.700887 123.6285 
L 335.87213 122.61852 
L 335.933159 122.45562 
L 336.16214 121.6737 
L 336.334199 121.41306 
L 336.615039 120.33792 
L 337.025456 118.48086 
L 337.144382 117.86184 
L 337.367442 116.7867 
L 337.435252 116.55864 
L 337.573304 116.03736 
L 337.906403 114.86448 
L 338.012284 114.40836 
L 338.096445 113.95224 
L 338.947556 110.79198 
L 339.066384 110.49876 
L 340.381726 105.51402 
L 340.47875 105.28596 
L 340.724968 104.37372 
L 340.787634 104.14566 
L 340.883002 103.7547 
L 341.056652 102.7773 
L 341.13324 102.41892 
L 341.27034 101.93022 
L 345.275486 87.69276 
L 345.386969 87.17148 
L 345.471704 86.91084 
L 345.814924 85.64022 
L 345.871459 85.44474 
L 346.171154 84.56508 
L 346.57905 83.00124 
L 346.727134 82.089 
L 347.667188 78.44004 
L 347.744655 78.30972 
L 347.928369 77.78844 
L 348.002404 77.49522 
L 348.29781 76.5504 
L 348.407247 76.2246 
L 348.464665 75.96396 
L 348.577117 75.4101 
L 348.64036 75.21462 
L 348.917965 74.1069 
L 349.012369 73.71594 
L 349.150116 73.19466 
L 349.320318 72.73854 
L 349.541731 71.9892 
L 349.666791 71.5005 
L 349.903374 70.686 
L 349.969988 70.5231 
L 350.16738 69.96924 
L 350.253935 69.77376 
L 350.707015 68.11218 
L 350.969695 67.36284 
L 351.090723 67.06962 
L 351.237341 66.48318 
L 351.532906 65.50578 
L 351.59572 65.27772 
L 351.883092 64.03968 
L 351.968471 63.81162 
L 352.165409 62.99712 
L 352.315007 62.60616 
L 352.598758 61.53102 
L 352.71439 61.27038 
L 352.882462 60.7491 
L 352.992611 60.45588 
L 353.187186 59.80428 
L 354.647225 54.94986 
L 354.743773 54.75438 
L 354.879941 54.2331 
L 354.986054 54.00504 
L 355.1262 53.4186 
L 355.267574 53.12538 
L 355.438818 52.4412 
L 355.84938 51.36606 
L 355.949143 51.138 
L 356.176465 50.87736 
L 356.290931 50.6493 
L 356.450595 50.12802 
L 356.686649 49.1832 
L 356.802988 48.98772 
L 356.902269 48.66192 
L 356.99536 48.30354 
L 357.194895 47.91258 
L 357.553404 46.77228 
L 358.085437 45.33876 
L 358.566586 43.8075 
L 358.817169 43.41654 
L 358.945698 43.1559 
L 359.069153 42.92784 
L 359.185929 42.76494 
L 360.084059 40.32144 
L 360.220024 40.12596 
L 360.343577 39.66984 
L 360.711972 39.01824 
L 360.870625 38.46438 
L 361.245483 37.74762 
L 361.361952 37.58472 
L 361.453466 37.42182 
L 361.764065 36.60732 
L 362.357143 35.4996 
L 362.553327 34.97832 
L 362.681045 34.75026 
L 362.819638 34.29414 
L 362.924809 34.13124 
L 363.113641 33.77286 
L 363.506487 33.18642 
L 363.568626 32.8932 
L 363.761262 32.7303 
L 363.878326 32.53482 
L 364.015146 32.2416 
L 364.507655 31.2642 
L 364.798953 30.9384 
L 364.904398 30.67776 
L 365.051837 30.48228 
L 365.513371 29.76552 
L 365.613564 29.6352 
L 365.732601 29.43972 
L 366.817789 28.03878 
L 366.944136 27.8433 
L 367.225463 27.41976 
L 367.468011 27.12654 
L 367.635461 26.93106 
L 368.092997 26.31204 
L 368.240752 26.18172 
L 368.637522 25.85592 
L 368.716386 25.75818 
L 368.976224 25.5627 
L 369.069186 25.3998 
L 369.246125 25.2369 
L 369.329593 24.97626 
L 369.435762 24.81336 
L 370.375829 23.99886 
L 370.422822 23.90112 
L 370.685006 23.73822 
L 370.814143 23.445 
L 371.14515 23.08662 
L 371.367747 22.92372 
L 371.433514 22.76082 
L 371.897641 22.40244 
L 371.985827 22.23954 
L 372.474718 22.01148 
L 372.685759 21.84858 
L 373.054297 21.55536 
L 373.182227 21.35988 
L 374.155285 20.74086 
L 374.466998 20.61054 
L 374.909629 20.25216 
L 375.22192 20.0241 
L 375.455531 19.82862 
L 375.954926 19.60056 
L 376.080991 19.43766 
L 378.213635 18.68832 
L 378.479104 18.49284 
L 378.827692 18.32994 
L 378.886676 18.2322 
L 379.664385 17.93898 
L 379.822687 17.77608 
L 380.580024 17.51544 
L 381.386304 17.15706 
L 382.919243 16.83126 
L 383.899347 16.63578 
L 387.447381 16.08192 
L 387.488535 16.04934 
L 390.433777 15.7887 
L 390.471765 15.75612 
L 399.62746 15.33258 
L 399.62746 15.33258 
" style="fill:none;stroke:#ff0000;stroke-linecap:square;"/>
   </g>
   <g id="line2d_36">
    <path clip-path="url(#pdcab533dae)" d="M 308.473224 178.2 
L 308.473224 15.3 
" style="fill:none;stroke:#ff0000;stroke-linecap:square;"/>
   </g>
   <g id="line2d_37">
    <path clip-path="url(#pdcab533dae)" d="M 376.197476 178.2 
L 376.197476 15.3 
" style="fill:none;stroke:#ff0000;stroke-linecap:square;"/>
   </g>
   <g id="line2d_38">
    <path clip-path="url(#pdcab533dae)" d="M 268.223461 178.2 
L 290.893901 177.97194 
L 297.818094 177.51582 
L 298.038845 177.45066 
L 299.269904 177.25518 
L 301.224564 176.92938 
L 301.470139 176.86422 
L 302.563097 176.66874 
L 302.901807 176.47326 
L 303.4891 176.2452 
L 303.849055 176.11488 
L 305.051879 175.85424 
L 305.865651 175.5936 
L 305.963677 175.49586 
L 306.461374 175.2678 
L 307.645665 174.97458 
L 307.993917 174.84426 
L 308.552621 174.68136 
L 308.889472 174.32298 
L 309.209602 174.16008 
L 309.864805 173.89944 
L 310.297738 173.67138 
L 310.597848 173.37816 
L 311.115624 173.05236 
L 311.685421 172.62882 
L 312.406302 172.14012 
L 312.549254 171.87948 
L 312.770246 171.71658 
L 312.864455 171.5211 
L 313.237333 171.29304 
L 313.991949 170.80434 
L 314.0028 170.73918 
L 314.218302 170.57628 
L 314.350553 170.41338 
L 315.500174 169.17534 
L 315.682718 168.97986 
L 316.879218 167.67666 
L 317.18438 167.22054 
L 317.508233 166.797 
L 317.683688 166.50378 
L 317.960827 166.17798 
L 318.206583 165.72186 
L 318.669203 165.3309 
L 318.952373 164.90736 
L 319.087102 164.71188 
L 319.30472 164.41866 
L 319.524731 164.15802 
L 320.1346 162.95256 
L 320.259424 162.75708 
L 320.431886 162.49644 
L 320.576451 162.20322 
L 321.333899 160.73712 
L 321.471844 160.54164 
L 321.57436 160.31358 
L 321.663955 160.1181 
L 321.912897 159.59682 
L 322.0378 159.36876 
L 322.37272 159.10812 
L 322.569679 158.68458 
L 322.683913 158.45652 
L 322.926906 157.80492 
L 323.03389 157.64202 
L 324.857603 154.22112 
L 325.456634 152.9505 
L 325.575212 152.7876 
L 325.884677 151.87536 
L 326.000385 151.74504 
L 326.212978 151.25634 
L 326.33778 150.96312 
L 326.420436 150.76764 
L 326.510379 150.57216 
L 326.645446 150.24636 
L 326.909211 149.62734 
L 326.970508 149.43186 
L 327.710337 147.5748 
L 327.828485 147.02094 
L 327.951331 146.7603 
L 328.085448 146.36934 
L 328.240616 146.1087 
L 328.499846 145.22904 
L 328.665614 144.77292 
L 328.770634 144.28422 
L 329.071424 143.63262 
L 329.573829 142.29684 
L 329.697985 141.97104 
L 329.868579 141.51492 
L 330.37139 140.733 
L 330.489903 140.47236 
L 330.876688 139.2669 
L 330.989058 139.03884 
L 331.838762 136.43244 
L 332.022736 135.91116 
L 332.130573 135.71568 
L 332.276704 135.09666 
L 332.380011 134.73828 
L 332.495272 134.47764 
L 332.68287 133.7283 
L 332.893889 133.33734 
L 333.024968 132.97896 
L 333.236633 132.19704 
L 333.389837 131.51286 
L 333.483706 131.2848 
L 334.031794 129.55806 
L 334.221672 128.8413 
L 334.331042 128.6784 
L 334.433534 128.22228 
L 334.49295 128.05938 
L 334.721093 126.82134 
L 335.167757 125.2575 
L 335.286394 125.06202 
L 335.494682 124.34526 
L 335.881858 122.9769 
L 335.943142 122.78142 
L 336.1616 122.12982 
L 336.247334 121.8366 
L 336.356853 121.54338 
L 336.489061 120.92436 
L 336.647443 120.27276 
L 337.124148 118.31796 
L 337.306087 117.89442 
L 338.613931 112.51872 
L 338.875177 111.44358 
L 339.085793 110.79198 
L 339.27026 110.04264 
L 339.50026 109.26072 
L 339.564277 108.86976 
L 339.840425 107.95752 
L 340.456337 105.3837 
L 340.569068 104.895 
L 340.723265 104.2434 
L 340.873691 103.62438 
L 341.034096 103.13568 
L 341.209191 102.41892 
L 341.384433 101.76732 
L 341.478769 101.44152 
L 341.59254 101.21346 
L 342.27723 98.44416 
L 342.379937 98.18352 
L 342.836457 96.65226 
L 343.010861 96.13098 
L 343.128749 95.7726 
L 343.34794 94.99068 
L 343.490515 94.37166 
L 343.663433 93.62232 
L 343.810649 93.0033 
L 343.951993 92.48202 
L 344.095357 91.76526 
L 344.17472 91.3743 
L 344.277129 90.78786 
L 344.377662 90.42948 
L 344.487671 89.77788 
L 344.655385 89.4195 
L 344.811353 88.9308 
L 345.144655 87.66018 
L 345.197337 87.3018 
L 345.285997 87.00858 
L 345.348771 86.78052 
L 346.140054 83.75058 
L 346.258735 83.32704 
L 346.346299 83.03382 
L 346.516592 82.4148 
L 346.665707 81.82836 
L 347.028784 80.26452 
L 347.118079 80.00388 
L 348.701447 73.6182 
L 348.808425 73.32498 
L 349.008396 72.8037 
L 349.230578 71.95662 
L 349.340055 71.6634 
L 350.003866 69.7086 
L 350.135133 69.25248 
L 350.55285 67.9167 
L 350.64959 67.5909 
L 350.73349 67.428 
L 353.818229 57.78432 
L 353.902366 57.42594 
L 354.093801 57.1653 
L 354.252912 56.28564 
L 354.40952 55.92726 
L 354.827115 54.42858 
L 354.915918 54.20052 
L 355.104563 53.45118 
L 355.18455 53.22312 
L 356.927074 48.62934 
L 357.084666 48.43386 
L 357.192734 48.17322 
L 357.288145 47.91258 
L 357.384074 47.74968 
L 357.519425 47.52162 
L 357.627402 47.29356 
L 357.735329 47.00034 
L 357.900156 46.60938 
L 357.98326 46.38132 
L 358.210879 45.86004 
L 358.501309 44.98038 
L 358.755839 44.16588 
L 358.864455 43.93782 
L 359.015312 43.54686 
L 359.090929 43.28622 
L 359.207362 43.02558 
L 359.487415 42.40656 
L 359.588013 42.0156 
L 359.651417 41.8527 
L 359.874554 41.364 
L 359.982668 41.0382 
L 360.102108 40.77756 
L 360.714624 39.50694 
L 360.865012 39.2463 
L 360.998841 38.88792 
L 361.083102 38.72502 
L 361.554253 37.48698 
L 361.704816 37.2915 
L 361.821476 37.09602 
L 362.0207 36.77022 
L 362.137663 36.50958 
L 362.304212 36.24894 
L 362.599945 35.79282 
L 363.374216 34.1964 
L 363.977196 33.12126 
L 364.437646 32.4045 
L 364.706258 31.81806 
L 365.00002 31.36194 
L 365.244052 30.97098 
L 365.393061 30.80808 
L 365.491928 30.6126 
L 370.066341 25.10658 
L 370.356135 24.7482 
L 370.480759 24.5853 
L 370.763594 24.22692 
L 370.88962 23.96628 
L 371.189963 23.73822 
L 371.352814 23.445 
L 371.638186 23.1192 
L 371.862333 22.89114 
L 372.107461 22.66308 
L 372.264568 22.53276 
L 372.691037 22.20696 
L 373.092517 21.78342 
L 373.192071 21.62052 
L 374.819945 20.21958 
L 375.142473 20.05668 
L 375.373507 19.8612 
L 377.599273 18.85122 
L 378.017095 18.558 
L 378.753898 18.29736 
L 379.345961 17.87382 
L 380.214267 17.7435 
L 380.456336 17.67834 
L 381.173686 17.51544 
L 382.903992 16.929 
L 384.49277 16.73352 
L 384.514165 16.70094 
L 386.256001 16.40772 
L 388.231961 16.24482 
L 388.261746 16.21224 
L 393.816329 15.52806 
L 393.98594 15.4629 
L 394.865546 15.39774 
L 401.811919 15.33258 
L 401.811919 15.33258 
" style="fill:none;stroke:#0000ff;stroke-linecap:square;"/>
   </g>
   <g id="line2d_39">
    <path clip-path="url(#pdcab533dae)" d="M 309.266056 178.2 
L 309.266056 15.3 
" style="fill:none;stroke:#0000ff;stroke-dasharray:6.000000,6.000000;stroke-dashoffset:0.0;"/>
   </g>
   <g id="line2d_40">
    <path clip-path="url(#pdcab533dae)" d="M 376.701433 178.2 
L 376.701433 15.3 
" style="fill:none;stroke:#0000ff;stroke-dasharray:6.000000,6.000000;stroke-dashoffset:0.0;"/>
   </g>
   <g id="patch_8">
    <path d="M 258.69375 15.3 
L 412.14375 15.3 
" style="fill:none;stroke:#000000;stroke-linecap:square;stroke-linejoin:miter;"/>
   </g>
   <g id="patch_9">
    <path d="M 412.14375 178.2 
L 412.14375 15.3 
" style="fill:none;stroke:#000000;stroke-linecap:square;stroke-linejoin:miter;"/>
   </g>
   <g id="patch_10">
    <path d="M 258.69375 178.2 
L 412.14375 178.2 
" style="fill:none;stroke:#000000;stroke-linecap:square;stroke-linejoin:miter;"/>
   </g>
   <g id="patch_11">
    <path d="M 258.69375 178.2 
L 258.69375 15.3 
" style="fill:none;stroke:#000000;stroke-linecap:square;stroke-linejoin:miter;"/>
   </g>
   <g id="matplotlib.axis_3">
    <g id="xtick_9">
     <g id="line2d_41">
      <g>
       <use style="stroke:#000000;stroke-width:0.5;" x="258.69375" xlink:href="#m43e15b8a79" y="178.2"/>
      </g>
     </g>
     <g id="line2d_42">
      <g>
       <use style="stroke:#000000;stroke-width:0.5;" x="258.69375" xlink:href="#med421cb203" y="15.3"/>
      </g>
     </g>
     <g id="text_17">
      <!-- −0.30 -->
      <defs>
       <path d="M 40.578125 39.3125 
Q 47.65625 37.796875 51.625 33 
Q 55.609375 28.21875 55.609375 21.1875 
Q 55.609375 10.40625 48.1875 4.484375 
Q 40.765625 -1.421875 27.09375 -1.421875 
Q 22.515625 -1.421875 17.65625 -0.515625 
Q 12.796875 0.390625 7.625 2.203125 
L 7.625 11.71875 
Q 11.71875 9.328125 16.59375 8.109375 
Q 21.484375 6.890625 26.8125 6.890625 
Q 36.078125 6.890625 40.9375 10.546875 
Q 45.796875 14.203125 45.796875 21.1875 
Q 45.796875 27.640625 41.28125 31.265625 
Q 36.765625 34.90625 28.71875 34.90625 
L 20.21875 34.90625 
L 20.21875 43.015625 
L 29.109375 43.015625 
Q 36.375 43.015625 40.234375 45.921875 
Q 44.09375 48.828125 44.09375 54.296875 
Q 44.09375 59.90625 40.109375 62.90625 
Q 36.140625 65.921875 28.71875 65.921875 
Q 24.65625 65.921875 20.015625 65.03125 
Q 15.375 64.15625 9.8125 62.3125 
L 9.8125 71.09375 
Q 15.4375 72.65625 20.34375 73.4375 
Q 25.25 74.21875 29.59375 74.21875 
Q 40.828125 74.21875 47.359375 69.109375 
Q 53.90625 64.015625 53.90625 55.328125 
Q 53.90625 49.265625 50.4375 45.09375 
Q 46.96875 40.921875 40.578125 39.3125 
" id="BitstreamVeraSans-Roman-33"/>
      </defs>
      <g transform="translate(243.37109375 189.7984375)scale(0.1 -0.1)">
       <use xlink:href="#BitstreamVeraSans-Roman-2212"/>
       <use x="83.7890625" xlink:href="#BitstreamVeraSans-Roman-30"/>
       <use x="147.412109375" xlink:href="#BitstreamVeraSans-Roman-2e"/>
       <use x="179.19921875" xlink:href="#BitstreamVeraSans-Roman-33"/>
       <use x="242.822265625" xlink:href="#BitstreamVeraSans-Roman-30"/>
      </g>
     </g>
    </g>
    <g id="xtick_10">
     <g id="line2d_43">
      <g>
       <use style="stroke:#000000;stroke-width:0.5;" x="280.615178571" xlink:href="#m43e15b8a79" y="178.2"/>
      </g>
     </g>
     <g id="line2d_44">
      <g>
       <use style="stroke:#000000;stroke-width:0.5;" x="280.615178571" xlink:href="#med421cb203" y="15.3"/>
      </g>
     </g>
     <g id="text_18">
      <!-- −0.28 -->
      <g transform="translate(265.292522321 189.7984375)scale(0.1 -0.1)">
       <use xlink:href="#BitstreamVeraSans-Roman-2212"/>
       <use x="83.7890625" xlink:href="#BitstreamVeraSans-Roman-30"/>
       <use x="147.412109375" xlink:href="#BitstreamVeraSans-Roman-2e"/>
       <use x="179.19921875" xlink:href="#BitstreamVeraSans-Roman-32"/>
       <use x="242.822265625" xlink:href="#BitstreamVeraSans-Roman-38"/>
      </g>
     </g>
    </g>
    <g id="xtick_11">
     <g id="line2d_45">
      <g>
       <use style="stroke:#000000;stroke-width:0.5;" x="302.536607143" xlink:href="#m43e15b8a79" y="178.2"/>
      </g>
     </g>
     <g id="line2d_46">
      <g>
       <use style="stroke:#000000;stroke-width:0.5;" x="302.536607143" xlink:href="#med421cb203" y="15.3"/>
      </g>
     </g>
     <g id="text_19">
      <!-- −0.26 -->
      <g transform="translate(287.213950893 189.7984375)scale(0.1 -0.1)">
       <use xlink:href="#BitstreamVeraSans-Roman-2212"/>
       <use x="83.7890625" xlink:href="#BitstreamVeraSans-Roman-30"/>
       <use x="147.412109375" xlink:href="#BitstreamVeraSans-Roman-2e"/>
       <use x="179.19921875" xlink:href="#BitstreamVeraSans-Roman-32"/>
       <use x="242.822265625" xlink:href="#BitstreamVeraSans-Roman-36"/>
      </g>
     </g>
    </g>
    <g id="xtick_12">
     <g id="line2d_47">
      <g>
       <use style="stroke:#000000;stroke-width:0.5;" x="324.458035714" xlink:href="#m43e15b8a79" y="178.2"/>
      </g>
     </g>
     <g id="line2d_48">
      <g>
       <use style="stroke:#000000;stroke-width:0.5;" x="324.458035714" xlink:href="#med421cb203" y="15.3"/>
      </g>
     </g>
     <g id="text_20">
      <!-- −0.24 -->
      <g transform="translate(309.135379464 189.7984375)scale(0.1 -0.1)">
       <use xlink:href="#BitstreamVeraSans-Roman-2212"/>
       <use x="83.7890625" xlink:href="#BitstreamVeraSans-Roman-30"/>
       <use x="147.412109375" xlink:href="#BitstreamVeraSans-Roman-2e"/>
       <use x="179.19921875" xlink:href="#BitstreamVeraSans-Roman-32"/>
       <use x="242.822265625" xlink:href="#BitstreamVeraSans-Roman-34"/>
      </g>
     </g>
    </g>
    <g id="xtick_13">
     <g id="line2d_49">
      <g>
       <use style="stroke:#000000;stroke-width:0.5;" x="346.379464286" xlink:href="#m43e15b8a79" y="178.2"/>
      </g>
     </g>
     <g id="line2d_50">
      <g>
       <use style="stroke:#000000;stroke-width:0.5;" x="346.379464286" xlink:href="#med421cb203" y="15.3"/>
      </g>
     </g>
     <g id="text_21">
      <!-- −0.22 -->
      <g transform="translate(331.056808036 189.7984375)scale(0.1 -0.1)">
       <use xlink:href="#BitstreamVeraSans-Roman-2212"/>
       <use x="83.7890625" xlink:href="#BitstreamVeraSans-Roman-30"/>
       <use x="147.412109375" xlink:href="#BitstreamVeraSans-Roman-2e"/>
       <use x="179.19921875" xlink:href="#BitstreamVeraSans-Roman-32"/>
       <use x="242.822265625" xlink:href="#BitstreamVeraSans-Roman-32"/>
      </g>
     </g>
    </g>
    <g id="xtick_14">
     <g id="line2d_51">
      <g>
       <use style="stroke:#000000;stroke-width:0.5;" x="368.300892857" xlink:href="#m43e15b8a79" y="178.2"/>
      </g>
     </g>
     <g id="line2d_52">
      <g>
       <use style="stroke:#000000;stroke-width:0.5;" x="368.300892857" xlink:href="#med421cb203" y="15.3"/>
      </g>
     </g>
     <g id="text_22">
      <!-- −0.20 -->
      <g transform="translate(352.978236607 189.7984375)scale(0.1 -0.1)">
       <use xlink:href="#BitstreamVeraSans-Roman-2212"/>
       <use x="83.7890625" xlink:href="#BitstreamVeraSans-Roman-30"/>
       <use x="147.412109375" xlink:href="#BitstreamVeraSans-Roman-2e"/>
       <use x="179.19921875" xlink:href="#BitstreamVeraSans-Roman-32"/>
       <use x="242.822265625" xlink:href="#BitstreamVeraSans-Roman-30"/>
      </g>
     </g>
    </g>
    <g id="xtick_15">
     <g id="line2d_53">
      <g>
       <use style="stroke:#000000;stroke-width:0.5;" x="390.222321429" xlink:href="#m43e15b8a79" y="178.2"/>
      </g>
     </g>
     <g id="line2d_54">
      <g>
       <use style="stroke:#000000;stroke-width:0.5;" x="390.222321429" xlink:href="#med421cb203" y="15.3"/>
      </g>
     </g>
     <g id="text_23">
      <!-- −0.18 -->
      <g transform="translate(374.899665179 189.7984375)scale(0.1 -0.1)">
       <use xlink:href="#BitstreamVeraSans-Roman-2212"/>
       <use x="83.7890625" xlink:href="#BitstreamVeraSans-Roman-30"/>
       <use x="147.412109375" xlink:href="#BitstreamVeraSans-Roman-2e"/>
       <use x="179.19921875" xlink:href="#BitstreamVeraSans-Roman-31"/>
       <use x="242.822265625" xlink:href="#BitstreamVeraSans-Roman-38"/>
      </g>
     </g>
    </g>
    <g id="xtick_16">
     <g id="line2d_55">
      <g>
       <use style="stroke:#000000;stroke-width:0.5;" x="412.14375" xlink:href="#m43e15b8a79" y="178.2"/>
      </g>
     </g>
     <g id="line2d_56">
      <g>
       <use style="stroke:#000000;stroke-width:0.5;" x="412.14375" xlink:href="#med421cb203" y="15.3"/>
      </g>
     </g>
     <g id="text_24">
      <!-- −0.16 -->
      <g transform="translate(396.82109375 189.7984375)scale(0.1 -0.1)">
       <use xlink:href="#BitstreamVeraSans-Roman-2212"/>
       <use x="83.7890625" xlink:href="#BitstreamVeraSans-Roman-30"/>
       <use x="147.412109375" xlink:href="#BitstreamVeraSans-Roman-2e"/>
       <use x="179.19921875" xlink:href="#BitstreamVeraSans-Roman-31"/>
       <use x="242.822265625" xlink:href="#BitstreamVeraSans-Roman-36"/>
      </g>
     </g>
    </g>
    <g id="text_25">
     <!-- Y component -->
     <defs>
      <path d="M -0.203125 72.90625 
L 10.40625 72.90625 
L 30.609375 42.921875 
L 50.6875 72.90625 
L 61.28125 72.90625 
L 35.5 34.71875 
L 35.5 0 
L 25.59375 0 
L 25.59375 34.71875 
z
" id="BitstreamVeraSans-Roman-59"/>
     </defs>
     <g transform="translate(302.4890625 204.4765625)scale(0.1 -0.1)">
      <use xlink:href="#BitstreamVeraSans-Roman-59"/>
      <use x="61.083984375" xlink:href="#BitstreamVeraSans-Roman-20"/>
      <use x="92.87109375" xlink:href="#BitstreamVeraSans-Roman-63"/>
      <use x="147.8515625" xlink:href="#BitstreamVeraSans-Roman-6f"/>
      <use x="209.033203125" xlink:href="#BitstreamVeraSans-Roman-6d"/>
      <use x="306.4453125" xlink:href="#BitstreamVeraSans-Roman-70"/>
      <use x="369.921875" xlink:href="#BitstreamVeraSans-Roman-6f"/>
      <use x="431.103515625" xlink:href="#BitstreamVeraSans-Roman-6e"/>
      <use x="494.482421875" xlink:href="#BitstreamVeraSans-Roman-65"/>
      <use x="556.005859375" xlink:href="#BitstreamVeraSans-Roman-6e"/>
      <use x="619.384765625" xlink:href="#BitstreamVeraSans-Roman-74"/>
     </g>
    </g>
   </g>
   <g id="matplotlib.axis_4">
    <g id="ytick_7">
     <g id="line2d_57">
      <g>
       <use style="stroke:#000000;stroke-width:0.5;" x="258.69375" xlink:href="#m3d67a335ee" y="178.2"/>
      </g>
     </g>
     <g id="line2d_58">
      <g>
       <use style="stroke:#000000;stroke-width:0.5;" x="412.14375" xlink:href="#mfdee3420f2" y="178.2"/>
      </g>
     </g>
     <g id="text_26">
      <!-- 0.0 -->
      <g transform="translate(238.790625 180.959375)scale(0.1 -0.1)">
       <use xlink:href="#BitstreamVeraSans-Roman-30"/>
       <use x="63.623046875" xlink:href="#BitstreamVeraSans-Roman-2e"/>
       <use x="95.41015625" xlink:href="#BitstreamVeraSans-Roman-30"/>
      </g>
     </g>
    </g>
    <g id="ytick_8">
     <g id="line2d_59">
      <g>
       <use style="stroke:#000000;stroke-width:0.5;" x="258.69375" xlink:href="#m3d67a335ee" y="145.62"/>
      </g>
     </g>
     <g id="line2d_60">
      <g>
       <use style="stroke:#000000;stroke-width:0.5;" x="412.14375" xlink:href="#mfdee3420f2" y="145.62"/>
      </g>
     </g>
     <g id="text_27">
      <!-- 0.2 -->
      <g transform="translate(238.790625 148.379375)scale(0.1 -0.1)">
       <use xlink:href="#BitstreamVeraSans-Roman-30"/>
       <use x="63.623046875" xlink:href="#BitstreamVeraSans-Roman-2e"/>
       <use x="95.41015625" xlink:href="#BitstreamVeraSans-Roman-32"/>
      </g>
     </g>
    </g>
    <g id="ytick_9">
     <g id="line2d_61">
      <g>
       <use style="stroke:#000000;stroke-width:0.5;" x="258.69375" xlink:href="#m3d67a335ee" y="113.04"/>
      </g>
     </g>
     <g id="line2d_62">
      <g>
       <use style="stroke:#000000;stroke-width:0.5;" x="412.14375" xlink:href="#mfdee3420f2" y="113.04"/>
      </g>
     </g>
     <g id="text_28">
      <!-- 0.4 -->
      <g transform="translate(238.790625 115.799375)scale(0.1 -0.1)">
       <use xlink:href="#BitstreamVeraSans-Roman-30"/>
       <use x="63.623046875" xlink:href="#BitstreamVeraSans-Roman-2e"/>
       <use x="95.41015625" xlink:href="#BitstreamVeraSans-Roman-34"/>
      </g>
     </g>
    </g>
    <g id="ytick_10">
     <g id="line2d_63">
      <g>
       <use style="stroke:#000000;stroke-width:0.5;" x="258.69375" xlink:href="#m3d67a335ee" y="80.46"/>
      </g>
     </g>
     <g id="line2d_64">
      <g>
       <use style="stroke:#000000;stroke-width:0.5;" x="412.14375" xlink:href="#mfdee3420f2" y="80.46"/>
      </g>
     </g>
     <g id="text_29">
      <!-- 0.6 -->
      <g transform="translate(238.790625 83.219375)scale(0.1 -0.1)">
       <use xlink:href="#BitstreamVeraSans-Roman-30"/>
       <use x="63.623046875" xlink:href="#BitstreamVeraSans-Roman-2e"/>
       <use x="95.41015625" xlink:href="#BitstreamVeraSans-Roman-36"/>
      </g>
     </g>
    </g>
    <g id="ytick_11">
     <g id="line2d_65">
      <g>
       <use style="stroke:#000000;stroke-width:0.5;" x="258.69375" xlink:href="#m3d67a335ee" y="47.88"/>
      </g>
     </g>
     <g id="line2d_66">
      <g>
       <use style="stroke:#000000;stroke-width:0.5;" x="412.14375" xlink:href="#mfdee3420f2" y="47.88"/>
      </g>
     </g>
     <g id="text_30">
      <!-- 0.8 -->
      <g transform="translate(238.790625 50.639375)scale(0.1 -0.1)">
       <use xlink:href="#BitstreamVeraSans-Roman-30"/>
       <use x="63.623046875" xlink:href="#BitstreamVeraSans-Roman-2e"/>
       <use x="95.41015625" xlink:href="#BitstreamVeraSans-Roman-38"/>
      </g>
     </g>
    </g>
    <g id="ytick_12">
     <g id="line2d_67">
      <g>
       <use style="stroke:#000000;stroke-width:0.5;" x="258.69375" xlink:href="#m3d67a335ee" y="15.3"/>
      </g>
     </g>
     <g id="line2d_68">
      <g>
       <use style="stroke:#000000;stroke-width:0.5;" x="412.14375" xlink:href="#mfdee3420f2" y="15.3"/>
      </g>
     </g>
     <g id="text_31">
      <!-- 1.0 -->
      <g transform="translate(238.790625 18.059375)scale(0.1 -0.1)">
       <use xlink:href="#BitstreamVeraSans-Roman-31"/>
       <use x="63.623046875" xlink:href="#BitstreamVeraSans-Roman-2e"/>
       <use x="95.41015625" xlink:href="#BitstreamVeraSans-Roman-30"/>
      </g>
     </g>
    </g>
    <g id="text_32">
     <!-- Cumulative Distribution -->
     <g transform="translate(231.7109375 156.0453125)rotate(-90.0)scale(0.1 -0.1)">
      <use xlink:href="#BitstreamVeraSans-Roman-43"/>
      <use x="69.82421875" xlink:href="#BitstreamVeraSans-Roman-75"/>
      <use x="133.203125" xlink:href="#BitstreamVeraSans-Roman-6d"/>
      <use x="230.615234375" xlink:href="#BitstreamVeraSans-Roman-75"/>
      <use x="293.994140625" xlink:href="#BitstreamVeraSans-Roman-6c"/>
      <use x="321.77734375" xlink:href="#BitstreamVeraSans-Roman-61"/>
      <use x="383.056640625" xlink:href="#BitstreamVeraSans-Roman-74"/>
      <use x="422.265625" xlink:href="#BitstreamVeraSans-Roman-69"/>
      <use x="450.048828125" xlink:href="#BitstreamVeraSans-Roman-76"/>
      <use x="509.228515625" xlink:href="#BitstreamVeraSans-Roman-65"/>
      <use x="570.751953125" xlink:href="#BitstreamVeraSans-Roman-20"/>
      <use x="602.5390625" xlink:href="#BitstreamVeraSans-Roman-44"/>
      <use x="679.541015625" xlink:href="#BitstreamVeraSans-Roman-69"/>
      <use x="707.32421875" xlink:href="#BitstreamVeraSans-Roman-73"/>
      <use x="759.423828125" xlink:href="#BitstreamVeraSans-Roman-74"/>
      <use x="798.6328125" xlink:href="#BitstreamVeraSans-Roman-72"/>
      <use x="839.74609375" xlink:href="#BitstreamVeraSans-Roman-69"/>
      <use x="867.529296875" xlink:href="#BitstreamVeraSans-Roman-62"/>
      <use x="931.005859375" xlink:href="#BitstreamVeraSans-Roman-75"/>
      <use x="994.384765625" xlink:href="#BitstreamVeraSans-Roman-74"/>
      <use x="1033.59375" xlink:href="#BitstreamVeraSans-Roman-69"/>
      <use x="1061.37695312" xlink:href="#BitstreamVeraSans-Roman-6f"/>
      <use x="1122.55859375" xlink:href="#BitstreamVeraSans-Roman-6e"/>
     </g>
    </g>
   </g>
  </g>
  <g id="axes_3">
   <g id="patch_12">
    <path d="M 472.5 178.2 
L 625.95 178.2 
L 625.95 15.3 
L 472.5 15.3 
z
" style="fill:#ffffff;"/>
   </g>
   <g id="line2d_69">
    <path clip-path="url(#p7c63e6c931)" d="M 481.979848 178.2 
L 494.855925 178.00452 
L 498.400152 177.74388 
L 498.701807 177.67872 
L 502.843238 177.51582 
L 503.563328 177.35292 
L 506.636026 176.8968 
L 508.198545 176.47326 
L 508.211841 176.44068 
L 508.776889 176.27778 
L 509.022311 176.18004 
L 509.930335 176.01714 
L 512.150498 175.17006 
L 513.246068 174.942 
L 514.401476 174.19266 
L 515.208292 173.76912 
L 515.297141 173.60622 
L 515.714778 173.44332 
L 516.007394 173.11752 
L 516.891104 172.88946 
L 517.095089 172.59624 
L 517.85613 172.30302 
L 517.860904 172.27044 
L 518.188288 172.07496 
L 518.272391 171.97722 
L 518.666455 171.78174 
L 518.745292 171.58626 
L 519.037712 171.42336 
L 519.252657 171.13014 
L 520.066242 170.41338 
L 520.3583 170.25048 
L 520.58033 170.08758 
L 520.687413 169.98984 
L 521.320602 169.66404 
L 521.569851 169.33824 
L 521.891015 169.0776 
L 521.930665 169.01244 
L 522.247962 168.88212 
L 522.260131 168.81696 
L 522.501047 168.65406 
L 522.6833 168.49116 
L 522.876828 168.36084 
L 523.005396 168.19794 
L 523.407226 167.96988 
L 524.47656 166.89474 
L 524.640961 166.73184 
L 524.754209 166.56894 
L 524.925899 166.43862 
L 525.638747 165.78702 
L 526.852398 164.09286 
L 527.055667 163.96254 
L 527.172849 163.7019 
L 527.642287 163.11546 
L 527.953997 162.5616 
L 528.451559 161.81226 
L 528.549654 161.64936 
L 528.656145 161.45388 
L 528.752828 161.2584 
L 528.980649 160.80228 
L 529.153721 160.54164 
L 529.244288 160.37874 
L 529.341014 160.24842 
L 529.609615 159.89004 
L 530.13784 158.84748 
L 530.55755 158.42394 
L 531.097069 157.023 
L 531.297809 156.82752 
L 531.378767 156.5343 
L 531.474232 156.33882 
L 531.561204 156.07818 
L 531.753283 155.81754 
L 531.91621 155.394 
L 532.009746 155.16594 
L 532.168883 154.67724 
L 532.235198 154.44918 
L 532.390215 154.12338 
L 532.608486 153.89532 
L 533.371756 151.9731 
L 533.622543 151.71246 
L 533.941286 150.96312 
L 534.072143 150.80022 
L 534.874971 149.0409 
L 535.078044 148.84542 
L 535.240147 148.45446 
L 535.427612 148.09608 
L 535.511436 147.93318 
L 536.201022 146.62998 
L 536.345013 146.17386 
L 536.409633 146.01096 
L 536.686772 145.06614 
L 537.339932 143.43714 
L 537.476503 142.98102 
L 537.573121 142.81812 
L 537.873634 142.0362 
L 538.000337 141.84072 
L 538.20216 141.41718 
L 538.324422 140.99364 
L 538.622889 140.27688 
L 539.407075 138.48498 
L 539.504875 138.35466 
L 539.661592 137.70306 
L 539.725382 137.50758 
L 539.890729 137.18178 
L 540.129188 136.75824 
L 540.253079 136.46502 
L 540.407198 135.87858 
L 540.971201 134.28216 
L 541.139443 133.8912 
L 542.617674 129.03678 
L 542.829611 128.15712 
L 542.943341 127.701 
L 543.092574 127.24488 
L 543.211968 126.75618 
L 543.451524 125.87652 
L 543.558509 125.38782 
L 543.692364 125.02944 
L 544.018762 123.59592 
L 544.194829 123.27012 
L 544.283571 122.78142 
L 544.351231 122.58594 
L 544.74148 121.05468 
L 544.859891 120.82662 
L 545.2444 119.19762 
L 545.368955 118.70892 
L 545.565258 117.7641 
L 545.650046 117.56862 
L 547.282598 112.29066 
L 547.348765 112.12776 
L 547.674631 110.82456 
L 547.825598 110.40102 
L 547.925008 110.1078 
L 548.0468 109.71684 
L 548.41423 108.57654 
L 548.472283 108.34848 
L 549.27841 105.15564 
L 549.704634 104.14566 
L 549.868625 103.33116 
L 549.930934 103.1031 
L 550.233196 101.60442 
L 550.487131 100.92024 
L 550.625709 100.56186 
L 551.099151 98.7048 
L 551.248003 97.98804 
L 551.502997 96.97806 
L 551.592501 96.65226 
L 552.153028 94.59972 
L 552.240252 94.3065 
L 552.327297 93.9807 
L 552.43916 93.78522 
L 552.590302 93.39426 
L 552.709993 92.93814 
L 552.876258 92.25396 
L 553.092709 91.43946 
L 553.177788 91.17882 
L 553.301679 90.85302 
L 553.381808 90.59238 
L 553.524977 89.77788 
L 553.959688 87.9534 
L 554.15305 87.4647 
L 554.287885 87.20406 
L 554.463329 86.3244 
L 554.529985 86.12892 
L 554.68878 85.347 
L 554.774992 85.08636 
L 555.3342 83.03382 
L 556.540086 78.30972 
L 556.656413 78.0165 
L 560.778873 64.59354 
L 560.895288 64.43064 
L 561.047601 63.94194 
L 561.167626 63.45324 
L 561.50408 62.3781 
L 561.593302 62.0523 
L 561.671321 61.8894 
L 563.001087 57.654 
L 563.106363 57.26304 
L 563.597539 55.66662 
L 563.779362 55.0476 
L 564.750928 52.37604 
L 564.937704 51.85476 
L 565.102232 51.26832 
L 565.179666 51.04026 
L 565.365456 50.51898 
L 565.636251 50.03028 
L 565.916714 49.0203 
L 566.032652 48.56418 
L 566.249863 48.0429 
L 566.436102 47.61936 
L 566.645355 46.80486 
L 566.809087 46.47906 
L 566.951221 45.9252 
L 567.076739 45.50166 
L 568.658751 42.37398 
L 568.838199 41.72238 
L 569.441134 40.5495 
L 570.773093 37.22634 
L 570.88033 36.93312 
L 570.992904 36.70506 
L 571.305277 35.8254 
L 571.454306 35.4996 
L 571.612566 35.27154 
L 571.720724 35.07606 
L 571.830554 34.88058 
L 572.080515 34.26156 
L 572.292707 33.93576 
L 572.415265 33.7077 
L 572.519847 33.51222 
L 572.692942 33.08868 
L 572.84346 32.66514 
L 572.985852 32.30676 
L 573.369014 31.85064 
L 573.519586 31.39452 
L 573.664299 31.19904 
L 574.03729 30.58002 
L 574.167958 30.31938 
L 574.216891 30.22164 
L 574.514003 29.99358 
L 574.791199 29.57004 
L 575.103287 28.88586 
L 575.332754 28.72296 
L 575.846864 27.87588 
L 576.231253 27.32202 
L 576.333657 27.12654 
L 577.020493 26.14914 
L 577.394283 25.98624 
L 577.713141 25.69302 
L 577.813526 25.5627 
L 578.642218 24.71562 
L 578.80778 24.55272 
L 579.004636 24.12918 
L 579.306614 23.9337 
L 579.488163 23.70564 
L 579.620136 23.47758 
L 580.055782 22.9563 
L 580.319075 22.76082 
L 580.506244 22.4676 
L 580.923059 22.10922 
L 584.244322 19.73088 
L 584.468701 19.56798 
L 584.825851 19.33992 
L 585.029023 19.11186 
L 585.042417 19.07928 
L 585.481771 18.8838 
L 585.82029 18.68832 
L 586.244588 18.52542 
L 586.806187 18.26478 
L 587.466898 17.87382 
L 587.937104 17.7435 
L 588.390305 17.51544 
L 588.963935 17.31996 
L 589.878058 17.02674 
L 590.129598 16.83126 
L 590.189608 16.79868 
L 591.957893 16.6032 
L 592.605443 16.4403 
L 593.874513 16.1145 
L 593.879389 16.08192 
L 595.437855 15.82128 
L 600.601806 15.49548 
L 605.957024 15.36516 
L 618.792045 15.33258 
L 618.792045 15.33258 
" style="fill:none;stroke:#ff0000;stroke-linecap:square;"/>
   </g>
   <g id="line2d_70">
    <path clip-path="url(#p7c63e6c931)" d="M 514.4948 178.2 
L 514.4948 15.3 
" style="fill:none;stroke:#ff0000;stroke-linecap:square;"/>
   </g>
   <g id="line2d_71">
    <path clip-path="url(#p7c63e6c931)" d="M 584.733102 178.2 
L 584.733102 15.3 
" style="fill:none;stroke:#ff0000;stroke-linecap:square;"/>
   </g>
   <g id="line2d_72">
    <path clip-path="url(#p7c63e6c931)" d="M 489.782095 178.2 
L 494.647677 178.00452 
L 502.184791 177.58098 
L 503.828769 177.48324 
L 504.786217 177.32034 
L 505.259767 177.19002 
L 507.241073 177.02712 
L 507.894244 176.83164 
L 508.566015 176.60358 
L 510.857457 175.95198 
L 511.67555 175.72392 
L 511.879861 175.52844 
L 512.246832 175.36554 
L 513.426079 174.90942 
L 514.026862 174.74652 
L 514.65723 174.38814 
L 515.211534 174.22524 
L 515.715817 174.02976 
L 516.22656 173.6388 
L 516.753317 173.44332 
L 516.766459 173.41074 
L 517.20567 173.24784 
L 517.21878 173.18268 
L 517.53341 173.01978 
L 518.379146 172.43334 
L 518.540857 172.3356 
L 519.012641 172.10754 
L 519.255889 171.8469 
L 519.440885 171.71658 
L 519.536699 171.48852 
L 520.008382 171.3582 
L 520.34504 171.16272 
L 521.583488 170.08758 
L 521.82077 169.92468 
L 522.208812 169.63146 
L 522.611921 169.4034 
L 522.733543 169.2405 
L 522.999447 168.94728 
L 523.434488 168.65406 
L 523.675304 168.39342 
L 523.832659 168.16536 
L 524.056451 167.87214 
L 524.168194 167.70924 
L 524.871267 166.92732 
L 524.902203 166.82958 
L 525.111701 166.66668 
L 525.22929 166.40604 
L 526.09412 165.52638 
L 526.28604 165.10284 
L 526.661865 164.74446 
L 526.788321 164.41866 
L 527.018895 164.0277 
L 527.1881 163.57158 
L 527.557328 163.01772 
L 528.298624 161.81226 
L 528.476521 161.48646 
L 528.631578 161.32356 
L 528.729667 161.12808 
L 529.078126 160.54164 
L 529.180666 160.31358 
L 529.776928 159.40134 
L 529.876388 159.23844 
L 530.036273 158.71716 
L 531.238044 156.76236 
L 531.670883 156.33882 
L 531.792578 155.91528 
L 532.030593 155.29626 
L 532.113275 155.0682 
L 532.24745 154.87272 
L 532.3843 154.4166 
L 532.50516 154.22112 
L 532.592979 153.96048 
L 532.722597 153.73242 
L 533.87005 151.1586 
L 534.047723 150.86538 
L 534.682842 149.62734 
L 534.721444 149.43186 
L 534.890211 148.97574 
L 534.97279 148.78026 
L 535.08549 148.61736 
L 535.290889 148.03092 
L 536.007609 146.62998 
L 536.096685 146.46708 
L 536.253006 146.17386 
L 536.563944 145.48968 
L 536.746224 145.09872 
L 536.900873 144.61002 
L 537.084155 144.12132 
L 537.170107 143.76294 
L 537.351043 143.24166 
L 537.446953 143.07876 
L 537.655349 142.45974 
L 537.839356 141.97104 
L 537.905658 141.7104 
L 538.573603 140.0814 
L 538.864609 139.03884 
L 538.967433 138.64788 
L 539.116522 138.15918 
L 539.30907 137.57274 
L 540.241766 134.11926 
L 540.405046 133.63056 
L 540.465247 133.43508 
L 540.580954 133.14186 
L 541.138141 131.70834 
L 541.245893 131.41512 
L 541.382181 131.1219 
L 541.54967 130.76352 
L 542.357668 128.38518 
L 542.464032 128.1897 
L 542.678092 127.24488 
L 542.833489 126.98424 
L 542.965786 126.49554 
L 543.078492 126.13716 
L 543.258945 125.48556 
L 543.445385 124.67106 
L 543.733094 124.1172 
L 543.845909 123.6285 
L 543.976318 123.17238 
L 544.514752 121.05468 
L 544.614707 120.5334 
L 544.72117 120.2076 
L 544.853117 119.75148 
L 544.952493 119.45826 
L 545.959546 116.16768 
L 546.133255 115.6464 
L 546.260389 115.38576 
L 546.437427 114.57126 
L 546.58372 114.0174 
L 546.694069 113.65902 
L 546.841057 113.13774 
L 547.109153 112.16034 
L 547.814545 109.65168 
L 547.857398 109.42362 
L 548.023047 108.70686 
L 548.138218 108.34848 
L 548.46186 107.43624 
L 549.310669 104.79726 
L 549.649932 103.68954 
L 549.766522 103.36374 
L 549.875239 103.00536 
L 550.356621 101.21346 
L 550.421751 101.05056 
L 550.550706 100.46412 
L 550.612721 100.1709 
L 550.990766 98.83512 
L 551.11161 98.24868 
L 551.803494 95.70744 
L 551.902481 95.4468 
L 552.224768 94.3065 
L 552.322401 93.9807 
L 552.455861 93.58974 
L 552.619666 92.74266 
L 552.729131 92.1888 
L 552.812934 92.0259 
L 552.976317 91.30914 
L 553.244983 90.33174 
L 553.507901 89.28918 
L 553.621786 89.0937 
L 555.37342 82.4148 
L 555.530257 81.86094 
L 555.648576 81.4374 
L 555.773471 80.9487 
L 555.883544 80.72064 
L 556.38941 78.89616 
L 556.503094 78.40746 
L 556.69413 77.98392 
L 556.801044 77.49522 
L 556.888608 77.13684 
L 557.615261 74.62818 
L 557.732254 74.36754 
L 558.060032 73.65078 
L 558.2183 73.22724 
L 558.351394 72.70596 
L 558.472004 72.28242 
L 560.277539 66.48318 
L 560.441341 66.18996 
L 560.611573 65.44062 
L 560.927475 64.3329 
L 561.199467 62.99712 
L 561.409651 62.50842 
L 561.82063 61.53102 
L 561.918522 60.97716 
L 562.295793 59.9346 
L 562.438514 59.4459 
L 562.524153 59.25042 
L 565.967517 48.79224 
L 566.057041 48.62934 
L 566.241134 47.94516 
L 566.339772 47.81484 
L 566.43576 47.65194 
L 566.547471 47.32614 
L 567.018778 46.15326 
L 567.152326 45.72972 
L 567.215726 45.53424 
L 567.34507 45.01296 
L 567.495603 44.65458 
L 568.071013 43.28622 
L 568.180662 43.02558 
L 568.320191 42.6672 
L 568.443312 42.27624 
L 568.5405 42.04818 
L 569.369012 40.15854 
L 569.505825 39.8979 
L 569.633303 39.66984 
L 569.904418 38.9205 
L 570.013891 38.65986 
L 570.226434 38.23632 
L 570.607495 37.38924 
L 570.750473 37.03086 
L 570.959212 36.54216 
L 571.102402 36.21636 
L 571.443674 35.4996 
L 571.530691 35.36928 
L 571.651699 35.1738 
L 571.98919 34.45704 
L 572.094503 34.22898 
L 572.512285 33.18642 
L 572.639468 33.0561 
L 573.190721 32.0787 
L 573.258089 31.9158 
L 573.451325 31.59 
L 574.142364 30.2868 
L 574.317442 30.1239 
L 574.510288 29.86326 
L 574.587392 29.66778 
L 574.814313 29.34198 
L 575.703375 28.23426 
L 575.845015 28.07136 
L 576.312895 27.28944 
L 576.583363 27.12654 
L 576.814291 26.703 
L 577.107795 26.5401 
L 577.458523 26.14914 
L 577.59626 25.98624 
L 577.691535 25.79076 
L 578.19922 25.20432 
L 578.326333 24.97626 
L 578.663381 24.19434 
L 578.790736 23.99886 
L 578.97846 23.70564 
L 579.602192 23.24952 
L 579.759994 23.18436 
L 580.006438 22.92372 
L 580.13343 22.85856 
L 580.576948 22.56534 
L 581.046853 22.01148 
L 581.148731 21.78342 
L 581.635378 21.1644 
L 581.834519 20.90376 
L 582.212126 20.57796 
L 582.215492 20.54538 
L 582.895312 20.31732 
L 582.999236 20.25216 
L 583.04967 20.187 
L 583.821168 19.99152 
L 583.91305 19.89378 
L 584.464373 19.50282 
L 584.55903 19.3725 
L 585.545498 18.78606 
L 585.723104 18.68832 
L 586.002088 18.558 
L 586.616672 18.3951 
L 586.664163 18.2322 
L 588.924739 17.54802 
L 589.51939 17.38512 
L 590.671935 17.12448 
L 592.009536 16.96158 
L 592.126953 16.89642 
L 592.771962 16.79868 
L 593.848202 16.53804 
L 596.479633 16.08192 
L 599.10764 15.82128 
L 600.914382 15.69096 
L 607.110137 15.43032 
L 610.689201 15.36516 
L 614.433593 15.33258 
L 614.433593 15.33258 
" style="fill:none;stroke:#0000ff;stroke-linecap:square;"/>
   </g>
   <g id="line2d_73">
    <path clip-path="url(#p7c63e6c931)" d="M 515.443956 178.2 
L 515.443956 15.3 
" style="fill:none;stroke:#0000ff;stroke-dasharray:6.000000,6.000000;stroke-dashoffset:0.0;"/>
   </g>
   <g id="line2d_74">
    <path clip-path="url(#p7c63e6c931)" d="M 584.55903 178.2 
L 584.55903 15.3 
" style="fill:none;stroke:#0000ff;stroke-dasharray:6.000000,6.000000;stroke-dashoffset:0.0;"/>
   </g>
   <g id="patch_13">
    <path d="M 472.5 15.3 
L 625.95 15.3 
" style="fill:none;stroke:#000000;stroke-linecap:square;stroke-linejoin:miter;"/>
   </g>
   <g id="patch_14">
    <path d="M 625.95 178.2 
L 625.95 15.3 
" style="fill:none;stroke:#000000;stroke-linecap:square;stroke-linejoin:miter;"/>
   </g>
   <g id="patch_15">
    <path d="M 472.5 178.2 
L 625.95 178.2 
" style="fill:none;stroke:#000000;stroke-linecap:square;stroke-linejoin:miter;"/>
   </g>
   <g id="patch_16">
    <path d="M 472.5 178.2 
L 472.5 15.3 
" style="fill:none;stroke:#000000;stroke-linecap:square;stroke-linejoin:miter;"/>
   </g>
   <g id="matplotlib.axis_5">
    <g id="xtick_17">
     <g id="line2d_75">
      <g>
       <use style="stroke:#000000;stroke-width:0.5;" x="472.5" xlink:href="#m43e15b8a79" y="178.2"/>
      </g>
     </g>
     <g id="line2d_76">
      <g>
       <use style="stroke:#000000;stroke-width:0.5;" x="472.5" xlink:href="#med421cb203" y="15.3"/>
      </g>
     </g>
     <g id="text_33">
      <!-- 0.72 -->
      <defs>
       <path d="M 8.203125 72.90625 
L 55.078125 72.90625 
L 55.078125 68.703125 
L 28.609375 0 
L 18.3125 0 
L 43.21875 64.59375 
L 8.203125 64.59375 
z
" id="BitstreamVeraSans-Roman-37"/>
      </defs>
      <g transform="translate(461.3671875 189.7984375)scale(0.1 -0.1)">
       <use xlink:href="#BitstreamVeraSans-Roman-30"/>
       <use x="63.623046875" xlink:href="#BitstreamVeraSans-Roman-2e"/>
       <use x="95.41015625" xlink:href="#BitstreamVeraSans-Roman-37"/>
       <use x="159.033203125" xlink:href="#BitstreamVeraSans-Roman-32"/>
      </g>
     </g>
    </g>
    <g id="xtick_18">
     <g id="line2d_77">
      <g>
       <use style="stroke:#000000;stroke-width:0.5;" x="503.19" xlink:href="#m43e15b8a79" y="178.2"/>
      </g>
     </g>
     <g id="line2d_78">
      <g>
       <use style="stroke:#000000;stroke-width:0.5;" x="503.19" xlink:href="#med421cb203" y="15.3"/>
      </g>
     </g>
     <g id="text_34">
      <!-- 0.74 -->
      <g transform="translate(492.0571875 189.7984375)scale(0.1 -0.1)">
       <use xlink:href="#BitstreamVeraSans-Roman-30"/>
       <use x="63.623046875" xlink:href="#BitstreamVeraSans-Roman-2e"/>
       <use x="95.41015625" xlink:href="#BitstreamVeraSans-Roman-37"/>
       <use x="159.033203125" xlink:href="#BitstreamVeraSans-Roman-34"/>
      </g>
     </g>
    </g>
    <g id="xtick_19">
     <g id="line2d_79">
      <g>
       <use style="stroke:#000000;stroke-width:0.5;" x="533.88" xlink:href="#m43e15b8a79" y="178.2"/>
      </g>
     </g>
     <g id="line2d_80">
      <g>
       <use style="stroke:#000000;stroke-width:0.5;" x="533.88" xlink:href="#med421cb203" y="15.3"/>
      </g>
     </g>
     <g id="text_35">
      <!-- 0.76 -->
      <g transform="translate(522.7471875 189.7984375)scale(0.1 -0.1)">
       <use xlink:href="#BitstreamVeraSans-Roman-30"/>
       <use x="63.623046875" xlink:href="#BitstreamVeraSans-Roman-2e"/>
       <use x="95.41015625" xlink:href="#BitstreamVeraSans-Roman-37"/>
       <use x="159.033203125" xlink:href="#BitstreamVeraSans-Roman-36"/>
      </g>
     </g>
    </g>
    <g id="xtick_20">
     <g id="line2d_81">
      <g>
       <use style="stroke:#000000;stroke-width:0.5;" x="564.57" xlink:href="#m43e15b8a79" y="178.2"/>
      </g>
     </g>
     <g id="line2d_82">
      <g>
       <use style="stroke:#000000;stroke-width:0.5;" x="564.57" xlink:href="#med421cb203" y="15.3"/>
      </g>
     </g>
     <g id="text_36">
      <!-- 0.78 -->
      <g transform="translate(553.4371875 189.7984375)scale(0.1 -0.1)">
       <use xlink:href="#BitstreamVeraSans-Roman-30"/>
       <use x="63.623046875" xlink:href="#BitstreamVeraSans-Roman-2e"/>
       <use x="95.41015625" xlink:href="#BitstreamVeraSans-Roman-37"/>
       <use x="159.033203125" xlink:href="#BitstreamVeraSans-Roman-38"/>
      </g>
     </g>
    </g>
    <g id="xtick_21">
     <g id="line2d_83">
      <g>
       <use style="stroke:#000000;stroke-width:0.5;" x="595.26" xlink:href="#m43e15b8a79" y="178.2"/>
      </g>
     </g>
     <g id="line2d_84">
      <g>
       <use style="stroke:#000000;stroke-width:0.5;" x="595.26" xlink:href="#med421cb203" y="15.3"/>
      </g>
     </g>
     <g id="text_37">
      <!-- 0.80 -->
      <g transform="translate(584.1271875 189.7984375)scale(0.1 -0.1)">
       <use xlink:href="#BitstreamVeraSans-Roman-30"/>
       <use x="63.623046875" xlink:href="#BitstreamVeraSans-Roman-2e"/>
       <use x="95.41015625" xlink:href="#BitstreamVeraSans-Roman-38"/>
       <use x="159.033203125" xlink:href="#BitstreamVeraSans-Roman-30"/>
      </g>
     </g>
    </g>
    <g id="xtick_22">
     <g id="line2d_85">
      <g>
       <use style="stroke:#000000;stroke-width:0.5;" x="625.95" xlink:href="#m43e15b8a79" y="178.2"/>
      </g>
     </g>
     <g id="line2d_86">
      <g>
       <use style="stroke:#000000;stroke-width:0.5;" x="625.95" xlink:href="#med421cb203" y="15.3"/>
      </g>
     </g>
     <g id="text_38">
      <!-- 0.82 -->
      <g transform="translate(614.8171875 189.7984375)scale(0.1 -0.1)">
       <use xlink:href="#BitstreamVeraSans-Roman-30"/>
       <use x="63.623046875" xlink:href="#BitstreamVeraSans-Roman-2e"/>
       <use x="95.41015625" xlink:href="#BitstreamVeraSans-Roman-38"/>
       <use x="159.033203125" xlink:href="#BitstreamVeraSans-Roman-32"/>
      </g>
     </g>
    </g>
    <g id="text_39">
     <!-- Z component -->
     <defs>
      <path d="M 5.609375 72.90625 
L 62.890625 72.90625 
L 62.890625 65.375 
L 16.796875 8.296875 
L 64.015625 8.296875 
L 64.015625 0 
L 4.5 0 
L 4.5 7.515625 
L 50.59375 64.59375 
L 5.609375 64.59375 
z
" id="BitstreamVeraSans-Roman-5a"/>
     </defs>
     <g transform="translate(515.92421875 204.4765625)scale(0.1 -0.1)">
      <use xlink:href="#BitstreamVeraSans-Roman-5a"/>
      <use x="68.505859375" xlink:href="#BitstreamVeraSans-Roman-20"/>
      <use x="100.29296875" xlink:href="#BitstreamVeraSans-Roman-63"/>
      <use x="155.2734375" xlink:href="#BitstreamVeraSans-Roman-6f"/>
      <use x="216.455078125" xlink:href="#BitstreamVeraSans-Roman-6d"/>
      <use x="313.8671875" xlink:href="#BitstreamVeraSans-Roman-70"/>
      <use x="377.34375" xlink:href="#BitstreamVeraSans-Roman-6f"/>
      <use x="438.525390625" xlink:href="#BitstreamVeraSans-Roman-6e"/>
      <use x="501.904296875" xlink:href="#BitstreamVeraSans-Roman-65"/>
      <use x="563.427734375" xlink:href="#BitstreamVeraSans-Roman-6e"/>
      <use x="626.806640625" xlink:href="#BitstreamVeraSans-Roman-74"/>
     </g>
    </g>
   </g>
   <g id="matplotlib.axis_6">
    <g id="ytick_13">
     <g id="line2d_87">
      <g>
       <use style="stroke:#000000;stroke-width:0.5;" x="472.5" xlink:href="#m3d67a335ee" y="178.2"/>
      </g>
     </g>
     <g id="line2d_88">
      <g>
       <use style="stroke:#000000;stroke-width:0.5;" x="625.95" xlink:href="#mfdee3420f2" y="178.2"/>
      </g>
     </g>
     <g id="text_40">
      <!-- 0.0 -->
      <g transform="translate(452.596875 180.959375)scale(0.1 -0.1)">
       <use xlink:href="#BitstreamVeraSans-Roman-30"/>
       <use x="63.623046875" xlink:href="#BitstreamVeraSans-Roman-2e"/>
       <use x="95.41015625" xlink:href="#BitstreamVeraSans-Roman-30"/>
      </g>
     </g>
    </g>
    <g id="ytick_14">
     <g id="line2d_89">
      <g>
       <use style="stroke:#000000;stroke-width:0.5;" x="472.5" xlink:href="#m3d67a335ee" y="145.62"/>
      </g>
     </g>
     <g id="line2d_90">
      <g>
       <use style="stroke:#000000;stroke-width:0.5;" x="625.95" xlink:href="#mfdee3420f2" y="145.62"/>
      </g>
     </g>
     <g id="text_41">
      <!-- 0.2 -->
      <g transform="translate(452.596875 148.379375)scale(0.1 -0.1)">
       <use xlink:href="#BitstreamVeraSans-Roman-30"/>
       <use x="63.623046875" xlink:href="#BitstreamVeraSans-Roman-2e"/>
       <use x="95.41015625" xlink:href="#BitstreamVeraSans-Roman-32"/>
      </g>
     </g>
    </g>
    <g id="ytick_15">
     <g id="line2d_91">
      <g>
       <use style="stroke:#000000;stroke-width:0.5;" x="472.5" xlink:href="#m3d67a335ee" y="113.04"/>
      </g>
     </g>
     <g id="line2d_92">
      <g>
       <use style="stroke:#000000;stroke-width:0.5;" x="625.95" xlink:href="#mfdee3420f2" y="113.04"/>
      </g>
     </g>
     <g id="text_42">
      <!-- 0.4 -->
      <g transform="translate(452.596875 115.799375)scale(0.1 -0.1)">
       <use xlink:href="#BitstreamVeraSans-Roman-30"/>
       <use x="63.623046875" xlink:href="#BitstreamVeraSans-Roman-2e"/>
       <use x="95.41015625" xlink:href="#BitstreamVeraSans-Roman-34"/>
      </g>
     </g>
    </g>
    <g id="ytick_16">
     <g id="line2d_93">
      <g>
       <use style="stroke:#000000;stroke-width:0.5;" x="472.5" xlink:href="#m3d67a335ee" y="80.46"/>
      </g>
     </g>
     <g id="line2d_94">
      <g>
       <use style="stroke:#000000;stroke-width:0.5;" x="625.95" xlink:href="#mfdee3420f2" y="80.46"/>
      </g>
     </g>
     <g id="text_43">
      <!-- 0.6 -->
      <g transform="translate(452.596875 83.219375)scale(0.1 -0.1)">
       <use xlink:href="#BitstreamVeraSans-Roman-30"/>
       <use x="63.623046875" xlink:href="#BitstreamVeraSans-Roman-2e"/>
       <use x="95.41015625" xlink:href="#BitstreamVeraSans-Roman-36"/>
      </g>
     </g>
    </g>
    <g id="ytick_17">
     <g id="line2d_95">
      <g>
       <use style="stroke:#000000;stroke-width:0.5;" x="472.5" xlink:href="#m3d67a335ee" y="47.88"/>
      </g>
     </g>
     <g id="line2d_96">
      <g>
       <use style="stroke:#000000;stroke-width:0.5;" x="625.95" xlink:href="#mfdee3420f2" y="47.88"/>
      </g>
     </g>
     <g id="text_44">
      <!-- 0.8 -->
      <g transform="translate(452.596875 50.639375)scale(0.1 -0.1)">
       <use xlink:href="#BitstreamVeraSans-Roman-30"/>
       <use x="63.623046875" xlink:href="#BitstreamVeraSans-Roman-2e"/>
       <use x="95.41015625" xlink:href="#BitstreamVeraSans-Roman-38"/>
      </g>
     </g>
    </g>
    <g id="ytick_18">
     <g id="line2d_97">
      <g>
       <use style="stroke:#000000;stroke-width:0.5;" x="472.5" xlink:href="#m3d67a335ee" y="15.3"/>
      </g>
     </g>
     <g id="line2d_98">
      <g>
       <use style="stroke:#000000;stroke-width:0.5;" x="625.95" xlink:href="#mfdee3420f2" y="15.3"/>
      </g>
     </g>
     <g id="text_45">
      <!-- 1.0 -->
      <g transform="translate(452.596875 18.059375)scale(0.1 -0.1)">
       <use xlink:href="#BitstreamVeraSans-Roman-31"/>
       <use x="63.623046875" xlink:href="#BitstreamVeraSans-Roman-2e"/>
       <use x="95.41015625" xlink:href="#BitstreamVeraSans-Roman-30"/>
      </g>
     </g>
    </g>
    <g id="text_46">
     <!-- Cumulative Distribution -->
     <g transform="translate(445.5171875 156.0453125)rotate(-90.0)scale(0.1 -0.1)">
      <use xlink:href="#BitstreamVeraSans-Roman-43"/>
      <use x="69.82421875" xlink:href="#BitstreamVeraSans-Roman-75"/>
      <use x="133.203125" xlink:href="#BitstreamVeraSans-Roman-6d"/>
      <use x="230.615234375" xlink:href="#BitstreamVeraSans-Roman-75"/>
      <use x="293.994140625" xlink:href="#BitstreamVeraSans-Roman-6c"/>
      <use x="321.77734375" xlink:href="#BitstreamVeraSans-Roman-61"/>
      <use x="383.056640625" xlink:href="#BitstreamVeraSans-Roman-74"/>
      <use x="422.265625" xlink:href="#BitstreamVeraSans-Roman-69"/>
      <use x="450.048828125" xlink:href="#BitstreamVeraSans-Roman-76"/>
      <use x="509.228515625" xlink:href="#BitstreamVeraSans-Roman-65"/>
      <use x="570.751953125" xlink:href="#BitstreamVeraSans-Roman-20"/>
      <use x="602.5390625" xlink:href="#BitstreamVeraSans-Roman-44"/>
      <use x="679.541015625" xlink:href="#BitstreamVeraSans-Roman-69"/>
      <use x="707.32421875" xlink:href="#BitstreamVeraSans-Roman-73"/>
      <use x="759.423828125" xlink:href="#BitstreamVeraSans-Roman-74"/>
      <use x="798.6328125" xlink:href="#BitstreamVeraSans-Roman-72"/>
      <use x="839.74609375" xlink:href="#BitstreamVeraSans-Roman-69"/>
      <use x="867.529296875" xlink:href="#BitstreamVeraSans-Roman-62"/>
      <use x="931.005859375" xlink:href="#BitstreamVeraSans-Roman-75"/>
      <use x="994.384765625" xlink:href="#BitstreamVeraSans-Roman-74"/>
      <use x="1033.59375" xlink:href="#BitstreamVeraSans-Roman-69"/>
      <use x="1061.37695312" xlink:href="#BitstreamVeraSans-Roman-6f"/>
      <use x="1122.55859375" xlink:href="#BitstreamVeraSans-Roman-6e"/>
     </g>
    </g>
   </g>
  </g>
 </g>
 <defs>
  <clipPath id="p2fa43d7888">
   <rect height="162.9" width="153.45" x="44.8875" y="15.3"/>
  </clipPath>
  <clipPath id="p7c63e6c931">
   <rect height="162.9" width="153.45" x="472.5" y="15.3"/>
  </clipPath>
  <clipPath id="pdcab533dae">
   <rect height="162.9" width="153.45" x="258.69375" y="15.3"/>
  </clipPath>
 </defs>
</svg>
