<?xml version="1.0" encoding="utf-8" standalone="no"?>
<!DOCTYPE svg PUBLIC "-//W3C//DTD SVG 1.1//EN"
  "http://www.w3.org/Graphics/SVG/1.1/DTD/svg11.dtd">
<!-- Created with matplotlib (http://matplotlib.org/) -->
<svg height="360pt" version="1.1" viewBox="0 0 360 360" width="360pt" xmlns="http://www.w3.org/2000/svg" xmlns:xlink="http://www.w3.org/1999/xlink">
 <defs>
  <style type="text/css">
*{stroke-linecap:butt;stroke-linejoin:round;}
  </style>
 </defs>
 <g id="figure_1">
  <g id="patch_1">
   <path d="
M0 360
L360 360
L360 0
L0 0
z
" style="fill:#ffffff;"/>
  </g>
  <g id="axes_1">
   <g id="patch_2">
    <path d="
M45 315
L324 315
L324 36
L45 36
z
" style="fill:#ffffff;"/>
   </g>
   <g id="line2d_1">
    <path clip-path="url(#pd0c2820aef)" d="
M63.228 132.504
L63.693 84.3512
L64.158 89.2337
L65.088 103.63
L66.018 121.485
L66.483 126.033
L66.948 125.448
L67.413 119.729
L68.808 87.7543
L69.273 82.2585
L69.738 80.6687
L70.203 82.7042
L70.668 85.7455
L71.133 86.4998
L71.598 84.016
L72.063 78.2408
L72.528 70.9025
L72.993 73.5526
L73.923 118.836
L74.388 124.917
L74.853 111.246
L75.318 90.0146
L75.783 75.0319
L76.248 69.7583
L76.713 73.9437
L78.108 102.793
L78.573 108.68
L79.038 112.251
L79.503 113.506
L79.968 112.614
L80.433 109.656
L80.898 104.662
L81.828 89.0381
L82.293 81.7277
L82.758 78.463
L83.223 79.7747
L83.688 85.6058
L85.083 112.64
L85.548 115.99
L86.013 115.655
L86.478 111.943
L87.408 99.7796
L88.803 78.157
L89.268 74.5291
L89.733 77.3202
L90.198 86.9734
L91.593 137.584
L92.058 139.732
L92.523 129.354
L92.988 106.419
L93.918 49.7548
L94.383 37.2832
L94.848 39.0134
L95.313 54.8329
L96.243 103.406
L96.708 118.751
L97.173 125.532
L97.638 123.774
L98.103 114.008
L99.033 89.9588
L99.498 83.3175
L99.963 80.835
L100.428 81.8408
L100.893 84.8248
L101.358 88.9251
L102.288 100.087
L102.753 105.945
L103.218 109.321
L103.683 109.071
L104.148 105.108
L104.613 97.4634
L105.543 79.9982
L106.008 76.2027
L106.473 76.5951
L106.938 81.1424
L107.868 100.171
L108.798 116.798
L109.263 121.792
L109.728 124.415
L110.193 124.192
L110.658 120.76
L111.123 114.064
L112.518 82.4255
L112.983 77.9894
L113.448 79.2452
L113.913 86.1639
L114.843 104.606
L115.308 108.931
L115.773 108.986
L116.238 104.801
L117.168 89.4007
L117.633 85.216
L118.098 85.2433
L118.563 89.3727
L119.493 100.616
L119.958 103.016
L120.423 102.736
L120.888 99.751
L121.818 91.5772
L122.283 90.3492
L122.748 91.5765
L123.213 95.2876
L124.143 104.494
L124.608 106.224
L125.073 105.471
L125.538 102.235
L126.003 97.3803
L126.468 93.6971
L126.933 93.3905
L127.398 96.6825
L128.793 116.24
L129.258 117.496
L129.723 114.873
L130.188 108.372
L131.118 91.6889
L131.583 88.9264
L132.048 91.3537
L133.443 111.581
L133.908 112.669
L134.373 109.767
L134.838 102.876
L135.768 85.4667
L136.233 81.5887
L136.698 82.1189
L137.163 87.0007
L138.093 101.9
L138.558 105.75
L139.023 106.113
L139.488 103.099
L140.418 94.7295
L140.883 93.4743
L141.348 94.5625
L141.813 98.0215
L142.743 108.708
L143.208 111.692
L143.673 111.971
L144.138 109.517
L145.068 101.174
L145.533 98.9421
L145.998 98.6634
L146.463 100.282
L147.393 105.722
L147.858 106.587
L148.323 105.75
L148.788 103.211
L149.718 96.4317
L150.183 94.9251
L150.648 95.1479
L151.113 97.1009
L152.508 106.698
L152.973 109.014
L153.438 110.689
L154.368 112.697
L155.298 114.148
L156.228 115.181
L156.693 115.487
L157.158 115.543
L157.623 115.404
L158.088 115.013
L158.553 114.343
L159.018 113.227
L159.483 111.553
L159.948 109.377
L160.878 103.406
L161.343 100.393
L161.808 98.4406
L162.273 97.7707
L162.738 98.384
L163.203 100.086
L165.528 110.688
L165.993 111.358
L166.458 110.131
L166.923 106.866
L168.318 92.3574
L168.783 91.9397
L169.248 94.7022
L169.713 100.7
L171.573 136.272
L172.038 141.044
L172.503 143.582
L172.968 143.889
L173.433 141.909
L173.898 137.584
L174.363 130.916
L175.293 113.143
L175.758 106.726
L176.223 103.909
L176.688 104.718
L177.153 109.042
L177.618 114.929
L178.083 119.059
L178.548 119.979
L179.013 117.663
L179.478 112.112
L179.943 104.885
L180.408 99.5561
L180.873 98.1612
L181.338 100.812
L181.803 107.564
L182.733 127.205
L183.198 134.459
L183.663 138.951
L184.128 140.625
L184.593 139.76
L185.523 136.105
L185.988 134.989
L186.453 134.459
L186.918 134.514
L187.383 135.575
L187.848 138.031
L188.313 142.048
L189.708 157.755
L190.173 159.402
L190.638 158.342
L191.103 154.631
L192.033 144.224
L192.498 140.514
L192.963 138.17
L193.428 137.221
L193.893 138.031
L194.358 141.434
L194.823 147.907
L195.288 157.505
L196.683 195.951
L197.148 200.75
L197.613 198.462
L198.078 189.115
L199.008 162.75
L199.473 158.202
L199.938 161.829
L200.403 173.323
L201.798 217.797
L202.728 236.601
L203.193 242.069
L203.658 243.855
L204.123 241.177
L204.588 234.007
L205.518 209.817
L205.983 202.479
L206.448 203.707
L206.913 213.695
L207.378 232.416
L208.308 283.864
L208.773 296.14
L209.238 292.038
L209.703 272.23
L210.633 221.005
L211.098 205.493
L211.563 198.183
L212.028 199.076
L212.493 207.027
L213.888 243.13
L214.818 268.491
L215.283 278.061
L215.748 281.855
L216.213 279.288
L216.678 270.388
L217.608 245.863
L218.073 238.414
L218.538 235.485
L219.003 236.992
L219.468 242.293
L221.328 268.77
L221.793 274.35
L222.258 277.781
L222.723 277.698
L223.188 273.987
L223.653 266.621
L224.583 247.566
L225.048 242.098
L225.513 240.563
L225.978 242.934
L227.838 266.036
L228.303 268.016
L228.768 268.128
L229.233 267.068
L230.163 263.915
L231.093 259.981
L231.558 258.559
L232.023 258.279
L232.488 259.256
L233.883 265.31
L234.348 263.692
L234.813 259.088
L235.278 251.528
L236.208 232.36
L236.673 228.817
L237.138 232.249
L237.603 242.683
L238.533 274.433
L238.998 281.436
L239.463 278.032
L239.928 264.222
L240.858 224.241
L241.323 212.802
L241.788 209.677
L242.253 214.811
L243.183 240.395
L243.648 246.952
L244.113 245.055
L244.578 234.76
L245.973 182.559
L246.438 176.281
L246.903 177.871
L247.833 189.896
L248.298 191.487
L248.763 189.087
L249.228 182.587
L250.158 161.634
L250.623 155.161
L251.088 154.742
L251.553 160.434
L252.018 170.171
L252.483 177.565
L252.948 177.565
L253.413 169.585
L253.878 153.598
L255.273 81.9792
L255.738 74.2788
L256.203 79.7472
L256.668 98.1612
L257.598 144.838
L258.063 155.97
L258.528 156.723
L258.993 147.405
L259.923 117.552
L260.388 106.922
L260.853 100.198
L261.318 97.4079
L261.783 97.5753
L262.248 98.5518
L262.713 99.054
L263.178 98.9982
L263.643 98.4123
L264.108 98.0217
L264.573 99.0819
L265.038 102.151
L265.503 107.145
L266.433 119.644
L266.898 122.183
L267.363 120.677
L267.828 115.152
L269.223 89.3448
L269.688 86.8059
L270.153 88.5357
L270.618 94.3389
L271.548 108.205
L272.013 111.693
L272.478 112.502
L272.943 110.633
L274.338 99.6957
L274.803 97.4079
L275.268 96.0129
L275.733 95.6223
L276.198 96.4035
L276.663 98.4402
L278.058 108.568
L278.523 109.433
L278.988 107.954
L279.453 104.188
L280.383 93.753
L280.848 90.3213
L281.313 88.6194
L281.778 88.6752
L282.243 90.4329
L282.708 93.753
L283.173 98.3007
L284.103 110.744
L285.033 124.276
L285.498 126.117
L285.963 123.132
L286.428 115.376
L287.823 75.06
L288.288 68.9499
L288.753 69.6195
L289.218 77.013
L290.148 103.964
L290.613 111.609
L291.078 111.665
L291.543 104.662
L292.008 94.7853
L292.473 87.3081
L292.938 83.988
L293.403 84.7692
L293.868 89.6238
L294.798 103.713
L295.263 107.536
L295.728 108.428
L296.193 106.364
L297.123 98.4123
L297.588 95.9013
L298.053 94.869
L298.518 95.3154
L298.983 96.6825
L299.448 97.5753
L299.913 97.0452
L300.378 94.9248
L301.773 84.7971
L302.238 86.9454
L302.703 93.6972
L304.098 129.158
L304.563 130.609
L305.028 122.769
L306.423 77.4036
L306.888 73.7766
L307.353 78.0732
L307.818 90.3492
L308.748 123.299
L309.213 129.744
L309.678 126.647
L310.143 114.036
L311.073 77.013
L311.538 68.0292
L312.003 68.5035
L312.468 78.1848
L313.398 105.917
L313.863 112.502
L314.328 112.753
L314.793 106.643
L315.723 82.5651
L316.188 74.9763
L316.653 73.5813
L317.118 78.2406
L318.048 94.4784
L318.513 100.254
L318.978 103.853
L319.443 105.248
L319.908 104.885
L320.838 102.151
L321.768 98.3007
L322.698 93.8367
L322.698 93.8367" style="fill:none;stroke:#0000ff;stroke-linecap:square;"/>
   </g>
   <g id="line2d_2">
    <path clip-path="url(#pd0c2820aef)" d="
M63.228 132.504
L63.693 84.3512
L64.158 89.2337
L65.088 103.63
L66.018 121.485
L66.483 126.033
L66.948 125.448
L67.413 119.729
L68.808 87.7543
L69.273 82.2585
L69.738 80.6687
L70.203 82.7042
L70.668 85.7455
L71.133 86.4998
L71.598 84.016
L72.063 78.2408
L72.528 70.9025
L72.993 73.5526
L73.923 118.836
L74.388 124.917
L74.853 111.246
L75.318 90.0146
L75.783 75.0319
L76.248 69.7583
L76.713 73.9437
L78.108 102.793
L78.573 108.68
L79.038 112.251
L79.503 113.506
L79.968 112.614
L80.433 109.656
L80.898 104.662
L81.828 89.0381
L82.293 81.7277
L82.758 78.463
L83.223 79.7747
L83.688 85.6058
L85.083 112.64
L85.548 115.99
L86.013 115.655
L86.478 111.943
L87.408 99.7796
L88.803 78.157
L89.268 74.5291
L89.733 77.3202
L90.198 86.9734
L91.593 137.584
L92.058 139.732
L92.523 129.354
L92.988 106.419
L93.918 49.7548
L94.383 37.2832
L94.848 39.0134
L95.313 54.8329
L96.243 103.406
L96.708 118.751
L97.173 125.532
L97.638 123.774
L98.103 114.008
L99.033 89.9588
L99.498 83.3175
L99.963 80.835
L100.428 81.8408
L100.893 84.8248
L101.358 88.9251
L102.288 100.087
L102.753 105.945
L103.218 109.321
L103.683 109.071
L104.148 105.108
L104.613 97.4634
L105.543 79.9982
L106.008 76.2027
L106.473 76.5951
L106.938 81.1424
L107.868 100.171
L108.798 116.798
L109.263 121.792
L109.728 124.415
L110.193 124.192
L110.658 120.76
L111.123 114.064
L112.518 82.4255
L112.983 77.9894
L113.448 79.2452
L113.913 86.1639
L114.843 104.606
L115.308 108.931
L115.773 108.986
L116.238 104.801
L117.168 89.4007
L117.633 85.216
L118.098 85.2433
L118.563 89.3727
L119.493 100.616
L119.958 103.016
L120.423 102.736
L120.888 99.751
L121.818 91.5772
L122.283 90.3492
L122.748 91.5765
L123.213 95.2876
L124.143 104.494
L124.608 106.224
L125.073 105.471
L125.538 102.235
L126.003 97.3803
L126.468 93.6971
L126.933 93.3905
L127.398 96.6825
L128.793 116.24
L129.258 117.496
L129.723 114.873
L130.188 108.372
L131.118 91.6889
L131.583 88.9264
L132.048 91.3537
L133.443 111.581
L133.908 112.669
L134.373 109.767
L134.838 102.876
L135.768 85.4667
L136.233 81.5887
L136.698 82.1189
L137.163 87.0007
L138.093 101.9
L138.558 105.75
L139.023 106.113
L139.488 103.099
L140.418 94.7295
L140.883 93.4743
L141.348 94.5625
L141.813 98.0215
L142.743 108.708
L143.208 111.692
L143.673 111.971
L144.138 109.517
L145.068 101.174
L145.533 98.9421
L145.998 98.6634
L146.463 100.282
L147.393 105.722
L147.858 106.587
L148.323 105.75
L148.788 103.211
L149.718 96.4317
L150.183 94.9251
L150.648 95.1479
L151.113 97.1009
L152.508 106.698
L152.973 109.014
L153.438 110.689
L154.368 112.697
L155.298 114.148
L156.228 115.181
L156.693 115.487
L157.158 115.543
L157.623 115.404
L158.088 115.013
L158.553 114.343
L159.018 113.227
L159.483 111.553
L159.948 109.377
L160.878 103.406
L161.343 100.393
L161.808 98.4406
L162.273 97.7707
L162.738 98.384
L163.203 100.086
L165.528 110.688
L165.993 111.358
L166.458 110.131
L166.923 106.866
L168.318 92.3574
L168.783 91.9397
L169.248 94.7022
L169.713 100.7
L171.573 136.272
L172.038 141.044
L172.503 143.582
L172.968 143.889
L173.433 141.909
L173.898 137.584
L174.363 130.916
L175.293 113.143
L175.758 106.726
L176.223 103.909
L176.688 104.718
L177.153 109.042
L177.618 114.929
L178.083 119.059
L178.548 119.979
L179.013 117.663
L179.478 112.112
L179.943 104.885
L180.408 99.5561
L180.873 98.1612
L181.338 100.812
L181.803 107.564
L182.733 127.205
L183.198 134.459
L183.663 138.951
L184.128 140.625
L184.593 139.76
L185.523 136.105
L185.988 134.989
L186.453 134.459
L186.918 134.514
L187.383 135.575
L187.848 138.031
L188.313 142.048
L189.708 157.755
L190.173 159.402
L190.638 158.342
L191.103 154.631
L192.033 144.224
L192.498 140.514
L192.963 138.17
L193.428 137.221
L193.893 138.031
L194.358 141.434
L194.823 147.907
L195.288 157.505
L196.683 195.951
L197.148 200.75
L197.613 198.462
L198.078 189.115
L199.008 162.75
L199.473 158.202
L199.938 161.829
L200.403 173.323
L201.798 217.797
L202.728 236.601
L203.193 242.069
L203.658 243.855
L204.123 241.177
L204.588 234.007
L205.518 209.817
L205.983 202.479
L206.448 203.707
L206.913 213.695
L207.378 232.416
L208.308 283.864
L208.773 296.14
L209.238 292.038
L209.703 272.23
L210.633 221.005
L211.098 205.493
L211.563 198.183
L212.028 199.076
L212.493 207.027
L213.888 243.13
L214.818 268.491
L215.283 278.061
L215.748 281.855
L216.213 279.288
L216.678 270.388
L217.608 245.863
L218.073 238.414
L218.538 235.485
L219.003 236.992
L219.468 242.293
L221.328 268.77
L221.793 274.35
L222.258 277.781
L222.723 277.698
L223.188 273.987
L223.653 266.621
L224.583 247.566
L225.048 242.098
L225.513 240.563
L225.978 242.934
L227.838 266.036
L228.303 268.016
L228.768 268.128
L229.233 267.068
L230.163 263.915
L231.093 259.981
L231.558 258.559
L232.023 258.279
L232.488 259.256
L233.883 265.31
L234.348 263.692
L234.813 259.088
L235.278 251.528
L236.208 232.36
L236.673 228.817
L237.138 232.249
L237.603 242.683
L238.533 274.433
L238.998 281.436
L239.463 278.032
L239.928 264.222
L240.858 224.241
L241.323 212.802
L241.788 209.677
L242.253 214.811
L243.183 240.395
L243.648 246.952
L244.113 245.055
L244.578 234.76
L245.973 182.559
L246.438 176.281
L246.903 177.871
L247.833 189.896
L248.298 191.487
L248.763 189.087
L249.228 182.587
L250.158 161.634
L250.623 155.161
L251.088 154.742
L251.553 160.434
L252.018 170.171
L252.483 177.565
L252.948 177.565
L253.413 169.585
L253.878 153.598
L255.273 81.9792
L255.738 74.2788
L256.203 79.7472
L256.668 98.1612
L257.598 144.838
L258.063 155.97
L258.528 156.723
L258.993 147.405
L259.923 117.552
L260.388 106.922
L260.853 100.198
L261.318 97.4079
L261.783 97.5753
L262.248 98.5518
L262.713 99.054
L263.178 98.9982
L263.643 98.4123
L264.108 98.0217
L264.573 99.0819
L265.038 102.151
L265.503 107.145
L266.433 119.644
L266.898 122.183
L267.363 120.677
L267.828 115.152
L269.223 89.3448
L269.688 86.8059
L270.153 88.5357
L270.618 94.3389
L271.548 108.205
L272.013 111.693
L272.478 112.502
L272.943 110.633
L274.338 99.6957
L274.803 97.4079
L275.268 96.0129
L275.733 95.6223
L276.198 96.4035
L276.663 98.4402
L278.058 108.568
L278.523 109.433
L278.988 107.954
L279.453 104.188
L280.383 93.753
L280.848 90.3213
L281.313 88.6194
L281.778 88.6752
L282.243 90.4329
L282.708 93.753
L283.173 98.3007
L284.103 110.744
L285.033 124.276
L285.498 126.117
L285.963 123.132
L286.428 115.376
L287.823 75.06
L288.288 68.9499
L288.753 69.6195
L289.218 77.013
L290.148 103.964
L290.613 111.609
L291.078 111.665
L291.543 104.662
L292.008 94.7853
L292.473 87.3081
L292.938 83.988
L293.403 84.7692
L293.868 89.6238
L294.798 103.713
L295.263 107.536
L295.728 108.428
L296.193 106.364
L297.123 98.4123
L297.588 95.9013
L298.053 94.869
L298.518 95.3154
L298.983 96.6825
L299.448 97.5753
L299.913 97.0452
L300.378 94.9248
L301.773 84.7971
L302.238 86.9454
L302.703 93.6972
L304.098 129.158
L304.563 130.609
L305.028 122.769
L306.423 77.4036
L306.888 73.7766
L307.353 78.0732
L307.818 90.3492
L308.748 123.299
L309.213 129.744
L309.678 126.647
L310.143 114.036
L311.073 77.013
L311.538 68.0292
L312.003 68.5035
L312.468 78.1848
L313.398 105.917
L313.863 112.502
L314.328 112.753
L314.793 106.643
L315.723 82.5651
L316.188 74.9763
L316.653 73.5813
L317.118 78.2406
L318.048 94.4784
L318.513 100.254
L318.978 103.853
L319.443 105.248
L319.908 104.885
L320.838 102.151
L321.768 98.3007
L322.698 93.8367
L322.698 93.8367" style="fill:none;stroke:#0000ff;stroke-dasharray:6.000000,6.000000;stroke-dashoffset:0.0;"/>
   </g>
   <g id="patch_3">
    <path d="
M45 36
L324 36" style="fill:none;stroke:#000000;stroke-linecap:square;stroke-linejoin:miter;"/>
   </g>
   <g id="patch_4">
    <path d="
M324 315
L324 36" style="fill:none;stroke:#000000;stroke-linecap:square;stroke-linejoin:miter;"/>
   </g>
   <g id="patch_5">
    <path d="
M45 315
L324 315" style="fill:none;stroke:#000000;stroke-linecap:square;stroke-linejoin:miter;"/>
   </g>
   <g id="patch_6">
    <path d="
M45 315
L45 36" style="fill:none;stroke:#000000;stroke-linecap:square;stroke-linejoin:miter;"/>
   </g>
   <g id="matplotlib.axis_1">
    <g id="xtick_1">
     <g id="line2d_3">
      <defs>
       <path d="
M0 0
L0 -4" id="m93b0483c22" style="stroke:#000000;stroke-width:0.5;"/>
      </defs>
      <g>
       <use style="stroke:#000000;stroke-width:0.5;" x="45.0" xlink:href="#m93b0483c22" y="315.0"/>
      </g>
     </g>
     <g id="line2d_4">
      <defs>
       <path d="
M0 0
L0 4" id="m741efc42ff" style="stroke:#000000;stroke-width:0.5;"/>
      </defs>
      <g>
       <use style="stroke:#000000;stroke-width:0.5;" x="45.0" xlink:href="#m741efc42ff" y="36.0"/>
      </g>
     </g>
     <g id="text_1">
      <!-- 100 -->
      <defs>
       <path d="
M31.7812 66.4062
Q24.1719 66.4062 20.3281 58.9062
Q16.5 51.4219 16.5 36.375
Q16.5 21.3906 20.3281 13.8906
Q24.1719 6.39062 31.7812 6.39062
Q39.4531 6.39062 43.2812 13.8906
Q47.125 21.3906 47.125 36.375
Q47.125 51.4219 43.2812 58.9062
Q39.4531 66.4062 31.7812 66.4062
M31.7812 74.2188
Q44.0469 74.2188 50.5156 64.5156
Q56.9844 54.8281 56.9844 36.375
Q56.9844 17.9688 50.5156 8.26562
Q44.0469 -1.42188 31.7812 -1.42188
Q19.5312 -1.42188 13.0625 8.26562
Q6.59375 17.9688 6.59375 36.375
Q6.59375 54.8281 13.0625 64.5156
Q19.5312 74.2188 31.7812 74.2188" id="BitstreamVeraSans-Roman-30"/>
       <path d="
M12.4062 8.29688
L28.5156 8.29688
L28.5156 63.9219
L10.9844 60.4062
L10.9844 69.3906
L28.4219 72.9062
L38.2812 72.9062
L38.2812 8.29688
L54.3906 8.29688
L54.3906 0
L12.4062 0
z
" id="BitstreamVeraSans-Roman-31"/>
      </defs>
      <g transform="translate(36.3375 326.5984375)scale(0.1 -0.1)">
       <use xlink:href="#BitstreamVeraSans-Roman-31"/>
       <use x="63.623046875" xlink:href="#BitstreamVeraSans-Roman-30"/>
       <use x="127.24609375" xlink:href="#BitstreamVeraSans-Roman-30"/>
      </g>
     </g>
    </g>
    <g id="xtick_2">
     <g id="line2d_5">
      <g>
       <use style="stroke:#000000;stroke-width:0.5;" x="91.5" xlink:href="#m93b0483c22" y="315.0"/>
      </g>
     </g>
     <g id="line2d_6">
      <g>
       <use style="stroke:#000000;stroke-width:0.5;" x="91.5" xlink:href="#m741efc42ff" y="36.0"/>
      </g>
     </g>
     <g id="text_2">
      <!-- 200 -->
      <defs>
       <path d="
M19.1875 8.29688
L53.6094 8.29688
L53.6094 0
L7.32812 0
L7.32812 8.29688
Q12.9375 14.1094 22.625 23.8906
Q32.3281 33.6875 34.8125 36.5312
Q39.5469 41.8438 41.4219 45.5312
Q43.3125 49.2188 43.3125 52.7812
Q43.3125 58.5938 39.2344 62.25
Q35.1562 65.9219 28.6094 65.9219
Q23.9688 65.9219 18.8125 64.3125
Q13.6719 62.7031 7.8125 59.4219
L7.8125 69.3906
Q13.7656 71.7812 18.9375 73
Q24.125 74.2188 28.4219 74.2188
Q39.75 74.2188 46.4844 68.5469
Q53.2188 62.8906 53.2188 53.4219
Q53.2188 48.9219 51.5312 44.8906
Q49.8594 40.875 45.4062 35.4062
Q44.1875 33.9844 37.6406 27.2188
Q31.1094 20.4531 19.1875 8.29688" id="BitstreamVeraSans-Roman-32"/>
      </defs>
      <g transform="translate(82.6546875 326.5984375)scale(0.1 -0.1)">
       <use xlink:href="#BitstreamVeraSans-Roman-32"/>
       <use x="63.623046875" xlink:href="#BitstreamVeraSans-Roman-30"/>
       <use x="127.24609375" xlink:href="#BitstreamVeraSans-Roman-30"/>
      </g>
     </g>
    </g>
    <g id="xtick_3">
     <g id="line2d_7">
      <g>
       <use style="stroke:#000000;stroke-width:0.5;" x="138.0" xlink:href="#m93b0483c22" y="315.0"/>
      </g>
     </g>
     <g id="line2d_8">
      <g>
       <use style="stroke:#000000;stroke-width:0.5;" x="138.0" xlink:href="#m741efc42ff" y="36.0"/>
      </g>
     </g>
     <g id="text_3">
      <!-- 300 -->
      <defs>
       <path d="
M40.5781 39.3125
Q47.6562 37.7969 51.625 33
Q55.6094 28.2188 55.6094 21.1875
Q55.6094 10.4062 48.1875 4.48438
Q40.7656 -1.42188 27.0938 -1.42188
Q22.5156 -1.42188 17.6562 -0.515625
Q12.7969 0.390625 7.625 2.20312
L7.625 11.7188
Q11.7188 9.32812 16.5938 8.10938
Q21.4844 6.89062 26.8125 6.89062
Q36.0781 6.89062 40.9375 10.5469
Q45.7969 14.2031 45.7969 21.1875
Q45.7969 27.6406 41.2812 31.2656
Q36.7656 34.9062 28.7188 34.9062
L20.2188 34.9062
L20.2188 43.0156
L29.1094 43.0156
Q36.375 43.0156 40.2344 45.9219
Q44.0938 48.8281 44.0938 54.2969
Q44.0938 59.9062 40.1094 62.9062
Q36.1406 65.9219 28.7188 65.9219
Q24.6562 65.9219 20.0156 65.0312
Q15.375 64.1562 9.8125 62.3125
L9.8125 71.0938
Q15.4375 72.6562 20.3438 73.4375
Q25.25 74.2188 29.5938 74.2188
Q40.8281 74.2188 47.3594 69.1094
Q53.9062 64.0156 53.9062 55.3281
Q53.9062 49.2656 50.4375 45.0938
Q46.9688 40.9219 40.5781 39.3125" id="BitstreamVeraSans-Roman-33"/>
      </defs>
      <g transform="translate(129.16953125 326.5984375)scale(0.1 -0.1)">
       <use xlink:href="#BitstreamVeraSans-Roman-33"/>
       <use x="63.623046875" xlink:href="#BitstreamVeraSans-Roman-30"/>
       <use x="127.24609375" xlink:href="#BitstreamVeraSans-Roman-30"/>
      </g>
     </g>
    </g>
    <g id="xtick_4">
     <g id="line2d_9">
      <g>
       <use style="stroke:#000000;stroke-width:0.5;" x="184.5" xlink:href="#m93b0483c22" y="315.0"/>
      </g>
     </g>
     <g id="line2d_10">
      <g>
       <use style="stroke:#000000;stroke-width:0.5;" x="184.5" xlink:href="#m741efc42ff" y="36.0"/>
      </g>
     </g>
     <g id="text_4">
      <!-- 400 -->
      <defs>
       <path d="
M37.7969 64.3125
L12.8906 25.3906
L37.7969 25.3906
z

M35.2031 72.9062
L47.6094 72.9062
L47.6094 25.3906
L58.0156 25.3906
L58.0156 17.1875
L47.6094 17.1875
L47.6094 0
L37.7969 0
L37.7969 17.1875
L4.89062 17.1875
L4.89062 26.7031
z
" id="BitstreamVeraSans-Roman-34"/>
      </defs>
      <g transform="translate(175.5328125 326.5984375)scale(0.1 -0.1)">
       <use xlink:href="#BitstreamVeraSans-Roman-34"/>
       <use x="63.623046875" xlink:href="#BitstreamVeraSans-Roman-30"/>
       <use x="127.24609375" xlink:href="#BitstreamVeraSans-Roman-30"/>
      </g>
     </g>
    </g>
    <g id="xtick_5">
     <g id="line2d_11">
      <g>
       <use style="stroke:#000000;stroke-width:0.5;" x="231.0" xlink:href="#m93b0483c22" y="315.0"/>
      </g>
     </g>
     <g id="line2d_12">
      <g>
       <use style="stroke:#000000;stroke-width:0.5;" x="231.0" xlink:href="#m741efc42ff" y="36.0"/>
      </g>
     </g>
     <g id="text_5">
      <!-- 500 -->
      <defs>
       <path d="
M10.7969 72.9062
L49.5156 72.9062
L49.5156 64.5938
L19.8281 64.5938
L19.8281 46.7344
Q21.9688 47.4688 24.1094 47.8281
Q26.2656 48.1875 28.4219 48.1875
Q40.625 48.1875 47.75 41.5
Q54.8906 34.8125 54.8906 23.3906
Q54.8906 11.625 47.5625 5.09375
Q40.2344 -1.42188 26.9062 -1.42188
Q22.3125 -1.42188 17.5469 -0.640625
Q12.7969 0.140625 7.71875 1.70312
L7.71875 11.625
Q12.1094 9.23438 16.7969 8.0625
Q21.4844 6.89062 26.7031 6.89062
Q35.1562 6.89062 40.0781 11.3281
Q45.0156 15.7656 45.0156 23.3906
Q45.0156 31 40.0781 35.4375
Q35.1562 39.8906 26.7031 39.8906
Q22.75 39.8906 18.8125 39.0156
Q14.8906 38.1406 10.7969 36.2812
z
" id="BitstreamVeraSans-Roman-35"/>
      </defs>
      <g transform="translate(222.17421875 326.5984375)scale(0.1 -0.1)">
       <use xlink:href="#BitstreamVeraSans-Roman-35"/>
       <use x="63.623046875" xlink:href="#BitstreamVeraSans-Roman-30"/>
       <use x="127.24609375" xlink:href="#BitstreamVeraSans-Roman-30"/>
      </g>
     </g>
    </g>
    <g id="xtick_6">
     <g id="line2d_13">
      <g>
       <use style="stroke:#000000;stroke-width:0.5;" x="277.5" xlink:href="#m93b0483c22" y="315.0"/>
      </g>
     </g>
     <g id="line2d_14">
      <g>
       <use style="stroke:#000000;stroke-width:0.5;" x="277.5" xlink:href="#m741efc42ff" y="36.0"/>
      </g>
     </g>
     <g id="text_6">
      <!-- 600 -->
      <defs>
       <path d="
M33.0156 40.375
Q26.375 40.375 22.4844 35.8281
Q18.6094 31.2969 18.6094 23.3906
Q18.6094 15.5312 22.4844 10.9531
Q26.375 6.39062 33.0156 6.39062
Q39.6562 6.39062 43.5312 10.9531
Q47.4062 15.5312 47.4062 23.3906
Q47.4062 31.2969 43.5312 35.8281
Q39.6562 40.375 33.0156 40.375
M52.5938 71.2969
L52.5938 62.3125
Q48.875 64.0625 45.0938 64.9844
Q41.3125 65.9219 37.5938 65.9219
Q27.8281 65.9219 22.6719 59.3281
Q17.5312 52.7344 16.7969 39.4062
Q19.6719 43.6562 24.0156 45.9219
Q28.375 48.1875 33.5938 48.1875
Q44.5781 48.1875 50.9531 41.5156
Q57.3281 34.8594 57.3281 23.3906
Q57.3281 12.1562 50.6875 5.35938
Q44.0469 -1.42188 33.0156 -1.42188
Q20.3594 -1.42188 13.6719 8.26562
Q6.98438 17.9688 6.98438 36.375
Q6.98438 53.6562 15.1875 63.9375
Q23.3906 74.2188 37.2031 74.2188
Q40.9219 74.2188 44.7031 73.4844
Q48.4844 72.75 52.5938 71.2969" id="BitstreamVeraSans-Roman-36"/>
      </defs>
      <g transform="translate(268.6375 326.5984375)scale(0.1 -0.1)">
       <use xlink:href="#BitstreamVeraSans-Roman-36"/>
       <use x="63.623046875" xlink:href="#BitstreamVeraSans-Roman-30"/>
       <use x="127.24609375" xlink:href="#BitstreamVeraSans-Roman-30"/>
      </g>
     </g>
    </g>
    <g id="xtick_7">
     <g id="line2d_15">
      <g>
       <use style="stroke:#000000;stroke-width:0.5;" x="324.0" xlink:href="#m93b0483c22" y="315.0"/>
      </g>
     </g>
     <g id="line2d_16">
      <g>
       <use style="stroke:#000000;stroke-width:0.5;" x="324.0" xlink:href="#m741efc42ff" y="36.0"/>
      </g>
     </g>
     <g id="text_7">
      <!-- 700 -->
      <defs>
       <path d="
M8.20312 72.9062
L55.0781 72.9062
L55.0781 68.7031
L28.6094 0
L18.3125 0
L43.2188 64.5938
L8.20312 64.5938
z
" id="BitstreamVeraSans-Roman-37"/>
      </defs>
      <g transform="translate(315.1984375 326.5984375)scale(0.1 -0.1)">
       <use xlink:href="#BitstreamVeraSans-Roman-37"/>
       <use x="63.623046875" xlink:href="#BitstreamVeraSans-Roman-30"/>
       <use x="127.24609375" xlink:href="#BitstreamVeraSans-Roman-30"/>
      </g>
     </g>
    </g>
    <g id="text_8">
     <!-- Temperature C -->
     <defs>
      <path id="BitstreamVeraSans-Roman-20"/>
      <path d="
M41.1094 46.2969
Q39.5938 47.1719 37.8125 47.5781
Q36.0312 48 33.8906 48
Q26.2656 48 22.1875 43.0469
Q18.1094 38.0938 18.1094 28.8125
L18.1094 0
L9.07812 0
L9.07812 54.6875
L18.1094 54.6875
L18.1094 46.1875
Q20.9531 51.1719 25.4844 53.5781
Q30.0312 56 36.5312 56
Q37.4531 56 38.5781 55.875
Q39.7031 55.7656 41.0625 55.5156
z
" id="BitstreamVeraSans-Roman-72"/>
      <path d="
M52 44.1875
Q55.375 50.25 60.0625 53.125
Q64.75 56 71.0938 56
Q79.6406 56 84.2812 50.0156
Q88.9219 44.0469 88.9219 33.0156
L88.9219 0
L79.8906 0
L79.8906 32.7188
Q79.8906 40.5781 77.0938 44.375
Q74.3125 48.1875 68.6094 48.1875
Q61.625 48.1875 57.5625 43.5469
Q53.5156 38.9219 53.5156 30.9062
L53.5156 0
L44.4844 0
L44.4844 32.7188
Q44.4844 40.625 41.7031 44.4062
Q38.9219 48.1875 33.1094 48.1875
Q26.2188 48.1875 22.1562 43.5312
Q18.1094 38.875 18.1094 30.9062
L18.1094 0
L9.07812 0
L9.07812 54.6875
L18.1094 54.6875
L18.1094 46.1875
Q21.1875 51.2188 25.4844 53.6094
Q29.7812 56 35.6875 56
Q41.6562 56 45.8281 52.9688
Q50 49.9531 52 44.1875" id="BitstreamVeraSans-Roman-6d"/>
      <path d="
M-0.296875 72.9062
L61.375 72.9062
L61.375 64.5938
L35.5 64.5938
L35.5 0
L25.5938 0
L25.5938 64.5938
L-0.296875 64.5938
z
" id="BitstreamVeraSans-Roman-54"/>
      <path d="
M56.2031 29.5938
L56.2031 25.2031
L14.8906 25.2031
Q15.4844 15.9219 20.4844 11.0625
Q25.4844 6.20312 34.4219 6.20312
Q39.5938 6.20312 44.4531 7.46875
Q49.3125 8.73438 54.1094 11.2812
L54.1094 2.78125
Q49.2656 0.734375 44.1875 -0.34375
Q39.1094 -1.42188 33.8906 -1.42188
Q20.7969 -1.42188 13.1562 6.1875
Q5.51562 13.8125 5.51562 26.8125
Q5.51562 40.2344 12.7656 48.1094
Q20.0156 56 32.3281 56
Q43.3594 56 49.7812 48.8906
Q56.2031 41.7969 56.2031 29.5938
M47.2188 32.2344
Q47.125 39.5938 43.0938 43.9844
Q39.0625 48.3906 32.4219 48.3906
Q24.9062 48.3906 20.3906 44.1406
Q15.875 39.8906 15.1875 32.1719
z
" id="BitstreamVeraSans-Roman-65"/>
      <path d="
M64.4062 67.2812
L64.4062 56.8906
Q59.4219 61.5312 53.7812 63.8125
Q48.1406 66.1094 41.7969 66.1094
Q29.2969 66.1094 22.6562 58.4688
Q16.0156 50.8281 16.0156 36.375
Q16.0156 21.9688 22.6562 14.3281
Q29.2969 6.6875 41.7969 6.6875
Q48.1406 6.6875 53.7812 8.98438
Q59.4219 11.2812 64.4062 15.9219
L64.4062 5.60938
Q59.2344 2.09375 53.4375 0.328125
Q47.6562 -1.42188 41.2188 -1.42188
Q24.6562 -1.42188 15.125 8.70312
Q5.60938 18.8438 5.60938 36.375
Q5.60938 53.9531 15.125 64.0781
Q24.6562 74.2188 41.2188 74.2188
Q47.75 74.2188 53.5312 72.4844
Q59.3281 70.75 64.4062 67.2812" id="BitstreamVeraSans-Roman-43"/>
      <path d="
M18.3125 70.2188
L18.3125 54.6875
L36.8125 54.6875
L36.8125 47.7031
L18.3125 47.7031
L18.3125 18.0156
Q18.3125 11.3281 20.1406 9.42188
Q21.9688 7.51562 27.5938 7.51562
L36.8125 7.51562
L36.8125 0
L27.5938 0
Q17.1875 0 13.2344 3.875
Q9.28125 7.76562 9.28125 18.0156
L9.28125 47.7031
L2.6875 47.7031
L2.6875 54.6875
L9.28125 54.6875
L9.28125 70.2188
z
" id="BitstreamVeraSans-Roman-74"/>
      <path d="
M8.5 21.5781
L8.5 54.6875
L17.4844 54.6875
L17.4844 21.9219
Q17.4844 14.1562 20.5 10.2656
Q23.5312 6.39062 29.5938 6.39062
Q36.8594 6.39062 41.0781 11.0312
Q45.3125 15.6719 45.3125 23.6875
L45.3125 54.6875
L54.2969 54.6875
L54.2969 0
L45.3125 0
L45.3125 8.40625
Q42.0469 3.42188 37.7188 1
Q33.4062 -1.42188 27.6875 -1.42188
Q18.2656 -1.42188 13.375 4.4375
Q8.5 10.2969 8.5 21.5781" id="BitstreamVeraSans-Roman-75"/>
      <path d="
M34.2812 27.4844
Q23.3906 27.4844 19.1875 25
Q14.9844 22.5156 14.9844 16.5
Q14.9844 11.7188 18.1406 8.90625
Q21.2969 6.10938 26.7031 6.10938
Q34.1875 6.10938 38.7031 11.4062
Q43.2188 16.7031 43.2188 25.4844
L43.2188 27.4844
z

M52.2031 31.2031
L52.2031 0
L43.2188 0
L43.2188 8.29688
Q40.1406 3.32812 35.5469 0.953125
Q30.9531 -1.42188 24.3125 -1.42188
Q15.9219 -1.42188 10.9531 3.29688
Q6 8.01562 6 15.9219
Q6 25.1406 12.1719 29.8281
Q18.3594 34.5156 30.6094 34.5156
L43.2188 34.5156
L43.2188 35.4062
Q43.2188 41.6094 39.1406 45
Q35.0625 48.3906 27.6875 48.3906
Q23 48.3906 18.5469 47.2656
Q14.1094 46.1406 10.0156 43.8906
L10.0156 52.2031
Q14.9375 54.1094 19.5781 55.0469
Q24.2188 56 28.6094 56
Q40.4844 56 46.3438 49.8438
Q52.2031 43.7031 52.2031 31.2031" id="BitstreamVeraSans-Roman-61"/>
      <path d="
M18.1094 8.20312
L18.1094 -20.7969
L9.07812 -20.7969
L9.07812 54.6875
L18.1094 54.6875
L18.1094 46.3906
Q20.9531 51.2656 25.2656 53.625
Q29.5938 56 35.5938 56
Q45.5625 56 51.7812 48.0938
Q58.0156 40.1875 58.0156 27.2969
Q58.0156 14.4062 51.7812 6.48438
Q45.5625 -1.42188 35.5938 -1.42188
Q29.5938 -1.42188 25.2656 0.953125
Q20.9531 3.32812 18.1094 8.20312
M48.6875 27.2969
Q48.6875 37.2031 44.6094 42.8438
Q40.5312 48.4844 33.4062 48.4844
Q26.2656 48.4844 22.1875 42.8438
Q18.1094 37.2031 18.1094 27.2969
Q18.1094 17.3906 22.1875 11.75
Q26.2656 6.10938 33.4062 6.10938
Q40.5312 6.10938 44.6094 11.75
Q48.6875 17.3906 48.6875 27.2969" id="BitstreamVeraSans-Roman-70"/>
     </defs>
     <g transform="translate(148.00625 341.2765625)scale(0.1 -0.1)">
      <use xlink:href="#BitstreamVeraSans-Roman-54"/>
      <use x="44.083984375" xlink:href="#BitstreamVeraSans-Roman-65"/>
      <use x="105.607421875" xlink:href="#BitstreamVeraSans-Roman-6d"/>
      <use x="203.01953125" xlink:href="#BitstreamVeraSans-Roman-70"/>
      <use x="266.49609375" xlink:href="#BitstreamVeraSans-Roman-65"/>
      <use x="328.01953125" xlink:href="#BitstreamVeraSans-Roman-72"/>
      <use x="369.1328125" xlink:href="#BitstreamVeraSans-Roman-61"/>
      <use x="430.412109375" xlink:href="#BitstreamVeraSans-Roman-74"/>
      <use x="469.62109375" xlink:href="#BitstreamVeraSans-Roman-75"/>
      <use x="533.0" xlink:href="#BitstreamVeraSans-Roman-72"/>
      <use x="571.86328125" xlink:href="#BitstreamVeraSans-Roman-65"/>
      <use x="633.38671875" xlink:href="#BitstreamVeraSans-Roman-20"/>
      <use x="665.173828125" xlink:href="#BitstreamVeraSans-Roman-43"/>
     </g>
    </g>
   </g>
   <g id="matplotlib.axis_2">
    <g id="ytick_1">
     <g id="line2d_17">
      <defs>
       <path d="
M0 0
L4 0" id="m728421d6d4" style="stroke:#000000;stroke-width:0.5;"/>
      </defs>
      <g>
       <use style="stroke:#000000;stroke-width:0.5;" x="45.0" xlink:href="#m728421d6d4" y="315.0"/>
      </g>
     </g>
     <g id="line2d_18">
      <defs>
       <path d="
M0 0
L-4 0" id="mcb0005524f" style="stroke:#000000;stroke-width:0.5;"/>
      </defs>
      <g>
       <use style="stroke:#000000;stroke-width:0.5;" x="324.0" xlink:href="#mcb0005524f" y="315.0"/>
      </g>
     </g>
     <g id="text_9">
      <!-- −0.04 -->
      <defs>
       <path d="
M10.5938 35.5
L73.1875 35.5
L73.1875 27.2031
L10.5938 27.2031
z
" id="BitstreamVeraSans-Roman-2212"/>
       <path d="
M10.6875 12.4062
L21 12.4062
L21 0
L10.6875 0
z
" id="BitstreamVeraSans-Roman-2e"/>
      </defs>
      <g transform="translate(11.975 317.759375)scale(0.1 -0.1)">
       <use xlink:href="#BitstreamVeraSans-Roman-2212"/>
       <use x="83.7890625" xlink:href="#BitstreamVeraSans-Roman-30"/>
       <use x="147.412109375" xlink:href="#BitstreamVeraSans-Roman-2e"/>
       <use x="179.19921875" xlink:href="#BitstreamVeraSans-Roman-30"/>
       <use x="242.822265625" xlink:href="#BitstreamVeraSans-Roman-34"/>
      </g>
     </g>
    </g>
    <g id="ytick_2">
     <g id="line2d_19">
      <g>
       <use style="stroke:#000000;stroke-width:0.5;" x="45.0" xlink:href="#m728421d6d4" y="259.2"/>
      </g>
     </g>
     <g id="line2d_20">
      <g>
       <use style="stroke:#000000;stroke-width:0.5;" x="324.0" xlink:href="#mcb0005524f" y="259.2"/>
      </g>
     </g>
     <g id="text_10">
      <!-- −0.03 -->
      <g transform="translate(12.215625 261.959375)scale(0.1 -0.1)">
       <use xlink:href="#BitstreamVeraSans-Roman-2212"/>
       <use x="83.7890625" xlink:href="#BitstreamVeraSans-Roman-30"/>
       <use x="147.412109375" xlink:href="#BitstreamVeraSans-Roman-2e"/>
       <use x="179.19921875" xlink:href="#BitstreamVeraSans-Roman-30"/>
       <use x="242.822265625" xlink:href="#BitstreamVeraSans-Roman-33"/>
      </g>
     </g>
    </g>
    <g id="ytick_3">
     <g id="line2d_21">
      <g>
       <use style="stroke:#000000;stroke-width:0.5;" x="45.0" xlink:href="#m728421d6d4" y="203.4"/>
      </g>
     </g>
     <g id="line2d_22">
      <g>
       <use style="stroke:#000000;stroke-width:0.5;" x="324.0" xlink:href="#mcb0005524f" y="203.4"/>
      </g>
     </g>
     <g id="text_11">
      <!-- −0.02 -->
      <g transform="translate(12.415625 206.159375)scale(0.1 -0.1)">
       <use xlink:href="#BitstreamVeraSans-Roman-2212"/>
       <use x="83.7890625" xlink:href="#BitstreamVeraSans-Roman-30"/>
       <use x="147.412109375" xlink:href="#BitstreamVeraSans-Roman-2e"/>
       <use x="179.19921875" xlink:href="#BitstreamVeraSans-Roman-30"/>
       <use x="242.822265625" xlink:href="#BitstreamVeraSans-Roman-32"/>
      </g>
     </g>
    </g>
    <g id="ytick_4">
     <g id="line2d_23">
      <g>
       <use style="stroke:#000000;stroke-width:0.5;" x="45.0" xlink:href="#m728421d6d4" y="147.6"/>
      </g>
     </g>
     <g id="line2d_24">
      <g>
       <use style="stroke:#000000;stroke-width:0.5;" x="324.0" xlink:href="#mcb0005524f" y="147.6"/>
      </g>
     </g>
     <g id="text_12">
      <!-- −0.01 -->
      <g transform="translate(12.3375 150.359375)scale(0.1 -0.1)">
       <use xlink:href="#BitstreamVeraSans-Roman-2212"/>
       <use x="83.7890625" xlink:href="#BitstreamVeraSans-Roman-30"/>
       <use x="147.412109375" xlink:href="#BitstreamVeraSans-Roman-2e"/>
       <use x="179.19921875" xlink:href="#BitstreamVeraSans-Roman-30"/>
       <use x="242.822265625" xlink:href="#BitstreamVeraSans-Roman-31"/>
      </g>
     </g>
    </g>
    <g id="ytick_5">
     <g id="line2d_25">
      <g>
       <use style="stroke:#000000;stroke-width:0.5;" x="45.0" xlink:href="#m728421d6d4" y="91.8"/>
      </g>
     </g>
     <g id="line2d_26">
      <g>
       <use style="stroke:#000000;stroke-width:0.5;" x="324.0" xlink:href="#mcb0005524f" y="91.8"/>
      </g>
     </g>
     <g id="text_13">
      <!-- 0.00 -->
      <g transform="translate(20.0578125 94.559375)scale(0.1 -0.1)">
       <use xlink:href="#BitstreamVeraSans-Roman-30"/>
       <use x="63.623046875" xlink:href="#BitstreamVeraSans-Roman-2e"/>
       <use x="95.41015625" xlink:href="#BitstreamVeraSans-Roman-30"/>
       <use x="159.033203125" xlink:href="#BitstreamVeraSans-Roman-30"/>
      </g>
     </g>
    </g>
    <g id="ytick_6">
     <g id="line2d_27">
      <g>
       <use style="stroke:#000000;stroke-width:0.5;" x="45.0" xlink:href="#m728421d6d4" y="36.0"/>
      </g>
     </g>
     <g id="line2d_28">
      <g>
       <use style="stroke:#000000;stroke-width:0.5;" x="324.0" xlink:href="#mcb0005524f" y="36.0"/>
      </g>
     </g>
     <g id="text_14">
      <!-- 0.01 -->
      <g transform="translate(20.3171875 38.759375)scale(0.1 -0.1)">
       <use xlink:href="#BitstreamVeraSans-Roman-30"/>
       <use x="63.623046875" xlink:href="#BitstreamVeraSans-Roman-2e"/>
       <use x="95.41015625" xlink:href="#BitstreamVeraSans-Roman-30"/>
       <use x="159.033203125" xlink:href="#BitstreamVeraSans-Roman-31"/>
      </g>
     </g>
    </g>
   </g>
   <g id="text_15">
    <!-- 1st derivative (sliding window=3) -->
    <defs>
     <path d="
M54.8906 33.0156
L54.8906 0
L45.9062 0
L45.9062 32.7188
Q45.9062 40.4844 42.875 44.3281
Q39.8438 48.1875 33.7969 48.1875
Q26.5156 48.1875 22.3125 43.5469
Q18.1094 38.9219 18.1094 30.9062
L18.1094 0
L9.07812 0
L9.07812 54.6875
L18.1094 54.6875
L18.1094 46.1875
Q21.3438 51.125 25.7031 53.5625
Q30.0781 56 35.7969 56
Q45.2188 56 50.0469 50.1719
Q54.8906 44.3438 54.8906 33.0156" id="BitstreamVeraSans-Roman-6e"/>
     <path d="
M31 75.875
Q24.4688 64.6562 21.2812 53.6562
Q18.1094 42.6719 18.1094 31.3906
Q18.1094 20.125 21.3125 9.0625
Q24.5156 -2 31 -13.1875
L23.1875 -13.1875
Q15.875 -1.70312 12.2344 9.375
Q8.59375 20.4531 8.59375 31.3906
Q8.59375 42.2812 12.2031 53.3125
Q15.8281 64.3594 23.1875 75.875
z
" id="BitstreamVeraSans-Roman-28"/>
     <path d="
M30.6094 48.3906
Q23.3906 48.3906 19.1875 42.75
Q14.9844 37.1094 14.9844 27.2969
Q14.9844 17.4844 19.1562 11.8438
Q23.3438 6.20312 30.6094 6.20312
Q37.7969 6.20312 41.9844 11.8594
Q46.1875 17.5312 46.1875 27.2969
Q46.1875 37.0156 41.9844 42.7031
Q37.7969 48.3906 30.6094 48.3906
M30.6094 56
Q42.3281 56 49.0156 48.375
Q55.7188 40.7656 55.7188 27.2969
Q55.7188 13.875 49.0156 6.21875
Q42.3281 -1.42188 30.6094 -1.42188
Q18.8438 -1.42188 12.1719 6.21875
Q5.51562 13.875 5.51562 27.2969
Q5.51562 40.7656 12.1719 48.375
Q18.8438 56 30.6094 56" id="BitstreamVeraSans-Roman-6f"/>
     <path d="
M9.42188 75.9844
L18.4062 75.9844
L18.4062 0
L9.42188 0
z
" id="BitstreamVeraSans-Roman-6c"/>
     <path d="
M8.01562 75.875
L15.8281 75.875
Q23.1406 64.3594 26.7812 53.3125
Q30.4219 42.2812 30.4219 31.3906
Q30.4219 20.4531 26.7812 9.375
Q23.1406 -1.70312 15.8281 -13.1875
L8.01562 -13.1875
Q14.5 -2 17.7031 9.0625
Q20.9062 20.125 20.9062 31.3906
Q20.9062 42.6719 17.7031 53.6562
Q14.5 64.6562 8.01562 75.875" id="BitstreamVeraSans-Roman-29"/>
     <path d="
M9.42188 54.6875
L18.4062 54.6875
L18.4062 0
L9.42188 0
z

M9.42188 75.9844
L18.4062 75.9844
L18.4062 64.5938
L9.42188 64.5938
z
" id="BitstreamVeraSans-Roman-69"/>
     <path d="
M10.5938 45.4062
L73.1875 45.4062
L73.1875 37.2031
L10.5938 37.2031
z

M10.5938 25.4844
L73.1875 25.4844
L73.1875 17.1875
L10.5938 17.1875
z
" id="BitstreamVeraSans-Roman-3d"/>
     <path d="
M4.20312 54.6875
L13.1875 54.6875
L24.4219 12.0156
L35.5938 54.6875
L46.1875 54.6875
L57.4219 12.0156
L68.6094 54.6875
L77.5938 54.6875
L63.2812 0
L52.6875 0
L40.9219 44.8281
L29.1094 0
L18.5 0
z
" id="BitstreamVeraSans-Roman-77"/>
     <path d="
M2.98438 54.6875
L12.5 54.6875
L29.5938 8.79688
L46.6875 54.6875
L56.2031 54.6875
L35.6875 0
L23.4844 0
z
" id="BitstreamVeraSans-Roman-76"/>
     <path d="
M45.4062 46.3906
L45.4062 75.9844
L54.3906 75.9844
L54.3906 0
L45.4062 0
L45.4062 8.20312
Q42.5781 3.32812 38.25 0.953125
Q33.9375 -1.42188 27.875 -1.42188
Q17.9688 -1.42188 11.7344 6.48438
Q5.51562 14.4062 5.51562 27.2969
Q5.51562 40.1875 11.7344 48.0938
Q17.9688 56 27.875 56
Q33.9375 56 38.25 53.625
Q42.5781 51.2656 45.4062 46.3906
M14.7969 27.2969
Q14.7969 17.3906 18.875 11.75
Q22.9531 6.10938 30.0781 6.10938
Q37.2031 6.10938 41.2969 11.75
Q45.4062 17.3906 45.4062 27.2969
Q45.4062 37.2031 41.2969 42.8438
Q37.2031 48.4844 30.0781 48.4844
Q22.9531 48.4844 18.875 42.8438
Q14.7969 37.2031 14.7969 27.2969" id="BitstreamVeraSans-Roman-64"/>
     <path d="
M45.4062 27.9844
Q45.4062 37.75 41.375 43.1094
Q37.3594 48.4844 30.0781 48.4844
Q22.8594 48.4844 18.8281 43.1094
Q14.7969 37.75 14.7969 27.9844
Q14.7969 18.2656 18.8281 12.8906
Q22.8594 7.51562 30.0781 7.51562
Q37.3594 7.51562 41.375 12.8906
Q45.4062 18.2656 45.4062 27.9844
M54.3906 6.78125
Q54.3906 -7.17188 48.1875 -13.9844
Q42 -20.7969 29.2031 -20.7969
Q24.4688 -20.7969 20.2656 -20.0938
Q16.0625 -19.3906 12.1094 -17.9219
L12.1094 -9.1875
Q16.0625 -11.3281 19.9219 -12.3438
Q23.7812 -13.375 27.7812 -13.375
Q36.625 -13.375 41.0156 -8.76562
Q45.4062 -4.15625 45.4062 5.17188
L45.4062 9.625
Q42.625 4.78125 38.2812 2.39062
Q33.9375 0 27.875 0
Q17.8281 0 11.6719 7.65625
Q5.51562 15.3281 5.51562 27.9844
Q5.51562 40.6719 11.6719 48.3281
Q17.8281 56 27.875 56
Q33.9375 56 38.2812 53.6094
Q42.625 51.2188 45.4062 46.3906
L45.4062 54.6875
L54.3906 54.6875
z
" id="BitstreamVeraSans-Roman-67"/>
     <path d="
M44.2812 53.0781
L44.2812 44.5781
Q40.4844 46.5312 36.375 47.5
Q32.2812 48.4844 27.875 48.4844
Q21.1875 48.4844 17.8438 46.4375
Q14.5 44.3906 14.5 40.2812
Q14.5 37.1562 16.8906 35.375
Q19.2812 33.5938 26.5156 31.9844
L29.5938 31.2969
Q39.1562 29.25 43.1875 25.5156
Q47.2188 21.7812 47.2188 15.0938
Q47.2188 7.46875 41.1875 3.01562
Q35.1562 -1.42188 24.6094 -1.42188
Q20.2188 -1.42188 15.4531 -0.5625
Q10.6875 0.296875 5.42188 2
L5.42188 11.2812
Q10.4062 8.6875 15.2344 7.39062
Q20.0625 6.10938 24.8125 6.10938
Q31.1562 6.10938 34.5625 8.28125
Q37.9844 10.4531 37.9844 14.4062
Q37.9844 18.0625 35.5156 20.0156
Q33.0625 21.9688 24.7031 23.7812
L21.5781 24.5156
Q13.2344 26.2656 9.51562 29.9062
Q5.8125 33.5469 5.8125 39.8906
Q5.8125 47.6094 11.2812 51.7969
Q16.75 56 26.8125 56
Q31.7812 56 36.1719 55.2656
Q40.5781 54.5469 44.2812 53.0781" id="BitstreamVeraSans-Roman-73"/>
    </defs>
    <g transform="translate(84.0375 31.0)scale(0.12 -0.12)">
     <use xlink:href="#BitstreamVeraSans-Roman-31"/>
     <use x="63.623046875" xlink:href="#BitstreamVeraSans-Roman-73"/>
     <use x="115.72265625" xlink:href="#BitstreamVeraSans-Roman-74"/>
     <use x="154.931640625" xlink:href="#BitstreamVeraSans-Roman-20"/>
     <use x="186.71875" xlink:href="#BitstreamVeraSans-Roman-64"/>
     <use x="250.1953125" xlink:href="#BitstreamVeraSans-Roman-65"/>
     <use x="311.71875" xlink:href="#BitstreamVeraSans-Roman-72"/>
     <use x="352.83203125" xlink:href="#BitstreamVeraSans-Roman-69"/>
     <use x="380.615234375" xlink:href="#BitstreamVeraSans-Roman-76"/>
     <use x="439.794921875" xlink:href="#BitstreamVeraSans-Roman-61"/>
     <use x="501.07421875" xlink:href="#BitstreamVeraSans-Roman-74"/>
     <use x="540.283203125" xlink:href="#BitstreamVeraSans-Roman-69"/>
     <use x="568.06640625" xlink:href="#BitstreamVeraSans-Roman-76"/>
     <use x="627.24609375" xlink:href="#BitstreamVeraSans-Roman-65"/>
     <use x="688.76953125" xlink:href="#BitstreamVeraSans-Roman-20"/>
     <use x="720.556640625" xlink:href="#BitstreamVeraSans-Roman-28"/>
     <use x="759.5703125" xlink:href="#BitstreamVeraSans-Roman-73"/>
     <use x="811.669921875" xlink:href="#BitstreamVeraSans-Roman-6c"/>
     <use x="839.453125" xlink:href="#BitstreamVeraSans-Roman-69"/>
     <use x="867.236328125" xlink:href="#BitstreamVeraSans-Roman-64"/>
     <use x="930.712890625" xlink:href="#BitstreamVeraSans-Roman-69"/>
     <use x="958.49609375" xlink:href="#BitstreamVeraSans-Roman-6e"/>
     <use x="1021.875" xlink:href="#BitstreamVeraSans-Roman-67"/>
     <use x="1085.3515625" xlink:href="#BitstreamVeraSans-Roman-20"/>
     <use x="1117.13867188" xlink:href="#BitstreamVeraSans-Roman-77"/>
     <use x="1198.92578125" xlink:href="#BitstreamVeraSans-Roman-69"/>
     <use x="1226.70898438" xlink:href="#BitstreamVeraSans-Roman-6e"/>
     <use x="1290.08789062" xlink:href="#BitstreamVeraSans-Roman-64"/>
     <use x="1353.56445312" xlink:href="#BitstreamVeraSans-Roman-6f"/>
     <use x="1414.74609375" xlink:href="#BitstreamVeraSans-Roman-77"/>
     <use x="1496.53320312" xlink:href="#BitstreamVeraSans-Roman-3d"/>
     <use x="1580.32226562" xlink:href="#BitstreamVeraSans-Roman-33"/>
     <use x="1643.9453125" xlink:href="#BitstreamVeraSans-Roman-29"/>
    </g>
   </g>
  </g>
 </g>
 <defs>
  <clipPath id="pd0c2820aef">
   <rect height="279.0" width="279.0" x="45.0" y="36.0"/>
  </clipPath>
 </defs>
</svg>
