<?xml version="1.0" encoding="utf-8" standalone="no"?>
<!DOCTYPE svg PUBLIC "-//W3C//DTD SVG 1.1//EN"
  "http://www.w3.org/Graphics/SVG/1.1/DTD/svg11.dtd">
<!-- Created with matplotlib (http://matplotlib.org/) -->
<svg height="360pt" version="1.1" viewBox="0 0 360 360" width="360pt" xmlns="http://www.w3.org/2000/svg" xmlns:xlink="http://www.w3.org/1999/xlink">
 <defs>
  <style type="text/css">
*{stroke-linecap:butt;stroke-linejoin:round;stroke-miterlimit:100000;}
  </style>
 </defs>
 <g id="figure_1">
  <g id="patch_1">
   <path d="M 0 360 
L 360 360 
L 360 0 
L 0 0 
z
" style="fill:#ffffff;"/>
  </g>
  <g id="axes_1">
   <g id="patch_2">
    <path d="M 45 315 
L 324 315 
L 324 36 
L 45 36 
z
" style="fill:#ffffff;"/>
   </g>
   <g id="line2d_1">
    <path clip-path="url(#p1c3dd60798)" d="M 63.227999 132.504301 
L 63.692999 84.351227 
L 64.157999 89.233705 
L 65.087999 103.6297 
L 66.017999 121.484672 
L 66.482999 126.033227 
L 66.947999 125.447861 
L 67.412999 119.728576 
L 68.807999 87.754328 
L 69.272999 82.258546 
L 69.737999 80.668747 
L 70.202999 82.704222 
L 70.667999 85.74546 
L 71.132999 86.499783 
L 71.597999 84.015972 
L 72.062999 78.240811 
L 72.527999 70.902459 
L 72.992999 73.552567 
L 73.922999 118.835894 
L 74.387999 124.917042 
L 74.852999 111.246101 
L 75.317999 90.014636 
L 75.782999 75.031945 
L 76.247999 69.758336 
L 76.712999 73.943698 
L 78.107999 102.792894 
L 78.572999 108.679807 
L 79.037999 112.250535 
L 79.502999 113.506409 
L 79.967999 112.613727 
L 80.432999 109.656302 
L 80.897999 104.662072 
L 81.827999 89.03814 
L 82.292999 81.727726 
L 82.757999 78.462984 
L 83.222999 79.774734 
L 83.687999 85.605771 
L 85.082999 112.640335 
L 85.547999 115.990221 
L 86.012999 115.654966 
L 86.477999 111.943218 
L 87.407999 99.779593 
L 88.802999 78.156997 
L 89.267999 74.529063 
L 89.732999 77.320191 
L 90.197999 86.973397 
L 91.592999 137.583548 
L 92.057999 139.732105 
L 92.522999 129.353844 
L 92.987999 106.419498 
L 93.917999 49.754807 
L 94.382999 37.283201 
L 94.847999 39.013354 
L 95.312999 54.832851 
L 96.242999 103.406197 
L 96.707999 118.75075 
L 97.172999 125.531675 
L 97.637999 123.774249 
L 98.102999 114.007961 
L 99.032999 89.95876 
L 99.497999 83.317525 
L 99.962999 80.835044 
L 100.427999 81.840808 
L 100.892999 84.82484 
L 101.357999 88.925058 
L 102.287999 100.08691 
L 102.752999 105.944554 
L 103.217999 109.321048 
L 103.682999 109.070937 
L 104.147999 105.108413 
L 104.612999 97.463409 
L 105.542999 79.998237 
L 106.007999 76.202676 
L 106.472999 76.595136 
L 106.937999 81.14236 
L 107.867999 100.170724 
L 108.797999 116.798424 
L 109.262999 121.791989 
L 109.727999 124.414825 
L 110.192999 124.191987 
L 110.657999 120.760283 
L 111.122999 114.063837 
L 112.517999 82.425508 
L 112.982999 77.98937 
L 113.447999 79.245245 
L 113.912999 86.163863 
L 114.842999 104.606196 
L 115.307999 108.930582 
L 115.772999 108.986458 
L 116.237999 104.801096 
L 117.167999 89.400667 
L 117.633006 85.216021 
L 118.098006 85.243294 
L 118.563006 89.37273 
L 119.493006 100.6164 
L 119.958006 103.015732 
L 120.423006 102.736353 
L 120.888006 99.75099 
L 121.818006 91.577162 
L 122.283006 90.349225 
L 122.748006 91.576497 
L 123.213006 95.28758 
L 124.143006 104.494445 
L 124.608006 106.223933 
L 125.073006 105.47094 
L 125.538006 102.234802 
L 126.003006 97.380261 
L 126.468006 93.697116 
L 126.933006 93.390464 
L 127.398006 96.682479 
L 128.793006 116.240331 
L 129.258006 117.495541 
L 129.723006 114.87337 
L 130.188006 108.37249 
L 131.118006 91.688914 
L 131.583006 88.926389 
L 132.048006 91.353659 
L 133.443006 111.581356 
L 133.908006 112.668938 
L 134.373006 109.767389 
L 134.838006 102.876043 
L 135.768006 85.466747 
L 136.233006 81.588702 
L 136.698006 82.118856 
L 137.163006 87.00067 
L 138.093006 101.900212 
L 138.558006 105.750319 
L 139.023006 106.112847 
L 139.488006 103.098881 
L 140.418006 94.729487 
L 140.883006 93.474278 
L 141.348006 94.562525 
L 141.813006 98.021502 
L 142.743006 108.707744 
L 143.208006 111.692442 
L 143.673006 111.971156 
L 144.138006 109.516613 
L 145.068006 101.174492 
L 145.533006 98.942122 
L 145.998006 98.663408 
L 146.463006 100.28181 
L 147.393006 105.722381 
L 147.858006 106.587126 
L 148.323006 105.749654 
L 148.788006 103.210632 
L 149.718006 96.431703 
L 150.183006 94.925052 
L 150.648006 95.14789 
L 151.113006 97.100882 
L 152.508006 106.698212 
L 152.973006 109.014396 
L 153.438006 110.688674 
L 154.368006 112.696876 
L 155.298006 114.147651 
L 156.228006 115.180687 
L 156.693006 115.486674 
L 157.158006 115.542549 
L 157.623006 115.403525 
L 158.088006 115.01306 
L 158.553006 114.343216 
L 159.018006 113.227031 
L 159.483006 111.553418 
L 159.948006 109.376923 
L 160.878006 103.406197 
L 161.343006 100.392896 
L 161.808006 98.44057 
L 162.273006 97.770726 
L 162.738006 98.384029 
L 163.203006 100.086245 
L 165.528006 110.688009 
L 165.993006 111.357853 
L 166.458006 110.130581 
L 166.923006 106.865839 
L 168.318006 92.357427 
L 168.783006 91.939689 
L 169.248006 94.702215 
L 169.713006 100.700213 
L 171.573006 136.272463 
L 172.038006 141.043855 
L 172.503006 143.582212 
L 172.968006 143.888864 
L 173.433006 141.9086 
L 173.898006 137.584214 
L 174.363006 130.915705 
L 175.293006 113.143217 
L 175.758006 106.72615 
L 176.223006 103.909079 
L 176.688006 104.717948 
L 177.153006 109.041669 
L 177.618006 114.929246 
L 178.083006 119.058732 
L 178.548006 119.978687 
L 179.013006 117.663168 
L 179.478006 112.111511 
L 179.943006 104.88491 
L 180.408006 99.55609 
L 180.873006 98.161191 
L 181.338006 100.811965 
L 181.803006 107.563621 
L 182.733006 127.205288 
L 183.198006 134.459161 
L 183.663006 138.951175 
L 184.128006 140.625452 
L 184.593006 139.760043 
L 185.523006 136.104836 
L 185.988006 134.989316 
L 186.453006 134.459161 
L 186.918006 134.514372 
L 187.383006 135.575346 
L 187.848006 138.030555 
L 188.313006 142.047624 
L 189.708006 157.755369 
L 190.173006 159.401709 
L 190.638006 158.342065 
L 191.103006 154.630982 
L 192.033006 144.224119 
L 192.498006 140.513701 
L 192.963006 138.169579 
L 193.428006 137.221021 
L 193.893006 138.030555 
L 194.358006 141.434321 
L 194.823006 147.906598 
L 195.288006 157.504594 
L 196.683006 195.95112 
L 197.148006 200.749785 
L 197.613006 198.461539 
L 198.078006 189.114985 
L 199.008006 162.7496 
L 199.473006 158.202376 
L 199.938006 161.82898 
L 200.403006 173.323426 
L 201.798006 217.796554 
L 202.728006 236.600749 
L 203.193006 242.069258 
L 203.658006 243.855287 
L 204.123006 241.176576 
L 204.588006 234.006516 
L 205.518006 209.816961 
L 205.983006 202.479274 
L 206.448006 203.706545 
L 206.913006 213.695006 
L 207.378006 232.416052 
L 208.308006 283.863675 
L 208.773006 296.139716 
L 209.238006 292.038168 
L 209.703006 272.22954 
L 210.633006 221.004755 
L 211.098006 205.492575 
L 211.563006 198.182825 
L 212.028006 199.075507 
L 212.493006 207.027163 
L 213.888006 243.129567 
L 214.818006 268.491184 
L 215.283006 278.060576 
L 215.748006 281.854808 
L 216.213006 279.287848 
L 216.678006 270.387635 
L 217.608006 245.863489 
L 218.073006 238.414051 
L 218.538006 235.485229 
L 219.003006 236.991879 
L 219.468006 242.292761 
L 221.328006 268.769565 
L 221.793006 274.349826 
L 222.258006 277.781197 
L 222.723006 277.697716 
L 223.188006 273.986966 
L 223.653006 266.621341 
L 224.583006 247.565705 
L 225.048006 242.097529 
L 225.513006 240.562608 
L 225.978006 242.934335 
L 227.838006 266.035643 
L 228.303006 268.01624 
L 228.768006 268.127991 
L 229.233006 267.068015 
L 230.163006 263.915024 
L 231.093006 259.981103 
L 231.558006 258.558599 
L 232.023006 258.27922 
L 232.488006 259.255716 
L 233.883006 265.309923 
L 234.348006 263.691854 
L 234.813006 259.088421 
L 235.278006 251.527564 
L 236.208006 232.360176 
L 236.673006 228.817053 
L 237.138006 232.248757 
L 237.603006 242.68306 
L 238.533006 274.433473 
L 238.998006 281.436405 
L 239.463006 278.032472 
L 239.928006 264.221842 
L 240.858006 224.241393 
L 241.323006 212.802324 
L 241.788006 209.677437 
L 242.253006 214.811025 
L 243.183006 240.395479 
L 243.648006 246.951903 
L 244.113006 245.054621 
L 244.578006 234.759509 
L 245.973006 182.558727 
L 246.438006 176.2811 
L 246.903006 177.871481 
L 247.833006 189.896414 
L 248.298006 191.486712 
L 248.763006 189.087296 
L 249.228006 182.586582 
L 250.158006 161.633664 
L 250.623006 155.160887 
L 251.088006 154.742401 
L 251.553006 160.433998 
L 252.018006 170.1711 
L 252.483006 177.56458 
L 252.948006 177.564663 
L 253.413006 169.585236 
L 253.878006 153.598444 
L 255.273006 81.979167 
L 255.738006 74.278828 
L 256.203006 79.747212 
L 256.668006 98.161191 
L 257.598006 144.837879 
L 258.063006 155.970005 
L 258.528006 156.723331 
L 258.993006 147.404714 
L 259.923006 117.551708 
L 260.388006 106.921798 
L 260.853006 100.197872 
L 261.318006 97.407866 
L 261.783006 97.575327 
L 262.248006 98.551823 
L 262.713006 99.053998 
L 263.178006 98.998205 
L 263.643006 98.4123 
L 264.108006 98.02171 
L 264.573006 99.081894 
L 265.038006 102.150863 
L 265.503006 107.14501 
L 266.433006 119.644181 
L 266.898006 122.18312 
L 267.363006 120.676511 
L 267.828006 115.152292 
L 269.223006 89.344792 
L 269.688006 86.805894 
L 270.153006 88.535715 
L 270.618006 94.338897 
L 271.548006 108.205195 
L 272.013006 111.692692 
L 272.478006 112.50181 
L 272.943006 110.632507 
L 274.338006 99.695696 
L 274.803006 97.407887 
L 275.268006 96.012905 
L 275.733006 95.622294 
L 276.198006 96.403495 
L 276.663006 98.440217 
L 278.058006 108.567909 
L 278.523006 109.432799 
L 278.988006 107.954087 
L 279.453006 104.187606 
L 280.383006 93.752991 
L 280.848006 90.321287 
L 281.313006 88.619404 
L 281.778006 88.675218 
L 282.243006 90.432893 
L 282.708006 93.752991 
L 283.173006 98.300714 
L 284.103006 110.744092 
L 285.033006 124.275593 
L 285.498006 126.116999 
L 285.963006 123.131698 
L 286.428006 115.375504 
L 287.823006 75.059987 
L 288.288006 68.949904 
L 288.753006 69.619519 
L 289.218006 77.012999 
L 290.148006 103.964394 
L 290.613006 111.609003 
L 291.078006 111.664795 
L 291.543006 104.661906 
L 292.008006 94.785301 
L 292.473006 87.30809 
L 292.938006 83.987992 
L 293.403006 84.769193 
L 293.868006 89.623817 
L 294.798006 103.713285 
L 295.263006 107.5356 
L 295.728006 108.428407 
L 296.193006 106.363799 
L 297.123006 98.4123 
L 297.588006 95.901299 
L 298.053006 94.869 
L 298.518006 95.315393 
L 298.983006 96.6825 
L 299.448006 97.575306 
L 299.913006 97.045204 
L 300.378006 94.924793 
L 301.773006 84.7971 
L 302.238006 86.945407 
L 302.703006 93.697209 
L 304.098006 129.158103 
L 304.563006 130.608898 
L 305.028006 122.768994 
L 306.423006 77.4036 
L 306.888006 73.7766 
L 307.353006 78.073205 
L 307.818006 90.349199 
L 308.748006 123.299102 
L 309.213006 129.744003 
L 309.678006 126.647102 
L 310.143006 114.036299 
L 311.073006 77.012999 
L 311.538006 68.029201 
L 312.003006 68.503501 
L 312.468006 78.1848 
L 313.398006 105.917401 
L 313.863006 112.501799 
L 314.328006 112.7529 
L 314.793006 106.6428 
L 315.723006 82.5651 
L 316.188006 74.976301 
L 316.653006 73.5813 
L 317.118006 78.240598 
L 318.048006 94.4784 
L 318.513006 100.253701 
L 318.978006 103.852803 
L 319.443006 105.247801 
L 319.908006 104.885098 
L 320.838006 102.1509 
L 321.768006 98.3007 
L 322.698006 93.8367 
L 322.698006 93.8367 
" style="fill:none;stroke:#0000ff;stroke-linecap:square;"/>
   </g>
   <g id="line2d_2">
    <path clip-path="url(#p1c3dd60798)" d="M 63.227999 132.504301 
L 63.692999 84.351227 
L 64.157999 89.233705 
L 65.087999 103.6297 
L 66.017999 121.484672 
L 66.482999 126.033227 
L 66.947999 125.447861 
L 67.412999 119.728576 
L 68.807999 87.754328 
L 69.272999 82.258546 
L 69.737999 80.668747 
L 70.202999 82.704222 
L 70.667999 85.74546 
L 71.132999 86.499783 
L 71.597999 84.015972 
L 72.062999 78.240811 
L 72.527999 70.902459 
L 72.992999 73.552567 
L 73.922999 118.835894 
L 74.387999 124.917042 
L 74.852999 111.246101 
L 75.317999 90.014636 
L 75.782999 75.031945 
L 76.247999 69.758336 
L 76.712999 73.943698 
L 78.107999 102.792894 
L 78.572999 108.679807 
L 79.037999 112.250535 
L 79.502999 113.506409 
L 79.967999 112.613727 
L 80.432999 109.656302 
L 80.897999 104.662072 
L 81.827999 89.03814 
L 82.292999 81.727726 
L 82.757999 78.462984 
L 83.222999 79.774734 
L 83.687999 85.605771 
L 85.082999 112.640335 
L 85.547999 115.990221 
L 86.012999 115.654966 
L 86.477999 111.943218 
L 87.407999 99.779593 
L 88.802999 78.156997 
L 89.267999 74.529063 
L 89.732999 77.320191 
L 90.197999 86.973397 
L 91.592999 137.583548 
L 92.057999 139.732105 
L 92.522999 129.353844 
L 92.987999 106.419498 
L 93.917999 49.754807 
L 94.382999 37.283201 
L 94.847999 39.013354 
L 95.312999 54.832851 
L 96.242999 103.406197 
L 96.707999 118.75075 
L 97.172999 125.531675 
L 97.637999 123.774249 
L 98.102999 114.007961 
L 99.032999 89.95876 
L 99.497999 83.317525 
L 99.962999 80.835044 
L 100.427999 81.840808 
L 100.892999 84.82484 
L 101.357999 88.925058 
L 102.287999 100.08691 
L 102.752999 105.944554 
L 103.217999 109.321048 
L 103.682999 109.070937 
L 104.147999 105.108413 
L 104.612999 97.463409 
L 105.542999 79.998237 
L 106.007999 76.202676 
L 106.472999 76.595136 
L 106.937999 81.14236 
L 107.867999 100.170724 
L 108.797999 116.798424 
L 109.262999 121.791989 
L 109.727999 124.414825 
L 110.192999 124.191987 
L 110.657999 120.760283 
L 111.122999 114.063837 
L 112.517999 82.425508 
L 112.982999 77.98937 
L 113.447999 79.245245 
L 113.912999 86.163863 
L 114.842999 104.606196 
L 115.307999 108.930582 
L 115.772999 108.986458 
L 116.237999 104.801096 
L 117.167999 89.400667 
L 117.633006 85.216021 
L 118.098006 85.243294 
L 118.563006 89.37273 
L 119.493006 100.6164 
L 119.958006 103.015732 
L 120.423006 102.736353 
L 120.888006 99.75099 
L 121.818006 91.577162 
L 122.283006 90.349225 
L 122.748006 91.576497 
L 123.213006 95.28758 
L 124.143006 104.494445 
L 124.608006 106.223933 
L 125.073006 105.47094 
L 125.538006 102.234802 
L 126.003006 97.380261 
L 126.468006 93.697116 
L 126.933006 93.390464 
L 127.398006 96.682479 
L 128.793006 116.240331 
L 129.258006 117.495541 
L 129.723006 114.87337 
L 130.188006 108.37249 
L 131.118006 91.688914 
L 131.583006 88.926389 
L 132.048006 91.353659 
L 133.443006 111.581356 
L 133.908006 112.668938 
L 134.373006 109.767389 
L 134.838006 102.876043 
L 135.768006 85.466747 
L 136.233006 81.588702 
L 136.698006 82.118856 
L 137.163006 87.00067 
L 138.093006 101.900212 
L 138.558006 105.750319 
L 139.023006 106.112847 
L 139.488006 103.098881 
L 140.418006 94.729487 
L 140.883006 93.474278 
L 141.348006 94.562525 
L 141.813006 98.021502 
L 142.743006 108.707744 
L 143.208006 111.692442 
L 143.673006 111.971156 
L 144.138006 109.516613 
L 145.068006 101.174492 
L 145.533006 98.942122 
L 145.998006 98.663408 
L 146.463006 100.28181 
L 147.393006 105.722381 
L 147.858006 106.587126 
L 148.323006 105.749654 
L 148.788006 103.210632 
L 149.718006 96.431703 
L 150.183006 94.925052 
L 150.648006 95.14789 
L 151.113006 97.100882 
L 152.508006 106.698212 
L 152.973006 109.014396 
L 153.438006 110.688674 
L 154.368006 112.696876 
L 155.298006 114.147651 
L 156.228006 115.180687 
L 156.693006 115.486674 
L 157.158006 115.542549 
L 157.623006 115.403525 
L 158.088006 115.01306 
L 158.553006 114.343216 
L 159.018006 113.227031 
L 159.483006 111.553418 
L 159.948006 109.376923 
L 160.878006 103.406197 
L 161.343006 100.392896 
L 161.808006 98.44057 
L 162.273006 97.770726 
L 162.738006 98.384029 
L 163.203006 100.086245 
L 165.528006 110.688009 
L 165.993006 111.357853 
L 166.458006 110.130581 
L 166.923006 106.865839 
L 168.318006 92.357427 
L 168.783006 91.939689 
L 169.248006 94.702215 
L 169.713006 100.700213 
L 171.573006 136.272463 
L 172.038006 141.043855 
L 172.503006 143.582212 
L 172.968006 143.888864 
L 173.433006 141.9086 
L 173.898006 137.584214 
L 174.363006 130.915705 
L 175.293006 113.143217 
L 175.758006 106.72615 
L 176.223006 103.909079 
L 176.688006 104.717948 
L 177.153006 109.041669 
L 177.618006 114.929246 
L 178.083006 119.058732 
L 178.548006 119.978687 
L 179.013006 117.663168 
L 179.478006 112.111511 
L 179.943006 104.88491 
L 180.408006 99.55609 
L 180.873006 98.161191 
L 181.338006 100.811965 
L 181.803006 107.563621 
L 182.733006 127.205288 
L 183.198006 134.459161 
L 183.663006 138.951175 
L 184.128006 140.625452 
L 184.593006 139.760043 
L 185.523006 136.104836 
L 185.988006 134.989316 
L 186.453006 134.459161 
L 186.918006 134.514372 
L 187.383006 135.575346 
L 187.848006 138.030555 
L 188.313006 142.047624 
L 189.708006 157.755369 
L 190.173006 159.401709 
L 190.638006 158.342065 
L 191.103006 154.630982 
L 192.033006 144.224119 
L 192.498006 140.513701 
L 192.963006 138.169579 
L 193.428006 137.221021 
L 193.893006 138.030555 
L 194.358006 141.434321 
L 194.823006 147.906598 
L 195.288006 157.504594 
L 196.683006 195.95112 
L 197.148006 200.749785 
L 197.613006 198.461539 
L 198.078006 189.114985 
L 199.008006 162.7496 
L 199.473006 158.202376 
L 199.938006 161.82898 
L 200.403006 173.323426 
L 201.798006 217.796554 
L 202.728006 236.600749 
L 203.193006 242.069258 
L 203.658006 243.855287 
L 204.123006 241.176576 
L 204.588006 234.006516 
L 205.518006 209.816961 
L 205.983006 202.479274 
L 206.448006 203.706545 
L 206.913006 213.695006 
L 207.378006 232.416052 
L 208.308006 283.863675 
L 208.773006 296.139716 
L 209.238006 292.038168 
L 209.703006 272.22954 
L 210.633006 221.004755 
L 211.098006 205.492575 
L 211.563006 198.182825 
L 212.028006 199.075507 
L 212.493006 207.027163 
L 213.888006 243.129567 
L 214.818006 268.491184 
L 215.283006 278.060576 
L 215.748006 281.854808 
L 216.213006 279.287848 
L 216.678006 270.387635 
L 217.608006 245.863489 
L 218.073006 238.414051 
L 218.538006 235.485229 
L 219.003006 236.991879 
L 219.468006 242.292761 
L 221.328006 268.769565 
L 221.793006 274.349826 
L 222.258006 277.781197 
L 222.723006 277.697716 
L 223.188006 273.986966 
L 223.653006 266.621341 
L 224.583006 247.565705 
L 225.048006 242.097529 
L 225.513006 240.562608 
L 225.978006 242.934335 
L 227.838006 266.035643 
L 228.303006 268.01624 
L 228.768006 268.127991 
L 229.233006 267.068015 
L 230.163006 263.915024 
L 231.093006 259.981103 
L 231.558006 258.558599 
L 232.023006 258.27922 
L 232.488006 259.255716 
L 233.883006 265.309923 
L 234.348006 263.691854 
L 234.813006 259.088421 
L 235.278006 251.527564 
L 236.208006 232.360176 
L 236.673006 228.817053 
L 237.138006 232.248757 
L 237.603006 242.68306 
L 238.533006 274.433473 
L 238.998006 281.436405 
L 239.463006 278.032472 
L 239.928006 264.221842 
L 240.858006 224.241393 
L 241.323006 212.802324 
L 241.788006 209.677437 
L 242.253006 214.811025 
L 243.183006 240.395479 
L 243.648006 246.951903 
L 244.113006 245.054621 
L 244.578006 234.759509 
L 245.973006 182.558727 
L 246.438006 176.2811 
L 246.903006 177.871481 
L 247.833006 189.896414 
L 248.298006 191.486712 
L 248.763006 189.087296 
L 249.228006 182.586582 
L 250.158006 161.633664 
L 250.623006 155.160887 
L 251.088006 154.742401 
L 251.553006 160.433998 
L 252.018006 170.1711 
L 252.483006 177.56458 
L 252.948006 177.564663 
L 253.413006 169.585236 
L 253.878006 153.598444 
L 255.273006 81.979167 
L 255.738006 74.278828 
L 256.203006 79.747212 
L 256.668006 98.161191 
L 257.598006 144.837879 
L 258.063006 155.970005 
L 258.528006 156.723331 
L 258.993006 147.404714 
L 259.923006 117.551708 
L 260.388006 106.921798 
L 260.853006 100.197872 
L 261.318006 97.407866 
L 261.783006 97.575327 
L 262.248006 98.551823 
L 262.713006 99.053998 
L 263.178006 98.998205 
L 263.643006 98.4123 
L 264.108006 98.02171 
L 264.573006 99.081894 
L 265.038006 102.150863 
L 265.503006 107.14501 
L 266.433006 119.644181 
L 266.898006 122.18312 
L 267.363006 120.676511 
L 267.828006 115.152292 
L 269.223006 89.344792 
L 269.688006 86.805894 
L 270.153006 88.535715 
L 270.618006 94.338897 
L 271.548006 108.205195 
L 272.013006 111.692692 
L 272.478006 112.50181 
L 272.943006 110.632507 
L 274.338006 99.695696 
L 274.803006 97.407887 
L 275.268006 96.012905 
L 275.733006 95.622294 
L 276.198006 96.403495 
L 276.663006 98.440217 
L 278.058006 108.567909 
L 278.523006 109.432799 
L 278.988006 107.954087 
L 279.453006 104.187606 
L 280.383006 93.752991 
L 280.848006 90.321287 
L 281.313006 88.619404 
L 281.778006 88.675218 
L 282.243006 90.432893 
L 282.708006 93.752991 
L 283.173006 98.300714 
L 284.103006 110.744092 
L 285.033006 124.275593 
L 285.498006 126.116999 
L 285.963006 123.131698 
L 286.428006 115.375504 
L 287.823006 75.059987 
L 288.288006 68.949904 
L 288.753006 69.619519 
L 289.218006 77.012999 
L 290.148006 103.964394 
L 290.613006 111.609003 
L 291.078006 111.664795 
L 291.543006 104.661906 
L 292.008006 94.785301 
L 292.473006 87.30809 
L 292.938006 83.987992 
L 293.403006 84.769193 
L 293.868006 89.623817 
L 294.798006 103.713285 
L 295.263006 107.5356 
L 295.728006 108.428407 
L 296.193006 106.363799 
L 297.123006 98.4123 
L 297.588006 95.901299 
L 298.053006 94.869 
L 298.518006 95.315393 
L 298.983006 96.6825 
L 299.448006 97.575306 
L 299.913006 97.045204 
L 300.378006 94.924793 
L 301.773006 84.7971 
L 302.238006 86.945407 
L 302.703006 93.697209 
L 304.098006 129.158103 
L 304.563006 130.608898 
L 305.028006 122.768994 
L 306.423006 77.4036 
L 306.888006 73.7766 
L 307.353006 78.073205 
L 307.818006 90.349199 
L 308.748006 123.299102 
L 309.213006 129.744003 
L 309.678006 126.647102 
L 310.143006 114.036299 
L 311.073006 77.012999 
L 311.538006 68.029201 
L 312.003006 68.503501 
L 312.468006 78.1848 
L 313.398006 105.917401 
L 313.863006 112.501799 
L 314.328006 112.7529 
L 314.793006 106.6428 
L 315.723006 82.5651 
L 316.188006 74.976301 
L 316.653006 73.5813 
L 317.118006 78.240598 
L 318.048006 94.4784 
L 318.513006 100.253701 
L 318.978006 103.852803 
L 319.443006 105.247801 
L 319.908006 104.885098 
L 320.838006 102.1509 
L 321.768006 98.3007 
L 322.698006 93.8367 
L 322.698006 93.8367 
" style="fill:none;stroke:#0000ff;stroke-dasharray:6.000000,6.000000;stroke-dashoffset:0.0;"/>
   </g>
   <g id="patch_3">
    <path d="M 45 36 
L 324 36 
" style="fill:none;stroke:#000000;stroke-linecap:square;stroke-linejoin:miter;"/>
   </g>
   <g id="patch_4">
    <path d="M 324 315 
L 324 36 
" style="fill:none;stroke:#000000;stroke-linecap:square;stroke-linejoin:miter;"/>
   </g>
   <g id="patch_5">
    <path d="M 45 315 
L 324 315 
" style="fill:none;stroke:#000000;stroke-linecap:square;stroke-linejoin:miter;"/>
   </g>
   <g id="patch_6">
    <path d="M 45 315 
L 45 36 
" style="fill:none;stroke:#000000;stroke-linecap:square;stroke-linejoin:miter;"/>
   </g>
   <g id="matplotlib.axis_1">
    <g id="xtick_1">
     <g id="line2d_3">
      <defs>
       <path d="M 0 0 
L 0 -4 
" id="m786661e636" style="stroke:#000000;stroke-width:0.5;"/>
      </defs>
      <g>
       <use style="stroke:#000000;stroke-width:0.5;" x="45.0" xlink:href="#m786661e636" y="315.0"/>
      </g>
     </g>
     <g id="line2d_4">
      <defs>
       <path d="M 0 0 
L 0 4 
" id="m6bf9ddf4de" style="stroke:#000000;stroke-width:0.5;"/>
      </defs>
      <g>
       <use style="stroke:#000000;stroke-width:0.5;" x="45.0" xlink:href="#m6bf9ddf4de" y="36.0"/>
      </g>
     </g>
     <g id="text_1">
      <!-- 100 -->
      <defs>
       <path d="M 31.78125 66.40625 
Q 24.171875 66.40625 20.328125 58.90625 
Q 16.5 51.421875 16.5 36.375 
Q 16.5 21.390625 20.328125 13.890625 
Q 24.171875 6.390625 31.78125 6.390625 
Q 39.453125 6.390625 43.28125 13.890625 
Q 47.125 21.390625 47.125 36.375 
Q 47.125 51.421875 43.28125 58.90625 
Q 39.453125 66.40625 31.78125 66.40625 
M 31.78125 74.21875 
Q 44.046875 74.21875 50.515625 64.515625 
Q 56.984375 54.828125 56.984375 36.375 
Q 56.984375 17.96875 50.515625 8.265625 
Q 44.046875 -1.421875 31.78125 -1.421875 
Q 19.53125 -1.421875 13.0625 8.265625 
Q 6.59375 17.96875 6.59375 36.375 
Q 6.59375 54.828125 13.0625 64.515625 
Q 19.53125 74.21875 31.78125 74.21875 
" id="BitstreamVeraSans-Roman-30"/>
       <path d="M 12.40625 8.296875 
L 28.515625 8.296875 
L 28.515625 63.921875 
L 10.984375 60.40625 
L 10.984375 69.390625 
L 28.421875 72.90625 
L 38.28125 72.90625 
L 38.28125 8.296875 
L 54.390625 8.296875 
L 54.390625 0 
L 12.40625 0 
z
" id="BitstreamVeraSans-Roman-31"/>
      </defs>
      <g transform="translate(35.45625 326.5984375)scale(0.1 -0.1)">
       <use xlink:href="#BitstreamVeraSans-Roman-31"/>
       <use x="63.623046875" xlink:href="#BitstreamVeraSans-Roman-30"/>
       <use x="127.24609375" xlink:href="#BitstreamVeraSans-Roman-30"/>
      </g>
     </g>
    </g>
    <g id="xtick_2">
     <g id="line2d_5">
      <g>
       <use style="stroke:#000000;stroke-width:0.5;" x="91.5" xlink:href="#m786661e636" y="315.0"/>
      </g>
     </g>
     <g id="line2d_6">
      <g>
       <use style="stroke:#000000;stroke-width:0.5;" x="91.5" xlink:href="#m6bf9ddf4de" y="36.0"/>
      </g>
     </g>
     <g id="text_2">
      <!-- 200 -->
      <defs>
       <path d="M 19.1875 8.296875 
L 53.609375 8.296875 
L 53.609375 0 
L 7.328125 0 
L 7.328125 8.296875 
Q 12.9375 14.109375 22.625 23.890625 
Q 32.328125 33.6875 34.8125 36.53125 
Q 39.546875 41.84375 41.421875 45.53125 
Q 43.3125 49.21875 43.3125 52.78125 
Q 43.3125 58.59375 39.234375 62.25 
Q 35.15625 65.921875 28.609375 65.921875 
Q 23.96875 65.921875 18.8125 64.3125 
Q 13.671875 62.703125 7.8125 59.421875 
L 7.8125 69.390625 
Q 13.765625 71.78125 18.9375 73 
Q 24.125 74.21875 28.421875 74.21875 
Q 39.75 74.21875 46.484375 68.546875 
Q 53.21875 62.890625 53.21875 53.421875 
Q 53.21875 48.921875 51.53125 44.890625 
Q 49.859375 40.875 45.40625 35.40625 
Q 44.1875 33.984375 37.640625 27.21875 
Q 31.109375 20.453125 19.1875 8.296875 
" id="BitstreamVeraSans-Roman-32"/>
      </defs>
      <g transform="translate(81.95625 326.5984375)scale(0.1 -0.1)">
       <use xlink:href="#BitstreamVeraSans-Roman-32"/>
       <use x="63.623046875" xlink:href="#BitstreamVeraSans-Roman-30"/>
       <use x="127.24609375" xlink:href="#BitstreamVeraSans-Roman-30"/>
      </g>
     </g>
    </g>
    <g id="xtick_3">
     <g id="line2d_7">
      <g>
       <use style="stroke:#000000;stroke-width:0.5;" x="138.0" xlink:href="#m786661e636" y="315.0"/>
      </g>
     </g>
     <g id="line2d_8">
      <g>
       <use style="stroke:#000000;stroke-width:0.5;" x="138.0" xlink:href="#m6bf9ddf4de" y="36.0"/>
      </g>
     </g>
     <g id="text_3">
      <!-- 300 -->
      <defs>
       <path d="M 40.578125 39.3125 
Q 47.65625 37.796875 51.625 33 
Q 55.609375 28.21875 55.609375 21.1875 
Q 55.609375 10.40625 48.1875 4.484375 
Q 40.765625 -1.421875 27.09375 -1.421875 
Q 22.515625 -1.421875 17.65625 -0.515625 
Q 12.796875 0.390625 7.625 2.203125 
L 7.625 11.71875 
Q 11.71875 9.328125 16.59375 8.109375 
Q 21.484375 6.890625 26.8125 6.890625 
Q 36.078125 6.890625 40.9375 10.546875 
Q 45.796875 14.203125 45.796875 21.1875 
Q 45.796875 27.640625 41.28125 31.265625 
Q 36.765625 34.90625 28.71875 34.90625 
L 20.21875 34.90625 
L 20.21875 43.015625 
L 29.109375 43.015625 
Q 36.375 43.015625 40.234375 45.921875 
Q 44.09375 48.828125 44.09375 54.296875 
Q 44.09375 59.90625 40.109375 62.90625 
Q 36.140625 65.921875 28.71875 65.921875 
Q 24.65625 65.921875 20.015625 65.03125 
Q 15.375 64.15625 9.8125 62.3125 
L 9.8125 71.09375 
Q 15.4375 72.65625 20.34375 73.4375 
Q 25.25 74.21875 29.59375 74.21875 
Q 40.828125 74.21875 47.359375 69.109375 
Q 53.90625 64.015625 53.90625 55.328125 
Q 53.90625 49.265625 50.4375 45.09375 
Q 46.96875 40.921875 40.578125 39.3125 
" id="BitstreamVeraSans-Roman-33"/>
      </defs>
      <g transform="translate(128.45625 326.5984375)scale(0.1 -0.1)">
       <use xlink:href="#BitstreamVeraSans-Roman-33"/>
       <use x="63.623046875" xlink:href="#BitstreamVeraSans-Roman-30"/>
       <use x="127.24609375" xlink:href="#BitstreamVeraSans-Roman-30"/>
      </g>
     </g>
    </g>
    <g id="xtick_4">
     <g id="line2d_9">
      <g>
       <use style="stroke:#000000;stroke-width:0.5;" x="184.5" xlink:href="#m786661e636" y="315.0"/>
      </g>
     </g>
     <g id="line2d_10">
      <g>
       <use style="stroke:#000000;stroke-width:0.5;" x="184.5" xlink:href="#m6bf9ddf4de" y="36.0"/>
      </g>
     </g>
     <g id="text_4">
      <!-- 400 -->
      <defs>
       <path d="M 37.796875 64.3125 
L 12.890625 25.390625 
L 37.796875 25.390625 
z
M 35.203125 72.90625 
L 47.609375 72.90625 
L 47.609375 25.390625 
L 58.015625 25.390625 
L 58.015625 17.1875 
L 47.609375 17.1875 
L 47.609375 0 
L 37.796875 0 
L 37.796875 17.1875 
L 4.890625 17.1875 
L 4.890625 26.703125 
z
" id="BitstreamVeraSans-Roman-34"/>
      </defs>
      <g transform="translate(174.95625 326.5984375)scale(0.1 -0.1)">
       <use xlink:href="#BitstreamVeraSans-Roman-34"/>
       <use x="63.623046875" xlink:href="#BitstreamVeraSans-Roman-30"/>
       <use x="127.24609375" xlink:href="#BitstreamVeraSans-Roman-30"/>
      </g>
     </g>
    </g>
    <g id="xtick_5">
     <g id="line2d_11">
      <g>
       <use style="stroke:#000000;stroke-width:0.5;" x="231.0" xlink:href="#m786661e636" y="315.0"/>
      </g>
     </g>
     <g id="line2d_12">
      <g>
       <use style="stroke:#000000;stroke-width:0.5;" x="231.0" xlink:href="#m6bf9ddf4de" y="36.0"/>
      </g>
     </g>
     <g id="text_5">
      <!-- 500 -->
      <defs>
       <path d="M 10.796875 72.90625 
L 49.515625 72.90625 
L 49.515625 64.59375 
L 19.828125 64.59375 
L 19.828125 46.734375 
Q 21.96875 47.46875 24.109375 47.828125 
Q 26.265625 48.1875 28.421875 48.1875 
Q 40.625 48.1875 47.75 41.5 
Q 54.890625 34.8125 54.890625 23.390625 
Q 54.890625 11.625 47.5625 5.09375 
Q 40.234375 -1.421875 26.90625 -1.421875 
Q 22.3125 -1.421875 17.546875 -0.640625 
Q 12.796875 0.140625 7.71875 1.703125 
L 7.71875 11.625 
Q 12.109375 9.234375 16.796875 8.0625 
Q 21.484375 6.890625 26.703125 6.890625 
Q 35.15625 6.890625 40.078125 11.328125 
Q 45.015625 15.765625 45.015625 23.390625 
Q 45.015625 31 40.078125 35.4375 
Q 35.15625 39.890625 26.703125 39.890625 
Q 22.75 39.890625 18.8125 39.015625 
Q 14.890625 38.140625 10.796875 36.28125 
z
" id="BitstreamVeraSans-Roman-35"/>
      </defs>
      <g transform="translate(221.45625 326.5984375)scale(0.1 -0.1)">
       <use xlink:href="#BitstreamVeraSans-Roman-35"/>
       <use x="63.623046875" xlink:href="#BitstreamVeraSans-Roman-30"/>
       <use x="127.24609375" xlink:href="#BitstreamVeraSans-Roman-30"/>
      </g>
     </g>
    </g>
    <g id="xtick_6">
     <g id="line2d_13">
      <g>
       <use style="stroke:#000000;stroke-width:0.5;" x="277.5" xlink:href="#m786661e636" y="315.0"/>
      </g>
     </g>
     <g id="line2d_14">
      <g>
       <use style="stroke:#000000;stroke-width:0.5;" x="277.5" xlink:href="#m6bf9ddf4de" y="36.0"/>
      </g>
     </g>
     <g id="text_6">
      <!-- 600 -->
      <defs>
       <path d="M 33.015625 40.375 
Q 26.375 40.375 22.484375 35.828125 
Q 18.609375 31.296875 18.609375 23.390625 
Q 18.609375 15.53125 22.484375 10.953125 
Q 26.375 6.390625 33.015625 6.390625 
Q 39.65625 6.390625 43.53125 10.953125 
Q 47.40625 15.53125 47.40625 23.390625 
Q 47.40625 31.296875 43.53125 35.828125 
Q 39.65625 40.375 33.015625 40.375 
M 52.59375 71.296875 
L 52.59375 62.3125 
Q 48.875 64.0625 45.09375 64.984375 
Q 41.3125 65.921875 37.59375 65.921875 
Q 27.828125 65.921875 22.671875 59.328125 
Q 17.53125 52.734375 16.796875 39.40625 
Q 19.671875 43.65625 24.015625 45.921875 
Q 28.375 48.1875 33.59375 48.1875 
Q 44.578125 48.1875 50.953125 41.515625 
Q 57.328125 34.859375 57.328125 23.390625 
Q 57.328125 12.15625 50.6875 5.359375 
Q 44.046875 -1.421875 33.015625 -1.421875 
Q 20.359375 -1.421875 13.671875 8.265625 
Q 6.984375 17.96875 6.984375 36.375 
Q 6.984375 53.65625 15.1875 63.9375 
Q 23.390625 74.21875 37.203125 74.21875 
Q 40.921875 74.21875 44.703125 73.484375 
Q 48.484375 72.75 52.59375 71.296875 
" id="BitstreamVeraSans-Roman-36"/>
      </defs>
      <g transform="translate(267.95625 326.5984375)scale(0.1 -0.1)">
       <use xlink:href="#BitstreamVeraSans-Roman-36"/>
       <use x="63.623046875" xlink:href="#BitstreamVeraSans-Roman-30"/>
       <use x="127.24609375" xlink:href="#BitstreamVeraSans-Roman-30"/>
      </g>
     </g>
    </g>
    <g id="xtick_7">
     <g id="line2d_15">
      <g>
       <use style="stroke:#000000;stroke-width:0.5;" x="324.0" xlink:href="#m786661e636" y="315.0"/>
      </g>
     </g>
     <g id="line2d_16">
      <g>
       <use style="stroke:#000000;stroke-width:0.5;" x="324.0" xlink:href="#m6bf9ddf4de" y="36.0"/>
      </g>
     </g>
     <g id="text_7">
      <!-- 700 -->
      <defs>
       <path d="M 8.203125 72.90625 
L 55.078125 72.90625 
L 55.078125 68.703125 
L 28.609375 0 
L 18.3125 0 
L 43.21875 64.59375 
L 8.203125 64.59375 
z
" id="BitstreamVeraSans-Roman-37"/>
      </defs>
      <g transform="translate(314.45625 326.5984375)scale(0.1 -0.1)">
       <use xlink:href="#BitstreamVeraSans-Roman-37"/>
       <use x="63.623046875" xlink:href="#BitstreamVeraSans-Roman-30"/>
       <use x="127.24609375" xlink:href="#BitstreamVeraSans-Roman-30"/>
      </g>
     </g>
    </g>
    <g id="text_8">
     <!-- Temperature C -->
     <defs>
      <path id="BitstreamVeraSans-Roman-20"/>
      <path d="M 41.109375 46.296875 
Q 39.59375 47.171875 37.8125 47.578125 
Q 36.03125 48 33.890625 48 
Q 26.265625 48 22.1875 43.046875 
Q 18.109375 38.09375 18.109375 28.8125 
L 18.109375 0 
L 9.078125 0 
L 9.078125 54.6875 
L 18.109375 54.6875 
L 18.109375 46.1875 
Q 20.953125 51.171875 25.484375 53.578125 
Q 30.03125 56 36.53125 56 
Q 37.453125 56 38.578125 55.875 
Q 39.703125 55.765625 41.0625 55.515625 
z
" id="BitstreamVeraSans-Roman-72"/>
      <path d="M 52 44.1875 
Q 55.375 50.25 60.0625 53.125 
Q 64.75 56 71.09375 56 
Q 79.640625 56 84.28125 50.015625 
Q 88.921875 44.046875 88.921875 33.015625 
L 88.921875 0 
L 79.890625 0 
L 79.890625 32.71875 
Q 79.890625 40.578125 77.09375 44.375 
Q 74.3125 48.1875 68.609375 48.1875 
Q 61.625 48.1875 57.5625 43.546875 
Q 53.515625 38.921875 53.515625 30.90625 
L 53.515625 0 
L 44.484375 0 
L 44.484375 32.71875 
Q 44.484375 40.625 41.703125 44.40625 
Q 38.921875 48.1875 33.109375 48.1875 
Q 26.21875 48.1875 22.15625 43.53125 
Q 18.109375 38.875 18.109375 30.90625 
L 18.109375 0 
L 9.078125 0 
L 9.078125 54.6875 
L 18.109375 54.6875 
L 18.109375 46.1875 
Q 21.1875 51.21875 25.484375 53.609375 
Q 29.78125 56 35.6875 56 
Q 41.65625 56 45.828125 52.96875 
Q 50 49.953125 52 44.1875 
" id="BitstreamVeraSans-Roman-6d"/>
      <path d="M -0.296875 72.90625 
L 61.375 72.90625 
L 61.375 64.59375 
L 35.5 64.59375 
L 35.5 0 
L 25.59375 0 
L 25.59375 64.59375 
L -0.296875 64.59375 
z
" id="BitstreamVeraSans-Roman-54"/>
      <path d="M 56.203125 29.59375 
L 56.203125 25.203125 
L 14.890625 25.203125 
Q 15.484375 15.921875 20.484375 11.0625 
Q 25.484375 6.203125 34.421875 6.203125 
Q 39.59375 6.203125 44.453125 7.46875 
Q 49.3125 8.734375 54.109375 11.28125 
L 54.109375 2.78125 
Q 49.265625 0.734375 44.1875 -0.34375 
Q 39.109375 -1.421875 33.890625 -1.421875 
Q 20.796875 -1.421875 13.15625 6.1875 
Q 5.515625 13.8125 5.515625 26.8125 
Q 5.515625 40.234375 12.765625 48.109375 
Q 20.015625 56 32.328125 56 
Q 43.359375 56 49.78125 48.890625 
Q 56.203125 41.796875 56.203125 29.59375 
M 47.21875 32.234375 
Q 47.125 39.59375 43.09375 43.984375 
Q 39.0625 48.390625 32.421875 48.390625 
Q 24.90625 48.390625 20.390625 44.140625 
Q 15.875 39.890625 15.1875 32.171875 
z
" id="BitstreamVeraSans-Roman-65"/>
      <path d="M 64.40625 67.28125 
L 64.40625 56.890625 
Q 59.421875 61.53125 53.78125 63.8125 
Q 48.140625 66.109375 41.796875 66.109375 
Q 29.296875 66.109375 22.65625 58.46875 
Q 16.015625 50.828125 16.015625 36.375 
Q 16.015625 21.96875 22.65625 14.328125 
Q 29.296875 6.6875 41.796875 6.6875 
Q 48.140625 6.6875 53.78125 8.984375 
Q 59.421875 11.28125 64.40625 15.921875 
L 64.40625 5.609375 
Q 59.234375 2.09375 53.4375 0.328125 
Q 47.65625 -1.421875 41.21875 -1.421875 
Q 24.65625 -1.421875 15.125 8.703125 
Q 5.609375 18.84375 5.609375 36.375 
Q 5.609375 53.953125 15.125 64.078125 
Q 24.65625 74.21875 41.21875 74.21875 
Q 47.75 74.21875 53.53125 72.484375 
Q 59.328125 70.75 64.40625 67.28125 
" id="BitstreamVeraSans-Roman-43"/>
      <path d="M 18.3125 70.21875 
L 18.3125 54.6875 
L 36.8125 54.6875 
L 36.8125 47.703125 
L 18.3125 47.703125 
L 18.3125 18.015625 
Q 18.3125 11.328125 20.140625 9.421875 
Q 21.96875 7.515625 27.59375 7.515625 
L 36.8125 7.515625 
L 36.8125 0 
L 27.59375 0 
Q 17.1875 0 13.234375 3.875 
Q 9.28125 7.765625 9.28125 18.015625 
L 9.28125 47.703125 
L 2.6875 47.703125 
L 2.6875 54.6875 
L 9.28125 54.6875 
L 9.28125 70.21875 
z
" id="BitstreamVeraSans-Roman-74"/>
      <path d="M 8.5 21.578125 
L 8.5 54.6875 
L 17.484375 54.6875 
L 17.484375 21.921875 
Q 17.484375 14.15625 20.5 10.265625 
Q 23.53125 6.390625 29.59375 6.390625 
Q 36.859375 6.390625 41.078125 11.03125 
Q 45.3125 15.671875 45.3125 23.6875 
L 45.3125 54.6875 
L 54.296875 54.6875 
L 54.296875 0 
L 45.3125 0 
L 45.3125 8.40625 
Q 42.046875 3.421875 37.71875 1 
Q 33.40625 -1.421875 27.6875 -1.421875 
Q 18.265625 -1.421875 13.375 4.4375 
Q 8.5 10.296875 8.5 21.578125 
" id="BitstreamVeraSans-Roman-75"/>
      <path d="M 34.28125 27.484375 
Q 23.390625 27.484375 19.1875 25 
Q 14.984375 22.515625 14.984375 16.5 
Q 14.984375 11.71875 18.140625 8.90625 
Q 21.296875 6.109375 26.703125 6.109375 
Q 34.1875 6.109375 38.703125 11.40625 
Q 43.21875 16.703125 43.21875 25.484375 
L 43.21875 27.484375 
z
M 52.203125 31.203125 
L 52.203125 0 
L 43.21875 0 
L 43.21875 8.296875 
Q 40.140625 3.328125 35.546875 0.953125 
Q 30.953125 -1.421875 24.3125 -1.421875 
Q 15.921875 -1.421875 10.953125 3.296875 
Q 6 8.015625 6 15.921875 
Q 6 25.140625 12.171875 29.828125 
Q 18.359375 34.515625 30.609375 34.515625 
L 43.21875 34.515625 
L 43.21875 35.40625 
Q 43.21875 41.609375 39.140625 45 
Q 35.0625 48.390625 27.6875 48.390625 
Q 23 48.390625 18.546875 47.265625 
Q 14.109375 46.140625 10.015625 43.890625 
L 10.015625 52.203125 
Q 14.9375 54.109375 19.578125 55.046875 
Q 24.21875 56 28.609375 56 
Q 40.484375 56 46.34375 49.84375 
Q 52.203125 43.703125 52.203125 31.203125 
" id="BitstreamVeraSans-Roman-61"/>
      <path d="M 18.109375 8.203125 
L 18.109375 -20.796875 
L 9.078125 -20.796875 
L 9.078125 54.6875 
L 18.109375 54.6875 
L 18.109375 46.390625 
Q 20.953125 51.265625 25.265625 53.625 
Q 29.59375 56 35.59375 56 
Q 45.5625 56 51.78125 48.09375 
Q 58.015625 40.1875 58.015625 27.296875 
Q 58.015625 14.40625 51.78125 6.484375 
Q 45.5625 -1.421875 35.59375 -1.421875 
Q 29.59375 -1.421875 25.265625 0.953125 
Q 20.953125 3.328125 18.109375 8.203125 
M 48.6875 27.296875 
Q 48.6875 37.203125 44.609375 42.84375 
Q 40.53125 48.484375 33.40625 48.484375 
Q 26.265625 48.484375 22.1875 42.84375 
Q 18.109375 37.203125 18.109375 27.296875 
Q 18.109375 17.390625 22.1875 11.75 
Q 26.265625 6.109375 33.40625 6.109375 
Q 40.53125 6.109375 44.609375 11.75 
Q 48.6875 17.390625 48.6875 27.296875 
" id="BitstreamVeraSans-Roman-70"/>
     </defs>
     <g transform="translate(146.80234375 341.2765625)scale(0.1 -0.1)">
      <use xlink:href="#BitstreamVeraSans-Roman-54"/>
      <use x="60.818359375" xlink:href="#BitstreamVeraSans-Roman-65"/>
      <use x="122.341796875" xlink:href="#BitstreamVeraSans-Roman-6d"/>
      <use x="219.75390625" xlink:href="#BitstreamVeraSans-Roman-70"/>
      <use x="283.23046875" xlink:href="#BitstreamVeraSans-Roman-65"/>
      <use x="344.75390625" xlink:href="#BitstreamVeraSans-Roman-72"/>
      <use x="385.8671875" xlink:href="#BitstreamVeraSans-Roman-61"/>
      <use x="447.146484375" xlink:href="#BitstreamVeraSans-Roman-74"/>
      <use x="486.35546875" xlink:href="#BitstreamVeraSans-Roman-75"/>
      <use x="549.734375" xlink:href="#BitstreamVeraSans-Roman-72"/>
      <use x="590.81640625" xlink:href="#BitstreamVeraSans-Roman-65"/>
      <use x="652.33984375" xlink:href="#BitstreamVeraSans-Roman-20"/>
      <use x="684.126953125" xlink:href="#BitstreamVeraSans-Roman-43"/>
     </g>
    </g>
   </g>
   <g id="matplotlib.axis_2">
    <g id="ytick_1">
     <g id="line2d_17">
      <defs>
       <path d="M 0 0 
L 4 0 
" id="mf02a05754c" style="stroke:#000000;stroke-width:0.5;"/>
      </defs>
      <g>
       <use style="stroke:#000000;stroke-width:0.5;" x="45.0" xlink:href="#mf02a05754c" y="315.0"/>
      </g>
     </g>
     <g id="line2d_18">
      <defs>
       <path d="M 0 0 
L -4 0 
" id="mf03dd2dbed" style="stroke:#000000;stroke-width:0.5;"/>
      </defs>
      <g>
       <use style="stroke:#000000;stroke-width:0.5;" x="324.0" xlink:href="#mf03dd2dbed" y="315.0"/>
      </g>
     </g>
     <g id="text_9">
      <!-- −0.04 -->
      <defs>
       <path d="M 10.59375 35.5 
L 73.1875 35.5 
L 73.1875 27.203125 
L 10.59375 27.203125 
z
" id="BitstreamVeraSans-Roman-2212"/>
       <path d="M 10.6875 12.40625 
L 21 12.40625 
L 21 0 
L 10.6875 0 
z
" id="BitstreamVeraSans-Roman-2e"/>
      </defs>
      <g transform="translate(10.3546875 317.759375)scale(0.1 -0.1)">
       <use xlink:href="#BitstreamVeraSans-Roman-2212"/>
       <use x="83.7890625" xlink:href="#BitstreamVeraSans-Roman-30"/>
       <use x="147.412109375" xlink:href="#BitstreamVeraSans-Roman-2e"/>
       <use x="179.19921875" xlink:href="#BitstreamVeraSans-Roman-30"/>
       <use x="242.822265625" xlink:href="#BitstreamVeraSans-Roman-34"/>
      </g>
     </g>
    </g>
    <g id="ytick_2">
     <g id="line2d_19">
      <g>
       <use style="stroke:#000000;stroke-width:0.5;" x="45.0" xlink:href="#mf02a05754c" y="259.2"/>
      </g>
     </g>
     <g id="line2d_20">
      <g>
       <use style="stroke:#000000;stroke-width:0.5;" x="324.0" xlink:href="#mf03dd2dbed" y="259.2"/>
      </g>
     </g>
     <g id="text_10">
      <!-- −0.03 -->
      <g transform="translate(10.3546875 261.959375)scale(0.1 -0.1)">
       <use xlink:href="#BitstreamVeraSans-Roman-2212"/>
       <use x="83.7890625" xlink:href="#BitstreamVeraSans-Roman-30"/>
       <use x="147.412109375" xlink:href="#BitstreamVeraSans-Roman-2e"/>
       <use x="179.19921875" xlink:href="#BitstreamVeraSans-Roman-30"/>
       <use x="242.822265625" xlink:href="#BitstreamVeraSans-Roman-33"/>
      </g>
     </g>
    </g>
    <g id="ytick_3">
     <g id="line2d_21">
      <g>
       <use style="stroke:#000000;stroke-width:0.5;" x="45.0" xlink:href="#mf02a05754c" y="203.4"/>
      </g>
     </g>
     <g id="line2d_22">
      <g>
       <use style="stroke:#000000;stroke-width:0.5;" x="324.0" xlink:href="#mf03dd2dbed" y="203.4"/>
      </g>
     </g>
     <g id="text_11">
      <!-- −0.02 -->
      <g transform="translate(10.3546875 206.159375)scale(0.1 -0.1)">
       <use xlink:href="#BitstreamVeraSans-Roman-2212"/>
       <use x="83.7890625" xlink:href="#BitstreamVeraSans-Roman-30"/>
       <use x="147.412109375" xlink:href="#BitstreamVeraSans-Roman-2e"/>
       <use x="179.19921875" xlink:href="#BitstreamVeraSans-Roman-30"/>
       <use x="242.822265625" xlink:href="#BitstreamVeraSans-Roman-32"/>
      </g>
     </g>
    </g>
    <g id="ytick_4">
     <g id="line2d_23">
      <g>
       <use style="stroke:#000000;stroke-width:0.5;" x="45.0" xlink:href="#mf02a05754c" y="147.6"/>
      </g>
     </g>
     <g id="line2d_24">
      <g>
       <use style="stroke:#000000;stroke-width:0.5;" x="324.0" xlink:href="#mf03dd2dbed" y="147.6"/>
      </g>
     </g>
     <g id="text_12">
      <!-- −0.01 -->
      <g transform="translate(10.3546875 150.359375)scale(0.1 -0.1)">
       <use xlink:href="#BitstreamVeraSans-Roman-2212"/>
       <use x="83.7890625" xlink:href="#BitstreamVeraSans-Roman-30"/>
       <use x="147.412109375" xlink:href="#BitstreamVeraSans-Roman-2e"/>
       <use x="179.19921875" xlink:href="#BitstreamVeraSans-Roman-30"/>
       <use x="242.822265625" xlink:href="#BitstreamVeraSans-Roman-31"/>
      </g>
     </g>
    </g>
    <g id="ytick_5">
     <g id="line2d_25">
      <g>
       <use style="stroke:#000000;stroke-width:0.5;" x="45.0" xlink:href="#mf02a05754c" y="91.8"/>
      </g>
     </g>
     <g id="line2d_26">
      <g>
       <use style="stroke:#000000;stroke-width:0.5;" x="324.0" xlink:href="#mf03dd2dbed" y="91.8"/>
      </g>
     </g>
     <g id="text_13">
      <!-- 0.00 -->
      <g transform="translate(18.734375 94.559375)scale(0.1 -0.1)">
       <use xlink:href="#BitstreamVeraSans-Roman-30"/>
       <use x="63.623046875" xlink:href="#BitstreamVeraSans-Roman-2e"/>
       <use x="95.41015625" xlink:href="#BitstreamVeraSans-Roman-30"/>
       <use x="159.033203125" xlink:href="#BitstreamVeraSans-Roman-30"/>
      </g>
     </g>
    </g>
    <g id="ytick_6">
     <g id="line2d_27">
      <g>
       <use style="stroke:#000000;stroke-width:0.5;" x="45.0" xlink:href="#mf02a05754c" y="36.0"/>
      </g>
     </g>
     <g id="line2d_28">
      <g>
       <use style="stroke:#000000;stroke-width:0.5;" x="324.0" xlink:href="#mf03dd2dbed" y="36.0"/>
      </g>
     </g>
     <g id="text_14">
      <!-- 0.01 -->
      <g transform="translate(18.734375 38.759375)scale(0.1 -0.1)">
       <use xlink:href="#BitstreamVeraSans-Roman-30"/>
       <use x="63.623046875" xlink:href="#BitstreamVeraSans-Roman-2e"/>
       <use x="95.41015625" xlink:href="#BitstreamVeraSans-Roman-30"/>
       <use x="159.033203125" xlink:href="#BitstreamVeraSans-Roman-31"/>
      </g>
     </g>
    </g>
   </g>
   <g id="text_15">
    <!-- 1st derivative (sliding window=3) -->
    <defs>
     <path d="M 54.890625 33.015625 
L 54.890625 0 
L 45.90625 0 
L 45.90625 32.71875 
Q 45.90625 40.484375 42.875 44.328125 
Q 39.84375 48.1875 33.796875 48.1875 
Q 26.515625 48.1875 22.3125 43.546875 
Q 18.109375 38.921875 18.109375 30.90625 
L 18.109375 0 
L 9.078125 0 
L 9.078125 54.6875 
L 18.109375 54.6875 
L 18.109375 46.1875 
Q 21.34375 51.125 25.703125 53.5625 
Q 30.078125 56 35.796875 56 
Q 45.21875 56 50.046875 50.171875 
Q 54.890625 44.34375 54.890625 33.015625 
" id="BitstreamVeraSans-Roman-6e"/>
     <path d="M 31 75.875 
Q 24.46875 64.65625 21.28125 53.65625 
Q 18.109375 42.671875 18.109375 31.390625 
Q 18.109375 20.125 21.3125 9.0625 
Q 24.515625 -2 31 -13.1875 
L 23.1875 -13.1875 
Q 15.875 -1.703125 12.234375 9.375 
Q 8.59375 20.453125 8.59375 31.390625 
Q 8.59375 42.28125 12.203125 53.3125 
Q 15.828125 64.359375 23.1875 75.875 
z
" id="BitstreamVeraSans-Roman-28"/>
     <path d="M 30.609375 48.390625 
Q 23.390625 48.390625 19.1875 42.75 
Q 14.984375 37.109375 14.984375 27.296875 
Q 14.984375 17.484375 19.15625 11.84375 
Q 23.34375 6.203125 30.609375 6.203125 
Q 37.796875 6.203125 41.984375 11.859375 
Q 46.1875 17.53125 46.1875 27.296875 
Q 46.1875 37.015625 41.984375 42.703125 
Q 37.796875 48.390625 30.609375 48.390625 
M 30.609375 56 
Q 42.328125 56 49.015625 48.375 
Q 55.71875 40.765625 55.71875 27.296875 
Q 55.71875 13.875 49.015625 6.21875 
Q 42.328125 -1.421875 30.609375 -1.421875 
Q 18.84375 -1.421875 12.171875 6.21875 
Q 5.515625 13.875 5.515625 27.296875 
Q 5.515625 40.765625 12.171875 48.375 
Q 18.84375 56 30.609375 56 
" id="BitstreamVeraSans-Roman-6f"/>
     <path d="M 9.421875 75.984375 
L 18.40625 75.984375 
L 18.40625 0 
L 9.421875 0 
z
" id="BitstreamVeraSans-Roman-6c"/>
     <path d="M 8.015625 75.875 
L 15.828125 75.875 
Q 23.140625 64.359375 26.78125 53.3125 
Q 30.421875 42.28125 30.421875 31.390625 
Q 30.421875 20.453125 26.78125 9.375 
Q 23.140625 -1.703125 15.828125 -13.1875 
L 8.015625 -13.1875 
Q 14.5 -2 17.703125 9.0625 
Q 20.90625 20.125 20.90625 31.390625 
Q 20.90625 42.671875 17.703125 53.65625 
Q 14.5 64.65625 8.015625 75.875 
" id="BitstreamVeraSans-Roman-29"/>
     <path d="M 9.421875 54.6875 
L 18.40625 54.6875 
L 18.40625 0 
L 9.421875 0 
z
M 9.421875 75.984375 
L 18.40625 75.984375 
L 18.40625 64.59375 
L 9.421875 64.59375 
z
" id="BitstreamVeraSans-Roman-69"/>
     <path d="M 10.59375 45.40625 
L 73.1875 45.40625 
L 73.1875 37.203125 
L 10.59375 37.203125 
z
M 10.59375 25.484375 
L 73.1875 25.484375 
L 73.1875 17.1875 
L 10.59375 17.1875 
z
" id="BitstreamVeraSans-Roman-3d"/>
     <path d="M 4.203125 54.6875 
L 13.1875 54.6875 
L 24.421875 12.015625 
L 35.59375 54.6875 
L 46.1875 54.6875 
L 57.421875 12.015625 
L 68.609375 54.6875 
L 77.59375 54.6875 
L 63.28125 0 
L 52.6875 0 
L 40.921875 44.828125 
L 29.109375 0 
L 18.5 0 
z
" id="BitstreamVeraSans-Roman-77"/>
     <path d="M 2.984375 54.6875 
L 12.5 54.6875 
L 29.59375 8.796875 
L 46.6875 54.6875 
L 56.203125 54.6875 
L 35.6875 0 
L 23.484375 0 
z
" id="BitstreamVeraSans-Roman-76"/>
     <path d="M 45.40625 46.390625 
L 45.40625 75.984375 
L 54.390625 75.984375 
L 54.390625 0 
L 45.40625 0 
L 45.40625 8.203125 
Q 42.578125 3.328125 38.25 0.953125 
Q 33.9375 -1.421875 27.875 -1.421875 
Q 17.96875 -1.421875 11.734375 6.484375 
Q 5.515625 14.40625 5.515625 27.296875 
Q 5.515625 40.1875 11.734375 48.09375 
Q 17.96875 56 27.875 56 
Q 33.9375 56 38.25 53.625 
Q 42.578125 51.265625 45.40625 46.390625 
M 14.796875 27.296875 
Q 14.796875 17.390625 18.875 11.75 
Q 22.953125 6.109375 30.078125 6.109375 
Q 37.203125 6.109375 41.296875 11.75 
Q 45.40625 17.390625 45.40625 27.296875 
Q 45.40625 37.203125 41.296875 42.84375 
Q 37.203125 48.484375 30.078125 48.484375 
Q 22.953125 48.484375 18.875 42.84375 
Q 14.796875 37.203125 14.796875 27.296875 
" id="BitstreamVeraSans-Roman-64"/>
     <path d="M 45.40625 27.984375 
Q 45.40625 37.75 41.375 43.109375 
Q 37.359375 48.484375 30.078125 48.484375 
Q 22.859375 48.484375 18.828125 43.109375 
Q 14.796875 37.75 14.796875 27.984375 
Q 14.796875 18.265625 18.828125 12.890625 
Q 22.859375 7.515625 30.078125 7.515625 
Q 37.359375 7.515625 41.375 12.890625 
Q 45.40625 18.265625 45.40625 27.984375 
M 54.390625 6.78125 
Q 54.390625 -7.171875 48.1875 -13.984375 
Q 42 -20.796875 29.203125 -20.796875 
Q 24.46875 -20.796875 20.265625 -20.09375 
Q 16.0625 -19.390625 12.109375 -17.921875 
L 12.109375 -9.1875 
Q 16.0625 -11.328125 19.921875 -12.34375 
Q 23.78125 -13.375 27.78125 -13.375 
Q 36.625 -13.375 41.015625 -8.765625 
Q 45.40625 -4.15625 45.40625 5.171875 
L 45.40625 9.625 
Q 42.625 4.78125 38.28125 2.390625 
Q 33.9375 0 27.875 0 
Q 17.828125 0 11.671875 7.65625 
Q 5.515625 15.328125 5.515625 27.984375 
Q 5.515625 40.671875 11.671875 48.328125 
Q 17.828125 56 27.875 56 
Q 33.9375 56 38.28125 53.609375 
Q 42.625 51.21875 45.40625 46.390625 
L 45.40625 54.6875 
L 54.390625 54.6875 
z
" id="BitstreamVeraSans-Roman-67"/>
     <path d="M 44.28125 53.078125 
L 44.28125 44.578125 
Q 40.484375 46.53125 36.375 47.5 
Q 32.28125 48.484375 27.875 48.484375 
Q 21.1875 48.484375 17.84375 46.4375 
Q 14.5 44.390625 14.5 40.28125 
Q 14.5 37.15625 16.890625 35.375 
Q 19.28125 33.59375 26.515625 31.984375 
L 29.59375 31.296875 
Q 39.15625 29.25 43.1875 25.515625 
Q 47.21875 21.78125 47.21875 15.09375 
Q 47.21875 7.46875 41.1875 3.015625 
Q 35.15625 -1.421875 24.609375 -1.421875 
Q 20.21875 -1.421875 15.453125 -0.5625 
Q 10.6875 0.296875 5.421875 2 
L 5.421875 11.28125 
Q 10.40625 8.6875 15.234375 7.390625 
Q 20.0625 6.109375 24.8125 6.109375 
Q 31.15625 6.109375 34.5625 8.28125 
Q 37.984375 10.453125 37.984375 14.40625 
Q 37.984375 18.0625 35.515625 20.015625 
Q 33.0625 21.96875 24.703125 23.78125 
L 21.578125 24.515625 
Q 13.234375 26.265625 9.515625 29.90625 
Q 5.8125 33.546875 5.8125 39.890625 
Q 5.8125 47.609375 11.28125 51.796875 
Q 16.75 56 26.8125 56 
Q 31.78125 56 36.171875 55.265625 
Q 40.578125 54.546875 44.28125 53.078125 
" id="BitstreamVeraSans-Roman-73"/>
    </defs>
    <g transform="translate(83.521875 31.0)scale(0.12 -0.12)">
     <use xlink:href="#BitstreamVeraSans-Roman-31"/>
     <use x="63.623046875" xlink:href="#BitstreamVeraSans-Roman-73"/>
     <use x="115.72265625" xlink:href="#BitstreamVeraSans-Roman-74"/>
     <use x="154.931640625" xlink:href="#BitstreamVeraSans-Roman-20"/>
     <use x="186.71875" xlink:href="#BitstreamVeraSans-Roman-64"/>
     <use x="250.1953125" xlink:href="#BitstreamVeraSans-Roman-65"/>
     <use x="311.71875" xlink:href="#BitstreamVeraSans-Roman-72"/>
     <use x="352.83203125" xlink:href="#BitstreamVeraSans-Roman-69"/>
     <use x="380.615234375" xlink:href="#BitstreamVeraSans-Roman-76"/>
     <use x="439.794921875" xlink:href="#BitstreamVeraSans-Roman-61"/>
     <use x="501.07421875" xlink:href="#BitstreamVeraSans-Roman-74"/>
     <use x="540.283203125" xlink:href="#BitstreamVeraSans-Roman-69"/>
     <use x="568.06640625" xlink:href="#BitstreamVeraSans-Roman-76"/>
     <use x="627.24609375" xlink:href="#BitstreamVeraSans-Roman-65"/>
     <use x="688.76953125" xlink:href="#BitstreamVeraSans-Roman-20"/>
     <use x="720.556640625" xlink:href="#BitstreamVeraSans-Roman-28"/>
     <use x="759.5703125" xlink:href="#BitstreamVeraSans-Roman-73"/>
     <use x="811.669921875" xlink:href="#BitstreamVeraSans-Roman-6c"/>
     <use x="839.453125" xlink:href="#BitstreamVeraSans-Roman-69"/>
     <use x="867.236328125" xlink:href="#BitstreamVeraSans-Roman-64"/>
     <use x="930.712890625" xlink:href="#BitstreamVeraSans-Roman-69"/>
     <use x="958.49609375" xlink:href="#BitstreamVeraSans-Roman-6e"/>
     <use x="1021.875" xlink:href="#BitstreamVeraSans-Roman-67"/>
     <use x="1085.3515625" xlink:href="#BitstreamVeraSans-Roman-20"/>
     <use x="1117.13867188" xlink:href="#BitstreamVeraSans-Roman-77"/>
     <use x="1198.92578125" xlink:href="#BitstreamVeraSans-Roman-69"/>
     <use x="1226.70898438" xlink:href="#BitstreamVeraSans-Roman-6e"/>
     <use x="1290.08789062" xlink:href="#BitstreamVeraSans-Roman-64"/>
     <use x="1353.56445312" xlink:href="#BitstreamVeraSans-Roman-6f"/>
     <use x="1414.74609375" xlink:href="#BitstreamVeraSans-Roman-77"/>
     <use x="1496.53320312" xlink:href="#BitstreamVeraSans-Roman-3d"/>
     <use x="1580.32226562" xlink:href="#BitstreamVeraSans-Roman-33"/>
     <use x="1643.9453125" xlink:href="#BitstreamVeraSans-Roman-29"/>
    </g>
   </g>
  </g>
 </g>
 <defs>
  <clipPath id="p1c3dd60798">
   <rect height="279.0" width="279.0" x="45.0" y="36.0"/>
  </clipPath>
 </defs>
</svg>
