<?xml version="1.0" encoding="utf-8" standalone="no"?>
<!DOCTYPE svg PUBLIC "-//W3C//DTD SVG 1.1//EN"
  "http://www.w3.org/Graphics/SVG/1.1/DTD/svg11.dtd">
<!-- Created with matplotlib (http://matplotlib.org/) -->
<svg height="360pt" version="1.1" viewBox="0 0 360 360" width="360pt" xmlns="http://www.w3.org/2000/svg" xmlns:xlink="http://www.w3.org/1999/xlink">
 <defs>
  <style type="text/css">
*{stroke-linecap:butt;stroke-linejoin:round;}
  </style>
 </defs>
 <g id="figure_1">
  <g id="patch_1">
   <path d="
M0 360
L360 360
L360 0
L0 0
z
" style="fill:#ffffff;"/>
  </g>
  <g id="axes_1">
   <g id="PathCollection_1">
    <defs>
     <path d="
M0 2.23607
C0.593012 2.23607 1.16182 2.00046 1.58114 1.58114
C2.00046 1.16182 2.23607 0.593012 2.23607 0
C2.23607 -0.593012 2.00046 -1.16182 1.58114 -1.58114
C1.16182 -2.00046 0.593012 -2.23607 0 -2.23607
C-0.593012 -2.23607 -1.16182 -2.00046 -1.58114 -1.58114
C-2.00046 -1.16182 -2.23607 -0.593012 -2.23607 0
C-2.23607 0.593012 -2.00046 1.16182 -1.58114 1.58114
C-1.16182 2.00046 -0.593012 2.23607 0 2.23607
z
" id="m18a6e99b48" style="stroke:#000000;"/>
    </defs>
    <g clip-path="url(#pd0c2820aef)">
     <use style="fill:#ffffff;stroke:#000000;" x="286.335001724" xlink:href="#m18a6e99b48" y="217.889819913"/>
     <use style="fill:#ffffff;stroke:#000000;" x="243.381404816" xlink:href="#m18a6e99b48" y="215.968068346"/>
     <use style="fill:#ffffff;stroke:#000000;" x="224.683417678" xlink:href="#m18a6e99b48" y="231.421143041"/>
     <use style="fill:#ffffff;stroke:#000000;" x="253.707694548" xlink:href="#m18a6e99b48" y="217.084178188"/>
     <use style="fill:#ffffff;stroke:#000000;" x="275.377256011" xlink:href="#m18a6e99b48" y="250.947751566"/>
     <use style="fill:#ffffff;stroke:#000000;" x="269.126477325" xlink:href="#m18a6e99b48" y="200.889159942"/>
     <use style="fill:#ffffff;stroke:#000000;" x="285.977751143" xlink:href="#m18a6e99b48" y="241.905179613"/>
     <use style="fill:#ffffff;stroke:#000000;" x="288.312444269" xlink:href="#m18a6e99b48" y="252.037134832"/>
     <use style="fill:#ffffff;stroke:#000000;" x="263.372781998" xlink:href="#m18a6e99b48" y="207.206655069"/>
     <use style="fill:#ffffff;stroke:#000000;" x="284.590540102" xlink:href="#m18a6e99b48" y="227.826069843"/>
     <use style="fill:#ffffff;stroke:#000000;" x="300.390586173" xlink:href="#m18a6e99b48" y="212.485403882"/>
     <use style="fill:#ffffff;stroke:#000000;" x="277.542064313" xlink:href="#m18a6e99b48" y="190.402924148"/>
     <use style="fill:#ffffff;stroke:#000000;" x="246.507621611" xlink:href="#m18a6e99b48" y="217.010484618"/>
     <use style="fill:#ffffff;stroke:#000000;" x="228.735008641" xlink:href="#m18a6e99b48" y="215.469397445"/>
     <use style="fill:#ffffff;stroke:#000000;" x="243.993097751" xlink:href="#m18a6e99b48" y="213.109975166"/>
     <use style="fill:#ffffff;stroke:#000000;" x="253.786830587" xlink:href="#m18a6e99b48" y="188.717169814"/>
     <use style="fill:#ffffff;stroke:#000000;" x="264.766914877" xlink:href="#m18a6e99b48" y="186.637954847"/>
     <use style="fill:#ffffff;stroke:#000000;" x="232.229159329" xlink:href="#m18a6e99b48" y="205.440445205"/>
     <use style="fill:#ffffff;stroke:#000000;" x="273.060621722" xlink:href="#m18a6e99b48" y="231.269599896"/>
     <use style="fill:#ffffff;stroke:#000000;" x="245.41568569" xlink:href="#m18a6e99b48" y="228.2668222"/>
     <use style="fill:#ffffff;stroke:#000000;" x="227.774513508" xlink:href="#m18a6e99b48" y="208.825861771"/>
     <use style="fill:#ffffff;stroke:#000000;" x="224.934575521" xlink:href="#m18a6e99b48" y="201.06167755"/>
     <use style="fill:#ffffff;stroke:#000000;" x="235.206227348" xlink:href="#m18a6e99b48" y="221.639116852"/>
     <use style="fill:#ffffff;stroke:#000000;" x="237.196888134" xlink:href="#m18a6e99b48" y="218.631903165"/>
     <use style="fill:#ffffff;stroke:#000000;" x="207.456070708" xlink:href="#m18a6e99b48" y="179.012772442"/>
    </g>
   </g>
   <g id="line2d_1">
    <path clip-path="url(#pd0c2820aef)" d="
M184.5 42.6429
L186.819 42.6631
L189.137 42.7238
L193.768 42.9665
L198.387 43.3707
L202.99 43.9358
L207.57 44.6613
L212.123 45.5461
L216.641 46.5893
L221.12 47.7895
L225.555 49.1453
L229.94 50.6551
L234.269 52.317
L238.538 54.129
L242.741 56.0888
L246.873 58.1941
L250.929 60.4423
L254.904 62.8308
L258.793 65.3564
L262.591 68.0163
L266.295 70.8071
L269.899 73.7255
L273.399 76.7679
L276.79 79.9306
L280.069 83.2097
L283.232 86.6012
L286.274 90.1011
L289.193 93.705
L291.984 97.4085
L294.644 101.207
L297.169 105.096
L299.558 109.071
L301.806 113.127
L303.911 117.259
L305.871 121.462
L307.683 125.731
L309.345 130.06
L310.855 134.445
L312.21 138.88
L313.411 143.359
L314.454 147.877
L315.339 152.43
L316.064 157.01
L316.629 161.613
L317.034 166.232
L317.276 170.863
L317.357 175.5
L317.276 180.137
L317.034 184.768
L316.629 189.387
L316.064 193.99
L315.339 198.57
L314.454 203.123
L313.411 207.641
L312.21 212.12
L310.855 216.555
L309.345 220.94
L307.683 225.269
L305.871 229.538
L303.911 233.741
L301.806 237.873
L299.558 241.929
L297.169 245.904
L294.644 249.793
L291.984 253.591
L289.193 257.295
L286.274 260.899
L283.232 264.399
L280.069 267.79
L276.79 271.069
L273.399 274.232
L269.899 277.274
L266.295 280.193
L262.591 282.984
L258.793 285.644
L254.904 288.169
L250.929 290.558
L246.873 292.806
L242.741 294.911
L238.538 296.871
L234.269 298.683
L229.94 300.345
L225.555 301.855
L221.12 303.21
L216.641 304.411
L212.123 305.454
L207.57 306.339
L202.99 307.064
L198.387 307.629
L193.768 308.034
L189.137 308.276
L184.5 308.357
L179.863 308.276
L175.232 308.034
L170.613 307.629
L166.01 307.064
L161.43 306.339
L156.877 305.454
L152.359 304.411
L147.88 303.21
L143.445 301.855
L139.06 300.345
L134.731 298.683
L130.462 296.871
L126.259 294.911
L122.127 292.806
L118.071 290.558
L114.096 288.169
L110.207 285.644
L106.409 282.984
L102.705 280.193
L99.1011 277.274
L95.6012 274.232
L92.2097 271.069
L88.9306 267.79
L85.7679 264.399
L82.7255 260.899
L79.8071 257.295
L77.0163 253.591
L74.3564 249.793
L71.8308 245.904
L69.4423 241.929
L67.1941 237.873
L65.0888 233.741
L63.129 229.538
L61.317 225.269
L59.6551 220.94
L58.1453 216.555
L56.7895 212.12
L55.5893 207.641
L54.5461 203.123
L53.6613 198.57
L52.9358 193.99
L52.3707 189.387
L51.9665 184.768
L51.7238 180.137
L51.6429 175.5
L51.7238 170.863
L51.9665 166.232
L52.3707 161.613
L52.9358 157.01
L53.6613 152.43
L54.5461 147.877
L55.5893 143.359
L56.7895 138.88
L58.1453 134.445
L59.6551 130.06
L61.317 125.731
L63.129 121.462
L65.0888 117.259
L67.1941 113.127
L69.4423 109.071
L71.8308 105.096
L74.3564 101.207
L77.0163 97.4085
L79.8071 93.705
L82.7255 90.1011
L85.7679 86.6012
L88.9306 83.2097
L92.2097 79.9306
L95.6012 76.7679
L99.1011 73.7255
L102.705 70.8071
L106.409 68.0163
L110.207 65.3564
L114.096 62.8308
L118.071 60.4423
L122.127 58.1941
L126.259 56.0888
L130.462 54.129
L134.731 52.317
L139.06 50.6551
L143.445 49.1453
L147.88 47.7895
L152.359 46.5893
L156.877 45.5461
L161.43 44.6613
L166.01 43.9358
L170.613 43.3707
L175.232 42.9665
L179.863 42.7238
L184.5 42.6429
L184.5 42.6429" style="fill:none;stroke:#000000;stroke-linecap:square;"/>
   </g>
   <g id="line2d_2">
    <defs>
     <path d="
M-3 0
L3 0
M0 3
L0 -3" id="m9d0eee4805" style="stroke:#000000;stroke-width:0.5;"/>
    </defs>
    <g clip-path="url(#pd0c2820aef)">
     <use style="stroke:#000000;stroke-width:0.5;" x="184.5" xlink:href="#m9d0eee4805" y="54.7276816471"/>
     <use style="stroke:#000000;stroke-width:0.5;" x="184.5" xlink:href="#m9d0eee4805" y="67.7316564184"/>
     <use style="stroke:#000000;stroke-width:0.5;" x="184.5" xlink:href="#m9d0eee4805" y="81.5558133566"/>
     <use style="stroke:#000000;stroke-width:0.5;" x="184.5" xlink:href="#m9d0eee4805" y="96.0949422803"/>
     <use style="stroke:#000000;stroke-width:0.5;" x="184.5" xlink:href="#m9d0eee4805" y="111.238391639"/>
     <use style="stroke:#000000;stroke-width:0.5;" x="184.5" xlink:href="#m9d0eee4805" y="126.87091064"/>
     <use style="stroke:#000000;stroke-width:0.5;" x="184.5" xlink:href="#m9d0eee4805" y="142.873526374"/>
     <use style="stroke:#000000;stroke-width:0.5;" x="184.5" xlink:href="#m9d0eee4805" y="159.124449273"/>
     <use style="stroke:#000000;stroke-width:0.5;" x="184.5" xlink:href="#m9d0eee4805" y="175.5"/>
    </g>
   </g>
   <g id="line2d_3">
    <g clip-path="url(#pd0c2820aef)">
     <use style="stroke:#000000;stroke-width:0.5;" x="305.272318353" xlink:href="#m9d0eee4805" y="175.5"/>
     <use style="stroke:#000000;stroke-width:0.5;" x="292.268343582" xlink:href="#m9d0eee4805" y="175.5"/>
     <use style="stroke:#000000;stroke-width:0.5;" x="278.444186643" xlink:href="#m9d0eee4805" y="175.5"/>
     <use style="stroke:#000000;stroke-width:0.5;" x="263.90505772" xlink:href="#m9d0eee4805" y="175.5"/>
     <use style="stroke:#000000;stroke-width:0.5;" x="248.761608361" xlink:href="#m9d0eee4805" y="175.5"/>
     <use style="stroke:#000000;stroke-width:0.5;" x="233.12908936" xlink:href="#m9d0eee4805" y="175.5"/>
     <use style="stroke:#000000;stroke-width:0.5;" x="217.126473626" xlink:href="#m9d0eee4805" y="175.5"/>
     <use style="stroke:#000000;stroke-width:0.5;" x="200.875550727" xlink:href="#m9d0eee4805" y="175.5"/>
    </g>
   </g>
   <g id="line2d_4">
    <g clip-path="url(#pd0c2820aef)">
     <use style="stroke:#000000;stroke-width:0.5;" x="184.5" xlink:href="#m9d0eee4805" y="296.272318353"/>
     <use style="stroke:#000000;stroke-width:0.5;" x="184.5" xlink:href="#m9d0eee4805" y="283.268343582"/>
     <use style="stroke:#000000;stroke-width:0.5;" x="184.5" xlink:href="#m9d0eee4805" y="269.444186643"/>
     <use style="stroke:#000000;stroke-width:0.5;" x="184.5" xlink:href="#m9d0eee4805" y="254.90505772"/>
     <use style="stroke:#000000;stroke-width:0.5;" x="184.5" xlink:href="#m9d0eee4805" y="239.761608361"/>
     <use style="stroke:#000000;stroke-width:0.5;" x="184.5" xlink:href="#m9d0eee4805" y="224.12908936"/>
     <use style="stroke:#000000;stroke-width:0.5;" x="184.5" xlink:href="#m9d0eee4805" y="208.126473626"/>
     <use style="stroke:#000000;stroke-width:0.5;" x="184.5" xlink:href="#m9d0eee4805" y="191.875550727"/>
    </g>
   </g>
   <g id="line2d_5">
    <g clip-path="url(#pd0c2820aef)">
     <use style="stroke:#000000;stroke-width:0.5;" x="63.7276816471" xlink:href="#m9d0eee4805" y="175.5"/>
     <use style="stroke:#000000;stroke-width:0.5;" x="76.7316564184" xlink:href="#m9d0eee4805" y="175.5"/>
     <use style="stroke:#000000;stroke-width:0.5;" x="90.5558133566" xlink:href="#m9d0eee4805" y="175.5"/>
     <use style="stroke:#000000;stroke-width:0.5;" x="105.09494228" xlink:href="#m9d0eee4805" y="175.5"/>
     <use style="stroke:#000000;stroke-width:0.5;" x="120.238391639" xlink:href="#m9d0eee4805" y="175.5"/>
     <use style="stroke:#000000;stroke-width:0.5;" x="135.87091064" xlink:href="#m9d0eee4805" y="175.5"/>
     <use style="stroke:#000000;stroke-width:0.5;" x="151.873526374" xlink:href="#m9d0eee4805" y="175.5"/>
     <use style="stroke:#000000;stroke-width:0.5;" x="168.124449273" xlink:href="#m9d0eee4805" y="175.5"/>
    </g>
   </g>
   <g id="line2d_6">
    <path clip-path="url(#pd0c2820aef)" d="
M184.5 42.6429
L184.5 43.8073
L184.5 44.9818
L184.5 46.1662" style="fill:none;stroke:#000000;stroke-linecap:square;"/>
   </g>
   <g id="line2d_7">
    <path clip-path="url(#pd0c2820aef)" d="
M207.57 44.6613
L207.368 45.808
L207.164 46.9646
L206.959 48.131" style="fill:none;stroke:#000000;stroke-linecap:square;"/>
   </g>
   <g id="line2d_8">
    <path clip-path="url(#pd0c2820aef)" d="
M229.94 50.6551
L229.542 51.7493
L229.14 52.853
L228.735 53.966" style="fill:none;stroke:#000000;stroke-linecap:square;"/>
   </g>
   <g id="line2d_9">
    <path clip-path="url(#pd0c2820aef)" d="
M250.929 60.4423
L250.346 61.4508
L249.759 62.4679
L249.167 63.4936" style="fill:none;stroke:#000000;stroke-linecap:square;"/>
   </g>
   <g id="line2d_10">
    <path clip-path="url(#pd0c2820aef)" d="
M269.899 73.7255
L269.15 74.6175
L268.396 75.5172
L267.634 76.4245" style="fill:none;stroke:#000000;stroke-linecap:square;"/>
   </g>
   <g id="line2d_11">
    <path clip-path="url(#pd0c2820aef)" d="
M286.274 90.1011
L285.382 90.8496
L284.483 91.6045
L283.575 92.3658" style="fill:none;stroke:#000000;stroke-linecap:square;"/>
   </g>
   <g id="line2d_12">
    <path clip-path="url(#pd0c2820aef)" d="
M299.558 109.071
L298.549 109.654
L297.532 110.241
L296.506 110.833" style="fill:none;stroke:#000000;stroke-linecap:square;"/>
   </g>
   <g id="line2d_13">
    <path clip-path="url(#pd0c2820aef)" d="
M309.345 130.06
L308.251 130.458
L307.147 130.86
L306.034 131.265" style="fill:none;stroke:#000000;stroke-linecap:square;"/>
   </g>
   <g id="line2d_14">
    <path clip-path="url(#pd0c2820aef)" d="
M315.339 152.43
L314.192 152.632
L313.035 152.836
L311.869 153.041" style="fill:none;stroke:#000000;stroke-linecap:square;"/>
   </g>
   <g id="line2d_15">
    <path clip-path="url(#pd0c2820aef)" d="
M317.357 175.5
L316.193 175.5
L315.018 175.5
L313.834 175.5" style="fill:none;stroke:#000000;stroke-linecap:square;"/>
   </g>
   <g id="line2d_16">
    <path clip-path="url(#pd0c2820aef)" d="
M315.339 198.57
L314.192 198.368
L313.035 198.164
L311.869 197.959" style="fill:none;stroke:#000000;stroke-linecap:square;"/>
   </g>
   <g id="line2d_17">
    <path clip-path="url(#pd0c2820aef)" d="
M309.345 220.94
L308.251 220.542
L307.147 220.14
L306.034 219.735" style="fill:none;stroke:#000000;stroke-linecap:square;"/>
   </g>
   <g id="line2d_18">
    <path clip-path="url(#pd0c2820aef)" d="
M299.558 241.929
L298.549 241.346
L297.532 240.759
L296.506 240.167" style="fill:none;stroke:#000000;stroke-linecap:square;"/>
   </g>
   <g id="line2d_19">
    <path clip-path="url(#pd0c2820aef)" d="
M286.274 260.899
L285.382 260.15
L284.483 259.396
L283.575 258.634" style="fill:none;stroke:#000000;stroke-linecap:square;"/>
   </g>
   <g id="line2d_20">
    <path clip-path="url(#pd0c2820aef)" d="
M269.899 277.274
L269.15 276.382
L268.396 275.483
L267.634 274.575" style="fill:none;stroke:#000000;stroke-linecap:square;"/>
   </g>
   <g id="line2d_21">
    <path clip-path="url(#pd0c2820aef)" d="
M250.929 290.558
L250.346 289.549
L249.759 288.532
L249.167 287.506" style="fill:none;stroke:#000000;stroke-linecap:square;"/>
   </g>
   <g id="line2d_22">
    <path clip-path="url(#pd0c2820aef)" d="
M229.94 300.345
L229.542 299.251
L229.14 298.147
L228.735 297.034" style="fill:none;stroke:#000000;stroke-linecap:square;"/>
   </g>
   <g id="line2d_23">
    <path clip-path="url(#pd0c2820aef)" d="
M207.57 306.339
L207.368 305.192
L207.164 304.035
L206.959 302.869" style="fill:none;stroke:#000000;stroke-linecap:square;"/>
   </g>
   <g id="line2d_24">
    <path clip-path="url(#pd0c2820aef)" d="
M184.5 308.357
L184.5 307.193
L184.5 306.018
L184.5 304.834" style="fill:none;stroke:#000000;stroke-linecap:square;"/>
   </g>
   <g id="line2d_25">
    <path clip-path="url(#pd0c2820aef)" d="
M161.43 306.339
L161.632 305.192
L161.836 304.035
L162.041 302.869" style="fill:none;stroke:#000000;stroke-linecap:square;"/>
   </g>
   <g id="line2d_26">
    <path clip-path="url(#pd0c2820aef)" d="
M139.06 300.345
L139.458 299.251
L139.86 298.147
L140.265 297.034" style="fill:none;stroke:#000000;stroke-linecap:square;"/>
   </g>
   <g id="line2d_27">
    <path clip-path="url(#pd0c2820aef)" d="
M118.071 290.558
L118.654 289.549
L119.241 288.532
L119.833 287.506" style="fill:none;stroke:#000000;stroke-linecap:square;"/>
   </g>
   <g id="line2d_28">
    <path clip-path="url(#pd0c2820aef)" d="
M99.1011 277.274
L99.8496 276.382
L100.604 275.483
L101.366 274.575" style="fill:none;stroke:#000000;stroke-linecap:square;"/>
   </g>
   <g id="line2d_29">
    <path clip-path="url(#pd0c2820aef)" d="
M82.7255 260.899
L83.6175 260.15
L84.5172 259.396
L85.4245 258.634" style="fill:none;stroke:#000000;stroke-linecap:square;"/>
   </g>
   <g id="line2d_30">
    <path clip-path="url(#pd0c2820aef)" d="
M69.4423 241.929
L70.4508 241.346
L71.4679 240.759
L72.4936 240.167" style="fill:none;stroke:#000000;stroke-linecap:square;"/>
   </g>
   <g id="line2d_31">
    <path clip-path="url(#pd0c2820aef)" d="
M59.6551 220.94
L60.7493 220.542
L61.853 220.14
L62.966 219.735" style="fill:none;stroke:#000000;stroke-linecap:square;"/>
   </g>
   <g id="line2d_32">
    <path clip-path="url(#pd0c2820aef)" d="
M53.6613 198.57
L54.808 198.368
L55.9646 198.164
L57.131 197.959" style="fill:none;stroke:#000000;stroke-linecap:square;"/>
   </g>
   <g id="line2d_33">
    <path clip-path="url(#pd0c2820aef)" d="
M51.6429 175.5
L52.8073 175.5
L53.9818 175.5
L55.1662 175.5" style="fill:none;stroke:#000000;stroke-linecap:square;"/>
   </g>
   <g id="line2d_34">
    <path clip-path="url(#pd0c2820aef)" d="
M53.6613 152.43
L54.808 152.632
L55.9646 152.836
L57.131 153.041" style="fill:none;stroke:#000000;stroke-linecap:square;"/>
   </g>
   <g id="line2d_35">
    <path clip-path="url(#pd0c2820aef)" d="
M59.6551 130.06
L60.7493 130.458
L61.853 130.86
L62.966 131.265" style="fill:none;stroke:#000000;stroke-linecap:square;"/>
   </g>
   <g id="line2d_36">
    <path clip-path="url(#pd0c2820aef)" d="
M69.4423 109.071
L70.4508 109.654
L71.4679 110.241
L72.4936 110.833" style="fill:none;stroke:#000000;stroke-linecap:square;"/>
   </g>
   <g id="line2d_37">
    <path clip-path="url(#pd0c2820aef)" d="
M82.7255 90.1011
L83.6175 90.8496
L84.5172 91.6045
L85.4245 92.3658" style="fill:none;stroke:#000000;stroke-linecap:square;"/>
   </g>
   <g id="line2d_38">
    <path clip-path="url(#pd0c2820aef)" d="
M99.1011 73.7255
L99.8496 74.6175
L100.604 75.5172
L101.366 76.4245" style="fill:none;stroke:#000000;stroke-linecap:square;"/>
   </g>
   <g id="line2d_39">
    <path clip-path="url(#pd0c2820aef)" d="
M118.071 60.4423
L118.654 61.4508
L119.241 62.4679
L119.833 63.4936" style="fill:none;stroke:#000000;stroke-linecap:square;"/>
   </g>
   <g id="line2d_40">
    <path clip-path="url(#pd0c2820aef)" d="
M139.06 50.6551
L139.458 51.7493
L139.86 52.853
L140.265 53.966" style="fill:none;stroke:#000000;stroke-linecap:square;"/>
   </g>
   <g id="line2d_41">
    <path clip-path="url(#pd0c2820aef)" d="
M161.43 44.6613
L161.632 45.808
L161.836 46.9646
L162.041 48.131" style="fill:none;stroke:#000000;stroke-linecap:square;"/>
   </g>
   <g id="text_1">
    <!-- Geographic -->
    <defs>
     <path d="
M34.2812 27.4844
Q23.3906 27.4844 19.1875 25
Q14.9844 22.5156 14.9844 16.5
Q14.9844 11.7188 18.1406 8.90625
Q21.2969 6.10938 26.7031 6.10938
Q34.1875 6.10938 38.7031 11.4062
Q43.2188 16.7031 43.2188 25.4844
L43.2188 27.4844
z

M52.2031 31.2031
L52.2031 0
L43.2188 0
L43.2188 8.29688
Q40.1406 3.32812 35.5469 0.953125
Q30.9531 -1.42188 24.3125 -1.42188
Q15.9219 -1.42188 10.9531 3.29688
Q6 8.01562 6 15.9219
Q6 25.1406 12.1719 29.8281
Q18.3594 34.5156 30.6094 34.5156
L43.2188 34.5156
L43.2188 35.4062
Q43.2188 41.6094 39.1406 45
Q35.0625 48.3906 27.6875 48.3906
Q23 48.3906 18.5469 47.2656
Q14.1094 46.1406 10.0156 43.8906
L10.0156 52.2031
Q14.9375 54.1094 19.5781 55.0469
Q24.2188 56 28.6094 56
Q40.4844 56 46.3438 49.8438
Q52.2031 43.7031 52.2031 31.2031" id="BitstreamVeraSans-Roman-61"/>
     <path d="
M30.6094 48.3906
Q23.3906 48.3906 19.1875 42.75
Q14.9844 37.1094 14.9844 27.2969
Q14.9844 17.4844 19.1562 11.8438
Q23.3438 6.20312 30.6094 6.20312
Q37.7969 6.20312 41.9844 11.8594
Q46.1875 17.5312 46.1875 27.2969
Q46.1875 37.0156 41.9844 42.7031
Q37.7969 48.3906 30.6094 48.3906
M30.6094 56
Q42.3281 56 49.0156 48.375
Q55.7188 40.7656 55.7188 27.2969
Q55.7188 13.875 49.0156 6.21875
Q42.3281 -1.42188 30.6094 -1.42188
Q18.8438 -1.42188 12.1719 6.21875
Q5.51562 13.875 5.51562 27.2969
Q5.51562 40.7656 12.1719 48.375
Q18.8438 56 30.6094 56" id="BitstreamVeraSans-Roman-6f"/>
     <path d="
M59.5156 10.4062
L59.5156 29.9844
L43.4062 29.9844
L43.4062 38.0938
L69.2812 38.0938
L69.2812 6.78125
Q63.5781 2.73438 56.6875 0.65625
Q49.8125 -1.42188 42 -1.42188
Q24.9062 -1.42188 15.25 8.5625
Q5.60938 18.5625 5.60938 36.375
Q5.60938 54.25 15.25 64.2344
Q24.9062 74.2188 42 74.2188
Q49.125 74.2188 55.5469 72.4531
Q61.9688 70.7031 67.3906 67.2812
L67.3906 56.7812
Q61.9219 61.4219 55.7656 63.7656
Q49.6094 66.1094 42.8281 66.1094
Q29.4375 66.1094 22.7188 58.6406
Q16.0156 51.1719 16.0156 36.375
Q16.0156 21.625 22.7188 14.1562
Q29.4375 6.6875 42.8281 6.6875
Q48.0469 6.6875 52.1406 7.59375
Q56.25 8.5 59.5156 10.4062" id="BitstreamVeraSans-Roman-47"/>
     <path d="
M9.42188 54.6875
L18.4062 54.6875
L18.4062 0
L9.42188 0
z

M9.42188 75.9844
L18.4062 75.9844
L18.4062 64.5938
L9.42188 64.5938
z
" id="BitstreamVeraSans-Roman-69"/>
     <path d="
M54.8906 33.0156
L54.8906 0
L45.9062 0
L45.9062 32.7188
Q45.9062 40.4844 42.875 44.3281
Q39.8438 48.1875 33.7969 48.1875
Q26.5156 48.1875 22.3125 43.5469
Q18.1094 38.9219 18.1094 30.9062
L18.1094 0
L9.07812 0
L9.07812 75.9844
L18.1094 75.9844
L18.1094 46.1875
Q21.3438 51.125 25.7031 53.5625
Q30.0781 56 35.7969 56
Q45.2188 56 50.0469 50.1719
Q54.8906 44.3438 54.8906 33.0156" id="BitstreamVeraSans-Roman-68"/>
     <path d="
M48.7812 52.5938
L48.7812 44.1875
Q44.9688 46.2969 41.1406 47.3438
Q37.3125 48.3906 33.4062 48.3906
Q24.6562 48.3906 19.8125 42.8438
Q14.9844 37.3125 14.9844 27.2969
Q14.9844 17.2812 19.8125 11.7344
Q24.6562 6.20312 33.4062 6.20312
Q37.3125 6.20312 41.1406 7.25
Q44.9688 8.29688 48.7812 10.4062
L48.7812 2.09375
Q45.0156 0.34375 40.9844 -0.53125
Q36.9688 -1.42188 32.4219 -1.42188
Q20.0625 -1.42188 12.7812 6.34375
Q5.51562 14.1094 5.51562 27.2969
Q5.51562 40.6719 12.8594 48.3281
Q20.2188 56 33.0156 56
Q37.1562 56 41.1094 55.1406
Q45.0625 54.2969 48.7812 52.5938" id="BitstreamVeraSans-Roman-63"/>
     <path d="
M56.2031 29.5938
L56.2031 25.2031
L14.8906 25.2031
Q15.4844 15.9219 20.4844 11.0625
Q25.4844 6.20312 34.4219 6.20312
Q39.5938 6.20312 44.4531 7.46875
Q49.3125 8.73438 54.1094 11.2812
L54.1094 2.78125
Q49.2656 0.734375 44.1875 -0.34375
Q39.1094 -1.42188 33.8906 -1.42188
Q20.7969 -1.42188 13.1562 6.1875
Q5.51562 13.8125 5.51562 26.8125
Q5.51562 40.2344 12.7656 48.1094
Q20.0156 56 32.3281 56
Q43.3594 56 49.7812 48.8906
Q56.2031 41.7969 56.2031 29.5938
M47.2188 32.2344
Q47.125 39.5938 43.0938 43.9844
Q39.0625 48.3906 32.4219 48.3906
Q24.9062 48.3906 20.3906 44.1406
Q15.875 39.8906 15.1875 32.1719
z
" id="BitstreamVeraSans-Roman-65"/>
     <path d="
M45.4062 27.9844
Q45.4062 37.75 41.375 43.1094
Q37.3594 48.4844 30.0781 48.4844
Q22.8594 48.4844 18.8281 43.1094
Q14.7969 37.75 14.7969 27.9844
Q14.7969 18.2656 18.8281 12.8906
Q22.8594 7.51562 30.0781 7.51562
Q37.3594 7.51562 41.375 12.8906
Q45.4062 18.2656 45.4062 27.9844
M54.3906 6.78125
Q54.3906 -7.17188 48.1875 -13.9844
Q42 -20.7969 29.2031 -20.7969
Q24.4688 -20.7969 20.2656 -20.0938
Q16.0625 -19.3906 12.1094 -17.9219
L12.1094 -9.1875
Q16.0625 -11.3281 19.9219 -12.3438
Q23.7812 -13.375 27.7812 -13.375
Q36.625 -13.375 41.0156 -8.76562
Q45.4062 -4.15625 45.4062 5.17188
L45.4062 9.625
Q42.625 4.78125 38.2812 2.39062
Q33.9375 0 27.875 0
Q17.8281 0 11.6719 7.65625
Q5.51562 15.3281 5.51562 27.9844
Q5.51562 40.6719 11.6719 48.3281
Q17.8281 56 27.875 56
Q33.9375 56 38.2812 53.6094
Q42.625 51.2188 45.4062 46.3906
L45.4062 54.6875
L54.3906 54.6875
z
" id="BitstreamVeraSans-Roman-67"/>
     <path d="
M41.1094 46.2969
Q39.5938 47.1719 37.8125 47.5781
Q36.0312 48 33.8906 48
Q26.2656 48 22.1875 43.0469
Q18.1094 38.0938 18.1094 28.8125
L18.1094 0
L9.07812 0
L9.07812 54.6875
L18.1094 54.6875
L18.1094 46.1875
Q20.9531 51.1719 25.4844 53.5781
Q30.0312 56 36.5312 56
Q37.4531 56 38.5781 55.875
Q39.7031 55.7656 41.0625 55.5156
z
" id="BitstreamVeraSans-Roman-72"/>
     <path d="
M18.1094 8.20312
L18.1094 -20.7969
L9.07812 -20.7969
L9.07812 54.6875
L18.1094 54.6875
L18.1094 46.3906
Q20.9531 51.2656 25.2656 53.625
Q29.5938 56 35.5938 56
Q45.5625 56 51.7812 48.0938
Q58.0156 40.1875 58.0156 27.2969
Q58.0156 14.4062 51.7812 6.48438
Q45.5625 -1.42188 35.5938 -1.42188
Q29.5938 -1.42188 25.2656 0.953125
Q20.9531 3.32812 18.1094 8.20312
M48.6875 27.2969
Q48.6875 37.2031 44.6094 42.8438
Q40.5312 48.4844 33.4062 48.4844
Q26.2656 48.4844 22.1875 42.8438
Q18.1094 37.2031 18.1094 27.2969
Q18.1094 17.3906 22.1875 11.75
Q26.2656 6.10938 33.4062 6.10938
Q40.5312 6.10938 44.6094 11.75
Q48.6875 17.3906 48.6875 27.2969" id="BitstreamVeraSans-Roman-70"/>
    </defs>
    <g transform="translate(38.3571428571 22.7142857143)scale(0.1 -0.1)">
     <use xlink:href="#BitstreamVeraSans-Roman-47"/>
     <use x="77.490234375" xlink:href="#BitstreamVeraSans-Roman-65"/>
     <use x="139.013671875" xlink:href="#BitstreamVeraSans-Roman-6f"/>
     <use x="200.1953125" xlink:href="#BitstreamVeraSans-Roman-67"/>
     <use x="263.671875" xlink:href="#BitstreamVeraSans-Roman-72"/>
     <use x="304.78515625" xlink:href="#BitstreamVeraSans-Roman-61"/>
     <use x="366.064453125" xlink:href="#BitstreamVeraSans-Roman-70"/>
     <use x="429.541015625" xlink:href="#BitstreamVeraSans-Roman-68"/>
     <use x="492.919921875" xlink:href="#BitstreamVeraSans-Roman-69"/>
     <use x="520.703125" xlink:href="#BitstreamVeraSans-Roman-63"/>
    </g>
   </g>
  </g>
 </g>
 <defs>
  <clipPath id="pd0c2820aef">
   <rect height="279.0" width="279.0" x="45.0" y="36.0"/>
  </clipPath>
 </defs>
</svg>
