<?xml version="1.0" encoding="utf-8" standalone="no"?>
<!DOCTYPE svg PUBLIC "-//W3C//DTD SVG 1.1//EN"
  "http://www.w3.org/Graphics/SVG/1.1/DTD/svg11.dtd">
<!-- Created with matplotlib (http://matplotlib.org/) -->
<svg height="360pt" version="1.1" viewBox="0 0 360 360" width="360pt" xmlns="http://www.w3.org/2000/svg" xmlns:xlink="http://www.w3.org/1999/xlink">
 <defs>
  <style type="text/css">
*{stroke-linecap:butt;stroke-linejoin:round;}
  </style>
 </defs>
 <g id="figure_1">
  <g id="patch_1">
   <path d="
M0 360
L360 360
L360 0
L0 0
z
" style="fill:#ffffff;"/>
  </g>
  <g id="axes_1">
   <g id="PathCollection_1">
    <defs>
     <path d="
M0 2.23607
C0.593012 2.23607 1.16182 2.00046 1.58114 1.58114
C2.00046 1.16182 2.23607 0.593012 2.23607 0
C2.23607 -0.593012 2.00046 -1.16182 1.58114 -1.58114
C1.16182 -2.00046 0.593012 -2.23607 0 -2.23607
C-0.593012 -2.23607 -1.16182 -2.00046 -1.58114 -1.58114
C-2.00046 -1.16182 -2.23607 -0.593012 -2.23607 0
C-2.23607 0.593012 -2.00046 1.16182 -1.58114 1.58114
C-1.16182 2.00046 -0.593012 2.23607 0 2.23607
z
" id="m7e14722383" style="stroke:#0000ff;"/>
    </defs>
    <g clip-path="url(#p5e01d0af3e)">
     <use style="fill:#ffffff;stroke:#0000ff;" x="246.500733196" xlink:href="#m7e14722383" y="198.195155172"/>
    </g>
   </g>
   <g id="PathCollection_2">
    <defs>
     <path d="
M0 2.23607
C0.593012 2.23607 1.16182 2.00046 1.58114 1.58114
C2.00046 1.16182 2.23607 0.593012 2.23607 0
C2.23607 -0.593012 2.00046 -1.16182 1.58114 -1.58114
C1.16182 -2.00046 0.593012 -2.23607 0 -2.23607
C-0.593012 -2.23607 -1.16182 -2.00046 -1.58114 -1.58114
C-2.00046 -1.16182 -2.23607 -0.593012 -2.23607 0
C-2.23607 0.593012 -2.00046 1.16182 -1.58114 1.58114
C-1.16182 2.00046 -0.593012 2.23607 0 2.23607
z
" id="m1b8892cd1b" style="stroke:#ff0000;"/>
    </defs>
    <g clip-path="url(#p5e01d0af3e)">
     <use style="fill:#ffffff;stroke:#ff0000;" x="273.695328756" xlink:href="#m1b8892cd1b" y="218.852593796"/>
    </g>
   </g>
   <g id="line2d_1">
    <path clip-path="url(#p5e01d0af3e)" d="
M193.377 25.3386
L195.967 25.3612
L198.556 25.4289
L203.729 25.6995
L208.889 26.1502
L214.03 26.7805
L219.147 27.5895
L224.231 28.5763
L229.279 29.7396
L234.282 31.0781
L239.236 32.5901
L244.133 34.2738
L248.969 36.1271
L253.738 38.1478
L258.432 40.3334
L263.048 42.6812
L267.578 45.1885
L272.018 47.852
L276.363 50.6686
L280.606 53.6349
L284.743 56.7472
L288.768 60.0018
L292.678 63.3946
L296.466 66.9216
L300.129 70.5784
L303.662 74.3607
L307.06 78.2637
L310.32 82.2827
L313.437 86.4129
L316.408 90.6492
L319.23 94.9864
L321.898 99.4193
L324.409 103.942
L326.761 108.55
L328.95 113.237
L330.974 117.998
L332.83 122.826
L334.516 127.716
L336.031 132.661
L337.372 137.657
L338.537 142.696
L339.525 147.772
L340.336 152.88
L340.967 158.013
L341.418 163.165
L341.689 168.329
L341.78 173.5
L341.689 178.671
L341.418 183.835
L340.967 188.987
L340.336 194.12
L339.525 199.228
L338.537 204.304
L337.372 209.343
L336.031 214.339
L334.516 219.284
L332.83 224.174
L330.974 229.002
L328.95 233.763
L326.761 238.45
L324.409 243.058
L321.898 247.581
L319.23 252.014
L316.408 256.351
L313.437 260.587
L310.32 264.717
L307.06 268.736
L303.662 272.639
L300.129 276.422
L296.466 280.078
L292.678 283.605
L288.768 286.998
L284.743 290.253
L280.606 293.365
L276.363 296.331
L272.018 299.148
L267.578 301.812
L263.048 304.319
L258.432 306.667
L253.738 308.852
L248.969 310.873
L244.133 312.726
L239.236 314.41
L234.282 315.922
L229.279 317.26
L224.231 318.424
L219.147 319.411
L214.03 320.22
L208.889 320.85
L203.729 321.3
L198.556 321.571
L193.377 321.661
L188.197 321.571
L183.024 321.3
L177.864 320.85
L172.723 320.22
L167.607 319.411
L162.522 318.424
L157.475 317.26
L152.471 315.922
L147.517 314.41
L142.62 312.726
L137.784 310.873
L133.016 308.852
L128.321 306.667
L123.705 304.319
L119.175 301.812
L114.735 299.148
L110.391 296.331
L106.147 293.365
L102.01 290.253
L97.9848 286.998
L94.0754 283.605
L90.287 280.078
L86.6242 276.422
L83.0914 272.639
L79.6931 268.736
L76.4332 264.717
L73.3158 260.587
L70.3447 256.351
L67.5234 252.014
L64.8556 247.581
L62.3442 243.058
L59.9926 238.45
L57.8034 233.763
L55.7794 229.002
L53.9231 224.174
L52.2367 219.284
L50.7222 214.339
L49.3815 209.343
L48.2163 204.304
L47.2279 199.228
L46.4175 194.12
L45.7863 188.987
L45.3348 183.835
L45.0637 178.671
L44.9733 173.5
L45.0637 168.329
L45.3348 163.165
L45.7863 158.013
L46.4175 152.88
L47.2279 147.772
L48.2163 142.696
L49.3815 137.657
L50.7222 132.661
L52.2367 127.716
L53.9231 122.826
L55.7794 117.998
L57.8034 113.237
L59.9926 108.55
L62.3442 103.942
L64.8556 99.4193
L67.5234 94.9864
L70.3447 90.6492
L73.3158 86.4129
L76.4332 82.2827
L79.6931 78.2637
L83.0914 74.3607
L86.6242 70.5784
L90.287 66.9216
L94.0754 63.3946
L97.9848 60.0018
L102.01 56.7472
L106.147 53.6349
L110.391 50.6686
L114.735 47.852
L119.175 45.1885
L123.705 42.6812
L128.321 40.3334
L133.016 38.1478
L137.784 36.1271
L142.62 34.2738
L147.517 32.5901
L152.471 31.0781
L157.475 29.7396
L162.522 28.5763
L167.607 27.5895
L172.723 26.7805
L177.864 26.1502
L183.024 25.6995
L188.197 25.4289
L193.377 25.3386
L193.377 25.3386" style="fill:none;stroke:#000000;stroke-linecap:square;"/>
   </g>
   <g id="line2d_2">
    <defs>
     <path d="
M-3 0
L3 0
M0 3
L0 -3" id="m9d0eee4805" style="stroke:#000000;stroke-width:0.5;"/>
    </defs>
    <g clip-path="url(#p5e01d0af3e)">
     <use style="stroke:#000000;stroke-width:0.5;" x="193.3765625" xlink:href="#m9d0eee4805" y="38.8155110064"/>
     <use style="stroke:#000000;stroke-width:0.5;" x="193.3765625" xlink:href="#m9d0eee4805" y="53.3174574859"/>
     <use style="stroke:#000000;stroke-width:0.5;" x="193.3765625" xlink:href="#m9d0eee4805" y="68.7340656821"/>
     <use style="stroke:#000000;stroke-width:0.5;" x="193.3765625" xlink:href="#m9d0eee4805" y="84.9480058979"/>
     <use style="stroke:#000000;stroke-width:0.5;" x="193.3765625" xlink:href="#m9d0eee4805" y="101.835880258"/>
     <use style="stroke:#000000;stroke-width:0.5;" x="193.3765625" xlink:href="#m9d0eee4805" y="119.269161841"/>
     <use style="stroke:#000000;stroke-width:0.5;" x="193.3765625" xlink:href="#m9d0eee4805" y="137.115172848"/>
     <use style="stroke:#000000;stroke-width:0.5;" x="193.3765625" xlink:href="#m9d0eee4805" y="155.23809436"/>
     <use style="stroke:#000000;stroke-width:0.5;" x="193.3765625" xlink:href="#m9d0eee4805" y="173.5"/>
    </g>
   </g>
   <g id="line2d_3">
    <g clip-path="url(#p5e01d0af3e)">
     <use style="stroke:#000000;stroke-width:0.5;" x="328.280919493" xlink:href="#m9d0eee4805" y="173.5"/>
     <use style="stroke:#000000;stroke-width:0.5;" x="313.755299063" xlink:href="#m9d0eee4805" y="173.5"/>
     <use style="stroke:#000000;stroke-width:0.5;" x="298.313523761" xlink:href="#m9d0eee4805" y="173.5"/>
     <use style="stroke:#000000;stroke-width:0.5;" x="282.073114821" xlink:href="#m9d0eee4805" y="173.5"/>
     <use style="stroke:#000000;stroke-width:0.5;" x="265.157671561" xlink:href="#m9d0eee4805" y="173.5"/>
     <use style="stroke:#000000;stroke-width:0.5;" x="247.695930719" xlink:href="#m9d0eee4805" y="173.5"/>
     <use style="stroke:#000000;stroke-width:0.5;" x="229.820786686" xlink:href="#m9d0eee4805" y="173.5"/>
     <use style="stroke:#000000;stroke-width:0.5;" x="211.668280101" xlink:href="#m9d0eee4805" y="173.5"/>
    </g>
   </g>
   <g id="line2d_4">
    <g clip-path="url(#p5e01d0af3e)">
     <use style="stroke:#000000;stroke-width:0.5;" x="193.3765625" xlink:href="#m9d0eee4805" y="308.184488994"/>
     <use style="stroke:#000000;stroke-width:0.5;" x="193.3765625" xlink:href="#m9d0eee4805" y="293.682542514"/>
     <use style="stroke:#000000;stroke-width:0.5;" x="193.3765625" xlink:href="#m9d0eee4805" y="278.265934318"/>
     <use style="stroke:#000000;stroke-width:0.5;" x="193.3765625" xlink:href="#m9d0eee4805" y="262.051994102"/>
     <use style="stroke:#000000;stroke-width:0.5;" x="193.3765625" xlink:href="#m9d0eee4805" y="245.164119742"/>
     <use style="stroke:#000000;stroke-width:0.5;" x="193.3765625" xlink:href="#m9d0eee4805" y="227.730838159"/>
     <use style="stroke:#000000;stroke-width:0.5;" x="193.3765625" xlink:href="#m9d0eee4805" y="209.884827152"/>
     <use style="stroke:#000000;stroke-width:0.5;" x="193.3765625" xlink:href="#m9d0eee4805" y="191.76190564"/>
    </g>
   </g>
   <g id="line2d_5">
    <g clip-path="url(#p5e01d0af3e)">
     <use style="stroke:#000000;stroke-width:0.5;" x="58.4722055065" xlink:href="#m9d0eee4805" y="173.5"/>
     <use style="stroke:#000000;stroke-width:0.5;" x="72.9978259368" xlink:href="#m9d0eee4805" y="173.5"/>
     <use style="stroke:#000000;stroke-width:0.5;" x="88.439601239" xlink:href="#m9d0eee4805" y="173.5"/>
     <use style="stroke:#000000;stroke-width:0.5;" x="104.680010179" xlink:href="#m9d0eee4805" y="173.5"/>
     <use style="stroke:#000000;stroke-width:0.5;" x="121.595453439" xlink:href="#m9d0eee4805" y="173.5"/>
     <use style="stroke:#000000;stroke-width:0.5;" x="139.057194281" xlink:href="#m9d0eee4805" y="173.5"/>
     <use style="stroke:#000000;stroke-width:0.5;" x="156.932338314" xlink:href="#m9d0eee4805" y="173.5"/>
     <use style="stroke:#000000;stroke-width:0.5;" x="175.084844899" xlink:href="#m9d0eee4805" y="173.5"/>
    </g>
   </g>
   <g id="line2d_6">
    <path clip-path="url(#p5e01d0af3e)" d="
M193.377 25.3386
L193.377 26.6372
L193.377 27.9469
L193.377 29.2678" style="fill:none;stroke:#000000;stroke-linecap:square;"/>
   </g>
   <g id="line2d_7">
    <path clip-path="url(#p5e01d0af3e)" d="
M219.147 27.5895
L218.921 28.8683
L218.693 30.1582
L218.463 31.459" style="fill:none;stroke:#000000;stroke-linecap:square;"/>
   </g>
   <g id="line2d_8">
    <path clip-path="url(#p5e01d0af3e)" d="
M244.133 34.2738
L243.689 35.4941
L243.24 36.7249
L242.787 37.966" style="fill:none;stroke:#000000;stroke-linecap:square;"/>
   </g>
   <g id="line2d_9">
    <path clip-path="url(#p5e01d0af3e)" d="
M267.578 45.1885
L266.928 46.3131
L266.272 47.4473
L265.61 48.5912" style="fill:none;stroke:#000000;stroke-linecap:square;"/>
   </g>
   <g id="line2d_10">
    <path clip-path="url(#p5e01d0af3e)" d="
M288.768 60.0018
L287.932 60.9965
L287.089 61.9999
L286.239 63.0117" style="fill:none;stroke:#000000;stroke-linecap:square;"/>
   </g>
   <g id="line2d_11">
    <path clip-path="url(#p5e01d0af3e)" d="
M307.06 78.2637
L306.064 79.0984
L305.059 79.9403
L304.045 80.7893" style="fill:none;stroke:#000000;stroke-linecap:square;"/>
   </g>
   <g id="line2d_12">
    <path clip-path="url(#p5e01d0af3e)" d="
M321.898 99.4193
L320.771 100.069
L319.635 100.723
L318.489 101.384" style="fill:none;stroke:#000000;stroke-linecap:square;"/>
   </g>
   <g id="line2d_13">
    <path clip-path="url(#p5e01d0af3e)" d="
M332.83 122.826
L331.608 123.27
L330.375 123.718
L329.132 124.17" style="fill:none;stroke:#000000;stroke-linecap:square;"/>
   </g>
   <g id="line2d_14">
    <path clip-path="url(#p5e01d0af3e)" d="
M339.525 147.772
L338.244 147.998
L336.952 148.225
L335.649 148.454" style="fill:none;stroke:#000000;stroke-linecap:square;"/>
   </g>
   <g id="line2d_15">
    <path clip-path="url(#p5e01d0af3e)" d="
M341.78 173.5
L340.479 173.5
L339.167 173.5
L337.844 173.5" style="fill:none;stroke:#000000;stroke-linecap:square;"/>
   </g>
   <g id="line2d_16">
    <path clip-path="url(#p5e01d0af3e)" d="
M339.525 199.228
L338.244 199.002
L336.952 198.775
L335.649 198.546" style="fill:none;stroke:#000000;stroke-linecap:square;"/>
   </g>
   <g id="line2d_17">
    <path clip-path="url(#p5e01d0af3e)" d="
M332.83 224.174
L331.608 223.73
L330.375 223.282
L329.132 222.83" style="fill:none;stroke:#000000;stroke-linecap:square;"/>
   </g>
   <g id="line2d_18">
    <path clip-path="url(#p5e01d0af3e)" d="
M321.898 247.581
L320.771 246.931
L319.635 246.277
L318.489 245.616" style="fill:none;stroke:#000000;stroke-linecap:square;"/>
   </g>
   <g id="line2d_19">
    <path clip-path="url(#p5e01d0af3e)" d="
M307.06 268.736
L306.064 267.902
L305.059 267.06
L304.045 266.211" style="fill:none;stroke:#000000;stroke-linecap:square;"/>
   </g>
   <g id="line2d_20">
    <path clip-path="url(#p5e01d0af3e)" d="
M288.768 286.998
L287.932 286.003
L287.089 285
L286.239 283.988" style="fill:none;stroke:#000000;stroke-linecap:square;"/>
   </g>
   <g id="line2d_21">
    <path clip-path="url(#p5e01d0af3e)" d="
M267.578 301.812
L266.928 300.687
L266.272 299.553
L265.61 298.409" style="fill:none;stroke:#000000;stroke-linecap:square;"/>
   </g>
   <g id="line2d_22">
    <path clip-path="url(#p5e01d0af3e)" d="
M244.133 312.726
L243.689 311.506
L243.24 310.275
L242.787 309.034" style="fill:none;stroke:#000000;stroke-linecap:square;"/>
   </g>
   <g id="line2d_23">
    <path clip-path="url(#p5e01d0af3e)" d="
M219.147 319.411
L218.921 318.132
L218.693 316.842
L218.463 315.541" style="fill:none;stroke:#000000;stroke-linecap:square;"/>
   </g>
   <g id="line2d_24">
    <path clip-path="url(#p5e01d0af3e)" d="
M193.377 321.661
L193.377 320.363
L193.377 319.053
L193.377 317.732" style="fill:none;stroke:#000000;stroke-linecap:square;"/>
   </g>
   <g id="line2d_25">
    <path clip-path="url(#p5e01d0af3e)" d="
M167.607 319.411
L167.832 318.132
L168.06 316.842
L168.29 315.541" style="fill:none;stroke:#000000;stroke-linecap:square;"/>
   </g>
   <g id="line2d_26">
    <path clip-path="url(#p5e01d0af3e)" d="
M142.62 312.726
L143.065 311.506
L143.513 310.275
L143.966 309.034" style="fill:none;stroke:#000000;stroke-linecap:square;"/>
   </g>
   <g id="line2d_27">
    <path clip-path="url(#p5e01d0af3e)" d="
M119.175 301.812
L119.825 300.687
L120.481 299.553
L121.143 298.409" style="fill:none;stroke:#000000;stroke-linecap:square;"/>
   </g>
   <g id="line2d_28">
    <path clip-path="url(#p5e01d0af3e)" d="
M97.9848 286.998
L98.8208 286.003
L99.6641 285
L100.515 283.988" style="fill:none;stroke:#000000;stroke-linecap:square;"/>
   </g>
   <g id="line2d_29">
    <path clip-path="url(#p5e01d0af3e)" d="
M79.6931 268.736
L80.6895 267.902
L81.6944 267.06
L82.7079 266.211" style="fill:none;stroke:#000000;stroke-linecap:square;"/>
   </g>
   <g id="line2d_30">
    <path clip-path="url(#p5e01d0af3e)" d="
M64.8556 247.581
L65.982 246.931
L67.1181 246.277
L68.2639 245.616" style="fill:none;stroke:#000000;stroke-linecap:square;"/>
   </g>
   <g id="line2d_31">
    <path clip-path="url(#p5e01d0af3e)" d="
M53.9231 224.174
L55.1454 223.73
L56.3781 223.282
L57.6214 222.83" style="fill:none;stroke:#000000;stroke-linecap:square;"/>
   </g>
   <g id="line2d_32">
    <path clip-path="url(#p5e01d0af3e)" d="
M47.2279 199.228
L48.5088 199.002
L49.8008 198.775
L51.1037 198.546" style="fill:none;stroke:#000000;stroke-linecap:square;"/>
   </g>
   <g id="line2d_33">
    <path clip-path="url(#p5e01d0af3e)" d="
M44.9733 173.5
L46.274 173.5
L47.5859 173.5
L48.9089 173.5" style="fill:none;stroke:#000000;stroke-linecap:square;"/>
   </g>
   <g id="line2d_34">
    <path clip-path="url(#p5e01d0af3e)" d="
M47.2279 147.772
L48.5088 147.998
L49.8008 148.225
L51.1037 148.454" style="fill:none;stroke:#000000;stroke-linecap:square;"/>
   </g>
   <g id="line2d_35">
    <path clip-path="url(#p5e01d0af3e)" d="
M53.9231 122.826
L55.1454 123.27
L56.3781 123.718
L57.6214 124.17" style="fill:none;stroke:#000000;stroke-linecap:square;"/>
   </g>
   <g id="line2d_36">
    <path clip-path="url(#p5e01d0af3e)" d="
M64.8556 99.4193
L65.982 100.069
L67.1181 100.723
L68.2639 101.384" style="fill:none;stroke:#000000;stroke-linecap:square;"/>
   </g>
   <g id="line2d_37">
    <path clip-path="url(#p5e01d0af3e)" d="
M79.6931 78.2637
L80.6895 79.0984
L81.6944 79.9403
L82.7079 80.7893" style="fill:none;stroke:#000000;stroke-linecap:square;"/>
   </g>
   <g id="line2d_38">
    <path clip-path="url(#p5e01d0af3e)" d="
M97.9848 60.0018
L98.8208 60.9965
L99.6641 61.9999
L100.515 63.0117" style="fill:none;stroke:#000000;stroke-linecap:square;"/>
   </g>
   <g id="line2d_39">
    <path clip-path="url(#p5e01d0af3e)" d="
M119.175 45.1885
L119.825 46.3131
L120.481 47.4473
L121.143 48.5912" style="fill:none;stroke:#000000;stroke-linecap:square;"/>
   </g>
   <g id="line2d_40">
    <path clip-path="url(#p5e01d0af3e)" d="
M142.62 34.2738
L143.065 35.4941
L143.513 36.7249
L143.966 37.966" style="fill:none;stroke:#000000;stroke-linecap:square;"/>
   </g>
   <g id="line2d_41">
    <path clip-path="url(#p5e01d0af3e)" d="
M167.607 27.5895
L167.832 28.8683
L168.06 30.1582
L168.29 31.459" style="fill:none;stroke:#000000;stroke-linecap:square;"/>
   </g>
   <g id="line2d_42">
    <path clip-path="url(#p5e01d0af3e)" d="
M242.645 206.114
L243.113 206.319
L243.594 206.492
L244.087 206.633
L244.59 206.74
L245.1 206.813
L245.617 206.852
L246.137 206.857
L246.658 206.826
L247.18 206.762
L247.698 206.663
L248.212 206.53
L248.719 206.363
L249.218 206.163
L249.705 205.931
L250.18 205.668
L250.64 205.375
L251.084 205.053
L251.508 204.702
L251.913 204.325
L252.296 203.924
L252.655 203.499
L252.989 203.052
L253.297 202.586
L253.577 202.102
L253.828 201.601
L254.05 201.087
L254.241 200.562
L254.4 200.026
L254.527 199.484
L254.622 198.936
L254.684 198.385
L254.712 197.833
L254.707 197.283
L254.669 196.737
L254.598 196.196
L254.494 195.664
L254.358 195.142
L254.19 194.633
L253.991 194.138
L253.762 193.66
L253.505 193.2
L253.219 192.76
L252.906 192.342
L252.568 191.948
L252.206 191.578
L251.821 191.235
L251.415 190.92
L250.99 190.634
L250.548 190.378
L250.089 190.153
L249.617 189.959
L249.132 189.799
L248.638 189.671
L248.135 189.576
L247.626 189.516
L247.112 189.49
L246.597 189.497
L246.081 189.538
L245.567 189.613
L245.057 189.722
L244.553 189.863
L244.056 190.036
L243.569 190.241
L243.093 190.477
L242.631 190.742
L242.183 191.036
L241.753 191.357
L241.34 191.705
L240.948 192.077
L240.576 192.473
L240.228 192.891
L239.904 193.329
L239.605 193.786
L239.332 194.26
L239.087 194.749
L238.87 195.251
L238.682 195.764
L238.525 196.286
L238.397 196.816
L238.301 197.351
L238.237 197.89
L238.204 198.43
L238.203 198.969
L238.234 199.505
L238.296 200.036
L238.391 200.56
L238.516 201.075
L238.673 201.579
L238.86 202.07
L239.076 202.546
L239.321 203.006
L239.595 203.447
L239.895 203.867
L240.221 204.266
L240.572 204.641
L240.946 204.991
L241.342 205.315
L241.758 205.61
L242.193 205.877
L242.645 206.114" style="fill:none;stroke:#0000ff;stroke-linecap:square;"/>
   </g>
   <g id="line2d_43">
    <path clip-path="url(#p5e01d0af3e)" d="
M265.699 231.693
L266.367 232.071
L267.064 232.396
L267.789 232.668
L268.538 232.885
L269.309 233.047
L270.098 233.151
L270.903 233.197
L271.72 233.185
L272.546 233.114
L273.378 232.984
L274.211 232.796
L275.043 232.55
L275.87 232.247
L276.689 231.887
L277.495 231.472
L278.286 231.004
L279.057 230.484
L279.806 229.915
L280.53 229.298
L281.224 228.637
L281.886 227.933
L282.513 227.19
L283.102 226.412
L283.651 225.6
L284.157 224.76
L284.618 223.894
L285.031 223.006
L285.396 222.101
L285.711 221.182
L285.974 220.253
L286.184 219.318
L286.34 218.381
L286.443 217.447
L286.492 216.519
L286.486 215.601
L286.427 214.697
L286.314 213.812
L286.148 212.948
L285.93 212.109
L285.662 211.299
L285.345 210.521
L284.98 209.778
L284.57 209.072
L284.115 208.407
L283.619 207.786
L283.084 207.209
L282.511 206.68
L281.905 206.2
L281.266 205.771
L280.598 205.394
L279.903 205.071
L279.186 204.802
L278.447 204.588
L277.691 204.43
L276.921 204.327
L276.139 204.281
L275.348 204.29
L274.552 204.355
L273.753 204.474
L272.955 204.648
L272.16 204.875
L271.371 205.155
L270.592 205.485
L269.824 205.865
L269.071 206.292
L268.335 206.766
L267.62 207.284
L266.927 207.844
L266.258 208.445
L265.617 209.083
L265.006 209.757
L264.426 210.463
L263.88 211.2
L263.369 211.965
L262.896 212.755
L262.462 213.567
L262.069 214.397
L261.718 215.245
L261.41 216.105
L261.147 216.975
L260.929 217.852
L260.758 218.734
L260.634 219.615
L260.558 220.495
L260.531 221.368
L260.551 222.233
L260.621 223.085
L260.739 223.922
L260.906 224.741
L261.121 225.538
L261.383 226.311
L261.692 227.056
L262.046 227.771
L262.446 228.452
L262.889 229.097
L263.374 229.704
L263.899 230.269
L264.463 230.79
L265.064 231.266
L265.699 231.693" style="fill:none;stroke:#ff0000;stroke-linecap:square;"/>
   </g>
   <g id="legend_1">
    <g id="patch_2">
     <path d="
M76.2387 55.6275
L310.514 55.6275
L310.514 16.8
L76.2387 16.8
z
" style="fill:#ffffff;stroke:#000000;stroke-linejoin:miter;"/>
    </g>
    <g id="PathCollection_3">
     <path d="
M84.6387 29.8042
C85.2318 29.8042 85.8006 29.5686 86.2199 29.1493
C86.6392 28.7299 86.8748 28.1611 86.8748 27.5681
C86.8748 26.9751 86.6392 26.4063 86.2199 25.987
C85.8006 25.5677 85.2318 25.3321 84.6387 25.3321
C84.0457 25.3321 83.4769 25.5677 83.0576 25.987
C82.6383 26.4063 82.4027 26.9751 82.4027 27.5681
C82.4027 28.1611 82.6383 28.7299 83.0576 29.1493
C83.4769 29.5686 84.0457 29.8042 84.6387 29.8042
z
" style="fill:#ffffff;stroke:#0000ff;"/>
     <path d="
M93.0387 28.7542
C93.6318 28.7542 94.2006 28.5186 94.6199 28.0993
C95.0392 27.6799 95.2748 27.1111 95.2748 26.5181
C95.2748 25.9251 95.0392 25.3563 94.6199 24.937
C94.2006 24.5177 93.6318 24.2821 93.0387 24.2821
C92.4457 24.2821 91.8769 24.5177 91.4576 24.937
C91.0383 25.3563 90.8027 25.9251 90.8027 26.5181
C90.8027 27.1111 91.0383 27.6799 91.4576 28.0993
C91.8769 28.5186 92.4457 28.7542 93.0387 28.7542
z
" style="fill:#ffffff;stroke:#0000ff;"/>
     <path d="
M101.439 30.3292
C102.032 30.3292 102.601 30.0936 103.02 29.6743
C103.439 29.2549 103.675 28.6861 103.675 28.0931
C103.675 27.5001 103.439 26.9313 103.02 26.512
C102.601 26.0927 102.032 25.8571 101.439 25.8571
C100.846 25.8571 100.277 26.0927 99.8576 26.512
C99.4383 26.9313 99.2027 27.5001 99.2027 28.0931
C99.2027 28.6861 99.4383 29.2549 99.8576 29.6743
C100.277 30.0936 100.846 30.3292 101.439 30.3292
z
" style="fill:#ffffff;stroke:#0000ff;"/>
    </g>
    <g id="text_1">
     <!-- Halls (1974) tilt-corrected mean -->
     <defs>
      <path id="BitstreamVeraSans-Roman-20"/>
      <path d="
M12.4062 8.29688
L28.5156 8.29688
L28.5156 63.9219
L10.9844 60.4062
L10.9844 69.3906
L28.4219 72.9062
L38.2812 72.9062
L38.2812 8.29688
L54.3906 8.29688
L54.3906 0
L12.4062 0
z
" id="BitstreamVeraSans-Roman-31"/>
      <path d="
M8.20312 72.9062
L55.0781 72.9062
L55.0781 68.7031
L28.6094 0
L18.3125 0
L43.2188 64.5938
L8.20312 64.5938
z
" id="BitstreamVeraSans-Roman-37"/>
      <path d="
M37.7969 64.3125
L12.8906 25.3906
L37.7969 25.3906
z

M35.2031 72.9062
L47.6094 72.9062
L47.6094 25.3906
L58.0156 25.3906
L58.0156 17.1875
L47.6094 17.1875
L47.6094 0
L37.7969 0
L37.7969 17.1875
L4.89062 17.1875
L4.89062 26.7031
z
" id="BitstreamVeraSans-Roman-34"/>
      <path d="
M8.01562 75.875
L15.8281 75.875
Q23.1406 64.3594 26.7812 53.3125
Q30.4219 42.2812 30.4219 31.3906
Q30.4219 20.4531 26.7812 9.375
Q23.1406 -1.70312 15.8281 -13.1875
L8.01562 -13.1875
Q14.5 -2 17.7031 9.0625
Q20.9062 20.125 20.9062 31.3906
Q20.9062 42.6719 17.7031 53.6562
Q14.5 64.6562 8.01562 75.875" id="BitstreamVeraSans-Roman-29"/>
      <path d="
M31 75.875
Q24.4688 64.6562 21.2812 53.6562
Q18.1094 42.6719 18.1094 31.3906
Q18.1094 20.125 21.3125 9.0625
Q24.5156 -2 31 -13.1875
L23.1875 -13.1875
Q15.875 -1.70312 12.2344 9.375
Q8.59375 20.4531 8.59375 31.3906
Q8.59375 42.2812 12.2031 53.3125
Q15.8281 64.3594 23.1875 75.875
z
" id="BitstreamVeraSans-Roman-28"/>
      <path d="
M10.9844 1.51562
L10.9844 10.5
Q14.7031 8.73438 18.5 7.8125
Q22.3125 6.89062 25.9844 6.89062
Q35.75 6.89062 40.8906 13.4531
Q46.0469 20.0156 46.7812 33.4062
Q43.9531 29.2031 39.5938 26.9531
Q35.25 24.7031 29.9844 24.7031
Q19.0469 24.7031 12.6719 31.3125
Q6.29688 37.9375 6.29688 49.4219
Q6.29688 60.6406 12.9375 67.4219
Q19.5781 74.2188 30.6094 74.2188
Q43.2656 74.2188 49.9219 64.5156
Q56.5938 54.8281 56.5938 36.375
Q56.5938 19.1406 48.4062 8.85938
Q40.2344 -1.42188 26.4219 -1.42188
Q22.7031 -1.42188 18.8906 -0.6875
Q15.0938 0.046875 10.9844 1.51562
M30.6094 32.4219
Q37.25 32.4219 41.125 36.9531
Q45.0156 41.5 45.0156 49.4219
Q45.0156 57.2812 41.125 61.8438
Q37.25 66.4062 30.6094 66.4062
Q23.9688 66.4062 20.0938 61.8438
Q16.2188 57.2812 16.2188 49.4219
Q16.2188 41.5 20.0938 36.9531
Q23.9688 32.4219 30.6094 32.4219" id="BitstreamVeraSans-Roman-39"/>
      <path d="
M9.42188 75.9844
L18.4062 75.9844
L18.4062 0
L9.42188 0
z
" id="BitstreamVeraSans-Roman-6c"/>
      <path d="
M54.8906 33.0156
L54.8906 0
L45.9062 0
L45.9062 32.7188
Q45.9062 40.4844 42.875 44.3281
Q39.8438 48.1875 33.7969 48.1875
Q26.5156 48.1875 22.3125 43.5469
Q18.1094 38.9219 18.1094 30.9062
L18.1094 0
L9.07812 0
L9.07812 54.6875
L18.1094 54.6875
L18.1094 46.1875
Q21.3438 51.125 25.7031 53.5625
Q30.0781 56 35.7969 56
Q45.2188 56 50.0469 50.1719
Q54.8906 44.3438 54.8906 33.0156" id="BitstreamVeraSans-Roman-6e"/>
      <path d="
M30.6094 48.3906
Q23.3906 48.3906 19.1875 42.75
Q14.9844 37.1094 14.9844 27.2969
Q14.9844 17.4844 19.1562 11.8438
Q23.3438 6.20312 30.6094 6.20312
Q37.7969 6.20312 41.9844 11.8594
Q46.1875 17.5312 46.1875 27.2969
Q46.1875 37.0156 41.9844 42.7031
Q37.7969 48.3906 30.6094 48.3906
M30.6094 56
Q42.3281 56 49.0156 48.375
Q55.7188 40.7656 55.7188 27.2969
Q55.7188 13.875 49.0156 6.21875
Q42.3281 -1.42188 30.6094 -1.42188
Q18.8438 -1.42188 12.1719 6.21875
Q5.51562 13.875 5.51562 27.2969
Q5.51562 40.7656 12.1719 48.375
Q18.8438 56 30.6094 56" id="BitstreamVeraSans-Roman-6f"/>
      <path d="
M9.42188 54.6875
L18.4062 54.6875
L18.4062 0
L9.42188 0
z

M9.42188 75.9844
L18.4062 75.9844
L18.4062 64.5938
L9.42188 64.5938
z
" id="BitstreamVeraSans-Roman-69"/>
      <path d="
M4.89062 31.3906
L31.2031 31.3906
L31.2031 23.3906
L4.89062 23.3906
z
" id="BitstreamVeraSans-Roman-2d"/>
      <path d="
M41.1094 46.2969
Q39.5938 47.1719 37.8125 47.5781
Q36.0312 48 33.8906 48
Q26.2656 48 22.1875 43.0469
Q18.1094 38.0938 18.1094 28.8125
L18.1094 0
L9.07812 0
L9.07812 54.6875
L18.1094 54.6875
L18.1094 46.1875
Q20.9531 51.1719 25.4844 53.5781
Q30.0312 56 36.5312 56
Q37.4531 56 38.5781 55.875
Q39.7031 55.7656 41.0625 55.5156
z
" id="BitstreamVeraSans-Roman-72"/>
      <path d="
M52 44.1875
Q55.375 50.25 60.0625 53.125
Q64.75 56 71.0938 56
Q79.6406 56 84.2812 50.0156
Q88.9219 44.0469 88.9219 33.0156
L88.9219 0
L79.8906 0
L79.8906 32.7188
Q79.8906 40.5781 77.0938 44.375
Q74.3125 48.1875 68.6094 48.1875
Q61.625 48.1875 57.5625 43.5469
Q53.5156 38.9219 53.5156 30.9062
L53.5156 0
L44.4844 0
L44.4844 32.7188
Q44.4844 40.625 41.7031 44.4062
Q38.9219 48.1875 33.1094 48.1875
Q26.2188 48.1875 22.1562 43.5312
Q18.1094 38.875 18.1094 30.9062
L18.1094 0
L9.07812 0
L9.07812 54.6875
L18.1094 54.6875
L18.1094 46.1875
Q21.1875 51.2188 25.4844 53.6094
Q29.7812 56 35.6875 56
Q41.6562 56 45.8281 52.9688
Q50 49.9531 52 44.1875" id="BitstreamVeraSans-Roman-6d"/>
      <path d="
M56.2031 29.5938
L56.2031 25.2031
L14.8906 25.2031
Q15.4844 15.9219 20.4844 11.0625
Q25.4844 6.20312 34.4219 6.20312
Q39.5938 6.20312 44.4531 7.46875
Q49.3125 8.73438 54.1094 11.2812
L54.1094 2.78125
Q49.2656 0.734375 44.1875 -0.34375
Q39.1094 -1.42188 33.8906 -1.42188
Q20.7969 -1.42188 13.1562 6.1875
Q5.51562 13.8125 5.51562 26.8125
Q5.51562 40.2344 12.7656 48.1094
Q20.0156 56 32.3281 56
Q43.3594 56 49.7812 48.8906
Q56.2031 41.7969 56.2031 29.5938
M47.2188 32.2344
Q47.125 39.5938 43.0938 43.9844
Q39.0625 48.3906 32.4219 48.3906
Q24.9062 48.3906 20.3906 44.1406
Q15.875 39.8906 15.1875 32.1719
z
" id="BitstreamVeraSans-Roman-65"/>
      <path d="
M45.4062 46.3906
L45.4062 75.9844
L54.3906 75.9844
L54.3906 0
L45.4062 0
L45.4062 8.20312
Q42.5781 3.32812 38.25 0.953125
Q33.9375 -1.42188 27.875 -1.42188
Q17.9688 -1.42188 11.7344 6.48438
Q5.51562 14.4062 5.51562 27.2969
Q5.51562 40.1875 11.7344 48.0938
Q17.9688 56 27.875 56
Q33.9375 56 38.25 53.625
Q42.5781 51.2656 45.4062 46.3906
M14.7969 27.2969
Q14.7969 17.3906 18.875 11.75
Q22.9531 6.10938 30.0781 6.10938
Q37.2031 6.10938 41.2969 11.75
Q45.4062 17.3906 45.4062 27.2969
Q45.4062 37.2031 41.2969 42.8438
Q37.2031 48.4844 30.0781 48.4844
Q22.9531 48.4844 18.875 42.8438
Q14.7969 37.2031 14.7969 27.2969" id="BitstreamVeraSans-Roman-64"/>
      <path d="
M18.3125 70.2188
L18.3125 54.6875
L36.8125 54.6875
L36.8125 47.7031
L18.3125 47.7031
L18.3125 18.0156
Q18.3125 11.3281 20.1406 9.42188
Q21.9688 7.51562 27.5938 7.51562
L36.8125 7.51562
L36.8125 0
L27.5938 0
Q17.1875 0 13.2344 3.875
Q9.28125 7.76562 9.28125 18.0156
L9.28125 47.7031
L2.6875 47.7031
L2.6875 54.6875
L9.28125 54.6875
L9.28125 70.2188
z
" id="BitstreamVeraSans-Roman-74"/>
      <path d="
M34.2812 27.4844
Q23.3906 27.4844 19.1875 25
Q14.9844 22.5156 14.9844 16.5
Q14.9844 11.7188 18.1406 8.90625
Q21.2969 6.10938 26.7031 6.10938
Q34.1875 6.10938 38.7031 11.4062
Q43.2188 16.7031 43.2188 25.4844
L43.2188 27.4844
z

M52.2031 31.2031
L52.2031 0
L43.2188 0
L43.2188 8.29688
Q40.1406 3.32812 35.5469 0.953125
Q30.9531 -1.42188 24.3125 -1.42188
Q15.9219 -1.42188 10.9531 3.29688
Q6 8.01562 6 15.9219
Q6 25.1406 12.1719 29.8281
Q18.3594 34.5156 30.6094 34.5156
L43.2188 34.5156
L43.2188 35.4062
Q43.2188 41.6094 39.1406 45
Q35.0625 48.3906 27.6875 48.3906
Q23 48.3906 18.5469 47.2656
Q14.1094 46.1406 10.0156 43.8906
L10.0156 52.2031
Q14.9375 54.1094 19.5781 55.0469
Q24.2188 56 28.6094 56
Q40.4844 56 46.3438 49.8438
Q52.2031 43.7031 52.2031 31.2031" id="BitstreamVeraSans-Roman-61"/>
      <path d="
M44.2812 53.0781
L44.2812 44.5781
Q40.4844 46.5312 36.375 47.5
Q32.2812 48.4844 27.875 48.4844
Q21.1875 48.4844 17.8438 46.4375
Q14.5 44.3906 14.5 40.2812
Q14.5 37.1562 16.8906 35.375
Q19.2812 33.5938 26.5156 31.9844
L29.5938 31.2969
Q39.1562 29.25 43.1875 25.5156
Q47.2188 21.7812 47.2188 15.0938
Q47.2188 7.46875 41.1875 3.01562
Q35.1562 -1.42188 24.6094 -1.42188
Q20.2188 -1.42188 15.4531 -0.5625
Q10.6875 0.296875 5.42188 2
L5.42188 11.2812
Q10.4062 8.6875 15.2344 7.39062
Q20.0625 6.10938 24.8125 6.10938
Q31.1562 6.10938 34.5625 8.28125
Q37.9844 10.4531 37.9844 14.4062
Q37.9844 18.0625 35.5156 20.0156
Q33.0625 21.9688 24.7031 23.7812
L21.5781 24.5156
Q13.2344 26.2656 9.51562 29.9062
Q5.8125 33.5469 5.8125 39.8906
Q5.8125 47.6094 11.2812 51.7969
Q16.75 56 26.8125 56
Q31.7812 56 36.1719 55.2656
Q40.5781 54.5469 44.2812 53.0781" id="BitstreamVeraSans-Roman-73"/>
      <path d="
M48.7812 52.5938
L48.7812 44.1875
Q44.9688 46.2969 41.1406 47.3438
Q37.3125 48.3906 33.4062 48.3906
Q24.6562 48.3906 19.8125 42.8438
Q14.9844 37.3125 14.9844 27.2969
Q14.9844 17.2812 19.8125 11.7344
Q24.6562 6.20312 33.4062 6.20312
Q37.3125 6.20312 41.1406 7.25
Q44.9688 8.29688 48.7812 10.4062
L48.7812 2.09375
Q45.0156 0.34375 40.9844 -0.53125
Q36.9688 -1.42188 32.4219 -1.42188
Q20.0625 -1.42188 12.7812 6.34375
Q5.51562 14.1094 5.51562 27.2969
Q5.51562 40.6719 12.8594 48.3281
Q20.2188 56 33.0156 56
Q37.1562 56 41.1094 55.1406
Q45.0625 54.2969 48.7812 52.5938" id="BitstreamVeraSans-Roman-63"/>
      <path d="
M9.8125 72.9062
L19.6719 72.9062
L19.6719 43.0156
L55.5156 43.0156
L55.5156 72.9062
L65.375 72.9062
L65.375 0
L55.5156 0
L55.5156 34.7188
L19.6719 34.7188
L19.6719 0
L9.8125 0
z
" id="BitstreamVeraSans-Roman-48"/>
     </defs>
     <g transform="translate(114.63875 30.718125)scale(0.12 -0.12)">
      <use xlink:href="#BitstreamVeraSans-Roman-48"/>
      <use x="75.1953125" xlink:href="#BitstreamVeraSans-Roman-61"/>
      <use x="136.474609375" xlink:href="#BitstreamVeraSans-Roman-6c"/>
      <use x="164.2578125" xlink:href="#BitstreamVeraSans-Roman-6c"/>
      <use x="192.041015625" xlink:href="#BitstreamVeraSans-Roman-73"/>
      <use x="244.140625" xlink:href="#BitstreamVeraSans-Roman-20"/>
      <use x="275.927734375" xlink:href="#BitstreamVeraSans-Roman-28"/>
      <use x="314.94140625" xlink:href="#BitstreamVeraSans-Roman-31"/>
      <use x="378.564453125" xlink:href="#BitstreamVeraSans-Roman-39"/>
      <use x="442.1875" xlink:href="#BitstreamVeraSans-Roman-37"/>
      <use x="505.810546875" xlink:href="#BitstreamVeraSans-Roman-34"/>
      <use x="569.43359375" xlink:href="#BitstreamVeraSans-Roman-29"/>
      <use x="608.447265625" xlink:href="#BitstreamVeraSans-Roman-20"/>
      <use x="640.234375" xlink:href="#BitstreamVeraSans-Roman-74"/>
      <use x="679.443359375" xlink:href="#BitstreamVeraSans-Roman-69"/>
      <use x="707.2265625" xlink:href="#BitstreamVeraSans-Roman-6c"/>
      <use x="735.009765625" xlink:href="#BitstreamVeraSans-Roman-74"/>
      <use x="774.21875" xlink:href="#BitstreamVeraSans-Roman-2d"/>
      <use x="810.302734375" xlink:href="#BitstreamVeraSans-Roman-63"/>
      <use x="865.283203125" xlink:href="#BitstreamVeraSans-Roman-6f"/>
      <use x="926.46484375" xlink:href="#BitstreamVeraSans-Roman-72"/>
      <use x="965.828125" xlink:href="#BitstreamVeraSans-Roman-72"/>
      <use x="1004.69140625" xlink:href="#BitstreamVeraSans-Roman-65"/>
      <use x="1066.21484375" xlink:href="#BitstreamVeraSans-Roman-63"/>
      <use x="1121.1953125" xlink:href="#BitstreamVeraSans-Roman-74"/>
      <use x="1160.40429688" xlink:href="#BitstreamVeraSans-Roman-65"/>
      <use x="1221.92773438" xlink:href="#BitstreamVeraSans-Roman-64"/>
      <use x="1285.40429688" xlink:href="#BitstreamVeraSans-Roman-20"/>
      <use x="1317.19140625" xlink:href="#BitstreamVeraSans-Roman-6d"/>
      <use x="1414.60351562" xlink:href="#BitstreamVeraSans-Roman-65"/>
      <use x="1476.12695312" xlink:href="#BitstreamVeraSans-Roman-61"/>
      <use x="1537.40625" xlink:href="#BitstreamVeraSans-Roman-6e"/>
     </g>
    </g>
    <g id="PathCollection_4">
     <path d="
M84.6387 47.4179
C85.2318 47.4179 85.8006 47.1823 86.2199 46.763
C86.6392 46.3437 86.8748 45.7749 86.8748 45.1819
C86.8748 44.5889 86.6392 44.0201 86.2199 43.6007
C85.8006 43.1814 85.2318 42.9458 84.6387 42.9458
C84.0457 42.9458 83.4769 43.1814 83.0576 43.6007
C82.6383 44.0201 82.4027 44.5889 82.4027 45.1819
C82.4027 45.7749 82.6383 46.3437 83.0576 46.763
C83.4769 47.1823 84.0457 47.4179 84.6387 47.4179
z
" style="fill:#ffffff;stroke:#ff0000;"/>
     <path d="
M93.0387 46.3679
C93.6318 46.3679 94.2006 46.1323 94.6199 45.713
C95.0392 45.2937 95.2748 44.7249 95.2748 44.1319
C95.2748 43.5389 95.0392 42.9701 94.6199 42.5507
C94.2006 42.1314 93.6318 41.8958 93.0387 41.8958
C92.4457 41.8958 91.8769 42.1314 91.4576 42.5507
C91.0383 42.9701 90.8027 43.5389 90.8027 44.1319
C90.8027 44.7249 91.0383 45.2937 91.4576 45.713
C91.8769 46.1323 92.4457 46.3679 93.0387 46.3679
z
" style="fill:#ffffff;stroke:#ff0000;"/>
     <path d="
M101.439 47.9429
C102.032 47.9429 102.601 47.7073 103.02 47.288
C103.439 46.8687 103.675 46.2999 103.675 45.7069
C103.675 45.1139 103.439 44.5451 103.02 44.1257
C102.601 43.7064 102.032 43.4708 101.439 43.4708
C100.846 43.4708 100.277 43.7064 99.8576 44.1257
C99.4383 44.5451 99.2027 45.1139 99.2027 45.7069
C99.2027 46.2999 99.4383 46.8687 99.8576 47.288
C100.277 47.7073 100.846 47.9429 101.439 47.9429
z
" style="fill:#ffffff;stroke:#ff0000;"/>
    </g>
    <g id="text_2">
     <!-- Halls (1974) insitu mean -->
     <defs>
      <path d="
M8.5 21.5781
L8.5 54.6875
L17.4844 54.6875
L17.4844 21.9219
Q17.4844 14.1562 20.5 10.2656
Q23.5312 6.39062 29.5938 6.39062
Q36.8594 6.39062 41.0781 11.0312
Q45.3125 15.6719 45.3125 23.6875
L45.3125 54.6875
L54.2969 54.6875
L54.2969 0
L45.3125 0
L45.3125 8.40625
Q42.0469 3.42188 37.7188 1
Q33.4062 -1.42188 27.6875 -1.42188
Q18.2656 -1.42188 13.375 4.4375
Q8.5 10.2969 8.5 21.5781" id="BitstreamVeraSans-Roman-75"/>
     </defs>
     <g transform="translate(114.63875 48.331875)scale(0.12 -0.12)">
      <use xlink:href="#BitstreamVeraSans-Roman-48"/>
      <use x="75.1953125" xlink:href="#BitstreamVeraSans-Roman-61"/>
      <use x="136.474609375" xlink:href="#BitstreamVeraSans-Roman-6c"/>
      <use x="164.2578125" xlink:href="#BitstreamVeraSans-Roman-6c"/>
      <use x="192.041015625" xlink:href="#BitstreamVeraSans-Roman-73"/>
      <use x="244.140625" xlink:href="#BitstreamVeraSans-Roman-20"/>
      <use x="275.927734375" xlink:href="#BitstreamVeraSans-Roman-28"/>
      <use x="314.94140625" xlink:href="#BitstreamVeraSans-Roman-31"/>
      <use x="378.564453125" xlink:href="#BitstreamVeraSans-Roman-39"/>
      <use x="442.1875" xlink:href="#BitstreamVeraSans-Roman-37"/>
      <use x="505.810546875" xlink:href="#BitstreamVeraSans-Roman-34"/>
      <use x="569.43359375" xlink:href="#BitstreamVeraSans-Roman-29"/>
      <use x="608.447265625" xlink:href="#BitstreamVeraSans-Roman-20"/>
      <use x="640.234375" xlink:href="#BitstreamVeraSans-Roman-69"/>
      <use x="668.017578125" xlink:href="#BitstreamVeraSans-Roman-6e"/>
      <use x="731.396484375" xlink:href="#BitstreamVeraSans-Roman-73"/>
      <use x="783.49609375" xlink:href="#BitstreamVeraSans-Roman-69"/>
      <use x="811.279296875" xlink:href="#BitstreamVeraSans-Roman-74"/>
      <use x="850.48828125" xlink:href="#BitstreamVeraSans-Roman-75"/>
      <use x="913.8671875" xlink:href="#BitstreamVeraSans-Roman-20"/>
      <use x="945.654296875" xlink:href="#BitstreamVeraSans-Roman-6d"/>
      <use x="1043.06640625" xlink:href="#BitstreamVeraSans-Roman-65"/>
      <use x="1104.58984375" xlink:href="#BitstreamVeraSans-Roman-61"/>
      <use x="1165.86914062" xlink:href="#BitstreamVeraSans-Roman-6e"/>
     </g>
    </g>
   </g>
  </g>
 </g>
 <defs>
  <clipPath id="p5e01d0af3e">
   <rect height="325.4" width="311.646875" x="37.553125" y="10.8"/>
  </clipPath>
 </defs>
</svg>
