<?xml version="1.0" encoding="utf-8" standalone="no"?>
<!DOCTYPE svg PUBLIC "-//W3C//DTD SVG 1.1//EN"
  "http://www.w3.org/Graphics/SVG/1.1/DTD/svg11.dtd">
<!-- Created with matplotlib (http://matplotlib.org/) -->
<svg height="280pt" version="1.1" viewBox="0 0 393 280" width="393pt" xmlns="http://www.w3.org/2000/svg" xmlns:xlink="http://www.w3.org/1999/xlink">
 <defs>
  <style type="text/css">
*{stroke-linecap:butt;stroke-linejoin:round;stroke-miterlimit:100000;}
  </style>
 </defs>
 <g id="figure_1">
  <g id="patch_1">
   <path d="M 0 280.074375 
L 393.603125 280.074375 
L 393.603125 0 
L 0 0 
L 0 280.074375 
z
" style="fill:none;"/>
  </g>
  <g id="axes_1">
   <g id="patch_2">
    <path d="M 42.059375 244.518125 
L 376.859375 244.518125 
L 376.859375 21.318125 
L 42.059375 21.318125 
z
" style="fill:#ffffff;"/>
   </g>
   <g id="line2d_1">
    <path clip-path="url(#p4b6175b2bf)" d="M 42.059375 41.718351 
L 80.322232 38.835213 
L 113.802232 36.536555 
L 144.890804 34.626185 
L 173.587946 33.081129 
L 202.285089 31.768197 
L 228.590804 30.785446 
L 254.896518 30.027635 
L 281.202232 29.506126 
L 305.116518 29.244887 
L 329.030804 29.191893 
L 352.945089 29.350824 
L 374.467946 29.676751 
L 374.467946 29.676751 
" style="fill:none;stroke:#ff0000;stroke-dasharray:6.000000,6.000000;stroke-dashoffset:0.0;"/>
   </g>
   <g id="line2d_2">
    <path clip-path="url(#p4b6175b2bf)" d="M 42.059375 43.662183 
L 82.713661 40.87154 
L 118.585089 38.629828 
L 152.065089 36.758948 
L 183.153661 35.238987 
L 214.242232 33.950285 
L 242.939375 32.982891 
L 271.636518 32.242902 
L 297.942232 31.774567 
L 324.247946 31.515123 
L 350.553661 31.470882 
L 374.467946 31.621462 
L 374.467946 31.621462 
" style="fill:none;stroke:#ff0000;stroke-dasharray:6.000000,6.000000;stroke-dashoffset:0.0;"/>
   </g>
   <g id="line2d_3">
    <path clip-path="url(#p4b6175b2bf)" d="M 42.059375 46.88314 
L 87.496518 42.949073 
L 123.367946 40.069807 
L 154.456518 37.797288 
L 183.153661 35.923668 
L 209.459375 34.42347 
L 235.765089 33.154182 
L 259.679375 32.217251 
L 283.593661 31.500034 
L 307.507946 31.012876 
L 331.422232 30.763706 
L 355.336518 30.757902 
L 374.467946 30.930408 
L 374.467946 30.930408 
" style="fill:none;stroke:#ff0000;stroke-dasharray:6.000000,6.000000;stroke-dashoffset:0.0;"/>
   </g>
   <g id="line2d_4">
    <path clip-path="url(#p4b6175b2bf)" d="M 42.059375 39.724233 
L 85.105089 37.651102 
L 123.367946 36.018482 
L 159.239375 34.695669 
L 195.110804 33.598003 
L 228.590804 32.795858 
L 262.070804 32.224751 
L 293.159375 31.913593 
L 324.247946 31.823287 
L 355.336518 31.961593 
L 374.467946 32.162951 
L 374.467946 32.162951 
" style="fill:none;stroke:#ff0000;stroke-dasharray:6.000000,6.000000;stroke-dashoffset:0.0;"/>
   </g>
   <g id="line2d_5">
    <path clip-path="url(#p4b6175b2bf)" d="M 42.059375 41.659538 
L 87.496518 38.906985 
L 125.759375 36.813808 
L 159.239375 35.204072 
L 190.327946 33.931238 
L 219.025089 32.971873 
L 247.722232 32.240417 
L 274.027946 31.785178 
L 300.333661 31.547465 
L 326.639375 31.536124 
L 352.945089 31.757471 
L 374.467946 32.114302 
L 374.467946 32.114302 
" style="fill:none;stroke:#ff0000;stroke-dasharray:6.000000,6.000000;stroke-dashoffset:0.0;"/>
   </g>
   <g id="line2d_6">
    <path clip-path="url(#p4b6175b2bf)" d="M 42.059375 36.780266 
L 89.887946 34.345754 
L 130.542232 32.492822 
L 166.413661 31.076759 
L 199.893661 29.977787 
L 230.982232 29.176553 
L 262.070804 28.607702 
L 290.767946 28.303718 
L 319.465089 28.222763 
L 348.162232 28.372064 
L 374.467946 28.714558 
L 374.467946 28.714558 
" style="fill:none;stroke:#ff0000;stroke-dasharray:6.000000,6.000000;stroke-dashoffset:0.0;"/>
   </g>
   <g id="line2d_7">
    <path clip-path="url(#p4b6175b2bf)" d="M 42.059375 41.165878 
L 85.105089 38.747811 
L 123.367946 36.808331 
L 159.239375 35.207328 
L 192.719375 33.931678 
L 223.807946 32.957975 
L 254.896518 32.20562 
L 283.593661 31.721456 
L 312.290804 31.450501 
L 340.987946 31.402017 
L 369.685089 31.583419 
L 374.467946 31.636415 
L 374.467946 31.636415 
" style="fill:none;stroke:#ff0000;stroke-dasharray:6.000000,6.000000;stroke-dashoffset:0.0;"/>
   </g>
   <g id="line2d_8">
    <path clip-path="url(#p4b6175b2bf)" d="M 42.059375 46.34875 
L 82.713661 42.609736 
L 116.193661 39.747257 
L 144.890804 37.504536 
L 171.196518 35.655564 
L 197.502232 34.033425 
L 221.416518 32.776958 
L 245.330804 31.745728 
L 269.245089 30.954214 
L 290.767946 30.456763 
L 312.290804 30.170115 
L 333.813661 30.099355 
L 355.336518 30.247692 
L 374.467946 30.564572 
L 374.467946 30.564572 
" style="fill:none;stroke:#ff0000;stroke-dasharray:6.000000,6.000000;stroke-dashoffset:0.0;"/>
   </g>
   <g id="line2d_9">
    <path clip-path="url(#p4b6175b2bf)" d="M 42.059375 42.28797 
L 80.322232 39.285354 
L 113.802232 36.865598 
L 144.890804 34.827926 
L 173.587946 33.15217 
L 202.285089 31.695743 
L 228.590804 30.570395 
L 254.896518 29.659866 
L 281.202232 28.976252 
L 307.507946 28.52982 
L 331.422232 28.336809 
L 355.336518 28.351439 
L 374.467946 28.514888 
L 374.467946 28.514888 
" style="fill:none;stroke:#ff0000;stroke-dasharray:6.000000,6.000000;stroke-dashoffset:0.0;"/>
   </g>
   <g id="line2d_10">
    <path clip-path="url(#p4b6175b2bf)" d="M 42.059375 36.000158 
L 85.105089 34.100115 
L 123.367946 32.629217 
L 159.239375 31.46718 
L 192.719375 30.595081 
L 226.199375 29.947779 
L 257.287946 29.563182 
L 288.376518 29.39964 
L 319.465089 29.467656 
L 348.162232 29.743426 
L 374.467946 30.18046 
L 374.467946 30.18046 
" style="fill:none;stroke:#ff0000;stroke-dasharray:6.000000,6.000000;stroke-dashoffset:0.0;"/>
   </g>
   <g id="line2d_11">
    <path clip-path="url(#p4b6175b2bf)" d="M 42.059375 33.649081 
L 89.887946 31.612387 
L 130.542232 30.095765 
L 166.413661 28.965264 
L 199.893661 28.116944 
L 233.373661 27.493965 
L 264.462232 27.136531 
L 295.550804 27.007154 
L 324.247946 27.100253 
L 352.945089 27.404139 
L 374.467946 27.772805 
L 374.467946 27.772805 
" style="fill:none;stroke:#ff0000;stroke-dasharray:6.000000,6.000000;stroke-dashoffset:0.0;"/>
   </g>
   <g id="line2d_12">
    <path clip-path="url(#p4b6175b2bf)" d="M 42.059375 43.515343 
L 82.713661 40.938801 
L 118.585089 38.886994 
L 152.065089 37.193888 
L 183.153661 35.839335 
L 214.242232 34.716315 
L 242.939375 33.902087 
L 271.636518 33.315462 
L 297.942232 32.987837 
L 324.247946 32.869137 
L 350.553661 32.965531 
L 374.467946 33.243685 
L 374.467946 33.243685 
" style="fill:none;stroke:#ff0000;stroke-dasharray:6.000000,6.000000;stroke-dashoffset:0.0;"/>
   </g>
   <g id="line2d_13">
    <path clip-path="url(#p4b6175b2bf)" d="M 42.059375 41.021252 
L 89.887946 38.307292 
L 130.542232 36.220884 
L 166.413661 34.592215 
L 199.893661 33.283191 
L 233.373661 32.204537 
L 264.462232 31.429937 
L 293.159375 30.923984 
L 321.856518 30.63059 
L 350.553661 30.559386 
L 374.467946 30.675324 
L 374.467946 30.675324 
" style="fill:none;stroke:#ff0000;stroke-dasharray:6.000000,6.000000;stroke-dashoffset:0.0;"/>
   </g>
   <g id="line2d_14">
    <path clip-path="url(#p4b6175b2bf)" d="M 42.059375 36.858825 
L 89.887946 34.977932 
L 130.542232 33.59254 
L 166.413661 32.582686 
L 199.893661 31.854963 
L 230.982232 31.390001 
L 262.070804 31.148068 
L 290.767946 31.136782 
L 319.465089 31.339311 
L 348.162232 31.762597 
L 374.467946 32.34781 
L 374.467946 32.34781 
" style="fill:none;stroke:#ff0000;stroke-dasharray:6.000000,6.000000;stroke-dashoffset:0.0;"/>
   </g>
   <g id="line2d_15">
    <path clip-path="url(#p4b6175b2bf)" d="M 42.059375 40.693607 
L 85.105089 38.008305 
L 123.367946 35.845181 
L 156.847946 34.173899 
L 187.936518 32.841654 
L 216.633661 31.824312 
L 245.330804 31.030959 
L 271.636518 30.514868 
L 297.942232 30.211775 
L 324.247946 30.129935 
L 350.553661 30.275032 
L 374.467946 30.606434 
L 374.467946 30.606434 
" style="fill:none;stroke:#ff0000;stroke-dasharray:6.000000,6.000000;stroke-dashoffset:0.0;"/>
   </g>
   <g id="line2d_16">
    <path clip-path="url(#p4b6175b2bf)" d="M 42.059375 39.08786 
L 89.887946 36.508688 
L 130.542232 34.540244 
L 166.413661 33.024249 
L 199.893661 31.831645 
L 230.982232 30.942383 
L 262.070804 30.284712 
L 290.767946 29.899147 
L 319.465089 29.738932 
L 348.162232 29.814067 
L 374.467946 30.096148 
L 374.467946 30.096148 
" style="fill:none;stroke:#ff0000;stroke-dasharray:6.000000,6.000000;stroke-dashoffset:0.0;"/>
   </g>
   <g id="line2d_17">
    <path clip-path="url(#p4b6175b2bf)" d="M 42.059375 41.43766 
L 92.279375 38.509912 
L 132.933661 36.358559 
L 168.805089 34.682405 
L 202.285089 33.347425 
L 233.373661 32.336339 
L 262.070804 31.619752 
L 290.767946 31.128036 
L 317.073661 30.886432 
L 343.379375 30.85332 
L 369.685089 31.034544 
L 374.467946 31.090829 
L 374.467946 31.090829 
" style="fill:none;stroke:#ff0000;stroke-dasharray:6.000000,6.000000;stroke-dashoffset:0.0;"/>
   </g>
   <g id="line2d_18">
    <path clip-path="url(#p4b6175b2bf)" d="M 42.059375 35.030645 
L 92.279375 33.360547 
L 135.325089 32.143043 
L 175.979375 31.212757 
L 214.242232 30.561061 
L 250.113661 30.169154 
L 285.985089 30.007065 
L 319.465089 30.076052 
L 352.945089 30.367338 
L 374.467946 30.675202 
L 374.467946 30.675202 
" style="fill:none;stroke:#ff0000;stroke-dasharray:6.000000,6.000000;stroke-dashoffset:0.0;"/>
   </g>
   <g id="line2d_19">
    <path clip-path="url(#p4b6175b2bf)" d="M 42.059375 43.45232 
L 82.713661 40.451143 
L 118.585089 38.022048 
L 149.673661 36.128069 
L 178.370804 34.585234 
L 207.067946 33.265513 
L 233.373661 32.271405 
L 259.679375 31.499849 
L 285.985089 30.964576 
L 309.899375 30.692716 
L 333.813661 30.632565 
L 357.727946 30.789302 
L 374.467946 31.029947 
L 374.467946 31.029947 
" style="fill:none;stroke:#ff0000;stroke-dasharray:6.000000,6.000000;stroke-dashoffset:0.0;"/>
   </g>
   <g id="line2d_20">
    <path clip-path="url(#p4b6175b2bf)" d="M 42.059375 38.267385 
L 87.496518 36.237809 
L 128.150804 34.632969 
L 166.413661 33.344304 
L 202.285089 32.361829 
L 235.765089 31.664632 
L 269.245089 31.198327 
L 300.333661 30.985817 
L 331.422232 30.996271 
L 362.510804 31.237685 
L 374.467946 31.393282 
L 374.467946 31.393282 
" style="fill:none;stroke:#ff0000;stroke-dasharray:6.000000,6.000000;stroke-dashoffset:0.0;"/>
   </g>
   <g id="line2d_21">
    <path clip-path="url(#p4b6175b2bf)" d="M 42.059375 43.852823 
L 85.105089 40.593863 
L 120.976518 38.101793 
L 152.065089 36.152959 
L 180.762232 34.559416 
L 209.459375 33.188924 
L 235.765089 32.14805 
L 262.070804 31.329157 
L 288.376518 30.745407 
L 312.290804 30.427821 
L 336.205089 30.319573 
L 360.119375 30.424911 
L 374.467946 30.591674 
L 374.467946 30.591674 
" style="fill:none;stroke:#ff0000;stroke-dasharray:6.000000,6.000000;stroke-dashoffset:0.0;"/>
   </g>
   <g id="line2d_22">
    <path clip-path="url(#p4b6175b2bf)" d="M 42.059375 36.159826 
L 82.713661 33.906867 
L 118.585089 32.131961 
L 152.065089 30.702028 
L 183.153661 29.604699 
L 211.850804 28.813752 
L 240.547946 28.255974 
L 266.853661 27.963681 
L 293.159375 27.891502 
L 319.465089 28.047113 
L 345.770804 28.435436 
L 372.076518 29.058507 
L 374.467946 29.126781 
L 374.467946 29.126781 
" style="fill:none;stroke:#ff0000;stroke-dasharray:6.000000,6.000000;stroke-dashoffset:0.0;"/>
   </g>
   <g id="line2d_23">
    <path clip-path="url(#p4b6175b2bf)" d="M 42.059375 44.609731 
L 80.322232 41.698215 
L 113.802232 39.36564 
L 144.890804 37.427703 
L 173.587946 35.869031 
L 199.893661 34.659771 
L 226.199375 33.681265 
L 250.113661 33.00701 
L 274.027946 32.549811 
L 297.942232 32.319365 
L 321.856518 32.32336 
L 345.770804 32.567367 
L 369.685089 33.054761 
L 374.467946 33.181584 
L 374.467946 33.181584 
" style="fill:none;stroke:#ff0000;stroke-dasharray:6.000000,6.000000;stroke-dashoffset:0.0;"/>
   </g>
   <g id="line2d_24">
    <path clip-path="url(#p4b6175b2bf)" d="M 42.059375 46.214452 
L 82.713661 42.703433 
L 116.193661 40.030865 
L 144.890804 37.946566 
L 173.587946 36.090559 
L 199.893661 34.617869 
L 223.807946 33.488716 
L 247.722232 32.574898 
L 271.636518 31.889396 
L 295.550804 31.442876 
L 317.073661 31.252158 
L 338.596518 31.265851 
L 360.119375 31.486354 
L 374.467946 31.748615 
L 374.467946 31.748615 
" style="fill:none;stroke:#ff0000;stroke-dasharray:6.000000,6.000000;stroke-dashoffset:0.0;"/>
   </g>
   <g id="line2d_25">
    <path clip-path="url(#p4b6175b2bf)" d="M 42.059375 45.526295 
L 85.105089 42.081421 
L 120.976518 39.426127 
L 154.456518 37.175948 
L 185.545089 35.320971 
L 214.242232 33.836353 
L 240.547946 32.686642 
L 266.853661 31.754282 
L 293.159375 31.05211 
L 319.465089 30.590778 
L 343.379375 30.38743 
L 367.293661 30.394539 
L 374.467946 30.438172 
L 374.467946 30.438172 
" style="fill:none;stroke:#ff0000;stroke-dasharray:6.000000,6.000000;stroke-dashoffset:0.0;"/>
   </g>
   <g id="line2d_26">
    <path clip-path="url(#p4b6175b2bf)" d="M 42.059375 37.099813 
L 87.496518 35.063391 
L 128.150804 33.46677 
L 164.022232 32.279989 
L 197.502232 31.392732 
L 228.590804 30.782987 
L 259.679375 30.398608 
L 288.376518 30.2576 
L 317.073661 30.332271 
L 345.770804 30.630202 
L 374.467946 31.156289 
L 374.467946 31.156289 
" style="fill:none;stroke:#000000;stroke-linecap:square;"/>
   </g>
   <g id="line2d_27">
    <path clip-path="url(#p4b6175b2bf)" d="M 266.853661 244.518125 
L 274.027946 242.286125 
L 276.419375 240.054125 
L 276.419375 237.822125 
L 278.810804 235.590125 
L 281.202232 233.358125 
L 283.593661 231.126125 
L 288.376518 228.894125 
L 290.767946 226.662125 
L 290.767946 224.430125 
L 293.159375 222.198125 
L 293.159375 219.966125 
L 293.159375 217.734125 
L 295.550804 215.502125 
L 295.550804 213.270125 
L 297.942232 211.038125 
L 297.942232 208.806125 
L 297.942232 206.574125 
L 300.333661 204.342125 
L 300.333661 202.110125 
L 302.725089 199.878125 
L 305.116518 197.646125 
L 307.507946 195.414125 
L 307.507946 193.182125 
L 307.507946 190.950125 
L 307.507946 188.718125 
L 307.507946 186.486125 
L 309.899375 184.254125 
L 309.899375 182.022125 
L 309.899375 179.790125 
L 309.899375 177.558125 
L 312.290804 175.326125 
L 312.290804 173.094125 
L 312.290804 170.862125 
L 314.682232 168.630125 
L 314.682232 166.398125 
L 314.682232 164.166125 
L 314.682232 161.934125 
L 317.073661 159.702125 
L 317.073661 157.470125 
L 319.465089 155.238125 
L 319.465089 153.006125 
L 319.465089 150.774125 
L 321.856518 148.542125 
L 321.856518 146.310125 
L 321.856518 144.078125 
L 324.247946 141.846125 
L 324.247946 139.614125 
L 324.247946 137.382125 
L 324.247946 135.150125 
L 324.247946 132.918125 
L 324.247946 130.686125 
L 326.639375 128.454125 
L 326.639375 126.222125 
L 326.639375 123.990125 
L 326.639375 121.758125 
L 329.030804 119.526125 
L 329.030804 117.294125 
L 329.030804 115.062125 
L 329.030804 112.830125 
L 329.030804 110.598125 
L 331.422232 108.366125 
L 331.422232 106.134125 
L 331.422232 103.902125 
L 331.422232 101.670125 
L 333.813661 99.438125 
L 333.813661 97.206125 
L 333.813661 94.974125 
L 333.813661 92.742125 
L 333.813661 90.510125 
L 333.813661 88.278125 
L 333.813661 86.046125 
L 336.205089 83.814125 
L 336.205089 81.582125 
L 336.205089 79.350125 
L 338.596518 77.118125 
L 338.596518 74.886125 
L 338.596518 72.654125 
L 338.596518 70.422125 
L 338.596518 68.190125 
L 338.596518 65.958125 
L 340.987946 63.726125 
L 340.987946 61.494125 
L 340.987946 59.262125 
L 343.379375 57.030125 
L 343.379375 54.798125 
L 343.379375 52.566125 
L 343.379375 50.334125 
L 345.770804 48.102125 
L 348.162232 45.870125 
L 348.162232 43.638125 
L 350.553661 41.406125 
L 350.553661 39.174125 
L 350.553661 36.942125 
L 352.945089 34.710125 
L 355.336518 32.478125 
L 357.727946 30.246125 
L 364.902232 28.014125 
L 367.293661 25.782125 
L 369.685089 23.550125 
" style="fill:none;stroke:#008000;stroke-linecap:square;"/>
   </g>
   <g id="line2d_28">
    <path clip-path="url(#p4b6175b2bf)" d="M 276.419375 244.518125 
L 276.419375 21.318125 
" style="fill:none;stroke:#0000ff;stroke-dasharray:6.000000,6.000000;stroke-dashoffset:0.0;"/>
   </g>
   <g id="line2d_29">
    <path clip-path="url(#p4b6175b2bf)" d="M 364.902232 244.518125 
L 364.902232 21.318125 
" style="fill:none;stroke:#0000ff;stroke-dasharray:6.000000,6.000000;stroke-dashoffset:0.0;"/>
   </g>
   <g id="patch_3">
    <path d="M 42.059375 21.318125 
L 376.859375 21.318125 
" style="fill:none;stroke:#000000;stroke-linecap:square;stroke-linejoin:miter;"/>
   </g>
   <g id="patch_4">
    <path d="M 376.859375 244.518125 
L 376.859375 21.318125 
" style="fill:none;stroke:#000000;stroke-linecap:square;stroke-linejoin:miter;"/>
   </g>
   <g id="patch_5">
    <path d="M 42.059375 244.518125 
L 376.859375 244.518125 
" style="fill:none;stroke:#000000;stroke-linecap:square;stroke-linejoin:miter;"/>
   </g>
   <g id="patch_6">
    <path d="M 42.059375 244.518125 
L 42.059375 21.318125 
" style="fill:none;stroke:#000000;stroke-linecap:square;stroke-linejoin:miter;"/>
   </g>
   <g id="matplotlib.axis_1">
    <g id="xtick_1">
     <g id="line2d_30">
      <defs>
       <path d="M 0 0 
L 0 -4 
" id="m00fc8e1718" style="stroke:#000000;stroke-width:0.5;"/>
      </defs>
      <g>
       <use style="stroke:#000000;stroke-width:0.5;" x="42.059375" xlink:href="#m00fc8e1718" y="244.518125"/>
      </g>
     </g>
     <g id="line2d_31">
      <defs>
       <path d="M 0 0 
L 0 4 
" id="m9fedaaae7b" style="stroke:#000000;stroke-width:0.5;"/>
      </defs>
      <g>
       <use style="stroke:#000000;stroke-width:0.5;" x="42.059375" xlink:href="#m9fedaaae7b" y="21.318125"/>
      </g>
     </g>
     <g id="text_1">
      <!-- 0 -->
      <defs>
       <path d="M 31.78125 66.40625 
Q 24.171875 66.40625 20.328125 58.90625 
Q 16.5 51.421875 16.5 36.375 
Q 16.5 21.390625 20.328125 13.890625 
Q 24.171875 6.390625 31.78125 6.390625 
Q 39.453125 6.390625 43.28125 13.890625 
Q 47.125 21.390625 47.125 36.375 
Q 47.125 51.421875 43.28125 58.90625 
Q 39.453125 66.40625 31.78125 66.40625 
M 31.78125 74.21875 
Q 44.046875 74.21875 50.515625 64.515625 
Q 56.984375 54.828125 56.984375 36.375 
Q 56.984375 17.96875 50.515625 8.265625 
Q 44.046875 -1.421875 31.78125 -1.421875 
Q 19.53125 -1.421875 13.0625 8.265625 
Q 6.59375 17.96875 6.59375 36.375 
Q 6.59375 54.828125 13.0625 64.515625 
Q 19.53125 74.21875 31.78125 74.21875 
" id="BitstreamVeraSans-Roman-30"/>
      </defs>
      <g transform="translate(38.878125 256.1165625)scale(0.1 -0.1)">
       <use xlink:href="#BitstreamVeraSans-Roman-30"/>
      </g>
     </g>
    </g>
    <g id="xtick_2">
     <g id="line2d_32">
      <g>
       <use style="stroke:#000000;stroke-width:0.5;" x="89.8879464286" xlink:href="#m00fc8e1718" y="244.518125"/>
      </g>
     </g>
     <g id="line2d_33">
      <g>
       <use style="stroke:#000000;stroke-width:0.5;" x="89.8879464286" xlink:href="#m9fedaaae7b" y="21.318125"/>
      </g>
     </g>
     <g id="text_2">
      <!-- 20 -->
      <defs>
       <path d="M 19.1875 8.296875 
L 53.609375 8.296875 
L 53.609375 0 
L 7.328125 0 
L 7.328125 8.296875 
Q 12.9375 14.109375 22.625 23.890625 
Q 32.328125 33.6875 34.8125 36.53125 
Q 39.546875 41.84375 41.421875 45.53125 
Q 43.3125 49.21875 43.3125 52.78125 
Q 43.3125 58.59375 39.234375 62.25 
Q 35.15625 65.921875 28.609375 65.921875 
Q 23.96875 65.921875 18.8125 64.3125 
Q 13.671875 62.703125 7.8125 59.421875 
L 7.8125 69.390625 
Q 13.765625 71.78125 18.9375 73 
Q 24.125 74.21875 28.421875 74.21875 
Q 39.75 74.21875 46.484375 68.546875 
Q 53.21875 62.890625 53.21875 53.421875 
Q 53.21875 48.921875 51.53125 44.890625 
Q 49.859375 40.875 45.40625 35.40625 
Q 44.1875 33.984375 37.640625 27.21875 
Q 31.109375 20.453125 19.1875 8.296875 
" id="BitstreamVeraSans-Roman-32"/>
      </defs>
      <g transform="translate(83.5254464286 256.1165625)scale(0.1 -0.1)">
       <use xlink:href="#BitstreamVeraSans-Roman-32"/>
       <use x="63.623046875" xlink:href="#BitstreamVeraSans-Roman-30"/>
      </g>
     </g>
    </g>
    <g id="xtick_3">
     <g id="line2d_34">
      <g>
       <use style="stroke:#000000;stroke-width:0.5;" x="137.716517857" xlink:href="#m00fc8e1718" y="244.518125"/>
      </g>
     </g>
     <g id="line2d_35">
      <g>
       <use style="stroke:#000000;stroke-width:0.5;" x="137.716517857" xlink:href="#m9fedaaae7b" y="21.318125"/>
      </g>
     </g>
     <g id="text_3">
      <!-- 40 -->
      <defs>
       <path d="M 37.796875 64.3125 
L 12.890625 25.390625 
L 37.796875 25.390625 
z
M 35.203125 72.90625 
L 47.609375 72.90625 
L 47.609375 25.390625 
L 58.015625 25.390625 
L 58.015625 17.1875 
L 47.609375 17.1875 
L 47.609375 0 
L 37.796875 0 
L 37.796875 17.1875 
L 4.890625 17.1875 
L 4.890625 26.703125 
z
" id="BitstreamVeraSans-Roman-34"/>
      </defs>
      <g transform="translate(131.354017857 256.1165625)scale(0.1 -0.1)">
       <use xlink:href="#BitstreamVeraSans-Roman-34"/>
       <use x="63.623046875" xlink:href="#BitstreamVeraSans-Roman-30"/>
      </g>
     </g>
    </g>
    <g id="xtick_4">
     <g id="line2d_36">
      <g>
       <use style="stroke:#000000;stroke-width:0.5;" x="185.545089286" xlink:href="#m00fc8e1718" y="244.518125"/>
      </g>
     </g>
     <g id="line2d_37">
      <g>
       <use style="stroke:#000000;stroke-width:0.5;" x="185.545089286" xlink:href="#m9fedaaae7b" y="21.318125"/>
      </g>
     </g>
     <g id="text_4">
      <!-- 60 -->
      <defs>
       <path d="M 33.015625 40.375 
Q 26.375 40.375 22.484375 35.828125 
Q 18.609375 31.296875 18.609375 23.390625 
Q 18.609375 15.53125 22.484375 10.953125 
Q 26.375 6.390625 33.015625 6.390625 
Q 39.65625 6.390625 43.53125 10.953125 
Q 47.40625 15.53125 47.40625 23.390625 
Q 47.40625 31.296875 43.53125 35.828125 
Q 39.65625 40.375 33.015625 40.375 
M 52.59375 71.296875 
L 52.59375 62.3125 
Q 48.875 64.0625 45.09375 64.984375 
Q 41.3125 65.921875 37.59375 65.921875 
Q 27.828125 65.921875 22.671875 59.328125 
Q 17.53125 52.734375 16.796875 39.40625 
Q 19.671875 43.65625 24.015625 45.921875 
Q 28.375 48.1875 33.59375 48.1875 
Q 44.578125 48.1875 50.953125 41.515625 
Q 57.328125 34.859375 57.328125 23.390625 
Q 57.328125 12.15625 50.6875 5.359375 
Q 44.046875 -1.421875 33.015625 -1.421875 
Q 20.359375 -1.421875 13.671875 8.265625 
Q 6.984375 17.96875 6.984375 36.375 
Q 6.984375 53.65625 15.1875 63.9375 
Q 23.390625 74.21875 37.203125 74.21875 
Q 40.921875 74.21875 44.703125 73.484375 
Q 48.484375 72.75 52.59375 71.296875 
" id="BitstreamVeraSans-Roman-36"/>
      </defs>
      <g transform="translate(179.182589286 256.1165625)scale(0.1 -0.1)">
       <use xlink:href="#BitstreamVeraSans-Roman-36"/>
       <use x="63.623046875" xlink:href="#BitstreamVeraSans-Roman-30"/>
      </g>
     </g>
    </g>
    <g id="xtick_5">
     <g id="line2d_38">
      <g>
       <use style="stroke:#000000;stroke-width:0.5;" x="233.373660714" xlink:href="#m00fc8e1718" y="244.518125"/>
      </g>
     </g>
     <g id="line2d_39">
      <g>
       <use style="stroke:#000000;stroke-width:0.5;" x="233.373660714" xlink:href="#m9fedaaae7b" y="21.318125"/>
      </g>
     </g>
     <g id="text_5">
      <!-- 80 -->
      <defs>
       <path d="M 31.78125 34.625 
Q 24.75 34.625 20.71875 30.859375 
Q 16.703125 27.09375 16.703125 20.515625 
Q 16.703125 13.921875 20.71875 10.15625 
Q 24.75 6.390625 31.78125 6.390625 
Q 38.8125 6.390625 42.859375 10.171875 
Q 46.921875 13.96875 46.921875 20.515625 
Q 46.921875 27.09375 42.890625 30.859375 
Q 38.875 34.625 31.78125 34.625 
M 21.921875 38.8125 
Q 15.578125 40.375 12.03125 44.71875 
Q 8.5 49.078125 8.5 55.328125 
Q 8.5 64.0625 14.71875 69.140625 
Q 20.953125 74.21875 31.78125 74.21875 
Q 42.671875 74.21875 48.875 69.140625 
Q 55.078125 64.0625 55.078125 55.328125 
Q 55.078125 49.078125 51.53125 44.71875 
Q 48 40.375 41.703125 38.8125 
Q 48.828125 37.15625 52.796875 32.3125 
Q 56.78125 27.484375 56.78125 20.515625 
Q 56.78125 9.90625 50.3125 4.234375 
Q 43.84375 -1.421875 31.78125 -1.421875 
Q 19.734375 -1.421875 13.25 4.234375 
Q 6.78125 9.90625 6.78125 20.515625 
Q 6.78125 27.484375 10.78125 32.3125 
Q 14.796875 37.15625 21.921875 38.8125 
M 18.3125 54.390625 
Q 18.3125 48.734375 21.84375 45.5625 
Q 25.390625 42.390625 31.78125 42.390625 
Q 38.140625 42.390625 41.71875 45.5625 
Q 45.3125 48.734375 45.3125 54.390625 
Q 45.3125 60.0625 41.71875 63.234375 
Q 38.140625 66.40625 31.78125 66.40625 
Q 25.390625 66.40625 21.84375 63.234375 
Q 18.3125 60.0625 18.3125 54.390625 
" id="BitstreamVeraSans-Roman-38"/>
      </defs>
      <g transform="translate(227.011160714 256.1165625)scale(0.1 -0.1)">
       <use xlink:href="#BitstreamVeraSans-Roman-38"/>
       <use x="63.623046875" xlink:href="#BitstreamVeraSans-Roman-30"/>
      </g>
     </g>
    </g>
    <g id="xtick_6">
     <g id="line2d_40">
      <g>
       <use style="stroke:#000000;stroke-width:0.5;" x="281.202232143" xlink:href="#m00fc8e1718" y="244.518125"/>
      </g>
     </g>
     <g id="line2d_41">
      <g>
       <use style="stroke:#000000;stroke-width:0.5;" x="281.202232143" xlink:href="#m9fedaaae7b" y="21.318125"/>
      </g>
     </g>
     <g id="text_6">
      <!-- 100 -->
      <defs>
       <path d="M 12.40625 8.296875 
L 28.515625 8.296875 
L 28.515625 63.921875 
L 10.984375 60.40625 
L 10.984375 69.390625 
L 28.421875 72.90625 
L 38.28125 72.90625 
L 38.28125 8.296875 
L 54.390625 8.296875 
L 54.390625 0 
L 12.40625 0 
z
" id="BitstreamVeraSans-Roman-31"/>
      </defs>
      <g transform="translate(271.658482143 256.1165625)scale(0.1 -0.1)">
       <use xlink:href="#BitstreamVeraSans-Roman-31"/>
       <use x="63.623046875" xlink:href="#BitstreamVeraSans-Roman-30"/>
       <use x="127.24609375" xlink:href="#BitstreamVeraSans-Roman-30"/>
      </g>
     </g>
    </g>
    <g id="xtick_7">
     <g id="line2d_42">
      <g>
       <use style="stroke:#000000;stroke-width:0.5;" x="329.030803571" xlink:href="#m00fc8e1718" y="244.518125"/>
      </g>
     </g>
     <g id="line2d_43">
      <g>
       <use style="stroke:#000000;stroke-width:0.5;" x="329.030803571" xlink:href="#m9fedaaae7b" y="21.318125"/>
      </g>
     </g>
     <g id="text_7">
      <!-- 120 -->
      <g transform="translate(319.487053571 256.1165625)scale(0.1 -0.1)">
       <use xlink:href="#BitstreamVeraSans-Roman-31"/>
       <use x="63.623046875" xlink:href="#BitstreamVeraSans-Roman-32"/>
       <use x="127.24609375" xlink:href="#BitstreamVeraSans-Roman-30"/>
      </g>
     </g>
    </g>
    <g id="xtick_8">
     <g id="line2d_44">
      <g>
       <use style="stroke:#000000;stroke-width:0.5;" x="376.859375" xlink:href="#m00fc8e1718" y="244.518125"/>
      </g>
     </g>
     <g id="line2d_45">
      <g>
       <use style="stroke:#000000;stroke-width:0.5;" x="376.859375" xlink:href="#m9fedaaae7b" y="21.318125"/>
      </g>
     </g>
     <g id="text_8">
      <!-- 140 -->
      <g transform="translate(367.315625 256.1165625)scale(0.1 -0.1)">
       <use xlink:href="#BitstreamVeraSans-Roman-31"/>
       <use x="63.623046875" xlink:href="#BitstreamVeraSans-Roman-34"/>
       <use x="127.24609375" xlink:href="#BitstreamVeraSans-Roman-30"/>
      </g>
     </g>
    </g>
    <g id="text_9">
     <!-- % Untilting -->
     <defs>
      <path id="BitstreamVeraSans-Roman-20"/>
      <path d="M 72.703125 32.078125 
Q 68.453125 32.078125 66.03125 28.46875 
Q 63.625 24.859375 63.625 18.40625 
Q 63.625 12.0625 66.03125 8.421875 
Q 68.453125 4.78125 72.703125 4.78125 
Q 76.859375 4.78125 79.265625 8.421875 
Q 81.6875 12.0625 81.6875 18.40625 
Q 81.6875 24.8125 79.265625 28.4375 
Q 76.859375 32.078125 72.703125 32.078125 
M 72.703125 38.28125 
Q 80.421875 38.28125 84.953125 32.90625 
Q 89.5 27.546875 89.5 18.40625 
Q 89.5 9.28125 84.9375 3.921875 
Q 80.375 -1.421875 72.703125 -1.421875 
Q 64.890625 -1.421875 60.34375 3.921875 
Q 55.8125 9.28125 55.8125 18.40625 
Q 55.8125 27.59375 60.375 32.9375 
Q 64.9375 38.28125 72.703125 38.28125 
M 22.3125 68.015625 
Q 18.109375 68.015625 15.6875 64.375 
Q 13.28125 60.75 13.28125 54.390625 
Q 13.28125 47.953125 15.671875 44.328125 
Q 18.0625 40.71875 22.3125 40.71875 
Q 26.5625 40.71875 28.96875 44.328125 
Q 31.390625 47.953125 31.390625 54.390625 
Q 31.390625 60.6875 28.953125 64.34375 
Q 26.515625 68.015625 22.3125 68.015625 
M 66.40625 74.21875 
L 74.21875 74.21875 
L 28.609375 -1.421875 
L 20.796875 -1.421875 
z
M 22.3125 74.21875 
Q 30.03125 74.21875 34.609375 68.875 
Q 39.203125 63.53125 39.203125 54.390625 
Q 39.203125 45.171875 34.640625 39.84375 
Q 30.078125 34.515625 22.3125 34.515625 
Q 14.546875 34.515625 10.03125 39.859375 
Q 5.515625 45.21875 5.515625 54.390625 
Q 5.515625 63.484375 10.046875 68.84375 
Q 14.59375 74.21875 22.3125 74.21875 
" id="BitstreamVeraSans-Roman-25"/>
      <path d="M 54.890625 33.015625 
L 54.890625 0 
L 45.90625 0 
L 45.90625 32.71875 
Q 45.90625 40.484375 42.875 44.328125 
Q 39.84375 48.1875 33.796875 48.1875 
Q 26.515625 48.1875 22.3125 43.546875 
Q 18.109375 38.921875 18.109375 30.90625 
L 18.109375 0 
L 9.078125 0 
L 9.078125 54.6875 
L 18.109375 54.6875 
L 18.109375 46.1875 
Q 21.34375 51.125 25.703125 53.5625 
Q 30.078125 56 35.796875 56 
Q 45.21875 56 50.046875 50.171875 
Q 54.890625 44.34375 54.890625 33.015625 
" id="BitstreamVeraSans-Roman-6e"/>
      <path d="M 9.421875 75.984375 
L 18.40625 75.984375 
L 18.40625 0 
L 9.421875 0 
z
" id="BitstreamVeraSans-Roman-6c"/>
      <path d="M 9.421875 54.6875 
L 18.40625 54.6875 
L 18.40625 0 
L 9.421875 0 
z
M 9.421875 75.984375 
L 18.40625 75.984375 
L 18.40625 64.59375 
L 9.421875 64.59375 
z
" id="BitstreamVeraSans-Roman-69"/>
      <path d="M 8.6875 72.90625 
L 18.609375 72.90625 
L 18.609375 28.609375 
Q 18.609375 16.890625 22.84375 11.734375 
Q 27.09375 6.59375 36.625 6.59375 
Q 46.09375 6.59375 50.34375 11.734375 
Q 54.59375 16.890625 54.59375 28.609375 
L 54.59375 72.90625 
L 64.5 72.90625 
L 64.5 27.390625 
Q 64.5 13.140625 57.4375 5.859375 
Q 50.390625 -1.421875 36.625 -1.421875 
Q 22.796875 -1.421875 15.734375 5.859375 
Q 8.6875 13.140625 8.6875 27.390625 
z
" id="BitstreamVeraSans-Roman-55"/>
      <path d="M 18.3125 70.21875 
L 18.3125 54.6875 
L 36.8125 54.6875 
L 36.8125 47.703125 
L 18.3125 47.703125 
L 18.3125 18.015625 
Q 18.3125 11.328125 20.140625 9.421875 
Q 21.96875 7.515625 27.59375 7.515625 
L 36.8125 7.515625 
L 36.8125 0 
L 27.59375 0 
Q 17.1875 0 13.234375 3.875 
Q 9.28125 7.765625 9.28125 18.015625 
L 9.28125 47.703125 
L 2.6875 47.703125 
L 2.6875 54.6875 
L 9.28125 54.6875 
L 9.28125 70.21875 
z
" id="BitstreamVeraSans-Roman-74"/>
      <path d="M 45.40625 27.984375 
Q 45.40625 37.75 41.375 43.109375 
Q 37.359375 48.484375 30.078125 48.484375 
Q 22.859375 48.484375 18.828125 43.109375 
Q 14.796875 37.75 14.796875 27.984375 
Q 14.796875 18.265625 18.828125 12.890625 
Q 22.859375 7.515625 30.078125 7.515625 
Q 37.359375 7.515625 41.375 12.890625 
Q 45.40625 18.265625 45.40625 27.984375 
M 54.390625 6.78125 
Q 54.390625 -7.171875 48.1875 -13.984375 
Q 42 -20.796875 29.203125 -20.796875 
Q 24.46875 -20.796875 20.265625 -20.09375 
Q 16.0625 -19.390625 12.109375 -17.921875 
L 12.109375 -9.1875 
Q 16.0625 -11.328125 19.921875 -12.34375 
Q 23.78125 -13.375 27.78125 -13.375 
Q 36.625 -13.375 41.015625 -8.765625 
Q 45.40625 -4.15625 45.40625 5.171875 
L 45.40625 9.625 
Q 42.625 4.78125 38.28125 2.390625 
Q 33.9375 0 27.875 0 
Q 17.828125 0 11.671875 7.65625 
Q 5.515625 15.328125 5.515625 27.984375 
Q 5.515625 40.671875 11.671875 48.328125 
Q 17.828125 56 27.875 56 
Q 33.9375 56 38.28125 53.609375 
Q 42.625 51.21875 45.40625 46.390625 
L 45.40625 54.6875 
L 54.390625 54.6875 
z
" id="BitstreamVeraSans-Roman-67"/>
     </defs>
     <g transform="translate(181.8609375 270.7946875)scale(0.1 -0.1)">
      <use xlink:href="#BitstreamVeraSans-Roman-25"/>
      <use x="95.01953125" xlink:href="#BitstreamVeraSans-Roman-20"/>
      <use x="126.806640625" xlink:href="#BitstreamVeraSans-Roman-55"/>
      <use x="200.0" xlink:href="#BitstreamVeraSans-Roman-6e"/>
      <use x="263.37890625" xlink:href="#BitstreamVeraSans-Roman-74"/>
      <use x="302.587890625" xlink:href="#BitstreamVeraSans-Roman-69"/>
      <use x="330.37109375" xlink:href="#BitstreamVeraSans-Roman-6c"/>
      <use x="358.154296875" xlink:href="#BitstreamVeraSans-Roman-74"/>
      <use x="397.36328125" xlink:href="#BitstreamVeraSans-Roman-69"/>
      <use x="425.146484375" xlink:href="#BitstreamVeraSans-Roman-6e"/>
      <use x="488.525390625" xlink:href="#BitstreamVeraSans-Roman-67"/>
     </g>
    </g>
   </g>
   <g id="matplotlib.axis_2">
    <g id="ytick_1">
     <g id="line2d_46">
      <defs>
       <path d="M 0 0 
L 4 0 
" id="m91d6db776e" style="stroke:#000000;stroke-width:0.5;"/>
      </defs>
      <g>
       <use style="stroke:#000000;stroke-width:0.5;" x="42.059375" xlink:href="#m91d6db776e" y="244.518125"/>
      </g>
     </g>
     <g id="line2d_47">
      <defs>
       <path d="M 0 0 
L -4 0 
" id="m7fe499046d" style="stroke:#000000;stroke-width:0.5;"/>
      </defs>
      <g>
       <use style="stroke:#000000;stroke-width:0.5;" x="376.859375" xlink:href="#m7fe499046d" y="244.518125"/>
      </g>
     </g>
     <g id="text_10">
      <!-- 0.0 -->
      <defs>
       <path d="M 10.6875 12.40625 
L 21 12.40625 
L 21 0 
L 10.6875 0 
z
" id="BitstreamVeraSans-Roman-2e"/>
      </defs>
      <g transform="translate(22.15625 247.2775)scale(0.1 -0.1)">
       <use xlink:href="#BitstreamVeraSans-Roman-30"/>
       <use x="63.623046875" xlink:href="#BitstreamVeraSans-Roman-2e"/>
       <use x="95.41015625" xlink:href="#BitstreamVeraSans-Roman-30"/>
      </g>
     </g>
    </g>
    <g id="ytick_2">
     <g id="line2d_48">
      <g>
       <use style="stroke:#000000;stroke-width:0.5;" x="42.059375" xlink:href="#m91d6db776e" y="199.878125"/>
      </g>
     </g>
     <g id="line2d_49">
      <g>
       <use style="stroke:#000000;stroke-width:0.5;" x="376.859375" xlink:href="#m7fe499046d" y="199.878125"/>
      </g>
     </g>
     <g id="text_11">
      <!-- 0.2 -->
      <g transform="translate(22.15625 202.6375)scale(0.1 -0.1)">
       <use xlink:href="#BitstreamVeraSans-Roman-30"/>
       <use x="63.623046875" xlink:href="#BitstreamVeraSans-Roman-2e"/>
       <use x="95.41015625" xlink:href="#BitstreamVeraSans-Roman-32"/>
      </g>
     </g>
    </g>
    <g id="ytick_3">
     <g id="line2d_50">
      <g>
       <use style="stroke:#000000;stroke-width:0.5;" x="42.059375" xlink:href="#m91d6db776e" y="155.238125"/>
      </g>
     </g>
     <g id="line2d_51">
      <g>
       <use style="stroke:#000000;stroke-width:0.5;" x="376.859375" xlink:href="#m7fe499046d" y="155.238125"/>
      </g>
     </g>
     <g id="text_12">
      <!-- 0.4 -->
      <g transform="translate(22.15625 157.9975)scale(0.1 -0.1)">
       <use xlink:href="#BitstreamVeraSans-Roman-30"/>
       <use x="63.623046875" xlink:href="#BitstreamVeraSans-Roman-2e"/>
       <use x="95.41015625" xlink:href="#BitstreamVeraSans-Roman-34"/>
      </g>
     </g>
    </g>
    <g id="ytick_4">
     <g id="line2d_52">
      <g>
       <use style="stroke:#000000;stroke-width:0.5;" x="42.059375" xlink:href="#m91d6db776e" y="110.598125"/>
      </g>
     </g>
     <g id="line2d_53">
      <g>
       <use style="stroke:#000000;stroke-width:0.5;" x="376.859375" xlink:href="#m7fe499046d" y="110.598125"/>
      </g>
     </g>
     <g id="text_13">
      <!-- 0.6 -->
      <g transform="translate(22.15625 113.3575)scale(0.1 -0.1)">
       <use xlink:href="#BitstreamVeraSans-Roman-30"/>
       <use x="63.623046875" xlink:href="#BitstreamVeraSans-Roman-2e"/>
       <use x="95.41015625" xlink:href="#BitstreamVeraSans-Roman-36"/>
      </g>
     </g>
    </g>
    <g id="ytick_5">
     <g id="line2d_54">
      <g>
       <use style="stroke:#000000;stroke-width:0.5;" x="42.059375" xlink:href="#m91d6db776e" y="65.958125"/>
      </g>
     </g>
     <g id="line2d_55">
      <g>
       <use style="stroke:#000000;stroke-width:0.5;" x="376.859375" xlink:href="#m7fe499046d" y="65.958125"/>
      </g>
     </g>
     <g id="text_14">
      <!-- 0.8 -->
      <g transform="translate(22.15625 68.7175)scale(0.1 -0.1)">
       <use xlink:href="#BitstreamVeraSans-Roman-30"/>
       <use x="63.623046875" xlink:href="#BitstreamVeraSans-Roman-2e"/>
       <use x="95.41015625" xlink:href="#BitstreamVeraSans-Roman-38"/>
      </g>
     </g>
    </g>
    <g id="ytick_6">
     <g id="line2d_56">
      <g>
       <use style="stroke:#000000;stroke-width:0.5;" x="42.059375" xlink:href="#m91d6db776e" y="21.318125"/>
      </g>
     </g>
     <g id="line2d_57">
      <g>
       <use style="stroke:#000000;stroke-width:0.5;" x="376.859375" xlink:href="#m7fe499046d" y="21.318125"/>
      </g>
     </g>
     <g id="text_15">
      <!-- 1.0 -->
      <g transform="translate(22.15625 24.0775)scale(0.1 -0.1)">
       <use xlink:href="#BitstreamVeraSans-Roman-31"/>
       <use x="63.623046875" xlink:href="#BitstreamVeraSans-Roman-2e"/>
       <use x="95.41015625" xlink:href="#BitstreamVeraSans-Roman-30"/>
      </g>
     </g>
    </g>
    <g id="text_16">
     <!-- tau_1 (red), CDF (green) -->
     <defs>
      <path d="M 50.984375 -16.609375 
L 50.984375 -23.578125 
L -0.984375 -23.578125 
L -0.984375 -16.609375 
z
" id="BitstreamVeraSans-Roman-5f"/>
      <path d="M 8.015625 75.875 
L 15.828125 75.875 
Q 23.140625 64.359375 26.78125 53.3125 
Q 30.421875 42.28125 30.421875 31.390625 
Q 30.421875 20.453125 26.78125 9.375 
Q 23.140625 -1.703125 15.828125 -13.1875 
L 8.015625 -13.1875 
Q 14.5 -2 17.703125 9.0625 
Q 20.90625 20.125 20.90625 31.390625 
Q 20.90625 42.671875 17.703125 53.65625 
Q 14.5 64.65625 8.015625 75.875 
" id="BitstreamVeraSans-Roman-29"/>
      <path d="M 31 75.875 
Q 24.46875 64.65625 21.28125 53.65625 
Q 18.109375 42.671875 18.109375 31.390625 
Q 18.109375 20.125 21.3125 9.0625 
Q 24.515625 -2 31 -13.1875 
L 23.1875 -13.1875 
Q 15.875 -1.703125 12.234375 9.375 
Q 8.59375 20.453125 8.59375 31.390625 
Q 8.59375 42.28125 12.203125 53.3125 
Q 15.828125 64.359375 23.1875 75.875 
z
" id="BitstreamVeraSans-Roman-28"/>
      <path d="M 9.8125 72.90625 
L 51.703125 72.90625 
L 51.703125 64.59375 
L 19.671875 64.59375 
L 19.671875 43.109375 
L 48.578125 43.109375 
L 48.578125 34.8125 
L 19.671875 34.8125 
L 19.671875 0 
L 9.8125 0 
z
" id="BitstreamVeraSans-Roman-46"/>
      <path d="M 11.71875 12.40625 
L 22.015625 12.40625 
L 22.015625 4 
L 14.015625 -11.625 
L 7.71875 -11.625 
L 11.71875 4 
z
" id="BitstreamVeraSans-Roman-2c"/>
      <path d="M 19.671875 64.796875 
L 19.671875 8.109375 
L 31.59375 8.109375 
Q 46.6875 8.109375 53.6875 14.9375 
Q 60.6875 21.78125 60.6875 36.53125 
Q 60.6875 51.171875 53.6875 57.984375 
Q 46.6875 64.796875 31.59375 64.796875 
z
M 9.8125 72.90625 
L 30.078125 72.90625 
Q 51.265625 72.90625 61.171875 64.09375 
Q 71.09375 55.28125 71.09375 36.53125 
Q 71.09375 17.671875 61.125 8.828125 
Q 51.171875 0 30.078125 0 
L 9.8125 0 
z
" id="BitstreamVeraSans-Roman-44"/>
      <path d="M 64.40625 67.28125 
L 64.40625 56.890625 
Q 59.421875 61.53125 53.78125 63.8125 
Q 48.140625 66.109375 41.796875 66.109375 
Q 29.296875 66.109375 22.65625 58.46875 
Q 16.015625 50.828125 16.015625 36.375 
Q 16.015625 21.96875 22.65625 14.328125 
Q 29.296875 6.6875 41.796875 6.6875 
Q 48.140625 6.6875 53.78125 8.984375 
Q 59.421875 11.28125 64.40625 15.921875 
L 64.40625 5.609375 
Q 59.234375 2.09375 53.4375 0.328125 
Q 47.65625 -1.421875 41.21875 -1.421875 
Q 24.65625 -1.421875 15.125 8.703125 
Q 5.609375 18.84375 5.609375 36.375 
Q 5.609375 53.953125 15.125 64.078125 
Q 24.65625 74.21875 41.21875 74.21875 
Q 47.75 74.21875 53.53125 72.484375 
Q 59.328125 70.75 64.40625 67.28125 
" id="BitstreamVeraSans-Roman-43"/>
      <path d="M 56.203125 29.59375 
L 56.203125 25.203125 
L 14.890625 25.203125 
Q 15.484375 15.921875 20.484375 11.0625 
Q 25.484375 6.203125 34.421875 6.203125 
Q 39.59375 6.203125 44.453125 7.46875 
Q 49.3125 8.734375 54.109375 11.28125 
L 54.109375 2.78125 
Q 49.265625 0.734375 44.1875 -0.34375 
Q 39.109375 -1.421875 33.890625 -1.421875 
Q 20.796875 -1.421875 13.15625 6.1875 
Q 5.515625 13.8125 5.515625 26.8125 
Q 5.515625 40.234375 12.765625 48.109375 
Q 20.015625 56 32.328125 56 
Q 43.359375 56 49.78125 48.890625 
Q 56.203125 41.796875 56.203125 29.59375 
M 47.21875 32.234375 
Q 47.125 39.59375 43.09375 43.984375 
Q 39.0625 48.390625 32.421875 48.390625 
Q 24.90625 48.390625 20.390625 44.140625 
Q 15.875 39.890625 15.1875 32.171875 
z
" id="BitstreamVeraSans-Roman-65"/>
      <path d="M 45.40625 46.390625 
L 45.40625 75.984375 
L 54.390625 75.984375 
L 54.390625 0 
L 45.40625 0 
L 45.40625 8.203125 
Q 42.578125 3.328125 38.25 0.953125 
Q 33.9375 -1.421875 27.875 -1.421875 
Q 17.96875 -1.421875 11.734375 6.484375 
Q 5.515625 14.40625 5.515625 27.296875 
Q 5.515625 40.1875 11.734375 48.09375 
Q 17.96875 56 27.875 56 
Q 33.9375 56 38.25 53.625 
Q 42.578125 51.265625 45.40625 46.390625 
M 14.796875 27.296875 
Q 14.796875 17.390625 18.875 11.75 
Q 22.953125 6.109375 30.078125 6.109375 
Q 37.203125 6.109375 41.296875 11.75 
Q 45.40625 17.390625 45.40625 27.296875 
Q 45.40625 37.203125 41.296875 42.84375 
Q 37.203125 48.484375 30.078125 48.484375 
Q 22.953125 48.484375 18.875 42.84375 
Q 14.796875 37.203125 14.796875 27.296875 
" id="BitstreamVeraSans-Roman-64"/>
      <path d="M 34.28125 27.484375 
Q 23.390625 27.484375 19.1875 25 
Q 14.984375 22.515625 14.984375 16.5 
Q 14.984375 11.71875 18.140625 8.90625 
Q 21.296875 6.109375 26.703125 6.109375 
Q 34.1875 6.109375 38.703125 11.40625 
Q 43.21875 16.703125 43.21875 25.484375 
L 43.21875 27.484375 
z
M 52.203125 31.203125 
L 52.203125 0 
L 43.21875 0 
L 43.21875 8.296875 
Q 40.140625 3.328125 35.546875 0.953125 
Q 30.953125 -1.421875 24.3125 -1.421875 
Q 15.921875 -1.421875 10.953125 3.296875 
Q 6 8.015625 6 15.921875 
Q 6 25.140625 12.171875 29.828125 
Q 18.359375 34.515625 30.609375 34.515625 
L 43.21875 34.515625 
L 43.21875 35.40625 
Q 43.21875 41.609375 39.140625 45 
Q 35.0625 48.390625 27.6875 48.390625 
Q 23 48.390625 18.546875 47.265625 
Q 14.109375 46.140625 10.015625 43.890625 
L 10.015625 52.203125 
Q 14.9375 54.109375 19.578125 55.046875 
Q 24.21875 56 28.609375 56 
Q 40.484375 56 46.34375 49.84375 
Q 52.203125 43.703125 52.203125 31.203125 
" id="BitstreamVeraSans-Roman-61"/>
      <path d="M 8.5 21.578125 
L 8.5 54.6875 
L 17.484375 54.6875 
L 17.484375 21.921875 
Q 17.484375 14.15625 20.5 10.265625 
Q 23.53125 6.390625 29.59375 6.390625 
Q 36.859375 6.390625 41.078125 11.03125 
Q 45.3125 15.671875 45.3125 23.6875 
L 45.3125 54.6875 
L 54.296875 54.6875 
L 54.296875 0 
L 45.3125 0 
L 45.3125 8.40625 
Q 42.046875 3.421875 37.71875 1 
Q 33.40625 -1.421875 27.6875 -1.421875 
Q 18.265625 -1.421875 13.375 4.4375 
Q 8.5 10.296875 8.5 21.578125 
" id="BitstreamVeraSans-Roman-75"/>
      <path d="M 41.109375 46.296875 
Q 39.59375 47.171875 37.8125 47.578125 
Q 36.03125 48 33.890625 48 
Q 26.265625 48 22.1875 43.046875 
Q 18.109375 38.09375 18.109375 28.8125 
L 18.109375 0 
L 9.078125 0 
L 9.078125 54.6875 
L 18.109375 54.6875 
L 18.109375 46.1875 
Q 20.953125 51.171875 25.484375 53.578125 
Q 30.03125 56 36.53125 56 
Q 37.453125 56 38.578125 55.875 
Q 39.703125 55.765625 41.0625 55.515625 
z
" id="BitstreamVeraSans-Roman-72"/>
     </defs>
     <g transform="translate(14.7984375 194.02359375)rotate(-90.0)scale(0.1 -0.1)">
      <use xlink:href="#BitstreamVeraSans-Roman-74"/>
      <use x="39.208984375" xlink:href="#BitstreamVeraSans-Roman-61"/>
      <use x="100.48828125" xlink:href="#BitstreamVeraSans-Roman-75"/>
      <use x="163.8671875" xlink:href="#BitstreamVeraSans-Roman-5f"/>
      <use x="213.8671875" xlink:href="#BitstreamVeraSans-Roman-31"/>
      <use x="277.490234375" xlink:href="#BitstreamVeraSans-Roman-20"/>
      <use x="309.27734375" xlink:href="#BitstreamVeraSans-Roman-28"/>
      <use x="348.291015625" xlink:href="#BitstreamVeraSans-Roman-72"/>
      <use x="389.373046875" xlink:href="#BitstreamVeraSans-Roman-65"/>
      <use x="450.896484375" xlink:href="#BitstreamVeraSans-Roman-64"/>
      <use x="514.373046875" xlink:href="#BitstreamVeraSans-Roman-29"/>
      <use x="553.38671875" xlink:href="#BitstreamVeraSans-Roman-2c"/>
      <use x="585.173828125" xlink:href="#BitstreamVeraSans-Roman-20"/>
      <use x="616.9609375" xlink:href="#BitstreamVeraSans-Roman-43"/>
      <use x="686.78515625" xlink:href="#BitstreamVeraSans-Roman-44"/>
      <use x="763.787109375" xlink:href="#BitstreamVeraSans-Roman-46"/>
      <use x="821.306640625" xlink:href="#BitstreamVeraSans-Roman-20"/>
      <use x="853.09375" xlink:href="#BitstreamVeraSans-Roman-28"/>
      <use x="892.107421875" xlink:href="#BitstreamVeraSans-Roman-67"/>
      <use x="955.583984375" xlink:href="#BitstreamVeraSans-Roman-72"/>
      <use x="996.666015625" xlink:href="#BitstreamVeraSans-Roman-65"/>
      <use x="1058.18945312" xlink:href="#BitstreamVeraSans-Roman-65"/>
      <use x="1119.71289062" xlink:href="#BitstreamVeraSans-Roman-6e"/>
      <use x="1183.09179688" xlink:href="#BitstreamVeraSans-Roman-29"/>
     </g>
    </g>
   </g>
   <g id="text_17">
    <!-- 98 - 135 percent unfolding -->
    <defs>
     <path d="M 40.578125 39.3125 
Q 47.65625 37.796875 51.625 33 
Q 55.609375 28.21875 55.609375 21.1875 
Q 55.609375 10.40625 48.1875 4.484375 
Q 40.765625 -1.421875 27.09375 -1.421875 
Q 22.515625 -1.421875 17.65625 -0.515625 
Q 12.796875 0.390625 7.625 2.203125 
L 7.625 11.71875 
Q 11.71875 9.328125 16.59375 8.109375 
Q 21.484375 6.890625 26.8125 6.890625 
Q 36.078125 6.890625 40.9375 10.546875 
Q 45.796875 14.203125 45.796875 21.1875 
Q 45.796875 27.640625 41.28125 31.265625 
Q 36.765625 34.90625 28.71875 34.90625 
L 20.21875 34.90625 
L 20.21875 43.015625 
L 29.109375 43.015625 
Q 36.375 43.015625 40.234375 45.921875 
Q 44.09375 48.828125 44.09375 54.296875 
Q 44.09375 59.90625 40.109375 62.90625 
Q 36.140625 65.921875 28.71875 65.921875 
Q 24.65625 65.921875 20.015625 65.03125 
Q 15.375 64.15625 9.8125 62.3125 
L 9.8125 71.09375 
Q 15.4375 72.65625 20.34375 73.4375 
Q 25.25 74.21875 29.59375 74.21875 
Q 40.828125 74.21875 47.359375 69.109375 
Q 53.90625 64.015625 53.90625 55.328125 
Q 53.90625 49.265625 50.4375 45.09375 
Q 46.96875 40.921875 40.578125 39.3125 
" id="BitstreamVeraSans-Roman-33"/>
     <path d="M 30.609375 48.390625 
Q 23.390625 48.390625 19.1875 42.75 
Q 14.984375 37.109375 14.984375 27.296875 
Q 14.984375 17.484375 19.15625 11.84375 
Q 23.34375 6.203125 30.609375 6.203125 
Q 37.796875 6.203125 41.984375 11.859375 
Q 46.1875 17.53125 46.1875 27.296875 
Q 46.1875 37.015625 41.984375 42.703125 
Q 37.796875 48.390625 30.609375 48.390625 
M 30.609375 56 
Q 42.328125 56 49.015625 48.375 
Q 55.71875 40.765625 55.71875 27.296875 
Q 55.71875 13.875 49.015625 6.21875 
Q 42.328125 -1.421875 30.609375 -1.421875 
Q 18.84375 -1.421875 12.171875 6.21875 
Q 5.515625 13.875 5.515625 27.296875 
Q 5.515625 40.765625 12.171875 48.375 
Q 18.84375 56 30.609375 56 
" id="BitstreamVeraSans-Roman-6f"/>
     <path d="M 18.109375 8.203125 
L 18.109375 -20.796875 
L 9.078125 -20.796875 
L 9.078125 54.6875 
L 18.109375 54.6875 
L 18.109375 46.390625 
Q 20.953125 51.265625 25.265625 53.625 
Q 29.59375 56 35.59375 56 
Q 45.5625 56 51.78125 48.09375 
Q 58.015625 40.1875 58.015625 27.296875 
Q 58.015625 14.40625 51.78125 6.484375 
Q 45.5625 -1.421875 35.59375 -1.421875 
Q 29.59375 -1.421875 25.265625 0.953125 
Q 20.953125 3.328125 18.109375 8.203125 
M 48.6875 27.296875 
Q 48.6875 37.203125 44.609375 42.84375 
Q 40.53125 48.484375 33.40625 48.484375 
Q 26.265625 48.484375 22.1875 42.84375 
Q 18.109375 37.203125 18.109375 27.296875 
Q 18.109375 17.390625 22.1875 11.75 
Q 26.265625 6.109375 33.40625 6.109375 
Q 40.53125 6.109375 44.609375 11.75 
Q 48.6875 17.390625 48.6875 27.296875 
" id="BitstreamVeraSans-Roman-70"/>
     <path d="M 10.796875 72.90625 
L 49.515625 72.90625 
L 49.515625 64.59375 
L 19.828125 64.59375 
L 19.828125 46.734375 
Q 21.96875 47.46875 24.109375 47.828125 
Q 26.265625 48.1875 28.421875 48.1875 
Q 40.625 48.1875 47.75 41.5 
Q 54.890625 34.8125 54.890625 23.390625 
Q 54.890625 11.625 47.5625 5.09375 
Q 40.234375 -1.421875 26.90625 -1.421875 
Q 22.3125 -1.421875 17.546875 -0.640625 
Q 12.796875 0.140625 7.71875 1.703125 
L 7.71875 11.625 
Q 12.109375 9.234375 16.796875 8.0625 
Q 21.484375 6.890625 26.703125 6.890625 
Q 35.15625 6.890625 40.078125 11.328125 
Q 45.015625 15.765625 45.015625 23.390625 
Q 45.015625 31 40.078125 35.4375 
Q 35.15625 39.890625 26.703125 39.890625 
Q 22.75 39.890625 18.8125 39.015625 
Q 14.890625 38.140625 10.796875 36.28125 
z
" id="BitstreamVeraSans-Roman-35"/>
     <path d="M 10.984375 1.515625 
L 10.984375 10.5 
Q 14.703125 8.734375 18.5 7.8125 
Q 22.3125 6.890625 25.984375 6.890625 
Q 35.75 6.890625 40.890625 13.453125 
Q 46.046875 20.015625 46.78125 33.40625 
Q 43.953125 29.203125 39.59375 26.953125 
Q 35.25 24.703125 29.984375 24.703125 
Q 19.046875 24.703125 12.671875 31.3125 
Q 6.296875 37.9375 6.296875 49.421875 
Q 6.296875 60.640625 12.9375 67.421875 
Q 19.578125 74.21875 30.609375 74.21875 
Q 43.265625 74.21875 49.921875 64.515625 
Q 56.59375 54.828125 56.59375 36.375 
Q 56.59375 19.140625 48.40625 8.859375 
Q 40.234375 -1.421875 26.421875 -1.421875 
Q 22.703125 -1.421875 18.890625 -0.6875 
Q 15.09375 0.046875 10.984375 1.515625 
M 30.609375 32.421875 
Q 37.25 32.421875 41.125 36.953125 
Q 45.015625 41.5 45.015625 49.421875 
Q 45.015625 57.28125 41.125 61.84375 
Q 37.25 66.40625 30.609375 66.40625 
Q 23.96875 66.40625 20.09375 61.84375 
Q 16.21875 57.28125 16.21875 49.421875 
Q 16.21875 41.5 20.09375 36.953125 
Q 23.96875 32.421875 30.609375 32.421875 
" id="BitstreamVeraSans-Roman-39"/>
     <path d="M 4.890625 31.390625 
L 31.203125 31.390625 
L 31.203125 23.390625 
L 4.890625 23.390625 
z
" id="BitstreamVeraSans-Roman-2d"/>
     <path d="M 37.109375 75.984375 
L 37.109375 68.5 
L 28.515625 68.5 
Q 23.6875 68.5 21.796875 66.546875 
Q 19.921875 64.59375 19.921875 59.515625 
L 19.921875 54.6875 
L 34.71875 54.6875 
L 34.71875 47.703125 
L 19.921875 47.703125 
L 19.921875 0 
L 10.890625 0 
L 10.890625 47.703125 
L 2.296875 47.703125 
L 2.296875 54.6875 
L 10.890625 54.6875 
L 10.890625 58.5 
Q 10.890625 67.625 15.140625 71.796875 
Q 19.390625 75.984375 28.609375 75.984375 
z
" id="BitstreamVeraSans-Roman-66"/>
     <path d="M 48.78125 52.59375 
L 48.78125 44.1875 
Q 44.96875 46.296875 41.140625 47.34375 
Q 37.3125 48.390625 33.40625 48.390625 
Q 24.65625 48.390625 19.8125 42.84375 
Q 14.984375 37.3125 14.984375 27.296875 
Q 14.984375 17.28125 19.8125 11.734375 
Q 24.65625 6.203125 33.40625 6.203125 
Q 37.3125 6.203125 41.140625 7.25 
Q 44.96875 8.296875 48.78125 10.40625 
L 48.78125 2.09375 
Q 45.015625 0.34375 40.984375 -0.53125 
Q 36.96875 -1.421875 32.421875 -1.421875 
Q 20.0625 -1.421875 12.78125 6.34375 
Q 5.515625 14.109375 5.515625 27.296875 
Q 5.515625 40.671875 12.859375 48.328125 
Q 20.21875 56 33.015625 56 
Q 37.15625 56 41.109375 55.140625 
Q 45.0625 54.296875 48.78125 52.59375 
" id="BitstreamVeraSans-Roman-63"/>
    </defs>
    <g transform="translate(129.325625 16.318125)scale(0.12 -0.12)">
     <use xlink:href="#BitstreamVeraSans-Roman-39"/>
     <use x="63.623046875" xlink:href="#BitstreamVeraSans-Roman-38"/>
     <use x="127.24609375" xlink:href="#BitstreamVeraSans-Roman-20"/>
     <use x="159.033203125" xlink:href="#BitstreamVeraSans-Roman-2d"/>
     <use x="195.1171875" xlink:href="#BitstreamVeraSans-Roman-20"/>
     <use x="226.904296875" xlink:href="#BitstreamVeraSans-Roman-31"/>
     <use x="290.52734375" xlink:href="#BitstreamVeraSans-Roman-33"/>
     <use x="354.150390625" xlink:href="#BitstreamVeraSans-Roman-35"/>
     <use x="417.7734375" xlink:href="#BitstreamVeraSans-Roman-20"/>
     <use x="449.560546875" xlink:href="#BitstreamVeraSans-Roman-70"/>
     <use x="513.037109375" xlink:href="#BitstreamVeraSans-Roman-65"/>
     <use x="574.560546875" xlink:href="#BitstreamVeraSans-Roman-72"/>
     <use x="615.642578125" xlink:href="#BitstreamVeraSans-Roman-63"/>
     <use x="670.623046875" xlink:href="#BitstreamVeraSans-Roman-65"/>
     <use x="732.146484375" xlink:href="#BitstreamVeraSans-Roman-6e"/>
     <use x="795.525390625" xlink:href="#BitstreamVeraSans-Roman-74"/>
     <use x="834.734375" xlink:href="#BitstreamVeraSans-Roman-20"/>
     <use x="866.521484375" xlink:href="#BitstreamVeraSans-Roman-75"/>
     <use x="929.900390625" xlink:href="#BitstreamVeraSans-Roman-6e"/>
     <use x="993.279296875" xlink:href="#BitstreamVeraSans-Roman-66"/>
     <use x="1028.484375" xlink:href="#BitstreamVeraSans-Roman-6f"/>
     <use x="1089.66601562" xlink:href="#BitstreamVeraSans-Roman-6c"/>
     <use x="1117.44921875" xlink:href="#BitstreamVeraSans-Roman-64"/>
     <use x="1180.92578125" xlink:href="#BitstreamVeraSans-Roman-69"/>
     <use x="1208.70898438" xlink:href="#BitstreamVeraSans-Roman-6e"/>
     <use x="1272.08789062" xlink:href="#BitstreamVeraSans-Roman-67"/>
    </g>
   </g>
  </g>
 </g>
 <defs>
  <clipPath id="p4b6175b2bf">
   <rect height="223.2" width="334.8" x="42.059375" y="21.318125"/>
  </clipPath>
 </defs>
</svg>
