<?xml version="1.0" encoding="utf-8" standalone="no"?>
<!DOCTYPE svg PUBLIC "-//W3C//DTD SVG 1.1//EN"
  "http://www.w3.org/Graphics/SVG/1.1/DTD/svg11.dtd">
<!-- Created with matplotlib (http://matplotlib.org/) -->
<svg height="187pt" version="1.1" viewBox="0 0 250 187" width="250pt" xmlns="http://www.w3.org/2000/svg" xmlns:xlink="http://www.w3.org/1999/xlink">
 <defs>
  <style type="text/css">
*{stroke-linecap:butt;stroke-linejoin:round;stroke-miterlimit:100000;}
  </style>
 </defs>
 <g id="figure_1">
  <g id="patch_1">
   <path d="M 0 187.095313 
L 250.64375 187.095313 
L 250.64375 0 
L 0 0 
L 0 187.095313 
z
" style="fill:none;"/>
  </g>
  <g id="axes_1">
   <g id="patch_2">
    <path d="M 41.78125 151.539062 
L 237.08125 151.539062 
L 237.08125 12.039062 
L 41.78125 12.039062 
z
" style="fill:#ffffff;"/>
   </g>
   <g id="line2d_1">
    <path clip-path="url(#p9966e46ec6)" d="M 41.788822 151.539062 
L 41.983368 150.841563 
L 42.696812 148.470063 
L 42.895622 147.772562 
L 43.022642 147.214562 
L 43.336313 145.540562 
L 43.462423 145.122062 
L 43.839836 143.308562 
L 43.945229 143.029562 
L 44.168043 141.774063 
L 45.051884 138.426063 
L 45.14569 138.007563 
L 45.40621 137.589063 
L 45.727445 135.496563 
L 46.242508 134.241062 
L 47.236746 130.474562 
L 47.461623 129.637563 
L 47.897285 128.382062 
L 48.533957 125.592062 
L 48.654869 125.173563 
L 48.680015 124.894563 
L 48.863051 124.615562 
L 48.996002 123.778562 
L 49.070872 123.360062 
L 49.483105 122.104563 
L 50.133998 119.454062 
L 50.185055 118.896062 
L 50.416154 118.617063 
L 50.519087 117.780062 
L 50.655081 117.501063 
L 51.026033 116.106063 
L 51.071466 115.827062 
L 51.269881 115.548063 
L 51.489469 115.269062 
L 51.711197 114.990062 
L 51.772698 114.292563 
L 51.971501 114.013563 
L 52.081973 113.316062 
L 52.239604 112.897562 
L 52.379344 112.479062 
L 52.692203 112.060563 
L 53.81293 108.015062 
L 53.938488 107.596563 
L 53.993992 107.178062 
L 54.401802 106.201562 
L 54.537893 105.643563 
L 54.673934 105.364563 
L 54.71051 105.085562 
L 54.95872 104.667063 
L 55.315911 102.574563 
L 55.64141 102.156063 
L 55.79843 101.598062 
L 55.909307 101.040063 
L 55.95821 100.621563 
L 56.171384 100.203063 
L 56.446639 99.087063 
L 56.544208 98.668563 
L 57.067951 97.134062 
L 57.368793 96.855063 
L 57.37602 96.715563 
L 57.565888 96.436563 
L 57.742985 96.018062 
L 58.096185 93.925563 
L 58.278472 93.507063 
L 58.418618 93.088562 
L 58.723032 92.670063 
L 59.338887 90.996062 
L 59.871671 90.717062 
L 59.940631 90.438063 
L 60.089971 90.159063 
L 60.583966 88.345562 
L 60.909089 88.066563 
L 61.032009 87.648062 
L 61.075261 87.229563 
L 61.227653 86.950563 
L 61.378044 86.532062 
L 61.628861 85.834563 
L 62.604611 84.300062 
L 63.076251 82.347063 
L 63.197947 81.928562 
L 63.31493 81.510063 
L 63.391282 81.091562 
L 63.654979 80.673063 
L 64.043675 79.417563 
L 64.239765 79.278063 
L 64.323333 78.720062 
L 64.55427 78.580562 
L 64.578372 78.301563 
L 64.722738 78.022562 
L 64.783284 77.743562 
L 65.268849 77.464562 
L 65.383241 76.906562 
L 65.672064 76.348562 
L 65.795996 75.930062 
L 65.839408 75.790562 
L 66.081339 75.511562 
L 66.21078 74.814062 
L 66.589525 74.535062 
L 66.885679 73.419062 
L 67.148312 73.140062 
L 67.156365 73.000563 
L 67.559786 72.721563 
L 67.760787 72.303063 
L 67.967113 72.024063 
L 68.010113 71.884563 
L 68.265426 71.605563 
L 68.635964 70.908062 
L 69.477654 67.281063 
L 69.917705 66.723062 
L 69.94052 66.444063 
L 70.317665 66.165063 
L 70.410555 65.746562 
L 70.543722 65.188563 
L 70.888823 64.770062 
L 70.957896 64.072563 
L 71.14368 63.793562 
L 71.717817 63.514562 
L 71.875315 62.817062 
L 72.163342 62.538062 
L 72.165492 62.398562 
L 72.414746 62.119563 
L 72.661817 61.561562 
L 72.717872 61.143062 
L 73.52143 60.445562 
L 73.591053 60.027062 
L 74.067488 59.748062 
L 74.521461 59.329562 
L 74.640013 58.911062 
L 74.922405 58.632062 
L 74.944901 58.492562 
L 75.472815 58.213562 
L 75.607115 57.934562 
L 75.865958 57.376562 
L 76.865377 56.121062 
L 77.001329 55.981562 
L 77.39239 55.702562 
L 78.452072 54.307563 
L 78.586373 53.889063 
L 78.811397 53.749563 
L 78.838671 53.470562 
L 78.971395 53.191563 
L 78.983614 53.052063 
L 79.69835 52.354563 
L 79.719041 52.215063 
L 80.340562 51.517563 
L 80.35344 51.378062 
L 80.949967 50.959563 
L 81.513811 50.541063 
L 81.933688 49.285562 
L 82.314101 49.146062 
L 82.33924 49.006563 
L 82.49243 48.727563 
L 82.603084 48.588063 
L 83.452093 48.309062 
L 83.464915 48.169562 
L 84.609833 47.751063 
L 84.674283 47.611563 
L 84.919603 47.332562 
L 84.926685 47.193062 
L 85.397868 46.914062 
L 85.949307 46.077062 
L 86.27977 45.798063 
L 86.457899 45.379562 
L 86.770671 45.240062 
L 86.806499 45.100562 
L 87.085326 44.961062 
L 87.218797 44.403063 
L 87.908297 44.124062 
L 87.921418 43.984562 
L 88.205768 43.705562 
L 88.210218 43.566063 
L 88.879327 42.868562 
L 90.192912 42.450063 
L 90.425277 42.031562 
L 91.115401 41.473562 
L 91.51324 40.497062 
L 92.32529 39.939062 
L 93.378177 38.683562 
L 93.672574 38.404562 
L 94.237957 37.149063 
L 94.46533 36.870063 
L 94.63744 36.591063 
L 95.259697 36.312063 
L 95.343712 36.172563 
L 96.168673 35.893563 
L 96.217812 35.754063 
L 96.884487 35.475063 
L 96.973678 35.196063 
L 97.291637 34.917063 
L 97.943724 34.359063 
L 99.070061 34.080063 
L 99.178312 33.661563 
L 99.41799 33.522063 
L 100.468819 33.243063 
L 100.512165 33.103563 
L 101.012783 32.685063 
L 101.495477 32.266563 
L 101.596702 31.987562 
L 102.371444 31.708562 
L 102.735009 31.429563 
L 102.825449 31.290063 
L 103.275882 31.150563 
L 103.314993 31.011063 
L 103.712315 30.732062 
L 104.017419 30.453063 
L 104.494234 30.174063 
L 104.969053 29.755562 
L 105.135312 29.337063 
L 105.347162 29.058063 
L 105.540677 28.639562 
L 105.97502 28.360563 
L 106.788146 27.802562 
L 106.837647 27.663062 
L 107.281651 27.384062 
L 107.358525 27.244563 
L 108.110175 26.965563 
L 108.316439 26.407562 
L 109.802433 26.128563 
L 110.252159 25.849562 
L 110.79386 25.431062 
L 111.247923 25.152062 
L 111.482284 25.012563 
L 114.651696 24.175562 
L 114.695753 24.036062 
L 114.946291 23.896563 
L 116.741783 23.338562 
L 116.850406 23.199062 
L 118.701688 22.222562 
L 118.764092 22.083062 
L 120.144561 21.106562 
L 121.342502 20.827562 
L 121.474052 20.688063 
L 122.873987 20.409063 
L 122.914855 20.269563 
L 123.169346 19.990563 
L 124.33813 19.851063 
L 124.383675 19.711563 
L 126.202803 19.153562 
L 127.021086 18.735062 
L 129.807986 18.456063 
L 130.912532 18.177063 
L 134.528038 17.898063 
L 137.619719 17.479563 
L 137.736969 17.340063 
L 140.943372 16.782062 
L 141.381033 16.642562 
L 142.712073 16.363563 
L 143.17828 16.084563 
L 150.977633 15.805563 
L 152.141643 15.666063 
L 152.597853 15.247563 
L 155.742265 15.108063 
L 156.229223 14.968562 
L 159.583235 14.689562 
L 169.81285 13.713063 
L 170.123116 13.573563 
L 201.09633 12.876062 
L 204.819887 12.597062 
L 211.560046 12.318062 
L 221.522922 12.178562 
L 221.522922 12.178562 
" style="fill:none;stroke:#ff0000;stroke-linecap:square;"/>
   </g>
   <g id="line2d_2">
    <path clip-path="url(#p9966e46ec6)" d="M 117.196011 151.539062 
L 117.196011 12.039062 
" style="fill:none;stroke:#008000;stroke-linecap:square;"/>
   </g>
   <g id="line2d_3">
    <path clip-path="url(#p9966e46ec6)" d="M 126.469782 151.539062 
L 126.469782 12.039062 
" style="fill:none;stroke:#0000ff;stroke-dasharray:6.000000,6.000000;stroke-dashoffset:0.0;"/>
   </g>
   <g id="patch_3">
    <path d="M 41.78125 12.039062 
L 237.08125 12.039062 
" style="fill:none;stroke:#000000;stroke-linecap:square;stroke-linejoin:miter;"/>
   </g>
   <g id="patch_4">
    <path d="M 237.08125 151.539062 
L 237.08125 12.039062 
" style="fill:none;stroke:#000000;stroke-linecap:square;stroke-linejoin:miter;"/>
   </g>
   <g id="patch_5">
    <path d="M 41.78125 151.539062 
L 237.08125 151.539062 
" style="fill:none;stroke:#000000;stroke-linecap:square;stroke-linejoin:miter;"/>
   </g>
   <g id="patch_6">
    <path d="M 41.78125 151.539062 
L 41.78125 12.039062 
" style="fill:none;stroke:#000000;stroke-linecap:square;stroke-linejoin:miter;"/>
   </g>
   <g id="matplotlib.axis_1">
    <g id="xtick_1">
     <g id="line2d_4">
      <defs>
       <path d="M 0 0 
L 0 -4 
" id="m31e2510a01" style="stroke:#000000;stroke-width:0.5;"/>
      </defs>
      <g>
       <use style="stroke:#000000;stroke-width:0.5;" x="41.78125" xlink:href="#m31e2510a01" y="151.5390625"/>
      </g>
     </g>
     <g id="line2d_5">
      <defs>
       <path d="M 0 0 
L 0 4 
" id="mc7f40026d1" style="stroke:#000000;stroke-width:0.5;"/>
      </defs>
      <g>
       <use style="stroke:#000000;stroke-width:0.5;" x="41.78125" xlink:href="#mc7f40026d1" y="12.0390625"/>
      </g>
     </g>
     <g id="text_1">
      <!-- 0 -->
      <defs>
       <path d="M 31.78125 66.40625 
Q 24.171875 66.40625 20.328125 58.90625 
Q 16.5 51.421875 16.5 36.375 
Q 16.5 21.390625 20.328125 13.890625 
Q 24.171875 6.390625 31.78125 6.390625 
Q 39.453125 6.390625 43.28125 13.890625 
Q 47.125 21.390625 47.125 36.375 
Q 47.125 51.421875 43.28125 58.90625 
Q 39.453125 66.40625 31.78125 66.40625 
M 31.78125 74.21875 
Q 44.046875 74.21875 50.515625 64.515625 
Q 56.984375 54.828125 56.984375 36.375 
Q 56.984375 17.96875 50.515625 8.265625 
Q 44.046875 -1.421875 31.78125 -1.421875 
Q 19.53125 -1.421875 13.0625 8.265625 
Q 6.59375 17.96875 6.59375 36.375 
Q 6.59375 54.828125 13.0625 64.515625 
Q 19.53125 74.21875 31.78125 74.21875 
" id="BitstreamVeraSans-Roman-30"/>
      </defs>
      <g transform="translate(38.6 163.1375)scale(0.1 -0.1)">
       <use xlink:href="#BitstreamVeraSans-Roman-30"/>
      </g>
     </g>
    </g>
    <g id="xtick_2">
     <g id="line2d_6">
      <g>
       <use style="stroke:#000000;stroke-width:0.5;" x="69.68125" xlink:href="#m31e2510a01" y="151.5390625"/>
      </g>
     </g>
     <g id="line2d_7">
      <g>
       <use style="stroke:#000000;stroke-width:0.5;" x="69.68125" xlink:href="#mc7f40026d1" y="12.0390625"/>
      </g>
     </g>
     <g id="text_2">
      <!-- 2 -->
      <defs>
       <path d="M 19.1875 8.296875 
L 53.609375 8.296875 
L 53.609375 0 
L 7.328125 0 
L 7.328125 8.296875 
Q 12.9375 14.109375 22.625 23.890625 
Q 32.328125 33.6875 34.8125 36.53125 
Q 39.546875 41.84375 41.421875 45.53125 
Q 43.3125 49.21875 43.3125 52.78125 
Q 43.3125 58.59375 39.234375 62.25 
Q 35.15625 65.921875 28.609375 65.921875 
Q 23.96875 65.921875 18.8125 64.3125 
Q 13.671875 62.703125 7.8125 59.421875 
L 7.8125 69.390625 
Q 13.765625 71.78125 18.9375 73 
Q 24.125 74.21875 28.421875 74.21875 
Q 39.75 74.21875 46.484375 68.546875 
Q 53.21875 62.890625 53.21875 53.421875 
Q 53.21875 48.921875 51.53125 44.890625 
Q 49.859375 40.875 45.40625 35.40625 
Q 44.1875 33.984375 37.640625 27.21875 
Q 31.109375 20.453125 19.1875 8.296875 
" id="BitstreamVeraSans-Roman-32"/>
      </defs>
      <g transform="translate(66.5 163.1375)scale(0.1 -0.1)">
       <use xlink:href="#BitstreamVeraSans-Roman-32"/>
      </g>
     </g>
    </g>
    <g id="xtick_3">
     <g id="line2d_8">
      <g>
       <use style="stroke:#000000;stroke-width:0.5;" x="97.58125" xlink:href="#m31e2510a01" y="151.5390625"/>
      </g>
     </g>
     <g id="line2d_9">
      <g>
       <use style="stroke:#000000;stroke-width:0.5;" x="97.58125" xlink:href="#mc7f40026d1" y="12.0390625"/>
      </g>
     </g>
     <g id="text_3">
      <!-- 4 -->
      <defs>
       <path d="M 37.796875 64.3125 
L 12.890625 25.390625 
L 37.796875 25.390625 
z
M 35.203125 72.90625 
L 47.609375 72.90625 
L 47.609375 25.390625 
L 58.015625 25.390625 
L 58.015625 17.1875 
L 47.609375 17.1875 
L 47.609375 0 
L 37.796875 0 
L 37.796875 17.1875 
L 4.890625 17.1875 
L 4.890625 26.703125 
z
" id="BitstreamVeraSans-Roman-34"/>
      </defs>
      <g transform="translate(94.4 163.1375)scale(0.1 -0.1)">
       <use xlink:href="#BitstreamVeraSans-Roman-34"/>
      </g>
     </g>
    </g>
    <g id="xtick_4">
     <g id="line2d_10">
      <g>
       <use style="stroke:#000000;stroke-width:0.5;" x="125.48125" xlink:href="#m31e2510a01" y="151.5390625"/>
      </g>
     </g>
     <g id="line2d_11">
      <g>
       <use style="stroke:#000000;stroke-width:0.5;" x="125.48125" xlink:href="#mc7f40026d1" y="12.0390625"/>
      </g>
     </g>
     <g id="text_4">
      <!-- 6 -->
      <defs>
       <path d="M 33.015625 40.375 
Q 26.375 40.375 22.484375 35.828125 
Q 18.609375 31.296875 18.609375 23.390625 
Q 18.609375 15.53125 22.484375 10.953125 
Q 26.375 6.390625 33.015625 6.390625 
Q 39.65625 6.390625 43.53125 10.953125 
Q 47.40625 15.53125 47.40625 23.390625 
Q 47.40625 31.296875 43.53125 35.828125 
Q 39.65625 40.375 33.015625 40.375 
M 52.59375 71.296875 
L 52.59375 62.3125 
Q 48.875 64.0625 45.09375 64.984375 
Q 41.3125 65.921875 37.59375 65.921875 
Q 27.828125 65.921875 22.671875 59.328125 
Q 17.53125 52.734375 16.796875 39.40625 
Q 19.671875 43.65625 24.015625 45.921875 
Q 28.375 48.1875 33.59375 48.1875 
Q 44.578125 48.1875 50.953125 41.515625 
Q 57.328125 34.859375 57.328125 23.390625 
Q 57.328125 12.15625 50.6875 5.359375 
Q 44.046875 -1.421875 33.015625 -1.421875 
Q 20.359375 -1.421875 13.671875 8.265625 
Q 6.984375 17.96875 6.984375 36.375 
Q 6.984375 53.65625 15.1875 63.9375 
Q 23.390625 74.21875 37.203125 74.21875 
Q 40.921875 74.21875 44.703125 73.484375 
Q 48.484375 72.75 52.59375 71.296875 
" id="BitstreamVeraSans-Roman-36"/>
      </defs>
      <g transform="translate(122.3 163.1375)scale(0.1 -0.1)">
       <use xlink:href="#BitstreamVeraSans-Roman-36"/>
      </g>
     </g>
    </g>
    <g id="xtick_5">
     <g id="line2d_12">
      <g>
       <use style="stroke:#000000;stroke-width:0.5;" x="153.38125" xlink:href="#m31e2510a01" y="151.5390625"/>
      </g>
     </g>
     <g id="line2d_13">
      <g>
       <use style="stroke:#000000;stroke-width:0.5;" x="153.38125" xlink:href="#mc7f40026d1" y="12.0390625"/>
      </g>
     </g>
     <g id="text_5">
      <!-- 8 -->
      <defs>
       <path d="M 31.78125 34.625 
Q 24.75 34.625 20.71875 30.859375 
Q 16.703125 27.09375 16.703125 20.515625 
Q 16.703125 13.921875 20.71875 10.15625 
Q 24.75 6.390625 31.78125 6.390625 
Q 38.8125 6.390625 42.859375 10.171875 
Q 46.921875 13.96875 46.921875 20.515625 
Q 46.921875 27.09375 42.890625 30.859375 
Q 38.875 34.625 31.78125 34.625 
M 21.921875 38.8125 
Q 15.578125 40.375 12.03125 44.71875 
Q 8.5 49.078125 8.5 55.328125 
Q 8.5 64.0625 14.71875 69.140625 
Q 20.953125 74.21875 31.78125 74.21875 
Q 42.671875 74.21875 48.875 69.140625 
Q 55.078125 64.0625 55.078125 55.328125 
Q 55.078125 49.078125 51.53125 44.71875 
Q 48 40.375 41.703125 38.8125 
Q 48.828125 37.15625 52.796875 32.3125 
Q 56.78125 27.484375 56.78125 20.515625 
Q 56.78125 9.90625 50.3125 4.234375 
Q 43.84375 -1.421875 31.78125 -1.421875 
Q 19.734375 -1.421875 13.25 4.234375 
Q 6.78125 9.90625 6.78125 20.515625 
Q 6.78125 27.484375 10.78125 32.3125 
Q 14.796875 37.15625 21.921875 38.8125 
M 18.3125 54.390625 
Q 18.3125 48.734375 21.84375 45.5625 
Q 25.390625 42.390625 31.78125 42.390625 
Q 38.140625 42.390625 41.71875 45.5625 
Q 45.3125 48.734375 45.3125 54.390625 
Q 45.3125 60.0625 41.71875 63.234375 
Q 38.140625 66.40625 31.78125 66.40625 
Q 25.390625 66.40625 21.84375 63.234375 
Q 18.3125 60.0625 18.3125 54.390625 
" id="BitstreamVeraSans-Roman-38"/>
      </defs>
      <g transform="translate(150.2 163.1375)scale(0.1 -0.1)">
       <use xlink:href="#BitstreamVeraSans-Roman-38"/>
      </g>
     </g>
    </g>
    <g id="xtick_6">
     <g id="line2d_14">
      <g>
       <use style="stroke:#000000;stroke-width:0.5;" x="181.28125" xlink:href="#m31e2510a01" y="151.5390625"/>
      </g>
     </g>
     <g id="line2d_15">
      <g>
       <use style="stroke:#000000;stroke-width:0.5;" x="181.28125" xlink:href="#mc7f40026d1" y="12.0390625"/>
      </g>
     </g>
     <g id="text_6">
      <!-- 10 -->
      <defs>
       <path d="M 12.40625 8.296875 
L 28.515625 8.296875 
L 28.515625 63.921875 
L 10.984375 60.40625 
L 10.984375 69.390625 
L 28.421875 72.90625 
L 38.28125 72.90625 
L 38.28125 8.296875 
L 54.390625 8.296875 
L 54.390625 0 
L 12.40625 0 
z
" id="BitstreamVeraSans-Roman-31"/>
      </defs>
      <g transform="translate(174.91875 163.1375)scale(0.1 -0.1)">
       <use xlink:href="#BitstreamVeraSans-Roman-31"/>
       <use x="63.623046875" xlink:href="#BitstreamVeraSans-Roman-30"/>
      </g>
     </g>
    </g>
    <g id="xtick_7">
     <g id="line2d_16">
      <g>
       <use style="stroke:#000000;stroke-width:0.5;" x="209.18125" xlink:href="#m31e2510a01" y="151.5390625"/>
      </g>
     </g>
     <g id="line2d_17">
      <g>
       <use style="stroke:#000000;stroke-width:0.5;" x="209.18125" xlink:href="#mc7f40026d1" y="12.0390625"/>
      </g>
     </g>
     <g id="text_7">
      <!-- 12 -->
      <g transform="translate(202.81875 163.1375)scale(0.1 -0.1)">
       <use xlink:href="#BitstreamVeraSans-Roman-31"/>
       <use x="63.623046875" xlink:href="#BitstreamVeraSans-Roman-32"/>
      </g>
     </g>
    </g>
    <g id="xtick_8">
     <g id="line2d_18">
      <g>
       <use style="stroke:#000000;stroke-width:0.5;" x="237.08125" xlink:href="#m31e2510a01" y="151.5390625"/>
      </g>
     </g>
     <g id="line2d_19">
      <g>
       <use style="stroke:#000000;stroke-width:0.5;" x="237.08125" xlink:href="#mc7f40026d1" y="12.0390625"/>
      </g>
     </g>
     <g id="text_8">
      <!-- 14 -->
      <g transform="translate(230.71875 163.1375)scale(0.1 -0.1)">
       <use xlink:href="#BitstreamVeraSans-Roman-31"/>
       <use x="63.623046875" xlink:href="#BitstreamVeraSans-Roman-34"/>
      </g>
     </g>
    </g>
    <g id="text_9">
     <!-- Watson's V -->
     <defs>
      <path id="BitstreamVeraSans-Roman-20"/>
      <path d="M 17.921875 72.90625 
L 17.921875 45.796875 
L 9.625 45.796875 
L 9.625 72.90625 
z
" id="BitstreamVeraSans-Roman-27"/>
      <path d="M 54.890625 33.015625 
L 54.890625 0 
L 45.90625 0 
L 45.90625 32.71875 
Q 45.90625 40.484375 42.875 44.328125 
Q 39.84375 48.1875 33.796875 48.1875 
Q 26.515625 48.1875 22.3125 43.546875 
Q 18.109375 38.921875 18.109375 30.90625 
L 18.109375 0 
L 9.078125 0 
L 9.078125 54.6875 
L 18.109375 54.6875 
L 18.109375 46.1875 
Q 21.34375 51.125 25.703125 53.5625 
Q 30.078125 56 35.796875 56 
Q 45.21875 56 50.046875 50.171875 
Q 54.890625 44.34375 54.890625 33.015625 
" id="BitstreamVeraSans-Roman-6e"/>
      <path d="M 30.609375 48.390625 
Q 23.390625 48.390625 19.1875 42.75 
Q 14.984375 37.109375 14.984375 27.296875 
Q 14.984375 17.484375 19.15625 11.84375 
Q 23.34375 6.203125 30.609375 6.203125 
Q 37.796875 6.203125 41.984375 11.859375 
Q 46.1875 17.53125 46.1875 27.296875 
Q 46.1875 37.015625 41.984375 42.703125 
Q 37.796875 48.390625 30.609375 48.390625 
M 30.609375 56 
Q 42.328125 56 49.015625 48.375 
Q 55.71875 40.765625 55.71875 27.296875 
Q 55.71875 13.875 49.015625 6.21875 
Q 42.328125 -1.421875 30.609375 -1.421875 
Q 18.84375 -1.421875 12.171875 6.21875 
Q 5.515625 13.875 5.515625 27.296875 
Q 5.515625 40.765625 12.171875 48.375 
Q 18.84375 56 30.609375 56 
" id="BitstreamVeraSans-Roman-6f"/>
      <path d="M 28.609375 0 
L 0.78125 72.90625 
L 11.078125 72.90625 
L 34.1875 11.53125 
L 57.328125 72.90625 
L 67.578125 72.90625 
L 39.796875 0 
z
" id="BitstreamVeraSans-Roman-56"/>
      <path d="M 3.328125 72.90625 
L 13.28125 72.90625 
L 28.609375 11.28125 
L 43.890625 72.90625 
L 54.984375 72.90625 
L 70.3125 11.28125 
L 85.59375 72.90625 
L 95.609375 72.90625 
L 77.296875 0 
L 64.890625 0 
L 49.515625 63.28125 
L 33.984375 0 
L 21.578125 0 
z
" id="BitstreamVeraSans-Roman-57"/>
      <path d="M 18.3125 70.21875 
L 18.3125 54.6875 
L 36.8125 54.6875 
L 36.8125 47.703125 
L 18.3125 47.703125 
L 18.3125 18.015625 
Q 18.3125 11.328125 20.140625 9.421875 
Q 21.96875 7.515625 27.59375 7.515625 
L 36.8125 7.515625 
L 36.8125 0 
L 27.59375 0 
Q 17.1875 0 13.234375 3.875 
Q 9.28125 7.765625 9.28125 18.015625 
L 9.28125 47.703125 
L 2.6875 47.703125 
L 2.6875 54.6875 
L 9.28125 54.6875 
L 9.28125 70.21875 
z
" id="BitstreamVeraSans-Roman-74"/>
      <path d="M 34.28125 27.484375 
Q 23.390625 27.484375 19.1875 25 
Q 14.984375 22.515625 14.984375 16.5 
Q 14.984375 11.71875 18.140625 8.90625 
Q 21.296875 6.109375 26.703125 6.109375 
Q 34.1875 6.109375 38.703125 11.40625 
Q 43.21875 16.703125 43.21875 25.484375 
L 43.21875 27.484375 
z
M 52.203125 31.203125 
L 52.203125 0 
L 43.21875 0 
L 43.21875 8.296875 
Q 40.140625 3.328125 35.546875 0.953125 
Q 30.953125 -1.421875 24.3125 -1.421875 
Q 15.921875 -1.421875 10.953125 3.296875 
Q 6 8.015625 6 15.921875 
Q 6 25.140625 12.171875 29.828125 
Q 18.359375 34.515625 30.609375 34.515625 
L 43.21875 34.515625 
L 43.21875 35.40625 
Q 43.21875 41.609375 39.140625 45 
Q 35.0625 48.390625 27.6875 48.390625 
Q 23 48.390625 18.546875 47.265625 
Q 14.109375 46.140625 10.015625 43.890625 
L 10.015625 52.203125 
Q 14.9375 54.109375 19.578125 55.046875 
Q 24.21875 56 28.609375 56 
Q 40.484375 56 46.34375 49.84375 
Q 52.203125 43.703125 52.203125 31.203125 
" id="BitstreamVeraSans-Roman-61"/>
      <path d="M 44.28125 53.078125 
L 44.28125 44.578125 
Q 40.484375 46.53125 36.375 47.5 
Q 32.28125 48.484375 27.875 48.484375 
Q 21.1875 48.484375 17.84375 46.4375 
Q 14.5 44.390625 14.5 40.28125 
Q 14.5 37.15625 16.890625 35.375 
Q 19.28125 33.59375 26.515625 31.984375 
L 29.59375 31.296875 
Q 39.15625 29.25 43.1875 25.515625 
Q 47.21875 21.78125 47.21875 15.09375 
Q 47.21875 7.46875 41.1875 3.015625 
Q 35.15625 -1.421875 24.609375 -1.421875 
Q 20.21875 -1.421875 15.453125 -0.5625 
Q 10.6875 0.296875 5.421875 2 
L 5.421875 11.28125 
Q 10.40625 8.6875 15.234375 7.390625 
Q 20.0625 6.109375 24.8125 6.109375 
Q 31.15625 6.109375 34.5625 8.28125 
Q 37.984375 10.453125 37.984375 14.40625 
Q 37.984375 18.0625 35.515625 20.015625 
Q 33.0625 21.96875 24.703125 23.78125 
L 21.578125 24.515625 
Q 13.234375 26.265625 9.515625 29.90625 
Q 5.8125 33.546875 5.8125 39.890625 
Q 5.8125 47.609375 11.28125 51.796875 
Q 16.75 56 26.8125 56 
Q 31.78125 56 36.171875 55.265625 
Q 40.578125 54.546875 44.28125 53.078125 
" id="BitstreamVeraSans-Roman-73"/>
     </defs>
     <g transform="translate(111.646875 177.815625)scale(0.1 -0.1)">
      <use xlink:href="#BitstreamVeraSans-Roman-57"/>
      <use x="98.783203125" xlink:href="#BitstreamVeraSans-Roman-61"/>
      <use x="160.0625" xlink:href="#BitstreamVeraSans-Roman-74"/>
      <use x="199.271484375" xlink:href="#BitstreamVeraSans-Roman-73"/>
      <use x="251.37109375" xlink:href="#BitstreamVeraSans-Roman-6f"/>
      <use x="312.552734375" xlink:href="#BitstreamVeraSans-Roman-6e"/>
      <use x="375.931640625" xlink:href="#BitstreamVeraSans-Roman-27"/>
      <use x="403.421875" xlink:href="#BitstreamVeraSans-Roman-73"/>
      <use x="455.521484375" xlink:href="#BitstreamVeraSans-Roman-20"/>
      <use x="487.30859375" xlink:href="#BitstreamVeraSans-Roman-56"/>
     </g>
    </g>
   </g>
   <g id="matplotlib.axis_2">
    <g id="ytick_1">
     <g id="line2d_20">
      <defs>
       <path d="M 0 0 
L 4 0 
" id="m367e388bfe" style="stroke:#000000;stroke-width:0.5;"/>
      </defs>
      <g>
       <use style="stroke:#000000;stroke-width:0.5;" x="41.78125" xlink:href="#m367e388bfe" y="151.5390625"/>
      </g>
     </g>
     <g id="line2d_21">
      <defs>
       <path d="M 0 0 
L -4 0 
" id="m420828209c" style="stroke:#000000;stroke-width:0.5;"/>
      </defs>
      <g>
       <use style="stroke:#000000;stroke-width:0.5;" x="237.08125" xlink:href="#m420828209c" y="151.5390625"/>
      </g>
     </g>
     <g id="text_10">
      <!-- 0.0 -->
      <defs>
       <path d="M 10.6875 12.40625 
L 21 12.40625 
L 21 0 
L 10.6875 0 
z
" id="BitstreamVeraSans-Roman-2e"/>
      </defs>
      <g transform="translate(21.878125 154.2984375)scale(0.1 -0.1)">
       <use xlink:href="#BitstreamVeraSans-Roman-30"/>
       <use x="63.623046875" xlink:href="#BitstreamVeraSans-Roman-2e"/>
       <use x="95.41015625" xlink:href="#BitstreamVeraSans-Roman-30"/>
      </g>
     </g>
    </g>
    <g id="ytick_2">
     <g id="line2d_22">
      <g>
       <use style="stroke:#000000;stroke-width:0.5;" x="41.78125" xlink:href="#m367e388bfe" y="123.6390625"/>
      </g>
     </g>
     <g id="line2d_23">
      <g>
       <use style="stroke:#000000;stroke-width:0.5;" x="237.08125" xlink:href="#m420828209c" y="123.6390625"/>
      </g>
     </g>
     <g id="text_11">
      <!-- 0.2 -->
      <g transform="translate(21.878125 126.3984375)scale(0.1 -0.1)">
       <use xlink:href="#BitstreamVeraSans-Roman-30"/>
       <use x="63.623046875" xlink:href="#BitstreamVeraSans-Roman-2e"/>
       <use x="95.41015625" xlink:href="#BitstreamVeraSans-Roman-32"/>
      </g>
     </g>
    </g>
    <g id="ytick_3">
     <g id="line2d_24">
      <g>
       <use style="stroke:#000000;stroke-width:0.5;" x="41.78125" xlink:href="#m367e388bfe" y="95.7390625"/>
      </g>
     </g>
     <g id="line2d_25">
      <g>
       <use style="stroke:#000000;stroke-width:0.5;" x="237.08125" xlink:href="#m420828209c" y="95.7390625"/>
      </g>
     </g>
     <g id="text_12">
      <!-- 0.4 -->
      <g transform="translate(21.878125 98.4984375)scale(0.1 -0.1)">
       <use xlink:href="#BitstreamVeraSans-Roman-30"/>
       <use x="63.623046875" xlink:href="#BitstreamVeraSans-Roman-2e"/>
       <use x="95.41015625" xlink:href="#BitstreamVeraSans-Roman-34"/>
      </g>
     </g>
    </g>
    <g id="ytick_4">
     <g id="line2d_26">
      <g>
       <use style="stroke:#000000;stroke-width:0.5;" x="41.78125" xlink:href="#m367e388bfe" y="67.8390625"/>
      </g>
     </g>
     <g id="line2d_27">
      <g>
       <use style="stroke:#000000;stroke-width:0.5;" x="237.08125" xlink:href="#m420828209c" y="67.8390625"/>
      </g>
     </g>
     <g id="text_13">
      <!-- 0.6 -->
      <g transform="translate(21.878125 70.5984375)scale(0.1 -0.1)">
       <use xlink:href="#BitstreamVeraSans-Roman-30"/>
       <use x="63.623046875" xlink:href="#BitstreamVeraSans-Roman-2e"/>
       <use x="95.41015625" xlink:href="#BitstreamVeraSans-Roman-36"/>
      </g>
     </g>
    </g>
    <g id="ytick_5">
     <g id="line2d_28">
      <g>
       <use style="stroke:#000000;stroke-width:0.5;" x="41.78125" xlink:href="#m367e388bfe" y="39.9390625"/>
      </g>
     </g>
     <g id="line2d_29">
      <g>
       <use style="stroke:#000000;stroke-width:0.5;" x="237.08125" xlink:href="#m420828209c" y="39.9390625"/>
      </g>
     </g>
     <g id="text_14">
      <!-- 0.8 -->
      <g transform="translate(21.878125 42.6984375)scale(0.1 -0.1)">
       <use xlink:href="#BitstreamVeraSans-Roman-30"/>
       <use x="63.623046875" xlink:href="#BitstreamVeraSans-Roman-2e"/>
       <use x="95.41015625" xlink:href="#BitstreamVeraSans-Roman-38"/>
      </g>
     </g>
    </g>
    <g id="ytick_6">
     <g id="line2d_30">
      <g>
       <use style="stroke:#000000;stroke-width:0.5;" x="41.78125" xlink:href="#m367e388bfe" y="12.0390625"/>
      </g>
     </g>
     <g id="line2d_31">
      <g>
       <use style="stroke:#000000;stroke-width:0.5;" x="237.08125" xlink:href="#m420828209c" y="12.0390625"/>
      </g>
     </g>
     <g id="text_15">
      <!-- 1.0 -->
      <g transform="translate(21.878125 14.7984375)scale(0.1 -0.1)">
       <use xlink:href="#BitstreamVeraSans-Roman-31"/>
       <use x="63.623046875" xlink:href="#BitstreamVeraSans-Roman-2e"/>
       <use x="95.41015625" xlink:href="#BitstreamVeraSans-Roman-30"/>
      </g>
     </g>
    </g>
    <g id="text_16">
     <!-- Cumulative Distribution -->
     <defs>
      <path d="M 52 44.1875 
Q 55.375 50.25 60.0625 53.125 
Q 64.75 56 71.09375 56 
Q 79.640625 56 84.28125 50.015625 
Q 88.921875 44.046875 88.921875 33.015625 
L 88.921875 0 
L 79.890625 0 
L 79.890625 32.71875 
Q 79.890625 40.578125 77.09375 44.375 
Q 74.3125 48.1875 68.609375 48.1875 
Q 61.625 48.1875 57.5625 43.546875 
Q 53.515625 38.921875 53.515625 30.90625 
L 53.515625 0 
L 44.484375 0 
L 44.484375 32.71875 
Q 44.484375 40.625 41.703125 44.40625 
Q 38.921875 48.1875 33.109375 48.1875 
Q 26.21875 48.1875 22.15625 43.53125 
Q 18.109375 38.875 18.109375 30.90625 
L 18.109375 0 
L 9.078125 0 
L 9.078125 54.6875 
L 18.109375 54.6875 
L 18.109375 46.1875 
Q 21.1875 51.21875 25.484375 53.609375 
Q 29.78125 56 35.6875 56 
Q 41.65625 56 45.828125 52.96875 
Q 50 49.953125 52 44.1875 
" id="BitstreamVeraSans-Roman-6d"/>
      <path d="M 9.421875 75.984375 
L 18.40625 75.984375 
L 18.40625 0 
L 9.421875 0 
z
" id="BitstreamVeraSans-Roman-6c"/>
      <path d="M 56.203125 29.59375 
L 56.203125 25.203125 
L 14.890625 25.203125 
Q 15.484375 15.921875 20.484375 11.0625 
Q 25.484375 6.203125 34.421875 6.203125 
Q 39.59375 6.203125 44.453125 7.46875 
Q 49.3125 8.734375 54.109375 11.28125 
L 54.109375 2.78125 
Q 49.265625 0.734375 44.1875 -0.34375 
Q 39.109375 -1.421875 33.890625 -1.421875 
Q 20.796875 -1.421875 13.15625 6.1875 
Q 5.515625 13.8125 5.515625 26.8125 
Q 5.515625 40.234375 12.765625 48.109375 
Q 20.015625 56 32.328125 56 
Q 43.359375 56 49.78125 48.890625 
Q 56.203125 41.796875 56.203125 29.59375 
M 47.21875 32.234375 
Q 47.125 39.59375 43.09375 43.984375 
Q 39.0625 48.390625 32.421875 48.390625 
Q 24.90625 48.390625 20.390625 44.140625 
Q 15.875 39.890625 15.1875 32.171875 
z
" id="BitstreamVeraSans-Roman-65"/>
      <path d="M 19.671875 64.796875 
L 19.671875 8.109375 
L 31.59375 8.109375 
Q 46.6875 8.109375 53.6875 14.9375 
Q 60.6875 21.78125 60.6875 36.53125 
Q 60.6875 51.171875 53.6875 57.984375 
Q 46.6875 64.796875 31.59375 64.796875 
z
M 9.8125 72.90625 
L 30.078125 72.90625 
Q 51.265625 72.90625 61.171875 64.09375 
Q 71.09375 55.28125 71.09375 36.53125 
Q 71.09375 17.671875 61.125 8.828125 
Q 51.171875 0 30.078125 0 
L 9.8125 0 
z
" id="BitstreamVeraSans-Roman-44"/>
      <path d="M 9.421875 54.6875 
L 18.40625 54.6875 
L 18.40625 0 
L 9.421875 0 
z
M 9.421875 75.984375 
L 18.40625 75.984375 
L 18.40625 64.59375 
L 9.421875 64.59375 
z
" id="BitstreamVeraSans-Roman-69"/>
      <path d="M 2.984375 54.6875 
L 12.5 54.6875 
L 29.59375 8.796875 
L 46.6875 54.6875 
L 56.203125 54.6875 
L 35.6875 0 
L 23.484375 0 
z
" id="BitstreamVeraSans-Roman-76"/>
      <path d="M 64.40625 67.28125 
L 64.40625 56.890625 
Q 59.421875 61.53125 53.78125 63.8125 
Q 48.140625 66.109375 41.796875 66.109375 
Q 29.296875 66.109375 22.65625 58.46875 
Q 16.015625 50.828125 16.015625 36.375 
Q 16.015625 21.96875 22.65625 14.328125 
Q 29.296875 6.6875 41.796875 6.6875 
Q 48.140625 6.6875 53.78125 8.984375 
Q 59.421875 11.28125 64.40625 15.921875 
L 64.40625 5.609375 
Q 59.234375 2.09375 53.4375 0.328125 
Q 47.65625 -1.421875 41.21875 -1.421875 
Q 24.65625 -1.421875 15.125 8.703125 
Q 5.609375 18.84375 5.609375 36.375 
Q 5.609375 53.953125 15.125 64.078125 
Q 24.65625 74.21875 41.21875 74.21875 
Q 47.75 74.21875 53.53125 72.484375 
Q 59.328125 70.75 64.40625 67.28125 
" id="BitstreamVeraSans-Roman-43"/>
      <path d="M 8.5 21.578125 
L 8.5 54.6875 
L 17.484375 54.6875 
L 17.484375 21.921875 
Q 17.484375 14.15625 20.5 10.265625 
Q 23.53125 6.390625 29.59375 6.390625 
Q 36.859375 6.390625 41.078125 11.03125 
Q 45.3125 15.671875 45.3125 23.6875 
L 45.3125 54.6875 
L 54.296875 54.6875 
L 54.296875 0 
L 45.3125 0 
L 45.3125 8.40625 
Q 42.046875 3.421875 37.71875 1 
Q 33.40625 -1.421875 27.6875 -1.421875 
Q 18.265625 -1.421875 13.375 4.4375 
Q 8.5 10.296875 8.5 21.578125 
" id="BitstreamVeraSans-Roman-75"/>
      <path d="M 41.109375 46.296875 
Q 39.59375 47.171875 37.8125 47.578125 
Q 36.03125 48 33.890625 48 
Q 26.265625 48 22.1875 43.046875 
Q 18.109375 38.09375 18.109375 28.8125 
L 18.109375 0 
L 9.078125 0 
L 9.078125 54.6875 
L 18.109375 54.6875 
L 18.109375 46.1875 
Q 20.953125 51.171875 25.484375 53.578125 
Q 30.03125 56 36.53125 56 
Q 37.453125 56 38.578125 55.875 
Q 39.703125 55.765625 41.0625 55.515625 
z
" id="BitstreamVeraSans-Roman-72"/>
      <path d="M 48.6875 27.296875 
Q 48.6875 37.203125 44.609375 42.84375 
Q 40.53125 48.484375 33.40625 48.484375 
Q 26.265625 48.484375 22.1875 42.84375 
Q 18.109375 37.203125 18.109375 27.296875 
Q 18.109375 17.390625 22.1875 11.75 
Q 26.265625 6.109375 33.40625 6.109375 
Q 40.53125 6.109375 44.609375 11.75 
Q 48.6875 17.390625 48.6875 27.296875 
M 18.109375 46.390625 
Q 20.953125 51.265625 25.265625 53.625 
Q 29.59375 56 35.59375 56 
Q 45.5625 56 51.78125 48.09375 
Q 58.015625 40.1875 58.015625 27.296875 
Q 58.015625 14.40625 51.78125 6.484375 
Q 45.5625 -1.421875 35.59375 -1.421875 
Q 29.59375 -1.421875 25.265625 0.953125 
Q 20.953125 3.328125 18.109375 8.203125 
L 18.109375 0 
L 9.078125 0 
L 9.078125 75.984375 
L 18.109375 75.984375 
z
" id="BitstreamVeraSans-Roman-62"/>
     </defs>
     <g transform="translate(14.7984375 141.084375)rotate(-90.0)scale(0.1 -0.1)">
      <use xlink:href="#BitstreamVeraSans-Roman-43"/>
      <use x="69.82421875" xlink:href="#BitstreamVeraSans-Roman-75"/>
      <use x="133.203125" xlink:href="#BitstreamVeraSans-Roman-6d"/>
      <use x="230.615234375" xlink:href="#BitstreamVeraSans-Roman-75"/>
      <use x="293.994140625" xlink:href="#BitstreamVeraSans-Roman-6c"/>
      <use x="321.77734375" xlink:href="#BitstreamVeraSans-Roman-61"/>
      <use x="383.056640625" xlink:href="#BitstreamVeraSans-Roman-74"/>
      <use x="422.265625" xlink:href="#BitstreamVeraSans-Roman-69"/>
      <use x="450.048828125" xlink:href="#BitstreamVeraSans-Roman-76"/>
      <use x="509.228515625" xlink:href="#BitstreamVeraSans-Roman-65"/>
      <use x="570.751953125" xlink:href="#BitstreamVeraSans-Roman-20"/>
      <use x="602.5390625" xlink:href="#BitstreamVeraSans-Roman-44"/>
      <use x="679.541015625" xlink:href="#BitstreamVeraSans-Roman-69"/>
      <use x="707.32421875" xlink:href="#BitstreamVeraSans-Roman-73"/>
      <use x="759.423828125" xlink:href="#BitstreamVeraSans-Roman-74"/>
      <use x="798.6328125" xlink:href="#BitstreamVeraSans-Roman-72"/>
      <use x="839.74609375" xlink:href="#BitstreamVeraSans-Roman-69"/>
      <use x="867.529296875" xlink:href="#BitstreamVeraSans-Roman-62"/>
      <use x="931.005859375" xlink:href="#BitstreamVeraSans-Roman-75"/>
      <use x="994.384765625" xlink:href="#BitstreamVeraSans-Roman-74"/>
      <use x="1033.59375" xlink:href="#BitstreamVeraSans-Roman-69"/>
      <use x="1061.37695312" xlink:href="#BitstreamVeraSans-Roman-6f"/>
      <use x="1122.55859375" xlink:href="#BitstreamVeraSans-Roman-6e"/>
     </g>
    </g>
   </g>
  </g>
 </g>
 <defs>
  <clipPath id="p9966e46ec6">
   <rect height="139.5" width="195.3" x="41.78125" y="12.0390625"/>
  </clipPath>
 </defs>
</svg>
