<?xml version="1.0" encoding="utf-8" standalone="no"?>
<!DOCTYPE svg PUBLIC "-//W3C//DTD SVG 1.1//EN"
  "http://www.w3.org/Graphics/SVG/1.1/DTD/svg11.dtd">
<!-- Created with matplotlib (http://matplotlib.org/) -->
<svg height="353pt" version="1.1" viewBox="0 0 352 353" width="352pt" xmlns="http://www.w3.org/2000/svg" xmlns:xlink="http://www.w3.org/1999/xlink">
 <defs>
  <style type="text/css">
*{stroke-linecap:butt;stroke-linejoin:round;stroke-miterlimit:100000;}
  </style>
 </defs>
 <g id="figure_1">
  <g id="patch_1">
   <path d="M 0 353.478125 
L 352.448916 353.478125 
L 352.448916 0 
L 0 0 
L 0 353.478125 
z
" style="fill:none;"/>
  </g>
  <g id="axes_1">
   <g id="PathCollection_1">
    <defs>
     <path d="M 0 2.236068 
C 0.593012 2.236068 1.161816 2.000462 1.581139 1.581139 
C 2.000462 1.161816 2.236068 0.593012 2.236068 0 
C 2.236068 -0.593012 2.000462 -1.161816 1.581139 -1.581139 
C 1.161816 -2.000462 0.593012 -2.236068 0 -2.236068 
C -0.593012 -2.236068 -1.161816 -2.000462 -1.581139 -1.581139 
C -2.000462 -1.161816 -2.236068 -0.593012 -2.236068 0 
C -2.236068 0.593012 -2.000462 1.161816 -1.581139 1.581139 
C -1.161816 2.000462 -0.593012 2.236068 0 2.236068 
z
" id="C0_0_284dd03d70"/>
    </defs>
    <g clip-path="url(#pb5402c6a5f)">
     <use style="fill:none;stroke:#ff0000;" x="302.919943343" xlink:href="#C0_0_284dd03d70" y="216.767963619"/>
    </g>
    <g clip-path="url(#pb5402c6a5f)">
     <use style="fill:none;stroke:#ff0000;" x="255.320603693" xlink:href="#C0_0_284dd03d70" y="214.643194447"/>
    </g>
    <g clip-path="url(#pb5402c6a5f)">
     <use style="fill:none;stroke:#ff0000;" x="234.600293763" xlink:href="#C0_0_284dd03d70" y="231.728762258"/>
    </g>
    <g clip-path="url(#pb5402c6a5f)">
     <use style="fill:none;stroke:#ff0000;" x="266.763756483" xlink:href="#C0_0_284dd03d70" y="215.877212322"/>
    </g>
    <g clip-path="url(#pb5402c6a5f)">
     <use style="fill:none;stroke:#ff0000;" x="290.777038033" xlink:href="#C0_0_284dd03d70" y="253.318200001"/>
    </g>
    <g clip-path="url(#pb5402c6a5f)">
     <use style="fill:none;stroke:#ff0000;" x="283.85019234" xlink:href="#C0_0_284dd03d70" y="197.971320588"/>
    </g>
    <g clip-path="url(#pb5402c6a5f)">
     <use style="fill:none;stroke:#ff0000;" x="302.524053523" xlink:href="#C0_0_284dd03d70" y="243.320353013"/>
    </g>
    <g clip-path="url(#pb5402c6a5f)">
     <use style="fill:none;stroke:#ff0000;" x="305.111260628" xlink:href="#C0_0_284dd03d70" y="254.522667852"/>
    </g>
    <g clip-path="url(#pb5402c6a5f)">
     <use style="fill:none;stroke:#ff0000;" x="277.474193173" xlink:href="#C0_0_284dd03d70" y="204.95620829"/>
    </g>
    <g clip-path="url(#pb5402c6a5f)">
     <use style="fill:none;stroke:#ff0000;" x="300.986805557" xlink:href="#C0_0_284dd03d70" y="227.753898478"/>
    </g>
    <g clip-path="url(#pb5402c6a5f)">
     <use style="fill:none;stroke:#ff0000;" x="318.495741096" xlink:href="#C0_0_284dd03d70" y="210.792614479"/>
    </g>
    <g clip-path="url(#pb5402c6a5f)">
     <use style="fill:none;stroke:#ff0000;" x="293.175986038" xlink:href="#C0_0_284dd03d70" y="186.377298281"/>
    </g>
    <g clip-path="url(#pb5402c6a5f)">
     <use style="fill:none;stroke:#ff0000;" x="258.784943487" xlink:href="#C0_0_284dd03d70" y="215.795733619"/>
    </g>
    <g clip-path="url(#pb5402c6a5f)">
     <use style="fill:none;stroke:#ff0000;" x="239.090093646" xlink:href="#C0_0_284dd03d70" y="214.091842975"/>
    </g>
    <g clip-path="url(#pb5402c6a5f)">
     <use style="fill:none;stroke:#ff0000;" x="255.998455652" xlink:href="#C0_0_284dd03d70" y="211.483166698"/>
    </g>
    <g clip-path="url(#pb5402c6a5f)">
     <use style="fill:none;stroke:#ff0000;" x="266.851451658" xlink:href="#C0_0_284dd03d70" y="184.513457553"/>
    </g>
    <g clip-path="url(#pb5402c6a5f)">
     <use style="fill:none;stroke:#ff0000;" x="279.019111624" xlink:href="#C0_0_284dd03d70" y="182.214590239"/>
    </g>
    <g clip-path="url(#pb5402c6a5f)">
     <use style="fill:none;stroke:#ff0000;" x="242.962162049" xlink:href="#C0_0_284dd03d70" y="203.003412552"/>
    </g>
    <g clip-path="url(#pb5402c6a5f)">
     <use style="fill:none;stroke:#ff0000;" x="288.209842959" xlink:href="#C0_0_284dd03d70" y="231.561209798"/>
    </g>
    <g clip-path="url(#pb5402c6a5f)">
     <use style="fill:none;stroke:#ff0000;" x="257.574906785" xlink:href="#C0_0_284dd03d70" y="228.241212778"/>
    </g>
    <g clip-path="url(#pb5402c6a5f)">
     <use style="fill:none;stroke:#ff0000;" x="238.025714005" xlink:href="#C0_0_284dd03d70" y="206.746471163"/>
    </g>
    <g clip-path="url(#pb5402c6a5f)">
     <use style="fill:none;stroke:#ff0000;" x="234.878616147" xlink:href="#C0_0_284dd03d70" y="198.162063295"/>
    </g>
    <g clip-path="url(#pb5402c6a5f)">
     <use style="fill:none;stroke:#ff0000;" x="246.261221546" xlink:href="#C0_0_284dd03d70" y="220.913343639"/>
    </g>
    <g clip-path="url(#pb5402c6a5f)">
     <use style="fill:none;stroke:#ff0000;" x="248.46718672" xlink:href="#C0_0_284dd03d70" y="217.588442001"/>
    </g>
    <g clip-path="url(#pb5402c6a5f)">
     <use style="fill:none;stroke:#ff0000;" x="215.509684391" xlink:href="#C0_0_284dd03d70" y="173.783868612"/>
    </g>
   </g>
   <g id="PathCollection_2">
    <defs>
     <path d="M 0 2.236068 
C 0.593012 2.236068 1.161816 2.000462 1.581139 1.581139 
C 2.000462 1.161816 2.236068 0.593012 2.236068 0 
C 2.236068 -0.593012 2.000462 -1.161816 1.581139 -1.581139 
C 1.161816 -2.000462 0.593012 -2.236068 0 -2.236068 
C -0.593012 -2.236068 -1.161816 -2.000462 -1.581139 -1.581139 
C -2.000462 -1.161816 -2.236068 -0.593012 -2.236068 0 
C -2.236068 0.593012 -2.000462 1.161816 -1.581139 1.581139 
C -1.161816 2.000462 -0.593012 2.236068 0 2.236068 
z
" id="C1_0_a04fb5aaf6"/>
    </defs>
    <g clip-path="url(#pb5402c6a5f)">
     <use style="fill:none;stroke:#0000ff;" x="267.912541239" xlink:href="#C1_0_a04fb5aaf6" y="192.316881663"/>
    </g>
    <g clip-path="url(#pb5402c6a5f)">
     <use style="fill:none;stroke:#0000ff;" x="236.799608955" xlink:href="#C1_0_a04fb5aaf6" y="186.685239375"/>
    </g>
    <g clip-path="url(#pb5402c6a5f)">
     <use style="fill:none;stroke:#0000ff;" x="218.83863787" xlink:href="#C1_0_a04fb5aaf6" y="204.967715416"/>
    </g>
    <g clip-path="url(#pb5402c6a5f)">
     <use style="fill:none;stroke:#0000ff;" x="246.293774008" xlink:href="#C1_0_a04fb5aaf6" y="190.317059963"/>
    </g>
    <g clip-path="url(#pb5402c6a5f)">
     <use style="fill:none;stroke:#0000ff;" x="256.622281295" xlink:href="#C1_0_a04fb5aaf6" y="222.152021362"/>
    </g>
    <g clip-path="url(#pb5402c6a5f)">
     <use style="fill:none;stroke:#0000ff;" x="245.512890439" xlink:href="#C1_0_a04fb5aaf6" y="168.25825054"/>
    </g>
    <g clip-path="url(#pb5402c6a5f)">
     <use style="fill:none;stroke:#0000ff;" x="254.239708911" xlink:href="#C1_0_a04fb5aaf6" y="204.806642064"/>
    </g>
    <g clip-path="url(#pb5402c6a5f)">
     <use style="fill:none;stroke:#0000ff;" x="261.896822875" xlink:href="#C1_0_a04fb5aaf6" y="226.091004471"/>
    </g>
    <g clip-path="url(#pb5402c6a5f)">
     <use style="fill:none;stroke:#0000ff;" x="248.230028073" xlink:href="#C1_0_a04fb5aaf6" y="188.97839577"/>
    </g>
    <g clip-path="url(#pb5402c6a5f)">
     <use style="fill:none;stroke:#0000ff;" x="258.615659642" xlink:href="#C1_0_a04fb5aaf6" y="207.032375842"/>
    </g>
    <g clip-path="url(#pb5402c6a5f)">
     <use style="fill:none;stroke:#0000ff;" x="251.586382024" xlink:href="#C1_0_a04fb5aaf6" y="187.499286552"/>
    </g>
    <g clip-path="url(#pb5402c6a5f)">
     <use style="fill:none;stroke:#0000ff;" x="254.104555499" xlink:href="#C1_0_a04fb5aaf6" y="174.031481629"/>
    </g>
    <g clip-path="url(#pb5402c6a5f)">
     <use style="fill:none;stroke:#0000ff;" x="249.45043874" xlink:href="#C1_0_a04fb5aaf6" y="198.795673793"/>
    </g>
    <g clip-path="url(#pb5402c6a5f)">
     <use style="fill:none;stroke:#0000ff;" x="223.850328742" xlink:href="#C1_0_a04fb5aaf6" y="199.928195568"/>
    </g>
    <g clip-path="url(#pb5402c6a5f)">
     <use style="fill:none;stroke:#0000ff;" x="243.143983955" xlink:href="#C1_0_a04fb5aaf6" y="200.349193548"/>
    </g>
    <g clip-path="url(#pb5402c6a5f)">
     <use style="fill:none;stroke:#0000ff;" x="234.123878478" xlink:href="#C1_0_a04fb5aaf6" y="173.204853108"/>
    </g>
    <g clip-path="url(#pb5402c6a5f)">
     <use style="fill:none;stroke:#0000ff;" x="247.083613196" xlink:href="#C1_0_a04fb5aaf6" y="171.687634673"/>
    </g>
    <g clip-path="url(#pb5402c6a5f)">
     <use style="fill:none;stroke:#0000ff;" x="232.758169126" xlink:href="#C1_0_a04fb5aaf6" y="189.130361363"/>
    </g>
    <g clip-path="url(#pb5402c6a5f)">
     <use style="fill:none;stroke:#0000ff;" x="268.023892005" xlink:href="#C1_0_a04fb5aaf6" y="209.18758887"/>
    </g>
    <g clip-path="url(#pb5402c6a5f)">
     <use style="fill:none;stroke:#0000ff;" x="235.337113866" xlink:href="#C1_0_a04fb5aaf6" y="203.075977402"/>
    </g>
    <g clip-path="url(#pb5402c6a5f)">
     <use style="fill:none;stroke:#0000ff;" x="215.101640839" xlink:href="#C1_0_a04fb5aaf6" y="179.99018234"/>
    </g>
    <g clip-path="url(#pb5402c6a5f)">
     <use style="fill:none;stroke:#0000ff;" x="221.343034684" xlink:href="#C1_0_a04fb5aaf6" y="186.911503645"/>
    </g>
    <g clip-path="url(#pb5402c6a5f)">
     <use style="fill:none;stroke:#0000ff;" x="237.304300008" xlink:href="#C1_0_a04fb5aaf6" y="213.234892393"/>
    </g>
    <g clip-path="url(#pb5402c6a5f)">
     <use style="fill:none;stroke:#0000ff;" x="239.330878904" xlink:href="#C1_0_a04fb5aaf6" y="209.841756559"/>
    </g>
    <g clip-path="url(#pb5402c6a5f)">
     <use style="fill:none;stroke:#0000ff;" x="207.254360711" xlink:href="#C1_0_a04fb5aaf6" y="167.030976363"/>
    </g>
   </g>
   <g id="line2d_1">
    <path clip-path="url(#pb5402c6a5f)" d="M 190.070748 23.007568 
L 192.640207 23.02994 
L 195.208883 23.097051 
L 200.340757 23.365391 
L 205.460119 23.81226 
L 210.560732 24.437115 
L 215.63638 25.239194 
L 220.680881 26.21752 
L 225.688088 27.370901 
L 230.651901 28.697932 
L 235.566271 30.196995 
L 240.425213 31.866266 
L 245.222805 33.703709 
L 249.953204 35.707086 
L 254.610644 37.873957 
L 259.189453 40.201681 
L 263.684051 42.687422 
L 268.088963 45.328153 
L 272.398821 48.120655 
L 276.608376 51.061526 
L 280.712497 54.147184 
L 284.706186 57.373869 
L 288.584576 60.737649 
L 292.342942 64.234427 
L 295.976705 67.859943 
L 299.481438 71.609778 
L 302.852871 75.479365 
L 306.086897 79.463989 
L 309.179574 83.558795 
L 312.127136 87.758794 
L 314.925991 92.058871 
L 317.572729 96.453784 
L 320.064125 100.93818 
L 322.397145 105.506596 
L 324.568945 110.153465 
L 326.57688 114.873126 
L 328.418503 119.659829 
L 330.091571 124.507742 
L 331.594045 129.410958 
L 332.924094 134.363504 
L 334.080099 139.359346 
L 335.060651 144.392397 
L 335.864555 149.456525 
L 336.490831 154.54556 
L 336.938717 159.653302 
L 337.207667 164.773528 
L 337.297354 169.9 
L 337.207667 175.026472 
L 336.938717 180.146698 
L 336.490831 185.25444 
L 335.864555 190.343475 
L 335.060651 195.407603 
L 334.080099 200.440654 
L 332.924094 205.436496 
L 331.594045 210.389042 
L 330.091571 215.292258 
L 328.418503 220.140171 
L 326.57688 224.926874 
L 324.568945 229.646535 
L 322.397145 234.293404 
L 320.064125 238.86182 
L 317.572729 243.346216 
L 314.925991 247.741129 
L 312.127136 252.041206 
L 309.179574 256.241205 
L 306.086897 260.336011 
L 302.852871 264.320635 
L 299.481438 268.190222 
L 295.976705 271.940057 
L 292.342942 275.565573 
L 288.584576 279.062351 
L 284.706186 282.426131 
L 280.712497 285.652816 
L 276.608376 288.738474 
L 272.398821 291.679345 
L 268.088963 294.471847 
L 263.684051 297.112578 
L 259.189453 299.598319 
L 254.610644 301.926043 
L 249.953204 304.092914 
L 245.222805 306.096291 
L 240.425213 307.933734 
L 235.566271 309.603005 
L 230.651901 311.102068 
L 225.688088 312.429099 
L 220.680881 313.58248 
L 215.63638 314.560806 
L 210.560732 315.362885 
L 205.460119 315.98774 
L 200.340757 316.434609 
L 195.208883 316.702949 
L 190.070748 316.792432 
L 184.932614 316.702949 
L 179.800739 316.434609 
L 174.681377 315.98774 
L 169.580765 315.362885 
L 164.505117 314.560806 
L 159.460616 313.58248 
L 154.453409 312.429099 
L 149.489596 311.102068 
L 144.575225 309.603005 
L 139.716284 307.933734 
L 134.918691 306.096291 
L 130.188293 304.092914 
L 125.530852 301.926043 
L 120.952044 299.598319 
L 116.457446 297.112578 
L 112.052534 294.471847 
L 107.742675 291.679345 
L 103.533121 288.738474 
L 99.428999 285.652816 
L 95.43531 282.426131 
L 91.55692 279.062351 
L 87.798554 275.565573 
L 84.164791 271.940057 
L 80.660058 268.190222 
L 77.288625 264.320635 
L 74.0546 260.336011 
L 70.961922 256.241205 
L 68.014361 252.041206 
L 65.215506 247.741129 
L 62.568768 243.346216 
L 60.077371 238.86182 
L 57.744352 234.293404 
L 55.572552 229.646535 
L 53.564617 224.926874 
L 51.722994 220.140171 
L 50.049926 215.292258 
L 48.547452 210.389042 
L 47.217402 205.436496 
L 46.061397 200.440654 
L 45.080846 195.407603 
L 44.276942 190.343475 
L 43.650666 185.25444 
L 43.202779 180.146698 
L 42.933829 175.026472 
L 42.844143 169.9 
L 42.933829 164.773528 
L 43.202779 159.653302 
L 43.650666 154.54556 
L 44.276942 149.456525 
L 45.080846 144.392397 
L 46.061397 139.359346 
L 47.217402 134.363504 
L 48.547452 129.410958 
L 50.049926 124.507742 
L 51.722994 119.659829 
L 53.564617 114.873126 
L 55.572552 110.153465 
L 57.744352 105.506596 
L 60.077371 100.93818 
L 62.568768 96.453784 
L 65.215506 92.058871 
L 68.014361 87.758794 
L 70.961922 83.558795 
L 74.0546 79.463989 
L 77.288625 75.479365 
L 80.660058 71.609778 
L 84.164791 67.859943 
L 87.798554 64.234427 
L 91.55692 60.737649 
L 95.43531 57.373869 
L 99.428999 54.147184 
L 103.533121 51.061526 
L 107.742675 48.120655 
L 112.052534 45.328153 
L 116.457446 42.687422 
L 120.952044 40.201681 
L 125.530852 37.873957 
L 130.188293 35.707086 
L 134.918691 33.703709 
L 139.716284 31.866266 
L 144.575225 30.196995 
L 149.489596 28.697932 
L 154.453409 27.370901 
L 159.460616 26.21752 
L 164.505117 25.239194 
L 169.580765 24.437115 
L 174.681377 23.81226 
L 179.800739 23.365391 
L 184.932614 23.097051 
L 190.070748 23.007568 
L 190.070748 23.007568 
" style="fill:none;stroke:#000000;stroke-linecap:square;"/>
   </g>
   <g id="line2d_2">
    <defs>
     <path d="M -3 0 
L 3 0 
M 0 3 
L 0 -3 
" id="mba6b47c7d2" style="stroke:#000000;stroke-width:0.5;"/>
    </defs>
    <g clip-path="url(#pb5402c6a5f)">
     <use style="stroke:#000000;stroke-width:0.5;" x="190.070748299" xlink:href="#mba6b47c7d2" y="36.3690570915"/>
     <use style="stroke:#000000;stroke-width:0.5;" x="190.070748299" xlink:href="#mba6b47c7d2" y="50.7467972595"/>
     <use style="stroke:#000000;stroke-width:0.5;" x="190.070748299" xlink:href="#mba6b47c7d2" y="66.0313652471"/>
     <use style="stroke:#000000;stroke-width:0.5;" x="190.070748299" xlink:href="#mba6b47c7d2" y="82.1064362627"/>
     <use style="stroke:#000000;stroke-width:0.5;" x="190.070748299" xlink:href="#mba6b47c7d2" y="98.8496693095"/>
     <use style="stroke:#000000;stroke-width:0.5;" x="190.070748299" xlink:href="#mba6b47c7d2" y="116.133638274"/>
     <use style="stroke:#000000;stroke-width:0.5;" x="190.070748299" xlink:href="#mba6b47c7d2" y="133.826801717"/>
     <use style="stroke:#000000;stroke-width:0.5;" x="190.070748299" xlink:href="#mba6b47c7d2" y="151.79450398"/>
     <use style="stroke:#000000;stroke-width:0.5;" x="190.070748299" xlink:href="#mba6b47c7d2" y="169.9"/>
    </g>
   </g>
   <g id="line2d_3">
    <g clip-path="url(#pb5402c6a5f)">
     <use style="stroke:#000000;stroke-width:0.5;" x="323.905467983" xlink:href="#mba6b47c7d2" y="169.9"/>
     <use style="stroke:#000000;stroke-width:0.5;" x="309.495019115" xlink:href="#mba6b47c7d2" y="169.9"/>
     <use style="stroke:#000000;stroke-width:0.5;" x="294.175679436" xlink:href="#mba6b47c7d2" y="169.9"/>
     <use style="stroke:#000000;stroke-width:0.5;" x="278.06403837" xlink:href="#mba6b47c7d2" y="169.9"/>
     <use style="stroke:#000000;stroke-width:0.5;" x="261.282715236" xlink:href="#mba6b47c7d2" y="169.9"/>
     <use style="stroke:#000000;stroke-width:0.5;" x="243.959426034" xlink:href="#mba6b47c7d2" y="169.9"/>
     <use style="stroke:#000000;stroke-width:0.5;" x="226.226011455" xlink:href="#mba6b47c7d2" y="169.9"/>
     <use style="stroke:#000000;stroke-width:0.5;" x="208.217433493" xlink:href="#mba6b47c7d2" y="169.9"/>
    </g>
   </g>
   <g id="line2d_4">
    <g clip-path="url(#pb5402c6a5f)">
     <use style="stroke:#000000;stroke-width:0.5;" x="190.070748299" xlink:href="#mba6b47c7d2" y="303.430942908"/>
     <use style="stroke:#000000;stroke-width:0.5;" x="190.070748299" xlink:href="#mba6b47c7d2" y="289.05320274"/>
     <use style="stroke:#000000;stroke-width:0.5;" x="190.070748299" xlink:href="#mba6b47c7d2" y="273.768634753"/>
     <use style="stroke:#000000;stroke-width:0.5;" x="190.070748299" xlink:href="#mba6b47c7d2" y="257.693563737"/>
     <use style="stroke:#000000;stroke-width:0.5;" x="190.070748299" xlink:href="#mba6b47c7d2" y="240.95033069"/>
     <use style="stroke:#000000;stroke-width:0.5;" x="190.070748299" xlink:href="#mba6b47c7d2" y="223.666361726"/>
     <use style="stroke:#000000;stroke-width:0.5;" x="190.070748299" xlink:href="#mba6b47c7d2" y="205.973198283"/>
     <use style="stroke:#000000;stroke-width:0.5;" x="190.070748299" xlink:href="#mba6b47c7d2" y="188.00549602"/>
    </g>
   </g>
   <g id="line2d_5">
    <g clip-path="url(#pb5402c6a5f)">
     <use style="stroke:#000000;stroke-width:0.5;" x="56.2360286157" xlink:href="#mba6b47c7d2" y="169.9"/>
     <use style="stroke:#000000;stroke-width:0.5;" x="70.6464774836" xlink:href="#mba6b47c7d2" y="169.9"/>
     <use style="stroke:#000000;stroke-width:0.5;" x="85.9658171628" xlink:href="#mba6b47c7d2" y="169.9"/>
     <use style="stroke:#000000;stroke-width:0.5;" x="102.077458228" xlink:href="#mba6b47c7d2" y="169.9"/>
     <use style="stroke:#000000;stroke-width:0.5;" x="118.858781363" xlink:href="#mba6b47c7d2" y="169.9"/>
     <use style="stroke:#000000;stroke-width:0.5;" x="136.182070565" xlink:href="#mba6b47c7d2" y="169.9"/>
     <use style="stroke:#000000;stroke-width:0.5;" x="153.915485143" xlink:href="#mba6b47c7d2" y="169.9"/>
     <use style="stroke:#000000;stroke-width:0.5;" x="171.924063106" xlink:href="#mba6b47c7d2" y="169.9"/>
    </g>
   </g>
   <g id="line2d_6">
    <path clip-path="url(#pb5402c6a5f)" d="M 190.070748 23.007568 
L 190.070748 24.295023 
L 190.070748 25.593567 
L 190.070748 26.9031 
" style="fill:none;stroke:#000000;stroke-linecap:square;"/>
   </g>
   <g id="line2d_7">
    <path clip-path="url(#pb5402c6a5f)" d="M 215.63638 25.239194 
L 215.412307 26.50709 
L 215.186304 27.785906 
L 214.958389 29.075544 
" style="fill:none;stroke:#000000;stroke-linecap:square;"/>
   </g>
   <g id="line2d_8">
    <path clip-path="url(#pb5402c6a5f)" d="M 240.425213 31.866266 
L 239.983876 33.076078 
L 239.538737 34.29631 
L 239.089832 35.526868 
" style="fill:none;stroke:#000000;stroke-linecap:square;"/>
   </g>
   <g id="line2d_9">
    <path clip-path="url(#pb5402c6a5f)" d="M 263.684051 42.687422 
L 263.038859 43.802391 
L 262.38811 44.926963 
L 261.731854 46.061052 
" style="fill:none;stroke:#000000;stroke-linecap:square;"/>
   </g>
   <g id="line2d_10">
    <path clip-path="url(#pb5402c6a5f)" d="M 284.706186 57.373869 
L 283.876743 58.360117 
L 283.040157 59.354859 
L 282.19649 60.358019 
" style="fill:none;stroke:#000000;stroke-linecap:square;"/>
   </g>
   <g id="line2d_11">
    <path clip-path="url(#pb5402c6a5f)" d="M 302.852871 75.479365 
L 301.86438 76.306925 
L 300.867375 77.141613 
L 299.861932 77.983364 
" style="fill:none;stroke:#000000;stroke-linecap:square;"/>
   </g>
   <g id="line2d_12">
    <path clip-path="url(#pb5402c6a5f)" d="M 317.572729 96.453784 
L 316.455223 97.097512 
L 315.328093 97.746783 
L 314.191424 98.40155 
" style="fill:none;stroke:#000000;stroke-linecap:square;"/>
   </g>
   <g id="line2d_13">
    <path clip-path="url(#pb5402c6a5f)" d="M 328.418503 119.659829 
L 327.205939 120.100165 
L 325.982931 120.544293 
L 324.749573 120.99218 
" style="fill:none;stroke:#000000;stroke-linecap:square;"/>
   </g>
   <g id="line2d_14">
    <path clip-path="url(#pb5402c6a5f)" d="M 335.060651 144.392397 
L 333.789871 144.615961 
L 332.508145 144.841451 
L 331.215573 145.068849 
" style="fill:none;stroke:#000000;stroke-linecap:square;"/>
   </g>
   <g id="line2d_15">
    <path clip-path="url(#pb5402c6a5f)" d="M 337.297354 169.9 
L 336.00697 169.9 
L 334.705472 169.9 
L 333.39296 169.9 
" style="fill:none;stroke:#000000;stroke-linecap:square;"/>
   </g>
   <g id="line2d_16">
    <path clip-path="url(#pb5402c6a5f)" d="M 335.060651 195.407603 
L 333.789871 195.184039 
L 332.508145 194.958549 
L 331.215573 194.731151 
" style="fill:none;stroke:#000000;stroke-linecap:square;"/>
   </g>
   <g id="line2d_17">
    <path clip-path="url(#pb5402c6a5f)" d="M 328.418503 220.140171 
L 327.205939 219.699835 
L 325.982931 219.255707 
L 324.749573 218.80782 
" style="fill:none;stroke:#000000;stroke-linecap:square;"/>
   </g>
   <g id="line2d_18">
    <path clip-path="url(#pb5402c6a5f)" d="M 317.572729 243.346216 
L 316.455223 242.702488 
L 315.328093 242.053217 
L 314.191424 241.39845 
" style="fill:none;stroke:#000000;stroke-linecap:square;"/>
   </g>
   <g id="line2d_19">
    <path clip-path="url(#pb5402c6a5f)" d="M 302.852871 264.320635 
L 301.86438 263.493075 
L 300.867375 262.658387 
L 299.861932 261.816636 
" style="fill:none;stroke:#000000;stroke-linecap:square;"/>
   </g>
   <g id="line2d_20">
    <path clip-path="url(#pb5402c6a5f)" d="M 284.706186 282.426131 
L 283.876743 281.439883 
L 283.040157 280.445141 
L 282.19649 279.441981 
" style="fill:none;stroke:#000000;stroke-linecap:square;"/>
   </g>
   <g id="line2d_21">
    <path clip-path="url(#pb5402c6a5f)" d="M 263.684051 297.112578 
L 263.038859 295.997609 
L 262.38811 294.873037 
L 261.731854 293.738948 
" style="fill:none;stroke:#000000;stroke-linecap:square;"/>
   </g>
   <g id="line2d_22">
    <path clip-path="url(#pb5402c6a5f)" d="M 240.425213 307.933734 
L 239.983876 306.723922 
L 239.538737 305.50369 
L 239.089832 304.273132 
" style="fill:none;stroke:#000000;stroke-linecap:square;"/>
   </g>
   <g id="line2d_23">
    <path clip-path="url(#pb5402c6a5f)" d="M 215.63638 314.560806 
L 215.412307 313.29291 
L 215.186304 312.014094 
L 214.958389 310.724456 
" style="fill:none;stroke:#000000;stroke-linecap:square;"/>
   </g>
   <g id="line2d_24">
    <path clip-path="url(#pb5402c6a5f)" d="M 190.070748 316.792432 
L 190.070748 315.504977 
L 190.070748 314.206433 
L 190.070748 312.8969 
" style="fill:none;stroke:#000000;stroke-linecap:square;"/>
   </g>
   <g id="line2d_25">
    <path clip-path="url(#pb5402c6a5f)" d="M 164.505117 314.560806 
L 164.729189 313.29291 
L 164.955192 312.014094 
L 165.183107 310.724456 
" style="fill:none;stroke:#000000;stroke-linecap:square;"/>
   </g>
   <g id="line2d_26">
    <path clip-path="url(#pb5402c6a5f)" d="M 139.716284 307.933734 
L 140.157621 306.723922 
L 140.602759 305.50369 
L 141.051665 304.273132 
" style="fill:none;stroke:#000000;stroke-linecap:square;"/>
   </g>
   <g id="line2d_27">
    <path clip-path="url(#pb5402c6a5f)" d="M 116.457446 297.112578 
L 117.102638 295.997609 
L 117.753386 294.873037 
L 118.409643 293.738948 
" style="fill:none;stroke:#000000;stroke-linecap:square;"/>
   </g>
   <g id="line2d_28">
    <path clip-path="url(#pb5402c6a5f)" d="M 95.43531 282.426131 
L 96.264753 281.439883 
L 97.10134 280.445141 
L 97.945007 279.441981 
" style="fill:none;stroke:#000000;stroke-linecap:square;"/>
   </g>
   <g id="line2d_29">
    <path clip-path="url(#pb5402c6a5f)" d="M 77.288625 264.320635 
L 78.277117 263.493075 
L 79.274122 262.658387 
L 80.279565 261.816636 
" style="fill:none;stroke:#000000;stroke-linecap:square;"/>
   </g>
   <g id="line2d_30">
    <path clip-path="url(#pb5402c6a5f)" d="M 62.568768 243.346216 
L 63.686273 242.702488 
L 64.813403 242.053217 
L 65.950072 241.39845 
" style="fill:none;stroke:#000000;stroke-linecap:square;"/>
   </g>
   <g id="line2d_31">
    <path clip-path="url(#pb5402c6a5f)" d="M 51.722994 220.140171 
L 52.935558 219.699835 
L 54.158566 219.255707 
L 55.391924 218.80782 
" style="fill:none;stroke:#000000;stroke-linecap:square;"/>
   </g>
   <g id="line2d_32">
    <path clip-path="url(#pb5402c6a5f)" d="M 45.080846 195.407603 
L 46.351626 195.184039 
L 47.633351 194.958549 
L 48.925923 194.731151 
" style="fill:none;stroke:#000000;stroke-linecap:square;"/>
   </g>
   <g id="line2d_33">
    <path clip-path="url(#pb5402c6a5f)" d="M 42.844143 169.9 
L 44.134527 169.9 
L 45.436025 169.9 
L 46.748537 169.9 
" style="fill:none;stroke:#000000;stroke-linecap:square;"/>
   </g>
   <g id="line2d_34">
    <path clip-path="url(#pb5402c6a5f)" d="M 45.080846 144.392397 
L 46.351626 144.615961 
L 47.633351 144.841451 
L 48.925923 145.068849 
" style="fill:none;stroke:#000000;stroke-linecap:square;"/>
   </g>
   <g id="line2d_35">
    <path clip-path="url(#pb5402c6a5f)" d="M 51.722994 119.659829 
L 52.935558 120.100165 
L 54.158566 120.544293 
L 55.391924 120.99218 
" style="fill:none;stroke:#000000;stroke-linecap:square;"/>
   </g>
   <g id="line2d_36">
    <path clip-path="url(#pb5402c6a5f)" d="M 62.568768 96.453784 
L 63.686273 97.097512 
L 64.813403 97.746783 
L 65.950072 98.40155 
" style="fill:none;stroke:#000000;stroke-linecap:square;"/>
   </g>
   <g id="line2d_37">
    <path clip-path="url(#pb5402c6a5f)" d="M 77.288625 75.479365 
L 78.277117 76.306925 
L 79.274122 77.141613 
L 80.279565 77.983364 
" style="fill:none;stroke:#000000;stroke-linecap:square;"/>
   </g>
   <g id="line2d_38">
    <path clip-path="url(#pb5402c6a5f)" d="M 95.43531 57.373869 
L 96.264753 58.360117 
L 97.10134 59.354859 
L 97.945007 60.358019 
" style="fill:none;stroke:#000000;stroke-linecap:square;"/>
   </g>
   <g id="line2d_39">
    <path clip-path="url(#pb5402c6a5f)" d="M 116.457446 42.687422 
L 117.102638 43.802391 
L 117.753386 44.926963 
L 118.409643 46.061052 
" style="fill:none;stroke:#000000;stroke-linecap:square;"/>
   </g>
   <g id="line2d_40">
    <path clip-path="url(#pb5402c6a5f)" d="M 139.716284 31.866266 
L 140.157621 33.076078 
L 140.602759 34.29631 
L 141.051665 35.526868 
" style="fill:none;stroke:#000000;stroke-linecap:square;"/>
   </g>
   <g id="line2d_41">
    <path clip-path="url(#pb5402c6a5f)" d="M 164.505117 25.239194 
L 164.729189 26.50709 
L 164.955192 27.785906 
L 165.183107 29.075544 
" style="fill:none;stroke:#000000;stroke-linecap:square;"/>
   </g>
   <g id="legend_1">
    <g id="patch_2">
     <path d="M 51.635748 52.0275 
L 328.505748 52.0275 
L 328.505748 13.2 
L 51.635748 13.2 
z
" style="fill:#ffffff;stroke:#000000;stroke-linejoin:miter;"/>
    </g>
    <g id="PathCollection_3">
     <path d="M 60.035748 26.204193 
C 60.62876 26.204193 61.197564 25.968587 61.616887 25.549264 
C 62.03621 25.129941 62.271816 24.561137 62.271816 23.968125 
C 62.271816 23.375113 62.03621 22.806309 61.616887 22.386986 
C 61.197564 21.967663 60.62876 21.732057 60.035748 21.732057 
C 59.442736 21.732057 58.873932 21.967663 58.454609 22.386986 
C 58.035287 22.806309 57.79968 23.375113 57.79968 23.968125 
C 57.79968 24.561137 58.035287 25.129941 58.454609 25.549264 
C 58.873932 25.968587 59.442736 26.204193 60.035748 26.204193 
L 60.035748 26.204193 
z
" style="fill:none;stroke:#ff0000;"/>
     <path d="M 68.435748 25.154193 
C 69.02876 25.154193 69.597564 24.918587 70.016887 24.499264 
C 70.43621 24.079941 70.671816 23.511137 70.671816 22.918125 
C 70.671816 22.325113 70.43621 21.756309 70.016887 21.336986 
C 69.597564 20.917663 69.02876 20.682057 68.435748 20.682057 
C 67.842736 20.682057 67.273932 20.917663 66.854609 21.336986 
C 66.435287 21.756309 66.19968 22.325113 66.19968 22.918125 
C 66.19968 23.511137 66.435287 24.079941 66.854609 24.499264 
C 67.273932 24.918587 67.842736 25.154193 68.435748 25.154193 
L 68.435748 25.154193 
z
" style="fill:none;stroke:#ff0000;"/>
     <path d="M 76.835748 26.729193 
C 77.42876 26.729193 77.997564 26.493587 78.416887 26.074264 
C 78.83621 25.654941 79.071816 25.086137 79.071816 24.493125 
C 79.071816 23.900113 78.83621 23.331309 78.416887 22.911986 
C 77.997564 22.492663 77.42876 22.257057 76.835748 22.257057 
C 76.242736 22.257057 75.673932 22.492663 75.254609 22.911986 
C 74.835287 23.331309 74.59968 23.900113 74.59968 24.493125 
C 74.59968 25.086137 74.835287 25.654941 75.254609 26.074264 
C 75.673932 26.493587 76.242736 26.729193 76.835748 26.729193 
L 76.835748 26.729193 
z
" style="fill:none;stroke:#ff0000;"/>
    </g>
    <g id="text_1">
     <!-- Halls (1974) site means (in situ) -->
     <defs>
      <path id="BitstreamVeraSans-Roman-20"/>
      <path d="M 12.40625 8.296875 
L 28.515625 8.296875 
L 28.515625 63.921875 
L 10.984375 60.40625 
L 10.984375 69.390625 
L 28.421875 72.90625 
L 38.28125 72.90625 
L 38.28125 8.296875 
L 54.390625 8.296875 
L 54.390625 0 
L 12.40625 0 
z
" id="BitstreamVeraSans-Roman-31"/>
      <path d="M 8.203125 72.90625 
L 55.078125 72.90625 
L 55.078125 68.703125 
L 28.609375 0 
L 18.3125 0 
L 43.21875 64.59375 
L 8.203125 64.59375 
z
" id="BitstreamVeraSans-Roman-37"/>
      <path d="M 37.796875 64.3125 
L 12.890625 25.390625 
L 37.796875 25.390625 
z
M 35.203125 72.90625 
L 47.609375 72.90625 
L 47.609375 25.390625 
L 58.015625 25.390625 
L 58.015625 17.1875 
L 47.609375 17.1875 
L 47.609375 0 
L 37.796875 0 
L 37.796875 17.1875 
L 4.890625 17.1875 
L 4.890625 26.703125 
z
" id="BitstreamVeraSans-Roman-34"/>
      <path d="M 8.015625 75.875 
L 15.828125 75.875 
Q 23.140625 64.359375 26.78125 53.3125 
Q 30.421875 42.28125 30.421875 31.390625 
Q 30.421875 20.453125 26.78125 9.375 
Q 23.140625 -1.703125 15.828125 -13.1875 
L 8.015625 -13.1875 
Q 14.5 -2 17.703125 9.0625 
Q 20.90625 20.125 20.90625 31.390625 
Q 20.90625 42.671875 17.703125 53.65625 
Q 14.5 64.65625 8.015625 75.875 
" id="BitstreamVeraSans-Roman-29"/>
      <path d="M 31 75.875 
Q 24.46875 64.65625 21.28125 53.65625 
Q 18.109375 42.671875 18.109375 31.390625 
Q 18.109375 20.125 21.3125 9.0625 
Q 24.515625 -2 31 -13.1875 
L 23.1875 -13.1875 
Q 15.875 -1.703125 12.234375 9.375 
Q 8.59375 20.453125 8.59375 31.390625 
Q 8.59375 42.28125 12.203125 53.3125 
Q 15.828125 64.359375 23.1875 75.875 
z
" id="BitstreamVeraSans-Roman-28"/>
      <path d="M 10.984375 1.515625 
L 10.984375 10.5 
Q 14.703125 8.734375 18.5 7.8125 
Q 22.3125 6.890625 25.984375 6.890625 
Q 35.75 6.890625 40.890625 13.453125 
Q 46.046875 20.015625 46.78125 33.40625 
Q 43.953125 29.203125 39.59375 26.953125 
Q 35.25 24.703125 29.984375 24.703125 
Q 19.046875 24.703125 12.671875 31.3125 
Q 6.296875 37.9375 6.296875 49.421875 
Q 6.296875 60.640625 12.9375 67.421875 
Q 19.578125 74.21875 30.609375 74.21875 
Q 43.265625 74.21875 49.921875 64.515625 
Q 56.59375 54.828125 56.59375 36.375 
Q 56.59375 19.140625 48.40625 8.859375 
Q 40.234375 -1.421875 26.421875 -1.421875 
Q 22.703125 -1.421875 18.890625 -0.6875 
Q 15.09375 0.046875 10.984375 1.515625 
M 30.609375 32.421875 
Q 37.25 32.421875 41.125 36.953125 
Q 45.015625 41.5 45.015625 49.421875 
Q 45.015625 57.28125 41.125 61.84375 
Q 37.25 66.40625 30.609375 66.40625 
Q 23.96875 66.40625 20.09375 61.84375 
Q 16.21875 57.28125 16.21875 49.421875 
Q 16.21875 41.5 20.09375 36.953125 
Q 23.96875 32.421875 30.609375 32.421875 
" id="BitstreamVeraSans-Roman-39"/>
      <path d="M 9.421875 75.984375 
L 18.40625 75.984375 
L 18.40625 0 
L 9.421875 0 
z
" id="BitstreamVeraSans-Roman-6c"/>
      <path d="M 54.890625 33.015625 
L 54.890625 0 
L 45.90625 0 
L 45.90625 32.71875 
Q 45.90625 40.484375 42.875 44.328125 
Q 39.84375 48.1875 33.796875 48.1875 
Q 26.515625 48.1875 22.3125 43.546875 
Q 18.109375 38.921875 18.109375 30.90625 
L 18.109375 0 
L 9.078125 0 
L 9.078125 54.6875 
L 18.109375 54.6875 
L 18.109375 46.1875 
Q 21.34375 51.125 25.703125 53.5625 
Q 30.078125 56 35.796875 56 
Q 45.21875 56 50.046875 50.171875 
Q 54.890625 44.34375 54.890625 33.015625 
" id="BitstreamVeraSans-Roman-6e"/>
      <path d="M 9.421875 54.6875 
L 18.40625 54.6875 
L 18.40625 0 
L 9.421875 0 
z
M 9.421875 75.984375 
L 18.40625 75.984375 
L 18.40625 64.59375 
L 9.421875 64.59375 
z
" id="BitstreamVeraSans-Roman-69"/>
      <path d="M 52 44.1875 
Q 55.375 50.25 60.0625 53.125 
Q 64.75 56 71.09375 56 
Q 79.640625 56 84.28125 50.015625 
Q 88.921875 44.046875 88.921875 33.015625 
L 88.921875 0 
L 79.890625 0 
L 79.890625 32.71875 
Q 79.890625 40.578125 77.09375 44.375 
Q 74.3125 48.1875 68.609375 48.1875 
Q 61.625 48.1875 57.5625 43.546875 
Q 53.515625 38.921875 53.515625 30.90625 
L 53.515625 0 
L 44.484375 0 
L 44.484375 32.71875 
Q 44.484375 40.625 41.703125 44.40625 
Q 38.921875 48.1875 33.109375 48.1875 
Q 26.21875 48.1875 22.15625 43.53125 
Q 18.109375 38.875 18.109375 30.90625 
L 18.109375 0 
L 9.078125 0 
L 9.078125 54.6875 
L 18.109375 54.6875 
L 18.109375 46.1875 
Q 21.1875 51.21875 25.484375 53.609375 
Q 29.78125 56 35.6875 56 
Q 41.65625 56 45.828125 52.96875 
Q 50 49.953125 52 44.1875 
" id="BitstreamVeraSans-Roman-6d"/>
      <path d="M 56.203125 29.59375 
L 56.203125 25.203125 
L 14.890625 25.203125 
Q 15.484375 15.921875 20.484375 11.0625 
Q 25.484375 6.203125 34.421875 6.203125 
Q 39.59375 6.203125 44.453125 7.46875 
Q 49.3125 8.734375 54.109375 11.28125 
L 54.109375 2.78125 
Q 49.265625 0.734375 44.1875 -0.34375 
Q 39.109375 -1.421875 33.890625 -1.421875 
Q 20.796875 -1.421875 13.15625 6.1875 
Q 5.515625 13.8125 5.515625 26.8125 
Q 5.515625 40.234375 12.765625 48.109375 
Q 20.015625 56 32.328125 56 
Q 43.359375 56 49.78125 48.890625 
Q 56.203125 41.796875 56.203125 29.59375 
M 47.21875 32.234375 
Q 47.125 39.59375 43.09375 43.984375 
Q 39.0625 48.390625 32.421875 48.390625 
Q 24.90625 48.390625 20.390625 44.140625 
Q 15.875 39.890625 15.1875 32.171875 
z
" id="BitstreamVeraSans-Roman-65"/>
      <path d="M 18.3125 70.21875 
L 18.3125 54.6875 
L 36.8125 54.6875 
L 36.8125 47.703125 
L 18.3125 47.703125 
L 18.3125 18.015625 
Q 18.3125 11.328125 20.140625 9.421875 
Q 21.96875 7.515625 27.59375 7.515625 
L 36.8125 7.515625 
L 36.8125 0 
L 27.59375 0 
Q 17.1875 0 13.234375 3.875 
Q 9.28125 7.765625 9.28125 18.015625 
L 9.28125 47.703125 
L 2.6875 47.703125 
L 2.6875 54.6875 
L 9.28125 54.6875 
L 9.28125 70.21875 
z
" id="BitstreamVeraSans-Roman-74"/>
      <path d="M 8.5 21.578125 
L 8.5 54.6875 
L 17.484375 54.6875 
L 17.484375 21.921875 
Q 17.484375 14.15625 20.5 10.265625 
Q 23.53125 6.390625 29.59375 6.390625 
Q 36.859375 6.390625 41.078125 11.03125 
Q 45.3125 15.671875 45.3125 23.6875 
L 45.3125 54.6875 
L 54.296875 54.6875 
L 54.296875 0 
L 45.3125 0 
L 45.3125 8.40625 
Q 42.046875 3.421875 37.71875 1 
Q 33.40625 -1.421875 27.6875 -1.421875 
Q 18.265625 -1.421875 13.375 4.4375 
Q 8.5 10.296875 8.5 21.578125 
" id="BitstreamVeraSans-Roman-75"/>
      <path d="M 34.28125 27.484375 
Q 23.390625 27.484375 19.1875 25 
Q 14.984375 22.515625 14.984375 16.5 
Q 14.984375 11.71875 18.140625 8.90625 
Q 21.296875 6.109375 26.703125 6.109375 
Q 34.1875 6.109375 38.703125 11.40625 
Q 43.21875 16.703125 43.21875 25.484375 
L 43.21875 27.484375 
z
M 52.203125 31.203125 
L 52.203125 0 
L 43.21875 0 
L 43.21875 8.296875 
Q 40.140625 3.328125 35.546875 0.953125 
Q 30.953125 -1.421875 24.3125 -1.421875 
Q 15.921875 -1.421875 10.953125 3.296875 
Q 6 8.015625 6 15.921875 
Q 6 25.140625 12.171875 29.828125 
Q 18.359375 34.515625 30.609375 34.515625 
L 43.21875 34.515625 
L 43.21875 35.40625 
Q 43.21875 41.609375 39.140625 45 
Q 35.0625 48.390625 27.6875 48.390625 
Q 23 48.390625 18.546875 47.265625 
Q 14.109375 46.140625 10.015625 43.890625 
L 10.015625 52.203125 
Q 14.9375 54.109375 19.578125 55.046875 
Q 24.21875 56 28.609375 56 
Q 40.484375 56 46.34375 49.84375 
Q 52.203125 43.703125 52.203125 31.203125 
" id="BitstreamVeraSans-Roman-61"/>
      <path d="M 44.28125 53.078125 
L 44.28125 44.578125 
Q 40.484375 46.53125 36.375 47.5 
Q 32.28125 48.484375 27.875 48.484375 
Q 21.1875 48.484375 17.84375 46.4375 
Q 14.5 44.390625 14.5 40.28125 
Q 14.5 37.15625 16.890625 35.375 
Q 19.28125 33.59375 26.515625 31.984375 
L 29.59375 31.296875 
Q 39.15625 29.25 43.1875 25.515625 
Q 47.21875 21.78125 47.21875 15.09375 
Q 47.21875 7.46875 41.1875 3.015625 
Q 35.15625 -1.421875 24.609375 -1.421875 
Q 20.21875 -1.421875 15.453125 -0.5625 
Q 10.6875 0.296875 5.421875 2 
L 5.421875 11.28125 
Q 10.40625 8.6875 15.234375 7.390625 
Q 20.0625 6.109375 24.8125 6.109375 
Q 31.15625 6.109375 34.5625 8.28125 
Q 37.984375 10.453125 37.984375 14.40625 
Q 37.984375 18.0625 35.515625 20.015625 
Q 33.0625 21.96875 24.703125 23.78125 
L 21.578125 24.515625 
Q 13.234375 26.265625 9.515625 29.90625 
Q 5.8125 33.546875 5.8125 39.890625 
Q 5.8125 47.609375 11.28125 51.796875 
Q 16.75 56 26.8125 56 
Q 31.78125 56 36.171875 55.265625 
Q 40.578125 54.546875 44.28125 53.078125 
" id="BitstreamVeraSans-Roman-73"/>
      <path d="M 9.8125 72.90625 
L 19.671875 72.90625 
L 19.671875 43.015625 
L 55.515625 43.015625 
L 55.515625 72.90625 
L 65.375 72.90625 
L 65.375 0 
L 55.515625 0 
L 55.515625 34.71875 
L 19.671875 34.71875 
L 19.671875 0 
L 9.8125 0 
z
" id="BitstreamVeraSans-Roman-48"/>
     </defs>
     <g transform="translate(90.0357482993 27.118125)scale(0.12 -0.12)">
      <use xlink:href="#BitstreamVeraSans-Roman-48"/>
      <use x="75.1953125" xlink:href="#BitstreamVeraSans-Roman-61"/>
      <use x="136.474609375" xlink:href="#BitstreamVeraSans-Roman-6c"/>
      <use x="164.2578125" xlink:href="#BitstreamVeraSans-Roman-6c"/>
      <use x="192.041015625" xlink:href="#BitstreamVeraSans-Roman-73"/>
      <use x="244.140625" xlink:href="#BitstreamVeraSans-Roman-20"/>
      <use x="275.927734375" xlink:href="#BitstreamVeraSans-Roman-28"/>
      <use x="314.94140625" xlink:href="#BitstreamVeraSans-Roman-31"/>
      <use x="378.564453125" xlink:href="#BitstreamVeraSans-Roman-39"/>
      <use x="442.1875" xlink:href="#BitstreamVeraSans-Roman-37"/>
      <use x="505.810546875" xlink:href="#BitstreamVeraSans-Roman-34"/>
      <use x="569.43359375" xlink:href="#BitstreamVeraSans-Roman-29"/>
      <use x="608.447265625" xlink:href="#BitstreamVeraSans-Roman-20"/>
      <use x="640.234375" xlink:href="#BitstreamVeraSans-Roman-73"/>
      <use x="692.333984375" xlink:href="#BitstreamVeraSans-Roman-69"/>
      <use x="720.1171875" xlink:href="#BitstreamVeraSans-Roman-74"/>
      <use x="759.326171875" xlink:href="#BitstreamVeraSans-Roman-65"/>
      <use x="820.849609375" xlink:href="#BitstreamVeraSans-Roman-20"/>
      <use x="852.63671875" xlink:href="#BitstreamVeraSans-Roman-6d"/>
      <use x="950.048828125" xlink:href="#BitstreamVeraSans-Roman-65"/>
      <use x="1011.57226562" xlink:href="#BitstreamVeraSans-Roman-61"/>
      <use x="1072.8515625" xlink:href="#BitstreamVeraSans-Roman-6e"/>
      <use x="1136.23046875" xlink:href="#BitstreamVeraSans-Roman-73"/>
      <use x="1188.33007812" xlink:href="#BitstreamVeraSans-Roman-20"/>
      <use x="1220.1171875" xlink:href="#BitstreamVeraSans-Roman-28"/>
      <use x="1259.13085938" xlink:href="#BitstreamVeraSans-Roman-69"/>
      <use x="1286.9140625" xlink:href="#BitstreamVeraSans-Roman-6e"/>
      <use x="1350.29296875" xlink:href="#BitstreamVeraSans-Roman-20"/>
      <use x="1382.08007812" xlink:href="#BitstreamVeraSans-Roman-73"/>
      <use x="1434.1796875" xlink:href="#BitstreamVeraSans-Roman-69"/>
      <use x="1461.96289062" xlink:href="#BitstreamVeraSans-Roman-74"/>
      <use x="1501.171875" xlink:href="#BitstreamVeraSans-Roman-75"/>
      <use x="1564.55078125" xlink:href="#BitstreamVeraSans-Roman-29"/>
     </g>
    </g>
    <g id="PathCollection_4">
     <path d="M 60.035748 43.817943 
C 60.62876 43.817943 61.197564 43.582337 61.616887 43.163014 
C 62.03621 42.743691 62.271816 42.174887 62.271816 41.581875 
C 62.271816 40.988863 62.03621 40.420059 61.616887 40.000736 
C 61.197564 39.581413 60.62876 39.345807 60.035748 39.345807 
C 59.442736 39.345807 58.873932 39.581413 58.454609 40.000736 
C 58.035287 40.420059 57.79968 40.988863 57.79968 41.581875 
C 57.79968 42.174887 58.035287 42.743691 58.454609 43.163014 
C 58.873932 43.582337 59.442736 43.817943 60.035748 43.817943 
L 60.035748 43.817943 
z
" style="fill:none;stroke:#0000ff;"/>
     <path d="M 68.435748 42.767943 
C 69.02876 42.767943 69.597564 42.532337 70.016887 42.113014 
C 70.43621 41.693691 70.671816 41.124887 70.671816 40.531875 
C 70.671816 39.938863 70.43621 39.370059 70.016887 38.950736 
C 69.597564 38.531413 69.02876 38.295807 68.435748 38.295807 
C 67.842736 38.295807 67.273932 38.531413 66.854609 38.950736 
C 66.435287 39.370059 66.19968 39.938863 66.19968 40.531875 
C 66.19968 41.124887 66.435287 41.693691 66.854609 42.113014 
C 67.273932 42.532337 67.842736 42.767943 68.435748 42.767943 
L 68.435748 42.767943 
z
" style="fill:none;stroke:#0000ff;"/>
     <path d="M 76.835748 44.342943 
C 77.42876 44.342943 77.997564 44.107337 78.416887 43.688014 
C 78.83621 43.268691 79.071816 42.699887 79.071816 42.106875 
C 79.071816 41.513863 78.83621 40.945059 78.416887 40.525736 
C 77.997564 40.106413 77.42876 39.870807 76.835748 39.870807 
C 76.242736 39.870807 75.673932 40.106413 75.254609 40.525736 
C 74.835287 40.945059 74.59968 41.513863 74.59968 42.106875 
C 74.59968 42.699887 74.835287 43.268691 75.254609 43.688014 
C 75.673932 44.107337 76.242736 44.342943 76.835748 44.342943 
L 76.835748 44.342943 
z
" style="fill:none;stroke:#0000ff;"/>
    </g>
    <g id="text_2">
     <!-- Halls (1974) site means (tilt-corrected) -->
     <defs>
      <path d="M 45.40625 46.390625 
L 45.40625 75.984375 
L 54.390625 75.984375 
L 54.390625 0 
L 45.40625 0 
L 45.40625 8.203125 
Q 42.578125 3.328125 38.25 0.953125 
Q 33.9375 -1.421875 27.875 -1.421875 
Q 17.96875 -1.421875 11.734375 6.484375 
Q 5.515625 14.40625 5.515625 27.296875 
Q 5.515625 40.1875 11.734375 48.09375 
Q 17.96875 56 27.875 56 
Q 33.9375 56 38.25 53.625 
Q 42.578125 51.265625 45.40625 46.390625 
M 14.796875 27.296875 
Q 14.796875 17.390625 18.875 11.75 
Q 22.953125 6.109375 30.078125 6.109375 
Q 37.203125 6.109375 41.296875 11.75 
Q 45.40625 17.390625 45.40625 27.296875 
Q 45.40625 37.203125 41.296875 42.84375 
Q 37.203125 48.484375 30.078125 48.484375 
Q 22.953125 48.484375 18.875 42.84375 
Q 14.796875 37.203125 14.796875 27.296875 
" id="BitstreamVeraSans-Roman-64"/>
      <path d="M 30.609375 48.390625 
Q 23.390625 48.390625 19.1875 42.75 
Q 14.984375 37.109375 14.984375 27.296875 
Q 14.984375 17.484375 19.15625 11.84375 
Q 23.34375 6.203125 30.609375 6.203125 
Q 37.796875 6.203125 41.984375 11.859375 
Q 46.1875 17.53125 46.1875 27.296875 
Q 46.1875 37.015625 41.984375 42.703125 
Q 37.796875 48.390625 30.609375 48.390625 
M 30.609375 56 
Q 42.328125 56 49.015625 48.375 
Q 55.71875 40.765625 55.71875 27.296875 
Q 55.71875 13.875 49.015625 6.21875 
Q 42.328125 -1.421875 30.609375 -1.421875 
Q 18.84375 -1.421875 12.171875 6.21875 
Q 5.515625 13.875 5.515625 27.296875 
Q 5.515625 40.765625 12.171875 48.375 
Q 18.84375 56 30.609375 56 
" id="BitstreamVeraSans-Roman-6f"/>
      <path d="M 41.109375 46.296875 
Q 39.59375 47.171875 37.8125 47.578125 
Q 36.03125 48 33.890625 48 
Q 26.265625 48 22.1875 43.046875 
Q 18.109375 38.09375 18.109375 28.8125 
L 18.109375 0 
L 9.078125 0 
L 9.078125 54.6875 
L 18.109375 54.6875 
L 18.109375 46.1875 
Q 20.953125 51.171875 25.484375 53.578125 
Q 30.03125 56 36.53125 56 
Q 37.453125 56 38.578125 55.875 
Q 39.703125 55.765625 41.0625 55.515625 
z
" id="BitstreamVeraSans-Roman-72"/>
      <path d="M 4.890625 31.390625 
L 31.203125 31.390625 
L 31.203125 23.390625 
L 4.890625 23.390625 
z
" id="BitstreamVeraSans-Roman-2d"/>
      <path d="M 48.78125 52.59375 
L 48.78125 44.1875 
Q 44.96875 46.296875 41.140625 47.34375 
Q 37.3125 48.390625 33.40625 48.390625 
Q 24.65625 48.390625 19.8125 42.84375 
Q 14.984375 37.3125 14.984375 27.296875 
Q 14.984375 17.28125 19.8125 11.734375 
Q 24.65625 6.203125 33.40625 6.203125 
Q 37.3125 6.203125 41.140625 7.25 
Q 44.96875 8.296875 48.78125 10.40625 
L 48.78125 2.09375 
Q 45.015625 0.34375 40.984375 -0.53125 
Q 36.96875 -1.421875 32.421875 -1.421875 
Q 20.0625 -1.421875 12.78125 6.34375 
Q 5.515625 14.109375 5.515625 27.296875 
Q 5.515625 40.671875 12.859375 48.328125 
Q 20.21875 56 33.015625 56 
Q 37.15625 56 41.109375 55.140625 
Q 45.0625 54.296875 48.78125 52.59375 
" id="BitstreamVeraSans-Roman-63"/>
     </defs>
     <g transform="translate(90.0357482993 44.731875)scale(0.12 -0.12)">
      <use xlink:href="#BitstreamVeraSans-Roman-48"/>
      <use x="75.1953125" xlink:href="#BitstreamVeraSans-Roman-61"/>
      <use x="136.474609375" xlink:href="#BitstreamVeraSans-Roman-6c"/>
      <use x="164.2578125" xlink:href="#BitstreamVeraSans-Roman-6c"/>
      <use x="192.041015625" xlink:href="#BitstreamVeraSans-Roman-73"/>
      <use x="244.140625" xlink:href="#BitstreamVeraSans-Roman-20"/>
      <use x="275.927734375" xlink:href="#BitstreamVeraSans-Roman-28"/>
      <use x="314.94140625" xlink:href="#BitstreamVeraSans-Roman-31"/>
      <use x="378.564453125" xlink:href="#BitstreamVeraSans-Roman-39"/>
      <use x="442.1875" xlink:href="#BitstreamVeraSans-Roman-37"/>
      <use x="505.810546875" xlink:href="#BitstreamVeraSans-Roman-34"/>
      <use x="569.43359375" xlink:href="#BitstreamVeraSans-Roman-29"/>
      <use x="608.447265625" xlink:href="#BitstreamVeraSans-Roman-20"/>
      <use x="640.234375" xlink:href="#BitstreamVeraSans-Roman-73"/>
      <use x="692.333984375" xlink:href="#BitstreamVeraSans-Roman-69"/>
      <use x="720.1171875" xlink:href="#BitstreamVeraSans-Roman-74"/>
      <use x="759.326171875" xlink:href="#BitstreamVeraSans-Roman-65"/>
      <use x="820.849609375" xlink:href="#BitstreamVeraSans-Roman-20"/>
      <use x="852.63671875" xlink:href="#BitstreamVeraSans-Roman-6d"/>
      <use x="950.048828125" xlink:href="#BitstreamVeraSans-Roman-65"/>
      <use x="1011.57226562" xlink:href="#BitstreamVeraSans-Roman-61"/>
      <use x="1072.8515625" xlink:href="#BitstreamVeraSans-Roman-6e"/>
      <use x="1136.23046875" xlink:href="#BitstreamVeraSans-Roman-73"/>
      <use x="1188.33007812" xlink:href="#BitstreamVeraSans-Roman-20"/>
      <use x="1220.1171875" xlink:href="#BitstreamVeraSans-Roman-28"/>
      <use x="1259.13085938" xlink:href="#BitstreamVeraSans-Roman-74"/>
      <use x="1298.33984375" xlink:href="#BitstreamVeraSans-Roman-69"/>
      <use x="1326.12304688" xlink:href="#BitstreamVeraSans-Roman-6c"/>
      <use x="1353.90625" xlink:href="#BitstreamVeraSans-Roman-74"/>
      <use x="1393.11523438" xlink:href="#BitstreamVeraSans-Roman-2d"/>
      <use x="1429.19921875" xlink:href="#BitstreamVeraSans-Roman-63"/>
      <use x="1484.1796875" xlink:href="#BitstreamVeraSans-Roman-6f"/>
      <use x="1545.36132812" xlink:href="#BitstreamVeraSans-Roman-72"/>
      <use x="1586.45898438" xlink:href="#BitstreamVeraSans-Roman-72"/>
      <use x="1627.54101562" xlink:href="#BitstreamVeraSans-Roman-65"/>
      <use x="1689.06445312" xlink:href="#BitstreamVeraSans-Roman-63"/>
      <use x="1744.04492188" xlink:href="#BitstreamVeraSans-Roman-74"/>
      <use x="1783.25390625" xlink:href="#BitstreamVeraSans-Roman-65"/>
      <use x="1844.77734375" xlink:href="#BitstreamVeraSans-Roman-64"/>
      <use x="1908.25390625" xlink:href="#BitstreamVeraSans-Roman-29"/>
     </g>
    </g>
   </g>
  </g>
 </g>
 <defs>
  <clipPath id="pb5402c6a5f">
   <rect height="325.4" width="309.175871599" x="35.4828125" y="7.2"/>
  </clipPath>
 </defs>
</svg>
