<?xml version="1.0" encoding="utf-8" standalone="no"?>
<!DOCTYPE svg PUBLIC "-//W3C//DTD SVG 1.1//EN"
  "http://www.w3.org/Graphics/SVG/1.1/DTD/svg11.dtd">
<!-- Created with matplotlib (http://matplotlib.org/) -->
<svg height="576pt" version="1.1" viewBox="0 0 576 576" width="576pt" xmlns="http://www.w3.org/2000/svg" xmlns:xlink="http://www.w3.org/1999/xlink">
 <defs>
  <style type="text/css">
*{stroke-linecap:butt;stroke-linejoin:round;stroke-miterlimit:100000;}
  </style>
 </defs>
 <g id="figure_1">
  <g id="patch_1">
   <path d="M 0 576 
L 576 576 
L 576 0 
L 0 0 
z
" style="fill:#ffffff;"/>
  </g>
  <g id="axes_1">
   <g id="patch_2">
    <path d="M 53.325 255.6 
L 261.84375 255.6 
L 261.84375 15.3 
L 53.325 15.3 
z
" style="fill:#ffffff;"/>
   </g>
   <g id="line2d_1">
    <path clip-path="url(#p22e47bb6e0)" d="M 53.325 135.45 
L 261.84375 135.45 
" style="fill:none;stroke:#000000;stroke-linecap:square;"/>
   </g>
   <g id="line2d_2">
    <path clip-path="url(#p22e47bb6e0)" d="M 157.584375 255.6 
L 157.584375 15.3 
" style="fill:none;stroke:#000000;stroke-linecap:square;"/>
   </g>
   <g id="line2d_3">
    <path clip-path="url(#p22e47bb6e0)" d="M 194.363966 -1 
L 188.570261 7.407901 
L 183.357292 16.050742 
L 177.10173 28.428145 
L 173.984375 35.673194 
L 170.856593 43.782527 
L 167.728812 53.10826 
L 165.643625 60.203926 
L 163.558437 68.121196 
L 161.47325 77.169504 
L 159.388062 87.818339 
L 158.350681 93.878998 
L 157.308088 100.6759 
L 156.265494 108.401107 
L 154.180306 126.817828 
L 148.972551 178.77091 
L 146.887363 195.405713 
L 145.844769 202.437358 
L 143.759582 214.174551 
L 141.674394 223.660336 
L 139.589207 231.449564 
L 137.514445 237.990381 
L 135.418832 243.645574 
L 134.386664 246.313118 
L 131.258883 253.248731 
L 127.088508 261.144661 
L 123.960727 266.373047 
L 120.832945 271.067924 
L 117.705164 275.442695 
L 114.577383 279.497362 
L 109.37484 285.792765 
L 103.119277 292.621677 
L 96.863715 298.91708 
L 85.40561 309.373852 
L 81.245661 312.895009 
L 79.160473 314.708939 
L 73.95793 318.870307 
L 67.702368 323.885289 
L 63.552845 326.97964 
L 61.467657 328.580166 
L 56.265114 332.421429 
L 54.179927 334.021956 
L 53.397982 334.555464 
L 53.742037 334.342061 
L 53.742037 334.342061 
L 55.806373 332.954938 
L 64.115845 326.872938 
L 66.190607 325.272412 
L 69.307962 322.924974 
L 74.520931 318.763606 
L 76.595692 317.163079 
L 87.011204 308.520238 
L 88.043372 307.45322 
L 91.171153 304.785676 
L 98.458883 297.956764 
L 106.799633 289.420624 
L 115.140383 279.924169 
L 118.257739 275.976204 
L 122.428114 270.321011 
L 128.683676 260.717854 
L 130.768864 257.196696 
L 132.854051 253.462135 
L 137.024426 245.139398 
L 139.109614 240.519213 
L 141.194801 235.632273 
L 144.312157 227.384227 
L 146.397344 221.195526 
L 148.487745 214.313263 
L 150.567719 206.694758 
L 152.65812 197.913204 
L 154.743307 187.733857 
L 155.780688 181.961293 
L 156.823282 175.516507 
L 157.865875 168.292798 
L 158.903256 160.183466 
L 160.988444 141.041172 
L 166.201412 89.002728 
L 167.244006 80.466589 
L 168.291813 72.805403 
L 170.366574 59.979853 
L 171.409168 54.612755 
L 173.494356 45.553776 
L 175.579543 38.031303 
L 177.664731 31.661208 
L 179.749918 26.080707 
L 182.877699 18.824988 
L 184.962887 14.66362 
L 187.048074 10.715655 
L 190.16543 5.380567 
L 194.391281 -1 
L 194.391281 -1 
" style="fill:none;stroke:#ff0000;stroke-linecap:square;"/>
   </g>
   <g id="line2d_4">
    <path clip-path="url(#p22e47bb6e0)" d="M 261.45799 15.719725 
L 259.404081 15.667497 
L 258.361487 15.522806 
L 253.16937 15.348693 
L 252.137202 15.211918 
L 250.052015 15.242642 
L 243.817304 15.137241 
L 240.699949 15.244594 
L 238.614761 15.168615 
L 237.572167 15.34403 
L 236.529574 15.30604 
L 234.454812 15.451382 
L 232.369625 15.482105 
L 226.114062 16.001082 
L 215.677699 17.747308 
L 214.635105 18.136126 
L 212.549917 18.486954 
L 211.496898 18.867855 
L 210.454304 19.043269 
L 207.336949 20.004236 
L 200.028367 22.824745 
L 195.868417 24.921442 
L 193.78323 26.232586 
L 188.570261 29.883903 
L 183.357292 34.602237 
L 178.15475 40.822312 
L 176.069562 43.808674 
L 173.984375 47.168492 
L 171.899187 50.912436 
L 169.814 55.147208 
L 167.728812 59.894149 
L 165.643625 65.420012 
L 163.558437 71.767479 
L 161.47325 79.245984 
L 159.388062 88.325016 
L 158.350681 93.604732 
L 157.308088 99.616732 
L 156.265494 106.557037 
L 154.180306 123.403956 
L 148.972551 171.436489 
L 147.929957 179.422471 
L 146.887363 186.501489 
L 145.844769 192.748233 
L 144.802176 198.152033 
L 143.759582 202.915622 
L 142.716988 207.145703 
L 140.631801 214.12271 
L 138.546613 219.659243 
L 136.461426 224.17144 
L 134.386664 227.997992 
L 131.258883 232.578901 
L 127.088508 237.335225 
L 125.00332 239.28658 
L 122.918133 241.024531 
L 120.832945 242.549079 
L 117.705164 244.569146 
L 115.630402 245.781505 
L 109.37484 248.64792 
L 104.161871 250.485307 
L 96.863715 252.353418 
L 94.778527 252.704246 
L 93.74636 252.994279 
L 86.448203 254.115477 
L 82.277828 254.497029 
L 70.830149 255.2687 
L 68.744962 255.299423 
L 65.627606 255.406775 
L 63.552845 255.338714 
L 61.467657 255.369437 
L 56.265114 255.294109 
L 54.179927 255.324832 
L 53.397982 255.278125 
L 53.742037 255.332741 
L 55.806373 255.526662 
L 59.966322 255.724849 
L 60.99849 255.661757 
L 64.115845 255.808418 
L 66.190607 255.796852 
L 67.233201 255.848378 
L 68.265368 255.785285 
L 70.350556 255.781636 
L 74.520931 255.667635 
L 76.595692 255.656068 
L 82.851255 255.325014 
L 83.883423 255.15522 
L 87.011204 254.989693 
L 88.043372 254.713197 
L 91.171153 254.440968 
L 96.384122 253.631581 
L 97.41629 253.355085 
L 100.544071 252.76275 
L 106.799633 251.044573 
L 115.140383 247.935624 
L 118.257739 246.375057 
L 122.428114 243.913618 
L 123.481133 243.119447 
L 124.513301 242.522845 
L 127.641082 240.00988 
L 130.768864 237.176809 
L 132.854051 235.039124 
L 137.024426 229.910141 
L 139.109614 226.886832 
L 141.194801 223.596768 
L 143.279989 219.773196 
L 145.35475 215.50423 
L 147.445151 210.606928 
L 149.530338 204.990766 
L 151.615526 198.350268 
L 153.6955 190.574772 
L 154.743307 186.074092 
L 155.780688 181.096007 
L 156.823282 175.44966 
L 157.865875 169.02439 
L 158.903256 161.709537 
L 160.988444 144.16412 
L 165.158819 104.762534 
L 167.244006 88.380166 
L 168.291813 81.521377 
L 169.334407 75.522914 
L 170.366574 70.284787 
L 171.409168 65.716127 
L 173.494356 58.254025 
L 174.536949 55.104499 
L 176.622137 49.819112 
L 178.707324 45.472701 
L 179.749918 43.571585 
L 182.877699 38.711181 
L 184.962887 36.14669 
L 187.048074 33.795601 
L 190.16543 30.847912 
L 195.378398 26.944174 
L 200.591367 24.107454 
L 204.761742 22.286224 
L 211.017305 20.14124 
L 217.283293 18.537682 
L 228.76225 16.764946 
L 230.847438 16.654595 
L 232.932625 16.437542 
L 245.433324 15.874218 
L 248.55068 15.914178 
L 249.582847 15.851086 
L 251.668035 15.847436 
L 256.860152 15.982531 
L 258.945339 15.978881 
L 261.822898 16.05016 
L 261.822898 16.05016 
" style="fill:none;stroke:#0000ff;stroke-linecap:square;"/>
   </g>
   <g id="patch_3">
    <path d="M 53.325 15.3 
L 261.84375 15.3 
" style="fill:none;stroke:#000000;stroke-linecap:square;stroke-linejoin:miter;"/>
   </g>
   <g id="patch_4">
    <path d="M 261.84375 255.6 
L 261.84375 15.3 
" style="fill:none;stroke:#000000;stroke-linecap:square;stroke-linejoin:miter;"/>
   </g>
   <g id="patch_5">
    <path d="M 53.325 255.6 
L 261.84375 255.6 
" style="fill:none;stroke:#000000;stroke-linecap:square;stroke-linejoin:miter;"/>
   </g>
   <g id="patch_6">
    <path d="M 53.325 255.6 
L 53.325 15.3 
" style="fill:none;stroke:#000000;stroke-linecap:square;stroke-linejoin:miter;"/>
   </g>
   <g id="matplotlib.axis_1">
    <g id="xtick_1">
     <g id="line2d_5">
      <defs>
       <path d="M 0 0 
L 0 -4 
" id="m5581be396f" style="stroke:#000000;stroke-width:0.5;"/>
      </defs>
      <g>
       <use style="stroke:#000000;stroke-width:0.5;" x="53.325" xlink:href="#m5581be396f" y="255.6"/>
      </g>
     </g>
     <g id="line2d_6">
      <defs>
       <path d="M 0 0 
L 0 4 
" id="m8b6cea014c" style="stroke:#000000;stroke-width:0.5;"/>
      </defs>
      <g>
       <use style="stroke:#000000;stroke-width:0.5;" x="53.325" xlink:href="#m8b6cea014c" y="15.3"/>
      </g>
     </g>
     <g id="text_1">
      <!-- −1.0 -->
      <defs>
       <path d="M 10.59375 35.5 
L 73.1875 35.5 
L 73.1875 27.203125 
L 10.59375 27.203125 
z
" id="BitstreamVeraSans-Roman-2212"/>
       <path d="M 31.78125 66.40625 
Q 24.171875 66.40625 20.328125 58.90625 
Q 16.5 51.421875 16.5 36.375 
Q 16.5 21.390625 20.328125 13.890625 
Q 24.171875 6.390625 31.78125 6.390625 
Q 39.453125 6.390625 43.28125 13.890625 
Q 47.125 21.390625 47.125 36.375 
Q 47.125 51.421875 43.28125 58.90625 
Q 39.453125 66.40625 31.78125 66.40625 
M 31.78125 74.21875 
Q 44.046875 74.21875 50.515625 64.515625 
Q 56.984375 54.828125 56.984375 36.375 
Q 56.984375 17.96875 50.515625 8.265625 
Q 44.046875 -1.421875 31.78125 -1.421875 
Q 19.53125 -1.421875 13.0625 8.265625 
Q 6.59375 17.96875 6.59375 36.375 
Q 6.59375 54.828125 13.0625 64.515625 
Q 19.53125 74.21875 31.78125 74.21875 
" id="BitstreamVeraSans-Roman-30"/>
       <path d="M 12.40625 8.296875 
L 28.515625 8.296875 
L 28.515625 63.921875 
L 10.984375 60.40625 
L 10.984375 69.390625 
L 28.421875 72.90625 
L 38.28125 72.90625 
L 38.28125 8.296875 
L 54.390625 8.296875 
L 54.390625 0 
L 12.40625 0 
z
" id="BitstreamVeraSans-Roman-31"/>
       <path d="M 10.6875 12.40625 
L 21 12.40625 
L 21 0 
L 10.6875 0 
z
" id="BitstreamVeraSans-Roman-2e"/>
      </defs>
      <g transform="translate(41.18359375 267.1984375)scale(0.1 -0.1)">
       <use xlink:href="#BitstreamVeraSans-Roman-2212"/>
       <use x="83.7890625" xlink:href="#BitstreamVeraSans-Roman-31"/>
       <use x="147.412109375" xlink:href="#BitstreamVeraSans-Roman-2e"/>
       <use x="179.19921875" xlink:href="#BitstreamVeraSans-Roman-30"/>
      </g>
     </g>
    </g>
    <g id="xtick_2">
     <g id="line2d_7">
      <g>
       <use style="stroke:#000000;stroke-width:0.5;" x="105.4546875" xlink:href="#m5581be396f" y="255.6"/>
      </g>
     </g>
     <g id="line2d_8">
      <g>
       <use style="stroke:#000000;stroke-width:0.5;" x="105.4546875" xlink:href="#m8b6cea014c" y="15.3"/>
      </g>
     </g>
     <g id="text_2">
      <!-- −0.5 -->
      <defs>
       <path d="M 10.796875 72.90625 
L 49.515625 72.90625 
L 49.515625 64.59375 
L 19.828125 64.59375 
L 19.828125 46.734375 
Q 21.96875 47.46875 24.109375 47.828125 
Q 26.265625 48.1875 28.421875 48.1875 
Q 40.625 48.1875 47.75 41.5 
Q 54.890625 34.8125 54.890625 23.390625 
Q 54.890625 11.625 47.5625 5.09375 
Q 40.234375 -1.421875 26.90625 -1.421875 
Q 22.3125 -1.421875 17.546875 -0.640625 
Q 12.796875 0.140625 7.71875 1.703125 
L 7.71875 11.625 
Q 12.109375 9.234375 16.796875 8.0625 
Q 21.484375 6.890625 26.703125 6.890625 
Q 35.15625 6.890625 40.078125 11.328125 
Q 45.015625 15.765625 45.015625 23.390625 
Q 45.015625 31 40.078125 35.4375 
Q 35.15625 39.890625 26.703125 39.890625 
Q 22.75 39.890625 18.8125 39.015625 
Q 14.890625 38.140625 10.796875 36.28125 
z
" id="BitstreamVeraSans-Roman-35"/>
      </defs>
      <g transform="translate(93.31328125 267.1984375)scale(0.1 -0.1)">
       <use xlink:href="#BitstreamVeraSans-Roman-2212"/>
       <use x="83.7890625" xlink:href="#BitstreamVeraSans-Roman-30"/>
       <use x="147.412109375" xlink:href="#BitstreamVeraSans-Roman-2e"/>
       <use x="179.19921875" xlink:href="#BitstreamVeraSans-Roman-35"/>
      </g>
     </g>
    </g>
    <g id="xtick_3">
     <g id="line2d_9">
      <g>
       <use style="stroke:#000000;stroke-width:0.5;" x="157.584375" xlink:href="#m5581be396f" y="255.6"/>
      </g>
     </g>
     <g id="line2d_10">
      <g>
       <use style="stroke:#000000;stroke-width:0.5;" x="157.584375" xlink:href="#m8b6cea014c" y="15.3"/>
      </g>
     </g>
     <g id="text_3">
      <!-- 0.0 -->
      <g transform="translate(149.6328125 267.1984375)scale(0.1 -0.1)">
       <use xlink:href="#BitstreamVeraSans-Roman-30"/>
       <use x="63.623046875" xlink:href="#BitstreamVeraSans-Roman-2e"/>
       <use x="95.41015625" xlink:href="#BitstreamVeraSans-Roman-30"/>
      </g>
     </g>
    </g>
    <g id="xtick_4">
     <g id="line2d_11">
      <g>
       <use style="stroke:#000000;stroke-width:0.5;" x="209.7140625" xlink:href="#m5581be396f" y="255.6"/>
      </g>
     </g>
     <g id="line2d_12">
      <g>
       <use style="stroke:#000000;stroke-width:0.5;" x="209.7140625" xlink:href="#m8b6cea014c" y="15.3"/>
      </g>
     </g>
     <g id="text_4">
      <!-- 0.5 -->
      <g transform="translate(201.7625 267.1984375)scale(0.1 -0.1)">
       <use xlink:href="#BitstreamVeraSans-Roman-30"/>
       <use x="63.623046875" xlink:href="#BitstreamVeraSans-Roman-2e"/>
       <use x="95.41015625" xlink:href="#BitstreamVeraSans-Roman-35"/>
      </g>
     </g>
    </g>
    <g id="xtick_5">
     <g id="line2d_13">
      <g>
       <use style="stroke:#000000;stroke-width:0.5;" x="261.84375" xlink:href="#m5581be396f" y="255.6"/>
      </g>
     </g>
     <g id="line2d_14">
      <g>
       <use style="stroke:#000000;stroke-width:0.5;" x="261.84375" xlink:href="#m8b6cea014c" y="15.3"/>
      </g>
     </g>
     <g id="text_5">
      <!-- 1.0 -->
      <g transform="translate(253.8921875 267.1984375)scale(0.1 -0.1)">
       <use xlink:href="#BitstreamVeraSans-Roman-31"/>
       <use x="63.623046875" xlink:href="#BitstreamVeraSans-Roman-2e"/>
       <use x="95.41015625" xlink:href="#BitstreamVeraSans-Roman-30"/>
      </g>
     </g>
    </g>
    <g id="text_6">
     <!-- B (T) -->
     <defs>
      <path d="M 8.015625 75.875 
L 15.828125 75.875 
Q 23.140625 64.359375 26.78125 53.3125 
Q 30.421875 42.28125 30.421875 31.390625 
Q 30.421875 20.453125 26.78125 9.375 
Q 23.140625 -1.703125 15.828125 -13.1875 
L 8.015625 -13.1875 
Q 14.5 -2 17.703125 9.0625 
Q 20.90625 20.125 20.90625 31.390625 
Q 20.90625 42.671875 17.703125 53.65625 
Q 14.5 64.65625 8.015625 75.875 
" id="BitstreamVeraSans-Roman-29"/>
      <path id="BitstreamVeraSans-Roman-20"/>
      <path d="M -0.296875 72.90625 
L 61.375 72.90625 
L 61.375 64.59375 
L 35.5 64.59375 
L 35.5 0 
L 25.59375 0 
L 25.59375 64.59375 
L -0.296875 64.59375 
z
" id="BitstreamVeraSans-Roman-54"/>
      <path d="M 19.671875 34.8125 
L 19.671875 8.109375 
L 35.5 8.109375 
Q 43.453125 8.109375 47.28125 11.40625 
Q 51.125 14.703125 51.125 21.484375 
Q 51.125 28.328125 47.28125 31.5625 
Q 43.453125 34.8125 35.5 34.8125 
z
M 19.671875 64.796875 
L 19.671875 42.828125 
L 34.28125 42.828125 
Q 41.5 42.828125 45.03125 45.53125 
Q 48.578125 48.25 48.578125 53.8125 
Q 48.578125 59.328125 45.03125 62.0625 
Q 41.5 64.796875 34.28125 64.796875 
z
M 9.8125 72.90625 
L 35.015625 72.90625 
Q 46.296875 72.90625 52.390625 68.21875 
Q 58.5 63.53125 58.5 54.890625 
Q 58.5 48.1875 55.375 44.234375 
Q 52.25 40.28125 46.1875 39.3125 
Q 53.46875 37.75 57.5 32.78125 
Q 61.53125 27.828125 61.53125 20.40625 
Q 61.53125 10.640625 54.890625 5.3125 
Q 48.25 0 35.984375 0 
L 9.8125 0 
z
" id="BitstreamVeraSans-Roman-42"/>
      <path d="M 31 75.875 
Q 24.46875 64.65625 21.28125 53.65625 
Q 18.109375 42.671875 18.109375 31.390625 
Q 18.109375 20.125 21.3125 9.0625 
Q 24.515625 -2 31 -13.1875 
L 23.1875 -13.1875 
Q 15.875 -1.703125 12.234375 9.375 
Q 8.59375 20.453125 8.59375 31.390625 
Q 8.59375 42.28125 12.203125 53.3125 
Q 15.828125 64.359375 23.1875 75.875 
z
" id="BitstreamVeraSans-Roman-28"/>
     </defs>
     <g transform="translate(145.609375 281.8765625)scale(0.1 -0.1)">
      <use xlink:href="#BitstreamVeraSans-Roman-42"/>
      <use x="68.603515625" xlink:href="#BitstreamVeraSans-Roman-20"/>
      <use x="100.390625" xlink:href="#BitstreamVeraSans-Roman-28"/>
      <use x="139.404296875" xlink:href="#BitstreamVeraSans-Roman-54"/>
      <use x="200.48828125" xlink:href="#BitstreamVeraSans-Roman-29"/>
     </g>
    </g>
   </g>
   <g id="matplotlib.axis_2">
    <g id="ytick_1">
     <g id="line2d_15">
      <defs>
       <path d="M 0 0 
L 4 0 
" id="m5dff661a74" style="stroke:#000000;stroke-width:0.5;"/>
      </defs>
      <g>
       <use style="stroke:#000000;stroke-width:0.5;" x="53.325" xlink:href="#m5dff661a74" y="255.6"/>
      </g>
     </g>
     <g id="line2d_16">
      <defs>
       <path d="M 0 0 
L -4 0 
" id="m3056ad6247" style="stroke:#000000;stroke-width:0.5;"/>
      </defs>
      <g>
       <use style="stroke:#000000;stroke-width:0.5;" x="261.84375" xlink:href="#m3056ad6247" y="255.6"/>
      </g>
     </g>
     <g id="text_7">
      <!-- −1.0 -->
      <g transform="translate(25.0421875 258.359375)scale(0.1 -0.1)">
       <use xlink:href="#BitstreamVeraSans-Roman-2212"/>
       <use x="83.7890625" xlink:href="#BitstreamVeraSans-Roman-31"/>
       <use x="147.412109375" xlink:href="#BitstreamVeraSans-Roman-2e"/>
       <use x="179.19921875" xlink:href="#BitstreamVeraSans-Roman-30"/>
      </g>
     </g>
    </g>
    <g id="ytick_2">
     <g id="line2d_17">
      <g>
       <use style="stroke:#000000;stroke-width:0.5;" x="53.325" xlink:href="#m5dff661a74" y="195.525"/>
      </g>
     </g>
     <g id="line2d_18">
      <g>
       <use style="stroke:#000000;stroke-width:0.5;" x="261.84375" xlink:href="#m3056ad6247" y="195.525"/>
      </g>
     </g>
     <g id="text_8">
      <!-- −0.5 -->
      <g transform="translate(25.0421875 198.284375)scale(0.1 -0.1)">
       <use xlink:href="#BitstreamVeraSans-Roman-2212"/>
       <use x="83.7890625" xlink:href="#BitstreamVeraSans-Roman-30"/>
       <use x="147.412109375" xlink:href="#BitstreamVeraSans-Roman-2e"/>
       <use x="179.19921875" xlink:href="#BitstreamVeraSans-Roman-35"/>
      </g>
     </g>
    </g>
    <g id="ytick_3">
     <g id="line2d_19">
      <g>
       <use style="stroke:#000000;stroke-width:0.5;" x="53.325" xlink:href="#m5dff661a74" y="135.45"/>
      </g>
     </g>
     <g id="line2d_20">
      <g>
       <use style="stroke:#000000;stroke-width:0.5;" x="261.84375" xlink:href="#m3056ad6247" y="135.45"/>
      </g>
     </g>
     <g id="text_9">
      <!-- 0.0 -->
      <g transform="translate(33.421875 138.209375)scale(0.1 -0.1)">
       <use xlink:href="#BitstreamVeraSans-Roman-30"/>
       <use x="63.623046875" xlink:href="#BitstreamVeraSans-Roman-2e"/>
       <use x="95.41015625" xlink:href="#BitstreamVeraSans-Roman-30"/>
      </g>
     </g>
    </g>
    <g id="ytick_4">
     <g id="line2d_21">
      <g>
       <use style="stroke:#000000;stroke-width:0.5;" x="53.325" xlink:href="#m5dff661a74" y="75.375"/>
      </g>
     </g>
     <g id="line2d_22">
      <g>
       <use style="stroke:#000000;stroke-width:0.5;" x="261.84375" xlink:href="#m3056ad6247" y="75.375"/>
      </g>
     </g>
     <g id="text_10">
      <!-- 0.5 -->
      <g transform="translate(33.421875 78.134375)scale(0.1 -0.1)">
       <use xlink:href="#BitstreamVeraSans-Roman-30"/>
       <use x="63.623046875" xlink:href="#BitstreamVeraSans-Roman-2e"/>
       <use x="95.41015625" xlink:href="#BitstreamVeraSans-Roman-35"/>
      </g>
     </g>
    </g>
    <g id="ytick_5">
     <g id="line2d_23">
      <g>
       <use style="stroke:#000000;stroke-width:0.5;" x="53.325" xlink:href="#m5dff661a74" y="15.3"/>
      </g>
     </g>
     <g id="line2d_24">
      <g>
       <use style="stroke:#000000;stroke-width:0.5;" x="261.84375" xlink:href="#m3056ad6247" y="15.3"/>
      </g>
     </g>
     <g id="text_11">
      <!-- 1.0 -->
      <g transform="translate(33.421875 18.059375)scale(0.1 -0.1)">
       <use xlink:href="#BitstreamVeraSans-Roman-31"/>
       <use x="63.623046875" xlink:href="#BitstreamVeraSans-Roman-2e"/>
       <use x="95.41015625" xlink:href="#BitstreamVeraSans-Roman-30"/>
      </g>
     </g>
    </g>
    <g id="text_12">
     <!-- M/Msat -->
     <defs>
      <path d="M 18.3125 70.21875 
L 18.3125 54.6875 
L 36.8125 54.6875 
L 36.8125 47.703125 
L 18.3125 47.703125 
L 18.3125 18.015625 
Q 18.3125 11.328125 20.140625 9.421875 
Q 21.96875 7.515625 27.59375 7.515625 
L 36.8125 7.515625 
L 36.8125 0 
L 27.59375 0 
Q 17.1875 0 13.234375 3.875 
Q 9.28125 7.765625 9.28125 18.015625 
L 9.28125 47.703125 
L 2.6875 47.703125 
L 2.6875 54.6875 
L 9.28125 54.6875 
L 9.28125 70.21875 
z
" id="BitstreamVeraSans-Roman-74"/>
      <path d="M 9.8125 72.90625 
L 24.515625 72.90625 
L 43.109375 23.296875 
L 61.8125 72.90625 
L 76.515625 72.90625 
L 76.515625 0 
L 66.890625 0 
L 66.890625 64.015625 
L 48.09375 14.015625 
L 38.1875 14.015625 
L 19.390625 64.015625 
L 19.390625 0 
L 9.8125 0 
z
" id="BitstreamVeraSans-Roman-4d"/>
      <path d="M 34.28125 27.484375 
Q 23.390625 27.484375 19.1875 25 
Q 14.984375 22.515625 14.984375 16.5 
Q 14.984375 11.71875 18.140625 8.90625 
Q 21.296875 6.109375 26.703125 6.109375 
Q 34.1875 6.109375 38.703125 11.40625 
Q 43.21875 16.703125 43.21875 25.484375 
L 43.21875 27.484375 
z
M 52.203125 31.203125 
L 52.203125 0 
L 43.21875 0 
L 43.21875 8.296875 
Q 40.140625 3.328125 35.546875 0.953125 
Q 30.953125 -1.421875 24.3125 -1.421875 
Q 15.921875 -1.421875 10.953125 3.296875 
Q 6 8.015625 6 15.921875 
Q 6 25.140625 12.171875 29.828125 
Q 18.359375 34.515625 30.609375 34.515625 
L 43.21875 34.515625 
L 43.21875 35.40625 
Q 43.21875 41.609375 39.140625 45 
Q 35.0625 48.390625 27.6875 48.390625 
Q 23 48.390625 18.546875 47.265625 
Q 14.109375 46.140625 10.015625 43.890625 
L 10.015625 52.203125 
Q 14.9375 54.109375 19.578125 55.046875 
Q 24.21875 56 28.609375 56 
Q 40.484375 56 46.34375 49.84375 
Q 52.203125 43.703125 52.203125 31.203125 
" id="BitstreamVeraSans-Roman-61"/>
      <path d="M 44.28125 53.078125 
L 44.28125 44.578125 
Q 40.484375 46.53125 36.375 47.5 
Q 32.28125 48.484375 27.875 48.484375 
Q 21.1875 48.484375 17.84375 46.4375 
Q 14.5 44.390625 14.5 40.28125 
Q 14.5 37.15625 16.890625 35.375 
Q 19.28125 33.59375 26.515625 31.984375 
L 29.59375 31.296875 
Q 39.15625 29.25 43.1875 25.515625 
Q 47.21875 21.78125 47.21875 15.09375 
Q 47.21875 7.46875 41.1875 3.015625 
Q 35.15625 -1.421875 24.609375 -1.421875 
Q 20.21875 -1.421875 15.453125 -0.5625 
Q 10.6875 0.296875 5.421875 2 
L 5.421875 11.28125 
Q 10.40625 8.6875 15.234375 7.390625 
Q 20.0625 6.109375 24.8125 6.109375 
Q 31.15625 6.109375 34.5625 8.28125 
Q 37.984375 10.453125 37.984375 14.40625 
Q 37.984375 18.0625 35.515625 20.015625 
Q 33.0625 21.96875 24.703125 23.78125 
L 21.578125 24.515625 
Q 13.234375 26.265625 9.515625 29.90625 
Q 5.8125 33.546875 5.8125 39.890625 
Q 5.8125 47.609375 11.28125 51.796875 
Q 16.75 56 26.8125 56 
Q 31.78125 56 36.171875 55.265625 
Q 40.578125 54.546875 44.28125 53.078125 
" id="BitstreamVeraSans-Roman-73"/>
      <path d="M 25.390625 72.90625 
L 33.6875 72.90625 
L 8.296875 -9.28125 
L 0 -9.28125 
z
" id="BitstreamVeraSans-Roman-2f"/>
     </defs>
     <g transform="translate(17.9625 153.39140625)rotate(-90.0)scale(0.1 -0.1)">
      <use xlink:href="#BitstreamVeraSans-Roman-4d"/>
      <use x="86.279296875" xlink:href="#BitstreamVeraSans-Roman-2f"/>
      <use x="119.970703125" xlink:href="#BitstreamVeraSans-Roman-4d"/>
      <use x="206.25" xlink:href="#BitstreamVeraSans-Roman-73"/>
      <use x="258.349609375" xlink:href="#BitstreamVeraSans-Roman-61"/>
      <use x="319.62890625" xlink:href="#BitstreamVeraSans-Roman-74"/>
     </g>
    </g>
   </g>
   <g id="text_13">
    <!-- Ms: 1.13e-05 Am^2 -->
    <defs>
     <path d="M 19.1875 8.296875 
L 53.609375 8.296875 
L 53.609375 0 
L 7.328125 0 
L 7.328125 8.296875 
Q 12.9375 14.109375 22.625 23.890625 
Q 32.328125 33.6875 34.8125 36.53125 
Q 39.546875 41.84375 41.421875 45.53125 
Q 43.3125 49.21875 43.3125 52.78125 
Q 43.3125 58.59375 39.234375 62.25 
Q 35.15625 65.921875 28.609375 65.921875 
Q 23.96875 65.921875 18.8125 64.3125 
Q 13.671875 62.703125 7.8125 59.421875 
L 7.8125 69.390625 
Q 13.765625 71.78125 18.9375 73 
Q 24.125 74.21875 28.421875 74.21875 
Q 39.75 74.21875 46.484375 68.546875 
Q 53.21875 62.890625 53.21875 53.421875 
Q 53.21875 48.921875 51.53125 44.890625 
Q 49.859375 40.875 45.40625 35.40625 
Q 44.1875 33.984375 37.640625 27.21875 
Q 31.109375 20.453125 19.1875 8.296875 
" id="BitstreamVeraSans-Roman-32"/>
     <path d="M 40.578125 39.3125 
Q 47.65625 37.796875 51.625 33 
Q 55.609375 28.21875 55.609375 21.1875 
Q 55.609375 10.40625 48.1875 4.484375 
Q 40.765625 -1.421875 27.09375 -1.421875 
Q 22.515625 -1.421875 17.65625 -0.515625 
Q 12.796875 0.390625 7.625 2.203125 
L 7.625 11.71875 
Q 11.71875 9.328125 16.59375 8.109375 
Q 21.484375 6.890625 26.8125 6.890625 
Q 36.078125 6.890625 40.9375 10.546875 
Q 45.796875 14.203125 45.796875 21.1875 
Q 45.796875 27.640625 41.28125 31.265625 
Q 36.765625 34.90625 28.71875 34.90625 
L 20.21875 34.90625 
L 20.21875 43.015625 
L 29.109375 43.015625 
Q 36.375 43.015625 40.234375 45.921875 
Q 44.09375 48.828125 44.09375 54.296875 
Q 44.09375 59.90625 40.109375 62.90625 
Q 36.140625 65.921875 28.71875 65.921875 
Q 24.65625 65.921875 20.015625 65.03125 
Q 15.375 64.15625 9.8125 62.3125 
L 9.8125 71.09375 
Q 15.4375 72.65625 20.34375 73.4375 
Q 25.25 74.21875 29.59375 74.21875 
Q 40.828125 74.21875 47.359375 69.109375 
Q 53.90625 64.015625 53.90625 55.328125 
Q 53.90625 49.265625 50.4375 45.09375 
Q 46.96875 40.921875 40.578125 39.3125 
" id="BitstreamVeraSans-Roman-33"/>
     <path d="M 46.6875 72.90625 
L 73.1875 45.703125 
L 63.375 45.703125 
L 41.890625 64.984375 
L 20.40625 45.703125 
L 10.59375 45.703125 
L 37.109375 72.90625 
z
" id="BitstreamVeraSans-Roman-5e"/>
     <path d="M 52 44.1875 
Q 55.375 50.25 60.0625 53.125 
Q 64.75 56 71.09375 56 
Q 79.640625 56 84.28125 50.015625 
Q 88.921875 44.046875 88.921875 33.015625 
L 88.921875 0 
L 79.890625 0 
L 79.890625 32.71875 
Q 79.890625 40.578125 77.09375 44.375 
Q 74.3125 48.1875 68.609375 48.1875 
Q 61.625 48.1875 57.5625 43.546875 
Q 53.515625 38.921875 53.515625 30.90625 
L 53.515625 0 
L 44.484375 0 
L 44.484375 32.71875 
Q 44.484375 40.625 41.703125 44.40625 
Q 38.921875 48.1875 33.109375 48.1875 
Q 26.21875 48.1875 22.15625 43.53125 
Q 18.109375 38.875 18.109375 30.90625 
L 18.109375 0 
L 9.078125 0 
L 9.078125 54.6875 
L 18.109375 54.6875 
L 18.109375 46.1875 
Q 21.1875 51.21875 25.484375 53.609375 
Q 29.78125 56 35.6875 56 
Q 41.65625 56 45.828125 52.96875 
Q 50 49.953125 52 44.1875 
" id="BitstreamVeraSans-Roman-6d"/>
     <path d="M 11.71875 12.40625 
L 22.015625 12.40625 
L 22.015625 0 
L 11.71875 0 
z
M 11.71875 51.703125 
L 22.015625 51.703125 
L 22.015625 39.3125 
L 11.71875 39.3125 
z
" id="BitstreamVeraSans-Roman-3a"/>
     <path d="M 4.890625 31.390625 
L 31.203125 31.390625 
L 31.203125 23.390625 
L 4.890625 23.390625 
z
" id="BitstreamVeraSans-Roman-2d"/>
     <path d="M 34.1875 63.1875 
L 20.796875 26.90625 
L 47.609375 26.90625 
z
M 28.609375 72.90625 
L 39.796875 72.90625 
L 67.578125 0 
L 57.328125 0 
L 50.6875 18.703125 
L 17.828125 18.703125 
L 11.1875 0 
L 0.78125 0 
z
" id="BitstreamVeraSans-Roman-41"/>
     <path d="M 56.203125 29.59375 
L 56.203125 25.203125 
L 14.890625 25.203125 
Q 15.484375 15.921875 20.484375 11.0625 
Q 25.484375 6.203125 34.421875 6.203125 
Q 39.59375 6.203125 44.453125 7.46875 
Q 49.3125 8.734375 54.109375 11.28125 
L 54.109375 2.78125 
Q 49.265625 0.734375 44.1875 -0.34375 
Q 39.109375 -1.421875 33.890625 -1.421875 
Q 20.796875 -1.421875 13.15625 6.1875 
Q 5.515625 13.8125 5.515625 26.8125 
Q 5.515625 40.234375 12.765625 48.109375 
Q 20.015625 56 32.328125 56 
Q 43.359375 56 49.78125 48.890625 
Q 56.203125 41.796875 56.203125 29.59375 
M 47.21875 32.234375 
Q 47.125 39.59375 43.09375 43.984375 
Q 39.0625 48.390625 32.421875 48.390625 
Q 24.90625 48.390625 20.390625 44.140625 
Q 15.875 39.890625 15.1875 32.171875 
z
" id="BitstreamVeraSans-Roman-65"/>
    </defs>
    <g transform="translate(168.0103125 243.585)scale(0.09 -0.09)">
     <use xlink:href="#BitstreamVeraSans-Roman-4d"/>
     <use x="86.279296875" xlink:href="#BitstreamVeraSans-Roman-73"/>
     <use x="138.37890625" xlink:href="#BitstreamVeraSans-Roman-3a"/>
     <use x="172.0703125" xlink:href="#BitstreamVeraSans-Roman-20"/>
     <use x="203.857421875" xlink:href="#BitstreamVeraSans-Roman-31"/>
     <use x="267.48046875" xlink:href="#BitstreamVeraSans-Roman-2e"/>
     <use x="299.267578125" xlink:href="#BitstreamVeraSans-Roman-31"/>
     <use x="362.890625" xlink:href="#BitstreamVeraSans-Roman-33"/>
     <use x="426.513671875" xlink:href="#BitstreamVeraSans-Roman-65"/>
     <use x="488.037109375" xlink:href="#BitstreamVeraSans-Roman-2d"/>
     <use x="524.12109375" xlink:href="#BitstreamVeraSans-Roman-30"/>
     <use x="587.744140625" xlink:href="#BitstreamVeraSans-Roman-35"/>
     <use x="651.3671875" xlink:href="#BitstreamVeraSans-Roman-20"/>
     <use x="683.154296875" xlink:href="#BitstreamVeraSans-Roman-41"/>
     <use x="751.5625" xlink:href="#BitstreamVeraSans-Roman-6d"/>
     <use x="848.974609375" xlink:href="#BitstreamVeraSans-Roman-5e"/>
     <use x="932.763671875" xlink:href="#BitstreamVeraSans-Roman-32"/>
    </g>
   </g>
   <g id="text_14">
    <!-- Mr: 3.42e-06 Am^2 -->
    <defs>
     <path d="M 33.015625 40.375 
Q 26.375 40.375 22.484375 35.828125 
Q 18.609375 31.296875 18.609375 23.390625 
Q 18.609375 15.53125 22.484375 10.953125 
Q 26.375 6.390625 33.015625 6.390625 
Q 39.65625 6.390625 43.53125 10.953125 
Q 47.40625 15.53125 47.40625 23.390625 
Q 47.40625 31.296875 43.53125 35.828125 
Q 39.65625 40.375 33.015625 40.375 
M 52.59375 71.296875 
L 52.59375 62.3125 
Q 48.875 64.0625 45.09375 64.984375 
Q 41.3125 65.921875 37.59375 65.921875 
Q 27.828125 65.921875 22.671875 59.328125 
Q 17.53125 52.734375 16.796875 39.40625 
Q 19.671875 43.65625 24.015625 45.921875 
Q 28.375 48.1875 33.59375 48.1875 
Q 44.578125 48.1875 50.953125 41.515625 
Q 57.328125 34.859375 57.328125 23.390625 
Q 57.328125 12.15625 50.6875 5.359375 
Q 44.046875 -1.421875 33.015625 -1.421875 
Q 20.359375 -1.421875 13.671875 8.265625 
Q 6.984375 17.96875 6.984375 36.375 
Q 6.984375 53.65625 15.1875 63.9375 
Q 23.390625 74.21875 37.203125 74.21875 
Q 40.921875 74.21875 44.703125 73.484375 
Q 48.484375 72.75 52.59375 71.296875 
" id="BitstreamVeraSans-Roman-36"/>
     <path d="M 41.109375 46.296875 
Q 39.59375 47.171875 37.8125 47.578125 
Q 36.03125 48 33.890625 48 
Q 26.265625 48 22.1875 43.046875 
Q 18.109375 38.09375 18.109375 28.8125 
L 18.109375 0 
L 9.078125 0 
L 9.078125 54.6875 
L 18.109375 54.6875 
L 18.109375 46.1875 
Q 20.953125 51.171875 25.484375 53.578125 
Q 30.03125 56 36.53125 56 
Q 37.453125 56 38.578125 55.875 
Q 39.703125 55.765625 41.0625 55.515625 
z
" id="BitstreamVeraSans-Roman-72"/>
     <path d="M 37.796875 64.3125 
L 12.890625 25.390625 
L 37.796875 25.390625 
z
M 35.203125 72.90625 
L 47.609375 72.90625 
L 47.609375 25.390625 
L 58.015625 25.390625 
L 58.015625 17.1875 
L 47.609375 17.1875 
L 47.609375 0 
L 37.796875 0 
L 37.796875 17.1875 
L 4.890625 17.1875 
L 4.890625 26.703125 
z
" id="BitstreamVeraSans-Roman-34"/>
    </defs>
    <g transform="translate(168.0103125 219.555)scale(0.09 -0.09)">
     <use xlink:href="#BitstreamVeraSans-Roman-4d"/>
     <use x="86.279296875" xlink:href="#BitstreamVeraSans-Roman-72"/>
     <use x="127.376953125" xlink:href="#BitstreamVeraSans-Roman-3a"/>
     <use x="161.068359375" xlink:href="#BitstreamVeraSans-Roman-20"/>
     <use x="192.85546875" xlink:href="#BitstreamVeraSans-Roman-33"/>
     <use x="256.478515625" xlink:href="#BitstreamVeraSans-Roman-2e"/>
     <use x="288.265625" xlink:href="#BitstreamVeraSans-Roman-34"/>
     <use x="351.888671875" xlink:href="#BitstreamVeraSans-Roman-32"/>
     <use x="415.51171875" xlink:href="#BitstreamVeraSans-Roman-65"/>
     <use x="477.03515625" xlink:href="#BitstreamVeraSans-Roman-2d"/>
     <use x="513.119140625" xlink:href="#BitstreamVeraSans-Roman-30"/>
     <use x="576.7421875" xlink:href="#BitstreamVeraSans-Roman-36"/>
     <use x="640.365234375" xlink:href="#BitstreamVeraSans-Roman-20"/>
     <use x="672.15234375" xlink:href="#BitstreamVeraSans-Roman-41"/>
     <use x="740.560546875" xlink:href="#BitstreamVeraSans-Roman-6d"/>
     <use x="837.97265625" xlink:href="#BitstreamVeraSans-Roman-5e"/>
     <use x="921.76171875" xlink:href="#BitstreamVeraSans-Roman-32"/>
    </g>
   </g>
   <g id="text_15">
    <!-- Bc: 4.33e-02 T -->
    <defs>
     <path d="M 48.78125 52.59375 
L 48.78125 44.1875 
Q 44.96875 46.296875 41.140625 47.34375 
Q 37.3125 48.390625 33.40625 48.390625 
Q 24.65625 48.390625 19.8125 42.84375 
Q 14.984375 37.3125 14.984375 27.296875 
Q 14.984375 17.28125 19.8125 11.734375 
Q 24.65625 6.203125 33.40625 6.203125 
Q 37.3125 6.203125 41.140625 7.25 
Q 44.96875 8.296875 48.78125 10.40625 
L 48.78125 2.09375 
Q 45.015625 0.34375 40.984375 -0.53125 
Q 36.96875 -1.421875 32.421875 -1.421875 
Q 20.0625 -1.421875 12.78125 6.34375 
Q 5.515625 14.109375 5.515625 27.296875 
Q 5.515625 40.671875 12.859375 48.328125 
Q 20.21875 56 33.015625 56 
Q 37.15625 56 41.109375 55.140625 
Q 45.0625 54.296875 48.78125 52.59375 
" id="BitstreamVeraSans-Roman-63"/>
    </defs>
    <g transform="translate(168.0103125 195.525)scale(0.09 -0.09)">
     <use xlink:href="#BitstreamVeraSans-Roman-42"/>
     <use x="68.603515625" xlink:href="#BitstreamVeraSans-Roman-63"/>
     <use x="123.583984375" xlink:href="#BitstreamVeraSans-Roman-3a"/>
     <use x="157.275390625" xlink:href="#BitstreamVeraSans-Roman-20"/>
     <use x="189.0625" xlink:href="#BitstreamVeraSans-Roman-34"/>
     <use x="252.685546875" xlink:href="#BitstreamVeraSans-Roman-2e"/>
     <use x="284.47265625" xlink:href="#BitstreamVeraSans-Roman-33"/>
     <use x="348.095703125" xlink:href="#BitstreamVeraSans-Roman-33"/>
     <use x="411.71875" xlink:href="#BitstreamVeraSans-Roman-65"/>
     <use x="473.2421875" xlink:href="#BitstreamVeraSans-Roman-2d"/>
     <use x="509.326171875" xlink:href="#BitstreamVeraSans-Roman-30"/>
     <use x="572.94921875" xlink:href="#BitstreamVeraSans-Roman-32"/>
     <use x="636.572265625" xlink:href="#BitstreamVeraSans-Roman-20"/>
     <use x="668.359375" xlink:href="#BitstreamVeraSans-Roman-54"/>
    </g>
   </g>
   <g id="text_16">
    <!-- Xhf: 9.32e-12 m^3 -->
    <defs>
     <path d="M 6.296875 72.90625 
L 16.890625 72.90625 
L 35.015625 45.796875 
L 53.21875 72.90625 
L 63.8125 72.90625 
L 40.375 37.890625 
L 65.375 0 
L 54.78125 0 
L 34.28125 31 
L 13.625 0 
L 2.984375 0 
L 29 38.921875 
z
" id="BitstreamVeraSans-Roman-58"/>
     <path d="M 10.984375 1.515625 
L 10.984375 10.5 
Q 14.703125 8.734375 18.5 7.8125 
Q 22.3125 6.890625 25.984375 6.890625 
Q 35.75 6.890625 40.890625 13.453125 
Q 46.046875 20.015625 46.78125 33.40625 
Q 43.953125 29.203125 39.59375 26.953125 
Q 35.25 24.703125 29.984375 24.703125 
Q 19.046875 24.703125 12.671875 31.3125 
Q 6.296875 37.9375 6.296875 49.421875 
Q 6.296875 60.640625 12.9375 67.421875 
Q 19.578125 74.21875 30.609375 74.21875 
Q 43.265625 74.21875 49.921875 64.515625 
Q 56.59375 54.828125 56.59375 36.375 
Q 56.59375 19.140625 48.40625 8.859375 
Q 40.234375 -1.421875 26.421875 -1.421875 
Q 22.703125 -1.421875 18.890625 -0.6875 
Q 15.09375 0.046875 10.984375 1.515625 
M 30.609375 32.421875 
Q 37.25 32.421875 41.125 36.953125 
Q 45.015625 41.5 45.015625 49.421875 
Q 45.015625 57.28125 41.125 61.84375 
Q 37.25 66.40625 30.609375 66.40625 
Q 23.96875 66.40625 20.09375 61.84375 
Q 16.21875 57.28125 16.21875 49.421875 
Q 16.21875 41.5 20.09375 36.953125 
Q 23.96875 32.421875 30.609375 32.421875 
" id="BitstreamVeraSans-Roman-39"/>
     <path d="M 37.109375 75.984375 
L 37.109375 68.5 
L 28.515625 68.5 
Q 23.6875 68.5 21.796875 66.546875 
Q 19.921875 64.59375 19.921875 59.515625 
L 19.921875 54.6875 
L 34.71875 54.6875 
L 34.71875 47.703125 
L 19.921875 47.703125 
L 19.921875 0 
L 10.890625 0 
L 10.890625 47.703125 
L 2.296875 47.703125 
L 2.296875 54.6875 
L 10.890625 54.6875 
L 10.890625 58.5 
Q 10.890625 67.625 15.140625 71.796875 
Q 19.390625 75.984375 28.609375 75.984375 
z
" id="BitstreamVeraSans-Roman-66"/>
     <path d="M 54.890625 33.015625 
L 54.890625 0 
L 45.90625 0 
L 45.90625 32.71875 
Q 45.90625 40.484375 42.875 44.328125 
Q 39.84375 48.1875 33.796875 48.1875 
Q 26.515625 48.1875 22.3125 43.546875 
Q 18.109375 38.921875 18.109375 30.90625 
L 18.109375 0 
L 9.078125 0 
L 9.078125 75.984375 
L 18.109375 75.984375 
L 18.109375 46.1875 
Q 21.34375 51.125 25.703125 53.5625 
Q 30.078125 56 35.796875 56 
Q 45.21875 56 50.046875 50.171875 
Q 54.890625 44.34375 54.890625 33.015625 
" id="BitstreamVeraSans-Roman-68"/>
    </defs>
    <g transform="translate(168.0103125 171.495)scale(0.09 -0.09)">
     <use xlink:href="#BitstreamVeraSans-Roman-58"/>
     <use x="68.505859375" xlink:href="#BitstreamVeraSans-Roman-68"/>
     <use x="131.884765625" xlink:href="#BitstreamVeraSans-Roman-66"/>
     <use x="167.04296875" xlink:href="#BitstreamVeraSans-Roman-3a"/>
     <use x="200.734375" xlink:href="#BitstreamVeraSans-Roman-20"/>
     <use x="232.521484375" xlink:href="#BitstreamVeraSans-Roman-39"/>
     <use x="296.14453125" xlink:href="#BitstreamVeraSans-Roman-2e"/>
     <use x="327.931640625" xlink:href="#BitstreamVeraSans-Roman-33"/>
     <use x="391.5546875" xlink:href="#BitstreamVeraSans-Roman-32"/>
     <use x="455.177734375" xlink:href="#BitstreamVeraSans-Roman-65"/>
     <use x="516.701171875" xlink:href="#BitstreamVeraSans-Roman-2d"/>
     <use x="552.78515625" xlink:href="#BitstreamVeraSans-Roman-31"/>
     <use x="616.408203125" xlink:href="#BitstreamVeraSans-Roman-32"/>
     <use x="680.03125" xlink:href="#BitstreamVeraSans-Roman-20"/>
     <use x="711.818359375" xlink:href="#BitstreamVeraSans-Roman-6d"/>
     <use x="809.23046875" xlink:href="#BitstreamVeraSans-Roman-5e"/>
     <use x="893.01953125" xlink:href="#BitstreamVeraSans-Roman-33"/>
    </g>
   </g>
  </g>
  <g id="axes_2">
   <g id="patch_7">
    <path d="M 348.6375 255.6 
L 557.15625 255.6 
L 557.15625 15.3 
L 348.6375 15.3 
z
" style="fill:#ffffff;"/>
   </g>
   <g id="line2d_25">
    <path clip-path="url(#pd7fca89bdc)" d="M 348.6375 47.314442 
L 350.722687 49.806129 
L 352.807875 57.325469 
L 354.893062 68.950664 
L 356.97825 84.050524 
L 359.063437 101.605179 
L 361.148625 120.170138 
L 363.233812 138.283582 
L 365.319 155.195427 
L 367.404187 170.342953 
L 369.489375 183.231786 
L 371.574562 194.374748 
L 373.65975 203.658034 
L 375.744937 211.236734 
L 377.830125 217.610335 
L 379.915312 222.762757 
L 382.0005 227.051964 
L 384.085687 230.665334 
L 386.170875 233.601242 
L 388.256062 236.039188 
L 390.34125 238.13756 
L 392.426437 239.847757 
L 394.511625 241.557982 
L 396.596812 242.764529 
L 398.682 243.791284 
L 400.767187 244.724845 
L 402.852375 245.43454 
L 404.937562 246.28061 
L 407.02275 246.980886 
L 409.107937 247.475312 
L 411.193125 247.761916 
L 413.278312 248.291854 
L 415.3635 248.694705 
L 417.448687 248.995793 
L 419.533875 249.429809 
L 421.619062 249.581932 
L 423.70425 249.755945 
L 425.789437 250.087014 
L 427.874625 250.171363 
L 429.959812 250.251963 
L 432.045 250.465304 
L 434.130187 250.650087 
L 436.215375 250.790012 
L 438.300562 250.859611 
L 440.38575 251.187155 
L 442.470937 251.090723 
L 444.556125 251.285686 
L 446.641312 251.485157 
L 448.7265 251.618377 
L 450.811687 251.828994 
L 452.896875 251.670549 
L 454.982062 251.860086 
L 457.06725 252.039099 
L 459.152437 251.911581 
L 461.237625 252.122273 
L 463.322812 252.210268 
L 465.408 252.233427 
L 467.493187 252.34896 
L 469.578375 252.448574 
L 471.663562 252.440261 
L 473.74875 252.34383 
L 475.833937 252.470355 
L 477.919125 252.548202 
L 480.004312 252.665597 
L 482.0895 252.701493 
L 484.174687 252.842802 
L 486.259875 252.659821 
L 488.345062 252.800929 
L 490.43025 252.893419 
L 492.515437 252.948972 
L 494.600625 252.773008 
L 496.685812 253.017309 
L 498.771 252.945539 
L 500.856187 252.997262 
L 502.941375 253.260204 
L 505.026562 253.400954 
L 507.11175 253.362027 
L 509.196937 253.386475 
L 511.282125 253.287886 
L 513.367312 253.411267 
L 515.4525 253.597352 
L 517.537687 253.602196 
L 519.622875 253.785827 
L 521.708062 253.821064 
L 523.79325 253.735031 
L 525.878437 253.721206 
L 527.963625 254.074544 
L 530.048812 253.82622 
L 532.134 254.153555 
L 534.219187 254.141002 
L 536.304375 254.072629 
L 538.389562 254.208059 
L 540.47475 254.354916 
L 542.559937 254.386222 
L 544.645125 254.443722 
L 546.730312 254.479037 
L 548.8155 254.602012 
L 550.900687 254.657192 
L 552.985875 254.912889 
L 555.071062 254.871945 
" style="fill:none;stroke:#0000ff;stroke-linecap:square;"/>
   </g>
   <g id="line2d_26">
    <path clip-path="url(#pd7fca89bdc)" d="M 348.6375 151.457221 
L 364.858089 151.457221 
L 364.858089 255.6 
" style="fill:none;stroke:#ff0000;stroke-linecap:square;"/>
   </g>
   <g id="patch_8">
    <path d="M 348.6375 15.3 
L 557.15625 15.3 
" style="fill:none;stroke:#000000;stroke-linecap:square;stroke-linejoin:miter;"/>
   </g>
   <g id="patch_9">
    <path d="M 557.15625 255.6 
L 557.15625 15.3 
" style="fill:none;stroke:#000000;stroke-linecap:square;stroke-linejoin:miter;"/>
   </g>
   <g id="patch_10">
    <path d="M 348.6375 255.6 
L 557.15625 255.6 
" style="fill:none;stroke:#000000;stroke-linecap:square;stroke-linejoin:miter;"/>
   </g>
   <g id="patch_11">
    <path d="M 348.6375 255.6 
L 348.6375 15.3 
" style="fill:none;stroke:#000000;stroke-linecap:square;stroke-linejoin:miter;"/>
   </g>
   <g id="matplotlib.axis_3">
    <g id="xtick_6">
     <g id="line2d_27">
      <g>
       <use style="stroke:#000000;stroke-width:0.5;" x="348.6375" xlink:href="#m5581be396f" y="255.6"/>
      </g>
     </g>
     <g id="line2d_28">
      <g>
       <use style="stroke:#000000;stroke-width:0.5;" x="348.6375" xlink:href="#m8b6cea014c" y="15.3"/>
      </g>
     </g>
     <g id="text_17">
      <!-- 0.0 -->
      <g transform="translate(340.6859375 267.1984375)scale(0.1 -0.1)">
       <use xlink:href="#BitstreamVeraSans-Roman-30"/>
       <use x="63.623046875" xlink:href="#BitstreamVeraSans-Roman-2e"/>
       <use x="95.41015625" xlink:href="#BitstreamVeraSans-Roman-30"/>
      </g>
     </g>
    </g>
    <g id="xtick_7">
     <g id="line2d_29">
      <g>
       <use style="stroke:#000000;stroke-width:0.5;" x="390.34125" xlink:href="#m5581be396f" y="255.6"/>
      </g>
     </g>
     <g id="line2d_30">
      <g>
       <use style="stroke:#000000;stroke-width:0.5;" x="390.34125" xlink:href="#m8b6cea014c" y="15.3"/>
      </g>
     </g>
     <g id="text_18">
      <!-- 0.2 -->
      <g transform="translate(382.3896875 267.1984375)scale(0.1 -0.1)">
       <use xlink:href="#BitstreamVeraSans-Roman-30"/>
       <use x="63.623046875" xlink:href="#BitstreamVeraSans-Roman-2e"/>
       <use x="95.41015625" xlink:href="#BitstreamVeraSans-Roman-32"/>
      </g>
     </g>
    </g>
    <g id="xtick_8">
     <g id="line2d_31">
      <g>
       <use style="stroke:#000000;stroke-width:0.5;" x="432.045" xlink:href="#m5581be396f" y="255.6"/>
      </g>
     </g>
     <g id="line2d_32">
      <g>
       <use style="stroke:#000000;stroke-width:0.5;" x="432.045" xlink:href="#m8b6cea014c" y="15.3"/>
      </g>
     </g>
     <g id="text_19">
      <!-- 0.4 -->
      <g transform="translate(424.0934375 267.1984375)scale(0.1 -0.1)">
       <use xlink:href="#BitstreamVeraSans-Roman-30"/>
       <use x="63.623046875" xlink:href="#BitstreamVeraSans-Roman-2e"/>
       <use x="95.41015625" xlink:href="#BitstreamVeraSans-Roman-34"/>
      </g>
     </g>
    </g>
    <g id="xtick_9">
     <g id="line2d_33">
      <g>
       <use style="stroke:#000000;stroke-width:0.5;" x="473.74875" xlink:href="#m5581be396f" y="255.6"/>
      </g>
     </g>
     <g id="line2d_34">
      <g>
       <use style="stroke:#000000;stroke-width:0.5;" x="473.74875" xlink:href="#m8b6cea014c" y="15.3"/>
      </g>
     </g>
     <g id="text_20">
      <!-- 0.6 -->
      <g transform="translate(465.7971875 267.1984375)scale(0.1 -0.1)">
       <use xlink:href="#BitstreamVeraSans-Roman-30"/>
       <use x="63.623046875" xlink:href="#BitstreamVeraSans-Roman-2e"/>
       <use x="95.41015625" xlink:href="#BitstreamVeraSans-Roman-36"/>
      </g>
     </g>
    </g>
    <g id="xtick_10">
     <g id="line2d_35">
      <g>
       <use style="stroke:#000000;stroke-width:0.5;" x="515.4525" xlink:href="#m5581be396f" y="255.6"/>
      </g>
     </g>
     <g id="line2d_36">
      <g>
       <use style="stroke:#000000;stroke-width:0.5;" x="515.4525" xlink:href="#m8b6cea014c" y="15.3"/>
      </g>
     </g>
     <g id="text_21">
      <!-- 0.8 -->
      <defs>
       <path d="M 31.78125 34.625 
Q 24.75 34.625 20.71875 30.859375 
Q 16.703125 27.09375 16.703125 20.515625 
Q 16.703125 13.921875 20.71875 10.15625 
Q 24.75 6.390625 31.78125 6.390625 
Q 38.8125 6.390625 42.859375 10.171875 
Q 46.921875 13.96875 46.921875 20.515625 
Q 46.921875 27.09375 42.890625 30.859375 
Q 38.875 34.625 31.78125 34.625 
M 21.921875 38.8125 
Q 15.578125 40.375 12.03125 44.71875 
Q 8.5 49.078125 8.5 55.328125 
Q 8.5 64.0625 14.71875 69.140625 
Q 20.953125 74.21875 31.78125 74.21875 
Q 42.671875 74.21875 48.875 69.140625 
Q 55.078125 64.0625 55.078125 55.328125 
Q 55.078125 49.078125 51.53125 44.71875 
Q 48 40.375 41.703125 38.8125 
Q 48.828125 37.15625 52.796875 32.3125 
Q 56.78125 27.484375 56.78125 20.515625 
Q 56.78125 9.90625 50.3125 4.234375 
Q 43.84375 -1.421875 31.78125 -1.421875 
Q 19.734375 -1.421875 13.25 4.234375 
Q 6.78125 9.90625 6.78125 20.515625 
Q 6.78125 27.484375 10.78125 32.3125 
Q 14.796875 37.15625 21.921875 38.8125 
M 18.3125 54.390625 
Q 18.3125 48.734375 21.84375 45.5625 
Q 25.390625 42.390625 31.78125 42.390625 
Q 38.140625 42.390625 41.71875 45.5625 
Q 45.3125 48.734375 45.3125 54.390625 
Q 45.3125 60.0625 41.71875 63.234375 
Q 38.140625 66.40625 31.78125 66.40625 
Q 25.390625 66.40625 21.84375 63.234375 
Q 18.3125 60.0625 18.3125 54.390625 
" id="BitstreamVeraSans-Roman-38"/>
      </defs>
      <g transform="translate(507.5009375 267.1984375)scale(0.1 -0.1)">
       <use xlink:href="#BitstreamVeraSans-Roman-30"/>
       <use x="63.623046875" xlink:href="#BitstreamVeraSans-Roman-2e"/>
       <use x="95.41015625" xlink:href="#BitstreamVeraSans-Roman-38"/>
      </g>
     </g>
    </g>
    <g id="xtick_11">
     <g id="line2d_37">
      <g>
       <use style="stroke:#000000;stroke-width:0.5;" x="557.15625" xlink:href="#m5581be396f" y="255.6"/>
      </g>
     </g>
     <g id="line2d_38">
      <g>
       <use style="stroke:#000000;stroke-width:0.5;" x="557.15625" xlink:href="#m8b6cea014c" y="15.3"/>
      </g>
     </g>
     <g id="text_22">
      <!-- 1.0 -->
      <g transform="translate(549.2046875 267.1984375)scale(0.1 -0.1)">
       <use xlink:href="#BitstreamVeraSans-Roman-31"/>
       <use x="63.623046875" xlink:href="#BitstreamVeraSans-Roman-2e"/>
       <use x="95.41015625" xlink:href="#BitstreamVeraSans-Roman-30"/>
      </g>
     </g>
    </g>
    <g id="text_23">
     <!-- B (T) -->
     <g transform="translate(440.921875 281.8765625)scale(0.1 -0.1)">
      <use xlink:href="#BitstreamVeraSans-Roman-42"/>
      <use x="68.603515625" xlink:href="#BitstreamVeraSans-Roman-20"/>
      <use x="100.390625" xlink:href="#BitstreamVeraSans-Roman-28"/>
      <use x="139.404296875" xlink:href="#BitstreamVeraSans-Roman-54"/>
      <use x="200.48828125" xlink:href="#BitstreamVeraSans-Roman-29"/>
     </g>
    </g>
   </g>
   <g id="matplotlib.axis_4">
    <g id="ytick_6">
     <g id="line2d_39">
      <g>
       <use style="stroke:#000000;stroke-width:0.5;" x="348.6375" xlink:href="#m5dff661a74" y="255.6"/>
      </g>
     </g>
     <g id="line2d_40">
      <g>
       <use style="stroke:#000000;stroke-width:0.5;" x="557.15625" xlink:href="#m3056ad6247" y="255.6"/>
      </g>
     </g>
     <g id="text_24">
      <!-- 0.0 -->
      <g transform="translate(328.734375 258.359375)scale(0.1 -0.1)">
       <use xlink:href="#BitstreamVeraSans-Roman-30"/>
       <use x="63.623046875" xlink:href="#BitstreamVeraSans-Roman-2e"/>
       <use x="95.41015625" xlink:href="#BitstreamVeraSans-Roman-30"/>
      </g>
     </g>
    </g>
    <g id="ytick_7">
     <g id="line2d_41">
      <g>
       <use style="stroke:#000000;stroke-width:0.5;" x="348.6375" xlink:href="#m5dff661a74" y="221.271428571"/>
      </g>
     </g>
     <g id="line2d_42">
      <g>
       <use style="stroke:#000000;stroke-width:0.5;" x="557.15625" xlink:href="#m3056ad6247" y="221.271428571"/>
      </g>
     </g>
     <g id="text_25">
      <!-- 0.1 -->
      <g transform="translate(328.734375 224.030803571)scale(0.1 -0.1)">
       <use xlink:href="#BitstreamVeraSans-Roman-30"/>
       <use x="63.623046875" xlink:href="#BitstreamVeraSans-Roman-2e"/>
       <use x="95.41015625" xlink:href="#BitstreamVeraSans-Roman-31"/>
      </g>
     </g>
    </g>
    <g id="ytick_8">
     <g id="line2d_43">
      <g>
       <use style="stroke:#000000;stroke-width:0.5;" x="348.6375" xlink:href="#m5dff661a74" y="186.942857143"/>
      </g>
     </g>
     <g id="line2d_44">
      <g>
       <use style="stroke:#000000;stroke-width:0.5;" x="557.15625" xlink:href="#m3056ad6247" y="186.942857143"/>
      </g>
     </g>
     <g id="text_26">
      <!-- 0.2 -->
      <g transform="translate(328.734375 189.702232143)scale(0.1 -0.1)">
       <use xlink:href="#BitstreamVeraSans-Roman-30"/>
       <use x="63.623046875" xlink:href="#BitstreamVeraSans-Roman-2e"/>
       <use x="95.41015625" xlink:href="#BitstreamVeraSans-Roman-32"/>
      </g>
     </g>
    </g>
    <g id="ytick_9">
     <g id="line2d_45">
      <g>
       <use style="stroke:#000000;stroke-width:0.5;" x="348.6375" xlink:href="#m5dff661a74" y="152.614285714"/>
      </g>
     </g>
     <g id="line2d_46">
      <g>
       <use style="stroke:#000000;stroke-width:0.5;" x="557.15625" xlink:href="#m3056ad6247" y="152.614285714"/>
      </g>
     </g>
     <g id="text_27">
      <!-- 0.3 -->
      <g transform="translate(328.734375 155.373660714)scale(0.1 -0.1)">
       <use xlink:href="#BitstreamVeraSans-Roman-30"/>
       <use x="63.623046875" xlink:href="#BitstreamVeraSans-Roman-2e"/>
       <use x="95.41015625" xlink:href="#BitstreamVeraSans-Roman-33"/>
      </g>
     </g>
    </g>
    <g id="ytick_10">
     <g id="line2d_47">
      <g>
       <use style="stroke:#000000;stroke-width:0.5;" x="348.6375" xlink:href="#m5dff661a74" y="118.285714286"/>
      </g>
     </g>
     <g id="line2d_48">
      <g>
       <use style="stroke:#000000;stroke-width:0.5;" x="557.15625" xlink:href="#m3056ad6247" y="118.285714286"/>
      </g>
     </g>
     <g id="text_28">
      <!-- 0.4 -->
      <g transform="translate(328.734375 121.045089286)scale(0.1 -0.1)">
       <use xlink:href="#BitstreamVeraSans-Roman-30"/>
       <use x="63.623046875" xlink:href="#BitstreamVeraSans-Roman-2e"/>
       <use x="95.41015625" xlink:href="#BitstreamVeraSans-Roman-34"/>
      </g>
     </g>
    </g>
    <g id="ytick_11">
     <g id="line2d_49">
      <g>
       <use style="stroke:#000000;stroke-width:0.5;" x="348.6375" xlink:href="#m5dff661a74" y="83.9571428571"/>
      </g>
     </g>
     <g id="line2d_50">
      <g>
       <use style="stroke:#000000;stroke-width:0.5;" x="557.15625" xlink:href="#m3056ad6247" y="83.9571428571"/>
      </g>
     </g>
     <g id="text_29">
      <!-- 0.5 -->
      <g transform="translate(328.734375 86.7165178571)scale(0.1 -0.1)">
       <use xlink:href="#BitstreamVeraSans-Roman-30"/>
       <use x="63.623046875" xlink:href="#BitstreamVeraSans-Roman-2e"/>
       <use x="95.41015625" xlink:href="#BitstreamVeraSans-Roman-35"/>
      </g>
     </g>
    </g>
    <g id="ytick_12">
     <g id="line2d_51">
      <g>
       <use style="stroke:#000000;stroke-width:0.5;" x="348.6375" xlink:href="#m5dff661a74" y="49.6285714286"/>
      </g>
     </g>
     <g id="line2d_52">
      <g>
       <use style="stroke:#000000;stroke-width:0.5;" x="557.15625" xlink:href="#m3056ad6247" y="49.6285714286"/>
      </g>
     </g>
     <g id="text_30">
      <!-- 0.6 -->
      <g transform="translate(328.734375 52.3879464286)scale(0.1 -0.1)">
       <use xlink:href="#BitstreamVeraSans-Roman-30"/>
       <use x="63.623046875" xlink:href="#BitstreamVeraSans-Roman-2e"/>
       <use x="95.41015625" xlink:href="#BitstreamVeraSans-Roman-36"/>
      </g>
     </g>
    </g>
    <g id="ytick_13">
     <g id="line2d_53">
      <g>
       <use style="stroke:#000000;stroke-width:0.5;" x="348.6375" xlink:href="#m5dff661a74" y="15.3"/>
      </g>
     </g>
     <g id="line2d_54">
      <g>
       <use style="stroke:#000000;stroke-width:0.5;" x="557.15625" xlink:href="#m3056ad6247" y="15.3"/>
      </g>
     </g>
     <g id="text_31">
      <!-- 0.7 -->
      <defs>
       <path d="M 8.203125 72.90625 
L 55.078125 72.90625 
L 55.078125 68.703125 
L 28.609375 0 
L 18.3125 0 
L 43.21875 64.59375 
L 8.203125 64.59375 
z
" id="BitstreamVeraSans-Roman-37"/>
      </defs>
      <g transform="translate(328.734375 18.059375)scale(0.1 -0.1)">
       <use xlink:href="#BitstreamVeraSans-Roman-30"/>
       <use x="63.623046875" xlink:href="#BitstreamVeraSans-Roman-2e"/>
       <use x="95.41015625" xlink:href="#BitstreamVeraSans-Roman-37"/>
      </g>
     </g>
    </g>
    <g id="text_32">
     <!-- Delta M -->
     <defs>
      <path d="M 19.671875 64.796875 
L 19.671875 8.109375 
L 31.59375 8.109375 
Q 46.6875 8.109375 53.6875 14.9375 
Q 60.6875 21.78125 60.6875 36.53125 
Q 60.6875 51.171875 53.6875 57.984375 
Q 46.6875 64.796875 31.59375 64.796875 
z
M 9.8125 72.90625 
L 30.078125 72.90625 
Q 51.265625 72.90625 61.171875 64.09375 
Q 71.09375 55.28125 71.09375 36.53125 
Q 71.09375 17.671875 61.125 8.828125 
Q 51.171875 0 30.078125 0 
L 9.8125 0 
z
" id="BitstreamVeraSans-Roman-44"/>
      <path d="M 9.421875 75.984375 
L 18.40625 75.984375 
L 18.40625 0 
L 9.421875 0 
z
" id="BitstreamVeraSans-Roman-6c"/>
     </defs>
     <g transform="translate(321.6546875 154.69296875)rotate(-90.0)scale(0.1 -0.1)">
      <use xlink:href="#BitstreamVeraSans-Roman-44"/>
      <use x="77.001953125" xlink:href="#BitstreamVeraSans-Roman-65"/>
      <use x="138.525390625" xlink:href="#BitstreamVeraSans-Roman-6c"/>
      <use x="166.30859375" xlink:href="#BitstreamVeraSans-Roman-74"/>
      <use x="205.517578125" xlink:href="#BitstreamVeraSans-Roman-61"/>
      <use x="266.796875" xlink:href="#BitstreamVeraSans-Roman-20"/>
      <use x="298.583984375" xlink:href="#BitstreamVeraSans-Roman-4d"/>
     </g>
    </g>
   </g>
  </g>
  <g id="axes_3">
   <g id="patch_12">
    <path d="M 53.325 538.2 
L 261.84375 538.2 
L 261.84375 297.9 
L 53.325 297.9 
z
" style="fill:#ffffff;"/>
   </g>
   <g id="line2d_55">
    <path clip-path="url(#pe8f5ccd377)" d="M 57.495375 479.802344 
L 59.580562 426.523545 
L 61.66575 382.303844 
L 63.750937 347.715329 
L 65.836125 327.502254 
L 67.921312 324.242645 
L 70.0065 333.885813 
L 72.091687 351.187008 
L 74.176875 374.654571 
L 76.262062 398.014524 
L 78.34725 419.046888 
L 80.432437 439.838415 
L 82.517625 456.811574 
L 84.602812 470.964868 
L 86.688 483.123836 
L 88.773187 492.101637 
L 90.858375 499.995877 
L 92.943562 506.852513 
L 95.02875 511.738144 
L 97.113937 515.983349 
L 99.199125 518.24754 
L 101.284312 521.185497 
L 103.3695 525.172401 
L 105.454687 526.764822 
L 107.539875 528.614339 
L 109.625062 529.124706 
L 111.71025 529.179649 
L 113.795437 531.230906 
L 115.880625 533.643991 
L 117.965812 533.436837 
L 120.051 532.758735 
L 122.136187 534.093693 
L 124.221375 533.91189 
L 126.306562 534.780854 
L 128.39175 536.297539 
L 130.476937 535.253686 
L 132.562125 535.776731 
L 134.647312 537.237796 
L 136.7325 536.485342 
L 138.817687 535.877613 
L 140.902875 536.305873 
L 142.988062 536.977775 
L 145.07325 535.883329 
L 147.158437 536.85185 
L 149.243625 537.625239 
L 151.328812 535.899134 
L 153.414 536.2593 
L 155.499187 536.194281 
L 157.584375 537.895668 
L 159.669562 538.01863 
L 161.75475 536.050123 
L 163.839937 537.899615 
L 165.925125 537.714817 
L 168.010312 536.45766 
L 170.0955 537.551599 
L 172.180687 537.390961 
L 174.265875 536.944977 
L 176.351062 537.667412 
L 178.43625 537.588993 
L 180.521437 538.02445 
L 182.606625 537.007831 
L 184.691812 537.061092 
L 186.777 537.305801 
L 188.862187 537.1663 
L 190.947375 537.956912 
L 193.032562 537.955742 
L 195.11775 536.837345 
L 197.202937 537.336418 
L 199.288125 537.4976 
L 201.373312 537.801367 
L 203.4585 537.193567 
L 205.543687 538.083061 
L 207.628875 536.364453 
L 209.714062 535.845132 
L 211.79925 537.606035 
L 213.884437 538.115537 
L 215.969625 537.76751 
L 218.054812 538.055375 
L 220.14 536.394782 
L 222.225187 537.086252 
L 224.310375 537.100561 
L 226.395562 536.92327 
L 228.48075 537.903688 
L 230.565937 537.617499 
L 232.651125 536.219508 
L 234.736312 537.587423 
L 236.8215 537.739099 
L 238.906687 536.363767 
L 240.991875 537.727928 
L 243.077062 537.808836 
L 245.16225 536.553322 
L 247.247437 537.160715 
L 249.332625 537.681967 
L 251.417812 537.658582 
L 253.503 537.27664 
L 255.588187 537.160762 
L 257.673375 536.386553 
L 259.758562 536.947274 
" style="fill:none;stroke:#0000ff;stroke-linecap:square;"/>
   </g>
   <g id="patch_13">
    <path d="M 53.325 297.9 
L 261.84375 297.9 
" style="fill:none;stroke:#000000;stroke-linecap:square;stroke-linejoin:miter;"/>
   </g>
   <g id="patch_14">
    <path d="M 261.84375 538.2 
L 261.84375 297.9 
" style="fill:none;stroke:#000000;stroke-linecap:square;stroke-linejoin:miter;"/>
   </g>
   <g id="patch_15">
    <path d="M 53.325 538.2 
L 261.84375 538.2 
" style="fill:none;stroke:#000000;stroke-linecap:square;stroke-linejoin:miter;"/>
   </g>
   <g id="patch_16">
    <path d="M 53.325 538.2 
L 53.325 297.9 
" style="fill:none;stroke:#000000;stroke-linecap:square;stroke-linejoin:miter;"/>
   </g>
   <g id="matplotlib.axis_5">
    <g id="xtick_12">
     <g id="line2d_56">
      <g>
       <use style="stroke:#000000;stroke-width:0.5;" x="53.325" xlink:href="#m5581be396f" y="538.2"/>
      </g>
     </g>
     <g id="line2d_57">
      <g>
       <use style="stroke:#000000;stroke-width:0.5;" x="53.325" xlink:href="#m8b6cea014c" y="297.9"/>
      </g>
     </g>
     <g id="text_33">
      <!-- 0.0 -->
      <g transform="translate(45.3734375 549.7984375)scale(0.1 -0.1)">
       <use xlink:href="#BitstreamVeraSans-Roman-30"/>
       <use x="63.623046875" xlink:href="#BitstreamVeraSans-Roman-2e"/>
       <use x="95.41015625" xlink:href="#BitstreamVeraSans-Roman-30"/>
      </g>
     </g>
    </g>
    <g id="xtick_13">
     <g id="line2d_58">
      <g>
       <use style="stroke:#000000;stroke-width:0.5;" x="95.02875" xlink:href="#m5581be396f" y="538.2"/>
      </g>
     </g>
     <g id="line2d_59">
      <g>
       <use style="stroke:#000000;stroke-width:0.5;" x="95.02875" xlink:href="#m8b6cea014c" y="297.9"/>
      </g>
     </g>
     <g id="text_34">
      <!-- 0.2 -->
      <g transform="translate(87.0771875 549.7984375)scale(0.1 -0.1)">
       <use xlink:href="#BitstreamVeraSans-Roman-30"/>
       <use x="63.623046875" xlink:href="#BitstreamVeraSans-Roman-2e"/>
       <use x="95.41015625" xlink:href="#BitstreamVeraSans-Roman-32"/>
      </g>
     </g>
    </g>
    <g id="xtick_14">
     <g id="line2d_60">
      <g>
       <use style="stroke:#000000;stroke-width:0.5;" x="136.7325" xlink:href="#m5581be396f" y="538.2"/>
      </g>
     </g>
     <g id="line2d_61">
      <g>
       <use style="stroke:#000000;stroke-width:0.5;" x="136.7325" xlink:href="#m8b6cea014c" y="297.9"/>
      </g>
     </g>
     <g id="text_35">
      <!-- 0.4 -->
      <g transform="translate(128.7809375 549.7984375)scale(0.1 -0.1)">
       <use xlink:href="#BitstreamVeraSans-Roman-30"/>
       <use x="63.623046875" xlink:href="#BitstreamVeraSans-Roman-2e"/>
       <use x="95.41015625" xlink:href="#BitstreamVeraSans-Roman-34"/>
      </g>
     </g>
    </g>
    <g id="xtick_15">
     <g id="line2d_62">
      <g>
       <use style="stroke:#000000;stroke-width:0.5;" x="178.43625" xlink:href="#m5581be396f" y="538.2"/>
      </g>
     </g>
     <g id="line2d_63">
      <g>
       <use style="stroke:#000000;stroke-width:0.5;" x="178.43625" xlink:href="#m8b6cea014c" y="297.9"/>
      </g>
     </g>
     <g id="text_36">
      <!-- 0.6 -->
      <g transform="translate(170.4846875 549.7984375)scale(0.1 -0.1)">
       <use xlink:href="#BitstreamVeraSans-Roman-30"/>
       <use x="63.623046875" xlink:href="#BitstreamVeraSans-Roman-2e"/>
       <use x="95.41015625" xlink:href="#BitstreamVeraSans-Roman-36"/>
      </g>
     </g>
    </g>
    <g id="xtick_16">
     <g id="line2d_64">
      <g>
       <use style="stroke:#000000;stroke-width:0.5;" x="220.14" xlink:href="#m5581be396f" y="538.2"/>
      </g>
     </g>
     <g id="line2d_65">
      <g>
       <use style="stroke:#000000;stroke-width:0.5;" x="220.14" xlink:href="#m8b6cea014c" y="297.9"/>
      </g>
     </g>
     <g id="text_37">
      <!-- 0.8 -->
      <g transform="translate(212.1884375 549.7984375)scale(0.1 -0.1)">
       <use xlink:href="#BitstreamVeraSans-Roman-30"/>
       <use x="63.623046875" xlink:href="#BitstreamVeraSans-Roman-2e"/>
       <use x="95.41015625" xlink:href="#BitstreamVeraSans-Roman-38"/>
      </g>
     </g>
    </g>
    <g id="xtick_17">
     <g id="line2d_66">
      <g>
       <use style="stroke:#000000;stroke-width:0.5;" x="261.84375" xlink:href="#m5581be396f" y="538.2"/>
      </g>
     </g>
     <g id="line2d_67">
      <g>
       <use style="stroke:#000000;stroke-width:0.5;" x="261.84375" xlink:href="#m8b6cea014c" y="297.9"/>
      </g>
     </g>
     <g id="text_38">
      <!-- 1.0 -->
      <g transform="translate(253.8921875 549.7984375)scale(0.1 -0.1)">
       <use xlink:href="#BitstreamVeraSans-Roman-31"/>
       <use x="63.623046875" xlink:href="#BitstreamVeraSans-Roman-2e"/>
       <use x="95.41015625" xlink:href="#BitstreamVeraSans-Roman-30"/>
      </g>
     </g>
    </g>
    <g id="text_39">
     <!-- B (T) -->
     <g transform="translate(145.609375 564.4765625)scale(0.1 -0.1)">
      <use xlink:href="#BitstreamVeraSans-Roman-42"/>
      <use x="68.603515625" xlink:href="#BitstreamVeraSans-Roman-20"/>
      <use x="100.390625" xlink:href="#BitstreamVeraSans-Roman-28"/>
      <use x="139.404296875" xlink:href="#BitstreamVeraSans-Roman-54"/>
      <use x="200.48828125" xlink:href="#BitstreamVeraSans-Roman-29"/>
     </g>
    </g>
   </g>
   <g id="matplotlib.axis_6">
    <g id="ytick_14">
     <g id="line2d_68">
      <g>
       <use style="stroke:#000000;stroke-width:0.5;" x="53.325" xlink:href="#m5dff661a74" y="538.2"/>
      </g>
     </g>
     <g id="line2d_69">
      <g>
       <use style="stroke:#000000;stroke-width:0.5;" x="261.84375" xlink:href="#m3056ad6247" y="538.2"/>
      </g>
     </g>
     <g id="text_40">
      <!-- 0 -->
      <g transform="translate(42.9625 540.959375)scale(0.1 -0.1)">
       <use xlink:href="#BitstreamVeraSans-Roman-30"/>
      </g>
     </g>
    </g>
    <g id="ytick_15">
     <g id="line2d_70">
      <g>
       <use style="stroke:#000000;stroke-width:0.5;" x="53.325" xlink:href="#m5dff661a74" y="498.15"/>
      </g>
     </g>
     <g id="line2d_71">
      <g>
       <use style="stroke:#000000;stroke-width:0.5;" x="261.84375" xlink:href="#m3056ad6247" y="498.15"/>
      </g>
     </g>
     <g id="text_41">
      <!-- 1 -->
      <g transform="translate(42.9625 500.909375)scale(0.1 -0.1)">
       <use xlink:href="#BitstreamVeraSans-Roman-31"/>
      </g>
     </g>
    </g>
    <g id="ytick_16">
     <g id="line2d_72">
      <g>
       <use style="stroke:#000000;stroke-width:0.5;" x="53.325" xlink:href="#m5dff661a74" y="458.1"/>
      </g>
     </g>
     <g id="line2d_73">
      <g>
       <use style="stroke:#000000;stroke-width:0.5;" x="261.84375" xlink:href="#m3056ad6247" y="458.1"/>
      </g>
     </g>
     <g id="text_42">
      <!-- 2 -->
      <g transform="translate(42.9625 460.859375)scale(0.1 -0.1)">
       <use xlink:href="#BitstreamVeraSans-Roman-32"/>
      </g>
     </g>
    </g>
    <g id="ytick_17">
     <g id="line2d_74">
      <g>
       <use style="stroke:#000000;stroke-width:0.5;" x="53.325" xlink:href="#m5dff661a74" y="418.05"/>
      </g>
     </g>
     <g id="line2d_75">
      <g>
       <use style="stroke:#000000;stroke-width:0.5;" x="261.84375" xlink:href="#m3056ad6247" y="418.05"/>
      </g>
     </g>
     <g id="text_43">
      <!-- 3 -->
      <g transform="translate(42.9625 420.809375)scale(0.1 -0.1)">
       <use xlink:href="#BitstreamVeraSans-Roman-33"/>
      </g>
     </g>
    </g>
    <g id="ytick_18">
     <g id="line2d_76">
      <g>
       <use style="stroke:#000000;stroke-width:0.5;" x="53.325" xlink:href="#m5dff661a74" y="378.0"/>
      </g>
     </g>
     <g id="line2d_77">
      <g>
       <use style="stroke:#000000;stroke-width:0.5;" x="261.84375" xlink:href="#m3056ad6247" y="378.0"/>
      </g>
     </g>
     <g id="text_44">
      <!-- 4 -->
      <g transform="translate(42.9625 380.759375)scale(0.1 -0.1)">
       <use xlink:href="#BitstreamVeraSans-Roman-34"/>
      </g>
     </g>
    </g>
    <g id="ytick_19">
     <g id="line2d_78">
      <g>
       <use style="stroke:#000000;stroke-width:0.5;" x="53.325" xlink:href="#m5dff661a74" y="337.95"/>
      </g>
     </g>
     <g id="line2d_79">
      <g>
       <use style="stroke:#000000;stroke-width:0.5;" x="261.84375" xlink:href="#m3056ad6247" y="337.95"/>
      </g>
     </g>
     <g id="text_45">
      <!-- 5 -->
      <g transform="translate(42.9625 340.709375)scale(0.1 -0.1)">
       <use xlink:href="#BitstreamVeraSans-Roman-35"/>
      </g>
     </g>
    </g>
    <g id="ytick_20">
     <g id="line2d_80">
      <g>
       <use style="stroke:#000000;stroke-width:0.5;" x="53.325" xlink:href="#m5dff661a74" y="297.9"/>
      </g>
     </g>
     <g id="line2d_81">
      <g>
       <use style="stroke:#000000;stroke-width:0.5;" x="261.84375" xlink:href="#m3056ad6247" y="297.9"/>
      </g>
     </g>
     <g id="text_46">
      <!-- 6 -->
      <g transform="translate(42.9625 300.659375)scale(0.1 -0.1)">
       <use xlink:href="#BitstreamVeraSans-Roman-36"/>
      </g>
     </g>
    </g>
    <g id="text_47">
     <!-- d (Delta M)/dB -->
     <defs>
      <path d="M 45.40625 46.390625 
L 45.40625 75.984375 
L 54.390625 75.984375 
L 54.390625 0 
L 45.40625 0 
L 45.40625 8.203125 
Q 42.578125 3.328125 38.25 0.953125 
Q 33.9375 -1.421875 27.875 -1.421875 
Q 17.96875 -1.421875 11.734375 6.484375 
Q 5.515625 14.40625 5.515625 27.296875 
Q 5.515625 40.1875 11.734375 48.09375 
Q 17.96875 56 27.875 56 
Q 33.9375 56 38.25 53.625 
Q 42.578125 51.265625 45.40625 46.390625 
M 14.796875 27.296875 
Q 14.796875 17.390625 18.875 11.75 
Q 22.953125 6.109375 30.078125 6.109375 
Q 37.203125 6.109375 41.296875 11.75 
Q 45.40625 17.390625 45.40625 27.296875 
Q 45.40625 37.203125 41.296875 42.84375 
Q 37.203125 48.484375 30.078125 48.484375 
Q 22.953125 48.484375 18.875 42.84375 
Q 14.796875 37.203125 14.796875 27.296875 
" id="BitstreamVeraSans-Roman-64"/>
     </defs>
     <g transform="translate(35.8828125 454.246875)rotate(-90.0)scale(0.1 -0.1)">
      <use xlink:href="#BitstreamVeraSans-Roman-64"/>
      <use x="63.4765625" xlink:href="#BitstreamVeraSans-Roman-20"/>
      <use x="95.263671875" xlink:href="#BitstreamVeraSans-Roman-28"/>
      <use x="134.27734375" xlink:href="#BitstreamVeraSans-Roman-44"/>
      <use x="211.279296875" xlink:href="#BitstreamVeraSans-Roman-65"/>
      <use x="272.802734375" xlink:href="#BitstreamVeraSans-Roman-6c"/>
      <use x="300.5859375" xlink:href="#BitstreamVeraSans-Roman-74"/>
      <use x="339.794921875" xlink:href="#BitstreamVeraSans-Roman-61"/>
      <use x="401.07421875" xlink:href="#BitstreamVeraSans-Roman-20"/>
      <use x="432.861328125" xlink:href="#BitstreamVeraSans-Roman-4d"/>
      <use x="519.140625" xlink:href="#BitstreamVeraSans-Roman-29"/>
      <use x="558.154296875" xlink:href="#BitstreamVeraSans-Roman-2f"/>
      <use x="591.845703125" xlink:href="#BitstreamVeraSans-Roman-64"/>
      <use x="655.322265625" xlink:href="#BitstreamVeraSans-Roman-42"/>
     </g>
    </g>
   </g>
  </g>
  <g id="axes_4">
   <g id="patch_17">
    <path d="M 348.6375 538.2 
L 557.15625 538.2 
L 557.15625 297.9 
L 348.6375 297.9 
z
" style="fill:#ffffff;"/>
   </g>
   <g id="line2d_82">
    <path clip-path="url(#p6dc84d1585)" d="M 557.15625 314.991337 
L 552.777356 322.200337 
L 548.210796 332.14275 
L 543.81105 344.458125 
L 539.411304 359.326687 
L 534.990707 376.147687 
L 530.444998 394.320375 
L 526.045252 411.5619 
L 521.624655 427.451737 
L 517.078946 441.8397 
L 512.658349 453.8547 
L 508.279455 463.767075 
L 503.733746 472.3578 
L 499.313149 479.3265 
L 494.934255 484.823362 
L 490.513657 489.449137 
L 485.926245 493.38405 
L 481.547351 496.568025 
L 477.168457 499.061137 
L 472.581045 501.464137 
L 468.160447 503.266387 
L 463.781554 504.768262 
L 459.360956 506.149987 
L 454.815247 507.261375 
L 450.39465 508.192537 
L 446.015756 509.033587 
L 441.428344 509.784525 
L 437.04945 510.385275 
L 432.628852 510.92595 
L 428.083144 511.40655 
L 423.70425 511.88715 
L 419.283652 512.12745 
L 414.904759 512.427825 
L 410.317346 512.908425 
L 405.938452 513.058612 
L 401.517855 513.2088 
L 396.972146 513.509175 
L 392.593252 513.749475 
L 388.172655 513.839587 
L 383.752057 514.04985 
L 379.164645 514.079887 
L 374.785751 514.260112 
L 370.406857 514.380262 
L 365.819445 514.500412 
" style="fill:none;stroke:#0000ff;stroke-linecap:square;"/>
   </g>
   <g id="line2d_83">
    <path clip-path="url(#p6dc84d1585)" d="M 348.6375 418.05 
L 557.15625 418.05 
" style="fill:none;stroke:#000000;stroke-linecap:square;"/>
   </g>
   <g id="line2d_84">
    <path clip-path="url(#p6dc84d1585)" d="M 557.15625 538.2 
L 557.15625 297.9 
" style="fill:none;stroke:#000000;stroke-linecap:square;"/>
   </g>
   <g id="patch_18">
    <path d="M 348.6375 297.9 
L 557.15625 297.9 
" style="fill:none;stroke:#000000;stroke-linecap:square;stroke-linejoin:miter;"/>
   </g>
   <g id="patch_19">
    <path d="M 557.15625 538.2 
L 557.15625 297.9 
" style="fill:none;stroke:#000000;stroke-linecap:square;stroke-linejoin:miter;"/>
   </g>
   <g id="patch_20">
    <path d="M 348.6375 538.2 
L 557.15625 538.2 
" style="fill:none;stroke:#000000;stroke-linecap:square;stroke-linejoin:miter;"/>
   </g>
   <g id="patch_21">
    <path d="M 348.6375 538.2 
L 348.6375 297.9 
" style="fill:none;stroke:#000000;stroke-linecap:square;stroke-linejoin:miter;"/>
   </g>
   <g id="matplotlib.axis_7">
    <g id="xtick_18">
     <g id="line2d_85">
      <g>
       <use style="stroke:#000000;stroke-width:0.5;" x="348.6375" xlink:href="#m5581be396f" y="538.2"/>
      </g>
     </g>
     <g id="line2d_86">
      <g>
       <use style="stroke:#000000;stroke-width:0.5;" x="348.6375" xlink:href="#m8b6cea014c" y="297.9"/>
      </g>
     </g>
     <g id="text_48">
      <!-- −0.5 -->
      <g transform="translate(336.49609375 549.7984375)scale(0.1 -0.1)">
       <use xlink:href="#BitstreamVeraSans-Roman-2212"/>
       <use x="83.7890625" xlink:href="#BitstreamVeraSans-Roman-30"/>
       <use x="147.412109375" xlink:href="#BitstreamVeraSans-Roman-2e"/>
       <use x="179.19921875" xlink:href="#BitstreamVeraSans-Roman-35"/>
      </g>
     </g>
    </g>
    <g id="xtick_19">
     <g id="line2d_87">
      <g>
       <use style="stroke:#000000;stroke-width:0.5;" x="390.34125" xlink:href="#m5581be396f" y="538.2"/>
      </g>
     </g>
     <g id="line2d_88">
      <g>
       <use style="stroke:#000000;stroke-width:0.5;" x="390.34125" xlink:href="#m8b6cea014c" y="297.9"/>
      </g>
     </g>
     <g id="text_49">
      <!-- −0.4 -->
      <g transform="translate(378.19984375 549.7984375)scale(0.1 -0.1)">
       <use xlink:href="#BitstreamVeraSans-Roman-2212"/>
       <use x="83.7890625" xlink:href="#BitstreamVeraSans-Roman-30"/>
       <use x="147.412109375" xlink:href="#BitstreamVeraSans-Roman-2e"/>
       <use x="179.19921875" xlink:href="#BitstreamVeraSans-Roman-34"/>
      </g>
     </g>
    </g>
    <g id="xtick_20">
     <g id="line2d_89">
      <g>
       <use style="stroke:#000000;stroke-width:0.5;" x="432.045" xlink:href="#m5581be396f" y="538.2"/>
      </g>
     </g>
     <g id="line2d_90">
      <g>
       <use style="stroke:#000000;stroke-width:0.5;" x="432.045" xlink:href="#m8b6cea014c" y="297.9"/>
      </g>
     </g>
     <g id="text_50">
      <!-- −0.3 -->
      <g transform="translate(419.90359375 549.7984375)scale(0.1 -0.1)">
       <use xlink:href="#BitstreamVeraSans-Roman-2212"/>
       <use x="83.7890625" xlink:href="#BitstreamVeraSans-Roman-30"/>
       <use x="147.412109375" xlink:href="#BitstreamVeraSans-Roman-2e"/>
       <use x="179.19921875" xlink:href="#BitstreamVeraSans-Roman-33"/>
      </g>
     </g>
    </g>
    <g id="xtick_21">
     <g id="line2d_91">
      <g>
       <use style="stroke:#000000;stroke-width:0.5;" x="473.74875" xlink:href="#m5581be396f" y="538.2"/>
      </g>
     </g>
     <g id="line2d_92">
      <g>
       <use style="stroke:#000000;stroke-width:0.5;" x="473.74875" xlink:href="#m8b6cea014c" y="297.9"/>
      </g>
     </g>
     <g id="text_51">
      <!-- −0.2 -->
      <g transform="translate(461.60734375 549.7984375)scale(0.1 -0.1)">
       <use xlink:href="#BitstreamVeraSans-Roman-2212"/>
       <use x="83.7890625" xlink:href="#BitstreamVeraSans-Roman-30"/>
       <use x="147.412109375" xlink:href="#BitstreamVeraSans-Roman-2e"/>
       <use x="179.19921875" xlink:href="#BitstreamVeraSans-Roman-32"/>
      </g>
     </g>
    </g>
    <g id="xtick_22">
     <g id="line2d_93">
      <g>
       <use style="stroke:#000000;stroke-width:0.5;" x="515.4525" xlink:href="#m5581be396f" y="538.2"/>
      </g>
     </g>
     <g id="line2d_94">
      <g>
       <use style="stroke:#000000;stroke-width:0.5;" x="515.4525" xlink:href="#m8b6cea014c" y="297.9"/>
      </g>
     </g>
     <g id="text_52">
      <!-- −0.1 -->
      <g transform="translate(503.31109375 549.7984375)scale(0.1 -0.1)">
       <use xlink:href="#BitstreamVeraSans-Roman-2212"/>
       <use x="83.7890625" xlink:href="#BitstreamVeraSans-Roman-30"/>
       <use x="147.412109375" xlink:href="#BitstreamVeraSans-Roman-2e"/>
       <use x="179.19921875" xlink:href="#BitstreamVeraSans-Roman-31"/>
      </g>
     </g>
    </g>
    <g id="xtick_23">
     <g id="line2d_95">
      <g>
       <use style="stroke:#000000;stroke-width:0.5;" x="557.15625" xlink:href="#m5581be396f" y="538.2"/>
      </g>
     </g>
     <g id="line2d_96">
      <g>
       <use style="stroke:#000000;stroke-width:0.5;" x="557.15625" xlink:href="#m8b6cea014c" y="297.9"/>
      </g>
     </g>
     <g id="text_53">
      <!-- 0.0 -->
      <g transform="translate(549.2046875 549.7984375)scale(0.1 -0.1)">
       <use xlink:href="#BitstreamVeraSans-Roman-30"/>
       <use x="63.623046875" xlink:href="#BitstreamVeraSans-Roman-2e"/>
       <use x="95.41015625" xlink:href="#BitstreamVeraSans-Roman-30"/>
      </g>
     </g>
    </g>
    <g id="text_54">
     <!-- B (T) -->
     <g transform="translate(440.921875 564.4765625)scale(0.1 -0.1)">
      <use xlink:href="#BitstreamVeraSans-Roman-42"/>
      <use x="68.603515625" xlink:href="#BitstreamVeraSans-Roman-20"/>
      <use x="100.390625" xlink:href="#BitstreamVeraSans-Roman-28"/>
      <use x="139.404296875" xlink:href="#BitstreamVeraSans-Roman-54"/>
      <use x="200.48828125" xlink:href="#BitstreamVeraSans-Roman-29"/>
     </g>
    </g>
   </g>
   <g id="matplotlib.axis_8">
    <g id="ytick_21">
     <g id="line2d_97">
      <g>
       <use style="stroke:#000000;stroke-width:0.5;" x="348.6375" xlink:href="#m5dff661a74" y="538.2"/>
      </g>
     </g>
     <g id="line2d_98">
      <g>
       <use style="stroke:#000000;stroke-width:0.5;" x="557.15625" xlink:href="#m3056ad6247" y="538.2"/>
      </g>
     </g>
     <g id="text_55">
      <!-- -4.00e-06 -->
      <g transform="translate(296.278125 540.959375)scale(0.1 -0.1)">
       <use xlink:href="#BitstreamVeraSans-Roman-2d"/>
       <use x="36.083984375" xlink:href="#BitstreamVeraSans-Roman-34"/>
       <use x="99.70703125" xlink:href="#BitstreamVeraSans-Roman-2e"/>
       <use x="131.494140625" xlink:href="#BitstreamVeraSans-Roman-30"/>
       <use x="195.1171875" xlink:href="#BitstreamVeraSans-Roman-30"/>
       <use x="258.740234375" xlink:href="#BitstreamVeraSans-Roman-65"/>
       <use x="320.263671875" xlink:href="#BitstreamVeraSans-Roman-2d"/>
       <use x="356.34765625" xlink:href="#BitstreamVeraSans-Roman-30"/>
       <use x="419.970703125" xlink:href="#BitstreamVeraSans-Roman-36"/>
      </g>
     </g>
    </g>
    <g id="ytick_22">
     <g id="line2d_99">
      <g>
       <use style="stroke:#000000;stroke-width:0.5;" x="348.6375" xlink:href="#m5dff661a74" y="508.1625"/>
      </g>
     </g>
     <g id="line2d_100">
      <g>
       <use style="stroke:#000000;stroke-width:0.5;" x="557.15625" xlink:href="#m3056ad6247" y="508.1625"/>
      </g>
     </g>
     <g id="text_56">
      <!-- -3.00e-06 -->
      <g transform="translate(296.278125 510.921875)scale(0.1 -0.1)">
       <use xlink:href="#BitstreamVeraSans-Roman-2d"/>
       <use x="36.083984375" xlink:href="#BitstreamVeraSans-Roman-33"/>
       <use x="99.70703125" xlink:href="#BitstreamVeraSans-Roman-2e"/>
       <use x="131.494140625" xlink:href="#BitstreamVeraSans-Roman-30"/>
       <use x="195.1171875" xlink:href="#BitstreamVeraSans-Roman-30"/>
       <use x="258.740234375" xlink:href="#BitstreamVeraSans-Roman-65"/>
       <use x="320.263671875" xlink:href="#BitstreamVeraSans-Roman-2d"/>
       <use x="356.34765625" xlink:href="#BitstreamVeraSans-Roman-30"/>
       <use x="419.970703125" xlink:href="#BitstreamVeraSans-Roman-36"/>
      </g>
     </g>
    </g>
    <g id="ytick_23">
     <g id="line2d_101">
      <g>
       <use style="stroke:#000000;stroke-width:0.5;" x="348.6375" xlink:href="#m5dff661a74" y="478.125"/>
      </g>
     </g>
     <g id="line2d_102">
      <g>
       <use style="stroke:#000000;stroke-width:0.5;" x="557.15625" xlink:href="#m3056ad6247" y="478.125"/>
      </g>
     </g>
     <g id="text_57">
      <!-- -2.00e-06 -->
      <g transform="translate(296.278125 480.884375)scale(0.1 -0.1)">
       <use xlink:href="#BitstreamVeraSans-Roman-2d"/>
       <use x="36.083984375" xlink:href="#BitstreamVeraSans-Roman-32"/>
       <use x="99.70703125" xlink:href="#BitstreamVeraSans-Roman-2e"/>
       <use x="131.494140625" xlink:href="#BitstreamVeraSans-Roman-30"/>
       <use x="195.1171875" xlink:href="#BitstreamVeraSans-Roman-30"/>
       <use x="258.740234375" xlink:href="#BitstreamVeraSans-Roman-65"/>
       <use x="320.263671875" xlink:href="#BitstreamVeraSans-Roman-2d"/>
       <use x="356.34765625" xlink:href="#BitstreamVeraSans-Roman-30"/>
       <use x="419.970703125" xlink:href="#BitstreamVeraSans-Roman-36"/>
      </g>
     </g>
    </g>
    <g id="ytick_24">
     <g id="line2d_103">
      <g>
       <use style="stroke:#000000;stroke-width:0.5;" x="348.6375" xlink:href="#m5dff661a74" y="448.0875"/>
      </g>
     </g>
     <g id="line2d_104">
      <g>
       <use style="stroke:#000000;stroke-width:0.5;" x="557.15625" xlink:href="#m3056ad6247" y="448.0875"/>
      </g>
     </g>
     <g id="text_58">
      <!-- -1.00e-06 -->
      <g transform="translate(296.278125 450.846875)scale(0.1 -0.1)">
       <use xlink:href="#BitstreamVeraSans-Roman-2d"/>
       <use x="36.083984375" xlink:href="#BitstreamVeraSans-Roman-31"/>
       <use x="99.70703125" xlink:href="#BitstreamVeraSans-Roman-2e"/>
       <use x="131.494140625" xlink:href="#BitstreamVeraSans-Roman-30"/>
       <use x="195.1171875" xlink:href="#BitstreamVeraSans-Roman-30"/>
       <use x="258.740234375" xlink:href="#BitstreamVeraSans-Roman-65"/>
       <use x="320.263671875" xlink:href="#BitstreamVeraSans-Roman-2d"/>
       <use x="356.34765625" xlink:href="#BitstreamVeraSans-Roman-30"/>
       <use x="419.970703125" xlink:href="#BitstreamVeraSans-Roman-36"/>
      </g>
     </g>
    </g>
    <g id="ytick_25">
     <g id="line2d_105">
      <g>
       <use style="stroke:#000000;stroke-width:0.5;" x="348.6375" xlink:href="#m5dff661a74" y="418.05"/>
      </g>
     </g>
     <g id="line2d_106">
      <g>
       <use style="stroke:#000000;stroke-width:0.5;" x="557.15625" xlink:href="#m3056ad6247" y="418.05"/>
      </g>
     </g>
     <g id="text_59">
      <!-- 0.00e+00 -->
      <defs>
       <path d="M 46 62.703125 
L 46 35.5 
L 73.1875 35.5 
L 73.1875 27.203125 
L 46 27.203125 
L 46 0 
L 37.796875 0 
L 37.796875 27.203125 
L 10.59375 27.203125 
L 10.59375 35.5 
L 37.796875 35.5 
L 37.796875 62.703125 
z
" id="BitstreamVeraSans-Roman-2b"/>
      </defs>
      <g transform="translate(295.1140625 420.809375)scale(0.1 -0.1)">
       <use xlink:href="#BitstreamVeraSans-Roman-30"/>
       <use x="63.623046875" xlink:href="#BitstreamVeraSans-Roman-2e"/>
       <use x="95.41015625" xlink:href="#BitstreamVeraSans-Roman-30"/>
       <use x="159.033203125" xlink:href="#BitstreamVeraSans-Roman-30"/>
       <use x="222.65625" xlink:href="#BitstreamVeraSans-Roman-65"/>
       <use x="284.1796875" xlink:href="#BitstreamVeraSans-Roman-2b"/>
       <use x="367.96875" xlink:href="#BitstreamVeraSans-Roman-30"/>
       <use x="431.591796875" xlink:href="#BitstreamVeraSans-Roman-30"/>
      </g>
     </g>
    </g>
    <g id="ytick_26">
     <g id="line2d_107">
      <g>
       <use style="stroke:#000000;stroke-width:0.5;" x="348.6375" xlink:href="#m5dff661a74" y="388.0125"/>
      </g>
     </g>
     <g id="line2d_108">
      <g>
       <use style="stroke:#000000;stroke-width:0.5;" x="557.15625" xlink:href="#m3056ad6247" y="388.0125"/>
      </g>
     </g>
     <g id="text_60">
      <!-- 1.00e-06 -->
      <g transform="translate(299.8859375 390.771875)scale(0.1 -0.1)">
       <use xlink:href="#BitstreamVeraSans-Roman-31"/>
       <use x="63.623046875" xlink:href="#BitstreamVeraSans-Roman-2e"/>
       <use x="95.41015625" xlink:href="#BitstreamVeraSans-Roman-30"/>
       <use x="159.033203125" xlink:href="#BitstreamVeraSans-Roman-30"/>
       <use x="222.65625" xlink:href="#BitstreamVeraSans-Roman-65"/>
       <use x="284.1796875" xlink:href="#BitstreamVeraSans-Roman-2d"/>
       <use x="320.263671875" xlink:href="#BitstreamVeraSans-Roman-30"/>
       <use x="383.88671875" xlink:href="#BitstreamVeraSans-Roman-36"/>
      </g>
     </g>
    </g>
    <g id="ytick_27">
     <g id="line2d_109">
      <g>
       <use style="stroke:#000000;stroke-width:0.5;" x="348.6375" xlink:href="#m5dff661a74" y="357.975"/>
      </g>
     </g>
     <g id="line2d_110">
      <g>
       <use style="stroke:#000000;stroke-width:0.5;" x="557.15625" xlink:href="#m3056ad6247" y="357.975"/>
      </g>
     </g>
     <g id="text_61">
      <!-- 2.00e-06 -->
      <g transform="translate(299.8859375 360.734375)scale(0.1 -0.1)">
       <use xlink:href="#BitstreamVeraSans-Roman-32"/>
       <use x="63.623046875" xlink:href="#BitstreamVeraSans-Roman-2e"/>
       <use x="95.41015625" xlink:href="#BitstreamVeraSans-Roman-30"/>
       <use x="159.033203125" xlink:href="#BitstreamVeraSans-Roman-30"/>
       <use x="222.65625" xlink:href="#BitstreamVeraSans-Roman-65"/>
       <use x="284.1796875" xlink:href="#BitstreamVeraSans-Roman-2d"/>
       <use x="320.263671875" xlink:href="#BitstreamVeraSans-Roman-30"/>
       <use x="383.88671875" xlink:href="#BitstreamVeraSans-Roman-36"/>
      </g>
     </g>
    </g>
    <g id="ytick_28">
     <g id="line2d_111">
      <g>
       <use style="stroke:#000000;stroke-width:0.5;" x="348.6375" xlink:href="#m5dff661a74" y="327.9375"/>
      </g>
     </g>
     <g id="line2d_112">
      <g>
       <use style="stroke:#000000;stroke-width:0.5;" x="557.15625" xlink:href="#m3056ad6247" y="327.9375"/>
      </g>
     </g>
     <g id="text_62">
      <!-- 3.00e-06 -->
      <g transform="translate(299.8859375 330.696875)scale(0.1 -0.1)">
       <use xlink:href="#BitstreamVeraSans-Roman-33"/>
       <use x="63.623046875" xlink:href="#BitstreamVeraSans-Roman-2e"/>
       <use x="95.41015625" xlink:href="#BitstreamVeraSans-Roman-30"/>
       <use x="159.033203125" xlink:href="#BitstreamVeraSans-Roman-30"/>
       <use x="222.65625" xlink:href="#BitstreamVeraSans-Roman-65"/>
       <use x="284.1796875" xlink:href="#BitstreamVeraSans-Roman-2d"/>
       <use x="320.263671875" xlink:href="#BitstreamVeraSans-Roman-30"/>
       <use x="383.88671875" xlink:href="#BitstreamVeraSans-Roman-36"/>
      </g>
     </g>
    </g>
    <g id="ytick_29">
     <g id="line2d_113">
      <g>
       <use style="stroke:#000000;stroke-width:0.5;" x="348.6375" xlink:href="#m5dff661a74" y="297.9"/>
      </g>
     </g>
     <g id="line2d_114">
      <g>
       <use style="stroke:#000000;stroke-width:0.5;" x="557.15625" xlink:href="#m3056ad6247" y="297.9"/>
      </g>
     </g>
     <g id="text_63">
      <!-- 4.00e-06 -->
      <g transform="translate(299.8859375 300.659375)scale(0.1 -0.1)">
       <use xlink:href="#BitstreamVeraSans-Roman-34"/>
       <use x="63.623046875" xlink:href="#BitstreamVeraSans-Roman-2e"/>
       <use x="95.41015625" xlink:href="#BitstreamVeraSans-Roman-30"/>
       <use x="159.033203125" xlink:href="#BitstreamVeraSans-Roman-30"/>
       <use x="222.65625" xlink:href="#BitstreamVeraSans-Roman-65"/>
       <use x="284.1796875" xlink:href="#BitstreamVeraSans-Roman-2d"/>
       <use x="320.263671875" xlink:href="#BitstreamVeraSans-Roman-30"/>
       <use x="383.88671875" xlink:href="#BitstreamVeraSans-Roman-36"/>
      </g>
     </g>
    </g>
    <g id="text_64">
     <!-- M/Mr -->
     <g transform="translate(288.034375 430.41796875)rotate(-90.0)scale(0.1 -0.1)">
      <use xlink:href="#BitstreamVeraSans-Roman-4d"/>
      <use x="86.279296875" xlink:href="#BitstreamVeraSans-Roman-2f"/>
      <use x="119.970703125" xlink:href="#BitstreamVeraSans-Roman-4d"/>
      <use x="206.25" xlink:href="#BitstreamVeraSans-Roman-72"/>
     </g>
    </g>
   </g>
  </g>
 </g>
 <defs>
  <clipPath id="pd7fca89bdc">
   <rect height="240.3" width="208.51875" x="348.6375" y="15.3"/>
  </clipPath>
  <clipPath id="p6dc84d1585">
   <rect height="240.3" width="208.51875" x="348.6375" y="297.9"/>
  </clipPath>
  <clipPath id="pe8f5ccd377">
   <rect height="240.3" width="208.51875" x="53.325" y="297.9"/>
  </clipPath>
  <clipPath id="p22e47bb6e0">
   <rect height="240.3" width="208.51875" x="53.325" y="15.3"/>
  </clipPath>
 </defs>
</svg>
