<?xml version="1.0" encoding="utf-8" standalone="no"?>
<!DOCTYPE svg PUBLIC "-//W3C//DTD SVG 1.1//EN"
  "http://www.w3.org/Graphics/SVG/1.1/DTD/svg11.dtd">
<!-- Created with matplotlib (http://matplotlib.org/) -->
<svg height="576pt" version="1.1" viewBox="0 0 576 576" width="576pt" xmlns="http://www.w3.org/2000/svg" xmlns:xlink="http://www.w3.org/1999/xlink">
 <defs>
  <style type="text/css">
*{stroke-linecap:butt;stroke-linejoin:round;}
  </style>
 </defs>
 <g id="figure_1">
  <g id="patch_1">
   <path d="
M0 576
L576 576
L576 0
L0 0
z
" style="fill:#ffffff;"/>
  </g>
  <g id="axes_1">
   <g id="patch_2">
    <path d="
M51.5531 255.6
L260.722 255.6
L260.722 15.3
L51.5531 15.3
z
" style="fill:#ffffff;"/>
   </g>
   <g id="line2d_1">
    <path clip-path="url(#p575eafbdb7)" d="
M51.5531 135.45
L260.722 135.45" style="fill:none;stroke:#000000;stroke-linecap:square;"/>
   </g>
   <g id="line2d_2">
    <path clip-path="url(#p575eafbdb7)" d="
M156.138 255.6
L156.138 15.3" style="fill:none;stroke:#000000;stroke-linecap:square;"/>
   </g>
   <g id="line2d_3">
    <path clip-path="url(#p575eafbdb7)" d="
M200.718 -1
L198.714 1.04782
L195.127 4.84909
L191.529 9.04256
L187.952 13.5981
L184.365 18.6363
L182.556 21.3514
L178.958 27.2947
L175.371 34.0224
L173.582 37.7633
L171.784 41.8059
L169.995 46.1201
L168.207 50.8566
L166.397 56.0456
L164.609 61.8079
L162.805 68.2942
L161.017 75.7459
L159.212 84.6457
L157.424 95.5065
L155.636 109.46
L153.832 127.841
L152.043 148.353
L150.239 166.705
L148.451 181.85
L146.647 194.159
L144.853 204.205
L143.054 212.531
L141.266 219.531
L139.477 225.474
L137.668 230.633
L135.88 235.188
L134.091 239.261
L130.504 246.381
L126.906 252.384
L123.319 257.634
L119.721 262.31
L116.145 266.534
L112.557 270.425
L108.96 274.046
L103.584 278.993
L96.399 284.967
L89.214 290.427
L85.6163 293.022
L74.8546 300.353
L69.4789 303.792
L46.2193 317.79
L37.225 322.919
L33.6692 324.91
L30.427 326.69
L30.95 326.449
L34.5058 324.578
L43.5001 319.57
L54.2723 313.416
L63.2561 308.076
L68.6422 304.788
L72.219 302.525
L79.404 297.849
L90.1867 290.307
L99.1705 283.398
L104.557 278.873
L109.932 273.955
L113.53 270.365
L117.128 266.534
L120.715 262.34
L124.302 257.785
L127.879 252.716
L131.477 247.075
L135.064 240.739
L138.662 233.438
L140.46 229.396
L142.249 224.961
L144.037 220.194
L145.831 214.885
L147.635 209.002
L149.439 202.304
L151.227 194.611
L153.032 185.319
L154.82 173.764
L156.608 158.801
L158.412 139.532
L160.201 118.924
L161.989 100.967
L163.793 86.3351
L165.582 74.4184
L167.391 64.7041
L169.179 56.649
L170.978 49.861
L172.767 44.0988
L174.555 39.0606
L176.364 34.5654
L178.142 30.5529
L179.952 26.9025
L181.74 23.5538
L185.338 17.5803
L188.925 12.3611
L190.713 9.91746
L194.301 5.48264
L197.898 1.47018
L200.19 -1
L200.19 -1" style="fill:none;stroke:#ff0000;stroke-linecap:square;"/>
   </g>
   <g id="line2d_4">
    <path clip-path="url(#p575eafbdb7)" d="
M281.221 14.6763
L279.443 14.5783
L277.665 14.5406
L275.887 14.5633
L274.005 14.4359
L254.28 14.4392
L243.518 14.8233
L234.545 15.4622
L230.968 15.8275
L225.592 16.5053
L220.227 17.3398
L213.053 18.8127
L207.677 20.3352
L204.1 21.4848
L200.502 22.8941
L195.127 25.5027
L191.529 27.6662
L187.952 30.2036
L184.365 33.2178
L182.556 34.9121
L178.958 38.8254
L175.371 43.5291
L173.582 46.261
L171.784 49.2886
L169.995 52.5937
L168.207 56.3212
L166.397 60.4893
L164.609 65.2426
L162.805 70.7109
L161.017 77.1536
L159.212 85.0355
L157.424 94.8872
L155.636 107.831
L153.832 125.195
L152.043 144.698
L150.239 162.032
L148.451 176.167
L146.647 187.458
L144.853 196.493
L143.054 203.804
L141.266 209.794
L139.477 214.729
L137.668 218.867
L135.88 222.413
L134.091 225.477
L132.292 228.142
L130.504 230.573
L128.695 232.659
L126.906 234.546
L125.118 236.252
L121.531 239.146
L117.933 241.581
L114.346 243.63
L110.748 245.341
L107.171 246.762
L101.775 248.514
L96.399 249.916
L91.0024 251.004
L85.6163 251.887
L76.643 252.948
L73.0557 253.308
L67.6905 253.629
L62.3044 253.939
L49.7752 254.412
L46.2193 254.427
L40.7809 254.436
L39.003 254.398
L37.225 254.481
L35.4471 254.413
L31.8912 254.428
L30.427 254.388
L30.95 254.491
L32.7279 254.636
L54.2723 254.836
L63.2561 254.649
L68.6422 254.45
L72.219 254.239
L77.6156 253.804
L81.1924 253.472
L88.3774 252.616
L93.7739 251.699
L99.1705 250.57
L104.557 249.134
L109.932 247.3
L113.53 245.774
L117.128 244.006
L118.927 243.016
L122.503 240.633
L124.302 239.372
L127.879 236.355
L129.688 234.648
L131.477 232.777
L135.064 228.499
L136.873 225.977
L138.662 223.262
L140.46 220.251
L142.249 216.842
L144.037 213.101
L145.831 208.82
L147.635 203.972
L149.439 198.31
L151.227 191.642
L153.032 183.385
L154.82 172.856
L156.608 158.918
L158.412 140.684
L160.201 121.102
L161.989 104.171
L163.793 90.5739
L165.582 79.683
L167.391 71.0063
L169.179 63.9771
L170.978 58.2209
L172.767 53.4844
L174.555 49.4721
L176.364 46.0146
L178.142 43.022
L179.952 40.4093
L181.74 38.0864
L183.549 36.0167
L185.338 34.1765
L187.137 32.4931
L190.713 29.5971
L194.301 27.2198
L197.898 25.2709
L199.687 24.3358
L203.284 22.8394
L206.861 21.5423
L212.237 19.9194
L219.401 18.3267
L222.978 17.6933
L226.565 17.1564
L237.306 15.9862
L244.48 15.5158
L249.845 15.2143
L262.396 14.931
L269.507 14.8472
L281.744 14.9888
L281.744 14.9888" style="fill:none;stroke:#0000ff;stroke-linecap:square;"/>
   </g>
   <g id="patch_3">
    <path d="
M51.5531 15.3
L260.722 15.3" style="fill:none;stroke:#000000;stroke-linecap:square;stroke-linejoin:miter;"/>
   </g>
   <g id="patch_4">
    <path d="
M260.722 255.6
L260.722 15.3" style="fill:none;stroke:#000000;stroke-linecap:square;stroke-linejoin:miter;"/>
   </g>
   <g id="patch_5">
    <path d="
M51.5531 255.6
L260.722 255.6" style="fill:none;stroke:#000000;stroke-linecap:square;stroke-linejoin:miter;"/>
   </g>
   <g id="patch_6">
    <path d="
M51.5531 255.6
L51.5531 15.3" style="fill:none;stroke:#000000;stroke-linecap:square;stroke-linejoin:miter;"/>
   </g>
   <g id="matplotlib.axis_1">
    <g id="xtick_1">
     <g id="line2d_5">
      <defs>
       <path d="
M0 0
L0 -4" id="m93b0483c22" style="stroke:#000000;stroke-width:0.5;"/>
      </defs>
      <g>
       <use style="stroke:#000000;stroke-width:0.5;" x="51.553125" xlink:href="#m93b0483c22" y="255.6"/>
      </g>
     </g>
     <g id="line2d_6">
      <defs>
       <path d="
M0 0
L0 4" id="m741efc42ff" style="stroke:#000000;stroke-width:0.5;"/>
      </defs>
      <g>
       <use style="stroke:#000000;stroke-width:0.5;" x="51.553125" xlink:href="#m741efc42ff" y="15.3"/>
      </g>
     </g>
     <g id="text_1">
      <!-- −1.0 -->
      <defs>
       <path d="
M10.5938 35.5
L73.1875 35.5
L73.1875 27.2031
L10.5938 27.2031
z
" id="BitstreamVeraSans-Roman-2212"/>
       <path d="
M31.7812 66.4062
Q24.1719 66.4062 20.3281 58.9062
Q16.5 51.4219 16.5 36.375
Q16.5 21.3906 20.3281 13.8906
Q24.1719 6.39062 31.7812 6.39062
Q39.4531 6.39062 43.2812 13.8906
Q47.125 21.3906 47.125 36.375
Q47.125 51.4219 43.2812 58.9062
Q39.4531 66.4062 31.7812 66.4062
M31.7812 74.2188
Q44.0469 74.2188 50.5156 64.5156
Q56.9844 54.8281 56.9844 36.375
Q56.9844 17.9688 50.5156 8.26562
Q44.0469 -1.42188 31.7812 -1.42188
Q19.5312 -1.42188 13.0625 8.26562
Q6.59375 17.9688 6.59375 36.375
Q6.59375 54.8281 13.0625 64.5156
Q19.5312 74.2188 31.7812 74.2188" id="BitstreamVeraSans-Roman-30"/>
       <path d="
M12.4062 8.29688
L28.5156 8.29688
L28.5156 63.9219
L10.9844 60.4062
L10.9844 69.3906
L28.4219 72.9062
L38.2812 72.9062
L38.2812 8.29688
L54.3906 8.29688
L54.3906 0
L12.4062 0
z
" id="BitstreamVeraSans-Roman-31"/>
       <path d="
M10.6875 12.4062
L21 12.4062
L21 0
L10.6875 0
z
" id="BitstreamVeraSans-Roman-2e"/>
      </defs>
      <g transform="translate(40.2734375 267.1984375)scale(0.1 -0.1)">
       <use xlink:href="#BitstreamVeraSans-Roman-2212"/>
       <use x="83.7890625" xlink:href="#BitstreamVeraSans-Roman-31"/>
       <use x="147.412109375" xlink:href="#BitstreamVeraSans-Roman-2e"/>
       <use x="179.19921875" xlink:href="#BitstreamVeraSans-Roman-30"/>
      </g>
     </g>
    </g>
    <g id="xtick_2">
     <g id="line2d_7">
      <g>
       <use style="stroke:#000000;stroke-width:0.5;" x="103.845410156" xlink:href="#m93b0483c22" y="255.6"/>
      </g>
     </g>
     <g id="line2d_8">
      <g>
       <use style="stroke:#000000;stroke-width:0.5;" x="103.845410156" xlink:href="#m741efc42ff" y="15.3"/>
      </g>
     </g>
     <g id="text_2">
      <!-- −0.5 -->
      <defs>
       <path d="
M10.7969 72.9062
L49.5156 72.9062
L49.5156 64.5938
L19.8281 64.5938
L19.8281 46.7344
Q21.9688 47.4688 24.1094 47.8281
Q26.2656 48.1875 28.4219 48.1875
Q40.625 48.1875 47.75 41.5
Q54.8906 34.8125 54.8906 23.3906
Q54.8906 11.625 47.5625 5.09375
Q40.2344 -1.42188 26.9062 -1.42188
Q22.3125 -1.42188 17.5469 -0.640625
Q12.7969 0.140625 7.71875 1.70312
L7.71875 11.625
Q12.1094 9.23438 16.7969 8.0625
Q21.4844 6.89062 26.7031 6.89062
Q35.1562 6.89062 40.0781 11.3281
Q45.0156 15.7656 45.0156 23.3906
Q45.0156 31 40.0781 35.4375
Q35.1562 39.8906 26.7031 39.8906
Q22.75 39.8906 18.8125 39.0156
Q14.8906 38.1406 10.7969 36.2812
z
" id="BitstreamVeraSans-Roman-35"/>
      </defs>
      <g transform="translate(92.6704101563 267.1984375)scale(0.1 -0.1)">
       <use xlink:href="#BitstreamVeraSans-Roman-2212"/>
       <use x="83.7890625" xlink:href="#BitstreamVeraSans-Roman-30"/>
       <use x="147.412109375" xlink:href="#BitstreamVeraSans-Roman-2e"/>
       <use x="179.19921875" xlink:href="#BitstreamVeraSans-Roman-35"/>
      </g>
     </g>
    </g>
    <g id="xtick_3">
     <g id="line2d_9">
      <g>
       <use style="stroke:#000000;stroke-width:0.5;" x="156.137695312" xlink:href="#m93b0483c22" y="255.6"/>
      </g>
     </g>
     <g id="line2d_10">
      <g>
       <use style="stroke:#000000;stroke-width:0.5;" x="156.137695312" xlink:href="#m741efc42ff" y="15.3"/>
      </g>
     </g>
     <g id="text_3">
      <!-- 0.0 -->
      <g transform="translate(148.847851563 267.1984375)scale(0.1 -0.1)">
       <use xlink:href="#BitstreamVeraSans-Roman-30"/>
       <use x="63.623046875" xlink:href="#BitstreamVeraSans-Roman-2e"/>
       <use x="95.41015625" xlink:href="#BitstreamVeraSans-Roman-30"/>
      </g>
     </g>
    </g>
    <g id="xtick_4">
     <g id="line2d_11">
      <g>
       <use style="stroke:#000000;stroke-width:0.5;" x="208.429980469" xlink:href="#m93b0483c22" y="255.6"/>
      </g>
     </g>
     <g id="line2d_12">
      <g>
       <use style="stroke:#000000;stroke-width:0.5;" x="208.429980469" xlink:href="#m741efc42ff" y="15.3"/>
      </g>
     </g>
     <g id="text_4">
      <!-- 0.5 -->
      <g transform="translate(201.244824219 267.1984375)scale(0.1 -0.1)">
       <use xlink:href="#BitstreamVeraSans-Roman-30"/>
       <use x="63.623046875" xlink:href="#BitstreamVeraSans-Roman-2e"/>
       <use x="95.41015625" xlink:href="#BitstreamVeraSans-Roman-35"/>
      </g>
     </g>
    </g>
    <g id="xtick_5">
     <g id="line2d_13">
      <g>
       <use style="stroke:#000000;stroke-width:0.5;" x="260.722265625" xlink:href="#m93b0483c22" y="255.6"/>
      </g>
     </g>
     <g id="line2d_14">
      <g>
       <use style="stroke:#000000;stroke-width:0.5;" x="260.722265625" xlink:href="#m741efc42ff" y="15.3"/>
      </g>
     </g>
     <g id="text_5">
      <!-- 1.0 -->
      <g transform="translate(253.651953125 267.1984375)scale(0.1 -0.1)">
       <use xlink:href="#BitstreamVeraSans-Roman-31"/>
       <use x="63.623046875" xlink:href="#BitstreamVeraSans-Roman-2e"/>
       <use x="95.41015625" xlink:href="#BitstreamVeraSans-Roman-30"/>
      </g>
     </g>
    </g>
    <g id="text_6">
     <!-- B (T) -->
     <defs>
      <path d="
M8.01562 75.875
L15.8281 75.875
Q23.1406 64.3594 26.7812 53.3125
Q30.4219 42.2812 30.4219 31.3906
Q30.4219 20.4531 26.7812 9.375
Q23.1406 -1.70312 15.8281 -13.1875
L8.01562 -13.1875
Q14.5 -2 17.7031 9.0625
Q20.9062 20.125 20.9062 31.3906
Q20.9062 42.6719 17.7031 53.6562
Q14.5 64.6562 8.01562 75.875" id="BitstreamVeraSans-Roman-29"/>
      <path id="BitstreamVeraSans-Roman-20"/>
      <path d="
M-0.296875 72.9062
L61.375 72.9062
L61.375 64.5938
L35.5 64.5938
L35.5 0
L25.5938 0
L25.5938 64.5938
L-0.296875 64.5938
z
" id="BitstreamVeraSans-Roman-54"/>
      <path d="
M19.6719 34.8125
L19.6719 8.10938
L35.5 8.10938
Q43.4531 8.10938 47.2812 11.4062
Q51.125 14.7031 51.125 21.4844
Q51.125 28.3281 47.2812 31.5625
Q43.4531 34.8125 35.5 34.8125
z

M19.6719 64.7969
L19.6719 42.8281
L34.2812 42.8281
Q41.5 42.8281 45.0312 45.5312
Q48.5781 48.25 48.5781 53.8125
Q48.5781 59.3281 45.0312 62.0625
Q41.5 64.7969 34.2812 64.7969
z

M9.8125 72.9062
L35.0156 72.9062
Q46.2969 72.9062 52.3906 68.2188
Q58.5 63.5312 58.5 54.8906
Q58.5 48.1875 55.375 44.2344
Q52.25 40.2812 46.1875 39.3125
Q53.4688 37.75 57.5 32.7812
Q61.5312 27.8281 61.5312 20.4062
Q61.5312 10.6406 54.8906 5.3125
Q48.25 0 35.9844 0
L9.8125 0
z
" id="BitstreamVeraSans-Roman-42"/>
      <path d="
M31 75.875
Q24.4688 64.6562 21.2812 53.6562
Q18.1094 42.6719 18.1094 31.3906
Q18.1094 20.125 21.3125 9.0625
Q24.5156 -2 31 -13.1875
L23.1875 -13.1875
Q15.875 -1.70312 12.2344 9.375
Q8.59375 20.4531 8.59375 31.3906
Q8.59375 42.2812 12.2031 53.3125
Q15.8281 64.3594 23.1875 75.875
z
" id="BitstreamVeraSans-Roman-28"/>
     </defs>
     <g transform="translate(144.592382813 281.8765625)scale(0.1 -0.1)">
      <use xlink:href="#BitstreamVeraSans-Roman-42"/>
      <use x="68.603515625" xlink:href="#BitstreamVeraSans-Roman-20"/>
      <use x="100.390625" xlink:href="#BitstreamVeraSans-Roman-28"/>
      <use x="139.404296875" xlink:href="#BitstreamVeraSans-Roman-54"/>
      <use x="200.48828125" xlink:href="#BitstreamVeraSans-Roman-29"/>
     </g>
    </g>
   </g>
   <g id="matplotlib.axis_2">
    <g id="ytick_1">
     <g id="line2d_15">
      <defs>
       <path d="
M0 0
L4 0" id="m728421d6d4" style="stroke:#000000;stroke-width:0.5;"/>
      </defs>
      <g>
       <use style="stroke:#000000;stroke-width:0.5;" x="51.553125" xlink:href="#m728421d6d4" y="255.6"/>
      </g>
     </g>
     <g id="line2d_16">
      <defs>
       <path d="
M0 0
L-4 0" id="mcb0005524f" style="stroke:#000000;stroke-width:0.5;"/>
      </defs>
      <g>
       <use style="stroke:#000000;stroke-width:0.5;" x="260.722265625" xlink:href="#mcb0005524f" y="255.6"/>
      </g>
     </g>
     <g id="text_7">
      <!-- −1.0 -->
      <g transform="translate(24.99375 258.359375)scale(0.1 -0.1)">
       <use xlink:href="#BitstreamVeraSans-Roman-2212"/>
       <use x="83.7890625" xlink:href="#BitstreamVeraSans-Roman-31"/>
       <use x="147.412109375" xlink:href="#BitstreamVeraSans-Roman-2e"/>
       <use x="179.19921875" xlink:href="#BitstreamVeraSans-Roman-30"/>
      </g>
     </g>
    </g>
    <g id="ytick_2">
     <g id="line2d_17">
      <g>
       <use style="stroke:#000000;stroke-width:0.5;" x="51.553125" xlink:href="#m728421d6d4" y="195.525"/>
      </g>
     </g>
     <g id="line2d_18">
      <g>
       <use style="stroke:#000000;stroke-width:0.5;" x="260.722265625" xlink:href="#mcb0005524f" y="195.525"/>
      </g>
     </g>
     <g id="text_8">
      <!-- −0.5 -->
      <g transform="translate(25.203125 198.284375)scale(0.1 -0.1)">
       <use xlink:href="#BitstreamVeraSans-Roman-2212"/>
       <use x="83.7890625" xlink:href="#BitstreamVeraSans-Roman-30"/>
       <use x="147.412109375" xlink:href="#BitstreamVeraSans-Roman-2e"/>
       <use x="179.19921875" xlink:href="#BitstreamVeraSans-Roman-35"/>
      </g>
     </g>
    </g>
    <g id="ytick_3">
     <g id="line2d_19">
      <g>
       <use style="stroke:#000000;stroke-width:0.5;" x="51.553125" xlink:href="#m728421d6d4" y="135.45"/>
      </g>
     </g>
     <g id="line2d_20">
      <g>
       <use style="stroke:#000000;stroke-width:0.5;" x="260.722265625" xlink:href="#mcb0005524f" y="135.45"/>
      </g>
     </g>
     <g id="text_9">
      <!-- 0.0 -->
      <g transform="translate(32.9734375 138.209375)scale(0.1 -0.1)">
       <use xlink:href="#BitstreamVeraSans-Roman-30"/>
       <use x="63.623046875" xlink:href="#BitstreamVeraSans-Roman-2e"/>
       <use x="95.41015625" xlink:href="#BitstreamVeraSans-Roman-30"/>
      </g>
     </g>
    </g>
    <g id="ytick_4">
     <g id="line2d_21">
      <g>
       <use style="stroke:#000000;stroke-width:0.5;" x="51.553125" xlink:href="#m728421d6d4" y="75.375"/>
      </g>
     </g>
     <g id="line2d_22">
      <g>
       <use style="stroke:#000000;stroke-width:0.5;" x="260.722265625" xlink:href="#mcb0005524f" y="75.375"/>
      </g>
     </g>
     <g id="text_10">
      <!-- 0.5 -->
      <g transform="translate(33.1828125 78.134375)scale(0.1 -0.1)">
       <use xlink:href="#BitstreamVeraSans-Roman-30"/>
       <use x="63.623046875" xlink:href="#BitstreamVeraSans-Roman-2e"/>
       <use x="95.41015625" xlink:href="#BitstreamVeraSans-Roman-35"/>
      </g>
     </g>
    </g>
    <g id="ytick_5">
     <g id="line2d_23">
      <g>
       <use style="stroke:#000000;stroke-width:0.5;" x="51.553125" xlink:href="#m728421d6d4" y="15.3"/>
      </g>
     </g>
     <g id="line2d_24">
      <g>
       <use style="stroke:#000000;stroke-width:0.5;" x="260.722265625" xlink:href="#mcb0005524f" y="15.3"/>
      </g>
     </g>
     <g id="text_11">
      <!-- 1.0 -->
      <g transform="translate(33.4125 18.059375)scale(0.1 -0.1)">
       <use xlink:href="#BitstreamVeraSans-Roman-31"/>
       <use x="63.623046875" xlink:href="#BitstreamVeraSans-Roman-2e"/>
       <use x="95.41015625" xlink:href="#BitstreamVeraSans-Roman-30"/>
      </g>
     </g>
    </g>
    <g id="text_12">
     <!-- M/Msat -->
     <defs>
      <path d="
M18.3125 70.2188
L18.3125 54.6875
L36.8125 54.6875
L36.8125 47.7031
L18.3125 47.7031
L18.3125 18.0156
Q18.3125 11.3281 20.1406 9.42188
Q21.9688 7.51562 27.5938 7.51562
L36.8125 7.51562
L36.8125 0
L27.5938 0
Q17.1875 0 13.2344 3.875
Q9.28125 7.76562 9.28125 18.0156
L9.28125 47.7031
L2.6875 47.7031
L2.6875 54.6875
L9.28125 54.6875
L9.28125 70.2188
z
" id="BitstreamVeraSans-Roman-74"/>
      <path d="
M9.8125 72.9062
L24.5156 72.9062
L43.1094 23.2969
L61.8125 72.9062
L76.5156 72.9062
L76.5156 0
L66.8906 0
L66.8906 64.0156
L48.0938 14.0156
L38.1875 14.0156
L19.3906 64.0156
L19.3906 0
L9.8125 0
z
" id="BitstreamVeraSans-Roman-4d"/>
      <path d="
M34.2812 27.4844
Q23.3906 27.4844 19.1875 25
Q14.9844 22.5156 14.9844 16.5
Q14.9844 11.7188 18.1406 8.90625
Q21.2969 6.10938 26.7031 6.10938
Q34.1875 6.10938 38.7031 11.4062
Q43.2188 16.7031 43.2188 25.4844
L43.2188 27.4844
z

M52.2031 31.2031
L52.2031 0
L43.2188 0
L43.2188 8.29688
Q40.1406 3.32812 35.5469 0.953125
Q30.9531 -1.42188 24.3125 -1.42188
Q15.9219 -1.42188 10.9531 3.29688
Q6 8.01562 6 15.9219
Q6 25.1406 12.1719 29.8281
Q18.3594 34.5156 30.6094 34.5156
L43.2188 34.5156
L43.2188 35.4062
Q43.2188 41.6094 39.1406 45
Q35.0625 48.3906 27.6875 48.3906
Q23 48.3906 18.5469 47.2656
Q14.1094 46.1406 10.0156 43.8906
L10.0156 52.2031
Q14.9375 54.1094 19.5781 55.0469
Q24.2188 56 28.6094 56
Q40.4844 56 46.3438 49.8438
Q52.2031 43.7031 52.2031 31.2031" id="BitstreamVeraSans-Roman-61"/>
      <path d="
M44.2812 53.0781
L44.2812 44.5781
Q40.4844 46.5312 36.375 47.5
Q32.2812 48.4844 27.875 48.4844
Q21.1875 48.4844 17.8438 46.4375
Q14.5 44.3906 14.5 40.2812
Q14.5 37.1562 16.8906 35.375
Q19.2812 33.5938 26.5156 31.9844
L29.5938 31.2969
Q39.1562 29.25 43.1875 25.5156
Q47.2188 21.7812 47.2188 15.0938
Q47.2188 7.46875 41.1875 3.01562
Q35.1562 -1.42188 24.6094 -1.42188
Q20.2188 -1.42188 15.4531 -0.5625
Q10.6875 0.296875 5.42188 2
L5.42188 11.2812
Q10.4062 8.6875 15.2344 7.39062
Q20.0625 6.10938 24.8125 6.10938
Q31.1562 6.10938 34.5625 8.28125
Q37.9844 10.4531 37.9844 14.4062
Q37.9844 18.0625 35.5156 20.0156
Q33.0625 21.9688 24.7031 23.7812
L21.5781 24.5156
Q13.2344 26.2656 9.51562 29.9062
Q5.8125 33.5469 5.8125 39.8906
Q5.8125 47.6094 11.2812 51.7969
Q16.75 56 26.8125 56
Q31.7812 56 36.1719 55.2656
Q40.5781 54.5469 44.2812 53.0781" id="BitstreamVeraSans-Roman-73"/>
      <path d="
M25.3906 72.9062
L33.6875 72.9062
L8.29688 -9.28125
L0 -9.28125
z
" id="BitstreamVeraSans-Roman-2f"/>
     </defs>
     <g transform="translate(17.9140625 152.78125)rotate(-90.0)scale(0.1 -0.1)">
      <use xlink:href="#BitstreamVeraSans-Roman-4d"/>
      <use x="86.279296875" xlink:href="#BitstreamVeraSans-Roman-2f"/>
      <use x="119.970703125" xlink:href="#BitstreamVeraSans-Roman-4d"/>
      <use x="206.25" xlink:href="#BitstreamVeraSans-Roman-73"/>
      <use x="258.349609375" xlink:href="#BitstreamVeraSans-Roman-61"/>
      <use x="319.62890625" xlink:href="#BitstreamVeraSans-Roman-74"/>
     </g>
    </g>
   </g>
   <g id="text_13">
    <!-- Ms: 3.98e+01 Am^2 -->
    <defs>
     <path d="
M19.1875 8.29688
L53.6094 8.29688
L53.6094 0
L7.32812 0
L7.32812 8.29688
Q12.9375 14.1094 22.625 23.8906
Q32.3281 33.6875 34.8125 36.5312
Q39.5469 41.8438 41.4219 45.5312
Q43.3125 49.2188 43.3125 52.7812
Q43.3125 58.5938 39.2344 62.25
Q35.1562 65.9219 28.6094 65.9219
Q23.9688 65.9219 18.8125 64.3125
Q13.6719 62.7031 7.8125 59.4219
L7.8125 69.3906
Q13.7656 71.7812 18.9375 73
Q24.125 74.2188 28.4219 74.2188
Q39.75 74.2188 46.4844 68.5469
Q53.2188 62.8906 53.2188 53.4219
Q53.2188 48.9219 51.5312 44.8906
Q49.8594 40.875 45.4062 35.4062
Q44.1875 33.9844 37.6406 27.2188
Q31.1094 20.4531 19.1875 8.29688" id="BitstreamVeraSans-Roman-32"/>
     <path d="
M40.5781 39.3125
Q47.6562 37.7969 51.625 33
Q55.6094 28.2188 55.6094 21.1875
Q55.6094 10.4062 48.1875 4.48438
Q40.7656 -1.42188 27.0938 -1.42188
Q22.5156 -1.42188 17.6562 -0.515625
Q12.7969 0.390625 7.625 2.20312
L7.625 11.7188
Q11.7188 9.32812 16.5938 8.10938
Q21.4844 6.89062 26.8125 6.89062
Q36.0781 6.89062 40.9375 10.5469
Q45.7969 14.2031 45.7969 21.1875
Q45.7969 27.6406 41.2812 31.2656
Q36.7656 34.9062 28.7188 34.9062
L20.2188 34.9062
L20.2188 43.0156
L29.1094 43.0156
Q36.375 43.0156 40.2344 45.9219
Q44.0938 48.8281 44.0938 54.2969
Q44.0938 59.9062 40.1094 62.9062
Q36.1406 65.9219 28.7188 65.9219
Q24.6562 65.9219 20.0156 65.0312
Q15.375 64.1562 9.8125 62.3125
L9.8125 71.0938
Q15.4375 72.6562 20.3438 73.4375
Q25.25 74.2188 29.5938 74.2188
Q40.8281 74.2188 47.3594 69.1094
Q53.9062 64.0156 53.9062 55.3281
Q53.9062 49.2656 50.4375 45.0938
Q46.9688 40.9219 40.5781 39.3125" id="BitstreamVeraSans-Roman-33"/>
     <path d="
M46.6875 72.9062
L73.1875 45.7031
L63.375 45.7031
L41.8906 64.9844
L20.4062 45.7031
L10.5938 45.7031
L37.1094 72.9062
z
" id="BitstreamVeraSans-Roman-5e"/>
     <path d="
M46 62.7031
L46 35.5
L73.1875 35.5
L73.1875 27.2031
L46 27.2031
L46 0
L37.7969 0
L37.7969 27.2031
L10.5938 27.2031
L10.5938 35.5
L37.7969 35.5
L37.7969 62.7031
z
" id="BitstreamVeraSans-Roman-2b"/>
     <path d="
M52 44.1875
Q55.375 50.25 60.0625 53.125
Q64.75 56 71.0938 56
Q79.6406 56 84.2812 50.0156
Q88.9219 44.0469 88.9219 33.0156
L88.9219 0
L79.8906 0
L79.8906 32.7188
Q79.8906 40.5781 77.0938 44.375
Q74.3125 48.1875 68.6094 48.1875
Q61.625 48.1875 57.5625 43.5469
Q53.5156 38.9219 53.5156 30.9062
L53.5156 0
L44.4844 0
L44.4844 32.7188
Q44.4844 40.625 41.7031 44.4062
Q38.9219 48.1875 33.1094 48.1875
Q26.2188 48.1875 22.1562 43.5312
Q18.1094 38.875 18.1094 30.9062
L18.1094 0
L9.07812 0
L9.07812 54.6875
L18.1094 54.6875
L18.1094 46.1875
Q21.1875 51.2188 25.4844 53.6094
Q29.7812 56 35.6875 56
Q41.6562 56 45.8281 52.9688
Q50 49.9531 52 44.1875" id="BitstreamVeraSans-Roman-6d"/>
     <path d="
M31.7812 34.625
Q24.75 34.625 20.7188 30.8594
Q16.7031 27.0938 16.7031 20.5156
Q16.7031 13.9219 20.7188 10.1562
Q24.75 6.39062 31.7812 6.39062
Q38.8125 6.39062 42.8594 10.1719
Q46.9219 13.9688 46.9219 20.5156
Q46.9219 27.0938 42.8906 30.8594
Q38.875 34.625 31.7812 34.625
M21.9219 38.8125
Q15.5781 40.375 12.0312 44.7188
Q8.5 49.0781 8.5 55.3281
Q8.5 64.0625 14.7188 69.1406
Q20.9531 74.2188 31.7812 74.2188
Q42.6719 74.2188 48.875 69.1406
Q55.0781 64.0625 55.0781 55.3281
Q55.0781 49.0781 51.5312 44.7188
Q48 40.375 41.7031 38.8125
Q48.8281 37.1562 52.7969 32.3125
Q56.7812 27.4844 56.7812 20.5156
Q56.7812 9.90625 50.3125 4.23438
Q43.8438 -1.42188 31.7812 -1.42188
Q19.7344 -1.42188 13.25 4.23438
Q6.78125 9.90625 6.78125 20.5156
Q6.78125 27.4844 10.7812 32.3125
Q14.7969 37.1562 21.9219 38.8125
M18.3125 54.3906
Q18.3125 48.7344 21.8438 45.5625
Q25.3906 42.3906 31.7812 42.3906
Q38.1406 42.3906 41.7188 45.5625
Q45.3125 48.7344 45.3125 54.3906
Q45.3125 60.0625 41.7188 63.2344
Q38.1406 66.4062 31.7812 66.4062
Q25.3906 66.4062 21.8438 63.2344
Q18.3125 60.0625 18.3125 54.3906" id="BitstreamVeraSans-Roman-38"/>
     <path d="
M10.9844 1.51562
L10.9844 10.5
Q14.7031 8.73438 18.5 7.8125
Q22.3125 6.89062 25.9844 6.89062
Q35.75 6.89062 40.8906 13.4531
Q46.0469 20.0156 46.7812 33.4062
Q43.9531 29.2031 39.5938 26.9531
Q35.25 24.7031 29.9844 24.7031
Q19.0469 24.7031 12.6719 31.3125
Q6.29688 37.9375 6.29688 49.4219
Q6.29688 60.6406 12.9375 67.4219
Q19.5781 74.2188 30.6094 74.2188
Q43.2656 74.2188 49.9219 64.5156
Q56.5938 54.8281 56.5938 36.375
Q56.5938 19.1406 48.4062 8.85938
Q40.2344 -1.42188 26.4219 -1.42188
Q22.7031 -1.42188 18.8906 -0.6875
Q15.0938 0.046875 10.9844 1.51562
M30.6094 32.4219
Q37.25 32.4219 41.125 36.9531
Q45.0156 41.5 45.0156 49.4219
Q45.0156 57.2812 41.125 61.8438
Q37.25 66.4062 30.6094 66.4062
Q23.9688 66.4062 20.0938 61.8438
Q16.2188 57.2812 16.2188 49.4219
Q16.2188 41.5 20.0938 36.9531
Q23.9688 32.4219 30.6094 32.4219" id="BitstreamVeraSans-Roman-39"/>
     <path d="
M11.7188 12.4062
L22.0156 12.4062
L22.0156 0
L11.7188 0
z

M11.7188 51.7031
L22.0156 51.7031
L22.0156 39.3125
L11.7188 39.3125
z
" id="BitstreamVeraSans-Roman-3a"/>
     <path d="
M34.1875 63.1875
L20.7969 26.9062
L47.6094 26.9062
z

M28.6094 72.9062
L39.7969 72.9062
L67.5781 0
L57.3281 0
L50.6875 18.7031
L17.8281 18.7031
L11.1875 0
L0.78125 0
z
" id="BitstreamVeraSans-Roman-41"/>
     <path d="
M56.2031 29.5938
L56.2031 25.2031
L14.8906 25.2031
Q15.4844 15.9219 20.4844 11.0625
Q25.4844 6.20312 34.4219 6.20312
Q39.5938 6.20312 44.4531 7.46875
Q49.3125 8.73438 54.1094 11.2812
L54.1094 2.78125
Q49.2656 0.734375 44.1875 -0.34375
Q39.1094 -1.42188 33.8906 -1.42188
Q20.7969 -1.42188 13.1562 6.1875
Q5.51562 13.8125 5.51562 26.8125
Q5.51562 40.2344 12.7656 48.1094
Q20.0156 56 32.3281 56
Q43.3594 56 49.7812 48.8906
Q56.2031 41.7969 56.2031 29.5938
M47.2188 32.2344
Q47.125 39.5938 43.0938 43.9844
Q39.0625 48.3906 32.4219 48.3906
Q24.9062 48.3906 20.3906 44.1406
Q15.875 39.8906 15.1875 32.1719
z
" id="BitstreamVeraSans-Roman-65"/>
    </defs>
    <g transform="translate(166.596152344 243.585)scale(0.09 -0.09)">
     <use xlink:href="#BitstreamVeraSans-Roman-4d"/>
     <use x="86.279296875" xlink:href="#BitstreamVeraSans-Roman-73"/>
     <use x="138.37890625" xlink:href="#BitstreamVeraSans-Roman-3a"/>
     <use x="172.0703125" xlink:href="#BitstreamVeraSans-Roman-20"/>
     <use x="203.857421875" xlink:href="#BitstreamVeraSans-Roman-33"/>
     <use x="267.48046875" xlink:href="#BitstreamVeraSans-Roman-2e"/>
     <use x="299.267578125" xlink:href="#BitstreamVeraSans-Roman-39"/>
     <use x="362.890625" xlink:href="#BitstreamVeraSans-Roman-38"/>
     <use x="426.513671875" xlink:href="#BitstreamVeraSans-Roman-65"/>
     <use x="488.037109375" xlink:href="#BitstreamVeraSans-Roman-2b"/>
     <use x="571.826171875" xlink:href="#BitstreamVeraSans-Roman-30"/>
     <use x="635.44921875" xlink:href="#BitstreamVeraSans-Roman-31"/>
     <use x="699.072265625" xlink:href="#BitstreamVeraSans-Roman-20"/>
     <use x="730.859375" xlink:href="#BitstreamVeraSans-Roman-41"/>
     <use x="799.267578125" xlink:href="#BitstreamVeraSans-Roman-6d"/>
     <use x="896.6796875" xlink:href="#BitstreamVeraSans-Roman-5e"/>
     <use x="980.46875" xlink:href="#BitstreamVeraSans-Roman-32"/>
    </g>
   </g>
   <g id="text_14">
    <!-- Mr: 9.81e+00 Am^2 -->
    <defs>
     <path d="
M41.1094 46.2969
Q39.5938 47.1719 37.8125 47.5781
Q36.0312 48 33.8906 48
Q26.2656 48 22.1875 43.0469
Q18.1094 38.0938 18.1094 28.8125
L18.1094 0
L9.07812 0
L9.07812 54.6875
L18.1094 54.6875
L18.1094 46.1875
Q20.9531 51.1719 25.4844 53.5781
Q30.0312 56 36.5312 56
Q37.4531 56 38.5781 55.875
Q39.7031 55.7656 41.0625 55.5156
z
" id="BitstreamVeraSans-Roman-72"/>
    </defs>
    <g transform="translate(166.596152344 219.555)scale(0.09 -0.09)">
     <use xlink:href="#BitstreamVeraSans-Roman-4d"/>
     <use x="86.279296875" xlink:href="#BitstreamVeraSans-Roman-72"/>
     <use x="125.642578125" xlink:href="#BitstreamVeraSans-Roman-3a"/>
     <use x="159.333984375" xlink:href="#BitstreamVeraSans-Roman-20"/>
     <use x="191.12109375" xlink:href="#BitstreamVeraSans-Roman-39"/>
     <use x="254.744140625" xlink:href="#BitstreamVeraSans-Roman-2e"/>
     <use x="286.53125" xlink:href="#BitstreamVeraSans-Roman-38"/>
     <use x="350.154296875" xlink:href="#BitstreamVeraSans-Roman-31"/>
     <use x="413.77734375" xlink:href="#BitstreamVeraSans-Roman-65"/>
     <use x="475.30078125" xlink:href="#BitstreamVeraSans-Roman-2b"/>
     <use x="559.08984375" xlink:href="#BitstreamVeraSans-Roman-30"/>
     <use x="622.712890625" xlink:href="#BitstreamVeraSans-Roman-30"/>
     <use x="686.3359375" xlink:href="#BitstreamVeraSans-Roman-20"/>
     <use x="718.123046875" xlink:href="#BitstreamVeraSans-Roman-41"/>
     <use x="786.53125" xlink:href="#BitstreamVeraSans-Roman-6d"/>
     <use x="883.943359375" xlink:href="#BitstreamVeraSans-Roman-5e"/>
     <use x="967.732421875" xlink:href="#BitstreamVeraSans-Roman-32"/>
    </g>
   </g>
   <g id="text_15">
    <!-- Bc: 2.87e-02 T -->
    <defs>
     <path d="
M8.20312 72.9062
L55.0781 72.9062
L55.0781 68.7031
L28.6094 0
L18.3125 0
L43.2188 64.5938
L8.20312 64.5938
z
" id="BitstreamVeraSans-Roman-37"/>
     <path d="
M48.7812 52.5938
L48.7812 44.1875
Q44.9688 46.2969 41.1406 47.3438
Q37.3125 48.3906 33.4062 48.3906
Q24.6562 48.3906 19.8125 42.8438
Q14.9844 37.3125 14.9844 27.2969
Q14.9844 17.2812 19.8125 11.7344
Q24.6562 6.20312 33.4062 6.20312
Q37.3125 6.20312 41.1406 7.25
Q44.9688 8.29688 48.7812 10.4062
L48.7812 2.09375
Q45.0156 0.34375 40.9844 -0.53125
Q36.9688 -1.42188 32.4219 -1.42188
Q20.0625 -1.42188 12.7812 6.34375
Q5.51562 14.1094 5.51562 27.2969
Q5.51562 40.6719 12.8594 48.3281
Q20.2188 56 33.0156 56
Q37.1562 56 41.1094 55.1406
Q45.0625 54.2969 48.7812 52.5938" id="BitstreamVeraSans-Roman-63"/>
     <path d="
M4.89062 31.3906
L31.2031 31.3906
L31.2031 23.3906
L4.89062 23.3906
z
" id="BitstreamVeraSans-Roman-2d"/>
    </defs>
    <g transform="translate(166.596152344 195.525)scale(0.09 -0.09)">
     <use xlink:href="#BitstreamVeraSans-Roman-42"/>
     <use x="68.603515625" xlink:href="#BitstreamVeraSans-Roman-63"/>
     <use x="123.583984375" xlink:href="#BitstreamVeraSans-Roman-3a"/>
     <use x="157.275390625" xlink:href="#BitstreamVeraSans-Roman-20"/>
     <use x="189.0625" xlink:href="#BitstreamVeraSans-Roman-32"/>
     <use x="252.685546875" xlink:href="#BitstreamVeraSans-Roman-2e"/>
     <use x="284.47265625" xlink:href="#BitstreamVeraSans-Roman-38"/>
     <use x="348.095703125" xlink:href="#BitstreamVeraSans-Roman-37"/>
     <use x="411.71875" xlink:href="#BitstreamVeraSans-Roman-65"/>
     <use x="473.2421875" xlink:href="#BitstreamVeraSans-Roman-2d"/>
     <use x="509.326171875" xlink:href="#BitstreamVeraSans-Roman-30"/>
     <use x="572.94921875" xlink:href="#BitstreamVeraSans-Roman-32"/>
     <use x="636.572265625" xlink:href="#BitstreamVeraSans-Roman-20"/>
     <use x="668.359375" xlink:href="#BitstreamVeraSans-Roman-54"/>
    </g>
   </g>
   <g id="text_16">
    <!-- Xhf: 2.48e-05 m^3 -->
    <defs>
     <path d="
M6.29688 72.9062
L16.8906 72.9062
L35.0156 45.7969
L53.2188 72.9062
L63.8125 72.9062
L40.375 37.8906
L65.375 0
L54.7812 0
L34.2812 31
L13.625 0
L2.98438 0
L29 38.9219
z
" id="BitstreamVeraSans-Roman-58"/>
     <path d="
M37.1094 75.9844
L37.1094 68.5
L28.5156 68.5
Q23.6875 68.5 21.7969 66.5469
Q19.9219 64.5938 19.9219 59.5156
L19.9219 54.6875
L34.7188 54.6875
L34.7188 47.7031
L19.9219 47.7031
L19.9219 0
L10.8906 0
L10.8906 47.7031
L2.29688 47.7031
L2.29688 54.6875
L10.8906 54.6875
L10.8906 58.5
Q10.8906 67.625 15.1406 71.7969
Q19.3906 75.9844 28.6094 75.9844
z
" id="BitstreamVeraSans-Roman-66"/>
     <path d="
M54.8906 33.0156
L54.8906 0
L45.9062 0
L45.9062 32.7188
Q45.9062 40.4844 42.875 44.3281
Q39.8438 48.1875 33.7969 48.1875
Q26.5156 48.1875 22.3125 43.5469
Q18.1094 38.9219 18.1094 30.9062
L18.1094 0
L9.07812 0
L9.07812 75.9844
L18.1094 75.9844
L18.1094 46.1875
Q21.3438 51.125 25.7031 53.5625
Q30.0781 56 35.7969 56
Q45.2188 56 50.0469 50.1719
Q54.8906 44.3438 54.8906 33.0156" id="BitstreamVeraSans-Roman-68"/>
     <path d="
M37.7969 64.3125
L12.8906 25.3906
L37.7969 25.3906
z

M35.2031 72.9062
L47.6094 72.9062
L47.6094 25.3906
L58.0156 25.3906
L58.0156 17.1875
L47.6094 17.1875
L47.6094 0
L37.7969 0
L37.7969 17.1875
L4.89062 17.1875
L4.89062 26.7031
z
" id="BitstreamVeraSans-Roman-34"/>
    </defs>
    <g transform="translate(166.596152344 171.495)scale(0.09 -0.09)">
     <use xlink:href="#BitstreamVeraSans-Roman-58"/>
     <use x="68.505859375" xlink:href="#BitstreamVeraSans-Roman-68"/>
     <use x="131.884765625" xlink:href="#BitstreamVeraSans-Roman-66"/>
     <use x="163.46484375" xlink:href="#BitstreamVeraSans-Roman-3a"/>
     <use x="197.15625" xlink:href="#BitstreamVeraSans-Roman-20"/>
     <use x="228.943359375" xlink:href="#BitstreamVeraSans-Roman-32"/>
     <use x="292.56640625" xlink:href="#BitstreamVeraSans-Roman-2e"/>
     <use x="324.353515625" xlink:href="#BitstreamVeraSans-Roman-34"/>
     <use x="387.9765625" xlink:href="#BitstreamVeraSans-Roman-38"/>
     <use x="451.599609375" xlink:href="#BitstreamVeraSans-Roman-65"/>
     <use x="513.123046875" xlink:href="#BitstreamVeraSans-Roman-2d"/>
     <use x="549.20703125" xlink:href="#BitstreamVeraSans-Roman-30"/>
     <use x="612.830078125" xlink:href="#BitstreamVeraSans-Roman-35"/>
     <use x="676.453125" xlink:href="#BitstreamVeraSans-Roman-20"/>
     <use x="708.240234375" xlink:href="#BitstreamVeraSans-Roman-6d"/>
     <use x="805.65234375" xlink:href="#BitstreamVeraSans-Roman-5e"/>
     <use x="889.44140625" xlink:href="#BitstreamVeraSans-Roman-33"/>
    </g>
   </g>
  </g>
  <g id="axes_2">
   <g id="patch_7">
    <path d="
M348.845 255.6
L558.014 255.6
L558.014 15.3
L348.845 15.3
z
" style="fill:#ffffff;"/>
   </g>
   <g id="line2d_25">
    <path clip-path="url(#pf6d0c8c03a)" d="
M348.845 18.7783
L350.588 24.7079
L352.331 40.8868
L354.074 64.2522
L355.817 90.073
L357.56 113.997
L359.303 135.103
L361.046 153.416
L362.79 169.092
L364.533 182.256
L366.276 193.185
L368.019 202.325
L369.762 210.027
L371.505 216.441
L373.248 221.722
L374.991 226.074
L376.734 229.687
L378.477 232.653
L380.22 235.104
L381.963 237.253
L383.706 239.151
L385.45 240.68
L387.193 241.867
L388.936 242.966
L390.679 244.01
L392.422 244.809
L394.165 245.451
L395.908 246.082
L397.651 246.655
L399.394 247.119
L401.137 247.449
L402.88 247.771
L404.623 248.184
L406.366 248.491
L408.11 248.596
L409.853 248.726
L411.596 248.995
L413.339 249.232
L415.082 249.337
L416.825 249.457
L418.568 249.715
L420.311 249.938
L422.054 250.017
L423.797 250.134
L425.54 250.276
L427.283 250.326
L429.026 250.43
L430.77 250.613
L432.513 250.704
L434.256 250.745
L435.999 250.816
L437.742 250.877
L439.485 250.985
L441.228 251.102
L442.971 251.107
L444.714 251.097
L446.457 251.198
L448.2 251.303
L449.943 251.356
L451.686 251.428
L453.429 251.48
L455.173 251.545
L456.916 251.627
L458.659 251.626
L460.402 251.652
L462.145 251.767
L463.888 251.818
L465.631 251.803
L467.374 251.801
L469.117 251.81
L470.86 251.869
L472.603 251.948
L474.346 251.946
L476.089 251.972
L477.833 252.154
L479.576 252.256
L481.319 252.185
L483.062 252.177
L484.805 252.27
L486.548 252.354
L488.291 252.356
L490.034 252.362
L491.777 252.451
L493.52 252.449
L495.263 252.417
L497.006 252.536
L498.749 252.64
L500.493 252.68
L502.236 252.774
L503.979 252.849
L505.722 252.864
L507.465 252.843
L509.208 252.847
L510.951 252.915
L512.694 252.97
L514.437 253.022
L516.18 253.125
L517.923 253.269
L519.666 253.357
L521.409 253.28
L523.153 253.197
L524.896 253.353
L526.639 253.566
L528.382 253.577
L530.125 253.553
L531.868 253.633
L533.611 253.74
L535.354 253.864
L537.097 253.918
L538.84 253.87
L540.583 253.915
L542.326 253.963
L544.069 253.935
L545.813 254.115
L547.556 254.303
L549.299 254.211
L551.042 254.195
L552.785 254.367
L554.528 254.418
L556.271 254.517" style="fill:none;stroke:#0000ff;stroke-linecap:square;"/>
   </g>
   <g id="line2d_26">
    <path clip-path="url(#pf6d0c8c03a)" d="
M348.845 137.189
L359.502 137.189
L359.502 255.6" style="fill:none;stroke:#ff0000;stroke-linecap:square;"/>
   </g>
   <g id="patch_8">
    <path d="
M348.845 15.3
L558.014 15.3" style="fill:none;stroke:#000000;stroke-linecap:square;stroke-linejoin:miter;"/>
   </g>
   <g id="patch_9">
    <path d="
M558.014 255.6
L558.014 15.3" style="fill:none;stroke:#000000;stroke-linecap:square;stroke-linejoin:miter;"/>
   </g>
   <g id="patch_10">
    <path d="
M348.845 255.6
L558.014 255.6" style="fill:none;stroke:#000000;stroke-linecap:square;stroke-linejoin:miter;"/>
   </g>
   <g id="patch_11">
    <path d="
M348.845 255.6
L348.845 15.3" style="fill:none;stroke:#000000;stroke-linecap:square;stroke-linejoin:miter;"/>
   </g>
   <g id="matplotlib.axis_3">
    <g id="xtick_6">
     <g id="line2d_27">
      <g>
       <use style="stroke:#000000;stroke-width:0.5;" x="348.844921875" xlink:href="#m93b0483c22" y="255.6"/>
      </g>
     </g>
     <g id="line2d_28">
      <g>
       <use style="stroke:#000000;stroke-width:0.5;" x="348.844921875" xlink:href="#m741efc42ff" y="15.3"/>
      </g>
     </g>
     <g id="text_17">
      <!-- 0.0 -->
      <g transform="translate(341.555078125 267.1984375)scale(0.1 -0.1)">
       <use xlink:href="#BitstreamVeraSans-Roman-30"/>
       <use x="63.623046875" xlink:href="#BitstreamVeraSans-Roman-2e"/>
       <use x="95.41015625" xlink:href="#BitstreamVeraSans-Roman-30"/>
      </g>
     </g>
    </g>
    <g id="xtick_7">
     <g id="line2d_29">
      <g>
       <use style="stroke:#000000;stroke-width:0.5;" x="383.706445312" xlink:href="#m93b0483c22" y="255.6"/>
      </g>
     </g>
     <g id="line2d_30">
      <g>
       <use style="stroke:#000000;stroke-width:0.5;" x="383.706445312" xlink:href="#m741efc42ff" y="15.3"/>
      </g>
     </g>
     <g id="text_18">
      <!-- 0.2 -->
      <g transform="translate(376.585351562 267.1984375)scale(0.1 -0.1)">
       <use xlink:href="#BitstreamVeraSans-Roman-30"/>
       <use x="63.623046875" xlink:href="#BitstreamVeraSans-Roman-2e"/>
       <use x="95.41015625" xlink:href="#BitstreamVeraSans-Roman-32"/>
      </g>
     </g>
    </g>
    <g id="xtick_8">
     <g id="line2d_31">
      <g>
       <use style="stroke:#000000;stroke-width:0.5;" x="418.56796875" xlink:href="#m93b0483c22" y="255.6"/>
      </g>
     </g>
     <g id="line2d_32">
      <g>
       <use style="stroke:#000000;stroke-width:0.5;" x="418.56796875" xlink:href="#m741efc42ff" y="15.3"/>
      </g>
     </g>
     <g id="text_19">
      <!-- 0.4 -->
      <g transform="translate(411.2265625 267.1984375)scale(0.1 -0.1)">
       <use xlink:href="#BitstreamVeraSans-Roman-30"/>
       <use x="63.623046875" xlink:href="#BitstreamVeraSans-Roman-2e"/>
       <use x="95.41015625" xlink:href="#BitstreamVeraSans-Roman-34"/>
      </g>
     </g>
    </g>
    <g id="xtick_9">
     <g id="line2d_33">
      <g>
       <use style="stroke:#000000;stroke-width:0.5;" x="453.429492187" xlink:href="#m93b0483c22" y="255.6"/>
      </g>
     </g>
     <g id="line2d_34">
      <g>
       <use style="stroke:#000000;stroke-width:0.5;" x="453.429492187" xlink:href="#m741efc42ff" y="15.3"/>
      </g>
     </g>
     <g id="text_20">
      <!-- 0.6 -->
      <defs>
       <path d="
M33.0156 40.375
Q26.375 40.375 22.4844 35.8281
Q18.6094 31.2969 18.6094 23.3906
Q18.6094 15.5312 22.4844 10.9531
Q26.375 6.39062 33.0156 6.39062
Q39.6562 6.39062 43.5312 10.9531
Q47.4062 15.5312 47.4062 23.3906
Q47.4062 31.2969 43.5312 35.8281
Q39.6562 40.375 33.0156 40.375
M52.5938 71.2969
L52.5938 62.3125
Q48.875 64.0625 45.0938 64.9844
Q41.3125 65.9219 37.5938 65.9219
Q27.8281 65.9219 22.6719 59.3281
Q17.5312 52.7344 16.7969 39.4062
Q19.6719 43.6562 24.0156 45.9219
Q28.375 48.1875 33.5938 48.1875
Q44.5781 48.1875 50.9531 41.5156
Q57.3281 34.8594 57.3281 23.3906
Q57.3281 12.1562 50.6875 5.35938
Q44.0469 -1.42188 33.0156 -1.42188
Q20.3594 -1.42188 13.6719 8.26562
Q6.98438 17.9688 6.98438 36.375
Q6.98438 53.6562 15.1875 63.9375
Q23.3906 74.2188 37.2031 74.2188
Q40.9219 74.2188 44.7031 73.4844
Q48.4844 72.75 52.5938 71.2969" id="BitstreamVeraSans-Roman-36"/>
      </defs>
      <g transform="translate(446.122460937 267.1984375)scale(0.1 -0.1)">
       <use xlink:href="#BitstreamVeraSans-Roman-30"/>
       <use x="63.623046875" xlink:href="#BitstreamVeraSans-Roman-2e"/>
       <use x="95.41015625" xlink:href="#BitstreamVeraSans-Roman-36"/>
      </g>
     </g>
    </g>
    <g id="xtick_10">
     <g id="line2d_35">
      <g>
       <use style="stroke:#000000;stroke-width:0.5;" x="488.291015625" xlink:href="#m93b0483c22" y="255.6"/>
      </g>
     </g>
     <g id="line2d_36">
      <g>
       <use style="stroke:#000000;stroke-width:0.5;" x="488.291015625" xlink:href="#m741efc42ff" y="15.3"/>
      </g>
     </g>
     <g id="text_21">
      <!-- 0.8 -->
      <g transform="translate(481.011328125 267.1984375)scale(0.1 -0.1)">
       <use xlink:href="#BitstreamVeraSans-Roman-30"/>
       <use x="63.623046875" xlink:href="#BitstreamVeraSans-Roman-2e"/>
       <use x="95.41015625" xlink:href="#BitstreamVeraSans-Roman-38"/>
      </g>
     </g>
    </g>
    <g id="xtick_11">
     <g id="line2d_37">
      <g>
       <use style="stroke:#000000;stroke-width:0.5;" x="523.152539062" xlink:href="#m93b0483c22" y="255.6"/>
      </g>
     </g>
     <g id="line2d_38">
      <g>
       <use style="stroke:#000000;stroke-width:0.5;" x="523.152539062" xlink:href="#m741efc42ff" y="15.3"/>
      </g>
     </g>
     <g id="text_22">
      <!-- 1.0 -->
      <g transform="translate(516.082226562 267.1984375)scale(0.1 -0.1)">
       <use xlink:href="#BitstreamVeraSans-Roman-31"/>
       <use x="63.623046875" xlink:href="#BitstreamVeraSans-Roman-2e"/>
       <use x="95.41015625" xlink:href="#BitstreamVeraSans-Roman-30"/>
      </g>
     </g>
    </g>
    <g id="xtick_12">
     <g id="line2d_39">
      <g>
       <use style="stroke:#000000;stroke-width:0.5;" x="558.0140625" xlink:href="#m93b0483c22" y="255.6"/>
      </g>
     </g>
     <g id="line2d_40">
      <g>
       <use style="stroke:#000000;stroke-width:0.5;" x="558.0140625" xlink:href="#m741efc42ff" y="15.3"/>
      </g>
     </g>
     <g id="text_23">
      <!-- 1.2 -->
      <g transform="translate(551.1125 267.1984375)scale(0.1 -0.1)">
       <use xlink:href="#BitstreamVeraSans-Roman-31"/>
       <use x="63.623046875" xlink:href="#BitstreamVeraSans-Roman-2e"/>
       <use x="95.41015625" xlink:href="#BitstreamVeraSans-Roman-32"/>
      </g>
     </g>
    </g>
    <g id="text_24">
     <!-- B (T) -->
     <g transform="translate(441.884179687 281.8765625)scale(0.1 -0.1)">
      <use xlink:href="#BitstreamVeraSans-Roman-42"/>
      <use x="68.603515625" xlink:href="#BitstreamVeraSans-Roman-20"/>
      <use x="100.390625" xlink:href="#BitstreamVeraSans-Roman-28"/>
      <use x="139.404296875" xlink:href="#BitstreamVeraSans-Roman-54"/>
      <use x="200.48828125" xlink:href="#BitstreamVeraSans-Roman-29"/>
     </g>
    </g>
   </g>
   <g id="matplotlib.axis_4">
    <g id="ytick_6">
     <g id="line2d_41">
      <g>
       <use style="stroke:#000000;stroke-width:0.5;" x="348.844921875" xlink:href="#m728421d6d4" y="255.6"/>
      </g>
     </g>
     <g id="line2d_42">
      <g>
       <use style="stroke:#000000;stroke-width:0.5;" x="558.0140625" xlink:href="#mcb0005524f" y="255.6"/>
      </g>
     </g>
     <g id="text_25">
      <!-- 0.0 -->
      <g transform="translate(330.265234375 258.359375)scale(0.1 -0.1)">
       <use xlink:href="#BitstreamVeraSans-Roman-30"/>
       <use x="63.623046875" xlink:href="#BitstreamVeraSans-Roman-2e"/>
       <use x="95.41015625" xlink:href="#BitstreamVeraSans-Roman-30"/>
      </g>
     </g>
    </g>
    <g id="ytick_7">
     <g id="line2d_43">
      <g>
       <use style="stroke:#000000;stroke-width:0.5;" x="348.844921875" xlink:href="#m728421d6d4" y="207.54"/>
      </g>
     </g>
     <g id="line2d_44">
      <g>
       <use style="stroke:#000000;stroke-width:0.5;" x="558.0140625" xlink:href="#mcb0005524f" y="207.54"/>
      </g>
     </g>
     <g id="text_26">
      <!-- 0.1 -->
      <g transform="translate(330.524609375 210.299375)scale(0.1 -0.1)">
       <use xlink:href="#BitstreamVeraSans-Roman-30"/>
       <use x="63.623046875" xlink:href="#BitstreamVeraSans-Roman-2e"/>
       <use x="95.41015625" xlink:href="#BitstreamVeraSans-Roman-31"/>
      </g>
     </g>
    </g>
    <g id="ytick_8">
     <g id="line2d_45">
      <g>
       <use style="stroke:#000000;stroke-width:0.5;" x="348.844921875" xlink:href="#m728421d6d4" y="159.48"/>
      </g>
     </g>
     <g id="line2d_46">
      <g>
       <use style="stroke:#000000;stroke-width:0.5;" x="558.0140625" xlink:href="#mcb0005524f" y="159.48"/>
      </g>
     </g>
     <g id="text_27">
      <!-- 0.2 -->
      <g transform="translate(330.602734375 162.239375)scale(0.1 -0.1)">
       <use xlink:href="#BitstreamVeraSans-Roman-30"/>
       <use x="63.623046875" xlink:href="#BitstreamVeraSans-Roman-2e"/>
       <use x="95.41015625" xlink:href="#BitstreamVeraSans-Roman-32"/>
      </g>
     </g>
    </g>
    <g id="ytick_9">
     <g id="line2d_47">
      <g>
       <use style="stroke:#000000;stroke-width:0.5;" x="348.844921875" xlink:href="#m728421d6d4" y="111.42"/>
      </g>
     </g>
     <g id="line2d_48">
      <g>
       <use style="stroke:#000000;stroke-width:0.5;" x="558.0140625" xlink:href="#mcb0005524f" y="111.42"/>
      </g>
     </g>
     <g id="text_28">
      <!-- 0.3 -->
      <g transform="translate(330.402734375 114.179375)scale(0.1 -0.1)">
       <use xlink:href="#BitstreamVeraSans-Roman-30"/>
       <use x="63.623046875" xlink:href="#BitstreamVeraSans-Roman-2e"/>
       <use x="95.41015625" xlink:href="#BitstreamVeraSans-Roman-33"/>
      </g>
     </g>
    </g>
    <g id="ytick_10">
     <g id="line2d_49">
      <g>
       <use style="stroke:#000000;stroke-width:0.5;" x="348.844921875" xlink:href="#m728421d6d4" y="63.36"/>
      </g>
     </g>
     <g id="line2d_50">
      <g>
       <use style="stroke:#000000;stroke-width:0.5;" x="558.0140625" xlink:href="#mcb0005524f" y="63.36"/>
      </g>
     </g>
     <g id="text_29">
      <!-- 0.4 -->
      <g transform="translate(330.162109375 66.119375)scale(0.1 -0.1)">
       <use xlink:href="#BitstreamVeraSans-Roman-30"/>
       <use x="63.623046875" xlink:href="#BitstreamVeraSans-Roman-2e"/>
       <use x="95.41015625" xlink:href="#BitstreamVeraSans-Roman-34"/>
      </g>
     </g>
    </g>
    <g id="ytick_11">
     <g id="line2d_51">
      <g>
       <use style="stroke:#000000;stroke-width:0.5;" x="348.844921875" xlink:href="#m728421d6d4" y="15.3"/>
      </g>
     </g>
     <g id="line2d_52">
      <g>
       <use style="stroke:#000000;stroke-width:0.5;" x="558.0140625" xlink:href="#mcb0005524f" y="15.3"/>
      </g>
     </g>
     <g id="text_30">
      <!-- 0.5 -->
      <g transform="translate(330.474609375 18.059375)scale(0.1 -0.1)">
       <use xlink:href="#BitstreamVeraSans-Roman-30"/>
       <use x="63.623046875" xlink:href="#BitstreamVeraSans-Roman-2e"/>
       <use x="95.41015625" xlink:href="#BitstreamVeraSans-Roman-35"/>
      </g>
     </g>
    </g>
    <g id="text_31">
     <!-- Delta M -->
     <defs>
      <path d="
M19.6719 64.7969
L19.6719 8.10938
L31.5938 8.10938
Q46.6875 8.10938 53.6875 14.9375
Q60.6875 21.7812 60.6875 36.5312
Q60.6875 51.1719 53.6875 57.9844
Q46.6875 64.7969 31.5938 64.7969
z

M9.8125 72.9062
L30.0781 72.9062
Q51.2656 72.9062 61.1719 64.0938
Q71.0938 55.2812 71.0938 36.5312
Q71.0938 17.6719 61.125 8.82812
Q51.1719 0 30.0781 0
L9.8125 0
z
" id="BitstreamVeraSans-Roman-44"/>
      <path d="
M9.42188 75.9844
L18.4062 75.9844
L18.4062 0
L9.42188 0
z
" id="BitstreamVeraSans-Roman-6c"/>
     </defs>
     <g transform="translate(323.082421875 154.2046875)rotate(-90.0)scale(0.1 -0.1)">
      <use xlink:href="#BitstreamVeraSans-Roman-44"/>
      <use x="77.001953125" xlink:href="#BitstreamVeraSans-Roman-65"/>
      <use x="138.525390625" xlink:href="#BitstreamVeraSans-Roman-6c"/>
      <use x="166.30859375" xlink:href="#BitstreamVeraSans-Roman-74"/>
      <use x="205.517578125" xlink:href="#BitstreamVeraSans-Roman-61"/>
      <use x="266.796875" xlink:href="#BitstreamVeraSans-Roman-20"/>
      <use x="298.583984375" xlink:href="#BitstreamVeraSans-Roman-4d"/>
     </g>
    </g>
   </g>
  </g>
  <g id="axes_3">
   <g id="patch_12">
    <path d="
M51.5531 538.2
L260.722 538.2
L260.722 297.9
L51.5531 297.9
z
" style="fill:#ffffff;"/>
   </g>
   <g id="line2d_53">
    <path clip-path="url(#paff2b45af7)" d="
M55.0393 446.081
L56.7824 373.432
L58.5254 333.258
L60.2685 330.931
L62.0116 350.576
L63.7547 373.952
L65.4977 396.579
L67.2408 418.034
L68.9839 437.811
L70.727 454.579
L72.47 468.027
L74.2131 479.382
L75.9562 489.468
L77.6993 498.066
L79.4423 505.016
L81.1854 510.787
L82.9285 515.627
L84.6716 519.032
L86.4146 521.339
L88.1577 523.92
L89.9008 526.881
L91.6439 528.676
L93.387 529.275
L95.13 530.52
L96.8731 532.194
L98.6162 532.898
L100.359 533.182
L102.102 533.877
L103.845 534.892
L105.588 535.482
L107.332 535.137
L109.075 535.203
L110.818 536.483
L112.561 537.218
L114.304 536.541
L116.047 536.093
L117.79 536.776
L119.533 537.262
L121.276 536.625
L123.019 536.197
L124.762 536.94
L126.505 537.381
L128.248 537.123
L129.992 537.403
L131.735 537.558
L133.478 537.002
L135.221 537.058
L136.964 537.649
L138.707 537.734
L140.45 537.652
L142.193 537.495
L143.936 537.263
L145.679 537.691
L147.422 538.178
L149.165 537.82
L150.908 537.338
L152.652 537.54
L154.395 537.679
L156.138 537.683
L157.881 537.713
L159.624 537.588
L161.367 537.864
L163.11 538.098
L164.853 537.613
L166.596 537.507
L168.339 538.051
L170.082 538.131
L171.825 538.167
L173.568 537.92
L175.312 537.628
L177.055 537.875
L178.798 538.101
L180.541 537.336
L182.284 537.016
L184.027 538.069
L185.77 537.874
L187.513 537.847
L189.256 537.465
L190.999 537.843
L192.742 538.165
L194.485 537.801
L196.228 537.837
L197.972 538.056
L199.715 537.836
L201.458 537.27
L203.201 537.602
L204.944 537.642
L206.687 537.494
L208.43 537.822
L210.173 538.172
L211.916 538.127
L213.659 537.899
L215.402 537.685
L217.145 537.753
L218.888 537.554
L220.632 537.17
L222.375 537.234
L224.118 538.154
L225.861 537.531
L227.604 537.899
L229.347 536.662
L231.09 537.265
L232.833 538.147
L234.576 537.967
L236.319 537.421
L238.062 537.236
L239.805 537.459
L241.548 538.175
L243.292 538.19
L245.035 537.813
L246.778 538.119
L248.521 537.566
L250.264 536.665
L252.007 537.802
L253.75 537.749
L255.493 537.549
L257.236 537.269
L258.979 537.575" style="fill:none;stroke:#0000ff;stroke-linecap:square;"/>
   </g>
   <g id="patch_13">
    <path d="
M51.5531 297.9
L260.722 297.9" style="fill:none;stroke:#000000;stroke-linecap:square;stroke-linejoin:miter;"/>
   </g>
   <g id="patch_14">
    <path d="
M260.722 538.2
L260.722 297.9" style="fill:none;stroke:#000000;stroke-linecap:square;stroke-linejoin:miter;"/>
   </g>
   <g id="patch_15">
    <path d="
M51.5531 538.2
L260.722 538.2" style="fill:none;stroke:#000000;stroke-linecap:square;stroke-linejoin:miter;"/>
   </g>
   <g id="patch_16">
    <path d="
M51.5531 538.2
L51.5531 297.9" style="fill:none;stroke:#000000;stroke-linecap:square;stroke-linejoin:miter;"/>
   </g>
   <g id="matplotlib.axis_5">
    <g id="xtick_13">
     <g id="line2d_54">
      <g>
       <use style="stroke:#000000;stroke-width:0.5;" x="51.553125" xlink:href="#m93b0483c22" y="538.2"/>
      </g>
     </g>
     <g id="line2d_55">
      <g>
       <use style="stroke:#000000;stroke-width:0.5;" x="51.553125" xlink:href="#m741efc42ff" y="297.9"/>
      </g>
     </g>
     <g id="text_32">
      <!-- 0.0 -->
      <g transform="translate(44.26328125 549.7984375)scale(0.1 -0.1)">
       <use xlink:href="#BitstreamVeraSans-Roman-30"/>
       <use x="63.623046875" xlink:href="#BitstreamVeraSans-Roman-2e"/>
       <use x="95.41015625" xlink:href="#BitstreamVeraSans-Roman-30"/>
      </g>
     </g>
    </g>
    <g id="xtick_14">
     <g id="line2d_56">
      <g>
       <use style="stroke:#000000;stroke-width:0.5;" x="86.4146484375" xlink:href="#m93b0483c22" y="538.2"/>
      </g>
     </g>
     <g id="line2d_57">
      <g>
       <use style="stroke:#000000;stroke-width:0.5;" x="86.4146484375" xlink:href="#m741efc42ff" y="297.9"/>
      </g>
     </g>
     <g id="text_33">
      <!-- 0.2 -->
      <g transform="translate(79.2935546875 549.7984375)scale(0.1 -0.1)">
       <use xlink:href="#BitstreamVeraSans-Roman-30"/>
       <use x="63.623046875" xlink:href="#BitstreamVeraSans-Roman-2e"/>
       <use x="95.41015625" xlink:href="#BitstreamVeraSans-Roman-32"/>
      </g>
     </g>
    </g>
    <g id="xtick_15">
     <g id="line2d_58">
      <g>
       <use style="stroke:#000000;stroke-width:0.5;" x="121.276171875" xlink:href="#m93b0483c22" y="538.2"/>
      </g>
     </g>
     <g id="line2d_59">
      <g>
       <use style="stroke:#000000;stroke-width:0.5;" x="121.276171875" xlink:href="#m741efc42ff" y="297.9"/>
      </g>
     </g>
     <g id="text_34">
      <!-- 0.4 -->
      <g transform="translate(113.934765625 549.7984375)scale(0.1 -0.1)">
       <use xlink:href="#BitstreamVeraSans-Roman-30"/>
       <use x="63.623046875" xlink:href="#BitstreamVeraSans-Roman-2e"/>
       <use x="95.41015625" xlink:href="#BitstreamVeraSans-Roman-34"/>
      </g>
     </g>
    </g>
    <g id="xtick_16">
     <g id="line2d_60">
      <g>
       <use style="stroke:#000000;stroke-width:0.5;" x="156.137695312" xlink:href="#m93b0483c22" y="538.2"/>
      </g>
     </g>
     <g id="line2d_61">
      <g>
       <use style="stroke:#000000;stroke-width:0.5;" x="156.137695312" xlink:href="#m741efc42ff" y="297.9"/>
      </g>
     </g>
     <g id="text_35">
      <!-- 0.6 -->
      <g transform="translate(148.830664063 549.7984375)scale(0.1 -0.1)">
       <use xlink:href="#BitstreamVeraSans-Roman-30"/>
       <use x="63.623046875" xlink:href="#BitstreamVeraSans-Roman-2e"/>
       <use x="95.41015625" xlink:href="#BitstreamVeraSans-Roman-36"/>
      </g>
     </g>
    </g>
    <g id="xtick_17">
     <g id="line2d_62">
      <g>
       <use style="stroke:#000000;stroke-width:0.5;" x="190.99921875" xlink:href="#m93b0483c22" y="538.2"/>
      </g>
     </g>
     <g id="line2d_63">
      <g>
       <use style="stroke:#000000;stroke-width:0.5;" x="190.99921875" xlink:href="#m741efc42ff" y="297.9"/>
      </g>
     </g>
     <g id="text_36">
      <!-- 0.8 -->
      <g transform="translate(183.71953125 549.7984375)scale(0.1 -0.1)">
       <use xlink:href="#BitstreamVeraSans-Roman-30"/>
       <use x="63.623046875" xlink:href="#BitstreamVeraSans-Roman-2e"/>
       <use x="95.41015625" xlink:href="#BitstreamVeraSans-Roman-38"/>
      </g>
     </g>
    </g>
    <g id="xtick_18">
     <g id="line2d_64">
      <g>
       <use style="stroke:#000000;stroke-width:0.5;" x="225.860742187" xlink:href="#m93b0483c22" y="538.2"/>
      </g>
     </g>
     <g id="line2d_65">
      <g>
       <use style="stroke:#000000;stroke-width:0.5;" x="225.860742187" xlink:href="#m741efc42ff" y="297.9"/>
      </g>
     </g>
     <g id="text_37">
      <!-- 1.0 -->
      <g transform="translate(218.790429687 549.7984375)scale(0.1 -0.1)">
       <use xlink:href="#BitstreamVeraSans-Roman-31"/>
       <use x="63.623046875" xlink:href="#BitstreamVeraSans-Roman-2e"/>
       <use x="95.41015625" xlink:href="#BitstreamVeraSans-Roman-30"/>
      </g>
     </g>
    </g>
    <g id="xtick_19">
     <g id="line2d_66">
      <g>
       <use style="stroke:#000000;stroke-width:0.5;" x="260.722265625" xlink:href="#m93b0483c22" y="538.2"/>
      </g>
     </g>
     <g id="line2d_67">
      <g>
       <use style="stroke:#000000;stroke-width:0.5;" x="260.722265625" xlink:href="#m741efc42ff" y="297.9"/>
      </g>
     </g>
     <g id="text_38">
      <!-- 1.2 -->
      <g transform="translate(253.820703125 549.7984375)scale(0.1 -0.1)">
       <use xlink:href="#BitstreamVeraSans-Roman-31"/>
       <use x="63.623046875" xlink:href="#BitstreamVeraSans-Roman-2e"/>
       <use x="95.41015625" xlink:href="#BitstreamVeraSans-Roman-32"/>
      </g>
     </g>
    </g>
    <g id="text_39">
     <!-- B (T) -->
     <g transform="translate(144.592382813 564.4765625)scale(0.1 -0.1)">
      <use xlink:href="#BitstreamVeraSans-Roman-42"/>
      <use x="68.603515625" xlink:href="#BitstreamVeraSans-Roman-20"/>
      <use x="100.390625" xlink:href="#BitstreamVeraSans-Roman-28"/>
      <use x="139.404296875" xlink:href="#BitstreamVeraSans-Roman-54"/>
      <use x="200.48828125" xlink:href="#BitstreamVeraSans-Roman-29"/>
     </g>
    </g>
   </g>
   <g id="matplotlib.axis_6">
    <g id="ytick_12">
     <g id="line2d_68">
      <g>
       <use style="stroke:#000000;stroke-width:0.5;" x="51.553125" xlink:href="#m728421d6d4" y="538.2"/>
      </g>
     </g>
     <g id="line2d_69">
      <g>
       <use style="stroke:#000000;stroke-width:0.5;" x="260.722265625" xlink:href="#mcb0005524f" y="538.2"/>
      </g>
     </g>
     <g id="text_40">
      <!-- 0 -->
      <g transform="translate(42.5140625 540.959375)scale(0.1 -0.1)">
       <use xlink:href="#BitstreamVeraSans-Roman-30"/>
      </g>
     </g>
    </g>
    <g id="ytick_13">
     <g id="line2d_70">
      <g>
       <use style="stroke:#000000;stroke-width:0.5;" x="51.553125" xlink:href="#m728421d6d4" y="498.15"/>
      </g>
     </g>
     <g id="line2d_71">
      <g>
       <use style="stroke:#000000;stroke-width:0.5;" x="260.722265625" xlink:href="#mcb0005524f" y="498.15"/>
      </g>
     </g>
     <g id="text_41">
      <!-- 1 -->
      <g transform="translate(43.2125 500.909375)scale(0.1 -0.1)">
       <use xlink:href="#BitstreamVeraSans-Roman-31"/>
      </g>
     </g>
    </g>
    <g id="ytick_14">
     <g id="line2d_72">
      <g>
       <use style="stroke:#000000;stroke-width:0.5;" x="51.553125" xlink:href="#m728421d6d4" y="458.1"/>
      </g>
     </g>
     <g id="line2d_73">
      <g>
       <use style="stroke:#000000;stroke-width:0.5;" x="260.722265625" xlink:href="#mcb0005524f" y="458.1"/>
      </g>
     </g>
     <g id="text_42">
      <!-- 2 -->
      <g transform="translate(42.925 460.859375)scale(0.1 -0.1)">
       <use xlink:href="#BitstreamVeraSans-Roman-32"/>
      </g>
     </g>
    </g>
    <g id="ytick_15">
     <g id="line2d_74">
      <g>
       <use style="stroke:#000000;stroke-width:0.5;" x="51.553125" xlink:href="#m728421d6d4" y="418.05"/>
      </g>
     </g>
     <g id="line2d_75">
      <g>
       <use style="stroke:#000000;stroke-width:0.5;" x="260.722265625" xlink:href="#mcb0005524f" y="418.05"/>
      </g>
     </g>
     <g id="text_43">
      <!-- 3 -->
      <g transform="translate(42.7546875 420.809375)scale(0.1 -0.1)">
       <use xlink:href="#BitstreamVeraSans-Roman-33"/>
      </g>
     </g>
    </g>
    <g id="ytick_16">
     <g id="line2d_76">
      <g>
       <use style="stroke:#000000;stroke-width:0.5;" x="51.553125" xlink:href="#m728421d6d4" y="378.0"/>
      </g>
     </g>
     <g id="line2d_77">
      <g>
       <use style="stroke:#000000;stroke-width:0.5;" x="260.722265625" xlink:href="#mcb0005524f" y="378.0"/>
      </g>
     </g>
     <g id="text_44">
      <!-- 4 -->
      <g transform="translate(42.240625 380.759375)scale(0.1 -0.1)">
       <use xlink:href="#BitstreamVeraSans-Roman-34"/>
      </g>
     </g>
    </g>
    <g id="ytick_17">
     <g id="line2d_78">
      <g>
       <use style="stroke:#000000;stroke-width:0.5;" x="51.553125" xlink:href="#m728421d6d4" y="337.95"/>
      </g>
     </g>
     <g id="line2d_79">
      <g>
       <use style="stroke:#000000;stroke-width:0.5;" x="260.722265625" xlink:href="#mcb0005524f" y="337.95"/>
      </g>
     </g>
     <g id="text_45">
      <!-- 5 -->
      <g transform="translate(42.8359375 340.709375)scale(0.1 -0.1)">
       <use xlink:href="#BitstreamVeraSans-Roman-35"/>
      </g>
     </g>
    </g>
    <g id="ytick_18">
     <g id="line2d_80">
      <g>
       <use style="stroke:#000000;stroke-width:0.5;" x="51.553125" xlink:href="#m728421d6d4" y="297.9"/>
      </g>
     </g>
     <g id="line2d_81">
      <g>
       <use style="stroke:#000000;stroke-width:0.5;" x="260.722265625" xlink:href="#mcb0005524f" y="297.9"/>
      </g>
     </g>
     <g id="text_46">
      <!-- 6 -->
      <g transform="translate(42.51875 300.659375)scale(0.1 -0.1)">
       <use xlink:href="#BitstreamVeraSans-Roman-36"/>
      </g>
     </g>
    </g>
    <g id="text_47">
     <!-- d (Delta M)/dB -->
     <defs>
      <path d="
M45.4062 46.3906
L45.4062 75.9844
L54.3906 75.9844
L54.3906 0
L45.4062 0
L45.4062 8.20312
Q42.5781 3.32812 38.25 0.953125
Q33.9375 -1.42188 27.875 -1.42188
Q17.9688 -1.42188 11.7344 6.48438
Q5.51562 14.4062 5.51562 27.2969
Q5.51562 40.1875 11.7344 48.0938
Q17.9688 56 27.875 56
Q33.9375 56 38.25 53.625
Q42.5781 51.2656 45.4062 46.3906
M14.7969 27.2969
Q14.7969 17.3906 18.875 11.75
Q22.9531 6.10938 30.0781 6.10938
Q37.2031 6.10938 41.2969 11.75
Q45.4062 17.3906 45.4062 27.2969
Q45.4062 37.2031 41.2969 42.8438
Q37.2031 48.4844 30.0781 48.4844
Q22.9531 48.4844 18.875 42.8438
Q14.7969 37.2031 14.7969 27.2969" id="BitstreamVeraSans-Roman-64"/>
     </defs>
     <g transform="translate(35.1609375 453.89296875)rotate(-90.0)scale(0.1 -0.1)">
      <use xlink:href="#BitstreamVeraSans-Roman-64"/>
      <use x="63.4765625" xlink:href="#BitstreamVeraSans-Roman-20"/>
      <use x="95.263671875" xlink:href="#BitstreamVeraSans-Roman-28"/>
      <use x="134.27734375" xlink:href="#BitstreamVeraSans-Roman-44"/>
      <use x="211.279296875" xlink:href="#BitstreamVeraSans-Roman-65"/>
      <use x="272.802734375" xlink:href="#BitstreamVeraSans-Roman-6c"/>
      <use x="300.5859375" xlink:href="#BitstreamVeraSans-Roman-74"/>
      <use x="339.794921875" xlink:href="#BitstreamVeraSans-Roman-61"/>
      <use x="401.07421875" xlink:href="#BitstreamVeraSans-Roman-20"/>
      <use x="432.861328125" xlink:href="#BitstreamVeraSans-Roman-4d"/>
      <use x="519.140625" xlink:href="#BitstreamVeraSans-Roman-29"/>
      <use x="558.154296875" xlink:href="#BitstreamVeraSans-Roman-2f"/>
      <use x="591.845703125" xlink:href="#BitstreamVeraSans-Roman-64"/>
      <use x="655.322265625" xlink:href="#BitstreamVeraSans-Roman-42"/>
     </g>
    </g>
   </g>
  </g>
  <g id="axes_4">
   <g id="patch_17">
    <path d="
M348.845 538.2
L558.014 538.2
L558.014 297.9
L348.845 297.9
z
" style="fill:#ffffff;"/>
   </g>
   <g id="line2d_82">
    <path clip-path="url(#p53b581af22)" d="
M531.868 345.576
L527.946 395.51
L524.024 447.871
L520.024 481.874
L516.115 501.703
L512.193 513.478
L508.284 520.158
L504.375 524.166
L500.453 526.618
L496.479 528.252
L492.57 529.117
L488.648 529.866
L484.753 530.395
L480.818 530.703
L476.896 530.972
L472.895 531.068
L469.013 531.375
L465.091 531.424
L461.169 531.568
L457.26 531.741
L453.273 531.712
L449.351 531.837
L445.429 531.712
L441.52 531.683
L437.598 531.779
L433.689 531.808
L429.702 531.875
L425.793 531.856
L421.871 532.019
L417.949 531.856
L414.053 531.779
L410.145 532.077
L406.144 531.933
L402.222 531.981
L398.261 532.212
L394.47 531.683
L390.548 531.664
L386.626 532.433
L382.573 531.837
L378.652 531.683
L374.73 531.933" style="fill:none;stroke:#0000ff;stroke-linecap:square;"/>
   </g>
   <g id="line2d_83">
    <path clip-path="url(#p53b581af22)" d="
M348.845 442.08
L558.014 442.08" style="fill:none;stroke:#000000;stroke-linecap:square;"/>
   </g>
   <g id="line2d_84">
    <path clip-path="url(#p53b581af22)" d="
M531.868 538.2
L531.868 297.9" style="fill:none;stroke:#000000;stroke-linecap:square;"/>
   </g>
   <g id="patch_18">
    <path d="
M348.845 297.9
L558.014 297.9" style="fill:none;stroke:#000000;stroke-linecap:square;stroke-linejoin:miter;"/>
   </g>
   <g id="patch_19">
    <path d="
M558.014 538.2
L558.014 297.9" style="fill:none;stroke:#000000;stroke-linecap:square;stroke-linejoin:miter;"/>
   </g>
   <g id="patch_20">
    <path d="
M348.845 538.2
L558.014 538.2" style="fill:none;stroke:#000000;stroke-linecap:square;stroke-linejoin:miter;"/>
   </g>
   <g id="patch_21">
    <path d="
M348.845 538.2
L348.845 297.9" style="fill:none;stroke:#000000;stroke-linecap:square;stroke-linejoin:miter;"/>
   </g>
   <g id="matplotlib.axis_7">
    <g id="xtick_20">
     <g id="line2d_85">
      <g>
       <use style="stroke:#000000;stroke-width:0.5;" x="348.844921875" xlink:href="#m93b0483c22" y="538.2"/>
      </g>
     </g>
     <g id="line2d_86">
      <g>
       <use style="stroke:#000000;stroke-width:0.5;" x="348.844921875" xlink:href="#m741efc42ff" y="297.9"/>
      </g>
     </g>
     <g id="text_48">
      <!-- −1.4 -->
      <g transform="translate(337.513671875 549.7984375)scale(0.1 -0.1)">
       <use xlink:href="#BitstreamVeraSans-Roman-2212"/>
       <use x="83.7890625" xlink:href="#BitstreamVeraSans-Roman-31"/>
       <use x="147.412109375" xlink:href="#BitstreamVeraSans-Roman-2e"/>
       <use x="179.19921875" xlink:href="#BitstreamVeraSans-Roman-34"/>
      </g>
     </g>
    </g>
    <g id="xtick_21">
     <g id="line2d_87">
      <g>
       <use style="stroke:#000000;stroke-width:0.5;" x="374.991064453" xlink:href="#m93b0483c22" y="538.2"/>
      </g>
     </g>
     <g id="line2d_88">
      <g>
       <use style="stroke:#000000;stroke-width:0.5;" x="374.991064453" xlink:href="#m741efc42ff" y="297.9"/>
      </g>
     </g>
     <g id="text_49">
      <!-- −1.2 -->
      <g transform="translate(363.880126953 549.7984375)scale(0.1 -0.1)">
       <use xlink:href="#BitstreamVeraSans-Roman-2212"/>
       <use x="83.7890625" xlink:href="#BitstreamVeraSans-Roman-31"/>
       <use x="147.412109375" xlink:href="#BitstreamVeraSans-Roman-2e"/>
       <use x="179.19921875" xlink:href="#BitstreamVeraSans-Roman-32"/>
      </g>
     </g>
    </g>
    <g id="xtick_22">
     <g id="line2d_89">
      <g>
       <use style="stroke:#000000;stroke-width:0.5;" x="401.137207031" xlink:href="#m93b0483c22" y="538.2"/>
      </g>
     </g>
     <g id="line2d_90">
      <g>
       <use style="stroke:#000000;stroke-width:0.5;" x="401.137207031" xlink:href="#m741efc42ff" y="297.9"/>
      </g>
     </g>
     <g id="text_50">
      <!-- −1.0 -->
      <g transform="translate(389.857519531 549.7984375)scale(0.1 -0.1)">
       <use xlink:href="#BitstreamVeraSans-Roman-2212"/>
       <use x="83.7890625" xlink:href="#BitstreamVeraSans-Roman-31"/>
       <use x="147.412109375" xlink:href="#BitstreamVeraSans-Roman-2e"/>
       <use x="179.19921875" xlink:href="#BitstreamVeraSans-Roman-30"/>
      </g>
     </g>
    </g>
    <g id="xtick_23">
     <g id="line2d_91">
      <g>
       <use style="stroke:#000000;stroke-width:0.5;" x="427.283349609" xlink:href="#m93b0483c22" y="538.2"/>
      </g>
     </g>
     <g id="line2d_92">
      <g>
       <use style="stroke:#000000;stroke-width:0.5;" x="427.283349609" xlink:href="#m741efc42ff" y="297.9"/>
      </g>
     </g>
     <g id="text_51">
      <!-- −0.8 -->
      <g transform="translate(416.013818359 549.7984375)scale(0.1 -0.1)">
       <use xlink:href="#BitstreamVeraSans-Roman-2212"/>
       <use x="83.7890625" xlink:href="#BitstreamVeraSans-Roman-30"/>
       <use x="147.412109375" xlink:href="#BitstreamVeraSans-Roman-2e"/>
       <use x="179.19921875" xlink:href="#BitstreamVeraSans-Roman-38"/>
      </g>
     </g>
    </g>
    <g id="xtick_24">
     <g id="line2d_93">
      <g>
       <use style="stroke:#000000;stroke-width:0.5;" x="453.429492187" xlink:href="#m93b0483c22" y="538.2"/>
      </g>
     </g>
     <g id="line2d_94">
      <g>
       <use style="stroke:#000000;stroke-width:0.5;" x="453.429492187" xlink:href="#m741efc42ff" y="297.9"/>
      </g>
     </g>
     <g id="text_52">
      <!-- −0.6 -->
      <g transform="translate(442.132617187 549.7984375)scale(0.1 -0.1)">
       <use xlink:href="#BitstreamVeraSans-Roman-2212"/>
       <use x="83.7890625" xlink:href="#BitstreamVeraSans-Roman-30"/>
       <use x="147.412109375" xlink:href="#BitstreamVeraSans-Roman-2e"/>
       <use x="179.19921875" xlink:href="#BitstreamVeraSans-Roman-36"/>
      </g>
     </g>
    </g>
    <g id="xtick_25">
     <g id="line2d_95">
      <g>
       <use style="stroke:#000000;stroke-width:0.5;" x="479.575634766" xlink:href="#m93b0483c22" y="538.2"/>
      </g>
     </g>
     <g id="line2d_96">
      <g>
       <use style="stroke:#000000;stroke-width:0.5;" x="479.575634766" xlink:href="#m741efc42ff" y="297.9"/>
      </g>
     </g>
     <g id="text_53">
      <!-- −0.4 -->
      <g transform="translate(468.244384766 549.7984375)scale(0.1 -0.1)">
       <use xlink:href="#BitstreamVeraSans-Roman-2212"/>
       <use x="83.7890625" xlink:href="#BitstreamVeraSans-Roman-30"/>
       <use x="147.412109375" xlink:href="#BitstreamVeraSans-Roman-2e"/>
       <use x="179.19921875" xlink:href="#BitstreamVeraSans-Roman-34"/>
      </g>
     </g>
    </g>
    <g id="xtick_26">
     <g id="line2d_97">
      <g>
       <use style="stroke:#000000;stroke-width:0.5;" x="505.721777344" xlink:href="#m93b0483c22" y="538.2"/>
      </g>
     </g>
     <g id="line2d_98">
      <g>
       <use style="stroke:#000000;stroke-width:0.5;" x="505.721777344" xlink:href="#m741efc42ff" y="297.9"/>
      </g>
     </g>
     <g id="text_54">
      <!-- −0.2 -->
      <g transform="translate(494.610839844 549.7984375)scale(0.1 -0.1)">
       <use xlink:href="#BitstreamVeraSans-Roman-2212"/>
       <use x="83.7890625" xlink:href="#BitstreamVeraSans-Roman-30"/>
       <use x="147.412109375" xlink:href="#BitstreamVeraSans-Roman-2e"/>
       <use x="179.19921875" xlink:href="#BitstreamVeraSans-Roman-32"/>
      </g>
     </g>
    </g>
    <g id="xtick_27">
     <g id="line2d_99">
      <g>
       <use style="stroke:#000000;stroke-width:0.5;" x="531.867919922" xlink:href="#m93b0483c22" y="538.2"/>
      </g>
     </g>
     <g id="line2d_100">
      <g>
       <use style="stroke:#000000;stroke-width:0.5;" x="531.867919922" xlink:href="#m741efc42ff" y="297.9"/>
      </g>
     </g>
     <g id="text_55">
      <!-- 0.0 -->
      <g transform="translate(524.578076172 549.7984375)scale(0.1 -0.1)">
       <use xlink:href="#BitstreamVeraSans-Roman-30"/>
       <use x="63.623046875" xlink:href="#BitstreamVeraSans-Roman-2e"/>
       <use x="95.41015625" xlink:href="#BitstreamVeraSans-Roman-30"/>
      </g>
     </g>
    </g>
    <g id="xtick_28">
     <g id="line2d_101">
      <g>
       <use style="stroke:#000000;stroke-width:0.5;" x="558.0140625" xlink:href="#m93b0483c22" y="538.2"/>
      </g>
     </g>
     <g id="line2d_102">
      <g>
       <use style="stroke:#000000;stroke-width:0.5;" x="558.0140625" xlink:href="#m741efc42ff" y="297.9"/>
      </g>
     </g>
     <g id="text_56">
      <!-- 0.2 -->
      <g transform="translate(550.89296875 549.7984375)scale(0.1 -0.1)">
       <use xlink:href="#BitstreamVeraSans-Roman-30"/>
       <use x="63.623046875" xlink:href="#BitstreamVeraSans-Roman-2e"/>
       <use x="95.41015625" xlink:href="#BitstreamVeraSans-Roman-32"/>
      </g>
     </g>
    </g>
    <g id="text_57">
     <!-- B (T) -->
     <g transform="translate(441.884179687 564.4765625)scale(0.1 -0.1)">
      <use xlink:href="#BitstreamVeraSans-Roman-42"/>
      <use x="68.603515625" xlink:href="#BitstreamVeraSans-Roman-20"/>
      <use x="100.390625" xlink:href="#BitstreamVeraSans-Roman-28"/>
      <use x="139.404296875" xlink:href="#BitstreamVeraSans-Roman-54"/>
      <use x="200.48828125" xlink:href="#BitstreamVeraSans-Roman-29"/>
     </g>
    </g>
   </g>
   <g id="matplotlib.axis_8">
    <g id="ytick_19">
     <g id="line2d_103">
      <g>
       <use style="stroke:#000000;stroke-width:0.5;" x="348.844921875" xlink:href="#m728421d6d4" y="538.2"/>
      </g>
     </g>
     <g id="line2d_104">
      <g>
       <use style="stroke:#000000;stroke-width:0.5;" x="558.0140625" xlink:href="#mcb0005524f" y="538.2"/>
      </g>
     </g>
     <g id="text_58">
      <!-- -1.00e+01 -->
      <g transform="translate(293.126171875 540.959375)scale(0.1 -0.1)">
       <use xlink:href="#BitstreamVeraSans-Roman-2d"/>
       <use x="36.083984375" xlink:href="#BitstreamVeraSans-Roman-31"/>
       <use x="99.70703125" xlink:href="#BitstreamVeraSans-Roman-2e"/>
       <use x="131.494140625" xlink:href="#BitstreamVeraSans-Roman-30"/>
       <use x="195.1171875" xlink:href="#BitstreamVeraSans-Roman-30"/>
       <use x="258.740234375" xlink:href="#BitstreamVeraSans-Roman-65"/>
       <use x="320.263671875" xlink:href="#BitstreamVeraSans-Roman-2b"/>
       <use x="404.052734375" xlink:href="#BitstreamVeraSans-Roman-30"/>
       <use x="467.67578125" xlink:href="#BitstreamVeraSans-Roman-31"/>
      </g>
     </g>
    </g>
    <g id="ytick_20">
     <g id="line2d_105">
      <g>
       <use style="stroke:#000000;stroke-width:0.5;" x="348.844921875" xlink:href="#m728421d6d4" y="490.14"/>
      </g>
     </g>
     <g id="line2d_106">
      <g>
       <use style="stroke:#000000;stroke-width:0.5;" x="558.0140625" xlink:href="#mcb0005524f" y="490.14"/>
      </g>
     </g>
     <g id="text_59">
      <!-- -5.00e+00 -->
      <g transform="translate(292.866796875 492.899375)scale(0.1 -0.1)">
       <use xlink:href="#BitstreamVeraSans-Roman-2d"/>
       <use x="36.083984375" xlink:href="#BitstreamVeraSans-Roman-35"/>
       <use x="99.70703125" xlink:href="#BitstreamVeraSans-Roman-2e"/>
       <use x="131.494140625" xlink:href="#BitstreamVeraSans-Roman-30"/>
       <use x="195.1171875" xlink:href="#BitstreamVeraSans-Roman-30"/>
       <use x="258.740234375" xlink:href="#BitstreamVeraSans-Roman-65"/>
       <use x="320.263671875" xlink:href="#BitstreamVeraSans-Roman-2b"/>
       <use x="404.052734375" xlink:href="#BitstreamVeraSans-Roman-30"/>
       <use x="467.67578125" xlink:href="#BitstreamVeraSans-Roman-30"/>
      </g>
     </g>
    </g>
    <g id="ytick_21">
     <g id="line2d_107">
      <g>
       <use style="stroke:#000000;stroke-width:0.5;" x="348.844921875" xlink:href="#m728421d6d4" y="442.08"/>
      </g>
     </g>
     <g id="line2d_108">
      <g>
       <use style="stroke:#000000;stroke-width:0.5;" x="558.0140625" xlink:href="#mcb0005524f" y="442.08"/>
      </g>
     </g>
     <g id="text_60">
      <!-- 0.00e+00 -->
      <g transform="translate(296.644921875 444.839375)scale(0.1 -0.1)">
       <use xlink:href="#BitstreamVeraSans-Roman-30"/>
       <use x="63.623046875" xlink:href="#BitstreamVeraSans-Roman-2e"/>
       <use x="95.41015625" xlink:href="#BitstreamVeraSans-Roman-30"/>
       <use x="159.033203125" xlink:href="#BitstreamVeraSans-Roman-30"/>
       <use x="222.65625" xlink:href="#BitstreamVeraSans-Roman-65"/>
       <use x="284.1796875" xlink:href="#BitstreamVeraSans-Roman-2b"/>
       <use x="367.96875" xlink:href="#BitstreamVeraSans-Roman-30"/>
       <use x="431.591796875" xlink:href="#BitstreamVeraSans-Roman-30"/>
      </g>
     </g>
    </g>
    <g id="ytick_22">
     <g id="line2d_109">
      <g>
       <use style="stroke:#000000;stroke-width:0.5;" x="348.844921875" xlink:href="#m728421d6d4" y="394.02"/>
      </g>
     </g>
     <g id="line2d_110">
      <g>
       <use style="stroke:#000000;stroke-width:0.5;" x="558.0140625" xlink:href="#mcb0005524f" y="394.02"/>
      </g>
     </g>
     <g id="text_61">
      <!-- 5.00e+00 -->
      <g transform="translate(296.757421875 396.779375)scale(0.1 -0.1)">
       <use xlink:href="#BitstreamVeraSans-Roman-35"/>
       <use x="63.623046875" xlink:href="#BitstreamVeraSans-Roman-2e"/>
       <use x="95.41015625" xlink:href="#BitstreamVeraSans-Roman-30"/>
       <use x="159.033203125" xlink:href="#BitstreamVeraSans-Roman-30"/>
       <use x="222.65625" xlink:href="#BitstreamVeraSans-Roman-65"/>
       <use x="284.1796875" xlink:href="#BitstreamVeraSans-Roman-2b"/>
       <use x="367.96875" xlink:href="#BitstreamVeraSans-Roman-30"/>
       <use x="431.591796875" xlink:href="#BitstreamVeraSans-Roman-30"/>
      </g>
     </g>
    </g>
    <g id="ytick_23">
     <g id="line2d_111">
      <g>
       <use style="stroke:#000000;stroke-width:0.5;" x="348.844921875" xlink:href="#m728421d6d4" y="345.96"/>
      </g>
     </g>
     <g id="line2d_112">
      <g>
       <use style="stroke:#000000;stroke-width:0.5;" x="558.0140625" xlink:href="#mcb0005524f" y="345.96"/>
      </g>
     </g>
     <g id="text_62">
      <!-- 1.00e+01 -->
      <g transform="translate(297.343359375 348.719375)scale(0.1 -0.1)">
       <use xlink:href="#BitstreamVeraSans-Roman-31"/>
       <use x="63.623046875" xlink:href="#BitstreamVeraSans-Roman-2e"/>
       <use x="95.41015625" xlink:href="#BitstreamVeraSans-Roman-30"/>
       <use x="159.033203125" xlink:href="#BitstreamVeraSans-Roman-30"/>
       <use x="222.65625" xlink:href="#BitstreamVeraSans-Roman-65"/>
       <use x="284.1796875" xlink:href="#BitstreamVeraSans-Roman-2b"/>
       <use x="367.96875" xlink:href="#BitstreamVeraSans-Roman-30"/>
       <use x="431.591796875" xlink:href="#BitstreamVeraSans-Roman-31"/>
      </g>
     </g>
    </g>
    <g id="ytick_24">
     <g id="line2d_113">
      <g>
       <use style="stroke:#000000;stroke-width:0.5;" x="348.844921875" xlink:href="#m728421d6d4" y="297.9"/>
      </g>
     </g>
     <g id="line2d_114">
      <g>
       <use style="stroke:#000000;stroke-width:0.5;" x="558.0140625" xlink:href="#mcb0005524f" y="297.9"/>
      </g>
     </g>
     <g id="text_63">
      <!-- 1.50e+01 -->
      <g transform="translate(297.343359375 300.659375)scale(0.1 -0.1)">
       <use xlink:href="#BitstreamVeraSans-Roman-31"/>
       <use x="63.623046875" xlink:href="#BitstreamVeraSans-Roman-2e"/>
       <use x="95.41015625" xlink:href="#BitstreamVeraSans-Roman-35"/>
       <use x="159.033203125" xlink:href="#BitstreamVeraSans-Roman-30"/>
       <use x="222.65625" xlink:href="#BitstreamVeraSans-Roman-65"/>
       <use x="284.1796875" xlink:href="#BitstreamVeraSans-Roman-2b"/>
       <use x="367.96875" xlink:href="#BitstreamVeraSans-Roman-30"/>
       <use x="431.591796875" xlink:href="#BitstreamVeraSans-Roman-31"/>
      </g>
     </g>
    </g>
    <g id="text_64">
     <!-- M/Mr -->
     <g transform="translate(285.787109375 429.92734375)rotate(-90.0)scale(0.1 -0.1)">
      <use xlink:href="#BitstreamVeraSans-Roman-4d"/>
      <use x="86.279296875" xlink:href="#BitstreamVeraSans-Roman-2f"/>
      <use x="119.970703125" xlink:href="#BitstreamVeraSans-Roman-4d"/>
      <use x="206.25" xlink:href="#BitstreamVeraSans-Roman-72"/>
     </g>
    </g>
   </g>
  </g>
 </g>
 <defs>
  <clipPath id="p575eafbdb7">
   <rect height="240.3" width="209.169140625" x="51.553125" y="15.3"/>
  </clipPath>
  <clipPath id="pf6d0c8c03a">
   <rect height="240.3" width="209.169140625" x="348.844921875" y="15.3"/>
  </clipPath>
  <clipPath id="paff2b45af7">
   <rect height="240.3" width="209.169140625" x="51.553125" y="297.9"/>
  </clipPath>
  <clipPath id="p53b581af22">
   <rect height="240.3" width="209.169140625" x="348.844921875" y="297.9"/>
  </clipPath>
 </defs>
</svg>
