<?xml version="1.0" encoding="utf-8" standalone="no"?>
<!DOCTYPE svg PUBLIC "-//W3C//DTD SVG 1.1//EN"
  "http://www.w3.org/Graphics/SVG/1.1/DTD/svg11.dtd">
<!-- Created with matplotlib (http://matplotlib.org/) -->
<svg height="216pt" version="1.1" viewBox="0 0 648 216" width="648pt" xmlns="http://www.w3.org/2000/svg" xmlns:xlink="http://www.w3.org/1999/xlink">
 <defs>
  <style type="text/css">
*{stroke-linecap:butt;stroke-linejoin:round;}
  </style>
 </defs>
 <g id="figure_1">
  <g id="patch_1">
   <path d="
M0 216
L648 216
L648 0
L0 0
z
" style="fill:#ffffff;"/>
  </g>
  <g id="axes_1">
   <g id="patch_2">
    <path d="
M43.6219 178.2
L199.162 178.2
L199.162 15.3
L43.6219 15.3
z
" style="fill:#ffffff;"/>
   </g>
   <g id="line2d_1">
    <path clip-path="url(#p8f28e50375)" d="
M56.7391 178.2
L62.969 177.972
L64.7768 177.776
L69.3631 177.125
L69.5421 177.06
L70.5371 176.832
L70.6731 176.701
L71.8381 176.408
L73.0297 176.147
L73.1411 176.082
L73.5051 175.952
L74.8856 175.594
L74.9052 175.528
L75.7395 175.398
L75.9991 175.268
L77.2899 174.844
L77.4623 174.681
L78.0935 174.356
L78.1228 174.323
L78.6519 174.127
L78.8833 173.965
L79.3115 173.802
L79.3546 173.737
L79.9089 173.476
L79.9638 173.378
L80.4264 173.215
L80.4741 173.118
L81.0306 172.889
L83.0947 171.717
L83.2831 171.554
L84.9863 170.446
L85.1923 170.283
L85.3526 169.957
L85.7513 169.631
L85.8354 169.501
L86.0457 169.273
L86.9867 168.426
L87.1115 168.231
L87.9845 167.351
L88.3258 166.96
L88.5389 166.634
L90.275 163.734
L90.3497 163.506
L90.4889 163.344
L93.1346 159.271
L94.1649 157.316
L94.3455 157.056
L94.495 156.762
L94.763 156.404
L94.9338 156.078
L95.2384 155.427
L95.3759 155.231
L96.0855 153.928
L96.247 153.602
L96.9485 151.615
L97.0388 151.484
L97.1951 151.061
L99.7425 145.783
L99.8909 145.392
L100.288 144.252
L100.437 143.828
L100.54 143.47
L102.534 138.289
L102.608 138.094
L102.772 137.54
L102.894 137.312
L103.109 136.693
L103.433 135.651
L103.554 135.162
L103.798 134.412
L103.911 134.152
L104.016 133.761
L104.29 132.946
L104.882 130.894
L105.017 130.535
L105.323 129.786
L105.414 129.525
L105.557 129.069
L105.699 128.809
L105.889 128.125
L106.043 127.701
L107.085 124.215
L107.2 123.922
L107.357 123.466
L107.538 123.009
L107.977 121.38
L108.117 120.924
L108.502 119.686
L109.005 117.927
L109.149 117.471
L109.668 116.103
L109.729 115.94
L109.905 115.386
L110.833 112.616
L111.041 111.867
L111.669 109.847
L111.865 109.065
L112.014 108.87
L112.231 107.827
L112.468 107.045
L112.59 106.654
L115.62 96.9781
L116.012 95.4142
L116.125 95.2187
L116.242 94.6323
L116.862 92.5798
L116.982 92.1888
L117.222 91.3417
L117.335 91.1137
L117.467 90.7879
L117.857 89.3543
L117.929 89.1914
L119.605 83.0012
L119.696 82.8383
L120.575 79.5803
L121.074 78.3423
L121.455 76.9739
L122.926 72.6734
L123.04 72.315
L123.752 70.4905
L123.855 70.1973
L124.387 68.5683
L125.084 65.9619
L125.229 65.6035
L125.585 64.2677
L126.099 62.8342
L126.284 62.4433
L126.661 61.2704
L126.715 61.1075
L127.122 59.9346
L127.66 58.2404
L127.844 57.4585
L127.983 57.1979
L128.225 56.644
L129.182 54.1028
L129.32 53.9399
L129.467 53.7444
L129.585 53.3534
L129.806 52.8647
L129.945 52.4738
L130.087 52.2131
L130.144 51.8548
L130.34 51.3661
L130.851 50.128
L130.979 49.7045
L131.204 49.3135
L131.409 48.7271
L131.723 47.88
L131.826 47.6845
L132.071 46.9352
L132.209 46.5116
L132.336 46.251
L132.448 45.9252
L133.005 44.622
L133.091 44.2962
L133.219 44.1333
L133.475 43.612
L133.619 43.3188
L133.747 43.0256
L133.874 42.6672
L133.983 42.3414
L134.194 41.755
L134.563 40.8427
L134.698 40.6798
L134.979 40.0282
L135.31 39.5069
L135.468 39.0834
L135.691 38.7902
L135.777 38.6273
L135.943 38.2037
L136.09 37.9757
L136.202 37.7802
L136.369 37.2915
L136.631 36.8354
L136.725 36.477
L137.026 35.9231
L137.154 35.7277
L137.245 35.5648
L137.44 35.239
L137.604 34.9132
L137.711 34.6851
L137.908 34.3593
L138.066 34.229
L138.401 33.9358
L138.513 33.6425
L138.708 33.4796
L138.804 33.1864
L138.943 33.0235
L139.144 32.8606
L139.346 32.7303
L139.678 32.3393
L139.837 32.0461
L139.978 31.8506
L140.074 31.5574
L140.322 31.1013
L140.595 30.6778
L140.88 30.4823
L141.205 30.0262
L141.855 29.0813
L142.191 28.8533
L142.302 28.6904
L142.513 28.4623
L142.533 28.4297
L142.808 28.2668
L143.451 27.2569
L144.913 25.6604
L144.94 25.5953
L145.239 25.4324
L145.408 25.2043
L145.582 25.074
L145.868 24.9111
L145.943 24.8134
L146.546 24.3572
L146.624 24.2269
L146.976 24.0314
L147.615 23.3473
L147.803 23.1518
L148.197 22.8586
L148.534 22.6957
L148.947 22.3699
L149.178 22.1418
L149.651 21.7834
L149.769 21.6857
L150.461 21.1318
L151.236 20.6431
L151.789 20.4802
L153.034 19.6657
L153.388 19.5028
L155.781 18.4928
L155.87 18.3625
L156.78 18.0693
L157.191 17.9064
L157.446 17.8412
L158.918 17.4177
L159.032 17.3525
L159.557 17.1896
L160.537 16.8964
L161.707 16.7009
L161.935 16.6358
L163.776 16.3751
L164.005 16.31
L165.464 16.1471
L166.826 15.9516
L166.957 15.919
L180.812 15.4303
L191.214 15.3326
L191.214 15.3326" style="fill:none;stroke:#ff0000;stroke-linecap:square;"/>
   </g>
   <g id="line2d_2">
    <path clip-path="url(#p8f28e50375)" d="
M78.6519 178.2
L78.6519 15.3" style="fill:none;stroke:#ff0000;stroke-linecap:square;"/>
   </g>
   <g id="line2d_3">
    <path clip-path="url(#p8f28e50375)" d="
M153.572 178.2
L153.572 15.3" style="fill:none;stroke:#ff0000;stroke-linecap:square;"/>
   </g>
   <g id="line2d_4">
    <path clip-path="url(#p8f28e50375)" d="
M59.6376 178.2
L59.7369 178.167
L71.0137 178.037
L71.1336 178.005
L74.0699 177.842
L76.0989 177.614
L76.138 177.581
L80.1167 177.157
L82.0244 176.864
L82.1441 176.799
L82.2571 176.766
L83.3172 176.604
L84.287 176.376
L84.3481 176.31
L84.8302 176.147
L84.8439 176.115
L85.4425 175.887
L85.5312 175.756
L86.3494 175.528
L86.4234 175.398
L86.4718 175.366
L87.0004 175.203
L87.2597 175.007
L87.6445 174.779
L88.5958 174.616
L88.9013 174.421
L89.4652 173.997
L89.6691 173.834
L89.7871 173.671
L91.258 172.759
L91.2662 172.727
L91.8225 172.531
L91.905 172.336
L92.3108 172.075
L92.922 171.521
L93.7048 170.479
L93.8799 170.348
L93.9991 170.185
L94.2227 169.957
L94.5112 169.403
L94.9537 168.98
L95.0797 168.85
L95.2242 168.687
L95.305 168.524
L95.5207 168.361
L95.7212 168.035
L95.8815 167.84
L96.2581 167.383
L96.4152 167.188
L96.5798 166.83
L96.7274 166.504
L96.8588 166.341
L97.0681 166.015
L97.1682 165.82
L97.4725 165.494
L97.6423 165.266
L97.8646 165.005
L98.0137 164.777
L98.3602 164.256
L98.4699 164.028
L99.0059 162.92
L99.463 162.334
L99.6437 161.845
L100.03 160.9
L100.219 160.476
L102.64 156.339
L102.71 156.176
L102.843 156.013
L103.649 154.123
L103.721 153.928
L104.004 153.309
L104.18 153.048
L104.311 152.56
L104.805 151.615
L104.884 151.387
L104.983 150.996
L105.051 150.735
L105.289 150.312
L105.548 149.627
L105.87 148.65
L105.941 148.422
L106.109 147.901
L106.318 147.314
L106.491 146.695
L106.599 146.5
L106.684 146.337
L106.773 146.141
L106.935 145.653
L107.411 144.317
L107.566 143.893
L107.747 143.372
L107.855 143.111
L108.681 140.733
L108.799 140.538
L108.971 140.114
L109.055 139.853
L109.25 139.593
L110.244 136.27
L110.382 135.813
L110.531 135.357
L110.663 134.966
L110.815 134.217
L111.085 133.435
L111.218 133.142
L111.419 132.49
L111.524 132.132
L113.054 126.658
L113.141 126.496
L115.463 117.927
L115.649 116.982
L115.881 116.233
L116.7 113.235
L116.812 112.845
L116.968 112.128
L117.016 111.965
L117.146 111.346
L118.473 106.263
L118.578 105.677
L118.646 105.416
L118.785 104.928
L118.86 104.569
L121.651 94.4368
L121.787 94.2088
L122.089 92.7101
L122.152 92.4494
L122.253 92.2865
L122.34 92.0911
L123.944 85.7705
L124.371 84.2067
L124.644 82.9687
L124.724 82.8058
L124.887 82.089
L125.005 81.6329
L125.115 81.3071
L125.242 80.6555
L128.522 69.0244
L128.646 68.4706
L128.735 68.2751
L128.886 67.7538
L129.033 67.2651
L129.22 66.809
L129.384 65.9945
L129.494 65.7013
L129.754 64.789
L130.123 63.1926
L130.279 62.6387
L130.412 62.3781
L130.683 61.531
L130.789 61.303
L130.944 60.7165
L131.022 60.521
L131.1 60.293
L131.223 60.0975
L131.948 57.6866
L132.072 57.3934
L132.448 56.025
L132.616 55.5037
L132.721 55.015
L133.221 53.3534
L133.326 52.9299
L133.396 52.7018
L133.545 52.1806
L133.7 51.7244
L133.802 51.3986
L134.201 50.0954
L134.305 49.8348
L134.404 49.5742
L134.589 48.8574
L134.73 48.5968
L134.887 48.271
L137.475 41.2011
L137.614 41.0382
L137.757 40.6472
L137.979 40.1911
L138.238 39.6373
L138.459 39.4092
L138.616 39.1811
L139.273 37.9757
L139.389 37.715
L139.488 37.487
L139.694 37.1286
L139.794 36.9005
L139.996 36.6073
L140.105 36.4118
L140.222 36.086
L140.522 35.6625
L140.712 35.1738
L140.821 35.0435
L141.173 34.5874
L141.288 34.3267
L141.468 33.838
L141.582 33.5448
L142.224 32.4045
L142.55 31.8832
L142.826 31.3294
L143.078 31.0687
L143.142 30.7755
L143.272 30.5149
L143.39 30.352
L143.69 30.0587
L144.478 29.0162
L144.638 28.8207
L145.254 27.8433
L145.531 27.6804
L145.666 27.3546
L145.851 27.094
L145.985 26.8985
L146.075 26.6378
L146.245 26.4424
L146.489 26.1491
L146.636 25.9862
L147.193 25.2369
L147.296 25.1392
L150.937 21.8812
L151.265 21.6857
L151.702 21.197
L152.292 20.9689
L152.346 20.8712
L152.762 20.6105
L153.094 20.4476
L153.464 20.3173
L153.552 20.2196
L154.239 19.6331
L154.354 19.4702
L154.653 19.2422
L155.588 18.6883
L156.318 18.5254
L156.327 18.4928
L156.866 18.2648
L156.91 18.1996
L160.768 16.9616
L160.788 16.929
L163.684 16.2122
L164.014 16.1145
L166.906 15.8864
L166.965 15.8539
L171.05 15.5281
L173.44 15.3652
L173.878 15.3326
L173.878 15.3326" style="fill:none;stroke:#0000ff;stroke-linecap:square;"/>
   </g>
   <g id="line2d_5">
    <path clip-path="url(#p8f28e50375)" d="
M89.3209 178.2
L89.3209 15.3" style="fill:none;stroke:#0000ff;stroke-dasharray:6.000000,6.000000;stroke-dashoffset:0.0;"/>
   </g>
   <g id="line2d_6">
    <path clip-path="url(#p8f28e50375)" d="
M154.443 178.2
L154.443 15.3" style="fill:none;stroke:#0000ff;stroke-dasharray:6.000000,6.000000;stroke-dashoffset:0.0;"/>
   </g>
   <g id="patch_3">
    <path d="
M43.6219 15.3
L199.162 15.3" style="fill:none;stroke:#000000;stroke-linecap:square;stroke-linejoin:miter;"/>
   </g>
   <g id="patch_4">
    <path d="
M199.162 178.2
L199.162 15.3" style="fill:none;stroke:#000000;stroke-linecap:square;stroke-linejoin:miter;"/>
   </g>
   <g id="patch_5">
    <path d="
M43.6219 178.2
L199.162 178.2" style="fill:none;stroke:#000000;stroke-linecap:square;stroke-linejoin:miter;"/>
   </g>
   <g id="patch_6">
    <path d="
M43.6219 178.2
L43.6219 15.3" style="fill:none;stroke:#000000;stroke-linecap:square;stroke-linejoin:miter;"/>
   </g>
   <g id="matplotlib.axis_1">
    <g id="xtick_1">
     <g id="line2d_7">
      <defs>
       <path d="
M0 0
L0 -4" id="m93b0483c22" style="stroke:#000000;stroke-width:0.5;"/>
      </defs>
      <g>
       <use style="stroke:#000000;stroke-width:0.5;" x="43.621875" xlink:href="#m93b0483c22" y="178.2"/>
      </g>
     </g>
     <g id="line2d_8">
      <defs>
       <path d="
M0 0
L0 4" id="m741efc42ff" style="stroke:#000000;stroke-width:0.5;"/>
      </defs>
      <g>
       <use style="stroke:#000000;stroke-width:0.5;" x="43.621875" xlink:href="#m741efc42ff" y="15.3"/>
      </g>
     </g>
     <g id="text_1">
      <!-- −0.74 -->
      <defs>
       <path d="
M10.5938 35.5
L73.1875 35.5
L73.1875 27.2031
L10.5938 27.2031
z
" id="BitstreamVeraSans-Roman-2212"/>
       <path d="
M31.7812 66.4062
Q24.1719 66.4062 20.3281 58.9062
Q16.5 51.4219 16.5 36.375
Q16.5 21.3906 20.3281 13.8906
Q24.1719 6.39062 31.7812 6.39062
Q39.4531 6.39062 43.2812 13.8906
Q47.125 21.3906 47.125 36.375
Q47.125 51.4219 43.2812 58.9062
Q39.4531 66.4062 31.7812 66.4062
M31.7812 74.2188
Q44.0469 74.2188 50.5156 64.5156
Q56.9844 54.8281 56.9844 36.375
Q56.9844 17.9688 50.5156 8.26562
Q44.0469 -1.42188 31.7812 -1.42188
Q19.5312 -1.42188 13.0625 8.26562
Q6.59375 17.9688 6.59375 36.375
Q6.59375 54.8281 13.0625 64.5156
Q19.5312 74.2188 31.7812 74.2188" id="BitstreamVeraSans-Roman-30"/>
       <path d="
M10.6875 12.4062
L21 12.4062
L21 0
L10.6875 0
z
" id="BitstreamVeraSans-Roman-2e"/>
       <path d="
M8.20312 72.9062
L55.0781 72.9062
L55.0781 68.7031
L28.6094 0
L18.3125 0
L43.2188 64.5938
L8.20312 64.5938
z
" id="BitstreamVeraSans-Roman-37"/>
       <path d="
M37.7969 64.3125
L12.8906 25.3906
L37.7969 25.3906
z

M35.2031 72.9062
L47.6094 72.9062
L47.6094 25.3906
L58.0156 25.3906
L58.0156 17.1875
L47.6094 17.1875
L47.6094 0
L37.7969 0
L37.7969 17.1875
L4.89062 17.1875
L4.89062 26.7031
z
" id="BitstreamVeraSans-Roman-34"/>
      </defs>
      <g transform="translate(29.109375 189.7984375)scale(0.1 -0.1)">
       <use xlink:href="#BitstreamVeraSans-Roman-2212"/>
       <use x="83.7890625" xlink:href="#BitstreamVeraSans-Roman-30"/>
       <use x="147.412109375" xlink:href="#BitstreamVeraSans-Roman-2e"/>
       <use x="179.19921875" xlink:href="#BitstreamVeraSans-Roman-37"/>
       <use x="242.822265625" xlink:href="#BitstreamVeraSans-Roman-34"/>
      </g>
     </g>
    </g>
    <g id="xtick_2">
     <g id="line2d_9">
      <g>
       <use style="stroke:#000000;stroke-width:0.5;" x="65.8419642857" xlink:href="#m93b0483c22" y="178.2"/>
      </g>
     </g>
     <g id="line2d_10">
      <g>
       <use style="stroke:#000000;stroke-width:0.5;" x="65.8419642857" xlink:href="#m741efc42ff" y="15.3"/>
      </g>
     </g>
     <g id="text_2">
      <!-- −0.72 -->
      <defs>
       <path d="
M19.1875 8.29688
L53.6094 8.29688
L53.6094 0
L7.32812 0
L7.32812 8.29688
Q12.9375 14.1094 22.625 23.8906
Q32.3281 33.6875 34.8125 36.5312
Q39.5469 41.8438 41.4219 45.5312
Q43.3125 49.2188 43.3125 52.7812
Q43.3125 58.5938 39.2344 62.25
Q35.1562 65.9219 28.6094 65.9219
Q23.9688 65.9219 18.8125 64.3125
Q13.6719 62.7031 7.8125 59.4219
L7.8125 69.3906
Q13.7656 71.7812 18.9375 73
Q24.125 74.2188 28.4219 74.2188
Q39.75 74.2188 46.4844 68.5469
Q53.2188 62.8906 53.2188 53.4219
Q53.2188 48.9219 51.5312 44.8906
Q49.8594 40.875 45.4062 35.4062
Q44.1875 33.9844 37.6406 27.2188
Q31.1094 20.4531 19.1875 8.29688" id="BitstreamVeraSans-Roman-32"/>
      </defs>
      <g transform="translate(51.5497767857 189.7984375)scale(0.1 -0.1)">
       <use xlink:href="#BitstreamVeraSans-Roman-2212"/>
       <use x="83.7890625" xlink:href="#BitstreamVeraSans-Roman-30"/>
       <use x="147.412109375" xlink:href="#BitstreamVeraSans-Roman-2e"/>
       <use x="179.19921875" xlink:href="#BitstreamVeraSans-Roman-37"/>
       <use x="242.822265625" xlink:href="#BitstreamVeraSans-Roman-32"/>
      </g>
     </g>
    </g>
    <g id="xtick_3">
     <g id="line2d_11">
      <g>
       <use style="stroke:#000000;stroke-width:0.5;" x="88.0620535714" xlink:href="#m93b0483c22" y="178.2"/>
      </g>
     </g>
     <g id="line2d_12">
      <g>
       <use style="stroke:#000000;stroke-width:0.5;" x="88.0620535714" xlink:href="#m741efc42ff" y="15.3"/>
      </g>
     </g>
     <g id="text_3">
      <!-- −0.70 -->
      <g transform="translate(73.6011160714 189.7984375)scale(0.1 -0.1)">
       <use xlink:href="#BitstreamVeraSans-Roman-2212"/>
       <use x="83.7890625" xlink:href="#BitstreamVeraSans-Roman-30"/>
       <use x="147.412109375" xlink:href="#BitstreamVeraSans-Roman-2e"/>
       <use x="179.19921875" xlink:href="#BitstreamVeraSans-Roman-37"/>
       <use x="242.822265625" xlink:href="#BitstreamVeraSans-Roman-30"/>
      </g>
     </g>
    </g>
    <g id="xtick_4">
     <g id="line2d_13">
      <g>
       <use style="stroke:#000000;stroke-width:0.5;" x="110.282142857" xlink:href="#m93b0483c22" y="178.2"/>
      </g>
     </g>
     <g id="line2d_14">
      <g>
       <use style="stroke:#000000;stroke-width:0.5;" x="110.282142857" xlink:href="#m741efc42ff" y="15.3"/>
      </g>
     </g>
     <g id="text_4">
      <!-- −0.68 -->
      <defs>
       <path d="
M31.7812 34.625
Q24.75 34.625 20.7188 30.8594
Q16.7031 27.0938 16.7031 20.5156
Q16.7031 13.9219 20.7188 10.1562
Q24.75 6.39062 31.7812 6.39062
Q38.8125 6.39062 42.8594 10.1719
Q46.9219 13.9688 46.9219 20.5156
Q46.9219 27.0938 42.8906 30.8594
Q38.875 34.625 31.7812 34.625
M21.9219 38.8125
Q15.5781 40.375 12.0312 44.7188
Q8.5 49.0781 8.5 55.3281
Q8.5 64.0625 14.7188 69.1406
Q20.9531 74.2188 31.7812 74.2188
Q42.6719 74.2188 48.875 69.1406
Q55.0781 64.0625 55.0781 55.3281
Q55.0781 49.0781 51.5312 44.7188
Q48 40.375 41.7031 38.8125
Q48.8281 37.1562 52.7969 32.3125
Q56.7812 27.4844 56.7812 20.5156
Q56.7812 9.90625 50.3125 4.23438
Q43.8438 -1.42188 31.7812 -1.42188
Q19.7344 -1.42188 13.25 4.23438
Q6.78125 9.90625 6.78125 20.5156
Q6.78125 27.4844 10.7812 32.3125
Q14.7969 37.1562 21.9219 38.8125
M18.3125 54.3906
Q18.3125 48.7344 21.8438 45.5625
Q25.3906 42.3906 31.7812 42.3906
Q38.1406 42.3906 41.7188 45.5625
Q45.3125 48.7344 45.3125 54.3906
Q45.3125 60.0625 41.7188 63.2344
Q38.1406 66.4062 31.7812 66.4062
Q25.3906 66.4062 21.8438 63.2344
Q18.3125 60.0625 18.3125 54.3906" id="BitstreamVeraSans-Roman-38"/>
       <path d="
M33.0156 40.375
Q26.375 40.375 22.4844 35.8281
Q18.6094 31.2969 18.6094 23.3906
Q18.6094 15.5312 22.4844 10.9531
Q26.375 6.39062 33.0156 6.39062
Q39.6562 6.39062 43.5312 10.9531
Q47.4062 15.5312 47.4062 23.3906
Q47.4062 31.2969 43.5312 35.8281
Q39.6562 40.375 33.0156 40.375
M52.5938 71.2969
L52.5938 62.3125
Q48.875 64.0625 45.0938 64.9844
Q41.3125 65.9219 37.5938 65.9219
Q27.8281 65.9219 22.6719 59.3281
Q17.5312 52.7344 16.7969 39.4062
Q19.6719 43.6562 24.0156 45.9219
Q28.375 48.1875 33.5938 48.1875
Q44.5781 48.1875 50.9531 41.5156
Q57.3281 34.8594 57.3281 23.3906
Q57.3281 12.1562 50.6875 5.35938
Q44.0469 -1.42188 33.0156 -1.42188
Q20.3594 -1.42188 13.6719 8.26562
Q6.98438 17.9688 6.98438 36.375
Q6.98438 53.6562 15.1875 63.9375
Q23.3906 74.2188 37.2031 74.2188
Q40.9219 74.2188 44.7031 73.4844
Q48.4844 72.75 52.5938 71.2969" id="BitstreamVeraSans-Roman-36"/>
      </defs>
      <g transform="translate(95.8313616071 189.7984375)scale(0.1 -0.1)">
       <use xlink:href="#BitstreamVeraSans-Roman-2212"/>
       <use x="83.7890625" xlink:href="#BitstreamVeraSans-Roman-30"/>
       <use x="147.412109375" xlink:href="#BitstreamVeraSans-Roman-2e"/>
       <use x="179.19921875" xlink:href="#BitstreamVeraSans-Roman-36"/>
       <use x="242.822265625" xlink:href="#BitstreamVeraSans-Roman-38"/>
      </g>
     </g>
    </g>
    <g id="xtick_5">
     <g id="line2d_15">
      <g>
       <use style="stroke:#000000;stroke-width:0.5;" x="132.502232143" xlink:href="#m93b0483c22" y="178.2"/>
      </g>
     </g>
     <g id="line2d_16">
      <g>
       <use style="stroke:#000000;stroke-width:0.5;" x="132.502232143" xlink:href="#m741efc42ff" y="15.3"/>
      </g>
     </g>
     <g id="text_5">
      <!-- −0.66 -->
      <g transform="translate(118.024107143 189.7984375)scale(0.1 -0.1)">
       <use xlink:href="#BitstreamVeraSans-Roman-2212"/>
       <use x="83.7890625" xlink:href="#BitstreamVeraSans-Roman-30"/>
       <use x="147.412109375" xlink:href="#BitstreamVeraSans-Roman-2e"/>
       <use x="179.19921875" xlink:href="#BitstreamVeraSans-Roman-36"/>
       <use x="242.822265625" xlink:href="#BitstreamVeraSans-Roman-36"/>
      </g>
     </g>
    </g>
    <g id="xtick_6">
     <g id="line2d_17">
      <g>
       <use style="stroke:#000000;stroke-width:0.5;" x="154.722321429" xlink:href="#m93b0483c22" y="178.2"/>
      </g>
     </g>
     <g id="line2d_18">
      <g>
       <use style="stroke:#000000;stroke-width:0.5;" x="154.722321429" xlink:href="#m741efc42ff" y="15.3"/>
      </g>
     </g>
     <g id="text_6">
      <!-- −0.64 -->
      <g transform="translate(140.209821429 189.7984375)scale(0.1 -0.1)">
       <use xlink:href="#BitstreamVeraSans-Roman-2212"/>
       <use x="83.7890625" xlink:href="#BitstreamVeraSans-Roman-30"/>
       <use x="147.412109375" xlink:href="#BitstreamVeraSans-Roman-2e"/>
       <use x="179.19921875" xlink:href="#BitstreamVeraSans-Roman-36"/>
       <use x="242.822265625" xlink:href="#BitstreamVeraSans-Roman-34"/>
      </g>
     </g>
    </g>
    <g id="xtick_7">
     <g id="line2d_19">
      <g>
       <use style="stroke:#000000;stroke-width:0.5;" x="176.942410714" xlink:href="#m93b0483c22" y="178.2"/>
      </g>
     </g>
     <g id="line2d_20">
      <g>
       <use style="stroke:#000000;stroke-width:0.5;" x="176.942410714" xlink:href="#m741efc42ff" y="15.3"/>
      </g>
     </g>
     <g id="text_7">
      <!-- −0.62 -->
      <g transform="translate(162.650223214 189.7984375)scale(0.1 -0.1)">
       <use xlink:href="#BitstreamVeraSans-Roman-2212"/>
       <use x="83.7890625" xlink:href="#BitstreamVeraSans-Roman-30"/>
       <use x="147.412109375" xlink:href="#BitstreamVeraSans-Roman-2e"/>
       <use x="179.19921875" xlink:href="#BitstreamVeraSans-Roman-36"/>
       <use x="242.822265625" xlink:href="#BitstreamVeraSans-Roman-32"/>
      </g>
     </g>
    </g>
    <g id="xtick_8">
     <g id="line2d_21">
      <g>
       <use style="stroke:#000000;stroke-width:0.5;" x="199.1625" xlink:href="#m93b0483c22" y="178.2"/>
      </g>
     </g>
     <g id="line2d_22">
      <g>
       <use style="stroke:#000000;stroke-width:0.5;" x="199.1625" xlink:href="#m741efc42ff" y="15.3"/>
      </g>
     </g>
     <g id="text_8">
      <!-- −0.60 -->
      <g transform="translate(184.7015625 189.7984375)scale(0.1 -0.1)">
       <use xlink:href="#BitstreamVeraSans-Roman-2212"/>
       <use x="83.7890625" xlink:href="#BitstreamVeraSans-Roman-30"/>
       <use x="147.412109375" xlink:href="#BitstreamVeraSans-Roman-2e"/>
       <use x="179.19921875" xlink:href="#BitstreamVeraSans-Roman-36"/>
       <use x="242.822265625" xlink:href="#BitstreamVeraSans-Roman-30"/>
      </g>
     </g>
    </g>
    <g id="text_9">
     <!-- X component -->
     <defs>
      <path id="BitstreamVeraSans-Roman-20"/>
      <path d="
M54.8906 33.0156
L54.8906 0
L45.9062 0
L45.9062 32.7188
Q45.9062 40.4844 42.875 44.3281
Q39.8438 48.1875 33.7969 48.1875
Q26.5156 48.1875 22.3125 43.5469
Q18.1094 38.9219 18.1094 30.9062
L18.1094 0
L9.07812 0
L9.07812 54.6875
L18.1094 54.6875
L18.1094 46.1875
Q21.3438 51.125 25.7031 53.5625
Q30.0781 56 35.7969 56
Q45.2188 56 50.0469 50.1719
Q54.8906 44.3438 54.8906 33.0156" id="BitstreamVeraSans-Roman-6e"/>
      <path d="
M52 44.1875
Q55.375 50.25 60.0625 53.125
Q64.75 56 71.0938 56
Q79.6406 56 84.2812 50.0156
Q88.9219 44.0469 88.9219 33.0156
L88.9219 0
L79.8906 0
L79.8906 32.7188
Q79.8906 40.5781 77.0938 44.375
Q74.3125 48.1875 68.6094 48.1875
Q61.625 48.1875 57.5625 43.5469
Q53.5156 38.9219 53.5156 30.9062
L53.5156 0
L44.4844 0
L44.4844 32.7188
Q44.4844 40.625 41.7031 44.4062
Q38.9219 48.1875 33.1094 48.1875
Q26.2188 48.1875 22.1562 43.5312
Q18.1094 38.875 18.1094 30.9062
L18.1094 0
L9.07812 0
L9.07812 54.6875
L18.1094 54.6875
L18.1094 46.1875
Q21.1875 51.2188 25.4844 53.6094
Q29.7812 56 35.6875 56
Q41.6562 56 45.8281 52.9688
Q50 49.9531 52 44.1875" id="BitstreamVeraSans-Roman-6d"/>
      <path d="
M30.6094 48.3906
Q23.3906 48.3906 19.1875 42.75
Q14.9844 37.1094 14.9844 27.2969
Q14.9844 17.4844 19.1562 11.8438
Q23.3438 6.20312 30.6094 6.20312
Q37.7969 6.20312 41.9844 11.8594
Q46.1875 17.5312 46.1875 27.2969
Q46.1875 37.0156 41.9844 42.7031
Q37.7969 48.3906 30.6094 48.3906
M30.6094 56
Q42.3281 56 49.0156 48.375
Q55.7188 40.7656 55.7188 27.2969
Q55.7188 13.875 49.0156 6.21875
Q42.3281 -1.42188 30.6094 -1.42188
Q18.8438 -1.42188 12.1719 6.21875
Q5.51562 13.875 5.51562 27.2969
Q5.51562 40.7656 12.1719 48.375
Q18.8438 56 30.6094 56" id="BitstreamVeraSans-Roman-6f"/>
      <path d="
M56.2031 29.5938
L56.2031 25.2031
L14.8906 25.2031
Q15.4844 15.9219 20.4844 11.0625
Q25.4844 6.20312 34.4219 6.20312
Q39.5938 6.20312 44.4531 7.46875
Q49.3125 8.73438 54.1094 11.2812
L54.1094 2.78125
Q49.2656 0.734375 44.1875 -0.34375
Q39.1094 -1.42188 33.8906 -1.42188
Q20.7969 -1.42188 13.1562 6.1875
Q5.51562 13.8125 5.51562 26.8125
Q5.51562 40.2344 12.7656 48.1094
Q20.0156 56 32.3281 56
Q43.3594 56 49.7812 48.8906
Q56.2031 41.7969 56.2031 29.5938
M47.2188 32.2344
Q47.125 39.5938 43.0938 43.9844
Q39.0625 48.3906 32.4219 48.3906
Q24.9062 48.3906 20.3906 44.1406
Q15.875 39.8906 15.1875 32.1719
z
" id="BitstreamVeraSans-Roman-65"/>
      <path d="
M48.7812 52.5938
L48.7812 44.1875
Q44.9688 46.2969 41.1406 47.3438
Q37.3125 48.3906 33.4062 48.3906
Q24.6562 48.3906 19.8125 42.8438
Q14.9844 37.3125 14.9844 27.2969
Q14.9844 17.2812 19.8125 11.7344
Q24.6562 6.20312 33.4062 6.20312
Q37.3125 6.20312 41.1406 7.25
Q44.9688 8.29688 48.7812 10.4062
L48.7812 2.09375
Q45.0156 0.34375 40.9844 -0.53125
Q36.9688 -1.42188 32.4219 -1.42188
Q20.0625 -1.42188 12.7812 6.34375
Q5.51562 14.1094 5.51562 27.2969
Q5.51562 40.6719 12.8594 48.3281
Q20.2188 56 33.0156 56
Q37.1562 56 41.1094 55.1406
Q45.0625 54.2969 48.7812 52.5938" id="BitstreamVeraSans-Roman-63"/>
      <path d="
M6.29688 72.9062
L16.8906 72.9062
L35.0156 45.7969
L53.2188 72.9062
L63.8125 72.9062
L40.375 37.8906
L65.375 0
L54.7812 0
L34.2812 31
L13.625 0
L2.98438 0
L29 38.9219
z
" id="BitstreamVeraSans-Roman-58"/>
      <path d="
M18.3125 70.2188
L18.3125 54.6875
L36.8125 54.6875
L36.8125 47.7031
L18.3125 47.7031
L18.3125 18.0156
Q18.3125 11.3281 20.1406 9.42188
Q21.9688 7.51562 27.5938 7.51562
L36.8125 7.51562
L36.8125 0
L27.5938 0
Q17.1875 0 13.2344 3.875
Q9.28125 7.76562 9.28125 18.0156
L9.28125 47.7031
L2.6875 47.7031
L2.6875 54.6875
L9.28125 54.6875
L9.28125 70.2188
z
" id="BitstreamVeraSans-Roman-74"/>
      <path d="
M18.1094 8.20312
L18.1094 -20.7969
L9.07812 -20.7969
L9.07812 54.6875
L18.1094 54.6875
L18.1094 46.3906
Q20.9531 51.2656 25.2656 53.625
Q29.5938 56 35.5938 56
Q45.5625 56 51.7812 48.0938
Q58.0156 40.1875 58.0156 27.2969
Q58.0156 14.4062 51.7812 6.48438
Q45.5625 -1.42188 35.5938 -1.42188
Q29.5938 -1.42188 25.2656 0.953125
Q20.9531 3.32812 18.1094 8.20312
M48.6875 27.2969
Q48.6875 37.2031 44.6094 42.8438
Q40.5312 48.4844 33.4062 48.4844
Q26.2656 48.4844 22.1875 42.8438
Q18.1094 37.2031 18.1094 27.2969
Q18.1094 17.3906 22.1875 11.75
Q26.2656 6.10938 33.4062 6.10938
Q40.5312 6.10938 44.6094 11.75
Q48.6875 17.3906 48.6875 27.2969" id="BitstreamVeraSans-Roman-70"/>
     </defs>
     <g transform="translate(88.2109375 204.4765625)scale(0.1 -0.1)">
      <use xlink:href="#BitstreamVeraSans-Roman-58"/>
      <use x="68.505859375" xlink:href="#BitstreamVeraSans-Roman-20"/>
      <use x="100.29296875" xlink:href="#BitstreamVeraSans-Roman-63"/>
      <use x="155.2734375" xlink:href="#BitstreamVeraSans-Roman-6f"/>
      <use x="216.455078125" xlink:href="#BitstreamVeraSans-Roman-6d"/>
      <use x="313.8671875" xlink:href="#BitstreamVeraSans-Roman-70"/>
      <use x="377.34375" xlink:href="#BitstreamVeraSans-Roman-6f"/>
      <use x="438.525390625" xlink:href="#BitstreamVeraSans-Roman-6e"/>
      <use x="501.904296875" xlink:href="#BitstreamVeraSans-Roman-65"/>
      <use x="563.427734375" xlink:href="#BitstreamVeraSans-Roman-6e"/>
      <use x="626.806640625" xlink:href="#BitstreamVeraSans-Roman-74"/>
     </g>
    </g>
   </g>
   <g id="matplotlib.axis_2">
    <g id="ytick_1">
     <g id="line2d_23">
      <defs>
       <path d="
M0 0
L4 0" id="m728421d6d4" style="stroke:#000000;stroke-width:0.5;"/>
      </defs>
      <g>
       <use style="stroke:#000000;stroke-width:0.5;" x="43.621875" xlink:href="#m728421d6d4" y="178.2"/>
      </g>
     </g>
     <g id="line2d_24">
      <defs>
       <path d="
M0 0
L-4 0" id="mcb0005524f" style="stroke:#000000;stroke-width:0.5;"/>
      </defs>
      <g>
       <use style="stroke:#000000;stroke-width:0.5;" x="199.1625" xlink:href="#mcb0005524f" y="178.2"/>
      </g>
     </g>
     <g id="text_10">
      <!-- 0.0 -->
      <g transform="translate(25.0421875 180.959375)scale(0.1 -0.1)">
       <use xlink:href="#BitstreamVeraSans-Roman-30"/>
       <use x="63.623046875" xlink:href="#BitstreamVeraSans-Roman-2e"/>
       <use x="95.41015625" xlink:href="#BitstreamVeraSans-Roman-30"/>
      </g>
     </g>
    </g>
    <g id="ytick_2">
     <g id="line2d_25">
      <g>
       <use style="stroke:#000000;stroke-width:0.5;" x="43.621875" xlink:href="#m728421d6d4" y="145.62"/>
      </g>
     </g>
     <g id="line2d_26">
      <g>
       <use style="stroke:#000000;stroke-width:0.5;" x="199.1625" xlink:href="#mcb0005524f" y="145.62"/>
      </g>
     </g>
     <g id="text_11">
      <!-- 0.2 -->
      <g transform="translate(25.3796875 148.379375)scale(0.1 -0.1)">
       <use xlink:href="#BitstreamVeraSans-Roman-30"/>
       <use x="63.623046875" xlink:href="#BitstreamVeraSans-Roman-2e"/>
       <use x="95.41015625" xlink:href="#BitstreamVeraSans-Roman-32"/>
      </g>
     </g>
    </g>
    <g id="ytick_3">
     <g id="line2d_27">
      <g>
       <use style="stroke:#000000;stroke-width:0.5;" x="43.621875" xlink:href="#m728421d6d4" y="113.04"/>
      </g>
     </g>
     <g id="line2d_28">
      <g>
       <use style="stroke:#000000;stroke-width:0.5;" x="199.1625" xlink:href="#mcb0005524f" y="113.04"/>
      </g>
     </g>
     <g id="text_12">
      <!-- 0.4 -->
      <g transform="translate(24.9390625 115.799375)scale(0.1 -0.1)">
       <use xlink:href="#BitstreamVeraSans-Roman-30"/>
       <use x="63.623046875" xlink:href="#BitstreamVeraSans-Roman-2e"/>
       <use x="95.41015625" xlink:href="#BitstreamVeraSans-Roman-34"/>
      </g>
     </g>
    </g>
    <g id="ytick_4">
     <g id="line2d_29">
      <g>
       <use style="stroke:#000000;stroke-width:0.5;" x="43.621875" xlink:href="#m728421d6d4" y="80.46"/>
      </g>
     </g>
     <g id="line2d_30">
      <g>
       <use style="stroke:#000000;stroke-width:0.5;" x="199.1625" xlink:href="#mcb0005524f" y="80.46"/>
      </g>
     </g>
     <g id="text_13">
      <!-- 0.6 -->
      <g transform="translate(25.0078125 83.219375)scale(0.1 -0.1)">
       <use xlink:href="#BitstreamVeraSans-Roman-30"/>
       <use x="63.623046875" xlink:href="#BitstreamVeraSans-Roman-2e"/>
       <use x="95.41015625" xlink:href="#BitstreamVeraSans-Roman-36"/>
      </g>
     </g>
    </g>
    <g id="ytick_5">
     <g id="line2d_31">
      <g>
       <use style="stroke:#000000;stroke-width:0.5;" x="43.621875" xlink:href="#m728421d6d4" y="47.88"/>
      </g>
     </g>
     <g id="line2d_32">
      <g>
       <use style="stroke:#000000;stroke-width:0.5;" x="199.1625" xlink:href="#mcb0005524f" y="47.88"/>
      </g>
     </g>
     <g id="text_14">
      <!-- 0.8 -->
      <g transform="translate(25.0625 50.639375)scale(0.1 -0.1)">
       <use xlink:href="#BitstreamVeraSans-Roman-30"/>
       <use x="63.623046875" xlink:href="#BitstreamVeraSans-Roman-2e"/>
       <use x="95.41015625" xlink:href="#BitstreamVeraSans-Roman-38"/>
      </g>
     </g>
    </g>
    <g id="ytick_6">
     <g id="line2d_33">
      <g>
       <use style="stroke:#000000;stroke-width:0.5;" x="43.621875" xlink:href="#m728421d6d4" y="15.3"/>
      </g>
     </g>
     <g id="line2d_34">
      <g>
       <use style="stroke:#000000;stroke-width:0.5;" x="199.1625" xlink:href="#mcb0005524f" y="15.3"/>
      </g>
     </g>
     <g id="text_15">
      <!-- 1.0 -->
      <defs>
       <path d="
M12.4062 8.29688
L28.5156 8.29688
L28.5156 63.9219
L10.9844 60.4062
L10.9844 69.3906
L28.4219 72.9062
L38.2812 72.9062
L38.2812 8.29688
L54.3906 8.29688
L54.3906 0
L12.4062 0
z
" id="BitstreamVeraSans-Roman-31"/>
      </defs>
      <g transform="translate(25.48125 18.059375)scale(0.1 -0.1)">
       <use xlink:href="#BitstreamVeraSans-Roman-31"/>
       <use x="63.623046875" xlink:href="#BitstreamVeraSans-Roman-2e"/>
       <use x="95.41015625" xlink:href="#BitstreamVeraSans-Roman-30"/>
      </g>
     </g>
    </g>
    <g id="text_16">
     <!-- Cumulative Distribution -->
     <defs>
      <path d="
M41.1094 46.2969
Q39.5938 47.1719 37.8125 47.5781
Q36.0312 48 33.8906 48
Q26.2656 48 22.1875 43.0469
Q18.1094 38.0938 18.1094 28.8125
L18.1094 0
L9.07812 0
L9.07812 54.6875
L18.1094 54.6875
L18.1094 46.1875
Q20.9531 51.1719 25.4844 53.5781
Q30.0312 56 36.5312 56
Q37.4531 56 38.5781 55.875
Q39.7031 55.7656 41.0625 55.5156
z
" id="BitstreamVeraSans-Roman-72"/>
      <path d="
M9.42188 75.9844
L18.4062 75.9844
L18.4062 0
L9.42188 0
z
" id="BitstreamVeraSans-Roman-6c"/>
      <path d="
M19.6719 64.7969
L19.6719 8.10938
L31.5938 8.10938
Q46.6875 8.10938 53.6875 14.9375
Q60.6875 21.7812 60.6875 36.5312
Q60.6875 51.1719 53.6875 57.9844
Q46.6875 64.7969 31.5938 64.7969
z

M9.8125 72.9062
L30.0781 72.9062
Q51.2656 72.9062 61.1719 64.0938
Q71.0938 55.2812 71.0938 36.5312
Q71.0938 17.6719 61.125 8.82812
Q51.1719 0 30.0781 0
L9.8125 0
z
" id="BitstreamVeraSans-Roman-44"/>
      <path d="
M9.42188 54.6875
L18.4062 54.6875
L18.4062 0
L9.42188 0
z

M9.42188 75.9844
L18.4062 75.9844
L18.4062 64.5938
L9.42188 64.5938
z
" id="BitstreamVeraSans-Roman-69"/>
      <path d="
M2.98438 54.6875
L12.5 54.6875
L29.5938 8.79688
L46.6875 54.6875
L56.2031 54.6875
L35.6875 0
L23.4844 0
z
" id="BitstreamVeraSans-Roman-76"/>
      <path d="
M64.4062 67.2812
L64.4062 56.8906
Q59.4219 61.5312 53.7812 63.8125
Q48.1406 66.1094 41.7969 66.1094
Q29.2969 66.1094 22.6562 58.4688
Q16.0156 50.8281 16.0156 36.375
Q16.0156 21.9688 22.6562 14.3281
Q29.2969 6.6875 41.7969 6.6875
Q48.1406 6.6875 53.7812 8.98438
Q59.4219 11.2812 64.4062 15.9219
L64.4062 5.60938
Q59.2344 2.09375 53.4375 0.328125
Q47.6562 -1.42188 41.2188 -1.42188
Q24.6562 -1.42188 15.125 8.70312
Q5.60938 18.8438 5.60938 36.375
Q5.60938 53.9531 15.125 64.0781
Q24.6562 74.2188 41.2188 74.2188
Q47.75 74.2188 53.5312 72.4844
Q59.3281 70.75 64.4062 67.2812" id="BitstreamVeraSans-Roman-43"/>
      <path d="
M8.5 21.5781
L8.5 54.6875
L17.4844 54.6875
L17.4844 21.9219
Q17.4844 14.1562 20.5 10.2656
Q23.5312 6.39062 29.5938 6.39062
Q36.8594 6.39062 41.0781 11.0312
Q45.3125 15.6719 45.3125 23.6875
L45.3125 54.6875
L54.2969 54.6875
L54.2969 0
L45.3125 0
L45.3125 8.40625
Q42.0469 3.42188 37.7188 1
Q33.4062 -1.42188 27.6875 -1.42188
Q18.2656 -1.42188 13.375 4.4375
Q8.5 10.2969 8.5 21.5781" id="BitstreamVeraSans-Roman-75"/>
      <path d="
M34.2812 27.4844
Q23.3906 27.4844 19.1875 25
Q14.9844 22.5156 14.9844 16.5
Q14.9844 11.7188 18.1406 8.90625
Q21.2969 6.10938 26.7031 6.10938
Q34.1875 6.10938 38.7031 11.4062
Q43.2188 16.7031 43.2188 25.4844
L43.2188 27.4844
z

M52.2031 31.2031
L52.2031 0
L43.2188 0
L43.2188 8.29688
Q40.1406 3.32812 35.5469 0.953125
Q30.9531 -1.42188 24.3125 -1.42188
Q15.9219 -1.42188 10.9531 3.29688
Q6 8.01562 6 15.9219
Q6 25.1406 12.1719 29.8281
Q18.3594 34.5156 30.6094 34.5156
L43.2188 34.5156
L43.2188 35.4062
Q43.2188 41.6094 39.1406 45
Q35.0625 48.3906 27.6875 48.3906
Q23 48.3906 18.5469 47.2656
Q14.1094 46.1406 10.0156 43.8906
L10.0156 52.2031
Q14.9375 54.1094 19.5781 55.0469
Q24.2188 56 28.6094 56
Q40.4844 56 46.3438 49.8438
Q52.2031 43.7031 52.2031 31.2031" id="BitstreamVeraSans-Roman-61"/>
      <path d="
M44.2812 53.0781
L44.2812 44.5781
Q40.4844 46.5312 36.375 47.5
Q32.2812 48.4844 27.875 48.4844
Q21.1875 48.4844 17.8438 46.4375
Q14.5 44.3906 14.5 40.2812
Q14.5 37.1562 16.8906 35.375
Q19.2812 33.5938 26.5156 31.9844
L29.5938 31.2969
Q39.1562 29.25 43.1875 25.5156
Q47.2188 21.7812 47.2188 15.0938
Q47.2188 7.46875 41.1875 3.01562
Q35.1562 -1.42188 24.6094 -1.42188
Q20.2188 -1.42188 15.4531 -0.5625
Q10.6875 0.296875 5.42188 2
L5.42188 11.2812
Q10.4062 8.6875 15.2344 7.39062
Q20.0625 6.10938 24.8125 6.10938
Q31.1562 6.10938 34.5625 8.28125
Q37.9844 10.4531 37.9844 14.4062
Q37.9844 18.0625 35.5156 20.0156
Q33.0625 21.9688 24.7031 23.7812
L21.5781 24.5156
Q13.2344 26.2656 9.51562 29.9062
Q5.8125 33.5469 5.8125 39.8906
Q5.8125 47.6094 11.2812 51.7969
Q16.75 56 26.8125 56
Q31.7812 56 36.1719 55.2656
Q40.5781 54.5469 44.2812 53.0781" id="BitstreamVeraSans-Roman-73"/>
      <path d="
M48.6875 27.2969
Q48.6875 37.2031 44.6094 42.8438
Q40.5312 48.4844 33.4062 48.4844
Q26.2656 48.4844 22.1875 42.8438
Q18.1094 37.2031 18.1094 27.2969
Q18.1094 17.3906 22.1875 11.75
Q26.2656 6.10938 33.4062 6.10938
Q40.5312 6.10938 44.6094 11.75
Q48.6875 17.3906 48.6875 27.2969
M18.1094 46.3906
Q20.9531 51.2656 25.2656 53.625
Q29.5938 56 35.5938 56
Q45.5625 56 51.7812 48.0938
Q58.0156 40.1875 58.0156 27.2969
Q58.0156 14.4062 51.7812 6.48438
Q45.5625 -1.42188 35.5938 -1.42188
Q29.5938 -1.42188 25.2656 0.953125
Q20.9531 3.32812 18.1094 8.20312
L18.1094 0
L9.07812 0
L9.07812 75.9844
L18.1094 75.9844
z
" id="BitstreamVeraSans-Roman-62"/>
     </defs>
     <g transform="translate(17.859375 155.62109375)rotate(-90.0)scale(0.1 -0.1)">
      <use xlink:href="#BitstreamVeraSans-Roman-43"/>
      <use x="69.82421875" xlink:href="#BitstreamVeraSans-Roman-75"/>
      <use x="133.203125" xlink:href="#BitstreamVeraSans-Roman-6d"/>
      <use x="230.615234375" xlink:href="#BitstreamVeraSans-Roman-75"/>
      <use x="293.994140625" xlink:href="#BitstreamVeraSans-Roman-6c"/>
      <use x="321.77734375" xlink:href="#BitstreamVeraSans-Roman-61"/>
      <use x="383.056640625" xlink:href="#BitstreamVeraSans-Roman-74"/>
      <use x="422.265625" xlink:href="#BitstreamVeraSans-Roman-69"/>
      <use x="450.048828125" xlink:href="#BitstreamVeraSans-Roman-76"/>
      <use x="509.228515625" xlink:href="#BitstreamVeraSans-Roman-65"/>
      <use x="570.751953125" xlink:href="#BitstreamVeraSans-Roman-20"/>
      <use x="602.5390625" xlink:href="#BitstreamVeraSans-Roman-44"/>
      <use x="679.541015625" xlink:href="#BitstreamVeraSans-Roman-69"/>
      <use x="707.32421875" xlink:href="#BitstreamVeraSans-Roman-73"/>
      <use x="759.423828125" xlink:href="#BitstreamVeraSans-Roman-74"/>
      <use x="798.6328125" xlink:href="#BitstreamVeraSans-Roman-72"/>
      <use x="839.74609375" xlink:href="#BitstreamVeraSans-Roman-69"/>
      <use x="867.529296875" xlink:href="#BitstreamVeraSans-Roman-62"/>
      <use x="931.005859375" xlink:href="#BitstreamVeraSans-Roman-75"/>
      <use x="994.384765625" xlink:href="#BitstreamVeraSans-Roman-74"/>
      <use x="1033.59375" xlink:href="#BitstreamVeraSans-Roman-69"/>
      <use x="1061.37695312" xlink:href="#BitstreamVeraSans-Roman-6f"/>
      <use x="1122.55859375" xlink:href="#BitstreamVeraSans-Roman-6e"/>
     </g>
    </g>
   </g>
  </g>
  <g id="axes_2">
   <g id="patch_7">
    <path d="
M257.367 178.2
L412.908 178.2
L412.908 15.3
L257.367 15.3
z
" style="fill:#ffffff;"/>
   </g>
   <g id="line2d_35">
    <path clip-path="url(#p44efea1c73)" d="
M274.782 178.2
L281.014 178.037
L281.138 178.005
L283.815 177.842
L288.188 177.451
L291.03 176.604
L291.044 176.538
L291.419 176.376
L291.615 176.31
L292.089 176.147
L292.34 176.05
L292.841 175.887
L294.786 174.779
L294.988 174.649
L296.243 174.193
L297.223 173.346
L297.327 173.15
L297.523 172.987
L297.907 172.727
L298.53 172.498
L298.635 172.368
L298.646 172.336
L298.863 172.173
L301.141 169.338
L301.237 169.045
L301.421 168.85
L301.676 168.361
L301.793 168.198
L303.834 165.298
L304.174 165.005
L304.475 164.451
L305.981 160.9
L306.199 160.151
L306.319 159.988
L306.568 159.564
L306.679 159.336
L306.839 159.141
L307.35 158.391
L307.771 157.121
L307.949 156.958
L308.051 156.73
L308.18 156.534
L309.148 154.026
L309.302 153.83
L309.781 152.69
L309.907 152.169
L310.195 151.484
L310.393 150.833
L310.459 150.637
L310.59 150.312
L310.901 149.627
L311.02 149.302
L311.17 148.813
L311.277 148.585
L311.388 148.096
L311.625 147.705
L311.736 147.282
L311.931 146.597
L312.16 145.946
L312.307 145.522
L313.011 143.014
L313.125 142.623
L313.286 141.938
L313.787 140.016
L313.943 139.593
L314.08 138.909
L314.204 138.485
L314.45 137.573
L314.602 137.149
L314.809 136.432
L314.896 136.139
L314.978 135.911
L315.558 133.696
L315.689 133.109
L315.866 132.458
L315.991 131.773
L316.196 131.057
L316.344 130.438
L316.853 128.613
L317.175 127.245
L317.275 126.952
L317.329 126.756
L317.536 125.811
L317.601 125.453
L318.075 123.563
L318.267 122.814
L320.331 114.995
L320.443 114.506
L320.576 114.017
L320.794 113.17
L320.908 112.877
L321.065 112.03
L321.193 111.281
L321.418 110.238
L321.473 109.88
L321.636 109.098
L321.746 108.805
L321.884 107.99
L322.022 107.306
L322.164 106.524
L322.283 105.97
L322.344 105.807
L322.549 104.928
L322.853 103.755
L322.922 103.494
L323.038 102.94
L323.319 101.8
L323.44 101.213
L324.468 97.141
L324.592 96.75
L324.722 96.0984
L325.043 94.8278
L325.193 94.0784
L325.277 93.7201
L325.359 93.3617
L325.462 92.9381
L325.587 92.482
L325.723 91.863
L325.833 91.5046
L326.156 90.3317
L326.956 87.2692
L327.017 87.0412
L327.973 82.9035
L328.078 82.6103
L328.443 81.4374
L328.506 81.1768
L328.579 80.7206
L328.683 80.2645
L328.739 80.069
L328.842 79.6129
L329.074 78.5704
L329.497 76.6156
L329.6 76.192
L329.78 75.4101
L329.927 74.5956
L329.989 74.4001
L330.203 73.2924
L330.308 72.9992
L330.366 72.6734
L330.921 69.7086
L331 69.4805
L331.187 68.4706
L331.245 68.2425
L331.365 67.5909
L331.462 67.3954
L331.608 66.6787
L331.723 66.2225
L332.154 64.3981
L332.209 64.17
L332.533 62.3781
L332.642 61.9871
L332.761 61.7265
L332.932 61.2052
L333.096 60.6839
L333.336 59.9998
L333.444 59.5762
L333.594 58.9572
L333.689 58.5988
L333.869 58.273
L334.005 57.5563
L334.069 57.2956
L334.614 55.7318
L334.667 55.5363
L335.013 54.8195
L335.439 53.2883
L335.573 52.9299
L335.717 52.4738
L336.306 50.7145
L336.428 50.4212
L336.537 50.0303
L336.716 49.5742
L336.901 48.9877
L336.968 48.7922
L337.016 48.4339
L338.179 44.7197
L338.276 44.5243
L338.925 42.7975
L339.104 42.5695
L339.567 41.3314
L339.639 41.1359
L339.771 40.8101
L340.855 37.5521
L340.996 37.096
L341.095 36.868
L341.161 36.6399
L341.282 36.3793
L341.412 36.1186
L341.532 35.9231
L341.768 35.467
L341.981 34.848
L342.366 34.1964
L342.58 33.838
L342.898 32.9584
L343.024 32.7303
L343.146 32.3068
L343.471 31.8832
L343.601 31.6552
L343.854 31.4597
L343.955 31.1665
L344.034 31.0036
L344.534 30.4497
L344.796 30.0913
L345.415 28.951
L345.629 28.6904
L345.693 28.5275
L345.907 28.2994
L346.005 28.1691
L348.465 25.3998
L348.79 25.2043
L348.902 25.0414
L349.414 24.5853
L349.719 24.2921
L349.918 23.9337
L350.378 23.5753
L350.806 23.3798
L350.917 23.2495
L351.201 22.9889
L351.33 22.8586
L353.691 20.7734
L354.026 20.5128
L354.816 19.9264
L355.139 19.796
L355.231 19.6657
L356.058 19.4051
L356.07 19.3725
L356.735 19.177
L356.987 18.949
L357.16 18.8512
L358.788 18.0693
L359.032 17.939
L359.626 17.6458
L360.739 17.2874
L360.819 17.2222
L362.82 16.7661
L364.725 16.3751
L370.193 15.6258
L373.511 15.4303
L390.536 15.3326
L390.536 15.3326" style="fill:none;stroke:#ff0000;stroke-linecap:square;"/>
   </g>
   <g id="line2d_36">
    <path clip-path="url(#p44efea1c73)" d="
M296.294 178.2
L296.294 15.3" style="fill:none;stroke:#ff0000;stroke-linecap:square;"/>
   </g>
   <g id="line2d_37">
    <path clip-path="url(#p44efea1c73)" d="
M356.07 178.2
L356.07 15.3" style="fill:none;stroke:#ff0000;stroke-linecap:square;"/>
   </g>
   <g id="line2d_38">
    <path clip-path="url(#p44efea1c73)" d="
M288.794 178.2
L292.225 178.005
L292.253 177.972
L295.431 177.679
L299.372 176.669
L299.747 176.506
L300.691 175.985
L300.871 175.887
L302.106 175.17
L302.197 175.007
L302.405 174.844
L302.443 174.779
L302.838 174.551
L302.861 174.518
L303.24 174.356
L304.046 173.737
L304.467 173.476
L304.559 173.346
L304.738 173.118
L304.876 172.955
L305.409 172.498
L305.525 172.336
L305.884 172.108
L306.157 171.749
L306.282 171.619
L306.455 171.326
L306.969 170.479
L307.132 170.153
L307.257 169.892
L307.963 168.459
L308.222 168.1
L308.514 167.677
L310.378 163.865
L310.551 163.441
L310.634 163.246
L310.748 162.985
L311.156 162.203
L312.162 159.825
L312.395 159.401
L312.55 159.01
L312.604 158.782
L312.791 158.489
L312.991 158.131
L313.093 157.805
L313.158 157.642
L313.279 157.153
L313.547 156.437
L313.678 156.046
L313.822 155.72
L313.999 155.166
L314.342 154.254
L314.475 153.732
L314.589 153.504
L314.839 152.69
L316.23 147.379
L316.295 147.151
L316.463 146.5
L316.557 146.109
L316.764 145.327
L316.806 145.099
L317.022 143.926
L317.106 143.665
L317.264 142.818
L317.321 142.623
L317.603 141.678
L317.75 141.189
L317.859 140.831
L318.152 139.332
L318.263 138.909
L318.368 138.55
L318.437 138.094
L318.54 137.54
L318.694 136.4
L319.19 134.445
L319.313 133.826
L319.782 131.904
L319.892 131.024
L320.319 128.874
L320.426 128.353
L320.594 127.571
L320.745 126.821
L320.935 125.811
L321.071 125.192
L321.272 124.182
L321.534 122.879
L322.141 119.132
L322.262 118.97
L322.515 117.569
L322.654 116.722
L326.57 95.6097
L326.737 94.6975
L326.777 94.4042
L326.986 93.2314
L327.054 93.0359
L327.997 88.214
L328.102 87.7253
L328.267 86.2918
L328.702 83.9461
L328.902 82.7732
L329.001 82.2519
L329.117 81.5351
L329.443 79.841
L329.545 79.2545
L329.642 79.0265
L329.942 77.5278
L330.045 77.1043
L330.17 76.4201
L330.34 75.8662
L330.522 75.0843
L330.6 74.7585
L330.777 73.8137
L331.458 70.6534
L331.559 70.4579
L331.745 69.5457
L331.939 68.6986
L332.09 68.0144
L332.227 67.037
L332.485 65.6035
L332.557 65.3755
L332.795 64.3003
L332.871 63.9745
L333.419 62.0197
L333.541 61.8242
L333.651 61.3355
L333.771 61.0749
L334.2 58.9898
L334.3 58.5011
L334.409 58.1753
L334.555 57.4911
L334.673 57.0024
L336.903 47.261
L336.996 47.0655
L337.154 46.4791
L337.236 46.1207
L337.606 44.7197
L337.823 43.612
L337.894 43.2862
L338.035 42.993
L338.104 42.8301
L338.206 42.5695
L338.323 42.2762
L338.456 41.6898
L340.95 34.7503
L341.133 34.1638
L341.579 33.4796
L341.701 33.1213
L341.916 32.5674
L342.12 32.2416
L342.867 30.6126
L342.963 30.4823
L343.116 30.3194
L343.427 29.8307
L343.61 29.5375
L343.987 28.8207
L344.152 28.4949
L344.395 28.0388
L345.991 25.465
L346.798 24.683
L347.033 24.3572
L347.202 24.1292
L347.412 23.7708
L347.932 23.054
L348.057 22.9237
L348.467 22.6957
L348.601 22.4676
L348.709 22.207
L348.967 22.0441
L349.07 21.7834
L349.398 21.425
L349.49 21.3599
L349.771 21.1318
L349.913 20.9689
L350.133 20.8386
L350.296 20.6757
L350.498 20.4151
L352.138 18.8512
L352.232 18.7209
L352.53 18.5254
L353.405 18.2648
L353.517 18.1996
L354.029 17.939
L354.301 17.7435
L354.979 17.5154
L355.225 17.2874
L356.187 17.0919
L356.192 17.0593
L356.688 16.8964
L356.755 16.7661
L358.339 16.2448
L358.358 16.2122
L359.722 15.9842
L360.315 15.8213
L366.476 15.3652
L369.631 15.3326
L369.631 15.3326" style="fill:none;stroke:#0000ff;stroke-linecap:square;"/>
   </g>
   <g id="line2d_39">
    <path clip-path="url(#p44efea1c73)" d="
M303.487 178.2
L303.487 15.3" style="fill:none;stroke:#0000ff;stroke-dasharray:6.000000,6.000000;stroke-dashoffset:0.0;"/>
   </g>
   <g id="line2d_40">
    <path clip-path="url(#p44efea1c73)" d="
M351.724 178.2
L351.724 15.3" style="fill:none;stroke:#0000ff;stroke-dasharray:6.000000,6.000000;stroke-dashoffset:0.0;"/>
   </g>
   <g id="patch_8">
    <path d="
M257.367 15.3
L412.908 15.3" style="fill:none;stroke:#000000;stroke-linecap:square;stroke-linejoin:miter;"/>
   </g>
   <g id="patch_9">
    <path d="
M412.908 178.2
L412.908 15.3" style="fill:none;stroke:#000000;stroke-linecap:square;stroke-linejoin:miter;"/>
   </g>
   <g id="patch_10">
    <path d="
M257.367 178.2
L412.908 178.2" style="fill:none;stroke:#000000;stroke-linecap:square;stroke-linejoin:miter;"/>
   </g>
   <g id="patch_11">
    <path d="
M257.367 178.2
L257.367 15.3" style="fill:none;stroke:#000000;stroke-linecap:square;stroke-linejoin:miter;"/>
   </g>
   <g id="matplotlib.axis_3">
    <g id="xtick_9">
     <g id="line2d_41">
      <g>
       <use style="stroke:#000000;stroke-width:0.5;" x="257.3671875" xlink:href="#m93b0483c22" y="178.2"/>
      </g>
     </g>
     <g id="line2d_42">
      <g>
       <use style="stroke:#000000;stroke-width:0.5;" x="257.3671875" xlink:href="#m741efc42ff" y="15.3"/>
      </g>
     </g>
     <g id="text_17">
      <!-- −0.35 -->
      <defs>
       <path d="
M40.5781 39.3125
Q47.6562 37.7969 51.625 33
Q55.6094 28.2188 55.6094 21.1875
Q55.6094 10.4062 48.1875 4.48438
Q40.7656 -1.42188 27.0938 -1.42188
Q22.5156 -1.42188 17.6562 -0.515625
Q12.7969 0.390625 7.625 2.20312
L7.625 11.7188
Q11.7188 9.32812 16.5938 8.10938
Q21.4844 6.89062 26.8125 6.89062
Q36.0781 6.89062 40.9375 10.5469
Q45.7969 14.2031 45.7969 21.1875
Q45.7969 27.6406 41.2812 31.2656
Q36.7656 34.9062 28.7188 34.9062
L20.2188 34.9062
L20.2188 43.0156
L29.1094 43.0156
Q36.375 43.0156 40.2344 45.9219
Q44.0938 48.8281 44.0938 54.2969
Q44.0938 59.9062 40.1094 62.9062
Q36.1406 65.9219 28.7188 65.9219
Q24.6562 65.9219 20.0156 65.0312
Q15.375 64.1562 9.8125 62.3125
L9.8125 71.0938
Q15.4375 72.6562 20.3438 73.4375
Q25.25 74.2188 29.5938 74.2188
Q40.8281 74.2188 47.3594 69.1094
Q53.9062 64.0156 53.9062 55.3281
Q53.9062 49.2656 50.4375 45.0938
Q46.9688 40.9219 40.5781 39.3125" id="BitstreamVeraSans-Roman-33"/>
       <path d="
M10.7969 72.9062
L49.5156 72.9062
L49.5156 64.5938
L19.8281 64.5938
L19.8281 46.7344
Q21.9688 47.4688 24.1094 47.8281
Q26.2656 48.1875 28.4219 48.1875
Q40.625 48.1875 47.75 41.5
Q54.8906 34.8125 54.8906 23.3906
Q54.8906 11.625 47.5625 5.09375
Q40.2344 -1.42188 26.9062 -1.42188
Q22.3125 -1.42188 17.5469 -0.640625
Q12.7969 0.140625 7.71875 1.70312
L7.71875 11.625
Q12.1094 9.23438 16.7969 8.0625
Q21.4844 6.89062 26.7031 6.89062
Q35.1562 6.89062 40.0781 11.3281
Q45.0156 15.7656 45.0156 23.3906
Q45.0156 31 40.0781 35.4375
Q35.1562 39.8906 26.7031 39.8906
Q22.75 39.8906 18.8125 39.0156
Q14.8906 38.1406 10.7969 36.2812
z
" id="BitstreamVeraSans-Roman-35"/>
      </defs>
      <g transform="translate(243.0109375 189.7984375)scale(0.1 -0.1)">
       <use xlink:href="#BitstreamVeraSans-Roman-2212"/>
       <use x="83.7890625" xlink:href="#BitstreamVeraSans-Roman-30"/>
       <use x="147.412109375" xlink:href="#BitstreamVeraSans-Roman-2e"/>
       <use x="179.19921875" xlink:href="#BitstreamVeraSans-Roman-33"/>
       <use x="242.822265625" xlink:href="#BitstreamVeraSans-Roman-35"/>
      </g>
     </g>
    </g>
    <g id="xtick_10">
     <g id="line2d_43">
      <g>
       <use style="stroke:#000000;stroke-width:0.5;" x="288.4753125" xlink:href="#m93b0483c22" y="178.2"/>
      </g>
     </g>
     <g id="line2d_44">
      <g>
       <use style="stroke:#000000;stroke-width:0.5;" x="288.4753125" xlink:href="#m741efc42ff" y="15.3"/>
      </g>
     </g>
     <g id="text_18">
      <!-- −0.30 -->
      <g transform="translate(274.014375 189.7984375)scale(0.1 -0.1)">
       <use xlink:href="#BitstreamVeraSans-Roman-2212"/>
       <use x="83.7890625" xlink:href="#BitstreamVeraSans-Roman-30"/>
       <use x="147.412109375" xlink:href="#BitstreamVeraSans-Roman-2e"/>
       <use x="179.19921875" xlink:href="#BitstreamVeraSans-Roman-33"/>
       <use x="242.822265625" xlink:href="#BitstreamVeraSans-Roman-30"/>
      </g>
     </g>
    </g>
    <g id="xtick_11">
     <g id="line2d_45">
      <g>
       <use style="stroke:#000000;stroke-width:0.5;" x="319.5834375" xlink:href="#m93b0483c22" y="178.2"/>
      </g>
     </g>
     <g id="line2d_46">
      <g>
       <use style="stroke:#000000;stroke-width:0.5;" x="319.5834375" xlink:href="#m741efc42ff" y="15.3"/>
      </g>
     </g>
     <g id="text_19">
      <!-- −0.25 -->
      <g transform="translate(305.2271875 189.7984375)scale(0.1 -0.1)">
       <use xlink:href="#BitstreamVeraSans-Roman-2212"/>
       <use x="83.7890625" xlink:href="#BitstreamVeraSans-Roman-30"/>
       <use x="147.412109375" xlink:href="#BitstreamVeraSans-Roman-2e"/>
       <use x="179.19921875" xlink:href="#BitstreamVeraSans-Roman-32"/>
       <use x="242.822265625" xlink:href="#BitstreamVeraSans-Roman-35"/>
      </g>
     </g>
    </g>
    <g id="xtick_12">
     <g id="line2d_47">
      <g>
       <use style="stroke:#000000;stroke-width:0.5;" x="350.6915625" xlink:href="#m93b0483c22" y="178.2"/>
      </g>
     </g>
     <g id="line2d_48">
      <g>
       <use style="stroke:#000000;stroke-width:0.5;" x="350.6915625" xlink:href="#m741efc42ff" y="15.3"/>
      </g>
     </g>
     <g id="text_20">
      <!-- −0.20 -->
      <g transform="translate(336.230625 189.7984375)scale(0.1 -0.1)">
       <use xlink:href="#BitstreamVeraSans-Roman-2212"/>
       <use x="83.7890625" xlink:href="#BitstreamVeraSans-Roman-30"/>
       <use x="147.412109375" xlink:href="#BitstreamVeraSans-Roman-2e"/>
       <use x="179.19921875" xlink:href="#BitstreamVeraSans-Roman-32"/>
       <use x="242.822265625" xlink:href="#BitstreamVeraSans-Roman-30"/>
      </g>
     </g>
    </g>
    <g id="xtick_13">
     <g id="line2d_49">
      <g>
       <use style="stroke:#000000;stroke-width:0.5;" x="381.7996875" xlink:href="#m93b0483c22" y="178.2"/>
      </g>
     </g>
     <g id="line2d_50">
      <g>
       <use style="stroke:#000000;stroke-width:0.5;" x="381.7996875" xlink:href="#m741efc42ff" y="15.3"/>
      </g>
     </g>
     <g id="text_21">
      <!-- −0.15 -->
      <g transform="translate(367.4434375 189.7984375)scale(0.1 -0.1)">
       <use xlink:href="#BitstreamVeraSans-Roman-2212"/>
       <use x="83.7890625" xlink:href="#BitstreamVeraSans-Roman-30"/>
       <use x="147.412109375" xlink:href="#BitstreamVeraSans-Roman-2e"/>
       <use x="179.19921875" xlink:href="#BitstreamVeraSans-Roman-31"/>
       <use x="242.822265625" xlink:href="#BitstreamVeraSans-Roman-35"/>
      </g>
     </g>
    </g>
    <g id="xtick_14">
     <g id="line2d_51">
      <g>
       <use style="stroke:#000000;stroke-width:0.5;" x="412.9078125" xlink:href="#m93b0483c22" y="178.2"/>
      </g>
     </g>
     <g id="line2d_52">
      <g>
       <use style="stroke:#000000;stroke-width:0.5;" x="412.9078125" xlink:href="#m741efc42ff" y="15.3"/>
      </g>
     </g>
     <g id="text_22">
      <!-- −0.10 -->
      <g transform="translate(398.446875 189.7984375)scale(0.1 -0.1)">
       <use xlink:href="#BitstreamVeraSans-Roman-2212"/>
       <use x="83.7890625" xlink:href="#BitstreamVeraSans-Roman-30"/>
       <use x="147.412109375" xlink:href="#BitstreamVeraSans-Roman-2e"/>
       <use x="179.19921875" xlink:href="#BitstreamVeraSans-Roman-31"/>
       <use x="242.822265625" xlink:href="#BitstreamVeraSans-Roman-30"/>
      </g>
     </g>
    </g>
    <g id="text_23">
     <!-- Y component -->
     <defs>
      <path d="
M-0.203125 72.9062
L10.4062 72.9062
L30.6094 42.9219
L50.6875 72.9062
L61.2812 72.9062
L35.5 34.7188
L35.5 0
L25.5938 0
L25.5938 34.7188
z
" id="BitstreamVeraSans-Roman-59"/>
     </defs>
     <g transform="translate(302.3171875 204.4765625)scale(0.1 -0.1)">
      <use xlink:href="#BitstreamVeraSans-Roman-59"/>
      <use x="61.083984375" xlink:href="#BitstreamVeraSans-Roman-20"/>
      <use x="92.87109375" xlink:href="#BitstreamVeraSans-Roman-63"/>
      <use x="147.8515625" xlink:href="#BitstreamVeraSans-Roman-6f"/>
      <use x="209.033203125" xlink:href="#BitstreamVeraSans-Roman-6d"/>
      <use x="306.4453125" xlink:href="#BitstreamVeraSans-Roman-70"/>
      <use x="369.921875" xlink:href="#BitstreamVeraSans-Roman-6f"/>
      <use x="431.103515625" xlink:href="#BitstreamVeraSans-Roman-6e"/>
      <use x="494.482421875" xlink:href="#BitstreamVeraSans-Roman-65"/>
      <use x="556.005859375" xlink:href="#BitstreamVeraSans-Roman-6e"/>
      <use x="619.384765625" xlink:href="#BitstreamVeraSans-Roman-74"/>
     </g>
    </g>
   </g>
   <g id="matplotlib.axis_4">
    <g id="ytick_7">
     <g id="line2d_53">
      <g>
       <use style="stroke:#000000;stroke-width:0.5;" x="257.3671875" xlink:href="#m728421d6d4" y="178.2"/>
      </g>
     </g>
     <g id="line2d_54">
      <g>
       <use style="stroke:#000000;stroke-width:0.5;" x="412.9078125" xlink:href="#mcb0005524f" y="178.2"/>
      </g>
     </g>
     <g id="text_24">
      <!-- 0.0 -->
      <g transform="translate(238.7875 180.959375)scale(0.1 -0.1)">
       <use xlink:href="#BitstreamVeraSans-Roman-30"/>
       <use x="63.623046875" xlink:href="#BitstreamVeraSans-Roman-2e"/>
       <use x="95.41015625" xlink:href="#BitstreamVeraSans-Roman-30"/>
      </g>
     </g>
    </g>
    <g id="ytick_8">
     <g id="line2d_55">
      <g>
       <use style="stroke:#000000;stroke-width:0.5;" x="257.3671875" xlink:href="#m728421d6d4" y="145.62"/>
      </g>
     </g>
     <g id="line2d_56">
      <g>
       <use style="stroke:#000000;stroke-width:0.5;" x="412.9078125" xlink:href="#mcb0005524f" y="145.62"/>
      </g>
     </g>
     <g id="text_25">
      <!-- 0.2 -->
      <g transform="translate(239.125 148.379375)scale(0.1 -0.1)">
       <use xlink:href="#BitstreamVeraSans-Roman-30"/>
       <use x="63.623046875" xlink:href="#BitstreamVeraSans-Roman-2e"/>
       <use x="95.41015625" xlink:href="#BitstreamVeraSans-Roman-32"/>
      </g>
     </g>
    </g>
    <g id="ytick_9">
     <g id="line2d_57">
      <g>
       <use style="stroke:#000000;stroke-width:0.5;" x="257.3671875" xlink:href="#m728421d6d4" y="113.04"/>
      </g>
     </g>
     <g id="line2d_58">
      <g>
       <use style="stroke:#000000;stroke-width:0.5;" x="412.9078125" xlink:href="#mcb0005524f" y="113.04"/>
      </g>
     </g>
     <g id="text_26">
      <!-- 0.4 -->
      <g transform="translate(238.684375 115.799375)scale(0.1 -0.1)">
       <use xlink:href="#BitstreamVeraSans-Roman-30"/>
       <use x="63.623046875" xlink:href="#BitstreamVeraSans-Roman-2e"/>
       <use x="95.41015625" xlink:href="#BitstreamVeraSans-Roman-34"/>
      </g>
     </g>
    </g>
    <g id="ytick_10">
     <g id="line2d_59">
      <g>
       <use style="stroke:#000000;stroke-width:0.5;" x="257.3671875" xlink:href="#m728421d6d4" y="80.46"/>
      </g>
     </g>
     <g id="line2d_60">
      <g>
       <use style="stroke:#000000;stroke-width:0.5;" x="412.9078125" xlink:href="#mcb0005524f" y="80.46"/>
      </g>
     </g>
     <g id="text_27">
      <!-- 0.6 -->
      <g transform="translate(238.753125 83.219375)scale(0.1 -0.1)">
       <use xlink:href="#BitstreamVeraSans-Roman-30"/>
       <use x="63.623046875" xlink:href="#BitstreamVeraSans-Roman-2e"/>
       <use x="95.41015625" xlink:href="#BitstreamVeraSans-Roman-36"/>
      </g>
     </g>
    </g>
    <g id="ytick_11">
     <g id="line2d_61">
      <g>
       <use style="stroke:#000000;stroke-width:0.5;" x="257.3671875" xlink:href="#m728421d6d4" y="47.88"/>
      </g>
     </g>
     <g id="line2d_62">
      <g>
       <use style="stroke:#000000;stroke-width:0.5;" x="412.9078125" xlink:href="#mcb0005524f" y="47.88"/>
      </g>
     </g>
     <g id="text_28">
      <!-- 0.8 -->
      <g transform="translate(238.8078125 50.639375)scale(0.1 -0.1)">
       <use xlink:href="#BitstreamVeraSans-Roman-30"/>
       <use x="63.623046875" xlink:href="#BitstreamVeraSans-Roman-2e"/>
       <use x="95.41015625" xlink:href="#BitstreamVeraSans-Roman-38"/>
      </g>
     </g>
    </g>
    <g id="ytick_12">
     <g id="line2d_63">
      <g>
       <use style="stroke:#000000;stroke-width:0.5;" x="257.3671875" xlink:href="#m728421d6d4" y="15.3"/>
      </g>
     </g>
     <g id="line2d_64">
      <g>
       <use style="stroke:#000000;stroke-width:0.5;" x="412.9078125" xlink:href="#mcb0005524f" y="15.3"/>
      </g>
     </g>
     <g id="text_29">
      <!-- 1.0 -->
      <g transform="translate(239.2265625 18.059375)scale(0.1 -0.1)">
       <use xlink:href="#BitstreamVeraSans-Roman-31"/>
       <use x="63.623046875" xlink:href="#BitstreamVeraSans-Roman-2e"/>
       <use x="95.41015625" xlink:href="#BitstreamVeraSans-Roman-30"/>
      </g>
     </g>
    </g>
    <g id="text_30">
     <!-- Cumulative Distribution -->
     <g transform="translate(231.6046875 155.62109375)rotate(-90.0)scale(0.1 -0.1)">
      <use xlink:href="#BitstreamVeraSans-Roman-43"/>
      <use x="69.82421875" xlink:href="#BitstreamVeraSans-Roman-75"/>
      <use x="133.203125" xlink:href="#BitstreamVeraSans-Roman-6d"/>
      <use x="230.615234375" xlink:href="#BitstreamVeraSans-Roman-75"/>
      <use x="293.994140625" xlink:href="#BitstreamVeraSans-Roman-6c"/>
      <use x="321.77734375" xlink:href="#BitstreamVeraSans-Roman-61"/>
      <use x="383.056640625" xlink:href="#BitstreamVeraSans-Roman-74"/>
      <use x="422.265625" xlink:href="#BitstreamVeraSans-Roman-69"/>
      <use x="450.048828125" xlink:href="#BitstreamVeraSans-Roman-76"/>
      <use x="509.228515625" xlink:href="#BitstreamVeraSans-Roman-65"/>
      <use x="570.751953125" xlink:href="#BitstreamVeraSans-Roman-20"/>
      <use x="602.5390625" xlink:href="#BitstreamVeraSans-Roman-44"/>
      <use x="679.541015625" xlink:href="#BitstreamVeraSans-Roman-69"/>
      <use x="707.32421875" xlink:href="#BitstreamVeraSans-Roman-73"/>
      <use x="759.423828125" xlink:href="#BitstreamVeraSans-Roman-74"/>
      <use x="798.6328125" xlink:href="#BitstreamVeraSans-Roman-72"/>
      <use x="839.74609375" xlink:href="#BitstreamVeraSans-Roman-69"/>
      <use x="867.529296875" xlink:href="#BitstreamVeraSans-Roman-62"/>
      <use x="931.005859375" xlink:href="#BitstreamVeraSans-Roman-75"/>
      <use x="994.384765625" xlink:href="#BitstreamVeraSans-Roman-74"/>
      <use x="1033.59375" xlink:href="#BitstreamVeraSans-Roman-69"/>
      <use x="1061.37695312" xlink:href="#BitstreamVeraSans-Roman-6f"/>
      <use x="1122.55859375" xlink:href="#BitstreamVeraSans-Roman-6e"/>
     </g>
    </g>
   </g>
  </g>
  <g id="axes_3">
   <g id="patch_12">
    <path d="
M471.112 178.2
L626.653 178.2
L626.653 15.3
L471.112 15.3
z
" style="fill:#ffffff;"/>
   </g>
   <g id="line2d_65">
    <path clip-path="url(#p0c4051fb73)" d="
M477.161 178.2
L477.168 178.167
L489.756 177.744
L494.665 177.418
L495.055 177.288
L495.955 177.092
L495.982 177.027
L497.496 176.506
L497.612 176.441
L497.704 176.376
L499.14 176.18
L500.31 175.789
L501.322 175.626
L503.131 174.812
L503.253 174.714
L504.613 174.03
L504.618 173.997
L504.991 173.834
L505.502 173.606
L506.013 173.443
L506.834 172.759
L507.56 172.401
L508.03 171.945
L508.306 171.749
L508.379 171.586
L508.741 171.358
L509.812 170.544
L509.895 170.479
L510.278 170.316
L510.449 170.153
L510.732 169.99
L510.947 169.729
L511.251 169.534
L511.347 169.371
L511.698 169.11
L512.116 168.589
L512.387 168.459
L512.697 168.133
L513.067 167.905
L513.382 167.579
L513.644 167.351
L514.13 166.504
L514.313 166.308
L515.212 165.298
L515.219 165.266
L515.472 165.103
L515.719 164.777
L515.773 164.516
L516.027 164.386
L516.152 164.125
L516.376 163.8
L516.506 163.604
L517.305 162.855
L517.675 162.464
L518.89 160.933
L519.109 160.476
L519.213 160.346
L519.669 159.695
L519.84 159.499
L520.1 159.01
L520.397 158.75
L520.781 158.391
L520.964 158.163
L521.169 157.74
L521.317 157.349
L521.422 157.121
L521.569 156.893
L521.723 156.599
L522.139 155.98
L523.448 153.537
L523.537 153.276
L523.689 152.95
L523.822 152.592
L524.255 151.875
L524.372 151.647
L524.485 151.354
L525.351 149.562
L525.467 149.236
L525.533 149.008
L525.722 148.487
L526.179 147.51
L526.533 146.532
L526.797 146.011
L526.947 145.587
L527.124 145.001
L527.29 144.512
L527.458 144.382
L527.785 143.796
L528.093 143.209
L528.44 142.492
L528.669 142.004
L528.793 141.71
L528.896 141.417
L529.046 140.994
L529.208 140.766
L529.424 140.081
L529.557 139.918
L529.796 139.169
L530.038 138.615
L530.157 138.42
L530.347 137.801
L530.566 137.214
L531.315 135.39
L531.428 135.26
L531.616 134.608
L534.378 126.886
L534.633 126.105
L534.728 125.811
L536.764 120.338
L536.879 120.045
L536.981 119.621
L537.081 119.328
L537.191 118.839
L537.339 118.351
L537.463 118.122
L538.14 116.363
L538.279 115.777
L538.689 114.408
L538.76 114.18
L538.882 113.887
L539.035 113.496
L539.253 112.714
L539.333 112.454
L539.605 111.411
L539.721 111.248
L539.851 110.466
L540.163 109.326
L540.295 109.196
L541.574 104.602
L541.691 104.309
L541.848 103.755
L541.913 103.559
L541.992 103.266
L542.178 102.68
L542.315 102.419
L542.469 101.767
L542.56 101.409
L542.641 101.181
L542.778 100.692
L542.882 100.497
L543.125 99.3238
L543.221 99.1283
L543.428 98.2161
L544.147 95.9355
L544.269 95.6423
L544.486 94.8604
L544.794 93.6223
L544.921 93.2314
L545.074 92.6775
L545.201 92.4169
L545.35 92.0259
L545.426 91.7653
L545.546 91.4069
L545.636 91.244
L545.774 90.9833
L545.903 90.7879
L546.009 90.2666
L546.121 89.8105
L546.846 87.7253
L546.952 87.367
L547.032 87.0412
L547.169 86.4547
L547.352 85.8357
L547.472 85.3144
L547.594 85.1189
L547.697 84.8257
L548.212 83.1316
L548.329 82.9361
L548.413 82.708
L548.532 82.3171
L548.841 81.2745
L549.182 80.1994
L549.336 79.6781
L549.411 79.4174
L549.507 79.0916
L549.61 78.8636
L550.66 75.8011
L550.786 75.4753
L550.901 75.0843
L551.263 73.8137
L552.715 70.0018
L552.823 69.6109
L552.903 69.3502
L553.048 68.8941
L553.266 68.3077
L553.468 67.6235
L553.525 67.3954
L553.677 66.7764
L553.806 66.3529
L553.907 66.1248
L554.028 65.7013
L554.287 65.0822
L554.414 64.6261
L554.583 64.3003
L554.748 63.779
L554.973 63.2578
L555.161 62.7365
L555.258 62.4107
L555.895 60.8794
L556.006 60.293
L556.092 60.0323
L556.279 59.5436
L556.791 57.8821
L556.935 57.5563
L557.149 57.0676
L557.282 56.9047
L558.456 53.0276
L558.525 52.8322
L560.517 48.271
L560.625 48.1081
L560.847 47.8474
L560.976 47.3913
L561.463 46.3813
L561.561 46.2184
L562.016 45.1107
L562.219 44.6546
L562.56 44.3288
L562.677 44.1659
L562.815 43.8401
L563.025 43.6446
L563.414 42.6672
L563.92 41.5921
L564.15 40.9079
L564.237 40.6472
L564.403 40.3214
L565.157 38.5621
L566.055 37.1286
L566.179 36.8028
L566.328 36.6073
L566.456 36.3467
L566.815 35.5973
L566.975 35.3693
L567.164 35.1412
L567.276 35.0109
L567.383 34.7503
L567.597 34.2941
L567.75 34.1312
L567.896 33.8706
L567.978 33.7077
L568.089 33.5774
L568.845 32.3393
L568.938 32.1439
L569.136 31.981
L569.252 31.8181
L569.416 31.6552
L569.857 31.0036
L570.221 30.7755
L570.552 30.3845
L570.832 30.1565
L571.157 29.6678
L571.26 29.5049
L571.648 29.1791
L571.882 28.9836
L572.005 28.9184
L572.169 28.723
L572.535 28.0714
L573.053 27.5827
L573.705 26.8659
L574.043 26.703
L574.285 26.4098
L574.565 26.2469
L575.014 25.7582
L575.095 25.5953
L575.259 25.4324
L575.398 25.2695
L575.785 24.7808
L575.952 24.5527
L576.338 24.2921
L576.635 23.9989
L576.852 23.8034
L577.601 23.0866
L577.932 22.9563
L578.064 22.8911
L578.268 22.7282
L579.588 21.7834
L579.924 21.6205
L579.948 21.5554
L580.624 21.3599
L580.736 21.1644
L581.012 20.9363
L581.014 20.9038
L582.107 20.5454
L582.411 20.2847
L582.663 20.1218
L582.886 19.8612
L584.036 19.5354
L584.163 19.4702
L584.319 19.3725
L584.682 19.2096
L585.378 18.8186
L585.495 18.7535
L586.484 18.3299
L586.528 18.2648
L586.981 18.0693
L588.781 17.5154
L589.285 17.3851
L589.329 17.3525
L591.179 17.0267
L592.41 16.5055
L594.651 16.1797
L600.227 15.6258
L604.113 15.4303
L604.384 15.3977
L620.577 15.3326
L620.577 15.3326" style="fill:none;stroke:#ff0000;stroke-linecap:square;"/>
   </g>
   <g id="line2d_66">
    <path clip-path="url(#p0c4051fb73)" d="
M504.562 178.2
L504.562 15.3" style="fill:none;stroke:#ff0000;stroke-linecap:square;"/>
   </g>
   <g id="line2d_67">
    <path clip-path="url(#p0c4051fb73)" d="
M584.319 178.2
L584.319 15.3" style="fill:none;stroke:#ff0000;stroke-linecap:square;"/>
   </g>
   <g id="line2d_68">
    <path clip-path="url(#p0c4051fb73)" d="
M479.117 178.2
L491.315 178.037
L499.774 177.548
L499.871 177.516
L503.112 177.385
L503.16 177.353
L504.968 177.06
L505.07 176.995
L505.336 176.832
L505.37 176.799
L505.968 176.604
L506.032 176.571
L507.966 176.343
L508.757 175.919
L508.964 175.756
L509.749 175.561
L509.754 175.528
L510.274 175.333
L510.373 175.268
L511.509 174.747
L511.682 174.518
L512.468 174.29
L512.511 174.225
L513.676 174.03
L513.679 173.997
L514.057 173.834
L514.265 173.737
L514.676 173.574
L516.27 172.759
L517.55 171.684
L517.798 171.554
L517.8 171.521
L518.048 171.358
L518.338 171.065
L518.801 170.902
L519.043 170.576
L519.379 170.446
L519.418 170.348
L519.749 170.153
L519.844 170.055
L520.148 169.827
L520.245 169.762
L520.48 169.599
L520.567 169.469
L520.683 169.306
L520.852 169.175
L521.169 168.85
L521.334 168.687
L523.511 166.145
L523.649 166.015
L523.74 165.787
L524.015 165.526
L524.143 165.363
L524.293 165.135
L524.429 164.907
L524.855 164.484
L525.137 164.125
L525.995 163.115
L526.256 162.953
L526.357 162.822
L526.489 162.659
L526.625 162.301
L527.602 160.737
L527.707 160.574
L527.829 160.411
L527.961 160.118
L528.4 159.499
L528.478 159.401
L528.662 159.206
L528.896 158.815
L529.064 158.619
L529.265 158.294
L529.372 158.066
L529.547 157.87
L529.663 157.642
L529.805 157.349
L530.401 156.339
L530.661 155.948
L530.758 155.655
L530.939 155.264
L531.545 154.579
L531.644 154.417
L533.902 149.692
L534.032 149.269
L534.158 149.073
L534.323 148.552
L534.626 147.835
L534.756 147.542
L535.248 146.369
L536.357 143.991
L536.516 143.828
L536.722 143.079
L537.196 141.971
L537.566 140.961
L537.71 140.7
L537.987 139.918
L538.068 139.756
L539.686 134.901
L539.815 134.738
L540.603 132.36
L540.859 131.611
L541.027 131.285
L541.167 130.959
L541.295 130.47
L541.4 130.275
L541.739 129.363
L541.883 129.2
L541.995 128.841
L542.782 126.658
L542.893 126.267
L542.965 126.039
L543.089 125.616
L543.296 125.029
L543.598 124.085
L543.857 123.303
L544.124 122.553
L544.368 121.934
L544.587 121.022
L545.35 118.644
L545.427 118.351
L545.601 117.536
L545.691 117.341
L545.932 116.722
L547.835 110.238
L547.973 109.847
L548.097 109.489
L548.211 109.098
L548.349 108.739
L548.452 108.186
L548.536 107.795
L548.636 107.273
L548.868 106.752
L549.001 106.231
L549.144 105.938
L549.266 105.677
L549.375 105.351
L549.618 104.7
L549.715 104.178
L549.846 103.82
L549.953 103.461
L550.306 102.484
L550.417 101.995
L550.635 101.604
L550.752 101.344
L551.832 98.0858
L551.943 97.76
L552.082 97.3364
L552.215 96.8477
L552.461 96.0332
L552.534 95.7726
L553.124 93.492
L553.23 93.101
L553.315 92.9056
L553.445 92.482
L553.538 92.1236
L553.657 91.5046
L553.933 90.3643
L554.212 89.6476
L554.298 89.224
L554.374 88.996
L554.605 88.2792
L554.987 87.3344
L555.377 86.0638
L555.501 85.5099
L555.795 84.337
L556.008 83.4248
L556.121 83.2293
L556.49 82.3822
L556.596 82.1216
L556.764 81.4048
L556.983 80.7532
L557.205 79.9713
L557.672 78.4075
L557.892 77.7559
L558.575 75.3775
L558.639 75.182
L560.079 70.6534
L560.323 70.0344
L560.594 69.057
L561.039 67.7864
L561.114 67.5257
L561.228 67.0045
L562.216 63.2903
L562.387 62.9971
L562.576 62.4107
L562.669 62.0523
L562.855 61.4007
L563.042 60.8794
L563.173 60.521
L563.256 60.293
L563.388 59.7391
L563.513 59.2504
L563.645 58.9246
L564.045 58.1427
L564.132 57.654
L564.293 57.4259
L564.399 56.9047
L564.521 56.6766
L564.617 56.5137
L565.761 53.5163
L565.873 53.2883
L566.584 51.2032
L566.721 50.7796
L566.989 49.9325
L567.476 49.0203
L567.608 48.5968
L567.835 48.1406
L568.01 47.88
L568.261 47.261
L568.44 46.87
L568.808 46.0881
L568.922 45.7623
L569.031 45.5668
L569.208 45.241
L569.335 45.0781
L569.435 44.7849
L569.555 44.5243
L569.671 44.3614
L571.045 40.8753
L571.178 40.6798
L571.251 40.6147
L571.369 40.4192
L571.885 39.5069
L572.064 39.2789
L572.561 38.0734
L572.689 37.8128
L572.885 37.3241
L573.03 37.1286
L573.224 36.868
L573.675 36.0535
L573.726 35.858
L573.913 35.6951
L576.092 31.7203
L576.229 31.4271
L576.517 31.0036
L576.723 30.8081
L577.097 30.1891
L577.318 30.0262
L578.969 27.8433
L579.164 27.713
L580.994 25.4324
L581.409 25.1717
L581.511 25.074
L581.892 24.4224
L582.001 24.2595
L582.843 23.8034
L582.933 23.6405
L583.395 23.1844
L583.624 22.7934
L583.878 22.5979
L584.045 22.4676
L584.259 22.3373
L584.377 22.1418
L584.684 21.9463
L584.794 21.7834
L585.817 20.8386
L586.196 20.6757
L586.451 20.3825
L586.484 20.3499
L586.844 20.187
L587.224 19.8938
L587.286 19.7635
L587.811 19.6006
L587.842 19.5354
L588.233 19.3725
L588.582 19.1444
L589.291 18.949
L589.297 18.9164
L589.519 18.7535
L589.709 18.6557
L590.25 18.3951
L590.361 18.2648
L591.717 17.6132
L592.451 17.4503
L594.846 16.7009
L597.145 16.2448
L598.943 16.0819
L600.668 15.8864
L600.67 15.8539
L609.739 15.4629
L614.762 15.3326
L614.762 15.3326" style="fill:none;stroke:#0000ff;stroke-linecap:square;"/>
   </g>
   <g id="line2d_69">
    <path clip-path="url(#p0c4051fb73)" d="
M513.336 178.2
L513.336 15.3" style="fill:none;stroke:#0000ff;stroke-dasharray:6.000000,6.000000;stroke-dashoffset:0.0;"/>
   </g>
   <g id="line2d_70">
    <path clip-path="url(#p0c4051fb73)" d="
M588.233 178.2
L588.233 15.3" style="fill:none;stroke:#0000ff;stroke-dasharray:6.000000,6.000000;stroke-dashoffset:0.0;"/>
   </g>
   <g id="patch_13">
    <path d="
M471.112 15.3
L626.653 15.3" style="fill:none;stroke:#000000;stroke-linecap:square;stroke-linejoin:miter;"/>
   </g>
   <g id="patch_14">
    <path d="
M626.653 178.2
L626.653 15.3" style="fill:none;stroke:#000000;stroke-linecap:square;stroke-linejoin:miter;"/>
   </g>
   <g id="patch_15">
    <path d="
M471.112 178.2
L626.653 178.2" style="fill:none;stroke:#000000;stroke-linecap:square;stroke-linejoin:miter;"/>
   </g>
   <g id="patch_16">
    <path d="
M471.112 178.2
L471.112 15.3" style="fill:none;stroke:#000000;stroke-linecap:square;stroke-linejoin:miter;"/>
   </g>
   <g id="matplotlib.axis_5">
    <g id="xtick_15">
     <g id="line2d_71">
      <g>
       <use style="stroke:#000000;stroke-width:0.5;" x="471.1125" xlink:href="#m93b0483c22" y="178.2"/>
      </g>
     </g>
     <g id="line2d_72">
      <g>
       <use style="stroke:#000000;stroke-width:0.5;" x="471.1125" xlink:href="#m741efc42ff" y="15.3"/>
      </g>
     </g>
     <g id="text_31">
      <!-- 0.64 -->
      <g transform="translate(460.58984375 189.7984375)scale(0.1 -0.1)">
       <use xlink:href="#BitstreamVeraSans-Roman-30"/>
       <use x="63.623046875" xlink:href="#BitstreamVeraSans-Roman-2e"/>
       <use x="95.41015625" xlink:href="#BitstreamVeraSans-Roman-36"/>
       <use x="159.033203125" xlink:href="#BitstreamVeraSans-Roman-34"/>
      </g>
     </g>
    </g>
    <g id="xtick_16">
     <g id="line2d_73">
      <g>
       <use style="stroke:#000000;stroke-width:0.5;" x="497.0359375" xlink:href="#m93b0483c22" y="178.2"/>
      </g>
     </g>
     <g id="line2d_74">
      <g>
       <use style="stroke:#000000;stroke-width:0.5;" x="497.0359375" xlink:href="#m741efc42ff" y="15.3"/>
      </g>
     </g>
     <g id="text_32">
      <!-- 0.66 -->
      <g transform="translate(486.54765625 189.7984375)scale(0.1 -0.1)">
       <use xlink:href="#BitstreamVeraSans-Roman-30"/>
       <use x="63.623046875" xlink:href="#BitstreamVeraSans-Roman-2e"/>
       <use x="95.41015625" xlink:href="#BitstreamVeraSans-Roman-36"/>
       <use x="159.033203125" xlink:href="#BitstreamVeraSans-Roman-36"/>
      </g>
     </g>
    </g>
    <g id="xtick_17">
     <g id="line2d_75">
      <g>
       <use style="stroke:#000000;stroke-width:0.5;" x="522.959375" xlink:href="#m93b0483c22" y="178.2"/>
      </g>
     </g>
     <g id="line2d_76">
      <g>
       <use style="stroke:#000000;stroke-width:0.5;" x="522.959375" xlink:href="#m741efc42ff" y="15.3"/>
      </g>
     </g>
     <g id="text_33">
      <!-- 0.68 -->
      <g transform="translate(512.4984375 189.7984375)scale(0.1 -0.1)">
       <use xlink:href="#BitstreamVeraSans-Roman-30"/>
       <use x="63.623046875" xlink:href="#BitstreamVeraSans-Roman-2e"/>
       <use x="95.41015625" xlink:href="#BitstreamVeraSans-Roman-36"/>
       <use x="159.033203125" xlink:href="#BitstreamVeraSans-Roman-38"/>
      </g>
     </g>
    </g>
    <g id="xtick_18">
     <g id="line2d_77">
      <g>
       <use style="stroke:#000000;stroke-width:0.5;" x="548.8828125" xlink:href="#m93b0483c22" y="178.2"/>
      </g>
     </g>
     <g id="line2d_78">
      <g>
       <use style="stroke:#000000;stroke-width:0.5;" x="548.8828125" xlink:href="#m741efc42ff" y="15.3"/>
      </g>
     </g>
     <g id="text_34">
      <!-- 0.70 -->
      <g transform="translate(538.41171875 189.7984375)scale(0.1 -0.1)">
       <use xlink:href="#BitstreamVeraSans-Roman-30"/>
       <use x="63.623046875" xlink:href="#BitstreamVeraSans-Roman-2e"/>
       <use x="95.41015625" xlink:href="#BitstreamVeraSans-Roman-37"/>
       <use x="159.033203125" xlink:href="#BitstreamVeraSans-Roman-30"/>
      </g>
     </g>
    </g>
    <g id="xtick_19">
     <g id="line2d_79">
      <g>
       <use style="stroke:#000000;stroke-width:0.5;" x="574.80625" xlink:href="#m93b0483c22" y="178.2"/>
      </g>
     </g>
     <g id="line2d_80">
      <g>
       <use style="stroke:#000000;stroke-width:0.5;" x="574.80625" xlink:href="#m741efc42ff" y="15.3"/>
      </g>
     </g>
     <g id="text_35">
      <!-- 0.72 -->
      <g transform="translate(564.50390625 189.7984375)scale(0.1 -0.1)">
       <use xlink:href="#BitstreamVeraSans-Roman-30"/>
       <use x="63.623046875" xlink:href="#BitstreamVeraSans-Roman-2e"/>
       <use x="95.41015625" xlink:href="#BitstreamVeraSans-Roman-37"/>
       <use x="159.033203125" xlink:href="#BitstreamVeraSans-Roman-32"/>
      </g>
     </g>
    </g>
    <g id="xtick_20">
     <g id="line2d_81">
      <g>
       <use style="stroke:#000000;stroke-width:0.5;" x="600.7296875" xlink:href="#m93b0483c22" y="178.2"/>
      </g>
     </g>
     <g id="line2d_82">
      <g>
       <use style="stroke:#000000;stroke-width:0.5;" x="600.7296875" xlink:href="#m741efc42ff" y="15.3"/>
      </g>
     </g>
     <g id="text_36">
      <!-- 0.74 -->
      <g transform="translate(590.20703125 189.7984375)scale(0.1 -0.1)">
       <use xlink:href="#BitstreamVeraSans-Roman-30"/>
       <use x="63.623046875" xlink:href="#BitstreamVeraSans-Roman-2e"/>
       <use x="95.41015625" xlink:href="#BitstreamVeraSans-Roman-37"/>
       <use x="159.033203125" xlink:href="#BitstreamVeraSans-Roman-34"/>
      </g>
     </g>
    </g>
    <g id="xtick_21">
     <g id="line2d_83">
      <g>
       <use style="stroke:#000000;stroke-width:0.5;" x="626.653125" xlink:href="#m93b0483c22" y="178.2"/>
      </g>
     </g>
     <g id="line2d_84">
      <g>
       <use style="stroke:#000000;stroke-width:0.5;" x="626.653125" xlink:href="#m741efc42ff" y="15.3"/>
      </g>
     </g>
     <g id="text_37">
      <!-- 0.76 -->
      <g transform="translate(616.16484375 189.7984375)scale(0.1 -0.1)">
       <use xlink:href="#BitstreamVeraSans-Roman-30"/>
       <use x="63.623046875" xlink:href="#BitstreamVeraSans-Roman-2e"/>
       <use x="95.41015625" xlink:href="#BitstreamVeraSans-Roman-37"/>
       <use x="159.033203125" xlink:href="#BitstreamVeraSans-Roman-36"/>
      </g>
     </g>
    </g>
    <g id="text_38">
     <!-- Z component -->
     <defs>
      <path d="
M5.60938 72.9062
L62.8906 72.9062
L62.8906 65.375
L16.7969 8.29688
L64.0156 8.29688
L64.0156 0
L4.5 0
L4.5 7.51562
L50.5938 64.5938
L5.60938 64.5938
z
" id="BitstreamVeraSans-Roman-5a"/>
     </defs>
     <g transform="translate(515.7015625 204.4765625)scale(0.1 -0.1)">
      <use xlink:href="#BitstreamVeraSans-Roman-5a"/>
      <use x="68.505859375" xlink:href="#BitstreamVeraSans-Roman-20"/>
      <use x="100.29296875" xlink:href="#BitstreamVeraSans-Roman-63"/>
      <use x="155.2734375" xlink:href="#BitstreamVeraSans-Roman-6f"/>
      <use x="216.455078125" xlink:href="#BitstreamVeraSans-Roman-6d"/>
      <use x="313.8671875" xlink:href="#BitstreamVeraSans-Roman-70"/>
      <use x="377.34375" xlink:href="#BitstreamVeraSans-Roman-6f"/>
      <use x="438.525390625" xlink:href="#BitstreamVeraSans-Roman-6e"/>
      <use x="501.904296875" xlink:href="#BitstreamVeraSans-Roman-65"/>
      <use x="563.427734375" xlink:href="#BitstreamVeraSans-Roman-6e"/>
      <use x="626.806640625" xlink:href="#BitstreamVeraSans-Roman-74"/>
     </g>
    </g>
   </g>
   <g id="matplotlib.axis_6">
    <g id="ytick_13">
     <g id="line2d_85">
      <g>
       <use style="stroke:#000000;stroke-width:0.5;" x="471.1125" xlink:href="#m728421d6d4" y="178.2"/>
      </g>
     </g>
     <g id="line2d_86">
      <g>
       <use style="stroke:#000000;stroke-width:0.5;" x="626.653125" xlink:href="#mcb0005524f" y="178.2"/>
      </g>
     </g>
     <g id="text_39">
      <!-- 0.0 -->
      <g transform="translate(452.5328125 180.959375)scale(0.1 -0.1)">
       <use xlink:href="#BitstreamVeraSans-Roman-30"/>
       <use x="63.623046875" xlink:href="#BitstreamVeraSans-Roman-2e"/>
       <use x="95.41015625" xlink:href="#BitstreamVeraSans-Roman-30"/>
      </g>
     </g>
    </g>
    <g id="ytick_14">
     <g id="line2d_87">
      <g>
       <use style="stroke:#000000;stroke-width:0.5;" x="471.1125" xlink:href="#m728421d6d4" y="145.62"/>
      </g>
     </g>
     <g id="line2d_88">
      <g>
       <use style="stroke:#000000;stroke-width:0.5;" x="626.653125" xlink:href="#mcb0005524f" y="145.62"/>
      </g>
     </g>
     <g id="text_40">
      <!-- 0.2 -->
      <g transform="translate(452.8703125 148.379375)scale(0.1 -0.1)">
       <use xlink:href="#BitstreamVeraSans-Roman-30"/>
       <use x="63.623046875" xlink:href="#BitstreamVeraSans-Roman-2e"/>
       <use x="95.41015625" xlink:href="#BitstreamVeraSans-Roman-32"/>
      </g>
     </g>
    </g>
    <g id="ytick_15">
     <g id="line2d_89">
      <g>
       <use style="stroke:#000000;stroke-width:0.5;" x="471.1125" xlink:href="#m728421d6d4" y="113.04"/>
      </g>
     </g>
     <g id="line2d_90">
      <g>
       <use style="stroke:#000000;stroke-width:0.5;" x="626.653125" xlink:href="#mcb0005524f" y="113.04"/>
      </g>
     </g>
     <g id="text_41">
      <!-- 0.4 -->
      <g transform="translate(452.4296875 115.799375)scale(0.1 -0.1)">
       <use xlink:href="#BitstreamVeraSans-Roman-30"/>
       <use x="63.623046875" xlink:href="#BitstreamVeraSans-Roman-2e"/>
       <use x="95.41015625" xlink:href="#BitstreamVeraSans-Roman-34"/>
      </g>
     </g>
    </g>
    <g id="ytick_16">
     <g id="line2d_91">
      <g>
       <use style="stroke:#000000;stroke-width:0.5;" x="471.1125" xlink:href="#m728421d6d4" y="80.46"/>
      </g>
     </g>
     <g id="line2d_92">
      <g>
       <use style="stroke:#000000;stroke-width:0.5;" x="626.653125" xlink:href="#mcb0005524f" y="80.46"/>
      </g>
     </g>
     <g id="text_42">
      <!-- 0.6 -->
      <g transform="translate(452.4984375 83.219375)scale(0.1 -0.1)">
       <use xlink:href="#BitstreamVeraSans-Roman-30"/>
       <use x="63.623046875" xlink:href="#BitstreamVeraSans-Roman-2e"/>
       <use x="95.41015625" xlink:href="#BitstreamVeraSans-Roman-36"/>
      </g>
     </g>
    </g>
    <g id="ytick_17">
     <g id="line2d_93">
      <g>
       <use style="stroke:#000000;stroke-width:0.5;" x="471.1125" xlink:href="#m728421d6d4" y="47.88"/>
      </g>
     </g>
     <g id="line2d_94">
      <g>
       <use style="stroke:#000000;stroke-width:0.5;" x="626.653125" xlink:href="#mcb0005524f" y="47.88"/>
      </g>
     </g>
     <g id="text_43">
      <!-- 0.8 -->
      <g transform="translate(452.553125 50.639375)scale(0.1 -0.1)">
       <use xlink:href="#BitstreamVeraSans-Roman-30"/>
       <use x="63.623046875" xlink:href="#BitstreamVeraSans-Roman-2e"/>
       <use x="95.41015625" xlink:href="#BitstreamVeraSans-Roman-38"/>
      </g>
     </g>
    </g>
    <g id="ytick_18">
     <g id="line2d_95">
      <g>
       <use style="stroke:#000000;stroke-width:0.5;" x="471.1125" xlink:href="#m728421d6d4" y="15.3"/>
      </g>
     </g>
     <g id="line2d_96">
      <g>
       <use style="stroke:#000000;stroke-width:0.5;" x="626.653125" xlink:href="#mcb0005524f" y="15.3"/>
      </g>
     </g>
     <g id="text_44">
      <!-- 1.0 -->
      <g transform="translate(452.971875 18.059375)scale(0.1 -0.1)">
       <use xlink:href="#BitstreamVeraSans-Roman-31"/>
       <use x="63.623046875" xlink:href="#BitstreamVeraSans-Roman-2e"/>
       <use x="95.41015625" xlink:href="#BitstreamVeraSans-Roman-30"/>
      </g>
     </g>
    </g>
    <g id="text_45">
     <!-- Cumulative Distribution -->
     <g transform="translate(445.35 155.62109375)rotate(-90.0)scale(0.1 -0.1)">
      <use xlink:href="#BitstreamVeraSans-Roman-43"/>
      <use x="69.82421875" xlink:href="#BitstreamVeraSans-Roman-75"/>
      <use x="133.203125" xlink:href="#BitstreamVeraSans-Roman-6d"/>
      <use x="230.615234375" xlink:href="#BitstreamVeraSans-Roman-75"/>
      <use x="293.994140625" xlink:href="#BitstreamVeraSans-Roman-6c"/>
      <use x="321.77734375" xlink:href="#BitstreamVeraSans-Roman-61"/>
      <use x="383.056640625" xlink:href="#BitstreamVeraSans-Roman-74"/>
      <use x="422.265625" xlink:href="#BitstreamVeraSans-Roman-69"/>
      <use x="450.048828125" xlink:href="#BitstreamVeraSans-Roman-76"/>
      <use x="509.228515625" xlink:href="#BitstreamVeraSans-Roman-65"/>
      <use x="570.751953125" xlink:href="#BitstreamVeraSans-Roman-20"/>
      <use x="602.5390625" xlink:href="#BitstreamVeraSans-Roman-44"/>
      <use x="679.541015625" xlink:href="#BitstreamVeraSans-Roman-69"/>
      <use x="707.32421875" xlink:href="#BitstreamVeraSans-Roman-73"/>
      <use x="759.423828125" xlink:href="#BitstreamVeraSans-Roman-74"/>
      <use x="798.6328125" xlink:href="#BitstreamVeraSans-Roman-72"/>
      <use x="839.74609375" xlink:href="#BitstreamVeraSans-Roman-69"/>
      <use x="867.529296875" xlink:href="#BitstreamVeraSans-Roman-62"/>
      <use x="931.005859375" xlink:href="#BitstreamVeraSans-Roman-75"/>
      <use x="994.384765625" xlink:href="#BitstreamVeraSans-Roman-74"/>
      <use x="1033.59375" xlink:href="#BitstreamVeraSans-Roman-69"/>
      <use x="1061.37695312" xlink:href="#BitstreamVeraSans-Roman-6f"/>
      <use x="1122.55859375" xlink:href="#BitstreamVeraSans-Roman-6e"/>
     </g>
    </g>
   </g>
  </g>
 </g>
 <defs>
  <clipPath id="p44efea1c73">
   <rect height="162.9" width="155.540625" x="257.3671875" y="15.3"/>
  </clipPath>
  <clipPath id="p8f28e50375">
   <rect height="162.9" width="155.540625" x="43.621875" y="15.3"/>
  </clipPath>
  <clipPath id="p0c4051fb73">
   <rect height="162.9" width="155.540625" x="471.1125" y="15.3"/>
  </clipPath>
 </defs>
</svg>
