<?xml version="1.0" encoding="utf-8" standalone="no"?>
<!DOCTYPE svg PUBLIC "-//W3C//DTD SVG 1.1//EN"
  "http://www.w3.org/Graphics/SVG/1.1/DTD/svg11.dtd">
<!-- Created with matplotlib (http://matplotlib.org/) -->
<svg height="216pt" version="1.1" viewBox="0 0 648 216" width="648pt" xmlns="http://www.w3.org/2000/svg" xmlns:xlink="http://www.w3.org/1999/xlink">
 <defs>
  <style type="text/css">
*{stroke-linecap:butt;stroke-linejoin:round;}
  </style>
 </defs>
 <g id="figure_1">
  <g id="patch_1">
   <path d="
M0 216
L648 216
L648 0
L0 0
z
" style="fill:#ffffff;"/>
  </g>
  <g id="axes_1">
   <g id="patch_2">
    <path d="
M43.6219 178.2
L199.163 178.2
L199.163 15.3
L43.6219 15.3
z
" style="fill:#ffffff;"/>
   </g>
   <g id="line2d_1">
    <path clip-path="url(#pee65438c85)" d="
M48.4793 178.2
L57.1143 177.972
L58.331 177.842
L62.795 177.516
L63.6016 177.353
L64.7133 177.157
L64.8219 177.027
L65.6755 176.864
L65.7006 176.832
L66.2924 176.669
L66.3374 176.636
L66.9066 176.473
L68.2378 176.115
L68.7597 175.985
L68.7852 175.952
L69.3857 175.789
L70.387 175.17
L70.7648 175.007
L70.875 174.812
L70.9643 174.681
L71.2457 174.551
L71.7102 174.225
L71.8139 174.16
L72.4762 173.671
L72.6491 173.508
L72.7883 173.346
L73.1573 172.955
L73.2567 172.857
L73.546 172.694
L73.5544 172.661
L74.0163 172.466
L74.254 172.368
L74.5513 172.205
L74.6747 172.075
L74.9845 171.912
L75.281 171.521
L75.6369 171.195
L75.7218 171.098
L75.9688 170.869
L76.4581 170.185
L76.6011 170.022
L77.0676 169.403
L77.3169 169.175
L78.6634 167.579
L78.87 167.09
L79.7282 165.787
L79.8272 165.494
L80.0821 165.07
L80.2131 164.81
L81.0313 163.506
L81.522 162.431
L81.7551 161.975
L81.8258 161.812
L81.9133 161.649
L82.1673 161.193
L82.2618 161.03
L82.5837 160.183
L82.6734 159.955
L82.8402 159.499
L84.0114 156.762
L84.109 156.534
L84.4312 155.459
L84.5381 155.231
L84.6548 154.905
L84.829 154.645
L85.1842 154.026
L85.3643 153.732
L85.4984 153.439
L85.5578 153.244
L86.7374 149.627
L86.8547 149.302
L86.9503 148.976
L87.0846 148.748
L87.3763 147.542
L87.5861 147.119
L87.81 145.946
L88.0124 145.62
L88.1465 145.066
L88.3331 144.577
L88.5206 143.698
L88.6516 143.339
L88.7014 143.144
L88.8145 142.981
L89.0374 142.232
L90.2526 138.55
L90.4407 137.964
L90.5618 137.703
L91.4033 134.087
L91.5178 133.793
L91.6138 133.598
L91.7205 132.881
L91.8203 132.718
L91.976 131.936
L92.0272 131.611
L92.2009 131.024
L94.9591 118.351
L95.111 117.829
L95.2386 117.373
L95.8463 114.734
L95.9608 114.05
L96.1421 113.04
L96.311 112.421
L96.424 112.03
L96.5189 111.606
L96.6816 110.531
L99.4709 98.379
L99.652 97.5319
L100.153 95.2513
L100.255 94.9907
L101.522 88.7027
L101.656 88.3118
L101.723 88.0837
L101.947 87.1063
L102.058 86.585
L102.207 85.7705
L102.763 83.4574
L102.872 83.099
L104.875 75.4753
L104.988 74.7259
L105.191 73.7811
L105.325 73.2272
L105.38 72.9666
L105.501 72.4127
L105.688 71.7611
L105.83 71.2073
L106.041 70.5883
L106.15 69.8715
L106.234 69.5131
L106.394 68.9593
L106.601 68.1122
L106.773 67.3303
L106.849 67.1348
L106.975 66.7764
L107.104 66.2225
L108.255 61.4984
L108.766 59.5436
L108.889 59.1201
L108.973 58.7943
L109.195 58.1101
L109.275 57.8169
L109.44 57.1653
L109.546 56.7418
L109.88 55.5363
L110.262 54.396
L110.483 53.4838
L110.534 53.2557
L110.791 52.2457
L110.919 51.9525
L111.045 51.529
L111.114 51.3009
L111.232 50.8122
L111.734 49.2158
L111.825 48.9226
L112.05 47.9126
L112.167 47.6194
L112.42 46.8049
L112.507 46.6094
L112.62 46.2184
L112.733 45.8926
L116.187 35.9231
L116.274 35.7277
L116.395 35.2715
L116.562 35.0109
L116.677 34.7177
L117.134 33.5448
L117.39 33.2516
L117.461 32.9909
L117.674 32.4045
L117.947 32.0135
L118.193 31.5248
L118.383 31.1665
L118.737 30.58
L120.911 26.8333
L121.141 26.6378
L121.286 26.4098
L121.659 25.8233
L122.306 25.1392
L122.39 25.074
L122.714 24.7808
L123.045 24.2269
L123.357 24.0314
L123.421 23.8685
L123.764 23.3798
L124.045 23.1844
L124.207 22.9563
L124.565 22.6631
L124.822 22.4676
L125.774 21.7183
L126.137 21.4902
L126.612 20.9038
L127.378 20.5128
L127.478 20.4151
L128.014 20.1218
L128.436 19.9264
L129.842 19.0793
L130.122 18.9164
L130.25 18.8186
L130.719 18.5906
L130.801 18.4928
L131.231 18.3625
L133.007 17.4829
L133.556 17.2874
L133.709 17.1571
L136.879 16.31
L136.885 16.2774
L137.185 16.1797
L140.323 15.9516
L141.567 15.7887
L141.696 15.7561
L145.35 15.5281
L145.401 15.4955
L145.666 15.4629
L151.012 15.3652
L156.681 15.3326
L156.681 15.3326" style="fill:none;stroke:#ff0000;stroke-linecap:square;"/>
   </g>
   <g id="line2d_2">
    <path clip-path="url(#pee65438c85)" d="
M71.8497 178.2
L71.8497 15.3" style="fill:none;stroke:#ff0000;stroke-linecap:square;"/>
   </g>
   <g id="line2d_3">
    <path clip-path="url(#pee65438c85)" d="
M129.294 178.2
L129.294 15.3" style="fill:none;stroke:#ff0000;stroke-linecap:square;"/>
   </g>
   <g id="line2d_4">
    <path clip-path="url(#pee65438c85)" d="
M86.2623 178.2
L95.5053 177.679
L95.6379 177.614
L96.2957 177.418
L96.338 177.385
L98.6078 176.962
L101.424 176.31
L101.512 176.245
L102.056 175.952
L102.777 175.561
L103.028 175.431
L103.23 175.333
L103.557 175.04
L104.416 174.551
L104.722 174.29
L105.054 174.16
L105.322 173.997
L105.564 173.639
L106.768 172.857
L107.057 172.498
L107.338 172.336
L107.481 172.205
L107.959 171.945
L108.066 171.782
L108.32 171.554
L108.44 171.391
L108.631 171.228
L109.014 170.576
L109.402 170.25
L110.48 168.85
L110.549 168.687
L110.848 168.491
L111.477 167.807
L111.556 167.579
L111.823 167.351
L113.37 165.135
L113.427 164.875
L113.681 164.712
L113.844 164.353
L115.15 162.073
L115.3 161.682
L115.464 161.324
L116.527 159.076
L116.673 158.847
L116.798 158.522
L117.11 157.772
L117.277 157.349
L118.237 154.938
L118.337 154.677
L118.778 153.537
L118.977 152.918
L119.068 152.69
L119.184 152.331
L120.788 148.063
L120.886 147.705
L120.967 147.51
L121.063 147.119
L121.204 146.695
L121.705 145.034
L121.827 144.708
L122.048 144.154
L123.636 139.267
L123.717 139.039
L123.862 138.713
L124.031 138.322
L124.247 137.508
L124.328 137.345
L124.55 136.465
L125.371 133.793
L125.488 133.305
L125.945 130.894
L126.084 130.242
L126.378 129.395
L126.489 128.972
L126.761 127.734
L126.923 127.18
L127.044 126.886
L127.112 126.658
L127.856 123.694
L127.928 123.466
L128.689 119.882
L128.992 118.448
L129.074 118.155
L130.752 111.574
L130.848 111.281
L131.002 110.531
L131.196 109.847
L131.353 109.065
L131.491 108.479
L131.612 107.86
L131.712 107.632
L131.822 107.11
L132.317 105.253
L132.452 104.309
L132.727 103.266
L133.092 101.376
L133.231 101.213
L133.352 100.562
L133.486 100.236
L133.756 98.77
L133.862 98.4116
L134.843 94.2088
L134.929 93.8504
L135.245 92.254
L135.343 91.8304
L135.489 91.2114
L136.71 85.738
L136.755 85.5425
L138.942 76.8436
L139.092 76.2572
L139.377 75.3124
L139.554 74.6933
L139.646 74.3024
L139.957 72.9014
L140.016 72.6408
L140.279 71.6308
L140.792 69.6434
L140.951 69.1873
L141.339 67.5583
L141.588 66.7112
L141.715 66.19
L141.99 65.18
L142.112 64.6913
L142.212 64.3981
L142.361 63.7465
L142.433 63.551
L142.802 62.1826
L142.891 61.8568
L142.953 61.5962
L143.123 61.0423
L143.214 60.6839
L143.338 60.293
L143.437 60.0649
L143.6 59.4133
L143.657 59.1853
L143.801 58.4359
L144.082 57.5888
L144.221 56.8395
L144.651 55.2431
L144.783 55.0476
L145.13 54.005
L145.366 53.0602
L145.756 51.7896
L145.822 51.4638
L146.088 50.519
L146.188 50.3235
L147.198 46.87
L147.331 46.5768
L147.442 46.1207
L147.523 45.86
L147.634 45.5668
L147.858 44.7849
L148.973 41.5921
L149.074 41.3966
L149.169 41.0382
L149.293 40.5821
L149.395 40.2563
L149.687 39.6047
L149.791 39.4744
L149.901 39.2463
L152.89 31.7855
L153.218 31.2316
L153.329 30.9058
L153.442 30.8081
L153.853 29.8633
L154.3 28.8533
L154.354 28.6578
L154.495 28.5275
L154.943 27.7456
L155.119 27.2569
L155.359 26.9636
L155.459 26.8659
L155.558 26.6704
L156.148 25.7582
L156.219 25.5627
L156.375 25.3021
L156.544 25.1066
L156.687 24.9437
L158.726 22.7608
L158.827 22.5328
L159.279 22.2395
L159.338 22.1418
L159.669 21.9789
L160.039 21.6531
L160.196 21.4902
L160.286 21.3599
L160.602 21.197
L160.763 21.0015
L161.676 20.6757
L162.004 20.4802
L162.28 20.2847
L162.823 19.9264
L162.838 19.8938
L163.352 19.6983
L163.52 19.5354
L163.984 19.177
L164.313 19.0141
L164.748 18.6883
L165.404 18.4603
L165.443 18.3625
L165.813 18.1019
L166.048 17.8087
L166.462 17.6783
L166.514 17.6132
L167.431 17.4177
L167.696 17.32
L168.478 17.1571
L168.71 16.9942
L172.652 16.0493
L174.564 15.8539
L174.581 15.8213
L175.329 15.691
L187.094 15.3652
L192.808 15.3326
L192.808 15.3326" style="fill:none;stroke:#0000ff;stroke-linecap:square;"/>
   </g>
   <g id="line2d_5">
    <path clip-path="url(#pee65438c85)" d="
M105.212 178.2
L105.212 15.3" style="fill:none;stroke:#0000ff;stroke-dasharray:6.000000,6.000000;stroke-dashoffset:0.0;"/>
   </g>
   <g id="line2d_6">
    <path clip-path="url(#pee65438c85)" d="
M163.579 178.2
L163.579 15.3" style="fill:none;stroke:#0000ff;stroke-dasharray:6.000000,6.000000;stroke-dashoffset:0.0;"/>
   </g>
   <g id="patch_3">
    <path d="
M43.6219 15.3
L199.163 15.3" style="fill:none;stroke:#000000;stroke-linecap:square;stroke-linejoin:miter;"/>
   </g>
   <g id="patch_4">
    <path d="
M199.163 178.2
L199.163 15.3" style="fill:none;stroke:#000000;stroke-linecap:square;stroke-linejoin:miter;"/>
   </g>
   <g id="patch_5">
    <path d="
M43.6219 178.2
L199.163 178.2" style="fill:none;stroke:#000000;stroke-linecap:square;stroke-linejoin:miter;"/>
   </g>
   <g id="patch_6">
    <path d="
M43.6219 178.2
L43.6219 15.3" style="fill:none;stroke:#000000;stroke-linecap:square;stroke-linejoin:miter;"/>
   </g>
   <g id="matplotlib.axis_1">
    <g id="xtick_1">
     <g id="line2d_7">
      <defs>
       <path d="
M0 0
L0 -4" id="m93b0483c22" style="stroke:#000000;stroke-width:0.5;"/>
      </defs>
      <g>
       <use style="stroke:#000000;stroke-width:0.5;" x="43.621875" xlink:href="#m93b0483c22" y="178.2"/>
      </g>
     </g>
     <g id="line2d_8">
      <defs>
       <path d="
M0 0
L0 4" id="m741efc42ff" style="stroke:#000000;stroke-width:0.5;"/>
      </defs>
      <g>
       <use style="stroke:#000000;stroke-width:0.5;" x="43.621875" xlink:href="#m741efc42ff" y="15.3"/>
      </g>
     </g>
     <g id="text_1">
      <!-- −0.72 -->
      <defs>
       <path d="
M10.5938 35.5
L73.1875 35.5
L73.1875 27.2031
L10.5938 27.2031
z
" id="BitstreamVeraSans-Roman-2212"/>
       <path d="
M19.1875 8.29688
L53.6094 8.29688
L53.6094 0
L7.32812 0
L7.32812 8.29688
Q12.9375 14.1094 22.625 23.8906
Q32.3281 33.6875 34.8125 36.5312
Q39.5469 41.8438 41.4219 45.5312
Q43.3125 49.2188 43.3125 52.7812
Q43.3125 58.5938 39.2344 62.25
Q35.1562 65.9219 28.6094 65.9219
Q23.9688 65.9219 18.8125 64.3125
Q13.6719 62.7031 7.8125 59.4219
L7.8125 69.3906
Q13.7656 71.7812 18.9375 73
Q24.125 74.2188 28.4219 74.2188
Q39.75 74.2188 46.4844 68.5469
Q53.2188 62.8906 53.2188 53.4219
Q53.2188 48.9219 51.5312 44.8906
Q49.8594 40.875 45.4062 35.4062
Q44.1875 33.9844 37.6406 27.2188
Q31.1094 20.4531 19.1875 8.29688" id="BitstreamVeraSans-Roman-32"/>
       <path d="
M31.7812 66.4062
Q24.1719 66.4062 20.3281 58.9062
Q16.5 51.4219 16.5 36.375
Q16.5 21.3906 20.3281 13.8906
Q24.1719 6.39062 31.7812 6.39062
Q39.4531 6.39062 43.2812 13.8906
Q47.125 21.3906 47.125 36.375
Q47.125 51.4219 43.2812 58.9062
Q39.4531 66.4062 31.7812 66.4062
M31.7812 74.2188
Q44.0469 74.2188 50.5156 64.5156
Q56.9844 54.8281 56.9844 36.375
Q56.9844 17.9688 50.5156 8.26562
Q44.0469 -1.42188 31.7812 -1.42188
Q19.5312 -1.42188 13.0625 8.26562
Q6.59375 17.9688 6.59375 36.375
Q6.59375 54.8281 13.0625 64.5156
Q19.5312 74.2188 31.7812 74.2188" id="BitstreamVeraSans-Roman-30"/>
       <path d="
M10.6875 12.4062
L21 12.4062
L21 0
L10.6875 0
z
" id="BitstreamVeraSans-Roman-2e"/>
       <path d="
M8.20312 72.9062
L55.0781 72.9062
L55.0781 68.7031
L28.6094 0
L18.3125 0
L43.2188 64.5938
L8.20312 64.5938
z
" id="BitstreamVeraSans-Roman-37"/>
      </defs>
      <g transform="translate(29.3296875 189.7984375)scale(0.1 -0.1)">
       <use xlink:href="#BitstreamVeraSans-Roman-2212"/>
       <use x="83.7890625" xlink:href="#BitstreamVeraSans-Roman-30"/>
       <use x="147.412109375" xlink:href="#BitstreamVeraSans-Roman-2e"/>
       <use x="179.19921875" xlink:href="#BitstreamVeraSans-Roman-37"/>
       <use x="242.822265625" xlink:href="#BitstreamVeraSans-Roman-32"/>
      </g>
     </g>
    </g>
    <g id="xtick_2">
     <g id="line2d_9">
      <g>
       <use style="stroke:#000000;stroke-width:0.5;" x="63.064453125" xlink:href="#m93b0483c22" y="178.2"/>
      </g>
     </g>
     <g id="line2d_10">
      <g>
       <use style="stroke:#000000;stroke-width:0.5;" x="63.064453125" xlink:href="#m741efc42ff" y="15.3"/>
      </g>
     </g>
     <g id="text_2">
      <!-- −0.70 -->
      <g transform="translate(48.603515625 189.7984375)scale(0.1 -0.1)">
       <use xlink:href="#BitstreamVeraSans-Roman-2212"/>
       <use x="83.7890625" xlink:href="#BitstreamVeraSans-Roman-30"/>
       <use x="147.412109375" xlink:href="#BitstreamVeraSans-Roman-2e"/>
       <use x="179.19921875" xlink:href="#BitstreamVeraSans-Roman-37"/>
       <use x="242.822265625" xlink:href="#BitstreamVeraSans-Roman-30"/>
      </g>
     </g>
    </g>
    <g id="xtick_3">
     <g id="line2d_11">
      <g>
       <use style="stroke:#000000;stroke-width:0.5;" x="82.50703125" xlink:href="#m93b0483c22" y="178.2"/>
      </g>
     </g>
     <g id="line2d_12">
      <g>
       <use style="stroke:#000000;stroke-width:0.5;" x="82.50703125" xlink:href="#m741efc42ff" y="15.3"/>
      </g>
     </g>
     <g id="text_3">
      <!-- −0.68 -->
      <defs>
       <path d="
M31.7812 34.625
Q24.75 34.625 20.7188 30.8594
Q16.7031 27.0938 16.7031 20.5156
Q16.7031 13.9219 20.7188 10.1562
Q24.75 6.39062 31.7812 6.39062
Q38.8125 6.39062 42.8594 10.1719
Q46.9219 13.9688 46.9219 20.5156
Q46.9219 27.0938 42.8906 30.8594
Q38.875 34.625 31.7812 34.625
M21.9219 38.8125
Q15.5781 40.375 12.0312 44.7188
Q8.5 49.0781 8.5 55.3281
Q8.5 64.0625 14.7188 69.1406
Q20.9531 74.2188 31.7812 74.2188
Q42.6719 74.2188 48.875 69.1406
Q55.0781 64.0625 55.0781 55.3281
Q55.0781 49.0781 51.5312 44.7188
Q48 40.375 41.7031 38.8125
Q48.8281 37.1562 52.7969 32.3125
Q56.7812 27.4844 56.7812 20.5156
Q56.7812 9.90625 50.3125 4.23438
Q43.8438 -1.42188 31.7812 -1.42188
Q19.7344 -1.42188 13.25 4.23438
Q6.78125 9.90625 6.78125 20.5156
Q6.78125 27.4844 10.7812 32.3125
Q14.7969 37.1562 21.9219 38.8125
M18.3125 54.3906
Q18.3125 48.7344 21.8438 45.5625
Q25.3906 42.3906 31.7812 42.3906
Q38.1406 42.3906 41.7188 45.5625
Q45.3125 48.7344 45.3125 54.3906
Q45.3125 60.0625 41.7188 63.2344
Q38.1406 66.4062 31.7812 66.4062
Q25.3906 66.4062 21.8438 63.2344
Q18.3125 60.0625 18.3125 54.3906" id="BitstreamVeraSans-Roman-38"/>
       <path d="
M33.0156 40.375
Q26.375 40.375 22.4844 35.8281
Q18.6094 31.2969 18.6094 23.3906
Q18.6094 15.5312 22.4844 10.9531
Q26.375 6.39062 33.0156 6.39062
Q39.6562 6.39062 43.5312 10.9531
Q47.4062 15.5312 47.4062 23.3906
Q47.4062 31.2969 43.5312 35.8281
Q39.6562 40.375 33.0156 40.375
M52.5938 71.2969
L52.5938 62.3125
Q48.875 64.0625 45.0938 64.9844
Q41.3125 65.9219 37.5938 65.9219
Q27.8281 65.9219 22.6719 59.3281
Q17.5312 52.7344 16.7969 39.4062
Q19.6719 43.6562 24.0156 45.9219
Q28.375 48.1875 33.5938 48.1875
Q44.5781 48.1875 50.9531 41.5156
Q57.3281 34.8594 57.3281 23.3906
Q57.3281 12.1562 50.6875 5.35938
Q44.0469 -1.42188 33.0156 -1.42188
Q20.3594 -1.42188 13.6719 8.26562
Q6.98438 17.9688 6.98438 36.375
Q6.98438 53.6562 15.1875 63.9375
Q23.3906 74.2188 37.2031 74.2188
Q40.9219 74.2188 44.7031 73.4844
Q48.4844 72.75 52.5938 71.2969" id="BitstreamVeraSans-Roman-36"/>
      </defs>
      <g transform="translate(68.05625 189.7984375)scale(0.1 -0.1)">
       <use xlink:href="#BitstreamVeraSans-Roman-2212"/>
       <use x="83.7890625" xlink:href="#BitstreamVeraSans-Roman-30"/>
       <use x="147.412109375" xlink:href="#BitstreamVeraSans-Roman-2e"/>
       <use x="179.19921875" xlink:href="#BitstreamVeraSans-Roman-36"/>
       <use x="242.822265625" xlink:href="#BitstreamVeraSans-Roman-38"/>
      </g>
     </g>
    </g>
    <g id="xtick_4">
     <g id="line2d_13">
      <g>
       <use style="stroke:#000000;stroke-width:0.5;" x="101.949609375" xlink:href="#m93b0483c22" y="178.2"/>
      </g>
     </g>
     <g id="line2d_14">
      <g>
       <use style="stroke:#000000;stroke-width:0.5;" x="101.949609375" xlink:href="#m741efc42ff" y="15.3"/>
      </g>
     </g>
     <g id="text_4">
      <!-- −0.66 -->
      <g transform="translate(87.471484375 189.7984375)scale(0.1 -0.1)">
       <use xlink:href="#BitstreamVeraSans-Roman-2212"/>
       <use x="83.7890625" xlink:href="#BitstreamVeraSans-Roman-30"/>
       <use x="147.412109375" xlink:href="#BitstreamVeraSans-Roman-2e"/>
       <use x="179.19921875" xlink:href="#BitstreamVeraSans-Roman-36"/>
       <use x="242.822265625" xlink:href="#BitstreamVeraSans-Roman-36"/>
      </g>
     </g>
    </g>
    <g id="xtick_5">
     <g id="line2d_15">
      <g>
       <use style="stroke:#000000;stroke-width:0.5;" x="121.3921875" xlink:href="#m93b0483c22" y="178.2"/>
      </g>
     </g>
     <g id="line2d_16">
      <g>
       <use style="stroke:#000000;stroke-width:0.5;" x="121.3921875" xlink:href="#m741efc42ff" y="15.3"/>
      </g>
     </g>
     <g id="text_5">
      <!-- −0.64 -->
      <defs>
       <path d="
M37.7969 64.3125
L12.8906 25.3906
L37.7969 25.3906
z

M35.2031 72.9062
L47.6094 72.9062
L47.6094 25.3906
L58.0156 25.3906
L58.0156 17.1875
L47.6094 17.1875
L47.6094 0
L37.7969 0
L37.7969 17.1875
L4.89062 17.1875
L4.89062 26.7031
z
" id="BitstreamVeraSans-Roman-34"/>
      </defs>
      <g transform="translate(106.8796875 189.7984375)scale(0.1 -0.1)">
       <use xlink:href="#BitstreamVeraSans-Roman-2212"/>
       <use x="83.7890625" xlink:href="#BitstreamVeraSans-Roman-30"/>
       <use x="147.412109375" xlink:href="#BitstreamVeraSans-Roman-2e"/>
       <use x="179.19921875" xlink:href="#BitstreamVeraSans-Roman-36"/>
       <use x="242.822265625" xlink:href="#BitstreamVeraSans-Roman-34"/>
      </g>
     </g>
    </g>
    <g id="xtick_6">
     <g id="line2d_17">
      <g>
       <use style="stroke:#000000;stroke-width:0.5;" x="140.834765625" xlink:href="#m93b0483c22" y="178.2"/>
      </g>
     </g>
     <g id="line2d_18">
      <g>
       <use style="stroke:#000000;stroke-width:0.5;" x="140.834765625" xlink:href="#m741efc42ff" y="15.3"/>
      </g>
     </g>
     <g id="text_6">
      <!-- −0.62 -->
      <g transform="translate(126.542578125 189.7984375)scale(0.1 -0.1)">
       <use xlink:href="#BitstreamVeraSans-Roman-2212"/>
       <use x="83.7890625" xlink:href="#BitstreamVeraSans-Roman-30"/>
       <use x="147.412109375" xlink:href="#BitstreamVeraSans-Roman-2e"/>
       <use x="179.19921875" xlink:href="#BitstreamVeraSans-Roman-36"/>
       <use x="242.822265625" xlink:href="#BitstreamVeraSans-Roman-32"/>
      </g>
     </g>
    </g>
    <g id="xtick_7">
     <g id="line2d_19">
      <g>
       <use style="stroke:#000000;stroke-width:0.5;" x="160.27734375" xlink:href="#m93b0483c22" y="178.2"/>
      </g>
     </g>
     <g id="line2d_20">
      <g>
       <use style="stroke:#000000;stroke-width:0.5;" x="160.27734375" xlink:href="#m741efc42ff" y="15.3"/>
      </g>
     </g>
     <g id="text_7">
      <!-- −0.60 -->
      <g transform="translate(145.81640625 189.7984375)scale(0.1 -0.1)">
       <use xlink:href="#BitstreamVeraSans-Roman-2212"/>
       <use x="83.7890625" xlink:href="#BitstreamVeraSans-Roman-30"/>
       <use x="147.412109375" xlink:href="#BitstreamVeraSans-Roman-2e"/>
       <use x="179.19921875" xlink:href="#BitstreamVeraSans-Roman-36"/>
       <use x="242.822265625" xlink:href="#BitstreamVeraSans-Roman-30"/>
      </g>
     </g>
    </g>
    <g id="xtick_8">
     <g id="line2d_21">
      <g>
       <use style="stroke:#000000;stroke-width:0.5;" x="179.719921875" xlink:href="#m93b0483c22" y="178.2"/>
      </g>
     </g>
     <g id="line2d_22">
      <g>
       <use style="stroke:#000000;stroke-width:0.5;" x="179.719921875" xlink:href="#m741efc42ff" y="15.3"/>
      </g>
     </g>
     <g id="text_8">
      <!-- −0.58 -->
      <defs>
       <path d="
M10.7969 72.9062
L49.5156 72.9062
L49.5156 64.5938
L19.8281 64.5938
L19.8281 46.7344
Q21.9688 47.4688 24.1094 47.8281
Q26.2656 48.1875 28.4219 48.1875
Q40.625 48.1875 47.75 41.5
Q54.8906 34.8125 54.8906 23.3906
Q54.8906 11.625 47.5625 5.09375
Q40.2344 -1.42188 26.9062 -1.42188
Q22.3125 -1.42188 17.5469 -0.640625
Q12.7969 0.140625 7.71875 1.70312
L7.71875 11.625
Q12.1094 9.23438 16.7969 8.0625
Q21.4844 6.89062 26.7031 6.89062
Q35.1562 6.89062 40.0781 11.3281
Q45.0156 15.7656 45.0156 23.3906
Q45.0156 31 40.0781 35.4375
Q35.1562 39.8906 26.7031 39.8906
Q22.75 39.8906 18.8125 39.0156
Q14.8906 38.1406 10.7969 36.2812
z
" id="BitstreamVeraSans-Roman-35"/>
      </defs>
      <g transform="translate(165.269140625 189.7984375)scale(0.1 -0.1)">
       <use xlink:href="#BitstreamVeraSans-Roman-2212"/>
       <use x="83.7890625" xlink:href="#BitstreamVeraSans-Roman-30"/>
       <use x="147.412109375" xlink:href="#BitstreamVeraSans-Roman-2e"/>
       <use x="179.19921875" xlink:href="#BitstreamVeraSans-Roman-35"/>
       <use x="242.822265625" xlink:href="#BitstreamVeraSans-Roman-38"/>
      </g>
     </g>
    </g>
    <g id="xtick_9">
     <g id="line2d_23">
      <g>
       <use style="stroke:#000000;stroke-width:0.5;" x="199.1625" xlink:href="#m93b0483c22" y="178.2"/>
      </g>
     </g>
     <g id="line2d_24">
      <g>
       <use style="stroke:#000000;stroke-width:0.5;" x="199.1625" xlink:href="#m741efc42ff" y="15.3"/>
      </g>
     </g>
     <g id="text_9">
      <!-- −0.56 -->
      <g transform="translate(184.684375 189.7984375)scale(0.1 -0.1)">
       <use xlink:href="#BitstreamVeraSans-Roman-2212"/>
       <use x="83.7890625" xlink:href="#BitstreamVeraSans-Roman-30"/>
       <use x="147.412109375" xlink:href="#BitstreamVeraSans-Roman-2e"/>
       <use x="179.19921875" xlink:href="#BitstreamVeraSans-Roman-35"/>
       <use x="242.822265625" xlink:href="#BitstreamVeraSans-Roman-36"/>
      </g>
     </g>
    </g>
    <g id="text_10">
     <!-- X component -->
     <defs>
      <path id="BitstreamVeraSans-Roman-20"/>
      <path d="
M54.8906 33.0156
L54.8906 0
L45.9062 0
L45.9062 32.7188
Q45.9062 40.4844 42.875 44.3281
Q39.8438 48.1875 33.7969 48.1875
Q26.5156 48.1875 22.3125 43.5469
Q18.1094 38.9219 18.1094 30.9062
L18.1094 0
L9.07812 0
L9.07812 54.6875
L18.1094 54.6875
L18.1094 46.1875
Q21.3438 51.125 25.7031 53.5625
Q30.0781 56 35.7969 56
Q45.2188 56 50.0469 50.1719
Q54.8906 44.3438 54.8906 33.0156" id="BitstreamVeraSans-Roman-6e"/>
      <path d="
M52 44.1875
Q55.375 50.25 60.0625 53.125
Q64.75 56 71.0938 56
Q79.6406 56 84.2812 50.0156
Q88.9219 44.0469 88.9219 33.0156
L88.9219 0
L79.8906 0
L79.8906 32.7188
Q79.8906 40.5781 77.0938 44.375
Q74.3125 48.1875 68.6094 48.1875
Q61.625 48.1875 57.5625 43.5469
Q53.5156 38.9219 53.5156 30.9062
L53.5156 0
L44.4844 0
L44.4844 32.7188
Q44.4844 40.625 41.7031 44.4062
Q38.9219 48.1875 33.1094 48.1875
Q26.2188 48.1875 22.1562 43.5312
Q18.1094 38.875 18.1094 30.9062
L18.1094 0
L9.07812 0
L9.07812 54.6875
L18.1094 54.6875
L18.1094 46.1875
Q21.1875 51.2188 25.4844 53.6094
Q29.7812 56 35.6875 56
Q41.6562 56 45.8281 52.9688
Q50 49.9531 52 44.1875" id="BitstreamVeraSans-Roman-6d"/>
      <path d="
M30.6094 48.3906
Q23.3906 48.3906 19.1875 42.75
Q14.9844 37.1094 14.9844 27.2969
Q14.9844 17.4844 19.1562 11.8438
Q23.3438 6.20312 30.6094 6.20312
Q37.7969 6.20312 41.9844 11.8594
Q46.1875 17.5312 46.1875 27.2969
Q46.1875 37.0156 41.9844 42.7031
Q37.7969 48.3906 30.6094 48.3906
M30.6094 56
Q42.3281 56 49.0156 48.375
Q55.7188 40.7656 55.7188 27.2969
Q55.7188 13.875 49.0156 6.21875
Q42.3281 -1.42188 30.6094 -1.42188
Q18.8438 -1.42188 12.1719 6.21875
Q5.51562 13.875 5.51562 27.2969
Q5.51562 40.7656 12.1719 48.375
Q18.8438 56 30.6094 56" id="BitstreamVeraSans-Roman-6f"/>
      <path d="
M56.2031 29.5938
L56.2031 25.2031
L14.8906 25.2031
Q15.4844 15.9219 20.4844 11.0625
Q25.4844 6.20312 34.4219 6.20312
Q39.5938 6.20312 44.4531 7.46875
Q49.3125 8.73438 54.1094 11.2812
L54.1094 2.78125
Q49.2656 0.734375 44.1875 -0.34375
Q39.1094 -1.42188 33.8906 -1.42188
Q20.7969 -1.42188 13.1562 6.1875
Q5.51562 13.8125 5.51562 26.8125
Q5.51562 40.2344 12.7656 48.1094
Q20.0156 56 32.3281 56
Q43.3594 56 49.7812 48.8906
Q56.2031 41.7969 56.2031 29.5938
M47.2188 32.2344
Q47.125 39.5938 43.0938 43.9844
Q39.0625 48.3906 32.4219 48.3906
Q24.9062 48.3906 20.3906 44.1406
Q15.875 39.8906 15.1875 32.1719
z
" id="BitstreamVeraSans-Roman-65"/>
      <path d="
M48.7812 52.5938
L48.7812 44.1875
Q44.9688 46.2969 41.1406 47.3438
Q37.3125 48.3906 33.4062 48.3906
Q24.6562 48.3906 19.8125 42.8438
Q14.9844 37.3125 14.9844 27.2969
Q14.9844 17.2812 19.8125 11.7344
Q24.6562 6.20312 33.4062 6.20312
Q37.3125 6.20312 41.1406 7.25
Q44.9688 8.29688 48.7812 10.4062
L48.7812 2.09375
Q45.0156 0.34375 40.9844 -0.53125
Q36.9688 -1.42188 32.4219 -1.42188
Q20.0625 -1.42188 12.7812 6.34375
Q5.51562 14.1094 5.51562 27.2969
Q5.51562 40.6719 12.8594 48.3281
Q20.2188 56 33.0156 56
Q37.1562 56 41.1094 55.1406
Q45.0625 54.2969 48.7812 52.5938" id="BitstreamVeraSans-Roman-63"/>
      <path d="
M6.29688 72.9062
L16.8906 72.9062
L35.0156 45.7969
L53.2188 72.9062
L63.8125 72.9062
L40.375 37.8906
L65.375 0
L54.7812 0
L34.2812 31
L13.625 0
L2.98438 0
L29 38.9219
z
" id="BitstreamVeraSans-Roman-58"/>
      <path d="
M18.3125 70.2188
L18.3125 54.6875
L36.8125 54.6875
L36.8125 47.7031
L18.3125 47.7031
L18.3125 18.0156
Q18.3125 11.3281 20.1406 9.42188
Q21.9688 7.51562 27.5938 7.51562
L36.8125 7.51562
L36.8125 0
L27.5938 0
Q17.1875 0 13.2344 3.875
Q9.28125 7.76562 9.28125 18.0156
L9.28125 47.7031
L2.6875 47.7031
L2.6875 54.6875
L9.28125 54.6875
L9.28125 70.2188
z
" id="BitstreamVeraSans-Roman-74"/>
      <path d="
M18.1094 8.20312
L18.1094 -20.7969
L9.07812 -20.7969
L9.07812 54.6875
L18.1094 54.6875
L18.1094 46.3906
Q20.9531 51.2656 25.2656 53.625
Q29.5938 56 35.5938 56
Q45.5625 56 51.7812 48.0938
Q58.0156 40.1875 58.0156 27.2969
Q58.0156 14.4062 51.7812 6.48438
Q45.5625 -1.42188 35.5938 -1.42188
Q29.5938 -1.42188 25.2656 0.953125
Q20.9531 3.32812 18.1094 8.20312
M48.6875 27.2969
Q48.6875 37.2031 44.6094 42.8438
Q40.5312 48.4844 33.4062 48.4844
Q26.2656 48.4844 22.1875 42.8438
Q18.1094 37.2031 18.1094 27.2969
Q18.1094 17.3906 22.1875 11.75
Q26.2656 6.10938 33.4062 6.10938
Q40.5312 6.10938 44.6094 11.75
Q48.6875 17.3906 48.6875 27.2969" id="BitstreamVeraSans-Roman-70"/>
     </defs>
     <g transform="translate(88.2109375 204.4765625)scale(0.1 -0.1)">
      <use xlink:href="#BitstreamVeraSans-Roman-58"/>
      <use x="68.505859375" xlink:href="#BitstreamVeraSans-Roman-20"/>
      <use x="100.29296875" xlink:href="#BitstreamVeraSans-Roman-63"/>
      <use x="155.2734375" xlink:href="#BitstreamVeraSans-Roman-6f"/>
      <use x="216.455078125" xlink:href="#BitstreamVeraSans-Roman-6d"/>
      <use x="313.8671875" xlink:href="#BitstreamVeraSans-Roman-70"/>
      <use x="377.34375" xlink:href="#BitstreamVeraSans-Roman-6f"/>
      <use x="438.525390625" xlink:href="#BitstreamVeraSans-Roman-6e"/>
      <use x="501.904296875" xlink:href="#BitstreamVeraSans-Roman-65"/>
      <use x="563.427734375" xlink:href="#BitstreamVeraSans-Roman-6e"/>
      <use x="626.806640625" xlink:href="#BitstreamVeraSans-Roman-74"/>
     </g>
    </g>
   </g>
   <g id="matplotlib.axis_2">
    <g id="ytick_1">
     <g id="line2d_25">
      <defs>
       <path d="
M0 0
L4 0" id="m728421d6d4" style="stroke:#000000;stroke-width:0.5;"/>
      </defs>
      <g>
       <use style="stroke:#000000;stroke-width:0.5;" x="43.621875" xlink:href="#m728421d6d4" y="178.2"/>
      </g>
     </g>
     <g id="line2d_26">
      <defs>
       <path d="
M0 0
L-4 0" id="mcb0005524f" style="stroke:#000000;stroke-width:0.5;"/>
      </defs>
      <g>
       <use style="stroke:#000000;stroke-width:0.5;" x="199.1625" xlink:href="#mcb0005524f" y="178.2"/>
      </g>
     </g>
     <g id="text_11">
      <!-- 0.0 -->
      <g transform="translate(25.0421875 180.959375)scale(0.1 -0.1)">
       <use xlink:href="#BitstreamVeraSans-Roman-30"/>
       <use x="63.623046875" xlink:href="#BitstreamVeraSans-Roman-2e"/>
       <use x="95.41015625" xlink:href="#BitstreamVeraSans-Roman-30"/>
      </g>
     </g>
    </g>
    <g id="ytick_2">
     <g id="line2d_27">
      <g>
       <use style="stroke:#000000;stroke-width:0.5;" x="43.621875" xlink:href="#m728421d6d4" y="145.62"/>
      </g>
     </g>
     <g id="line2d_28">
      <g>
       <use style="stroke:#000000;stroke-width:0.5;" x="199.1625" xlink:href="#mcb0005524f" y="145.62"/>
      </g>
     </g>
     <g id="text_12">
      <!-- 0.2 -->
      <g transform="translate(25.3796875 148.379375)scale(0.1 -0.1)">
       <use xlink:href="#BitstreamVeraSans-Roman-30"/>
       <use x="63.623046875" xlink:href="#BitstreamVeraSans-Roman-2e"/>
       <use x="95.41015625" xlink:href="#BitstreamVeraSans-Roman-32"/>
      </g>
     </g>
    </g>
    <g id="ytick_3">
     <g id="line2d_29">
      <g>
       <use style="stroke:#000000;stroke-width:0.5;" x="43.621875" xlink:href="#m728421d6d4" y="113.04"/>
      </g>
     </g>
     <g id="line2d_30">
      <g>
       <use style="stroke:#000000;stroke-width:0.5;" x="199.1625" xlink:href="#mcb0005524f" y="113.04"/>
      </g>
     </g>
     <g id="text_13">
      <!-- 0.4 -->
      <g transform="translate(24.9390625 115.799375)scale(0.1 -0.1)">
       <use xlink:href="#BitstreamVeraSans-Roman-30"/>
       <use x="63.623046875" xlink:href="#BitstreamVeraSans-Roman-2e"/>
       <use x="95.41015625" xlink:href="#BitstreamVeraSans-Roman-34"/>
      </g>
     </g>
    </g>
    <g id="ytick_4">
     <g id="line2d_31">
      <g>
       <use style="stroke:#000000;stroke-width:0.5;" x="43.621875" xlink:href="#m728421d6d4" y="80.46"/>
      </g>
     </g>
     <g id="line2d_32">
      <g>
       <use style="stroke:#000000;stroke-width:0.5;" x="199.1625" xlink:href="#mcb0005524f" y="80.46"/>
      </g>
     </g>
     <g id="text_14">
      <!-- 0.6 -->
      <g transform="translate(25.0078125 83.219375)scale(0.1 -0.1)">
       <use xlink:href="#BitstreamVeraSans-Roman-30"/>
       <use x="63.623046875" xlink:href="#BitstreamVeraSans-Roman-2e"/>
       <use x="95.41015625" xlink:href="#BitstreamVeraSans-Roman-36"/>
      </g>
     </g>
    </g>
    <g id="ytick_5">
     <g id="line2d_33">
      <g>
       <use style="stroke:#000000;stroke-width:0.5;" x="43.621875" xlink:href="#m728421d6d4" y="47.88"/>
      </g>
     </g>
     <g id="line2d_34">
      <g>
       <use style="stroke:#000000;stroke-width:0.5;" x="199.1625" xlink:href="#mcb0005524f" y="47.88"/>
      </g>
     </g>
     <g id="text_15">
      <!-- 0.8 -->
      <g transform="translate(25.0625 50.639375)scale(0.1 -0.1)">
       <use xlink:href="#BitstreamVeraSans-Roman-30"/>
       <use x="63.623046875" xlink:href="#BitstreamVeraSans-Roman-2e"/>
       <use x="95.41015625" xlink:href="#BitstreamVeraSans-Roman-38"/>
      </g>
     </g>
    </g>
    <g id="ytick_6">
     <g id="line2d_35">
      <g>
       <use style="stroke:#000000;stroke-width:0.5;" x="43.621875" xlink:href="#m728421d6d4" y="15.3"/>
      </g>
     </g>
     <g id="line2d_36">
      <g>
       <use style="stroke:#000000;stroke-width:0.5;" x="199.1625" xlink:href="#mcb0005524f" y="15.3"/>
      </g>
     </g>
     <g id="text_16">
      <!-- 1.0 -->
      <defs>
       <path d="
M12.4062 8.29688
L28.5156 8.29688
L28.5156 63.9219
L10.9844 60.4062
L10.9844 69.3906
L28.4219 72.9062
L38.2812 72.9062
L38.2812 8.29688
L54.3906 8.29688
L54.3906 0
L12.4062 0
z
" id="BitstreamVeraSans-Roman-31"/>
      </defs>
      <g transform="translate(25.48125 18.059375)scale(0.1 -0.1)">
       <use xlink:href="#BitstreamVeraSans-Roman-31"/>
       <use x="63.623046875" xlink:href="#BitstreamVeraSans-Roman-2e"/>
       <use x="95.41015625" xlink:href="#BitstreamVeraSans-Roman-30"/>
      </g>
     </g>
    </g>
    <g id="text_17">
     <!-- Cumulative Distribution -->
     <defs>
      <path d="
M41.1094 46.2969
Q39.5938 47.1719 37.8125 47.5781
Q36.0312 48 33.8906 48
Q26.2656 48 22.1875 43.0469
Q18.1094 38.0938 18.1094 28.8125
L18.1094 0
L9.07812 0
L9.07812 54.6875
L18.1094 54.6875
L18.1094 46.1875
Q20.9531 51.1719 25.4844 53.5781
Q30.0312 56 36.5312 56
Q37.4531 56 38.5781 55.875
Q39.7031 55.7656 41.0625 55.5156
z
" id="BitstreamVeraSans-Roman-72"/>
      <path d="
M9.42188 75.9844
L18.4062 75.9844
L18.4062 0
L9.42188 0
z
" id="BitstreamVeraSans-Roman-6c"/>
      <path d="
M19.6719 64.7969
L19.6719 8.10938
L31.5938 8.10938
Q46.6875 8.10938 53.6875 14.9375
Q60.6875 21.7812 60.6875 36.5312
Q60.6875 51.1719 53.6875 57.9844
Q46.6875 64.7969 31.5938 64.7969
z

M9.8125 72.9062
L30.0781 72.9062
Q51.2656 72.9062 61.1719 64.0938
Q71.0938 55.2812 71.0938 36.5312
Q71.0938 17.6719 61.125 8.82812
Q51.1719 0 30.0781 0
L9.8125 0
z
" id="BitstreamVeraSans-Roman-44"/>
      <path d="
M9.42188 54.6875
L18.4062 54.6875
L18.4062 0
L9.42188 0
z

M9.42188 75.9844
L18.4062 75.9844
L18.4062 64.5938
L9.42188 64.5938
z
" id="BitstreamVeraSans-Roman-69"/>
      <path d="
M2.98438 54.6875
L12.5 54.6875
L29.5938 8.79688
L46.6875 54.6875
L56.2031 54.6875
L35.6875 0
L23.4844 0
z
" id="BitstreamVeraSans-Roman-76"/>
      <path d="
M64.4062 67.2812
L64.4062 56.8906
Q59.4219 61.5312 53.7812 63.8125
Q48.1406 66.1094 41.7969 66.1094
Q29.2969 66.1094 22.6562 58.4688
Q16.0156 50.8281 16.0156 36.375
Q16.0156 21.9688 22.6562 14.3281
Q29.2969 6.6875 41.7969 6.6875
Q48.1406 6.6875 53.7812 8.98438
Q59.4219 11.2812 64.4062 15.9219
L64.4062 5.60938
Q59.2344 2.09375 53.4375 0.328125
Q47.6562 -1.42188 41.2188 -1.42188
Q24.6562 -1.42188 15.125 8.70312
Q5.60938 18.8438 5.60938 36.375
Q5.60938 53.9531 15.125 64.0781
Q24.6562 74.2188 41.2188 74.2188
Q47.75 74.2188 53.5312 72.4844
Q59.3281 70.75 64.4062 67.2812" id="BitstreamVeraSans-Roman-43"/>
      <path d="
M8.5 21.5781
L8.5 54.6875
L17.4844 54.6875
L17.4844 21.9219
Q17.4844 14.1562 20.5 10.2656
Q23.5312 6.39062 29.5938 6.39062
Q36.8594 6.39062 41.0781 11.0312
Q45.3125 15.6719 45.3125 23.6875
L45.3125 54.6875
L54.2969 54.6875
L54.2969 0
L45.3125 0
L45.3125 8.40625
Q42.0469 3.42188 37.7188 1
Q33.4062 -1.42188 27.6875 -1.42188
Q18.2656 -1.42188 13.375 4.4375
Q8.5 10.2969 8.5 21.5781" id="BitstreamVeraSans-Roman-75"/>
      <path d="
M34.2812 27.4844
Q23.3906 27.4844 19.1875 25
Q14.9844 22.5156 14.9844 16.5
Q14.9844 11.7188 18.1406 8.90625
Q21.2969 6.10938 26.7031 6.10938
Q34.1875 6.10938 38.7031 11.4062
Q43.2188 16.7031 43.2188 25.4844
L43.2188 27.4844
z

M52.2031 31.2031
L52.2031 0
L43.2188 0
L43.2188 8.29688
Q40.1406 3.32812 35.5469 0.953125
Q30.9531 -1.42188 24.3125 -1.42188
Q15.9219 -1.42188 10.9531 3.29688
Q6 8.01562 6 15.9219
Q6 25.1406 12.1719 29.8281
Q18.3594 34.5156 30.6094 34.5156
L43.2188 34.5156
L43.2188 35.4062
Q43.2188 41.6094 39.1406 45
Q35.0625 48.3906 27.6875 48.3906
Q23 48.3906 18.5469 47.2656
Q14.1094 46.1406 10.0156 43.8906
L10.0156 52.2031
Q14.9375 54.1094 19.5781 55.0469
Q24.2188 56 28.6094 56
Q40.4844 56 46.3438 49.8438
Q52.2031 43.7031 52.2031 31.2031" id="BitstreamVeraSans-Roman-61"/>
      <path d="
M44.2812 53.0781
L44.2812 44.5781
Q40.4844 46.5312 36.375 47.5
Q32.2812 48.4844 27.875 48.4844
Q21.1875 48.4844 17.8438 46.4375
Q14.5 44.3906 14.5 40.2812
Q14.5 37.1562 16.8906 35.375
Q19.2812 33.5938 26.5156 31.9844
L29.5938 31.2969
Q39.1562 29.25 43.1875 25.5156
Q47.2188 21.7812 47.2188 15.0938
Q47.2188 7.46875 41.1875 3.01562
Q35.1562 -1.42188 24.6094 -1.42188
Q20.2188 -1.42188 15.4531 -0.5625
Q10.6875 0.296875 5.42188 2
L5.42188 11.2812
Q10.4062 8.6875 15.2344 7.39062
Q20.0625 6.10938 24.8125 6.10938
Q31.1562 6.10938 34.5625 8.28125
Q37.9844 10.4531 37.9844 14.4062
Q37.9844 18.0625 35.5156 20.0156
Q33.0625 21.9688 24.7031 23.7812
L21.5781 24.5156
Q13.2344 26.2656 9.51562 29.9062
Q5.8125 33.5469 5.8125 39.8906
Q5.8125 47.6094 11.2812 51.7969
Q16.75 56 26.8125 56
Q31.7812 56 36.1719 55.2656
Q40.5781 54.5469 44.2812 53.0781" id="BitstreamVeraSans-Roman-73"/>
      <path d="
M48.6875 27.2969
Q48.6875 37.2031 44.6094 42.8438
Q40.5312 48.4844 33.4062 48.4844
Q26.2656 48.4844 22.1875 42.8438
Q18.1094 37.2031 18.1094 27.2969
Q18.1094 17.3906 22.1875 11.75
Q26.2656 6.10938 33.4062 6.10938
Q40.5312 6.10938 44.6094 11.75
Q48.6875 17.3906 48.6875 27.2969
M18.1094 46.3906
Q20.9531 51.2656 25.2656 53.625
Q29.5938 56 35.5938 56
Q45.5625 56 51.7812 48.0938
Q58.0156 40.1875 58.0156 27.2969
Q58.0156 14.4062 51.7812 6.48438
Q45.5625 -1.42188 35.5938 -1.42188
Q29.5938 -1.42188 25.2656 0.953125
Q20.9531 3.32812 18.1094 8.20312
L18.1094 0
L9.07812 0
L9.07812 75.9844
L18.1094 75.9844
z
" id="BitstreamVeraSans-Roman-62"/>
     </defs>
     <g transform="translate(17.859375 155.62109375)rotate(-90.0)scale(0.1 -0.1)">
      <use xlink:href="#BitstreamVeraSans-Roman-43"/>
      <use x="69.82421875" xlink:href="#BitstreamVeraSans-Roman-75"/>
      <use x="133.203125" xlink:href="#BitstreamVeraSans-Roman-6d"/>
      <use x="230.615234375" xlink:href="#BitstreamVeraSans-Roman-75"/>
      <use x="293.994140625" xlink:href="#BitstreamVeraSans-Roman-6c"/>
      <use x="321.77734375" xlink:href="#BitstreamVeraSans-Roman-61"/>
      <use x="383.056640625" xlink:href="#BitstreamVeraSans-Roman-74"/>
      <use x="422.265625" xlink:href="#BitstreamVeraSans-Roman-69"/>
      <use x="450.048828125" xlink:href="#BitstreamVeraSans-Roman-76"/>
      <use x="509.228515625" xlink:href="#BitstreamVeraSans-Roman-65"/>
      <use x="570.751953125" xlink:href="#BitstreamVeraSans-Roman-20"/>
      <use x="602.5390625" xlink:href="#BitstreamVeraSans-Roman-44"/>
      <use x="679.541015625" xlink:href="#BitstreamVeraSans-Roman-69"/>
      <use x="707.32421875" xlink:href="#BitstreamVeraSans-Roman-73"/>
      <use x="759.423828125" xlink:href="#BitstreamVeraSans-Roman-74"/>
      <use x="798.6328125" xlink:href="#BitstreamVeraSans-Roman-72"/>
      <use x="839.74609375" xlink:href="#BitstreamVeraSans-Roman-69"/>
      <use x="867.529296875" xlink:href="#BitstreamVeraSans-Roman-62"/>
      <use x="931.005859375" xlink:href="#BitstreamVeraSans-Roman-75"/>
      <use x="994.384765625" xlink:href="#BitstreamVeraSans-Roman-74"/>
      <use x="1033.59375" xlink:href="#BitstreamVeraSans-Roman-69"/>
      <use x="1061.37695312" xlink:href="#BitstreamVeraSans-Roman-6f"/>
      <use x="1122.55859375" xlink:href="#BitstreamVeraSans-Roman-6e"/>
     </g>
    </g>
   </g>
  </g>
  <g id="axes_2">
   <g id="patch_7">
    <path d="
M257.367 178.2
L412.908 178.2
L412.908 15.3
L257.367 15.3
z
" style="fill:#ffffff;"/>
   </g>
   <g id="line2d_37">
    <path clip-path="url(#p1c38c01f63)" d="
M263.228 178.2
L282.031 178.005
L284.718 177.842
L286.193 177.711
L289.479 177.581
L293.736 177.06
L293.997 176.962
L295.389 176.734
L295.747 176.441
L296.783 176.147
L297.976 175.887
L298.683 175.724
L298.688 175.691
L299.11 175.528
L299.182 175.431
L299.719 175.268
L301.733 174.356
L302.171 174.127
L302.342 173.965
L302.61 173.834
L302.694 173.704
L303.381 173.378
L303.675 173.15
L303.754 172.987
L304.896 172.303
L305.058 172.14
L305.749 171.782
L305.884 171.619
L306.13 171.358
L306.383 171.195
L307.001 170.511
L307.18 170.348
L307.704 169.957
L308.263 169.631
L308.516 169.371
L308.864 168.817
L309.284 168.556
L309.656 168.328
L309.764 168.165
L309.94 167.937
L310.042 167.84
L310.271 167.611
L310.372 167.351
L310.649 167.188
L310.831 167.025
L310.981 166.83
L311.12 166.732
L311.23 166.536
L311.369 166.341
L312.063 165.559
L312.171 165.331
L312.271 165.135
L312.759 164.321
L313.001 164.158
L313.138 164.028
L313.334 163.8
L314.084 162.724
L314.218 162.562
L314.285 162.496
L314.365 162.334
L314.754 161.78
L315.047 161.421
L315.174 161.095
L315.453 160.509
L315.538 160.379
L315.762 159.955
L315.879 159.727
L315.965 159.532
L316.159 159.271
L316.449 158.652
L316.56 158.359
L317.331 156.795
L317.435 156.73
L317.601 156.567
L317.752 156.404
L317.98 155.72
L318.433 154.808
L318.526 154.579
L318.721 154.221
L321.564 147.314
L321.654 147.021
L321.767 146.793
L321.986 146.369
L322.367 145.294
L322.445 145.131
L322.557 145.001
L322.715 144.675
L322.803 144.349
L323.1 143.535
L323.321 143.111
L323.793 141.71
L323.984 141.091
L324.151 140.57
L324.282 140.081
L324.713 138.648
L324.923 137.996
L325.103 137.703
L325.23 137.345
L325.348 136.954
L325.756 135.879
L325.946 135.357
L326.059 135.129
L326.167 134.706
L326.377 134.282
L326.497 133.891
L326.878 132.425
L326.963 132.197
L327.189 131.187
L327.646 129.46
L328.617 125.844
L328.749 125.616
L328.852 125.16
L329.293 123.922
L329.404 123.563
L329.497 123.172
L329.654 122.651
L329.726 122.358
L330.014 121.348
L330.493 120.208
L331.037 118.188
L331.205 117.96
L331.359 117.308
L331.456 117.047
L331.725 116.005
L331.792 115.809
L331.932 115.549
L332.089 115.027
L332.234 114.278
L332.535 113.268
L332.677 112.714
L333.025 111.639
L333.374 109.977
L333.53 109.456
L336.749 98.9654
L336.833 98.77
L337.01 98.0532
L337.154 97.4668
L337.384 96.359
L337.569 95.6749
L337.681 95.4468
L338.144 93.492
L338.252 93.0033
L338.402 92.5798
L338.622 91.6024
L338.731 91.1788
L338.902 90.5924
L339.107 90.2666
L339.215 89.8105
L339.382 89.0611
L339.801 87.3344
L339.897 86.9108
L340.011 86.3244
L340.558 84.4348
L340.614 84.1415
L341.303 81.2419
L341.399 81.0464
L341.568 80.5577
L341.823 79.6781
L342.461 77.8536
L342.574 77.4626
L342.843 76.1594
L343.8 73.0643
L343.974 72.6734
L344.174 71.9892
L344.293 71.5331
L344.393 71.2399
L344.957 69.6109
L345.062 69.3828
L345.266 68.666
L345.389 68.3402
L345.609 67.5909
L345.693 67.1674
L345.85 66.3529
L346.067 65.5058
L346.155 65.0497
L347.391 60.9772
L347.599 60.3581
L347.699 59.9672
L347.784 59.8043
L347.85 59.5111
L348.074 58.7617
L348.15 58.5988
L348.602 57.3608
L348.774 56.8721
L348.883 56.4485
L349.079 55.8621
L349.43 55.1453
L349.564 54.4612
L349.643 54.2331
L349.888 53.4186
L350.077 52.767
L350.199 52.4738
L350.31 52.0502
L352.744 45.86
L352.911 45.3388
L353.908 42.8953
L354.124 42.0156
L354.24 41.755
L354.444 41.3966
L354.679 40.9079
L354.973 40.2237
L355.76 38.8553
L355.883 38.5295
L356.029 37.9431
L356.155 37.6825
L356.34 37.3567
L356.703 36.7051
L356.852 36.5422
L357.153 36.1838
L358.308 33.8054
L358.414 33.6425
L358.577 33.3167
L358.801 32.9909
L359.54 31.6226
L360.362 30.4823
L360.415 30.3845
L360.575 30.2216
L360.661 29.9936
L360.991 29.6026
L361.298 29.1139
L361.536 28.723
L361.601 28.6252
L361.735 28.4623
L362.206 27.5501
L363.011 26.6378
L363.105 26.4098
L363.527 25.9862
L363.607 25.7908
L363.773 25.6279
L364.257 25.1392
L364.477 25.0088
L364.984 24.455
L365.174 24.2269
L365.214 24.1292
L365.423 23.9663
L365.647 23.7708
L365.665 23.7056
L365.919 23.5753
L366.648 22.826
L366.82 22.6957
L366.873 22.5979
L367.159 22.435
L367.26 22.2395
L367.408 21.9137
L368.234 21.5879
L368.254 21.5554
L368.912 21.3599
L368.992 21.1644
L369.394 20.9038
L369.423 20.8712
L369.736 20.7083
L369.946 20.5454
L370.188 20.4476
L370.448 20.2847
L370.743 20.0893
L371.341 19.796
L371.344 19.7635
L371.961 19.5354
L372.177 19.3725
L372.195 19.3399
L372.727 19.177
L372.871 19.0141
L373.22 18.8512
L373.745 18.558
L374.31 18.3625
L376.765 17.6783
L377.347 17.548
L378.878 16.9616
L380.288 16.7009
L380.436 16.6032
L381.048 16.4403
L382.753 16.0819
L384.948 15.8539
L384.984 15.8213
L387.131 15.6584
L392.025 15.4629
L392.687 15.3977
L408.544 15.3326
L408.544 15.3326" style="fill:none;stroke:#ff0000;stroke-linecap:square;"/>
   </g>
   <g id="line2d_38">
    <path clip-path="url(#p1c38c01f63)" d="
M302.171 178.2
L302.171 15.3" style="fill:none;stroke:#ff0000;stroke-linecap:square;"/>
   </g>
   <g id="line2d_39">
    <path clip-path="url(#p1c38c01f63)" d="
M372.177 178.2
L372.177 15.3" style="fill:none;stroke:#ff0000;stroke-linecap:square;"/>
   </g>
   <g id="line2d_40">
    <path clip-path="url(#p1c38c01f63)" d="
M267.341 178.2
L278.573 177.744
L279.513 177.581
L283.084 177.255
L283.528 177.092
L283.54 177.06
L285.066 176.864
L285.828 176.669
L287.182 176.343
L288.067 176.147
L288.368 175.919
L289.137 175.659
L289.282 175.528
L289.634 175.366
L290.071 175.268
L290.768 175.105
L290.882 175.04
L292.149 174.421
L293.037 174.095
L293.123 173.932
L293.842 173.508
L293.845 173.476
L294.43 173.215
L294.68 172.857
L294.819 172.727
L295.31 172.531
L295.566 172.173
L296.182 171.749
L296.374 171.586
L296.565 171.456
L296.917 171.228
L297.017 171.163
L297.963 170.25
L298.15 170.055
L298.532 169.762
L299.1 169.11
L299.138 169.012
L299.304 168.882
L299.735 168.296
L300.059 167.937
L300.102 167.84
L300.31 167.644
L300.428 167.416
L300.633 167.221
L302.699 164.484
L302.79 164.256
L303.897 162.496
L304.041 162.268
L304.155 162.04
L304.304 161.682
L304.444 161.454
L304.524 161.128
L304.619 160.965
L304.764 160.672
L305.077 160.411
L305.222 160.086
L305.998 158.457
L306.161 157.935
L306.341 157.414
L306.488 156.828
L306.624 156.502
L306.752 156.274
L306.892 156.046
L307.74 154.351
L307.844 154.221
L308.002 153.928
L308.119 153.667
L308.438 153.016
L308.575 152.82
L308.819 152.103
L309.017 151.68
L309.42 150.735
L309.53 150.442
L310.715 147.607
L310.903 146.956
L311.18 146.369
L311.311 146.206
L312.137 143.567
L312.267 143.274
L312.856 141.678
L313.091 140.928
L313.302 140.049
L313.527 139.234
L316.613 128.874
L316.67 128.613
L317.991 124.508
L318.128 123.987
L319.789 118.416
L319.899 118.025
L320.125 117.112
L320.414 116.656
L321.417 113.138
L321.531 112.812
L321.651 112.193
L321.85 111.509
L322.129 110.303
L322.429 109.163
L322.584 108.283
L322.806 107.338
L323.275 105.416
L323.882 103.722
L324.028 103.233
L324.618 101.083
L324.747 100.464
L325.704 96.9781
L325.766 96.7174
L325.933 95.9029
L326.047 95.74
L326.365 94.4368
L327.442 90.7879
L327.531 90.625
L327.718 90.0059
L327.845 89.6476
L328.12 88.605
L328.231 88.0511
L328.343 87.4973
L329.512 82.9035
L329.665 81.9587
L329.758 81.6329
L330.365 79.6781
L330.413 79.4826
L330.526 79.1568
L330.846 78.3423
L331.021 77.8862
L331.087 77.593
L331.501 76.0617
L331.647 75.6382
L331.868 74.7911
L331.989 74.563
L332.252 73.7159
L332.341 73.5205
L332.445 73.1295
L332.572 72.8689
L332.805 72.2173
L332.914 71.8915
L333.259 70.3602
L333.325 70.1321
L333.432 69.7412
L333.592 69.1547
L333.859 68.0796
L333.938 67.819
L334.165 66.7764
L334.622 65.3755
L334.819 64.7564
L335.314 63.0949
L335.447 62.7039
L335.68 62.15
L336.119 60.7817
L336.291 60.521
L336.432 59.9346
L336.715 59.283
L336.801 58.9898
L336.924 58.7617
L338.556 53.5489
L338.715 53.0276
L338.866 52.6367
L340.594 47.5216
L340.699 47.2936
L340.81 47.0329
L341.267 46.1207
L341.371 45.7297
L341.642 45.013
L342.364 43.0907
L342.543 42.8627
L342.66 42.602
L343.443 41.364
L343.581 41.0056
L343.98 40.0934
L344.159 39.5721
L344.471 38.9205
L344.641 38.3015
L344.812 38.1386
L344.977 37.9105
L346.328 35.1738
L346.442 35.0109
L346.585 34.5548
L346.876 33.9683
L346.965 33.8054
L347.801 32.3068
L348.046 31.9158
L348.187 31.6226
L348.409 31.2642
L348.527 31.0687
L349.796 29.3746
L350.021 29.0488
L350.103 28.951
L350.24 28.7881
L350.467 28.4623
L350.674 28.2668
L350.79 28.0714
L350.912 27.9085
L352.304 26.0514
L352.598 25.7256
L353.338 24.8459
L353.582 24.5527
L353.717 24.4224
L354.05 24.1618
L354.164 24.0314
L354.39 23.7382
L354.747 23.445
L354.802 23.3147
L354.974 23.1518
L355.051 23.054
L355.455 22.8911
L355.553 22.7282
L356.145 22.2721
L356.277 22.0766
L356.785 21.7183
L357.084 21.5554
L357.219 21.3599
L357.36 21.1318
L357.454 21.0341
L359.427 19.5354
L359.514 19.4051
L360.668 18.9164
L363.252 18.1019
L364.008 17.939
L364.971 17.6783
L365.925 17.3851
L366.036 17.32
L366.069 17.2874
L366.485 17.1245
L366.677 17.0267
L367.323 16.8638
L368.603 16.5706
L368.697 16.4729
L368.754 16.4403
L379.132 15.4955
L381.377 15.3652
L396.129 15.3326
L396.129 15.3326" style="fill:none;stroke:#0000ff;stroke-linecap:square;"/>
   </g>
   <g id="line2d_41">
    <path clip-path="url(#p1c38c01f63)" d="
M293.003 178.2
L293.003 15.3" style="fill:none;stroke:#0000ff;stroke-dasharray:6.000000,6.000000;stroke-dashoffset:0.0;"/>
   </g>
   <g id="line2d_42">
    <path clip-path="url(#p1c38c01f63)" d="
M359.577 178.2
L359.577 15.3" style="fill:none;stroke:#0000ff;stroke-dasharray:6.000000,6.000000;stroke-dashoffset:0.0;"/>
   </g>
   <g id="patch_8">
    <path d="
M257.367 15.3
L412.908 15.3" style="fill:none;stroke:#000000;stroke-linecap:square;stroke-linejoin:miter;"/>
   </g>
   <g id="patch_9">
    <path d="
M412.908 178.2
L412.908 15.3" style="fill:none;stroke:#000000;stroke-linecap:square;stroke-linejoin:miter;"/>
   </g>
   <g id="patch_10">
    <path d="
M257.367 178.2
L412.908 178.2" style="fill:none;stroke:#000000;stroke-linecap:square;stroke-linejoin:miter;"/>
   </g>
   <g id="patch_11">
    <path d="
M257.367 178.2
L257.367 15.3" style="fill:none;stroke:#000000;stroke-linecap:square;stroke-linejoin:miter;"/>
   </g>
   <g id="matplotlib.axis_3">
    <g id="xtick_10">
     <g id="line2d_43">
      <g>
       <use style="stroke:#000000;stroke-width:0.5;" x="257.3671875" xlink:href="#m93b0483c22" y="178.2"/>
      </g>
     </g>
     <g id="line2d_44">
      <g>
       <use style="stroke:#000000;stroke-width:0.5;" x="257.3671875" xlink:href="#m741efc42ff" y="15.3"/>
      </g>
     </g>
     <g id="text_18">
      <!-- −0.30 -->
      <defs>
       <path d="
M40.5781 39.3125
Q47.6562 37.7969 51.625 33
Q55.6094 28.2188 55.6094 21.1875
Q55.6094 10.4062 48.1875 4.48438
Q40.7656 -1.42188 27.0938 -1.42188
Q22.5156 -1.42188 17.6562 -0.515625
Q12.7969 0.390625 7.625 2.20312
L7.625 11.7188
Q11.7188 9.32812 16.5938 8.10938
Q21.4844 6.89062 26.8125 6.89062
Q36.0781 6.89062 40.9375 10.5469
Q45.7969 14.2031 45.7969 21.1875
Q45.7969 27.6406 41.2812 31.2656
Q36.7656 34.9062 28.7188 34.9062
L20.2188 34.9062
L20.2188 43.0156
L29.1094 43.0156
Q36.375 43.0156 40.2344 45.9219
Q44.0938 48.8281 44.0938 54.2969
Q44.0938 59.9062 40.1094 62.9062
Q36.1406 65.9219 28.7188 65.9219
Q24.6562 65.9219 20.0156 65.0312
Q15.375 64.1562 9.8125 62.3125
L9.8125 71.0938
Q15.4375 72.6562 20.3438 73.4375
Q25.25 74.2188 29.5938 74.2188
Q40.8281 74.2188 47.3594 69.1094
Q53.9062 64.0156 53.9062 55.3281
Q53.9062 49.2656 50.4375 45.0938
Q46.9688 40.9219 40.5781 39.3125" id="BitstreamVeraSans-Roman-33"/>
      </defs>
      <g transform="translate(242.90625 189.7984375)scale(0.1 -0.1)">
       <use xlink:href="#BitstreamVeraSans-Roman-2212"/>
       <use x="83.7890625" xlink:href="#BitstreamVeraSans-Roman-30"/>
       <use x="147.412109375" xlink:href="#BitstreamVeraSans-Roman-2e"/>
       <use x="179.19921875" xlink:href="#BitstreamVeraSans-Roman-33"/>
       <use x="242.822265625" xlink:href="#BitstreamVeraSans-Roman-30"/>
      </g>
     </g>
    </g>
    <g id="xtick_11">
     <g id="line2d_45">
      <g>
       <use style="stroke:#000000;stroke-width:0.5;" x="274.649479167" xlink:href="#m93b0483c22" y="178.2"/>
      </g>
     </g>
     <g id="line2d_46">
      <g>
       <use style="stroke:#000000;stroke-width:0.5;" x="274.649479167" xlink:href="#m741efc42ff" y="15.3"/>
      </g>
     </g>
     <g id="text_19">
      <!-- −0.28 -->
      <g transform="translate(260.198697917 189.7984375)scale(0.1 -0.1)">
       <use xlink:href="#BitstreamVeraSans-Roman-2212"/>
       <use x="83.7890625" xlink:href="#BitstreamVeraSans-Roman-30"/>
       <use x="147.412109375" xlink:href="#BitstreamVeraSans-Roman-2e"/>
       <use x="179.19921875" xlink:href="#BitstreamVeraSans-Roman-32"/>
       <use x="242.822265625" xlink:href="#BitstreamVeraSans-Roman-38"/>
      </g>
     </g>
    </g>
    <g id="xtick_12">
     <g id="line2d_47">
      <g>
       <use style="stroke:#000000;stroke-width:0.5;" x="291.931770833" xlink:href="#m93b0483c22" y="178.2"/>
      </g>
     </g>
     <g id="line2d_48">
      <g>
       <use style="stroke:#000000;stroke-width:0.5;" x="291.931770833" xlink:href="#m741efc42ff" y="15.3"/>
      </g>
     </g>
     <g id="text_20">
      <!-- −0.26 -->
      <g transform="translate(277.453645833 189.7984375)scale(0.1 -0.1)">
       <use xlink:href="#BitstreamVeraSans-Roman-2212"/>
       <use x="83.7890625" xlink:href="#BitstreamVeraSans-Roman-30"/>
       <use x="147.412109375" xlink:href="#BitstreamVeraSans-Roman-2e"/>
       <use x="179.19921875" xlink:href="#BitstreamVeraSans-Roman-32"/>
       <use x="242.822265625" xlink:href="#BitstreamVeraSans-Roman-36"/>
      </g>
     </g>
    </g>
    <g id="xtick_13">
     <g id="line2d_49">
      <g>
       <use style="stroke:#000000;stroke-width:0.5;" x="309.2140625" xlink:href="#m93b0483c22" y="178.2"/>
      </g>
     </g>
     <g id="line2d_50">
      <g>
       <use style="stroke:#000000;stroke-width:0.5;" x="309.2140625" xlink:href="#m741efc42ff" y="15.3"/>
      </g>
     </g>
     <g id="text_21">
      <!-- −0.24 -->
      <g transform="translate(294.7015625 189.7984375)scale(0.1 -0.1)">
       <use xlink:href="#BitstreamVeraSans-Roman-2212"/>
       <use x="83.7890625" xlink:href="#BitstreamVeraSans-Roman-30"/>
       <use x="147.412109375" xlink:href="#BitstreamVeraSans-Roman-2e"/>
       <use x="179.19921875" xlink:href="#BitstreamVeraSans-Roman-32"/>
       <use x="242.822265625" xlink:href="#BitstreamVeraSans-Roman-34"/>
      </g>
     </g>
    </g>
    <g id="xtick_14">
     <g id="line2d_51">
      <g>
       <use style="stroke:#000000;stroke-width:0.5;" x="326.496354167" xlink:href="#m93b0483c22" y="178.2"/>
      </g>
     </g>
     <g id="line2d_52">
      <g>
       <use style="stroke:#000000;stroke-width:0.5;" x="326.496354167" xlink:href="#m741efc42ff" y="15.3"/>
      </g>
     </g>
     <g id="text_22">
      <!-- −0.22 -->
      <g transform="translate(312.204166667 189.7984375)scale(0.1 -0.1)">
       <use xlink:href="#BitstreamVeraSans-Roman-2212"/>
       <use x="83.7890625" xlink:href="#BitstreamVeraSans-Roman-30"/>
       <use x="147.412109375" xlink:href="#BitstreamVeraSans-Roman-2e"/>
       <use x="179.19921875" xlink:href="#BitstreamVeraSans-Roman-32"/>
       <use x="242.822265625" xlink:href="#BitstreamVeraSans-Roman-32"/>
      </g>
     </g>
    </g>
    <g id="xtick_15">
     <g id="line2d_53">
      <g>
       <use style="stroke:#000000;stroke-width:0.5;" x="343.778645833" xlink:href="#m93b0483c22" y="178.2"/>
      </g>
     </g>
     <g id="line2d_54">
      <g>
       <use style="stroke:#000000;stroke-width:0.5;" x="343.778645833" xlink:href="#m741efc42ff" y="15.3"/>
      </g>
     </g>
     <g id="text_23">
      <!-- −0.20 -->
      <g transform="translate(329.317708333 189.7984375)scale(0.1 -0.1)">
       <use xlink:href="#BitstreamVeraSans-Roman-2212"/>
       <use x="83.7890625" xlink:href="#BitstreamVeraSans-Roman-30"/>
       <use x="147.412109375" xlink:href="#BitstreamVeraSans-Roman-2e"/>
       <use x="179.19921875" xlink:href="#BitstreamVeraSans-Roman-32"/>
       <use x="242.822265625" xlink:href="#BitstreamVeraSans-Roman-30"/>
      </g>
     </g>
    </g>
    <g id="xtick_16">
     <g id="line2d_55">
      <g>
       <use style="stroke:#000000;stroke-width:0.5;" x="361.0609375" xlink:href="#m93b0483c22" y="178.2"/>
      </g>
     </g>
     <g id="line2d_56">
      <g>
       <use style="stroke:#000000;stroke-width:0.5;" x="361.0609375" xlink:href="#m741efc42ff" y="15.3"/>
      </g>
     </g>
     <g id="text_24">
      <!-- −0.18 -->
      <g transform="translate(346.61015625 189.7984375)scale(0.1 -0.1)">
       <use xlink:href="#BitstreamVeraSans-Roman-2212"/>
       <use x="83.7890625" xlink:href="#BitstreamVeraSans-Roman-30"/>
       <use x="147.412109375" xlink:href="#BitstreamVeraSans-Roman-2e"/>
       <use x="179.19921875" xlink:href="#BitstreamVeraSans-Roman-31"/>
       <use x="242.822265625" xlink:href="#BitstreamVeraSans-Roman-38"/>
      </g>
     </g>
    </g>
    <g id="xtick_17">
     <g id="line2d_57">
      <g>
       <use style="stroke:#000000;stroke-width:0.5;" x="378.343229167" xlink:href="#m93b0483c22" y="178.2"/>
      </g>
     </g>
     <g id="line2d_58">
      <g>
       <use style="stroke:#000000;stroke-width:0.5;" x="378.343229167" xlink:href="#m741efc42ff" y="15.3"/>
      </g>
     </g>
     <g id="text_25">
      <!-- −0.16 -->
      <g transform="translate(363.865104167 189.7984375)scale(0.1 -0.1)">
       <use xlink:href="#BitstreamVeraSans-Roman-2212"/>
       <use x="83.7890625" xlink:href="#BitstreamVeraSans-Roman-30"/>
       <use x="147.412109375" xlink:href="#BitstreamVeraSans-Roman-2e"/>
       <use x="179.19921875" xlink:href="#BitstreamVeraSans-Roman-31"/>
       <use x="242.822265625" xlink:href="#BitstreamVeraSans-Roman-36"/>
      </g>
     </g>
    </g>
    <g id="xtick_18">
     <g id="line2d_59">
      <g>
       <use style="stroke:#000000;stroke-width:0.5;" x="395.625520833" xlink:href="#m93b0483c22" y="178.2"/>
      </g>
     </g>
     <g id="line2d_60">
      <g>
       <use style="stroke:#000000;stroke-width:0.5;" x="395.625520833" xlink:href="#m741efc42ff" y="15.3"/>
      </g>
     </g>
     <g id="text_26">
      <!-- −0.14 -->
      <g transform="translate(381.113020833 189.7984375)scale(0.1 -0.1)">
       <use xlink:href="#BitstreamVeraSans-Roman-2212"/>
       <use x="83.7890625" xlink:href="#BitstreamVeraSans-Roman-30"/>
       <use x="147.412109375" xlink:href="#BitstreamVeraSans-Roman-2e"/>
       <use x="179.19921875" xlink:href="#BitstreamVeraSans-Roman-31"/>
       <use x="242.822265625" xlink:href="#BitstreamVeraSans-Roman-34"/>
      </g>
     </g>
    </g>
    <g id="xtick_19">
     <g id="line2d_61">
      <g>
       <use style="stroke:#000000;stroke-width:0.5;" x="412.9078125" xlink:href="#m93b0483c22" y="178.2"/>
      </g>
     </g>
     <g id="line2d_62">
      <g>
       <use style="stroke:#000000;stroke-width:0.5;" x="412.9078125" xlink:href="#m741efc42ff" y="15.3"/>
      </g>
     </g>
     <g id="text_27">
      <!-- −0.12 -->
      <g transform="translate(398.615625 189.7984375)scale(0.1 -0.1)">
       <use xlink:href="#BitstreamVeraSans-Roman-2212"/>
       <use x="83.7890625" xlink:href="#BitstreamVeraSans-Roman-30"/>
       <use x="147.412109375" xlink:href="#BitstreamVeraSans-Roman-2e"/>
       <use x="179.19921875" xlink:href="#BitstreamVeraSans-Roman-31"/>
       <use x="242.822265625" xlink:href="#BitstreamVeraSans-Roman-32"/>
      </g>
     </g>
    </g>
    <g id="text_28">
     <!-- Y component -->
     <defs>
      <path d="
M-0.203125 72.9062
L10.4062 72.9062
L30.6094 42.9219
L50.6875 72.9062
L61.2812 72.9062
L35.5 34.7188
L35.5 0
L25.5938 0
L25.5938 34.7188
z
" id="BitstreamVeraSans-Roman-59"/>
     </defs>
     <g transform="translate(302.3171875 204.4765625)scale(0.1 -0.1)">
      <use xlink:href="#BitstreamVeraSans-Roman-59"/>
      <use x="61.083984375" xlink:href="#BitstreamVeraSans-Roman-20"/>
      <use x="92.87109375" xlink:href="#BitstreamVeraSans-Roman-63"/>
      <use x="147.8515625" xlink:href="#BitstreamVeraSans-Roman-6f"/>
      <use x="209.033203125" xlink:href="#BitstreamVeraSans-Roman-6d"/>
      <use x="306.4453125" xlink:href="#BitstreamVeraSans-Roman-70"/>
      <use x="369.921875" xlink:href="#BitstreamVeraSans-Roman-6f"/>
      <use x="431.103515625" xlink:href="#BitstreamVeraSans-Roman-6e"/>
      <use x="494.482421875" xlink:href="#BitstreamVeraSans-Roman-65"/>
      <use x="556.005859375" xlink:href="#BitstreamVeraSans-Roman-6e"/>
      <use x="619.384765625" xlink:href="#BitstreamVeraSans-Roman-74"/>
     </g>
    </g>
   </g>
   <g id="matplotlib.axis_4">
    <g id="ytick_7">
     <g id="line2d_63">
      <g>
       <use style="stroke:#000000;stroke-width:0.5;" x="257.3671875" xlink:href="#m728421d6d4" y="178.2"/>
      </g>
     </g>
     <g id="line2d_64">
      <g>
       <use style="stroke:#000000;stroke-width:0.5;" x="412.9078125" xlink:href="#mcb0005524f" y="178.2"/>
      </g>
     </g>
     <g id="text_29">
      <!-- 0.0 -->
      <g transform="translate(238.7875 180.959375)scale(0.1 -0.1)">
       <use xlink:href="#BitstreamVeraSans-Roman-30"/>
       <use x="63.623046875" xlink:href="#BitstreamVeraSans-Roman-2e"/>
       <use x="95.41015625" xlink:href="#BitstreamVeraSans-Roman-30"/>
      </g>
     </g>
    </g>
    <g id="ytick_8">
     <g id="line2d_65">
      <g>
       <use style="stroke:#000000;stroke-width:0.5;" x="257.3671875" xlink:href="#m728421d6d4" y="145.62"/>
      </g>
     </g>
     <g id="line2d_66">
      <g>
       <use style="stroke:#000000;stroke-width:0.5;" x="412.9078125" xlink:href="#mcb0005524f" y="145.62"/>
      </g>
     </g>
     <g id="text_30">
      <!-- 0.2 -->
      <g transform="translate(239.125 148.379375)scale(0.1 -0.1)">
       <use xlink:href="#BitstreamVeraSans-Roman-30"/>
       <use x="63.623046875" xlink:href="#BitstreamVeraSans-Roman-2e"/>
       <use x="95.41015625" xlink:href="#BitstreamVeraSans-Roman-32"/>
      </g>
     </g>
    </g>
    <g id="ytick_9">
     <g id="line2d_67">
      <g>
       <use style="stroke:#000000;stroke-width:0.5;" x="257.3671875" xlink:href="#m728421d6d4" y="113.04"/>
      </g>
     </g>
     <g id="line2d_68">
      <g>
       <use style="stroke:#000000;stroke-width:0.5;" x="412.9078125" xlink:href="#mcb0005524f" y="113.04"/>
      </g>
     </g>
     <g id="text_31">
      <!-- 0.4 -->
      <g transform="translate(238.684375 115.799375)scale(0.1 -0.1)">
       <use xlink:href="#BitstreamVeraSans-Roman-30"/>
       <use x="63.623046875" xlink:href="#BitstreamVeraSans-Roman-2e"/>
       <use x="95.41015625" xlink:href="#BitstreamVeraSans-Roman-34"/>
      </g>
     </g>
    </g>
    <g id="ytick_10">
     <g id="line2d_69">
      <g>
       <use style="stroke:#000000;stroke-width:0.5;" x="257.3671875" xlink:href="#m728421d6d4" y="80.46"/>
      </g>
     </g>
     <g id="line2d_70">
      <g>
       <use style="stroke:#000000;stroke-width:0.5;" x="412.9078125" xlink:href="#mcb0005524f" y="80.46"/>
      </g>
     </g>
     <g id="text_32">
      <!-- 0.6 -->
      <g transform="translate(238.753125 83.219375)scale(0.1 -0.1)">
       <use xlink:href="#BitstreamVeraSans-Roman-30"/>
       <use x="63.623046875" xlink:href="#BitstreamVeraSans-Roman-2e"/>
       <use x="95.41015625" xlink:href="#BitstreamVeraSans-Roman-36"/>
      </g>
     </g>
    </g>
    <g id="ytick_11">
     <g id="line2d_71">
      <g>
       <use style="stroke:#000000;stroke-width:0.5;" x="257.3671875" xlink:href="#m728421d6d4" y="47.88"/>
      </g>
     </g>
     <g id="line2d_72">
      <g>
       <use style="stroke:#000000;stroke-width:0.5;" x="412.9078125" xlink:href="#mcb0005524f" y="47.88"/>
      </g>
     </g>
     <g id="text_33">
      <!-- 0.8 -->
      <g transform="translate(238.8078125 50.639375)scale(0.1 -0.1)">
       <use xlink:href="#BitstreamVeraSans-Roman-30"/>
       <use x="63.623046875" xlink:href="#BitstreamVeraSans-Roman-2e"/>
       <use x="95.41015625" xlink:href="#BitstreamVeraSans-Roman-38"/>
      </g>
     </g>
    </g>
    <g id="ytick_12">
     <g id="line2d_73">
      <g>
       <use style="stroke:#000000;stroke-width:0.5;" x="257.3671875" xlink:href="#m728421d6d4" y="15.3"/>
      </g>
     </g>
     <g id="line2d_74">
      <g>
       <use style="stroke:#000000;stroke-width:0.5;" x="412.9078125" xlink:href="#mcb0005524f" y="15.3"/>
      </g>
     </g>
     <g id="text_34">
      <!-- 1.0 -->
      <g transform="translate(239.2265625 18.059375)scale(0.1 -0.1)">
       <use xlink:href="#BitstreamVeraSans-Roman-31"/>
       <use x="63.623046875" xlink:href="#BitstreamVeraSans-Roman-2e"/>
       <use x="95.41015625" xlink:href="#BitstreamVeraSans-Roman-30"/>
      </g>
     </g>
    </g>
    <g id="text_35">
     <!-- Cumulative Distribution -->
     <g transform="translate(231.6046875 155.62109375)rotate(-90.0)scale(0.1 -0.1)">
      <use xlink:href="#BitstreamVeraSans-Roman-43"/>
      <use x="69.82421875" xlink:href="#BitstreamVeraSans-Roman-75"/>
      <use x="133.203125" xlink:href="#BitstreamVeraSans-Roman-6d"/>
      <use x="230.615234375" xlink:href="#BitstreamVeraSans-Roman-75"/>
      <use x="293.994140625" xlink:href="#BitstreamVeraSans-Roman-6c"/>
      <use x="321.77734375" xlink:href="#BitstreamVeraSans-Roman-61"/>
      <use x="383.056640625" xlink:href="#BitstreamVeraSans-Roman-74"/>
      <use x="422.265625" xlink:href="#BitstreamVeraSans-Roman-69"/>
      <use x="450.048828125" xlink:href="#BitstreamVeraSans-Roman-76"/>
      <use x="509.228515625" xlink:href="#BitstreamVeraSans-Roman-65"/>
      <use x="570.751953125" xlink:href="#BitstreamVeraSans-Roman-20"/>
      <use x="602.5390625" xlink:href="#BitstreamVeraSans-Roman-44"/>
      <use x="679.541015625" xlink:href="#BitstreamVeraSans-Roman-69"/>
      <use x="707.32421875" xlink:href="#BitstreamVeraSans-Roman-73"/>
      <use x="759.423828125" xlink:href="#BitstreamVeraSans-Roman-74"/>
      <use x="798.6328125" xlink:href="#BitstreamVeraSans-Roman-72"/>
      <use x="839.74609375" xlink:href="#BitstreamVeraSans-Roman-69"/>
      <use x="867.529296875" xlink:href="#BitstreamVeraSans-Roman-62"/>
      <use x="931.005859375" xlink:href="#BitstreamVeraSans-Roman-75"/>
      <use x="994.384765625" xlink:href="#BitstreamVeraSans-Roman-74"/>
      <use x="1033.59375" xlink:href="#BitstreamVeraSans-Roman-69"/>
      <use x="1061.37695312" xlink:href="#BitstreamVeraSans-Roman-6f"/>
      <use x="1122.55859375" xlink:href="#BitstreamVeraSans-Roman-6e"/>
     </g>
    </g>
   </g>
  </g>
  <g id="axes_3">
   <g id="patch_12">
    <path d="
M471.113 178.2
L626.653 178.2
L626.653 15.3
L471.113 15.3
z
" style="fill:#ffffff;"/>
   </g>
   <g id="line2d_75">
    <path clip-path="url(#p426ce6fc98)" d="
M482.447 178.2
L492.029 178.005
L494.767 177.842
L494.874 177.776
L495.943 177.679
L498.658 177.516
L498.737 177.483
L500.4 177.255
L501.026 177.125
L502.139 176.995
L502.142 176.962
L504.015 176.506
L504.025 176.473
L504.6 176.278
L504.688 176.213
L505.019 176.115
L505.542 175.887
L507.785 175.105
L507.996 174.877
L508.917 174.323
L508.997 174.225
L509.259 174.03
L509.264 173.997
L509.787 173.802
L509.935 173.639
L510.255 173.411
L510.382 173.346
L510.806 173.215
L510.901 172.987
L511.602 172.433
L511.614 172.368
L511.912 172.173
L512.393 171.684
L512.558 171.521
L512.702 171.228
L513.286 170.837
L513.49 170.446
L513.703 170.283
L513.929 170.055
L514.287 169.827
L514.394 169.762
L514.585 169.469
L514.695 169.208
L516.107 166.992
L516.21 166.797
L516.517 166.504
L516.701 166.243
L518.036 164.06
L518.149 163.767
L518.979 162.464
L519.1 162.301
L519.319 161.747
L519.498 161.584
L519.595 161.258
L519.803 160.998
L520.165 160.411
L520.337 160.151
L520.503 159.662
L520.616 159.369
L521.241 157.609
L521.459 156.958
L521.643 156.437
L521.704 156.274
L521.817 155.818
L521.986 155.557
L522.517 154.026
L522.673 153.765
L523.306 152.006
L523.429 151.55
L523.487 151.354
L523.576 151.061
L523.703 150.865
L523.888 150.214
L523.977 150.018
L524.133 149.627
L524.239 149.302
L524.476 148.65
L524.832 147.412
L525.103 146.402
L525.221 146.109
L526.506 142.395
L526.628 142.232
L526.758 141.776
L527.531 139.169
L527.59 139.006
L527.719 138.583
L528.228 137.084
L528.365 136.498
L528.454 136.139
L530.46 128.222
L530.544 127.962
L530.772 126.789
L531.115 125.616
L531.37 124.41
L531.61 123.889
L532.244 120.859
L532.44 120.208
L532.589 119.426
L533.055 117.341
L533.136 117.145
L533.842 113.887
L533.904 113.692
L534.057 113.268
L534.317 111.965
L534.622 110.564
L534.745 110.075
L534.871 109.684
L535.131 108.283
L535.193 107.958
L535.416 107.045
L535.473 106.85
L535.705 105.449
L535.784 104.96
L535.918 104.374
L536.19 102.908
L536.512 100.985
L536.664 100.562
L537.052 98.5745
L537.125 98.3464
L537.645 96.0984
L537.744 95.74
L537.812 95.512
L537.932 94.7626
L538.037 94.111
L538.18 92.9381
L538.231 92.7101
L538.438 91.8956
L538.733 90.2666
L538.846 89.7779
L538.919 89.4847
L539.04 89.0285
L539.188 88.7027
L539.345 88.1815
L539.41 87.8557
L539.531 87.4973
L539.723 86.585
L539.851 86.1615
L543.43 69.7086
L543.484 69.4805
L543.63 68.8941
L544.114 67.1022
L544.235 66.418
L544.707 64.4306
L544.812 63.8442
L544.911 63.3229
L545.026 62.8668
L545.35 61.7591
L545.553 60.912
L545.611 60.6839
L545.715 60.3907
L545.763 60.1952
L551.055 41.4617
L551.189 41.2337
L551.286 40.745
L551.4 40.4192
L551.606 39.6698
L552.707 37.2589
L553.118 36.2164
L553.241 36.0209
L553.35 35.6951
L553.473 35.4996
L553.567 35.3041
L553.709 35.0109
L553.859 34.6851
L554.495 33.3167
L554.588 33.1538
L554.724 32.7303
L554.852 32.4045
L555.161 31.8181
L555.184 31.7203
L555.398 31.5574
L555.567 31.1013
L555.682 30.8081
L555.839 30.6452
L555.97 30.352
L556.095 30.1891
L556.366 29.6026
L556.541 29.3746
L557.729 27.1917
L557.921 26.8985
L558.133 26.6053
L558.579 25.8885
L558.727 25.5627
L558.902 25.2043
L559.531 24.2595
L560.095 23.9011
L560.275 23.7056
L560.381 23.5102
L560.559 23.2169
L561.026 22.8911
L561.19 22.6631
L561.717 22.2721
L561.834 22.0441
L562.024 21.8812
L562.287 21.7183
L565.414 18.8838
L565.78 18.6557
L565.854 18.5906
L566.151 18.4603
L566.315 18.2974
L566.846 18.0041
L567.416 17.7435
L567.545 17.6458
L568.383 17.3525
L569.022 17.1245
L569.118 17.0593
L569.618 16.8964
L569.764 16.7661
L570.711 16.6032
L571.69 16.31
L572.393 16.1471
L572.881 16.0168
L578.184 15.691
L579.07 15.5932
L587.011 15.3326
L587.011 15.3326" style="fill:none;stroke:#ff0000;stroke-linecap:square;"/>
   </g>
   <g id="line2d_76">
    <path clip-path="url(#p426ce6fc98)" d="
M509.208 178.2
L509.208 15.3" style="fill:none;stroke:#ff0000;stroke-linecap:square;"/>
   </g>
   <g id="line2d_77">
    <path clip-path="url(#p426ce6fc98)" d="
M564.805 178.2
L564.805 15.3" style="fill:none;stroke:#ff0000;stroke-linecap:square;"/>
   </g>
   <g id="line2d_78">
    <path clip-path="url(#p426ce6fc98)" d="
M510.933 178.2
L515.632 178.167
L519.768 178.037
L520.348 177.972
L524.69 177.809
L527.28 177.646
L531.787 176.799
L532.165 176.669
L532.974 176.441
L533.409 176.18
L533.76 175.952
L534.844 175.724
L534.849 175.691
L535.656 175.463
L535.829 175.268
L536.265 175.105
L536.27 175.072
L536.718 174.909
L536.867 174.649
L537.127 174.486
L537.262 174.356
L537.471 174.16
L537.86 173.997
L538.079 173.867
L538.09 173.802
L538.479 173.606
L538.782 173.28
L539.026 173.118
L539.326 172.661
L539.632 172.368
L541.318 170.967
L541.532 170.641
L541.711 170.511
L541.915 170.348
L542.226 169.957
L542.395 169.697
L542.7 169.469
L542.894 169.143
L542.949 169.012
L543.117 168.882
L543.923 167.872
L544.036 167.644
L544.379 167.383
L544.595 167.058
L547.782 161.356
L548.097 160.933
L548.19 160.77
L548.274 160.476
L548.605 159.955
L548.737 159.825
L548.867 159.597
L548.966 159.434
L549.081 159.108
L549.158 158.945
L549.257 158.75
L549.568 158.131
L549.688 157.805
L549.929 157.381
L550.036 157.153
L550.096 156.99
L550.231 156.86
L550.302 156.73
L550.504 156.534
L550.627 156.274
L551.149 155.524
L551.241 155.231
L551.378 155.068
L551.514 154.645
L551.616 154.482
L551.789 153.993
L551.886 153.83
L552.251 152.918
L552.368 152.592
L552.552 152.266
L552.668 151.908
L552.749 151.68
L552.897 151.289
L553.36 149.953
L553.491 149.562
L553.595 149.302
L556.09 142.492
L556.204 142.004
L556.662 140.798
L556.939 139.918
L557.156 139.039
L557.237 138.811
L558.786 133.826
L559.078 132.783
L559.165 132.621
L559.302 132.197
L560.592 127.375
L560.707 126.593
L560.877 125.844
L561.039 125.225
L561.343 123.889
L561.475 123.531
L561.621 123.042
L562.956 117.341
L563.189 116.428
L563.269 116.135
L563.413 115.19
L563.51 114.832
L563.705 114.017
L563.815 113.529
L564.003 112.779
L564.104 112.616
L564.272 111.932
L564.394 111.313
L564.524 110.662
L564.644 110.336
L565.18 107.99
L565.327 107.306
L565.433 106.915
L565.544 106.426
L565.929 105.156
L566.057 104.406
L566.803 100.529
L566.854 100.203
L567.032 99.389
L567.152 98.9654
L567.217 98.77
L567.333 98.1835
L567.426 97.9555
L568.113 95.0558
L568.207 94.8278
L568.347 94.0459
L569.039 91.1788
L569.139 90.8856
L569.264 90.3317
L569.367 90.0059
L569.486 89.5498
L569.673 88.6376
L569.798 87.986
L569.88 87.6602
L570.033 86.8131
L570.15 86.4221
L570.24 85.966
L570.336 85.738
L570.436 85.0864
L570.56 84.5651
L571.067 82.3822
L571.178 82.089
L571.407 81.0139
L571.559 80.3623
L571.671 79.8084
L571.929 78.7333
L572.29 76.9414
L572.443 76.0617
L572.637 75.4753
L572.775 74.7585
L572.842 74.5304
L572.951 74.3024
L573.215 73.3576
L573.289 73.1621
L573.542 71.9566
L573.819 71.3702
L573.927 70.9792
L573.995 70.686
L574.122 70.2299
L574.277 69.3828
L574.479 68.6009
L574.539 68.3077
L574.672 67.819
L575.12 66.1574
L575.27 65.4406
L575.418 65.0171
L575.648 64.2677
L575.799 63.6161
L576.209 62.0197
L576.316 61.4333
L576.42 61.0423
L576.538 60.6839
L576.648 60.3907
L576.821 59.674
L581.195 44.8175
L581.35 44.3939
L581.45 44.1659
L581.507 43.9378
L581.586 43.6772
L582.219 41.6572
L582.323 41.2011
L582.435 40.973
L582.556 40.6147
L582.827 39.735
L582.917 39.4092
L583.397 38.5295
L583.553 38.3015
L583.907 37.5521
L584.033 37.1612
L585.434 34.0335
L585.532 33.7729
L585.698 33.4796
L586.112 32.3393
L586.283 32.0135
L586.357 31.8181
L586.472 31.6226
L587.296 30.2216
L587.451 30.0262
L587.559 29.7655
L587.68 29.5375
L587.73 29.342
L587.946 29.1465
L588.277 28.3646
L588.387 28.2017
L589.46 26.2143
L589.875 25.7256
L590.023 25.5301
L590.137 25.3021
L590.982 24.1292
L590.986 24.0966
L591.322 23.9663
L591.499 23.6405
L591.803 23.445
L592.016 23.1192
L592.141 22.9563
L592.721 22.207
L593.046 22.0115
L593.216 21.7183
L593.377 21.5554
L593.506 21.425
L593.798 21.197
L594.336 20.7083
L594.539 20.4476
L594.855 20.1544
L594.966 20.0241
L595.467 19.568
L595.834 19.4377
L595.982 19.3399
L596.388 19.0793
L596.442 19.0141
L596.642 18.8838
L596.725 18.8186
L596.965 18.6557
L597.034 18.5254
L597.572 18.3625
L598.986 17.6783
L599.138 17.6132
L599.624 17.4177
L603.191 16.1471
L605.253 15.9842
L605.271 15.9516
L612.307 15.3652
L617.118 15.3326
L617.118 15.3326" style="fill:none;stroke:#0000ff;stroke-linecap:square;"/>
   </g>
   <g id="line2d_79">
    <path clip-path="url(#p426ce6fc98)" d="
M537.707 178.2
L537.707 15.3" style="fill:none;stroke:#0000ff;stroke-dasharray:6.000000,6.000000;stroke-dashoffset:0.0;"/>
   </g>
   <g id="line2d_80">
    <path clip-path="url(#p426ce6fc98)" d="
M595.974 178.2
L595.974 15.3" style="fill:none;stroke:#0000ff;stroke-dasharray:6.000000,6.000000;stroke-dashoffset:0.0;"/>
   </g>
   <g id="patch_13">
    <path d="
M471.113 15.3
L626.653 15.3" style="fill:none;stroke:#000000;stroke-linecap:square;stroke-linejoin:miter;"/>
   </g>
   <g id="patch_14">
    <path d="
M626.653 178.2
L626.653 15.3" style="fill:none;stroke:#000000;stroke-linecap:square;stroke-linejoin:miter;"/>
   </g>
   <g id="patch_15">
    <path d="
M471.113 178.2
L626.653 178.2" style="fill:none;stroke:#000000;stroke-linecap:square;stroke-linejoin:miter;"/>
   </g>
   <g id="patch_16">
    <path d="
M471.113 178.2
L471.113 15.3" style="fill:none;stroke:#000000;stroke-linecap:square;stroke-linejoin:miter;"/>
   </g>
   <g id="matplotlib.axis_5">
    <g id="xtick_20">
     <g id="line2d_81">
      <g>
       <use style="stroke:#000000;stroke-width:0.5;" x="471.1125" xlink:href="#m93b0483c22" y="178.2"/>
      </g>
     </g>
     <g id="line2d_82">
      <g>
       <use style="stroke:#000000;stroke-width:0.5;" x="471.1125" xlink:href="#m741efc42ff" y="15.3"/>
      </g>
     </g>
     <g id="text_36">
      <!-- 0.66 -->
      <g transform="translate(460.62421875 189.7984375)scale(0.1 -0.1)">
       <use xlink:href="#BitstreamVeraSans-Roman-30"/>
       <use x="63.623046875" xlink:href="#BitstreamVeraSans-Roman-2e"/>
       <use x="95.41015625" xlink:href="#BitstreamVeraSans-Roman-36"/>
       <use x="159.033203125" xlink:href="#BitstreamVeraSans-Roman-36"/>
      </g>
     </g>
    </g>
    <g id="xtick_21">
     <g id="line2d_83">
      <g>
       <use style="stroke:#000000;stroke-width:0.5;" x="493.332589286" xlink:href="#m93b0483c22" y="178.2"/>
      </g>
     </g>
     <g id="line2d_84">
      <g>
       <use style="stroke:#000000;stroke-width:0.5;" x="493.332589286" xlink:href="#m741efc42ff" y="15.3"/>
      </g>
     </g>
     <g id="text_37">
      <!-- 0.68 -->
      <g transform="translate(482.871651786 189.7984375)scale(0.1 -0.1)">
       <use xlink:href="#BitstreamVeraSans-Roman-30"/>
       <use x="63.623046875" xlink:href="#BitstreamVeraSans-Roman-2e"/>
       <use x="95.41015625" xlink:href="#BitstreamVeraSans-Roman-36"/>
       <use x="159.033203125" xlink:href="#BitstreamVeraSans-Roman-38"/>
      </g>
     </g>
    </g>
    <g id="xtick_22">
     <g id="line2d_85">
      <g>
       <use style="stroke:#000000;stroke-width:0.5;" x="515.552678571" xlink:href="#m93b0483c22" y="178.2"/>
      </g>
     </g>
     <g id="line2d_86">
      <g>
       <use style="stroke:#000000;stroke-width:0.5;" x="515.552678571" xlink:href="#m741efc42ff" y="15.3"/>
      </g>
     </g>
     <g id="text_38">
      <!-- 0.70 -->
      <g transform="translate(505.081584821 189.7984375)scale(0.1 -0.1)">
       <use xlink:href="#BitstreamVeraSans-Roman-30"/>
       <use x="63.623046875" xlink:href="#BitstreamVeraSans-Roman-2e"/>
       <use x="95.41015625" xlink:href="#BitstreamVeraSans-Roman-37"/>
       <use x="159.033203125" xlink:href="#BitstreamVeraSans-Roman-30"/>
      </g>
     </g>
    </g>
    <g id="xtick_23">
     <g id="line2d_87">
      <g>
       <use style="stroke:#000000;stroke-width:0.5;" x="537.772767857" xlink:href="#m93b0483c22" y="178.2"/>
      </g>
     </g>
     <g id="line2d_88">
      <g>
       <use style="stroke:#000000;stroke-width:0.5;" x="537.772767857" xlink:href="#m741efc42ff" y="15.3"/>
      </g>
     </g>
     <g id="text_39">
      <!-- 0.72 -->
      <g transform="translate(527.470424107 189.7984375)scale(0.1 -0.1)">
       <use xlink:href="#BitstreamVeraSans-Roman-30"/>
       <use x="63.623046875" xlink:href="#BitstreamVeraSans-Roman-2e"/>
       <use x="95.41015625" xlink:href="#BitstreamVeraSans-Roman-37"/>
       <use x="159.033203125" xlink:href="#BitstreamVeraSans-Roman-32"/>
      </g>
     </g>
    </g>
    <g id="xtick_24">
     <g id="line2d_89">
      <g>
       <use style="stroke:#000000;stroke-width:0.5;" x="559.992857143" xlink:href="#m93b0483c22" y="178.2"/>
      </g>
     </g>
     <g id="line2d_90">
      <g>
       <use style="stroke:#000000;stroke-width:0.5;" x="559.992857143" xlink:href="#m741efc42ff" y="15.3"/>
      </g>
     </g>
     <g id="text_40">
      <!-- 0.74 -->
      <g transform="translate(549.470200893 189.7984375)scale(0.1 -0.1)">
       <use xlink:href="#BitstreamVeraSans-Roman-30"/>
       <use x="63.623046875" xlink:href="#BitstreamVeraSans-Roman-2e"/>
       <use x="95.41015625" xlink:href="#BitstreamVeraSans-Roman-37"/>
       <use x="159.033203125" xlink:href="#BitstreamVeraSans-Roman-34"/>
      </g>
     </g>
    </g>
    <g id="xtick_25">
     <g id="line2d_91">
      <g>
       <use style="stroke:#000000;stroke-width:0.5;" x="582.212946429" xlink:href="#m93b0483c22" y="178.2"/>
      </g>
     </g>
     <g id="line2d_92">
      <g>
       <use style="stroke:#000000;stroke-width:0.5;" x="582.212946429" xlink:href="#m741efc42ff" y="15.3"/>
      </g>
     </g>
     <g id="text_41">
      <!-- 0.76 -->
      <g transform="translate(571.724665179 189.7984375)scale(0.1 -0.1)">
       <use xlink:href="#BitstreamVeraSans-Roman-30"/>
       <use x="63.623046875" xlink:href="#BitstreamVeraSans-Roman-2e"/>
       <use x="95.41015625" xlink:href="#BitstreamVeraSans-Roman-37"/>
       <use x="159.033203125" xlink:href="#BitstreamVeraSans-Roman-36"/>
      </g>
     </g>
    </g>
    <g id="xtick_26">
     <g id="line2d_93">
      <g>
       <use style="stroke:#000000;stroke-width:0.5;" x="604.433035714" xlink:href="#m93b0483c22" y="178.2"/>
      </g>
     </g>
     <g id="line2d_94">
      <g>
       <use style="stroke:#000000;stroke-width:0.5;" x="604.433035714" xlink:href="#m741efc42ff" y="15.3"/>
      </g>
     </g>
     <g id="text_42">
      <!-- 0.78 -->
      <g transform="translate(593.972098214 189.7984375)scale(0.1 -0.1)">
       <use xlink:href="#BitstreamVeraSans-Roman-30"/>
       <use x="63.623046875" xlink:href="#BitstreamVeraSans-Roman-2e"/>
       <use x="95.41015625" xlink:href="#BitstreamVeraSans-Roman-37"/>
       <use x="159.033203125" xlink:href="#BitstreamVeraSans-Roman-38"/>
      </g>
     </g>
    </g>
    <g id="xtick_27">
     <g id="line2d_95">
      <g>
       <use style="stroke:#000000;stroke-width:0.5;" x="626.653125" xlink:href="#m93b0483c22" y="178.2"/>
      </g>
     </g>
     <g id="line2d_96">
      <g>
       <use style="stroke:#000000;stroke-width:0.5;" x="626.653125" xlink:href="#m741efc42ff" y="15.3"/>
      </g>
     </g>
     <g id="text_43">
      <!-- 0.80 -->
      <g transform="translate(616.18203125 189.7984375)scale(0.1 -0.1)">
       <use xlink:href="#BitstreamVeraSans-Roman-30"/>
       <use x="63.623046875" xlink:href="#BitstreamVeraSans-Roman-2e"/>
       <use x="95.41015625" xlink:href="#BitstreamVeraSans-Roman-38"/>
       <use x="159.033203125" xlink:href="#BitstreamVeraSans-Roman-30"/>
      </g>
     </g>
    </g>
    <g id="text_44">
     <!-- Z component -->
     <defs>
      <path d="
M5.60938 72.9062
L62.8906 72.9062
L62.8906 65.375
L16.7969 8.29688
L64.0156 8.29688
L64.0156 0
L4.5 0
L4.5 7.51562
L50.5938 64.5938
L5.60938 64.5938
z
" id="BitstreamVeraSans-Roman-5a"/>
     </defs>
     <g transform="translate(515.7015625 204.4765625)scale(0.1 -0.1)">
      <use xlink:href="#BitstreamVeraSans-Roman-5a"/>
      <use x="68.505859375" xlink:href="#BitstreamVeraSans-Roman-20"/>
      <use x="100.29296875" xlink:href="#BitstreamVeraSans-Roman-63"/>
      <use x="155.2734375" xlink:href="#BitstreamVeraSans-Roman-6f"/>
      <use x="216.455078125" xlink:href="#BitstreamVeraSans-Roman-6d"/>
      <use x="313.8671875" xlink:href="#BitstreamVeraSans-Roman-70"/>
      <use x="377.34375" xlink:href="#BitstreamVeraSans-Roman-6f"/>
      <use x="438.525390625" xlink:href="#BitstreamVeraSans-Roman-6e"/>
      <use x="501.904296875" xlink:href="#BitstreamVeraSans-Roman-65"/>
      <use x="563.427734375" xlink:href="#BitstreamVeraSans-Roman-6e"/>
      <use x="626.806640625" xlink:href="#BitstreamVeraSans-Roman-74"/>
     </g>
    </g>
   </g>
   <g id="matplotlib.axis_6">
    <g id="ytick_13">
     <g id="line2d_97">
      <g>
       <use style="stroke:#000000;stroke-width:0.5;" x="471.1125" xlink:href="#m728421d6d4" y="178.2"/>
      </g>
     </g>
     <g id="line2d_98">
      <g>
       <use style="stroke:#000000;stroke-width:0.5;" x="626.653125" xlink:href="#mcb0005524f" y="178.2"/>
      </g>
     </g>
     <g id="text_45">
      <!-- 0.0 -->
      <g transform="translate(452.5328125 180.959375)scale(0.1 -0.1)">
       <use xlink:href="#BitstreamVeraSans-Roman-30"/>
       <use x="63.623046875" xlink:href="#BitstreamVeraSans-Roman-2e"/>
       <use x="95.41015625" xlink:href="#BitstreamVeraSans-Roman-30"/>
      </g>
     </g>
    </g>
    <g id="ytick_14">
     <g id="line2d_99">
      <g>
       <use style="stroke:#000000;stroke-width:0.5;" x="471.1125" xlink:href="#m728421d6d4" y="145.62"/>
      </g>
     </g>
     <g id="line2d_100">
      <g>
       <use style="stroke:#000000;stroke-width:0.5;" x="626.653125" xlink:href="#mcb0005524f" y="145.62"/>
      </g>
     </g>
     <g id="text_46">
      <!-- 0.2 -->
      <g transform="translate(452.8703125 148.379375)scale(0.1 -0.1)">
       <use xlink:href="#BitstreamVeraSans-Roman-30"/>
       <use x="63.623046875" xlink:href="#BitstreamVeraSans-Roman-2e"/>
       <use x="95.41015625" xlink:href="#BitstreamVeraSans-Roman-32"/>
      </g>
     </g>
    </g>
    <g id="ytick_15">
     <g id="line2d_101">
      <g>
       <use style="stroke:#000000;stroke-width:0.5;" x="471.1125" xlink:href="#m728421d6d4" y="113.04"/>
      </g>
     </g>
     <g id="line2d_102">
      <g>
       <use style="stroke:#000000;stroke-width:0.5;" x="626.653125" xlink:href="#mcb0005524f" y="113.04"/>
      </g>
     </g>
     <g id="text_47">
      <!-- 0.4 -->
      <g transform="translate(452.4296875 115.799375)scale(0.1 -0.1)">
       <use xlink:href="#BitstreamVeraSans-Roman-30"/>
       <use x="63.623046875" xlink:href="#BitstreamVeraSans-Roman-2e"/>
       <use x="95.41015625" xlink:href="#BitstreamVeraSans-Roman-34"/>
      </g>
     </g>
    </g>
    <g id="ytick_16">
     <g id="line2d_103">
      <g>
       <use style="stroke:#000000;stroke-width:0.5;" x="471.1125" xlink:href="#m728421d6d4" y="80.46"/>
      </g>
     </g>
     <g id="line2d_104">
      <g>
       <use style="stroke:#000000;stroke-width:0.5;" x="626.653125" xlink:href="#mcb0005524f" y="80.46"/>
      </g>
     </g>
     <g id="text_48">
      <!-- 0.6 -->
      <g transform="translate(452.4984375 83.219375)scale(0.1 -0.1)">
       <use xlink:href="#BitstreamVeraSans-Roman-30"/>
       <use x="63.623046875" xlink:href="#BitstreamVeraSans-Roman-2e"/>
       <use x="95.41015625" xlink:href="#BitstreamVeraSans-Roman-36"/>
      </g>
     </g>
    </g>
    <g id="ytick_17">
     <g id="line2d_105">
      <g>
       <use style="stroke:#000000;stroke-width:0.5;" x="471.1125" xlink:href="#m728421d6d4" y="47.88"/>
      </g>
     </g>
     <g id="line2d_106">
      <g>
       <use style="stroke:#000000;stroke-width:0.5;" x="626.653125" xlink:href="#mcb0005524f" y="47.88"/>
      </g>
     </g>
     <g id="text_49">
      <!-- 0.8 -->
      <g transform="translate(452.553125 50.639375)scale(0.1 -0.1)">
       <use xlink:href="#BitstreamVeraSans-Roman-30"/>
       <use x="63.623046875" xlink:href="#BitstreamVeraSans-Roman-2e"/>
       <use x="95.41015625" xlink:href="#BitstreamVeraSans-Roman-38"/>
      </g>
     </g>
    </g>
    <g id="ytick_18">
     <g id="line2d_107">
      <g>
       <use style="stroke:#000000;stroke-width:0.5;" x="471.1125" xlink:href="#m728421d6d4" y="15.3"/>
      </g>
     </g>
     <g id="line2d_108">
      <g>
       <use style="stroke:#000000;stroke-width:0.5;" x="626.653125" xlink:href="#mcb0005524f" y="15.3"/>
      </g>
     </g>
     <g id="text_50">
      <!-- 1.0 -->
      <g transform="translate(452.971875 18.059375)scale(0.1 -0.1)">
       <use xlink:href="#BitstreamVeraSans-Roman-31"/>
       <use x="63.623046875" xlink:href="#BitstreamVeraSans-Roman-2e"/>
       <use x="95.41015625" xlink:href="#BitstreamVeraSans-Roman-30"/>
      </g>
     </g>
    </g>
    <g id="text_51">
     <!-- Cumulative Distribution -->
     <g transform="translate(445.35 155.62109375)rotate(-90.0)scale(0.1 -0.1)">
      <use xlink:href="#BitstreamVeraSans-Roman-43"/>
      <use x="69.82421875" xlink:href="#BitstreamVeraSans-Roman-75"/>
      <use x="133.203125" xlink:href="#BitstreamVeraSans-Roman-6d"/>
      <use x="230.615234375" xlink:href="#BitstreamVeraSans-Roman-75"/>
      <use x="293.994140625" xlink:href="#BitstreamVeraSans-Roman-6c"/>
      <use x="321.77734375" xlink:href="#BitstreamVeraSans-Roman-61"/>
      <use x="383.056640625" xlink:href="#BitstreamVeraSans-Roman-74"/>
      <use x="422.265625" xlink:href="#BitstreamVeraSans-Roman-69"/>
      <use x="450.048828125" xlink:href="#BitstreamVeraSans-Roman-76"/>
      <use x="509.228515625" xlink:href="#BitstreamVeraSans-Roman-65"/>
      <use x="570.751953125" xlink:href="#BitstreamVeraSans-Roman-20"/>
      <use x="602.5390625" xlink:href="#BitstreamVeraSans-Roman-44"/>
      <use x="679.541015625" xlink:href="#BitstreamVeraSans-Roman-69"/>
      <use x="707.32421875" xlink:href="#BitstreamVeraSans-Roman-73"/>
      <use x="759.423828125" xlink:href="#BitstreamVeraSans-Roman-74"/>
      <use x="798.6328125" xlink:href="#BitstreamVeraSans-Roman-72"/>
      <use x="839.74609375" xlink:href="#BitstreamVeraSans-Roman-69"/>
      <use x="867.529296875" xlink:href="#BitstreamVeraSans-Roman-62"/>
      <use x="931.005859375" xlink:href="#BitstreamVeraSans-Roman-75"/>
      <use x="994.384765625" xlink:href="#BitstreamVeraSans-Roman-74"/>
      <use x="1033.59375" xlink:href="#BitstreamVeraSans-Roman-69"/>
      <use x="1061.37695312" xlink:href="#BitstreamVeraSans-Roman-6f"/>
      <use x="1122.55859375" xlink:href="#BitstreamVeraSans-Roman-6e"/>
     </g>
    </g>
   </g>
  </g>
 </g>
 <defs>
  <clipPath id="p1c38c01f63">
   <rect height="162.9" width="155.540625" x="257.3671875" y="15.3"/>
  </clipPath>
  <clipPath id="pee65438c85">
   <rect height="162.9" width="155.540625" x="43.621875" y="15.3"/>
  </clipPath>
  <clipPath id="p426ce6fc98">
   <rect height="162.9" width="155.540625" x="471.1125" y="15.3"/>
  </clipPath>
 </defs>
</svg>
