<?xml version="1.0" encoding="utf-8" standalone="no"?>
<!DOCTYPE svg PUBLIC "-//W3C//DTD SVG 1.1//EN"
  "http://www.w3.org/Graphics/SVG/1.1/DTD/svg11.dtd">
<!-- Created with matplotlib (http://matplotlib.org/) -->
<svg height="216pt" version="1.1" viewBox="0 0 648 216" width="648pt" xmlns="http://www.w3.org/2000/svg" xmlns:xlink="http://www.w3.org/1999/xlink">
 <defs>
  <style type="text/css">
*{stroke-linecap:butt;stroke-linejoin:round;}
  </style>
 </defs>
 <g id="figure_1">
  <g id="patch_1">
   <path d="
M0 216
L648 216
L648 0
L0 0
z
" style="fill:#ffffff;"/>
  </g>
  <g id="axes_1">
   <g id="patch_2">
    <path d="
M43.6219 178.2
L199.162 178.2
L199.162 15.3
L43.6219 15.3
z
" style="fill:#ffffff;"/>
   </g>
   <g id="line2d_1">
    <path clip-path="url(#p6c55c840d0)" d="
M54.2272 178.2
L68.456 178.167
L71.1467 178.07
L79.4898 177.548
L79.7275 177.483
L80.5579 177.255
L81.019 177.092
L81.8989 176.929
L81.9831 176.864
L82.7537 176.734
L83.0305 176.669
L84.0868 176.343
L85.1299 175.854
L85.8932 175.626
L85.994 175.528
L86.3665 175.3
L86.6073 175.072
L87.1464 174.877
L87.2796 174.812
L87.6698 174.649
L87.729 174.584
L88.0437 174.421
L88.4309 174.095
L89.0692 173.671
L89.3966 173.574
L89.736 173.411
L90.0355 173.118
L90.4844 172.824
L91.0932 172.531
L93.2162 170.674
L93.4396 170.511
L95.1629 168.296
L95.4392 168.165
L95.8608 167.644
L96.5395 166.797
L96.9465 166.243
L97.1035 166.113
L97.545 165.461
L98.1682 164.386
L98.3345 164.158
L98.435 163.995
L98.6747 163.734
L99.0151 163.278
L99.1298 162.822
L99.2364 162.627
L99.3611 162.399
L99.4728 162.073
L99.7434 161.519
L99.8247 161.389
L100.288 160.965
L100.424 160.672
L100.604 160.314
L100.729 159.923
L100.804 159.695
L101.006 159.271
L101.302 158.782
L101.405 158.652
L101.669 158.163
L101.831 157.577
L102.468 156.111
L102.765 155.166
L103.736 152.82
L103.85 152.494
L103.919 152.331
L104.468 150.67
L104.579 150.474
L104.662 150.181
L104.815 150.051
L104.971 149.53
L105.319 148.845
L105.573 147.868
L107.32 142.981
L107.378 142.786
L107.685 141.417
L107.841 140.994
L108.358 139.365
L108.461 139.006
L108.685 138.387
L108.855 137.67
L108.977 137.214
L109.082 136.758
L109.167 136.563
L109.229 136.302
L109.427 135.846
L109.568 135.618
L110.092 134.217
L110.256 133.663
L110.421 133.109
L111.126 130.829
L111.255 130.21
L111.376 129.688
L111.47 129.46
L111.513 129.2
L111.983 127.147
L112.051 126.886
L112.269 125.551
L112.48 124.899
L112.609 124.313
L113.985 119.1
L114.09 118.709
L114.243 118.09
L114.497 116.982
L114.687 116.298
L114.795 115.94
L114.925 115.386
L115.005 115.19
L115.346 113.724
L115.405 113.529
L117.543 104.765
L117.849 103.494
L117.963 103.168
L118.163 102.126
L118.218 101.865
L118.692 99.5519
L118.812 99.2912
L120.425 92.5146
L120.576 91.7653
L120.628 91.5372
L120.738 91.0811
L120.805 90.9182
L120.931 90.4621
L121.062 89.8105
L124.227 77.3649
L124.341 76.6807
L124.487 76.3875
L124.623 75.964
L125.335 72.934
L125.401 72.7385
L125.537 72.2824
L125.704 71.7937
L125.854 71.077
L126.043 70.4579
L126.106 70.295
L126.352 69.4805
L126.43 69.2525
L126.546 68.7638
L126.587 68.5357
L126.698 68.0796
L126.999 66.7438
L127.371 65.5384
L127.626 64.3981
L128.324 61.922
L128.444 61.6288
L128.536 61.1726
L128.693 60.6514
L128.754 60.4233
L128.888 59.9346
L128.971 59.6414
L129.34 58.5662
L129.474 58.273
L129.591 57.7517
L129.646 57.5237
L130.116 55.9273
L130.254 55.6992
L130.37 55.2431
L130.512 54.5915
L130.731 54.1354
L130.816 53.9399
L130.986 53.158
L131.076 52.9625
L131.258 52.2457
L131.972 50.3561
L132.152 49.8348
L132.411 49.0855
L132.918 47.5542
L133.001 47.3261
L133.29 46.251
L133.384 45.9904
L134.187 43.8727
L134.368 43.2862
L134.538 42.8301
L134.816 42.1785
L134.902 41.9179
L135.003 41.6246
L135.393 40.7776
L135.501 40.2889
L135.557 40.0934
L135.637 39.8979
L135.737 39.735
L135.84 39.344
L136.028 39.1486
L136.145 38.8553
L136.476 37.8454
L136.562 37.6173
L136.75 37.0634
L136.866 36.868
L137.132 36.3141
L137.246 36.1512
L137.502 35.6299
L137.605 35.3367
L137.769 35.1412
L137.882 34.9132
L138.277 34.1964
L138.364 34.0661
L138.632 33.61
L138.982 32.6977
L139.1 32.5348
L139.147 32.3719
L139.31 32.2416
L139.495 31.981
L139.631 31.8506
L140.09 31.0361
L140.226 30.8732
L140.421 30.58
L141.103 29.5049
L141.284 29.2768
L141.687 28.723
L141.774 28.5601
L141.775 28.5275
L141.909 28.3972
L142.158 27.941
L142.29 27.8759
L142.991 26.8333
L143.113 26.6053
L144.245 25.2695
L144.51 25.074
L146.533 23.2821
L146.6 23.1192
L146.765 22.9563
L146.881 22.7934
L147.097 22.6631
L147.153 22.5653
L147.455 22.3699
L147.866 22.0766
L148.494 21.7508
L148.599 21.6205
L148.787 21.425
L148.825 21.2947
L149.197 21.1644
L149.344 21.0667
L149.653 20.8712
L149.751 20.7083
L150.671 20.187
L150.755 20.0893
L151.783 19.5354
L151.886 19.4377
L152.046 19.2748
L152.394 18.949
L153.106 18.6557
L154.544 17.939
L155.114 17.7761
L156.129 17.4503
L156.166 17.3851
L159.349 16.4729
L160.914 16.2448
L160.975 16.1797
L164.11 15.8539
L167.159 15.691
L169.35 15.5606
L176.984 15.3977
L188.903 15.3326
L188.903 15.3326" style="fill:none;stroke:#ff0000;stroke-linecap:square;"/>
   </g>
   <g id="line2d_2">
    <path clip-path="url(#p6c55c840d0)" d="
M88.3745 178.2
L88.3745 15.3" style="fill:none;stroke:#ff0000;stroke-linecap:square;"/>
   </g>
   <g id="line2d_3">
    <path clip-path="url(#p6c55c840d0)" d="
M151.984 178.2
L151.984 15.3" style="fill:none;stroke:#ff0000;stroke-linecap:square;"/>
   </g>
   <g id="line2d_4">
    <path clip-path="url(#p6c55c840d0)" d="
M68.9692 178.2
L77.8271 178.167
L80.985 178.07
L82.5769 177.907
L88.3913 177.288
L88.9807 177.125
L89.9714 176.962
L90.4542 176.766
L91.0415 176.571
L91.0473 176.538
L91.7154 176.343
L92.6743 175.919
L93.6592 175.724
L94.0337 175.496
L95.0197 175.04
L95.5174 174.681
L95.762 174.518
L96.3349 174.127
L96.3467 174.062
L96.8754 173.867
L97.222 173.671
L97.9599 173.085
L98.5753 172.759
L98.9788 172.466
L99.0583 172.401
L99.5483 172.14
L100.158 171.619
L100.422 171.358
L101.276 170.511
L101.826 169.957
L102.265 169.729
L102.724 169.11
L102.83 168.817
L103.114 168.524
L103.279 168.296
L103.405 168.035
L103.541 167.774
L103.562 167.709
L103.95 167.514
L104.197 167.221
L104.358 166.992
L104.466 166.536
L104.895 165.722
L105.136 165.429
L105.339 165.135
L105.81 164.386
L105.94 164.093
L106.051 163.897
L106.289 163.376
L107.251 161.715
L107.716 160.509
L110.207 155.492
L110.345 155.166
L110.532 154.71
L110.656 154.123
L110.958 153.57
L111.098 153.113
L111.276 152.69
L111.757 151.484
L111.956 150.735
L112.024 150.54
L112.163 149.986
L112.561 149.236
L112.673 148.845
L113.174 147.412
L113.399 147.086
L113.514 146.695
L113.684 146.206
L115.002 142.199
L115.147 141.743
L115.312 141.059
L115.409 140.798
L115.526 140.472
L115.703 139.886
L115.928 139.071
L117.946 132.588
L118.053 132.327
L118.51 130.438
L118.624 130.014
L118.761 129.591
L118.876 129.265
L118.941 128.972
L119.054 128.483
L119.169 128.059
L119.271 127.668
L119.456 127.147
L119.675 126.267
L119.974 125.486
L121.449 120.501
L121.539 120.273
L121.913 118.904
L122.013 118.579
L122.119 118.057
L122.209 117.634
L122.454 116.461
L126.06 101.181
L126.226 100.594
L127.015 97.3039
L127.145 96.6197
L127.306 96.0984
L127.593 95.0558
L127.693 94.6649
L127.825 93.7526
L128.015 93.2965
L128.19 92.6449
L128.494 91.6024
L128.741 90.5598
L128.821 90.3643
L128.994 89.4195
L129.217 88.1489
L129.339 87.3344
L129.426 87.0086
L129.591 86.0312
L129.697 85.738
L130.001 84.6954
L130.097 84.2067
L131.126 79.3197
L131.213 79.1894
L131.393 78.212
L131.556 77.6581
L131.688 77.0065
L131.858 76.3223
L132.197 74.4979
L132.33 74.0417
L132.577 73.0318
L132.681 72.5105
L132.811 71.9566
L133.067 70.8163
L133.187 70.3602
L134.078 67.2325
L134.616 65.6361
L134.74 65.0171
L134.82 64.6261
L134.957 63.9094
L136.775 58.2079
L137.165 56.8721
L137.293 56.416
L137.797 54.787
L137.981 53.9725
L138.155 53.2557
L138.218 52.9951
L138.429 52.4086
L138.761 51.3986
L138.897 50.7796
L139.1 49.9651
L139.203 49.6719
L139.309 49.3787
L139.411 49.118
L139.516 48.7271
L139.588 48.3361
L139.716 48.0103
L141.551 42.4066
L141.655 42.2437
L141.776 41.8853
L142.214 40.6147
L142.324 40.2889
L144.287 35.467
L144.411 35.0435
L144.795 34.3919
L144.966 34.1964
L145.904 31.8181
L146.072 31.6552
L146.155 31.4271
L146.314 31.0361
L146.597 30.7103
L146.749 30.4497
L146.965 30.1239
L147.189 29.961
L147.801 28.8207
L148.082 28.332
L148.197 28.1365
L148.49 27.7456
L148.553 27.5827
L148.691 27.4198
L148.831 27.1917
L149.123 26.7682
L149.251 26.6053
L149.495 26.1166
L149.648 25.9537
L149.791 25.693
L149.935 25.4975
L151.011 24.3572
L151.291 23.9337
L151.444 23.7382
L151.535 23.5427
L151.791 23.2169
L151.918 23.054
L153.049 22.1744
L153.392 22.0115
L154.431 21.0667
L154.596 20.9038
L154.897 20.6757
L155.52 20.187
L155.785 19.9589
L156.38 19.6006
L156.952 19.4051
L157.161 19.1444
L157.482 18.9815
L157.698 18.8512
L158.227 18.558
L158.404 18.4277
L158.699 18.1345
L158.719 18.0693
L159.231 17.8412
L159.95 17.5154
L160.083 17.4503
L160.488 17.2548
L160.555 17.1896
L161.284 16.9942
L161.288 16.9616
L162.171 16.7661
L162.213 16.7009
L167.231 16.0819
L168.26 15.919
L168.956 15.7561
L174.069 15.3652
L178.778 15.3326
L178.778 15.3326" style="fill:none;stroke:#0000ff;stroke-linecap:square;"/>
   </g>
   <g id="line2d_5">
    <path clip-path="url(#p6c55c840d0)" d="
M96.3349 178.2
L96.3349 15.3" style="fill:none;stroke:#0000ff;stroke-dasharray:6.000000,6.000000;stroke-dashoffset:0.0;"/>
   </g>
   <g id="line2d_6">
    <path clip-path="url(#p6c55c840d0)" d="
M156.976 178.2
L156.976 15.3" style="fill:none;stroke:#0000ff;stroke-dasharray:6.000000,6.000000;stroke-dashoffset:0.0;"/>
   </g>
   <g id="patch_3">
    <path d="
M43.6219 15.3
L199.163 15.3" style="fill:none;stroke:#000000;stroke-linecap:square;stroke-linejoin:miter;"/>
   </g>
   <g id="patch_4">
    <path d="
M199.162 178.2
L199.162 15.3" style="fill:none;stroke:#000000;stroke-linecap:square;stroke-linejoin:miter;"/>
   </g>
   <g id="patch_5">
    <path d="
M43.6219 178.2
L199.163 178.2" style="fill:none;stroke:#000000;stroke-linecap:square;stroke-linejoin:miter;"/>
   </g>
   <g id="patch_6">
    <path d="
M43.6219 178.2
L43.6219 15.3" style="fill:none;stroke:#000000;stroke-linecap:square;stroke-linejoin:miter;"/>
   </g>
   <g id="matplotlib.axis_1">
    <g id="xtick_1">
     <g id="line2d_7">
      <defs>
       <path d="
M0 0
L0 -4" id="m93b0483c22" style="stroke:#000000;stroke-width:0.5;"/>
      </defs>
      <g>
       <use style="stroke:#000000;stroke-width:0.5;" x="43.621875" xlink:href="#m93b0483c22" y="178.2"/>
      </g>
     </g>
     <g id="line2d_8">
      <defs>
       <path d="
M0 0
L0 4" id="m741efc42ff" style="stroke:#000000;stroke-width:0.5;"/>
      </defs>
      <g>
       <use style="stroke:#000000;stroke-width:0.5;" x="43.621875" xlink:href="#m741efc42ff" y="15.3"/>
      </g>
     </g>
     <g id="text_1">
      <!-- −0.74 -->
      <defs>
       <path d="
M10.5938 35.5
L73.1875 35.5
L73.1875 27.2031
L10.5938 27.2031
z
" id="BitstreamVeraSans-Roman-2212"/>
       <path d="
M31.7812 66.4062
Q24.1719 66.4062 20.3281 58.9062
Q16.5 51.4219 16.5 36.375
Q16.5 21.3906 20.3281 13.8906
Q24.1719 6.39062 31.7812 6.39062
Q39.4531 6.39062 43.2812 13.8906
Q47.125 21.3906 47.125 36.375
Q47.125 51.4219 43.2812 58.9062
Q39.4531 66.4062 31.7812 66.4062
M31.7812 74.2188
Q44.0469 74.2188 50.5156 64.5156
Q56.9844 54.8281 56.9844 36.375
Q56.9844 17.9688 50.5156 8.26562
Q44.0469 -1.42188 31.7812 -1.42188
Q19.5312 -1.42188 13.0625 8.26562
Q6.59375 17.9688 6.59375 36.375
Q6.59375 54.8281 13.0625 64.5156
Q19.5312 74.2188 31.7812 74.2188" id="BitstreamVeraSans-Roman-30"/>
       <path d="
M10.6875 12.4062
L21 12.4062
L21 0
L10.6875 0
z
" id="BitstreamVeraSans-Roman-2e"/>
       <path d="
M8.20312 72.9062
L55.0781 72.9062
L55.0781 68.7031
L28.6094 0
L18.3125 0
L43.2188 64.5938
L8.20312 64.5938
z
" id="BitstreamVeraSans-Roman-37"/>
       <path d="
M37.7969 64.3125
L12.8906 25.3906
L37.7969 25.3906
z

M35.2031 72.9062
L47.6094 72.9062
L47.6094 25.3906
L58.0156 25.3906
L58.0156 17.1875
L47.6094 17.1875
L47.6094 0
L37.7969 0
L37.7969 17.1875
L4.89062 17.1875
L4.89062 26.7031
z
" id="BitstreamVeraSans-Roman-34"/>
      </defs>
      <g transform="translate(29.109375 189.7984375)scale(0.1 -0.1)">
       <use xlink:href="#BitstreamVeraSans-Roman-2212"/>
       <use x="83.7890625" xlink:href="#BitstreamVeraSans-Roman-30"/>
       <use x="147.412109375" xlink:href="#BitstreamVeraSans-Roman-2e"/>
       <use x="179.19921875" xlink:href="#BitstreamVeraSans-Roman-37"/>
       <use x="242.822265625" xlink:href="#BitstreamVeraSans-Roman-34"/>
      </g>
     </g>
    </g>
    <g id="xtick_2">
     <g id="line2d_9">
      <g>
       <use style="stroke:#000000;stroke-width:0.5;" x="60.9041666667" xlink:href="#m93b0483c22" y="178.2"/>
      </g>
     </g>
     <g id="line2d_10">
      <g>
       <use style="stroke:#000000;stroke-width:0.5;" x="60.9041666667" xlink:href="#m741efc42ff" y="15.3"/>
      </g>
     </g>
     <g id="text_2">
      <!-- −0.72 -->
      <defs>
       <path d="
M19.1875 8.29688
L53.6094 8.29688
L53.6094 0
L7.32812 0
L7.32812 8.29688
Q12.9375 14.1094 22.625 23.8906
Q32.3281 33.6875 34.8125 36.5312
Q39.5469 41.8438 41.4219 45.5312
Q43.3125 49.2188 43.3125 52.7812
Q43.3125 58.5938 39.2344 62.25
Q35.1562 65.9219 28.6094 65.9219
Q23.9688 65.9219 18.8125 64.3125
Q13.6719 62.7031 7.8125 59.4219
L7.8125 69.3906
Q13.7656 71.7812 18.9375 73
Q24.125 74.2188 28.4219 74.2188
Q39.75 74.2188 46.4844 68.5469
Q53.2188 62.8906 53.2188 53.4219
Q53.2188 48.9219 51.5312 44.8906
Q49.8594 40.875 45.4062 35.4062
Q44.1875 33.9844 37.6406 27.2188
Q31.1094 20.4531 19.1875 8.29688" id="BitstreamVeraSans-Roman-32"/>
      </defs>
      <g transform="translate(46.6119791667 189.7984375)scale(0.1 -0.1)">
       <use xlink:href="#BitstreamVeraSans-Roman-2212"/>
       <use x="83.7890625" xlink:href="#BitstreamVeraSans-Roman-30"/>
       <use x="147.412109375" xlink:href="#BitstreamVeraSans-Roman-2e"/>
       <use x="179.19921875" xlink:href="#BitstreamVeraSans-Roman-37"/>
       <use x="242.822265625" xlink:href="#BitstreamVeraSans-Roman-32"/>
      </g>
     </g>
    </g>
    <g id="xtick_3">
     <g id="line2d_11">
      <g>
       <use style="stroke:#000000;stroke-width:0.5;" x="78.1864583333" xlink:href="#m93b0483c22" y="178.2"/>
      </g>
     </g>
     <g id="line2d_12">
      <g>
       <use style="stroke:#000000;stroke-width:0.5;" x="78.1864583333" xlink:href="#m741efc42ff" y="15.3"/>
      </g>
     </g>
     <g id="text_3">
      <!-- −0.70 -->
      <g transform="translate(63.7255208333 189.7984375)scale(0.1 -0.1)">
       <use xlink:href="#BitstreamVeraSans-Roman-2212"/>
       <use x="83.7890625" xlink:href="#BitstreamVeraSans-Roman-30"/>
       <use x="147.412109375" xlink:href="#BitstreamVeraSans-Roman-2e"/>
       <use x="179.19921875" xlink:href="#BitstreamVeraSans-Roman-37"/>
       <use x="242.822265625" xlink:href="#BitstreamVeraSans-Roman-30"/>
      </g>
     </g>
    </g>
    <g id="xtick_4">
     <g id="line2d_13">
      <g>
       <use style="stroke:#000000;stroke-width:0.5;" x="95.46875" xlink:href="#m93b0483c22" y="178.2"/>
      </g>
     </g>
     <g id="line2d_14">
      <g>
       <use style="stroke:#000000;stroke-width:0.5;" x="95.46875" xlink:href="#m741efc42ff" y="15.3"/>
      </g>
     </g>
     <g id="text_4">
      <!-- −0.68 -->
      <defs>
       <path d="
M31.7812 34.625
Q24.75 34.625 20.7188 30.8594
Q16.7031 27.0938 16.7031 20.5156
Q16.7031 13.9219 20.7188 10.1562
Q24.75 6.39062 31.7812 6.39062
Q38.8125 6.39062 42.8594 10.1719
Q46.9219 13.9688 46.9219 20.5156
Q46.9219 27.0938 42.8906 30.8594
Q38.875 34.625 31.7812 34.625
M21.9219 38.8125
Q15.5781 40.375 12.0312 44.7188
Q8.5 49.0781 8.5 55.3281
Q8.5 64.0625 14.7188 69.1406
Q20.9531 74.2188 31.7812 74.2188
Q42.6719 74.2188 48.875 69.1406
Q55.0781 64.0625 55.0781 55.3281
Q55.0781 49.0781 51.5312 44.7188
Q48 40.375 41.7031 38.8125
Q48.8281 37.1562 52.7969 32.3125
Q56.7812 27.4844 56.7812 20.5156
Q56.7812 9.90625 50.3125 4.23438
Q43.8438 -1.42188 31.7812 -1.42188
Q19.7344 -1.42188 13.25 4.23438
Q6.78125 9.90625 6.78125 20.5156
Q6.78125 27.4844 10.7812 32.3125
Q14.7969 37.1562 21.9219 38.8125
M18.3125 54.3906
Q18.3125 48.7344 21.8438 45.5625
Q25.3906 42.3906 31.7812 42.3906
Q38.1406 42.3906 41.7188 45.5625
Q45.3125 48.7344 45.3125 54.3906
Q45.3125 60.0625 41.7188 63.2344
Q38.1406 66.4062 31.7812 66.4062
Q25.3906 66.4062 21.8438 63.2344
Q18.3125 60.0625 18.3125 54.3906" id="BitstreamVeraSans-Roman-38"/>
       <path d="
M33.0156 40.375
Q26.375 40.375 22.4844 35.8281
Q18.6094 31.2969 18.6094 23.3906
Q18.6094 15.5312 22.4844 10.9531
Q26.375 6.39062 33.0156 6.39062
Q39.6562 6.39062 43.5312 10.9531
Q47.4062 15.5312 47.4062 23.3906
Q47.4062 31.2969 43.5312 35.8281
Q39.6562 40.375 33.0156 40.375
M52.5938 71.2969
L52.5938 62.3125
Q48.875 64.0625 45.0938 64.9844
Q41.3125 65.9219 37.5938 65.9219
Q27.8281 65.9219 22.6719 59.3281
Q17.5312 52.7344 16.7969 39.4062
Q19.6719 43.6562 24.0156 45.9219
Q28.375 48.1875 33.5938 48.1875
Q44.5781 48.1875 50.9531 41.5156
Q57.3281 34.8594 57.3281 23.3906
Q57.3281 12.1562 50.6875 5.35938
Q44.0469 -1.42188 33.0156 -1.42188
Q20.3594 -1.42188 13.6719 8.26562
Q6.98438 17.9688 6.98438 36.375
Q6.98438 53.6562 15.1875 63.9375
Q23.3906 74.2188 37.2031 74.2188
Q40.9219 74.2188 44.7031 73.4844
Q48.4844 72.75 52.5938 71.2969" id="BitstreamVeraSans-Roman-36"/>
      </defs>
      <g transform="translate(81.01796875 189.7984375)scale(0.1 -0.1)">
       <use xlink:href="#BitstreamVeraSans-Roman-2212"/>
       <use x="83.7890625" xlink:href="#BitstreamVeraSans-Roman-30"/>
       <use x="147.412109375" xlink:href="#BitstreamVeraSans-Roman-2e"/>
       <use x="179.19921875" xlink:href="#BitstreamVeraSans-Roman-36"/>
       <use x="242.822265625" xlink:href="#BitstreamVeraSans-Roman-38"/>
      </g>
     </g>
    </g>
    <g id="xtick_5">
     <g id="line2d_15">
      <g>
       <use style="stroke:#000000;stroke-width:0.5;" x="112.751041667" xlink:href="#m93b0483c22" y="178.2"/>
      </g>
     </g>
     <g id="line2d_16">
      <g>
       <use style="stroke:#000000;stroke-width:0.5;" x="112.751041667" xlink:href="#m741efc42ff" y="15.3"/>
      </g>
     </g>
     <g id="text_5">
      <!-- −0.66 -->
      <g transform="translate(98.2729166667 189.7984375)scale(0.1 -0.1)">
       <use xlink:href="#BitstreamVeraSans-Roman-2212"/>
       <use x="83.7890625" xlink:href="#BitstreamVeraSans-Roman-30"/>
       <use x="147.412109375" xlink:href="#BitstreamVeraSans-Roman-2e"/>
       <use x="179.19921875" xlink:href="#BitstreamVeraSans-Roman-36"/>
       <use x="242.822265625" xlink:href="#BitstreamVeraSans-Roman-36"/>
      </g>
     </g>
    </g>
    <g id="xtick_6">
     <g id="line2d_17">
      <g>
       <use style="stroke:#000000;stroke-width:0.5;" x="130.033333333" xlink:href="#m93b0483c22" y="178.2"/>
      </g>
     </g>
     <g id="line2d_18">
      <g>
       <use style="stroke:#000000;stroke-width:0.5;" x="130.033333333" xlink:href="#m741efc42ff" y="15.3"/>
      </g>
     </g>
     <g id="text_6">
      <!-- −0.64 -->
      <g transform="translate(115.520833333 189.7984375)scale(0.1 -0.1)">
       <use xlink:href="#BitstreamVeraSans-Roman-2212"/>
       <use x="83.7890625" xlink:href="#BitstreamVeraSans-Roman-30"/>
       <use x="147.412109375" xlink:href="#BitstreamVeraSans-Roman-2e"/>
       <use x="179.19921875" xlink:href="#BitstreamVeraSans-Roman-36"/>
       <use x="242.822265625" xlink:href="#BitstreamVeraSans-Roman-34"/>
      </g>
     </g>
    </g>
    <g id="xtick_7">
     <g id="line2d_19">
      <g>
       <use style="stroke:#000000;stroke-width:0.5;" x="147.315625" xlink:href="#m93b0483c22" y="178.2"/>
      </g>
     </g>
     <g id="line2d_20">
      <g>
       <use style="stroke:#000000;stroke-width:0.5;" x="147.315625" xlink:href="#m741efc42ff" y="15.3"/>
      </g>
     </g>
     <g id="text_7">
      <!-- −0.62 -->
      <g transform="translate(133.0234375 189.7984375)scale(0.1 -0.1)">
       <use xlink:href="#BitstreamVeraSans-Roman-2212"/>
       <use x="83.7890625" xlink:href="#BitstreamVeraSans-Roman-30"/>
       <use x="147.412109375" xlink:href="#BitstreamVeraSans-Roman-2e"/>
       <use x="179.19921875" xlink:href="#BitstreamVeraSans-Roman-36"/>
       <use x="242.822265625" xlink:href="#BitstreamVeraSans-Roman-32"/>
      </g>
     </g>
    </g>
    <g id="xtick_8">
     <g id="line2d_21">
      <g>
       <use style="stroke:#000000;stroke-width:0.5;" x="164.597916667" xlink:href="#m93b0483c22" y="178.2"/>
      </g>
     </g>
     <g id="line2d_22">
      <g>
       <use style="stroke:#000000;stroke-width:0.5;" x="164.597916667" xlink:href="#m741efc42ff" y="15.3"/>
      </g>
     </g>
     <g id="text_8">
      <!-- −0.60 -->
      <g transform="translate(150.136979167 189.7984375)scale(0.1 -0.1)">
       <use xlink:href="#BitstreamVeraSans-Roman-2212"/>
       <use x="83.7890625" xlink:href="#BitstreamVeraSans-Roman-30"/>
       <use x="147.412109375" xlink:href="#BitstreamVeraSans-Roman-2e"/>
       <use x="179.19921875" xlink:href="#BitstreamVeraSans-Roman-36"/>
       <use x="242.822265625" xlink:href="#BitstreamVeraSans-Roman-30"/>
      </g>
     </g>
    </g>
    <g id="xtick_9">
     <g id="line2d_23">
      <g>
       <use style="stroke:#000000;stroke-width:0.5;" x="181.880208333" xlink:href="#m93b0483c22" y="178.2"/>
      </g>
     </g>
     <g id="line2d_24">
      <g>
       <use style="stroke:#000000;stroke-width:0.5;" x="181.880208333" xlink:href="#m741efc42ff" y="15.3"/>
      </g>
     </g>
     <g id="text_9">
      <!-- −0.58 -->
      <defs>
       <path d="
M10.7969 72.9062
L49.5156 72.9062
L49.5156 64.5938
L19.8281 64.5938
L19.8281 46.7344
Q21.9688 47.4688 24.1094 47.8281
Q26.2656 48.1875 28.4219 48.1875
Q40.625 48.1875 47.75 41.5
Q54.8906 34.8125 54.8906 23.3906
Q54.8906 11.625 47.5625 5.09375
Q40.2344 -1.42188 26.9062 -1.42188
Q22.3125 -1.42188 17.5469 -0.640625
Q12.7969 0.140625 7.71875 1.70312
L7.71875 11.625
Q12.1094 9.23438 16.7969 8.0625
Q21.4844 6.89062 26.7031 6.89062
Q35.1562 6.89062 40.0781 11.3281
Q45.0156 15.7656 45.0156 23.3906
Q45.0156 31 40.0781 35.4375
Q35.1562 39.8906 26.7031 39.8906
Q22.75 39.8906 18.8125 39.0156
Q14.8906 38.1406 10.7969 36.2812
z
" id="BitstreamVeraSans-Roman-35"/>
      </defs>
      <g transform="translate(167.429427083 189.7984375)scale(0.1 -0.1)">
       <use xlink:href="#BitstreamVeraSans-Roman-2212"/>
       <use x="83.7890625" xlink:href="#BitstreamVeraSans-Roman-30"/>
       <use x="147.412109375" xlink:href="#BitstreamVeraSans-Roman-2e"/>
       <use x="179.19921875" xlink:href="#BitstreamVeraSans-Roman-35"/>
       <use x="242.822265625" xlink:href="#BitstreamVeraSans-Roman-38"/>
      </g>
     </g>
    </g>
    <g id="xtick_10">
     <g id="line2d_25">
      <g>
       <use style="stroke:#000000;stroke-width:0.5;" x="199.1625" xlink:href="#m93b0483c22" y="178.2"/>
      </g>
     </g>
     <g id="line2d_26">
      <g>
       <use style="stroke:#000000;stroke-width:0.5;" x="199.1625" xlink:href="#m741efc42ff" y="15.3"/>
      </g>
     </g>
     <g id="text_10">
      <!-- −0.56 -->
      <g transform="translate(184.684375 189.7984375)scale(0.1 -0.1)">
       <use xlink:href="#BitstreamVeraSans-Roman-2212"/>
       <use x="83.7890625" xlink:href="#BitstreamVeraSans-Roman-30"/>
       <use x="147.412109375" xlink:href="#BitstreamVeraSans-Roman-2e"/>
       <use x="179.19921875" xlink:href="#BitstreamVeraSans-Roman-35"/>
       <use x="242.822265625" xlink:href="#BitstreamVeraSans-Roman-36"/>
      </g>
     </g>
    </g>
    <g id="text_11">
     <!-- X component -->
     <defs>
      <path id="BitstreamVeraSans-Roman-20"/>
      <path d="
M54.8906 33.0156
L54.8906 0
L45.9062 0
L45.9062 32.7188
Q45.9062 40.4844 42.875 44.3281
Q39.8438 48.1875 33.7969 48.1875
Q26.5156 48.1875 22.3125 43.5469
Q18.1094 38.9219 18.1094 30.9062
L18.1094 0
L9.07812 0
L9.07812 54.6875
L18.1094 54.6875
L18.1094 46.1875
Q21.3438 51.125 25.7031 53.5625
Q30.0781 56 35.7969 56
Q45.2188 56 50.0469 50.1719
Q54.8906 44.3438 54.8906 33.0156" id="BitstreamVeraSans-Roman-6e"/>
      <path d="
M52 44.1875
Q55.375 50.25 60.0625 53.125
Q64.75 56 71.0938 56
Q79.6406 56 84.2812 50.0156
Q88.9219 44.0469 88.9219 33.0156
L88.9219 0
L79.8906 0
L79.8906 32.7188
Q79.8906 40.5781 77.0938 44.375
Q74.3125 48.1875 68.6094 48.1875
Q61.625 48.1875 57.5625 43.5469
Q53.5156 38.9219 53.5156 30.9062
L53.5156 0
L44.4844 0
L44.4844 32.7188
Q44.4844 40.625 41.7031 44.4062
Q38.9219 48.1875 33.1094 48.1875
Q26.2188 48.1875 22.1562 43.5312
Q18.1094 38.875 18.1094 30.9062
L18.1094 0
L9.07812 0
L9.07812 54.6875
L18.1094 54.6875
L18.1094 46.1875
Q21.1875 51.2188 25.4844 53.6094
Q29.7812 56 35.6875 56
Q41.6562 56 45.8281 52.9688
Q50 49.9531 52 44.1875" id="BitstreamVeraSans-Roman-6d"/>
      <path d="
M30.6094 48.3906
Q23.3906 48.3906 19.1875 42.75
Q14.9844 37.1094 14.9844 27.2969
Q14.9844 17.4844 19.1562 11.8438
Q23.3438 6.20312 30.6094 6.20312
Q37.7969 6.20312 41.9844 11.8594
Q46.1875 17.5312 46.1875 27.2969
Q46.1875 37.0156 41.9844 42.7031
Q37.7969 48.3906 30.6094 48.3906
M30.6094 56
Q42.3281 56 49.0156 48.375
Q55.7188 40.7656 55.7188 27.2969
Q55.7188 13.875 49.0156 6.21875
Q42.3281 -1.42188 30.6094 -1.42188
Q18.8438 -1.42188 12.1719 6.21875
Q5.51562 13.875 5.51562 27.2969
Q5.51562 40.7656 12.1719 48.375
Q18.8438 56 30.6094 56" id="BitstreamVeraSans-Roman-6f"/>
      <path d="
M56.2031 29.5938
L56.2031 25.2031
L14.8906 25.2031
Q15.4844 15.9219 20.4844 11.0625
Q25.4844 6.20312 34.4219 6.20312
Q39.5938 6.20312 44.4531 7.46875
Q49.3125 8.73438 54.1094 11.2812
L54.1094 2.78125
Q49.2656 0.734375 44.1875 -0.34375
Q39.1094 -1.42188 33.8906 -1.42188
Q20.7969 -1.42188 13.1562 6.1875
Q5.51562 13.8125 5.51562 26.8125
Q5.51562 40.2344 12.7656 48.1094
Q20.0156 56 32.3281 56
Q43.3594 56 49.7812 48.8906
Q56.2031 41.7969 56.2031 29.5938
M47.2188 32.2344
Q47.125 39.5938 43.0938 43.9844
Q39.0625 48.3906 32.4219 48.3906
Q24.9062 48.3906 20.3906 44.1406
Q15.875 39.8906 15.1875 32.1719
z
" id="BitstreamVeraSans-Roman-65"/>
      <path d="
M48.7812 52.5938
L48.7812 44.1875
Q44.9688 46.2969 41.1406 47.3438
Q37.3125 48.3906 33.4062 48.3906
Q24.6562 48.3906 19.8125 42.8438
Q14.9844 37.3125 14.9844 27.2969
Q14.9844 17.2812 19.8125 11.7344
Q24.6562 6.20312 33.4062 6.20312
Q37.3125 6.20312 41.1406 7.25
Q44.9688 8.29688 48.7812 10.4062
L48.7812 2.09375
Q45.0156 0.34375 40.9844 -0.53125
Q36.9688 -1.42188 32.4219 -1.42188
Q20.0625 -1.42188 12.7812 6.34375
Q5.51562 14.1094 5.51562 27.2969
Q5.51562 40.6719 12.8594 48.3281
Q20.2188 56 33.0156 56
Q37.1562 56 41.1094 55.1406
Q45.0625 54.2969 48.7812 52.5938" id="BitstreamVeraSans-Roman-63"/>
      <path d="
M6.29688 72.9062
L16.8906 72.9062
L35.0156 45.7969
L53.2188 72.9062
L63.8125 72.9062
L40.375 37.8906
L65.375 0
L54.7812 0
L34.2812 31
L13.625 0
L2.98438 0
L29 38.9219
z
" id="BitstreamVeraSans-Roman-58"/>
      <path d="
M18.3125 70.2188
L18.3125 54.6875
L36.8125 54.6875
L36.8125 47.7031
L18.3125 47.7031
L18.3125 18.0156
Q18.3125 11.3281 20.1406 9.42188
Q21.9688 7.51562 27.5938 7.51562
L36.8125 7.51562
L36.8125 0
L27.5938 0
Q17.1875 0 13.2344 3.875
Q9.28125 7.76562 9.28125 18.0156
L9.28125 47.7031
L2.6875 47.7031
L2.6875 54.6875
L9.28125 54.6875
L9.28125 70.2188
z
" id="BitstreamVeraSans-Roman-74"/>
      <path d="
M18.1094 8.20312
L18.1094 -20.7969
L9.07812 -20.7969
L9.07812 54.6875
L18.1094 54.6875
L18.1094 46.3906
Q20.9531 51.2656 25.2656 53.625
Q29.5938 56 35.5938 56
Q45.5625 56 51.7812 48.0938
Q58.0156 40.1875 58.0156 27.2969
Q58.0156 14.4062 51.7812 6.48438
Q45.5625 -1.42188 35.5938 -1.42188
Q29.5938 -1.42188 25.2656 0.953125
Q20.9531 3.32812 18.1094 8.20312
M48.6875 27.2969
Q48.6875 37.2031 44.6094 42.8438
Q40.5312 48.4844 33.4062 48.4844
Q26.2656 48.4844 22.1875 42.8438
Q18.1094 37.2031 18.1094 27.2969
Q18.1094 17.3906 22.1875 11.75
Q26.2656 6.10938 33.4062 6.10938
Q40.5312 6.10938 44.6094 11.75
Q48.6875 17.3906 48.6875 27.2969" id="BitstreamVeraSans-Roman-70"/>
     </defs>
     <g transform="translate(88.2109375 204.4765625)scale(0.1 -0.1)">
      <use xlink:href="#BitstreamVeraSans-Roman-58"/>
      <use x="68.505859375" xlink:href="#BitstreamVeraSans-Roman-20"/>
      <use x="100.29296875" xlink:href="#BitstreamVeraSans-Roman-63"/>
      <use x="155.2734375" xlink:href="#BitstreamVeraSans-Roman-6f"/>
      <use x="216.455078125" xlink:href="#BitstreamVeraSans-Roman-6d"/>
      <use x="313.8671875" xlink:href="#BitstreamVeraSans-Roman-70"/>
      <use x="377.34375" xlink:href="#BitstreamVeraSans-Roman-6f"/>
      <use x="438.525390625" xlink:href="#BitstreamVeraSans-Roman-6e"/>
      <use x="501.904296875" xlink:href="#BitstreamVeraSans-Roman-65"/>
      <use x="563.427734375" xlink:href="#BitstreamVeraSans-Roman-6e"/>
      <use x="626.806640625" xlink:href="#BitstreamVeraSans-Roman-74"/>
     </g>
    </g>
   </g>
   <g id="matplotlib.axis_2">
    <g id="ytick_1">
     <g id="line2d_27">
      <defs>
       <path d="
M0 0
L4 0" id="m728421d6d4" style="stroke:#000000;stroke-width:0.5;"/>
      </defs>
      <g>
       <use style="stroke:#000000;stroke-width:0.5;" x="43.621875" xlink:href="#m728421d6d4" y="178.2"/>
      </g>
     </g>
     <g id="line2d_28">
      <defs>
       <path d="
M0 0
L-4 0" id="mcb0005524f" style="stroke:#000000;stroke-width:0.5;"/>
      </defs>
      <g>
       <use style="stroke:#000000;stroke-width:0.5;" x="199.1625" xlink:href="#mcb0005524f" y="178.2"/>
      </g>
     </g>
     <g id="text_12">
      <!-- 0.0 -->
      <g transform="translate(25.0421875 180.959375)scale(0.1 -0.1)">
       <use xlink:href="#BitstreamVeraSans-Roman-30"/>
       <use x="63.623046875" xlink:href="#BitstreamVeraSans-Roman-2e"/>
       <use x="95.41015625" xlink:href="#BitstreamVeraSans-Roman-30"/>
      </g>
     </g>
    </g>
    <g id="ytick_2">
     <g id="line2d_29">
      <g>
       <use style="stroke:#000000;stroke-width:0.5;" x="43.621875" xlink:href="#m728421d6d4" y="145.62"/>
      </g>
     </g>
     <g id="line2d_30">
      <g>
       <use style="stroke:#000000;stroke-width:0.5;" x="199.1625" xlink:href="#mcb0005524f" y="145.62"/>
      </g>
     </g>
     <g id="text_13">
      <!-- 0.2 -->
      <g transform="translate(25.3796875 148.379375)scale(0.1 -0.1)">
       <use xlink:href="#BitstreamVeraSans-Roman-30"/>
       <use x="63.623046875" xlink:href="#BitstreamVeraSans-Roman-2e"/>
       <use x="95.41015625" xlink:href="#BitstreamVeraSans-Roman-32"/>
      </g>
     </g>
    </g>
    <g id="ytick_3">
     <g id="line2d_31">
      <g>
       <use style="stroke:#000000;stroke-width:0.5;" x="43.621875" xlink:href="#m728421d6d4" y="113.04"/>
      </g>
     </g>
     <g id="line2d_32">
      <g>
       <use style="stroke:#000000;stroke-width:0.5;" x="199.1625" xlink:href="#mcb0005524f" y="113.04"/>
      </g>
     </g>
     <g id="text_14">
      <!-- 0.4 -->
      <g transform="translate(24.9390625 115.799375)scale(0.1 -0.1)">
       <use xlink:href="#BitstreamVeraSans-Roman-30"/>
       <use x="63.623046875" xlink:href="#BitstreamVeraSans-Roman-2e"/>
       <use x="95.41015625" xlink:href="#BitstreamVeraSans-Roman-34"/>
      </g>
     </g>
    </g>
    <g id="ytick_4">
     <g id="line2d_33">
      <g>
       <use style="stroke:#000000;stroke-width:0.5;" x="43.621875" xlink:href="#m728421d6d4" y="80.46"/>
      </g>
     </g>
     <g id="line2d_34">
      <g>
       <use style="stroke:#000000;stroke-width:0.5;" x="199.1625" xlink:href="#mcb0005524f" y="80.46"/>
      </g>
     </g>
     <g id="text_15">
      <!-- 0.6 -->
      <g transform="translate(25.0078125 83.219375)scale(0.1 -0.1)">
       <use xlink:href="#BitstreamVeraSans-Roman-30"/>
       <use x="63.623046875" xlink:href="#BitstreamVeraSans-Roman-2e"/>
       <use x="95.41015625" xlink:href="#BitstreamVeraSans-Roman-36"/>
      </g>
     </g>
    </g>
    <g id="ytick_5">
     <g id="line2d_35">
      <g>
       <use style="stroke:#000000;stroke-width:0.5;" x="43.621875" xlink:href="#m728421d6d4" y="47.88"/>
      </g>
     </g>
     <g id="line2d_36">
      <g>
       <use style="stroke:#000000;stroke-width:0.5;" x="199.1625" xlink:href="#mcb0005524f" y="47.88"/>
      </g>
     </g>
     <g id="text_16">
      <!-- 0.8 -->
      <g transform="translate(25.0625 50.639375)scale(0.1 -0.1)">
       <use xlink:href="#BitstreamVeraSans-Roman-30"/>
       <use x="63.623046875" xlink:href="#BitstreamVeraSans-Roman-2e"/>
       <use x="95.41015625" xlink:href="#BitstreamVeraSans-Roman-38"/>
      </g>
     </g>
    </g>
    <g id="ytick_6">
     <g id="line2d_37">
      <g>
       <use style="stroke:#000000;stroke-width:0.5;" x="43.621875" xlink:href="#m728421d6d4" y="15.3"/>
      </g>
     </g>
     <g id="line2d_38">
      <g>
       <use style="stroke:#000000;stroke-width:0.5;" x="199.1625" xlink:href="#mcb0005524f" y="15.3"/>
      </g>
     </g>
     <g id="text_17">
      <!-- 1.0 -->
      <defs>
       <path d="
M12.4062 8.29688
L28.5156 8.29688
L28.5156 63.9219
L10.9844 60.4062
L10.9844 69.3906
L28.4219 72.9062
L38.2812 72.9062
L38.2812 8.29688
L54.3906 8.29688
L54.3906 0
L12.4062 0
z
" id="BitstreamVeraSans-Roman-31"/>
      </defs>
      <g transform="translate(25.48125 18.059375)scale(0.1 -0.1)">
       <use xlink:href="#BitstreamVeraSans-Roman-31"/>
       <use x="63.623046875" xlink:href="#BitstreamVeraSans-Roman-2e"/>
       <use x="95.41015625" xlink:href="#BitstreamVeraSans-Roman-30"/>
      </g>
     </g>
    </g>
    <g id="text_18">
     <!-- Cumulative Distribution -->
     <defs>
      <path d="
M41.1094 46.2969
Q39.5938 47.1719 37.8125 47.5781
Q36.0312 48 33.8906 48
Q26.2656 48 22.1875 43.0469
Q18.1094 38.0938 18.1094 28.8125
L18.1094 0
L9.07812 0
L9.07812 54.6875
L18.1094 54.6875
L18.1094 46.1875
Q20.9531 51.1719 25.4844 53.5781
Q30.0312 56 36.5312 56
Q37.4531 56 38.5781 55.875
Q39.7031 55.7656 41.0625 55.5156
z
" id="BitstreamVeraSans-Roman-72"/>
      <path d="
M9.42188 75.9844
L18.4062 75.9844
L18.4062 0
L9.42188 0
z
" id="BitstreamVeraSans-Roman-6c"/>
      <path d="
M19.6719 64.7969
L19.6719 8.10938
L31.5938 8.10938
Q46.6875 8.10938 53.6875 14.9375
Q60.6875 21.7812 60.6875 36.5312
Q60.6875 51.1719 53.6875 57.9844
Q46.6875 64.7969 31.5938 64.7969
z

M9.8125 72.9062
L30.0781 72.9062
Q51.2656 72.9062 61.1719 64.0938
Q71.0938 55.2812 71.0938 36.5312
Q71.0938 17.6719 61.125 8.82812
Q51.1719 0 30.0781 0
L9.8125 0
z
" id="BitstreamVeraSans-Roman-44"/>
      <path d="
M9.42188 54.6875
L18.4062 54.6875
L18.4062 0
L9.42188 0
z

M9.42188 75.9844
L18.4062 75.9844
L18.4062 64.5938
L9.42188 64.5938
z
" id="BitstreamVeraSans-Roman-69"/>
      <path d="
M2.98438 54.6875
L12.5 54.6875
L29.5938 8.79688
L46.6875 54.6875
L56.2031 54.6875
L35.6875 0
L23.4844 0
z
" id="BitstreamVeraSans-Roman-76"/>
      <path d="
M64.4062 67.2812
L64.4062 56.8906
Q59.4219 61.5312 53.7812 63.8125
Q48.1406 66.1094 41.7969 66.1094
Q29.2969 66.1094 22.6562 58.4688
Q16.0156 50.8281 16.0156 36.375
Q16.0156 21.9688 22.6562 14.3281
Q29.2969 6.6875 41.7969 6.6875
Q48.1406 6.6875 53.7812 8.98438
Q59.4219 11.2812 64.4062 15.9219
L64.4062 5.60938
Q59.2344 2.09375 53.4375 0.328125
Q47.6562 -1.42188 41.2188 -1.42188
Q24.6562 -1.42188 15.125 8.70312
Q5.60938 18.8438 5.60938 36.375
Q5.60938 53.9531 15.125 64.0781
Q24.6562 74.2188 41.2188 74.2188
Q47.75 74.2188 53.5312 72.4844
Q59.3281 70.75 64.4062 67.2812" id="BitstreamVeraSans-Roman-43"/>
      <path d="
M8.5 21.5781
L8.5 54.6875
L17.4844 54.6875
L17.4844 21.9219
Q17.4844 14.1562 20.5 10.2656
Q23.5312 6.39062 29.5938 6.39062
Q36.8594 6.39062 41.0781 11.0312
Q45.3125 15.6719 45.3125 23.6875
L45.3125 54.6875
L54.2969 54.6875
L54.2969 0
L45.3125 0
L45.3125 8.40625
Q42.0469 3.42188 37.7188 1
Q33.4062 -1.42188 27.6875 -1.42188
Q18.2656 -1.42188 13.375 4.4375
Q8.5 10.2969 8.5 21.5781" id="BitstreamVeraSans-Roman-75"/>
      <path d="
M34.2812 27.4844
Q23.3906 27.4844 19.1875 25
Q14.9844 22.5156 14.9844 16.5
Q14.9844 11.7188 18.1406 8.90625
Q21.2969 6.10938 26.7031 6.10938
Q34.1875 6.10938 38.7031 11.4062
Q43.2188 16.7031 43.2188 25.4844
L43.2188 27.4844
z

M52.2031 31.2031
L52.2031 0
L43.2188 0
L43.2188 8.29688
Q40.1406 3.32812 35.5469 0.953125
Q30.9531 -1.42188 24.3125 -1.42188
Q15.9219 -1.42188 10.9531 3.29688
Q6 8.01562 6 15.9219
Q6 25.1406 12.1719 29.8281
Q18.3594 34.5156 30.6094 34.5156
L43.2188 34.5156
L43.2188 35.4062
Q43.2188 41.6094 39.1406 45
Q35.0625 48.3906 27.6875 48.3906
Q23 48.3906 18.5469 47.2656
Q14.1094 46.1406 10.0156 43.8906
L10.0156 52.2031
Q14.9375 54.1094 19.5781 55.0469
Q24.2188 56 28.6094 56
Q40.4844 56 46.3438 49.8438
Q52.2031 43.7031 52.2031 31.2031" id="BitstreamVeraSans-Roman-61"/>
      <path d="
M44.2812 53.0781
L44.2812 44.5781
Q40.4844 46.5312 36.375 47.5
Q32.2812 48.4844 27.875 48.4844
Q21.1875 48.4844 17.8438 46.4375
Q14.5 44.3906 14.5 40.2812
Q14.5 37.1562 16.8906 35.375
Q19.2812 33.5938 26.5156 31.9844
L29.5938 31.2969
Q39.1562 29.25 43.1875 25.5156
Q47.2188 21.7812 47.2188 15.0938
Q47.2188 7.46875 41.1875 3.01562
Q35.1562 -1.42188 24.6094 -1.42188
Q20.2188 -1.42188 15.4531 -0.5625
Q10.6875 0.296875 5.42188 2
L5.42188 11.2812
Q10.4062 8.6875 15.2344 7.39062
Q20.0625 6.10938 24.8125 6.10938
Q31.1562 6.10938 34.5625 8.28125
Q37.9844 10.4531 37.9844 14.4062
Q37.9844 18.0625 35.5156 20.0156
Q33.0625 21.9688 24.7031 23.7812
L21.5781 24.5156
Q13.2344 26.2656 9.51562 29.9062
Q5.8125 33.5469 5.8125 39.8906
Q5.8125 47.6094 11.2812 51.7969
Q16.75 56 26.8125 56
Q31.7812 56 36.1719 55.2656
Q40.5781 54.5469 44.2812 53.0781" id="BitstreamVeraSans-Roman-73"/>
      <path d="
M48.6875 27.2969
Q48.6875 37.2031 44.6094 42.8438
Q40.5312 48.4844 33.4062 48.4844
Q26.2656 48.4844 22.1875 42.8438
Q18.1094 37.2031 18.1094 27.2969
Q18.1094 17.3906 22.1875 11.75
Q26.2656 6.10938 33.4062 6.10938
Q40.5312 6.10938 44.6094 11.75
Q48.6875 17.3906 48.6875 27.2969
M18.1094 46.3906
Q20.9531 51.2656 25.2656 53.625
Q29.5938 56 35.5938 56
Q45.5625 56 51.7812 48.0938
Q58.0156 40.1875 58.0156 27.2969
Q58.0156 14.4062 51.7812 6.48438
Q45.5625 -1.42188 35.5938 -1.42188
Q29.5938 -1.42188 25.2656 0.953125
Q20.9531 3.32812 18.1094 8.20312
L18.1094 0
L9.07812 0
L9.07812 75.9844
L18.1094 75.9844
z
" id="BitstreamVeraSans-Roman-62"/>
     </defs>
     <g transform="translate(17.859375 155.62109375)rotate(-90.0)scale(0.1 -0.1)">
      <use xlink:href="#BitstreamVeraSans-Roman-43"/>
      <use x="69.82421875" xlink:href="#BitstreamVeraSans-Roman-75"/>
      <use x="133.203125" xlink:href="#BitstreamVeraSans-Roman-6d"/>
      <use x="230.615234375" xlink:href="#BitstreamVeraSans-Roman-75"/>
      <use x="293.994140625" xlink:href="#BitstreamVeraSans-Roman-6c"/>
      <use x="321.77734375" xlink:href="#BitstreamVeraSans-Roman-61"/>
      <use x="383.056640625" xlink:href="#BitstreamVeraSans-Roman-74"/>
      <use x="422.265625" xlink:href="#BitstreamVeraSans-Roman-69"/>
      <use x="450.048828125" xlink:href="#BitstreamVeraSans-Roman-76"/>
      <use x="509.228515625" xlink:href="#BitstreamVeraSans-Roman-65"/>
      <use x="570.751953125" xlink:href="#BitstreamVeraSans-Roman-20"/>
      <use x="602.5390625" xlink:href="#BitstreamVeraSans-Roman-44"/>
      <use x="679.541015625" xlink:href="#BitstreamVeraSans-Roman-69"/>
      <use x="707.32421875" xlink:href="#BitstreamVeraSans-Roman-73"/>
      <use x="759.423828125" xlink:href="#BitstreamVeraSans-Roman-74"/>
      <use x="798.6328125" xlink:href="#BitstreamVeraSans-Roman-72"/>
      <use x="839.74609375" xlink:href="#BitstreamVeraSans-Roman-69"/>
      <use x="867.529296875" xlink:href="#BitstreamVeraSans-Roman-62"/>
      <use x="931.005859375" xlink:href="#BitstreamVeraSans-Roman-75"/>
      <use x="994.384765625" xlink:href="#BitstreamVeraSans-Roman-74"/>
      <use x="1033.59375" xlink:href="#BitstreamVeraSans-Roman-69"/>
      <use x="1061.37695312" xlink:href="#BitstreamVeraSans-Roman-6f"/>
      <use x="1122.55859375" xlink:href="#BitstreamVeraSans-Roman-6e"/>
     </g>
    </g>
   </g>
  </g>
  <g id="axes_2">
   <g id="patch_7">
    <path d="
M257.367 178.2
L412.908 178.2
L412.908 15.3
L257.367 15.3
z
" style="fill:#ffffff;"/>
   </g>
   <g id="line2d_39">
    <path clip-path="url(#p44efea1c73)" d="
M293.294 178.2
L300.229 177.907
L302.651 177.711
L307.897 176.278
L307.908 176.245
L308.895 175.985
L309.549 175.724
L309.655 175.594
L310.344 175.268
L310.771 175.072
L310.932 174.942
L311.373 174.812
L311.452 174.681
L311.778 174.518
L311.902 174.388
L312.242 174.095
L312.353 173.867
L312.954 173.639
L313.361 173.443
L313.486 173.313
L314.503 172.661
L315.158 171.814
L315.286 171.619
L315.501 171.293
L315.644 171.098
L316.051 170.869
L316.334 170.316
L316.451 170.12
L316.65 169.957
L316.751 169.729
L316.856 169.631
L317.03 169.371
L317.146 169.143
L317.286 168.915
L317.857 168.263
L318.217 167.84
L318.369 167.611
L318.839 166.96
L319.167 166.699
L319.626 165.885
L319.733 165.722
L319.939 165.298
L320.106 165.07
L320.357 164.549
L320.522 164.06
L322.051 160.998
L322.252 160.346
L322.409 159.923
L322.663 159.369
L322.827 159.043
L323.232 158.228
L323.374 157.805
L323.544 157.642
L323.811 157.056
L323.95 156.599
L324.065 156.371
L324.247 156.176
L324.474 155.622
L324.591 155.296
L324.721 154.938
L324.876 154.612
L325.619 153.081
L325.794 152.527
L326.149 151.517
L326.272 151.093
L326.992 149.106
L327.12 148.943
L327.937 146.141
L328.064 145.783
L328.241 145.229
L328.333 144.968
L328.609 143.73
L328.882 142.753
L329.033 142.492
L329.299 141.58
L329.355 141.352
L329.455 140.7
L329.576 140.375
L329.684 140.049
L329.935 138.746
L330.219 137.67
L330.311 137.28
L331.468 132.849
L332.044 130.47
L332.126 129.884
L332.204 129.688
L332.48 128.548
L332.589 128.19
L332.702 127.636
L332.983 126.561
L333.066 126.202
L333.329 124.899
L333.397 124.671
L333.515 124.345
L333.953 122.195
L334.089 121.609
L334.276 120.924
L334.622 119.263
L334.669 118.937
L335.109 116.754
L335.289 116.07
L335.428 115.614
L335.649 114.441
L335.745 114.148
L335.855 113.529
L335.923 113.105
L336.025 112.616
L336.073 112.356
L336.193 111.769
L336.336 111.15
L336.469 110.531
L336.582 109.684
L336.897 108.283
L337.382 106.589
L338.753 100.171
L338.825 99.9428
L339.624 96.75
L339.685 96.6197
L339.784 95.9681
L339.882 95.6749
L340.034 94.9907
L340.22 93.9807
L340.338 93.5246
L340.403 93.1336
L340.513 92.482
L340.599 92.0911
L340.734 91.3417
L340.909 90.2992
L341.774 86.3244
L341.974 85.1841
L342.055 84.8909
L342.219 84.3696
L342.285 84.1741
L342.392 83.7832
L342.439 83.5225
L342.539 83.099
L342.605 82.8709
L343.94 76.3875
L344.116 76.0291
L344.966 71.7611
L345.016 71.5331
L345.17 70.8163
L345.24 70.3276
L345.333 69.8063
L345.368 69.6109
L345.79 68.0144
L345.871 67.6886
L346.445 65.5709
L346.493 65.408
L346.642 64.8216
L346.76 64.2352
L347.051 63.3881
L347.181 63.0297
L347.353 62.15
L347.48 61.6288
L347.614 60.9772
L347.798 60.293
L348.163 59.1201
L348.771 56.9047
L349.01 55.9924
L349.08 55.7969
L349.184 55.2431
L349.344 54.6566
L349.456 54.2331
L350.373 51.3661
L350.458 51.2032
L350.632 50.4864
L350.753 50.1606
L350.897 49.5742
L350.992 49.3135
L352.077 45.6646
L352.14 45.4691
L352.293 45.0781
L352.849 43.3188
L353.591 41.0056
L353.667 40.7776
L353.805 40.4518
L354.178 39.7676
L354.393 39.2463
L354.609 38.6599
L354.74 38.3015
L354.832 38.106
L354.933 37.9105
L355.103 37.5521
L355.248 37.1938
L355.55 36.4118
L355.65 36.0535
L355.751 35.7928
L355.841 35.5648
L355.927 35.3367
L356.041 35.1086
L356.194 34.7503
L356.373 34.5548
L356.589 33.8706
L356.81 33.2842
L357.294 31.981
L357.807 31.0687
L358.002 30.4497
L358.432 29.6352
L358.549 29.3746
L358.736 29.0813
L358.853 28.8533
L359.332 28.2017
L359.575 27.7456
L359.66 27.5501
L359.915 27.2894
L360.199 26.6704
L360.297 26.5075
L360.448 26.2143
L360.549 26.0514
L360.874 25.693
L361.027 25.4975
L362.808 23.0866
L362.911 22.9237
L362.916 22.8911
L363.148 22.7608
L363.223 22.5979
L363.482 22.4676
L363.599 22.3373
L364.137 22.0115
L364.233 21.9137
L364.574 21.7183
L364.741 21.425
L365.298 21.0015
L366.844 19.8938
L367.121 19.7635
L367.694 19.4051
L368.041 19.177
L368.739 18.8512
L369.02 18.6557
L369.149 18.5906
L369.509 18.2648
L371.333 17.5806
L372.214 17.4177
L372.561 17.2548
L372.743 17.1571
L377.228 16.1797
L385.016 15.4629
L391.94 15.3326
L391.94 15.3326" style="fill:none;stroke:#ff0000;stroke-linecap:square;"/>
   </g>
   <g id="line2d_40">
    <path clip-path="url(#p44efea1c73)" d="
M312.211 178.2
L312.211 15.3" style="fill:none;stroke:#ff0000;stroke-linecap:square;"/>
   </g>
   <g id="line2d_41">
    <path clip-path="url(#p44efea1c73)" d="
M367.792 178.2
L367.792 15.3" style="fill:none;stroke:#ff0000;stroke-linecap:square;"/>
   </g>
   <g id="line2d_42">
    <path clip-path="url(#p44efea1c73)" d="
M275.642 178.2
L282.12 178.167
L287.913 178.037
L295.055 176.897
L295.276 176.832
L295.844 176.669
L296.272 176.506
L296.587 176.31
L296.951 175.919
L297.334 175.756
L298.555 175.235
L298.692 175.105
L299.07 174.942
L299.227 174.844
L300.814 173.802
L301.356 173.443
L302.114 172.727
L302.305 172.564
L302.424 172.433
L302.694 172.27
L302.734 172.173
L303.38 171.782
L303.676 171.489
L304.551 170.739
L304.612 170.641
L304.856 170.479
L305.147 170.022
L305.675 169.338
L305.909 169.175
L306.05 168.947
L306.334 168.784
L306.489 168.524
L306.713 168.296
L306.825 168.068
L307.049 167.937
L308.658 165.201
L308.874 165.038
L309.083 164.744
L309.29 164.582
L309.388 164.288
L309.537 164.06
L310.206 163.083
L310.604 162.366
L310.763 162.203
L310.884 161.943
L311.076 161.486
L311.301 161.03
L311.568 160.248
L312.172 158.782
L312.331 158.619
L312.442 158.391
L312.552 157.968
L312.856 157.218
L313.043 156.632
L313.283 156.241
L313.405 155.883
L313.546 155.589
L313.77 155.036
L316.133 149.008
L316.268 148.683
L316.598 147.51
L316.852 146.793
L316.931 146.63
L317.054 146.272
L317.6 144.48
L317.743 144.024
L317.891 143.535
L318.004 143.176
L318.111 142.851
L318.453 141.743
L318.637 141.287
L318.748 140.863
L318.843 140.57
L318.919 140.342
L319.226 139.169
L320.25 135.813
L320.372 135.357
L320.525 135.064
L320.816 133.989
L320.904 133.761
L321.067 133.337
L321.378 132.099
L321.638 130.959
L321.697 130.796
L321.885 130.373
L322.031 129.916
L322.138 129.395
L323.474 123.987
L323.614 123.628
L323.801 122.814
L324.061 122.065
L324.668 119.784
L324.784 119.491
L324.998 118.644
L325.061 118.318
L325.167 117.862
L325.567 116.461
L325.703 115.809
L325.939 114.995
L326.15 113.822
L326.542 112.095
L326.733 111.183
L327.07 109.717
L327.273 108.739
L327.533 107.469
L327.632 107.208
L328.152 105.188
L328.288 104.569
L328.544 103.722
L328.647 103.233
L328.802 102.517
L328.858 102.191
L329.759 98.4116
L329.985 97.5645
L330.25 96.5219
L330.318 96.3265
L330.509 95.5445
L330.725 94.502
L330.854 94.0133
L330.968 93.3943
L331.104 92.7427
L331.354 91.7001
L331.573 90.7553
L332.183 88.1163
L332.346 87.6928
L332.444 87.4973
L333.129 84.4673
L333.254 83.9786
L333.492 82.9035
L333.586 82.5125
L333.917 81.1116
L333.968 80.7206
L334.104 80.2971
L334.176 79.9713
L334.334 79.0916
L334.836 76.8762
L335.002 76.192
L338.023 64.0071
L338.101 63.8116
L338.222 63.2252
L339.98 57.5563
L340.038 57.3282
L340.214 56.644
L340.31 56.3508
L340.408 55.9273
L340.566 55.4711
L340.804 54.7218
L341.112 53.8096
L341.227 53.4512
L341.504 52.1806
L341.734 51.7244
L341.898 51.2683
L341.961 51.0077
L342.245 50.1606
L342.432 49.7371
L342.89 48.4664
L343.15 47.9452
L343.272 47.4239
L343.913 45.4039
L344.063 44.8501
L344.38 44.0356
L344.497 43.3514
L344.531 43.0907
L344.648 42.7649
L344.921 41.983
L345.016 41.5921
L345.21 41.3314
L345.426 40.745
L345.592 40.4843
L345.853 39.8002
L347.453 36.1186
L347.594 35.9557
L347.92 35.3693
L348.581 33.9032
L348.69 33.5122
L349.174 32.5348
L349.267 32.3719
L349.728 31.5248
L349.911 31.2316
L350.045 30.971
L350.424 30.3845
L350.663 30.1891
L351.131 29.4723
L351.226 29.2768
L351.372 29.0813
L351.941 28.1365
L351.999 28.0062
L352.259 27.7456
L352.379 27.4198
L352.573 27.1917
L353.316 26.5075
L353.43 26.2795
L353.59 25.9537
L353.754 25.5627
L353.869 25.4324
L354.012 25.2043
L354.134 25.074
L354.37 24.8459
L354.487 24.6505
L354.671 24.3247
L354.958 23.836
L355.048 23.7056
L355.216 23.445
L355.323 23.3473
L355.808 22.6631
L356.302 22.5328
L356.52 22.2721
L356.865 22.0441
L357.44 21.4902
L357.579 21.3599
L357.815 21.1644
L358.033 21.0341
L358.236 20.806
L358.748 20.3825
L359.041 20.2196
L359.215 19.9915
L360.534 19.1444
L361.624 18.5254
L361.71 18.3299
L364.63 17.2874
L364.811 17.1245
L365.487 16.9616
L365.943 16.7987
L366.387 16.6684
L368.242 16.4077
L369.609 16.1145
L372.713 15.691
L374.885 15.5606
L374.948 15.4955
L386.859 15.3326
L386.859 15.3326" style="fill:none;stroke:#0000ff;stroke-linecap:square;"/>
   </g>
   <g id="line2d_43">
    <path clip-path="url(#p44efea1c73)" d="
M300.294 178.2
L300.294 15.3" style="fill:none;stroke:#0000ff;stroke-dasharray:6.000000,6.000000;stroke-dashoffset:0.0;"/>
   </g>
   <g id="line2d_44">
    <path clip-path="url(#p44efea1c73)" d="
M360.135 178.2
L360.135 15.3" style="fill:none;stroke:#0000ff;stroke-dasharray:6.000000,6.000000;stroke-dashoffset:0.0;"/>
   </g>
   <g id="patch_8">
    <path d="
M257.367 15.3
L412.908 15.3" style="fill:none;stroke:#000000;stroke-linecap:square;stroke-linejoin:miter;"/>
   </g>
   <g id="patch_9">
    <path d="
M412.908 178.2
L412.908 15.3" style="fill:none;stroke:#000000;stroke-linecap:square;stroke-linejoin:miter;"/>
   </g>
   <g id="patch_10">
    <path d="
M257.367 178.2
L412.908 178.2" style="fill:none;stroke:#000000;stroke-linecap:square;stroke-linejoin:miter;"/>
   </g>
   <g id="patch_11">
    <path d="
M257.367 178.2
L257.367 15.3" style="fill:none;stroke:#000000;stroke-linecap:square;stroke-linejoin:miter;"/>
   </g>
   <g id="matplotlib.axis_3">
    <g id="xtick_11">
     <g id="line2d_45">
      <g>
       <use style="stroke:#000000;stroke-width:0.5;" x="257.3671875" xlink:href="#m93b0483c22" y="178.2"/>
      </g>
     </g>
     <g id="line2d_46">
      <g>
       <use style="stroke:#000000;stroke-width:0.5;" x="257.3671875" xlink:href="#m741efc42ff" y="15.3"/>
      </g>
     </g>
     <g id="text_19">
      <!-- −0.35 -->
      <defs>
       <path d="
M40.5781 39.3125
Q47.6562 37.7969 51.625 33
Q55.6094 28.2188 55.6094 21.1875
Q55.6094 10.4062 48.1875 4.48438
Q40.7656 -1.42188 27.0938 -1.42188
Q22.5156 -1.42188 17.6562 -0.515625
Q12.7969 0.390625 7.625 2.20312
L7.625 11.7188
Q11.7188 9.32812 16.5938 8.10938
Q21.4844 6.89062 26.8125 6.89062
Q36.0781 6.89062 40.9375 10.5469
Q45.7969 14.2031 45.7969 21.1875
Q45.7969 27.6406 41.2812 31.2656
Q36.7656 34.9062 28.7188 34.9062
L20.2188 34.9062
L20.2188 43.0156
L29.1094 43.0156
Q36.375 43.0156 40.2344 45.9219
Q44.0938 48.8281 44.0938 54.2969
Q44.0938 59.9062 40.1094 62.9062
Q36.1406 65.9219 28.7188 65.9219
Q24.6562 65.9219 20.0156 65.0312
Q15.375 64.1562 9.8125 62.3125
L9.8125 71.0938
Q15.4375 72.6562 20.3438 73.4375
Q25.25 74.2188 29.5938 74.2188
Q40.8281 74.2188 47.3594 69.1094
Q53.9062 64.0156 53.9062 55.3281
Q53.9062 49.2656 50.4375 45.0938
Q46.9688 40.9219 40.5781 39.3125" id="BitstreamVeraSans-Roman-33"/>
      </defs>
      <g transform="translate(243.0109375 189.7984375)scale(0.1 -0.1)">
       <use xlink:href="#BitstreamVeraSans-Roman-2212"/>
       <use x="83.7890625" xlink:href="#BitstreamVeraSans-Roman-30"/>
       <use x="147.412109375" xlink:href="#BitstreamVeraSans-Roman-2e"/>
       <use x="179.19921875" xlink:href="#BitstreamVeraSans-Roman-33"/>
       <use x="242.822265625" xlink:href="#BitstreamVeraSans-Roman-35"/>
      </g>
     </g>
    </g>
    <g id="xtick_12">
     <g id="line2d_47">
      <g>
       <use style="stroke:#000000;stroke-width:0.5;" x="288.4753125" xlink:href="#m93b0483c22" y="178.2"/>
      </g>
     </g>
     <g id="line2d_48">
      <g>
       <use style="stroke:#000000;stroke-width:0.5;" x="288.4753125" xlink:href="#m741efc42ff" y="15.3"/>
      </g>
     </g>
     <g id="text_20">
      <!-- −0.30 -->
      <g transform="translate(274.014375 189.7984375)scale(0.1 -0.1)">
       <use xlink:href="#BitstreamVeraSans-Roman-2212"/>
       <use x="83.7890625" xlink:href="#BitstreamVeraSans-Roman-30"/>
       <use x="147.412109375" xlink:href="#BitstreamVeraSans-Roman-2e"/>
       <use x="179.19921875" xlink:href="#BitstreamVeraSans-Roman-33"/>
       <use x="242.822265625" xlink:href="#BitstreamVeraSans-Roman-30"/>
      </g>
     </g>
    </g>
    <g id="xtick_13">
     <g id="line2d_49">
      <g>
       <use style="stroke:#000000;stroke-width:0.5;" x="319.5834375" xlink:href="#m93b0483c22" y="178.2"/>
      </g>
     </g>
     <g id="line2d_50">
      <g>
       <use style="stroke:#000000;stroke-width:0.5;" x="319.5834375" xlink:href="#m741efc42ff" y="15.3"/>
      </g>
     </g>
     <g id="text_21">
      <!-- −0.25 -->
      <g transform="translate(305.2271875 189.7984375)scale(0.1 -0.1)">
       <use xlink:href="#BitstreamVeraSans-Roman-2212"/>
       <use x="83.7890625" xlink:href="#BitstreamVeraSans-Roman-30"/>
       <use x="147.412109375" xlink:href="#BitstreamVeraSans-Roman-2e"/>
       <use x="179.19921875" xlink:href="#BitstreamVeraSans-Roman-32"/>
       <use x="242.822265625" xlink:href="#BitstreamVeraSans-Roman-35"/>
      </g>
     </g>
    </g>
    <g id="xtick_14">
     <g id="line2d_51">
      <g>
       <use style="stroke:#000000;stroke-width:0.5;" x="350.6915625" xlink:href="#m93b0483c22" y="178.2"/>
      </g>
     </g>
     <g id="line2d_52">
      <g>
       <use style="stroke:#000000;stroke-width:0.5;" x="350.6915625" xlink:href="#m741efc42ff" y="15.3"/>
      </g>
     </g>
     <g id="text_22">
      <!-- −0.20 -->
      <g transform="translate(336.230625 189.7984375)scale(0.1 -0.1)">
       <use xlink:href="#BitstreamVeraSans-Roman-2212"/>
       <use x="83.7890625" xlink:href="#BitstreamVeraSans-Roman-30"/>
       <use x="147.412109375" xlink:href="#BitstreamVeraSans-Roman-2e"/>
       <use x="179.19921875" xlink:href="#BitstreamVeraSans-Roman-32"/>
       <use x="242.822265625" xlink:href="#BitstreamVeraSans-Roman-30"/>
      </g>
     </g>
    </g>
    <g id="xtick_15">
     <g id="line2d_53">
      <g>
       <use style="stroke:#000000;stroke-width:0.5;" x="381.7996875" xlink:href="#m93b0483c22" y="178.2"/>
      </g>
     </g>
     <g id="line2d_54">
      <g>
       <use style="stroke:#000000;stroke-width:0.5;" x="381.7996875" xlink:href="#m741efc42ff" y="15.3"/>
      </g>
     </g>
     <g id="text_23">
      <!-- −0.15 -->
      <g transform="translate(367.4434375 189.7984375)scale(0.1 -0.1)">
       <use xlink:href="#BitstreamVeraSans-Roman-2212"/>
       <use x="83.7890625" xlink:href="#BitstreamVeraSans-Roman-30"/>
       <use x="147.412109375" xlink:href="#BitstreamVeraSans-Roman-2e"/>
       <use x="179.19921875" xlink:href="#BitstreamVeraSans-Roman-31"/>
       <use x="242.822265625" xlink:href="#BitstreamVeraSans-Roman-35"/>
      </g>
     </g>
    </g>
    <g id="xtick_16">
     <g id="line2d_55">
      <g>
       <use style="stroke:#000000;stroke-width:0.5;" x="412.9078125" xlink:href="#m93b0483c22" y="178.2"/>
      </g>
     </g>
     <g id="line2d_56">
      <g>
       <use style="stroke:#000000;stroke-width:0.5;" x="412.9078125" xlink:href="#m741efc42ff" y="15.3"/>
      </g>
     </g>
     <g id="text_24">
      <!-- −0.10 -->
      <g transform="translate(398.446875 189.7984375)scale(0.1 -0.1)">
       <use xlink:href="#BitstreamVeraSans-Roman-2212"/>
       <use x="83.7890625" xlink:href="#BitstreamVeraSans-Roman-30"/>
       <use x="147.412109375" xlink:href="#BitstreamVeraSans-Roman-2e"/>
       <use x="179.19921875" xlink:href="#BitstreamVeraSans-Roman-31"/>
       <use x="242.822265625" xlink:href="#BitstreamVeraSans-Roman-30"/>
      </g>
     </g>
    </g>
    <g id="text_25">
     <!-- Y component -->
     <defs>
      <path d="
M-0.203125 72.9062
L10.4062 72.9062
L30.6094 42.9219
L50.6875 72.9062
L61.2812 72.9062
L35.5 34.7188
L35.5 0
L25.5938 0
L25.5938 34.7188
z
" id="BitstreamVeraSans-Roman-59"/>
     </defs>
     <g transform="translate(302.3171875 204.4765625)scale(0.1 -0.1)">
      <use xlink:href="#BitstreamVeraSans-Roman-59"/>
      <use x="61.083984375" xlink:href="#BitstreamVeraSans-Roman-20"/>
      <use x="92.87109375" xlink:href="#BitstreamVeraSans-Roman-63"/>
      <use x="147.8515625" xlink:href="#BitstreamVeraSans-Roman-6f"/>
      <use x="209.033203125" xlink:href="#BitstreamVeraSans-Roman-6d"/>
      <use x="306.4453125" xlink:href="#BitstreamVeraSans-Roman-70"/>
      <use x="369.921875" xlink:href="#BitstreamVeraSans-Roman-6f"/>
      <use x="431.103515625" xlink:href="#BitstreamVeraSans-Roman-6e"/>
      <use x="494.482421875" xlink:href="#BitstreamVeraSans-Roman-65"/>
      <use x="556.005859375" xlink:href="#BitstreamVeraSans-Roman-6e"/>
      <use x="619.384765625" xlink:href="#BitstreamVeraSans-Roman-74"/>
     </g>
    </g>
   </g>
   <g id="matplotlib.axis_4">
    <g id="ytick_7">
     <g id="line2d_57">
      <g>
       <use style="stroke:#000000;stroke-width:0.5;" x="257.3671875" xlink:href="#m728421d6d4" y="178.2"/>
      </g>
     </g>
     <g id="line2d_58">
      <g>
       <use style="stroke:#000000;stroke-width:0.5;" x="412.9078125" xlink:href="#mcb0005524f" y="178.2"/>
      </g>
     </g>
     <g id="text_26">
      <!-- 0.0 -->
      <g transform="translate(238.7875 180.959375)scale(0.1 -0.1)">
       <use xlink:href="#BitstreamVeraSans-Roman-30"/>
       <use x="63.623046875" xlink:href="#BitstreamVeraSans-Roman-2e"/>
       <use x="95.41015625" xlink:href="#BitstreamVeraSans-Roman-30"/>
      </g>
     </g>
    </g>
    <g id="ytick_8">
     <g id="line2d_59">
      <g>
       <use style="stroke:#000000;stroke-width:0.5;" x="257.3671875" xlink:href="#m728421d6d4" y="145.62"/>
      </g>
     </g>
     <g id="line2d_60">
      <g>
       <use style="stroke:#000000;stroke-width:0.5;" x="412.9078125" xlink:href="#mcb0005524f" y="145.62"/>
      </g>
     </g>
     <g id="text_27">
      <!-- 0.2 -->
      <g transform="translate(239.125 148.379375)scale(0.1 -0.1)">
       <use xlink:href="#BitstreamVeraSans-Roman-30"/>
       <use x="63.623046875" xlink:href="#BitstreamVeraSans-Roman-2e"/>
       <use x="95.41015625" xlink:href="#BitstreamVeraSans-Roman-32"/>
      </g>
     </g>
    </g>
    <g id="ytick_9">
     <g id="line2d_61">
      <g>
       <use style="stroke:#000000;stroke-width:0.5;" x="257.3671875" xlink:href="#m728421d6d4" y="113.04"/>
      </g>
     </g>
     <g id="line2d_62">
      <g>
       <use style="stroke:#000000;stroke-width:0.5;" x="412.9078125" xlink:href="#mcb0005524f" y="113.04"/>
      </g>
     </g>
     <g id="text_28">
      <!-- 0.4 -->
      <g transform="translate(238.684375 115.799375)scale(0.1 -0.1)">
       <use xlink:href="#BitstreamVeraSans-Roman-30"/>
       <use x="63.623046875" xlink:href="#BitstreamVeraSans-Roman-2e"/>
       <use x="95.41015625" xlink:href="#BitstreamVeraSans-Roman-34"/>
      </g>
     </g>
    </g>
    <g id="ytick_10">
     <g id="line2d_63">
      <g>
       <use style="stroke:#000000;stroke-width:0.5;" x="257.3671875" xlink:href="#m728421d6d4" y="80.46"/>
      </g>
     </g>
     <g id="line2d_64">
      <g>
       <use style="stroke:#000000;stroke-width:0.5;" x="412.9078125" xlink:href="#mcb0005524f" y="80.46"/>
      </g>
     </g>
     <g id="text_29">
      <!-- 0.6 -->
      <g transform="translate(238.753125 83.219375)scale(0.1 -0.1)">
       <use xlink:href="#BitstreamVeraSans-Roman-30"/>
       <use x="63.623046875" xlink:href="#BitstreamVeraSans-Roman-2e"/>
       <use x="95.41015625" xlink:href="#BitstreamVeraSans-Roman-36"/>
      </g>
     </g>
    </g>
    <g id="ytick_11">
     <g id="line2d_65">
      <g>
       <use style="stroke:#000000;stroke-width:0.5;" x="257.3671875" xlink:href="#m728421d6d4" y="47.88"/>
      </g>
     </g>
     <g id="line2d_66">
      <g>
       <use style="stroke:#000000;stroke-width:0.5;" x="412.9078125" xlink:href="#mcb0005524f" y="47.88"/>
      </g>
     </g>
     <g id="text_30">
      <!-- 0.8 -->
      <g transform="translate(238.8078125 50.639375)scale(0.1 -0.1)">
       <use xlink:href="#BitstreamVeraSans-Roman-30"/>
       <use x="63.623046875" xlink:href="#BitstreamVeraSans-Roman-2e"/>
       <use x="95.41015625" xlink:href="#BitstreamVeraSans-Roman-38"/>
      </g>
     </g>
    </g>
    <g id="ytick_12">
     <g id="line2d_67">
      <g>
       <use style="stroke:#000000;stroke-width:0.5;" x="257.3671875" xlink:href="#m728421d6d4" y="15.3"/>
      </g>
     </g>
     <g id="line2d_68">
      <g>
       <use style="stroke:#000000;stroke-width:0.5;" x="412.9078125" xlink:href="#mcb0005524f" y="15.3"/>
      </g>
     </g>
     <g id="text_31">
      <!-- 1.0 -->
      <g transform="translate(239.2265625 18.059375)scale(0.1 -0.1)">
       <use xlink:href="#BitstreamVeraSans-Roman-31"/>
       <use x="63.623046875" xlink:href="#BitstreamVeraSans-Roman-2e"/>
       <use x="95.41015625" xlink:href="#BitstreamVeraSans-Roman-30"/>
      </g>
     </g>
    </g>
    <g id="text_32">
     <!-- Cumulative Distribution -->
     <g transform="translate(231.6046875 155.62109375)rotate(-90.0)scale(0.1 -0.1)">
      <use xlink:href="#BitstreamVeraSans-Roman-43"/>
      <use x="69.82421875" xlink:href="#BitstreamVeraSans-Roman-75"/>
      <use x="133.203125" xlink:href="#BitstreamVeraSans-Roman-6d"/>
      <use x="230.615234375" xlink:href="#BitstreamVeraSans-Roman-75"/>
      <use x="293.994140625" xlink:href="#BitstreamVeraSans-Roman-6c"/>
      <use x="321.77734375" xlink:href="#BitstreamVeraSans-Roman-61"/>
      <use x="383.056640625" xlink:href="#BitstreamVeraSans-Roman-74"/>
      <use x="422.265625" xlink:href="#BitstreamVeraSans-Roman-69"/>
      <use x="450.048828125" xlink:href="#BitstreamVeraSans-Roman-76"/>
      <use x="509.228515625" xlink:href="#BitstreamVeraSans-Roman-65"/>
      <use x="570.751953125" xlink:href="#BitstreamVeraSans-Roman-20"/>
      <use x="602.5390625" xlink:href="#BitstreamVeraSans-Roman-44"/>
      <use x="679.541015625" xlink:href="#BitstreamVeraSans-Roman-69"/>
      <use x="707.32421875" xlink:href="#BitstreamVeraSans-Roman-73"/>
      <use x="759.423828125" xlink:href="#BitstreamVeraSans-Roman-74"/>
      <use x="798.6328125" xlink:href="#BitstreamVeraSans-Roman-72"/>
      <use x="839.74609375" xlink:href="#BitstreamVeraSans-Roman-69"/>
      <use x="867.529296875" xlink:href="#BitstreamVeraSans-Roman-62"/>
      <use x="931.005859375" xlink:href="#BitstreamVeraSans-Roman-75"/>
      <use x="994.384765625" xlink:href="#BitstreamVeraSans-Roman-74"/>
      <use x="1033.59375" xlink:href="#BitstreamVeraSans-Roman-69"/>
      <use x="1061.37695312" xlink:href="#BitstreamVeraSans-Roman-6f"/>
      <use x="1122.55859375" xlink:href="#BitstreamVeraSans-Roman-6e"/>
     </g>
    </g>
   </g>
  </g>
  <g id="axes_3">
   <g id="patch_12">
    <path d="
M471.112 178.2
L626.653 178.2
L626.653 15.3
L471.112 15.3
z
" style="fill:#ffffff;"/>
   </g>
   <g id="line2d_69">
    <path clip-path="url(#p0c4051fb73)" d="
M483.584 178.2
L499.046 178.167
L503.949 178.07
L507.572 177.907
L510.091 177.744
L510.605 177.581
L513.978 177.157
L514.191 176.995
L514.573 176.832
L514.592 176.799
L515.855 176.604
L516.64 176.245
L517.326 176.082
L517.355 176.05
L518.087 175.887
L518.173 175.789
L518.517 175.659
L519.713 175.366
L519.848 175.3
L520.453 174.877
L520.533 174.779
L522.669 173.965
L522.786 173.867
L523.102 173.737
L523.207 173.574
L523.812 173.28
L523.989 173.052
L524.676 172.661
L525.73 171.879
L526.073 171.684
L527.718 169.99
L527.909 169.729
L528.106 169.534
L529.071 168.426
L529.416 167.742
L529.607 167.579
L529.837 167.221
L530.051 166.992
L530.419 166.373
L530.651 166.178
L531.301 165.201
L531.503 164.712
L531.615 164.516
L531.727 164.288
L532.622 162.887
L532.758 162.659
L533.09 161.845
L533.359 161.552
L534.569 159.076
L534.738 158.913
L534.895 158.685
L535.026 158.522
L535.123 158.424
L535.279 158.261
L535.44 157.87
L535.647 157.479
L535.958 156.86
L536.123 156.599
L536.291 156.241
L536.522 155.752
L536.718 155.166
L536.906 154.905
L537.049 154.612
L537.197 154.384
L537.657 153.244
L537.784 153.016
L537.917 152.755
L538.401 151.419
L538.677 150.702
L538.773 150.442
L539.1 150.018
L539.392 149.106
L539.579 148.878
L539.708 148.487
L539.859 148.129
L539.965 147.803
L540.102 147.51
L540.298 147.119
L540.405 146.891
L540.525 146.434
L540.654 146.011
L542.171 141.743
L542.284 141.352
L542.364 141.124
L542.505 140.798
L542.612 140.538
L542.838 139.918
L542.945 139.462
L543.248 138.615
L543.398 138.289
L543.569 137.768
L543.785 136.823
L543.874 136.595
L544.496 134.803
L544.667 134.054
L544.815 133.598
L544.929 132.914
L545.213 131.871
L545.365 131.285
L545.533 130.829
L545.667 130.535
L545.82 129.916
L545.938 129.428
L546.01 129.2
L546.133 128.581
L546.334 127.962
L546.892 125.974
L546.963 125.811
L547.079 125.323
L547.857 122.749
L547.97 122.195
L548.274 121.283
L548.542 120.305
L548.828 119.165
L548.945 118.774
L549.035 118.253
L549.106 118.057
L549.194 117.666
L549.284 117.471
L549.928 114.962
L549.998 114.734
L550.118 114.278
L550.265 113.659
L550.325 113.398
L553.007 103.233
L553.116 102.712
L553.424 101.767
L553.796 99.6496
L553.857 99.4541
L553.974 98.9329
L554.417 96.8803
L554.474 96.6848
L554.609 95.9355
L555.321 92.482
L555.405 92.1236
L555.574 91.4395
L555.656 91.1788
L555.818 90.3969
L555.895 90.1363
L556.115 89.3218
L556.235 88.7679
L557.361 84.2393
L558.231 80.46
L558.493 79.6129
L558.896 78.5052
L558.986 78.2446
L559.364 76.8762
L559.44 76.6807
L560.222 73.5856
L560.273 73.2924
L560.407 72.7385
L560.607 71.924
L560.669 71.6308
L560.807 71.1747
L561.044 70.4905
L561.167 70.0018
L561.729 67.7864
L561.857 67.4932
L562.669 64.4958
L562.744 64.3003
L562.903 63.3881
L564.532 57.8495
L564.593 57.654
L564.761 57.035
L564.889 56.5463
L565.115 55.3734
L565.219 55.1453
L567.237 48.9226
L567.327 48.7597
L567.601 47.8474
L567.735 47.489
L567.871 46.8374
L568.167 46.0555
L568.305 45.6971
L568.416 45.3713
L568.486 44.9804
L568.595 44.6872
L568.792 44.2636
L568.886 43.9052
L569.011 43.6446
L569.239 42.9604
L569.296 42.7649
L569.418 42.4391
L569.574 42.0808
L569.648 41.9179
L569.796 41.7224
L569.898 41.6246
L570.008 41.3314
L570.121 41.0056
L570.363 40.7776
L570.909 39.4092
L571.013 39.2463
L571.165 38.6273
L571.92 37.0634
L572.043 36.7376
L572.141 36.5096
L572.249 36.3467
L572.561 35.6299
L572.699 35.2715
L572.937 34.848
L573.116 34.6525
L573.239 34.3267
L573.731 33.61
L573.903 33.219
L574.46 32.4697
L574.947 31.4271
L575.224 31.0361
L575.828 29.6352
L575.978 29.4397
L577.162 27.1917
L577.281 27.0288
L577.476 26.6704
L577.799 26.2143
L578.039 25.8885
L578.147 25.7256
L578.548 25.2695
L579.148 24.5201
L579.516 24.2269
L579.679 24.0314
L579.952 23.7708
L580.138 23.4776
L580.657 22.6957
L580.994 22.5002
L581.051 22.3699
L581.345 22.1744
L582.548 20.9363
L582.861 20.7734
L583.154 20.4802
L583.696 20.3173
L583.752 20.2196
L584.217 19.9915
L584.313 19.8612
L584.393 19.796
L584.729 19.6657
L584.863 19.6006
L585.227 19.3073
L585.325 19.2096
L587.181 18.4928
L587.703 18.2974
L587.81 18.2322
L590.716 17.4177
L590.727 17.3851
L591.438 17.1571
L591.779 16.9616
L593.366 16.7661
L593.589 16.6032
L594.598 16.2774
L595.284 16.1145
L597.21 15.9516
L597.302 15.919
L603.04 15.5932
L609.282 15.3977
L609.742 15.3652
L616.056 15.3326
L616.056 15.3326" style="fill:none;stroke:#ff0000;stroke-linecap:square;"/>
   </g>
   <g id="line2d_70">
    <path clip-path="url(#p0c4051fb73)" d="
M522.433 178.2
L522.433 15.3" style="fill:none;stroke:#ff0000;stroke-linecap:square;"/>
   </g>
   <g id="line2d_71">
    <path clip-path="url(#p0c4051fb73)" d="
M585.12 178.2
L585.12 15.3" style="fill:none;stroke:#ff0000;stroke-linecap:square;"/>
   </g>
   <g id="line2d_72">
    <path clip-path="url(#p0c4051fb73)" d="
M497.999 178.2
L506.394 178.167
L508.73 178.07
L512.562 177.776
L514.385 177.614
L515.87 177.451
L515.871 177.418
L517.968 177.19
L519.633 176.929
L519.741 176.864
L520.115 176.701
L520.619 176.538
L521.366 176.376
L521.47 176.213
L521.6 176.082
L522.32 175.919
L522.502 175.789
L523.372 175.463
L523.407 175.398
L523.886 175.203
L524.516 174.909
L524.761 174.714
L525.784 174.388
L525.788 174.356
L526.328 174.16
L526.543 173.899
L526.656 173.737
L526.804 173.671
L527.131 173.508
L527.261 173.411
L527.538 173.215
L528.132 172.824
L528.412 172.629
L528.671 172.368
L529.172 172.075
L529.6 171.586
L529.791 171.456
L530.379 170.869
L530.614 170.609
L530.775 170.446
L531.198 169.99
L531.355 169.827
L531.576 169.338
L531.774 169.175
L531.808 169.078
L532.169 168.882
L532.252 168.784
L532.737 168.426
L533.074 168.068
L533.125 167.905
L533.222 167.742
L533.471 167.416
L533.69 167.221
L534.184 166.178
L534.318 166.015
L534.49 165.689
L535.798 164.093
L535.879 163.897
L536.1 163.734
L536.452 163.376
L536.558 163.148
L537.115 162.008
L537.268 161.78
L537.384 161.552
L537.495 161.356
L537.722 161.03
L537.817 160.737
L537.892 160.542
L538.573 158.75
L538.756 158.554
L538.88 158.163
L538.96 157.968
L539.352 156.893
L539.442 156.632
L539.627 156.274
L539.766 156.013
L540.001 155.589
L540.181 155.166
L540.377 154.873
L540.556 154.482
L541.293 152.722
L541.555 152.169
L541.669 151.778
L542.298 150.051
L542.561 149.171
L542.75 148.813
L542.903 148.617
L543.039 148.161
L543.705 146.434
L543.827 145.881
L543.963 145.685
L544.078 145.164
L544.86 142.981
L545.122 142.264
L545.321 141.613
L545.441 141.254
L545.666 140.766
L545.818 140.57
L545.999 139.984
L546.512 138.224
L546.702 137.54
L546.808 137.149
L547.162 135.683
L547.311 134.999
L547.9 132.718
L547.965 132.555
L548.165 131.871
L549.107 129.2
L549.193 128.972
L549.313 128.385
L549.44 128.027
L549.747 126.984
L549.856 126.789
L549.966 126.3
L550.112 125.844
L550.268 125.095
L550.428 124.15
L550.62 123.563
L550.714 123.303
L552.046 118.416
L552.18 117.797
L552.253 117.569
L552.491 116.331
L554.403 108.642
L554.536 108.055
L554.742 107.208
L555.342 105.025
L555.477 104.569
L555.903 102.484
L556.03 101.507
L556.124 100.888
L557.295 95.7726
L557.447 95.512
L557.754 94.1436
L557.92 93.5572
L558.339 91.7001
L558.43 91.4069
L558.489 91.1137
L559.312 87.367
L559.386 87.1063
L559.531 86.5525
L559.7 86.1615
L559.763 85.8031
L559.894 85.2493
L559.977 84.9886
L560.106 84.4999
L560.182 84.0764
L560.294 83.5225
L560.506 82.6429
L560.597 82.4148
L560.967 80.851
L561.221 79.7758
L561.38 79.1242
L561.478 78.831
L561.688 77.7884
L561.793 77.4952
L561.857 77.1368
L562.013 76.6481
L562.086 76.2246
L562.715 73.6508
L562.809 73.4879
L562.907 73.1947
L563.234 72.4127
L563.351 71.924
L563.586 71.0444
L563.754 70.3276
L563.957 69.6434
L563.998 69.3502
L564.107 68.8941
L564.327 68.1122
L564.888 65.4406
L564.981 64.5284
L565.066 64.3003
L565.175 63.6813
L565.24 63.5184
L565.354 62.8668
L565.472 62.6713
L565.679 61.9871
L565.815 61.6288
L566.512 58.9572
L566.65 58.5011
L566.766 58.0775
L566.849 57.8495
L567.079 56.9047
L567.273 56.6114
L567.486 55.8947
L567.596 55.6015
L567.721 55.1779
L567.88 54.5263
L567.993 54.1028
L568.103 53.8747
L568.922 51.529
L569.141 50.747
L569.374 50.0303
L569.492 49.7045
L569.877 48.2384
L569.938 48.0429
L570.372 46.87
L570.489 46.3813
L570.595 45.9252
L570.708 45.3713
L570.99 44.5568
L571.033 44.3614
L571.292 43.5794
L571.478 42.993
L571.67 42.4717
L571.784 42.0808
L572.051 41.4943
L572.138 41.2337
L572.283 41.0056
L572.395 40.5495
L572.644 40.126
L573.032 38.8228
L573.083 38.6273
L573.176 38.3015
L573.282 38.1386
L573.4 37.6499
L573.91 36.5096
L574.338 35.5648
L574.467 35.2064
L574.62 34.7503
L574.676 34.4896
L575.364 33.0561
L575.435 32.8932
L575.624 32.4045
L575.79 32.1439
L575.895 31.7855
L576.133 31.0036
L576.237 30.8081
L576.321 30.6452
L576.492 30.3194
L576.601 30.0587
L576.698 29.7329
L576.823 29.5375
L577.087 29.1791
L577.266 28.951
L577.424 28.6904
L577.953 27.8759
L578.144 27.4849
L578.356 27.322
L578.8 26.5401
L578.931 26.3446
L579.106 25.9211
L579.275 25.5301
L579.385 25.3672
L579.487 25.2695
L579.874 24.7482
L580.215 24.455
L580.952 23.3147
L581.414 23.054
L581.719 22.8586
L582.104 22.5653
L582.328 22.3373
L582.458 22.207
L582.551 22.0766
L582.901 21.6857
L583.112 21.3925
L583.498 21.0992
L583.591 20.9363
L583.845 20.7409
L583.918 20.6757
L584.239 20.5128
L584.263 20.4802
L584.735 20.2847
L584.933 20.0567
L585.004 19.9264
L585.619 19.6006
L585.901 19.4377
L586.799 19.0141
L586.817 18.9815
L587.585 18.7209
L587.744 18.6232
L588.365 18.2648
L588.641 18.1019
L592.223 16.538
L595.992 15.7887
L599.232 15.5281
L603.642 15.3652
L610.415 15.3326
L610.415 15.3326" style="fill:none;stroke:#0000ff;stroke-linecap:square;"/>
   </g>
   <g id="line2d_73">
    <path clip-path="url(#p0c4051fb73)" d="
M526.344 178.2
L526.344 15.3" style="fill:none;stroke:#0000ff;stroke-dasharray:6.000000,6.000000;stroke-dashoffset:0.0;"/>
   </g>
   <g id="line2d_74">
    <path clip-path="url(#p0c4051fb73)" d="
M586.062 178.2
L586.062 15.3" style="fill:none;stroke:#0000ff;stroke-dasharray:6.000000,6.000000;stroke-dashoffset:0.0;"/>
   </g>
   <g id="patch_13">
    <path d="
M471.112 15.3
L626.653 15.3" style="fill:none;stroke:#000000;stroke-linecap:square;stroke-linejoin:miter;"/>
   </g>
   <g id="patch_14">
    <path d="
M626.653 178.2
L626.653 15.3" style="fill:none;stroke:#000000;stroke-linecap:square;stroke-linejoin:miter;"/>
   </g>
   <g id="patch_15">
    <path d="
M471.112 178.2
L626.653 178.2" style="fill:none;stroke:#000000;stroke-linecap:square;stroke-linejoin:miter;"/>
   </g>
   <g id="patch_16">
    <path d="
M471.112 178.2
L471.112 15.3" style="fill:none;stroke:#000000;stroke-linecap:square;stroke-linejoin:miter;"/>
   </g>
   <g id="matplotlib.axis_5">
    <g id="xtick_17">
     <g id="line2d_75">
      <g>
       <use style="stroke:#000000;stroke-width:0.5;" x="471.1125" xlink:href="#m93b0483c22" y="178.2"/>
      </g>
     </g>
     <g id="line2d_76">
      <g>
       <use style="stroke:#000000;stroke-width:0.5;" x="471.1125" xlink:href="#m741efc42ff" y="15.3"/>
      </g>
     </g>
     <g id="text_33">
      <!-- 0.64 -->
      <g transform="translate(460.58984375 189.7984375)scale(0.1 -0.1)">
       <use xlink:href="#BitstreamVeraSans-Roman-30"/>
       <use x="63.623046875" xlink:href="#BitstreamVeraSans-Roman-2e"/>
       <use x="95.41015625" xlink:href="#BitstreamVeraSans-Roman-36"/>
       <use x="159.033203125" xlink:href="#BitstreamVeraSans-Roman-34"/>
      </g>
     </g>
    </g>
    <g id="xtick_18">
     <g id="line2d_77">
      <g>
       <use style="stroke:#000000;stroke-width:0.5;" x="490.555078125" xlink:href="#m93b0483c22" y="178.2"/>
      </g>
     </g>
     <g id="line2d_78">
      <g>
       <use style="stroke:#000000;stroke-width:0.5;" x="490.555078125" xlink:href="#m741efc42ff" y="15.3"/>
      </g>
     </g>
     <g id="text_34">
      <!-- 0.66 -->
      <g transform="translate(480.066796875 189.7984375)scale(0.1 -0.1)">
       <use xlink:href="#BitstreamVeraSans-Roman-30"/>
       <use x="63.623046875" xlink:href="#BitstreamVeraSans-Roman-2e"/>
       <use x="95.41015625" xlink:href="#BitstreamVeraSans-Roman-36"/>
       <use x="159.033203125" xlink:href="#BitstreamVeraSans-Roman-36"/>
      </g>
     </g>
    </g>
    <g id="xtick_19">
     <g id="line2d_79">
      <g>
       <use style="stroke:#000000;stroke-width:0.5;" x="509.99765625" xlink:href="#m93b0483c22" y="178.2"/>
      </g>
     </g>
     <g id="line2d_80">
      <g>
       <use style="stroke:#000000;stroke-width:0.5;" x="509.99765625" xlink:href="#m741efc42ff" y="15.3"/>
      </g>
     </g>
     <g id="text_35">
      <!-- 0.68 -->
      <g transform="translate(499.53671875 189.7984375)scale(0.1 -0.1)">
       <use xlink:href="#BitstreamVeraSans-Roman-30"/>
       <use x="63.623046875" xlink:href="#BitstreamVeraSans-Roman-2e"/>
       <use x="95.41015625" xlink:href="#BitstreamVeraSans-Roman-36"/>
       <use x="159.033203125" xlink:href="#BitstreamVeraSans-Roman-38"/>
      </g>
     </g>
    </g>
    <g id="xtick_20">
     <g id="line2d_81">
      <g>
       <use style="stroke:#000000;stroke-width:0.5;" x="529.440234375" xlink:href="#m93b0483c22" y="178.2"/>
      </g>
     </g>
     <g id="line2d_82">
      <g>
       <use style="stroke:#000000;stroke-width:0.5;" x="529.440234375" xlink:href="#m741efc42ff" y="15.3"/>
      </g>
     </g>
     <g id="text_36">
      <!-- 0.70 -->
      <g transform="translate(518.969140625 189.7984375)scale(0.1 -0.1)">
       <use xlink:href="#BitstreamVeraSans-Roman-30"/>
       <use x="63.623046875" xlink:href="#BitstreamVeraSans-Roman-2e"/>
       <use x="95.41015625" xlink:href="#BitstreamVeraSans-Roman-37"/>
       <use x="159.033203125" xlink:href="#BitstreamVeraSans-Roman-30"/>
      </g>
     </g>
    </g>
    <g id="xtick_21">
     <g id="line2d_83">
      <g>
       <use style="stroke:#000000;stroke-width:0.5;" x="548.8828125" xlink:href="#m93b0483c22" y="178.2"/>
      </g>
     </g>
     <g id="line2d_84">
      <g>
       <use style="stroke:#000000;stroke-width:0.5;" x="548.8828125" xlink:href="#m741efc42ff" y="15.3"/>
      </g>
     </g>
     <g id="text_37">
      <!-- 0.72 -->
      <g transform="translate(538.58046875 189.7984375)scale(0.1 -0.1)">
       <use xlink:href="#BitstreamVeraSans-Roman-30"/>
       <use x="63.623046875" xlink:href="#BitstreamVeraSans-Roman-2e"/>
       <use x="95.41015625" xlink:href="#BitstreamVeraSans-Roman-37"/>
       <use x="159.033203125" xlink:href="#BitstreamVeraSans-Roman-32"/>
      </g>
     </g>
    </g>
    <g id="xtick_22">
     <g id="line2d_85">
      <g>
       <use style="stroke:#000000;stroke-width:0.5;" x="568.325390625" xlink:href="#m93b0483c22" y="178.2"/>
      </g>
     </g>
     <g id="line2d_86">
      <g>
       <use style="stroke:#000000;stroke-width:0.5;" x="568.325390625" xlink:href="#m741efc42ff" y="15.3"/>
      </g>
     </g>
     <g id="text_38">
      <!-- 0.74 -->
      <g transform="translate(557.802734375 189.7984375)scale(0.1 -0.1)">
       <use xlink:href="#BitstreamVeraSans-Roman-30"/>
       <use x="63.623046875" xlink:href="#BitstreamVeraSans-Roman-2e"/>
       <use x="95.41015625" xlink:href="#BitstreamVeraSans-Roman-37"/>
       <use x="159.033203125" xlink:href="#BitstreamVeraSans-Roman-34"/>
      </g>
     </g>
    </g>
    <g id="xtick_23">
     <g id="line2d_87">
      <g>
       <use style="stroke:#000000;stroke-width:0.5;" x="587.76796875" xlink:href="#m93b0483c22" y="178.2"/>
      </g>
     </g>
     <g id="line2d_88">
      <g>
       <use style="stroke:#000000;stroke-width:0.5;" x="587.76796875" xlink:href="#m741efc42ff" y="15.3"/>
      </g>
     </g>
     <g id="text_39">
      <!-- 0.76 -->
      <g transform="translate(577.2796875 189.7984375)scale(0.1 -0.1)">
       <use xlink:href="#BitstreamVeraSans-Roman-30"/>
       <use x="63.623046875" xlink:href="#BitstreamVeraSans-Roman-2e"/>
       <use x="95.41015625" xlink:href="#BitstreamVeraSans-Roman-37"/>
       <use x="159.033203125" xlink:href="#BitstreamVeraSans-Roman-36"/>
      </g>
     </g>
    </g>
    <g id="xtick_24">
     <g id="line2d_89">
      <g>
       <use style="stroke:#000000;stroke-width:0.5;" x="607.210546875" xlink:href="#m93b0483c22" y="178.2"/>
      </g>
     </g>
     <g id="line2d_90">
      <g>
       <use style="stroke:#000000;stroke-width:0.5;" x="607.210546875" xlink:href="#m741efc42ff" y="15.3"/>
      </g>
     </g>
     <g id="text_40">
      <!-- 0.78 -->
      <g transform="translate(596.749609375 189.7984375)scale(0.1 -0.1)">
       <use xlink:href="#BitstreamVeraSans-Roman-30"/>
       <use x="63.623046875" xlink:href="#BitstreamVeraSans-Roman-2e"/>
       <use x="95.41015625" xlink:href="#BitstreamVeraSans-Roman-37"/>
       <use x="159.033203125" xlink:href="#BitstreamVeraSans-Roman-38"/>
      </g>
     </g>
    </g>
    <g id="xtick_25">
     <g id="line2d_91">
      <g>
       <use style="stroke:#000000;stroke-width:0.5;" x="626.653125" xlink:href="#m93b0483c22" y="178.2"/>
      </g>
     </g>
     <g id="line2d_92">
      <g>
       <use style="stroke:#000000;stroke-width:0.5;" x="626.653125" xlink:href="#m741efc42ff" y="15.3"/>
      </g>
     </g>
     <g id="text_41">
      <!-- 0.80 -->
      <g transform="translate(616.18203125 189.7984375)scale(0.1 -0.1)">
       <use xlink:href="#BitstreamVeraSans-Roman-30"/>
       <use x="63.623046875" xlink:href="#BitstreamVeraSans-Roman-2e"/>
       <use x="95.41015625" xlink:href="#BitstreamVeraSans-Roman-38"/>
       <use x="159.033203125" xlink:href="#BitstreamVeraSans-Roman-30"/>
      </g>
     </g>
    </g>
    <g id="text_42">
     <!-- Z component -->
     <defs>
      <path d="
M5.60938 72.9062
L62.8906 72.9062
L62.8906 65.375
L16.7969 8.29688
L64.0156 8.29688
L64.0156 0
L4.5 0
L4.5 7.51562
L50.5938 64.5938
L5.60938 64.5938
z
" id="BitstreamVeraSans-Roman-5a"/>
     </defs>
     <g transform="translate(515.7015625 204.4765625)scale(0.1 -0.1)">
      <use xlink:href="#BitstreamVeraSans-Roman-5a"/>
      <use x="68.505859375" xlink:href="#BitstreamVeraSans-Roman-20"/>
      <use x="100.29296875" xlink:href="#BitstreamVeraSans-Roman-63"/>
      <use x="155.2734375" xlink:href="#BitstreamVeraSans-Roman-6f"/>
      <use x="216.455078125" xlink:href="#BitstreamVeraSans-Roman-6d"/>
      <use x="313.8671875" xlink:href="#BitstreamVeraSans-Roman-70"/>
      <use x="377.34375" xlink:href="#BitstreamVeraSans-Roman-6f"/>
      <use x="438.525390625" xlink:href="#BitstreamVeraSans-Roman-6e"/>
      <use x="501.904296875" xlink:href="#BitstreamVeraSans-Roman-65"/>
      <use x="563.427734375" xlink:href="#BitstreamVeraSans-Roman-6e"/>
      <use x="626.806640625" xlink:href="#BitstreamVeraSans-Roman-74"/>
     </g>
    </g>
   </g>
   <g id="matplotlib.axis_6">
    <g id="ytick_13">
     <g id="line2d_93">
      <g>
       <use style="stroke:#000000;stroke-width:0.5;" x="471.1125" xlink:href="#m728421d6d4" y="178.2"/>
      </g>
     </g>
     <g id="line2d_94">
      <g>
       <use style="stroke:#000000;stroke-width:0.5;" x="626.653125" xlink:href="#mcb0005524f" y="178.2"/>
      </g>
     </g>
     <g id="text_43">
      <!-- 0.0 -->
      <g transform="translate(452.5328125 180.959375)scale(0.1 -0.1)">
       <use xlink:href="#BitstreamVeraSans-Roman-30"/>
       <use x="63.623046875" xlink:href="#BitstreamVeraSans-Roman-2e"/>
       <use x="95.41015625" xlink:href="#BitstreamVeraSans-Roman-30"/>
      </g>
     </g>
    </g>
    <g id="ytick_14">
     <g id="line2d_95">
      <g>
       <use style="stroke:#000000;stroke-width:0.5;" x="471.1125" xlink:href="#m728421d6d4" y="145.62"/>
      </g>
     </g>
     <g id="line2d_96">
      <g>
       <use style="stroke:#000000;stroke-width:0.5;" x="626.653125" xlink:href="#mcb0005524f" y="145.62"/>
      </g>
     </g>
     <g id="text_44">
      <!-- 0.2 -->
      <g transform="translate(452.8703125 148.379375)scale(0.1 -0.1)">
       <use xlink:href="#BitstreamVeraSans-Roman-30"/>
       <use x="63.623046875" xlink:href="#BitstreamVeraSans-Roman-2e"/>
       <use x="95.41015625" xlink:href="#BitstreamVeraSans-Roman-32"/>
      </g>
     </g>
    </g>
    <g id="ytick_15">
     <g id="line2d_97">
      <g>
       <use style="stroke:#000000;stroke-width:0.5;" x="471.1125" xlink:href="#m728421d6d4" y="113.04"/>
      </g>
     </g>
     <g id="line2d_98">
      <g>
       <use style="stroke:#000000;stroke-width:0.5;" x="626.653125" xlink:href="#mcb0005524f" y="113.04"/>
      </g>
     </g>
     <g id="text_45">
      <!-- 0.4 -->
      <g transform="translate(452.4296875 115.799375)scale(0.1 -0.1)">
       <use xlink:href="#BitstreamVeraSans-Roman-30"/>
       <use x="63.623046875" xlink:href="#BitstreamVeraSans-Roman-2e"/>
       <use x="95.41015625" xlink:href="#BitstreamVeraSans-Roman-34"/>
      </g>
     </g>
    </g>
    <g id="ytick_16">
     <g id="line2d_99">
      <g>
       <use style="stroke:#000000;stroke-width:0.5;" x="471.1125" xlink:href="#m728421d6d4" y="80.46"/>
      </g>
     </g>
     <g id="line2d_100">
      <g>
       <use style="stroke:#000000;stroke-width:0.5;" x="626.653125" xlink:href="#mcb0005524f" y="80.46"/>
      </g>
     </g>
     <g id="text_46">
      <!-- 0.6 -->
      <g transform="translate(452.4984375 83.219375)scale(0.1 -0.1)">
       <use xlink:href="#BitstreamVeraSans-Roman-30"/>
       <use x="63.623046875" xlink:href="#BitstreamVeraSans-Roman-2e"/>
       <use x="95.41015625" xlink:href="#BitstreamVeraSans-Roman-36"/>
      </g>
     </g>
    </g>
    <g id="ytick_17">
     <g id="line2d_101">
      <g>
       <use style="stroke:#000000;stroke-width:0.5;" x="471.1125" xlink:href="#m728421d6d4" y="47.88"/>
      </g>
     </g>
     <g id="line2d_102">
      <g>
       <use style="stroke:#000000;stroke-width:0.5;" x="626.653125" xlink:href="#mcb0005524f" y="47.88"/>
      </g>
     </g>
     <g id="text_47">
      <!-- 0.8 -->
      <g transform="translate(452.553125 50.639375)scale(0.1 -0.1)">
       <use xlink:href="#BitstreamVeraSans-Roman-30"/>
       <use x="63.623046875" xlink:href="#BitstreamVeraSans-Roman-2e"/>
       <use x="95.41015625" xlink:href="#BitstreamVeraSans-Roman-38"/>
      </g>
     </g>
    </g>
    <g id="ytick_18">
     <g id="line2d_103">
      <g>
       <use style="stroke:#000000;stroke-width:0.5;" x="471.1125" xlink:href="#m728421d6d4" y="15.3"/>
      </g>
     </g>
     <g id="line2d_104">
      <g>
       <use style="stroke:#000000;stroke-width:0.5;" x="626.653125" xlink:href="#mcb0005524f" y="15.3"/>
      </g>
     </g>
     <g id="text_48">
      <!-- 1.0 -->
      <g transform="translate(452.971875 18.059375)scale(0.1 -0.1)">
       <use xlink:href="#BitstreamVeraSans-Roman-31"/>
       <use x="63.623046875" xlink:href="#BitstreamVeraSans-Roman-2e"/>
       <use x="95.41015625" xlink:href="#BitstreamVeraSans-Roman-30"/>
      </g>
     </g>
    </g>
    <g id="text_49">
     <!-- Cumulative Distribution -->
     <g transform="translate(445.35 155.62109375)rotate(-90.0)scale(0.1 -0.1)">
      <use xlink:href="#BitstreamVeraSans-Roman-43"/>
      <use x="69.82421875" xlink:href="#BitstreamVeraSans-Roman-75"/>
      <use x="133.203125" xlink:href="#BitstreamVeraSans-Roman-6d"/>
      <use x="230.615234375" xlink:href="#BitstreamVeraSans-Roman-75"/>
      <use x="293.994140625" xlink:href="#BitstreamVeraSans-Roman-6c"/>
      <use x="321.77734375" xlink:href="#BitstreamVeraSans-Roman-61"/>
      <use x="383.056640625" xlink:href="#BitstreamVeraSans-Roman-74"/>
      <use x="422.265625" xlink:href="#BitstreamVeraSans-Roman-69"/>
      <use x="450.048828125" xlink:href="#BitstreamVeraSans-Roman-76"/>
      <use x="509.228515625" xlink:href="#BitstreamVeraSans-Roman-65"/>
      <use x="570.751953125" xlink:href="#BitstreamVeraSans-Roman-20"/>
      <use x="602.5390625" xlink:href="#BitstreamVeraSans-Roman-44"/>
      <use x="679.541015625" xlink:href="#BitstreamVeraSans-Roman-69"/>
      <use x="707.32421875" xlink:href="#BitstreamVeraSans-Roman-73"/>
      <use x="759.423828125" xlink:href="#BitstreamVeraSans-Roman-74"/>
      <use x="798.6328125" xlink:href="#BitstreamVeraSans-Roman-72"/>
      <use x="839.74609375" xlink:href="#BitstreamVeraSans-Roman-69"/>
      <use x="867.529296875" xlink:href="#BitstreamVeraSans-Roman-62"/>
      <use x="931.005859375" xlink:href="#BitstreamVeraSans-Roman-75"/>
      <use x="994.384765625" xlink:href="#BitstreamVeraSans-Roman-74"/>
      <use x="1033.59375" xlink:href="#BitstreamVeraSans-Roman-69"/>
      <use x="1061.37695312" xlink:href="#BitstreamVeraSans-Roman-6f"/>
      <use x="1122.55859375" xlink:href="#BitstreamVeraSans-Roman-6e"/>
     </g>
    </g>
   </g>
  </g>
 </g>
 <defs>
  <clipPath id="p44efea1c73">
   <rect height="162.9" width="155.540625" x="257.3671875" y="15.3"/>
  </clipPath>
  <clipPath id="p6c55c840d0">
   <rect height="162.9" width="155.540625" x="43.621875" y="15.3"/>
  </clipPath>
  <clipPath id="p0c4051fb73">
   <rect height="162.9" width="155.540625" x="471.1125" y="15.3"/>
  </clipPath>
 </defs>
</svg>
