<?xml version="1.0" encoding="utf-8" standalone="no"?>
<!DOCTYPE svg PUBLIC "-//W3C//DTD SVG 1.1//EN"
  "http://www.w3.org/Graphics/SVG/1.1/DTD/svg11.dtd">
<!-- Created with matplotlib (http://matplotlib.org/) -->
<svg height="360pt" version="1.1" viewBox="0 0 360 360" width="360pt" xmlns="http://www.w3.org/2000/svg" xmlns:xlink="http://www.w3.org/1999/xlink">
 <defs>
  <style type="text/css">
*{stroke-linecap:butt;stroke-linejoin:round;}
  </style>
 </defs>
 <g id="figure_1">
  <g id="patch_1">
   <path d="
M0 360
L360 360
L360 0
L0 0
z
" style="fill:#ffffff;"/>
  </g>
  <g id="axes_1">
   <g id="PathCollection_1">
    <defs>
     <path d="
M0 2.23607
C0.593012 2.23607 1.16182 2.00046 1.58114 1.58114
C2.00046 1.16182 2.23607 0.593012 2.23607 0
C2.23607 -0.593012 2.00046 -1.16182 1.58114 -1.58114
C1.16182 -2.00046 0.593012 -2.23607 0 -2.23607
C-0.593012 -2.23607 -1.16182 -2.00046 -1.58114 -1.58114
C-2.00046 -1.16182 -2.23607 -0.593012 -2.23607 0
C-2.23607 0.593012 -2.00046 1.16182 -1.58114 1.58114
C-1.16182 2.00046 -0.593012 2.23607 0 2.23607
z
" id="C0_0_919e3f95db"/>
    </defs>
    <g clip-path="url(#p5e01d0af3e)">
     <use style="fill:none;stroke:#ff0000;" x="307.127673801" xlink:href="#C0_0_919e3f95db" y="220.772846224"/>
    </g>
    <g clip-path="url(#p5e01d0af3e)">
     <use style="fill:none;stroke:#ff0000;" x="259.147909477" xlink:href="#C0_0_919e3f95db" y="218.629721612"/>
    </g>
    <g clip-path="url(#p5e01d0af3e)">
     <use style="fill:none;stroke:#ff0000;" x="238.261998149" xlink:href="#C0_0_919e3f95db" y="235.862888095"/>
    </g>
    <g clip-path="url(#p5e01d0af3e)">
     <use style="fill:none;stroke:#ff0000;" x="270.682518529" xlink:href="#C0_0_919e3f95db" y="219.874399911"/>
    </g>
    <g clip-path="url(#p5e01d0af3e)">
     <use style="fill:none;stroke:#ff0000;" x="294.887719648" xlink:href="#C0_0_919e3f95db" y="257.638832507"/>
    </g>
    <g clip-path="url(#p5e01d0af3e)">
     <use style="fill:none;stroke:#ff0000;" x="287.90551304" xlink:href="#C0_0_919e3f95db" y="201.813822897"/>
    </g>
    <g clip-path="url(#p5e01d0af3e)">
     <use style="fill:none;stroke:#ff0000;" x="306.72861994" xlink:href="#C0_0_919e3f95db" y="247.554616195"/>
    </g>
    <g clip-path="url(#p5e01d0af3e)">
     <use style="fill:none;stroke:#ff0000;" x="309.336504588" xlink:href="#C0_0_919e3f95db" y="258.853705506"/>
    </g>
    <g clip-path="url(#p5e01d0af3e)">
     <use style="fill:none;stroke:#ff0000;" x="281.478555447" xlink:href="#C0_0_919e3f95db" y="208.859051593"/>
    </g>
    <g clip-path="url(#p5e01d0af3e)">
     <use style="fill:none;stroke:#ff0000;" x="305.179085941" xlink:href="#C0_0_919e3f95db" y="231.853686292"/>
    </g>
    <g clip-path="url(#p5e01d0af3e)">
     <use style="fill:none;stroke:#ff0000;" x="322.827956847" xlink:href="#C0_0_919e3f95db" y="214.745877283"/>
    </g>
    <g clip-path="url(#p5e01d0af3e)">
     <use style="fill:none;stroke:#ff0000;" x="297.305840588" xlink:href="#C0_0_919e3f95db" y="190.119642239"/>
    </g>
    <g clip-path="url(#p5e01d0af3e)">
     <use style="fill:none;stroke:#ff0000;" x="262.639937056" xlink:href="#C0_0_919e3f95db" y="219.79221733"/>
    </g>
    <g clip-path="url(#p5e01d0af3e)">
     <use style="fill:none;stroke:#ff0000;" x="242.787681527" xlink:href="#C0_0_919e3f95db" y="218.073607129"/>
    </g>
    <g clip-path="url(#p5e01d0af3e)">
     <use style="fill:none;stroke:#ff0000;" x="259.831178981" xlink:href="#C0_0_919e3f95db" y="215.44239504"/>
    </g>
    <g clip-path="url(#p5e01d0af3e)">
     <use style="fill:none;stroke:#ff0000;" x="270.770914583" xlink:href="#C0_0_919e3f95db" y="188.239700178"/>
    </g>
    <g clip-path="url(#p5e01d0af3e)">
     <use style="fill:none;stroke:#ff0000;" x="283.035821236" xlink:href="#C0_0_919e3f95db" y="185.920973427"/>
    </g>
    <g clip-path="url(#p5e01d0af3e)">
     <use style="fill:none;stroke:#ff0000;" x="246.690696375" xlink:href="#C0_0_919e3f95db" y="206.889386059"/>
    </g>
    <g clip-path="url(#p5e01d0af3e)">
     <use style="fill:none;stroke:#ff0000;" x="292.300006972" xlink:href="#C0_0_919e3f95db" y="235.693888184"/>
    </g>
    <g clip-path="url(#p5e01d0af3e)">
     <use style="fill:none;stroke:#ff0000;" x="261.420229467" xlink:href="#C0_0_919e3f95db" y="232.345210399"/>
    </g>
    <g clip-path="url(#p5e01d0af3e)">
     <use style="fill:none;stroke:#ff0000;" x="241.714795123" xlink:href="#C0_0_919e3f95db" y="210.664780176"/>
    </g>
    <g clip-path="url(#p5e01d0af3e)">
     <use style="fill:none;stroke:#ff0000;" x="238.542544949" xlink:href="#C0_0_919e3f95db" y="202.006213391"/>
    </g>
    <g clip-path="url(#p5e01d0af3e)">
     <use style="fill:none;stroke:#ff0000;" x="250.016122701" xlink:href="#C0_0_919e3f95db" y="224.95403732"/>
    </g>
    <g clip-path="url(#p5e01d0af3e)">
     <use style="fill:none;stroke:#ff0000;" x="252.239718447" xlink:href="#C0_0_919e3f95db" y="221.600412548"/>
    </g>
    <g clip-path="url(#p5e01d0af3e)">
     <use style="fill:none;stroke:#ff0000;" x="219.018812315" xlink:href="#C0_0_919e3f95db" y="177.417420546"/>
    </g>
   </g>
   <g id="PathCollection_2">
    <defs>
     <path d="
M0 2.23607
C0.593012 2.23607 1.16182 2.00046 1.58114 1.58114
C2.00046 1.16182 2.23607 0.593012 2.23607 0
C2.23607 -0.593012 2.00046 -1.16182 1.58114 -1.58114
C1.16182 -2.00046 0.593012 -2.23607 0 -2.23607
C-0.593012 -2.23607 -1.16182 -2.00046 -1.58114 -1.58114
C-2.00046 -1.16182 -2.23607 -0.593012 -2.23607 0
C-2.23607 0.593012 -2.00046 1.16182 -1.58114 1.58114
C-1.16182 2.00046 -0.593012 2.23607 0 2.23607
z
" id="C1_0_919e3f95db"/>
    </defs>
    <g clip-path="url(#p5e01d0af3e)">
     <use style="fill:none;stroke:#0000ff;" x="271.840484632" xlink:href="#C1_0_919e3f95db" y="196.110536449"/>
    </g>
    <g clip-path="url(#p5e01d0af3e)">
     <use style="fill:none;stroke:#0000ff;" x="240.478890765" xlink:href="#C1_0_919e3f95db" y="190.430243572"/>
    </g>
    <g clip-path="url(#p5e01d0af3e)">
     <use style="fill:none;stroke:#0000ff;" x="222.374371542" xlink:href="#C1_0_919e3f95db" y="208.870658126"/>
    </g>
    <g clip-path="url(#p5e01d0af3e)">
     <use style="fill:none;stroke:#0000ff;" x="250.04893533" xlink:href="#C1_0_919e3f95db" y="194.093438704"/>
    </g>
    <g clip-path="url(#p5e01d0af3e)">
     <use style="fill:none;stroke:#0000ff;" x="260.459990379" xlink:href="#C1_0_919e3f95db" y="226.203415723"/>
    </g>
    <g clip-path="url(#p5e01d0af3e)">
     <use style="fill:none;stroke:#0000ff;" x="249.261810763" xlink:href="#C1_0_919e3f95db" y="171.844067808"/>
    </g>
    <g clip-path="url(#p5e01d0af3e)">
     <use style="fill:none;stroke:#0000ff;" x="258.05837594" xlink:href="#C1_0_919e3f95db" y="208.708193296"/>
    </g>
    <g clip-path="url(#p5e01d0af3e)">
     <use style="fill:none;stroke:#0000ff;" x="265.776687287" xlink:href="#C1_0_919e3f95db" y="230.176426889"/>
    </g>
    <g clip-path="url(#p5e01d0af3e)">
     <use style="fill:none;stroke:#0000ff;" x="252.000664375" xlink:href="#C1_0_919e3f95db" y="192.743210069"/>
    </g>
    <g clip-path="url(#p5e01d0af3e)">
     <use style="fill:none;stroke:#0000ff;" x="262.469300257" xlink:href="#C1_0_919e3f95db" y="210.953154725"/>
    </g>
    <g clip-path="url(#p5e01d0af3e)">
     <use style="fill:none;stroke:#0000ff;" x="255.383843065" xlink:href="#C1_0_919e3f95db" y="191.251323134"/>
    </g>
    <g clip-path="url(#p5e01d0af3e)">
     <use style="fill:none;stroke:#0000ff;" x="257.922142351" xlink:href="#C1_0_919e3f95db" y="177.667172641"/>
    </g>
    <g clip-path="url(#p5e01d0af3e)">
     <use style="fill:none;stroke:#0000ff;" x="253.230828839" xlink:href="#C1_0_919e3f95db" y="202.645297518"/>
    </g>
    <g clip-path="url(#p5e01d0af3e)">
     <use style="fill:none;stroke:#0000ff;" x="227.426116979" xlink:href="#C1_0_919e3f95db" y="203.787602914"/>
    </g>
    <g clip-path="url(#p5e01d0af3e)">
     <use style="fill:none;stroke:#0000ff;" x="246.873971443" xlink:href="#C1_0_919e3f95db" y="204.212237808"/>
    </g>
    <g clip-path="url(#p5e01d0af3e)">
     <use style="fill:none;stroke:#0000ff;" x="237.781775246" xlink:href="#C1_0_919e3f95db" y="176.833403047"/>
    </g>
    <g clip-path="url(#p5e01d0af3e)">
     <use style="fill:none;stroke:#0000ff;" x="250.845087091" xlink:href="#C1_0_919e3f95db" y="175.303077678"/>
    </g>
    <g clip-path="url(#p5e01d0af3e)">
     <use style="fill:none;stroke:#0000ff;" x="236.405150836" xlink:href="#C1_0_919e3f95db" y="192.896488462"/>
    </g>
    <g clip-path="url(#p5e01d0af3e)">
     <use style="fill:none;stroke:#0000ff;" x="271.952725338" xlink:href="#C1_0_919e3f95db" y="213.126986191"/>
    </g>
    <g clip-path="url(#p5e01d0af3e)">
     <use style="fill:none;stroke:#0000ff;" x="239.004707085" xlink:href="#C1_0_919e3f95db" y="206.962577781"/>
    </g>
    <g clip-path="url(#p5e01d0af3e)">
     <use style="fill:none;stroke:#0000ff;" x="218.607507587" xlink:href="#C1_0_919e3f95db" y="183.67734933"/>
    </g>
    <g clip-path="url(#p5e01d0af3e)">
     <use style="fill:none;stroke:#0000ff;" x="224.898784061" xlink:href="#C1_0_919e3f95db" y="190.658462492"/>
    </g>
    <g clip-path="url(#p5e01d0af3e)">
     <use style="fill:none;stroke:#0000ff;" x="240.987615423" xlink:href="#C1_0_919e3f95db" y="217.209253529"/>
    </g>
    <g clip-path="url(#p5e01d0af3e)">
     <use style="fill:none;stroke:#0000ff;" x="243.030391195" xlink:href="#C1_0_919e3f95db" y="213.7868051"/>
    </g>
    <g clip-path="url(#p5e01d0af3e)">
     <use style="fill:none;stroke:#0000ff;" x="210.697510224" xlink:href="#C1_0_919e3f95db" y="170.606191463"/>
    </g>
   </g>
   <g id="line2d_1">
    <path clip-path="url(#p5e01d0af3e)" d="
M193.377 25.3386
L195.967 25.3612
L198.556 25.4289
L203.729 25.6995
L208.889 26.1502
L214.03 26.7805
L219.147 27.5895
L224.231 28.5763
L229.279 29.7396
L234.282 31.0781
L239.236 32.5901
L244.133 34.2738
L248.969 36.1271
L253.738 38.1478
L258.432 40.3334
L263.048 42.6812
L267.578 45.1885
L272.018 47.852
L276.363 50.6686
L280.606 53.6349
L284.743 56.7472
L288.768 60.0018
L292.678 63.3946
L296.466 66.9216
L300.129 70.5784
L303.662 74.3607
L307.06 78.2637
L310.32 82.2827
L313.437 86.4129
L316.408 90.6492
L319.23 94.9864
L321.898 99.4193
L324.409 103.942
L326.761 108.55
L328.95 113.237
L330.974 117.998
L332.83 122.826
L334.516 127.716
L336.031 132.661
L337.372 137.657
L338.537 142.696
L339.525 147.772
L340.336 152.88
L340.967 158.013
L341.418 163.165
L341.689 168.329
L341.78 173.5
L341.689 178.671
L341.418 183.835
L340.967 188.987
L340.336 194.12
L339.525 199.228
L338.537 204.304
L337.372 209.343
L336.031 214.339
L334.516 219.284
L332.83 224.174
L330.974 229.002
L328.95 233.763
L326.761 238.45
L324.409 243.058
L321.898 247.581
L319.23 252.014
L316.408 256.351
L313.437 260.587
L310.32 264.717
L307.06 268.736
L303.662 272.639
L300.129 276.422
L296.466 280.078
L292.678 283.605
L288.768 286.998
L284.743 290.253
L280.606 293.365
L276.363 296.331
L272.018 299.148
L267.578 301.812
L263.048 304.319
L258.432 306.667
L253.738 308.852
L248.969 310.873
L244.133 312.726
L239.236 314.41
L234.282 315.922
L229.279 317.26
L224.231 318.424
L219.147 319.411
L214.03 320.22
L208.889 320.85
L203.729 321.3
L198.556 321.571
L193.377 321.661
L188.197 321.571
L183.024 321.3
L177.864 320.85
L172.723 320.22
L167.607 319.411
L162.522 318.424
L157.475 317.26
L152.471 315.922
L147.517 314.41
L142.62 312.726
L137.784 310.873
L133.016 308.852
L128.321 306.667
L123.705 304.319
L119.175 301.812
L114.735 299.148
L110.391 296.331
L106.147 293.365
L102.01 290.253
L97.9848 286.998
L94.0754 283.605
L90.287 280.078
L86.6242 276.422
L83.0914 272.639
L79.6931 268.736
L76.4332 264.717
L73.3158 260.587
L70.3447 256.351
L67.5234 252.014
L64.8556 247.581
L62.3442 243.058
L59.9926 238.45
L57.8034 233.763
L55.7794 229.002
L53.9231 224.174
L52.2367 219.284
L50.7222 214.339
L49.3815 209.343
L48.2163 204.304
L47.2279 199.228
L46.4175 194.12
L45.7863 188.987
L45.3348 183.835
L45.0637 178.671
L44.9733 173.5
L45.0637 168.329
L45.3348 163.165
L45.7863 158.013
L46.4175 152.88
L47.2279 147.772
L48.2163 142.696
L49.3815 137.657
L50.7222 132.661
L52.2367 127.716
L53.9231 122.826
L55.7794 117.998
L57.8034 113.237
L59.9926 108.55
L62.3442 103.942
L64.8556 99.4193
L67.5234 94.9864
L70.3447 90.6492
L73.3158 86.4129
L76.4332 82.2827
L79.6931 78.2637
L83.0914 74.3607
L86.6242 70.5784
L90.287 66.9216
L94.0754 63.3946
L97.9848 60.0018
L102.01 56.7472
L106.147 53.6349
L110.391 50.6686
L114.735 47.852
L119.175 45.1885
L123.705 42.6812
L128.321 40.3334
L133.016 38.1478
L137.784 36.1271
L142.62 34.2738
L147.517 32.5901
L152.471 31.0781
L157.475 29.7396
L162.522 28.5763
L167.607 27.5895
L172.723 26.7805
L177.864 26.1502
L183.024 25.6995
L188.197 25.4289
L193.377 25.3386
L193.377 25.3386" style="fill:none;stroke:#000000;stroke-linecap:square;"/>
   </g>
   <g id="line2d_2">
    <defs>
     <path d="
M-3 0
L3 0
M0 3
L0 -3" id="m9d0eee4805" style="stroke:#000000;stroke-width:0.5;"/>
    </defs>
    <g clip-path="url(#p5e01d0af3e)">
     <use style="stroke:#000000;stroke-width:0.5;" x="193.3765625" xlink:href="#m9d0eee4805" y="38.8155110064"/>
     <use style="stroke:#000000;stroke-width:0.5;" x="193.3765625" xlink:href="#m9d0eee4805" y="53.3174574859"/>
     <use style="stroke:#000000;stroke-width:0.5;" x="193.3765625" xlink:href="#m9d0eee4805" y="68.7340656821"/>
     <use style="stroke:#000000;stroke-width:0.5;" x="193.3765625" xlink:href="#m9d0eee4805" y="84.9480058979"/>
     <use style="stroke:#000000;stroke-width:0.5;" x="193.3765625" xlink:href="#m9d0eee4805" y="101.835880258"/>
     <use style="stroke:#000000;stroke-width:0.5;" x="193.3765625" xlink:href="#m9d0eee4805" y="119.269161841"/>
     <use style="stroke:#000000;stroke-width:0.5;" x="193.3765625" xlink:href="#m9d0eee4805" y="137.115172848"/>
     <use style="stroke:#000000;stroke-width:0.5;" x="193.3765625" xlink:href="#m9d0eee4805" y="155.23809436"/>
     <use style="stroke:#000000;stroke-width:0.5;" x="193.3765625" xlink:href="#m9d0eee4805" y="173.5"/>
    </g>
   </g>
   <g id="line2d_3">
    <g clip-path="url(#p5e01d0af3e)">
     <use style="stroke:#000000;stroke-width:0.5;" x="328.280919493" xlink:href="#m9d0eee4805" y="173.5"/>
     <use style="stroke:#000000;stroke-width:0.5;" x="313.755299063" xlink:href="#m9d0eee4805" y="173.5"/>
     <use style="stroke:#000000;stroke-width:0.5;" x="298.313523761" xlink:href="#m9d0eee4805" y="173.5"/>
     <use style="stroke:#000000;stroke-width:0.5;" x="282.073114821" xlink:href="#m9d0eee4805" y="173.5"/>
     <use style="stroke:#000000;stroke-width:0.5;" x="265.157671561" xlink:href="#m9d0eee4805" y="173.5"/>
     <use style="stroke:#000000;stroke-width:0.5;" x="247.695930719" xlink:href="#m9d0eee4805" y="173.5"/>
     <use style="stroke:#000000;stroke-width:0.5;" x="229.820786686" xlink:href="#m9d0eee4805" y="173.5"/>
     <use style="stroke:#000000;stroke-width:0.5;" x="211.668280101" xlink:href="#m9d0eee4805" y="173.5"/>
    </g>
   </g>
   <g id="line2d_4">
    <g clip-path="url(#p5e01d0af3e)">
     <use style="stroke:#000000;stroke-width:0.5;" x="193.3765625" xlink:href="#m9d0eee4805" y="308.184488994"/>
     <use style="stroke:#000000;stroke-width:0.5;" x="193.3765625" xlink:href="#m9d0eee4805" y="293.682542514"/>
     <use style="stroke:#000000;stroke-width:0.5;" x="193.3765625" xlink:href="#m9d0eee4805" y="278.265934318"/>
     <use style="stroke:#000000;stroke-width:0.5;" x="193.3765625" xlink:href="#m9d0eee4805" y="262.051994102"/>
     <use style="stroke:#000000;stroke-width:0.5;" x="193.3765625" xlink:href="#m9d0eee4805" y="245.164119742"/>
     <use style="stroke:#000000;stroke-width:0.5;" x="193.3765625" xlink:href="#m9d0eee4805" y="227.730838159"/>
     <use style="stroke:#000000;stroke-width:0.5;" x="193.3765625" xlink:href="#m9d0eee4805" y="209.884827152"/>
     <use style="stroke:#000000;stroke-width:0.5;" x="193.3765625" xlink:href="#m9d0eee4805" y="191.76190564"/>
    </g>
   </g>
   <g id="line2d_5">
    <g clip-path="url(#p5e01d0af3e)">
     <use style="stroke:#000000;stroke-width:0.5;" x="58.4722055065" xlink:href="#m9d0eee4805" y="173.5"/>
     <use style="stroke:#000000;stroke-width:0.5;" x="72.9978259368" xlink:href="#m9d0eee4805" y="173.5"/>
     <use style="stroke:#000000;stroke-width:0.5;" x="88.439601239" xlink:href="#m9d0eee4805" y="173.5"/>
     <use style="stroke:#000000;stroke-width:0.5;" x="104.680010179" xlink:href="#m9d0eee4805" y="173.5"/>
     <use style="stroke:#000000;stroke-width:0.5;" x="121.595453439" xlink:href="#m9d0eee4805" y="173.5"/>
     <use style="stroke:#000000;stroke-width:0.5;" x="139.057194281" xlink:href="#m9d0eee4805" y="173.5"/>
     <use style="stroke:#000000;stroke-width:0.5;" x="156.932338314" xlink:href="#m9d0eee4805" y="173.5"/>
     <use style="stroke:#000000;stroke-width:0.5;" x="175.084844899" xlink:href="#m9d0eee4805" y="173.5"/>
    </g>
   </g>
   <g id="line2d_6">
    <path clip-path="url(#p5e01d0af3e)" d="
M193.377 25.3386
L193.377 26.6372
L193.377 27.9469
L193.377 29.2678" style="fill:none;stroke:#000000;stroke-linecap:square;"/>
   </g>
   <g id="line2d_7">
    <path clip-path="url(#p5e01d0af3e)" d="
M219.147 27.5895
L218.921 28.8683
L218.693 30.1582
L218.463 31.459" style="fill:none;stroke:#000000;stroke-linecap:square;"/>
   </g>
   <g id="line2d_8">
    <path clip-path="url(#p5e01d0af3e)" d="
M244.133 34.2738
L243.689 35.4941
L243.24 36.7249
L242.787 37.966" style="fill:none;stroke:#000000;stroke-linecap:square;"/>
   </g>
   <g id="line2d_9">
    <path clip-path="url(#p5e01d0af3e)" d="
M267.578 45.1885
L266.928 46.3131
L266.272 47.4473
L265.61 48.5912" style="fill:none;stroke:#000000;stroke-linecap:square;"/>
   </g>
   <g id="line2d_10">
    <path clip-path="url(#p5e01d0af3e)" d="
M288.768 60.0018
L287.932 60.9965
L287.089 61.9999
L286.239 63.0117" style="fill:none;stroke:#000000;stroke-linecap:square;"/>
   </g>
   <g id="line2d_11">
    <path clip-path="url(#p5e01d0af3e)" d="
M307.06 78.2637
L306.064 79.0984
L305.059 79.9403
L304.045 80.7893" style="fill:none;stroke:#000000;stroke-linecap:square;"/>
   </g>
   <g id="line2d_12">
    <path clip-path="url(#p5e01d0af3e)" d="
M321.898 99.4193
L320.771 100.069
L319.635 100.723
L318.489 101.384" style="fill:none;stroke:#000000;stroke-linecap:square;"/>
   </g>
   <g id="line2d_13">
    <path clip-path="url(#p5e01d0af3e)" d="
M332.83 122.826
L331.608 123.27
L330.375 123.718
L329.132 124.17" style="fill:none;stroke:#000000;stroke-linecap:square;"/>
   </g>
   <g id="line2d_14">
    <path clip-path="url(#p5e01d0af3e)" d="
M339.525 147.772
L338.244 147.998
L336.952 148.225
L335.649 148.454" style="fill:none;stroke:#000000;stroke-linecap:square;"/>
   </g>
   <g id="line2d_15">
    <path clip-path="url(#p5e01d0af3e)" d="
M341.78 173.5
L340.479 173.5
L339.167 173.5
L337.844 173.5" style="fill:none;stroke:#000000;stroke-linecap:square;"/>
   </g>
   <g id="line2d_16">
    <path clip-path="url(#p5e01d0af3e)" d="
M339.525 199.228
L338.244 199.002
L336.952 198.775
L335.649 198.546" style="fill:none;stroke:#000000;stroke-linecap:square;"/>
   </g>
   <g id="line2d_17">
    <path clip-path="url(#p5e01d0af3e)" d="
M332.83 224.174
L331.608 223.73
L330.375 223.282
L329.132 222.83" style="fill:none;stroke:#000000;stroke-linecap:square;"/>
   </g>
   <g id="line2d_18">
    <path clip-path="url(#p5e01d0af3e)" d="
M321.898 247.581
L320.771 246.931
L319.635 246.277
L318.489 245.616" style="fill:none;stroke:#000000;stroke-linecap:square;"/>
   </g>
   <g id="line2d_19">
    <path clip-path="url(#p5e01d0af3e)" d="
M307.06 268.736
L306.064 267.902
L305.059 267.06
L304.045 266.211" style="fill:none;stroke:#000000;stroke-linecap:square;"/>
   </g>
   <g id="line2d_20">
    <path clip-path="url(#p5e01d0af3e)" d="
M288.768 286.998
L287.932 286.003
L287.089 285
L286.239 283.988" style="fill:none;stroke:#000000;stroke-linecap:square;"/>
   </g>
   <g id="line2d_21">
    <path clip-path="url(#p5e01d0af3e)" d="
M267.578 301.812
L266.928 300.687
L266.272 299.553
L265.61 298.409" style="fill:none;stroke:#000000;stroke-linecap:square;"/>
   </g>
   <g id="line2d_22">
    <path clip-path="url(#p5e01d0af3e)" d="
M244.133 312.726
L243.689 311.506
L243.24 310.275
L242.787 309.034" style="fill:none;stroke:#000000;stroke-linecap:square;"/>
   </g>
   <g id="line2d_23">
    <path clip-path="url(#p5e01d0af3e)" d="
M219.147 319.411
L218.921 318.132
L218.693 316.842
L218.463 315.541" style="fill:none;stroke:#000000;stroke-linecap:square;"/>
   </g>
   <g id="line2d_24">
    <path clip-path="url(#p5e01d0af3e)" d="
M193.377 321.661
L193.377 320.363
L193.377 319.053
L193.377 317.732" style="fill:none;stroke:#000000;stroke-linecap:square;"/>
   </g>
   <g id="line2d_25">
    <path clip-path="url(#p5e01d0af3e)" d="
M167.607 319.411
L167.832 318.132
L168.06 316.842
L168.29 315.541" style="fill:none;stroke:#000000;stroke-linecap:square;"/>
   </g>
   <g id="line2d_26">
    <path clip-path="url(#p5e01d0af3e)" d="
M142.62 312.726
L143.065 311.506
L143.513 310.275
L143.966 309.034" style="fill:none;stroke:#000000;stroke-linecap:square;"/>
   </g>
   <g id="line2d_27">
    <path clip-path="url(#p5e01d0af3e)" d="
M119.175 301.812
L119.825 300.687
L120.481 299.553
L121.143 298.409" style="fill:none;stroke:#000000;stroke-linecap:square;"/>
   </g>
   <g id="line2d_28">
    <path clip-path="url(#p5e01d0af3e)" d="
M97.9848 286.998
L98.8208 286.003
L99.6641 285
L100.515 283.988" style="fill:none;stroke:#000000;stroke-linecap:square;"/>
   </g>
   <g id="line2d_29">
    <path clip-path="url(#p5e01d0af3e)" d="
M79.6931 268.736
L80.6895 267.902
L81.6944 267.06
L82.7079 266.211" style="fill:none;stroke:#000000;stroke-linecap:square;"/>
   </g>
   <g id="line2d_30">
    <path clip-path="url(#p5e01d0af3e)" d="
M64.8556 247.581
L65.982 246.931
L67.1181 246.277
L68.2639 245.616" style="fill:none;stroke:#000000;stroke-linecap:square;"/>
   </g>
   <g id="line2d_31">
    <path clip-path="url(#p5e01d0af3e)" d="
M53.9231 224.174
L55.1454 223.73
L56.3781 223.282
L57.6214 222.83" style="fill:none;stroke:#000000;stroke-linecap:square;"/>
   </g>
   <g id="line2d_32">
    <path clip-path="url(#p5e01d0af3e)" d="
M47.2279 199.228
L48.5088 199.002
L49.8008 198.775
L51.1037 198.546" style="fill:none;stroke:#000000;stroke-linecap:square;"/>
   </g>
   <g id="line2d_33">
    <path clip-path="url(#p5e01d0af3e)" d="
M44.9733 173.5
L46.274 173.5
L47.5859 173.5
L48.9089 173.5" style="fill:none;stroke:#000000;stroke-linecap:square;"/>
   </g>
   <g id="line2d_34">
    <path clip-path="url(#p5e01d0af3e)" d="
M47.2279 147.772
L48.5088 147.998
L49.8008 148.225
L51.1037 148.454" style="fill:none;stroke:#000000;stroke-linecap:square;"/>
   </g>
   <g id="line2d_35">
    <path clip-path="url(#p5e01d0af3e)" d="
M53.9231 122.826
L55.1454 123.27
L56.3781 123.718
L57.6214 124.17" style="fill:none;stroke:#000000;stroke-linecap:square;"/>
   </g>
   <g id="line2d_36">
    <path clip-path="url(#p5e01d0af3e)" d="
M64.8556 99.4193
L65.982 100.069
L67.1181 100.723
L68.2639 101.384" style="fill:none;stroke:#000000;stroke-linecap:square;"/>
   </g>
   <g id="line2d_37">
    <path clip-path="url(#p5e01d0af3e)" d="
M79.6931 78.2637
L80.6895 79.0984
L81.6944 79.9403
L82.7079 80.7893" style="fill:none;stroke:#000000;stroke-linecap:square;"/>
   </g>
   <g id="line2d_38">
    <path clip-path="url(#p5e01d0af3e)" d="
M97.9848 60.0018
L98.8208 60.9965
L99.6641 61.9999
L100.515 63.0117" style="fill:none;stroke:#000000;stroke-linecap:square;"/>
   </g>
   <g id="line2d_39">
    <path clip-path="url(#p5e01d0af3e)" d="
M119.175 45.1885
L119.825 46.3131
L120.481 47.4473
L121.143 48.5912" style="fill:none;stroke:#000000;stroke-linecap:square;"/>
   </g>
   <g id="line2d_40">
    <path clip-path="url(#p5e01d0af3e)" d="
M142.62 34.2738
L143.065 35.4941
L143.513 36.7249
L143.966 37.966" style="fill:none;stroke:#000000;stroke-linecap:square;"/>
   </g>
   <g id="line2d_41">
    <path clip-path="url(#p5e01d0af3e)" d="
M167.607 27.5895
L167.832 28.8683
L168.06 30.1582
L168.29 31.459" style="fill:none;stroke:#000000;stroke-linecap:square;"/>
   </g>
   <g id="legend_1">
    <g id="patch_2">
     <path d="
M55.6944 55.6275
L331.059 55.6275
L331.059 16.8
L55.6944 16.8
z
" style="fill:#ffffff;stroke:#000000;stroke-linejoin:miter;"/>
    </g>
    <g id="PathCollection_3">
     <path d="
M64.0944 29.8042
C64.6874 29.8042 65.2562 29.5686 65.6755 29.1493
C66.0948 28.7299 66.3304 28.1611 66.3304 27.5681
C66.3304 26.9751 66.0948 26.4063 65.6755 25.987
C65.2562 25.5677 64.6874 25.3321 64.0944 25.3321
C63.5014 25.3321 62.9326 25.5677 62.5132 25.987
C62.0939 26.4063 61.8583 26.9751 61.8583 27.5681
C61.8583 28.1611 62.0939 28.7299 62.5132 29.1493
C62.9326 29.5686 63.5014 29.8042 64.0944 29.8042
L64.0944 29.8042" style="fill:none;stroke:#ff0000;"/>
     <path d="
M72.4944 28.7542
C73.0874 28.7542 73.6562 28.5186 74.0755 28.0993
C74.4948 27.6799 74.7304 27.1111 74.7304 26.5181
C74.7304 25.9251 74.4948 25.3563 74.0755 24.937
C73.6562 24.5177 73.0874 24.2821 72.4944 24.2821
C71.9014 24.2821 71.3326 24.5177 70.9132 24.937
C70.4939 25.3563 70.2583 25.9251 70.2583 26.5181
C70.2583 27.1111 70.4939 27.6799 70.9132 28.0993
C71.3326 28.5186 71.9014 28.7542 72.4944 28.7542
L72.4944 28.7542" style="fill:none;stroke:#ff0000;"/>
     <path d="
M80.8944 30.3292
C81.4874 30.3292 82.0562 30.0936 82.4755 29.6743
C82.8948 29.2549 83.1304 28.6861 83.1304 28.0931
C83.1304 27.5001 82.8948 26.9313 82.4755 26.512
C82.0562 26.0927 81.4874 25.8571 80.8944 25.8571
C80.3014 25.8571 79.7326 26.0927 79.3132 26.512
C78.8939 26.9313 78.6583 27.5001 78.6583 28.0931
C78.6583 28.6861 78.8939 29.2549 79.3132 29.6743
C79.7326 30.0936 80.3014 30.3292 80.8944 30.3292
L80.8944 30.3292" style="fill:none;stroke:#ff0000;"/>
    </g>
    <g id="text_1">
     <!-- Halls (1974) site means (in situ) -->
     <defs>
      <path id="BitstreamVeraSans-Roman-20"/>
      <path d="
M12.4062 8.29688
L28.5156 8.29688
L28.5156 63.9219
L10.9844 60.4062
L10.9844 69.3906
L28.4219 72.9062
L38.2812 72.9062
L38.2812 8.29688
L54.3906 8.29688
L54.3906 0
L12.4062 0
z
" id="BitstreamVeraSans-Roman-31"/>
      <path d="
M8.20312 72.9062
L55.0781 72.9062
L55.0781 68.7031
L28.6094 0
L18.3125 0
L43.2188 64.5938
L8.20312 64.5938
z
" id="BitstreamVeraSans-Roman-37"/>
      <path d="
M37.7969 64.3125
L12.8906 25.3906
L37.7969 25.3906
z

M35.2031 72.9062
L47.6094 72.9062
L47.6094 25.3906
L58.0156 25.3906
L58.0156 17.1875
L47.6094 17.1875
L47.6094 0
L37.7969 0
L37.7969 17.1875
L4.89062 17.1875
L4.89062 26.7031
z
" id="BitstreamVeraSans-Roman-34"/>
      <path d="
M8.01562 75.875
L15.8281 75.875
Q23.1406 64.3594 26.7812 53.3125
Q30.4219 42.2812 30.4219 31.3906
Q30.4219 20.4531 26.7812 9.375
Q23.1406 -1.70312 15.8281 -13.1875
L8.01562 -13.1875
Q14.5 -2 17.7031 9.0625
Q20.9062 20.125 20.9062 31.3906
Q20.9062 42.6719 17.7031 53.6562
Q14.5 64.6562 8.01562 75.875" id="BitstreamVeraSans-Roman-29"/>
      <path d="
M31 75.875
Q24.4688 64.6562 21.2812 53.6562
Q18.1094 42.6719 18.1094 31.3906
Q18.1094 20.125 21.3125 9.0625
Q24.5156 -2 31 -13.1875
L23.1875 -13.1875
Q15.875 -1.70312 12.2344 9.375
Q8.59375 20.4531 8.59375 31.3906
Q8.59375 42.2812 12.2031 53.3125
Q15.8281 64.3594 23.1875 75.875
z
" id="BitstreamVeraSans-Roman-28"/>
      <path d="
M10.9844 1.51562
L10.9844 10.5
Q14.7031 8.73438 18.5 7.8125
Q22.3125 6.89062 25.9844 6.89062
Q35.75 6.89062 40.8906 13.4531
Q46.0469 20.0156 46.7812 33.4062
Q43.9531 29.2031 39.5938 26.9531
Q35.25 24.7031 29.9844 24.7031
Q19.0469 24.7031 12.6719 31.3125
Q6.29688 37.9375 6.29688 49.4219
Q6.29688 60.6406 12.9375 67.4219
Q19.5781 74.2188 30.6094 74.2188
Q43.2656 74.2188 49.9219 64.5156
Q56.5938 54.8281 56.5938 36.375
Q56.5938 19.1406 48.4062 8.85938
Q40.2344 -1.42188 26.4219 -1.42188
Q22.7031 -1.42188 18.8906 -0.6875
Q15.0938 0.046875 10.9844 1.51562
M30.6094 32.4219
Q37.25 32.4219 41.125 36.9531
Q45.0156 41.5 45.0156 49.4219
Q45.0156 57.2812 41.125 61.8438
Q37.25 66.4062 30.6094 66.4062
Q23.9688 66.4062 20.0938 61.8438
Q16.2188 57.2812 16.2188 49.4219
Q16.2188 41.5 20.0938 36.9531
Q23.9688 32.4219 30.6094 32.4219" id="BitstreamVeraSans-Roman-39"/>
      <path d="
M9.42188 75.9844
L18.4062 75.9844
L18.4062 0
L9.42188 0
z
" id="BitstreamVeraSans-Roman-6c"/>
      <path d="
M54.8906 33.0156
L54.8906 0
L45.9062 0
L45.9062 32.7188
Q45.9062 40.4844 42.875 44.3281
Q39.8438 48.1875 33.7969 48.1875
Q26.5156 48.1875 22.3125 43.5469
Q18.1094 38.9219 18.1094 30.9062
L18.1094 0
L9.07812 0
L9.07812 54.6875
L18.1094 54.6875
L18.1094 46.1875
Q21.3438 51.125 25.7031 53.5625
Q30.0781 56 35.7969 56
Q45.2188 56 50.0469 50.1719
Q54.8906 44.3438 54.8906 33.0156" id="BitstreamVeraSans-Roman-6e"/>
      <path d="
M9.42188 54.6875
L18.4062 54.6875
L18.4062 0
L9.42188 0
z

M9.42188 75.9844
L18.4062 75.9844
L18.4062 64.5938
L9.42188 64.5938
z
" id="BitstreamVeraSans-Roman-69"/>
      <path d="
M52 44.1875
Q55.375 50.25 60.0625 53.125
Q64.75 56 71.0938 56
Q79.6406 56 84.2812 50.0156
Q88.9219 44.0469 88.9219 33.0156
L88.9219 0
L79.8906 0
L79.8906 32.7188
Q79.8906 40.5781 77.0938 44.375
Q74.3125 48.1875 68.6094 48.1875
Q61.625 48.1875 57.5625 43.5469
Q53.5156 38.9219 53.5156 30.9062
L53.5156 0
L44.4844 0
L44.4844 32.7188
Q44.4844 40.625 41.7031 44.4062
Q38.9219 48.1875 33.1094 48.1875
Q26.2188 48.1875 22.1562 43.5312
Q18.1094 38.875 18.1094 30.9062
L18.1094 0
L9.07812 0
L9.07812 54.6875
L18.1094 54.6875
L18.1094 46.1875
Q21.1875 51.2188 25.4844 53.6094
Q29.7812 56 35.6875 56
Q41.6562 56 45.8281 52.9688
Q50 49.9531 52 44.1875" id="BitstreamVeraSans-Roman-6d"/>
      <path d="
M56.2031 29.5938
L56.2031 25.2031
L14.8906 25.2031
Q15.4844 15.9219 20.4844 11.0625
Q25.4844 6.20312 34.4219 6.20312
Q39.5938 6.20312 44.4531 7.46875
Q49.3125 8.73438 54.1094 11.2812
L54.1094 2.78125
Q49.2656 0.734375 44.1875 -0.34375
Q39.1094 -1.42188 33.8906 -1.42188
Q20.7969 -1.42188 13.1562 6.1875
Q5.51562 13.8125 5.51562 26.8125
Q5.51562 40.2344 12.7656 48.1094
Q20.0156 56 32.3281 56
Q43.3594 56 49.7812 48.8906
Q56.2031 41.7969 56.2031 29.5938
M47.2188 32.2344
Q47.125 39.5938 43.0938 43.9844
Q39.0625 48.3906 32.4219 48.3906
Q24.9062 48.3906 20.3906 44.1406
Q15.875 39.8906 15.1875 32.1719
z
" id="BitstreamVeraSans-Roman-65"/>
      <path d="
M18.3125 70.2188
L18.3125 54.6875
L36.8125 54.6875
L36.8125 47.7031
L18.3125 47.7031
L18.3125 18.0156
Q18.3125 11.3281 20.1406 9.42188
Q21.9688 7.51562 27.5938 7.51562
L36.8125 7.51562
L36.8125 0
L27.5938 0
Q17.1875 0 13.2344 3.875
Q9.28125 7.76562 9.28125 18.0156
L9.28125 47.7031
L2.6875 47.7031
L2.6875 54.6875
L9.28125 54.6875
L9.28125 70.2188
z
" id="BitstreamVeraSans-Roman-74"/>
      <path d="
M8.5 21.5781
L8.5 54.6875
L17.4844 54.6875
L17.4844 21.9219
Q17.4844 14.1562 20.5 10.2656
Q23.5312 6.39062 29.5938 6.39062
Q36.8594 6.39062 41.0781 11.0312
Q45.3125 15.6719 45.3125 23.6875
L45.3125 54.6875
L54.2969 54.6875
L54.2969 0
L45.3125 0
L45.3125 8.40625
Q42.0469 3.42188 37.7188 1
Q33.4062 -1.42188 27.6875 -1.42188
Q18.2656 -1.42188 13.375 4.4375
Q8.5 10.2969 8.5 21.5781" id="BitstreamVeraSans-Roman-75"/>
      <path d="
M34.2812 27.4844
Q23.3906 27.4844 19.1875 25
Q14.9844 22.5156 14.9844 16.5
Q14.9844 11.7188 18.1406 8.90625
Q21.2969 6.10938 26.7031 6.10938
Q34.1875 6.10938 38.7031 11.4062
Q43.2188 16.7031 43.2188 25.4844
L43.2188 27.4844
z

M52.2031 31.2031
L52.2031 0
L43.2188 0
L43.2188 8.29688
Q40.1406 3.32812 35.5469 0.953125
Q30.9531 -1.42188 24.3125 -1.42188
Q15.9219 -1.42188 10.9531 3.29688
Q6 8.01562 6 15.9219
Q6 25.1406 12.1719 29.8281
Q18.3594 34.5156 30.6094 34.5156
L43.2188 34.5156
L43.2188 35.4062
Q43.2188 41.6094 39.1406 45
Q35.0625 48.3906 27.6875 48.3906
Q23 48.3906 18.5469 47.2656
Q14.1094 46.1406 10.0156 43.8906
L10.0156 52.2031
Q14.9375 54.1094 19.5781 55.0469
Q24.2188 56 28.6094 56
Q40.4844 56 46.3438 49.8438
Q52.2031 43.7031 52.2031 31.2031" id="BitstreamVeraSans-Roman-61"/>
      <path d="
M44.2812 53.0781
L44.2812 44.5781
Q40.4844 46.5312 36.375 47.5
Q32.2812 48.4844 27.875 48.4844
Q21.1875 48.4844 17.8438 46.4375
Q14.5 44.3906 14.5 40.2812
Q14.5 37.1562 16.8906 35.375
Q19.2812 33.5938 26.5156 31.9844
L29.5938 31.2969
Q39.1562 29.25 43.1875 25.5156
Q47.2188 21.7812 47.2188 15.0938
Q47.2188 7.46875 41.1875 3.01562
Q35.1562 -1.42188 24.6094 -1.42188
Q20.2188 -1.42188 15.4531 -0.5625
Q10.6875 0.296875 5.42188 2
L5.42188 11.2812
Q10.4062 8.6875 15.2344 7.39062
Q20.0625 6.10938 24.8125 6.10938
Q31.1562 6.10938 34.5625 8.28125
Q37.9844 10.4531 37.9844 14.4062
Q37.9844 18.0625 35.5156 20.0156
Q33.0625 21.9688 24.7031 23.7812
L21.5781 24.5156
Q13.2344 26.2656 9.51562 29.9062
Q5.8125 33.5469 5.8125 39.8906
Q5.8125 47.6094 11.2812 51.7969
Q16.75 56 26.8125 56
Q31.7812 56 36.1719 55.2656
Q40.5781 54.5469 44.2812 53.0781" id="BitstreamVeraSans-Roman-73"/>
      <path d="
M9.8125 72.9062
L19.6719 72.9062
L19.6719 43.0156
L55.5156 43.0156
L55.5156 72.9062
L65.375 72.9062
L65.375 0
L55.5156 0
L55.5156 34.7188
L19.6719 34.7188
L19.6719 0
L9.8125 0
z
" id="BitstreamVeraSans-Roman-48"/>
     </defs>
     <g transform="translate(94.094375 30.718125)scale(0.12 -0.12)">
      <use xlink:href="#BitstreamVeraSans-Roman-48"/>
      <use x="75.1953125" xlink:href="#BitstreamVeraSans-Roman-61"/>
      <use x="136.474609375" xlink:href="#BitstreamVeraSans-Roman-6c"/>
      <use x="164.2578125" xlink:href="#BitstreamVeraSans-Roman-6c"/>
      <use x="192.041015625" xlink:href="#BitstreamVeraSans-Roman-73"/>
      <use x="244.140625" xlink:href="#BitstreamVeraSans-Roman-20"/>
      <use x="275.927734375" xlink:href="#BitstreamVeraSans-Roman-28"/>
      <use x="314.94140625" xlink:href="#BitstreamVeraSans-Roman-31"/>
      <use x="378.564453125" xlink:href="#BitstreamVeraSans-Roman-39"/>
      <use x="442.1875" xlink:href="#BitstreamVeraSans-Roman-37"/>
      <use x="505.810546875" xlink:href="#BitstreamVeraSans-Roman-34"/>
      <use x="569.43359375" xlink:href="#BitstreamVeraSans-Roman-29"/>
      <use x="608.447265625" xlink:href="#BitstreamVeraSans-Roman-20"/>
      <use x="640.234375" xlink:href="#BitstreamVeraSans-Roman-73"/>
      <use x="692.333984375" xlink:href="#BitstreamVeraSans-Roman-69"/>
      <use x="720.1171875" xlink:href="#BitstreamVeraSans-Roman-74"/>
      <use x="759.326171875" xlink:href="#BitstreamVeraSans-Roman-65"/>
      <use x="820.849609375" xlink:href="#BitstreamVeraSans-Roman-20"/>
      <use x="852.63671875" xlink:href="#BitstreamVeraSans-Roman-6d"/>
      <use x="950.048828125" xlink:href="#BitstreamVeraSans-Roman-65"/>
      <use x="1011.57226562" xlink:href="#BitstreamVeraSans-Roman-61"/>
      <use x="1072.8515625" xlink:href="#BitstreamVeraSans-Roman-6e"/>
      <use x="1136.23046875" xlink:href="#BitstreamVeraSans-Roman-73"/>
      <use x="1188.33007812" xlink:href="#BitstreamVeraSans-Roman-20"/>
      <use x="1220.1171875" xlink:href="#BitstreamVeraSans-Roman-28"/>
      <use x="1259.13085938" xlink:href="#BitstreamVeraSans-Roman-69"/>
      <use x="1286.9140625" xlink:href="#BitstreamVeraSans-Roman-6e"/>
      <use x="1350.29296875" xlink:href="#BitstreamVeraSans-Roman-20"/>
      <use x="1382.08007812" xlink:href="#BitstreamVeraSans-Roman-73"/>
      <use x="1434.1796875" xlink:href="#BitstreamVeraSans-Roman-69"/>
      <use x="1461.96289062" xlink:href="#BitstreamVeraSans-Roman-74"/>
      <use x="1501.171875" xlink:href="#BitstreamVeraSans-Roman-75"/>
      <use x="1564.55078125" xlink:href="#BitstreamVeraSans-Roman-29"/>
     </g>
    </g>
    <g id="PathCollection_4">
     <path d="
M64.0944 47.4179
C64.6874 47.4179 65.2562 47.1823 65.6755 46.763
C66.0948 46.3437 66.3304 45.7749 66.3304 45.1819
C66.3304 44.5889 66.0948 44.0201 65.6755 43.6007
C65.2562 43.1814 64.6874 42.9458 64.0944 42.9458
C63.5014 42.9458 62.9326 43.1814 62.5132 43.6007
C62.0939 44.0201 61.8583 44.5889 61.8583 45.1819
C61.8583 45.7749 62.0939 46.3437 62.5132 46.763
C62.9326 47.1823 63.5014 47.4179 64.0944 47.4179
L64.0944 47.4179" style="fill:none;stroke:#0000ff;"/>
     <path d="
M72.4944 46.3679
C73.0874 46.3679 73.6562 46.1323 74.0755 45.713
C74.4948 45.2937 74.7304 44.7249 74.7304 44.1319
C74.7304 43.5389 74.4948 42.9701 74.0755 42.5507
C73.6562 42.1314 73.0874 41.8958 72.4944 41.8958
C71.9014 41.8958 71.3326 42.1314 70.9132 42.5507
C70.4939 42.9701 70.2583 43.5389 70.2583 44.1319
C70.2583 44.7249 70.4939 45.2937 70.9132 45.713
C71.3326 46.1323 71.9014 46.3679 72.4944 46.3679
L72.4944 46.3679" style="fill:none;stroke:#0000ff;"/>
     <path d="
M80.8944 47.9429
C81.4874 47.9429 82.0562 47.7073 82.4755 47.288
C82.8948 46.8687 83.1304 46.2999 83.1304 45.7069
C83.1304 45.1139 82.8948 44.5451 82.4755 44.1257
C82.0562 43.7064 81.4874 43.4708 80.8944 43.4708
C80.3014 43.4708 79.7326 43.7064 79.3132 44.1257
C78.8939 44.5451 78.6583 45.1139 78.6583 45.7069
C78.6583 46.2999 78.8939 46.8687 79.3132 47.288
C79.7326 47.7073 80.3014 47.9429 80.8944 47.9429
L80.8944 47.9429" style="fill:none;stroke:#0000ff;"/>
    </g>
    <g id="text_2">
     <!-- Halls (1974) site means (tilt-corrected) -->
     <defs>
      <path d="
M45.4062 46.3906
L45.4062 75.9844
L54.3906 75.9844
L54.3906 0
L45.4062 0
L45.4062 8.20312
Q42.5781 3.32812 38.25 0.953125
Q33.9375 -1.42188 27.875 -1.42188
Q17.9688 -1.42188 11.7344 6.48438
Q5.51562 14.4062 5.51562 27.2969
Q5.51562 40.1875 11.7344 48.0938
Q17.9688 56 27.875 56
Q33.9375 56 38.25 53.625
Q42.5781 51.2656 45.4062 46.3906
M14.7969 27.2969
Q14.7969 17.3906 18.875 11.75
Q22.9531 6.10938 30.0781 6.10938
Q37.2031 6.10938 41.2969 11.75
Q45.4062 17.3906 45.4062 27.2969
Q45.4062 37.2031 41.2969 42.8438
Q37.2031 48.4844 30.0781 48.4844
Q22.9531 48.4844 18.875 42.8438
Q14.7969 37.2031 14.7969 27.2969" id="BitstreamVeraSans-Roman-64"/>
      <path d="
M30.6094 48.3906
Q23.3906 48.3906 19.1875 42.75
Q14.9844 37.1094 14.9844 27.2969
Q14.9844 17.4844 19.1562 11.8438
Q23.3438 6.20312 30.6094 6.20312
Q37.7969 6.20312 41.9844 11.8594
Q46.1875 17.5312 46.1875 27.2969
Q46.1875 37.0156 41.9844 42.7031
Q37.7969 48.3906 30.6094 48.3906
M30.6094 56
Q42.3281 56 49.0156 48.375
Q55.7188 40.7656 55.7188 27.2969
Q55.7188 13.875 49.0156 6.21875
Q42.3281 -1.42188 30.6094 -1.42188
Q18.8438 -1.42188 12.1719 6.21875
Q5.51562 13.875 5.51562 27.2969
Q5.51562 40.7656 12.1719 48.375
Q18.8438 56 30.6094 56" id="BitstreamVeraSans-Roman-6f"/>
      <path d="
M41.1094 46.2969
Q39.5938 47.1719 37.8125 47.5781
Q36.0312 48 33.8906 48
Q26.2656 48 22.1875 43.0469
Q18.1094 38.0938 18.1094 28.8125
L18.1094 0
L9.07812 0
L9.07812 54.6875
L18.1094 54.6875
L18.1094 46.1875
Q20.9531 51.1719 25.4844 53.5781
Q30.0312 56 36.5312 56
Q37.4531 56 38.5781 55.875
Q39.7031 55.7656 41.0625 55.5156
z
" id="BitstreamVeraSans-Roman-72"/>
      <path d="
M4.89062 31.3906
L31.2031 31.3906
L31.2031 23.3906
L4.89062 23.3906
z
" id="BitstreamVeraSans-Roman-2d"/>
      <path d="
M48.7812 52.5938
L48.7812 44.1875
Q44.9688 46.2969 41.1406 47.3438
Q37.3125 48.3906 33.4062 48.3906
Q24.6562 48.3906 19.8125 42.8438
Q14.9844 37.3125 14.9844 27.2969
Q14.9844 17.2812 19.8125 11.7344
Q24.6562 6.20312 33.4062 6.20312
Q37.3125 6.20312 41.1406 7.25
Q44.9688 8.29688 48.7812 10.4062
L48.7812 2.09375
Q45.0156 0.34375 40.9844 -0.53125
Q36.9688 -1.42188 32.4219 -1.42188
Q20.0625 -1.42188 12.7812 6.34375
Q5.51562 14.1094 5.51562 27.2969
Q5.51562 40.6719 12.8594 48.3281
Q20.2188 56 33.0156 56
Q37.1562 56 41.1094 55.1406
Q45.0625 54.2969 48.7812 52.5938" id="BitstreamVeraSans-Roman-63"/>
     </defs>
     <g transform="translate(94.094375 48.331875)scale(0.12 -0.12)">
      <use xlink:href="#BitstreamVeraSans-Roman-48"/>
      <use x="75.1953125" xlink:href="#BitstreamVeraSans-Roman-61"/>
      <use x="136.474609375" xlink:href="#BitstreamVeraSans-Roman-6c"/>
      <use x="164.2578125" xlink:href="#BitstreamVeraSans-Roman-6c"/>
      <use x="192.041015625" xlink:href="#BitstreamVeraSans-Roman-73"/>
      <use x="244.140625" xlink:href="#BitstreamVeraSans-Roman-20"/>
      <use x="275.927734375" xlink:href="#BitstreamVeraSans-Roman-28"/>
      <use x="314.94140625" xlink:href="#BitstreamVeraSans-Roman-31"/>
      <use x="378.564453125" xlink:href="#BitstreamVeraSans-Roman-39"/>
      <use x="442.1875" xlink:href="#BitstreamVeraSans-Roman-37"/>
      <use x="505.810546875" xlink:href="#BitstreamVeraSans-Roman-34"/>
      <use x="569.43359375" xlink:href="#BitstreamVeraSans-Roman-29"/>
      <use x="608.447265625" xlink:href="#BitstreamVeraSans-Roman-20"/>
      <use x="640.234375" xlink:href="#BitstreamVeraSans-Roman-73"/>
      <use x="692.333984375" xlink:href="#BitstreamVeraSans-Roman-69"/>
      <use x="720.1171875" xlink:href="#BitstreamVeraSans-Roman-74"/>
      <use x="759.326171875" xlink:href="#BitstreamVeraSans-Roman-65"/>
      <use x="820.849609375" xlink:href="#BitstreamVeraSans-Roman-20"/>
      <use x="852.63671875" xlink:href="#BitstreamVeraSans-Roman-6d"/>
      <use x="950.048828125" xlink:href="#BitstreamVeraSans-Roman-65"/>
      <use x="1011.57226562" xlink:href="#BitstreamVeraSans-Roman-61"/>
      <use x="1072.8515625" xlink:href="#BitstreamVeraSans-Roman-6e"/>
      <use x="1136.23046875" xlink:href="#BitstreamVeraSans-Roman-73"/>
      <use x="1188.33007812" xlink:href="#BitstreamVeraSans-Roman-20"/>
      <use x="1220.1171875" xlink:href="#BitstreamVeraSans-Roman-28"/>
      <use x="1259.13085938" xlink:href="#BitstreamVeraSans-Roman-74"/>
      <use x="1298.33984375" xlink:href="#BitstreamVeraSans-Roman-69"/>
      <use x="1326.12304688" xlink:href="#BitstreamVeraSans-Roman-6c"/>
      <use x="1353.90625" xlink:href="#BitstreamVeraSans-Roman-74"/>
      <use x="1393.11523438" xlink:href="#BitstreamVeraSans-Roman-2d"/>
      <use x="1429.19921875" xlink:href="#BitstreamVeraSans-Roman-63"/>
      <use x="1484.1796875" xlink:href="#BitstreamVeraSans-Roman-6f"/>
      <use x="1545.36132812" xlink:href="#BitstreamVeraSans-Roman-72"/>
      <use x="1584.72460938" xlink:href="#BitstreamVeraSans-Roman-72"/>
      <use x="1623.58789062" xlink:href="#BitstreamVeraSans-Roman-65"/>
      <use x="1685.11132812" xlink:href="#BitstreamVeraSans-Roman-63"/>
      <use x="1740.09179688" xlink:href="#BitstreamVeraSans-Roman-74"/>
      <use x="1779.30078125" xlink:href="#BitstreamVeraSans-Roman-65"/>
      <use x="1840.82421875" xlink:href="#BitstreamVeraSans-Roman-64"/>
      <use x="1904.30078125" xlink:href="#BitstreamVeraSans-Roman-29"/>
     </g>
    </g>
   </g>
  </g>
 </g>
 <defs>
  <clipPath id="p5e01d0af3e">
   <rect height="325.4" width="311.646875" x="37.553125" y="10.8"/>
  </clipPath>
 </defs>
</svg>
