<?xml version="1.0" encoding="utf-8" standalone="no"?>
<!DOCTYPE svg PUBLIC "-//W3C//DTD SVG 1.1//EN"
  "http://www.w3.org/Graphics/SVG/1.1/DTD/svg11.dtd">
<!-- Created with matplotlib (http://matplotlib.org/) -->
<svg height="360pt" version="1.1" viewBox="0 0 360 360" width="360pt" xmlns="http://www.w3.org/2000/svg" xmlns:xlink="http://www.w3.org/1999/xlink">
 <defs>
  <style type="text/css">
*{stroke-linecap:butt;stroke-linejoin:round;stroke-miterlimit:100000;}
  </style>
 </defs>
 <g id="figure_1">
  <g id="patch_1">
   <path d="M 0 360 
L 360 360 
L 360 0 
L 0 0 
z
" style="fill:#ffffff;"/>
  </g>
  <g id="axes_1">
   <g id="PathCollection_1">
    <defs>
     <path d="M 0 2.236068 
C 0.593012 2.236068 1.161816 2.000462 1.581139 1.581139 
C 2.000462 1.161816 2.236068 0.593012 2.236068 0 
C 2.236068 -0.593012 2.000462 -1.161816 1.581139 -1.581139 
C 1.161816 -2.000462 0.593012 -2.236068 0 -2.236068 
C -0.593012 -2.236068 -1.161816 -2.000462 -1.581139 -1.581139 
C -2.000462 -1.161816 -2.236068 -0.593012 -2.236068 0 
C -2.236068 0.593012 -2.000462 1.161816 -1.581139 1.581139 
C -1.161816 2.000462 -0.593012 2.236068 0 2.236068 
z
" id="m790c5edecd" style="stroke:#0000ff;"/>
    </defs>
    <g clip-path="url(#paea6566f14)">
     <use style="fill:#ffffff;stroke:#0000ff;" x="246.61589256" xlink:href="#m790c5edecd" y="197.983646038"/>
    </g>
   </g>
   <g id="PathCollection_2">
    <defs>
     <path d="M 0 2.236068 
C 0.593012 2.236068 1.161816 2.000462 1.581139 1.581139 
C 2.000462 1.161816 2.236068 0.593012 2.236068 0 
C 2.236068 -0.593012 2.000462 -1.161816 1.581139 -1.581139 
C 1.161816 -2.000462 0.593012 -2.236068 0 -2.236068 
C -0.593012 -2.236068 -1.161816 -2.000462 -1.581139 -1.581139 
C -2.000462 -1.161816 -2.236068 -0.593012 -2.236068 0 
C -2.236068 0.593012 -2.000462 1.161816 -1.581139 1.581139 
C -1.161816 2.000462 -0.593012 2.236068 0 2.236068 
z
" id="mce41881048" style="stroke:#ff0000;"/>
    </defs>
    <g clip-path="url(#paea6566f14)">
     <use style="fill:#ffffff;stroke:#ff0000;" x="273.59486607" xlink:href="#mce41881048" y="218.464157775"/>
    </g>
   </g>
   <g id="line2d_1">
    <path clip-path="url(#paea6566f14)" d="M 193.912936 26.607568 
L 196.482394 26.62994 
L 199.05107 26.697051 
L 204.182945 26.965391 
L 209.302307 27.41226 
L 214.402919 28.037115 
L 219.478568 28.839194 
L 224.523068 29.81752 
L 229.530275 30.970901 
L 234.494088 32.297932 
L 239.408459 33.796995 
L 244.267401 35.466266 
L 249.064993 37.303709 
L 253.795391 39.307086 
L 258.452832 41.473957 
L 263.03164 43.801681 
L 267.526239 46.287422 
L 271.93115 48.928153 
L 276.241009 51.720655 
L 280.450563 54.661526 
L 284.554685 57.747184 
L 288.548374 60.973869 
L 292.426764 64.337649 
L 296.18513 67.834427 
L 299.818893 71.459943 
L 303.323626 75.209778 
L 306.695059 79.079365 
L 309.929084 83.063989 
L 313.021762 87.158795 
L 315.969323 91.358794 
L 318.768178 95.658871 
L 321.414916 100.053784 
L 323.906313 104.53818 
L 326.239332 109.106596 
L 328.411133 113.753465 
L 330.419067 118.473126 
L 332.260691 123.259829 
L 333.933758 128.107742 
L 335.436232 133.010958 
L 336.766282 137.963504 
L 337.922287 142.959346 
L 338.902838 147.992397 
L 339.706742 153.056525 
L 340.333019 158.14556 
L 340.780905 163.253302 
L 341.049855 168.373528 
L 341.139541 173.5 
L 341.049855 178.626472 
L 340.780905 183.746698 
L 340.333019 188.85444 
L 339.706742 193.943475 
L 338.902838 199.007603 
L 337.922287 204.040654 
L 336.766282 209.036496 
L 335.436232 213.989042 
L 333.933758 218.892258 
L 332.260691 223.740171 
L 330.419067 228.526874 
L 328.411133 233.246535 
L 326.239332 237.893404 
L 323.906313 242.46182 
L 321.414916 246.946216 
L 318.768178 251.341129 
L 315.969323 255.641206 
L 313.021762 259.841205 
L 309.929084 263.936011 
L 306.695059 267.920635 
L 303.323626 271.790222 
L 299.818893 275.540057 
L 296.18513 279.165573 
L 292.426764 282.662351 
L 288.548374 286.026131 
L 284.554685 289.252816 
L 280.450563 292.338474 
L 276.241009 295.279345 
L 271.93115 298.071847 
L 267.526239 300.712578 
L 263.03164 303.198319 
L 258.452832 305.526043 
L 253.795391 307.692914 
L 249.064993 309.696291 
L 244.267401 311.533734 
L 239.408459 313.203005 
L 234.494088 314.702068 
L 229.530275 316.029099 
L 224.523068 317.18248 
L 219.478568 318.160806 
L 214.402919 318.962885 
L 209.302307 319.58774 
L 204.182945 320.034609 
L 199.05107 320.302949 
L 193.912936 320.392432 
L 188.774801 320.302949 
L 183.642927 320.034609 
L 178.523565 319.58774 
L 173.422953 318.962885 
L 168.347304 318.160806 
L 163.302803 317.18248 
L 158.295596 316.029099 
L 153.331784 314.702068 
L 148.417413 313.203005 
L 143.558471 311.533734 
L 138.760879 309.696291 
L 134.03048 307.692914 
L 129.37304 305.526043 
L 124.794231 303.198319 
L 120.299633 300.712578 
L 115.894721 298.071847 
L 111.584863 295.279345 
L 107.375308 292.338474 
L 103.271187 289.252816 
L 99.277498 286.026131 
L 95.399108 282.662351 
L 91.640742 279.165573 
L 88.006979 275.540057 
L 84.502246 271.790222 
L 81.130813 267.920635 
L 77.896787 263.936011 
L 74.80411 259.841205 
L 71.856548 255.641206 
L 69.057693 251.341129 
L 66.410955 246.946216 
L 63.919559 242.46182 
L 61.586539 237.893404 
L 59.414739 233.246535 
L 57.406804 228.526874 
L 55.565181 223.740171 
L 53.892113 218.892258 
L 52.389639 213.989042 
L 51.05959 209.036496 
L 49.903585 204.040654 
L 48.923033 199.007603 
L 48.119129 193.943475 
L 47.492853 188.85444 
L 47.044967 183.746698 
L 46.776017 178.626472 
L 46.68633 173.5 
L 46.776017 168.373528 
L 47.044967 163.253302 
L 47.492853 158.14556 
L 48.119129 153.056525 
L 48.923033 147.992397 
L 49.903585 142.959346 
L 51.05959 137.963504 
L 52.389639 133.010958 
L 53.892113 128.107742 
L 55.565181 123.259829 
L 57.406804 118.473126 
L 59.414739 113.753465 
L 61.586539 109.106596 
L 63.919559 104.53818 
L 66.410955 100.053784 
L 69.057693 95.658871 
L 71.856548 91.358794 
L 74.80411 87.158795 
L 77.896787 83.063989 
L 81.130813 79.079365 
L 84.502246 75.209778 
L 88.006979 71.459943 
L 91.640742 67.834427 
L 95.399108 64.337649 
L 99.277498 60.973869 
L 103.271187 57.747184 
L 107.375308 54.661526 
L 111.584863 51.720655 
L 115.894721 48.928153 
L 120.299633 46.287422 
L 124.794231 43.801681 
L 129.37304 41.473957 
L 134.03048 39.307086 
L 138.760879 37.303709 
L 143.558471 35.466266 
L 148.417413 33.796995 
L 153.331784 32.297932 
L 158.295596 30.970901 
L 163.302803 29.81752 
L 168.347304 28.839194 
L 173.422953 28.037115 
L 178.523565 27.41226 
L 183.642927 26.965391 
L 188.774801 26.697051 
L 193.912936 26.607568 
L 193.912936 26.607568 
" style="fill:none;stroke:#000000;stroke-linecap:square;"/>
   </g>
   <g id="line2d_2">
    <defs>
     <path d="M -3 0 
L 3 0 
M 0 3 
L 0 -3 
" id="m79a6da10cd" style="stroke:#000000;stroke-width:0.5;"/>
    </defs>
    <g clip-path="url(#paea6566f14)">
     <use style="stroke:#000000;stroke-width:0.5;" x="193.912935799" xlink:href="#m79a6da10cd" y="39.9690570915"/>
     <use style="stroke:#000000;stroke-width:0.5;" x="193.912935799" xlink:href="#m79a6da10cd" y="54.3467972595"/>
     <use style="stroke:#000000;stroke-width:0.5;" x="193.912935799" xlink:href="#m79a6da10cd" y="69.6313652471"/>
     <use style="stroke:#000000;stroke-width:0.5;" x="193.912935799" xlink:href="#m79a6da10cd" y="85.7064362627"/>
     <use style="stroke:#000000;stroke-width:0.5;" x="193.912935799" xlink:href="#m79a6da10cd" y="102.44966931"/>
     <use style="stroke:#000000;stroke-width:0.5;" x="193.912935799" xlink:href="#m79a6da10cd" y="119.733638274"/>
     <use style="stroke:#000000;stroke-width:0.5;" x="193.912935799" xlink:href="#m79a6da10cd" y="137.426801717"/>
     <use style="stroke:#000000;stroke-width:0.5;" x="193.912935799" xlink:href="#m79a6da10cd" y="155.39450398"/>
     <use style="stroke:#000000;stroke-width:0.5;" x="193.912935799" xlink:href="#m79a6da10cd" y="173.5"/>
    </g>
   </g>
   <g id="line2d_3">
    <g clip-path="url(#paea6566f14)">
     <use style="stroke:#000000;stroke-width:0.5;" x="327.747655483" xlink:href="#m79a6da10cd" y="173.5"/>
     <use style="stroke:#000000;stroke-width:0.5;" x="313.337206615" xlink:href="#m79a6da10cd" y="173.5"/>
     <use style="stroke:#000000;stroke-width:0.5;" x="298.017866936" xlink:href="#m79a6da10cd" y="173.5"/>
     <use style="stroke:#000000;stroke-width:0.5;" x="281.90622587" xlink:href="#m79a6da10cd" y="173.5"/>
     <use style="stroke:#000000;stroke-width:0.5;" x="265.124902736" xlink:href="#m79a6da10cd" y="173.5"/>
     <use style="stroke:#000000;stroke-width:0.5;" x="247.801613534" xlink:href="#m79a6da10cd" y="173.5"/>
     <use style="stroke:#000000;stroke-width:0.5;" x="230.068198955" xlink:href="#m79a6da10cd" y="173.5"/>
     <use style="stroke:#000000;stroke-width:0.5;" x="212.059620993" xlink:href="#m79a6da10cd" y="173.5"/>
    </g>
   </g>
   <g id="line2d_4">
    <g clip-path="url(#paea6566f14)">
     <use style="stroke:#000000;stroke-width:0.5;" x="193.912935799" xlink:href="#m79a6da10cd" y="307.030942908"/>
     <use style="stroke:#000000;stroke-width:0.5;" x="193.912935799" xlink:href="#m79a6da10cd" y="292.65320274"/>
     <use style="stroke:#000000;stroke-width:0.5;" x="193.912935799" xlink:href="#m79a6da10cd" y="277.368634753"/>
     <use style="stroke:#000000;stroke-width:0.5;" x="193.912935799" xlink:href="#m79a6da10cd" y="261.293563737"/>
     <use style="stroke:#000000;stroke-width:0.5;" x="193.912935799" xlink:href="#m79a6da10cd" y="244.55033069"/>
     <use style="stroke:#000000;stroke-width:0.5;" x="193.912935799" xlink:href="#m79a6da10cd" y="227.266361726"/>
     <use style="stroke:#000000;stroke-width:0.5;" x="193.912935799" xlink:href="#m79a6da10cd" y="209.573198283"/>
     <use style="stroke:#000000;stroke-width:0.5;" x="193.912935799" xlink:href="#m79a6da10cd" y="191.60549602"/>
    </g>
   </g>
   <g id="line2d_5">
    <g clip-path="url(#paea6566f14)">
     <use style="stroke:#000000;stroke-width:0.5;" x="60.0782161157" xlink:href="#m79a6da10cd" y="173.5"/>
     <use style="stroke:#000000;stroke-width:0.5;" x="74.4886649836" xlink:href="#m79a6da10cd" y="173.5"/>
     <use style="stroke:#000000;stroke-width:0.5;" x="89.8080046628" xlink:href="#m79a6da10cd" y="173.5"/>
     <use style="stroke:#000000;stroke-width:0.5;" x="105.919645728" xlink:href="#m79a6da10cd" y="173.5"/>
     <use style="stroke:#000000;stroke-width:0.5;" x="122.700968863" xlink:href="#m79a6da10cd" y="173.5"/>
     <use style="stroke:#000000;stroke-width:0.5;" x="140.024258065" xlink:href="#m79a6da10cd" y="173.5"/>
     <use style="stroke:#000000;stroke-width:0.5;" x="157.757672643" xlink:href="#m79a6da10cd" y="173.5"/>
     <use style="stroke:#000000;stroke-width:0.5;" x="175.766250606" xlink:href="#m79a6da10cd" y="173.5"/>
    </g>
   </g>
   <g id="line2d_6">
    <path clip-path="url(#paea6566f14)" d="M 193.912936 26.607568 
L 193.912936 27.895023 
L 193.912936 29.193567 
L 193.912936 30.5031 
" style="fill:none;stroke:#000000;stroke-linecap:square;"/>
   </g>
   <g id="line2d_7">
    <path clip-path="url(#paea6566f14)" d="M 219.478568 28.839194 
L 219.254495 30.10709 
L 219.028492 31.385906 
L 218.800577 32.675544 
" style="fill:none;stroke:#000000;stroke-linecap:square;"/>
   </g>
   <g id="line2d_8">
    <path clip-path="url(#paea6566f14)" d="M 244.267401 35.466266 
L 243.826063 36.676078 
L 243.380925 37.89631 
L 242.932019 39.126868 
" style="fill:none;stroke:#000000;stroke-linecap:square;"/>
   </g>
   <g id="line2d_9">
    <path clip-path="url(#paea6566f14)" d="M 267.526239 46.287422 
L 266.881046 47.402391 
L 266.230298 48.526963 
L 265.574041 49.661052 
" style="fill:none;stroke:#000000;stroke-linecap:square;"/>
   </g>
   <g id="line2d_10">
    <path clip-path="url(#paea6566f14)" d="M 288.548374 60.973869 
L 287.718931 61.960117 
L 286.882344 62.954859 
L 286.038677 63.958019 
" style="fill:none;stroke:#000000;stroke-linecap:square;"/>
   </g>
   <g id="line2d_11">
    <path clip-path="url(#paea6566f14)" d="M 306.695059 79.079365 
L 305.706567 79.906925 
L 304.709562 80.741613 
L 303.704119 81.583364 
" style="fill:none;stroke:#000000;stroke-linecap:square;"/>
   </g>
   <g id="line2d_12">
    <path clip-path="url(#paea6566f14)" d="M 321.414916 100.053784 
L 320.297411 100.697512 
L 319.170281 101.346783 
L 318.033612 102.00155 
" style="fill:none;stroke:#000000;stroke-linecap:square;"/>
   </g>
   <g id="line2d_13">
    <path clip-path="url(#paea6566f14)" d="M 332.260691 123.259829 
L 331.048126 123.700165 
L 329.825118 124.144293 
L 328.59176 124.59218 
" style="fill:none;stroke:#000000;stroke-linecap:square;"/>
   </g>
   <g id="line2d_14">
    <path clip-path="url(#paea6566f14)" d="M 338.902838 147.992397 
L 337.632058 148.215961 
L 336.350333 148.441451 
L 335.057761 148.668849 
" style="fill:none;stroke:#000000;stroke-linecap:square;"/>
   </g>
   <g id="line2d_15">
    <path clip-path="url(#paea6566f14)" d="M 341.139541 173.5 
L 339.849157 173.5 
L 338.547659 173.5 
L 337.235147 173.5 
" style="fill:none;stroke:#000000;stroke-linecap:square;"/>
   </g>
   <g id="line2d_16">
    <path clip-path="url(#paea6566f14)" d="M 338.902838 199.007603 
L 337.632058 198.784039 
L 336.350333 198.558549 
L 335.057761 198.331151 
" style="fill:none;stroke:#000000;stroke-linecap:square;"/>
   </g>
   <g id="line2d_17">
    <path clip-path="url(#paea6566f14)" d="M 332.260691 223.740171 
L 331.048126 223.299835 
L 329.825118 222.855707 
L 328.59176 222.40782 
" style="fill:none;stroke:#000000;stroke-linecap:square;"/>
   </g>
   <g id="line2d_18">
    <path clip-path="url(#paea6566f14)" d="M 321.414916 246.946216 
L 320.297411 246.302488 
L 319.170281 245.653217 
L 318.033612 244.99845 
" style="fill:none;stroke:#000000;stroke-linecap:square;"/>
   </g>
   <g id="line2d_19">
    <path clip-path="url(#paea6566f14)" d="M 306.695059 267.920635 
L 305.706567 267.093075 
L 304.709562 266.258387 
L 303.704119 265.416636 
" style="fill:none;stroke:#000000;stroke-linecap:square;"/>
   </g>
   <g id="line2d_20">
    <path clip-path="url(#paea6566f14)" d="M 288.548374 286.026131 
L 287.718931 285.039883 
L 286.882344 284.045141 
L 286.038677 283.041981 
" style="fill:none;stroke:#000000;stroke-linecap:square;"/>
   </g>
   <g id="line2d_21">
    <path clip-path="url(#paea6566f14)" d="M 267.526239 300.712578 
L 266.881046 299.597609 
L 266.230298 298.473037 
L 265.574041 297.338948 
" style="fill:none;stroke:#000000;stroke-linecap:square;"/>
   </g>
   <g id="line2d_22">
    <path clip-path="url(#paea6566f14)" d="M 244.267401 311.533734 
L 243.826063 310.323922 
L 243.380925 309.10369 
L 242.932019 307.873132 
" style="fill:none;stroke:#000000;stroke-linecap:square;"/>
   </g>
   <g id="line2d_23">
    <path clip-path="url(#paea6566f14)" d="M 219.478568 318.160806 
L 219.254495 316.89291 
L 219.028492 315.614094 
L 218.800577 314.324456 
" style="fill:none;stroke:#000000;stroke-linecap:square;"/>
   </g>
   <g id="line2d_24">
    <path clip-path="url(#paea6566f14)" d="M 193.912936 320.392432 
L 193.912936 319.104977 
L 193.912936 317.806433 
L 193.912936 316.4969 
" style="fill:none;stroke:#000000;stroke-linecap:square;"/>
   </g>
   <g id="line2d_25">
    <path clip-path="url(#paea6566f14)" d="M 168.347304 318.160806 
L 168.571377 316.89291 
L 168.79738 315.614094 
L 169.025295 314.324456 
" style="fill:none;stroke:#000000;stroke-linecap:square;"/>
   </g>
   <g id="line2d_26">
    <path clip-path="url(#paea6566f14)" d="M 143.558471 311.533734 
L 143.999808 310.323922 
L 144.444947 309.10369 
L 144.893853 307.873132 
" style="fill:none;stroke:#000000;stroke-linecap:square;"/>
   </g>
   <g id="line2d_27">
    <path clip-path="url(#paea6566f14)" d="M 120.299633 300.712578 
L 120.944825 299.597609 
L 121.595574 298.473037 
L 122.25183 297.338948 
" style="fill:none;stroke:#000000;stroke-linecap:square;"/>
   </g>
   <g id="line2d_28">
    <path clip-path="url(#paea6566f14)" d="M 99.277498 286.026131 
L 100.106941 285.039883 
L 100.943528 284.045141 
L 101.787194 283.041981 
" style="fill:none;stroke:#000000;stroke-linecap:square;"/>
   </g>
   <g id="line2d_29">
    <path clip-path="url(#paea6566f14)" d="M 81.130813 267.920635 
L 82.119304 267.093075 
L 83.116309 266.258387 
L 84.121752 265.416636 
" style="fill:none;stroke:#000000;stroke-linecap:square;"/>
   </g>
   <g id="line2d_30">
    <path clip-path="url(#paea6566f14)" d="M 66.410955 246.946216 
L 67.528461 246.302488 
L 68.655591 245.653217 
L 69.79226 244.99845 
" style="fill:none;stroke:#000000;stroke-linecap:square;"/>
   </g>
   <g id="line2d_31">
    <path clip-path="url(#paea6566f14)" d="M 55.565181 223.740171 
L 56.777745 223.299835 
L 58.000753 222.855707 
L 59.234111 222.40782 
" style="fill:none;stroke:#000000;stroke-linecap:square;"/>
   </g>
   <g id="line2d_32">
    <path clip-path="url(#paea6566f14)" d="M 48.923033 199.007603 
L 50.193814 198.784039 
L 51.475539 198.558549 
L 52.768111 198.331151 
" style="fill:none;stroke:#000000;stroke-linecap:square;"/>
   </g>
   <g id="line2d_33">
    <path clip-path="url(#paea6566f14)" d="M 46.68633 173.5 
L 47.976714 173.5 
L 49.278212 173.5 
L 50.590724 173.5 
" style="fill:none;stroke:#000000;stroke-linecap:square;"/>
   </g>
   <g id="line2d_34">
    <path clip-path="url(#paea6566f14)" d="M 48.923033 147.992397 
L 50.193814 148.215961 
L 51.475539 148.441451 
L 52.768111 148.668849 
" style="fill:none;stroke:#000000;stroke-linecap:square;"/>
   </g>
   <g id="line2d_35">
    <path clip-path="url(#paea6566f14)" d="M 55.565181 123.259829 
L 56.777745 123.700165 
L 58.000753 124.144293 
L 59.234111 124.59218 
" style="fill:none;stroke:#000000;stroke-linecap:square;"/>
   </g>
   <g id="line2d_36">
    <path clip-path="url(#paea6566f14)" d="M 66.410955 100.053784 
L 67.528461 100.697512 
L 68.655591 101.346783 
L 69.79226 102.00155 
" style="fill:none;stroke:#000000;stroke-linecap:square;"/>
   </g>
   <g id="line2d_37">
    <path clip-path="url(#paea6566f14)" d="M 81.130813 79.079365 
L 82.119304 79.906925 
L 83.116309 80.741613 
L 84.121752 81.583364 
" style="fill:none;stroke:#000000;stroke-linecap:square;"/>
   </g>
   <g id="line2d_38">
    <path clip-path="url(#paea6566f14)" d="M 99.277498 60.973869 
L 100.106941 61.960117 
L 100.943528 62.954859 
L 101.787194 63.958019 
" style="fill:none;stroke:#000000;stroke-linecap:square;"/>
   </g>
   <g id="line2d_39">
    <path clip-path="url(#paea6566f14)" d="M 120.299633 46.287422 
L 120.944825 47.402391 
L 121.595574 48.526963 
L 122.25183 49.661052 
" style="fill:none;stroke:#000000;stroke-linecap:square;"/>
   </g>
   <g id="line2d_40">
    <path clip-path="url(#paea6566f14)" d="M 143.558471 35.466266 
L 143.999808 36.676078 
L 144.444947 37.89631 
L 144.893853 39.126868 
" style="fill:none;stroke:#000000;stroke-linecap:square;"/>
   </g>
   <g id="line2d_41">
    <path clip-path="url(#paea6566f14)" d="M 168.347304 28.839194 
L 168.571377 30.10709 
L 168.79738 31.385906 
L 169.025295 32.675544 
" style="fill:none;stroke:#000000;stroke-linecap:square;"/>
   </g>
   <g id="line2d_42">
    <path clip-path="url(#paea6566f14)" d="M 242.791107 205.834269 
L 243.255075 206.037903 
L 243.732513 206.209777 
L 244.22156 206.349142 
L 244.720297 206.455372 
L 245.226761 206.527972 
L 245.738946 206.566578 
L 246.254816 206.570965 
L 246.772311 206.541044 
L 247.289354 206.476865 
L 247.803864 206.378618 
L 248.31376 206.246635 
L 248.816975 206.081387 
L 249.311461 205.883483 
L 249.795197 205.653672 
L 250.266205 205.392837 
L 250.722551 205.101991 
L 251.162358 204.782277 
L 251.583814 204.434963 
L 251.985182 204.061434 
L 252.364804 203.663189 
L 252.721112 203.241833 
L 253.052634 202.799071 
L 253.358002 202.336701 
L 253.635958 201.856606 
L 253.885359 201.360744 
L 254.105183 200.851142 
L 254.294534 200.329885 
L 254.452644 199.799105 
L 254.57888 199.260975 
L 254.672743 198.717697 
L 254.733873 198.171494 
L 254.762046 197.624594 
L 254.757181 197.079228 
L 254.719333 196.537616 
L 254.648698 196.001956 
L 254.545605 195.474417 
L 254.410522 194.957127 
L 254.244045 194.452168 
L 254.046902 193.961561 
L 253.819941 193.487264 
L 253.564133 193.031159 
L 253.280563 192.595048 
L 252.970425 192.180642 
L 252.635017 191.78956 
L 252.275731 191.423317 
L 251.894054 191.083322 
L 251.491554 190.770874 
L 251.069875 190.487153 
L 250.63073 190.23322 
L 250.175896 190.010016 
L 249.707201 189.818352 
L 249.226521 189.658913 
L 248.735768 189.532255 
L 248.236887 189.438802 
L 247.731846 189.378849 
L 247.222627 189.352558 
L 246.711219 189.359961 
L 246.199613 189.400963 
L 245.689792 189.475338 
L 245.183724 189.582734 
L 244.683355 189.722676 
L 244.190605 189.894567 
L 243.707356 190.097693 
L 243.23545 190.331223 
L 242.77668 190.594216 
L 242.332787 190.885623 
L 241.905451 191.204292 
L 241.496287 191.548973 
L 241.10684 191.918322 
L 240.738578 192.310906 
L 240.392891 192.725209 
L 240.071081 193.159637 
L 239.774366 193.612523 
L 239.503865 194.082135 
L 239.260604 194.566679 
L 239.045509 195.064307 
L 238.859401 195.573124 
L 238.702996 196.091193 
L 238.576901 196.616542 
L 238.481613 197.14717 
L 238.417514 197.681056 
L 238.384874 198.216163 
L 238.383846 198.750448 
L 238.414468 199.281865 
L 238.476658 199.808378 
L 238.570218 200.327961 
L 238.694834 200.838611 
L 238.850073 201.338352 
L 239.035385 201.825244 
L 239.250108 202.297388 
L 239.493464 202.752936 
L 239.764565 203.190095 
L 240.062414 203.607136 
L 240.385906 204.002401 
L 240.733836 204.374306 
L 241.104897 204.721354 
L 241.497689 205.042136 
L 241.910719 205.335339 
L 242.342411 205.599751 
L 242.791107 205.834269 
" style="fill:none;stroke:#0000ff;stroke-linecap:square;"/>
   </g>
   <g id="line2d_43">
    <path clip-path="url(#paea6566f14)" d="M 265.662112 231.194947 
L 266.324455 231.569089 
L 267.016397 231.891822 
L 267.735357 232.161549 
L 268.478608 232.376866 
L 269.24329 232.536575 
L 270.026414 232.639692 
L 270.824877 232.685457 
L 271.63547 232.673343 
L 272.454894 232.603063 
L 273.279773 232.474579 
L 274.10667 232.288107 
L 274.9321 232.044118 
L 275.752553 231.743348 
L 276.564504 231.386793 
L 277.364439 230.97571 
L 278.14887 230.511619 
L 278.914352 229.996293 
L 279.657511 229.43176 
L 280.375053 228.820288 
L 281.063791 228.164381 
L 281.720662 227.466765 
L 282.342742 226.730377 
L 282.927267 225.958347 
L 283.47165 225.153987 
L 283.973493 224.320771 
L 284.430603 223.462311 
L 284.841006 222.582347 
L 285.202954 221.684718 
L 285.514935 220.773342 
L 285.775685 219.852198 
L 285.984188 218.925295 
L 286.139679 217.996661 
L 286.241652 217.07031 
L 286.289854 216.150226 
L 286.284284 215.240341 
L 286.225192 214.344513 
L 286.113072 213.466508 
L 285.948652 212.609979 
L 285.732894 211.778453 
L 285.466977 210.97531 
L 285.152288 210.203773 
L 284.790416 209.466893 
L 284.383132 208.767536 
L 283.932382 208.108376 
L 283.440273 207.491884 
L 282.909055 206.920324 
L 282.341116 206.395741 
L 281.738957 205.919967 
L 281.105191 205.494608 
L 280.442516 205.121049 
L 279.753714 204.800451 
L 279.04163 204.533751 
L 278.309162 204.321665 
L 277.559249 204.164692 
L 276.794859 204.063112 
L 276.018976 204.016996 
L 275.234594 204.026208 
L 274.444702 204.090409 
L 273.652275 204.209064 
L 272.860267 204.381448 
L 272.0716 204.606653 
L 271.289159 204.883594 
L 270.515779 205.211014 
L 269.754244 205.587493 
L 269.007274 206.011456 
L 268.277522 206.481177 
L 267.567569 206.994789 
L 266.879913 207.55029 
L 266.21697 208.145552 
L 265.581062 208.778324 
L 264.974418 209.446243 
L 264.399165 210.146843 
L 263.857324 210.877555 
L 263.350808 211.635723 
L 262.881413 212.418604 
L 262.450819 213.22338 
L 262.060581 214.047163 
L 261.712129 214.887004 
L 261.40676 215.739898 
L 261.145637 216.602794 
L 260.929784 217.4726 
L 260.760082 218.346196 
L 260.637267 219.220434 
L 260.561923 220.092154 
L 260.534482 220.958185 
L 260.555218 221.815361 
L 260.624246 222.660524 
L 260.741518 223.490534 
L 260.906819 224.302282 
L 261.119767 225.092693 
L 261.379808 225.858744 
L 261.686217 226.597468 
L 262.038094 227.305964 
L 262.434365 227.981413 
L 262.87378 228.621084 
L 263.354916 229.222349 
L 263.876173 229.782692 
L 264.435781 230.299718 
L 265.031796 230.771173 
L 265.662112 231.194947 
" style="fill:none;stroke:#ff0000;stroke-linecap:square;"/>
   </g>
   <g id="legend_1">
    <g id="patch_2">
     <path d="M 76.028873 55.6275 
L 311.796998 55.6275 
L 311.796998 16.8 
L 76.028873 16.8 
z
" style="fill:#ffffff;stroke:#000000;stroke-linejoin:miter;"/>
    </g>
    <g id="PathCollection_3">
     <path d="M 84.428873 29.804193 
C 85.021885 29.804193 85.590689 29.568587 86.010012 29.149264 
C 86.429335 28.729941 86.664941 28.161137 86.664941 27.568125 
C 86.664941 26.975113 86.429335 26.406309 86.010012 25.986986 
C 85.590689 25.567663 85.021885 25.332057 84.428873 25.332057 
C 83.835861 25.332057 83.267057 25.567663 82.847734 25.986986 
C 82.428412 26.406309 82.192805 26.975113 82.192805 27.568125 
C 82.192805 28.161137 82.428412 28.729941 82.847734 29.149264 
C 83.267057 29.568587 83.835861 29.804193 84.428873 29.804193 
z
" style="fill:#ffffff;stroke:#0000ff;"/>
     <path d="M 92.828873 28.754193 
C 93.421885 28.754193 93.990689 28.518587 94.410012 28.099264 
C 94.829335 27.679941 95.064941 27.111137 95.064941 26.518125 
C 95.064941 25.925113 94.829335 25.356309 94.410012 24.936986 
C 93.990689 24.517663 93.421885 24.282057 92.828873 24.282057 
C 92.235861 24.282057 91.667057 24.517663 91.247734 24.936986 
C 90.828412 25.356309 90.592805 25.925113 90.592805 26.518125 
C 90.592805 27.111137 90.828412 27.679941 91.247734 28.099264 
C 91.667057 28.518587 92.235861 28.754193 92.828873 28.754193 
z
" style="fill:#ffffff;stroke:#0000ff;"/>
     <path d="M 101.228873 30.329193 
C 101.821885 30.329193 102.390689 30.093587 102.810012 29.674264 
C 103.229335 29.254941 103.464941 28.686137 103.464941 28.093125 
C 103.464941 27.500113 103.229335 26.931309 102.810012 26.511986 
C 102.390689 26.092663 101.821885 25.857057 101.228873 25.857057 
C 100.635861 25.857057 100.067057 26.092663 99.647734 26.511986 
C 99.228412 26.931309 98.992805 27.500113 98.992805 28.093125 
C 98.992805 28.686137 99.228412 29.254941 99.647734 29.674264 
C 100.067057 30.093587 100.635861 30.329193 101.228873 30.329193 
z
" style="fill:#ffffff;stroke:#0000ff;"/>
    </g>
    <g id="text_1">
     <!-- Halls (1974) tilt-corrected mean -->
     <defs>
      <path id="BitstreamVeraSans-Roman-20"/>
      <path d="M 12.40625 8.296875 
L 28.515625 8.296875 
L 28.515625 63.921875 
L 10.984375 60.40625 
L 10.984375 69.390625 
L 28.421875 72.90625 
L 38.28125 72.90625 
L 38.28125 8.296875 
L 54.390625 8.296875 
L 54.390625 0 
L 12.40625 0 
z
" id="BitstreamVeraSans-Roman-31"/>
      <path d="M 8.203125 72.90625 
L 55.078125 72.90625 
L 55.078125 68.703125 
L 28.609375 0 
L 18.3125 0 
L 43.21875 64.59375 
L 8.203125 64.59375 
z
" id="BitstreamVeraSans-Roman-37"/>
      <path d="M 37.796875 64.3125 
L 12.890625 25.390625 
L 37.796875 25.390625 
z
M 35.203125 72.90625 
L 47.609375 72.90625 
L 47.609375 25.390625 
L 58.015625 25.390625 
L 58.015625 17.1875 
L 47.609375 17.1875 
L 47.609375 0 
L 37.796875 0 
L 37.796875 17.1875 
L 4.890625 17.1875 
L 4.890625 26.703125 
z
" id="BitstreamVeraSans-Roman-34"/>
      <path d="M 8.015625 75.875 
L 15.828125 75.875 
Q 23.140625 64.359375 26.78125 53.3125 
Q 30.421875 42.28125 30.421875 31.390625 
Q 30.421875 20.453125 26.78125 9.375 
Q 23.140625 -1.703125 15.828125 -13.1875 
L 8.015625 -13.1875 
Q 14.5 -2 17.703125 9.0625 
Q 20.90625 20.125 20.90625 31.390625 
Q 20.90625 42.671875 17.703125 53.65625 
Q 14.5 64.65625 8.015625 75.875 
" id="BitstreamVeraSans-Roman-29"/>
      <path d="M 31 75.875 
Q 24.46875 64.65625 21.28125 53.65625 
Q 18.109375 42.671875 18.109375 31.390625 
Q 18.109375 20.125 21.3125 9.0625 
Q 24.515625 -2 31 -13.1875 
L 23.1875 -13.1875 
Q 15.875 -1.703125 12.234375 9.375 
Q 8.59375 20.453125 8.59375 31.390625 
Q 8.59375 42.28125 12.203125 53.3125 
Q 15.828125 64.359375 23.1875 75.875 
z
" id="BitstreamVeraSans-Roman-28"/>
      <path d="M 10.984375 1.515625 
L 10.984375 10.5 
Q 14.703125 8.734375 18.5 7.8125 
Q 22.3125 6.890625 25.984375 6.890625 
Q 35.75 6.890625 40.890625 13.453125 
Q 46.046875 20.015625 46.78125 33.40625 
Q 43.953125 29.203125 39.59375 26.953125 
Q 35.25 24.703125 29.984375 24.703125 
Q 19.046875 24.703125 12.671875 31.3125 
Q 6.296875 37.9375 6.296875 49.421875 
Q 6.296875 60.640625 12.9375 67.421875 
Q 19.578125 74.21875 30.609375 74.21875 
Q 43.265625 74.21875 49.921875 64.515625 
Q 56.59375 54.828125 56.59375 36.375 
Q 56.59375 19.140625 48.40625 8.859375 
Q 40.234375 -1.421875 26.421875 -1.421875 
Q 22.703125 -1.421875 18.890625 -0.6875 
Q 15.09375 0.046875 10.984375 1.515625 
M 30.609375 32.421875 
Q 37.25 32.421875 41.125 36.953125 
Q 45.015625 41.5 45.015625 49.421875 
Q 45.015625 57.28125 41.125 61.84375 
Q 37.25 66.40625 30.609375 66.40625 
Q 23.96875 66.40625 20.09375 61.84375 
Q 16.21875 57.28125 16.21875 49.421875 
Q 16.21875 41.5 20.09375 36.953125 
Q 23.96875 32.421875 30.609375 32.421875 
" id="BitstreamVeraSans-Roman-39"/>
      <path d="M 9.421875 75.984375 
L 18.40625 75.984375 
L 18.40625 0 
L 9.421875 0 
z
" id="BitstreamVeraSans-Roman-6c"/>
      <path d="M 54.890625 33.015625 
L 54.890625 0 
L 45.90625 0 
L 45.90625 32.71875 
Q 45.90625 40.484375 42.875 44.328125 
Q 39.84375 48.1875 33.796875 48.1875 
Q 26.515625 48.1875 22.3125 43.546875 
Q 18.109375 38.921875 18.109375 30.90625 
L 18.109375 0 
L 9.078125 0 
L 9.078125 54.6875 
L 18.109375 54.6875 
L 18.109375 46.1875 
Q 21.34375 51.125 25.703125 53.5625 
Q 30.078125 56 35.796875 56 
Q 45.21875 56 50.046875 50.171875 
Q 54.890625 44.34375 54.890625 33.015625 
" id="BitstreamVeraSans-Roman-6e"/>
      <path d="M 30.609375 48.390625 
Q 23.390625 48.390625 19.1875 42.75 
Q 14.984375 37.109375 14.984375 27.296875 
Q 14.984375 17.484375 19.15625 11.84375 
Q 23.34375 6.203125 30.609375 6.203125 
Q 37.796875 6.203125 41.984375 11.859375 
Q 46.1875 17.53125 46.1875 27.296875 
Q 46.1875 37.015625 41.984375 42.703125 
Q 37.796875 48.390625 30.609375 48.390625 
M 30.609375 56 
Q 42.328125 56 49.015625 48.375 
Q 55.71875 40.765625 55.71875 27.296875 
Q 55.71875 13.875 49.015625 6.21875 
Q 42.328125 -1.421875 30.609375 -1.421875 
Q 18.84375 -1.421875 12.171875 6.21875 
Q 5.515625 13.875 5.515625 27.296875 
Q 5.515625 40.765625 12.171875 48.375 
Q 18.84375 56 30.609375 56 
" id="BitstreamVeraSans-Roman-6f"/>
      <path d="M 9.421875 54.6875 
L 18.40625 54.6875 
L 18.40625 0 
L 9.421875 0 
z
M 9.421875 75.984375 
L 18.40625 75.984375 
L 18.40625 64.59375 
L 9.421875 64.59375 
z
" id="BitstreamVeraSans-Roman-69"/>
      <path d="M 4.890625 31.390625 
L 31.203125 31.390625 
L 31.203125 23.390625 
L 4.890625 23.390625 
z
" id="BitstreamVeraSans-Roman-2d"/>
      <path d="M 41.109375 46.296875 
Q 39.59375 47.171875 37.8125 47.578125 
Q 36.03125 48 33.890625 48 
Q 26.265625 48 22.1875 43.046875 
Q 18.109375 38.09375 18.109375 28.8125 
L 18.109375 0 
L 9.078125 0 
L 9.078125 54.6875 
L 18.109375 54.6875 
L 18.109375 46.1875 
Q 20.953125 51.171875 25.484375 53.578125 
Q 30.03125 56 36.53125 56 
Q 37.453125 56 38.578125 55.875 
Q 39.703125 55.765625 41.0625 55.515625 
z
" id="BitstreamVeraSans-Roman-72"/>
      <path d="M 52 44.1875 
Q 55.375 50.25 60.0625 53.125 
Q 64.75 56 71.09375 56 
Q 79.640625 56 84.28125 50.015625 
Q 88.921875 44.046875 88.921875 33.015625 
L 88.921875 0 
L 79.890625 0 
L 79.890625 32.71875 
Q 79.890625 40.578125 77.09375 44.375 
Q 74.3125 48.1875 68.609375 48.1875 
Q 61.625 48.1875 57.5625 43.546875 
Q 53.515625 38.921875 53.515625 30.90625 
L 53.515625 0 
L 44.484375 0 
L 44.484375 32.71875 
Q 44.484375 40.625 41.703125 44.40625 
Q 38.921875 48.1875 33.109375 48.1875 
Q 26.21875 48.1875 22.15625 43.53125 
Q 18.109375 38.875 18.109375 30.90625 
L 18.109375 0 
L 9.078125 0 
L 9.078125 54.6875 
L 18.109375 54.6875 
L 18.109375 46.1875 
Q 21.1875 51.21875 25.484375 53.609375 
Q 29.78125 56 35.6875 56 
Q 41.65625 56 45.828125 52.96875 
Q 50 49.953125 52 44.1875 
" id="BitstreamVeraSans-Roman-6d"/>
      <path d="M 56.203125 29.59375 
L 56.203125 25.203125 
L 14.890625 25.203125 
Q 15.484375 15.921875 20.484375 11.0625 
Q 25.484375 6.203125 34.421875 6.203125 
Q 39.59375 6.203125 44.453125 7.46875 
Q 49.3125 8.734375 54.109375 11.28125 
L 54.109375 2.78125 
Q 49.265625 0.734375 44.1875 -0.34375 
Q 39.109375 -1.421875 33.890625 -1.421875 
Q 20.796875 -1.421875 13.15625 6.1875 
Q 5.515625 13.8125 5.515625 26.8125 
Q 5.515625 40.234375 12.765625 48.109375 
Q 20.015625 56 32.328125 56 
Q 43.359375 56 49.78125 48.890625 
Q 56.203125 41.796875 56.203125 29.59375 
M 47.21875 32.234375 
Q 47.125 39.59375 43.09375 43.984375 
Q 39.0625 48.390625 32.421875 48.390625 
Q 24.90625 48.390625 20.390625 44.140625 
Q 15.875 39.890625 15.1875 32.171875 
z
" id="BitstreamVeraSans-Roman-65"/>
      <path d="M 45.40625 46.390625 
L 45.40625 75.984375 
L 54.390625 75.984375 
L 54.390625 0 
L 45.40625 0 
L 45.40625 8.203125 
Q 42.578125 3.328125 38.25 0.953125 
Q 33.9375 -1.421875 27.875 -1.421875 
Q 17.96875 -1.421875 11.734375 6.484375 
Q 5.515625 14.40625 5.515625 27.296875 
Q 5.515625 40.1875 11.734375 48.09375 
Q 17.96875 56 27.875 56 
Q 33.9375 56 38.25 53.625 
Q 42.578125 51.265625 45.40625 46.390625 
M 14.796875 27.296875 
Q 14.796875 17.390625 18.875 11.75 
Q 22.953125 6.109375 30.078125 6.109375 
Q 37.203125 6.109375 41.296875 11.75 
Q 45.40625 17.390625 45.40625 27.296875 
Q 45.40625 37.203125 41.296875 42.84375 
Q 37.203125 48.484375 30.078125 48.484375 
Q 22.953125 48.484375 18.875 42.84375 
Q 14.796875 37.203125 14.796875 27.296875 
" id="BitstreamVeraSans-Roman-64"/>
      <path d="M 18.3125 70.21875 
L 18.3125 54.6875 
L 36.8125 54.6875 
L 36.8125 47.703125 
L 18.3125 47.703125 
L 18.3125 18.015625 
Q 18.3125 11.328125 20.140625 9.421875 
Q 21.96875 7.515625 27.59375 7.515625 
L 36.8125 7.515625 
L 36.8125 0 
L 27.59375 0 
Q 17.1875 0 13.234375 3.875 
Q 9.28125 7.765625 9.28125 18.015625 
L 9.28125 47.703125 
L 2.6875 47.703125 
L 2.6875 54.6875 
L 9.28125 54.6875 
L 9.28125 70.21875 
z
" id="BitstreamVeraSans-Roman-74"/>
      <path d="M 34.28125 27.484375 
Q 23.390625 27.484375 19.1875 25 
Q 14.984375 22.515625 14.984375 16.5 
Q 14.984375 11.71875 18.140625 8.90625 
Q 21.296875 6.109375 26.703125 6.109375 
Q 34.1875 6.109375 38.703125 11.40625 
Q 43.21875 16.703125 43.21875 25.484375 
L 43.21875 27.484375 
z
M 52.203125 31.203125 
L 52.203125 0 
L 43.21875 0 
L 43.21875 8.296875 
Q 40.140625 3.328125 35.546875 0.953125 
Q 30.953125 -1.421875 24.3125 -1.421875 
Q 15.921875 -1.421875 10.953125 3.296875 
Q 6 8.015625 6 15.921875 
Q 6 25.140625 12.171875 29.828125 
Q 18.359375 34.515625 30.609375 34.515625 
L 43.21875 34.515625 
L 43.21875 35.40625 
Q 43.21875 41.609375 39.140625 45 
Q 35.0625 48.390625 27.6875 48.390625 
Q 23 48.390625 18.546875 47.265625 
Q 14.109375 46.140625 10.015625 43.890625 
L 10.015625 52.203125 
Q 14.9375 54.109375 19.578125 55.046875 
Q 24.21875 56 28.609375 56 
Q 40.484375 56 46.34375 49.84375 
Q 52.203125 43.703125 52.203125 31.203125 
" id="BitstreamVeraSans-Roman-61"/>
      <path d="M 44.28125 53.078125 
L 44.28125 44.578125 
Q 40.484375 46.53125 36.375 47.5 
Q 32.28125 48.484375 27.875 48.484375 
Q 21.1875 48.484375 17.84375 46.4375 
Q 14.5 44.390625 14.5 40.28125 
Q 14.5 37.15625 16.890625 35.375 
Q 19.28125 33.59375 26.515625 31.984375 
L 29.59375 31.296875 
Q 39.15625 29.25 43.1875 25.515625 
Q 47.21875 21.78125 47.21875 15.09375 
Q 47.21875 7.46875 41.1875 3.015625 
Q 35.15625 -1.421875 24.609375 -1.421875 
Q 20.21875 -1.421875 15.453125 -0.5625 
Q 10.6875 0.296875 5.421875 2 
L 5.421875 11.28125 
Q 10.40625 8.6875 15.234375 7.390625 
Q 20.0625 6.109375 24.8125 6.109375 
Q 31.15625 6.109375 34.5625 8.28125 
Q 37.984375 10.453125 37.984375 14.40625 
Q 37.984375 18.0625 35.515625 20.015625 
Q 33.0625 21.96875 24.703125 23.78125 
L 21.578125 24.515625 
Q 13.234375 26.265625 9.515625 29.90625 
Q 5.8125 33.546875 5.8125 39.890625 
Q 5.8125 47.609375 11.28125 51.796875 
Q 16.75 56 26.8125 56 
Q 31.78125 56 36.171875 55.265625 
Q 40.578125 54.546875 44.28125 53.078125 
" id="BitstreamVeraSans-Roman-73"/>
      <path d="M 48.78125 52.59375 
L 48.78125 44.1875 
Q 44.96875 46.296875 41.140625 47.34375 
Q 37.3125 48.390625 33.40625 48.390625 
Q 24.65625 48.390625 19.8125 42.84375 
Q 14.984375 37.3125 14.984375 27.296875 
Q 14.984375 17.28125 19.8125 11.734375 
Q 24.65625 6.203125 33.40625 6.203125 
Q 37.3125 6.203125 41.140625 7.25 
Q 44.96875 8.296875 48.78125 10.40625 
L 48.78125 2.09375 
Q 45.015625 0.34375 40.984375 -0.53125 
Q 36.96875 -1.421875 32.421875 -1.421875 
Q 20.0625 -1.421875 12.78125 6.34375 
Q 5.515625 14.109375 5.515625 27.296875 
Q 5.515625 40.671875 12.859375 48.328125 
Q 20.21875 56 33.015625 56 
Q 37.15625 56 41.109375 55.140625 
Q 45.0625 54.296875 48.78125 52.59375 
" id="BitstreamVeraSans-Roman-63"/>
      <path d="M 9.8125 72.90625 
L 19.671875 72.90625 
L 19.671875 43.015625 
L 55.515625 43.015625 
L 55.515625 72.90625 
L 65.375 72.90625 
L 65.375 0 
L 55.515625 0 
L 55.515625 34.71875 
L 19.671875 34.71875 
L 19.671875 0 
L 9.8125 0 
z
" id="BitstreamVeraSans-Roman-48"/>
     </defs>
     <g transform="translate(114.428873299 30.718125)scale(0.12 -0.12)">
      <use xlink:href="#BitstreamVeraSans-Roman-48"/>
      <use x="75.1953125" xlink:href="#BitstreamVeraSans-Roman-61"/>
      <use x="136.474609375" xlink:href="#BitstreamVeraSans-Roman-6c"/>
      <use x="164.2578125" xlink:href="#BitstreamVeraSans-Roman-6c"/>
      <use x="192.041015625" xlink:href="#BitstreamVeraSans-Roman-73"/>
      <use x="244.140625" xlink:href="#BitstreamVeraSans-Roman-20"/>
      <use x="275.927734375" xlink:href="#BitstreamVeraSans-Roman-28"/>
      <use x="314.94140625" xlink:href="#BitstreamVeraSans-Roman-31"/>
      <use x="378.564453125" xlink:href="#BitstreamVeraSans-Roman-39"/>
      <use x="442.1875" xlink:href="#BitstreamVeraSans-Roman-37"/>
      <use x="505.810546875" xlink:href="#BitstreamVeraSans-Roman-34"/>
      <use x="569.43359375" xlink:href="#BitstreamVeraSans-Roman-29"/>
      <use x="608.447265625" xlink:href="#BitstreamVeraSans-Roman-20"/>
      <use x="640.234375" xlink:href="#BitstreamVeraSans-Roman-74"/>
      <use x="679.443359375" xlink:href="#BitstreamVeraSans-Roman-69"/>
      <use x="707.2265625" xlink:href="#BitstreamVeraSans-Roman-6c"/>
      <use x="735.009765625" xlink:href="#BitstreamVeraSans-Roman-74"/>
      <use x="774.21875" xlink:href="#BitstreamVeraSans-Roman-2d"/>
      <use x="810.302734375" xlink:href="#BitstreamVeraSans-Roman-63"/>
      <use x="865.283203125" xlink:href="#BitstreamVeraSans-Roman-6f"/>
      <use x="926.46484375" xlink:href="#BitstreamVeraSans-Roman-72"/>
      <use x="967.5625" xlink:href="#BitstreamVeraSans-Roman-72"/>
      <use x="1008.64453125" xlink:href="#BitstreamVeraSans-Roman-65"/>
      <use x="1070.16796875" xlink:href="#BitstreamVeraSans-Roman-63"/>
      <use x="1125.1484375" xlink:href="#BitstreamVeraSans-Roman-74"/>
      <use x="1164.35742188" xlink:href="#BitstreamVeraSans-Roman-65"/>
      <use x="1225.88085938" xlink:href="#BitstreamVeraSans-Roman-64"/>
      <use x="1289.35742188" xlink:href="#BitstreamVeraSans-Roman-20"/>
      <use x="1321.14453125" xlink:href="#BitstreamVeraSans-Roman-6d"/>
      <use x="1418.55664062" xlink:href="#BitstreamVeraSans-Roman-65"/>
      <use x="1480.08007812" xlink:href="#BitstreamVeraSans-Roman-61"/>
      <use x="1541.359375" xlink:href="#BitstreamVeraSans-Roman-6e"/>
     </g>
    </g>
    <g id="PathCollection_4">
     <path d="M 84.428873 47.417943 
C 85.021885 47.417943 85.590689 47.182337 86.010012 46.763014 
C 86.429335 46.343691 86.664941 45.774887 86.664941 45.181875 
C 86.664941 44.588863 86.429335 44.020059 86.010012 43.600736 
C 85.590689 43.181413 85.021885 42.945807 84.428873 42.945807 
C 83.835861 42.945807 83.267057 43.181413 82.847734 43.600736 
C 82.428412 44.020059 82.192805 44.588863 82.192805 45.181875 
C 82.192805 45.774887 82.428412 46.343691 82.847734 46.763014 
C 83.267057 47.182337 83.835861 47.417943 84.428873 47.417943 
z
" style="fill:#ffffff;stroke:#ff0000;"/>
     <path d="M 92.828873 46.367943 
C 93.421885 46.367943 93.990689 46.132337 94.410012 45.713014 
C 94.829335 45.293691 95.064941 44.724887 95.064941 44.131875 
C 95.064941 43.538863 94.829335 42.970059 94.410012 42.550736 
C 93.990689 42.131413 93.421885 41.895807 92.828873 41.895807 
C 92.235861 41.895807 91.667057 42.131413 91.247734 42.550736 
C 90.828412 42.970059 90.592805 43.538863 90.592805 44.131875 
C 90.592805 44.724887 90.828412 45.293691 91.247734 45.713014 
C 91.667057 46.132337 92.235861 46.367943 92.828873 46.367943 
z
" style="fill:#ffffff;stroke:#ff0000;"/>
     <path d="M 101.228873 47.942943 
C 101.821885 47.942943 102.390689 47.707337 102.810012 47.288014 
C 103.229335 46.868691 103.464941 46.299887 103.464941 45.706875 
C 103.464941 45.113863 103.229335 44.545059 102.810012 44.125736 
C 102.390689 43.706413 101.821885 43.470807 101.228873 43.470807 
C 100.635861 43.470807 100.067057 43.706413 99.647734 44.125736 
C 99.228412 44.545059 98.992805 45.113863 98.992805 45.706875 
C 98.992805 46.299887 99.228412 46.868691 99.647734 47.288014 
C 100.067057 47.707337 100.635861 47.942943 101.228873 47.942943 
z
" style="fill:#ffffff;stroke:#ff0000;"/>
    </g>
    <g id="text_2">
     <!-- Halls (1974) insitu mean -->
     <defs>
      <path d="M 8.5 21.578125 
L 8.5 54.6875 
L 17.484375 54.6875 
L 17.484375 21.921875 
Q 17.484375 14.15625 20.5 10.265625 
Q 23.53125 6.390625 29.59375 6.390625 
Q 36.859375 6.390625 41.078125 11.03125 
Q 45.3125 15.671875 45.3125 23.6875 
L 45.3125 54.6875 
L 54.296875 54.6875 
L 54.296875 0 
L 45.3125 0 
L 45.3125 8.40625 
Q 42.046875 3.421875 37.71875 1 
Q 33.40625 -1.421875 27.6875 -1.421875 
Q 18.265625 -1.421875 13.375 4.4375 
Q 8.5 10.296875 8.5 21.578125 
" id="BitstreamVeraSans-Roman-75"/>
     </defs>
     <g transform="translate(114.428873299 48.331875)scale(0.12 -0.12)">
      <use xlink:href="#BitstreamVeraSans-Roman-48"/>
      <use x="75.1953125" xlink:href="#BitstreamVeraSans-Roman-61"/>
      <use x="136.474609375" xlink:href="#BitstreamVeraSans-Roman-6c"/>
      <use x="164.2578125" xlink:href="#BitstreamVeraSans-Roman-6c"/>
      <use x="192.041015625" xlink:href="#BitstreamVeraSans-Roman-73"/>
      <use x="244.140625" xlink:href="#BitstreamVeraSans-Roman-20"/>
      <use x="275.927734375" xlink:href="#BitstreamVeraSans-Roman-28"/>
      <use x="314.94140625" xlink:href="#BitstreamVeraSans-Roman-31"/>
      <use x="378.564453125" xlink:href="#BitstreamVeraSans-Roman-39"/>
      <use x="442.1875" xlink:href="#BitstreamVeraSans-Roman-37"/>
      <use x="505.810546875" xlink:href="#BitstreamVeraSans-Roman-34"/>
      <use x="569.43359375" xlink:href="#BitstreamVeraSans-Roman-29"/>
      <use x="608.447265625" xlink:href="#BitstreamVeraSans-Roman-20"/>
      <use x="640.234375" xlink:href="#BitstreamVeraSans-Roman-69"/>
      <use x="668.017578125" xlink:href="#BitstreamVeraSans-Roman-6e"/>
      <use x="731.396484375" xlink:href="#BitstreamVeraSans-Roman-73"/>
      <use x="783.49609375" xlink:href="#BitstreamVeraSans-Roman-69"/>
      <use x="811.279296875" xlink:href="#BitstreamVeraSans-Roman-74"/>
      <use x="850.48828125" xlink:href="#BitstreamVeraSans-Roman-75"/>
      <use x="913.8671875" xlink:href="#BitstreamVeraSans-Roman-20"/>
      <use x="945.654296875" xlink:href="#BitstreamVeraSans-Roman-6d"/>
      <use x="1043.06640625" xlink:href="#BitstreamVeraSans-Roman-65"/>
      <use x="1104.58984375" xlink:href="#BitstreamVeraSans-Roman-61"/>
      <use x="1165.86914062" xlink:href="#BitstreamVeraSans-Roman-6e"/>
     </g>
    </g>
   </g>
  </g>
 </g>
 <defs>
  <clipPath id="paea6566f14">
   <rect height="325.4" width="309.175871599" x="39.325" y="10.8"/>
  </clipPath>
 </defs>
</svg>
