<?xml version="1.0" encoding="utf-8" standalone="no"?>
<!DOCTYPE svg PUBLIC "-//W3C//DTD SVG 1.1//EN"
  "http://www.w3.org/Graphics/SVG/1.1/DTD/svg11.dtd">
<!-- Created with matplotlib (http://matplotlib.org/) -->
<svg height="160pt" version="1.1" viewBox="0 0 497 160" width="497pt" xmlns="http://www.w3.org/2000/svg" xmlns:xlink="http://www.w3.org/1999/xlink">
 <defs>
  <style type="text/css">
*{stroke-linecap:butt;stroke-linejoin:round;stroke-miterlimit:100000;}
  </style>
 </defs>
 <g id="figure_1">
  <g id="patch_1">
   <path d="M 0 160.095313 
L 497.201563 160.095313 
L 497.201563 0 
L 0 0 
L 0 160.095313 
z
" style="fill:none;"/>
  </g>
  <g id="axes_1">
   <g id="patch_2">
    <path d="M 41.78125 124.539063 
L 153.25 124.539063 
L 153.25 12.039063 
L 41.78125 12.039063 
z
" style="fill:#ffffff;"/>
   </g>
   <g id="line2d_1">
    <path clip-path="url(#pc6fcff5d23)" d="M 55.140541 124.539063 
L 57.133058 124.494063 
L 63.155586 124.359063 
L 64.891518 124.201563 
L 65.300042 124.156563 
L 69.746899 123.391563 
L 70.238568 123.211563 
L 71.24525 122.941563 
L 71.954032 122.761563 
L 72.678125 122.604063 
L 73.787486 122.244063 
L 73.954737 122.131563 
L 74.200923 121.906563 
L 75.095078 121.546563 
L 75.613212 121.321563 
L 75.712597 121.231563 
L 76.639597 120.556563 
L 76.866794 120.421563 
L 77.04161 120.264063 
L 77.340349 119.949063 
L 77.513008 119.881563 
L 77.856459 119.589063 
L 77.993601 119.521563 
L 78.614072 119.026563 
L 78.83634 118.824063 
L 78.986951 118.644063 
L 79.799993 117.654063 
L 79.864285 117.564063 
L 80.027869 117.429063 
L 80.145648 117.226563 
L 81.441837 115.876563 
L 81.620306 115.606563 
L 81.721269 115.449063 
L 81.837893 115.269063 
L 81.942246 115.111563 
L 82.120569 114.864063 
L 82.719261 114.234063 
L 82.908851 114.054063 
L 83.171231 113.626563 
L 83.309391 113.379063 
L 83.544107 113.109063 
L 83.704444 112.839063 
L 84.167352 112.006563 
L 84.483891 111.736563 
L 84.913489 110.769063 
L 85.004878 110.634063 
L 85.122989 110.431563 
L 85.271734 110.184063 
L 85.443808 109.779063 
L 85.820821 109.081563 
L 85.998399 108.789063 
L 86.238591 108.159063 
L 86.458137 107.754063 
L 86.52597 107.619063 
L 86.5792 107.416563 
L 86.703248 107.056563 
L 87.172673 106.089063 
L 87.318552 105.819063 
L 87.772021 104.739063 
L 89.406915 99.991563 
L 89.593105 99.541563 
L 89.775013 98.889063 
L 89.863622 98.641563 
L 90.163115 97.854063 
L 90.328366 97.269063 
L 90.452531 96.999063 
L 90.560605 96.661563 
L 90.680074 96.459063 
L 90.906739 95.874063 
L 91.039142 95.446563 
L 91.10532 95.289063 
L 91.222259 94.771563 
L 91.296259 94.479063 
L 91.468924 93.916563 
L 91.544601 93.759063 
L 91.948865 92.431563 
L 92.141119 91.756563 
L 92.211348 91.531563 
L 92.792529 89.889063 
L 93.133955 88.651563 
L 93.374922 87.999063 
L 93.79272 86.064063 
L 93.882495 85.749063 
L 95.717448 78.594063 
L 95.89337 77.874063 
L 96.070528 77.109063 
L 96.401721 75.894063 
L 96.467285 75.489063 
L 96.589853 74.724063 
L 97.014813 72.856563 
L 97.146382 72.406563 
L 97.362709 71.461563 
L 97.43167 71.214063 
L 97.561235 70.584063 
L 99.709944 62.079063 
L 100.052784 60.549063 
L 100.129596 60.346563 
L 100.25196 59.986563 
L 100.817549 58.029063 
L 101.234289 56.004063 
L 101.383904 55.464063 
L 101.573049 54.654063 
L 101.673154 54.316563 
L 101.903502 53.394063 
L 102.04535 52.944063 
L 102.198337 52.561563 
L 102.524418 51.144063 
L 102.605793 50.941563 
L 102.72917 50.469063 
L 102.83675 50.064063 
L 102.938142 49.501563 
L 103.03891 49.141563 
L 103.215932 48.601563 
L 103.434357 47.859063 
L 106.976896 35.821563 
L 107.390301 34.921563 
L 107.564263 34.381563 
L 108.006298 32.964063 
L 108.143481 32.626563 
L 108.267902 32.289063 
L 110.864967 25.494063 
L 111.135285 25.134063 
L 111.260228 24.706563 
L 111.630671 23.806563 
L 112.650464 22.119063 
L 112.883241 21.826563 
L 114.553642 19.149063 
L 114.709012 18.901563 
L 115.338711 18.249063 
L 115.554676 18.091563 
L 118.01638 15.369063 
L 118.284987 15.189063 
L 118.791769 14.784063 
L 119.093184 14.604063 
L 119.954467 13.974063 
L 120.357506 13.816563 
L 120.460576 13.749063 
L 121.116576 13.456563 
L 121.975613 13.276563 
L 122.176708 13.141563 
L 122.945687 12.804063 
L 122.970346 12.781563 
L 129.35999 12.106563 
L 133.662116 12.061563 
L 133.662116 12.061563 
" style="fill:none;stroke:#ff0000;stroke-linecap:square;"/>
   </g>
   <g id="line2d_2">
    <path clip-path="url(#pc6fcff5d23)" d="M 74.536738 124.539063 
L 74.536738 12.039063 
" style="fill:none;stroke:#ff0000;stroke-linecap:square;"/>
   </g>
   <g id="line2d_3">
    <path clip-path="url(#pc6fcff5d23)" d="M 118.757191 124.539063 
L 118.757191 12.039063 
" style="fill:none;stroke:#ff0000;stroke-linecap:square;"/>
   </g>
   <g id="line2d_4">
    <path clip-path="url(#pc6fcff5d23)" d="M 76.061695 124.539063 
L 87.174392 124.381563 
L 87.203148 124.359063 
L 91.410256 123.931563 
L 92.563365 123.684063 
L 92.857962 123.616563 
L 93.777228 123.459063 
L 95.323381 123.054063 
L 95.532228 122.964063 
L 96.491147 122.784063 
L 96.991913 122.581563 
L 97.869455 122.109063 
L 98.314118 121.929063 
L 98.50166 121.771563 
L 98.717979 121.614063 
L 98.821055 121.501563 
L 99.074797 121.344063 
L 99.330054 121.141563 
L 100.157782 120.624063 
L 100.294941 120.421563 
L 100.515891 120.219063 
L 100.891477 119.859063 
L 101.390112 119.611563 
L 102.262358 118.846563 
L 102.962136 118.149063 
L 103.106981 117.991563 
L 103.217624 117.834063 
L 103.398405 117.654063 
L 103.559189 117.474063 
L 103.634384 117.316563 
L 103.891998 117.046563 
L 104.255111 116.596563 
L 104.440504 116.371563 
L 104.550494 116.281563 
L 104.724607 116.124063 
L 104.840944 115.966563 
L 104.996124 115.741563 
L 105.533197 114.954063 
L 105.632416 114.594063 
L 105.758003 114.436563 
L 106.018616 113.964063 
L 106.327523 113.536563 
L 106.548292 113.064063 
L 106.891826 112.479063 
L 107.065942 111.916563 
L 107.612786 110.746563 
L 107.770664 110.499063 
L 107.948901 110.071563 
L 108.213155 109.306563 
L 108.492475 108.721563 
L 108.664738 108.316563 
L 108.893268 107.416563 
L 108.979081 107.191563 
L 109.137163 106.809063 
L 109.315325 106.561563 
L 109.472751 106.224063 
L 109.570082 106.021563 
L 109.671844 105.751563 
L 109.755019 105.391563 
L 109.965823 104.761563 
L 110.078085 104.536563 
L 110.180148 104.311563 
L 110.27888 104.086563 
L 110.658033 103.006563 
L 110.770731 102.759063 
L 110.890121 102.466563 
L 111.079935 102.174063 
L 111.217581 101.634063 
L 111.346734 101.341563 
L 111.461021 100.914063 
L 111.517511 100.711563 
L 111.6844 100.149063 
L 111.787986 99.991563 
L 111.949907 99.361563 
L 112.007291 99.159063 
L 112.2447 98.394063 
L 112.331893 98.169063 
L 113.982724 92.814063 
L 114.086379 92.409063 
L 114.250391 92.161563 
L 114.395428 91.621563 
L 114.629909 90.856563 
L 115.018972 89.304063 
L 115.120961 89.034063 
L 115.331545 88.291563 
L 115.388719 88.134063 
L 115.723666 87.121563 
L 115.8918 86.559063 
L 115.987431 86.244063 
L 116.098472 85.771563 
L 116.179491 85.434063 
L 116.381807 84.556563 
L 116.449886 84.354063 
L 116.934118 82.351563 
L 117.156144 81.834063 
L 120.018196 69.909063 
L 120.12805 69.414063 
L 120.312367 68.716563 
L 120.464645 68.176563 
L 120.557594 67.704063 
L 120.70866 67.051563 
L 120.916708 66.354063 
L 121.027761 65.679063 
L 121.291232 64.621563 
L 121.381374 64.261563 
L 121.509598 63.541563 
L 121.563731 63.339063 
L 121.72176 62.641563 
L 126.84617 41.806563 
L 126.898779 41.559063 
L 127.190842 40.501563 
L 127.302447 40.074063 
L 127.739378 38.499063 
L 127.854898 38.094063 
L 128.150571 36.924063 
L 128.293355 36.496563 
L 129.279044 33.706563 
L 129.34668 33.526563 
L 129.452218 33.211563 
L 129.680876 32.491563 
L 129.863778 31.884063 
L 130.060418 31.366563 
L 130.242871 31.029063 
L 130.630658 30.039063 
L 131.430915 27.901563 
L 131.882993 26.574063 
L 132.078381 26.056563 
L 132.294192 25.381563 
L 134.630646 20.589063 
L 134.746423 20.364063 
L 134.959272 19.936563 
L 135.107409 19.779063 
L 135.223986 19.576563 
L 135.844894 18.811563 
L 135.910486 18.654063 
L 136.063054 18.496563 
L 136.171603 18.294063 
L 136.310963 18.024063 
L 136.54203 17.799063 
L 137.665567 16.494063 
L 137.669496 16.471563 
L 137.902794 16.336563 
L 138.227352 16.044063 
L 138.57895 15.751563 
L 138.720797 15.549063 
L 138.862138 15.369063 
L 138.949179 15.256563 
L 139.143464 15.121563 
L 139.375308 14.964063 
L 139.605316 14.806563 
L 139.629903 14.761563 
L 140.00388 14.604063 
L 140.117158 14.446563 
L 140.625456 14.199063 
L 140.711591 14.086563 
L 141.011675 13.929063 
L 141.438258 13.681563 
L 141.865652 13.434063 
L 142.868395 13.231563 
L 143.002579 13.096563 
L 143.303646 12.961563 
L 143.628261 12.804063 
L 143.636464 12.759063 
L 144.282648 12.556563 
L 144.453962 12.511563 
L 147.029906 12.219063 
L 150.870833 12.061563 
L 150.870833 12.061563 
" style="fill:none;stroke:#0000ff;stroke-linecap:square;"/>
   </g>
   <g id="line2d_5">
    <path clip-path="url(#pc6fcff5d23)" d="M 98.603778 124.539063 
L 98.603778 12.039063 
" style="fill:none;stroke:#0000ff;stroke-dasharray:6.000000,6.000000;stroke-dashoffset:0.0;"/>
   </g>
   <g id="line2d_6">
    <path clip-path="url(#pc6fcff5d23)" d="M 139.572806 124.539063 
L 139.572806 12.039063 
" style="fill:none;stroke:#0000ff;stroke-dasharray:6.000000,6.000000;stroke-dashoffset:0.0;"/>
   </g>
   <g id="patch_3">
    <path d="M 41.78125 12.039063 
L 153.25 12.039063 
" style="fill:none;stroke:#000000;stroke-linecap:square;stroke-linejoin:miter;"/>
   </g>
   <g id="patch_4">
    <path d="M 153.25 124.539063 
L 153.25 12.039063 
" style="fill:none;stroke:#000000;stroke-linecap:square;stroke-linejoin:miter;"/>
   </g>
   <g id="patch_5">
    <path d="M 41.78125 124.539063 
L 153.25 124.539063 
" style="fill:none;stroke:#000000;stroke-linecap:square;stroke-linejoin:miter;"/>
   </g>
   <g id="patch_6">
    <path d="M 41.78125 124.539063 
L 41.78125 12.039063 
" style="fill:none;stroke:#000000;stroke-linecap:square;stroke-linejoin:miter;"/>
   </g>
   <g id="matplotlib.axis_1">
    <g id="xtick_1">
     <g id="line2d_7">
      <defs>
       <path d="M 0 0 
L 0 -4 
" id="m8ae9bb67af" style="stroke:#000000;stroke-width:0.5;"/>
      </defs>
      <g>
       <use style="stroke:#000000;stroke-width:0.5;" x="41.78125" xlink:href="#m8ae9bb67af" y="124.5390625"/>
      </g>
     </g>
     <g id="line2d_8">
      <defs>
       <path d="M 0 0 
L 0 4 
" id="mc50e26d7aa" style="stroke:#000000;stroke-width:0.5;"/>
      </defs>
      <g>
       <use style="stroke:#000000;stroke-width:0.5;" x="41.78125" xlink:href="#mc50e26d7aa" y="12.0390625"/>
      </g>
     </g>
     <g id="text_1">
      <!-- 0.4 -->
      <defs>
       <path d="M 31.78125 66.40625 
Q 24.171875 66.40625 20.328125 58.90625 
Q 16.5 51.421875 16.5 36.375 
Q 16.5 21.390625 20.328125 13.890625 
Q 24.171875 6.390625 31.78125 6.390625 
Q 39.453125 6.390625 43.28125 13.890625 
Q 47.125 21.390625 47.125 36.375 
Q 47.125 51.421875 43.28125 58.90625 
Q 39.453125 66.40625 31.78125 66.40625 
M 31.78125 74.21875 
Q 44.046875 74.21875 50.515625 64.515625 
Q 56.984375 54.828125 56.984375 36.375 
Q 56.984375 17.96875 50.515625 8.265625 
Q 44.046875 -1.421875 31.78125 -1.421875 
Q 19.53125 -1.421875 13.0625 8.265625 
Q 6.59375 17.96875 6.59375 36.375 
Q 6.59375 54.828125 13.0625 64.515625 
Q 19.53125 74.21875 31.78125 74.21875 
" id="BitstreamVeraSans-Roman-30"/>
       <path d="M 10.6875 12.40625 
L 21 12.40625 
L 21 0 
L 10.6875 0 
z
" id="BitstreamVeraSans-Roman-2e"/>
       <path d="M 37.796875 64.3125 
L 12.890625 25.390625 
L 37.796875 25.390625 
z
M 35.203125 72.90625 
L 47.609375 72.90625 
L 47.609375 25.390625 
L 58.015625 25.390625 
L 58.015625 17.1875 
L 47.609375 17.1875 
L 47.609375 0 
L 37.796875 0 
L 37.796875 17.1875 
L 4.890625 17.1875 
L 4.890625 26.703125 
z
" id="BitstreamVeraSans-Roman-34"/>
      </defs>
      <g transform="translate(33.8296875 136.1375)scale(0.1 -0.1)">
       <use xlink:href="#BitstreamVeraSans-Roman-30"/>
       <use x="63.623046875" xlink:href="#BitstreamVeraSans-Roman-2e"/>
       <use x="95.41015625" xlink:href="#BitstreamVeraSans-Roman-34"/>
      </g>
     </g>
    </g>
    <g id="xtick_2">
     <g id="line2d_9">
      <g>
       <use style="stroke:#000000;stroke-width:0.5;" x="78.9375" xlink:href="#m8ae9bb67af" y="124.5390625"/>
      </g>
     </g>
     <g id="line2d_10">
      <g>
       <use style="stroke:#000000;stroke-width:0.5;" x="78.9375" xlink:href="#mc50e26d7aa" y="12.0390625"/>
      </g>
     </g>
     <g id="text_2">
      <!-- 0.5 -->
      <defs>
       <path d="M 10.796875 72.90625 
L 49.515625 72.90625 
L 49.515625 64.59375 
L 19.828125 64.59375 
L 19.828125 46.734375 
Q 21.96875 47.46875 24.109375 47.828125 
Q 26.265625 48.1875 28.421875 48.1875 
Q 40.625 48.1875 47.75 41.5 
Q 54.890625 34.8125 54.890625 23.390625 
Q 54.890625 11.625 47.5625 5.09375 
Q 40.234375 -1.421875 26.90625 -1.421875 
Q 22.3125 -1.421875 17.546875 -0.640625 
Q 12.796875 0.140625 7.71875 1.703125 
L 7.71875 11.625 
Q 12.109375 9.234375 16.796875 8.0625 
Q 21.484375 6.890625 26.703125 6.890625 
Q 35.15625 6.890625 40.078125 11.328125 
Q 45.015625 15.765625 45.015625 23.390625 
Q 45.015625 31 40.078125 35.4375 
Q 35.15625 39.890625 26.703125 39.890625 
Q 22.75 39.890625 18.8125 39.015625 
Q 14.890625 38.140625 10.796875 36.28125 
z
" id="BitstreamVeraSans-Roman-35"/>
      </defs>
      <g transform="translate(70.9859375 136.1375)scale(0.1 -0.1)">
       <use xlink:href="#BitstreamVeraSans-Roman-30"/>
       <use x="63.623046875" xlink:href="#BitstreamVeraSans-Roman-2e"/>
       <use x="95.41015625" xlink:href="#BitstreamVeraSans-Roman-35"/>
      </g>
     </g>
    </g>
    <g id="xtick_3">
     <g id="line2d_11">
      <g>
       <use style="stroke:#000000;stroke-width:0.5;" x="116.09375" xlink:href="#m8ae9bb67af" y="124.5390625"/>
      </g>
     </g>
     <g id="line2d_12">
      <g>
       <use style="stroke:#000000;stroke-width:0.5;" x="116.09375" xlink:href="#mc50e26d7aa" y="12.0390625"/>
      </g>
     </g>
     <g id="text_3">
      <!-- 0.6 -->
      <defs>
       <path d="M 33.015625 40.375 
Q 26.375 40.375 22.484375 35.828125 
Q 18.609375 31.296875 18.609375 23.390625 
Q 18.609375 15.53125 22.484375 10.953125 
Q 26.375 6.390625 33.015625 6.390625 
Q 39.65625 6.390625 43.53125 10.953125 
Q 47.40625 15.53125 47.40625 23.390625 
Q 47.40625 31.296875 43.53125 35.828125 
Q 39.65625 40.375 33.015625 40.375 
M 52.59375 71.296875 
L 52.59375 62.3125 
Q 48.875 64.0625 45.09375 64.984375 
Q 41.3125 65.921875 37.59375 65.921875 
Q 27.828125 65.921875 22.671875 59.328125 
Q 17.53125 52.734375 16.796875 39.40625 
Q 19.671875 43.65625 24.015625 45.921875 
Q 28.375 48.1875 33.59375 48.1875 
Q 44.578125 48.1875 50.953125 41.515625 
Q 57.328125 34.859375 57.328125 23.390625 
Q 57.328125 12.15625 50.6875 5.359375 
Q 44.046875 -1.421875 33.015625 -1.421875 
Q 20.359375 -1.421875 13.671875 8.265625 
Q 6.984375 17.96875 6.984375 36.375 
Q 6.984375 53.65625 15.1875 63.9375 
Q 23.390625 74.21875 37.203125 74.21875 
Q 40.921875 74.21875 44.703125 73.484375 
Q 48.484375 72.75 52.59375 71.296875 
" id="BitstreamVeraSans-Roman-36"/>
      </defs>
      <g transform="translate(108.1421875 136.1375)scale(0.1 -0.1)">
       <use xlink:href="#BitstreamVeraSans-Roman-30"/>
       <use x="63.623046875" xlink:href="#BitstreamVeraSans-Roman-2e"/>
       <use x="95.41015625" xlink:href="#BitstreamVeraSans-Roman-36"/>
      </g>
     </g>
    </g>
    <g id="xtick_4">
     <g id="line2d_13">
      <g>
       <use style="stroke:#000000;stroke-width:0.5;" x="153.25" xlink:href="#m8ae9bb67af" y="124.5390625"/>
      </g>
     </g>
     <g id="line2d_14">
      <g>
       <use style="stroke:#000000;stroke-width:0.5;" x="153.25" xlink:href="#mc50e26d7aa" y="12.0390625"/>
      </g>
     </g>
     <g id="text_4">
      <!-- 0.7 -->
      <defs>
       <path d="M 8.203125 72.90625 
L 55.078125 72.90625 
L 55.078125 68.703125 
L 28.609375 0 
L 18.3125 0 
L 43.21875 64.59375 
L 8.203125 64.59375 
z
" id="BitstreamVeraSans-Roman-37"/>
      </defs>
      <g transform="translate(145.2984375 136.1375)scale(0.1 -0.1)">
       <use xlink:href="#BitstreamVeraSans-Roman-30"/>
       <use x="63.623046875" xlink:href="#BitstreamVeraSans-Roman-2e"/>
       <use x="95.41015625" xlink:href="#BitstreamVeraSans-Roman-37"/>
      </g>
     </g>
    </g>
    <g id="text_5">
     <!-- X component -->
     <defs>
      <path id="BitstreamVeraSans-Roman-20"/>
      <path d="M 54.890625 33.015625 
L 54.890625 0 
L 45.90625 0 
L 45.90625 32.71875 
Q 45.90625 40.484375 42.875 44.328125 
Q 39.84375 48.1875 33.796875 48.1875 
Q 26.515625 48.1875 22.3125 43.546875 
Q 18.109375 38.921875 18.109375 30.90625 
L 18.109375 0 
L 9.078125 0 
L 9.078125 54.6875 
L 18.109375 54.6875 
L 18.109375 46.1875 
Q 21.34375 51.125 25.703125 53.5625 
Q 30.078125 56 35.796875 56 
Q 45.21875 56 50.046875 50.171875 
Q 54.890625 44.34375 54.890625 33.015625 
" id="BitstreamVeraSans-Roman-6e"/>
      <path d="M 52 44.1875 
Q 55.375 50.25 60.0625 53.125 
Q 64.75 56 71.09375 56 
Q 79.640625 56 84.28125 50.015625 
Q 88.921875 44.046875 88.921875 33.015625 
L 88.921875 0 
L 79.890625 0 
L 79.890625 32.71875 
Q 79.890625 40.578125 77.09375 44.375 
Q 74.3125 48.1875 68.609375 48.1875 
Q 61.625 48.1875 57.5625 43.546875 
Q 53.515625 38.921875 53.515625 30.90625 
L 53.515625 0 
L 44.484375 0 
L 44.484375 32.71875 
Q 44.484375 40.625 41.703125 44.40625 
Q 38.921875 48.1875 33.109375 48.1875 
Q 26.21875 48.1875 22.15625 43.53125 
Q 18.109375 38.875 18.109375 30.90625 
L 18.109375 0 
L 9.078125 0 
L 9.078125 54.6875 
L 18.109375 54.6875 
L 18.109375 46.1875 
Q 21.1875 51.21875 25.484375 53.609375 
Q 29.78125 56 35.6875 56 
Q 41.65625 56 45.828125 52.96875 
Q 50 49.953125 52 44.1875 
" id="BitstreamVeraSans-Roman-6d"/>
      <path d="M 30.609375 48.390625 
Q 23.390625 48.390625 19.1875 42.75 
Q 14.984375 37.109375 14.984375 27.296875 
Q 14.984375 17.484375 19.15625 11.84375 
Q 23.34375 6.203125 30.609375 6.203125 
Q 37.796875 6.203125 41.984375 11.859375 
Q 46.1875 17.53125 46.1875 27.296875 
Q 46.1875 37.015625 41.984375 42.703125 
Q 37.796875 48.390625 30.609375 48.390625 
M 30.609375 56 
Q 42.328125 56 49.015625 48.375 
Q 55.71875 40.765625 55.71875 27.296875 
Q 55.71875 13.875 49.015625 6.21875 
Q 42.328125 -1.421875 30.609375 -1.421875 
Q 18.84375 -1.421875 12.171875 6.21875 
Q 5.515625 13.875 5.515625 27.296875 
Q 5.515625 40.765625 12.171875 48.375 
Q 18.84375 56 30.609375 56 
" id="BitstreamVeraSans-Roman-6f"/>
      <path d="M 56.203125 29.59375 
L 56.203125 25.203125 
L 14.890625 25.203125 
Q 15.484375 15.921875 20.484375 11.0625 
Q 25.484375 6.203125 34.421875 6.203125 
Q 39.59375 6.203125 44.453125 7.46875 
Q 49.3125 8.734375 54.109375 11.28125 
L 54.109375 2.78125 
Q 49.265625 0.734375 44.1875 -0.34375 
Q 39.109375 -1.421875 33.890625 -1.421875 
Q 20.796875 -1.421875 13.15625 6.1875 
Q 5.515625 13.8125 5.515625 26.8125 
Q 5.515625 40.234375 12.765625 48.109375 
Q 20.015625 56 32.328125 56 
Q 43.359375 56 49.78125 48.890625 
Q 56.203125 41.796875 56.203125 29.59375 
M 47.21875 32.234375 
Q 47.125 39.59375 43.09375 43.984375 
Q 39.0625 48.390625 32.421875 48.390625 
Q 24.90625 48.390625 20.390625 44.140625 
Q 15.875 39.890625 15.1875 32.171875 
z
" id="BitstreamVeraSans-Roman-65"/>
      <path d="M 48.78125 52.59375 
L 48.78125 44.1875 
Q 44.96875 46.296875 41.140625 47.34375 
Q 37.3125 48.390625 33.40625 48.390625 
Q 24.65625 48.390625 19.8125 42.84375 
Q 14.984375 37.3125 14.984375 27.296875 
Q 14.984375 17.28125 19.8125 11.734375 
Q 24.65625 6.203125 33.40625 6.203125 
Q 37.3125 6.203125 41.140625 7.25 
Q 44.96875 8.296875 48.78125 10.40625 
L 48.78125 2.09375 
Q 45.015625 0.34375 40.984375 -0.53125 
Q 36.96875 -1.421875 32.421875 -1.421875 
Q 20.0625 -1.421875 12.78125 6.34375 
Q 5.515625 14.109375 5.515625 27.296875 
Q 5.515625 40.671875 12.859375 48.328125 
Q 20.21875 56 33.015625 56 
Q 37.15625 56 41.109375 55.140625 
Q 45.0625 54.296875 48.78125 52.59375 
" id="BitstreamVeraSans-Roman-63"/>
      <path d="M 6.296875 72.90625 
L 16.890625 72.90625 
L 35.015625 45.796875 
L 53.21875 72.90625 
L 63.8125 72.90625 
L 40.375 37.890625 
L 65.375 0 
L 54.78125 0 
L 34.28125 31 
L 13.625 0 
L 2.984375 0 
L 29 38.921875 
z
" id="BitstreamVeraSans-Roman-58"/>
      <path d="M 18.3125 70.21875 
L 18.3125 54.6875 
L 36.8125 54.6875 
L 36.8125 47.703125 
L 18.3125 47.703125 
L 18.3125 18.015625 
Q 18.3125 11.328125 20.140625 9.421875 
Q 21.96875 7.515625 27.59375 7.515625 
L 36.8125 7.515625 
L 36.8125 0 
L 27.59375 0 
Q 17.1875 0 13.234375 3.875 
Q 9.28125 7.765625 9.28125 18.015625 
L 9.28125 47.703125 
L 2.6875 47.703125 
L 2.6875 54.6875 
L 9.28125 54.6875 
L 9.28125 70.21875 
z
" id="BitstreamVeraSans-Roman-74"/>
      <path d="M 18.109375 8.203125 
L 18.109375 -20.796875 
L 9.078125 -20.796875 
L 9.078125 54.6875 
L 18.109375 54.6875 
L 18.109375 46.390625 
Q 20.953125 51.265625 25.265625 53.625 
Q 29.59375 56 35.59375 56 
Q 45.5625 56 51.78125 48.09375 
Q 58.015625 40.1875 58.015625 27.296875 
Q 58.015625 14.40625 51.78125 6.484375 
Q 45.5625 -1.421875 35.59375 -1.421875 
Q 29.59375 -1.421875 25.265625 0.953125 
Q 20.953125 3.328125 18.109375 8.203125 
M 48.6875 27.296875 
Q 48.6875 37.203125 44.609375 42.84375 
Q 40.53125 48.484375 33.40625 48.484375 
Q 26.265625 48.484375 22.1875 42.84375 
Q 18.109375 37.203125 18.109375 27.296875 
Q 18.109375 17.390625 22.1875 11.75 
Q 26.265625 6.109375 33.40625 6.109375 
Q 40.53125 6.109375 44.609375 11.75 
Q 48.6875 17.390625 48.6875 27.296875 
" id="BitstreamVeraSans-Roman-70"/>
     </defs>
     <g transform="translate(64.21484375 150.815625)scale(0.1 -0.1)">
      <use xlink:href="#BitstreamVeraSans-Roman-58"/>
      <use x="68.505859375" xlink:href="#BitstreamVeraSans-Roman-20"/>
      <use x="100.29296875" xlink:href="#BitstreamVeraSans-Roman-63"/>
      <use x="155.2734375" xlink:href="#BitstreamVeraSans-Roman-6f"/>
      <use x="216.455078125" xlink:href="#BitstreamVeraSans-Roman-6d"/>
      <use x="313.8671875" xlink:href="#BitstreamVeraSans-Roman-70"/>
      <use x="377.34375" xlink:href="#BitstreamVeraSans-Roman-6f"/>
      <use x="438.525390625" xlink:href="#BitstreamVeraSans-Roman-6e"/>
      <use x="501.904296875" xlink:href="#BitstreamVeraSans-Roman-65"/>
      <use x="563.427734375" xlink:href="#BitstreamVeraSans-Roman-6e"/>
      <use x="626.806640625" xlink:href="#BitstreamVeraSans-Roman-74"/>
     </g>
    </g>
   </g>
   <g id="matplotlib.axis_2">
    <g id="ytick_1">
     <g id="line2d_15">
      <defs>
       <path d="M 0 0 
L 4 0 
" id="m54bfc7bc52" style="stroke:#000000;stroke-width:0.5;"/>
      </defs>
      <g>
       <use style="stroke:#000000;stroke-width:0.5;" x="41.78125" xlink:href="#m54bfc7bc52" y="124.5390625"/>
      </g>
     </g>
     <g id="line2d_16">
      <defs>
       <path d="M 0 0 
L -4 0 
" id="m639d8ce5e9" style="stroke:#000000;stroke-width:0.5;"/>
      </defs>
      <g>
       <use style="stroke:#000000;stroke-width:0.5;" x="153.25" xlink:href="#m639d8ce5e9" y="124.5390625"/>
      </g>
     </g>
     <g id="text_6">
      <!-- 0.0 -->
      <g transform="translate(21.878125 127.2984375)scale(0.1 -0.1)">
       <use xlink:href="#BitstreamVeraSans-Roman-30"/>
       <use x="63.623046875" xlink:href="#BitstreamVeraSans-Roman-2e"/>
       <use x="95.41015625" xlink:href="#BitstreamVeraSans-Roman-30"/>
      </g>
     </g>
    </g>
    <g id="ytick_2">
     <g id="line2d_17">
      <g>
       <use style="stroke:#000000;stroke-width:0.5;" x="41.78125" xlink:href="#m54bfc7bc52" y="68.2890625"/>
      </g>
     </g>
     <g id="line2d_18">
      <g>
       <use style="stroke:#000000;stroke-width:0.5;" x="153.25" xlink:href="#m639d8ce5e9" y="68.2890625"/>
      </g>
     </g>
     <g id="text_7">
      <!-- 0.5 -->
      <g transform="translate(21.878125 71.0484375)scale(0.1 -0.1)">
       <use xlink:href="#BitstreamVeraSans-Roman-30"/>
       <use x="63.623046875" xlink:href="#BitstreamVeraSans-Roman-2e"/>
       <use x="95.41015625" xlink:href="#BitstreamVeraSans-Roman-35"/>
      </g>
     </g>
    </g>
    <g id="ytick_3">
     <g id="line2d_19">
      <g>
       <use style="stroke:#000000;stroke-width:0.5;" x="41.78125" xlink:href="#m54bfc7bc52" y="12.0390625"/>
      </g>
     </g>
     <g id="line2d_20">
      <g>
       <use style="stroke:#000000;stroke-width:0.5;" x="153.25" xlink:href="#m639d8ce5e9" y="12.0390625"/>
      </g>
     </g>
     <g id="text_8">
      <!-- 1.0 -->
      <defs>
       <path d="M 12.40625 8.296875 
L 28.515625 8.296875 
L 28.515625 63.921875 
L 10.984375 60.40625 
L 10.984375 69.390625 
L 28.421875 72.90625 
L 38.28125 72.90625 
L 38.28125 8.296875 
L 54.390625 8.296875 
L 54.390625 0 
L 12.40625 0 
z
" id="BitstreamVeraSans-Roman-31"/>
      </defs>
      <g transform="translate(21.878125 14.7984375)scale(0.1 -0.1)">
       <use xlink:href="#BitstreamVeraSans-Roman-31"/>
       <use x="63.623046875" xlink:href="#BitstreamVeraSans-Roman-2e"/>
       <use x="95.41015625" xlink:href="#BitstreamVeraSans-Roman-30"/>
      </g>
     </g>
    </g>
    <g id="text_9">
     <!-- Cumulative Distribution -->
     <defs>
      <path d="M 41.109375 46.296875 
Q 39.59375 47.171875 37.8125 47.578125 
Q 36.03125 48 33.890625 48 
Q 26.265625 48 22.1875 43.046875 
Q 18.109375 38.09375 18.109375 28.8125 
L 18.109375 0 
L 9.078125 0 
L 9.078125 54.6875 
L 18.109375 54.6875 
L 18.109375 46.1875 
Q 20.953125 51.171875 25.484375 53.578125 
Q 30.03125 56 36.53125 56 
Q 37.453125 56 38.578125 55.875 
Q 39.703125 55.765625 41.0625 55.515625 
z
" id="BitstreamVeraSans-Roman-72"/>
      <path d="M 9.421875 75.984375 
L 18.40625 75.984375 
L 18.40625 0 
L 9.421875 0 
z
" id="BitstreamVeraSans-Roman-6c"/>
      <path d="M 19.671875 64.796875 
L 19.671875 8.109375 
L 31.59375 8.109375 
Q 46.6875 8.109375 53.6875 14.9375 
Q 60.6875 21.78125 60.6875 36.53125 
Q 60.6875 51.171875 53.6875 57.984375 
Q 46.6875 64.796875 31.59375 64.796875 
z
M 9.8125 72.90625 
L 30.078125 72.90625 
Q 51.265625 72.90625 61.171875 64.09375 
Q 71.09375 55.28125 71.09375 36.53125 
Q 71.09375 17.671875 61.125 8.828125 
Q 51.171875 0 30.078125 0 
L 9.8125 0 
z
" id="BitstreamVeraSans-Roman-44"/>
      <path d="M 9.421875 54.6875 
L 18.40625 54.6875 
L 18.40625 0 
L 9.421875 0 
z
M 9.421875 75.984375 
L 18.40625 75.984375 
L 18.40625 64.59375 
L 9.421875 64.59375 
z
" id="BitstreamVeraSans-Roman-69"/>
      <path d="M 2.984375 54.6875 
L 12.5 54.6875 
L 29.59375 8.796875 
L 46.6875 54.6875 
L 56.203125 54.6875 
L 35.6875 0 
L 23.484375 0 
z
" id="BitstreamVeraSans-Roman-76"/>
      <path d="M 64.40625 67.28125 
L 64.40625 56.890625 
Q 59.421875 61.53125 53.78125 63.8125 
Q 48.140625 66.109375 41.796875 66.109375 
Q 29.296875 66.109375 22.65625 58.46875 
Q 16.015625 50.828125 16.015625 36.375 
Q 16.015625 21.96875 22.65625 14.328125 
Q 29.296875 6.6875 41.796875 6.6875 
Q 48.140625 6.6875 53.78125 8.984375 
Q 59.421875 11.28125 64.40625 15.921875 
L 64.40625 5.609375 
Q 59.234375 2.09375 53.4375 0.328125 
Q 47.65625 -1.421875 41.21875 -1.421875 
Q 24.65625 -1.421875 15.125 8.703125 
Q 5.609375 18.84375 5.609375 36.375 
Q 5.609375 53.953125 15.125 64.078125 
Q 24.65625 74.21875 41.21875 74.21875 
Q 47.75 74.21875 53.53125 72.484375 
Q 59.328125 70.75 64.40625 67.28125 
" id="BitstreamVeraSans-Roman-43"/>
      <path d="M 8.5 21.578125 
L 8.5 54.6875 
L 17.484375 54.6875 
L 17.484375 21.921875 
Q 17.484375 14.15625 20.5 10.265625 
Q 23.53125 6.390625 29.59375 6.390625 
Q 36.859375 6.390625 41.078125 11.03125 
Q 45.3125 15.671875 45.3125 23.6875 
L 45.3125 54.6875 
L 54.296875 54.6875 
L 54.296875 0 
L 45.3125 0 
L 45.3125 8.40625 
Q 42.046875 3.421875 37.71875 1 
Q 33.40625 -1.421875 27.6875 -1.421875 
Q 18.265625 -1.421875 13.375 4.4375 
Q 8.5 10.296875 8.5 21.578125 
" id="BitstreamVeraSans-Roman-75"/>
      <path d="M 34.28125 27.484375 
Q 23.390625 27.484375 19.1875 25 
Q 14.984375 22.515625 14.984375 16.5 
Q 14.984375 11.71875 18.140625 8.90625 
Q 21.296875 6.109375 26.703125 6.109375 
Q 34.1875 6.109375 38.703125 11.40625 
Q 43.21875 16.703125 43.21875 25.484375 
L 43.21875 27.484375 
z
M 52.203125 31.203125 
L 52.203125 0 
L 43.21875 0 
L 43.21875 8.296875 
Q 40.140625 3.328125 35.546875 0.953125 
Q 30.953125 -1.421875 24.3125 -1.421875 
Q 15.921875 -1.421875 10.953125 3.296875 
Q 6 8.015625 6 15.921875 
Q 6 25.140625 12.171875 29.828125 
Q 18.359375 34.515625 30.609375 34.515625 
L 43.21875 34.515625 
L 43.21875 35.40625 
Q 43.21875 41.609375 39.140625 45 
Q 35.0625 48.390625 27.6875 48.390625 
Q 23 48.390625 18.546875 47.265625 
Q 14.109375 46.140625 10.015625 43.890625 
L 10.015625 52.203125 
Q 14.9375 54.109375 19.578125 55.046875 
Q 24.21875 56 28.609375 56 
Q 40.484375 56 46.34375 49.84375 
Q 52.203125 43.703125 52.203125 31.203125 
" id="BitstreamVeraSans-Roman-61"/>
      <path d="M 44.28125 53.078125 
L 44.28125 44.578125 
Q 40.484375 46.53125 36.375 47.5 
Q 32.28125 48.484375 27.875 48.484375 
Q 21.1875 48.484375 17.84375 46.4375 
Q 14.5 44.390625 14.5 40.28125 
Q 14.5 37.15625 16.890625 35.375 
Q 19.28125 33.59375 26.515625 31.984375 
L 29.59375 31.296875 
Q 39.15625 29.25 43.1875 25.515625 
Q 47.21875 21.78125 47.21875 15.09375 
Q 47.21875 7.46875 41.1875 3.015625 
Q 35.15625 -1.421875 24.609375 -1.421875 
Q 20.21875 -1.421875 15.453125 -0.5625 
Q 10.6875 0.296875 5.421875 2 
L 5.421875 11.28125 
Q 10.40625 8.6875 15.234375 7.390625 
Q 20.0625 6.109375 24.8125 6.109375 
Q 31.15625 6.109375 34.5625 8.28125 
Q 37.984375 10.453125 37.984375 14.40625 
Q 37.984375 18.0625 35.515625 20.015625 
Q 33.0625 21.96875 24.703125 23.78125 
L 21.578125 24.515625 
Q 13.234375 26.265625 9.515625 29.90625 
Q 5.8125 33.546875 5.8125 39.890625 
Q 5.8125 47.609375 11.28125 51.796875 
Q 16.75 56 26.8125 56 
Q 31.78125 56 36.171875 55.265625 
Q 40.578125 54.546875 44.28125 53.078125 
" id="BitstreamVeraSans-Roman-73"/>
      <path d="M 48.6875 27.296875 
Q 48.6875 37.203125 44.609375 42.84375 
Q 40.53125 48.484375 33.40625 48.484375 
Q 26.265625 48.484375 22.1875 42.84375 
Q 18.109375 37.203125 18.109375 27.296875 
Q 18.109375 17.390625 22.1875 11.75 
Q 26.265625 6.109375 33.40625 6.109375 
Q 40.53125 6.109375 44.609375 11.75 
Q 48.6875 17.390625 48.6875 27.296875 
M 18.109375 46.390625 
Q 20.953125 51.265625 25.265625 53.625 
Q 29.59375 56 35.59375 56 
Q 45.5625 56 51.78125 48.09375 
Q 58.015625 40.1875 58.015625 27.296875 
Q 58.015625 14.40625 51.78125 6.484375 
Q 45.5625 -1.421875 35.59375 -1.421875 
Q 29.59375 -1.421875 25.265625 0.953125 
Q 20.953125 3.328125 18.109375 8.203125 
L 18.109375 0 
L 9.078125 0 
L 9.078125 75.984375 
L 18.109375 75.984375 
z
" id="BitstreamVeraSans-Roman-62"/>
     </defs>
     <g transform="translate(14.7984375 127.584375)rotate(-90.0)scale(0.1 -0.1)">
      <use xlink:href="#BitstreamVeraSans-Roman-43"/>
      <use x="69.82421875" xlink:href="#BitstreamVeraSans-Roman-75"/>
      <use x="133.203125" xlink:href="#BitstreamVeraSans-Roman-6d"/>
      <use x="230.615234375" xlink:href="#BitstreamVeraSans-Roman-75"/>
      <use x="293.994140625" xlink:href="#BitstreamVeraSans-Roman-6c"/>
      <use x="321.77734375" xlink:href="#BitstreamVeraSans-Roman-61"/>
      <use x="383.056640625" xlink:href="#BitstreamVeraSans-Roman-74"/>
      <use x="422.265625" xlink:href="#BitstreamVeraSans-Roman-69"/>
      <use x="450.048828125" xlink:href="#BitstreamVeraSans-Roman-76"/>
      <use x="509.228515625" xlink:href="#BitstreamVeraSans-Roman-65"/>
      <use x="570.751953125" xlink:href="#BitstreamVeraSans-Roman-20"/>
      <use x="602.5390625" xlink:href="#BitstreamVeraSans-Roman-44"/>
      <use x="679.541015625" xlink:href="#BitstreamVeraSans-Roman-69"/>
      <use x="707.32421875" xlink:href="#BitstreamVeraSans-Roman-73"/>
      <use x="759.423828125" xlink:href="#BitstreamVeraSans-Roman-74"/>
      <use x="798.6328125" xlink:href="#BitstreamVeraSans-Roman-72"/>
      <use x="839.74609375" xlink:href="#BitstreamVeraSans-Roman-69"/>
      <use x="867.529296875" xlink:href="#BitstreamVeraSans-Roman-62"/>
      <use x="931.005859375" xlink:href="#BitstreamVeraSans-Roman-75"/>
      <use x="994.384765625" xlink:href="#BitstreamVeraSans-Roman-74"/>
      <use x="1033.59375" xlink:href="#BitstreamVeraSans-Roman-69"/>
      <use x="1061.37695312" xlink:href="#BitstreamVeraSans-Roman-6f"/>
      <use x="1122.55859375" xlink:href="#BitstreamVeraSans-Roman-6e"/>
     </g>
    </g>
   </g>
  </g>
  <g id="axes_2">
   <g id="patch_7">
    <path d="M 206.18125 124.539063 
L 317.65 124.539063 
L 317.65 12.039063 
L 206.18125 12.039063 
z
" style="fill:#ffffff;"/>
   </g>
   <g id="line2d_21">
    <path clip-path="url(#p84468d6207)" d="M 221.120837 124.539063 
L 221.18419 124.516563 
L 225.262406 124.381563 
L 225.271798 124.359063 
L 230.022354 124.021563 
L 230.351732 123.931563 
L 231.956047 123.594063 
L 232.49239 123.391563 
L 232.989785 123.211563 
L 233.045778 123.166563 
L 233.408094 123.031563 
L 233.543559 122.986563 
L 234.074743 122.851563 
L 234.187971 122.761563 
L 234.694613 122.559063 
L 234.744118 122.514063 
L 235.428968 122.244063 
L 235.760025 122.086563 
L 235.922813 121.906563 
L 236.299 121.659063 
L 236.549941 121.501563 
L 236.686488 121.411563 
L 236.923256 121.164063 
L 237.089678 120.961563 
L 237.308426 120.804063 
L 237.411738 120.714063 
L 237.64451 120.511563 
L 237.934033 120.219063 
L 238.147583 120.061563 
L 238.704191 119.611563 
L 238.826246 119.499063 
L 240.059157 117.991563 
L 240.291535 117.676563 
L 240.43957 117.496563 
L 240.532747 117.339063 
L 240.777813 116.979063 
L 241.285736 115.989063 
L 241.443309 115.719063 
L 241.562993 115.471563 
L 241.870993 114.954063 
L 241.980016 114.819063 
L 242.250118 114.436563 
L 242.592561 113.581563 
L 242.704026 113.244063 
L 242.81056 113.086563 
L 242.945729 112.659063 
L 243.219299 111.961563 
L 243.34725 111.736563 
L 243.497789 111.444063 
L 243.73905 110.859063 
L 243.867904 110.679063 
L 245.172562 107.529063 
L 245.251469 107.349063 
L 245.339007 107.169063 
L 245.643774 106.246563 
L 245.783842 105.954063 
L 246.070371 105.211563 
L 246.220609 104.806563 
L 246.335977 104.446563 
L 246.406618 104.154063 
L 246.54198 103.591563 
L 246.657493 103.299063 
L 246.834637 102.916563 
L 246.908685 102.691563 
L 247.896055 99.249063 
L 248.010354 98.844063 
L 248.193645 98.439063 
L 248.426655 97.584063 
L 248.623488 97.134063 
L 249.344965 94.726563 
L 249.68062 93.579063 
L 249.816631 93.039063 
L 250.017704 91.959063 
L 250.101984 91.621563 
L 250.235376 91.149063 
L 250.339619 90.789063 
L 250.463582 90.384063 
L 250.717999 89.484063 
L 250.763276 89.214063 
L 250.986751 88.606563 
L 251.1511 88.089063 
L 251.30109 87.391563 
L 251.586091 86.334063 
L 251.647909 86.131563 
L 251.758103 85.614063 
L 251.961113 84.511563 
L 252.073409 83.859063 
L 252.352816 82.621563 
L 252.59009 81.294063 
L 252.799136 80.304063 
L 252.863633 80.011563 
L 253.121419 78.864063 
L 253.198591 78.616563 
L 253.317807 77.896563 
L 253.503124 77.154063 
L 254.724102 71.776563 
L 254.844839 71.281563 
L 254.913173 71.011563 
L 255.03154 70.359063 
L 255.096363 70.134063 
L 255.304125 69.054063 
L 255.508278 68.221563 
L 255.712692 67.141563 
L 255.756159 66.871563 
L 256.808976 62.484063 
L 256.996018 61.539063 
L 257.176925 60.841563 
L 257.278444 60.504063 
L 257.945593 57.219063 
L 258.078786 56.521563 
L 260.092715 48.174063 
L 260.155869 47.904063 
L 260.260622 47.566563 
L 260.370209 47.026563 
L 260.553142 46.419063 
L 260.631968 46.194063 
L 260.804244 45.496563 
L 263.091976 36.991563 
L 263.214757 36.834063 
L 263.530577 35.731563 
L 263.589123 35.529063 
L 263.886497 34.449063 
L 264.02055 33.999063 
L 264.098995 33.706563 
L 264.635007 31.974063 
L 264.725022 31.704063 
L 264.856994 31.119063 
L 264.929527 30.871563 
L 265.1835 30.174063 
L 265.361954 29.746563 
L 265.576654 29.004063 
L 265.837018 28.149063 
L 266.017618 27.631563 
L 266.14667 27.384063 
L 266.356274 26.866563 
L 266.779817 25.764063 
L 266.880776 25.629063 
L 267.04496 25.246563 
L 267.255872 24.526563 
L 267.845939 23.401563 
L 267.970454 23.086563 
L 268.146317 22.614063 
L 268.33654 22.141563 
L 268.511654 21.871563 
L 268.663216 21.556563 
L 268.846816 21.106563 
L 270.435093 18.474063 
L 270.515548 18.316563 
L 272.678358 16.066563 
L 272.92291 15.886563 
L 273.18169 15.639063 
L 273.405245 15.481563 
L 273.504782 15.324063 
L 273.736536 15.144063 
L 275.699313 13.906563 
L 276.166063 13.614063 
L 276.355553 13.501563 
L 276.799213 13.344063 
L 277.277146 13.186563 
L 277.998887 12.939063 
L 279.807629 12.534063 
L 280.142416 12.489063 
L 282.430004 12.174063 
L 285.959143 12.084063 
L 286.87741 12.061563 
L 286.87741 12.061563 
" style="fill:none;stroke:#ff0000;stroke-linecap:square;"/>
   </g>
   <g id="line2d_22">
    <path clip-path="url(#p84468d6207)" d="M 236.196724 124.539063 
L 236.196724 12.039063 
" style="fill:none;stroke:#ff0000;stroke-linecap:square;"/>
   </g>
   <g id="line2d_23">
    <path clip-path="url(#p84468d6207)" d="M 274.099173 124.539063 
L 274.099173 12.039063 
" style="fill:none;stroke:#ff0000;stroke-linecap:square;"/>
   </g>
   <g id="line2d_24">
    <path clip-path="url(#p84468d6207)" d="M 213.216233 124.539063 
L 224.380418 124.516563 
L 229.161749 124.404063 
L 230.997611 124.246563 
L 231.514131 124.111563 
L 232.708879 123.954063 
L 233.629391 123.774063 
L 234.776944 123.369063 
L 235.284694 123.234063 
L 235.338178 123.189063 
L 235.977609 122.986563 
L 236.226255 122.851563 
L 236.74108 122.671563 
L 237.57058 122.064063 
L 237.687242 121.951563 
L 237.90531 121.794063 
L 238.317975 121.501563 
L 238.788852 121.029063 
L 239.12739 120.714063 
L 239.285324 120.534063 
L 239.488566 120.219063 
L 240.142417 119.926563 
L 240.482169 119.566563 
L 240.62999 119.274063 
L 240.749249 119.094063 
L 240.895175 118.801563 
L 241.123685 118.554063 
L 241.286079 118.329063 
L 241.514736 117.991563 
L 241.603741 117.834063 
L 241.941462 117.451563 
L 242.095583 117.136563 
L 242.468601 116.461563 
L 242.631116 116.304063 
L 242.762678 116.034063 
L 242.969158 115.539063 
L 243.140002 115.291563 
L 243.270714 114.999063 
L 243.368929 114.841563 
L 243.455375 114.571563 
L 243.610982 114.324063 
L 243.72668 114.166563 
L 245.751036 109.509063 
L 246.024235 108.879063 
L 246.115466 108.676563 
L 246.248172 108.249063 
L 246.514481 107.484063 
L 246.738009 107.034063 
L 246.994666 106.224063 
L 248.361457 102.331563 
L 248.4947 101.881563 
L 250.811091 93.601563 
L 250.97858 92.971563 
L 251.466652 91.284063 
L 251.540308 91.036563 
L 254.828338 77.739063 
L 255.042681 76.794063 
L 256.139167 71.754063 
L 256.250859 71.439063 
L 256.493569 70.291563 
L 256.607059 69.774063 
L 256.793343 69.054063 
L 256.847222 68.761563 
L 257.015125 67.929063 
L 257.053031 67.726563 
L 257.175426 67.276563 
L 257.452948 66.151563 
L 257.63385 65.431563 
L 257.701479 65.229063 
L 257.808394 64.801563 
L 257.892593 64.441563 
L 258.019159 63.654063 
L 258.503404 61.381563 
L 258.624997 60.661563 
L 258.722891 60.391563 
L 258.913817 59.289063 
L 259.187714 58.096563 
L 259.562901 56.296563 
L 259.599248 56.094063 
L 259.651965 55.869063 
L 259.776764 55.216563 
L 260.1832 53.371563 
L 260.372143 52.471563 
L 260.690394 51.099063 
L 260.764464 50.896563 
L 260.914894 50.266563 
L 260.999439 49.839063 
L 261.186039 49.119063 
L 261.280525 48.849063 
L 261.461092 47.859063 
L 261.83045 46.531563 
L 262.43923 44.326563 
L 262.58768 43.629063 
L 263.166845 41.244063 
L 263.319139 40.569063 
L 263.4005 40.366563 
L 263.569447 39.579063 
L 263.82549 38.431563 
L 263.995493 37.824063 
L 264.837517 34.831563 
L 265.054262 34.089063 
L 265.216741 33.729063 
L 265.404174 32.941563 
L 265.543009 32.649063 
L 265.787129 31.861563 
L 266.074745 30.916563 
L 266.198789 30.556563 
L 266.261207 30.309063 
L 266.446227 29.769063 
L 266.60663 29.431563 
L 266.760529 28.801563 
L 266.913775 28.374063 
L 267.037021 28.104063 
L 267.116568 27.834063 
L 267.234431 27.564063 
L 267.3848 27.361563 
L 267.530333 27.046563 
L 267.657497 26.844063 
L 267.967915 25.854063 
L 268.146252 25.426563 
L 268.343146 25.021563 
L 268.712418 24.166563 
L 268.820638 23.806563 
L 269.134103 23.356563 
L 271.357515 19.441563 
L 271.810044 18.766563 
L 271.920169 18.609063 
L 272.527809 18.001563 
L 273.087869 17.169063 
L 273.179696 17.011563 
L 273.285036 16.831563 
L 274.210893 16.134063 
L 274.369977 15.954063 
L 274.645835 15.796563 
L 274.812058 15.616563 
L 275.359389 15.166563 
L 275.541647 14.919063 
L 275.766698 14.716563 
L 275.877468 14.626563 
L 276.273352 14.401563 
L 276.607271 14.199063 
L 276.607718 14.176563 
L 277.17723 13.996563 
L 277.212217 13.929063 
L 279.185226 13.321563 
L 279.209197 13.299063 
L 279.941586 13.141563 
L 283.501416 12.376563 
L 285.585174 12.196563 
L 293.17834 12.061563 
L 293.17834 12.061563 
" style="fill:none;stroke:#0000ff;stroke-linecap:square;"/>
   </g>
   <g id="line2d_25">
    <path clip-path="url(#p84468d6207)" d="M 237.967185 124.539063 
L 237.967185 12.039063 
" style="fill:none;stroke:#0000ff;stroke-dasharray:6.000000,6.000000;stroke-dashoffset:0.0;"/>
   </g>
   <g id="line2d_26">
    <path clip-path="url(#p84468d6207)" d="M 275.597607 124.539063 
L 275.597607 12.039063 
" style="fill:none;stroke:#0000ff;stroke-dasharray:6.000000,6.000000;stroke-dashoffset:0.0;"/>
   </g>
   <g id="patch_8">
    <path d="M 206.18125 12.039063 
L 317.65 12.039063 
" style="fill:none;stroke:#000000;stroke-linecap:square;stroke-linejoin:miter;"/>
   </g>
   <g id="patch_9">
    <path d="M 317.65 124.539063 
L 317.65 12.039063 
" style="fill:none;stroke:#000000;stroke-linecap:square;stroke-linejoin:miter;"/>
   </g>
   <g id="patch_10">
    <path d="M 206.18125 124.539063 
L 317.65 124.539063 
" style="fill:none;stroke:#000000;stroke-linecap:square;stroke-linejoin:miter;"/>
   </g>
   <g id="patch_11">
    <path d="M 206.18125 124.539063 
L 206.18125 12.039063 
" style="fill:none;stroke:#000000;stroke-linecap:square;stroke-linejoin:miter;"/>
   </g>
   <g id="matplotlib.axis_3">
    <g id="xtick_5">
     <g id="line2d_27">
      <g>
       <use style="stroke:#000000;stroke-width:0.5;" x="206.18125" xlink:href="#m8ae9bb67af" y="124.5390625"/>
      </g>
     </g>
     <g id="line2d_28">
      <g>
       <use style="stroke:#000000;stroke-width:0.5;" x="206.18125" xlink:href="#mc50e26d7aa" y="12.0390625"/>
      </g>
     </g>
     <g id="text_10">
      <!-- 0.2 -->
      <defs>
       <path d="M 19.1875 8.296875 
L 53.609375 8.296875 
L 53.609375 0 
L 7.328125 0 
L 7.328125 8.296875 
Q 12.9375 14.109375 22.625 23.890625 
Q 32.328125 33.6875 34.8125 36.53125 
Q 39.546875 41.84375 41.421875 45.53125 
Q 43.3125 49.21875 43.3125 52.78125 
Q 43.3125 58.59375 39.234375 62.25 
Q 35.15625 65.921875 28.609375 65.921875 
Q 23.96875 65.921875 18.8125 64.3125 
Q 13.671875 62.703125 7.8125 59.421875 
L 7.8125 69.390625 
Q 13.765625 71.78125 18.9375 73 
Q 24.125 74.21875 28.421875 74.21875 
Q 39.75 74.21875 46.484375 68.546875 
Q 53.21875 62.890625 53.21875 53.421875 
Q 53.21875 48.921875 51.53125 44.890625 
Q 49.859375 40.875 45.40625 35.40625 
Q 44.1875 33.984375 37.640625 27.21875 
Q 31.109375 20.453125 19.1875 8.296875 
" id="BitstreamVeraSans-Roman-32"/>
      </defs>
      <g transform="translate(198.2296875 136.1375)scale(0.1 -0.1)">
       <use xlink:href="#BitstreamVeraSans-Roman-30"/>
       <use x="63.623046875" xlink:href="#BitstreamVeraSans-Roman-2e"/>
       <use x="95.41015625" xlink:href="#BitstreamVeraSans-Roman-32"/>
      </g>
     </g>
    </g>
    <g id="xtick_6">
     <g id="line2d_29">
      <g>
       <use style="stroke:#000000;stroke-width:0.5;" x="261.915625" xlink:href="#m8ae9bb67af" y="124.5390625"/>
      </g>
     </g>
     <g id="line2d_30">
      <g>
       <use style="stroke:#000000;stroke-width:0.5;" x="261.915625" xlink:href="#mc50e26d7aa" y="12.0390625"/>
      </g>
     </g>
     <g id="text_11">
      <!-- 0.4 -->
      <g transform="translate(253.9640625 136.1375)scale(0.1 -0.1)">
       <use xlink:href="#BitstreamVeraSans-Roman-30"/>
       <use x="63.623046875" xlink:href="#BitstreamVeraSans-Roman-2e"/>
       <use x="95.41015625" xlink:href="#BitstreamVeraSans-Roman-34"/>
      </g>
     </g>
    </g>
    <g id="xtick_7">
     <g id="line2d_31">
      <g>
       <use style="stroke:#000000;stroke-width:0.5;" x="317.65" xlink:href="#m8ae9bb67af" y="124.5390625"/>
      </g>
     </g>
     <g id="line2d_32">
      <g>
       <use style="stroke:#000000;stroke-width:0.5;" x="317.65" xlink:href="#mc50e26d7aa" y="12.0390625"/>
      </g>
     </g>
     <g id="text_12">
      <!-- 0.6 -->
      <g transform="translate(309.6984375 136.1375)scale(0.1 -0.1)">
       <use xlink:href="#BitstreamVeraSans-Roman-30"/>
       <use x="63.623046875" xlink:href="#BitstreamVeraSans-Roman-2e"/>
       <use x="95.41015625" xlink:href="#BitstreamVeraSans-Roman-36"/>
      </g>
     </g>
    </g>
    <g id="text_13">
     <!-- Y component -->
     <defs>
      <path d="M -0.203125 72.90625 
L 10.40625 72.90625 
L 30.609375 42.921875 
L 50.6875 72.90625 
L 61.28125 72.90625 
L 35.5 34.71875 
L 35.5 0 
L 25.59375 0 
L 25.59375 34.71875 
z
" id="BitstreamVeraSans-Roman-59"/>
     </defs>
     <g transform="translate(228.9859375 150.815625)scale(0.1 -0.1)">
      <use xlink:href="#BitstreamVeraSans-Roman-59"/>
      <use x="61.083984375" xlink:href="#BitstreamVeraSans-Roman-20"/>
      <use x="92.87109375" xlink:href="#BitstreamVeraSans-Roman-63"/>
      <use x="147.8515625" xlink:href="#BitstreamVeraSans-Roman-6f"/>
      <use x="209.033203125" xlink:href="#BitstreamVeraSans-Roman-6d"/>
      <use x="306.4453125" xlink:href="#BitstreamVeraSans-Roman-70"/>
      <use x="369.921875" xlink:href="#BitstreamVeraSans-Roman-6f"/>
      <use x="431.103515625" xlink:href="#BitstreamVeraSans-Roman-6e"/>
      <use x="494.482421875" xlink:href="#BitstreamVeraSans-Roman-65"/>
      <use x="556.005859375" xlink:href="#BitstreamVeraSans-Roman-6e"/>
      <use x="619.384765625" xlink:href="#BitstreamVeraSans-Roman-74"/>
     </g>
    </g>
   </g>
   <g id="matplotlib.axis_4">
    <g id="ytick_4">
     <g id="line2d_33">
      <g>
       <use style="stroke:#000000;stroke-width:0.5;" x="206.18125" xlink:href="#m54bfc7bc52" y="124.5390625"/>
      </g>
     </g>
     <g id="line2d_34">
      <g>
       <use style="stroke:#000000;stroke-width:0.5;" x="317.65" xlink:href="#m639d8ce5e9" y="124.5390625"/>
      </g>
     </g>
     <g id="text_14">
      <!-- 0.0 -->
      <g transform="translate(186.278125 127.2984375)scale(0.1 -0.1)">
       <use xlink:href="#BitstreamVeraSans-Roman-30"/>
       <use x="63.623046875" xlink:href="#BitstreamVeraSans-Roman-2e"/>
       <use x="95.41015625" xlink:href="#BitstreamVeraSans-Roman-30"/>
      </g>
     </g>
    </g>
    <g id="ytick_5">
     <g id="line2d_35">
      <g>
       <use style="stroke:#000000;stroke-width:0.5;" x="206.18125" xlink:href="#m54bfc7bc52" y="68.2890625"/>
      </g>
     </g>
     <g id="line2d_36">
      <g>
       <use style="stroke:#000000;stroke-width:0.5;" x="317.65" xlink:href="#m639d8ce5e9" y="68.2890625"/>
      </g>
     </g>
     <g id="text_15">
      <!-- 0.5 -->
      <g transform="translate(186.278125 71.0484375)scale(0.1 -0.1)">
       <use xlink:href="#BitstreamVeraSans-Roman-30"/>
       <use x="63.623046875" xlink:href="#BitstreamVeraSans-Roman-2e"/>
       <use x="95.41015625" xlink:href="#BitstreamVeraSans-Roman-35"/>
      </g>
     </g>
    </g>
    <g id="ytick_6">
     <g id="line2d_37">
      <g>
       <use style="stroke:#000000;stroke-width:0.5;" x="206.18125" xlink:href="#m54bfc7bc52" y="12.0390625"/>
      </g>
     </g>
     <g id="line2d_38">
      <g>
       <use style="stroke:#000000;stroke-width:0.5;" x="317.65" xlink:href="#m639d8ce5e9" y="12.0390625"/>
      </g>
     </g>
     <g id="text_16">
      <!-- 1.0 -->
      <g transform="translate(186.278125 14.7984375)scale(0.1 -0.1)">
       <use xlink:href="#BitstreamVeraSans-Roman-31"/>
       <use x="63.623046875" xlink:href="#BitstreamVeraSans-Roman-2e"/>
       <use x="95.41015625" xlink:href="#BitstreamVeraSans-Roman-30"/>
      </g>
     </g>
    </g>
    <g id="text_17">
     <!-- Cumulative Distribution -->
     <g transform="translate(179.1984375 127.584375)rotate(-90.0)scale(0.1 -0.1)">
      <use xlink:href="#BitstreamVeraSans-Roman-43"/>
      <use x="69.82421875" xlink:href="#BitstreamVeraSans-Roman-75"/>
      <use x="133.203125" xlink:href="#BitstreamVeraSans-Roman-6d"/>
      <use x="230.615234375" xlink:href="#BitstreamVeraSans-Roman-75"/>
      <use x="293.994140625" xlink:href="#BitstreamVeraSans-Roman-6c"/>
      <use x="321.77734375" xlink:href="#BitstreamVeraSans-Roman-61"/>
      <use x="383.056640625" xlink:href="#BitstreamVeraSans-Roman-74"/>
      <use x="422.265625" xlink:href="#BitstreamVeraSans-Roman-69"/>
      <use x="450.048828125" xlink:href="#BitstreamVeraSans-Roman-76"/>
      <use x="509.228515625" xlink:href="#BitstreamVeraSans-Roman-65"/>
      <use x="570.751953125" xlink:href="#BitstreamVeraSans-Roman-20"/>
      <use x="602.5390625" xlink:href="#BitstreamVeraSans-Roman-44"/>
      <use x="679.541015625" xlink:href="#BitstreamVeraSans-Roman-69"/>
      <use x="707.32421875" xlink:href="#BitstreamVeraSans-Roman-73"/>
      <use x="759.423828125" xlink:href="#BitstreamVeraSans-Roman-74"/>
      <use x="798.6328125" xlink:href="#BitstreamVeraSans-Roman-72"/>
      <use x="839.74609375" xlink:href="#BitstreamVeraSans-Roman-69"/>
      <use x="867.529296875" xlink:href="#BitstreamVeraSans-Roman-62"/>
      <use x="931.005859375" xlink:href="#BitstreamVeraSans-Roman-75"/>
      <use x="994.384765625" xlink:href="#BitstreamVeraSans-Roman-74"/>
      <use x="1033.59375" xlink:href="#BitstreamVeraSans-Roman-69"/>
      <use x="1061.37695312" xlink:href="#BitstreamVeraSans-Roman-6f"/>
      <use x="1122.55859375" xlink:href="#BitstreamVeraSans-Roman-6e"/>
     </g>
    </g>
   </g>
  </g>
  <g id="axes_3">
   <g id="patch_12">
    <path d="M 370.58125 124.539063 
L 482.05 124.539063 
L 482.05 12.039063 
L 370.58125 12.039063 
z
" style="fill:#ffffff;"/>
   </g>
   <g id="line2d_39">
    <path clip-path="url(#p65138a9806)" d="M 382.427967 124.539063 
L 383.224542 124.516563 
L 395.748404 124.381563 
L 395.758178 124.359063 
L 398.308412 124.156563 
L 400.144473 123.774063 
L 400.157797 123.751563 
L 400.830404 123.571563 
L 401.185511 123.391563 
L 401.87681 123.189063 
L 402.333812 123.031563 
L 402.671581 122.896563 
L 405.541844 121.254063 
L 405.640335 121.209063 
L 405.963268 120.916563 
L 406.16006 120.691563 
L 406.309895 120.511563 
L 406.424654 120.444063 
L 407.456055 119.724063 
L 407.65951 119.364063 
L 407.732838 119.206563 
L 408.0502 118.801563 
L 408.818712 117.901563 
L 408.919707 117.699063 
L 409.012604 117.564063 
L 409.195529 117.361563 
L 409.357976 117.181563 
L 409.723479 116.551563 
L 411.181916 114.324063 
L 411.291481 114.099063 
L 411.397312 113.806563 
L 411.50891 113.514063 
L 411.649122 113.244063 
L 411.907743 112.704063 
L 412.019031 112.546563 
L 412.132081 112.186563 
L 412.321267 111.781563 
L 412.459633 111.444063 
L 412.737186 110.904063 
L 412.972499 110.026563 
L 413.134341 109.711563 
L 413.325908 109.194063 
L 413.46483 108.834063 
L 413.661124 108.474063 
L 413.80923 108.136563 
L 413.920691 107.889063 
L 414.037141 107.619063 
L 414.231238 106.966563 
L 414.371627 106.381563 
L 414.437923 106.201563 
L 414.541651 105.909063 
L 416.045794 101.724063 
L 416.192891 101.251563 
L 416.238094 101.094063 
L 416.350688 100.689063 
L 416.595017 100.126563 
L 416.741113 99.586563 
L 416.979891 99.001563 
L 417.102591 98.551563 
L 417.247721 98.034063 
L 417.473561 96.864063 
L 417.660406 96.279063 
L 417.774806 95.896563 
L 417.913972 95.424063 
L 418.052075 94.861563 
L 418.555273 92.881563 
L 418.676852 92.544063 
L 418.789057 91.936563 
L 418.908225 91.396563 
L 419.042886 90.811563 
L 419.150959 90.429063 
L 419.318926 89.551563 
L 419.704296 87.909063 
L 419.942233 86.559063 
L 420.054172 86.131563 
L 420.161381 85.614063 
L 420.447122 84.466563 
L 420.956082 82.396563 
L 421.023998 82.171563 
L 421.201771 81.361563 
L 421.254884 80.979063 
L 421.403452 80.236563 
L 421.490703 79.854063 
L 422.251506 76.614063 
L 422.388932 76.051563 
L 422.638979 74.904063 
L 422.75009 74.409063 
L 423.020082 72.811563 
L 423.108873 72.339063 
L 423.234632 71.686563 
L 423.499411 70.426563 
L 423.616637 69.774063 
L 423.728073 69.279063 
L 423.824319 68.874063 
L 423.98351 68.019063 
L 424.448731 65.791563 
L 424.565251 65.274063 
L 425.109591 62.551563 
L 425.214565 62.191563 
L 425.438826 61.111563 
L 425.58528 60.391563 
L 425.724981 59.671563 
L 427.110314 52.651563 
L 427.181581 52.314063 
L 427.782997 49.794063 
L 427.926702 49.231563 
L 428.077226 48.624063 
L 429.148987 44.079063 
L 429.211936 43.854063 
L 429.355673 43.066563 
L 429.394911 42.886563 
L 429.504598 42.211563 
L 429.609523 41.671563 
L 429.873126 40.479063 
L 430.765511 36.789063 
L 430.906448 36.406563 
L 431.002499 36.069063 
L 431.483524 34.134063 
L 431.553985 33.886563 
L 432.224213 31.794063 
L 432.308263 31.614063 
L 432.503835 30.759063 
L 432.556269 30.556563 
L 432.739212 29.994063 
L 433.072134 28.959063 
L 433.129064 28.756563 
L 433.437069 27.856563 
L 433.800457 26.821563 
L 434.440081 25.021563 
L 434.560694 24.729063 
L 434.748938 24.279063 
L 434.860088 23.896563 
L 435.380859 22.659063 
L 435.509342 22.276563 
L 435.598217 22.119063 
L 435.962648 21.646563 
L 436.092716 21.444063 
L 436.26808 21.084063 
L 436.367277 20.926563 
L 436.781097 20.229063 
L 436.912018 19.891563 
L 438.419523 17.641563 
L 438.88353 17.056563 
L 438.978705 16.899063 
L 439.062812 16.741563 
L 439.217248 16.561563 
L 439.503241 16.291563 
L 440.223297 15.684063 
L 440.334707 15.571563 
L 440.682017 15.436563 
L 440.721349 15.346563 
L 440.945581 15.211563 
L 441.169164 14.874063 
L 441.577632 14.604063 
L 441.90117 14.289063 
L 442.296609 14.131563 
L 442.298847 14.109063 
L 442.617287 13.951563 
L 442.9411 13.614063 
L 443.331151 13.479063 
L 444.745363 12.894063 
L 445.583897 12.669063 
L 446.605015 12.511563 
L 448.353093 12.219063 
L 448.413196 12.196563 
L 452.792701 12.061563 
L 452.792701 12.061563 
" style="fill:none;stroke:#ff0000;stroke-linecap:square;"/>
   </g>
   <g id="line2d_40">
    <path clip-path="url(#p65138a9806)" d="M 404.864969 124.539063 
L 404.864969 12.039063 
" style="fill:none;stroke:#ff0000;stroke-linecap:square;"/>
   </g>
   <g id="line2d_41">
    <path clip-path="url(#p65138a9806)" d="M 441.228515 124.539063 
L 441.228515 12.039063 
" style="fill:none;stroke:#ff0000;stroke-linecap:square;"/>
   </g>
   <g id="line2d_42">
    <path clip-path="url(#p65138a9806)" d="M 370.810802 124.539063 
L 370.833219 124.516563 
L 372.021768 124.471563 
L 375.941784 124.314063 
L 375.995205 124.246563 
L 377.9428 124.066563 
L 378.004513 124.021563 
L 380.233129 123.751563 
L 380.411632 123.684063 
L 382.727779 122.739063 
L 383.199472 122.581563 
L 383.706578 122.311563 
L 384.022341 122.131563 
L 386.940373 120.106563 
L 387.170544 119.814063 
L 387.335626 119.611563 
L 389.034286 117.766563 
L 389.486899 117.001563 
L 390.002404 116.394063 
L 390.136232 116.034063 
L 390.437172 115.719063 
L 391.029761 114.796563 
L 391.468613 113.784063 
L 391.650826 113.491563 
L 393.757468 108.519063 
L 393.861076 108.271563 
L 394.009454 108.024063 
L 394.907734 105.706563 
L 395.014072 105.211563 
L 395.35889 104.221563 
L 396.243211 101.476563 
L 396.456227 100.936563 
L 397.187559 98.641563 
L 397.463837 97.494063 
L 397.589685 97.111563 
L 397.89077 96.121563 
L 398.019539 95.559063 
L 398.179202 95.176563 
L 398.799598 92.769063 
L 398.910371 92.476563 
L 399.026048 92.206563 
L 399.85522 89.079063 
L 399.917474 88.921563 
L 400.244978 87.616563 
L 400.307277 87.369063 
L 400.495825 86.469063 
L 402.087898 79.561563 
L 402.145497 79.359063 
L 402.352579 78.526563 
L 402.414457 78.346563 
L 402.643515 77.536563 
L 402.762333 76.951563 
L 402.889285 76.299063 
L 403.134389 75.421563 
L 403.316384 74.634063 
L 403.670597 73.126563 
L 403.719406 72.901563 
L 403.804957 72.586563 
L 403.935836 72.069063 
L 404.043522 71.551563 
L 404.216417 70.674063 
L 404.540507 69.301563 
L 404.62775 69.076563 
L 404.761799 68.694063 
L 404.811136 68.424063 
L 404.98129 67.884063 
L 405.095348 67.479063 
L 405.309758 66.466563 
L 405.472257 65.949063 
L 407.926542 55.689063 
L 408.042066 55.216563 
L 408.182066 54.586563 
L 408.332143 53.934063 
L 408.427888 53.484063 
L 408.5598 53.011563 
L 408.726256 52.179063 
L 408.84516 51.526563 
L 408.893347 51.166563 
L 409.165639 50.199063 
L 409.280963 49.726563 
L 409.370238 49.479063 
L 409.569903 48.691563 
L 409.63559 48.444063 
L 409.747944 47.904063 
L 409.889508 47.139063 
L 410.29466 45.474063 
L 411.327323 41.941563 
L 411.445617 41.469063 
L 411.592458 41.199063 
L 411.701426 40.614063 
L 411.767248 40.456563 
L 412.18641 38.971563 
L 412.350546 38.161563 
L 412.491207 37.689063 
L 412.655447 37.104063 
L 412.954868 36.181563 
L 413.133226 35.506563 
L 413.40471 34.741563 
L 413.676847 33.751563 
L 413.86315 33.301563 
L 414.103049 32.401563 
L 414.30054 31.591563 
L 414.40747 31.366563 
L 415.356768 28.824063 
L 415.622517 28.306563 
L 415.784724 27.946563 
L 415.860969 27.654063 
L 416.390554 26.056563 
L 417.241975 24.031563 
L 417.342849 23.694063 
L 417.442384 23.379063 
L 417.559641 23.221563 
L 417.661844 23.086563 
L 417.735618 22.951563 
L 417.891473 22.524063 
L 418.031276 22.366563 
L 418.118436 22.209063 
L 418.259061 22.029063 
L 418.357259 21.871563 
L 418.452065 21.691563 
L 420.203911 19.351563 
L 420.311099 19.216563 
L 420.901779 18.339063 
L 421.050495 18.136563 
L 421.682983 17.461563 
L 422.554938 16.629063 
L 422.877003 16.291563 
L 423.060263 16.111563 
L 423.719989 15.549063 
L 424.080225 15.391563 
L 424.194444 15.211563 
L 424.544725 14.874063 
L 424.658482 14.739063 
L 424.908458 14.536563 
L 425.564291 14.086563 
L 426.006436 13.906563 
L 427.610934 13.006563 
L 428.686018 12.826563 
L 428.811971 12.759063 
L 430.505829 12.466563 
L 430.772723 12.399063 
L 431.749929 12.286563 
L 443.107736 12.061563 
L 443.107736 12.061563 
" style="fill:none;stroke:#0000ff;stroke-linecap:square;"/>
   </g>
   <g id="line2d_43">
    <path clip-path="url(#p65138a9806)" d="M 384.551409 124.539063 
L 384.551409 12.039063 
" style="fill:none;stroke:#0000ff;stroke-dasharray:6.000000,6.000000;stroke-dashoffset:0.0;"/>
   </g>
   <g id="line2d_44">
    <path clip-path="url(#p65138a9806)" d="M 424.545494 124.539063 
L 424.545494 12.039063 
" style="fill:none;stroke:#0000ff;stroke-dasharray:6.000000,6.000000;stroke-dashoffset:0.0;"/>
   </g>
   <g id="patch_13">
    <path d="M 370.58125 12.039063 
L 482.05 12.039063 
" style="fill:none;stroke:#000000;stroke-linecap:square;stroke-linejoin:miter;"/>
   </g>
   <g id="patch_14">
    <path d="M 482.05 124.539063 
L 482.05 12.039063 
" style="fill:none;stroke:#000000;stroke-linecap:square;stroke-linejoin:miter;"/>
   </g>
   <g id="patch_15">
    <path d="M 370.58125 124.539063 
L 482.05 124.539063 
" style="fill:none;stroke:#000000;stroke-linecap:square;stroke-linejoin:miter;"/>
   </g>
   <g id="patch_16">
    <path d="M 370.58125 124.539063 
L 370.58125 12.039063 
" style="fill:none;stroke:#000000;stroke-linecap:square;stroke-linejoin:miter;"/>
   </g>
   <g id="matplotlib.axis_5">
    <g id="xtick_8">
     <g id="line2d_45">
      <g>
       <use style="stroke:#000000;stroke-width:0.5;" x="370.58125" xlink:href="#m8ae9bb67af" y="124.5390625"/>
      </g>
     </g>
     <g id="line2d_46">
      <g>
       <use style="stroke:#000000;stroke-width:0.5;" x="370.58125" xlink:href="#mc50e26d7aa" y="12.0390625"/>
      </g>
     </g>
     <g id="text_18">
      <!-- 0.6 -->
      <g transform="translate(362.6296875 136.1375)scale(0.1 -0.1)">
       <use xlink:href="#BitstreamVeraSans-Roman-30"/>
       <use x="63.623046875" xlink:href="#BitstreamVeraSans-Roman-2e"/>
       <use x="95.41015625" xlink:href="#BitstreamVeraSans-Roman-36"/>
      </g>
     </g>
    </g>
    <g id="xtick_9">
     <g id="line2d_47">
      <g>
       <use style="stroke:#000000;stroke-width:0.5;" x="407.7375" xlink:href="#m8ae9bb67af" y="124.5390625"/>
      </g>
     </g>
     <g id="line2d_48">
      <g>
       <use style="stroke:#000000;stroke-width:0.5;" x="407.7375" xlink:href="#mc50e26d7aa" y="12.0390625"/>
      </g>
     </g>
     <g id="text_19">
      <!-- 0.7 -->
      <g transform="translate(399.7859375 136.1375)scale(0.1 -0.1)">
       <use xlink:href="#BitstreamVeraSans-Roman-30"/>
       <use x="63.623046875" xlink:href="#BitstreamVeraSans-Roman-2e"/>
       <use x="95.41015625" xlink:href="#BitstreamVeraSans-Roman-37"/>
      </g>
     </g>
    </g>
    <g id="xtick_10">
     <g id="line2d_49">
      <g>
       <use style="stroke:#000000;stroke-width:0.5;" x="444.89375" xlink:href="#m8ae9bb67af" y="124.5390625"/>
      </g>
     </g>
     <g id="line2d_50">
      <g>
       <use style="stroke:#000000;stroke-width:0.5;" x="444.89375" xlink:href="#mc50e26d7aa" y="12.0390625"/>
      </g>
     </g>
     <g id="text_20">
      <!-- 0.8 -->
      <defs>
       <path d="M 31.78125 34.625 
Q 24.75 34.625 20.71875 30.859375 
Q 16.703125 27.09375 16.703125 20.515625 
Q 16.703125 13.921875 20.71875 10.15625 
Q 24.75 6.390625 31.78125 6.390625 
Q 38.8125 6.390625 42.859375 10.171875 
Q 46.921875 13.96875 46.921875 20.515625 
Q 46.921875 27.09375 42.890625 30.859375 
Q 38.875 34.625 31.78125 34.625 
M 21.921875 38.8125 
Q 15.578125 40.375 12.03125 44.71875 
Q 8.5 49.078125 8.5 55.328125 
Q 8.5 64.0625 14.71875 69.140625 
Q 20.953125 74.21875 31.78125 74.21875 
Q 42.671875 74.21875 48.875 69.140625 
Q 55.078125 64.0625 55.078125 55.328125 
Q 55.078125 49.078125 51.53125 44.71875 
Q 48 40.375 41.703125 38.8125 
Q 48.828125 37.15625 52.796875 32.3125 
Q 56.78125 27.484375 56.78125 20.515625 
Q 56.78125 9.90625 50.3125 4.234375 
Q 43.84375 -1.421875 31.78125 -1.421875 
Q 19.734375 -1.421875 13.25 4.234375 
Q 6.78125 9.90625 6.78125 20.515625 
Q 6.78125 27.484375 10.78125 32.3125 
Q 14.796875 37.15625 21.921875 38.8125 
M 18.3125 54.390625 
Q 18.3125 48.734375 21.84375 45.5625 
Q 25.390625 42.390625 31.78125 42.390625 
Q 38.140625 42.390625 41.71875 45.5625 
Q 45.3125 48.734375 45.3125 54.390625 
Q 45.3125 60.0625 41.71875 63.234375 
Q 38.140625 66.40625 31.78125 66.40625 
Q 25.390625 66.40625 21.84375 63.234375 
Q 18.3125 60.0625 18.3125 54.390625 
" id="BitstreamVeraSans-Roman-38"/>
      </defs>
      <g transform="translate(436.9421875 136.1375)scale(0.1 -0.1)">
       <use xlink:href="#BitstreamVeraSans-Roman-30"/>
       <use x="63.623046875" xlink:href="#BitstreamVeraSans-Roman-2e"/>
       <use x="95.41015625" xlink:href="#BitstreamVeraSans-Roman-38"/>
      </g>
     </g>
    </g>
    <g id="xtick_11">
     <g id="line2d_51">
      <g>
       <use style="stroke:#000000;stroke-width:0.5;" x="482.05" xlink:href="#m8ae9bb67af" y="124.5390625"/>
      </g>
     </g>
     <g id="line2d_52">
      <g>
       <use style="stroke:#000000;stroke-width:0.5;" x="482.05" xlink:href="#mc50e26d7aa" y="12.0390625"/>
      </g>
     </g>
     <g id="text_21">
      <!-- 0.9 -->
      <defs>
       <path d="M 10.984375 1.515625 
L 10.984375 10.5 
Q 14.703125 8.734375 18.5 7.8125 
Q 22.3125 6.890625 25.984375 6.890625 
Q 35.75 6.890625 40.890625 13.453125 
Q 46.046875 20.015625 46.78125 33.40625 
Q 43.953125 29.203125 39.59375 26.953125 
Q 35.25 24.703125 29.984375 24.703125 
Q 19.046875 24.703125 12.671875 31.3125 
Q 6.296875 37.9375 6.296875 49.421875 
Q 6.296875 60.640625 12.9375 67.421875 
Q 19.578125 74.21875 30.609375 74.21875 
Q 43.265625 74.21875 49.921875 64.515625 
Q 56.59375 54.828125 56.59375 36.375 
Q 56.59375 19.140625 48.40625 8.859375 
Q 40.234375 -1.421875 26.421875 -1.421875 
Q 22.703125 -1.421875 18.890625 -0.6875 
Q 15.09375 0.046875 10.984375 1.515625 
M 30.609375 32.421875 
Q 37.25 32.421875 41.125 36.953125 
Q 45.015625 41.5 45.015625 49.421875 
Q 45.015625 57.28125 41.125 61.84375 
Q 37.25 66.40625 30.609375 66.40625 
Q 23.96875 66.40625 20.09375 61.84375 
Q 16.21875 57.28125 16.21875 49.421875 
Q 16.21875 41.5 20.09375 36.953125 
Q 23.96875 32.421875 30.609375 32.421875 
" id="BitstreamVeraSans-Roman-39"/>
      </defs>
      <g transform="translate(474.0984375 136.1375)scale(0.1 -0.1)">
       <use xlink:href="#BitstreamVeraSans-Roman-30"/>
       <use x="63.623046875" xlink:href="#BitstreamVeraSans-Roman-2e"/>
       <use x="95.41015625" xlink:href="#BitstreamVeraSans-Roman-39"/>
      </g>
     </g>
    </g>
    <g id="text_22">
     <!-- Z component -->
     <defs>
      <path d="M 5.609375 72.90625 
L 62.890625 72.90625 
L 62.890625 65.375 
L 16.796875 8.296875 
L 64.015625 8.296875 
L 64.015625 0 
L 4.5 0 
L 4.5 7.515625 
L 50.59375 64.59375 
L 5.609375 64.59375 
z
" id="BitstreamVeraSans-Roman-5a"/>
     </defs>
     <g transform="translate(393.01484375 150.815625)scale(0.1 -0.1)">
      <use xlink:href="#BitstreamVeraSans-Roman-5a"/>
      <use x="68.505859375" xlink:href="#BitstreamVeraSans-Roman-20"/>
      <use x="100.29296875" xlink:href="#BitstreamVeraSans-Roman-63"/>
      <use x="155.2734375" xlink:href="#BitstreamVeraSans-Roman-6f"/>
      <use x="216.455078125" xlink:href="#BitstreamVeraSans-Roman-6d"/>
      <use x="313.8671875" xlink:href="#BitstreamVeraSans-Roman-70"/>
      <use x="377.34375" xlink:href="#BitstreamVeraSans-Roman-6f"/>
      <use x="438.525390625" xlink:href="#BitstreamVeraSans-Roman-6e"/>
      <use x="501.904296875" xlink:href="#BitstreamVeraSans-Roman-65"/>
      <use x="563.427734375" xlink:href="#BitstreamVeraSans-Roman-6e"/>
      <use x="626.806640625" xlink:href="#BitstreamVeraSans-Roman-74"/>
     </g>
    </g>
   </g>
   <g id="matplotlib.axis_6">
    <g id="ytick_7">
     <g id="line2d_53">
      <g>
       <use style="stroke:#000000;stroke-width:0.5;" x="370.58125" xlink:href="#m54bfc7bc52" y="124.5390625"/>
      </g>
     </g>
     <g id="line2d_54">
      <g>
       <use style="stroke:#000000;stroke-width:0.5;" x="482.05" xlink:href="#m639d8ce5e9" y="124.5390625"/>
      </g>
     </g>
     <g id="text_23">
      <!-- 0.0 -->
      <g transform="translate(350.678125 127.2984375)scale(0.1 -0.1)">
       <use xlink:href="#BitstreamVeraSans-Roman-30"/>
       <use x="63.623046875" xlink:href="#BitstreamVeraSans-Roman-2e"/>
       <use x="95.41015625" xlink:href="#BitstreamVeraSans-Roman-30"/>
      </g>
     </g>
    </g>
    <g id="ytick_8">
     <g id="line2d_55">
      <g>
       <use style="stroke:#000000;stroke-width:0.5;" x="370.58125" xlink:href="#m54bfc7bc52" y="68.2890625"/>
      </g>
     </g>
     <g id="line2d_56">
      <g>
       <use style="stroke:#000000;stroke-width:0.5;" x="482.05" xlink:href="#m639d8ce5e9" y="68.2890625"/>
      </g>
     </g>
     <g id="text_24">
      <!-- 0.5 -->
      <g transform="translate(350.678125 71.0484375)scale(0.1 -0.1)">
       <use xlink:href="#BitstreamVeraSans-Roman-30"/>
       <use x="63.623046875" xlink:href="#BitstreamVeraSans-Roman-2e"/>
       <use x="95.41015625" xlink:href="#BitstreamVeraSans-Roman-35"/>
      </g>
     </g>
    </g>
    <g id="ytick_9">
     <g id="line2d_57">
      <g>
       <use style="stroke:#000000;stroke-width:0.5;" x="370.58125" xlink:href="#m54bfc7bc52" y="12.0390625"/>
      </g>
     </g>
     <g id="line2d_58">
      <g>
       <use style="stroke:#000000;stroke-width:0.5;" x="482.05" xlink:href="#m639d8ce5e9" y="12.0390625"/>
      </g>
     </g>
     <g id="text_25">
      <!-- 1.0 -->
      <g transform="translate(350.678125 14.7984375)scale(0.1 -0.1)">
       <use xlink:href="#BitstreamVeraSans-Roman-31"/>
       <use x="63.623046875" xlink:href="#BitstreamVeraSans-Roman-2e"/>
       <use x="95.41015625" xlink:href="#BitstreamVeraSans-Roman-30"/>
      </g>
     </g>
    </g>
    <g id="text_26">
     <!-- Cumulative Distribution -->
     <g transform="translate(343.5984375 127.584375)rotate(-90.0)scale(0.1 -0.1)">
      <use xlink:href="#BitstreamVeraSans-Roman-43"/>
      <use x="69.82421875" xlink:href="#BitstreamVeraSans-Roman-75"/>
      <use x="133.203125" xlink:href="#BitstreamVeraSans-Roman-6d"/>
      <use x="230.615234375" xlink:href="#BitstreamVeraSans-Roman-75"/>
      <use x="293.994140625" xlink:href="#BitstreamVeraSans-Roman-6c"/>
      <use x="321.77734375" xlink:href="#BitstreamVeraSans-Roman-61"/>
      <use x="383.056640625" xlink:href="#BitstreamVeraSans-Roman-74"/>
      <use x="422.265625" xlink:href="#BitstreamVeraSans-Roman-69"/>
      <use x="450.048828125" xlink:href="#BitstreamVeraSans-Roman-76"/>
      <use x="509.228515625" xlink:href="#BitstreamVeraSans-Roman-65"/>
      <use x="570.751953125" xlink:href="#BitstreamVeraSans-Roman-20"/>
      <use x="602.5390625" xlink:href="#BitstreamVeraSans-Roman-44"/>
      <use x="679.541015625" xlink:href="#BitstreamVeraSans-Roman-69"/>
      <use x="707.32421875" xlink:href="#BitstreamVeraSans-Roman-73"/>
      <use x="759.423828125" xlink:href="#BitstreamVeraSans-Roman-74"/>
      <use x="798.6328125" xlink:href="#BitstreamVeraSans-Roman-72"/>
      <use x="839.74609375" xlink:href="#BitstreamVeraSans-Roman-69"/>
      <use x="867.529296875" xlink:href="#BitstreamVeraSans-Roman-62"/>
      <use x="931.005859375" xlink:href="#BitstreamVeraSans-Roman-75"/>
      <use x="994.384765625" xlink:href="#BitstreamVeraSans-Roman-74"/>
      <use x="1033.59375" xlink:href="#BitstreamVeraSans-Roman-69"/>
      <use x="1061.37695312" xlink:href="#BitstreamVeraSans-Roman-6f"/>
      <use x="1122.55859375" xlink:href="#BitstreamVeraSans-Roman-6e"/>
     </g>
    </g>
   </g>
  </g>
 </g>
 <defs>
  <clipPath id="pc6fcff5d23">
   <rect height="112.5" width="111.46875" x="41.78125" y="12.0390625"/>
  </clipPath>
  <clipPath id="p65138a9806">
   <rect height="112.5" width="111.46875" x="370.58125" y="12.0390625"/>
  </clipPath>
  <clipPath id="p84468d6207">
   <rect height="112.5" width="111.46875" x="206.18125" y="12.0390625"/>
  </clipPath>
 </defs>
</svg>
