<?xml version="1.0" encoding="utf-8" standalone="no"?>
<!DOCTYPE svg PUBLIC "-//W3C//DTD SVG 1.1//EN"
  "http://www.w3.org/Graphics/SVG/1.1/DTD/svg11.dtd">
<!-- Created with matplotlib (http://matplotlib.org/) -->
<svg height="353pt" version="1.1" viewBox="0 0 351 353" width="351pt" xmlns="http://www.w3.org/2000/svg" xmlns:xlink="http://www.w3.org/1999/xlink">
 <defs>
  <style type="text/css">
*{stroke-linecap:butt;stroke-linejoin:round;stroke-miterlimit:100000;}
  </style>
 </defs>
 <g id="figure_1">
  <g id="patch_1">
   <path d="M -0 353.478125 
L 351.763861 353.478125 
L 351.763861 0 
L -0 0 
L -0 353.478125 
z
" style="fill:none;"/>
  </g>
  <g id="axes_1">
   <g id="PathCollection_1">
    <defs>
     <path d="M 0 2.236068 
C 0.593012 2.236068 1.161816 2.000462 1.581139 1.581139 
C 2.000462 1.161816 2.236068 0.593012 2.236068 0 
C 2.236068 -0.593012 2.000462 -1.161816 1.581139 -1.581139 
C 1.161816 -2.000462 0.593012 -2.236068 0 -2.236068 
C -0.593012 -2.236068 -1.161816 -2.000462 -1.581139 -1.581139 
C -2.000462 -1.161816 -2.236068 -0.593012 -2.236068 0 
C -2.236068 0.593012 -2.000462 1.161816 -1.581139 1.581139 
C -1.161816 2.000462 -0.593012 2.236068 0 2.236068 
z
" id="mc2e2e9df21" style="stroke:#ff0000;"/>
    </defs>
    <g clip-path="url(#p9d67f9e634)">
     <use style="fill:#ff0000;stroke:#ff0000;" x="202.108954035" xlink:href="#mc2e2e9df21" y="120.02400389"/>
    </g>
   </g>
   <g id="line2d_1">
    <path clip-path="url(#p9d67f9e634)" d="M 189.719866 23.007568 
L 192.283492 23.02994 
L 194.846338 23.097051 
L 199.966564 23.365391 
L 205.074306 23.81226 
L 210.163341 24.437115 
L 215.227469 25.239194 
L 220.26052 26.21752 
L 225.256362 27.370901 
L 230.208908 28.697932 
L 235.112124 30.196995 
L 239.960037 31.866266 
L 244.74674 33.703709 
L 249.466401 35.707086 
L 254.11327 37.873957 
L 258.681686 40.201681 
L 263.166082 42.687422 
L 267.560996 45.328153 
L 271.861072 48.120655 
L 276.061071 51.061526 
L 280.155877 54.147184 
L 284.140501 57.373869 
L 288.010088 60.737649 
L 291.759923 64.234427 
L 295.385439 67.859943 
L 298.882217 71.609778 
L 302.245997 75.479365 
L 305.472682 79.463989 
L 308.55834 83.558795 
L 311.499211 87.758794 
L 314.291713 92.058871 
L 316.932444 96.453784 
L 319.418185 100.93818 
L 321.745909 105.506596 
L 323.91278 110.153465 
L 325.916157 114.873126 
L 327.7536 119.659829 
L 329.422871 124.507742 
L 330.921934 129.410958 
L 332.248965 134.363504 
L 333.402346 139.359346 
L 334.380672 144.392397 
L 335.182751 149.456525 
L 335.807606 154.54556 
L 336.254475 159.653302 
L 336.522815 164.773528 
L 336.612298 169.9 
L 336.522815 175.026472 
L 336.254475 180.146698 
L 335.807606 185.25444 
L 335.182751 190.343475 
L 334.380672 195.407603 
L 333.402346 200.440654 
L 332.248965 205.436496 
L 330.921934 210.389042 
L 329.422871 215.292258 
L 327.7536 220.140171 
L 325.916157 224.926874 
L 323.91278 229.646535 
L 321.745909 234.293404 
L 319.418185 238.86182 
L 316.932444 243.346216 
L 314.291713 247.741129 
L 311.499211 252.041206 
L 308.55834 256.241205 
L 305.472682 260.336011 
L 302.245997 264.320635 
L 298.882217 268.190222 
L 295.385439 271.940057 
L 291.759923 275.565573 
L 288.010088 279.062351 
L 284.140501 282.426131 
L 280.155877 285.652816 
L 276.061071 288.738474 
L 271.861072 291.679345 
L 267.560996 294.471847 
L 263.166082 297.112578 
L 258.681686 299.598319 
L 254.11327 301.926043 
L 249.466401 304.092914 
L 244.74674 306.096291 
L 239.960037 307.933734 
L 235.112124 309.603005 
L 230.208908 311.102068 
L 225.256362 312.429099 
L 220.26052 313.58248 
L 215.227469 314.560806 
L 210.163341 315.362885 
L 205.074306 315.98774 
L 199.966564 316.434609 
L 194.846338 316.702949 
L 189.719866 316.792432 
L 184.593394 316.702949 
L 179.473168 316.434609 
L 174.365426 315.98774 
L 169.276391 315.362885 
L 164.212263 314.560806 
L 159.179212 313.58248 
L 154.18337 312.429099 
L 149.230825 311.102068 
L 144.327608 309.603005 
L 139.479695 307.933734 
L 134.692993 306.096291 
L 129.973331 304.092914 
L 125.326462 301.926043 
L 120.758046 299.598319 
L 116.27365 297.112578 
L 111.878737 294.471847 
L 107.578661 291.679345 
L 103.378661 288.738474 
L 99.283855 285.652816 
L 95.299231 282.426131 
L 91.429644 279.062351 
L 87.679809 275.565573 
L 84.054293 271.940057 
L 80.557515 268.190222 
L 77.193735 264.320635 
L 73.96705 260.336011 
L 70.881392 256.241205 
L 67.940521 252.041206 
L 65.148019 247.741129 
L 62.507288 243.346216 
L 60.021547 238.86182 
L 57.693823 234.293404 
L 55.526952 229.646535 
L 53.523575 224.926874 
L 51.686132 220.140171 
L 50.016861 215.292258 
L 48.517798 210.389042 
L 47.190767 205.436496 
L 46.037386 200.440654 
L 45.05906 195.407603 
L 44.256981 190.343475 
L 43.632126 185.25444 
L 43.185257 180.146698 
L 42.916917 175.026472 
L 42.827434 169.9 
L 42.916917 164.773528 
L 43.185257 159.653302 
L 43.632126 154.54556 
L 44.256981 149.456525 
L 45.05906 144.392397 
L 46.037386 139.359346 
L 47.190767 134.363504 
L 48.517798 129.410958 
L 50.016861 124.507742 
L 51.686132 119.659829 
L 53.523575 114.873126 
L 55.526952 110.153465 
L 57.693823 105.506596 
L 60.021547 100.93818 
L 62.507288 96.453784 
L 65.148019 92.058871 
L 67.940521 87.758794 
L 70.881392 83.558795 
L 73.96705 79.463989 
L 77.193735 75.479365 
L 80.557515 71.609778 
L 84.054293 67.859943 
L 87.679809 64.234427 
L 91.429644 60.737649 
L 95.299231 57.373869 
L 99.283855 54.147184 
L 103.378661 51.061526 
L 107.578661 48.120655 
L 111.878737 45.328153 
L 116.27365 42.687422 
L 120.758046 40.201681 
L 125.326462 37.873957 
L 129.973331 35.707086 
L 134.692993 33.703709 
L 139.479695 31.866266 
L 144.327608 30.196995 
L 149.230825 28.697932 
L 154.18337 27.370901 
L 159.179212 26.21752 
L 164.212263 25.239194 
L 169.276391 24.437115 
L 174.365426 23.81226 
L 179.473168 23.365391 
L 184.593394 23.097051 
L 189.719866 23.007568 
L 189.719866 23.007568 
" style="fill:none;stroke:#000000;stroke-linecap:square;"/>
   </g>
   <g id="line2d_2">
    <defs>
     <path d="M -3 0 
L 3 0 
M 0 3 
L 0 -3 
" id="m721977654b" style="stroke:#000000;stroke-width:0.5;"/>
    </defs>
    <g clip-path="url(#p9d67f9e634)">
     <use style="stroke:#000000;stroke-width:0.5;" x="189.719866071" xlink:href="#m721977654b" y="36.3690570915"/>
     <use style="stroke:#000000;stroke-width:0.5;" x="189.719866071" xlink:href="#m721977654b" y="50.7467972595"/>
     <use style="stroke:#000000;stroke-width:0.5;" x="189.719866071" xlink:href="#m721977654b" y="66.0313652471"/>
     <use style="stroke:#000000;stroke-width:0.5;" x="189.719866071" xlink:href="#m721977654b" y="82.1064362627"/>
     <use style="stroke:#000000;stroke-width:0.5;" x="189.719866071" xlink:href="#m721977654b" y="98.8496693095"/>
     <use style="stroke:#000000;stroke-width:0.5;" x="189.719866071" xlink:href="#m721977654b" y="116.133638274"/>
     <use style="stroke:#000000;stroke-width:0.5;" x="189.719866071" xlink:href="#m721977654b" y="133.826801717"/>
     <use style="stroke:#000000;stroke-width:0.5;" x="189.719866071" xlink:href="#m721977654b" y="151.79450398"/>
     <use style="stroke:#000000;stroke-width:0.5;" x="189.719866071" xlink:href="#m721977654b" y="169.9"/>
    </g>
   </g>
   <g id="line2d_3">
    <g clip-path="url(#p9d67f9e634)">
     <use style="stroke:#000000;stroke-width:0.5;" x="323.25080898" xlink:href="#m721977654b" y="169.9"/>
     <use style="stroke:#000000;stroke-width:0.5;" x="308.873068812" xlink:href="#m721977654b" y="169.9"/>
     <use style="stroke:#000000;stroke-width:0.5;" x="293.588500824" xlink:href="#m721977654b" y="169.9"/>
     <use style="stroke:#000000;stroke-width:0.5;" x="277.513429809" xlink:href="#m721977654b" y="169.9"/>
     <use style="stroke:#000000;stroke-width:0.5;" x="260.770196762" xlink:href="#m721977654b" y="169.9"/>
     <use style="stroke:#000000;stroke-width:0.5;" x="243.486227797" xlink:href="#m721977654b" y="169.9"/>
     <use style="stroke:#000000;stroke-width:0.5;" x="225.793064355" xlink:href="#m721977654b" y="169.9"/>
     <use style="stroke:#000000;stroke-width:0.5;" x="207.825362092" xlink:href="#m721977654b" y="169.9"/>
    </g>
   </g>
   <g id="line2d_4">
    <g clip-path="url(#p9d67f9e634)">
     <use style="stroke:#000000;stroke-width:0.5;" x="189.719866071" xlink:href="#m721977654b" y="303.430942908"/>
     <use style="stroke:#000000;stroke-width:0.5;" x="189.719866071" xlink:href="#m721977654b" y="289.05320274"/>
     <use style="stroke:#000000;stroke-width:0.5;" x="189.719866071" xlink:href="#m721977654b" y="273.768634753"/>
     <use style="stroke:#000000;stroke-width:0.5;" x="189.719866071" xlink:href="#m721977654b" y="257.693563737"/>
     <use style="stroke:#000000;stroke-width:0.5;" x="189.719866071" xlink:href="#m721977654b" y="240.95033069"/>
     <use style="stroke:#000000;stroke-width:0.5;" x="189.719866071" xlink:href="#m721977654b" y="223.666361726"/>
     <use style="stroke:#000000;stroke-width:0.5;" x="189.719866071" xlink:href="#m721977654b" y="205.973198283"/>
     <use style="stroke:#000000;stroke-width:0.5;" x="189.719866071" xlink:href="#m721977654b" y="188.00549602"/>
    </g>
   </g>
   <g id="line2d_5">
    <g clip-path="url(#p9d67f9e634)">
     <use style="stroke:#000000;stroke-width:0.5;" x="56.1889231629" xlink:href="#m721977654b" y="169.9"/>
     <use style="stroke:#000000;stroke-width:0.5;" x="70.5666633309" xlink:href="#m721977654b" y="169.9"/>
     <use style="stroke:#000000;stroke-width:0.5;" x="85.8512313185" xlink:href="#m721977654b" y="169.9"/>
     <use style="stroke:#000000;stroke-width:0.5;" x="101.926302334" xlink:href="#m721977654b" y="169.9"/>
     <use style="stroke:#000000;stroke-width:0.5;" x="118.669535381" xlink:href="#m721977654b" y="169.9"/>
     <use style="stroke:#000000;stroke-width:0.5;" x="135.953504346" xlink:href="#m721977654b" y="169.9"/>
     <use style="stroke:#000000;stroke-width:0.5;" x="153.646667788" xlink:href="#m721977654b" y="169.9"/>
     <use style="stroke:#000000;stroke-width:0.5;" x="171.614370051" xlink:href="#m721977654b" y="169.9"/>
    </g>
   </g>
   <g id="line2d_6">
    <path clip-path="url(#p9d67f9e634)" d="M 189.719866 23.007568 
L 189.719866 24.295023 
L 189.719866 25.593567 
L 189.719866 26.9031 
" style="fill:none;stroke:#000000;stroke-linecap:square;"/>
   </g>
   <g id="line2d_7">
    <path clip-path="url(#p9d67f9e634)" d="M 215.227469 25.239194 
L 215.003905 26.50709 
L 214.778415 27.785906 
L 214.551017 29.075544 
" style="fill:none;stroke:#000000;stroke-linecap:square;"/>
   </g>
   <g id="line2d_8">
    <path clip-path="url(#p9d67f9e634)" d="M 239.960037 31.866266 
L 239.519701 33.076078 
L 239.075573 34.29631 
L 238.627686 35.526868 
" style="fill:none;stroke:#000000;stroke-linecap:square;"/>
   </g>
   <g id="line2d_9">
    <path clip-path="url(#p9d67f9e634)" d="M 263.166082 42.687422 
L 262.522354 43.802391 
L 261.873083 44.926963 
L 261.218316 46.061052 
" style="fill:none;stroke:#000000;stroke-linecap:square;"/>
   </g>
   <g id="line2d_10">
    <path clip-path="url(#p9d67f9e634)" d="M 284.140501 57.373869 
L 283.312941 58.360117 
L 282.478253 59.354859 
L 281.636502 60.358019 
" style="fill:none;stroke:#000000;stroke-linecap:square;"/>
   </g>
   <g id="line2d_11">
    <path clip-path="url(#p9d67f9e634)" d="M 302.245997 75.479365 
L 301.259749 76.306925 
L 300.265007 77.141613 
L 299.261847 77.983364 
" style="fill:none;stroke:#000000;stroke-linecap:square;"/>
   </g>
   <g id="line2d_12">
    <path clip-path="url(#p9d67f9e634)" d="M 316.932444 96.453784 
L 315.817475 97.097512 
L 314.692903 97.746783 
L 313.558814 98.40155 
" style="fill:none;stroke:#000000;stroke-linecap:square;"/>
   </g>
   <g id="line2d_13">
    <path clip-path="url(#p9d67f9e634)" d="M 327.7536 119.659829 
L 326.543788 120.100165 
L 325.323556 120.544293 
L 324.092998 120.99218 
" style="fill:none;stroke:#000000;stroke-linecap:square;"/>
   </g>
   <g id="line2d_14">
    <path clip-path="url(#p9d67f9e634)" d="M 334.380672 144.392397 
L 333.112776 144.615961 
L 331.83396 144.841451 
L 330.544322 145.068849 
" style="fill:none;stroke:#000000;stroke-linecap:square;"/>
   </g>
   <g id="line2d_15">
    <path clip-path="url(#p9d67f9e634)" d="M 336.612298 169.9 
L 335.324843 169.9 
L 334.026299 169.9 
L 332.716766 169.9 
" style="fill:none;stroke:#000000;stroke-linecap:square;"/>
   </g>
   <g id="line2d_16">
    <path clip-path="url(#p9d67f9e634)" d="M 334.380672 195.407603 
L 333.112776 195.184039 
L 331.83396 194.958549 
L 330.544322 194.731151 
" style="fill:none;stroke:#000000;stroke-linecap:square;"/>
   </g>
   <g id="line2d_17">
    <path clip-path="url(#p9d67f9e634)" d="M 327.7536 220.140171 
L 326.543788 219.699835 
L 325.323556 219.255707 
L 324.092998 218.80782 
" style="fill:none;stroke:#000000;stroke-linecap:square;"/>
   </g>
   <g id="line2d_18">
    <path clip-path="url(#p9d67f9e634)" d="M 316.932444 243.346216 
L 315.817475 242.702488 
L 314.692903 242.053217 
L 313.558814 241.39845 
" style="fill:none;stroke:#000000;stroke-linecap:square;"/>
   </g>
   <g id="line2d_19">
    <path clip-path="url(#p9d67f9e634)" d="M 302.245997 264.320635 
L 301.259749 263.493075 
L 300.265007 262.658387 
L 299.261847 261.816636 
" style="fill:none;stroke:#000000;stroke-linecap:square;"/>
   </g>
   <g id="line2d_20">
    <path clip-path="url(#p9d67f9e634)" d="M 284.140501 282.426131 
L 283.312941 281.439883 
L 282.478253 280.445141 
L 281.636502 279.441981 
" style="fill:none;stroke:#000000;stroke-linecap:square;"/>
   </g>
   <g id="line2d_21">
    <path clip-path="url(#p9d67f9e634)" d="M 263.166082 297.112578 
L 262.522354 295.997609 
L 261.873083 294.873037 
L 261.218316 293.738948 
" style="fill:none;stroke:#000000;stroke-linecap:square;"/>
   </g>
   <g id="line2d_22">
    <path clip-path="url(#p9d67f9e634)" d="M 239.960037 307.933734 
L 239.519701 306.723922 
L 239.075573 305.50369 
L 238.627686 304.273132 
" style="fill:none;stroke:#000000;stroke-linecap:square;"/>
   </g>
   <g id="line2d_23">
    <path clip-path="url(#p9d67f9e634)" d="M 215.227469 314.560806 
L 215.003905 313.29291 
L 214.778415 312.014094 
L 214.551017 310.724456 
" style="fill:none;stroke:#000000;stroke-linecap:square;"/>
   </g>
   <g id="line2d_24">
    <path clip-path="url(#p9d67f9e634)" d="M 189.719866 316.792432 
L 189.719866 315.504977 
L 189.719866 314.206433 
L 189.719866 312.8969 
" style="fill:none;stroke:#000000;stroke-linecap:square;"/>
   </g>
   <g id="line2d_25">
    <path clip-path="url(#p9d67f9e634)" d="M 164.212263 314.560806 
L 164.435827 313.29291 
L 164.661317 312.014094 
L 164.888715 310.724456 
" style="fill:none;stroke:#000000;stroke-linecap:square;"/>
   </g>
   <g id="line2d_26">
    <path clip-path="url(#p9d67f9e634)" d="M 139.479695 307.933734 
L 139.920031 306.723922 
L 140.364159 305.50369 
L 140.812046 304.273132 
" style="fill:none;stroke:#000000;stroke-linecap:square;"/>
   </g>
   <g id="line2d_27">
    <path clip-path="url(#p9d67f9e634)" d="M 116.27365 297.112578 
L 116.917378 295.997609 
L 117.56665 294.873037 
L 118.221416 293.738948 
" style="fill:none;stroke:#000000;stroke-linecap:square;"/>
   </g>
   <g id="line2d_28">
    <path clip-path="url(#p9d67f9e634)" d="M 95.299231 282.426131 
L 96.126791 281.439883 
L 96.961479 280.445141 
L 97.803231 279.441981 
" style="fill:none;stroke:#000000;stroke-linecap:square;"/>
   </g>
   <g id="line2d_29">
    <path clip-path="url(#p9d67f9e634)" d="M 77.193735 264.320635 
L 78.179983 263.493075 
L 79.174725 262.658387 
L 80.177885 261.816636 
" style="fill:none;stroke:#000000;stroke-linecap:square;"/>
   </g>
   <g id="line2d_30">
    <path clip-path="url(#p9d67f9e634)" d="M 62.507288 243.346216 
L 63.622257 242.702488 
L 64.746829 242.053217 
L 65.880918 241.39845 
" style="fill:none;stroke:#000000;stroke-linecap:square;"/>
   </g>
   <g id="line2d_31">
    <path clip-path="url(#p9d67f9e634)" d="M 51.686132 220.140171 
L 52.895944 219.699835 
L 54.116176 219.255707 
L 55.346734 218.80782 
" style="fill:none;stroke:#000000;stroke-linecap:square;"/>
   </g>
   <g id="line2d_32">
    <path clip-path="url(#p9d67f9e634)" d="M 45.05906 195.407603 
L 46.326956 195.184039 
L 47.605772 194.958549 
L 48.89541 194.731151 
" style="fill:none;stroke:#000000;stroke-linecap:square;"/>
   </g>
   <g id="line2d_33">
    <path clip-path="url(#p9d67f9e634)" d="M 42.827434 169.9 
L 44.114889 169.9 
L 45.413433 169.9 
L 46.722966 169.9 
" style="fill:none;stroke:#000000;stroke-linecap:square;"/>
   </g>
   <g id="line2d_34">
    <path clip-path="url(#p9d67f9e634)" d="M 45.05906 144.392397 
L 46.326956 144.615961 
L 47.605772 144.841451 
L 48.89541 145.068849 
" style="fill:none;stroke:#000000;stroke-linecap:square;"/>
   </g>
   <g id="line2d_35">
    <path clip-path="url(#p9d67f9e634)" d="M 51.686132 119.659829 
L 52.895944 120.100165 
L 54.116176 120.544293 
L 55.346734 120.99218 
" style="fill:none;stroke:#000000;stroke-linecap:square;"/>
   </g>
   <g id="line2d_36">
    <path clip-path="url(#p9d67f9e634)" d="M 62.507288 96.453784 
L 63.622257 97.097512 
L 64.746829 97.746783 
L 65.880918 98.40155 
" style="fill:none;stroke:#000000;stroke-linecap:square;"/>
   </g>
   <g id="line2d_37">
    <path clip-path="url(#p9d67f9e634)" d="M 77.193735 75.479365 
L 78.179983 76.306925 
L 79.174725 77.141613 
L 80.177885 77.983364 
" style="fill:none;stroke:#000000;stroke-linecap:square;"/>
   </g>
   <g id="line2d_38">
    <path clip-path="url(#p9d67f9e634)" d="M 95.299231 57.373869 
L 96.126791 58.360117 
L 96.961479 59.354859 
L 97.803231 60.358019 
" style="fill:none;stroke:#000000;stroke-linecap:square;"/>
   </g>
   <g id="line2d_39">
    <path clip-path="url(#p9d67f9e634)" d="M 116.27365 42.687422 
L 116.917378 43.802391 
L 117.56665 44.926963 
L 118.221416 46.061052 
" style="fill:none;stroke:#000000;stroke-linecap:square;"/>
   </g>
   <g id="line2d_40">
    <path clip-path="url(#p9d67f9e634)" d="M 139.479695 31.866266 
L 139.920031 33.076078 
L 140.364159 34.29631 
L 140.812046 35.526868 
" style="fill:none;stroke:#000000;stroke-linecap:square;"/>
   </g>
   <g id="line2d_41">
    <path clip-path="url(#p9d67f9e634)" d="M 164.212263 25.239194 
L 164.435827 26.50709 
L 164.661317 27.785906 
L 164.888715 29.075544 
" style="fill:none;stroke:#000000;stroke-linecap:square;"/>
   </g>
   <g id="legend_1">
    <g id="patch_2">
     <path d="M 102.31442 34.41375 
L 337.95692 34.41375 
L 337.95692 13.2 
L 102.31442 13.2 
z
" style="fill:#ffffff;stroke:#000000;stroke-linejoin:miter;"/>
    </g>
    <g id="PathCollection_2">
     <path d="M 110.71442 26.204193 
C 111.307432 26.204193 111.876236 25.968587 112.295558 25.549264 
C 112.714881 25.129941 112.950488 24.561137 112.950488 23.968125 
C 112.950488 23.375113 112.714881 22.806309 112.295558 22.386986 
C 111.876236 21.967663 111.307432 21.732057 110.71442 21.732057 
C 110.121407 21.732057 109.552604 21.967663 109.133281 22.386986 
C 108.713958 22.806309 108.478352 23.375113 108.478352 23.968125 
C 108.478352 24.561137 108.713958 25.129941 109.133281 25.549264 
C 109.552604 25.968587 110.121407 26.204193 110.71442 26.204193 
z
" style="fill:#ff0000;stroke:#ff0000;"/>
     <path d="M 119.11442 25.154193 
C 119.707432 25.154193 120.276236 24.918587 120.695558 24.499264 
C 121.114881 24.079941 121.350488 23.511137 121.350488 22.918125 
C 121.350488 22.325113 121.114881 21.756309 120.695558 21.336986 
C 120.276236 20.917663 119.707432 20.682057 119.11442 20.682057 
C 118.521407 20.682057 117.952604 20.917663 117.533281 21.336986 
C 117.113958 21.756309 116.878352 22.325113 116.878352 22.918125 
C 116.878352 23.511137 117.113958 24.079941 117.533281 24.499264 
C 117.952604 24.918587 118.521407 25.154193 119.11442 25.154193 
z
" style="fill:#ff0000;stroke:#ff0000;"/>
     <path d="M 127.51442 26.729193 
C 128.107432 26.729193 128.676236 26.493587 129.095558 26.074264 
C 129.514881 25.654941 129.750488 25.086137 129.750488 24.493125 
C 129.750488 23.900113 129.514881 23.331309 129.095558 22.911986 
C 128.676236 22.492663 128.107432 22.257057 127.51442 22.257057 
C 126.921407 22.257057 126.352604 22.492663 125.933281 22.911986 
C 125.513958 23.331309 125.278352 23.900113 125.278352 24.493125 
C 125.278352 25.086137 125.513958 25.654941 125.933281 26.074264 
C 126.352604 26.493587 126.921407 26.729193 127.51442 26.729193 
z
" style="fill:#ff0000;stroke:#ff0000;"/>
    </g>
    <g id="text_1">
     <!-- Berkeley, CA - - August 27, 2013 -->
     <defs>
      <path d="M 19.1875 8.296875 
L 53.609375 8.296875 
L 53.609375 0 
L 7.328125 0 
L 7.328125 8.296875 
Q 12.9375 14.109375 22.625 23.890625 
Q 32.328125 33.6875 34.8125 36.53125 
Q 39.546875 41.84375 41.421875 45.53125 
Q 43.3125 49.21875 43.3125 52.78125 
Q 43.3125 58.59375 39.234375 62.25 
Q 35.15625 65.921875 28.609375 65.921875 
Q 23.96875 65.921875 18.8125 64.3125 
Q 13.671875 62.703125 7.8125 59.421875 
L 7.8125 69.390625 
Q 13.765625 71.78125 18.9375 73 
Q 24.125 74.21875 28.421875 74.21875 
Q 39.75 74.21875 46.484375 68.546875 
Q 53.21875 62.890625 53.21875 53.421875 
Q 53.21875 48.921875 51.53125 44.890625 
Q 49.859375 40.875 45.40625 35.40625 
Q 44.1875 33.984375 37.640625 27.21875 
Q 31.109375 20.453125 19.1875 8.296875 
" id="BitstreamVeraSans-Roman-32"/>
      <path id="BitstreamVeraSans-Roman-20"/>
      <path d="M 31.78125 66.40625 
Q 24.171875 66.40625 20.328125 58.90625 
Q 16.5 51.421875 16.5 36.375 
Q 16.5 21.390625 20.328125 13.890625 
Q 24.171875 6.390625 31.78125 6.390625 
Q 39.453125 6.390625 43.28125 13.890625 
Q 47.125 21.390625 47.125 36.375 
Q 47.125 51.421875 43.28125 58.90625 
Q 39.453125 66.40625 31.78125 66.40625 
M 31.78125 74.21875 
Q 44.046875 74.21875 50.515625 64.515625 
Q 56.984375 54.828125 56.984375 36.375 
Q 56.984375 17.96875 50.515625 8.265625 
Q 44.046875 -1.421875 31.78125 -1.421875 
Q 19.53125 -1.421875 13.0625 8.265625 
Q 6.59375 17.96875 6.59375 36.375 
Q 6.59375 54.828125 13.0625 64.515625 
Q 19.53125 74.21875 31.78125 74.21875 
" id="BitstreamVeraSans-Roman-30"/>
      <path d="M 12.40625 8.296875 
L 28.515625 8.296875 
L 28.515625 63.921875 
L 10.984375 60.40625 
L 10.984375 69.390625 
L 28.421875 72.90625 
L 38.28125 72.90625 
L 38.28125 8.296875 
L 54.390625 8.296875 
L 54.390625 0 
L 12.40625 0 
z
" id="BitstreamVeraSans-Roman-31"/>
      <path d="M 8.203125 72.90625 
L 55.078125 72.90625 
L 55.078125 68.703125 
L 28.609375 0 
L 18.3125 0 
L 43.21875 64.59375 
L 8.203125 64.59375 
z
" id="BitstreamVeraSans-Roman-37"/>
      <path d="M 40.578125 39.3125 
Q 47.65625 37.796875 51.625 33 
Q 55.609375 28.21875 55.609375 21.1875 
Q 55.609375 10.40625 48.1875 4.484375 
Q 40.765625 -1.421875 27.09375 -1.421875 
Q 22.515625 -1.421875 17.65625 -0.515625 
Q 12.796875 0.390625 7.625 2.203125 
L 7.625 11.71875 
Q 11.71875 9.328125 16.59375 8.109375 
Q 21.484375 6.890625 26.8125 6.890625 
Q 36.078125 6.890625 40.9375 10.546875 
Q 45.796875 14.203125 45.796875 21.1875 
Q 45.796875 27.640625 41.28125 31.265625 
Q 36.765625 34.90625 28.71875 34.90625 
L 20.21875 34.90625 
L 20.21875 43.015625 
L 29.109375 43.015625 
Q 36.375 43.015625 40.234375 45.921875 
Q 44.09375 48.828125 44.09375 54.296875 
Q 44.09375 59.90625 40.109375 62.90625 
Q 36.140625 65.921875 28.71875 65.921875 
Q 24.65625 65.921875 20.015625 65.03125 
Q 15.375 64.15625 9.8125 62.3125 
L 9.8125 71.09375 
Q 15.4375 72.65625 20.34375 73.4375 
Q 25.25 74.21875 29.59375 74.21875 
Q 40.828125 74.21875 47.359375 69.109375 
Q 53.90625 64.015625 53.90625 55.328125 
Q 53.90625 49.265625 50.4375 45.09375 
Q 46.96875 40.921875 40.578125 39.3125 
" id="BitstreamVeraSans-Roman-33"/>
      <path d="M 18.3125 70.21875 
L 18.3125 54.6875 
L 36.8125 54.6875 
L 36.8125 47.703125 
L 18.3125 47.703125 
L 18.3125 18.015625 
Q 18.3125 11.328125 20.140625 9.421875 
Q 21.96875 7.515625 27.59375 7.515625 
L 36.8125 7.515625 
L 36.8125 0 
L 27.59375 0 
Q 17.1875 0 13.234375 3.875 
Q 9.28125 7.765625 9.28125 18.015625 
L 9.28125 47.703125 
L 2.6875 47.703125 
L 2.6875 54.6875 
L 9.28125 54.6875 
L 9.28125 70.21875 
z
" id="BitstreamVeraSans-Roman-74"/>
      <path d="M 9.421875 75.984375 
L 18.40625 75.984375 
L 18.40625 0 
L 9.421875 0 
z
" id="BitstreamVeraSans-Roman-6c"/>
      <path d="M 9.078125 75.984375 
L 18.109375 75.984375 
L 18.109375 31.109375 
L 44.921875 54.6875 
L 56.390625 54.6875 
L 27.390625 29.109375 
L 57.625 0 
L 45.90625 0 
L 18.109375 26.703125 
L 18.109375 0 
L 9.078125 0 
z
" id="BitstreamVeraSans-Roman-6b"/>
      <path d="M 11.71875 12.40625 
L 22.015625 12.40625 
L 22.015625 4 
L 14.015625 -11.625 
L 7.71875 -11.625 
L 11.71875 4 
z
" id="BitstreamVeraSans-Roman-2c"/>
      <path d="M 64.40625 67.28125 
L 64.40625 56.890625 
Q 59.421875 61.53125 53.78125 63.8125 
Q 48.140625 66.109375 41.796875 66.109375 
Q 29.296875 66.109375 22.65625 58.46875 
Q 16.015625 50.828125 16.015625 36.375 
Q 16.015625 21.96875 22.65625 14.328125 
Q 29.296875 6.6875 41.796875 6.6875 
Q 48.140625 6.6875 53.78125 8.984375 
Q 59.421875 11.28125 64.40625 15.921875 
L 64.40625 5.609375 
Q 59.234375 2.09375 53.4375 0.328125 
Q 47.65625 -1.421875 41.21875 -1.421875 
Q 24.65625 -1.421875 15.125 8.703125 
Q 5.609375 18.84375 5.609375 36.375 
Q 5.609375 53.953125 15.125 64.078125 
Q 24.65625 74.21875 41.21875 74.21875 
Q 47.75 74.21875 53.53125 72.484375 
Q 59.328125 70.75 64.40625 67.28125 
" id="BitstreamVeraSans-Roman-43"/>
      <path d="M 19.671875 34.8125 
L 19.671875 8.109375 
L 35.5 8.109375 
Q 43.453125 8.109375 47.28125 11.40625 
Q 51.125 14.703125 51.125 21.484375 
Q 51.125 28.328125 47.28125 31.5625 
Q 43.453125 34.8125 35.5 34.8125 
z
M 19.671875 64.796875 
L 19.671875 42.828125 
L 34.28125 42.828125 
Q 41.5 42.828125 45.03125 45.53125 
Q 48.578125 48.25 48.578125 53.8125 
Q 48.578125 59.328125 45.03125 62.0625 
Q 41.5 64.796875 34.28125 64.796875 
z
M 9.8125 72.90625 
L 35.015625 72.90625 
Q 46.296875 72.90625 52.390625 68.21875 
Q 58.5 63.53125 58.5 54.890625 
Q 58.5 48.1875 55.375 44.234375 
Q 52.25 40.28125 46.1875 39.3125 
Q 53.46875 37.75 57.5 32.78125 
Q 61.53125 27.828125 61.53125 20.40625 
Q 61.53125 10.640625 54.890625 5.3125 
Q 48.25 0 35.984375 0 
L 9.8125 0 
z
" id="BitstreamVeraSans-Roman-42"/>
      <path d="M 34.1875 63.1875 
L 20.796875 26.90625 
L 47.609375 26.90625 
z
M 28.609375 72.90625 
L 39.796875 72.90625 
L 67.578125 0 
L 57.328125 0 
L 50.6875 18.703125 
L 17.828125 18.703125 
L 11.1875 0 
L 0.78125 0 
z
" id="BitstreamVeraSans-Roman-41"/>
      <path d="M 32.171875 -5.078125 
Q 28.375 -14.84375 24.75 -17.8125 
Q 21.140625 -20.796875 15.09375 -20.796875 
L 7.90625 -20.796875 
L 7.90625 -13.28125 
L 13.1875 -13.28125 
Q 16.890625 -13.28125 18.9375 -11.515625 
Q 21 -9.765625 23.484375 -3.21875 
L 25.09375 0.875 
L 2.984375 54.6875 
L 12.5 54.6875 
L 29.59375 11.921875 
L 46.6875 54.6875 
L 56.203125 54.6875 
z
" id="BitstreamVeraSans-Roman-79"/>
      <path d="M 56.203125 29.59375 
L 56.203125 25.203125 
L 14.890625 25.203125 
Q 15.484375 15.921875 20.484375 11.0625 
Q 25.484375 6.203125 34.421875 6.203125 
Q 39.59375 6.203125 44.453125 7.46875 
Q 49.3125 8.734375 54.109375 11.28125 
L 54.109375 2.78125 
Q 49.265625 0.734375 44.1875 -0.34375 
Q 39.109375 -1.421875 33.890625 -1.421875 
Q 20.796875 -1.421875 13.15625 6.1875 
Q 5.515625 13.8125 5.515625 26.8125 
Q 5.515625 40.234375 12.765625 48.109375 
Q 20.015625 56 32.328125 56 
Q 43.359375 56 49.78125 48.890625 
Q 56.203125 41.796875 56.203125 29.59375 
M 47.21875 32.234375 
Q 47.125 39.59375 43.09375 43.984375 
Q 39.0625 48.390625 32.421875 48.390625 
Q 24.90625 48.390625 20.390625 44.140625 
Q 15.875 39.890625 15.1875 32.171875 
z
" id="BitstreamVeraSans-Roman-65"/>
      <path d="M 45.40625 27.984375 
Q 45.40625 37.75 41.375 43.109375 
Q 37.359375 48.484375 30.078125 48.484375 
Q 22.859375 48.484375 18.828125 43.109375 
Q 14.796875 37.75 14.796875 27.984375 
Q 14.796875 18.265625 18.828125 12.890625 
Q 22.859375 7.515625 30.078125 7.515625 
Q 37.359375 7.515625 41.375 12.890625 
Q 45.40625 18.265625 45.40625 27.984375 
M 54.390625 6.78125 
Q 54.390625 -7.171875 48.1875 -13.984375 
Q 42 -20.796875 29.203125 -20.796875 
Q 24.46875 -20.796875 20.265625 -20.09375 
Q 16.0625 -19.390625 12.109375 -17.921875 
L 12.109375 -9.1875 
Q 16.0625 -11.328125 19.921875 -12.34375 
Q 23.78125 -13.375 27.78125 -13.375 
Q 36.625 -13.375 41.015625 -8.765625 
Q 45.40625 -4.15625 45.40625 5.171875 
L 45.40625 9.625 
Q 42.625 4.78125 38.28125 2.390625 
Q 33.9375 0 27.875 0 
Q 17.828125 0 11.671875 7.65625 
Q 5.515625 15.328125 5.515625 27.984375 
Q 5.515625 40.671875 11.671875 48.328125 
Q 17.828125 56 27.875 56 
Q 33.9375 56 38.28125 53.609375 
Q 42.625 51.21875 45.40625 46.390625 
L 45.40625 54.6875 
L 54.390625 54.6875 
z
" id="BitstreamVeraSans-Roman-67"/>
      <path d="M 8.5 21.578125 
L 8.5 54.6875 
L 17.484375 54.6875 
L 17.484375 21.921875 
Q 17.484375 14.15625 20.5 10.265625 
Q 23.53125 6.390625 29.59375 6.390625 
Q 36.859375 6.390625 41.078125 11.03125 
Q 45.3125 15.671875 45.3125 23.6875 
L 45.3125 54.6875 
L 54.296875 54.6875 
L 54.296875 0 
L 45.3125 0 
L 45.3125 8.40625 
Q 42.046875 3.421875 37.71875 1 
Q 33.40625 -1.421875 27.6875 -1.421875 
Q 18.265625 -1.421875 13.375 4.4375 
Q 8.5 10.296875 8.5 21.578125 
" id="BitstreamVeraSans-Roman-75"/>
      <path d="M 41.109375 46.296875 
Q 39.59375 47.171875 37.8125 47.578125 
Q 36.03125 48 33.890625 48 
Q 26.265625 48 22.1875 43.046875 
Q 18.109375 38.09375 18.109375 28.8125 
L 18.109375 0 
L 9.078125 0 
L 9.078125 54.6875 
L 18.109375 54.6875 
L 18.109375 46.1875 
Q 20.953125 51.171875 25.484375 53.578125 
Q 30.03125 56 36.53125 56 
Q 37.453125 56 38.578125 55.875 
Q 39.703125 55.765625 41.0625 55.515625 
z
" id="BitstreamVeraSans-Roman-72"/>
      <path d="M 44.28125 53.078125 
L 44.28125 44.578125 
Q 40.484375 46.53125 36.375 47.5 
Q 32.28125 48.484375 27.875 48.484375 
Q 21.1875 48.484375 17.84375 46.4375 
Q 14.5 44.390625 14.5 40.28125 
Q 14.5 37.15625 16.890625 35.375 
Q 19.28125 33.59375 26.515625 31.984375 
L 29.59375 31.296875 
Q 39.15625 29.25 43.1875 25.515625 
Q 47.21875 21.78125 47.21875 15.09375 
Q 47.21875 7.46875 41.1875 3.015625 
Q 35.15625 -1.421875 24.609375 -1.421875 
Q 20.21875 -1.421875 15.453125 -0.5625 
Q 10.6875 0.296875 5.421875 2 
L 5.421875 11.28125 
Q 10.40625 8.6875 15.234375 7.390625 
Q 20.0625 6.109375 24.8125 6.109375 
Q 31.15625 6.109375 34.5625 8.28125 
Q 37.984375 10.453125 37.984375 14.40625 
Q 37.984375 18.0625 35.515625 20.015625 
Q 33.0625 21.96875 24.703125 23.78125 
L 21.578125 24.515625 
Q 13.234375 26.265625 9.515625 29.90625 
Q 5.8125 33.546875 5.8125 39.890625 
Q 5.8125 47.609375 11.28125 51.796875 
Q 16.75 56 26.8125 56 
Q 31.78125 56 36.171875 55.265625 
Q 40.578125 54.546875 44.28125 53.078125 
" id="BitstreamVeraSans-Roman-73"/>
      <path d="M 4.890625 31.390625 
L 31.203125 31.390625 
L 31.203125 23.390625 
L 4.890625 23.390625 
z
" id="BitstreamVeraSans-Roman-2d"/>
     </defs>
     <g transform="translate(140.714419643 27.118125)scale(0.12 -0.12)">
      <use xlink:href="#BitstreamVeraSans-Roman-42"/>
      <use x="68.603515625" xlink:href="#BitstreamVeraSans-Roman-65"/>
      <use x="130.126953125" xlink:href="#BitstreamVeraSans-Roman-72"/>
      <use x="171.240234375" xlink:href="#BitstreamVeraSans-Roman-6b"/>
      <use x="229.103515625" xlink:href="#BitstreamVeraSans-Roman-65"/>
      <use x="290.626953125" xlink:href="#BitstreamVeraSans-Roman-6c"/>
      <use x="318.41015625" xlink:href="#BitstreamVeraSans-Roman-65"/>
      <use x="379.93359375" xlink:href="#BitstreamVeraSans-Roman-79"/>
      <use x="439.11328125" xlink:href="#BitstreamVeraSans-Roman-2c"/>
      <use x="470.900390625" xlink:href="#BitstreamVeraSans-Roman-20"/>
      <use x="502.6875" xlink:href="#BitstreamVeraSans-Roman-43"/>
      <use x="572.51171875" xlink:href="#BitstreamVeraSans-Roman-41"/>
      <use x="640.919921875" xlink:href="#BitstreamVeraSans-Roman-20"/>
      <use x="672.70703125" xlink:href="#BitstreamVeraSans-Roman-2d"/>
      <use x="708.791015625" xlink:href="#BitstreamVeraSans-Roman-2d"/>
      <use x="744.875" xlink:href="#BitstreamVeraSans-Roman-20"/>
      <use x="776.662109375" xlink:href="#BitstreamVeraSans-Roman-41"/>
      <use x="845.0703125" xlink:href="#BitstreamVeraSans-Roman-75"/>
      <use x="908.44921875" xlink:href="#BitstreamVeraSans-Roman-67"/>
      <use x="971.92578125" xlink:href="#BitstreamVeraSans-Roman-75"/>
      <use x="1035.3046875" xlink:href="#BitstreamVeraSans-Roman-73"/>
      <use x="1087.40429688" xlink:href="#BitstreamVeraSans-Roman-74"/>
      <use x="1126.61328125" xlink:href="#BitstreamVeraSans-Roman-20"/>
      <use x="1158.40039062" xlink:href="#BitstreamVeraSans-Roman-32"/>
      <use x="1222.0234375" xlink:href="#BitstreamVeraSans-Roman-37"/>
      <use x="1285.64648438" xlink:href="#BitstreamVeraSans-Roman-2c"/>
      <use x="1317.43359375" xlink:href="#BitstreamVeraSans-Roman-20"/>
      <use x="1349.22070312" xlink:href="#BitstreamVeraSans-Roman-32"/>
      <use x="1412.84375" xlink:href="#BitstreamVeraSans-Roman-30"/>
      <use x="1476.46679688" xlink:href="#BitstreamVeraSans-Roman-31"/>
      <use x="1540.08984375" xlink:href="#BitstreamVeraSans-Roman-33"/>
     </g>
    </g>
   </g>
  </g>
 </g>
 <defs>
  <clipPath id="p9d67f9e634">
   <rect height="325.4" width="308.474107143" x="35.4828125" y="7.2"/>
  </clipPath>
 </defs>
</svg>
