<?xml version="1.0" encoding="utf-8" standalone="no"?>
<!DOCTYPE svg PUBLIC "-//W3C//DTD SVG 1.1//EN"
  "http://www.w3.org/Graphics/SVG/1.1/DTD/svg11.dtd">
<!-- Created with matplotlib (http://matplotlib.org/) -->
<svg height="353pt" version="1.1" viewBox="0 0 351 353" width="351pt" xmlns="http://www.w3.org/2000/svg" xmlns:xlink="http://www.w3.org/1999/xlink">
 <defs>
  <style type="text/css">
*{stroke-linecap:butt;stroke-linejoin:round;stroke-miterlimit:100000;}
  </style>
 </defs>
 <g id="figure_1">
  <g id="patch_1">
   <path d="M -0 353.478125 
L 351.763861 353.478125 
L 351.763861 0 
L -0 0 
L -0 353.478125 
z
" style="fill:none;"/>
  </g>
  <g id="axes_1">
   <g id="PathCollection_1">
    <defs>
     <path d="M 0 2.236068 
C 0.593012 2.236068 1.161816 2.000462 1.581139 1.581139 
C 2.000462 1.161816 2.236068 0.593012 2.236068 0 
C 2.236068 -0.593012 2.000462 -1.161816 1.581139 -1.581139 
C 1.161816 -2.000462 0.593012 -2.236068 0 -2.236068 
C -0.593012 -2.236068 -1.161816 -2.000462 -1.581139 -1.581139 
C -2.000462 -1.161816 -2.236068 -0.593012 -2.236068 0 
C -2.236068 0.593012 -2.000462 1.161816 -1.581139 1.581139 
C -1.161816 2.000462 -0.593012 2.236068 0 2.236068 
z
" id="C0_0_ee8d93d48d"/>
    </defs>
    <g clip-path="url(#p188e115594)">
     <use style="fill:none;stroke:#000000;" x="163.041637882" xlink:href="#C0_0_ee8d93d48d" y="253.313305448"/>
    </g>
    <g clip-path="url(#p188e115594)">
     <use style="fill:none;stroke:#000000;" x="176.930759772" xlink:href="#C0_0_ee8d93d48d" y="260.415721453"/>
    </g>
    <g clip-path="url(#p188e115594)">
     <use style="fill:none;stroke:#000000;" x="133.931925226" xlink:href="#C0_0_ee8d93d48d" y="244.159810604"/>
    </g>
    <g clip-path="url(#p188e115594)">
     <use style="fill:none;stroke:#000000;" x="159.59297417" xlink:href="#C0_0_ee8d93d48d" y="222.247367165"/>
    </g>
    <g clip-path="url(#p188e115594)">
     <use style="fill:none;stroke:#000000;" x="149.871329894" xlink:href="#C0_0_ee8d93d48d" y="240.260168331"/>
    </g>
    <g clip-path="url(#p188e115594)">
     <use style="fill:none;stroke:#000000;" x="134.400821976" xlink:href="#C0_0_ee8d93d48d" y="190.878469624"/>
    </g>
    <g clip-path="url(#p188e115594)">
     <use style="fill:none;stroke:#000000;" x="159.582903307" xlink:href="#C0_0_ee8d93d48d" y="240.83122738"/>
    </g>
    <g clip-path="url(#p188e115594)">
     <use style="fill:none;stroke:#000000;" x="158.768785432" xlink:href="#C0_0_ee8d93d48d" y="256.281460168"/>
    </g>
    <g clip-path="url(#p188e115594)">
     <use style="fill:none;stroke:#000000;" x="174.30047768" xlink:href="#C0_0_ee8d93d48d" y="231.065942939"/>
    </g>
    <g clip-path="url(#p188e115594)">
     <use style="fill:none;stroke:#000000;" x="132.837564921" xlink:href="#C0_0_ee8d93d48d" y="225.692377222"/>
    </g>
    <g clip-path="url(#p188e115594)">
     <use style="fill:none;stroke:#000000;" x="178.491325502" xlink:href="#C0_0_ee8d93d48d" y="237.243670576"/>
    </g>
    <g clip-path="url(#p188e115594)">
     <use style="fill:none;stroke:#000000;" x="132.821420361" xlink:href="#C0_0_ee8d93d48d" y="207.830293843"/>
    </g>
    <g clip-path="url(#p188e115594)">
     <use style="fill:none;stroke:#000000;" x="149.243837178" xlink:href="#C0_0_ee8d93d48d" y="228.53343471"/>
    </g>
    <g clip-path="url(#p188e115594)">
     <use style="fill:none;stroke:#000000;" x="152.10546486" xlink:href="#C0_0_ee8d93d48d" y="221.548994379"/>
    </g>
    <g clip-path="url(#p188e115594)">
     <use style="fill:none;stroke:#000000;" x="154.17602295" xlink:href="#C0_0_ee8d93d48d" y="197.204892377"/>
    </g>
    <g clip-path="url(#p188e115594)">
     <use style="fill:none;stroke:#000000;" x="147.024759185" xlink:href="#C0_0_ee8d93d48d" y="258.003215266"/>
    </g>
    <g clip-path="url(#p188e115594)">
     <use style="fill:none;stroke:#000000;" x="143.058152649" xlink:href="#C0_0_ee8d93d48d" y="240.426229"/>
    </g>
    <g clip-path="url(#p188e115594)">
     <use style="fill:none;stroke:#000000;" x="179.352732215" xlink:href="#C0_0_ee8d93d48d" y="244.308737405"/>
    </g>
    <g clip-path="url(#p188e115594)">
     <use style="fill:none;stroke:#000000;" x="167.442880167" xlink:href="#C0_0_ee8d93d48d" y="234.509172226"/>
    </g>
    <g clip-path="url(#p188e115594)">
     <use style="fill:none;stroke:#000000;" x="102.069015018" xlink:href="#C0_0_ee8d93d48d" y="229.301132832"/>
    </g>
    <g clip-path="url(#p188e115594)">
     <use style="fill:none;stroke:#000000;" x="178.51269481" xlink:href="#C0_0_ee8d93d48d" y="241.996552199"/>
    </g>
    <g clip-path="url(#p188e115594)">
     <use style="fill:none;stroke:#000000;" x="143.380289495" xlink:href="#C0_0_ee8d93d48d" y="270.671492778"/>
    </g>
    <g clip-path="url(#p188e115594)">
     <use style="fill:none;stroke:#000000;" x="123.488326586" xlink:href="#C0_0_ee8d93d48d" y="248.391258484"/>
    </g>
    <g clip-path="url(#p188e115594)">
     <use style="fill:none;stroke:#000000;" x="135.865490515" xlink:href="#C0_0_ee8d93d48d" y="260.032450722"/>
    </g>
    <g clip-path="url(#p188e115594)">
     <use style="fill:none;stroke:#000000;" x="174.679016808" xlink:href="#C0_0_ee8d93d48d" y="216.761697421"/>
    </g>
    <g clip-path="url(#p188e115594)">
     <use style="fill:none;stroke:#000000;" x="104.481300784" xlink:href="#C0_0_ee8d93d48d" y="225.49184974"/>
    </g>
    <g clip-path="url(#p188e115594)">
     <use style="fill:none;stroke:#000000;" x="114.668642013" xlink:href="#C0_0_ee8d93d48d" y="225.645623183"/>
    </g>
    <g clip-path="url(#p188e115594)">
     <use style="fill:none;stroke:#000000;" x="133.169334736" xlink:href="#C0_0_ee8d93d48d" y="270.707882815"/>
    </g>
    <g clip-path="url(#p188e115594)">
     <use style="fill:none;stroke:#000000;" x="133.699816727" xlink:href="#C0_0_ee8d93d48d" y="261.055997754"/>
    </g>
    <g clip-path="url(#p188e115594)">
     <use style="fill:none;stroke:#000000;" x="129.482831023" xlink:href="#C0_0_ee8d93d48d" y="243.096888365"/>
    </g>
   </g>
   <g id="PathCollection_2">
    <defs>
     <path d="M 0 2.236068 
C 0.593012 2.236068 1.161816 2.000462 1.581139 1.581139 
C 2.000462 1.161816 2.236068 0.593012 2.236068 0 
C 2.236068 -0.593012 2.000462 -1.161816 1.581139 -1.581139 
C 1.161816 -2.000462 0.593012 -2.236068 0 -2.236068 
C -0.593012 -2.236068 -1.161816 -2.000462 -1.581139 -1.581139 
C -2.000462 -1.161816 -2.236068 -0.593012 -2.236068 0 
C -2.236068 0.593012 -2.000462 1.161816 -1.581139 1.581139 
C -1.161816 2.000462 -0.593012 2.236068 0 2.236068 
z
" id="m344d56a6bb" style="stroke:#000000;"/>
    </defs>
    <g clip-path="url(#p188e115594)">
     <use style="stroke:#000000;" x="206.269930722" xlink:href="#m344d56a6bb" y="103.51690201"/>
     <use style="stroke:#000000;" x="216.228862396" xlink:href="#m344d56a6bb" y="103.170185506"/>
     <use style="stroke:#000000;" x="257.257638973" xlink:href="#m344d56a6bb" y="61.6460788031"/>
     <use style="stroke:#000000;" x="235.021119397" xlink:href="#m344d56a6bb" y="100.85295043"/>
     <use style="stroke:#000000;" x="205.33283999" xlink:href="#m344d56a6bb" y="110.875153726"/>
     <use style="stroke:#000000;" x="253.650741987" xlink:href="#m344d56a6bb" y="127.574032824"/>
     <use style="stroke:#000000;" x="228.282184065" xlink:href="#m344d56a6bb" y="104.477131589"/>
     <use style="stroke:#000000;" x="215.726733018" xlink:href="#m344d56a6bb" y="122.626694351"/>
     <use style="stroke:#000000;" x="199.637052311" xlink:href="#m344d56a6bb" y="119.277358962"/>
     <use style="stroke:#000000;" x="204.369945112" xlink:href="#m344d56a6bb" y="128.960040615"/>
     <use style="stroke:#000000;" x="239.559523366" xlink:href="#m344d56a6bb" y="109.841192275"/>
     <use style="stroke:#000000;" x="240.880497502" xlink:href="#m344d56a6bb" y="106.800555527"/>
     <use style="stroke:#000000;" x="169.273872129" xlink:href="#m344d56a6bb" y="107.79081655"/>
     <use style="stroke:#000000;" x="205.467007431" xlink:href="#m344d56a6bb" y="153.739670315"/>
     <use style="stroke:#000000;" x="274.711762854" xlink:href="#m344d56a6bb" y="114.080534216"/>
     <use style="stroke:#000000;" x="208.602947599" xlink:href="#m344d56a6bb" y="118.401103871"/>
     <use style="stroke:#000000;" x="254.781127257" xlink:href="#m344d56a6bb" y="99.0868971299"/>
     <use style="stroke:#000000;" x="203.863371685" xlink:href="#m344d56a6bb" y="102.450382127"/>
     <use style="stroke:#000000;" x="252.215484469" xlink:href="#m344d56a6bb" y="108.363032543"/>
     <use style="stroke:#000000;" x="240.091926375" xlink:href="#m344d56a6bb" y="142.438776831"/>
     <use style="stroke:#000000;" x="229.996753044" xlink:href="#m344d56a6bb" y="60.3173305535"/>
     <use style="stroke:#000000;" x="221.04820249" xlink:href="#m344d56a6bb" y="104.161579402"/>
     <use style="stroke:#000000;" x="234.769505813" xlink:href="#m344d56a6bb" y="91.8889847317"/>
     <use style="stroke:#000000;" x="260.104457024" xlink:href="#m344d56a6bb" y="99.9451749449"/>
     <use style="stroke:#000000;" x="238.88100388" xlink:href="#m344d56a6bb" y="95.947565859"/>
     <use style="stroke:#000000;" x="207.501623946" xlink:href="#m344d56a6bb" y="65.3144036678"/>
     <use style="stroke:#000000;" x="251.959014044" xlink:href="#m344d56a6bb" y="120.243103311"/>
     <use style="stroke:#000000;" x="267.328403271" xlink:href="#m344d56a6bb" y="82.558087948"/>
     <use style="stroke:#000000;" x="200.208705997" xlink:href="#m344d56a6bb" y="103.33326064"/>
     <use style="stroke:#000000;" x="223.297080527" xlink:href="#m344d56a6bb" y="92.7846441756"/>
     <use style="stroke:#000000;" x="193.843134123" xlink:href="#m344d56a6bb" y="106.854640844"/>
     <use style="stroke:#000000;" x="232.204987186" xlink:href="#m344d56a6bb" y="116.030446715"/>
     <use style="stroke:#000000;" x="247.528645823" xlink:href="#m344d56a6bb" y="124.823858097"/>
     <use style="stroke:#000000;" x="241.319608896" xlink:href="#m344d56a6bb" y="109.077605267"/>
     <use style="stroke:#000000;" x="269.363269921" xlink:href="#m344d56a6bb" y="166.944101109"/>
     <use style="stroke:#000000;" x="257.898357329" xlink:href="#m344d56a6bb" y="161.655995694"/>
     <use style="stroke:#000000;" x="219.638963387" xlink:href="#m344d56a6bb" y="104.915737547"/>
     <use style="stroke:#000000;" x="240.199300678" xlink:href="#m344d56a6bb" y="148.813184908"/>
     <use style="stroke:#000000;" x="264.745219801" xlink:href="#m344d56a6bb" y="96.5647124214"/>
     <use style="stroke:#000000;" x="211.731458066" xlink:href="#m344d56a6bb" y="109.582482432"/>
    </g>
   </g>
   <g id="line2d_1">
    <path clip-path="url(#p188e115594)" d="M 189.719866 23.007568 
L 192.283492 23.02994 
L 194.846338 23.097051 
L 199.966564 23.365391 
L 205.074306 23.81226 
L 210.163341 24.437115 
L 215.227469 25.239194 
L 220.26052 26.21752 
L 225.256362 27.370901 
L 230.208908 28.697932 
L 235.112124 30.196995 
L 239.960037 31.866266 
L 244.74674 33.703709 
L 249.466401 35.707086 
L 254.11327 37.873957 
L 258.681686 40.201681 
L 263.166082 42.687422 
L 267.560996 45.328153 
L 271.861072 48.120655 
L 276.061071 51.061526 
L 280.155877 54.147184 
L 284.140501 57.373869 
L 288.010088 60.737649 
L 291.759923 64.234427 
L 295.385439 67.859943 
L 298.882217 71.609778 
L 302.245997 75.479365 
L 305.472682 79.463989 
L 308.55834 83.558795 
L 311.499211 87.758794 
L 314.291713 92.058871 
L 316.932444 96.453784 
L 319.418185 100.93818 
L 321.745909 105.506596 
L 323.91278 110.153465 
L 325.916157 114.873126 
L 327.7536 119.659829 
L 329.422871 124.507742 
L 330.921934 129.410958 
L 332.248965 134.363504 
L 333.402346 139.359346 
L 334.380672 144.392397 
L 335.182751 149.456525 
L 335.807606 154.54556 
L 336.254475 159.653302 
L 336.522815 164.773528 
L 336.612298 169.9 
L 336.522815 175.026472 
L 336.254475 180.146698 
L 335.807606 185.25444 
L 335.182751 190.343475 
L 334.380672 195.407603 
L 333.402346 200.440654 
L 332.248965 205.436496 
L 330.921934 210.389042 
L 329.422871 215.292258 
L 327.7536 220.140171 
L 325.916157 224.926874 
L 323.91278 229.646535 
L 321.745909 234.293404 
L 319.418185 238.86182 
L 316.932444 243.346216 
L 314.291713 247.741129 
L 311.499211 252.041206 
L 308.55834 256.241205 
L 305.472682 260.336011 
L 302.245997 264.320635 
L 298.882217 268.190222 
L 295.385439 271.940057 
L 291.759923 275.565573 
L 288.010088 279.062351 
L 284.140501 282.426131 
L 280.155877 285.652816 
L 276.061071 288.738474 
L 271.861072 291.679345 
L 267.560996 294.471847 
L 263.166082 297.112578 
L 258.681686 299.598319 
L 254.11327 301.926043 
L 249.466401 304.092914 
L 244.74674 306.096291 
L 239.960037 307.933734 
L 235.112124 309.603005 
L 230.208908 311.102068 
L 225.256362 312.429099 
L 220.26052 313.58248 
L 215.227469 314.560806 
L 210.163341 315.362885 
L 205.074306 315.98774 
L 199.966564 316.434609 
L 194.846338 316.702949 
L 189.719866 316.792432 
L 184.593394 316.702949 
L 179.473168 316.434609 
L 174.365426 315.98774 
L 169.276391 315.362885 
L 164.212263 314.560806 
L 159.179212 313.58248 
L 154.18337 312.429099 
L 149.230825 311.102068 
L 144.327608 309.603005 
L 139.479695 307.933734 
L 134.692993 306.096291 
L 129.973331 304.092914 
L 125.326462 301.926043 
L 120.758046 299.598319 
L 116.27365 297.112578 
L 111.878737 294.471847 
L 107.578661 291.679345 
L 103.378661 288.738474 
L 99.283855 285.652816 
L 95.299231 282.426131 
L 91.429644 279.062351 
L 87.679809 275.565573 
L 84.054293 271.940057 
L 80.557515 268.190222 
L 77.193735 264.320635 
L 73.96705 260.336011 
L 70.881392 256.241205 
L 67.940521 252.041206 
L 65.148019 247.741129 
L 62.507288 243.346216 
L 60.021547 238.86182 
L 57.693823 234.293404 
L 55.526952 229.646535 
L 53.523575 224.926874 
L 51.686132 220.140171 
L 50.016861 215.292258 
L 48.517798 210.389042 
L 47.190767 205.436496 
L 46.037386 200.440654 
L 45.05906 195.407603 
L 44.256981 190.343475 
L 43.632126 185.25444 
L 43.185257 180.146698 
L 42.916917 175.026472 
L 42.827434 169.9 
L 42.916917 164.773528 
L 43.185257 159.653302 
L 43.632126 154.54556 
L 44.256981 149.456525 
L 45.05906 144.392397 
L 46.037386 139.359346 
L 47.190767 134.363504 
L 48.517798 129.410958 
L 50.016861 124.507742 
L 51.686132 119.659829 
L 53.523575 114.873126 
L 55.526952 110.153465 
L 57.693823 105.506596 
L 60.021547 100.93818 
L 62.507288 96.453784 
L 65.148019 92.058871 
L 67.940521 87.758794 
L 70.881392 83.558795 
L 73.96705 79.463989 
L 77.193735 75.479365 
L 80.557515 71.609778 
L 84.054293 67.859943 
L 87.679809 64.234427 
L 91.429644 60.737649 
L 95.299231 57.373869 
L 99.283855 54.147184 
L 103.378661 51.061526 
L 107.578661 48.120655 
L 111.878737 45.328153 
L 116.27365 42.687422 
L 120.758046 40.201681 
L 125.326462 37.873957 
L 129.973331 35.707086 
L 134.692993 33.703709 
L 139.479695 31.866266 
L 144.327608 30.196995 
L 149.230825 28.697932 
L 154.18337 27.370901 
L 159.179212 26.21752 
L 164.212263 25.239194 
L 169.276391 24.437115 
L 174.365426 23.81226 
L 179.473168 23.365391 
L 184.593394 23.097051 
L 189.719866 23.007568 
L 189.719866 23.007568 
" style="fill:none;stroke:#000000;stroke-linecap:square;"/>
   </g>
   <g id="line2d_2">
    <defs>
     <path d="M -3 0 
L 3 0 
M 0 3 
L 0 -3 
" id="mebf33d06f7" style="stroke:#000000;stroke-width:0.5;"/>
    </defs>
    <g clip-path="url(#p188e115594)">
     <use style="stroke:#000000;stroke-width:0.5;" x="189.719866071" xlink:href="#mebf33d06f7" y="36.3690570915"/>
     <use style="stroke:#000000;stroke-width:0.5;" x="189.719866071" xlink:href="#mebf33d06f7" y="50.7467972595"/>
     <use style="stroke:#000000;stroke-width:0.5;" x="189.719866071" xlink:href="#mebf33d06f7" y="66.0313652471"/>
     <use style="stroke:#000000;stroke-width:0.5;" x="189.719866071" xlink:href="#mebf33d06f7" y="82.1064362627"/>
     <use style="stroke:#000000;stroke-width:0.5;" x="189.719866071" xlink:href="#mebf33d06f7" y="98.8496693095"/>
     <use style="stroke:#000000;stroke-width:0.5;" x="189.719866071" xlink:href="#mebf33d06f7" y="116.133638274"/>
     <use style="stroke:#000000;stroke-width:0.5;" x="189.719866071" xlink:href="#mebf33d06f7" y="133.826801717"/>
     <use style="stroke:#000000;stroke-width:0.5;" x="189.719866071" xlink:href="#mebf33d06f7" y="151.79450398"/>
     <use style="stroke:#000000;stroke-width:0.5;" x="189.719866071" xlink:href="#mebf33d06f7" y="169.9"/>
    </g>
   </g>
   <g id="line2d_3">
    <g clip-path="url(#p188e115594)">
     <use style="stroke:#000000;stroke-width:0.5;" x="323.25080898" xlink:href="#mebf33d06f7" y="169.9"/>
     <use style="stroke:#000000;stroke-width:0.5;" x="308.873068812" xlink:href="#mebf33d06f7" y="169.9"/>
     <use style="stroke:#000000;stroke-width:0.5;" x="293.588500824" xlink:href="#mebf33d06f7" y="169.9"/>
     <use style="stroke:#000000;stroke-width:0.5;" x="277.513429809" xlink:href="#mebf33d06f7" y="169.9"/>
     <use style="stroke:#000000;stroke-width:0.5;" x="260.770196762" xlink:href="#mebf33d06f7" y="169.9"/>
     <use style="stroke:#000000;stroke-width:0.5;" x="243.486227797" xlink:href="#mebf33d06f7" y="169.9"/>
     <use style="stroke:#000000;stroke-width:0.5;" x="225.793064355" xlink:href="#mebf33d06f7" y="169.9"/>
     <use style="stroke:#000000;stroke-width:0.5;" x="207.825362092" xlink:href="#mebf33d06f7" y="169.9"/>
    </g>
   </g>
   <g id="line2d_4">
    <g clip-path="url(#p188e115594)">
     <use style="stroke:#000000;stroke-width:0.5;" x="189.719866071" xlink:href="#mebf33d06f7" y="303.430942908"/>
     <use style="stroke:#000000;stroke-width:0.5;" x="189.719866071" xlink:href="#mebf33d06f7" y="289.05320274"/>
     <use style="stroke:#000000;stroke-width:0.5;" x="189.719866071" xlink:href="#mebf33d06f7" y="273.768634753"/>
     <use style="stroke:#000000;stroke-width:0.5;" x="189.719866071" xlink:href="#mebf33d06f7" y="257.693563737"/>
     <use style="stroke:#000000;stroke-width:0.5;" x="189.719866071" xlink:href="#mebf33d06f7" y="240.95033069"/>
     <use style="stroke:#000000;stroke-width:0.5;" x="189.719866071" xlink:href="#mebf33d06f7" y="223.666361726"/>
     <use style="stroke:#000000;stroke-width:0.5;" x="189.719866071" xlink:href="#mebf33d06f7" y="205.973198283"/>
     <use style="stroke:#000000;stroke-width:0.5;" x="189.719866071" xlink:href="#mebf33d06f7" y="188.00549602"/>
    </g>
   </g>
   <g id="line2d_5">
    <g clip-path="url(#p188e115594)">
     <use style="stroke:#000000;stroke-width:0.5;" x="56.1889231629" xlink:href="#mebf33d06f7" y="169.9"/>
     <use style="stroke:#000000;stroke-width:0.5;" x="70.5666633309" xlink:href="#mebf33d06f7" y="169.9"/>
     <use style="stroke:#000000;stroke-width:0.5;" x="85.8512313185" xlink:href="#mebf33d06f7" y="169.9"/>
     <use style="stroke:#000000;stroke-width:0.5;" x="101.926302334" xlink:href="#mebf33d06f7" y="169.9"/>
     <use style="stroke:#000000;stroke-width:0.5;" x="118.669535381" xlink:href="#mebf33d06f7" y="169.9"/>
     <use style="stroke:#000000;stroke-width:0.5;" x="135.953504346" xlink:href="#mebf33d06f7" y="169.9"/>
     <use style="stroke:#000000;stroke-width:0.5;" x="153.646667788" xlink:href="#mebf33d06f7" y="169.9"/>
     <use style="stroke:#000000;stroke-width:0.5;" x="171.614370051" xlink:href="#mebf33d06f7" y="169.9"/>
    </g>
   </g>
   <g id="line2d_6">
    <path clip-path="url(#p188e115594)" d="M 189.719866 23.007568 
L 189.719866 24.295023 
L 189.719866 25.593567 
L 189.719866 26.9031 
" style="fill:none;stroke:#000000;stroke-linecap:square;"/>
   </g>
   <g id="line2d_7">
    <path clip-path="url(#p188e115594)" d="M 215.227469 25.239194 
L 215.003905 26.50709 
L 214.778415 27.785906 
L 214.551017 29.075544 
" style="fill:none;stroke:#000000;stroke-linecap:square;"/>
   </g>
   <g id="line2d_8">
    <path clip-path="url(#p188e115594)" d="M 239.960037 31.866266 
L 239.519701 33.076078 
L 239.075573 34.29631 
L 238.627686 35.526868 
" style="fill:none;stroke:#000000;stroke-linecap:square;"/>
   </g>
   <g id="line2d_9">
    <path clip-path="url(#p188e115594)" d="M 263.166082 42.687422 
L 262.522354 43.802391 
L 261.873083 44.926963 
L 261.218316 46.061052 
" style="fill:none;stroke:#000000;stroke-linecap:square;"/>
   </g>
   <g id="line2d_10">
    <path clip-path="url(#p188e115594)" d="M 284.140501 57.373869 
L 283.312941 58.360117 
L 282.478253 59.354859 
L 281.636502 60.358019 
" style="fill:none;stroke:#000000;stroke-linecap:square;"/>
   </g>
   <g id="line2d_11">
    <path clip-path="url(#p188e115594)" d="M 302.245997 75.479365 
L 301.259749 76.306925 
L 300.265007 77.141613 
L 299.261847 77.983364 
" style="fill:none;stroke:#000000;stroke-linecap:square;"/>
   </g>
   <g id="line2d_12">
    <path clip-path="url(#p188e115594)" d="M 316.932444 96.453784 
L 315.817475 97.097512 
L 314.692903 97.746783 
L 313.558814 98.40155 
" style="fill:none;stroke:#000000;stroke-linecap:square;"/>
   </g>
   <g id="line2d_13">
    <path clip-path="url(#p188e115594)" d="M 327.7536 119.659829 
L 326.543788 120.100165 
L 325.323556 120.544293 
L 324.092998 120.99218 
" style="fill:none;stroke:#000000;stroke-linecap:square;"/>
   </g>
   <g id="line2d_14">
    <path clip-path="url(#p188e115594)" d="M 334.380672 144.392397 
L 333.112776 144.615961 
L 331.83396 144.841451 
L 330.544322 145.068849 
" style="fill:none;stroke:#000000;stroke-linecap:square;"/>
   </g>
   <g id="line2d_15">
    <path clip-path="url(#p188e115594)" d="M 336.612298 169.9 
L 335.324843 169.9 
L 334.026299 169.9 
L 332.716766 169.9 
" style="fill:none;stroke:#000000;stroke-linecap:square;"/>
   </g>
   <g id="line2d_16">
    <path clip-path="url(#p188e115594)" d="M 334.380672 195.407603 
L 333.112776 195.184039 
L 331.83396 194.958549 
L 330.544322 194.731151 
" style="fill:none;stroke:#000000;stroke-linecap:square;"/>
   </g>
   <g id="line2d_17">
    <path clip-path="url(#p188e115594)" d="M 327.7536 220.140171 
L 326.543788 219.699835 
L 325.323556 219.255707 
L 324.092998 218.80782 
" style="fill:none;stroke:#000000;stroke-linecap:square;"/>
   </g>
   <g id="line2d_18">
    <path clip-path="url(#p188e115594)" d="M 316.932444 243.346216 
L 315.817475 242.702488 
L 314.692903 242.053217 
L 313.558814 241.39845 
" style="fill:none;stroke:#000000;stroke-linecap:square;"/>
   </g>
   <g id="line2d_19">
    <path clip-path="url(#p188e115594)" d="M 302.245997 264.320635 
L 301.259749 263.493075 
L 300.265007 262.658387 
L 299.261847 261.816636 
" style="fill:none;stroke:#000000;stroke-linecap:square;"/>
   </g>
   <g id="line2d_20">
    <path clip-path="url(#p188e115594)" d="M 284.140501 282.426131 
L 283.312941 281.439883 
L 282.478253 280.445141 
L 281.636502 279.441981 
" style="fill:none;stroke:#000000;stroke-linecap:square;"/>
   </g>
   <g id="line2d_21">
    <path clip-path="url(#p188e115594)" d="M 263.166082 297.112578 
L 262.522354 295.997609 
L 261.873083 294.873037 
L 261.218316 293.738948 
" style="fill:none;stroke:#000000;stroke-linecap:square;"/>
   </g>
   <g id="line2d_22">
    <path clip-path="url(#p188e115594)" d="M 239.960037 307.933734 
L 239.519701 306.723922 
L 239.075573 305.50369 
L 238.627686 304.273132 
" style="fill:none;stroke:#000000;stroke-linecap:square;"/>
   </g>
   <g id="line2d_23">
    <path clip-path="url(#p188e115594)" d="M 215.227469 314.560806 
L 215.003905 313.29291 
L 214.778415 312.014094 
L 214.551017 310.724456 
" style="fill:none;stroke:#000000;stroke-linecap:square;"/>
   </g>
   <g id="line2d_24">
    <path clip-path="url(#p188e115594)" d="M 189.719866 316.792432 
L 189.719866 315.504977 
L 189.719866 314.206433 
L 189.719866 312.8969 
" style="fill:none;stroke:#000000;stroke-linecap:square;"/>
   </g>
   <g id="line2d_25">
    <path clip-path="url(#p188e115594)" d="M 164.212263 314.560806 
L 164.435827 313.29291 
L 164.661317 312.014094 
L 164.888715 310.724456 
" style="fill:none;stroke:#000000;stroke-linecap:square;"/>
   </g>
   <g id="line2d_26">
    <path clip-path="url(#p188e115594)" d="M 139.479695 307.933734 
L 139.920031 306.723922 
L 140.364159 305.50369 
L 140.812046 304.273132 
" style="fill:none;stroke:#000000;stroke-linecap:square;"/>
   </g>
   <g id="line2d_27">
    <path clip-path="url(#p188e115594)" d="M 116.27365 297.112578 
L 116.917378 295.997609 
L 117.56665 294.873037 
L 118.221416 293.738948 
" style="fill:none;stroke:#000000;stroke-linecap:square;"/>
   </g>
   <g id="line2d_28">
    <path clip-path="url(#p188e115594)" d="M 95.299231 282.426131 
L 96.126791 281.439883 
L 96.961479 280.445141 
L 97.803231 279.441981 
" style="fill:none;stroke:#000000;stroke-linecap:square;"/>
   </g>
   <g id="line2d_29">
    <path clip-path="url(#p188e115594)" d="M 77.193735 264.320635 
L 78.179983 263.493075 
L 79.174725 262.658387 
L 80.177885 261.816636 
" style="fill:none;stroke:#000000;stroke-linecap:square;"/>
   </g>
   <g id="line2d_30">
    <path clip-path="url(#p188e115594)" d="M 62.507288 243.346216 
L 63.622257 242.702488 
L 64.746829 242.053217 
L 65.880918 241.39845 
" style="fill:none;stroke:#000000;stroke-linecap:square;"/>
   </g>
   <g id="line2d_31">
    <path clip-path="url(#p188e115594)" d="M 51.686132 220.140171 
L 52.895944 219.699835 
L 54.116176 219.255707 
L 55.346734 218.80782 
" style="fill:none;stroke:#000000;stroke-linecap:square;"/>
   </g>
   <g id="line2d_32">
    <path clip-path="url(#p188e115594)" d="M 45.05906 195.407603 
L 46.326956 195.184039 
L 47.605772 194.958549 
L 48.89541 194.731151 
" style="fill:none;stroke:#000000;stroke-linecap:square;"/>
   </g>
   <g id="line2d_33">
    <path clip-path="url(#p188e115594)" d="M 42.827434 169.9 
L 44.114889 169.9 
L 45.413433 169.9 
L 46.722966 169.9 
" style="fill:none;stroke:#000000;stroke-linecap:square;"/>
   </g>
   <g id="line2d_34">
    <path clip-path="url(#p188e115594)" d="M 45.05906 144.392397 
L 46.326956 144.615961 
L 47.605772 144.841451 
L 48.89541 145.068849 
" style="fill:none;stroke:#000000;stroke-linecap:square;"/>
   </g>
   <g id="line2d_35">
    <path clip-path="url(#p188e115594)" d="M 51.686132 119.659829 
L 52.895944 120.100165 
L 54.116176 120.544293 
L 55.346734 120.99218 
" style="fill:none;stroke:#000000;stroke-linecap:square;"/>
   </g>
   <g id="line2d_36">
    <path clip-path="url(#p188e115594)" d="M 62.507288 96.453784 
L 63.622257 97.097512 
L 64.746829 97.746783 
L 65.880918 98.40155 
" style="fill:none;stroke:#000000;stroke-linecap:square;"/>
   </g>
   <g id="line2d_37">
    <path clip-path="url(#p188e115594)" d="M 77.193735 75.479365 
L 78.179983 76.306925 
L 79.174725 77.141613 
L 80.177885 77.983364 
" style="fill:none;stroke:#000000;stroke-linecap:square;"/>
   </g>
   <g id="line2d_38">
    <path clip-path="url(#p188e115594)" d="M 95.299231 57.373869 
L 96.126791 58.360117 
L 96.961479 59.354859 
L 97.803231 60.358019 
" style="fill:none;stroke:#000000;stroke-linecap:square;"/>
   </g>
   <g id="line2d_39">
    <path clip-path="url(#p188e115594)" d="M 116.27365 42.687422 
L 116.917378 43.802391 
L 117.56665 44.926963 
L 118.221416 46.061052 
" style="fill:none;stroke:#000000;stroke-linecap:square;"/>
   </g>
   <g id="line2d_40">
    <path clip-path="url(#p188e115594)" d="M 139.479695 31.866266 
L 139.920031 33.076078 
L 140.364159 34.29631 
L 140.812046 35.526868 
" style="fill:none;stroke:#000000;stroke-linecap:square;"/>
   </g>
   <g id="line2d_41">
    <path clip-path="url(#p188e115594)" d="M 164.212263 25.239194 
L 164.435827 26.50709 
L 164.661317 27.785906 
L 164.888715 29.075544 
" style="fill:none;stroke:#000000;stroke-linecap:square;"/>
   </g>
  </g>
 </g>
 <defs>
  <clipPath id="p188e115594">
   <rect height="325.4" width="308.474107143" x="35.4828125" y="7.2"/>
  </clipPath>
 </defs>
</svg>
