<?xml version="1.0" encoding="utf-8" standalone="no"?>
<!DOCTYPE svg PUBLIC "-//W3C//DTD SVG 1.1//EN"
  "http://www.w3.org/Graphics/SVG/1.1/DTD/svg11.dtd">
<!-- Created with matplotlib (http://matplotlib.org/) -->
<svg height="425pt" version="1.1" viewBox="0 0 424 425" width="424pt" xmlns="http://www.w3.org/2000/svg" xmlns:xlink="http://www.w3.org/1999/xlink">
 <defs>
  <style type="text/css">
*{stroke-linecap:butt;stroke-linejoin:round;stroke-miterlimit:100000;}
  </style>
 </defs>
 <g id="figure_1">
  <g id="patch_1">
   <path d="M 0 425.478125 
L 424.485491 425.478125 
L 424.485491 0 
L 0 0 
L 0 425.478125 
z
" style="fill:none;"/>
  </g>
  <g id="axes_1">
   <g id="PathCollection_1">
    <defs>
     <path d="M 0 2.236068 
C 0.593012 2.236068 1.161816 2.000462 1.581139 1.581139 
C 2.000462 1.161816 2.236068 0.593012 2.236068 0 
C 2.236068 -0.593012 2.000462 -1.161816 1.581139 -1.581139 
C 1.161816 -2.000462 0.593012 -2.236068 0 -2.236068 
C -0.593012 -2.236068 -1.161816 -2.000462 -1.581139 -1.581139 
C -2.000462 -1.161816 -2.236068 -0.593012 -2.236068 0 
C -2.236068 0.593012 -2.000462 1.161816 -1.581139 1.581139 
C -1.161816 2.000462 -0.593012 2.236068 0 2.236068 
z
" id="m7bf22b5a53" style="stroke:#000000;"/>
    </defs>
    <g clip-path="url(#p51215a73f0)">
     <use style="stroke:#000000;" x="216.341773364" xlink:href="#m7bf22b5a53" y="349.66091323"/>
     <use style="stroke:#000000;" x="174.320935095" xlink:href="#m7bf22b5a53" y="344.4973381"/>
     <use style="stroke:#000000;" x="175.032324848" xlink:href="#m7bf22b5a53" y="350.541373536"/>
     <use style="stroke:#000000;" x="221.969115896" xlink:href="#m7bf22b5a53" y="330.980305607"/>
     <use style="stroke:#000000;" x="125.703066544" xlink:href="#m7bf22b5a53" y="319.946832197"/>
     <use style="stroke:#000000;" x="215.117390108" xlink:href="#m7bf22b5a53" y="344.078526275"/>
     <use style="stroke:#000000;" x="155.987040928" xlink:href="#m7bf22b5a53" y="331.440878154"/>
     <use style="stroke:#000000;" x="163.082058292" xlink:href="#m7bf22b5a53" y="330.70358295"/>
     <use style="stroke:#000000;" x="175.056857897" xlink:href="#m7bf22b5a53" y="348.008318762"/>
     <use style="stroke:#000000;" x="213.998226223" xlink:href="#m7bf22b5a53" y="341.319947785"/>
     <use style="stroke:#000000;" x="200.760164864" xlink:href="#m7bf22b5a53" y="346.076047824"/>
     <use style="stroke:#000000;" x="166.071573448" xlink:href="#m7bf22b5a53" y="326.686977864"/>
     <use style="stroke:#000000;" x="179.172833517" xlink:href="#m7bf22b5a53" y="329.670267414"/>
     <use style="stroke:#000000;" x="220.824943337" xlink:href="#m7bf22b5a53" y="349.738229874"/>
     <use style="stroke:#000000;" x="226.301430145" xlink:href="#m7bf22b5a53" y="342.391250212"/>
     <use style="stroke:#000000;" x="205.847675" xlink:href="#m7bf22b5a53" y="355.102105817"/>
     <use style="stroke:#000000;" x="220.598238683" xlink:href="#m7bf22b5a53" y="368.262614837"/>
     <use style="stroke:#000000;" x="220.857200509" xlink:href="#m7bf22b5a53" y="350.976687132"/>
     <use style="stroke:#000000;" x="167.806045058" xlink:href="#m7bf22b5a53" y="342.811084309"/>
     <use style="stroke:#000000;" x="219.768162196" xlink:href="#m7bf22b5a53" y="328.684493214"/>
     <use style="stroke:#000000;" x="211.682694025" xlink:href="#m7bf22b5a53" y="349.854046604"/>
     <use style="stroke:#000000;" x="149.019122241" xlink:href="#m7bf22b5a53" y="324.665636617"/>
     <use style="stroke:#000000;" x="145.039147105" xlink:href="#m7bf22b5a53" y="324.235176053"/>
     <use style="stroke:#000000;" x="165.796145864" xlink:href="#m7bf22b5a53" y="323.301592311"/>
     <use style="stroke:#000000;" x="177.951749071" xlink:href="#m7bf22b5a53" y="316.975976978"/>
     <use style="stroke:#000000;" x="191.711978523" xlink:href="#m7bf22b5a53" y="357.901247939"/>
     <use style="stroke:#000000;" x="172.909840222" xlink:href="#m7bf22b5a53" y="319.134449793"/>
     <use style="stroke:#000000;" x="113.094614329" xlink:href="#m7bf22b5a53" y="311.46620098"/>
     <use style="stroke:#000000;" x="249.133567706" xlink:href="#m7bf22b5a53" y="310.606305931"/>
     <use style="stroke:#000000;" x="170.880699351" xlink:href="#m7bf22b5a53" y="332.583224118"/>
     <use style="stroke:#000000;" x="136.352831489" xlink:href="#m7bf22b5a53" y="308.953014286"/>
     <use style="stroke:#000000;" x="165.815493915" xlink:href="#m7bf22b5a53" y="341.176953459"/>
     <use style="stroke:#000000;" x="150.035211642" xlink:href="#m7bf22b5a53" y="328.790945996"/>
     <use style="stroke:#000000;" x="187.224000954" xlink:href="#m7bf22b5a53" y="323.535992039"/>
     <use style="stroke:#000000;" x="210.477724592" xlink:href="#m7bf22b5a53" y="332.687141647"/>
     <use style="stroke:#000000;" x="153.111287895" xlink:href="#m7bf22b5a53" y="289.519120631"/>
     <use style="stroke:#000000;" x="167.272920923" xlink:href="#m7bf22b5a53" y="336.8478441"/>
     <use style="stroke:#000000;" x="196.967078104" xlink:href="#m7bf22b5a53" y="345.516247422"/>
     <use style="stroke:#000000;" x="184.256059453" xlink:href="#m7bf22b5a53" y="342.123792984"/>
     <use style="stroke:#000000;" x="203.123561351" xlink:href="#m7bf22b5a53" y="349.07823568"/>
     <use style="stroke:#000000;" x="141.251351113" xlink:href="#m7bf22b5a53" y="298.143047708"/>
     <use style="stroke:#000000;" x="127.655733089" xlink:href="#m7bf22b5a53" y="299.436552872"/>
     <use style="stroke:#000000;" x="167.385055489" xlink:href="#m7bf22b5a53" y="339.638192959"/>
     <use style="stroke:#000000;" x="210.169030549" xlink:href="#m7bf22b5a53" y="345.501546876"/>
     <use style="stroke:#000000;" x="198.616842141" xlink:href="#m7bf22b5a53" y="340.127017801"/>
     <use style="stroke:#000000;" x="225.975190343" xlink:href="#m7bf22b5a53" y="351.401758685"/>
     <use style="stroke:#000000;" x="133.634969407" xlink:href="#m7bf22b5a53" y="310.607302204"/>
     <use style="stroke:#000000;" x="152.278722875" xlink:href="#m7bf22b5a53" y="310.63410929"/>
     <use style="stroke:#000000;" x="181.412310253" xlink:href="#m7bf22b5a53" y="322.678913327"/>
     <use style="stroke:#000000;" x="264.097014187" xlink:href="#m7bf22b5a53" y="304.853939174"/>
    </g>
   </g>
   <g id="line2d_1">
    <path clip-path="url(#p51215a73f0)" d="M 226.384152 24.089201 
L 229.557188 24.116891 
L 232.729257 24.199955 
L 239.066632 24.532083 
L 245.388555 25.085179 
L 251.687325 25.858571 
L 257.955266 26.851315 
L 264.184742 28.062203 
L 270.368165 29.489758 
L 276.498 31.132243 
L 282.566779 32.987655 
L 288.567107 35.053734 
L 294.491676 37.327962 
L 300.333266 39.80757 
L 306.08476 42.489536 
L 311.739152 45.370592 
L 317.289551 48.447229 
L 322.729197 51.715698 
L 328.051461 55.172016 
L 333.249858 58.811974 
L 338.318057 62.631135 
L 343.249881 66.624847 
L 348.039322 70.788245 
L 352.680545 75.116256 
L 357.167896 79.603606 
L 361.495907 84.24483 
L 365.659304 89.034271 
L 369.653017 93.966095 
L 373.472178 99.034293 
L 377.112136 104.232691 
L 380.568454 109.554955 
L 383.836923 114.9946 
L 386.913559 120.545 
L 389.794616 126.199391 
L 392.476582 131.950886 
L 394.95619 137.792476 
L 397.230418 143.717044 
L 399.296497 149.717373 
L 401.151909 155.786152 
L 402.794393 161.915987 
L 404.221949 168.099409 
L 405.432837 174.328886 
L 406.425581 180.596827 
L 407.198973 186.895597 
L 407.752069 193.21752 
L 408.084197 199.554895 
L 408.194951 205.9 
L 408.084197 212.245105 
L 407.752069 218.58248 
L 407.198973 224.904403 
L 406.425581 231.203173 
L 405.432837 237.471114 
L 404.221949 243.700591 
L 402.794393 249.884013 
L 401.151909 256.013848 
L 399.296497 262.082627 
L 397.230418 268.082956 
L 394.95619 274.007524 
L 392.476582 279.849114 
L 389.794616 285.600609 
L 386.913559 291.255 
L 383.836923 296.8054 
L 380.568454 302.245045 
L 377.112136 307.567309 
L 373.472178 312.765707 
L 369.653017 317.833905 
L 365.659304 322.765729 
L 361.495907 327.55517 
L 357.167896 332.196394 
L 352.680545 336.683744 
L 348.039322 341.011755 
L 343.249881 345.175153 
L 338.318057 349.168865 
L 333.249858 352.988026 
L 328.051461 356.627984 
L 322.729197 360.084302 
L 317.289551 363.352771 
L 311.739152 366.429408 
L 306.08476 369.310464 
L 300.333266 371.99243 
L 294.491676 374.472038 
L 288.567107 376.746266 
L 282.566779 378.812345 
L 276.498 380.667757 
L 270.368165 382.310242 
L 264.184742 383.737797 
L 257.955266 384.948685 
L 251.687325 385.941429 
L 245.388555 386.714821 
L 239.066632 387.267917 
L 232.729257 387.600045 
L 226.384152 387.710799 
L 220.039046 387.600045 
L 213.701672 387.267917 
L 207.379748 386.714821 
L 201.080979 385.941429 
L 194.813038 384.948685 
L 188.583561 383.737797 
L 182.400139 382.310242 
L 176.270304 380.667757 
L 170.201525 378.812345 
L 164.201196 376.746266 
L 158.276628 374.472038 
L 152.435038 371.99243 
L 146.683543 369.310464 
L 141.029152 366.429408 
L 135.478752 363.352771 
L 130.039107 360.084302 
L 124.716843 356.627984 
L 119.518445 352.988026 
L 114.450247 349.168865 
L 109.518423 345.175153 
L 104.728981 341.011755 
L 100.087758 336.683744 
L 95.600408 332.196394 
L 91.272397 327.55517 
L 87.108999 322.765729 
L 83.115287 317.833905 
L 79.296125 312.765707 
L 75.656168 307.567309 
L 72.19985 302.245045 
L 68.931381 296.8054 
L 65.854744 291.255 
L 62.973688 285.600609 
L 60.291722 279.849114 
L 57.812114 274.007524 
L 55.537885 268.082956 
L 53.471806 262.082627 
L 51.616394 256.013848 
L 49.97391 249.884013 
L 48.546355 243.700591 
L 47.335467 237.471114 
L 46.342723 231.203173 
L 45.569331 224.904403 
L 45.016234 218.58248 
L 44.684107 212.245105 
L 44.573352 205.9 
L 44.684107 199.554895 
L 45.016234 193.21752 
L 45.569331 186.895597 
L 46.342723 180.596827 
L 47.335467 174.328886 
L 48.546355 168.099409 
L 49.97391 161.915987 
L 51.616394 155.786152 
L 53.471806 149.717373 
L 55.537885 143.717044 
L 57.812114 137.792476 
L 60.291722 131.950886 
L 62.973688 126.199391 
L 65.854744 120.545 
L 68.931381 114.9946 
L 72.19985 109.554955 
L 75.656168 104.232691 
L 79.296125 99.034293 
L 83.115287 93.966095 
L 87.108999 89.034271 
L 91.272397 84.24483 
L 95.600408 79.603606 
L 100.087758 75.116256 
L 104.728981 70.788245 
L 109.518423 66.624847 
L 114.450247 62.631135 
L 119.518445 58.811974 
L 124.716843 55.172016 
L 130.039107 51.715698 
L 135.478752 48.447229 
L 141.029152 45.370592 
L 146.683543 42.489536 
L 152.435038 39.80757 
L 158.276628 37.327962 
L 164.201196 35.053734 
L 170.201525 32.987655 
L 176.270304 31.132243 
L 182.400139 29.489758 
L 188.583561 28.062203 
L 194.813038 26.851315 
L 201.080979 25.858571 
L 207.379748 25.085179 
L 213.701672 24.532083 
L 220.039046 24.199955 
L 226.384152 24.089201 
L 226.384152 24.089201 
" style="fill:none;stroke:#000000;stroke-linecap:square;"/>
   </g>
   <g id="line2d_2">
    <defs>
     <path d="M -3 0 
L 3 0 
M 0 3 
L 0 -3 
" id="m8010e94118" style="stroke:#000000;stroke-width:0.5;"/>
    </defs>
    <g clip-path="url(#p51215a73f0)">
     <use style="stroke:#000000;stroke-width:0.5;" x="226.384151786" xlink:href="#m8010e94118" y="40.6269009161"/>
     <use style="stroke:#000000;stroke-width:0.5;" x="226.384151786" xlink:href="#m8010e94118" y="58.4224292306"/>
     <use style="stroke:#000000;stroke-width:0.5;" x="226.384151786" xlink:href="#m8010e94118" y="77.3403509081"/>
     <use style="stroke:#000000;stroke-width:0.5;" x="226.384151786" xlink:href="#m8010e94118" y="97.2366891416"/>
     <use style="stroke:#000000;stroke-width:0.5;" x="226.384151786" xlink:href="#m8010e94118" y="117.960020783"/>
     <use style="stroke:#000000;stroke-width:0.5;" x="226.384151786" xlink:href="#m8010e94118" y="139.352628767"/>
     <use style="stroke:#000000;stroke-width:0.5;" x="226.384151786" xlink:href="#m8010e94118" y="161.251702427"/>
     <use style="stroke:#000000;stroke-width:0.5;" x="226.384151786" xlink:href="#m8010e94118" y="183.490576592"/>
     <use style="stroke:#000000;stroke-width:0.5;" x="226.384151786" xlink:href="#m8010e94118" y="205.9"/>
    </g>
   </g>
   <g id="line2d_3">
    <g clip-path="url(#p51215a73f0)">
     <use style="stroke:#000000;stroke-width:0.5;" x="391.65725087" xlink:href="#m8010e94118" y="205.9"/>
     <use style="stroke:#000000;stroke-width:0.5;" x="373.861722555" xlink:href="#m8010e94118" y="205.9"/>
     <use style="stroke:#000000;stroke-width:0.5;" x="354.943800878" xlink:href="#m8010e94118" y="205.9"/>
     <use style="stroke:#000000;stroke-width:0.5;" x="335.047462644" xlink:href="#m8010e94118" y="205.9"/>
     <use style="stroke:#000000;stroke-width:0.5;" x="314.324131002" xlink:href="#m8010e94118" y="205.9"/>
     <use style="stroke:#000000;stroke-width:0.5;" x="292.931523019" xlink:href="#m8010e94118" y="205.9"/>
     <use style="stroke:#000000;stroke-width:0.5;" x="271.032449358" xlink:href="#m8010e94118" y="205.9"/>
     <use style="stroke:#000000;stroke-width:0.5;" x="248.793575194" xlink:href="#m8010e94118" y="205.9"/>
    </g>
   </g>
   <g id="line2d_4">
    <g clip-path="url(#p51215a73f0)">
     <use style="stroke:#000000;stroke-width:0.5;" x="226.384151786" xlink:href="#m8010e94118" y="371.173099084"/>
     <use style="stroke:#000000;stroke-width:0.5;" x="226.384151786" xlink:href="#m8010e94118" y="353.377570769"/>
     <use style="stroke:#000000;stroke-width:0.5;" x="226.384151786" xlink:href="#m8010e94118" y="334.459649092"/>
     <use style="stroke:#000000;stroke-width:0.5;" x="226.384151786" xlink:href="#m8010e94118" y="314.563310858"/>
     <use style="stroke:#000000;stroke-width:0.5;" x="226.384151786" xlink:href="#m8010e94118" y="293.839979217"/>
     <use style="stroke:#000000;stroke-width:0.5;" x="226.384151786" xlink:href="#m8010e94118" y="272.447371233"/>
     <use style="stroke:#000000;stroke-width:0.5;" x="226.384151786" xlink:href="#m8010e94118" y="250.548297573"/>
     <use style="stroke:#000000;stroke-width:0.5;" x="226.384151786" xlink:href="#m8010e94118" y="228.309423408"/>
    </g>
   </g>
   <g id="line2d_5">
    <g clip-path="url(#p51215a73f0)">
     <use style="stroke:#000000;stroke-width:0.5;" x="61.1110527018" xlink:href="#m8010e94118" y="205.9"/>
     <use style="stroke:#000000;stroke-width:0.5;" x="78.9065810163" xlink:href="#m8010e94118" y="205.9"/>
     <use style="stroke:#000000;stroke-width:0.5;" x="97.8245026938" xlink:href="#m8010e94118" y="205.9"/>
     <use style="stroke:#000000;stroke-width:0.5;" x="117.720840927" xlink:href="#m8010e94118" y="205.9"/>
     <use style="stroke:#000000;stroke-width:0.5;" x="138.444172569" xlink:href="#m8010e94118" y="205.9"/>
     <use style="stroke:#000000;stroke-width:0.5;" x="159.836780552" xlink:href="#m8010e94118" y="205.9"/>
     <use style="stroke:#000000;stroke-width:0.5;" x="181.735854213" xlink:href="#m8010e94118" y="205.9"/>
     <use style="stroke:#000000;stroke-width:0.5;" x="203.974728378" xlink:href="#m8010e94118" y="205.9"/>
    </g>
   </g>
   <g id="line2d_6">
    <path clip-path="url(#p51215a73f0)" d="M 226.384152 24.089201 
L 226.384152 25.682702 
L 226.384152 27.289927 
L 226.384152 28.910755 
" style="fill:none;stroke:#000000;stroke-linecap:square;"/>
   </g>
   <g id="line2d_7">
    <path clip-path="url(#p51215a73f0)" d="M 257.955266 26.851315 
L 257.678557 28.420608 
L 257.399465 30.003416 
L 257.118012 31.599619 
" style="fill:none;stroke:#000000;stroke-linecap:square;"/>
   </g>
   <g id="line2d_8">
    <path clip-path="url(#p51215a73f0)" d="M 288.567107 35.053734 
L 288.022098 36.551135 
L 287.472394 38.061433 
L 286.918039 39.584512 
" style="fill:none;stroke:#000000;stroke-linecap:square;"/>
   </g>
   <g id="line2d_9">
    <path clip-path="url(#p51215a73f0)" d="M 317.289551 48.447229 
L 316.492801 49.827242 
L 315.689188 51.21914 
L 314.878774 52.622817 
" style="fill:none;stroke:#000000;stroke-linecap:square;"/>
   </g>
   <g id="line2d_10">
    <path clip-path="url(#p51215a73f0)" d="M 343.249881 66.624847 
L 342.225598 67.84554 
L 341.192493 69.076746 
L 340.150646 70.318372 
" style="fill:none;stroke:#000000;stroke-linecap:square;"/>
   </g>
   <g id="line2d_11">
    <path clip-path="url(#p51215a73f0)" d="M 365.659304 89.034271 
L 364.438612 90.058554 
L 363.207405 91.091658 
L 361.96578 92.133506 
" style="fill:none;stroke:#000000;stroke-linecap:square;"/>
   </g>
   <g id="line2d_12">
    <path clip-path="url(#p51215a73f0)" d="M 383.836923 114.9946 
L 382.45691 115.791351 
L 381.065012 116.594964 
L 379.661335 117.405377 
" style="fill:none;stroke:#000000;stroke-linecap:square;"/>
   </g>
   <g id="line2d_13">
    <path clip-path="url(#p51215a73f0)" d="M 397.230418 143.717044 
L 395.733017 144.262054 
L 394.222719 144.811757 
L 392.69964 145.366113 
" style="fill:none;stroke:#000000;stroke-linecap:square;"/>
   </g>
   <g id="line2d_14">
    <path clip-path="url(#p51215a73f0)" d="M 405.432837 174.328886 
L 403.863544 174.605595 
L 402.280736 174.884686 
L 400.684533 175.16614 
" style="fill:none;stroke:#000000;stroke-linecap:square;"/>
   </g>
   <g id="line2d_15">
    <path clip-path="url(#p51215a73f0)" d="M 408.194951 205.9 
L 406.60145 205.9 
L 404.994224 205.9 
L 403.373397 205.9 
" style="fill:none;stroke:#000000;stroke-linecap:square;"/>
   </g>
   <g id="line2d_16">
    <path clip-path="url(#p51215a73f0)" d="M 405.432837 237.471114 
L 403.863544 237.194405 
L 402.280736 236.915314 
L 400.684533 236.63386 
" style="fill:none;stroke:#000000;stroke-linecap:square;"/>
   </g>
   <g id="line2d_17">
    <path clip-path="url(#p51215a73f0)" d="M 397.230418 268.082956 
L 395.733017 267.537946 
L 394.222719 266.988243 
L 392.69964 266.433887 
" style="fill:none;stroke:#000000;stroke-linecap:square;"/>
   </g>
   <g id="line2d_18">
    <path clip-path="url(#p51215a73f0)" d="M 383.836923 296.8054 
L 382.45691 296.008649 
L 381.065012 295.205036 
L 379.661335 294.394623 
" style="fill:none;stroke:#000000;stroke-linecap:square;"/>
   </g>
   <g id="line2d_19">
    <path clip-path="url(#p51215a73f0)" d="M 365.659304 322.765729 
L 364.438612 321.741446 
L 363.207405 320.708342 
L 361.96578 319.666494 
" style="fill:none;stroke:#000000;stroke-linecap:square;"/>
   </g>
   <g id="line2d_20">
    <path clip-path="url(#p51215a73f0)" d="M 343.249881 345.175153 
L 342.225598 343.95446 
L 341.192493 342.723254 
L 340.150646 341.481628 
" style="fill:none;stroke:#000000;stroke-linecap:square;"/>
   </g>
   <g id="line2d_21">
    <path clip-path="url(#p51215a73f0)" d="M 317.289551 363.352771 
L 316.492801 361.972758 
L 315.689188 360.58086 
L 314.878774 359.177183 
" style="fill:none;stroke:#000000;stroke-linecap:square;"/>
   </g>
   <g id="line2d_22">
    <path clip-path="url(#p51215a73f0)" d="M 288.567107 376.746266 
L 288.022098 375.248865 
L 287.472394 373.738567 
L 286.918039 372.215488 
" style="fill:none;stroke:#000000;stroke-linecap:square;"/>
   </g>
   <g id="line2d_23">
    <path clip-path="url(#p51215a73f0)" d="M 257.955266 384.948685 
L 257.678557 383.379392 
L 257.399465 381.796584 
L 257.118012 380.200381 
" style="fill:none;stroke:#000000;stroke-linecap:square;"/>
   </g>
   <g id="line2d_24">
    <path clip-path="url(#p51215a73f0)" d="M 226.384152 387.710799 
L 226.384152 386.117298 
L 226.384152 384.510073 
L 226.384152 382.889245 
" style="fill:none;stroke:#000000;stroke-linecap:square;"/>
   </g>
   <g id="line2d_25">
    <path clip-path="url(#p51215a73f0)" d="M 194.813038 384.948685 
L 195.089746 383.379392 
L 195.368838 381.796584 
L 195.650292 380.200381 
" style="fill:none;stroke:#000000;stroke-linecap:square;"/>
   </g>
   <g id="line2d_26">
    <path clip-path="url(#p51215a73f0)" d="M 164.201196 376.746266 
L 164.746206 375.248865 
L 165.295909 373.738567 
L 165.850265 372.215488 
" style="fill:none;stroke:#000000;stroke-linecap:square;"/>
   </g>
   <g id="line2d_27">
    <path clip-path="url(#p51215a73f0)" d="M 135.478752 363.352771 
L 136.275503 361.972758 
L 137.079115 360.58086 
L 137.889529 359.177183 
" style="fill:none;stroke:#000000;stroke-linecap:square;"/>
   </g>
   <g id="line2d_28">
    <path clip-path="url(#p51215a73f0)" d="M 109.518423 345.175153 
L 110.542705 343.95446 
L 111.57581 342.723254 
L 112.617658 341.481628 
" style="fill:none;stroke:#000000;stroke-linecap:square;"/>
   </g>
   <g id="line2d_29">
    <path clip-path="url(#p51215a73f0)" d="M 87.108999 322.765729 
L 88.329692 321.741446 
L 89.560898 320.708342 
L 90.802524 319.666494 
" style="fill:none;stroke:#000000;stroke-linecap:square;"/>
   </g>
   <g id="line2d_30">
    <path clip-path="url(#p51215a73f0)" d="M 68.931381 296.8054 
L 70.311393 296.008649 
L 71.703291 295.205036 
L 73.106969 294.394623 
" style="fill:none;stroke:#000000;stroke-linecap:square;"/>
   </g>
   <g id="line2d_31">
    <path clip-path="url(#p51215a73f0)" d="M 55.537885 268.082956 
L 57.035287 267.537946 
L 58.545584 266.988243 
L 60.068664 266.433887 
" style="fill:none;stroke:#000000;stroke-linecap:square;"/>
   </g>
   <g id="line2d_32">
    <path clip-path="url(#p51215a73f0)" d="M 47.335467 237.471114 
L 48.904759 237.194405 
L 50.487567 236.915314 
L 52.083771 236.63386 
" style="fill:none;stroke:#000000;stroke-linecap:square;"/>
   </g>
   <g id="line2d_33">
    <path clip-path="url(#p51215a73f0)" d="M 44.573352 205.9 
L 46.166854 205.9 
L 47.774079 205.9 
L 49.394906 205.9 
" style="fill:none;stroke:#000000;stroke-linecap:square;"/>
   </g>
   <g id="line2d_34">
    <path clip-path="url(#p51215a73f0)" d="M 47.335467 174.328886 
L 48.904759 174.605595 
L 50.487567 174.884686 
L 52.083771 175.16614 
" style="fill:none;stroke:#000000;stroke-linecap:square;"/>
   </g>
   <g id="line2d_35">
    <path clip-path="url(#p51215a73f0)" d="M 55.537885 143.717044 
L 57.035287 144.262054 
L 58.545584 144.811757 
L 60.068664 145.366113 
" style="fill:none;stroke:#000000;stroke-linecap:square;"/>
   </g>
   <g id="line2d_36">
    <path clip-path="url(#p51215a73f0)" d="M 68.931381 114.9946 
L 70.311393 115.791351 
L 71.703291 116.594964 
L 73.106969 117.405377 
" style="fill:none;stroke:#000000;stroke-linecap:square;"/>
   </g>
   <g id="line2d_37">
    <path clip-path="url(#p51215a73f0)" d="M 87.108999 89.034271 
L 88.329692 90.058554 
L 89.560898 91.091658 
L 90.802524 92.133506 
" style="fill:none;stroke:#000000;stroke-linecap:square;"/>
   </g>
   <g id="line2d_38">
    <path clip-path="url(#p51215a73f0)" d="M 109.518423 66.624847 
L 110.542705 67.84554 
L 111.57581 69.076746 
L 112.617658 70.318372 
" style="fill:none;stroke:#000000;stroke-linecap:square;"/>
   </g>
   <g id="line2d_39">
    <path clip-path="url(#p51215a73f0)" d="M 135.478752 48.447229 
L 136.275503 49.827242 
L 137.079115 51.21914 
L 137.889529 52.622817 
" style="fill:none;stroke:#000000;stroke-linecap:square;"/>
   </g>
   <g id="line2d_40">
    <path clip-path="url(#p51215a73f0)" d="M 164.201196 35.053734 
L 164.746206 36.551135 
L 165.295909 38.061433 
L 165.850265 39.584512 
" style="fill:none;stroke:#000000;stroke-linecap:square;"/>
   </g>
   <g id="line2d_41">
    <path clip-path="url(#p51215a73f0)" d="M 194.813038 26.851315 
L 195.089746 28.420608 
L 195.368838 30.003416 
L 195.650292 31.599619 
" style="fill:none;stroke:#000000;stroke-linecap:square;"/>
   </g>
  </g>
 </g>
 <defs>
  <clipPath id="p51215a73f0">
   <rect height="397.4" width="381.802678571" x="35.4828125" y="7.2"/>
  </clipPath>
 </defs>
</svg>
