<?xml version="1.0" encoding="utf-8" standalone="no"?>
<!DOCTYPE svg PUBLIC "-//W3C//DTD SVG 1.1//EN"
  "http://www.w3.org/Graphics/SVG/1.1/DTD/svg11.dtd">
<!-- Created with matplotlib (http://matplotlib.org/) -->
<svg height="353pt" version="1.1" viewBox="0 0 352 353" width="352pt" xmlns="http://www.w3.org/2000/svg" xmlns:xlink="http://www.w3.org/1999/xlink">
 <defs>
  <style type="text/css">
*{stroke-linecap:butt;stroke-linejoin:round;stroke-miterlimit:100000;}
  </style>
 </defs>
 <g id="figure_1">
  <g id="patch_1">
   <path d="M 0 353.478125 
L 352.448916 353.478125 
L 352.448916 0 
L 0 0 
L 0 353.478125 
z
" style="fill:none;"/>
  </g>
  <g id="axes_1">
   <g id="PathCollection_1">
    <defs>
     <path d="M 0 2.236068 
C 0.593012 2.236068 1.161816 2.000462 1.581139 1.581139 
C 2.000462 1.161816 2.236068 0.593012 2.236068 0 
C 2.236068 -0.593012 2.000462 -1.161816 1.581139 -1.581139 
C 1.161816 -2.000462 0.593012 -2.236068 0 -2.236068 
C -0.593012 -2.236068 -1.161816 -2.000462 -1.581139 -1.581139 
C -2.000462 -1.161816 -2.236068 -0.593012 -2.236068 0 
C -2.236068 0.593012 -2.000462 1.161816 -1.581139 1.581139 
C -1.161816 2.000462 -0.593012 2.236068 0 2.236068 
z
" id="m2a15dc27e1" style="stroke:#000000;"/>
    </defs>
    <g clip-path="url(#pe24c16536d)">
     <use style="stroke:#000000;" x="184.521760764" xlink:href="#m2a15dc27e1" y="249.155810508"/>
     <use style="stroke:#000000;" x="160.180525732" xlink:href="#m2a15dc27e1" y="249.290066013"/>
     <use style="stroke:#000000;" x="158.915380513" xlink:href="#m2a15dc27e1" y="257.455340782"/>
     <use style="stroke:#000000;" x="187.991761918" xlink:href="#m2a15dc27e1" y="228.665097611"/>
     <use style="stroke:#000000;" x="129.838329759" xlink:href="#m2a15dc27e1" y="237.973606918"/>
     <use style="stroke:#000000;" x="184.150919293" xlink:href="#m2a15dc27e1" y="242.337546643"/>
     <use style="stroke:#000000;" x="151.23863672" xlink:href="#m2a15dc27e1" y="238.993064485"/>
     <use style="stroke:#000000;" x="156.41966208" xlink:href="#m2a15dc27e1" y="236.09439085"/>
     <use style="stroke:#000000;" x="159.688229803" xlink:href="#m2a15dc27e1" y="253.828222781"/>
     <use style="stroke:#000000;" x="183.711989772" xlink:href="#m2a15dc27e1" y="239.264878748"/>
     <use style="stroke:#000000;" x="176.125294333" xlink:href="#m2a15dc27e1" y="246.01546163"/>
     <use style="stroke:#000000;" x="159.364322096" xlink:href="#m2a15dc27e1" y="231.255657732"/>
     <use style="stroke:#000000;" x="166.537728942" xlink:href="#m2a15dc27e1" y="231.454665571"/>
     <use style="stroke:#000000;" x="187.003793108" xlink:href="#m2a15dc27e1" y="249.07387921"/>
     <use style="stroke:#000000;" x="190.028094553" xlink:href="#m2a15dc27e1" y="240.119216319"/>
     <use style="stroke:#000000;" x="177.974258123" xlink:href="#m2a15dc27e1" y="257.58423419"/>
     <use style="stroke:#000000;" x="186.20827156" xlink:href="#m2a15dc27e1" y="278.04168427"/>
     <use style="stroke:#000000;" x="186.985379231" xlink:href="#m2a15dc27e1" y="250.703884105"/>
     <use style="stroke:#000000;" x="156.150184519" xlink:href="#m2a15dc27e1" y="249.000542671"/>
     <use style="stroke:#000000;" x="187.004675739" xlink:href="#m2a15dc27e1" y="226.67331577"/>
     <use style="stroke:#000000;" x="181.90141755" xlink:href="#m2a15dc27e1" y="249.711059983"/>
     <use style="stroke:#000000;" x="148.261017277" xlink:href="#m2a15dc27e1" y="233.937829126"/>
     <use style="stroke:#000000;" x="145.341215824" xlink:href="#m2a15dc27e1" y="234.821785239"/>
     <use style="stroke:#000000;" x="159.957458439" xlink:href="#m2a15dc27e1" y="228.118184044"/>
     <use style="stroke:#000000;" x="167.906836972" xlink:href="#m2a15dc27e1" y="220.615843507"/>
     <use style="stroke:#000000;" x="168.494886914" xlink:href="#m2a15dc27e1" y="264.272911724"/>
     <use style="stroke:#000000;" x="164.87773964" xlink:href="#m2a15dc27e1" y="223.126330966"/>
     <use style="stroke:#000000;" x="120.351279378" xlink:href="#m2a15dc27e1" y="234.718993271"/>
     <use style="stroke:#000000;" x="199.603629696" xlink:href="#m2a15dc27e1" y="213.676385367"/>
     <use style="stroke:#000000;" x="160.992760861" xlink:href="#m2a15dc27e1" y="236.118078812"/>
     <use style="stroke:#000000;" x="143.506837942" xlink:href="#m2a15dc27e1" y="223.077711904"/>
     <use style="stroke:#000000;" x="155.240791427" xlink:href="#m2a15dc27e1" y="247.514331734"/>
     <use style="stroke:#000000;" x="147.655631561" xlink:href="#m2a15dc27e1" y="238.016239439"/>
     <use style="stroke:#000000;" x="171.788717946" xlink:href="#m2a15dc27e1" y="224.694051194"/>
     <use style="stroke:#000000;" x="182.431285412" xlink:href="#m2a15dc27e1" y="230.654509165"/>
     <use style="stroke:#000000;" x="158.638878391" xlink:href="#m2a15dc27e1" y="205.688687378"/>
     <use style="stroke:#000000;" x="157.544270214" xlink:href="#m2a15dc27e1" y="241.791660246"/>
     <use style="stroke:#000000;" x="174.033617087" xlink:href="#m2a15dc27e1" y="245.840997482"/>
     <use style="stroke:#000000;" x="167.1238396" xlink:href="#m2a15dc27e1" y="243.931829963"/>
     <use style="stroke:#000000;" x="177.101519818" xlink:href="#m2a15dc27e1" y="249.54958834"/>
     <use style="stroke:#000000;" x="149.873916122" xlink:href="#m2a15dc27e1" y="213.355192031"/>
     <use style="stroke:#000000;" x="139.377911731" xlink:href="#m2a15dc27e1" y="217.818023365"/>
     <use style="stroke:#000000;" x="156.81770251" xlink:href="#m2a15dc27e1" y="245.106372899"/>
     <use style="stroke:#000000;" x="181.403780289" xlink:href="#m2a15dc27e1" y="244.347539031"/>
     <use style="stroke:#000000;" x="175.681115207" xlink:href="#m2a15dc27e1" y="239.301519722"/>
     <use style="stroke:#000000;" x="189.841743735" xlink:href="#m2a15dc27e1" y="251.191125914"/>
     <use style="stroke:#000000;" x="140.792882552" xlink:href="#m2a15dc27e1" y="225.40497257"/>
     <use style="stroke:#000000;" x="154.337336841" xlink:href="#m2a15dc27e1" y="220.287837558"/>
     <use style="stroke:#000000;" x="168.897053015" xlink:href="#m2a15dc27e1" y="224.757187631"/>
     <use style="stroke:#000000;" x="205.763877798" xlink:href="#m2a15dc27e1" y="210.98338992"/>
    </g>
   </g>
   <g id="PathCollection_2">
    <defs>
     <path d="M 0 2.236068 
C 0.593012 2.236068 1.161816 2.000462 1.581139 1.581139 
C 2.000462 1.161816 2.236068 0.593012 2.236068 0 
C 2.236068 -0.593012 2.000462 -1.161816 1.581139 -1.581139 
C 1.161816 -2.000462 0.593012 -2.236068 0 -2.236068 
C -0.593012 -2.236068 -1.161816 -2.000462 -1.581139 -1.581139 
C -2.000462 -1.161816 -2.236068 -0.593012 -2.236068 0 
C -2.236068 0.593012 -2.000462 1.161816 -1.581139 1.581139 
C -1.161816 2.000462 -0.593012 2.236068 0 2.236068 
z
" id="md33f64cb4b" style="stroke:#ff0000;"/>
    </defs>
    <g clip-path="url(#pe24c16536d)">
     <use style="fill:#ff0000;stroke:#ff0000;" x="166.604214804" xlink:href="#md33f64cb4b" y="238.427413021"/>
    </g>
   </g>
   <g id="line2d_1">
    <path clip-path="url(#pe24c16536d)" d="M 190.070748 23.007568 
L 192.640207 23.02994 
L 195.208883 23.097051 
L 200.340757 23.365391 
L 205.460119 23.81226 
L 210.560732 24.437115 
L 215.63638 25.239194 
L 220.680881 26.21752 
L 225.688088 27.370901 
L 230.651901 28.697932 
L 235.566271 30.196995 
L 240.425213 31.866266 
L 245.222805 33.703709 
L 249.953204 35.707086 
L 254.610644 37.873957 
L 259.189453 40.201681 
L 263.684051 42.687422 
L 268.088963 45.328153 
L 272.398821 48.120655 
L 276.608376 51.061526 
L 280.712497 54.147184 
L 284.706186 57.373869 
L 288.584576 60.737649 
L 292.342942 64.234427 
L 295.976705 67.859943 
L 299.481438 71.609778 
L 302.852871 75.479365 
L 306.086897 79.463989 
L 309.179574 83.558795 
L 312.127136 87.758794 
L 314.925991 92.058871 
L 317.572729 96.453784 
L 320.064125 100.93818 
L 322.397145 105.506596 
L 324.568945 110.153465 
L 326.57688 114.873126 
L 328.418503 119.659829 
L 330.091571 124.507742 
L 331.594045 129.410958 
L 332.924094 134.363504 
L 334.080099 139.359346 
L 335.060651 144.392397 
L 335.864555 149.456525 
L 336.490831 154.54556 
L 336.938717 159.653302 
L 337.207667 164.773528 
L 337.297354 169.9 
L 337.207667 175.026472 
L 336.938717 180.146698 
L 336.490831 185.25444 
L 335.864555 190.343475 
L 335.060651 195.407603 
L 334.080099 200.440654 
L 332.924094 205.436496 
L 331.594045 210.389042 
L 330.091571 215.292258 
L 328.418503 220.140171 
L 326.57688 224.926874 
L 324.568945 229.646535 
L 322.397145 234.293404 
L 320.064125 238.86182 
L 317.572729 243.346216 
L 314.925991 247.741129 
L 312.127136 252.041206 
L 309.179574 256.241205 
L 306.086897 260.336011 
L 302.852871 264.320635 
L 299.481438 268.190222 
L 295.976705 271.940057 
L 292.342942 275.565573 
L 288.584576 279.062351 
L 284.706186 282.426131 
L 280.712497 285.652816 
L 276.608376 288.738474 
L 272.398821 291.679345 
L 268.088963 294.471847 
L 263.684051 297.112578 
L 259.189453 299.598319 
L 254.610644 301.926043 
L 249.953204 304.092914 
L 245.222805 306.096291 
L 240.425213 307.933734 
L 235.566271 309.603005 
L 230.651901 311.102068 
L 225.688088 312.429099 
L 220.680881 313.58248 
L 215.63638 314.560806 
L 210.560732 315.362885 
L 205.460119 315.98774 
L 200.340757 316.434609 
L 195.208883 316.702949 
L 190.070748 316.792432 
L 184.932614 316.702949 
L 179.800739 316.434609 
L 174.681377 315.98774 
L 169.580765 315.362885 
L 164.505117 314.560806 
L 159.460616 313.58248 
L 154.453409 312.429099 
L 149.489596 311.102068 
L 144.575225 309.603005 
L 139.716284 307.933734 
L 134.918691 306.096291 
L 130.188293 304.092914 
L 125.530852 301.926043 
L 120.952044 299.598319 
L 116.457446 297.112578 
L 112.052534 294.471847 
L 107.742675 291.679345 
L 103.533121 288.738474 
L 99.428999 285.652816 
L 95.43531 282.426131 
L 91.55692 279.062351 
L 87.798554 275.565573 
L 84.164791 271.940057 
L 80.660058 268.190222 
L 77.288625 264.320635 
L 74.0546 260.336011 
L 70.961922 256.241205 
L 68.014361 252.041206 
L 65.215506 247.741129 
L 62.568768 243.346216 
L 60.077371 238.86182 
L 57.744352 234.293404 
L 55.572552 229.646535 
L 53.564617 224.926874 
L 51.722994 220.140171 
L 50.049926 215.292258 
L 48.547452 210.389042 
L 47.217402 205.436496 
L 46.061397 200.440654 
L 45.080846 195.407603 
L 44.276942 190.343475 
L 43.650666 185.25444 
L 43.202779 180.146698 
L 42.933829 175.026472 
L 42.844143 169.9 
L 42.933829 164.773528 
L 43.202779 159.653302 
L 43.650666 154.54556 
L 44.276942 149.456525 
L 45.080846 144.392397 
L 46.061397 139.359346 
L 47.217402 134.363504 
L 48.547452 129.410958 
L 50.049926 124.507742 
L 51.722994 119.659829 
L 53.564617 114.873126 
L 55.572552 110.153465 
L 57.744352 105.506596 
L 60.077371 100.93818 
L 62.568768 96.453784 
L 65.215506 92.058871 
L 68.014361 87.758794 
L 70.961922 83.558795 
L 74.0546 79.463989 
L 77.288625 75.479365 
L 80.660058 71.609778 
L 84.164791 67.859943 
L 87.798554 64.234427 
L 91.55692 60.737649 
L 95.43531 57.373869 
L 99.428999 54.147184 
L 103.533121 51.061526 
L 107.742675 48.120655 
L 112.052534 45.328153 
L 116.457446 42.687422 
L 120.952044 40.201681 
L 125.530852 37.873957 
L 130.188293 35.707086 
L 134.918691 33.703709 
L 139.716284 31.866266 
L 144.575225 30.196995 
L 149.489596 28.697932 
L 154.453409 27.370901 
L 159.460616 26.21752 
L 164.505117 25.239194 
L 169.580765 24.437115 
L 174.681377 23.81226 
L 179.800739 23.365391 
L 184.932614 23.097051 
L 190.070748 23.007568 
L 190.070748 23.007568 
" style="fill:none;stroke:#000000;stroke-linecap:square;"/>
   </g>
   <g id="line2d_2">
    <defs>
     <path d="M -3 0 
L 3 0 
M 0 3 
L 0 -3 
" id="m7f56423da5" style="stroke:#000000;stroke-width:0.5;"/>
    </defs>
    <g clip-path="url(#pe24c16536d)">
     <use style="stroke:#000000;stroke-width:0.5;" x="190.070748299" xlink:href="#m7f56423da5" y="36.3690570915"/>
     <use style="stroke:#000000;stroke-width:0.5;" x="190.070748299" xlink:href="#m7f56423da5" y="50.7467972595"/>
     <use style="stroke:#000000;stroke-width:0.5;" x="190.070748299" xlink:href="#m7f56423da5" y="66.0313652471"/>
     <use style="stroke:#000000;stroke-width:0.5;" x="190.070748299" xlink:href="#m7f56423da5" y="82.1064362627"/>
     <use style="stroke:#000000;stroke-width:0.5;" x="190.070748299" xlink:href="#m7f56423da5" y="98.8496693095"/>
     <use style="stroke:#000000;stroke-width:0.5;" x="190.070748299" xlink:href="#m7f56423da5" y="116.133638274"/>
     <use style="stroke:#000000;stroke-width:0.5;" x="190.070748299" xlink:href="#m7f56423da5" y="133.826801717"/>
     <use style="stroke:#000000;stroke-width:0.5;" x="190.070748299" xlink:href="#m7f56423da5" y="151.79450398"/>
     <use style="stroke:#000000;stroke-width:0.5;" x="190.070748299" xlink:href="#m7f56423da5" y="169.9"/>
    </g>
   </g>
   <g id="line2d_3">
    <g clip-path="url(#pe24c16536d)">
     <use style="stroke:#000000;stroke-width:0.5;" x="323.905467983" xlink:href="#m7f56423da5" y="169.9"/>
     <use style="stroke:#000000;stroke-width:0.5;" x="309.495019115" xlink:href="#m7f56423da5" y="169.9"/>
     <use style="stroke:#000000;stroke-width:0.5;" x="294.175679436" xlink:href="#m7f56423da5" y="169.9"/>
     <use style="stroke:#000000;stroke-width:0.5;" x="278.06403837" xlink:href="#m7f56423da5" y="169.9"/>
     <use style="stroke:#000000;stroke-width:0.5;" x="261.282715236" xlink:href="#m7f56423da5" y="169.9"/>
     <use style="stroke:#000000;stroke-width:0.5;" x="243.959426034" xlink:href="#m7f56423da5" y="169.9"/>
     <use style="stroke:#000000;stroke-width:0.5;" x="226.226011455" xlink:href="#m7f56423da5" y="169.9"/>
     <use style="stroke:#000000;stroke-width:0.5;" x="208.217433493" xlink:href="#m7f56423da5" y="169.9"/>
    </g>
   </g>
   <g id="line2d_4">
    <g clip-path="url(#pe24c16536d)">
     <use style="stroke:#000000;stroke-width:0.5;" x="190.070748299" xlink:href="#m7f56423da5" y="303.430942908"/>
     <use style="stroke:#000000;stroke-width:0.5;" x="190.070748299" xlink:href="#m7f56423da5" y="289.05320274"/>
     <use style="stroke:#000000;stroke-width:0.5;" x="190.070748299" xlink:href="#m7f56423da5" y="273.768634753"/>
     <use style="stroke:#000000;stroke-width:0.5;" x="190.070748299" xlink:href="#m7f56423da5" y="257.693563737"/>
     <use style="stroke:#000000;stroke-width:0.5;" x="190.070748299" xlink:href="#m7f56423da5" y="240.95033069"/>
     <use style="stroke:#000000;stroke-width:0.5;" x="190.070748299" xlink:href="#m7f56423da5" y="223.666361726"/>
     <use style="stroke:#000000;stroke-width:0.5;" x="190.070748299" xlink:href="#m7f56423da5" y="205.973198283"/>
     <use style="stroke:#000000;stroke-width:0.5;" x="190.070748299" xlink:href="#m7f56423da5" y="188.00549602"/>
    </g>
   </g>
   <g id="line2d_5">
    <g clip-path="url(#pe24c16536d)">
     <use style="stroke:#000000;stroke-width:0.5;" x="56.2360286157" xlink:href="#m7f56423da5" y="169.9"/>
     <use style="stroke:#000000;stroke-width:0.5;" x="70.6464774836" xlink:href="#m7f56423da5" y="169.9"/>
     <use style="stroke:#000000;stroke-width:0.5;" x="85.9658171628" xlink:href="#m7f56423da5" y="169.9"/>
     <use style="stroke:#000000;stroke-width:0.5;" x="102.077458228" xlink:href="#m7f56423da5" y="169.9"/>
     <use style="stroke:#000000;stroke-width:0.5;" x="118.858781363" xlink:href="#m7f56423da5" y="169.9"/>
     <use style="stroke:#000000;stroke-width:0.5;" x="136.182070565" xlink:href="#m7f56423da5" y="169.9"/>
     <use style="stroke:#000000;stroke-width:0.5;" x="153.915485143" xlink:href="#m7f56423da5" y="169.9"/>
     <use style="stroke:#000000;stroke-width:0.5;" x="171.924063106" xlink:href="#m7f56423da5" y="169.9"/>
    </g>
   </g>
   <g id="line2d_6">
    <path clip-path="url(#pe24c16536d)" d="M 190.070748 23.007568 
L 190.070748 24.295023 
L 190.070748 25.593567 
L 190.070748 26.9031 
" style="fill:none;stroke:#000000;stroke-linecap:square;"/>
   </g>
   <g id="line2d_7">
    <path clip-path="url(#pe24c16536d)" d="M 215.63638 25.239194 
L 215.412307 26.50709 
L 215.186304 27.785906 
L 214.958389 29.075544 
" style="fill:none;stroke:#000000;stroke-linecap:square;"/>
   </g>
   <g id="line2d_8">
    <path clip-path="url(#pe24c16536d)" d="M 240.425213 31.866266 
L 239.983876 33.076078 
L 239.538737 34.29631 
L 239.089832 35.526868 
" style="fill:none;stroke:#000000;stroke-linecap:square;"/>
   </g>
   <g id="line2d_9">
    <path clip-path="url(#pe24c16536d)" d="M 263.684051 42.687422 
L 263.038859 43.802391 
L 262.38811 44.926963 
L 261.731854 46.061052 
" style="fill:none;stroke:#000000;stroke-linecap:square;"/>
   </g>
   <g id="line2d_10">
    <path clip-path="url(#pe24c16536d)" d="M 284.706186 57.373869 
L 283.876743 58.360117 
L 283.040157 59.354859 
L 282.19649 60.358019 
" style="fill:none;stroke:#000000;stroke-linecap:square;"/>
   </g>
   <g id="line2d_11">
    <path clip-path="url(#pe24c16536d)" d="M 302.852871 75.479365 
L 301.86438 76.306925 
L 300.867375 77.141613 
L 299.861932 77.983364 
" style="fill:none;stroke:#000000;stroke-linecap:square;"/>
   </g>
   <g id="line2d_12">
    <path clip-path="url(#pe24c16536d)" d="M 317.572729 96.453784 
L 316.455223 97.097512 
L 315.328093 97.746783 
L 314.191424 98.40155 
" style="fill:none;stroke:#000000;stroke-linecap:square;"/>
   </g>
   <g id="line2d_13">
    <path clip-path="url(#pe24c16536d)" d="M 328.418503 119.659829 
L 327.205939 120.100165 
L 325.982931 120.544293 
L 324.749573 120.99218 
" style="fill:none;stroke:#000000;stroke-linecap:square;"/>
   </g>
   <g id="line2d_14">
    <path clip-path="url(#pe24c16536d)" d="M 335.060651 144.392397 
L 333.789871 144.615961 
L 332.508145 144.841451 
L 331.215573 145.068849 
" style="fill:none;stroke:#000000;stroke-linecap:square;"/>
   </g>
   <g id="line2d_15">
    <path clip-path="url(#pe24c16536d)" d="M 337.297354 169.9 
L 336.00697 169.9 
L 334.705472 169.9 
L 333.39296 169.9 
" style="fill:none;stroke:#000000;stroke-linecap:square;"/>
   </g>
   <g id="line2d_16">
    <path clip-path="url(#pe24c16536d)" d="M 335.060651 195.407603 
L 333.789871 195.184039 
L 332.508145 194.958549 
L 331.215573 194.731151 
" style="fill:none;stroke:#000000;stroke-linecap:square;"/>
   </g>
   <g id="line2d_17">
    <path clip-path="url(#pe24c16536d)" d="M 328.418503 220.140171 
L 327.205939 219.699835 
L 325.982931 219.255707 
L 324.749573 218.80782 
" style="fill:none;stroke:#000000;stroke-linecap:square;"/>
   </g>
   <g id="line2d_18">
    <path clip-path="url(#pe24c16536d)" d="M 317.572729 243.346216 
L 316.455223 242.702488 
L 315.328093 242.053217 
L 314.191424 241.39845 
" style="fill:none;stroke:#000000;stroke-linecap:square;"/>
   </g>
   <g id="line2d_19">
    <path clip-path="url(#pe24c16536d)" d="M 302.852871 264.320635 
L 301.86438 263.493075 
L 300.867375 262.658387 
L 299.861932 261.816636 
" style="fill:none;stroke:#000000;stroke-linecap:square;"/>
   </g>
   <g id="line2d_20">
    <path clip-path="url(#pe24c16536d)" d="M 284.706186 282.426131 
L 283.876743 281.439883 
L 283.040157 280.445141 
L 282.19649 279.441981 
" style="fill:none;stroke:#000000;stroke-linecap:square;"/>
   </g>
   <g id="line2d_21">
    <path clip-path="url(#pe24c16536d)" d="M 263.684051 297.112578 
L 263.038859 295.997609 
L 262.38811 294.873037 
L 261.731854 293.738948 
" style="fill:none;stroke:#000000;stroke-linecap:square;"/>
   </g>
   <g id="line2d_22">
    <path clip-path="url(#pe24c16536d)" d="M 240.425213 307.933734 
L 239.983876 306.723922 
L 239.538737 305.50369 
L 239.089832 304.273132 
" style="fill:none;stroke:#000000;stroke-linecap:square;"/>
   </g>
   <g id="line2d_23">
    <path clip-path="url(#pe24c16536d)" d="M 215.63638 314.560806 
L 215.412307 313.29291 
L 215.186304 312.014094 
L 214.958389 310.724456 
" style="fill:none;stroke:#000000;stroke-linecap:square;"/>
   </g>
   <g id="line2d_24">
    <path clip-path="url(#pe24c16536d)" d="M 190.070748 316.792432 
L 190.070748 315.504977 
L 190.070748 314.206433 
L 190.070748 312.8969 
" style="fill:none;stroke:#000000;stroke-linecap:square;"/>
   </g>
   <g id="line2d_25">
    <path clip-path="url(#pe24c16536d)" d="M 164.505117 314.560806 
L 164.729189 313.29291 
L 164.955192 312.014094 
L 165.183107 310.724456 
" style="fill:none;stroke:#000000;stroke-linecap:square;"/>
   </g>
   <g id="line2d_26">
    <path clip-path="url(#pe24c16536d)" d="M 139.716284 307.933734 
L 140.157621 306.723922 
L 140.602759 305.50369 
L 141.051665 304.273132 
" style="fill:none;stroke:#000000;stroke-linecap:square;"/>
   </g>
   <g id="line2d_27">
    <path clip-path="url(#pe24c16536d)" d="M 116.457446 297.112578 
L 117.102638 295.997609 
L 117.753386 294.873037 
L 118.409643 293.738948 
" style="fill:none;stroke:#000000;stroke-linecap:square;"/>
   </g>
   <g id="line2d_28">
    <path clip-path="url(#pe24c16536d)" d="M 95.43531 282.426131 
L 96.264753 281.439883 
L 97.10134 280.445141 
L 97.945007 279.441981 
" style="fill:none;stroke:#000000;stroke-linecap:square;"/>
   </g>
   <g id="line2d_29">
    <path clip-path="url(#pe24c16536d)" d="M 77.288625 264.320635 
L 78.277117 263.493075 
L 79.274122 262.658387 
L 80.279565 261.816636 
" style="fill:none;stroke:#000000;stroke-linecap:square;"/>
   </g>
   <g id="line2d_30">
    <path clip-path="url(#pe24c16536d)" d="M 62.568768 243.346216 
L 63.686273 242.702488 
L 64.813403 242.053217 
L 65.950072 241.39845 
" style="fill:none;stroke:#000000;stroke-linecap:square;"/>
   </g>
   <g id="line2d_31">
    <path clip-path="url(#pe24c16536d)" d="M 51.722994 220.140171 
L 52.935558 219.699835 
L 54.158566 219.255707 
L 55.391924 218.80782 
" style="fill:none;stroke:#000000;stroke-linecap:square;"/>
   </g>
   <g id="line2d_32">
    <path clip-path="url(#pe24c16536d)" d="M 45.080846 195.407603 
L 46.351626 195.184039 
L 47.633351 194.958549 
L 48.925923 194.731151 
" style="fill:none;stroke:#000000;stroke-linecap:square;"/>
   </g>
   <g id="line2d_33">
    <path clip-path="url(#pe24c16536d)" d="M 42.844143 169.9 
L 44.134527 169.9 
L 45.436025 169.9 
L 46.748537 169.9 
" style="fill:none;stroke:#000000;stroke-linecap:square;"/>
   </g>
   <g id="line2d_34">
    <path clip-path="url(#pe24c16536d)" d="M 45.080846 144.392397 
L 46.351626 144.615961 
L 47.633351 144.841451 
L 48.925923 145.068849 
" style="fill:none;stroke:#000000;stroke-linecap:square;"/>
   </g>
   <g id="line2d_35">
    <path clip-path="url(#pe24c16536d)" d="M 51.722994 119.659829 
L 52.935558 120.100165 
L 54.158566 120.544293 
L 55.391924 120.99218 
" style="fill:none;stroke:#000000;stroke-linecap:square;"/>
   </g>
   <g id="line2d_36">
    <path clip-path="url(#pe24c16536d)" d="M 62.568768 96.453784 
L 63.686273 97.097512 
L 64.813403 97.746783 
L 65.950072 98.40155 
" style="fill:none;stroke:#000000;stroke-linecap:square;"/>
   </g>
   <g id="line2d_37">
    <path clip-path="url(#pe24c16536d)" d="M 77.288625 75.479365 
L 78.277117 76.306925 
L 79.274122 77.141613 
L 80.279565 77.983364 
" style="fill:none;stroke:#000000;stroke-linecap:square;"/>
   </g>
   <g id="line2d_38">
    <path clip-path="url(#pe24c16536d)" d="M 95.43531 57.373869 
L 96.264753 58.360117 
L 97.10134 59.354859 
L 97.945007 60.358019 
" style="fill:none;stroke:#000000;stroke-linecap:square;"/>
   </g>
   <g id="line2d_39">
    <path clip-path="url(#pe24c16536d)" d="M 116.457446 42.687422 
L 117.102638 43.802391 
L 117.753386 44.926963 
L 118.409643 46.061052 
" style="fill:none;stroke:#000000;stroke-linecap:square;"/>
   </g>
   <g id="line2d_40">
    <path clip-path="url(#pe24c16536d)" d="M 139.716284 31.866266 
L 140.157621 33.076078 
L 140.602759 34.29631 
L 141.051665 35.526868 
" style="fill:none;stroke:#000000;stroke-linecap:square;"/>
   </g>
   <g id="line2d_41">
    <path clip-path="url(#pe24c16536d)" d="M 164.505117 25.239194 
L 164.729189 26.50709 
L 164.955192 27.785906 
L 165.183107 29.075544 
" style="fill:none;stroke:#000000;stroke-linecap:square;"/>
   </g>
   <g id="line2d_42">
    <path clip-path="url(#pe24c16536d)" d="M 160.837746 236.370421 
L 160.736187 236.692128 
L 160.657784 237.02081 
L 160.602892 237.35518 
L 160.571774 237.693921 
L 160.5646 238.035693 
L 160.581444 238.379139 
L 160.622283 238.72289 
L 160.686997 239.06557 
L 160.77537 239.405804 
L 160.887087 239.742219 
L 161.02174 240.073456 
L 161.178823 240.39817 
L 161.357736 240.715041 
L 161.557789 241.022777 
L 161.778202 241.320119 
L 162.018109 241.605849 
L 162.276562 241.878793 
L 162.552531 242.137831 
L 162.844913 242.381896 
L 163.152534 242.609983 
L 163.474156 242.821153 
L 163.808478 243.014536 
L 164.154147 243.189336 
L 164.50976 243.344836 
L 164.87387 243.480398 
L 165.244998 243.595469 
L 165.621631 243.689583 
L 166.002237 243.76236 
L 166.385264 243.813513 
L 166.769155 243.842843 
L 167.152348 243.850246 
L 167.533286 243.835708 
L 167.910425 243.799306 
L 168.282239 243.741211 
L 168.647226 243.661682 
L 169.003915 243.561067 
L 169.350876 243.439801 
L 169.686718 243.298404 
L 170.010104 243.137475 
L 170.31975 242.957694 
L 170.614432 242.759815 
L 170.89299 242.544664 
L 171.154337 242.313134 
L 171.397457 242.06618 
L 171.621411 241.804819 
L 171.825341 241.530119 
L 172.008475 241.243199 
L 172.170125 240.945221 
L 172.30969 240.637388 
L 172.426662 240.320936 
L 172.520623 239.997129 
L 172.591247 239.667258 
L 172.638302 239.332629 
L 172.661647 238.994564 
L 172.661236 238.654391 
L 172.637116 238.313442 
L 172.589422 237.973046 
L 172.518384 237.634528 
L 172.424316 237.299197 
L 172.307623 236.968347 
L 172.168794 236.643251 
L 172.008399 236.325156 
L 171.82709 236.015278 
L 171.625595 235.7148 
L 171.404717 235.424865 
L 171.16533 235.146575 
L 170.908374 234.880986 
L 170.634853 234.629103 
L 170.345834 234.391879 
L 170.042437 234.170211 
L 169.725833 233.964938 
L 169.397245 233.776836 
L 169.057935 233.606618 
L 168.709206 233.454929 
L 168.352395 233.322345 
L 167.988867 233.209374 
L 167.620015 233.116449 
L 167.247249 233.04393 
L 166.871995 232.992101 
L 166.49569 232.96117 
L 166.119776 232.951269 
L 165.745693 232.96245 
L 165.374878 232.994687 
L 165.008758 233.047878 
L 164.648746 233.12184 
L 164.296231 233.216313 
L 163.952582 233.330958 
L 163.619133 233.465361 
L 163.297186 233.619032 
L 162.988003 233.791406 
L 162.6928 233.981846 
L 162.412744 234.189643 
L 162.148947 234.414021 
L 161.902464 234.654135 
L 161.674286 234.909079 
L 161.465337 235.177884 
L 161.27647 235.459525 
L 161.108463 235.752922 
L 160.962015 236.056947 
L 160.837746 236.370421 
" style="fill:none;stroke:#ff0000;stroke-linecap:square;"/>
   </g>
  </g>
 </g>
 <defs>
  <clipPath id="pe24c16536d">
   <rect height="325.4" width="309.175871599" x="35.4828125" y="7.2"/>
  </clipPath>
 </defs>
</svg>
