<?xml version="1.0" encoding="utf-8" standalone="no"?>
<!DOCTYPE svg PUBLIC "-//W3C//DTD SVG 1.1//EN"
  "http://www.w3.org/Graphics/SVG/1.1/DTD/svg11.dtd">
<!-- Created with matplotlib (http://matplotlib.org/) -->
<svg height="335pt" version="1.1" viewBox="0 0 337 335" width="337pt" xmlns="http://www.w3.org/2000/svg" xmlns:xlink="http://www.w3.org/1999/xlink">
 <defs>
  <style type="text/css">
*{stroke-linecap:butt;stroke-linejoin:round;stroke-miterlimit:100000;}
  </style>
 </defs>
 <g id="figure_1">
  <g id="patch_1">
   <path d="M 0 335.874375 
L 337.589062 335.874375 
L 337.589062 0 
L 0 0 
L 0 335.874375 
z
" style="fill:none;"/>
  </g>
  <g id="axes_1">
   <g id="patch_2">
    <path d="M 41.845313 300.318125 
L 320.845312 300.318125 
L 320.845312 21.318125 
L 41.845313 21.318125 
z
" style="fill:#ffffff;"/>
   </g>
   <g id="line2d_1">
    <path clip-path="url(#p3bfb64b17e)" d="M 60.073311 117.822426 
L 60.538311 69.669352 
L 61.003311 74.55183 
L 61.933311 88.947825 
L 62.863311 106.802797 
L 63.328311 111.351352 
L 63.793311 110.765986 
L 64.258311 105.046701 
L 65.653311 73.072453 
L 66.118311 67.576671 
L 66.583311 65.986872 
L 67.048311 68.022347 
L 67.513311 71.063585 
L 67.978311 71.817908 
L 68.443311 69.334097 
L 68.908311 63.558936 
L 69.373311 56.220584 
L 69.838311 58.870692 
L 70.768311 104.154019 
L 71.233311 110.235167 
L 71.698311 96.564226 
L 72.163311 75.332761 
L 72.628311 60.35007 
L 73.093311 55.076461 
L 73.558311 59.261823 
L 74.953311 88.111019 
L 75.418311 93.997932 
L 75.883311 97.56866 
L 76.348311 98.824534 
L 76.813311 97.931852 
L 77.278311 94.974427 
L 77.743311 89.980197 
L 78.673311 74.356265 
L 79.138311 67.045851 
L 79.603311 63.781109 
L 80.068311 65.092859 
L 80.533311 70.923896 
L 81.928311 97.95846 
L 82.393311 101.308346 
L 82.858311 100.973091 
L 83.323311 97.261343 
L 84.253311 85.097718 
L 85.648311 63.475122 
L 86.113311 59.847188 
L 86.578311 62.638316 
L 87.043311 72.291522 
L 88.438311 122.901673 
L 88.903311 125.05023 
L 89.368311 114.671969 
L 89.833311 91.737623 
L 90.763311 35.072932 
L 91.228311 22.601326 
L 91.693311 24.331479 
L 92.158311 40.150976 
L 93.088311 88.724322 
L 93.553311 104.068875 
L 94.018311 110.8498 
L 94.483311 109.092374 
L 94.948311 99.326086 
L 95.878311 75.276885 
L 96.343311 68.63565 
L 96.808311 66.153169 
L 97.273311 67.158933 
L 97.738311 70.142965 
L 98.203311 74.243183 
L 99.133311 85.405035 
L 99.598311 91.262679 
L 100.063311 94.639173 
L 100.528311 94.389062 
L 100.993311 90.426538 
L 101.458311 82.781534 
L 102.388311 65.316362 
L 102.853311 61.520801 
L 103.318311 61.913261 
L 103.783311 66.460485 
L 104.713311 85.488849 
L 105.643311 102.116549 
L 106.108311 107.110114 
L 106.573311 109.73295 
L 107.038311 109.510112 
L 107.503311 106.078408 
L 107.968311 99.381962 
L 109.363311 67.743633 
L 109.828311 63.307495 
L 110.293311 64.56337 
L 110.758311 71.481988 
L 111.688311 89.924321 
L 112.153311 94.248707 
L 112.618311 94.304583 
L 113.083311 90.119221 
L 114.013311 74.718792 
L 114.478318 70.534146 
L 114.943318 70.561419 
L 115.408318 74.690855 
L 116.338318 85.934525 
L 116.803318 88.333857 
L 117.268318 88.054478 
L 117.733318 85.069115 
L 118.663318 76.895287 
L 119.128318 75.66735 
L 119.593318 76.894622 
L 120.058318 80.605705 
L 120.988318 89.81257 
L 121.453318 91.542058 
L 121.918318 90.789065 
L 122.383318 87.552927 
L 122.848318 82.698386 
L 123.313318 79.015241 
L 123.778318 78.708589 
L 124.243318 82.000604 
L 125.638318 101.558456 
L 126.103318 102.813666 
L 126.568318 100.191495 
L 127.033318 93.690615 
L 127.963318 77.007039 
L 128.428318 74.244514 
L 128.893318 76.671784 
L 130.288318 96.899481 
L 130.753318 97.987063 
L 131.218318 95.085514 
L 131.683318 88.194168 
L 132.613318 70.784872 
L 133.078318 66.906827 
L 133.543318 67.436981 
L 134.008318 72.318795 
L 134.938318 87.218337 
L 135.403318 91.068444 
L 135.868318 91.430972 
L 136.333318 88.417006 
L 137.263318 80.047612 
L 137.728318 78.792403 
L 138.193318 79.88065 
L 138.658318 83.339627 
L 139.588318 94.025869 
L 140.053318 97.010567 
L 140.518318 97.289281 
L 140.983318 94.834738 
L 141.913318 86.492617 
L 142.378318 84.260247 
L 142.843318 83.981533 
L 143.308318 85.599935 
L 144.238318 91.040506 
L 144.703318 91.905251 
L 145.168318 91.067779 
L 145.633318 88.528757 
L 146.563318 81.749828 
L 147.028318 80.243177 
L 147.493318 80.466015 
L 147.958318 82.419007 
L 149.353318 92.016337 
L 149.818318 94.332521 
L 150.283318 96.006799 
L 151.213318 98.015001 
L 152.143318 99.465776 
L 153.073318 100.498812 
L 153.538318 100.804799 
L 154.003318 100.860674 
L 154.468318 100.72165 
L 154.933318 100.331185 
L 155.398318 99.661341 
L 155.863318 98.545156 
L 156.328318 96.871543 
L 156.793318 94.695048 
L 157.723318 88.724322 
L 158.188318 85.711021 
L 158.653318 83.758695 
L 159.118318 83.088851 
L 159.583318 83.702154 
L 160.048318 85.40437 
L 162.373318 96.006134 
L 162.838318 96.675978 
L 163.303318 95.448706 
L 163.768318 92.183964 
L 165.163318 77.675552 
L 165.628318 77.257814 
L 166.093318 80.02034 
L 166.558318 86.018338 
L 168.418318 121.590588 
L 168.883318 126.36198 
L 169.348318 128.900337 
L 169.813318 129.206989 
L 170.278318 127.226725 
L 170.743318 122.902339 
L 171.208318 116.23383 
L 172.138318 98.461342 
L 172.603318 92.044275 
L 173.068318 89.227204 
L 173.533318 90.036073 
L 173.998318 94.359794 
L 174.463318 100.247371 
L 174.928318 104.376857 
L 175.393318 105.296812 
L 175.858318 102.981293 
L 176.323318 97.429636 
L 176.788318 90.203035 
L 177.253318 84.874215 
L 177.718318 83.479316 
L 178.183318 86.13009 
L 178.648318 92.881746 
L 179.578318 112.523413 
L 180.043318 119.777286 
L 180.508318 124.2693 
L 180.973318 125.943577 
L 181.438318 125.078168 
L 182.368318 121.422961 
L 182.833318 120.307441 
L 183.298318 119.777286 
L 183.763318 119.832497 
L 184.228318 120.893471 
L 184.693318 123.34868 
L 185.158318 127.365749 
L 186.553318 143.073494 
L 187.018318 144.719834 
L 187.483318 143.66019 
L 187.948318 139.949107 
L 188.878318 129.542244 
L 189.343318 125.831826 
L 189.808318 123.487704 
L 190.273318 122.539146 
L 190.738318 123.34868 
L 191.203318 126.752446 
L 191.668318 133.224723 
L 192.133318 142.822719 
L 193.528318 181.269245 
L 193.993318 186.06791 
L 194.458318 183.779664 
L 194.923318 174.43311 
L 195.853318 148.067725 
L 196.318318 143.520501 
L 196.783318 147.147105 
L 197.248318 158.641551 
L 198.643318 203.114679 
L 199.573318 221.918874 
L 200.038318 227.387383 
L 200.503318 229.173412 
L 200.968318 226.494701 
L 201.433318 219.324641 
L 202.363318 195.135086 
L 202.828318 187.797399 
L 203.293318 189.02467 
L 203.758318 199.013131 
L 204.223318 217.734177 
L 205.153318 269.1818 
L 205.618318 281.457841 
L 206.083318 277.356293 
L 206.548318 257.547665 
L 207.478318 206.32288 
L 207.943318 190.8107 
L 208.408318 183.50095 
L 208.873318 184.393632 
L 209.338318 192.345288 
L 210.733318 228.447692 
L 211.663318 253.809309 
L 212.128318 263.378701 
L 212.593318 267.172933 
L 213.058318 264.605973 
L 213.523318 255.70576 
L 214.453318 231.181614 
L 214.918318 223.732176 
L 215.383318 220.803354 
L 215.848318 222.310004 
L 216.313318 227.610886 
L 218.173318 254.08769 
L 218.638318 259.667951 
L 219.103318 263.099322 
L 219.568318 263.015841 
L 220.033318 259.305091 
L 220.498318 251.939466 
L 221.428318 232.88383 
L 221.893318 227.415654 
L 222.358318 225.880733 
L 222.823318 228.25246 
L 224.683318 251.353768 
L 225.148318 253.334365 
L 225.613318 253.446116 
L 226.078318 252.38614 
L 227.008318 249.233149 
L 227.938318 245.299228 
L 228.403318 243.876724 
L 228.868318 243.597345 
L 229.333318 244.573841 
L 230.728318 250.628048 
L 231.193318 249.009979 
L 231.658318 244.406546 
L 232.123318 236.845689 
L 233.053318 217.678301 
L 233.518318 214.135178 
L 233.983318 217.566882 
L 234.448318 228.001185 
L 235.378318 259.751598 
L 235.843318 266.75453 
L 236.308318 263.350597 
L 236.773318 249.539967 
L 237.703318 209.559518 
L 238.168318 198.120449 
L 238.633318 194.995562 
L 239.098318 200.12915 
L 240.028318 225.713604 
L 240.493318 232.270028 
L 240.958318 230.372746 
L 241.423318 220.077634 
L 242.818318 167.876852 
L 243.283318 161.599225 
L 243.748318 163.189606 
L 244.678318 175.214539 
L 245.143318 176.804837 
L 245.608318 174.405421 
L 246.073318 167.904707 
L 247.003318 146.951789 
L 247.468318 140.479012 
L 247.933318 140.060526 
L 248.398318 145.752123 
L 248.863318 155.489225 
L 249.328318 162.882705 
L 249.793318 162.882788 
L 250.258318 154.903361 
L 250.723318 138.916569 
L 252.118318 67.297292 
L 252.583318 59.596953 
L 253.048318 65.065337 
L 253.513318 83.479316 
L 254.443318 130.156004 
L 254.908318 141.28813 
L 255.373318 142.041456 
L 255.838318 132.722839 
L 256.768318 102.869833 
L 257.233318 92.239923 
L 257.698318 85.515997 
L 258.163318 82.725991 
L 258.628318 82.893452 
L 259.093318 83.869948 
L 259.558318 84.372123 
L 260.023318 84.31633 
L 260.488318 83.730425 
L 260.953318 83.339835 
L 261.418318 84.400019 
L 261.883318 87.468988 
L 262.348318 92.463135 
L 263.278318 104.962306 
L 263.743318 107.501245 
L 264.208318 105.994636 
L 264.673318 100.470417 
L 266.068318 74.662917 
L 266.533318 72.124019 
L 266.998318 73.85384 
L 267.463318 79.657022 
L 268.393318 93.52332 
L 268.858318 97.010817 
L 269.323318 97.819935 
L 269.788318 95.950632 
L 271.183318 85.013821 
L 271.648318 82.726012 
L 272.113318 81.33103 
L 272.578318 80.940419 
L 273.043318 81.72162 
L 273.508318 83.758342 
L 274.903318 93.886034 
L 275.368318 94.750924 
L 275.833318 93.272212 
L 276.298318 89.505731 
L 277.228318 79.071116 
L 277.693318 75.639412 
L 278.158318 73.937529 
L 278.623318 73.993343 
L 279.088318 75.751018 
L 279.553318 79.071116 
L 280.018318 83.618839 
L 280.948318 96.062217 
L 281.878318 109.593718 
L 282.343318 111.435124 
L 282.808318 108.449823 
L 283.273318 100.693629 
L 284.668318 60.378112 
L 285.133318 54.268029 
L 285.598318 54.937644 
L 286.063318 62.331124 
L 286.993318 89.282519 
L 287.458318 96.927128 
L 287.923318 96.98292 
L 288.388318 89.980031 
L 288.853318 80.103426 
L 289.318318 72.626215 
L 289.783318 69.306117 
L 290.248318 70.087318 
L 290.713318 74.941942 
L 291.643318 89.03141 
L 292.108318 92.853725 
L 292.573318 93.746532 
L 293.038318 91.681924 
L 293.968318 83.730425 
L 294.433318 81.219424 
L 294.898318 80.187125 
L 295.363318 80.633518 
L 295.828318 82.000625 
L 296.293318 82.893431 
L 296.758318 82.363329 
L 297.223318 80.242918 
L 298.618318 70.115225 
L 299.083318 72.263532 
L 299.548318 79.015334 
L 300.943318 114.476228 
L 301.408318 115.927023 
L 301.873318 108.087119 
L 303.268318 62.721725 
L 303.733318 59.094725 
L 304.198318 63.39133 
L 304.663318 75.667324 
L 305.593318 108.617227 
L 306.058318 115.062128 
L 306.523318 111.965227 
L 306.988318 99.354424 
L 307.918318 62.331124 
L 308.383318 53.347326 
L 308.848318 53.821626 
L 309.313318 63.502925 
L 310.243318 91.235526 
L 310.708318 97.819924 
L 311.173318 98.071025 
L 311.638318 91.960925 
L 312.568318 67.883225 
L 313.033318 60.294426 
L 313.498318 58.899425 
L 313.963318 63.558723 
L 314.893318 79.796525 
L 315.358318 85.571826 
L 315.823318 89.170928 
L 316.288318 90.565926 
L 316.753318 90.203223 
L 317.683318 87.469025 
L 318.613318 83.618825 
L 319.543318 79.154825 
L 319.543318 79.154825 
" style="fill:none;stroke:#0000ff;stroke-linecap:square;"/>
   </g>
   <g id="line2d_2">
    <path clip-path="url(#p3bfb64b17e)" d="M 60.073311 117.822426 
L 60.538311 69.669352 
L 61.003311 74.55183 
L 61.933311 88.947825 
L 62.863311 106.802797 
L 63.328311 111.351352 
L 63.793311 110.765986 
L 64.258311 105.046701 
L 65.653311 73.072453 
L 66.118311 67.576671 
L 66.583311 65.986872 
L 67.048311 68.022347 
L 67.513311 71.063585 
L 67.978311 71.817908 
L 68.443311 69.334097 
L 68.908311 63.558936 
L 69.373311 56.220584 
L 69.838311 58.870692 
L 70.768311 104.154019 
L 71.233311 110.235167 
L 71.698311 96.564226 
L 72.163311 75.332761 
L 72.628311 60.35007 
L 73.093311 55.076461 
L 73.558311 59.261823 
L 74.953311 88.111019 
L 75.418311 93.997932 
L 75.883311 97.56866 
L 76.348311 98.824534 
L 76.813311 97.931852 
L 77.278311 94.974427 
L 77.743311 89.980197 
L 78.673311 74.356265 
L 79.138311 67.045851 
L 79.603311 63.781109 
L 80.068311 65.092859 
L 80.533311 70.923896 
L 81.928311 97.95846 
L 82.393311 101.308346 
L 82.858311 100.973091 
L 83.323311 97.261343 
L 84.253311 85.097718 
L 85.648311 63.475122 
L 86.113311 59.847188 
L 86.578311 62.638316 
L 87.043311 72.291522 
L 88.438311 122.901673 
L 88.903311 125.05023 
L 89.368311 114.671969 
L 89.833311 91.737623 
L 90.763311 35.072932 
L 91.228311 22.601326 
L 91.693311 24.331479 
L 92.158311 40.150976 
L 93.088311 88.724322 
L 93.553311 104.068875 
L 94.018311 110.8498 
L 94.483311 109.092374 
L 94.948311 99.326086 
L 95.878311 75.276885 
L 96.343311 68.63565 
L 96.808311 66.153169 
L 97.273311 67.158933 
L 97.738311 70.142965 
L 98.203311 74.243183 
L 99.133311 85.405035 
L 99.598311 91.262679 
L 100.063311 94.639173 
L 100.528311 94.389062 
L 100.993311 90.426538 
L 101.458311 82.781534 
L 102.388311 65.316362 
L 102.853311 61.520801 
L 103.318311 61.913261 
L 103.783311 66.460485 
L 104.713311 85.488849 
L 105.643311 102.116549 
L 106.108311 107.110114 
L 106.573311 109.73295 
L 107.038311 109.510112 
L 107.503311 106.078408 
L 107.968311 99.381962 
L 109.363311 67.743633 
L 109.828311 63.307495 
L 110.293311 64.56337 
L 110.758311 71.481988 
L 111.688311 89.924321 
L 112.153311 94.248707 
L 112.618311 94.304583 
L 113.083311 90.119221 
L 114.013311 74.718792 
L 114.478318 70.534146 
L 114.943318 70.561419 
L 115.408318 74.690855 
L 116.338318 85.934525 
L 116.803318 88.333857 
L 117.268318 88.054478 
L 117.733318 85.069115 
L 118.663318 76.895287 
L 119.128318 75.66735 
L 119.593318 76.894622 
L 120.058318 80.605705 
L 120.988318 89.81257 
L 121.453318 91.542058 
L 121.918318 90.789065 
L 122.383318 87.552927 
L 122.848318 82.698386 
L 123.313318 79.015241 
L 123.778318 78.708589 
L 124.243318 82.000604 
L 125.638318 101.558456 
L 126.103318 102.813666 
L 126.568318 100.191495 
L 127.033318 93.690615 
L 127.963318 77.007039 
L 128.428318 74.244514 
L 128.893318 76.671784 
L 130.288318 96.899481 
L 130.753318 97.987063 
L 131.218318 95.085514 
L 131.683318 88.194168 
L 132.613318 70.784872 
L 133.078318 66.906827 
L 133.543318 67.436981 
L 134.008318 72.318795 
L 134.938318 87.218337 
L 135.403318 91.068444 
L 135.868318 91.430972 
L 136.333318 88.417006 
L 137.263318 80.047612 
L 137.728318 78.792403 
L 138.193318 79.88065 
L 138.658318 83.339627 
L 139.588318 94.025869 
L 140.053318 97.010567 
L 140.518318 97.289281 
L 140.983318 94.834738 
L 141.913318 86.492617 
L 142.378318 84.260247 
L 142.843318 83.981533 
L 143.308318 85.599935 
L 144.238318 91.040506 
L 144.703318 91.905251 
L 145.168318 91.067779 
L 145.633318 88.528757 
L 146.563318 81.749828 
L 147.028318 80.243177 
L 147.493318 80.466015 
L 147.958318 82.419007 
L 149.353318 92.016337 
L 149.818318 94.332521 
L 150.283318 96.006799 
L 151.213318 98.015001 
L 152.143318 99.465776 
L 153.073318 100.498812 
L 153.538318 100.804799 
L 154.003318 100.860674 
L 154.468318 100.72165 
L 154.933318 100.331185 
L 155.398318 99.661341 
L 155.863318 98.545156 
L 156.328318 96.871543 
L 156.793318 94.695048 
L 157.723318 88.724322 
L 158.188318 85.711021 
L 158.653318 83.758695 
L 159.118318 83.088851 
L 159.583318 83.702154 
L 160.048318 85.40437 
L 162.373318 96.006134 
L 162.838318 96.675978 
L 163.303318 95.448706 
L 163.768318 92.183964 
L 165.163318 77.675552 
L 165.628318 77.257814 
L 166.093318 80.02034 
L 166.558318 86.018338 
L 168.418318 121.590588 
L 168.883318 126.36198 
L 169.348318 128.900337 
L 169.813318 129.206989 
L 170.278318 127.226725 
L 170.743318 122.902339 
L 171.208318 116.23383 
L 172.138318 98.461342 
L 172.603318 92.044275 
L 173.068318 89.227204 
L 173.533318 90.036073 
L 173.998318 94.359794 
L 174.463318 100.247371 
L 174.928318 104.376857 
L 175.393318 105.296812 
L 175.858318 102.981293 
L 176.323318 97.429636 
L 176.788318 90.203035 
L 177.253318 84.874215 
L 177.718318 83.479316 
L 178.183318 86.13009 
L 178.648318 92.881746 
L 179.578318 112.523413 
L 180.043318 119.777286 
L 180.508318 124.2693 
L 180.973318 125.943577 
L 181.438318 125.078168 
L 182.368318 121.422961 
L 182.833318 120.307441 
L 183.298318 119.777286 
L 183.763318 119.832497 
L 184.228318 120.893471 
L 184.693318 123.34868 
L 185.158318 127.365749 
L 186.553318 143.073494 
L 187.018318 144.719834 
L 187.483318 143.66019 
L 187.948318 139.949107 
L 188.878318 129.542244 
L 189.343318 125.831826 
L 189.808318 123.487704 
L 190.273318 122.539146 
L 190.738318 123.34868 
L 191.203318 126.752446 
L 191.668318 133.224723 
L 192.133318 142.822719 
L 193.528318 181.269245 
L 193.993318 186.06791 
L 194.458318 183.779664 
L 194.923318 174.43311 
L 195.853318 148.067725 
L 196.318318 143.520501 
L 196.783318 147.147105 
L 197.248318 158.641551 
L 198.643318 203.114679 
L 199.573318 221.918874 
L 200.038318 227.387383 
L 200.503318 229.173412 
L 200.968318 226.494701 
L 201.433318 219.324641 
L 202.363318 195.135086 
L 202.828318 187.797399 
L 203.293318 189.02467 
L 203.758318 199.013131 
L 204.223318 217.734177 
L 205.153318 269.1818 
L 205.618318 281.457841 
L 206.083318 277.356293 
L 206.548318 257.547665 
L 207.478318 206.32288 
L 207.943318 190.8107 
L 208.408318 183.50095 
L 208.873318 184.393632 
L 209.338318 192.345288 
L 210.733318 228.447692 
L 211.663318 253.809309 
L 212.128318 263.378701 
L 212.593318 267.172933 
L 213.058318 264.605973 
L 213.523318 255.70576 
L 214.453318 231.181614 
L 214.918318 223.732176 
L 215.383318 220.803354 
L 215.848318 222.310004 
L 216.313318 227.610886 
L 218.173318 254.08769 
L 218.638318 259.667951 
L 219.103318 263.099322 
L 219.568318 263.015841 
L 220.033318 259.305091 
L 220.498318 251.939466 
L 221.428318 232.88383 
L 221.893318 227.415654 
L 222.358318 225.880733 
L 222.823318 228.25246 
L 224.683318 251.353768 
L 225.148318 253.334365 
L 225.613318 253.446116 
L 226.078318 252.38614 
L 227.008318 249.233149 
L 227.938318 245.299228 
L 228.403318 243.876724 
L 228.868318 243.597345 
L 229.333318 244.573841 
L 230.728318 250.628048 
L 231.193318 249.009979 
L 231.658318 244.406546 
L 232.123318 236.845689 
L 233.053318 217.678301 
L 233.518318 214.135178 
L 233.983318 217.566882 
L 234.448318 228.001185 
L 235.378318 259.751598 
L 235.843318 266.75453 
L 236.308318 263.350597 
L 236.773318 249.539967 
L 237.703318 209.559518 
L 238.168318 198.120449 
L 238.633318 194.995562 
L 239.098318 200.12915 
L 240.028318 225.713604 
L 240.493318 232.270028 
L 240.958318 230.372746 
L 241.423318 220.077634 
L 242.818318 167.876852 
L 243.283318 161.599225 
L 243.748318 163.189606 
L 244.678318 175.214539 
L 245.143318 176.804837 
L 245.608318 174.405421 
L 246.073318 167.904707 
L 247.003318 146.951789 
L 247.468318 140.479012 
L 247.933318 140.060526 
L 248.398318 145.752123 
L 248.863318 155.489225 
L 249.328318 162.882705 
L 249.793318 162.882788 
L 250.258318 154.903361 
L 250.723318 138.916569 
L 252.118318 67.297292 
L 252.583318 59.596953 
L 253.048318 65.065337 
L 253.513318 83.479316 
L 254.443318 130.156004 
L 254.908318 141.28813 
L 255.373318 142.041456 
L 255.838318 132.722839 
L 256.768318 102.869833 
L 257.233318 92.239923 
L 257.698318 85.515997 
L 258.163318 82.725991 
L 258.628318 82.893452 
L 259.093318 83.869948 
L 259.558318 84.372123 
L 260.023318 84.31633 
L 260.488318 83.730425 
L 260.953318 83.339835 
L 261.418318 84.400019 
L 261.883318 87.468988 
L 262.348318 92.463135 
L 263.278318 104.962306 
L 263.743318 107.501245 
L 264.208318 105.994636 
L 264.673318 100.470417 
L 266.068318 74.662917 
L 266.533318 72.124019 
L 266.998318 73.85384 
L 267.463318 79.657022 
L 268.393318 93.52332 
L 268.858318 97.010817 
L 269.323318 97.819935 
L 269.788318 95.950632 
L 271.183318 85.013821 
L 271.648318 82.726012 
L 272.113318 81.33103 
L 272.578318 80.940419 
L 273.043318 81.72162 
L 273.508318 83.758342 
L 274.903318 93.886034 
L 275.368318 94.750924 
L 275.833318 93.272212 
L 276.298318 89.505731 
L 277.228318 79.071116 
L 277.693318 75.639412 
L 278.158318 73.937529 
L 278.623318 73.993343 
L 279.088318 75.751018 
L 279.553318 79.071116 
L 280.018318 83.618839 
L 280.948318 96.062217 
L 281.878318 109.593718 
L 282.343318 111.435124 
L 282.808318 108.449823 
L 283.273318 100.693629 
L 284.668318 60.378112 
L 285.133318 54.268029 
L 285.598318 54.937644 
L 286.063318 62.331124 
L 286.993318 89.282519 
L 287.458318 96.927128 
L 287.923318 96.98292 
L 288.388318 89.980031 
L 288.853318 80.103426 
L 289.318318 72.626215 
L 289.783318 69.306117 
L 290.248318 70.087318 
L 290.713318 74.941942 
L 291.643318 89.03141 
L 292.108318 92.853725 
L 292.573318 93.746532 
L 293.038318 91.681924 
L 293.968318 83.730425 
L 294.433318 81.219424 
L 294.898318 80.187125 
L 295.363318 80.633518 
L 295.828318 82.000625 
L 296.293318 82.893431 
L 296.758318 82.363329 
L 297.223318 80.242918 
L 298.618318 70.115225 
L 299.083318 72.263532 
L 299.548318 79.015334 
L 300.943318 114.476228 
L 301.408318 115.927023 
L 301.873318 108.087119 
L 303.268318 62.721725 
L 303.733318 59.094725 
L 304.198318 63.39133 
L 304.663318 75.667324 
L 305.593318 108.617227 
L 306.058318 115.062128 
L 306.523318 111.965227 
L 306.988318 99.354424 
L 307.918318 62.331124 
L 308.383318 53.347326 
L 308.848318 53.821626 
L 309.313318 63.502925 
L 310.243318 91.235526 
L 310.708318 97.819924 
L 311.173318 98.071025 
L 311.638318 91.960925 
L 312.568318 67.883225 
L 313.033318 60.294426 
L 313.498318 58.899425 
L 313.963318 63.558723 
L 314.893318 79.796525 
L 315.358318 85.571826 
L 315.823318 89.170928 
L 316.288318 90.565926 
L 316.753318 90.203223 
L 317.683318 87.469025 
L 318.613318 83.618825 
L 319.543318 79.154825 
L 319.543318 79.154825 
" style="fill:none;stroke:#0000ff;stroke-dasharray:6.000000,6.000000;stroke-dashoffset:0.0;"/>
   </g>
   <g id="patch_3">
    <path d="M 41.845312 21.318125 
L 320.845312 21.318125 
" style="fill:none;stroke:#000000;stroke-linecap:square;stroke-linejoin:miter;"/>
   </g>
   <g id="patch_4">
    <path d="M 320.845312 300.318125 
L 320.845312 21.318125 
" style="fill:none;stroke:#000000;stroke-linecap:square;stroke-linejoin:miter;"/>
   </g>
   <g id="patch_5">
    <path d="M 41.845312 300.318125 
L 320.845312 300.318125 
" style="fill:none;stroke:#000000;stroke-linecap:square;stroke-linejoin:miter;"/>
   </g>
   <g id="patch_6">
    <path d="M 41.845313 300.318125 
L 41.845313 21.318125 
" style="fill:none;stroke:#000000;stroke-linecap:square;stroke-linejoin:miter;"/>
   </g>
   <g id="matplotlib.axis_1">
    <g id="xtick_1">
     <g id="line2d_3">
      <defs>
       <path d="M 0 0 
L 0 -4 
" id="m7c048e893f" style="stroke:#000000;stroke-width:0.5;"/>
      </defs>
      <g>
       <use style="stroke:#000000;stroke-width:0.5;" x="41.8453125" xlink:href="#m7c048e893f" y="300.318125"/>
      </g>
     </g>
     <g id="line2d_4">
      <defs>
       <path d="M 0 0 
L 0 4 
" id="m54468770ce" style="stroke:#000000;stroke-width:0.5;"/>
      </defs>
      <g>
       <use style="stroke:#000000;stroke-width:0.5;" x="41.8453125" xlink:href="#m54468770ce" y="21.318125"/>
      </g>
     </g>
     <g id="text_1">
      <!-- 100 -->
      <defs>
       <path d="M 31.78125 66.40625 
Q 24.171875 66.40625 20.328125 58.90625 
Q 16.5 51.421875 16.5 36.375 
Q 16.5 21.390625 20.328125 13.890625 
Q 24.171875 6.390625 31.78125 6.390625 
Q 39.453125 6.390625 43.28125 13.890625 
Q 47.125 21.390625 47.125 36.375 
Q 47.125 51.421875 43.28125 58.90625 
Q 39.453125 66.40625 31.78125 66.40625 
M 31.78125 74.21875 
Q 44.046875 74.21875 50.515625 64.515625 
Q 56.984375 54.828125 56.984375 36.375 
Q 56.984375 17.96875 50.515625 8.265625 
Q 44.046875 -1.421875 31.78125 -1.421875 
Q 19.53125 -1.421875 13.0625 8.265625 
Q 6.59375 17.96875 6.59375 36.375 
Q 6.59375 54.828125 13.0625 64.515625 
Q 19.53125 74.21875 31.78125 74.21875 
" id="BitstreamVeraSans-Roman-30"/>
       <path d="M 12.40625 8.296875 
L 28.515625 8.296875 
L 28.515625 63.921875 
L 10.984375 60.40625 
L 10.984375 69.390625 
L 28.421875 72.90625 
L 38.28125 72.90625 
L 38.28125 8.296875 
L 54.390625 8.296875 
L 54.390625 0 
L 12.40625 0 
z
" id="BitstreamVeraSans-Roman-31"/>
      </defs>
      <g transform="translate(32.3015625 311.9165625)scale(0.1 -0.1)">
       <use xlink:href="#BitstreamVeraSans-Roman-31"/>
       <use x="63.623046875" xlink:href="#BitstreamVeraSans-Roman-30"/>
       <use x="127.24609375" xlink:href="#BitstreamVeraSans-Roman-30"/>
      </g>
     </g>
    </g>
    <g id="xtick_2">
     <g id="line2d_5">
      <g>
       <use style="stroke:#000000;stroke-width:0.5;" x="88.3453125" xlink:href="#m7c048e893f" y="300.318125"/>
      </g>
     </g>
     <g id="line2d_6">
      <g>
       <use style="stroke:#000000;stroke-width:0.5;" x="88.3453125" xlink:href="#m54468770ce" y="21.318125"/>
      </g>
     </g>
     <g id="text_2">
      <!-- 200 -->
      <defs>
       <path d="M 19.1875 8.296875 
L 53.609375 8.296875 
L 53.609375 0 
L 7.328125 0 
L 7.328125 8.296875 
Q 12.9375 14.109375 22.625 23.890625 
Q 32.328125 33.6875 34.8125 36.53125 
Q 39.546875 41.84375 41.421875 45.53125 
Q 43.3125 49.21875 43.3125 52.78125 
Q 43.3125 58.59375 39.234375 62.25 
Q 35.15625 65.921875 28.609375 65.921875 
Q 23.96875 65.921875 18.8125 64.3125 
Q 13.671875 62.703125 7.8125 59.421875 
L 7.8125 69.390625 
Q 13.765625 71.78125 18.9375 73 
Q 24.125 74.21875 28.421875 74.21875 
Q 39.75 74.21875 46.484375 68.546875 
Q 53.21875 62.890625 53.21875 53.421875 
Q 53.21875 48.921875 51.53125 44.890625 
Q 49.859375 40.875 45.40625 35.40625 
Q 44.1875 33.984375 37.640625 27.21875 
Q 31.109375 20.453125 19.1875 8.296875 
" id="BitstreamVeraSans-Roman-32"/>
      </defs>
      <g transform="translate(78.8015625 311.9165625)scale(0.1 -0.1)">
       <use xlink:href="#BitstreamVeraSans-Roman-32"/>
       <use x="63.623046875" xlink:href="#BitstreamVeraSans-Roman-30"/>
       <use x="127.24609375" xlink:href="#BitstreamVeraSans-Roman-30"/>
      </g>
     </g>
    </g>
    <g id="xtick_3">
     <g id="line2d_7">
      <g>
       <use style="stroke:#000000;stroke-width:0.5;" x="134.8453125" xlink:href="#m7c048e893f" y="300.318125"/>
      </g>
     </g>
     <g id="line2d_8">
      <g>
       <use style="stroke:#000000;stroke-width:0.5;" x="134.8453125" xlink:href="#m54468770ce" y="21.318125"/>
      </g>
     </g>
     <g id="text_3">
      <!-- 300 -->
      <defs>
       <path d="M 40.578125 39.3125 
Q 47.65625 37.796875 51.625 33 
Q 55.609375 28.21875 55.609375 21.1875 
Q 55.609375 10.40625 48.1875 4.484375 
Q 40.765625 -1.421875 27.09375 -1.421875 
Q 22.515625 -1.421875 17.65625 -0.515625 
Q 12.796875 0.390625 7.625 2.203125 
L 7.625 11.71875 
Q 11.71875 9.328125 16.59375 8.109375 
Q 21.484375 6.890625 26.8125 6.890625 
Q 36.078125 6.890625 40.9375 10.546875 
Q 45.796875 14.203125 45.796875 21.1875 
Q 45.796875 27.640625 41.28125 31.265625 
Q 36.765625 34.90625 28.71875 34.90625 
L 20.21875 34.90625 
L 20.21875 43.015625 
L 29.109375 43.015625 
Q 36.375 43.015625 40.234375 45.921875 
Q 44.09375 48.828125 44.09375 54.296875 
Q 44.09375 59.90625 40.109375 62.90625 
Q 36.140625 65.921875 28.71875 65.921875 
Q 24.65625 65.921875 20.015625 65.03125 
Q 15.375 64.15625 9.8125 62.3125 
L 9.8125 71.09375 
Q 15.4375 72.65625 20.34375 73.4375 
Q 25.25 74.21875 29.59375 74.21875 
Q 40.828125 74.21875 47.359375 69.109375 
Q 53.90625 64.015625 53.90625 55.328125 
Q 53.90625 49.265625 50.4375 45.09375 
Q 46.96875 40.921875 40.578125 39.3125 
" id="BitstreamVeraSans-Roman-33"/>
      </defs>
      <g transform="translate(125.3015625 311.9165625)scale(0.1 -0.1)">
       <use xlink:href="#BitstreamVeraSans-Roman-33"/>
       <use x="63.623046875" xlink:href="#BitstreamVeraSans-Roman-30"/>
       <use x="127.24609375" xlink:href="#BitstreamVeraSans-Roman-30"/>
      </g>
     </g>
    </g>
    <g id="xtick_4">
     <g id="line2d_9">
      <g>
       <use style="stroke:#000000;stroke-width:0.5;" x="181.3453125" xlink:href="#m7c048e893f" y="300.318125"/>
      </g>
     </g>
     <g id="line2d_10">
      <g>
       <use style="stroke:#000000;stroke-width:0.5;" x="181.3453125" xlink:href="#m54468770ce" y="21.318125"/>
      </g>
     </g>
     <g id="text_4">
      <!-- 400 -->
      <defs>
       <path d="M 37.796875 64.3125 
L 12.890625 25.390625 
L 37.796875 25.390625 
z
M 35.203125 72.90625 
L 47.609375 72.90625 
L 47.609375 25.390625 
L 58.015625 25.390625 
L 58.015625 17.1875 
L 47.609375 17.1875 
L 47.609375 0 
L 37.796875 0 
L 37.796875 17.1875 
L 4.890625 17.1875 
L 4.890625 26.703125 
z
" id="BitstreamVeraSans-Roman-34"/>
      </defs>
      <g transform="translate(171.8015625 311.9165625)scale(0.1 -0.1)">
       <use xlink:href="#BitstreamVeraSans-Roman-34"/>
       <use x="63.623046875" xlink:href="#BitstreamVeraSans-Roman-30"/>
       <use x="127.24609375" xlink:href="#BitstreamVeraSans-Roman-30"/>
      </g>
     </g>
    </g>
    <g id="xtick_5">
     <g id="line2d_11">
      <g>
       <use style="stroke:#000000;stroke-width:0.5;" x="227.8453125" xlink:href="#m7c048e893f" y="300.318125"/>
      </g>
     </g>
     <g id="line2d_12">
      <g>
       <use style="stroke:#000000;stroke-width:0.5;" x="227.8453125" xlink:href="#m54468770ce" y="21.318125"/>
      </g>
     </g>
     <g id="text_5">
      <!-- 500 -->
      <defs>
       <path d="M 10.796875 72.90625 
L 49.515625 72.90625 
L 49.515625 64.59375 
L 19.828125 64.59375 
L 19.828125 46.734375 
Q 21.96875 47.46875 24.109375 47.828125 
Q 26.265625 48.1875 28.421875 48.1875 
Q 40.625 48.1875 47.75 41.5 
Q 54.890625 34.8125 54.890625 23.390625 
Q 54.890625 11.625 47.5625 5.09375 
Q 40.234375 -1.421875 26.90625 -1.421875 
Q 22.3125 -1.421875 17.546875 -0.640625 
Q 12.796875 0.140625 7.71875 1.703125 
L 7.71875 11.625 
Q 12.109375 9.234375 16.796875 8.0625 
Q 21.484375 6.890625 26.703125 6.890625 
Q 35.15625 6.890625 40.078125 11.328125 
Q 45.015625 15.765625 45.015625 23.390625 
Q 45.015625 31 40.078125 35.4375 
Q 35.15625 39.890625 26.703125 39.890625 
Q 22.75 39.890625 18.8125 39.015625 
Q 14.890625 38.140625 10.796875 36.28125 
z
" id="BitstreamVeraSans-Roman-35"/>
      </defs>
      <g transform="translate(218.3015625 311.9165625)scale(0.1 -0.1)">
       <use xlink:href="#BitstreamVeraSans-Roman-35"/>
       <use x="63.623046875" xlink:href="#BitstreamVeraSans-Roman-30"/>
       <use x="127.24609375" xlink:href="#BitstreamVeraSans-Roman-30"/>
      </g>
     </g>
    </g>
    <g id="xtick_6">
     <g id="line2d_13">
      <g>
       <use style="stroke:#000000;stroke-width:0.5;" x="274.3453125" xlink:href="#m7c048e893f" y="300.318125"/>
      </g>
     </g>
     <g id="line2d_14">
      <g>
       <use style="stroke:#000000;stroke-width:0.5;" x="274.3453125" xlink:href="#m54468770ce" y="21.318125"/>
      </g>
     </g>
     <g id="text_6">
      <!-- 600 -->
      <defs>
       <path d="M 33.015625 40.375 
Q 26.375 40.375 22.484375 35.828125 
Q 18.609375 31.296875 18.609375 23.390625 
Q 18.609375 15.53125 22.484375 10.953125 
Q 26.375 6.390625 33.015625 6.390625 
Q 39.65625 6.390625 43.53125 10.953125 
Q 47.40625 15.53125 47.40625 23.390625 
Q 47.40625 31.296875 43.53125 35.828125 
Q 39.65625 40.375 33.015625 40.375 
M 52.59375 71.296875 
L 52.59375 62.3125 
Q 48.875 64.0625 45.09375 64.984375 
Q 41.3125 65.921875 37.59375 65.921875 
Q 27.828125 65.921875 22.671875 59.328125 
Q 17.53125 52.734375 16.796875 39.40625 
Q 19.671875 43.65625 24.015625 45.921875 
Q 28.375 48.1875 33.59375 48.1875 
Q 44.578125 48.1875 50.953125 41.515625 
Q 57.328125 34.859375 57.328125 23.390625 
Q 57.328125 12.15625 50.6875 5.359375 
Q 44.046875 -1.421875 33.015625 -1.421875 
Q 20.359375 -1.421875 13.671875 8.265625 
Q 6.984375 17.96875 6.984375 36.375 
Q 6.984375 53.65625 15.1875 63.9375 
Q 23.390625 74.21875 37.203125 74.21875 
Q 40.921875 74.21875 44.703125 73.484375 
Q 48.484375 72.75 52.59375 71.296875 
" id="BitstreamVeraSans-Roman-36"/>
      </defs>
      <g transform="translate(264.8015625 311.9165625)scale(0.1 -0.1)">
       <use xlink:href="#BitstreamVeraSans-Roman-36"/>
       <use x="63.623046875" xlink:href="#BitstreamVeraSans-Roman-30"/>
       <use x="127.24609375" xlink:href="#BitstreamVeraSans-Roman-30"/>
      </g>
     </g>
    </g>
    <g id="xtick_7">
     <g id="line2d_15">
      <g>
       <use style="stroke:#000000;stroke-width:0.5;" x="320.8453125" xlink:href="#m7c048e893f" y="300.318125"/>
      </g>
     </g>
     <g id="line2d_16">
      <g>
       <use style="stroke:#000000;stroke-width:0.5;" x="320.8453125" xlink:href="#m54468770ce" y="21.318125"/>
      </g>
     </g>
     <g id="text_7">
      <!-- 700 -->
      <defs>
       <path d="M 8.203125 72.90625 
L 55.078125 72.90625 
L 55.078125 68.703125 
L 28.609375 0 
L 18.3125 0 
L 43.21875 64.59375 
L 8.203125 64.59375 
z
" id="BitstreamVeraSans-Roman-37"/>
      </defs>
      <g transform="translate(311.3015625 311.9165625)scale(0.1 -0.1)">
       <use xlink:href="#BitstreamVeraSans-Roman-37"/>
       <use x="63.623046875" xlink:href="#BitstreamVeraSans-Roman-30"/>
       <use x="127.24609375" xlink:href="#BitstreamVeraSans-Roman-30"/>
      </g>
     </g>
    </g>
    <g id="text_8">
     <!-- Temperature C -->
     <defs>
      <path id="BitstreamVeraSans-Roman-20"/>
      <path d="M 41.109375 46.296875 
Q 39.59375 47.171875 37.8125 47.578125 
Q 36.03125 48 33.890625 48 
Q 26.265625 48 22.1875 43.046875 
Q 18.109375 38.09375 18.109375 28.8125 
L 18.109375 0 
L 9.078125 0 
L 9.078125 54.6875 
L 18.109375 54.6875 
L 18.109375 46.1875 
Q 20.953125 51.171875 25.484375 53.578125 
Q 30.03125 56 36.53125 56 
Q 37.453125 56 38.578125 55.875 
Q 39.703125 55.765625 41.0625 55.515625 
z
" id="BitstreamVeraSans-Roman-72"/>
      <path d="M 52 44.1875 
Q 55.375 50.25 60.0625 53.125 
Q 64.75 56 71.09375 56 
Q 79.640625 56 84.28125 50.015625 
Q 88.921875 44.046875 88.921875 33.015625 
L 88.921875 0 
L 79.890625 0 
L 79.890625 32.71875 
Q 79.890625 40.578125 77.09375 44.375 
Q 74.3125 48.1875 68.609375 48.1875 
Q 61.625 48.1875 57.5625 43.546875 
Q 53.515625 38.921875 53.515625 30.90625 
L 53.515625 0 
L 44.484375 0 
L 44.484375 32.71875 
Q 44.484375 40.625 41.703125 44.40625 
Q 38.921875 48.1875 33.109375 48.1875 
Q 26.21875 48.1875 22.15625 43.53125 
Q 18.109375 38.875 18.109375 30.90625 
L 18.109375 0 
L 9.078125 0 
L 9.078125 54.6875 
L 18.109375 54.6875 
L 18.109375 46.1875 
Q 21.1875 51.21875 25.484375 53.609375 
Q 29.78125 56 35.6875 56 
Q 41.65625 56 45.828125 52.96875 
Q 50 49.953125 52 44.1875 
" id="BitstreamVeraSans-Roman-6d"/>
      <path d="M -0.296875 72.90625 
L 61.375 72.90625 
L 61.375 64.59375 
L 35.5 64.59375 
L 35.5 0 
L 25.59375 0 
L 25.59375 64.59375 
L -0.296875 64.59375 
z
" id="BitstreamVeraSans-Roman-54"/>
      <path d="M 56.203125 29.59375 
L 56.203125 25.203125 
L 14.890625 25.203125 
Q 15.484375 15.921875 20.484375 11.0625 
Q 25.484375 6.203125 34.421875 6.203125 
Q 39.59375 6.203125 44.453125 7.46875 
Q 49.3125 8.734375 54.109375 11.28125 
L 54.109375 2.78125 
Q 49.265625 0.734375 44.1875 -0.34375 
Q 39.109375 -1.421875 33.890625 -1.421875 
Q 20.796875 -1.421875 13.15625 6.1875 
Q 5.515625 13.8125 5.515625 26.8125 
Q 5.515625 40.234375 12.765625 48.109375 
Q 20.015625 56 32.328125 56 
Q 43.359375 56 49.78125 48.890625 
Q 56.203125 41.796875 56.203125 29.59375 
M 47.21875 32.234375 
Q 47.125 39.59375 43.09375 43.984375 
Q 39.0625 48.390625 32.421875 48.390625 
Q 24.90625 48.390625 20.390625 44.140625 
Q 15.875 39.890625 15.1875 32.171875 
z
" id="BitstreamVeraSans-Roman-65"/>
      <path d="M 64.40625 67.28125 
L 64.40625 56.890625 
Q 59.421875 61.53125 53.78125 63.8125 
Q 48.140625 66.109375 41.796875 66.109375 
Q 29.296875 66.109375 22.65625 58.46875 
Q 16.015625 50.828125 16.015625 36.375 
Q 16.015625 21.96875 22.65625 14.328125 
Q 29.296875 6.6875 41.796875 6.6875 
Q 48.140625 6.6875 53.78125 8.984375 
Q 59.421875 11.28125 64.40625 15.921875 
L 64.40625 5.609375 
Q 59.234375 2.09375 53.4375 0.328125 
Q 47.65625 -1.421875 41.21875 -1.421875 
Q 24.65625 -1.421875 15.125 8.703125 
Q 5.609375 18.84375 5.609375 36.375 
Q 5.609375 53.953125 15.125 64.078125 
Q 24.65625 74.21875 41.21875 74.21875 
Q 47.75 74.21875 53.53125 72.484375 
Q 59.328125 70.75 64.40625 67.28125 
" id="BitstreamVeraSans-Roman-43"/>
      <path d="M 18.3125 70.21875 
L 18.3125 54.6875 
L 36.8125 54.6875 
L 36.8125 47.703125 
L 18.3125 47.703125 
L 18.3125 18.015625 
Q 18.3125 11.328125 20.140625 9.421875 
Q 21.96875 7.515625 27.59375 7.515625 
L 36.8125 7.515625 
L 36.8125 0 
L 27.59375 0 
Q 17.1875 0 13.234375 3.875 
Q 9.28125 7.765625 9.28125 18.015625 
L 9.28125 47.703125 
L 2.6875 47.703125 
L 2.6875 54.6875 
L 9.28125 54.6875 
L 9.28125 70.21875 
z
" id="BitstreamVeraSans-Roman-74"/>
      <path d="M 8.5 21.578125 
L 8.5 54.6875 
L 17.484375 54.6875 
L 17.484375 21.921875 
Q 17.484375 14.15625 20.5 10.265625 
Q 23.53125 6.390625 29.59375 6.390625 
Q 36.859375 6.390625 41.078125 11.03125 
Q 45.3125 15.671875 45.3125 23.6875 
L 45.3125 54.6875 
L 54.296875 54.6875 
L 54.296875 0 
L 45.3125 0 
L 45.3125 8.40625 
Q 42.046875 3.421875 37.71875 1 
Q 33.40625 -1.421875 27.6875 -1.421875 
Q 18.265625 -1.421875 13.375 4.4375 
Q 8.5 10.296875 8.5 21.578125 
" id="BitstreamVeraSans-Roman-75"/>
      <path d="M 34.28125 27.484375 
Q 23.390625 27.484375 19.1875 25 
Q 14.984375 22.515625 14.984375 16.5 
Q 14.984375 11.71875 18.140625 8.90625 
Q 21.296875 6.109375 26.703125 6.109375 
Q 34.1875 6.109375 38.703125 11.40625 
Q 43.21875 16.703125 43.21875 25.484375 
L 43.21875 27.484375 
z
M 52.203125 31.203125 
L 52.203125 0 
L 43.21875 0 
L 43.21875 8.296875 
Q 40.140625 3.328125 35.546875 0.953125 
Q 30.953125 -1.421875 24.3125 -1.421875 
Q 15.921875 -1.421875 10.953125 3.296875 
Q 6 8.015625 6 15.921875 
Q 6 25.140625 12.171875 29.828125 
Q 18.359375 34.515625 30.609375 34.515625 
L 43.21875 34.515625 
L 43.21875 35.40625 
Q 43.21875 41.609375 39.140625 45 
Q 35.0625 48.390625 27.6875 48.390625 
Q 23 48.390625 18.546875 47.265625 
Q 14.109375 46.140625 10.015625 43.890625 
L 10.015625 52.203125 
Q 14.9375 54.109375 19.578125 55.046875 
Q 24.21875 56 28.609375 56 
Q 40.484375 56 46.34375 49.84375 
Q 52.203125 43.703125 52.203125 31.203125 
" id="BitstreamVeraSans-Roman-61"/>
      <path d="M 18.109375 8.203125 
L 18.109375 -20.796875 
L 9.078125 -20.796875 
L 9.078125 54.6875 
L 18.109375 54.6875 
L 18.109375 46.390625 
Q 20.953125 51.265625 25.265625 53.625 
Q 29.59375 56 35.59375 56 
Q 45.5625 56 51.78125 48.09375 
Q 58.015625 40.1875 58.015625 27.296875 
Q 58.015625 14.40625 51.78125 6.484375 
Q 45.5625 -1.421875 35.59375 -1.421875 
Q 29.59375 -1.421875 25.265625 0.953125 
Q 20.953125 3.328125 18.109375 8.203125 
M 48.6875 27.296875 
Q 48.6875 37.203125 44.609375 42.84375 
Q 40.53125 48.484375 33.40625 48.484375 
Q 26.265625 48.484375 22.1875 42.84375 
Q 18.109375 37.203125 18.109375 27.296875 
Q 18.109375 17.390625 22.1875 11.75 
Q 26.265625 6.109375 33.40625 6.109375 
Q 40.53125 6.109375 44.609375 11.75 
Q 48.6875 17.390625 48.6875 27.296875 
" id="BitstreamVeraSans-Roman-70"/>
     </defs>
     <g transform="translate(143.64765625 326.5946875)scale(0.1 -0.1)">
      <use xlink:href="#BitstreamVeraSans-Roman-54"/>
      <use x="60.818359375" xlink:href="#BitstreamVeraSans-Roman-65"/>
      <use x="122.341796875" xlink:href="#BitstreamVeraSans-Roman-6d"/>
      <use x="219.75390625" xlink:href="#BitstreamVeraSans-Roman-70"/>
      <use x="283.23046875" xlink:href="#BitstreamVeraSans-Roman-65"/>
      <use x="344.75390625" xlink:href="#BitstreamVeraSans-Roman-72"/>
      <use x="385.8671875" xlink:href="#BitstreamVeraSans-Roman-61"/>
      <use x="447.146484375" xlink:href="#BitstreamVeraSans-Roman-74"/>
      <use x="486.35546875" xlink:href="#BitstreamVeraSans-Roman-75"/>
      <use x="549.734375" xlink:href="#BitstreamVeraSans-Roman-72"/>
      <use x="590.81640625" xlink:href="#BitstreamVeraSans-Roman-65"/>
      <use x="652.33984375" xlink:href="#BitstreamVeraSans-Roman-20"/>
      <use x="684.126953125" xlink:href="#BitstreamVeraSans-Roman-43"/>
     </g>
    </g>
   </g>
   <g id="matplotlib.axis_2">
    <g id="ytick_1">
     <g id="line2d_17">
      <defs>
       <path d="M 0 0 
L 4 0 
" id="mb41fcaeec7" style="stroke:#000000;stroke-width:0.5;"/>
      </defs>
      <g>
       <use style="stroke:#000000;stroke-width:0.5;" x="41.8453125" xlink:href="#mb41fcaeec7" y="300.318125"/>
      </g>
     </g>
     <g id="line2d_18">
      <defs>
       <path d="M 0 0 
L -4 0 
" id="maf45cd9430" style="stroke:#000000;stroke-width:0.5;"/>
      </defs>
      <g>
       <use style="stroke:#000000;stroke-width:0.5;" x="320.8453125" xlink:href="#maf45cd9430" y="300.318125"/>
      </g>
     </g>
     <g id="text_9">
      <!-- −0.04 -->
      <defs>
       <path d="M 10.59375 35.5 
L 73.1875 35.5 
L 73.1875 27.203125 
L 10.59375 27.203125 
z
" id="BitstreamVeraSans-Roman-2212"/>
       <path d="M 10.6875 12.40625 
L 21 12.40625 
L 21 0 
L 10.6875 0 
z
" id="BitstreamVeraSans-Roman-2e"/>
      </defs>
      <g transform="translate(7.2 303.0775)scale(0.1 -0.1)">
       <use xlink:href="#BitstreamVeraSans-Roman-2212"/>
       <use x="83.7890625" xlink:href="#BitstreamVeraSans-Roman-30"/>
       <use x="147.412109375" xlink:href="#BitstreamVeraSans-Roman-2e"/>
       <use x="179.19921875" xlink:href="#BitstreamVeraSans-Roman-30"/>
       <use x="242.822265625" xlink:href="#BitstreamVeraSans-Roman-34"/>
      </g>
     </g>
    </g>
    <g id="ytick_2">
     <g id="line2d_19">
      <g>
       <use style="stroke:#000000;stroke-width:0.5;" x="41.8453125" xlink:href="#mb41fcaeec7" y="244.518125"/>
      </g>
     </g>
     <g id="line2d_20">
      <g>
       <use style="stroke:#000000;stroke-width:0.5;" x="320.8453125" xlink:href="#maf45cd9430" y="244.518125"/>
      </g>
     </g>
     <g id="text_10">
      <!-- −0.03 -->
      <g transform="translate(7.2 247.2775)scale(0.1 -0.1)">
       <use xlink:href="#BitstreamVeraSans-Roman-2212"/>
       <use x="83.7890625" xlink:href="#BitstreamVeraSans-Roman-30"/>
       <use x="147.412109375" xlink:href="#BitstreamVeraSans-Roman-2e"/>
       <use x="179.19921875" xlink:href="#BitstreamVeraSans-Roman-30"/>
       <use x="242.822265625" xlink:href="#BitstreamVeraSans-Roman-33"/>
      </g>
     </g>
    </g>
    <g id="ytick_3">
     <g id="line2d_21">
      <g>
       <use style="stroke:#000000;stroke-width:0.5;" x="41.8453125" xlink:href="#mb41fcaeec7" y="188.718125"/>
      </g>
     </g>
     <g id="line2d_22">
      <g>
       <use style="stroke:#000000;stroke-width:0.5;" x="320.8453125" xlink:href="#maf45cd9430" y="188.718125"/>
      </g>
     </g>
     <g id="text_11">
      <!-- −0.02 -->
      <g transform="translate(7.2 191.4775)scale(0.1 -0.1)">
       <use xlink:href="#BitstreamVeraSans-Roman-2212"/>
       <use x="83.7890625" xlink:href="#BitstreamVeraSans-Roman-30"/>
       <use x="147.412109375" xlink:href="#BitstreamVeraSans-Roman-2e"/>
       <use x="179.19921875" xlink:href="#BitstreamVeraSans-Roman-30"/>
       <use x="242.822265625" xlink:href="#BitstreamVeraSans-Roman-32"/>
      </g>
     </g>
    </g>
    <g id="ytick_4">
     <g id="line2d_23">
      <g>
       <use style="stroke:#000000;stroke-width:0.5;" x="41.8453125" xlink:href="#mb41fcaeec7" y="132.918125"/>
      </g>
     </g>
     <g id="line2d_24">
      <g>
       <use style="stroke:#000000;stroke-width:0.5;" x="320.8453125" xlink:href="#maf45cd9430" y="132.918125"/>
      </g>
     </g>
     <g id="text_12">
      <!-- −0.01 -->
      <g transform="translate(7.2 135.6775)scale(0.1 -0.1)">
       <use xlink:href="#BitstreamVeraSans-Roman-2212"/>
       <use x="83.7890625" xlink:href="#BitstreamVeraSans-Roman-30"/>
       <use x="147.412109375" xlink:href="#BitstreamVeraSans-Roman-2e"/>
       <use x="179.19921875" xlink:href="#BitstreamVeraSans-Roman-30"/>
       <use x="242.822265625" xlink:href="#BitstreamVeraSans-Roman-31"/>
      </g>
     </g>
    </g>
    <g id="ytick_5">
     <g id="line2d_25">
      <g>
       <use style="stroke:#000000;stroke-width:0.5;" x="41.8453125" xlink:href="#mb41fcaeec7" y="77.118125"/>
      </g>
     </g>
     <g id="line2d_26">
      <g>
       <use style="stroke:#000000;stroke-width:0.5;" x="320.8453125" xlink:href="#maf45cd9430" y="77.118125"/>
      </g>
     </g>
     <g id="text_13">
      <!-- 0.00 -->
      <g transform="translate(15.5796875 79.8775)scale(0.1 -0.1)">
       <use xlink:href="#BitstreamVeraSans-Roman-30"/>
       <use x="63.623046875" xlink:href="#BitstreamVeraSans-Roman-2e"/>
       <use x="95.41015625" xlink:href="#BitstreamVeraSans-Roman-30"/>
       <use x="159.033203125" xlink:href="#BitstreamVeraSans-Roman-30"/>
      </g>
     </g>
    </g>
    <g id="ytick_6">
     <g id="line2d_27">
      <g>
       <use style="stroke:#000000;stroke-width:0.5;" x="41.8453125" xlink:href="#mb41fcaeec7" y="21.318125"/>
      </g>
     </g>
     <g id="line2d_28">
      <g>
       <use style="stroke:#000000;stroke-width:0.5;" x="320.8453125" xlink:href="#maf45cd9430" y="21.318125"/>
      </g>
     </g>
     <g id="text_14">
      <!-- 0.01 -->
      <g transform="translate(15.5796875 24.0775)scale(0.1 -0.1)">
       <use xlink:href="#BitstreamVeraSans-Roman-30"/>
       <use x="63.623046875" xlink:href="#BitstreamVeraSans-Roman-2e"/>
       <use x="95.41015625" xlink:href="#BitstreamVeraSans-Roman-30"/>
       <use x="159.033203125" xlink:href="#BitstreamVeraSans-Roman-31"/>
      </g>
     </g>
    </g>
   </g>
   <g id="text_15">
    <!-- 1st derivative (sliding window=3) -->
    <defs>
     <path d="M 54.890625 33.015625 
L 54.890625 0 
L 45.90625 0 
L 45.90625 32.71875 
Q 45.90625 40.484375 42.875 44.328125 
Q 39.84375 48.1875 33.796875 48.1875 
Q 26.515625 48.1875 22.3125 43.546875 
Q 18.109375 38.921875 18.109375 30.90625 
L 18.109375 0 
L 9.078125 0 
L 9.078125 54.6875 
L 18.109375 54.6875 
L 18.109375 46.1875 
Q 21.34375 51.125 25.703125 53.5625 
Q 30.078125 56 35.796875 56 
Q 45.21875 56 50.046875 50.171875 
Q 54.890625 44.34375 54.890625 33.015625 
" id="BitstreamVeraSans-Roman-6e"/>
     <path d="M 31 75.875 
Q 24.46875 64.65625 21.28125 53.65625 
Q 18.109375 42.671875 18.109375 31.390625 
Q 18.109375 20.125 21.3125 9.0625 
Q 24.515625 -2 31 -13.1875 
L 23.1875 -13.1875 
Q 15.875 -1.703125 12.234375 9.375 
Q 8.59375 20.453125 8.59375 31.390625 
Q 8.59375 42.28125 12.203125 53.3125 
Q 15.828125 64.359375 23.1875 75.875 
z
" id="BitstreamVeraSans-Roman-28"/>
     <path d="M 30.609375 48.390625 
Q 23.390625 48.390625 19.1875 42.75 
Q 14.984375 37.109375 14.984375 27.296875 
Q 14.984375 17.484375 19.15625 11.84375 
Q 23.34375 6.203125 30.609375 6.203125 
Q 37.796875 6.203125 41.984375 11.859375 
Q 46.1875 17.53125 46.1875 27.296875 
Q 46.1875 37.015625 41.984375 42.703125 
Q 37.796875 48.390625 30.609375 48.390625 
M 30.609375 56 
Q 42.328125 56 49.015625 48.375 
Q 55.71875 40.765625 55.71875 27.296875 
Q 55.71875 13.875 49.015625 6.21875 
Q 42.328125 -1.421875 30.609375 -1.421875 
Q 18.84375 -1.421875 12.171875 6.21875 
Q 5.515625 13.875 5.515625 27.296875 
Q 5.515625 40.765625 12.171875 48.375 
Q 18.84375 56 30.609375 56 
" id="BitstreamVeraSans-Roman-6f"/>
     <path d="M 9.421875 75.984375 
L 18.40625 75.984375 
L 18.40625 0 
L 9.421875 0 
z
" id="BitstreamVeraSans-Roman-6c"/>
     <path d="M 8.015625 75.875 
L 15.828125 75.875 
Q 23.140625 64.359375 26.78125 53.3125 
Q 30.421875 42.28125 30.421875 31.390625 
Q 30.421875 20.453125 26.78125 9.375 
Q 23.140625 -1.703125 15.828125 -13.1875 
L 8.015625 -13.1875 
Q 14.5 -2 17.703125 9.0625 
Q 20.90625 20.125 20.90625 31.390625 
Q 20.90625 42.671875 17.703125 53.65625 
Q 14.5 64.65625 8.015625 75.875 
" id="BitstreamVeraSans-Roman-29"/>
     <path d="M 9.421875 54.6875 
L 18.40625 54.6875 
L 18.40625 0 
L 9.421875 0 
z
M 9.421875 75.984375 
L 18.40625 75.984375 
L 18.40625 64.59375 
L 9.421875 64.59375 
z
" id="BitstreamVeraSans-Roman-69"/>
     <path d="M 10.59375 45.40625 
L 73.1875 45.40625 
L 73.1875 37.203125 
L 10.59375 37.203125 
z
M 10.59375 25.484375 
L 73.1875 25.484375 
L 73.1875 17.1875 
L 10.59375 17.1875 
z
" id="BitstreamVeraSans-Roman-3d"/>
     <path d="M 4.203125 54.6875 
L 13.1875 54.6875 
L 24.421875 12.015625 
L 35.59375 54.6875 
L 46.1875 54.6875 
L 57.421875 12.015625 
L 68.609375 54.6875 
L 77.59375 54.6875 
L 63.28125 0 
L 52.6875 0 
L 40.921875 44.828125 
L 29.109375 0 
L 18.5 0 
z
" id="BitstreamVeraSans-Roman-77"/>
     <path d="M 2.984375 54.6875 
L 12.5 54.6875 
L 29.59375 8.796875 
L 46.6875 54.6875 
L 56.203125 54.6875 
L 35.6875 0 
L 23.484375 0 
z
" id="BitstreamVeraSans-Roman-76"/>
     <path d="M 45.40625 46.390625 
L 45.40625 75.984375 
L 54.390625 75.984375 
L 54.390625 0 
L 45.40625 0 
L 45.40625 8.203125 
Q 42.578125 3.328125 38.25 0.953125 
Q 33.9375 -1.421875 27.875 -1.421875 
Q 17.96875 -1.421875 11.734375 6.484375 
Q 5.515625 14.40625 5.515625 27.296875 
Q 5.515625 40.1875 11.734375 48.09375 
Q 17.96875 56 27.875 56 
Q 33.9375 56 38.25 53.625 
Q 42.578125 51.265625 45.40625 46.390625 
M 14.796875 27.296875 
Q 14.796875 17.390625 18.875 11.75 
Q 22.953125 6.109375 30.078125 6.109375 
Q 37.203125 6.109375 41.296875 11.75 
Q 45.40625 17.390625 45.40625 27.296875 
Q 45.40625 37.203125 41.296875 42.84375 
Q 37.203125 48.484375 30.078125 48.484375 
Q 22.953125 48.484375 18.875 42.84375 
Q 14.796875 37.203125 14.796875 27.296875 
" id="BitstreamVeraSans-Roman-64"/>
     <path d="M 45.40625 27.984375 
Q 45.40625 37.75 41.375 43.109375 
Q 37.359375 48.484375 30.078125 48.484375 
Q 22.859375 48.484375 18.828125 43.109375 
Q 14.796875 37.75 14.796875 27.984375 
Q 14.796875 18.265625 18.828125 12.890625 
Q 22.859375 7.515625 30.078125 7.515625 
Q 37.359375 7.515625 41.375 12.890625 
Q 45.40625 18.265625 45.40625 27.984375 
M 54.390625 6.78125 
Q 54.390625 -7.171875 48.1875 -13.984375 
Q 42 -20.796875 29.203125 -20.796875 
Q 24.46875 -20.796875 20.265625 -20.09375 
Q 16.0625 -19.390625 12.109375 -17.921875 
L 12.109375 -9.1875 
Q 16.0625 -11.328125 19.921875 -12.34375 
Q 23.78125 -13.375 27.78125 -13.375 
Q 36.625 -13.375 41.015625 -8.765625 
Q 45.40625 -4.15625 45.40625 5.171875 
L 45.40625 9.625 
Q 42.625 4.78125 38.28125 2.390625 
Q 33.9375 0 27.875 0 
Q 17.828125 0 11.671875 7.65625 
Q 5.515625 15.328125 5.515625 27.984375 
Q 5.515625 40.671875 11.671875 48.328125 
Q 17.828125 56 27.875 56 
Q 33.9375 56 38.28125 53.609375 
Q 42.625 51.21875 45.40625 46.390625 
L 45.40625 54.6875 
L 54.390625 54.6875 
z
" id="BitstreamVeraSans-Roman-67"/>
     <path d="M 44.28125 53.078125 
L 44.28125 44.578125 
Q 40.484375 46.53125 36.375 47.5 
Q 32.28125 48.484375 27.875 48.484375 
Q 21.1875 48.484375 17.84375 46.4375 
Q 14.5 44.390625 14.5 40.28125 
Q 14.5 37.15625 16.890625 35.375 
Q 19.28125 33.59375 26.515625 31.984375 
L 29.59375 31.296875 
Q 39.15625 29.25 43.1875 25.515625 
Q 47.21875 21.78125 47.21875 15.09375 
Q 47.21875 7.46875 41.1875 3.015625 
Q 35.15625 -1.421875 24.609375 -1.421875 
Q 20.21875 -1.421875 15.453125 -0.5625 
Q 10.6875 0.296875 5.421875 2 
L 5.421875 11.28125 
Q 10.40625 8.6875 15.234375 7.390625 
Q 20.0625 6.109375 24.8125 6.109375 
Q 31.15625 6.109375 34.5625 8.28125 
Q 37.984375 10.453125 37.984375 14.40625 
Q 37.984375 18.0625 35.515625 20.015625 
Q 33.0625 21.96875 24.703125 23.78125 
L 21.578125 24.515625 
Q 13.234375 26.265625 9.515625 29.90625 
Q 5.8125 33.546875 5.8125 39.890625 
Q 5.8125 47.609375 11.28125 51.796875 
Q 16.75 56 26.8125 56 
Q 31.78125 56 36.171875 55.265625 
Q 40.578125 54.546875 44.28125 53.078125 
" id="BitstreamVeraSans-Roman-73"/>
    </defs>
    <g transform="translate(80.3671875 16.318125)scale(0.12 -0.12)">
     <use xlink:href="#BitstreamVeraSans-Roman-31"/>
     <use x="63.623046875" xlink:href="#BitstreamVeraSans-Roman-73"/>
     <use x="115.72265625" xlink:href="#BitstreamVeraSans-Roman-74"/>
     <use x="154.931640625" xlink:href="#BitstreamVeraSans-Roman-20"/>
     <use x="186.71875" xlink:href="#BitstreamVeraSans-Roman-64"/>
     <use x="250.1953125" xlink:href="#BitstreamVeraSans-Roman-65"/>
     <use x="311.71875" xlink:href="#BitstreamVeraSans-Roman-72"/>
     <use x="352.83203125" xlink:href="#BitstreamVeraSans-Roman-69"/>
     <use x="380.615234375" xlink:href="#BitstreamVeraSans-Roman-76"/>
     <use x="439.794921875" xlink:href="#BitstreamVeraSans-Roman-61"/>
     <use x="501.07421875" xlink:href="#BitstreamVeraSans-Roman-74"/>
     <use x="540.283203125" xlink:href="#BitstreamVeraSans-Roman-69"/>
     <use x="568.06640625" xlink:href="#BitstreamVeraSans-Roman-76"/>
     <use x="627.24609375" xlink:href="#BitstreamVeraSans-Roman-65"/>
     <use x="688.76953125" xlink:href="#BitstreamVeraSans-Roman-20"/>
     <use x="720.556640625" xlink:href="#BitstreamVeraSans-Roman-28"/>
     <use x="759.5703125" xlink:href="#BitstreamVeraSans-Roman-73"/>
     <use x="811.669921875" xlink:href="#BitstreamVeraSans-Roman-6c"/>
     <use x="839.453125" xlink:href="#BitstreamVeraSans-Roman-69"/>
     <use x="867.236328125" xlink:href="#BitstreamVeraSans-Roman-64"/>
     <use x="930.712890625" xlink:href="#BitstreamVeraSans-Roman-69"/>
     <use x="958.49609375" xlink:href="#BitstreamVeraSans-Roman-6e"/>
     <use x="1021.875" xlink:href="#BitstreamVeraSans-Roman-67"/>
     <use x="1085.3515625" xlink:href="#BitstreamVeraSans-Roman-20"/>
     <use x="1117.13867188" xlink:href="#BitstreamVeraSans-Roman-77"/>
     <use x="1198.92578125" xlink:href="#BitstreamVeraSans-Roman-69"/>
     <use x="1226.70898438" xlink:href="#BitstreamVeraSans-Roman-6e"/>
     <use x="1290.08789062" xlink:href="#BitstreamVeraSans-Roman-64"/>
     <use x="1353.56445312" xlink:href="#BitstreamVeraSans-Roman-6f"/>
     <use x="1414.74609375" xlink:href="#BitstreamVeraSans-Roman-77"/>
     <use x="1496.53320312" xlink:href="#BitstreamVeraSans-Roman-3d"/>
     <use x="1580.32226562" xlink:href="#BitstreamVeraSans-Roman-33"/>
     <use x="1643.9453125" xlink:href="#BitstreamVeraSans-Roman-29"/>
    </g>
   </g>
  </g>
 </g>
 <defs>
  <clipPath id="p3bfb64b17e">
   <rect height="279.0" width="279.0" x="41.8453125" y="21.318125"/>
  </clipPath>
 </defs>
</svg>
