<?xml version="1.0" encoding="utf-8" standalone="no"?>
<!DOCTYPE svg PUBLIC "-//W3C//DTD SVG 1.1//EN"
  "http://www.w3.org/Graphics/SVG/1.1/DTD/svg11.dtd">
<!-- Created with matplotlib (http://matplotlib.org/) -->
<svg height="281pt" version="1.1" viewBox="0 0 280 281" width="280pt" xmlns="http://www.w3.org/2000/svg" xmlns:xlink="http://www.w3.org/1999/xlink">
 <defs>
  <style type="text/css">
*{stroke-linecap:butt;stroke-linejoin:round;stroke-miterlimit:100000;}
  </style>
 </defs>
 <g id="figure_1">
  <g id="patch_1">
   <path d="M 0 281.478125 
L 280.458853 281.478125 
L 280.458853 0 
L 0 0 
L 0 281.478125 
z
" style="fill:none;"/>
  </g>
  <g id="axes_1">
   <g id="PathCollection_1">
    <defs>
     <path d="M 0 2.236068 
C 0.593012 2.236068 1.161816 2.000462 1.581139 1.581139 
C 2.000462 1.161816 2.236068 0.593012 2.236068 0 
C 2.236068 -0.593012 2.000462 -1.161816 1.581139 -1.581139 
C 1.161816 -2.000462 0.593012 -2.236068 0 -2.236068 
C -0.593012 -2.236068 -1.161816 -2.000462 -1.581139 -1.581139 
C -2.000462 -1.161816 -2.236068 -0.593012 -2.236068 0 
C -2.236068 0.593012 -2.000462 1.161816 -1.581139 1.581139 
C -1.161816 2.000462 -0.593012 2.236068 0 2.236068 
z
" id="mc32df1a32c" style="stroke:#0000ff;"/>
    </defs>
    <g clip-path="url(#pfb0e2dfea4)">
     <use style="fill:#0000ff;stroke:#0000ff;" x="165.828933372" xlink:href="#mc32df1a32c" y="83.2970846247"/>
     <use style="fill:#0000ff;stroke:#0000ff;" x="173.42967121" xlink:href="#mc32df1a32c" y="83.0327874399"/>
     <use style="fill:#0000ff;stroke:#0000ff;" x="204.743167958" xlink:href="#mc32df1a32c" y="51.3795365199"/>
     <use style="fill:#0000ff;stroke:#0000ff;" x="187.772074947" xlink:href="#mc32df1a32c" y="81.2663912634"/>
     <use style="fill:#0000ff;stroke:#0000ff;" x="165.113738086" xlink:href="#mc32df1a32c" y="88.9061779053"/>
     <use style="fill:#0000ff;stroke:#0000ff;" x="201.990354775" xlink:href="#mc32df1a32c" y="101.635501957"/>
     <use style="fill:#0000ff;stroke:#0000ff;" x="182.628864566" xlink:href="#mc32df1a32c" y="84.0290543218"/>
     <use style="fill:#0000ff;stroke:#0000ff;" x="173.046441975" xlink:href="#mc32df1a32c" y="97.8642144202"/>
     <use style="fill:#0000ff;stroke:#0000ff;" x="160.766666498" xlink:href="#mc32df1a32c" y="95.3110624833"/>
     <use style="fill:#0000ff;stroke:#0000ff;" x="164.378848866" xlink:href="#mc32df1a32c" y="102.692036483"/>
     <use style="fill:#0000ff;stroke:#0000ff;" x="191.235821853" xlink:href="#mc32df1a32c" y="88.1180034241"/>
     <use style="fill:#0000ff;stroke:#0000ff;" x="192.244000081" xlink:href="#mc32df1a32c" y="85.8001681818"/>
     <use style="fill:#0000ff;stroke:#0000ff;" x="137.593239864" xlink:href="#mc32df1a32c" y="86.5550304323"/>
     <use style="fill:#0000ff;stroke:#0000ff;" x="165.216135771" xlink:href="#mc32df1a32c" y="121.5812047"/>
     <use style="fill:#0000ff;stroke:#0000ff;" x="218.064297589" xlink:href="#mc32df1a32c" y="91.3495950187"/>
     <use style="fill:#0000ff;stroke:#0000ff;" x="167.609510871" xlink:href="#mc32df1a32c" y="94.6431053743"/>
     <use style="fill:#0000ff;stroke:#0000ff;" x="202.853074028" xlink:href="#mc32df1a32c" y="79.9201533146"/>
     <use style="fill:#0000ff;stroke:#0000ff;" x="163.992227897" xlink:href="#mc32df1a32c" y="82.4840913022"/>
     <use style="fill:#0000ff;stroke:#0000ff;" x="200.894954536" xlink:href="#mc32df1a32c" y="86.9912227516"/>
     <use style="fill:#0000ff;stroke:#0000ff;" x="191.642156169" xlink:href="#mc32df1a32c" y="112.966690254"/>
     <use style="fill:#0000ff;stroke:#0000ff;" x="183.937437587" xlink:href="#mc32df1a32c" y="50.3666501488"/>
     <use style="fill:#0000ff;stroke:#0000ff;" x="177.107830857" xlink:href="#mc32df1a32c" y="83.788513264"/>
     <use style="fill:#0000ff;stroke:#0000ff;" x="187.580041408" xlink:href="#mc32df1a32c" y="74.4332844731"/>
     <use style="fill:#0000ff;stroke:#0000ff;" x="206.915882701" xlink:href="#mc32df1a32c" y="80.5744065953"/>
     <use style="fill:#0000ff;stroke:#0000ff;" x="190.717970249" xlink:href="#mc32df1a32c" y="77.5270846052"/>
     <use style="fill:#0000ff;stroke:#0000ff;" x="166.768971681" xlink:href="#mc32df1a32c" y="54.1758497129"/>
     <use style="fill:#0000ff;stroke:#0000ff;" x="200.699214218" xlink:href="#mc32df1a32c" y="96.0472360132"/>
     <use style="fill:#0000ff;stroke:#0000ff;" x="212.429257366" xlink:href="#mc32df1a32c" y="67.3204712026"/>
     <use style="fill:#0000ff;stroke:#0000ff;" x="161.202957251" xlink:href="#mc32df1a32c" y="83.1570973542"/>
     <use style="fill:#0000ff;stroke:#0000ff;" x="178.824192907" xlink:href="#mc32df1a32c" y="75.1160332512"/>
     <use style="fill:#0000ff;stroke:#0000ff;" x="156.344700905" xlink:href="#mc32df1a32c" y="85.8413966692"/>
     <use style="fill:#0000ff;stroke:#0000ff;" x="185.622779886" xlink:href="#mc32df1a32c" y="92.8359862869"/>
     <use style="fill:#0000ff;stroke:#0000ff;" x="197.317921075" xlink:href="#mc32df1a32c" y="99.5390818862"/>
     <use style="fill:#0000ff;stroke:#0000ff;" x="192.579133477" xlink:href="#mc32df1a32c" y="87.5359316337"/>
     <use style="fill:#0000ff;stroke:#0000ff;" x="213.982284181" xlink:href="#mc32df1a32c" y="131.646759251"/>
     <use style="fill:#0000ff;stroke:#0000ff;" x="205.23216943" xlink:href="#mc32df1a32c" y="127.615709798"/>
     <use style="fill:#0000ff;stroke:#0000ff;" x="176.032288085" xlink:href="#mc32df1a32c" y="84.3633975631"/>
     <use style="fill:#0000ff;stroke:#0000ff;" x="191.724105112" xlink:href="#mc32df1a32c" y="117.825813167"/>
     <use style="fill:#0000ff;stroke:#0000ff;" x="210.457750684" xlink:href="#mc32df1a32c" y="77.9975268746"/>
     <use style="fill:#0000ff;stroke:#0000ff;" x="169.997215563" xlink:href="#mc32df1a32c" y="87.9207924975"/>
    </g>
   </g>
   <g id="PathCollection_2">
    <defs>
     <path d="M 0 2.236068 
C 0.593012 2.236068 1.161816 2.000462 1.581139 1.581139 
C 2.000462 1.161816 2.236068 0.593012 2.236068 0 
C 2.236068 -0.593012 2.000462 -1.161816 1.581139 -1.581139 
C 1.161816 -2.000462 0.593012 -2.236068 0 -2.236068 
C -0.593012 -2.236068 -1.161816 -2.000462 -1.581139 -1.581139 
C -2.000462 -1.161816 -2.236068 -0.593012 -2.236068 0 
C -2.236068 0.593012 -2.000462 1.161816 -1.581139 1.581139 
C -1.161816 2.000462 -0.593012 2.236068 0 2.236068 
z
" id="C0_0_cfb5352175"/>
    </defs>
    <g clip-path="url(#pfb0e2dfea4)">
     <use style="fill:none;stroke:#ff0000;" x="132.836747882" xlink:href="#C0_0_cfb5352175" y="197.484806443"/>
    </g>
    <g clip-path="url(#pfb0e2dfea4)">
     <use style="fill:none;stroke:#ff0000;" x="143.437038932" xlink:href="#C0_0_cfb5352175" y="202.898879707"/>
    </g>
    <g clip-path="url(#pfb0e2dfea4)">
     <use style="fill:none;stroke:#ff0000;" x="110.619977883" xlink:href="#C0_0_cfb5352175" y="190.507224212"/>
    </g>
    <g clip-path="url(#pfb0e2dfea4)">
     <use style="fill:none;stroke:#ff0000;" x="130.204699624" xlink:href="#C0_0_cfb5352175" y="173.803672335"/>
    </g>
    <g clip-path="url(#pfb0e2dfea4)">
     <use style="fill:none;stroke:#ff0000;" x="122.785061463" xlink:href="#C0_0_cfb5352175" y="187.534580965"/>
    </g>
    <g clip-path="url(#pfb0e2dfea4)">
     <use style="fill:none;stroke:#ff0000;" x="110.977843705" xlink:href="#C0_0_cfb5352175" y="149.891596585"/>
    </g>
    <g clip-path="url(#pfb0e2dfea4)">
     <use style="fill:none;stroke:#ff0000;" x="130.197013459" xlink:href="#C0_0_cfb5352175" y="187.969891362"/>
    </g>
    <g clip-path="url(#pfb0e2dfea4)">
     <use style="fill:none;stroke:#ff0000;" x="129.575672061" xlink:href="#C0_0_cfb5352175" y="199.747389641"/>
    </g>
    <g clip-path="url(#pfb0e2dfea4)">
     <use style="fill:none;stroke:#ff0000;" x="141.429586197" xlink:href="#C0_0_cfb5352175" y="180.525950402"/>
    </g>
    <g clip-path="url(#pfb0e2dfea4)">
     <use style="fill:none;stroke:#ff0000;" x="109.784753177" xlink:href="#C0_0_cfb5352175" y="176.429755746"/>
    </g>
    <g clip-path="url(#pfb0e2dfea4)">
     <use style="fill:none;stroke:#ff0000;" x="144.628075419" xlink:href="#C0_0_cfb5352175" y="185.235146542"/>
    </g>
    <g clip-path="url(#pfb0e2dfea4)">
     <use style="fill:none;stroke:#ff0000;" x="109.772431517" xlink:href="#C0_0_cfb5352175" y="162.813737196"/>
    </g>
    <g clip-path="url(#pfb0e2dfea4)">
     <use style="fill:none;stroke:#ff0000;" x="122.306153906" xlink:href="#C0_0_cfb5352175" y="178.595454485"/>
    </g>
    <g clip-path="url(#pfb0e2dfea4)">
     <use style="fill:none;stroke:#ff0000;" x="124.490171481" xlink:href="#C0_0_cfb5352175" y="173.271312441"/>
    </g>
    <g clip-path="url(#pfb0e2dfea4)">
     <use style="fill:none;stroke:#ff0000;" x="126.070438294" xlink:href="#C0_0_cfb5352175" y="154.71414095"/>
    </g>
    <g clip-path="url(#pfb0e2dfea4)">
     <use style="fill:none;stroke:#ff0000;" x="120.612535493" xlink:href="#C0_0_cfb5352175" y="201.059859684"/>
    </g>
    <g clip-path="url(#pfb0e2dfea4)">
     <use style="fill:none;stroke:#ff0000;" x="117.585189048" xlink:href="#C0_0_cfb5352175" y="187.661166711"/>
    </g>
    <g clip-path="url(#pfb0e2dfea4)">
     <use style="fill:none;stroke:#ff0000;" x="145.285508045" xlink:href="#C0_0_cfb5352175" y="190.620749048"/>
    </g>
    <g clip-path="url(#pfb0e2dfea4)">
     <use style="fill:none;stroke:#ff0000;" x="136.195811873" xlink:href="#C0_0_cfb5352175" y="183.150676356"/>
    </g>
    <g clip-path="url(#pfb0e2dfea4)">
     <use style="fill:none;stroke:#ff0000;" x="86.3019450682" xlink:href="#C0_0_cfb5352175" y="179.180660122"/>
    </g>
    <g clip-path="url(#pfb0e2dfea4)">
     <use style="fill:none;stroke:#ff0000;" x="144.644384649" xlink:href="#C0_0_cfb5352175" y="188.858202318"/>
    </g>
    <g clip-path="url(#pfb0e2dfea4)">
     <use style="fill:none;stroke:#ff0000;" x="117.831046515" xlink:href="#C0_0_cfb5352175" y="210.71671202"/>
    </g>
    <g clip-path="url(#pfb0e2dfea4)">
     <use style="fill:none;stroke:#ff0000;" x="102.649338265" xlink:href="#C0_0_cfb5352175" y="193.732798273"/>
    </g>
    <g clip-path="url(#pfb0e2dfea4)">
     <use style="fill:none;stroke:#ff0000;" x="112.095690674" xlink:href="#C0_0_cfb5352175" y="202.606717742"/>
    </g>
    <g clip-path="url(#pfb0e2dfea4)">
     <use style="fill:none;stroke:#ff0000;" x="141.718490346" xlink:href="#C0_0_cfb5352175" y="169.622022333"/>
    </g>
    <g clip-path="url(#pfb0e2dfea4)">
     <use style="fill:none;stroke:#ff0000;" x="88.143021229" xlink:href="#C0_0_cfb5352175" y="176.276896426"/>
    </g>
    <g clip-path="url(#pfb0e2dfea4)">
     <use style="fill:none;stroke:#ff0000;" x="95.9180831019" xlink:href="#C0_0_cfb5352175" y="176.39411579"/>
    </g>
    <g clip-path="url(#pfb0e2dfea4)">
     <use style="fill:none;stroke:#ff0000;" x="110.037962604" xlink:href="#C0_0_cfb5352175" y="210.744451641"/>
    </g>
    <g clip-path="url(#pfb0e2dfea4)">
     <use style="fill:none;stroke:#ff0000;" x="110.442830784" xlink:href="#C0_0_cfb5352175" y="203.386953456"/>
    </g>
    <g clip-path="url(#pfb0e2dfea4)">
     <use style="fill:none;stroke:#ff0000;" x="107.224392918" xlink:href="#C0_0_cfb5352175" y="189.696973323"/>
    </g>
   </g>
   <g id="line2d_1">
    <path clip-path="url(#pfb0e2dfea4)" d="M 153.197789 21.925935 
L 159.065147 22.079392 
L 164.916423 22.539341 
L 170.735579 23.304522 
L 176.506665 24.372837 
L 182.213863 25.741359 
L 187.84153 27.406336 
L 193.374241 29.363205 
L 198.796831 31.606602 
L 204.094438 34.130378 
L 209.25254 36.927615 
L 214.257 39.990648 
L 219.094101 43.311079 
L 223.750584 46.879808 
L 228.213688 50.687053 
L 232.471178 54.72238 
L 236.511385 58.974726 
L 240.323235 63.432438 
L 243.896281 68.083296 
L 247.220728 72.914553 
L 250.287465 77.912968 
L 253.088086 83.064838 
L 255.614915 88.356045 
L 257.861025 93.772084 
L 259.820261 99.298111 
L 261.487252 104.91898 
L 262.857429 110.619283 
L 263.927037 116.383397 
L 264.693143 122.195523 
L 265.153648 128.03973 
L 265.307291 133.9 
L 265.153648 139.76027 
L 264.693143 145.604477 
L 263.927037 151.416603 
L 262.857429 157.180717 
L 261.487252 162.88102 
L 259.820261 168.501889 
L 257.861025 174.027916 
L 255.614915 179.443955 
L 253.088086 184.735162 
L 250.287465 189.887032 
L 247.220728 194.885447 
L 243.896281 199.716704 
L 240.323235 204.367562 
L 236.511385 208.825274 
L 232.471178 213.07762 
L 228.213688 217.112947 
L 223.750584 220.920192 
L 219.094101 224.488921 
L 214.257 227.809352 
L 209.25254 230.872385 
L 204.094438 233.669622 
L 198.796831 236.193398 
L 193.374241 238.436795 
L 187.84153 240.393664 
L 182.213863 242.058641 
L 176.506665 243.427163 
L 170.735579 244.495478 
L 164.916423 245.260659 
L 159.065147 245.720608 
L 153.197789 245.874065 
L 147.330431 245.720608 
L 141.479155 245.260659 
L 135.659999 244.495478 
L 129.888913 243.427163 
L 124.181715 242.058641 
L 118.554048 240.393664 
L 113.021337 238.436795 
L 107.598747 236.193398 
L 102.30114 233.669622 
L 97.143038 230.872385 
L 92.138578 227.809352 
L 87.301477 224.488921 
L 82.644994 220.920192 
L 78.18189 217.112947 
L 73.9244 213.07762 
L 69.884193 208.825274 
L 66.072343 204.367562 
L 62.499297 199.716704 
L 59.17485 194.885447 
L 56.108113 189.887032 
L 53.307492 184.735162 
L 50.780663 179.443955 
L 48.534553 174.027916 
L 46.575317 168.501889 
L 44.908326 162.88102 
L 43.538149 157.180717 
L 42.468542 151.416603 
L 41.702435 145.604477 
L 41.24193 139.76027 
L 41.088288 133.9 
L 41.24193 128.03973 
L 41.702435 122.195523 
L 42.468542 116.383397 
L 43.538149 110.619283 
L 44.908326 104.91898 
L 46.575317 99.298111 
L 48.534553 93.772084 
L 50.780663 88.356045 
L 53.307492 83.064838 
L 56.108113 77.912968 
L 59.17485 72.914553 
L 62.499297 68.083296 
L 66.072343 63.432438 
L 69.884193 58.974726 
L 73.9244 54.72238 
L 78.18189 50.687053 
L 82.644994 46.879808 
L 87.301477 43.311079 
L 92.138578 39.990648 
L 97.143038 36.927615 
L 102.30114 34.130378 
L 107.598747 31.606602 
L 113.021337 29.363205 
L 118.554048 27.406336 
L 124.181715 25.741359 
L 129.888913 24.372837 
L 135.659999 23.304522 
L 141.479155 22.539341 
L 147.330431 22.079392 
L 153.197789 21.925935 
L 153.197789 21.925935 
" style="fill:none;stroke:#000000;stroke-linecap:square;"/>
   </g>
   <g id="line2d_2">
    <defs>
     <path d="M -3 0 
L 3 0 
M 0 3 
L 0 -3 
" id="m602fd50d5d" style="stroke:#000000;stroke-width:0.5;"/>
    </defs>
    <g clip-path="url(#pfb0e2dfea4)">
     <use style="stroke:#000000;stroke-width:0.5;" x="153.197789116" xlink:href="#m602fd50d5d" y="32.1112132669"/>
     <use style="stroke:#000000;stroke-width:0.5;" x="153.197789116" xlink:href="#m602fd50d5d" y="43.0711652884"/>
     <use style="stroke:#000000;stroke-width:0.5;" x="153.197789116" xlink:href="#m602fd50d5d" y="54.722379586"/>
     <use style="stroke:#000000;stroke-width:0.5;" x="153.197789116" xlink:href="#m602fd50d5d" y="66.9761833838"/>
     <use style="stroke:#000000;stroke-width:0.5;" x="153.197789116" xlink:href="#m602fd50d5d" y="79.7393178357"/>
     <use style="stroke:#000000;stroke-width:0.5;" x="153.197789116" xlink:href="#m602fd50d5d" y="92.9146477819"/>
     <use style="stroke:#000000;stroke-width:0.5;" x="153.197789116" xlink:href="#m602fd50d5d" y="106.401901006"/>
     <use style="stroke:#000000;stroke-width:0.5;" x="153.197789116" xlink:href="#m602fd50d5d" y="120.098431368"/>
     <use style="stroke:#000000;stroke-width:0.5;" x="153.197789116" xlink:href="#m602fd50d5d" y="133.9"/>
    </g>
   </g>
   <g id="line2d_3">
    <g clip-path="url(#pfb0e2dfea4)">
     <use style="stroke:#000000;stroke-width:0.5;" x="255.109693279" xlink:href="#m602fd50d5d" y="133.9"/>
     <use style="stroke:#000000;stroke-width:0.5;" x="244.136484776" xlink:href="#m602fd50d5d" y="133.9"/>
     <use style="stroke:#000000;stroke-width:0.5;" x="232.471177889" xlink:href="#m602fd50d5d" y="133.9"/>
     <use style="stroke:#000000;stroke-width:0.5;" x="220.202552647" xlink:href="#m602fd50d5d" y="133.9"/>
     <use style="stroke:#000000;stroke-width:0.5;" x="207.423980696" xlink:href="#m602fd50d5d" y="133.9"/>
     <use style="stroke:#000000;stroke-width:0.5;" x="194.232714684" xlink:href="#m602fd50d5d" y="133.9"/>
     <use style="stroke:#000000;stroke-width:0.5;" x="180.729148112" xlink:href="#m602fd50d5d" y="133.9"/>
     <use style="stroke:#000000;stroke-width:0.5;" x="167.016051273" xlink:href="#m602fd50d5d" y="133.9"/>
    </g>
   </g>
   <g id="line2d_4">
    <g clip-path="url(#pfb0e2dfea4)">
     <use style="stroke:#000000;stroke-width:0.5;" x="153.197789116" xlink:href="#m602fd50d5d" y="235.688786733"/>
     <use style="stroke:#000000;stroke-width:0.5;" x="153.197789116" xlink:href="#m602fd50d5d" y="224.728834712"/>
     <use style="stroke:#000000;stroke-width:0.5;" x="153.197789116" xlink:href="#m602fd50d5d" y="213.077620414"/>
     <use style="stroke:#000000;stroke-width:0.5;" x="153.197789116" xlink:href="#m602fd50d5d" y="200.823816616"/>
     <use style="stroke:#000000;stroke-width:0.5;" x="153.197789116" xlink:href="#m602fd50d5d" y="188.060682164"/>
     <use style="stroke:#000000;stroke-width:0.5;" x="153.197789116" xlink:href="#m602fd50d5d" y="174.885352218"/>
     <use style="stroke:#000000;stroke-width:0.5;" x="153.197789116" xlink:href="#m602fd50d5d" y="161.398098994"/>
     <use style="stroke:#000000;stroke-width:0.5;" x="153.197789116" xlink:href="#m602fd50d5d" y="147.701568632"/>
    </g>
   </g>
   <g id="line2d_5">
    <g clip-path="url(#pfb0e2dfea4)">
     <use style="stroke:#000000;stroke-width:0.5;" x="51.2858849528" xlink:href="#m602fd50d5d" y="133.9"/>
     <use style="stroke:#000000;stroke-width:0.5;" x="62.2590934553" xlink:href="#m602fd50d5d" y="133.9"/>
     <use style="stroke:#000000;stroke-width:0.5;" x="73.9244003422" xlink:href="#m602fd50d5d" y="133.9"/>
     <use style="stroke:#000000;stroke-width:0.5;" x="86.1930255842" xlink:href="#m602fd50d5d" y="133.9"/>
     <use style="stroke:#000000;stroke-width:0.5;" x="98.9715975352" xlink:href="#m602fd50d5d" y="133.9"/>
     <use style="stroke:#000000;stroke-width:0.5;" x="112.162863547" xlink:href="#m602fd50d5d" y="133.9"/>
     <use style="stroke:#000000;stroke-width:0.5;" x="125.66643012" xlink:href="#m602fd50d5d" y="133.9"/>
     <use style="stroke:#000000;stroke-width:0.5;" x="139.379526958" xlink:href="#m602fd50d5d" y="133.9"/>
    </g>
   </g>
   <g id="line2d_6">
    <path clip-path="url(#pfb0e2dfea4)" d="M 153.197789 21.925935 
L 153.197789 22.907345 
L 153.197789 23.897206 
L 153.197789 24.895445 
" style="fill:none;stroke:#000000;stroke-linecap:square;"/>
   </g>
   <g id="line2d_7">
    <path clip-path="url(#pfb0e2dfea4)" d="M 172.6654 23.627073 
L 172.494774 24.593572 
L 172.322678 25.568396 
L 172.149126 26.55147 
" style="fill:none;stroke:#000000;stroke-linecap:square;"/>
   </g>
   <g id="line2d_8">
    <path clip-path="url(#pfb0e2dfea4)" d="M 191.541497 28.678798 
L 191.205429 29.601021 
L 190.866467 30.531187 
L 190.524636 31.469224 
" style="fill:none;stroke:#000000;stroke-linecap:square;"/>
   </g>
   <g id="line2d_9">
    <path clip-path="url(#pfb0e2dfea4)" d="M 209.25254 36.927615 
L 208.761242 37.777541 
L 208.265712 38.634786 
L 207.765989 39.499287 
" style="fill:none;stroke:#000000;stroke-linecap:square;"/>
   </g>
   <g id="line2d_10">
    <path clip-path="url(#pfb0e2dfea4)" d="M 225.260388 48.12289 
L 224.628787 48.874693 
L 223.991746 49.632971 
L 223.349315 50.397667 
" style="fill:none;stroke:#000000;stroke-linecap:square;"/>
   </g>
   <g id="line2d_11">
    <path clip-path="url(#pfb0e2dfea4)" d="M 239.07865 61.924459 
L 238.325937 62.555296 
L 237.566742 63.191567 
L 236.801122 63.833223 
" style="fill:none;stroke:#000000;stroke-linecap:square;"/>
   </g>
   <g id="line2d_12">
    <path clip-path="url(#pfb0e2dfea4)" d="M 250.287465 77.912968 
L 249.436512 78.403672 
L 248.57823 78.898603 
L 247.712684 79.397723 
" style="fill:none;stroke:#000000;stroke-linecap:square;"/>
   </g>
   <g id="line2d_13">
    <path clip-path="url(#pfb0e2dfea4)" d="M 258.54626 95.602614 
L 257.622922 95.938276 
L 256.691631 96.276829 
L 255.752459 96.618247 
" style="fill:none;stroke:#000000;stroke-linecap:square;"/>
   </g>
   <g id="line2d_14">
    <path clip-path="url(#pfb0e2dfea4)" d="M 263.604095 114.455908 
L 262.636427 114.626328 
L 261.660424 114.798215 
L 260.676162 114.971558 
" style="fill:none;stroke:#000000;stroke-linecap:square;"/>
   </g>
   <g id="line2d_15">
    <path clip-path="url(#pfb0e2dfea4)" d="M 265.307291 133.9 
L 264.324694 133.9 
L 263.333635 133.9 
L 262.334189 133.9 
" style="fill:none;stroke:#000000;stroke-linecap:square;"/>
   </g>
   <g id="line2d_16">
    <path clip-path="url(#pfb0e2dfea4)" d="M 263.604095 153.344092 
L 262.636427 153.173672 
L 261.660424 153.001785 
L 260.676162 152.828442 
" style="fill:none;stroke:#000000;stroke-linecap:square;"/>
   </g>
   <g id="line2d_17">
    <path clip-path="url(#pfb0e2dfea4)" d="M 258.54626 172.197386 
L 257.622922 171.861724 
L 256.691631 171.523171 
L 255.752459 171.181753 
" style="fill:none;stroke:#000000;stroke-linecap:square;"/>
   </g>
   <g id="line2d_18">
    <path clip-path="url(#pfb0e2dfea4)" d="M 250.287465 189.887032 
L 249.436512 189.396328 
L 248.57823 188.901397 
L 247.712684 188.402277 
" style="fill:none;stroke:#000000;stroke-linecap:square;"/>
   </g>
   <g id="line2d_19">
    <path clip-path="url(#pfb0e2dfea4)" d="M 239.07865 205.875541 
L 238.325937 205.244704 
L 237.566742 204.608433 
L 236.801122 203.966777 
" style="fill:none;stroke:#000000;stroke-linecap:square;"/>
   </g>
   <g id="line2d_20">
    <path clip-path="url(#pfb0e2dfea4)" d="M 225.260388 219.67711 
L 224.628787 218.925307 
L 223.991746 218.167029 
L 223.349315 217.402333 
" style="fill:none;stroke:#000000;stroke-linecap:square;"/>
   </g>
   <g id="line2d_21">
    <path clip-path="url(#pfb0e2dfea4)" d="M 209.25254 230.872385 
L 208.761242 230.022459 
L 208.265712 229.165214 
L 207.765989 228.300713 
" style="fill:none;stroke:#000000;stroke-linecap:square;"/>
   </g>
   <g id="line2d_22">
    <path clip-path="url(#pfb0e2dfea4)" d="M 191.541497 239.121202 
L 191.205429 238.198979 
L 190.866467 237.268813 
L 190.524636 236.330776 
" style="fill:none;stroke:#000000;stroke-linecap:square;"/>
   </g>
   <g id="line2d_23">
    <path clip-path="url(#pfb0e2dfea4)" d="M 172.6654 244.172927 
L 172.494774 243.206428 
L 172.322678 242.231604 
L 172.149126 241.24853 
" style="fill:none;stroke:#000000;stroke-linecap:square;"/>
   </g>
   <g id="line2d_24">
    <path clip-path="url(#pfb0e2dfea4)" d="M 153.197789 245.874065 
L 153.197789 244.892655 
L 153.197789 243.902794 
L 153.197789 242.904555 
" style="fill:none;stroke:#000000;stroke-linecap:square;"/>
   </g>
   <g id="line2d_25">
    <path clip-path="url(#pfb0e2dfea4)" d="M 133.730178 244.172927 
L 133.900805 243.206428 
L 134.0729 242.231604 
L 134.246452 241.24853 
" style="fill:none;stroke:#000000;stroke-linecap:square;"/>
   </g>
   <g id="line2d_26">
    <path clip-path="url(#pfb0e2dfea4)" d="M 114.854081 239.121202 
L 115.190149 238.198979 
L 115.529111 237.268813 
L 115.870942 236.330776 
" style="fill:none;stroke:#000000;stroke-linecap:square;"/>
   </g>
   <g id="line2d_27">
    <path clip-path="url(#pfb0e2dfea4)" d="M 97.143038 230.872385 
L 97.634337 230.022459 
L 98.129866 229.165214 
L 98.629589 228.300713 
" style="fill:none;stroke:#000000;stroke-linecap:square;"/>
   </g>
   <g id="line2d_28">
    <path clip-path="url(#pfb0e2dfea4)" d="M 81.135191 219.67711 
L 81.766791 218.925307 
L 82.403832 218.167029 
L 83.046264 217.402333 
" style="fill:none;stroke:#000000;stroke-linecap:square;"/>
   </g>
   <g id="line2d_29">
    <path clip-path="url(#pfb0e2dfea4)" d="M 67.316928 205.875541 
L 68.069641 205.244704 
L 68.828836 204.608433 
L 69.594457 203.966777 
" style="fill:none;stroke:#000000;stroke-linecap:square;"/>
   </g>
   <g id="line2d_30">
    <path clip-path="url(#pfb0e2dfea4)" d="M 56.108113 189.887032 
L 56.959066 189.396328 
L 57.817348 188.901397 
L 58.682894 188.402277 
" style="fill:none;stroke:#000000;stroke-linecap:square;"/>
   </g>
   <g id="line2d_31">
    <path clip-path="url(#pfb0e2dfea4)" d="M 47.849318 172.197386 
L 48.772656 171.861724 
L 49.703947 171.523171 
L 50.64312 171.181753 
" style="fill:none;stroke:#000000;stroke-linecap:square;"/>
   </g>
   <g id="line2d_32">
    <path clip-path="url(#pfb0e2dfea4)" d="M 42.791483 153.344092 
L 43.759151 153.173672 
L 44.735154 153.001785 
L 45.719416 152.828442 
" style="fill:none;stroke:#000000;stroke-linecap:square;"/>
   </g>
   <g id="line2d_33">
    <path clip-path="url(#pfb0e2dfea4)" d="M 41.088288 133.9 
L 42.070884 133.9 
L 43.061943 133.9 
L 44.061389 133.9 
" style="fill:none;stroke:#000000;stroke-linecap:square;"/>
   </g>
   <g id="line2d_34">
    <path clip-path="url(#pfb0e2dfea4)" d="M 42.791483 114.455908 
L 43.759151 114.626328 
L 44.735154 114.798215 
L 45.719416 114.971558 
" style="fill:none;stroke:#000000;stroke-linecap:square;"/>
   </g>
   <g id="line2d_35">
    <path clip-path="url(#pfb0e2dfea4)" d="M 47.849318 95.602614 
L 48.772656 95.938276 
L 49.703947 96.276829 
L 50.64312 96.618247 
" style="fill:none;stroke:#000000;stroke-linecap:square;"/>
   </g>
   <g id="line2d_36">
    <path clip-path="url(#pfb0e2dfea4)" d="M 56.108113 77.912968 
L 56.959066 78.403672 
L 57.817348 78.898603 
L 58.682894 79.397723 
" style="fill:none;stroke:#000000;stroke-linecap:square;"/>
   </g>
   <g id="line2d_37">
    <path clip-path="url(#pfb0e2dfea4)" d="M 67.316928 61.924459 
L 68.069641 62.555296 
L 68.828836 63.191567 
L 69.594457 63.833223 
" style="fill:none;stroke:#000000;stroke-linecap:square;"/>
   </g>
   <g id="line2d_38">
    <path clip-path="url(#pfb0e2dfea4)" d="M 81.135191 48.12289 
L 81.766791 48.874693 
L 82.403832 49.632971 
L 83.046264 50.397667 
" style="fill:none;stroke:#000000;stroke-linecap:square;"/>
   </g>
   <g id="line2d_39">
    <path clip-path="url(#pfb0e2dfea4)" d="M 97.143038 36.927615 
L 97.634337 37.777541 
L 98.129866 38.634786 
L 98.629589 39.499287 
" style="fill:none;stroke:#000000;stroke-linecap:square;"/>
   </g>
   <g id="line2d_40">
    <path clip-path="url(#pfb0e2dfea4)" d="M 114.854081 28.678798 
L 115.190149 29.601021 
L 115.529111 30.531187 
L 115.870942 31.469224 
" style="fill:none;stroke:#000000;stroke-linecap:square;"/>
   </g>
   <g id="line2d_41">
    <path clip-path="url(#pfb0e2dfea4)" d="M 133.730178 23.627073 
L 133.900805 24.593572 
L 134.0729 25.568396 
L 134.246452 26.55147 
" style="fill:none;stroke:#000000;stroke-linecap:square;"/>
   </g>
  </g>
 </g>
 <defs>
  <clipPath id="pfb0e2dfea4">
   <rect height="253.4" width="235.429953231" x="35.4828125" y="7.2"/>
  </clipPath>
 </defs>
</svg>
