<?xml version="1.0" encoding="utf-8" standalone="no"?>
<!DOCTYPE svg PUBLIC "-//W3C//DTD SVG 1.1//EN"
  "http://www.w3.org/Graphics/SVG/1.1/DTD/svg11.dtd">
<!-- Created with matplotlib (http://matplotlib.org/) -->
<svg height="570pt" version="1.1" viewBox="0 0 569 570" width="569pt" xmlns="http://www.w3.org/2000/svg" xmlns:xlink="http://www.w3.org/1999/xlink">
 <defs>
  <style type="text/css">
*{stroke-linecap:butt;stroke-linejoin:round;stroke-miterlimit:100000;}
  </style>
 </defs>
 <g id="figure_1">
  <g id="patch_1">
   <path d="M 0 570.495312 
L 569.14375 570.495312 
L 569.14375 0 
L 0 0 
L 0 570.495312 
z
" style="fill:none;"/>
  </g>
  <g id="axes_1">
   <g id="patch_2">
    <path d="M 50.160938 252.339062 
L 258.679687 252.339062 
L 258.679687 12.039062 
L 50.160938 12.039062 
z
" style="fill:#ffffff;"/>
   </g>
   <g id="line2d_1">
    <path clip-path="url(#p43a2aad69d)" d="M 50.160938 132.189062 
L 258.679687 132.189062 
" style="fill:none;stroke:#000000;stroke-linecap:square;"/>
   </g>
   <g id="line2d_2">
    <path clip-path="url(#p43a2aad69d)" d="M 154.420312 252.339062 
L 154.420312 12.039062 
" style="fill:none;stroke:#000000;stroke-linecap:square;"/>
   </g>
   <g id="line2d_3">
    <path clip-path="url(#p43a2aad69d)" d="M 181.042409 -1 
L 179.213192 2.523263 
L 175.042817 11.194663 
L 171.706517 18.89357 
L 168.370217 27.321847 
L 165.044343 36.722617 
L 162.542118 44.502565 
L 160.039893 53.173966 
L 158.371743 59.535694 
L 156.703593 66.505231 
L 155.035443 74.244658 
L 153.372506 83.240223 
L 151.704356 94.383378 
L 150.036206 108.541262 
L 148.362843 125.624731 
L 143.368819 180.181617 
L 141.700669 195.506493 
L 140.032519 208.570323 
L 138.353943 219.551395 
L 136.696219 228.790083 
L 135.028069 236.48899 
L 133.359919 243.215404 
L 131.691769 249.050365 
L 130.023619 254.236997 
L 128.355469 258.937382 
L 126.687319 263.15152 
L 125.019169 267.122536 
L 121.682869 274.092072 
L 119.180644 278.873499 
L 115.010269 286.005118 
L 112.508044 289.976133 
L 109.171744 295.000683 
L 100.007345 307.318934 
L 95.83697 312.424524 
L 86.662145 322.959871 
L 76.663671 333.495217 
L 74.171872 336.007492 
L 71.669647 338.519767 
L 71.04409 339.168096 
L 71.325591 338.924972 
L 71.325591 338.924972 
L 81.282361 328.875873 
L 91.280835 318.097403 
L 103.771108 303.185836 
L 107.941483 297.756081 
L 112.956359 290.786544 
L 117.950383 283.249719 
L 123.788908 273.524784 
L 127.114782 267.527741 
L 131.295583 259.261546 
L 134.631883 252.048886 
L 138.802258 241.999787 
L 140.470408 237.623566 
L 142.962207 230.572988 
L 144.63557 225.548438 
L 147.132582 217.282244 
L 148.800732 211.24468 
L 150.468882 204.664141 
L 152.142245 197.346127 
L 153.805182 189.144765 
L 155.473332 179.581912 
L 157.141482 167.87147 
L 158.804419 152.959903 
L 160.477782 135.329406 
L 164.642944 89.131913 
L 166.305881 73.069562 
L 167.974031 59.308779 
L 169.652607 47.74421 
L 171.310331 38.019275 
L 172.988907 29.915163 
L 174.646631 22.945626 
L 176.314781 16.867542 
L 177.982931 11.518827 
L 180.485156 4.549291 
L 182.750758 -1 
L 182.750758 -1 
" style="fill:none;stroke:#ff0000;stroke-linecap:square;"/>
   </g>
   <g id="line2d_4">
    <path clip-path="url(#p43a2aad69d)" d="M 237.556738 12.539506 
L 235.90944 12.376987 
L 226.765893 11.842054 
L 225.097743 11.819916 
L 223.429593 11.797778 
L 215.922918 12.143884 
L 213.420693 12.394321 
L 211.752543 12.534265 
L 209.239892 12.935934 
L 205.903592 13.458946 
L 201.733217 14.497657 
L 195.884266 16.475872 
L 191.724317 18.335844 
L 190.045741 19.275349 
L 188.388017 20.236556 
L 185.885792 21.783651 
L 185.051717 22.461431 
L 184.217642 22.97713 
L 180.047267 26.447074 
L 178.379117 28.045759 
L 175.887318 30.657239 
L 174.219168 32.580088 
L 170.882868 36.993074 
L 168.370217 40.79847 
L 165.878418 45.111814 
L 162.542118 51.956034 
L 160.039893 58.041432 
L 158.371743 62.679159 
L 156.703593 67.924694 
L 155.035443 73.94012 
L 153.372506 81.217109 
L 152.538431 85.606573 
L 151.704356 90.636262 
L 150.870281 96.460154 
L 149.202131 110.458131 
L 147.533981 126.745519 
L 144.197681 160.215801 
L 142.534744 174.867532 
L 140.866594 187.382456 
L 139.198444 197.61202 
L 137.530294 205.937118 
L 135.862144 212.722435 
L 134.193994 218.130052 
L 132.525844 222.646217 
L 130.857694 226.433012 
L 129.189544 229.65252 
L 127.521394 232.38578 
L 125.019169 235.796821 
L 121.682869 239.318355 
L 119.180644 241.513779 
L 115.844344 243.819696 
L 113.342119 245.366791 
L 111.673969 246.155064 
L 110.016245 246.954188 
L 105.835444 248.549336 
L 102.499144 249.558595 
L 99.17327 250.335581 
L 97.50512 250.637607 
L 95.83697 250.939634 
L 88.330295 251.853028 
L 80.010397 252.169245 
L 76.663671 252.19516 
L 74.171872 252.132283 
L 72.503722 252.110145 
L 71.04409 251.980855 
L 72.138814 252.165819 
L 72.972889 252.310545 
L 74.641039 252.356874 
L 77.956487 252.508873 
L 82.116436 252.492284 
L 83.784586 252.538613 
L 89.612685 252.32523 
L 92.104484 252.100229 
L 93.772634 251.984476 
L 99.611159 251.214655 
L 107.941483 249.328382 
L 112.122284 247.955795 
L 116.282233 246.156301 
L 119.618533 244.385014 
L 122.954833 242.289562 
L 126.291133 239.869945 
L 128.793358 237.710808 
L 130.461508 236.136315 
L 132.963733 233.571973 
L 135.455532 230.510532 
L 137.957757 227.135779 
L 139.636333 224.680684 
L 142.138558 220.414477 
L 144.63557 215.575558 
L 147.132582 209.926227 
L 148.800732 205.636856 
L 150.468882 200.80451 
L 152.142245 195.240114 
L 153.805182 188.78152 
L 155.473332 180.96686 
L 156.302194 176.340943 
L 157.141482 171.004611 
L 157.975557 164.844337 
L 159.643707 150.15739 
L 162.980007 116.277609 
L 164.642944 100.126496 
L 166.305881 85.806913 
L 167.974031 73.794323 
L 169.652607 63.988798 
L 171.310331 56.001205 
L 172.988907 49.656136 
L 174.646631 44.423942 
L 176.314781 40.09405 
L 177.982931 36.493529 
L 179.651081 33.460295 
L 182.153306 29.680336 
L 185.489606 25.801979 
L 187.157756 24.227486 
L 188.825906 22.815075 
L 190.494056 21.564746 
L 192.996281 19.891856 
L 194.664431 18.965692 
L 198.000731 17.356487 
L 200.502956 16.331925 
L 205.507406 14.850091 
L 212.190432 13.506477 
L 220.541608 12.614398 
L 230.550508 12.487168 
L 237.223108 12.915608 
L 237.848664 12.843323 
L 237.848664 12.843323 
" style="fill:none;stroke:#0000ff;stroke-linecap:square;"/>
   </g>
   <g id="patch_3">
    <path d="M 50.160937 12.039062 
L 258.679687 12.039062 
" style="fill:none;stroke:#000000;stroke-linecap:square;stroke-linejoin:miter;"/>
   </g>
   <g id="patch_4">
    <path d="M 258.679687 252.339062 
L 258.679687 12.039062 
" style="fill:none;stroke:#000000;stroke-linecap:square;stroke-linejoin:miter;"/>
   </g>
   <g id="patch_5">
    <path d="M 50.160937 252.339062 
L 258.679687 252.339062 
" style="fill:none;stroke:#000000;stroke-linecap:square;stroke-linejoin:miter;"/>
   </g>
   <g id="patch_6">
    <path d="M 50.160938 252.339062 
L 50.160938 12.039062 
" style="fill:none;stroke:#000000;stroke-linecap:square;stroke-linejoin:miter;"/>
   </g>
   <g id="matplotlib.axis_1">
    <g id="xtick_1">
     <g id="line2d_5">
      <defs>
       <path d="M 0 0 
L 0 -4 
" id="m0c4b52f088" style="stroke:#000000;stroke-width:0.5;"/>
      </defs>
      <g>
       <use style="stroke:#000000;stroke-width:0.5;" x="50.1609375" xlink:href="#m0c4b52f088" y="252.3390625"/>
      </g>
     </g>
     <g id="line2d_6">
      <defs>
       <path d="M 0 0 
L 0 4 
" id="m2320e022c1" style="stroke:#000000;stroke-width:0.5;"/>
      </defs>
      <g>
       <use style="stroke:#000000;stroke-width:0.5;" x="50.1609375" xlink:href="#m2320e022c1" y="12.0390625"/>
      </g>
     </g>
     <g id="text_1">
      <!-- −1.0 -->
      <defs>
       <path d="M 10.59375 35.5 
L 73.1875 35.5 
L 73.1875 27.203125 
L 10.59375 27.203125 
z
" id="BitstreamVeraSans-Roman-2212"/>
       <path d="M 31.78125 66.40625 
Q 24.171875 66.40625 20.328125 58.90625 
Q 16.5 51.421875 16.5 36.375 
Q 16.5 21.390625 20.328125 13.890625 
Q 24.171875 6.390625 31.78125 6.390625 
Q 39.453125 6.390625 43.28125 13.890625 
Q 47.125 21.390625 47.125 36.375 
Q 47.125 51.421875 43.28125 58.90625 
Q 39.453125 66.40625 31.78125 66.40625 
M 31.78125 74.21875 
Q 44.046875 74.21875 50.515625 64.515625 
Q 56.984375 54.828125 56.984375 36.375 
Q 56.984375 17.96875 50.515625 8.265625 
Q 44.046875 -1.421875 31.78125 -1.421875 
Q 19.53125 -1.421875 13.0625 8.265625 
Q 6.59375 17.96875 6.59375 36.375 
Q 6.59375 54.828125 13.0625 64.515625 
Q 19.53125 74.21875 31.78125 74.21875 
" id="BitstreamVeraSans-Roman-30"/>
       <path d="M 12.40625 8.296875 
L 28.515625 8.296875 
L 28.515625 63.921875 
L 10.984375 60.40625 
L 10.984375 69.390625 
L 28.421875 72.90625 
L 38.28125 72.90625 
L 38.28125 8.296875 
L 54.390625 8.296875 
L 54.390625 0 
L 12.40625 0 
z
" id="BitstreamVeraSans-Roman-31"/>
       <path d="M 10.6875 12.40625 
L 21 12.40625 
L 21 0 
L 10.6875 0 
z
" id="BitstreamVeraSans-Roman-2e"/>
      </defs>
      <g transform="translate(38.01953125 263.9375)scale(0.1 -0.1)">
       <use xlink:href="#BitstreamVeraSans-Roman-2212"/>
       <use x="83.7890625" xlink:href="#BitstreamVeraSans-Roman-31"/>
       <use x="147.412109375" xlink:href="#BitstreamVeraSans-Roman-2e"/>
       <use x="179.19921875" xlink:href="#BitstreamVeraSans-Roman-30"/>
      </g>
     </g>
    </g>
    <g id="xtick_2">
     <g id="line2d_7">
      <g>
       <use style="stroke:#000000;stroke-width:0.5;" x="102.290625" xlink:href="#m0c4b52f088" y="252.3390625"/>
      </g>
     </g>
     <g id="line2d_8">
      <g>
       <use style="stroke:#000000;stroke-width:0.5;" x="102.290625" xlink:href="#m2320e022c1" y="12.0390625"/>
      </g>
     </g>
     <g id="text_2">
      <!-- −0.5 -->
      <defs>
       <path d="M 10.796875 72.90625 
L 49.515625 72.90625 
L 49.515625 64.59375 
L 19.828125 64.59375 
L 19.828125 46.734375 
Q 21.96875 47.46875 24.109375 47.828125 
Q 26.265625 48.1875 28.421875 48.1875 
Q 40.625 48.1875 47.75 41.5 
Q 54.890625 34.8125 54.890625 23.390625 
Q 54.890625 11.625 47.5625 5.09375 
Q 40.234375 -1.421875 26.90625 -1.421875 
Q 22.3125 -1.421875 17.546875 -0.640625 
Q 12.796875 0.140625 7.71875 1.703125 
L 7.71875 11.625 
Q 12.109375 9.234375 16.796875 8.0625 
Q 21.484375 6.890625 26.703125 6.890625 
Q 35.15625 6.890625 40.078125 11.328125 
Q 45.015625 15.765625 45.015625 23.390625 
Q 45.015625 31 40.078125 35.4375 
Q 35.15625 39.890625 26.703125 39.890625 
Q 22.75 39.890625 18.8125 39.015625 
Q 14.890625 38.140625 10.796875 36.28125 
z
" id="BitstreamVeraSans-Roman-35"/>
      </defs>
      <g transform="translate(90.14921875 263.9375)scale(0.1 -0.1)">
       <use xlink:href="#BitstreamVeraSans-Roman-2212"/>
       <use x="83.7890625" xlink:href="#BitstreamVeraSans-Roman-30"/>
       <use x="147.412109375" xlink:href="#BitstreamVeraSans-Roman-2e"/>
       <use x="179.19921875" xlink:href="#BitstreamVeraSans-Roman-35"/>
      </g>
     </g>
    </g>
    <g id="xtick_3">
     <g id="line2d_9">
      <g>
       <use style="stroke:#000000;stroke-width:0.5;" x="154.4203125" xlink:href="#m0c4b52f088" y="252.3390625"/>
      </g>
     </g>
     <g id="line2d_10">
      <g>
       <use style="stroke:#000000;stroke-width:0.5;" x="154.4203125" xlink:href="#m2320e022c1" y="12.0390625"/>
      </g>
     </g>
     <g id="text_3">
      <!-- 0.0 -->
      <g transform="translate(146.46875 263.9375)scale(0.1 -0.1)">
       <use xlink:href="#BitstreamVeraSans-Roman-30"/>
       <use x="63.623046875" xlink:href="#BitstreamVeraSans-Roman-2e"/>
       <use x="95.41015625" xlink:href="#BitstreamVeraSans-Roman-30"/>
      </g>
     </g>
    </g>
    <g id="xtick_4">
     <g id="line2d_11">
      <g>
       <use style="stroke:#000000;stroke-width:0.5;" x="206.55" xlink:href="#m0c4b52f088" y="252.3390625"/>
      </g>
     </g>
     <g id="line2d_12">
      <g>
       <use style="stroke:#000000;stroke-width:0.5;" x="206.55" xlink:href="#m2320e022c1" y="12.0390625"/>
      </g>
     </g>
     <g id="text_4">
      <!-- 0.5 -->
      <g transform="translate(198.5984375 263.9375)scale(0.1 -0.1)">
       <use xlink:href="#BitstreamVeraSans-Roman-30"/>
       <use x="63.623046875" xlink:href="#BitstreamVeraSans-Roman-2e"/>
       <use x="95.41015625" xlink:href="#BitstreamVeraSans-Roman-35"/>
      </g>
     </g>
    </g>
    <g id="xtick_5">
     <g id="line2d_13">
      <g>
       <use style="stroke:#000000;stroke-width:0.5;" x="258.6796875" xlink:href="#m0c4b52f088" y="252.3390625"/>
      </g>
     </g>
     <g id="line2d_14">
      <g>
       <use style="stroke:#000000;stroke-width:0.5;" x="258.6796875" xlink:href="#m2320e022c1" y="12.0390625"/>
      </g>
     </g>
     <g id="text_5">
      <!-- 1.0 -->
      <g transform="translate(250.728125 263.9375)scale(0.1 -0.1)">
       <use xlink:href="#BitstreamVeraSans-Roman-31"/>
       <use x="63.623046875" xlink:href="#BitstreamVeraSans-Roman-2e"/>
       <use x="95.41015625" xlink:href="#BitstreamVeraSans-Roman-30"/>
      </g>
     </g>
    </g>
    <g id="text_6">
     <!-- B (T) -->
     <defs>
      <path d="M 8.015625 75.875 
L 15.828125 75.875 
Q 23.140625 64.359375 26.78125 53.3125 
Q 30.421875 42.28125 30.421875 31.390625 
Q 30.421875 20.453125 26.78125 9.375 
Q 23.140625 -1.703125 15.828125 -13.1875 
L 8.015625 -13.1875 
Q 14.5 -2 17.703125 9.0625 
Q 20.90625 20.125 20.90625 31.390625 
Q 20.90625 42.671875 17.703125 53.65625 
Q 14.5 64.65625 8.015625 75.875 
" id="BitstreamVeraSans-Roman-29"/>
      <path id="BitstreamVeraSans-Roman-20"/>
      <path d="M -0.296875 72.90625 
L 61.375 72.90625 
L 61.375 64.59375 
L 35.5 64.59375 
L 35.5 0 
L 25.59375 0 
L 25.59375 64.59375 
L -0.296875 64.59375 
z
" id="BitstreamVeraSans-Roman-54"/>
      <path d="M 19.671875 34.8125 
L 19.671875 8.109375 
L 35.5 8.109375 
Q 43.453125 8.109375 47.28125 11.40625 
Q 51.125 14.703125 51.125 21.484375 
Q 51.125 28.328125 47.28125 31.5625 
Q 43.453125 34.8125 35.5 34.8125 
z
M 19.671875 64.796875 
L 19.671875 42.828125 
L 34.28125 42.828125 
Q 41.5 42.828125 45.03125 45.53125 
Q 48.578125 48.25 48.578125 53.8125 
Q 48.578125 59.328125 45.03125 62.0625 
Q 41.5 64.796875 34.28125 64.796875 
z
M 9.8125 72.90625 
L 35.015625 72.90625 
Q 46.296875 72.90625 52.390625 68.21875 
Q 58.5 63.53125 58.5 54.890625 
Q 58.5 48.1875 55.375 44.234375 
Q 52.25 40.28125 46.1875 39.3125 
Q 53.46875 37.75 57.5 32.78125 
Q 61.53125 27.828125 61.53125 20.40625 
Q 61.53125 10.640625 54.890625 5.3125 
Q 48.25 0 35.984375 0 
L 9.8125 0 
z
" id="BitstreamVeraSans-Roman-42"/>
      <path d="M 31 75.875 
Q 24.46875 64.65625 21.28125 53.65625 
Q 18.109375 42.671875 18.109375 31.390625 
Q 18.109375 20.125 21.3125 9.0625 
Q 24.515625 -2 31 -13.1875 
L 23.1875 -13.1875 
Q 15.875 -1.703125 12.234375 9.375 
Q 8.59375 20.453125 8.59375 31.390625 
Q 8.59375 42.28125 12.203125 53.3125 
Q 15.828125 64.359375 23.1875 75.875 
z
" id="BitstreamVeraSans-Roman-28"/>
     </defs>
     <g transform="translate(142.4453125 278.615625)scale(0.1 -0.1)">
      <use xlink:href="#BitstreamVeraSans-Roman-42"/>
      <use x="68.603515625" xlink:href="#BitstreamVeraSans-Roman-20"/>
      <use x="100.390625" xlink:href="#BitstreamVeraSans-Roman-28"/>
      <use x="139.404296875" xlink:href="#BitstreamVeraSans-Roman-54"/>
      <use x="200.48828125" xlink:href="#BitstreamVeraSans-Roman-29"/>
     </g>
    </g>
   </g>
   <g id="matplotlib.axis_2">
    <g id="ytick_1">
     <g id="line2d_15">
      <defs>
       <path d="M 0 0 
L 4 0 
" id="m470260c4cd" style="stroke:#000000;stroke-width:0.5;"/>
      </defs>
      <g>
       <use style="stroke:#000000;stroke-width:0.5;" x="50.1609375" xlink:href="#m470260c4cd" y="252.3390625"/>
      </g>
     </g>
     <g id="line2d_16">
      <defs>
       <path d="M 0 0 
L -4 0 
" id="m78d2f05ff3" style="stroke:#000000;stroke-width:0.5;"/>
      </defs>
      <g>
       <use style="stroke:#000000;stroke-width:0.5;" x="258.6796875" xlink:href="#m78d2f05ff3" y="252.3390625"/>
      </g>
     </g>
     <g id="text_7">
      <!-- −1.0 -->
      <g transform="translate(21.878125 255.0984375)scale(0.1 -0.1)">
       <use xlink:href="#BitstreamVeraSans-Roman-2212"/>
       <use x="83.7890625" xlink:href="#BitstreamVeraSans-Roman-31"/>
       <use x="147.412109375" xlink:href="#BitstreamVeraSans-Roman-2e"/>
       <use x="179.19921875" xlink:href="#BitstreamVeraSans-Roman-30"/>
      </g>
     </g>
    </g>
    <g id="ytick_2">
     <g id="line2d_17">
      <g>
       <use style="stroke:#000000;stroke-width:0.5;" x="50.1609375" xlink:href="#m470260c4cd" y="192.2640625"/>
      </g>
     </g>
     <g id="line2d_18">
      <g>
       <use style="stroke:#000000;stroke-width:0.5;" x="258.6796875" xlink:href="#m78d2f05ff3" y="192.2640625"/>
      </g>
     </g>
     <g id="text_8">
      <!-- −0.5 -->
      <g transform="translate(21.878125 195.0234375)scale(0.1 -0.1)">
       <use xlink:href="#BitstreamVeraSans-Roman-2212"/>
       <use x="83.7890625" xlink:href="#BitstreamVeraSans-Roman-30"/>
       <use x="147.412109375" xlink:href="#BitstreamVeraSans-Roman-2e"/>
       <use x="179.19921875" xlink:href="#BitstreamVeraSans-Roman-35"/>
      </g>
     </g>
    </g>
    <g id="ytick_3">
     <g id="line2d_19">
      <g>
       <use style="stroke:#000000;stroke-width:0.5;" x="50.1609375" xlink:href="#m470260c4cd" y="132.1890625"/>
      </g>
     </g>
     <g id="line2d_20">
      <g>
       <use style="stroke:#000000;stroke-width:0.5;" x="258.6796875" xlink:href="#m78d2f05ff3" y="132.1890625"/>
      </g>
     </g>
     <g id="text_9">
      <!-- 0.0 -->
      <g transform="translate(30.2578125 134.9484375)scale(0.1 -0.1)">
       <use xlink:href="#BitstreamVeraSans-Roman-30"/>
       <use x="63.623046875" xlink:href="#BitstreamVeraSans-Roman-2e"/>
       <use x="95.41015625" xlink:href="#BitstreamVeraSans-Roman-30"/>
      </g>
     </g>
    </g>
    <g id="ytick_4">
     <g id="line2d_21">
      <g>
       <use style="stroke:#000000;stroke-width:0.5;" x="50.1609375" xlink:href="#m470260c4cd" y="72.1140625"/>
      </g>
     </g>
     <g id="line2d_22">
      <g>
       <use style="stroke:#000000;stroke-width:0.5;" x="258.6796875" xlink:href="#m78d2f05ff3" y="72.1140625"/>
      </g>
     </g>
     <g id="text_10">
      <!-- 0.5 -->
      <g transform="translate(30.2578125 74.8734375)scale(0.1 -0.1)">
       <use xlink:href="#BitstreamVeraSans-Roman-30"/>
       <use x="63.623046875" xlink:href="#BitstreamVeraSans-Roman-2e"/>
       <use x="95.41015625" xlink:href="#BitstreamVeraSans-Roman-35"/>
      </g>
     </g>
    </g>
    <g id="ytick_5">
     <g id="line2d_23">
      <g>
       <use style="stroke:#000000;stroke-width:0.5;" x="50.1609375" xlink:href="#m470260c4cd" y="12.0390625"/>
      </g>
     </g>
     <g id="line2d_24">
      <g>
       <use style="stroke:#000000;stroke-width:0.5;" x="258.6796875" xlink:href="#m78d2f05ff3" y="12.0390625"/>
      </g>
     </g>
     <g id="text_11">
      <!-- 1.0 -->
      <g transform="translate(30.2578125 14.7984375)scale(0.1 -0.1)">
       <use xlink:href="#BitstreamVeraSans-Roman-31"/>
       <use x="63.623046875" xlink:href="#BitstreamVeraSans-Roman-2e"/>
       <use x="95.41015625" xlink:href="#BitstreamVeraSans-Roman-30"/>
      </g>
     </g>
    </g>
    <g id="text_12">
     <!-- M/Msat -->
     <defs>
      <path d="M 18.3125 70.21875 
L 18.3125 54.6875 
L 36.8125 54.6875 
L 36.8125 47.703125 
L 18.3125 47.703125 
L 18.3125 18.015625 
Q 18.3125 11.328125 20.140625 9.421875 
Q 21.96875 7.515625 27.59375 7.515625 
L 36.8125 7.515625 
L 36.8125 0 
L 27.59375 0 
Q 17.1875 0 13.234375 3.875 
Q 9.28125 7.765625 9.28125 18.015625 
L 9.28125 47.703125 
L 2.6875 47.703125 
L 2.6875 54.6875 
L 9.28125 54.6875 
L 9.28125 70.21875 
z
" id="BitstreamVeraSans-Roman-74"/>
      <path d="M 9.8125 72.90625 
L 24.515625 72.90625 
L 43.109375 23.296875 
L 61.8125 72.90625 
L 76.515625 72.90625 
L 76.515625 0 
L 66.890625 0 
L 66.890625 64.015625 
L 48.09375 14.015625 
L 38.1875 14.015625 
L 19.390625 64.015625 
L 19.390625 0 
L 9.8125 0 
z
" id="BitstreamVeraSans-Roman-4d"/>
      <path d="M 34.28125 27.484375 
Q 23.390625 27.484375 19.1875 25 
Q 14.984375 22.515625 14.984375 16.5 
Q 14.984375 11.71875 18.140625 8.90625 
Q 21.296875 6.109375 26.703125 6.109375 
Q 34.1875 6.109375 38.703125 11.40625 
Q 43.21875 16.703125 43.21875 25.484375 
L 43.21875 27.484375 
z
M 52.203125 31.203125 
L 52.203125 0 
L 43.21875 0 
L 43.21875 8.296875 
Q 40.140625 3.328125 35.546875 0.953125 
Q 30.953125 -1.421875 24.3125 -1.421875 
Q 15.921875 -1.421875 10.953125 3.296875 
Q 6 8.015625 6 15.921875 
Q 6 25.140625 12.171875 29.828125 
Q 18.359375 34.515625 30.609375 34.515625 
L 43.21875 34.515625 
L 43.21875 35.40625 
Q 43.21875 41.609375 39.140625 45 
Q 35.0625 48.390625 27.6875 48.390625 
Q 23 48.390625 18.546875 47.265625 
Q 14.109375 46.140625 10.015625 43.890625 
L 10.015625 52.203125 
Q 14.9375 54.109375 19.578125 55.046875 
Q 24.21875 56 28.609375 56 
Q 40.484375 56 46.34375 49.84375 
Q 52.203125 43.703125 52.203125 31.203125 
" id="BitstreamVeraSans-Roman-61"/>
      <path d="M 44.28125 53.078125 
L 44.28125 44.578125 
Q 40.484375 46.53125 36.375 47.5 
Q 32.28125 48.484375 27.875 48.484375 
Q 21.1875 48.484375 17.84375 46.4375 
Q 14.5 44.390625 14.5 40.28125 
Q 14.5 37.15625 16.890625 35.375 
Q 19.28125 33.59375 26.515625 31.984375 
L 29.59375 31.296875 
Q 39.15625 29.25 43.1875 25.515625 
Q 47.21875 21.78125 47.21875 15.09375 
Q 47.21875 7.46875 41.1875 3.015625 
Q 35.15625 -1.421875 24.609375 -1.421875 
Q 20.21875 -1.421875 15.453125 -0.5625 
Q 10.6875 0.296875 5.421875 2 
L 5.421875 11.28125 
Q 10.40625 8.6875 15.234375 7.390625 
Q 20.0625 6.109375 24.8125 6.109375 
Q 31.15625 6.109375 34.5625 8.28125 
Q 37.984375 10.453125 37.984375 14.40625 
Q 37.984375 18.0625 35.515625 20.015625 
Q 33.0625 21.96875 24.703125 23.78125 
L 21.578125 24.515625 
Q 13.234375 26.265625 9.515625 29.90625 
Q 5.8125 33.546875 5.8125 39.890625 
Q 5.8125 47.609375 11.28125 51.796875 
Q 16.75 56 26.8125 56 
Q 31.78125 56 36.171875 55.265625 
Q 40.578125 54.546875 44.28125 53.078125 
" id="BitstreamVeraSans-Roman-73"/>
      <path d="M 25.390625 72.90625 
L 33.6875 72.90625 
L 8.296875 -9.28125 
L 0 -9.28125 
z
" id="BitstreamVeraSans-Roman-2f"/>
     </defs>
     <g transform="translate(14.7984375 150.13046875)rotate(-90.0)scale(0.1 -0.1)">
      <use xlink:href="#BitstreamVeraSans-Roman-4d"/>
      <use x="86.279296875" xlink:href="#BitstreamVeraSans-Roman-2f"/>
      <use x="119.970703125" xlink:href="#BitstreamVeraSans-Roman-4d"/>
      <use x="206.25" xlink:href="#BitstreamVeraSans-Roman-73"/>
      <use x="258.349609375" xlink:href="#BitstreamVeraSans-Roman-61"/>
      <use x="319.62890625" xlink:href="#BitstreamVeraSans-Roman-74"/>
     </g>
    </g>
   </g>
   <g id="text_13">
    <!-- Ms: 1.48e-05 Am^2 -->
    <defs>
     <path d="M 19.1875 8.296875 
L 53.609375 8.296875 
L 53.609375 0 
L 7.328125 0 
L 7.328125 8.296875 
Q 12.9375 14.109375 22.625 23.890625 
Q 32.328125 33.6875 34.8125 36.53125 
Q 39.546875 41.84375 41.421875 45.53125 
Q 43.3125 49.21875 43.3125 52.78125 
Q 43.3125 58.59375 39.234375 62.25 
Q 35.15625 65.921875 28.609375 65.921875 
Q 23.96875 65.921875 18.8125 64.3125 
Q 13.671875 62.703125 7.8125 59.421875 
L 7.8125 69.390625 
Q 13.765625 71.78125 18.9375 73 
Q 24.125 74.21875 28.421875 74.21875 
Q 39.75 74.21875 46.484375 68.546875 
Q 53.21875 62.890625 53.21875 53.421875 
Q 53.21875 48.921875 51.53125 44.890625 
Q 49.859375 40.875 45.40625 35.40625 
Q 44.1875 33.984375 37.640625 27.21875 
Q 31.109375 20.453125 19.1875 8.296875 
" id="BitstreamVeraSans-Roman-32"/>
     <path d="M 46.6875 72.90625 
L 73.1875 45.703125 
L 63.375 45.703125 
L 41.890625 64.984375 
L 20.40625 45.703125 
L 10.59375 45.703125 
L 37.109375 72.90625 
z
" id="BitstreamVeraSans-Roman-5e"/>
     <path d="M 37.796875 64.3125 
L 12.890625 25.390625 
L 37.796875 25.390625 
z
M 35.203125 72.90625 
L 47.609375 72.90625 
L 47.609375 25.390625 
L 58.015625 25.390625 
L 58.015625 17.1875 
L 47.609375 17.1875 
L 47.609375 0 
L 37.796875 0 
L 37.796875 17.1875 
L 4.890625 17.1875 
L 4.890625 26.703125 
z
" id="BitstreamVeraSans-Roman-34"/>
     <path d="M 52 44.1875 
Q 55.375 50.25 60.0625 53.125 
Q 64.75 56 71.09375 56 
Q 79.640625 56 84.28125 50.015625 
Q 88.921875 44.046875 88.921875 33.015625 
L 88.921875 0 
L 79.890625 0 
L 79.890625 32.71875 
Q 79.890625 40.578125 77.09375 44.375 
Q 74.3125 48.1875 68.609375 48.1875 
Q 61.625 48.1875 57.5625 43.546875 
Q 53.515625 38.921875 53.515625 30.90625 
L 53.515625 0 
L 44.484375 0 
L 44.484375 32.71875 
Q 44.484375 40.625 41.703125 44.40625 
Q 38.921875 48.1875 33.109375 48.1875 
Q 26.21875 48.1875 22.15625 43.53125 
Q 18.109375 38.875 18.109375 30.90625 
L 18.109375 0 
L 9.078125 0 
L 9.078125 54.6875 
L 18.109375 54.6875 
L 18.109375 46.1875 
Q 21.1875 51.21875 25.484375 53.609375 
Q 29.78125 56 35.6875 56 
Q 41.65625 56 45.828125 52.96875 
Q 50 49.953125 52 44.1875 
" id="BitstreamVeraSans-Roman-6d"/>
     <path d="M 31.78125 34.625 
Q 24.75 34.625 20.71875 30.859375 
Q 16.703125 27.09375 16.703125 20.515625 
Q 16.703125 13.921875 20.71875 10.15625 
Q 24.75 6.390625 31.78125 6.390625 
Q 38.8125 6.390625 42.859375 10.171875 
Q 46.921875 13.96875 46.921875 20.515625 
Q 46.921875 27.09375 42.890625 30.859375 
Q 38.875 34.625 31.78125 34.625 
M 21.921875 38.8125 
Q 15.578125 40.375 12.03125 44.71875 
Q 8.5 49.078125 8.5 55.328125 
Q 8.5 64.0625 14.71875 69.140625 
Q 20.953125 74.21875 31.78125 74.21875 
Q 42.671875 74.21875 48.875 69.140625 
Q 55.078125 64.0625 55.078125 55.328125 
Q 55.078125 49.078125 51.53125 44.71875 
Q 48 40.375 41.703125 38.8125 
Q 48.828125 37.15625 52.796875 32.3125 
Q 56.78125 27.484375 56.78125 20.515625 
Q 56.78125 9.90625 50.3125 4.234375 
Q 43.84375 -1.421875 31.78125 -1.421875 
Q 19.734375 -1.421875 13.25 4.234375 
Q 6.78125 9.90625 6.78125 20.515625 
Q 6.78125 27.484375 10.78125 32.3125 
Q 14.796875 37.15625 21.921875 38.8125 
M 18.3125 54.390625 
Q 18.3125 48.734375 21.84375 45.5625 
Q 25.390625 42.390625 31.78125 42.390625 
Q 38.140625 42.390625 41.71875 45.5625 
Q 45.3125 48.734375 45.3125 54.390625 
Q 45.3125 60.0625 41.71875 63.234375 
Q 38.140625 66.40625 31.78125 66.40625 
Q 25.390625 66.40625 21.84375 63.234375 
Q 18.3125 60.0625 18.3125 54.390625 
" id="BitstreamVeraSans-Roman-38"/>
     <path d="M 11.71875 12.40625 
L 22.015625 12.40625 
L 22.015625 0 
L 11.71875 0 
z
M 11.71875 51.703125 
L 22.015625 51.703125 
L 22.015625 39.3125 
L 11.71875 39.3125 
z
" id="BitstreamVeraSans-Roman-3a"/>
     <path d="M 4.890625 31.390625 
L 31.203125 31.390625 
L 31.203125 23.390625 
L 4.890625 23.390625 
z
" id="BitstreamVeraSans-Roman-2d"/>
     <path d="M 34.1875 63.1875 
L 20.796875 26.90625 
L 47.609375 26.90625 
z
M 28.609375 72.90625 
L 39.796875 72.90625 
L 67.578125 0 
L 57.328125 0 
L 50.6875 18.703125 
L 17.828125 18.703125 
L 11.1875 0 
L 0.78125 0 
z
" id="BitstreamVeraSans-Roman-41"/>
     <path d="M 56.203125 29.59375 
L 56.203125 25.203125 
L 14.890625 25.203125 
Q 15.484375 15.921875 20.484375 11.0625 
Q 25.484375 6.203125 34.421875 6.203125 
Q 39.59375 6.203125 44.453125 7.46875 
Q 49.3125 8.734375 54.109375 11.28125 
L 54.109375 2.78125 
Q 49.265625 0.734375 44.1875 -0.34375 
Q 39.109375 -1.421875 33.890625 -1.421875 
Q 20.796875 -1.421875 13.15625 6.1875 
Q 5.515625 13.8125 5.515625 26.8125 
Q 5.515625 40.234375 12.765625 48.109375 
Q 20.015625 56 32.328125 56 
Q 43.359375 56 49.78125 48.890625 
Q 56.203125 41.796875 56.203125 29.59375 
M 47.21875 32.234375 
Q 47.125 39.59375 43.09375 43.984375 
Q 39.0625 48.390625 32.421875 48.390625 
Q 24.90625 48.390625 20.390625 44.140625 
Q 15.875 39.890625 15.1875 32.171875 
z
" id="BitstreamVeraSans-Roman-65"/>
    </defs>
    <g transform="translate(164.84625 240.3240625)scale(0.09 -0.09)">
     <use xlink:href="#BitstreamVeraSans-Roman-4d"/>
     <use x="86.279296875" xlink:href="#BitstreamVeraSans-Roman-73"/>
     <use x="138.37890625" xlink:href="#BitstreamVeraSans-Roman-3a"/>
     <use x="172.0703125" xlink:href="#BitstreamVeraSans-Roman-20"/>
     <use x="203.857421875" xlink:href="#BitstreamVeraSans-Roman-31"/>
     <use x="267.48046875" xlink:href="#BitstreamVeraSans-Roman-2e"/>
     <use x="299.267578125" xlink:href="#BitstreamVeraSans-Roman-34"/>
     <use x="362.890625" xlink:href="#BitstreamVeraSans-Roman-38"/>
     <use x="426.513671875" xlink:href="#BitstreamVeraSans-Roman-65"/>
     <use x="488.037109375" xlink:href="#BitstreamVeraSans-Roman-2d"/>
     <use x="524.12109375" xlink:href="#BitstreamVeraSans-Roman-30"/>
     <use x="587.744140625" xlink:href="#BitstreamVeraSans-Roman-35"/>
     <use x="651.3671875" xlink:href="#BitstreamVeraSans-Roman-20"/>
     <use x="683.154296875" xlink:href="#BitstreamVeraSans-Roman-41"/>
     <use x="751.5625" xlink:href="#BitstreamVeraSans-Roman-6d"/>
     <use x="848.974609375" xlink:href="#BitstreamVeraSans-Roman-5e"/>
     <use x="932.763671875" xlink:href="#BitstreamVeraSans-Roman-32"/>
    </g>
   </g>
   <g id="text_14">
    <!-- Mr: 6.76e-06 Am^2 -->
    <defs>
     <path d="M 33.015625 40.375 
Q 26.375 40.375 22.484375 35.828125 
Q 18.609375 31.296875 18.609375 23.390625 
Q 18.609375 15.53125 22.484375 10.953125 
Q 26.375 6.390625 33.015625 6.390625 
Q 39.65625 6.390625 43.53125 10.953125 
Q 47.40625 15.53125 47.40625 23.390625 
Q 47.40625 31.296875 43.53125 35.828125 
Q 39.65625 40.375 33.015625 40.375 
M 52.59375 71.296875 
L 52.59375 62.3125 
Q 48.875 64.0625 45.09375 64.984375 
Q 41.3125 65.921875 37.59375 65.921875 
Q 27.828125 65.921875 22.671875 59.328125 
Q 17.53125 52.734375 16.796875 39.40625 
Q 19.671875 43.65625 24.015625 45.921875 
Q 28.375 48.1875 33.59375 48.1875 
Q 44.578125 48.1875 50.953125 41.515625 
Q 57.328125 34.859375 57.328125 23.390625 
Q 57.328125 12.15625 50.6875 5.359375 
Q 44.046875 -1.421875 33.015625 -1.421875 
Q 20.359375 -1.421875 13.671875 8.265625 
Q 6.984375 17.96875 6.984375 36.375 
Q 6.984375 53.65625 15.1875 63.9375 
Q 23.390625 74.21875 37.203125 74.21875 
Q 40.921875 74.21875 44.703125 73.484375 
Q 48.484375 72.75 52.59375 71.296875 
" id="BitstreamVeraSans-Roman-36"/>
     <path d="M 41.109375 46.296875 
Q 39.59375 47.171875 37.8125 47.578125 
Q 36.03125 48 33.890625 48 
Q 26.265625 48 22.1875 43.046875 
Q 18.109375 38.09375 18.109375 28.8125 
L 18.109375 0 
L 9.078125 0 
L 9.078125 54.6875 
L 18.109375 54.6875 
L 18.109375 46.1875 
Q 20.953125 51.171875 25.484375 53.578125 
Q 30.03125 56 36.53125 56 
Q 37.453125 56 38.578125 55.875 
Q 39.703125 55.765625 41.0625 55.515625 
z
" id="BitstreamVeraSans-Roman-72"/>
     <path d="M 8.203125 72.90625 
L 55.078125 72.90625 
L 55.078125 68.703125 
L 28.609375 0 
L 18.3125 0 
L 43.21875 64.59375 
L 8.203125 64.59375 
z
" id="BitstreamVeraSans-Roman-37"/>
    </defs>
    <g transform="translate(164.84625 216.2940625)scale(0.09 -0.09)">
     <use xlink:href="#BitstreamVeraSans-Roman-4d"/>
     <use x="86.279296875" xlink:href="#BitstreamVeraSans-Roman-72"/>
     <use x="127.376953125" xlink:href="#BitstreamVeraSans-Roman-3a"/>
     <use x="161.068359375" xlink:href="#BitstreamVeraSans-Roman-20"/>
     <use x="192.85546875" xlink:href="#BitstreamVeraSans-Roman-36"/>
     <use x="256.478515625" xlink:href="#BitstreamVeraSans-Roman-2e"/>
     <use x="288.265625" xlink:href="#BitstreamVeraSans-Roman-37"/>
     <use x="351.888671875" xlink:href="#BitstreamVeraSans-Roman-36"/>
     <use x="415.51171875" xlink:href="#BitstreamVeraSans-Roman-65"/>
     <use x="477.03515625" xlink:href="#BitstreamVeraSans-Roman-2d"/>
     <use x="513.119140625" xlink:href="#BitstreamVeraSans-Roman-30"/>
     <use x="576.7421875" xlink:href="#BitstreamVeraSans-Roman-36"/>
     <use x="640.365234375" xlink:href="#BitstreamVeraSans-Roman-20"/>
     <use x="672.15234375" xlink:href="#BitstreamVeraSans-Roman-41"/>
     <use x="740.560546875" xlink:href="#BitstreamVeraSans-Roman-6d"/>
     <use x="837.97265625" xlink:href="#BitstreamVeraSans-Roman-5e"/>
     <use x="921.76171875" xlink:href="#BitstreamVeraSans-Roman-32"/>
    </g>
   </g>
   <g id="text_15">
    <!-- Bc: 6.92e-02 T -->
    <defs>
     <path d="M 10.984375 1.515625 
L 10.984375 10.5 
Q 14.703125 8.734375 18.5 7.8125 
Q 22.3125 6.890625 25.984375 6.890625 
Q 35.75 6.890625 40.890625 13.453125 
Q 46.046875 20.015625 46.78125 33.40625 
Q 43.953125 29.203125 39.59375 26.953125 
Q 35.25 24.703125 29.984375 24.703125 
Q 19.046875 24.703125 12.671875 31.3125 
Q 6.296875 37.9375 6.296875 49.421875 
Q 6.296875 60.640625 12.9375 67.421875 
Q 19.578125 74.21875 30.609375 74.21875 
Q 43.265625 74.21875 49.921875 64.515625 
Q 56.59375 54.828125 56.59375 36.375 
Q 56.59375 19.140625 48.40625 8.859375 
Q 40.234375 -1.421875 26.421875 -1.421875 
Q 22.703125 -1.421875 18.890625 -0.6875 
Q 15.09375 0.046875 10.984375 1.515625 
M 30.609375 32.421875 
Q 37.25 32.421875 41.125 36.953125 
Q 45.015625 41.5 45.015625 49.421875 
Q 45.015625 57.28125 41.125 61.84375 
Q 37.25 66.40625 30.609375 66.40625 
Q 23.96875 66.40625 20.09375 61.84375 
Q 16.21875 57.28125 16.21875 49.421875 
Q 16.21875 41.5 20.09375 36.953125 
Q 23.96875 32.421875 30.609375 32.421875 
" id="BitstreamVeraSans-Roman-39"/>
     <path d="M 48.78125 52.59375 
L 48.78125 44.1875 
Q 44.96875 46.296875 41.140625 47.34375 
Q 37.3125 48.390625 33.40625 48.390625 
Q 24.65625 48.390625 19.8125 42.84375 
Q 14.984375 37.3125 14.984375 27.296875 
Q 14.984375 17.28125 19.8125 11.734375 
Q 24.65625 6.203125 33.40625 6.203125 
Q 37.3125 6.203125 41.140625 7.25 
Q 44.96875 8.296875 48.78125 10.40625 
L 48.78125 2.09375 
Q 45.015625 0.34375 40.984375 -0.53125 
Q 36.96875 -1.421875 32.421875 -1.421875 
Q 20.0625 -1.421875 12.78125 6.34375 
Q 5.515625 14.109375 5.515625 27.296875 
Q 5.515625 40.671875 12.859375 48.328125 
Q 20.21875 56 33.015625 56 
Q 37.15625 56 41.109375 55.140625 
Q 45.0625 54.296875 48.78125 52.59375 
" id="BitstreamVeraSans-Roman-63"/>
    </defs>
    <g transform="translate(164.84625 192.2640625)scale(0.09 -0.09)">
     <use xlink:href="#BitstreamVeraSans-Roman-42"/>
     <use x="68.603515625" xlink:href="#BitstreamVeraSans-Roman-63"/>
     <use x="123.583984375" xlink:href="#BitstreamVeraSans-Roman-3a"/>
     <use x="157.275390625" xlink:href="#BitstreamVeraSans-Roman-20"/>
     <use x="189.0625" xlink:href="#BitstreamVeraSans-Roman-36"/>
     <use x="252.685546875" xlink:href="#BitstreamVeraSans-Roman-2e"/>
     <use x="284.47265625" xlink:href="#BitstreamVeraSans-Roman-39"/>
     <use x="348.095703125" xlink:href="#BitstreamVeraSans-Roman-32"/>
     <use x="411.71875" xlink:href="#BitstreamVeraSans-Roman-65"/>
     <use x="473.2421875" xlink:href="#BitstreamVeraSans-Roman-2d"/>
     <use x="509.326171875" xlink:href="#BitstreamVeraSans-Roman-30"/>
     <use x="572.94921875" xlink:href="#BitstreamVeraSans-Roman-32"/>
     <use x="636.572265625" xlink:href="#BitstreamVeraSans-Roman-20"/>
     <use x="668.359375" xlink:href="#BitstreamVeraSans-Roman-54"/>
    </g>
   </g>
   <g id="text_16">
    <!-- Xhf: 1.68e-11 m^3 -->
    <defs>
     <path d="M 6.296875 72.90625 
L 16.890625 72.90625 
L 35.015625 45.796875 
L 53.21875 72.90625 
L 63.8125 72.90625 
L 40.375 37.890625 
L 65.375 0 
L 54.78125 0 
L 34.28125 31 
L 13.625 0 
L 2.984375 0 
L 29 38.921875 
z
" id="BitstreamVeraSans-Roman-58"/>
     <path d="M 40.578125 39.3125 
Q 47.65625 37.796875 51.625 33 
Q 55.609375 28.21875 55.609375 21.1875 
Q 55.609375 10.40625 48.1875 4.484375 
Q 40.765625 -1.421875 27.09375 -1.421875 
Q 22.515625 -1.421875 17.65625 -0.515625 
Q 12.796875 0.390625 7.625 2.203125 
L 7.625 11.71875 
Q 11.71875 9.328125 16.59375 8.109375 
Q 21.484375 6.890625 26.8125 6.890625 
Q 36.078125 6.890625 40.9375 10.546875 
Q 45.796875 14.203125 45.796875 21.1875 
Q 45.796875 27.640625 41.28125 31.265625 
Q 36.765625 34.90625 28.71875 34.90625 
L 20.21875 34.90625 
L 20.21875 43.015625 
L 29.109375 43.015625 
Q 36.375 43.015625 40.234375 45.921875 
Q 44.09375 48.828125 44.09375 54.296875 
Q 44.09375 59.90625 40.109375 62.90625 
Q 36.140625 65.921875 28.71875 65.921875 
Q 24.65625 65.921875 20.015625 65.03125 
Q 15.375 64.15625 9.8125 62.3125 
L 9.8125 71.09375 
Q 15.4375 72.65625 20.34375 73.4375 
Q 25.25 74.21875 29.59375 74.21875 
Q 40.828125 74.21875 47.359375 69.109375 
Q 53.90625 64.015625 53.90625 55.328125 
Q 53.90625 49.265625 50.4375 45.09375 
Q 46.96875 40.921875 40.578125 39.3125 
" id="BitstreamVeraSans-Roman-33"/>
     <path d="M 37.109375 75.984375 
L 37.109375 68.5 
L 28.515625 68.5 
Q 23.6875 68.5 21.796875 66.546875 
Q 19.921875 64.59375 19.921875 59.515625 
L 19.921875 54.6875 
L 34.71875 54.6875 
L 34.71875 47.703125 
L 19.921875 47.703125 
L 19.921875 0 
L 10.890625 0 
L 10.890625 47.703125 
L 2.296875 47.703125 
L 2.296875 54.6875 
L 10.890625 54.6875 
L 10.890625 58.5 
Q 10.890625 67.625 15.140625 71.796875 
Q 19.390625 75.984375 28.609375 75.984375 
z
" id="BitstreamVeraSans-Roman-66"/>
     <path d="M 54.890625 33.015625 
L 54.890625 0 
L 45.90625 0 
L 45.90625 32.71875 
Q 45.90625 40.484375 42.875 44.328125 
Q 39.84375 48.1875 33.796875 48.1875 
Q 26.515625 48.1875 22.3125 43.546875 
Q 18.109375 38.921875 18.109375 30.90625 
L 18.109375 0 
L 9.078125 0 
L 9.078125 75.984375 
L 18.109375 75.984375 
L 18.109375 46.1875 
Q 21.34375 51.125 25.703125 53.5625 
Q 30.078125 56 35.796875 56 
Q 45.21875 56 50.046875 50.171875 
Q 54.890625 44.34375 54.890625 33.015625 
" id="BitstreamVeraSans-Roman-68"/>
    </defs>
    <g transform="translate(164.84625 168.2340625)scale(0.09 -0.09)">
     <use xlink:href="#BitstreamVeraSans-Roman-58"/>
     <use x="68.505859375" xlink:href="#BitstreamVeraSans-Roman-68"/>
     <use x="131.884765625" xlink:href="#BitstreamVeraSans-Roman-66"/>
     <use x="167.04296875" xlink:href="#BitstreamVeraSans-Roman-3a"/>
     <use x="200.734375" xlink:href="#BitstreamVeraSans-Roman-20"/>
     <use x="232.521484375" xlink:href="#BitstreamVeraSans-Roman-31"/>
     <use x="296.14453125" xlink:href="#BitstreamVeraSans-Roman-2e"/>
     <use x="327.931640625" xlink:href="#BitstreamVeraSans-Roman-36"/>
     <use x="391.5546875" xlink:href="#BitstreamVeraSans-Roman-38"/>
     <use x="455.177734375" xlink:href="#BitstreamVeraSans-Roman-65"/>
     <use x="516.701171875" xlink:href="#BitstreamVeraSans-Roman-2d"/>
     <use x="552.78515625" xlink:href="#BitstreamVeraSans-Roman-31"/>
     <use x="616.408203125" xlink:href="#BitstreamVeraSans-Roman-31"/>
     <use x="680.03125" xlink:href="#BitstreamVeraSans-Roman-20"/>
     <use x="711.818359375" xlink:href="#BitstreamVeraSans-Roman-6d"/>
     <use x="809.23046875" xlink:href="#BitstreamVeraSans-Roman-5e"/>
     <use x="893.01953125" xlink:href="#BitstreamVeraSans-Roman-33"/>
    </g>
   </g>
  </g>
  <g id="axes_2">
   <g id="patch_7">
    <path d="M 345.473437 252.339062 
L 553.992187 252.339062 
L 553.992187 12.039062 
L 345.473437 12.039062 
z
" style="fill:#ffffff;"/>
   </g>
   <g id="line2d_25">
    <path clip-path="url(#pb0c6009118)" d="M 345.473437 33.097655 
L 348.079922 34.227727 
L 350.686406 38.028519 
L 353.292891 44.639794 
L 355.899375 54.48702 
L 358.505859 67.096218 
L 361.112344 81.808171 
L 363.718828 98.033118 
L 366.325312 114.563056 
L 368.931797 130.964066 
L 371.538281 146.427244 
L 374.144766 160.760364 
L 376.75125 173.491993 
L 379.357734 184.777749 
L 381.964219 194.2552 
L 384.570703 202.584843 
L 387.177187 209.608587 
L 389.783672 215.46819 
L 392.390156 220.461357 
L 394.996641 224.493495 
L 397.603125 228.012838 
L 400.209609 231.051165 
L 402.816094 233.625562 
L 405.422578 235.777116 
L 408.029062 237.608026 
L 410.635547 239.216773 
L 413.242031 240.563018 
L 415.848516 241.64656 
L 418.455 242.765638 
L 421.061484 243.627991 
L 423.667969 244.41308 
L 426.274453 245.073111 
L 428.880937 245.658367 
L 431.487422 246.15851 
L 434.093906 246.643087 
L 436.700391 247.029518 
L 439.306875 247.393259 
L 441.913359 247.690655 
L 444.519844 247.96748 
L 447.126328 248.267443 
L 449.732812 248.393566 
L 452.339297 248.675264 
L 454.945781 249.016028 
L 457.552266 249.052321 
L 460.15875 249.187945 
L 462.765234 249.425015 
L 465.371719 249.578863 
L 467.978203 249.726257 
L 470.584687 249.874474 
L 473.191172 249.83845 
L 475.797656 250.023967 
L 478.404141 250.089615 
L 481.010625 250.27344 
L 483.617109 250.359812 
L 486.223594 250.277679 
L 488.830078 250.475203 
L 491.436562 250.511306 
L 494.043047 250.656781 
L 496.649531 250.789204 
L 499.256016 250.773724 
L 501.8625 250.9346 
L 504.468984 250.94952 
L 507.075469 251.027997 
L 509.681953 250.935142 
L 512.288437 251.061755 
L 514.894922 251.121959 
L 517.501406 251.205265 
L 520.107891 251.198503 
L 522.714375 251.226195 
L 525.320859 251.322165 
L 527.927344 251.427383 
L 530.533828 251.425213 
L 533.140312 251.463549 
L 535.746797 251.63236 
L 538.353281 251.59984 
L 540.959766 251.611514 
L 543.56625 251.726427 
L 546.172734 251.745392 
L 548.779219 251.734988 
L 551.385703 251.827762 
" style="fill:none;stroke:#0000ff;stroke-linecap:square;"/>
   </g>
   <g id="line2d_26">
    <path clip-path="url(#pb0c6009118)" d="M 345.473437 142.718359 
L 370.913109 142.718359 
L 370.913109 252.339062 
" style="fill:none;stroke:#ff0000;stroke-linecap:square;"/>
   </g>
   <g id="patch_8">
    <path d="M 345.473437 12.039062 
L 553.992187 12.039062 
" style="fill:none;stroke:#000000;stroke-linecap:square;stroke-linejoin:miter;"/>
   </g>
   <g id="patch_9">
    <path d="M 553.992187 252.339062 
L 553.992187 12.039062 
" style="fill:none;stroke:#000000;stroke-linecap:square;stroke-linejoin:miter;"/>
   </g>
   <g id="patch_10">
    <path d="M 345.473437 252.339062 
L 553.992187 252.339062 
" style="fill:none;stroke:#000000;stroke-linecap:square;stroke-linejoin:miter;"/>
   </g>
   <g id="patch_11">
    <path d="M 345.473437 252.339062 
L 345.473437 12.039062 
" style="fill:none;stroke:#000000;stroke-linecap:square;stroke-linejoin:miter;"/>
   </g>
   <g id="matplotlib.axis_3">
    <g id="xtick_6">
     <g id="line2d_27">
      <g>
       <use style="stroke:#000000;stroke-width:0.5;" x="345.4734375" xlink:href="#m0c4b52f088" y="252.3390625"/>
      </g>
     </g>
     <g id="line2d_28">
      <g>
       <use style="stroke:#000000;stroke-width:0.5;" x="345.4734375" xlink:href="#m2320e022c1" y="12.0390625"/>
      </g>
     </g>
     <g id="text_17">
      <!-- 0.0 -->
      <g transform="translate(337.521875 263.9375)scale(0.1 -0.1)">
       <use xlink:href="#BitstreamVeraSans-Roman-30"/>
       <use x="63.623046875" xlink:href="#BitstreamVeraSans-Roman-2e"/>
       <use x="95.41015625" xlink:href="#BitstreamVeraSans-Roman-30"/>
      </g>
     </g>
    </g>
    <g id="xtick_7">
     <g id="line2d_29">
      <g>
       <use style="stroke:#000000;stroke-width:0.5;" x="371.53828125" xlink:href="#m0c4b52f088" y="252.3390625"/>
      </g>
     </g>
     <g id="line2d_30">
      <g>
       <use style="stroke:#000000;stroke-width:0.5;" x="371.53828125" xlink:href="#m2320e022c1" y="12.0390625"/>
      </g>
     </g>
     <g id="text_18">
      <!-- 0.1 -->
      <g transform="translate(363.58671875 263.9375)scale(0.1 -0.1)">
       <use xlink:href="#BitstreamVeraSans-Roman-30"/>
       <use x="63.623046875" xlink:href="#BitstreamVeraSans-Roman-2e"/>
       <use x="95.41015625" xlink:href="#BitstreamVeraSans-Roman-31"/>
      </g>
     </g>
    </g>
    <g id="xtick_8">
     <g id="line2d_31">
      <g>
       <use style="stroke:#000000;stroke-width:0.5;" x="397.603125" xlink:href="#m0c4b52f088" y="252.3390625"/>
      </g>
     </g>
     <g id="line2d_32">
      <g>
       <use style="stroke:#000000;stroke-width:0.5;" x="397.603125" xlink:href="#m2320e022c1" y="12.0390625"/>
      </g>
     </g>
     <g id="text_19">
      <!-- 0.2 -->
      <g transform="translate(389.6515625 263.9375)scale(0.1 -0.1)">
       <use xlink:href="#BitstreamVeraSans-Roman-30"/>
       <use x="63.623046875" xlink:href="#BitstreamVeraSans-Roman-2e"/>
       <use x="95.41015625" xlink:href="#BitstreamVeraSans-Roman-32"/>
      </g>
     </g>
    </g>
    <g id="xtick_9">
     <g id="line2d_33">
      <g>
       <use style="stroke:#000000;stroke-width:0.5;" x="423.66796875" xlink:href="#m0c4b52f088" y="252.3390625"/>
      </g>
     </g>
     <g id="line2d_34">
      <g>
       <use style="stroke:#000000;stroke-width:0.5;" x="423.66796875" xlink:href="#m2320e022c1" y="12.0390625"/>
      </g>
     </g>
     <g id="text_20">
      <!-- 0.3 -->
      <g transform="translate(415.71640625 263.9375)scale(0.1 -0.1)">
       <use xlink:href="#BitstreamVeraSans-Roman-30"/>
       <use x="63.623046875" xlink:href="#BitstreamVeraSans-Roman-2e"/>
       <use x="95.41015625" xlink:href="#BitstreamVeraSans-Roman-33"/>
      </g>
     </g>
    </g>
    <g id="xtick_10">
     <g id="line2d_35">
      <g>
       <use style="stroke:#000000;stroke-width:0.5;" x="449.7328125" xlink:href="#m0c4b52f088" y="252.3390625"/>
      </g>
     </g>
     <g id="line2d_36">
      <g>
       <use style="stroke:#000000;stroke-width:0.5;" x="449.7328125" xlink:href="#m2320e022c1" y="12.0390625"/>
      </g>
     </g>
     <g id="text_21">
      <!-- 0.4 -->
      <g transform="translate(441.78125 263.9375)scale(0.1 -0.1)">
       <use xlink:href="#BitstreamVeraSans-Roman-30"/>
       <use x="63.623046875" xlink:href="#BitstreamVeraSans-Roman-2e"/>
       <use x="95.41015625" xlink:href="#BitstreamVeraSans-Roman-34"/>
      </g>
     </g>
    </g>
    <g id="xtick_11">
     <g id="line2d_37">
      <g>
       <use style="stroke:#000000;stroke-width:0.5;" x="475.79765625" xlink:href="#m0c4b52f088" y="252.3390625"/>
      </g>
     </g>
     <g id="line2d_38">
      <g>
       <use style="stroke:#000000;stroke-width:0.5;" x="475.79765625" xlink:href="#m2320e022c1" y="12.0390625"/>
      </g>
     </g>
     <g id="text_22">
      <!-- 0.5 -->
      <g transform="translate(467.84609375 263.9375)scale(0.1 -0.1)">
       <use xlink:href="#BitstreamVeraSans-Roman-30"/>
       <use x="63.623046875" xlink:href="#BitstreamVeraSans-Roman-2e"/>
       <use x="95.41015625" xlink:href="#BitstreamVeraSans-Roman-35"/>
      </g>
     </g>
    </g>
    <g id="xtick_12">
     <g id="line2d_39">
      <g>
       <use style="stroke:#000000;stroke-width:0.5;" x="501.8625" xlink:href="#m0c4b52f088" y="252.3390625"/>
      </g>
     </g>
     <g id="line2d_40">
      <g>
       <use style="stroke:#000000;stroke-width:0.5;" x="501.8625" xlink:href="#m2320e022c1" y="12.0390625"/>
      </g>
     </g>
     <g id="text_23">
      <!-- 0.6 -->
      <g transform="translate(493.9109375 263.9375)scale(0.1 -0.1)">
       <use xlink:href="#BitstreamVeraSans-Roman-30"/>
       <use x="63.623046875" xlink:href="#BitstreamVeraSans-Roman-2e"/>
       <use x="95.41015625" xlink:href="#BitstreamVeraSans-Roman-36"/>
      </g>
     </g>
    </g>
    <g id="xtick_13">
     <g id="line2d_41">
      <g>
       <use style="stroke:#000000;stroke-width:0.5;" x="527.92734375" xlink:href="#m0c4b52f088" y="252.3390625"/>
      </g>
     </g>
     <g id="line2d_42">
      <g>
       <use style="stroke:#000000;stroke-width:0.5;" x="527.92734375" xlink:href="#m2320e022c1" y="12.0390625"/>
      </g>
     </g>
     <g id="text_24">
      <!-- 0.7 -->
      <g transform="translate(519.97578125 263.9375)scale(0.1 -0.1)">
       <use xlink:href="#BitstreamVeraSans-Roman-30"/>
       <use x="63.623046875" xlink:href="#BitstreamVeraSans-Roman-2e"/>
       <use x="95.41015625" xlink:href="#BitstreamVeraSans-Roman-37"/>
      </g>
     </g>
    </g>
    <g id="xtick_14">
     <g id="line2d_43">
      <g>
       <use style="stroke:#000000;stroke-width:0.5;" x="553.9921875" xlink:href="#m0c4b52f088" y="252.3390625"/>
      </g>
     </g>
     <g id="line2d_44">
      <g>
       <use style="stroke:#000000;stroke-width:0.5;" x="553.9921875" xlink:href="#m2320e022c1" y="12.0390625"/>
      </g>
     </g>
     <g id="text_25">
      <!-- 0.8 -->
      <g transform="translate(546.040625 263.9375)scale(0.1 -0.1)">
       <use xlink:href="#BitstreamVeraSans-Roman-30"/>
       <use x="63.623046875" xlink:href="#BitstreamVeraSans-Roman-2e"/>
       <use x="95.41015625" xlink:href="#BitstreamVeraSans-Roman-38"/>
      </g>
     </g>
    </g>
    <g id="text_26">
     <!-- B (T) -->
     <g transform="translate(437.7578125 278.615625)scale(0.1 -0.1)">
      <use xlink:href="#BitstreamVeraSans-Roman-42"/>
      <use x="68.603515625" xlink:href="#BitstreamVeraSans-Roman-20"/>
      <use x="100.390625" xlink:href="#BitstreamVeraSans-Roman-28"/>
      <use x="139.404296875" xlink:href="#BitstreamVeraSans-Roman-54"/>
      <use x="200.48828125" xlink:href="#BitstreamVeraSans-Roman-29"/>
     </g>
    </g>
   </g>
   <g id="matplotlib.axis_4">
    <g id="ytick_6">
     <g id="line2d_45">
      <g>
       <use style="stroke:#000000;stroke-width:0.5;" x="345.4734375" xlink:href="#m470260c4cd" y="252.3390625"/>
      </g>
     </g>
     <g id="line2d_46">
      <g>
       <use style="stroke:#000000;stroke-width:0.5;" x="553.9921875" xlink:href="#m78d2f05ff3" y="252.3390625"/>
      </g>
     </g>
     <g id="text_27">
      <!-- 0.0 -->
      <g transform="translate(325.5703125 255.0984375)scale(0.1 -0.1)">
       <use xlink:href="#BitstreamVeraSans-Roman-30"/>
       <use x="63.623046875" xlink:href="#BitstreamVeraSans-Roman-2e"/>
       <use x="95.41015625" xlink:href="#BitstreamVeraSans-Roman-30"/>
      </g>
     </g>
    </g>
    <g id="ytick_7">
     <g id="line2d_47">
      <g>
       <use style="stroke:#000000;stroke-width:0.5;" x="345.4734375" xlink:href="#m470260c4cd" y="204.2790625"/>
      </g>
     </g>
     <g id="line2d_48">
      <g>
       <use style="stroke:#000000;stroke-width:0.5;" x="553.9921875" xlink:href="#m78d2f05ff3" y="204.2790625"/>
      </g>
     </g>
     <g id="text_28">
      <!-- 0.2 -->
      <g transform="translate(325.5703125 207.0384375)scale(0.1 -0.1)">
       <use xlink:href="#BitstreamVeraSans-Roman-30"/>
       <use x="63.623046875" xlink:href="#BitstreamVeraSans-Roman-2e"/>
       <use x="95.41015625" xlink:href="#BitstreamVeraSans-Roman-32"/>
      </g>
     </g>
    </g>
    <g id="ytick_8">
     <g id="line2d_49">
      <g>
       <use style="stroke:#000000;stroke-width:0.5;" x="345.4734375" xlink:href="#m470260c4cd" y="156.2190625"/>
      </g>
     </g>
     <g id="line2d_50">
      <g>
       <use style="stroke:#000000;stroke-width:0.5;" x="553.9921875" xlink:href="#m78d2f05ff3" y="156.2190625"/>
      </g>
     </g>
     <g id="text_29">
      <!-- 0.4 -->
      <g transform="translate(325.5703125 158.9784375)scale(0.1 -0.1)">
       <use xlink:href="#BitstreamVeraSans-Roman-30"/>
       <use x="63.623046875" xlink:href="#BitstreamVeraSans-Roman-2e"/>
       <use x="95.41015625" xlink:href="#BitstreamVeraSans-Roman-34"/>
      </g>
     </g>
    </g>
    <g id="ytick_9">
     <g id="line2d_51">
      <g>
       <use style="stroke:#000000;stroke-width:0.5;" x="345.4734375" xlink:href="#m470260c4cd" y="108.1590625"/>
      </g>
     </g>
     <g id="line2d_52">
      <g>
       <use style="stroke:#000000;stroke-width:0.5;" x="553.9921875" xlink:href="#m78d2f05ff3" y="108.1590625"/>
      </g>
     </g>
     <g id="text_30">
      <!-- 0.6 -->
      <g transform="translate(325.5703125 110.9184375)scale(0.1 -0.1)">
       <use xlink:href="#BitstreamVeraSans-Roman-30"/>
       <use x="63.623046875" xlink:href="#BitstreamVeraSans-Roman-2e"/>
       <use x="95.41015625" xlink:href="#BitstreamVeraSans-Roman-36"/>
      </g>
     </g>
    </g>
    <g id="ytick_10">
     <g id="line2d_53">
      <g>
       <use style="stroke:#000000;stroke-width:0.5;" x="345.4734375" xlink:href="#m470260c4cd" y="60.0990625"/>
      </g>
     </g>
     <g id="line2d_54">
      <g>
       <use style="stroke:#000000;stroke-width:0.5;" x="553.9921875" xlink:href="#m78d2f05ff3" y="60.0990625"/>
      </g>
     </g>
     <g id="text_31">
      <!-- 0.8 -->
      <g transform="translate(325.5703125 62.8584375)scale(0.1 -0.1)">
       <use xlink:href="#BitstreamVeraSans-Roman-30"/>
       <use x="63.623046875" xlink:href="#BitstreamVeraSans-Roman-2e"/>
       <use x="95.41015625" xlink:href="#BitstreamVeraSans-Roman-38"/>
      </g>
     </g>
    </g>
    <g id="ytick_11">
     <g id="line2d_55">
      <g>
       <use style="stroke:#000000;stroke-width:0.5;" x="345.4734375" xlink:href="#m470260c4cd" y="12.0390625"/>
      </g>
     </g>
     <g id="line2d_56">
      <g>
       <use style="stroke:#000000;stroke-width:0.5;" x="553.9921875" xlink:href="#m78d2f05ff3" y="12.0390625"/>
      </g>
     </g>
     <g id="text_32">
      <!-- 1.0 -->
      <g transform="translate(325.5703125 14.7984375)scale(0.1 -0.1)">
       <use xlink:href="#BitstreamVeraSans-Roman-31"/>
       <use x="63.623046875" xlink:href="#BitstreamVeraSans-Roman-2e"/>
       <use x="95.41015625" xlink:href="#BitstreamVeraSans-Roman-30"/>
      </g>
     </g>
    </g>
    <g id="text_33">
     <!-- Delta M -->
     <defs>
      <path d="M 19.671875 64.796875 
L 19.671875 8.109375 
L 31.59375 8.109375 
Q 46.6875 8.109375 53.6875 14.9375 
Q 60.6875 21.78125 60.6875 36.53125 
Q 60.6875 51.171875 53.6875 57.984375 
Q 46.6875 64.796875 31.59375 64.796875 
z
M 9.8125 72.90625 
L 30.078125 72.90625 
Q 51.265625 72.90625 61.171875 64.09375 
Q 71.09375 55.28125 71.09375 36.53125 
Q 71.09375 17.671875 61.125 8.828125 
Q 51.171875 0 30.078125 0 
L 9.8125 0 
z
" id="BitstreamVeraSans-Roman-44"/>
      <path d="M 9.421875 75.984375 
L 18.40625 75.984375 
L 18.40625 0 
L 9.421875 0 
z
" id="BitstreamVeraSans-Roman-6c"/>
     </defs>
     <g transform="translate(318.490625 151.43203125)rotate(-90.0)scale(0.1 -0.1)">
      <use xlink:href="#BitstreamVeraSans-Roman-44"/>
      <use x="77.001953125" xlink:href="#BitstreamVeraSans-Roman-65"/>
      <use x="138.525390625" xlink:href="#BitstreamVeraSans-Roman-6c"/>
      <use x="166.30859375" xlink:href="#BitstreamVeraSans-Roman-74"/>
      <use x="205.517578125" xlink:href="#BitstreamVeraSans-Roman-61"/>
      <use x="266.796875" xlink:href="#BitstreamVeraSans-Roman-20"/>
      <use x="298.583984375" xlink:href="#BitstreamVeraSans-Roman-4d"/>
     </g>
    </g>
   </g>
  </g>
  <g id="axes_3">
   <g id="patch_12">
    <path d="M 50.160938 534.939062 
L 258.679687 534.939062 
L 258.679687 294.639062 
L 50.160938 294.639062 
z
" style="fill:#ffffff;"/>
   </g>
   <g id="line2d_57">
    <path clip-path="url(#p95d5b9debd)" d="M 55.373906 499.718603 
L 57.980391 460.567153 
L 60.586875 417.378341 
L 63.193359 374.53603 
L 65.799844 339.787983 
L 68.406328 313.96121 
L 71.012812 300.9756 
L 73.619297 299.718005 
L 76.225781 307.337716 
L 78.832266 322.108365 
L 81.43875 341.619432 
L 84.045234 363.386306 
L 86.651719 386.630436 
L 89.258203 407.745534 
L 91.864688 425.272019 
L 94.471172 442.915161 
L 97.077656 457.419275 
L 99.684141 470.472595 
L 102.290625 480.999912 
L 104.897109 488.098566 
L 107.503594 494.848178 
L 110.110078 501.182267 
L 112.716562 506.49289 
L 115.323047 510.370081 
L 117.929531 513.831976 
L 120.536016 517.583447 
L 123.1425 519.206063 
L 125.748984 520.785982 
L 128.355469 523.17162 
L 130.961953 524.616772 
L 133.568437 526.044151 
L 136.174922 527.186216 
L 138.781406 527.905347 
L 141.387891 528.717579 
L 143.994375 529.580691 
L 146.600859 530.216651 
L 149.207344 530.837488 
L 151.813828 530.819147 
L 154.420312 531.895588 
L 157.026797 532.026061 
L 159.633281 530.492907 
L 162.239766 532.245795 
L 164.84625 533.711087 
L 167.452734 532.27696 
L 170.059219 532.146792 
L 172.665703 532.78734 
L 175.272187 532.827556 
L 177.878672 534.137679 
L 180.485156 533.87125 
L 183.091641 533.145032 
L 185.698125 533.157117 
L 188.304609 533.009081 
L 190.911094 534.908786 
L 193.517578 534.11484 
L 196.124062 533.270297 
L 198.730547 533.642076 
L 201.337031 532.954077 
L 203.943516 534.103757 
L 206.55 533.90052 
L 209.156484 533.683378 
L 211.762969 534.271937 
L 214.369453 534.836363 
L 216.975937 534.697938 
L 219.582422 533.604654 
L 222.188906 533.913986 
L 224.795391 534.392318 
L 227.401875 534.789561 
L 230.008359 534.055764 
L 232.614844 533.502005 
L 235.221328 534.203008 
L 237.827812 534.680735 
L 240.434297 533.459438 
L 243.040781 533.965559 
L 245.647266 534.790163 
L 248.25375 534.034866 
L 250.860234 533.98279 
L 253.466719 534.877913 
L 256.073203 534.350709 
" style="fill:none;stroke:#0000ff;stroke-linecap:square;"/>
   </g>
   <g id="patch_13">
    <path d="M 50.160938 294.639062 
L 258.679687 294.639062 
" style="fill:none;stroke:#000000;stroke-linecap:square;stroke-linejoin:miter;"/>
   </g>
   <g id="patch_14">
    <path d="M 258.679687 534.939062 
L 258.679687 294.639062 
" style="fill:none;stroke:#000000;stroke-linecap:square;stroke-linejoin:miter;"/>
   </g>
   <g id="patch_15">
    <path d="M 50.160938 534.939062 
L 258.679687 534.939062 
" style="fill:none;stroke:#000000;stroke-linecap:square;stroke-linejoin:miter;"/>
   </g>
   <g id="patch_16">
    <path d="M 50.160938 534.939062 
L 50.160938 294.639062 
" style="fill:none;stroke:#000000;stroke-linecap:square;stroke-linejoin:miter;"/>
   </g>
   <g id="matplotlib.axis_5">
    <g id="xtick_15">
     <g id="line2d_58">
      <g>
       <use style="stroke:#000000;stroke-width:0.5;" x="50.1609375" xlink:href="#m0c4b52f088" y="534.9390625"/>
      </g>
     </g>
     <g id="line2d_59">
      <g>
       <use style="stroke:#000000;stroke-width:0.5;" x="50.1609375" xlink:href="#m2320e022c1" y="294.6390625"/>
      </g>
     </g>
     <g id="text_34">
      <!-- 0.0 -->
      <g transform="translate(42.209375 546.5375)scale(0.1 -0.1)">
       <use xlink:href="#BitstreamVeraSans-Roman-30"/>
       <use x="63.623046875" xlink:href="#BitstreamVeraSans-Roman-2e"/>
       <use x="95.41015625" xlink:href="#BitstreamVeraSans-Roman-30"/>
      </g>
     </g>
    </g>
    <g id="xtick_16">
     <g id="line2d_60">
      <g>
       <use style="stroke:#000000;stroke-width:0.5;" x="76.22578125" xlink:href="#m0c4b52f088" y="534.9390625"/>
      </g>
     </g>
     <g id="line2d_61">
      <g>
       <use style="stroke:#000000;stroke-width:0.5;" x="76.22578125" xlink:href="#m2320e022c1" y="294.6390625"/>
      </g>
     </g>
     <g id="text_35">
      <!-- 0.1 -->
      <g transform="translate(68.27421875 546.5375)scale(0.1 -0.1)">
       <use xlink:href="#BitstreamVeraSans-Roman-30"/>
       <use x="63.623046875" xlink:href="#BitstreamVeraSans-Roman-2e"/>
       <use x="95.41015625" xlink:href="#BitstreamVeraSans-Roman-31"/>
      </g>
     </g>
    </g>
    <g id="xtick_17">
     <g id="line2d_62">
      <g>
       <use style="stroke:#000000;stroke-width:0.5;" x="102.290625" xlink:href="#m0c4b52f088" y="534.9390625"/>
      </g>
     </g>
     <g id="line2d_63">
      <g>
       <use style="stroke:#000000;stroke-width:0.5;" x="102.290625" xlink:href="#m2320e022c1" y="294.6390625"/>
      </g>
     </g>
     <g id="text_36">
      <!-- 0.2 -->
      <g transform="translate(94.3390625 546.5375)scale(0.1 -0.1)">
       <use xlink:href="#BitstreamVeraSans-Roman-30"/>
       <use x="63.623046875" xlink:href="#BitstreamVeraSans-Roman-2e"/>
       <use x="95.41015625" xlink:href="#BitstreamVeraSans-Roman-32"/>
      </g>
     </g>
    </g>
    <g id="xtick_18">
     <g id="line2d_64">
      <g>
       <use style="stroke:#000000;stroke-width:0.5;" x="128.35546875" xlink:href="#m0c4b52f088" y="534.9390625"/>
      </g>
     </g>
     <g id="line2d_65">
      <g>
       <use style="stroke:#000000;stroke-width:0.5;" x="128.35546875" xlink:href="#m2320e022c1" y="294.6390625"/>
      </g>
     </g>
     <g id="text_37">
      <!-- 0.3 -->
      <g transform="translate(120.40390625 546.5375)scale(0.1 -0.1)">
       <use xlink:href="#BitstreamVeraSans-Roman-30"/>
       <use x="63.623046875" xlink:href="#BitstreamVeraSans-Roman-2e"/>
       <use x="95.41015625" xlink:href="#BitstreamVeraSans-Roman-33"/>
      </g>
     </g>
    </g>
    <g id="xtick_19">
     <g id="line2d_66">
      <g>
       <use style="stroke:#000000;stroke-width:0.5;" x="154.4203125" xlink:href="#m0c4b52f088" y="534.9390625"/>
      </g>
     </g>
     <g id="line2d_67">
      <g>
       <use style="stroke:#000000;stroke-width:0.5;" x="154.4203125" xlink:href="#m2320e022c1" y="294.6390625"/>
      </g>
     </g>
     <g id="text_38">
      <!-- 0.4 -->
      <g transform="translate(146.46875 546.5375)scale(0.1 -0.1)">
       <use xlink:href="#BitstreamVeraSans-Roman-30"/>
       <use x="63.623046875" xlink:href="#BitstreamVeraSans-Roman-2e"/>
       <use x="95.41015625" xlink:href="#BitstreamVeraSans-Roman-34"/>
      </g>
     </g>
    </g>
    <g id="xtick_20">
     <g id="line2d_68">
      <g>
       <use style="stroke:#000000;stroke-width:0.5;" x="180.48515625" xlink:href="#m0c4b52f088" y="534.9390625"/>
      </g>
     </g>
     <g id="line2d_69">
      <g>
       <use style="stroke:#000000;stroke-width:0.5;" x="180.48515625" xlink:href="#m2320e022c1" y="294.6390625"/>
      </g>
     </g>
     <g id="text_39">
      <!-- 0.5 -->
      <g transform="translate(172.53359375 546.5375)scale(0.1 -0.1)">
       <use xlink:href="#BitstreamVeraSans-Roman-30"/>
       <use x="63.623046875" xlink:href="#BitstreamVeraSans-Roman-2e"/>
       <use x="95.41015625" xlink:href="#BitstreamVeraSans-Roman-35"/>
      </g>
     </g>
    </g>
    <g id="xtick_21">
     <g id="line2d_70">
      <g>
       <use style="stroke:#000000;stroke-width:0.5;" x="206.55" xlink:href="#m0c4b52f088" y="534.9390625"/>
      </g>
     </g>
     <g id="line2d_71">
      <g>
       <use style="stroke:#000000;stroke-width:0.5;" x="206.55" xlink:href="#m2320e022c1" y="294.6390625"/>
      </g>
     </g>
     <g id="text_40">
      <!-- 0.6 -->
      <g transform="translate(198.5984375 546.5375)scale(0.1 -0.1)">
       <use xlink:href="#BitstreamVeraSans-Roman-30"/>
       <use x="63.623046875" xlink:href="#BitstreamVeraSans-Roman-2e"/>
       <use x="95.41015625" xlink:href="#BitstreamVeraSans-Roman-36"/>
      </g>
     </g>
    </g>
    <g id="xtick_22">
     <g id="line2d_72">
      <g>
       <use style="stroke:#000000;stroke-width:0.5;" x="232.61484375" xlink:href="#m0c4b52f088" y="534.9390625"/>
      </g>
     </g>
     <g id="line2d_73">
      <g>
       <use style="stroke:#000000;stroke-width:0.5;" x="232.61484375" xlink:href="#m2320e022c1" y="294.6390625"/>
      </g>
     </g>
     <g id="text_41">
      <!-- 0.7 -->
      <g transform="translate(224.66328125 546.5375)scale(0.1 -0.1)">
       <use xlink:href="#BitstreamVeraSans-Roman-30"/>
       <use x="63.623046875" xlink:href="#BitstreamVeraSans-Roman-2e"/>
       <use x="95.41015625" xlink:href="#BitstreamVeraSans-Roman-37"/>
      </g>
     </g>
    </g>
    <g id="xtick_23">
     <g id="line2d_74">
      <g>
       <use style="stroke:#000000;stroke-width:0.5;" x="258.6796875" xlink:href="#m0c4b52f088" y="534.9390625"/>
      </g>
     </g>
     <g id="line2d_75">
      <g>
       <use style="stroke:#000000;stroke-width:0.5;" x="258.6796875" xlink:href="#m2320e022c1" y="294.6390625"/>
      </g>
     </g>
     <g id="text_42">
      <!-- 0.8 -->
      <g transform="translate(250.728125 546.5375)scale(0.1 -0.1)">
       <use xlink:href="#BitstreamVeraSans-Roman-30"/>
       <use x="63.623046875" xlink:href="#BitstreamVeraSans-Roman-2e"/>
       <use x="95.41015625" xlink:href="#BitstreamVeraSans-Roman-38"/>
      </g>
     </g>
    </g>
    <g id="text_43">
     <!-- B (T) -->
     <g transform="translate(142.4453125 561.215625)scale(0.1 -0.1)">
      <use xlink:href="#BitstreamVeraSans-Roman-42"/>
      <use x="68.603515625" xlink:href="#BitstreamVeraSans-Roman-20"/>
      <use x="100.390625" xlink:href="#BitstreamVeraSans-Roman-28"/>
      <use x="139.404296875" xlink:href="#BitstreamVeraSans-Roman-54"/>
      <use x="200.48828125" xlink:href="#BitstreamVeraSans-Roman-29"/>
     </g>
    </g>
   </g>
   <g id="matplotlib.axis_6">
    <g id="ytick_12">
     <g id="line2d_76">
      <g>
       <use style="stroke:#000000;stroke-width:0.5;" x="50.1609375" xlink:href="#m470260c4cd" y="534.9390625"/>
      </g>
     </g>
     <g id="line2d_77">
      <g>
       <use style="stroke:#000000;stroke-width:0.5;" x="258.6796875" xlink:href="#m78d2f05ff3" y="534.9390625"/>
      </g>
     </g>
     <g id="text_44">
      <!-- 0 -->
      <g transform="translate(39.7984375 537.6984375)scale(0.1 -0.1)">
       <use xlink:href="#BitstreamVeraSans-Roman-30"/>
      </g>
     </g>
    </g>
    <g id="ytick_13">
     <g id="line2d_78">
      <g>
       <use style="stroke:#000000;stroke-width:0.5;" x="50.1609375" xlink:href="#m470260c4cd" y="500.610491071"/>
      </g>
     </g>
     <g id="line2d_79">
      <g>
       <use style="stroke:#000000;stroke-width:0.5;" x="258.6796875" xlink:href="#m78d2f05ff3" y="500.610491071"/>
      </g>
     </g>
     <g id="text_45">
      <!-- 1 -->
      <g transform="translate(39.7984375 503.369866071)scale(0.1 -0.1)">
       <use xlink:href="#BitstreamVeraSans-Roman-31"/>
      </g>
     </g>
    </g>
    <g id="ytick_14">
     <g id="line2d_80">
      <g>
       <use style="stroke:#000000;stroke-width:0.5;" x="50.1609375" xlink:href="#m470260c4cd" y="466.281919643"/>
      </g>
     </g>
     <g id="line2d_81">
      <g>
       <use style="stroke:#000000;stroke-width:0.5;" x="258.6796875" xlink:href="#m78d2f05ff3" y="466.281919643"/>
      </g>
     </g>
     <g id="text_46">
      <!-- 2 -->
      <g transform="translate(39.7984375 469.041294643)scale(0.1 -0.1)">
       <use xlink:href="#BitstreamVeraSans-Roman-32"/>
      </g>
     </g>
    </g>
    <g id="ytick_15">
     <g id="line2d_82">
      <g>
       <use style="stroke:#000000;stroke-width:0.5;" x="50.1609375" xlink:href="#m470260c4cd" y="431.953348214"/>
      </g>
     </g>
     <g id="line2d_83">
      <g>
       <use style="stroke:#000000;stroke-width:0.5;" x="258.6796875" xlink:href="#m78d2f05ff3" y="431.953348214"/>
      </g>
     </g>
     <g id="text_47">
      <!-- 3 -->
      <g transform="translate(39.7984375 434.712723214)scale(0.1 -0.1)">
       <use xlink:href="#BitstreamVeraSans-Roman-33"/>
      </g>
     </g>
    </g>
    <g id="ytick_16">
     <g id="line2d_84">
      <g>
       <use style="stroke:#000000;stroke-width:0.5;" x="50.1609375" xlink:href="#m470260c4cd" y="397.624776786"/>
      </g>
     </g>
     <g id="line2d_85">
      <g>
       <use style="stroke:#000000;stroke-width:0.5;" x="258.6796875" xlink:href="#m78d2f05ff3" y="397.624776786"/>
      </g>
     </g>
     <g id="text_48">
      <!-- 4 -->
      <g transform="translate(39.7984375 400.384151786)scale(0.1 -0.1)">
       <use xlink:href="#BitstreamVeraSans-Roman-34"/>
      </g>
     </g>
    </g>
    <g id="ytick_17">
     <g id="line2d_86">
      <g>
       <use style="stroke:#000000;stroke-width:0.5;" x="50.1609375" xlink:href="#m470260c4cd" y="363.296205357"/>
      </g>
     </g>
     <g id="line2d_87">
      <g>
       <use style="stroke:#000000;stroke-width:0.5;" x="258.6796875" xlink:href="#m78d2f05ff3" y="363.296205357"/>
      </g>
     </g>
     <g id="text_49">
      <!-- 5 -->
      <g transform="translate(39.7984375 366.055580357)scale(0.1 -0.1)">
       <use xlink:href="#BitstreamVeraSans-Roman-35"/>
      </g>
     </g>
    </g>
    <g id="ytick_18">
     <g id="line2d_88">
      <g>
       <use style="stroke:#000000;stroke-width:0.5;" x="50.1609375" xlink:href="#m470260c4cd" y="328.967633929"/>
      </g>
     </g>
     <g id="line2d_89">
      <g>
       <use style="stroke:#000000;stroke-width:0.5;" x="258.6796875" xlink:href="#m78d2f05ff3" y="328.967633929"/>
      </g>
     </g>
     <g id="text_50">
      <!-- 6 -->
      <g transform="translate(39.7984375 331.727008929)scale(0.1 -0.1)">
       <use xlink:href="#BitstreamVeraSans-Roman-36"/>
      </g>
     </g>
    </g>
    <g id="ytick_19">
     <g id="line2d_90">
      <g>
       <use style="stroke:#000000;stroke-width:0.5;" x="50.1609375" xlink:href="#m470260c4cd" y="294.6390625"/>
      </g>
     </g>
     <g id="line2d_91">
      <g>
       <use style="stroke:#000000;stroke-width:0.5;" x="258.6796875" xlink:href="#m78d2f05ff3" y="294.6390625"/>
      </g>
     </g>
     <g id="text_51">
      <!-- 7 -->
      <g transform="translate(39.7984375 297.3984375)scale(0.1 -0.1)">
       <use xlink:href="#BitstreamVeraSans-Roman-37"/>
      </g>
     </g>
    </g>
    <g id="text_52">
     <!-- d (Delta M)/dB -->
     <defs>
      <path d="M 45.40625 46.390625 
L 45.40625 75.984375 
L 54.390625 75.984375 
L 54.390625 0 
L 45.40625 0 
L 45.40625 8.203125 
Q 42.578125 3.328125 38.25 0.953125 
Q 33.9375 -1.421875 27.875 -1.421875 
Q 17.96875 -1.421875 11.734375 6.484375 
Q 5.515625 14.40625 5.515625 27.296875 
Q 5.515625 40.1875 11.734375 48.09375 
Q 17.96875 56 27.875 56 
Q 33.9375 56 38.25 53.625 
Q 42.578125 51.265625 45.40625 46.390625 
M 14.796875 27.296875 
Q 14.796875 17.390625 18.875 11.75 
Q 22.953125 6.109375 30.078125 6.109375 
Q 37.203125 6.109375 41.296875 11.75 
Q 45.40625 17.390625 45.40625 27.296875 
Q 45.40625 37.203125 41.296875 42.84375 
Q 37.203125 48.484375 30.078125 48.484375 
Q 22.953125 48.484375 18.875 42.84375 
Q 14.796875 37.203125 14.796875 27.296875 
" id="BitstreamVeraSans-Roman-64"/>
     </defs>
     <g transform="translate(32.71875 450.9859375)rotate(-90.0)scale(0.1 -0.1)">
      <use xlink:href="#BitstreamVeraSans-Roman-64"/>
      <use x="63.4765625" xlink:href="#BitstreamVeraSans-Roman-20"/>
      <use x="95.263671875" xlink:href="#BitstreamVeraSans-Roman-28"/>
      <use x="134.27734375" xlink:href="#BitstreamVeraSans-Roman-44"/>
      <use x="211.279296875" xlink:href="#BitstreamVeraSans-Roman-65"/>
      <use x="272.802734375" xlink:href="#BitstreamVeraSans-Roman-6c"/>
      <use x="300.5859375" xlink:href="#BitstreamVeraSans-Roman-74"/>
      <use x="339.794921875" xlink:href="#BitstreamVeraSans-Roman-61"/>
      <use x="401.07421875" xlink:href="#BitstreamVeraSans-Roman-20"/>
      <use x="432.861328125" xlink:href="#BitstreamVeraSans-Roman-4d"/>
      <use x="519.140625" xlink:href="#BitstreamVeraSans-Roman-29"/>
      <use x="558.154296875" xlink:href="#BitstreamVeraSans-Roman-2f"/>
      <use x="591.845703125" xlink:href="#BitstreamVeraSans-Roman-64"/>
      <use x="655.322265625" xlink:href="#BitstreamVeraSans-Roman-42"/>
     </g>
    </g>
   </g>
  </g>
  <g id="axes_4">
   <g id="patch_17">
    <path d="M 345.473437 534.939062 
L 553.992187 534.939062 
L 553.992187 294.639062 
L 345.473437 294.639062 
z
" style="fill:#ffffff;"/>
   </g>
   <g id="line2d_92">
    <path clip-path="url(#p394d32b83b)" d="M 527.927344 313.367444 
L 525.190535 316.746662 
L 522.336435 321.522625 
L 519.586594 327.980687 
L 516.836753 336.916844 
L 514.073879 348.256 
L 511.232811 362.1934 
L 508.48297 376.866719 
L 505.733129 392.11075 
L 502.879029 407.655156 
L 500.116155 421.847875 
L 497.379347 434.764 
L 494.538279 446.598775 
L 491.775405 456.421037 
L 489.038597 464.8015 
L 486.275723 472.040537 
L 483.408591 478.288337 
L 480.671782 483.274562 
L 477.934973 487.434756 
L 475.067841 491.054275 
L 472.331032 493.982931 
L 469.568159 496.491062 
L 466.83135 498.518594 
L 463.964217 500.320844 
L 461.227409 501.942869 
L 458.464535 503.174406 
L 455.623467 504.345869 
L 452.860594 505.246994 
L 450.123785 506.103062 
L 447.282717 506.748869 
L 444.519844 507.424712 
L 441.783035 507.93535 
L 439.020162 508.355875 
L 436.179094 508.731344 
L 433.41622 509.151869 
L 430.653347 509.37715 
L 427.838344 509.677525 
L 425.07547 509.9779 
L 422.312597 510.158125 
L 419.575788 510.278275 
L 416.708655 510.57865 
L 413.971847 510.683781 
L 411.208973 510.758875 
L 408.367905 510.803931 
L 405.605032 510.984156 
L 402.868223 510.954119 
L 400.10535 511.05925 
L 397.264282 511.164381 
L 394.527473 511.134344 
L 391.790665 511.164381 
L 388.923532 511.209437 
L 386.160659 511.254494 
L 383.42385 511.314569 
L 380.556717 511.284531 
L 377.819909 511.359625 
L 375.057035 511.359625 
L 372.346291 511.434719 
L 369.479159 511.389662 
L 366.716285 511.434719 
L 363.979477 511.434719 
" style="fill:none;stroke:#0000ff;stroke-linecap:square;"/>
   </g>
   <g id="line2d_93">
    <path clip-path="url(#p394d32b83b)" d="M 345.473437 414.789062 
L 553.992187 414.789062 
" style="fill:none;stroke:#000000;stroke-linecap:square;"/>
   </g>
   <g id="line2d_94">
    <path clip-path="url(#p394d32b83b)" d="M 527.927344 534.939062 
L 527.927344 294.639062 
" style="fill:none;stroke:#000000;stroke-linecap:square;"/>
   </g>
   <g id="patch_18">
    <path d="M 345.473437 294.639062 
L 553.992187 294.639062 
" style="fill:none;stroke:#000000;stroke-linecap:square;stroke-linejoin:miter;"/>
   </g>
   <g id="patch_19">
    <path d="M 553.992187 534.939062 
L 553.992187 294.639062 
" style="fill:none;stroke:#000000;stroke-linecap:square;stroke-linejoin:miter;"/>
   </g>
   <g id="patch_20">
    <path d="M 345.473437 534.939062 
L 553.992187 534.939062 
" style="fill:none;stroke:#000000;stroke-linecap:square;stroke-linejoin:miter;"/>
   </g>
   <g id="patch_21">
    <path d="M 345.473437 534.939062 
L 345.473437 294.639062 
" style="fill:none;stroke:#000000;stroke-linecap:square;stroke-linejoin:miter;"/>
   </g>
   <g id="matplotlib.axis_7">
    <g id="xtick_24">
     <g id="line2d_95">
      <g>
       <use style="stroke:#000000;stroke-width:0.5;" x="345.4734375" xlink:href="#m0c4b52f088" y="534.9390625"/>
      </g>
     </g>
     <g id="line2d_96">
      <g>
       <use style="stroke:#000000;stroke-width:0.5;" x="345.4734375" xlink:href="#m2320e022c1" y="294.6390625"/>
      </g>
     </g>
     <g id="text_53">
      <!-- −0.7 -->
      <g transform="translate(333.33203125 546.5375)scale(0.1 -0.1)">
       <use xlink:href="#BitstreamVeraSans-Roman-2212"/>
       <use x="83.7890625" xlink:href="#BitstreamVeraSans-Roman-30"/>
       <use x="147.412109375" xlink:href="#BitstreamVeraSans-Roman-2e"/>
       <use x="179.19921875" xlink:href="#BitstreamVeraSans-Roman-37"/>
      </g>
     </g>
    </g>
    <g id="xtick_25">
     <g id="line2d_97">
      <g>
       <use style="stroke:#000000;stroke-width:0.5;" x="371.53828125" xlink:href="#m0c4b52f088" y="534.9390625"/>
      </g>
     </g>
     <g id="line2d_98">
      <g>
       <use style="stroke:#000000;stroke-width:0.5;" x="371.53828125" xlink:href="#m2320e022c1" y="294.6390625"/>
      </g>
     </g>
     <g id="text_54">
      <!-- −0.6 -->
      <g transform="translate(359.396875 546.5375)scale(0.1 -0.1)">
       <use xlink:href="#BitstreamVeraSans-Roman-2212"/>
       <use x="83.7890625" xlink:href="#BitstreamVeraSans-Roman-30"/>
       <use x="147.412109375" xlink:href="#BitstreamVeraSans-Roman-2e"/>
       <use x="179.19921875" xlink:href="#BitstreamVeraSans-Roman-36"/>
      </g>
     </g>
    </g>
    <g id="xtick_26">
     <g id="line2d_99">
      <g>
       <use style="stroke:#000000;stroke-width:0.5;" x="397.603125" xlink:href="#m0c4b52f088" y="534.9390625"/>
      </g>
     </g>
     <g id="line2d_100">
      <g>
       <use style="stroke:#000000;stroke-width:0.5;" x="397.603125" xlink:href="#m2320e022c1" y="294.6390625"/>
      </g>
     </g>
     <g id="text_55">
      <!-- −0.5 -->
      <g transform="translate(385.46171875 546.5375)scale(0.1 -0.1)">
       <use xlink:href="#BitstreamVeraSans-Roman-2212"/>
       <use x="83.7890625" xlink:href="#BitstreamVeraSans-Roman-30"/>
       <use x="147.412109375" xlink:href="#BitstreamVeraSans-Roman-2e"/>
       <use x="179.19921875" xlink:href="#BitstreamVeraSans-Roman-35"/>
      </g>
     </g>
    </g>
    <g id="xtick_27">
     <g id="line2d_101">
      <g>
       <use style="stroke:#000000;stroke-width:0.5;" x="423.66796875" xlink:href="#m0c4b52f088" y="534.9390625"/>
      </g>
     </g>
     <g id="line2d_102">
      <g>
       <use style="stroke:#000000;stroke-width:0.5;" x="423.66796875" xlink:href="#m2320e022c1" y="294.6390625"/>
      </g>
     </g>
     <g id="text_56">
      <!-- −0.4 -->
      <g transform="translate(411.5265625 546.5375)scale(0.1 -0.1)">
       <use xlink:href="#BitstreamVeraSans-Roman-2212"/>
       <use x="83.7890625" xlink:href="#BitstreamVeraSans-Roman-30"/>
       <use x="147.412109375" xlink:href="#BitstreamVeraSans-Roman-2e"/>
       <use x="179.19921875" xlink:href="#BitstreamVeraSans-Roman-34"/>
      </g>
     </g>
    </g>
    <g id="xtick_28">
     <g id="line2d_103">
      <g>
       <use style="stroke:#000000;stroke-width:0.5;" x="449.7328125" xlink:href="#m0c4b52f088" y="534.9390625"/>
      </g>
     </g>
     <g id="line2d_104">
      <g>
       <use style="stroke:#000000;stroke-width:0.5;" x="449.7328125" xlink:href="#m2320e022c1" y="294.6390625"/>
      </g>
     </g>
     <g id="text_57">
      <!-- −0.3 -->
      <g transform="translate(437.59140625 546.5375)scale(0.1 -0.1)">
       <use xlink:href="#BitstreamVeraSans-Roman-2212"/>
       <use x="83.7890625" xlink:href="#BitstreamVeraSans-Roman-30"/>
       <use x="147.412109375" xlink:href="#BitstreamVeraSans-Roman-2e"/>
       <use x="179.19921875" xlink:href="#BitstreamVeraSans-Roman-33"/>
      </g>
     </g>
    </g>
    <g id="xtick_29">
     <g id="line2d_105">
      <g>
       <use style="stroke:#000000;stroke-width:0.5;" x="475.79765625" xlink:href="#m0c4b52f088" y="534.9390625"/>
      </g>
     </g>
     <g id="line2d_106">
      <g>
       <use style="stroke:#000000;stroke-width:0.5;" x="475.79765625" xlink:href="#m2320e022c1" y="294.6390625"/>
      </g>
     </g>
     <g id="text_58">
      <!-- −0.2 -->
      <g transform="translate(463.65625 546.5375)scale(0.1 -0.1)">
       <use xlink:href="#BitstreamVeraSans-Roman-2212"/>
       <use x="83.7890625" xlink:href="#BitstreamVeraSans-Roman-30"/>
       <use x="147.412109375" xlink:href="#BitstreamVeraSans-Roman-2e"/>
       <use x="179.19921875" xlink:href="#BitstreamVeraSans-Roman-32"/>
      </g>
     </g>
    </g>
    <g id="xtick_30">
     <g id="line2d_107">
      <g>
       <use style="stroke:#000000;stroke-width:0.5;" x="501.8625" xlink:href="#m0c4b52f088" y="534.9390625"/>
      </g>
     </g>
     <g id="line2d_108">
      <g>
       <use style="stroke:#000000;stroke-width:0.5;" x="501.8625" xlink:href="#m2320e022c1" y="294.6390625"/>
      </g>
     </g>
     <g id="text_59">
      <!-- −0.1 -->
      <g transform="translate(489.72109375 546.5375)scale(0.1 -0.1)">
       <use xlink:href="#BitstreamVeraSans-Roman-2212"/>
       <use x="83.7890625" xlink:href="#BitstreamVeraSans-Roman-30"/>
       <use x="147.412109375" xlink:href="#BitstreamVeraSans-Roman-2e"/>
       <use x="179.19921875" xlink:href="#BitstreamVeraSans-Roman-31"/>
      </g>
     </g>
    </g>
    <g id="xtick_31">
     <g id="line2d_109">
      <g>
       <use style="stroke:#000000;stroke-width:0.5;" x="527.92734375" xlink:href="#m0c4b52f088" y="534.9390625"/>
      </g>
     </g>
     <g id="line2d_110">
      <g>
       <use style="stroke:#000000;stroke-width:0.5;" x="527.92734375" xlink:href="#m2320e022c1" y="294.6390625"/>
      </g>
     </g>
     <g id="text_60">
      <!-- 0.0 -->
      <g transform="translate(519.97578125 546.5375)scale(0.1 -0.1)">
       <use xlink:href="#BitstreamVeraSans-Roman-30"/>
       <use x="63.623046875" xlink:href="#BitstreamVeraSans-Roman-2e"/>
       <use x="95.41015625" xlink:href="#BitstreamVeraSans-Roman-30"/>
      </g>
     </g>
    </g>
    <g id="xtick_32">
     <g id="line2d_111">
      <g>
       <use style="stroke:#000000;stroke-width:0.5;" x="553.9921875" xlink:href="#m0c4b52f088" y="534.9390625"/>
      </g>
     </g>
     <g id="line2d_112">
      <g>
       <use style="stroke:#000000;stroke-width:0.5;" x="553.9921875" xlink:href="#m2320e022c1" y="294.6390625"/>
      </g>
     </g>
     <g id="text_61">
      <!-- 0.1 -->
      <g transform="translate(546.040625 546.5375)scale(0.1 -0.1)">
       <use xlink:href="#BitstreamVeraSans-Roman-30"/>
       <use x="63.623046875" xlink:href="#BitstreamVeraSans-Roman-2e"/>
       <use x="95.41015625" xlink:href="#BitstreamVeraSans-Roman-31"/>
      </g>
     </g>
    </g>
    <g id="text_62">
     <!-- B (T) -->
     <g transform="translate(437.7578125 561.215625)scale(0.1 -0.1)">
      <use xlink:href="#BitstreamVeraSans-Roman-42"/>
      <use x="68.603515625" xlink:href="#BitstreamVeraSans-Roman-20"/>
      <use x="100.390625" xlink:href="#BitstreamVeraSans-Roman-28"/>
      <use x="139.404296875" xlink:href="#BitstreamVeraSans-Roman-54"/>
      <use x="200.48828125" xlink:href="#BitstreamVeraSans-Roman-29"/>
     </g>
    </g>
   </g>
   <g id="matplotlib.axis_8">
    <g id="ytick_20">
     <g id="line2d_113">
      <g>
       <use style="stroke:#000000;stroke-width:0.5;" x="345.4734375" xlink:href="#m470260c4cd" y="534.9390625"/>
      </g>
     </g>
     <g id="line2d_114">
      <g>
       <use style="stroke:#000000;stroke-width:0.5;" x="553.9921875" xlink:href="#m78d2f05ff3" y="534.9390625"/>
      </g>
     </g>
     <g id="text_63">
      <!-- -8.00e-06 -->
      <g transform="translate(293.1140625 537.6984375)scale(0.1 -0.1)">
       <use xlink:href="#BitstreamVeraSans-Roman-2d"/>
       <use x="36.083984375" xlink:href="#BitstreamVeraSans-Roman-38"/>
       <use x="99.70703125" xlink:href="#BitstreamVeraSans-Roman-2e"/>
       <use x="131.494140625" xlink:href="#BitstreamVeraSans-Roman-30"/>
       <use x="195.1171875" xlink:href="#BitstreamVeraSans-Roman-30"/>
       <use x="258.740234375" xlink:href="#BitstreamVeraSans-Roman-65"/>
       <use x="320.263671875" xlink:href="#BitstreamVeraSans-Roman-2d"/>
       <use x="356.34765625" xlink:href="#BitstreamVeraSans-Roman-30"/>
       <use x="419.970703125" xlink:href="#BitstreamVeraSans-Roman-36"/>
      </g>
     </g>
    </g>
    <g id="ytick_21">
     <g id="line2d_115">
      <g>
       <use style="stroke:#000000;stroke-width:0.5;" x="345.4734375" xlink:href="#m470260c4cd" y="504.9015625"/>
      </g>
     </g>
     <g id="line2d_116">
      <g>
       <use style="stroke:#000000;stroke-width:0.5;" x="553.9921875" xlink:href="#m78d2f05ff3" y="504.9015625"/>
      </g>
     </g>
     <g id="text_64">
      <!-- -6.00e-06 -->
      <g transform="translate(293.1140625 507.6609375)scale(0.1 -0.1)">
       <use xlink:href="#BitstreamVeraSans-Roman-2d"/>
       <use x="36.083984375" xlink:href="#BitstreamVeraSans-Roman-36"/>
       <use x="99.70703125" xlink:href="#BitstreamVeraSans-Roman-2e"/>
       <use x="131.494140625" xlink:href="#BitstreamVeraSans-Roman-30"/>
       <use x="195.1171875" xlink:href="#BitstreamVeraSans-Roman-30"/>
       <use x="258.740234375" xlink:href="#BitstreamVeraSans-Roman-65"/>
       <use x="320.263671875" xlink:href="#BitstreamVeraSans-Roman-2d"/>
       <use x="356.34765625" xlink:href="#BitstreamVeraSans-Roman-30"/>
       <use x="419.970703125" xlink:href="#BitstreamVeraSans-Roman-36"/>
      </g>
     </g>
    </g>
    <g id="ytick_22">
     <g id="line2d_117">
      <g>
       <use style="stroke:#000000;stroke-width:0.5;" x="345.4734375" xlink:href="#m470260c4cd" y="474.8640625"/>
      </g>
     </g>
     <g id="line2d_118">
      <g>
       <use style="stroke:#000000;stroke-width:0.5;" x="553.9921875" xlink:href="#m78d2f05ff3" y="474.8640625"/>
      </g>
     </g>
     <g id="text_65">
      <!-- -4.00e-06 -->
      <g transform="translate(293.1140625 477.6234375)scale(0.1 -0.1)">
       <use xlink:href="#BitstreamVeraSans-Roman-2d"/>
       <use x="36.083984375" xlink:href="#BitstreamVeraSans-Roman-34"/>
       <use x="99.70703125" xlink:href="#BitstreamVeraSans-Roman-2e"/>
       <use x="131.494140625" xlink:href="#BitstreamVeraSans-Roman-30"/>
       <use x="195.1171875" xlink:href="#BitstreamVeraSans-Roman-30"/>
       <use x="258.740234375" xlink:href="#BitstreamVeraSans-Roman-65"/>
       <use x="320.263671875" xlink:href="#BitstreamVeraSans-Roman-2d"/>
       <use x="356.34765625" xlink:href="#BitstreamVeraSans-Roman-30"/>
       <use x="419.970703125" xlink:href="#BitstreamVeraSans-Roman-36"/>
      </g>
     </g>
    </g>
    <g id="ytick_23">
     <g id="line2d_119">
      <g>
       <use style="stroke:#000000;stroke-width:0.5;" x="345.4734375" xlink:href="#m470260c4cd" y="444.8265625"/>
      </g>
     </g>
     <g id="line2d_120">
      <g>
       <use style="stroke:#000000;stroke-width:0.5;" x="553.9921875" xlink:href="#m78d2f05ff3" y="444.8265625"/>
      </g>
     </g>
     <g id="text_66">
      <!-- -2.00e-06 -->
      <g transform="translate(293.1140625 447.5859375)scale(0.1 -0.1)">
       <use xlink:href="#BitstreamVeraSans-Roman-2d"/>
       <use x="36.083984375" xlink:href="#BitstreamVeraSans-Roman-32"/>
       <use x="99.70703125" xlink:href="#BitstreamVeraSans-Roman-2e"/>
       <use x="131.494140625" xlink:href="#BitstreamVeraSans-Roman-30"/>
       <use x="195.1171875" xlink:href="#BitstreamVeraSans-Roman-30"/>
       <use x="258.740234375" xlink:href="#BitstreamVeraSans-Roman-65"/>
       <use x="320.263671875" xlink:href="#BitstreamVeraSans-Roman-2d"/>
       <use x="356.34765625" xlink:href="#BitstreamVeraSans-Roman-30"/>
       <use x="419.970703125" xlink:href="#BitstreamVeraSans-Roman-36"/>
      </g>
     </g>
    </g>
    <g id="ytick_24">
     <g id="line2d_121">
      <g>
       <use style="stroke:#000000;stroke-width:0.5;" x="345.4734375" xlink:href="#m470260c4cd" y="414.7890625"/>
      </g>
     </g>
     <g id="line2d_122">
      <g>
       <use style="stroke:#000000;stroke-width:0.5;" x="553.9921875" xlink:href="#m78d2f05ff3" y="414.7890625"/>
      </g>
     </g>
     <g id="text_67">
      <!-- 0.00e+00 -->
      <defs>
       <path d="M 46 62.703125 
L 46 35.5 
L 73.1875 35.5 
L 73.1875 27.203125 
L 46 27.203125 
L 46 0 
L 37.796875 0 
L 37.796875 27.203125 
L 10.59375 27.203125 
L 10.59375 35.5 
L 37.796875 35.5 
L 37.796875 62.703125 
z
" id="BitstreamVeraSans-Roman-2b"/>
      </defs>
      <g transform="translate(291.95 417.5484375)scale(0.1 -0.1)">
       <use xlink:href="#BitstreamVeraSans-Roman-30"/>
       <use x="63.623046875" xlink:href="#BitstreamVeraSans-Roman-2e"/>
       <use x="95.41015625" xlink:href="#BitstreamVeraSans-Roman-30"/>
       <use x="159.033203125" xlink:href="#BitstreamVeraSans-Roman-30"/>
       <use x="222.65625" xlink:href="#BitstreamVeraSans-Roman-65"/>
       <use x="284.1796875" xlink:href="#BitstreamVeraSans-Roman-2b"/>
       <use x="367.96875" xlink:href="#BitstreamVeraSans-Roman-30"/>
       <use x="431.591796875" xlink:href="#BitstreamVeraSans-Roman-30"/>
      </g>
     </g>
    </g>
    <g id="ytick_25">
     <g id="line2d_123">
      <g>
       <use style="stroke:#000000;stroke-width:0.5;" x="345.4734375" xlink:href="#m470260c4cd" y="384.7515625"/>
      </g>
     </g>
     <g id="line2d_124">
      <g>
       <use style="stroke:#000000;stroke-width:0.5;" x="553.9921875" xlink:href="#m78d2f05ff3" y="384.7515625"/>
      </g>
     </g>
     <g id="text_68">
      <!-- 2.00e-06 -->
      <g transform="translate(296.721875 387.5109375)scale(0.1 -0.1)">
       <use xlink:href="#BitstreamVeraSans-Roman-32"/>
       <use x="63.623046875" xlink:href="#BitstreamVeraSans-Roman-2e"/>
       <use x="95.41015625" xlink:href="#BitstreamVeraSans-Roman-30"/>
       <use x="159.033203125" xlink:href="#BitstreamVeraSans-Roman-30"/>
       <use x="222.65625" xlink:href="#BitstreamVeraSans-Roman-65"/>
       <use x="284.1796875" xlink:href="#BitstreamVeraSans-Roman-2d"/>
       <use x="320.263671875" xlink:href="#BitstreamVeraSans-Roman-30"/>
       <use x="383.88671875" xlink:href="#BitstreamVeraSans-Roman-36"/>
      </g>
     </g>
    </g>
    <g id="ytick_26">
     <g id="line2d_125">
      <g>
       <use style="stroke:#000000;stroke-width:0.5;" x="345.4734375" xlink:href="#m470260c4cd" y="354.7140625"/>
      </g>
     </g>
     <g id="line2d_126">
      <g>
       <use style="stroke:#000000;stroke-width:0.5;" x="553.9921875" xlink:href="#m78d2f05ff3" y="354.7140625"/>
      </g>
     </g>
     <g id="text_69">
      <!-- 4.00e-06 -->
      <g transform="translate(296.721875 357.4734375)scale(0.1 -0.1)">
       <use xlink:href="#BitstreamVeraSans-Roman-34"/>
       <use x="63.623046875" xlink:href="#BitstreamVeraSans-Roman-2e"/>
       <use x="95.41015625" xlink:href="#BitstreamVeraSans-Roman-30"/>
       <use x="159.033203125" xlink:href="#BitstreamVeraSans-Roman-30"/>
       <use x="222.65625" xlink:href="#BitstreamVeraSans-Roman-65"/>
       <use x="284.1796875" xlink:href="#BitstreamVeraSans-Roman-2d"/>
       <use x="320.263671875" xlink:href="#BitstreamVeraSans-Roman-30"/>
       <use x="383.88671875" xlink:href="#BitstreamVeraSans-Roman-36"/>
      </g>
     </g>
    </g>
    <g id="ytick_27">
     <g id="line2d_127">
      <g>
       <use style="stroke:#000000;stroke-width:0.5;" x="345.4734375" xlink:href="#m470260c4cd" y="324.6765625"/>
      </g>
     </g>
     <g id="line2d_128">
      <g>
       <use style="stroke:#000000;stroke-width:0.5;" x="553.9921875" xlink:href="#m78d2f05ff3" y="324.6765625"/>
      </g>
     </g>
     <g id="text_70">
      <!-- 6.00e-06 -->
      <g transform="translate(296.721875 327.4359375)scale(0.1 -0.1)">
       <use xlink:href="#BitstreamVeraSans-Roman-36"/>
       <use x="63.623046875" xlink:href="#BitstreamVeraSans-Roman-2e"/>
       <use x="95.41015625" xlink:href="#BitstreamVeraSans-Roman-30"/>
       <use x="159.033203125" xlink:href="#BitstreamVeraSans-Roman-30"/>
       <use x="222.65625" xlink:href="#BitstreamVeraSans-Roman-65"/>
       <use x="284.1796875" xlink:href="#BitstreamVeraSans-Roman-2d"/>
       <use x="320.263671875" xlink:href="#BitstreamVeraSans-Roman-30"/>
       <use x="383.88671875" xlink:href="#BitstreamVeraSans-Roman-36"/>
      </g>
     </g>
    </g>
    <g id="ytick_28">
     <g id="line2d_129">
      <g>
       <use style="stroke:#000000;stroke-width:0.5;" x="345.4734375" xlink:href="#m470260c4cd" y="294.6390625"/>
      </g>
     </g>
     <g id="line2d_130">
      <g>
       <use style="stroke:#000000;stroke-width:0.5;" x="553.9921875" xlink:href="#m78d2f05ff3" y="294.6390625"/>
      </g>
     </g>
     <g id="text_71">
      <!-- 8.00e-06 -->
      <g transform="translate(296.721875 297.3984375)scale(0.1 -0.1)">
       <use xlink:href="#BitstreamVeraSans-Roman-38"/>
       <use x="63.623046875" xlink:href="#BitstreamVeraSans-Roman-2e"/>
       <use x="95.41015625" xlink:href="#BitstreamVeraSans-Roman-30"/>
       <use x="159.033203125" xlink:href="#BitstreamVeraSans-Roman-30"/>
       <use x="222.65625" xlink:href="#BitstreamVeraSans-Roman-65"/>
       <use x="284.1796875" xlink:href="#BitstreamVeraSans-Roman-2d"/>
       <use x="320.263671875" xlink:href="#BitstreamVeraSans-Roman-30"/>
       <use x="383.88671875" xlink:href="#BitstreamVeraSans-Roman-36"/>
      </g>
     </g>
    </g>
    <g id="text_72">
     <!-- M/Mr -->
     <g transform="translate(284.8703125 427.15703125)rotate(-90.0)scale(0.1 -0.1)">
      <use xlink:href="#BitstreamVeraSans-Roman-4d"/>
      <use x="86.279296875" xlink:href="#BitstreamVeraSans-Roman-2f"/>
      <use x="119.970703125" xlink:href="#BitstreamVeraSans-Roman-4d"/>
      <use x="206.25" xlink:href="#BitstreamVeraSans-Roman-72"/>
     </g>
    </g>
   </g>
  </g>
 </g>
 <defs>
  <clipPath id="p394d32b83b">
   <rect height="240.3" width="208.51875" x="345.4734375" y="294.6390625"/>
  </clipPath>
  <clipPath id="p43a2aad69d">
   <rect height="240.3" width="208.51875" x="50.1609375" y="12.0390625"/>
  </clipPath>
  <clipPath id="pb0c6009118">
   <rect height="240.3" width="208.51875" x="345.4734375" y="12.0390625"/>
  </clipPath>
  <clipPath id="p95d5b9debd">
   <rect height="240.3" width="208.51875" x="50.1609375" y="294.6390625"/>
  </clipPath>
 </defs>
</svg>
