<?xml version="1.0" encoding="utf-8" standalone="no"?>
<!DOCTYPE svg PUBLIC "-//W3C//DTD SVG 1.1//EN"
  "http://www.w3.org/Graphics/SVG/1.1/DTD/svg11.dtd">
<!-- Created with matplotlib (http://matplotlib.org/) -->
<svg height="570pt" version="1.1" viewBox="0 0 569 570" width="569pt" xmlns="http://www.w3.org/2000/svg" xmlns:xlink="http://www.w3.org/1999/xlink">
 <defs>
  <style type="text/css">
*{stroke-linecap:butt;stroke-linejoin:round;stroke-miterlimit:100000;}
  </style>
 </defs>
 <g id="figure_1">
  <g id="patch_1">
   <path d="M 0 570.495312 
L 569.11875 570.495312 
L 569.11875 0 
L 0 0 
L 0 570.495312 
z
" style="fill:none;"/>
  </g>
  <g id="axes_1">
   <g id="patch_2">
    <path d="M 50.160938 252.339062 
L 257.076562 252.339062 
L 257.076562 12.039062 
L 50.160938 12.039062 
z
" style="fill:#ffffff;"/>
   </g>
   <g id="line2d_1">
    <path clip-path="url(#p15c43c9f45)" d="M 50.160938 132.189062 
L 257.076562 132.189062 
" style="fill:none;stroke:#000000;stroke-linecap:square;"/>
   </g>
   <g id="line2d_2">
    <path clip-path="url(#p15c43c9f45)" d="M 153.61875 252.339062 
L 153.61875 12.039062 
" style="fill:none;stroke:#000000;stroke-linecap:square;"/>
   </g>
   <g id="line2d_3">
    <path clip-path="url(#p15c43c9f45)" d="M 163.756298 -1 
L 160.840105 22.880186 
L 157.529455 51.899604 
L 155.051641 75.446378 
L 153.396316 92.296363 
L 150.913328 120.379671 
L 147.602678 162.252604 
L 141.824559 237.105422 
L 139.331226 266.484883 
L 136.848239 293.20003 
L 134.365251 317.250863 
L 131.882264 339.21345 
L 129.399276 359.447834 
L 126.088626 384.29076 
L 122.777976 407.477492 
L 119.477672 429.584096 
L 114.511697 461.339837 
L 109.545722 491.871434 
L 103.752084 526.507514 
L 96.042823 571.495312 
M 96.24723 571.495312 
L 104.186607 525.283369 
L 110.818253 485.894729 
L 116.61189 450.538564 
L 124.050507 403.301 
L 129.844145 364.776462 
L 134.81012 330.140381 
L 139.776095 293.488064 
L 143.914407 260.796213 
L 147.219884 232.856921 
L 149.708045 210.462283 
L 152.191032 186.483458 
L 154.668847 159.948333 
L 157.151834 130.172825 
L 162.117809 65.365191 
L 165.423286 23.312237 
L 167.486947 -1 
L 167.486947 -1 
" style="fill:none;stroke:#ff0000;stroke-linecap:square;"/>
   </g>
   <g id="line2d_4">
    <path clip-path="url(#p15c43c9f45)" d="M 236.084972 13.611279 
L 233.612331 13.22493 
L 231.139689 13.126615 
L 227.839385 12.880228 
L 227.022068 12.93404 
L 226.194405 12.785968 
L 215.434793 12.805267 
L 209.63081 13.367096 
L 206.330505 13.984811 
L 199.709205 15.752587 
L 198.064226 16.378411 
L 193.925914 18.158351 
L 187.31496 22.216255 
L 185.659635 23.43229 
L 181.521322 27.08445 
L 178.221018 30.654513 
L 176.565693 32.662642 
L 174.910368 34.742778 
L 172.42738 38.331039 
L 169.944393 42.35135 
L 167.461405 47.019738 
L 165.80608 50.468036 
L 164.150755 54.204368 
L 162.49543 58.228734 
L 160.017616 65.230326 
L 157.529455 73.326188 
L 155.87413 79.618821 
L 154.223978 86.696476 
L 152.573826 95.106288 
L 150.913328 104.934408 
L 148.435514 122.233213 
L 140.986551 176.41911 
L 139.331226 186.492188 
L 137.675901 195.341122 
L 136.020576 203.037921 
L 134.365251 209.582584 
L 132.709926 215.263145 
L 131.054601 220.007596 
L 129.399276 224.10397 
L 127.754297 227.610134 
L 125.260964 231.860613 
L 123.605639 234.228784 
L 120.305334 238.086881 
L 117.822347 240.523006 
L 114.511697 243.027085 
L 112.856372 244.099103 
L 111.201047 245.027104 
L 107.890397 246.667081 
L 107.062734 246.95106 
L 106.235072 247.379056 
L 101.269097 249.010924 
L 96.303122 250.210741 
L 92.992472 250.842599 
L 92.175155 251.040427 
L 89.692168 251.316298 
L 86.381518 251.804139 
L 76.459913 252.533435 
L 73.976926 252.593279 
L 70.893883 252.858646 
L 71.173219 253.141526 
L 71.98019 253.279192 
L 73.625169 253.296071 
L 74.452832 253.549468 
L 76.097811 253.422329 
L 77.74279 253.439207 
L 79.398115 253.441943 
L 80.225778 253.479314 
L 81.043095 253.386812 
L 82.69842 253.461556 
L 83.526082 253.354911 
L 84.353745 253.392283 
L 85.171061 253.299781 
L 85.998724 253.337152 
L 87.654049 253.195871 
L 91.792361 252.95068 
L 93.43734 252.679524 
L 96.758336 252.382818 
L 97.575653 252.146298 
L 100.05864 251.754355 
L 105.852278 250.431772 
L 106.669595 250.051235 
L 107.507603 249.930448 
L 112.473578 247.994425 
L 113.30124 247.527737 
L 114.128903 247.205067 
L 117.439553 245.266308 
L 119.094878 244.188916 
L 120.750203 242.967508 
L 123.222845 241.00552 
L 125.716178 238.87123 
L 129.844145 234.319673 
L 133.154795 230.004634 
L 134.81012 227.559081 
L 137.293107 223.422696 
L 138.131115 222.005756 
L 140.603757 217.019412 
L 142.259082 213.349715 
L 143.914407 209.319975 
L 145.569732 204.930193 
L 147.219884 199.93541 
L 148.880382 194.494434 
L 150.530534 188.38352 
L 152.191032 181.466369 
L 153.841184 173.375222 
L 155.496509 163.944846 
L 157.151834 153.002292 
L 160.462484 128.560883 
L 164.595624 98.0792 
L 167.078611 82.205432 
L 168.733936 73.063091 
L 170.389261 65.000876 
L 172.044586 58.162805 
L 173.699911 52.332854 
L 175.355236 47.367004 
L 177.010561 43.121238 
L 178.665886 39.595558 
L 179.483203 37.918869 
L 181.976536 33.912359 
L 183.631861 31.610823 
L 185.276841 29.611463 
L 187.759828 27.059265 
L 191.898141 23.789717 
L 192.725803 23.179013 
L 197.681432 20.393031 
L 202.647407 18.529017 
L 205.947712 17.61252 
L 209.258362 16.969914 
L 210.913687 16.684616 
L 212.569012 16.399317 
L 215.879662 16.044745 
L 224.176978 15.598085 
L 225.832303 15.600821 
L 229.96027 15.585798 
L 234.926245 15.738021 
L 236.385 15.649426 
L 236.385 15.649426 
" style="fill:none;stroke:#0000ff;stroke-linecap:square;"/>
   </g>
   <g id="patch_3">
    <path d="M 50.160937 12.039062 
L 257.076562 12.039062 
" style="fill:none;stroke:#000000;stroke-linecap:square;stroke-linejoin:miter;"/>
   </g>
   <g id="patch_4">
    <path d="M 257.076562 252.339062 
L 257.076562 12.039062 
" style="fill:none;stroke:#000000;stroke-linecap:square;stroke-linejoin:miter;"/>
   </g>
   <g id="patch_5">
    <path d="M 50.160937 252.339062 
L 257.076562 252.339062 
" style="fill:none;stroke:#000000;stroke-linecap:square;stroke-linejoin:miter;"/>
   </g>
   <g id="patch_6">
    <path d="M 50.160938 252.339062 
L 50.160938 12.039062 
" style="fill:none;stroke:#000000;stroke-linecap:square;stroke-linejoin:miter;"/>
   </g>
   <g id="matplotlib.axis_1">
    <g id="xtick_1">
     <g id="line2d_5">
      <defs>
       <path d="M 0 0 
L 0 -4 
" id="m53c26eacb0" style="stroke:#000000;stroke-width:0.5;"/>
      </defs>
      <g>
       <use style="stroke:#000000;stroke-width:0.5;" x="50.1609375" xlink:href="#m53c26eacb0" y="252.3390625"/>
      </g>
     </g>
     <g id="line2d_6">
      <defs>
       <path d="M 0 0 
L 0 4 
" id="ma6948d9d98" style="stroke:#000000;stroke-width:0.5;"/>
      </defs>
      <g>
       <use style="stroke:#000000;stroke-width:0.5;" x="50.1609375" xlink:href="#ma6948d9d98" y="12.0390625"/>
      </g>
     </g>
     <g id="text_1">
      <!-- −1.0 -->
      <defs>
       <path d="M 10.59375 35.5 
L 73.1875 35.5 
L 73.1875 27.203125 
L 10.59375 27.203125 
z
" id="BitstreamVeraSans-Roman-2212"/>
       <path d="M 31.78125 66.40625 
Q 24.171875 66.40625 20.328125 58.90625 
Q 16.5 51.421875 16.5 36.375 
Q 16.5 21.390625 20.328125 13.890625 
Q 24.171875 6.390625 31.78125 6.390625 
Q 39.453125 6.390625 43.28125 13.890625 
Q 47.125 21.390625 47.125 36.375 
Q 47.125 51.421875 43.28125 58.90625 
Q 39.453125 66.40625 31.78125 66.40625 
M 31.78125 74.21875 
Q 44.046875 74.21875 50.515625 64.515625 
Q 56.984375 54.828125 56.984375 36.375 
Q 56.984375 17.96875 50.515625 8.265625 
Q 44.046875 -1.421875 31.78125 -1.421875 
Q 19.53125 -1.421875 13.0625 8.265625 
Q 6.59375 17.96875 6.59375 36.375 
Q 6.59375 54.828125 13.0625 64.515625 
Q 19.53125 74.21875 31.78125 74.21875 
" id="BitstreamVeraSans-Roman-30"/>
       <path d="M 12.40625 8.296875 
L 28.515625 8.296875 
L 28.515625 63.921875 
L 10.984375 60.40625 
L 10.984375 69.390625 
L 28.421875 72.90625 
L 38.28125 72.90625 
L 38.28125 8.296875 
L 54.390625 8.296875 
L 54.390625 0 
L 12.40625 0 
z
" id="BitstreamVeraSans-Roman-31"/>
       <path d="M 10.6875 12.40625 
L 21 12.40625 
L 21 0 
L 10.6875 0 
z
" id="BitstreamVeraSans-Roman-2e"/>
      </defs>
      <g transform="translate(38.01953125 263.9375)scale(0.1 -0.1)">
       <use xlink:href="#BitstreamVeraSans-Roman-2212"/>
       <use x="83.7890625" xlink:href="#BitstreamVeraSans-Roman-31"/>
       <use x="147.412109375" xlink:href="#BitstreamVeraSans-Roman-2e"/>
       <use x="179.19921875" xlink:href="#BitstreamVeraSans-Roman-30"/>
      </g>
     </g>
    </g>
    <g id="xtick_2">
     <g id="line2d_7">
      <g>
       <use style="stroke:#000000;stroke-width:0.5;" x="101.88984375" xlink:href="#m53c26eacb0" y="252.3390625"/>
      </g>
     </g>
     <g id="line2d_8">
      <g>
       <use style="stroke:#000000;stroke-width:0.5;" x="101.88984375" xlink:href="#ma6948d9d98" y="12.0390625"/>
      </g>
     </g>
     <g id="text_2">
      <!-- −0.5 -->
      <defs>
       <path d="M 10.796875 72.90625 
L 49.515625 72.90625 
L 49.515625 64.59375 
L 19.828125 64.59375 
L 19.828125 46.734375 
Q 21.96875 47.46875 24.109375 47.828125 
Q 26.265625 48.1875 28.421875 48.1875 
Q 40.625 48.1875 47.75 41.5 
Q 54.890625 34.8125 54.890625 23.390625 
Q 54.890625 11.625 47.5625 5.09375 
Q 40.234375 -1.421875 26.90625 -1.421875 
Q 22.3125 -1.421875 17.546875 -0.640625 
Q 12.796875 0.140625 7.71875 1.703125 
L 7.71875 11.625 
Q 12.109375 9.234375 16.796875 8.0625 
Q 21.484375 6.890625 26.703125 6.890625 
Q 35.15625 6.890625 40.078125 11.328125 
Q 45.015625 15.765625 45.015625 23.390625 
Q 45.015625 31 40.078125 35.4375 
Q 35.15625 39.890625 26.703125 39.890625 
Q 22.75 39.890625 18.8125 39.015625 
Q 14.890625 38.140625 10.796875 36.28125 
z
" id="BitstreamVeraSans-Roman-35"/>
      </defs>
      <g transform="translate(89.7484375 263.9375)scale(0.1 -0.1)">
       <use xlink:href="#BitstreamVeraSans-Roman-2212"/>
       <use x="83.7890625" xlink:href="#BitstreamVeraSans-Roman-30"/>
       <use x="147.412109375" xlink:href="#BitstreamVeraSans-Roman-2e"/>
       <use x="179.19921875" xlink:href="#BitstreamVeraSans-Roman-35"/>
      </g>
     </g>
    </g>
    <g id="xtick_3">
     <g id="line2d_9">
      <g>
       <use style="stroke:#000000;stroke-width:0.5;" x="153.61875" xlink:href="#m53c26eacb0" y="252.3390625"/>
      </g>
     </g>
     <g id="line2d_10">
      <g>
       <use style="stroke:#000000;stroke-width:0.5;" x="153.61875" xlink:href="#ma6948d9d98" y="12.0390625"/>
      </g>
     </g>
     <g id="text_3">
      <!-- 0.0 -->
      <g transform="translate(145.6671875 263.9375)scale(0.1 -0.1)">
       <use xlink:href="#BitstreamVeraSans-Roman-30"/>
       <use x="63.623046875" xlink:href="#BitstreamVeraSans-Roman-2e"/>
       <use x="95.41015625" xlink:href="#BitstreamVeraSans-Roman-30"/>
      </g>
     </g>
    </g>
    <g id="xtick_4">
     <g id="line2d_11">
      <g>
       <use style="stroke:#000000;stroke-width:0.5;" x="205.34765625" xlink:href="#m53c26eacb0" y="252.3390625"/>
      </g>
     </g>
     <g id="line2d_12">
      <g>
       <use style="stroke:#000000;stroke-width:0.5;" x="205.34765625" xlink:href="#ma6948d9d98" y="12.0390625"/>
      </g>
     </g>
     <g id="text_4">
      <!-- 0.5 -->
      <g transform="translate(197.39609375 263.9375)scale(0.1 -0.1)">
       <use xlink:href="#BitstreamVeraSans-Roman-30"/>
       <use x="63.623046875" xlink:href="#BitstreamVeraSans-Roman-2e"/>
       <use x="95.41015625" xlink:href="#BitstreamVeraSans-Roman-35"/>
      </g>
     </g>
    </g>
    <g id="xtick_5">
     <g id="line2d_13">
      <g>
       <use style="stroke:#000000;stroke-width:0.5;" x="257.0765625" xlink:href="#m53c26eacb0" y="252.3390625"/>
      </g>
     </g>
     <g id="line2d_14">
      <g>
       <use style="stroke:#000000;stroke-width:0.5;" x="257.0765625" xlink:href="#ma6948d9d98" y="12.0390625"/>
      </g>
     </g>
     <g id="text_5">
      <!-- 1.0 -->
      <g transform="translate(249.125 263.9375)scale(0.1 -0.1)">
       <use xlink:href="#BitstreamVeraSans-Roman-31"/>
       <use x="63.623046875" xlink:href="#BitstreamVeraSans-Roman-2e"/>
       <use x="95.41015625" xlink:href="#BitstreamVeraSans-Roman-30"/>
      </g>
     </g>
    </g>
    <g id="text_6">
     <!-- B (T) -->
     <defs>
      <path d="M 8.015625 75.875 
L 15.828125 75.875 
Q 23.140625 64.359375 26.78125 53.3125 
Q 30.421875 42.28125 30.421875 31.390625 
Q 30.421875 20.453125 26.78125 9.375 
Q 23.140625 -1.703125 15.828125 -13.1875 
L 8.015625 -13.1875 
Q 14.5 -2 17.703125 9.0625 
Q 20.90625 20.125 20.90625 31.390625 
Q 20.90625 42.671875 17.703125 53.65625 
Q 14.5 64.65625 8.015625 75.875 
" id="BitstreamVeraSans-Roman-29"/>
      <path id="BitstreamVeraSans-Roman-20"/>
      <path d="M -0.296875 72.90625 
L 61.375 72.90625 
L 61.375 64.59375 
L 35.5 64.59375 
L 35.5 0 
L 25.59375 0 
L 25.59375 64.59375 
L -0.296875 64.59375 
z
" id="BitstreamVeraSans-Roman-54"/>
      <path d="M 19.671875 34.8125 
L 19.671875 8.109375 
L 35.5 8.109375 
Q 43.453125 8.109375 47.28125 11.40625 
Q 51.125 14.703125 51.125 21.484375 
Q 51.125 28.328125 47.28125 31.5625 
Q 43.453125 34.8125 35.5 34.8125 
z
M 19.671875 64.796875 
L 19.671875 42.828125 
L 34.28125 42.828125 
Q 41.5 42.828125 45.03125 45.53125 
Q 48.578125 48.25 48.578125 53.8125 
Q 48.578125 59.328125 45.03125 62.0625 
Q 41.5 64.796875 34.28125 64.796875 
z
M 9.8125 72.90625 
L 35.015625 72.90625 
Q 46.296875 72.90625 52.390625 68.21875 
Q 58.5 63.53125 58.5 54.890625 
Q 58.5 48.1875 55.375 44.234375 
Q 52.25 40.28125 46.1875 39.3125 
Q 53.46875 37.75 57.5 32.78125 
Q 61.53125 27.828125 61.53125 20.40625 
Q 61.53125 10.640625 54.890625 5.3125 
Q 48.25 0 35.984375 0 
L 9.8125 0 
z
" id="BitstreamVeraSans-Roman-42"/>
      <path d="M 31 75.875 
Q 24.46875 64.65625 21.28125 53.65625 
Q 18.109375 42.671875 18.109375 31.390625 
Q 18.109375 20.125 21.3125 9.0625 
Q 24.515625 -2 31 -13.1875 
L 23.1875 -13.1875 
Q 15.875 -1.703125 12.234375 9.375 
Q 8.59375 20.453125 8.59375 31.390625 
Q 8.59375 42.28125 12.203125 53.3125 
Q 15.828125 64.359375 23.1875 75.875 
z
" id="BitstreamVeraSans-Roman-28"/>
     </defs>
     <g transform="translate(141.64375 278.615625)scale(0.1 -0.1)">
      <use xlink:href="#BitstreamVeraSans-Roman-42"/>
      <use x="68.603515625" xlink:href="#BitstreamVeraSans-Roman-20"/>
      <use x="100.390625" xlink:href="#BitstreamVeraSans-Roman-28"/>
      <use x="139.404296875" xlink:href="#BitstreamVeraSans-Roman-54"/>
      <use x="200.48828125" xlink:href="#BitstreamVeraSans-Roman-29"/>
     </g>
    </g>
   </g>
   <g id="matplotlib.axis_2">
    <g id="ytick_1">
     <g id="line2d_15">
      <defs>
       <path d="M 0 0 
L 4 0 
" id="m4fb458e880" style="stroke:#000000;stroke-width:0.5;"/>
      </defs>
      <g>
       <use style="stroke:#000000;stroke-width:0.5;" x="50.1609375" xlink:href="#m4fb458e880" y="252.3390625"/>
      </g>
     </g>
     <g id="line2d_16">
      <defs>
       <path d="M 0 0 
L -4 0 
" id="m005a642abe" style="stroke:#000000;stroke-width:0.5;"/>
      </defs>
      <g>
       <use style="stroke:#000000;stroke-width:0.5;" x="257.0765625" xlink:href="#m005a642abe" y="252.3390625"/>
      </g>
     </g>
     <g id="text_7">
      <!-- −1.0 -->
      <g transform="translate(21.878125 255.0984375)scale(0.1 -0.1)">
       <use xlink:href="#BitstreamVeraSans-Roman-2212"/>
       <use x="83.7890625" xlink:href="#BitstreamVeraSans-Roman-31"/>
       <use x="147.412109375" xlink:href="#BitstreamVeraSans-Roman-2e"/>
       <use x="179.19921875" xlink:href="#BitstreamVeraSans-Roman-30"/>
      </g>
     </g>
    </g>
    <g id="ytick_2">
     <g id="line2d_17">
      <g>
       <use style="stroke:#000000;stroke-width:0.5;" x="50.1609375" xlink:href="#m4fb458e880" y="192.2640625"/>
      </g>
     </g>
     <g id="line2d_18">
      <g>
       <use style="stroke:#000000;stroke-width:0.5;" x="257.0765625" xlink:href="#m005a642abe" y="192.2640625"/>
      </g>
     </g>
     <g id="text_8">
      <!-- −0.5 -->
      <g transform="translate(21.878125 195.0234375)scale(0.1 -0.1)">
       <use xlink:href="#BitstreamVeraSans-Roman-2212"/>
       <use x="83.7890625" xlink:href="#BitstreamVeraSans-Roman-30"/>
       <use x="147.412109375" xlink:href="#BitstreamVeraSans-Roman-2e"/>
       <use x="179.19921875" xlink:href="#BitstreamVeraSans-Roman-35"/>
      </g>
     </g>
    </g>
    <g id="ytick_3">
     <g id="line2d_19">
      <g>
       <use style="stroke:#000000;stroke-width:0.5;" x="50.1609375" xlink:href="#m4fb458e880" y="132.1890625"/>
      </g>
     </g>
     <g id="line2d_20">
      <g>
       <use style="stroke:#000000;stroke-width:0.5;" x="257.0765625" xlink:href="#m005a642abe" y="132.1890625"/>
      </g>
     </g>
     <g id="text_9">
      <!-- 0.0 -->
      <g transform="translate(30.2578125 134.9484375)scale(0.1 -0.1)">
       <use xlink:href="#BitstreamVeraSans-Roman-30"/>
       <use x="63.623046875" xlink:href="#BitstreamVeraSans-Roman-2e"/>
       <use x="95.41015625" xlink:href="#BitstreamVeraSans-Roman-30"/>
      </g>
     </g>
    </g>
    <g id="ytick_4">
     <g id="line2d_21">
      <g>
       <use style="stroke:#000000;stroke-width:0.5;" x="50.1609375" xlink:href="#m4fb458e880" y="72.1140625"/>
      </g>
     </g>
     <g id="line2d_22">
      <g>
       <use style="stroke:#000000;stroke-width:0.5;" x="257.0765625" xlink:href="#m005a642abe" y="72.1140625"/>
      </g>
     </g>
     <g id="text_10">
      <!-- 0.5 -->
      <g transform="translate(30.2578125 74.8734375)scale(0.1 -0.1)">
       <use xlink:href="#BitstreamVeraSans-Roman-30"/>
       <use x="63.623046875" xlink:href="#BitstreamVeraSans-Roman-2e"/>
       <use x="95.41015625" xlink:href="#BitstreamVeraSans-Roman-35"/>
      </g>
     </g>
    </g>
    <g id="ytick_5">
     <g id="line2d_23">
      <g>
       <use style="stroke:#000000;stroke-width:0.5;" x="50.1609375" xlink:href="#m4fb458e880" y="12.0390625"/>
      </g>
     </g>
     <g id="line2d_24">
      <g>
       <use style="stroke:#000000;stroke-width:0.5;" x="257.0765625" xlink:href="#m005a642abe" y="12.0390625"/>
      </g>
     </g>
     <g id="text_11">
      <!-- 1.0 -->
      <g transform="translate(30.2578125 14.7984375)scale(0.1 -0.1)">
       <use xlink:href="#BitstreamVeraSans-Roman-31"/>
       <use x="63.623046875" xlink:href="#BitstreamVeraSans-Roman-2e"/>
       <use x="95.41015625" xlink:href="#BitstreamVeraSans-Roman-30"/>
      </g>
     </g>
    </g>
    <g id="text_12">
     <!-- M/Msat -->
     <defs>
      <path d="M 18.3125 70.21875 
L 18.3125 54.6875 
L 36.8125 54.6875 
L 36.8125 47.703125 
L 18.3125 47.703125 
L 18.3125 18.015625 
Q 18.3125 11.328125 20.140625 9.421875 
Q 21.96875 7.515625 27.59375 7.515625 
L 36.8125 7.515625 
L 36.8125 0 
L 27.59375 0 
Q 17.1875 0 13.234375 3.875 
Q 9.28125 7.765625 9.28125 18.015625 
L 9.28125 47.703125 
L 2.6875 47.703125 
L 2.6875 54.6875 
L 9.28125 54.6875 
L 9.28125 70.21875 
z
" id="BitstreamVeraSans-Roman-74"/>
      <path d="M 9.8125 72.90625 
L 24.515625 72.90625 
L 43.109375 23.296875 
L 61.8125 72.90625 
L 76.515625 72.90625 
L 76.515625 0 
L 66.890625 0 
L 66.890625 64.015625 
L 48.09375 14.015625 
L 38.1875 14.015625 
L 19.390625 64.015625 
L 19.390625 0 
L 9.8125 0 
z
" id="BitstreamVeraSans-Roman-4d"/>
      <path d="M 34.28125 27.484375 
Q 23.390625 27.484375 19.1875 25 
Q 14.984375 22.515625 14.984375 16.5 
Q 14.984375 11.71875 18.140625 8.90625 
Q 21.296875 6.109375 26.703125 6.109375 
Q 34.1875 6.109375 38.703125 11.40625 
Q 43.21875 16.703125 43.21875 25.484375 
L 43.21875 27.484375 
z
M 52.203125 31.203125 
L 52.203125 0 
L 43.21875 0 
L 43.21875 8.296875 
Q 40.140625 3.328125 35.546875 0.953125 
Q 30.953125 -1.421875 24.3125 -1.421875 
Q 15.921875 -1.421875 10.953125 3.296875 
Q 6 8.015625 6 15.921875 
Q 6 25.140625 12.171875 29.828125 
Q 18.359375 34.515625 30.609375 34.515625 
L 43.21875 34.515625 
L 43.21875 35.40625 
Q 43.21875 41.609375 39.140625 45 
Q 35.0625 48.390625 27.6875 48.390625 
Q 23 48.390625 18.546875 47.265625 
Q 14.109375 46.140625 10.015625 43.890625 
L 10.015625 52.203125 
Q 14.9375 54.109375 19.578125 55.046875 
Q 24.21875 56 28.609375 56 
Q 40.484375 56 46.34375 49.84375 
Q 52.203125 43.703125 52.203125 31.203125 
" id="BitstreamVeraSans-Roman-61"/>
      <path d="M 44.28125 53.078125 
L 44.28125 44.578125 
Q 40.484375 46.53125 36.375 47.5 
Q 32.28125 48.484375 27.875 48.484375 
Q 21.1875 48.484375 17.84375 46.4375 
Q 14.5 44.390625 14.5 40.28125 
Q 14.5 37.15625 16.890625 35.375 
Q 19.28125 33.59375 26.515625 31.984375 
L 29.59375 31.296875 
Q 39.15625 29.25 43.1875 25.515625 
Q 47.21875 21.78125 47.21875 15.09375 
Q 47.21875 7.46875 41.1875 3.015625 
Q 35.15625 -1.421875 24.609375 -1.421875 
Q 20.21875 -1.421875 15.453125 -0.5625 
Q 10.6875 0.296875 5.421875 2 
L 5.421875 11.28125 
Q 10.40625 8.6875 15.234375 7.390625 
Q 20.0625 6.109375 24.8125 6.109375 
Q 31.15625 6.109375 34.5625 8.28125 
Q 37.984375 10.453125 37.984375 14.40625 
Q 37.984375 18.0625 35.515625 20.015625 
Q 33.0625 21.96875 24.703125 23.78125 
L 21.578125 24.515625 
Q 13.234375 26.265625 9.515625 29.90625 
Q 5.8125 33.546875 5.8125 39.890625 
Q 5.8125 47.609375 11.28125 51.796875 
Q 16.75 56 26.8125 56 
Q 31.78125 56 36.171875 55.265625 
Q 40.578125 54.546875 44.28125 53.078125 
" id="BitstreamVeraSans-Roman-73"/>
      <path d="M 25.390625 72.90625 
L 33.6875 72.90625 
L 8.296875 -9.28125 
L 0 -9.28125 
z
" id="BitstreamVeraSans-Roman-2f"/>
     </defs>
     <g transform="translate(14.7984375 150.13046875)rotate(-90.0)scale(0.1 -0.1)">
      <use xlink:href="#BitstreamVeraSans-Roman-4d"/>
      <use x="86.279296875" xlink:href="#BitstreamVeraSans-Roman-2f"/>
      <use x="119.970703125" xlink:href="#BitstreamVeraSans-Roman-4d"/>
      <use x="206.25" xlink:href="#BitstreamVeraSans-Roman-73"/>
      <use x="258.349609375" xlink:href="#BitstreamVeraSans-Roman-61"/>
      <use x="319.62890625" xlink:href="#BitstreamVeraSans-Roman-74"/>
     </g>
    </g>
   </g>
   <g id="text_13">
    <!-- Ms: 1.67e-06 Am^2 -->
    <defs>
     <path d="M 19.1875 8.296875 
L 53.609375 8.296875 
L 53.609375 0 
L 7.328125 0 
L 7.328125 8.296875 
Q 12.9375 14.109375 22.625 23.890625 
Q 32.328125 33.6875 34.8125 36.53125 
Q 39.546875 41.84375 41.421875 45.53125 
Q 43.3125 49.21875 43.3125 52.78125 
Q 43.3125 58.59375 39.234375 62.25 
Q 35.15625 65.921875 28.609375 65.921875 
Q 23.96875 65.921875 18.8125 64.3125 
Q 13.671875 62.703125 7.8125 59.421875 
L 7.8125 69.390625 
Q 13.765625 71.78125 18.9375 73 
Q 24.125 74.21875 28.421875 74.21875 
Q 39.75 74.21875 46.484375 68.546875 
Q 53.21875 62.890625 53.21875 53.421875 
Q 53.21875 48.921875 51.53125 44.890625 
Q 49.859375 40.875 45.40625 35.40625 
Q 44.1875 33.984375 37.640625 27.21875 
Q 31.109375 20.453125 19.1875 8.296875 
" id="BitstreamVeraSans-Roman-32"/>
     <path d="M 33.015625 40.375 
Q 26.375 40.375 22.484375 35.828125 
Q 18.609375 31.296875 18.609375 23.390625 
Q 18.609375 15.53125 22.484375 10.953125 
Q 26.375 6.390625 33.015625 6.390625 
Q 39.65625 6.390625 43.53125 10.953125 
Q 47.40625 15.53125 47.40625 23.390625 
Q 47.40625 31.296875 43.53125 35.828125 
Q 39.65625 40.375 33.015625 40.375 
M 52.59375 71.296875 
L 52.59375 62.3125 
Q 48.875 64.0625 45.09375 64.984375 
Q 41.3125 65.921875 37.59375 65.921875 
Q 27.828125 65.921875 22.671875 59.328125 
Q 17.53125 52.734375 16.796875 39.40625 
Q 19.671875 43.65625 24.015625 45.921875 
Q 28.375 48.1875 33.59375 48.1875 
Q 44.578125 48.1875 50.953125 41.515625 
Q 57.328125 34.859375 57.328125 23.390625 
Q 57.328125 12.15625 50.6875 5.359375 
Q 44.046875 -1.421875 33.015625 -1.421875 
Q 20.359375 -1.421875 13.671875 8.265625 
Q 6.984375 17.96875 6.984375 36.375 
Q 6.984375 53.65625 15.1875 63.9375 
Q 23.390625 74.21875 37.203125 74.21875 
Q 40.921875 74.21875 44.703125 73.484375 
Q 48.484375 72.75 52.59375 71.296875 
" id="BitstreamVeraSans-Roman-36"/>
     <path d="M 8.203125 72.90625 
L 55.078125 72.90625 
L 55.078125 68.703125 
L 28.609375 0 
L 18.3125 0 
L 43.21875 64.59375 
L 8.203125 64.59375 
z
" id="BitstreamVeraSans-Roman-37"/>
     <path d="M 52 44.1875 
Q 55.375 50.25 60.0625 53.125 
Q 64.75 56 71.09375 56 
Q 79.640625 56 84.28125 50.015625 
Q 88.921875 44.046875 88.921875 33.015625 
L 88.921875 0 
L 79.890625 0 
L 79.890625 32.71875 
Q 79.890625 40.578125 77.09375 44.375 
Q 74.3125 48.1875 68.609375 48.1875 
Q 61.625 48.1875 57.5625 43.546875 
Q 53.515625 38.921875 53.515625 30.90625 
L 53.515625 0 
L 44.484375 0 
L 44.484375 32.71875 
Q 44.484375 40.625 41.703125 44.40625 
Q 38.921875 48.1875 33.109375 48.1875 
Q 26.21875 48.1875 22.15625 43.53125 
Q 18.109375 38.875 18.109375 30.90625 
L 18.109375 0 
L 9.078125 0 
L 9.078125 54.6875 
L 18.109375 54.6875 
L 18.109375 46.1875 
Q 21.1875 51.21875 25.484375 53.609375 
Q 29.78125 56 35.6875 56 
Q 41.65625 56 45.828125 52.96875 
Q 50 49.953125 52 44.1875 
" id="BitstreamVeraSans-Roman-6d"/>
     <path d="M 11.71875 12.40625 
L 22.015625 12.40625 
L 22.015625 0 
L 11.71875 0 
z
M 11.71875 51.703125 
L 22.015625 51.703125 
L 22.015625 39.3125 
L 11.71875 39.3125 
z
" id="BitstreamVeraSans-Roman-3a"/>
     <path d="M 4.890625 31.390625 
L 31.203125 31.390625 
L 31.203125 23.390625 
L 4.890625 23.390625 
z
" id="BitstreamVeraSans-Roman-2d"/>
     <path d="M 34.1875 63.1875 
L 20.796875 26.90625 
L 47.609375 26.90625 
z
M 28.609375 72.90625 
L 39.796875 72.90625 
L 67.578125 0 
L 57.328125 0 
L 50.6875 18.703125 
L 17.828125 18.703125 
L 11.1875 0 
L 0.78125 0 
z
" id="BitstreamVeraSans-Roman-41"/>
     <path d="M 56.203125 29.59375 
L 56.203125 25.203125 
L 14.890625 25.203125 
Q 15.484375 15.921875 20.484375 11.0625 
Q 25.484375 6.203125 34.421875 6.203125 
Q 39.59375 6.203125 44.453125 7.46875 
Q 49.3125 8.734375 54.109375 11.28125 
L 54.109375 2.78125 
Q 49.265625 0.734375 44.1875 -0.34375 
Q 39.109375 -1.421875 33.890625 -1.421875 
Q 20.796875 -1.421875 13.15625 6.1875 
Q 5.515625 13.8125 5.515625 26.8125 
Q 5.515625 40.234375 12.765625 48.109375 
Q 20.015625 56 32.328125 56 
Q 43.359375 56 49.78125 48.890625 
Q 56.203125 41.796875 56.203125 29.59375 
M 47.21875 32.234375 
Q 47.125 39.59375 43.09375 43.984375 
Q 39.0625 48.390625 32.421875 48.390625 
Q 24.90625 48.390625 20.390625 44.140625 
Q 15.875 39.890625 15.1875 32.171875 
z
" id="BitstreamVeraSans-Roman-65"/>
     <path d="M 46.6875 72.90625 
L 73.1875 45.703125 
L 63.375 45.703125 
L 41.890625 64.984375 
L 20.40625 45.703125 
L 10.59375 45.703125 
L 37.109375 72.90625 
z
" id="BitstreamVeraSans-Roman-5e"/>
    </defs>
    <g transform="translate(163.96453125 240.3240625)scale(0.09 -0.09)">
     <use xlink:href="#BitstreamVeraSans-Roman-4d"/>
     <use x="86.279296875" xlink:href="#BitstreamVeraSans-Roman-73"/>
     <use x="138.37890625" xlink:href="#BitstreamVeraSans-Roman-3a"/>
     <use x="172.0703125" xlink:href="#BitstreamVeraSans-Roman-20"/>
     <use x="203.857421875" xlink:href="#BitstreamVeraSans-Roman-31"/>
     <use x="267.48046875" xlink:href="#BitstreamVeraSans-Roman-2e"/>
     <use x="299.267578125" xlink:href="#BitstreamVeraSans-Roman-36"/>
     <use x="362.890625" xlink:href="#BitstreamVeraSans-Roman-37"/>
     <use x="426.513671875" xlink:href="#BitstreamVeraSans-Roman-65"/>
     <use x="488.037109375" xlink:href="#BitstreamVeraSans-Roman-2d"/>
     <use x="524.12109375" xlink:href="#BitstreamVeraSans-Roman-30"/>
     <use x="587.744140625" xlink:href="#BitstreamVeraSans-Roman-36"/>
     <use x="651.3671875" xlink:href="#BitstreamVeraSans-Roman-20"/>
     <use x="683.154296875" xlink:href="#BitstreamVeraSans-Roman-41"/>
     <use x="751.5625" xlink:href="#BitstreamVeraSans-Roman-6d"/>
     <use x="848.974609375" xlink:href="#BitstreamVeraSans-Roman-5e"/>
     <use x="932.763671875" xlink:href="#BitstreamVeraSans-Roman-32"/>
    </g>
   </g>
   <g id="text_14">
    <!-- Mr: 5.90e-07 Am^2 -->
    <defs>
     <path d="M 10.984375 1.515625 
L 10.984375 10.5 
Q 14.703125 8.734375 18.5 7.8125 
Q 22.3125 6.890625 25.984375 6.890625 
Q 35.75 6.890625 40.890625 13.453125 
Q 46.046875 20.015625 46.78125 33.40625 
Q 43.953125 29.203125 39.59375 26.953125 
Q 35.25 24.703125 29.984375 24.703125 
Q 19.046875 24.703125 12.671875 31.3125 
Q 6.296875 37.9375 6.296875 49.421875 
Q 6.296875 60.640625 12.9375 67.421875 
Q 19.578125 74.21875 30.609375 74.21875 
Q 43.265625 74.21875 49.921875 64.515625 
Q 56.59375 54.828125 56.59375 36.375 
Q 56.59375 19.140625 48.40625 8.859375 
Q 40.234375 -1.421875 26.421875 -1.421875 
Q 22.703125 -1.421875 18.890625 -0.6875 
Q 15.09375 0.046875 10.984375 1.515625 
M 30.609375 32.421875 
Q 37.25 32.421875 41.125 36.953125 
Q 45.015625 41.5 45.015625 49.421875 
Q 45.015625 57.28125 41.125 61.84375 
Q 37.25 66.40625 30.609375 66.40625 
Q 23.96875 66.40625 20.09375 61.84375 
Q 16.21875 57.28125 16.21875 49.421875 
Q 16.21875 41.5 20.09375 36.953125 
Q 23.96875 32.421875 30.609375 32.421875 
" id="BitstreamVeraSans-Roman-39"/>
     <path d="M 41.109375 46.296875 
Q 39.59375 47.171875 37.8125 47.578125 
Q 36.03125 48 33.890625 48 
Q 26.265625 48 22.1875 43.046875 
Q 18.109375 38.09375 18.109375 28.8125 
L 18.109375 0 
L 9.078125 0 
L 9.078125 54.6875 
L 18.109375 54.6875 
L 18.109375 46.1875 
Q 20.953125 51.171875 25.484375 53.578125 
Q 30.03125 56 36.53125 56 
Q 37.453125 56 38.578125 55.875 
Q 39.703125 55.765625 41.0625 55.515625 
z
" id="BitstreamVeraSans-Roman-72"/>
    </defs>
    <g transform="translate(163.96453125 216.2940625)scale(0.09 -0.09)">
     <use xlink:href="#BitstreamVeraSans-Roman-4d"/>
     <use x="86.279296875" xlink:href="#BitstreamVeraSans-Roman-72"/>
     <use x="127.376953125" xlink:href="#BitstreamVeraSans-Roman-3a"/>
     <use x="161.068359375" xlink:href="#BitstreamVeraSans-Roman-20"/>
     <use x="192.85546875" xlink:href="#BitstreamVeraSans-Roman-35"/>
     <use x="256.478515625" xlink:href="#BitstreamVeraSans-Roman-2e"/>
     <use x="288.265625" xlink:href="#BitstreamVeraSans-Roman-39"/>
     <use x="351.888671875" xlink:href="#BitstreamVeraSans-Roman-30"/>
     <use x="415.51171875" xlink:href="#BitstreamVeraSans-Roman-65"/>
     <use x="477.03515625" xlink:href="#BitstreamVeraSans-Roman-2d"/>
     <use x="513.119140625" xlink:href="#BitstreamVeraSans-Roman-30"/>
     <use x="576.7421875" xlink:href="#BitstreamVeraSans-Roman-37"/>
     <use x="640.365234375" xlink:href="#BitstreamVeraSans-Roman-20"/>
     <use x="672.15234375" xlink:href="#BitstreamVeraSans-Roman-41"/>
     <use x="740.560546875" xlink:href="#BitstreamVeraSans-Roman-6d"/>
     <use x="837.97265625" xlink:href="#BitstreamVeraSans-Roman-5e"/>
     <use x="921.76171875" xlink:href="#BitstreamVeraSans-Roman-32"/>
    </g>
   </g>
   <g id="text_15">
    <!-- Bc: 6.23e-02 T -->
    <defs>
     <path d="M 40.578125 39.3125 
Q 47.65625 37.796875 51.625 33 
Q 55.609375 28.21875 55.609375 21.1875 
Q 55.609375 10.40625 48.1875 4.484375 
Q 40.765625 -1.421875 27.09375 -1.421875 
Q 22.515625 -1.421875 17.65625 -0.515625 
Q 12.796875 0.390625 7.625 2.203125 
L 7.625 11.71875 
Q 11.71875 9.328125 16.59375 8.109375 
Q 21.484375 6.890625 26.8125 6.890625 
Q 36.078125 6.890625 40.9375 10.546875 
Q 45.796875 14.203125 45.796875 21.1875 
Q 45.796875 27.640625 41.28125 31.265625 
Q 36.765625 34.90625 28.71875 34.90625 
L 20.21875 34.90625 
L 20.21875 43.015625 
L 29.109375 43.015625 
Q 36.375 43.015625 40.234375 45.921875 
Q 44.09375 48.828125 44.09375 54.296875 
Q 44.09375 59.90625 40.109375 62.90625 
Q 36.140625 65.921875 28.71875 65.921875 
Q 24.65625 65.921875 20.015625 65.03125 
Q 15.375 64.15625 9.8125 62.3125 
L 9.8125 71.09375 
Q 15.4375 72.65625 20.34375 73.4375 
Q 25.25 74.21875 29.59375 74.21875 
Q 40.828125 74.21875 47.359375 69.109375 
Q 53.90625 64.015625 53.90625 55.328125 
Q 53.90625 49.265625 50.4375 45.09375 
Q 46.96875 40.921875 40.578125 39.3125 
" id="BitstreamVeraSans-Roman-33"/>
     <path d="M 48.78125 52.59375 
L 48.78125 44.1875 
Q 44.96875 46.296875 41.140625 47.34375 
Q 37.3125 48.390625 33.40625 48.390625 
Q 24.65625 48.390625 19.8125 42.84375 
Q 14.984375 37.3125 14.984375 27.296875 
Q 14.984375 17.28125 19.8125 11.734375 
Q 24.65625 6.203125 33.40625 6.203125 
Q 37.3125 6.203125 41.140625 7.25 
Q 44.96875 8.296875 48.78125 10.40625 
L 48.78125 2.09375 
Q 45.015625 0.34375 40.984375 -0.53125 
Q 36.96875 -1.421875 32.421875 -1.421875 
Q 20.0625 -1.421875 12.78125 6.34375 
Q 5.515625 14.109375 5.515625 27.296875 
Q 5.515625 40.671875 12.859375 48.328125 
Q 20.21875 56 33.015625 56 
Q 37.15625 56 41.109375 55.140625 
Q 45.0625 54.296875 48.78125 52.59375 
" id="BitstreamVeraSans-Roman-63"/>
    </defs>
    <g transform="translate(163.96453125 192.2640625)scale(0.09 -0.09)">
     <use xlink:href="#BitstreamVeraSans-Roman-42"/>
     <use x="68.603515625" xlink:href="#BitstreamVeraSans-Roman-63"/>
     <use x="123.583984375" xlink:href="#BitstreamVeraSans-Roman-3a"/>
     <use x="157.275390625" xlink:href="#BitstreamVeraSans-Roman-20"/>
     <use x="189.0625" xlink:href="#BitstreamVeraSans-Roman-36"/>
     <use x="252.685546875" xlink:href="#BitstreamVeraSans-Roman-2e"/>
     <use x="284.47265625" xlink:href="#BitstreamVeraSans-Roman-32"/>
     <use x="348.095703125" xlink:href="#BitstreamVeraSans-Roman-33"/>
     <use x="411.71875" xlink:href="#BitstreamVeraSans-Roman-65"/>
     <use x="473.2421875" xlink:href="#BitstreamVeraSans-Roman-2d"/>
     <use x="509.326171875" xlink:href="#BitstreamVeraSans-Roman-30"/>
     <use x="572.94921875" xlink:href="#BitstreamVeraSans-Roman-32"/>
     <use x="636.572265625" xlink:href="#BitstreamVeraSans-Roman-20"/>
     <use x="668.359375" xlink:href="#BitstreamVeraSans-Roman-54"/>
    </g>
   </g>
   <g id="text_16">
    <!-- Xhf: 1.01e-11 m^3 -->
    <defs>
     <path d="M 6.296875 72.90625 
L 16.890625 72.90625 
L 35.015625 45.796875 
L 53.21875 72.90625 
L 63.8125 72.90625 
L 40.375 37.890625 
L 65.375 0 
L 54.78125 0 
L 34.28125 31 
L 13.625 0 
L 2.984375 0 
L 29 38.921875 
z
" id="BitstreamVeraSans-Roman-58"/>
     <path d="M 37.109375 75.984375 
L 37.109375 68.5 
L 28.515625 68.5 
Q 23.6875 68.5 21.796875 66.546875 
Q 19.921875 64.59375 19.921875 59.515625 
L 19.921875 54.6875 
L 34.71875 54.6875 
L 34.71875 47.703125 
L 19.921875 47.703125 
L 19.921875 0 
L 10.890625 0 
L 10.890625 47.703125 
L 2.296875 47.703125 
L 2.296875 54.6875 
L 10.890625 54.6875 
L 10.890625 58.5 
Q 10.890625 67.625 15.140625 71.796875 
Q 19.390625 75.984375 28.609375 75.984375 
z
" id="BitstreamVeraSans-Roman-66"/>
     <path d="M 54.890625 33.015625 
L 54.890625 0 
L 45.90625 0 
L 45.90625 32.71875 
Q 45.90625 40.484375 42.875 44.328125 
Q 39.84375 48.1875 33.796875 48.1875 
Q 26.515625 48.1875 22.3125 43.546875 
Q 18.109375 38.921875 18.109375 30.90625 
L 18.109375 0 
L 9.078125 0 
L 9.078125 75.984375 
L 18.109375 75.984375 
L 18.109375 46.1875 
Q 21.34375 51.125 25.703125 53.5625 
Q 30.078125 56 35.796875 56 
Q 45.21875 56 50.046875 50.171875 
Q 54.890625 44.34375 54.890625 33.015625 
" id="BitstreamVeraSans-Roman-68"/>
    </defs>
    <g transform="translate(163.96453125 168.2340625)scale(0.09 -0.09)">
     <use xlink:href="#BitstreamVeraSans-Roman-58"/>
     <use x="68.505859375" xlink:href="#BitstreamVeraSans-Roman-68"/>
     <use x="131.884765625" xlink:href="#BitstreamVeraSans-Roman-66"/>
     <use x="167.04296875" xlink:href="#BitstreamVeraSans-Roman-3a"/>
     <use x="200.734375" xlink:href="#BitstreamVeraSans-Roman-20"/>
     <use x="232.521484375" xlink:href="#BitstreamVeraSans-Roman-31"/>
     <use x="296.14453125" xlink:href="#BitstreamVeraSans-Roman-2e"/>
     <use x="327.931640625" xlink:href="#BitstreamVeraSans-Roman-30"/>
     <use x="391.5546875" xlink:href="#BitstreamVeraSans-Roman-31"/>
     <use x="455.177734375" xlink:href="#BitstreamVeraSans-Roman-65"/>
     <use x="516.701171875" xlink:href="#BitstreamVeraSans-Roman-2d"/>
     <use x="552.78515625" xlink:href="#BitstreamVeraSans-Roman-31"/>
     <use x="616.408203125" xlink:href="#BitstreamVeraSans-Roman-31"/>
     <use x="680.03125" xlink:href="#BitstreamVeraSans-Roman-20"/>
     <use x="711.818359375" xlink:href="#BitstreamVeraSans-Roman-6d"/>
     <use x="809.23046875" xlink:href="#BitstreamVeraSans-Roman-5e"/>
     <use x="893.01953125" xlink:href="#BitstreamVeraSans-Roman-33"/>
    </g>
   </g>
  </g>
  <g id="axes_2">
   <g id="patch_7">
    <path d="M 343.870312 252.339062 
L 550.785937 252.339062 
L 550.785937 12.039062 
L 343.870312 12.039062 
z
" style="fill:#ffffff;"/>
   </g>
   <g id="line2d_25">
    <path clip-path="url(#p8ea84f6380)" d="M 343.870312 39.877112 
L 346.456758 41.370433 
L 349.043203 45.249387 
L 351.629648 51.654157 
L 354.216094 60.03784 
L 356.802539 69.966759 
L 359.388984 80.983919 
L 361.97543 92.62164 
L 364.561875 104.832634 
L 367.14832 117.256492 
L 369.734766 129.65012 
L 372.321211 141.847691 
L 374.907656 153.16432 
L 377.494102 163.867091 
L 380.080547 173.573924 
L 382.666992 182.258101 
L 385.253437 190.47696 
L 387.839883 197.556398 
L 390.426328 203.724015 
L 393.012773 209.22149 
L 395.599219 214.142249 
L 398.185664 218.154356 
L 400.772109 221.97031 
L 403.358555 225.030447 
L 405.945 227.627209 
L 408.531445 230.109957 
L 411.117891 231.786609 
L 413.704336 233.321417 
L 416.290781 234.905556 
L 418.877227 236.203969 
L 421.463672 237.234108 
L 424.050117 238.211347 
L 426.636562 238.959662 
L 429.223008 239.739607 
L 431.809453 240.242161 
L 434.395898 240.775814 
L 436.982344 241.196436 
L 439.568789 241.640983 
L 442.155234 242.010837 
L 444.74168 242.338866 
L 447.328125 242.667286 
L 449.91457 242.935909 
L 452.501016 243.280774 
L 455.087461 243.496656 
L 457.673906 243.659916 
L 460.260352 243.807445 
L 462.846797 244.170085 
L 465.433242 244.199879 
L 468.019687 244.372184 
L 470.606133 244.517442 
L 473.192578 244.744642 
L 475.779023 244.825805 
L 478.365469 244.943245 
L 480.951914 245.060398 
L 483.538359 245.117176 
L 486.124805 245.125016 
L 488.71125 245.409248 
L 491.297695 245.531709 
L 493.884141 245.704924 
L 496.470586 245.985253 
L 499.057031 245.89142 
L 501.643477 246.08098 
L 504.229922 246.160124 
L 506.816367 246.300617 
L 509.402812 246.556243 
L 511.989258 246.709831 
L 514.575703 246.881201 
L 517.162148 246.87272 
L 519.748594 247.063604 
L 522.335039 247.094509 
L 524.921484 247.39692 
L 527.50793 247.637983 
L 530.094375 247.760332 
L 532.68082 247.97976 
L 535.267266 248.002174 
L 537.853711 248.076893 
L 540.440156 248.016185 
L 543.026602 248.267472 
L 545.613047 248.672993 
L 548.199492 248.801957 
" style="fill:none;stroke:#0000ff;stroke-linecap:square;"/>
   </g>
   <g id="line2d_26">
    <path clip-path="url(#p8ea84f6380)" d="M 343.870312 146.108087 
L 373.294936 146.108087 
L 373.294936 252.339062 
" style="fill:none;stroke:#ff0000;stroke-linecap:square;"/>
   </g>
   <g id="patch_8">
    <path d="M 343.870312 12.039062 
L 550.785937 12.039062 
" style="fill:none;stroke:#000000;stroke-linecap:square;stroke-linejoin:miter;"/>
   </g>
   <g id="patch_9">
    <path d="M 550.785937 252.339062 
L 550.785937 12.039062 
" style="fill:none;stroke:#000000;stroke-linecap:square;stroke-linejoin:miter;"/>
   </g>
   <g id="patch_10">
    <path d="M 343.870312 252.339062 
L 550.785937 252.339062 
" style="fill:none;stroke:#000000;stroke-linecap:square;stroke-linejoin:miter;"/>
   </g>
   <g id="patch_11">
    <path d="M 343.870312 252.339062 
L 343.870312 12.039062 
" style="fill:none;stroke:#000000;stroke-linecap:square;stroke-linejoin:miter;"/>
   </g>
   <g id="matplotlib.axis_3">
    <g id="xtick_6">
     <g id="line2d_27">
      <g>
       <use style="stroke:#000000;stroke-width:0.5;" x="343.8703125" xlink:href="#m53c26eacb0" y="252.3390625"/>
      </g>
     </g>
     <g id="line2d_28">
      <g>
       <use style="stroke:#000000;stroke-width:0.5;" x="343.8703125" xlink:href="#ma6948d9d98" y="12.0390625"/>
      </g>
     </g>
     <g id="text_17">
      <!-- 0.0 -->
      <g transform="translate(335.91875 263.9375)scale(0.1 -0.1)">
       <use xlink:href="#BitstreamVeraSans-Roman-30"/>
       <use x="63.623046875" xlink:href="#BitstreamVeraSans-Roman-2e"/>
       <use x="95.41015625" xlink:href="#BitstreamVeraSans-Roman-30"/>
      </g>
     </g>
    </g>
    <g id="xtick_7">
     <g id="line2d_29">
      <g>
       <use style="stroke:#000000;stroke-width:0.5;" x="369.734765625" xlink:href="#m53c26eacb0" y="252.3390625"/>
      </g>
     </g>
     <g id="line2d_30">
      <g>
       <use style="stroke:#000000;stroke-width:0.5;" x="369.734765625" xlink:href="#ma6948d9d98" y="12.0390625"/>
      </g>
     </g>
     <g id="text_18">
      <!-- 0.1 -->
      <g transform="translate(361.783203125 263.9375)scale(0.1 -0.1)">
       <use xlink:href="#BitstreamVeraSans-Roman-30"/>
       <use x="63.623046875" xlink:href="#BitstreamVeraSans-Roman-2e"/>
       <use x="95.41015625" xlink:href="#BitstreamVeraSans-Roman-31"/>
      </g>
     </g>
    </g>
    <g id="xtick_8">
     <g id="line2d_31">
      <g>
       <use style="stroke:#000000;stroke-width:0.5;" x="395.59921875" xlink:href="#m53c26eacb0" y="252.3390625"/>
      </g>
     </g>
     <g id="line2d_32">
      <g>
       <use style="stroke:#000000;stroke-width:0.5;" x="395.59921875" xlink:href="#ma6948d9d98" y="12.0390625"/>
      </g>
     </g>
     <g id="text_19">
      <!-- 0.2 -->
      <g transform="translate(387.64765625 263.9375)scale(0.1 -0.1)">
       <use xlink:href="#BitstreamVeraSans-Roman-30"/>
       <use x="63.623046875" xlink:href="#BitstreamVeraSans-Roman-2e"/>
       <use x="95.41015625" xlink:href="#BitstreamVeraSans-Roman-32"/>
      </g>
     </g>
    </g>
    <g id="xtick_9">
     <g id="line2d_33">
      <g>
       <use style="stroke:#000000;stroke-width:0.5;" x="421.463671875" xlink:href="#m53c26eacb0" y="252.3390625"/>
      </g>
     </g>
     <g id="line2d_34">
      <g>
       <use style="stroke:#000000;stroke-width:0.5;" x="421.463671875" xlink:href="#ma6948d9d98" y="12.0390625"/>
      </g>
     </g>
     <g id="text_20">
      <!-- 0.3 -->
      <g transform="translate(413.512109375 263.9375)scale(0.1 -0.1)">
       <use xlink:href="#BitstreamVeraSans-Roman-30"/>
       <use x="63.623046875" xlink:href="#BitstreamVeraSans-Roman-2e"/>
       <use x="95.41015625" xlink:href="#BitstreamVeraSans-Roman-33"/>
      </g>
     </g>
    </g>
    <g id="xtick_10">
     <g id="line2d_35">
      <g>
       <use style="stroke:#000000;stroke-width:0.5;" x="447.328125" xlink:href="#m53c26eacb0" y="252.3390625"/>
      </g>
     </g>
     <g id="line2d_36">
      <g>
       <use style="stroke:#000000;stroke-width:0.5;" x="447.328125" xlink:href="#ma6948d9d98" y="12.0390625"/>
      </g>
     </g>
     <g id="text_21">
      <!-- 0.4 -->
      <defs>
       <path d="M 37.796875 64.3125 
L 12.890625 25.390625 
L 37.796875 25.390625 
z
M 35.203125 72.90625 
L 47.609375 72.90625 
L 47.609375 25.390625 
L 58.015625 25.390625 
L 58.015625 17.1875 
L 47.609375 17.1875 
L 47.609375 0 
L 37.796875 0 
L 37.796875 17.1875 
L 4.890625 17.1875 
L 4.890625 26.703125 
z
" id="BitstreamVeraSans-Roman-34"/>
      </defs>
      <g transform="translate(439.3765625 263.9375)scale(0.1 -0.1)">
       <use xlink:href="#BitstreamVeraSans-Roman-30"/>
       <use x="63.623046875" xlink:href="#BitstreamVeraSans-Roman-2e"/>
       <use x="95.41015625" xlink:href="#BitstreamVeraSans-Roman-34"/>
      </g>
     </g>
    </g>
    <g id="xtick_11">
     <g id="line2d_37">
      <g>
       <use style="stroke:#000000;stroke-width:0.5;" x="473.192578125" xlink:href="#m53c26eacb0" y="252.3390625"/>
      </g>
     </g>
     <g id="line2d_38">
      <g>
       <use style="stroke:#000000;stroke-width:0.5;" x="473.192578125" xlink:href="#ma6948d9d98" y="12.0390625"/>
      </g>
     </g>
     <g id="text_22">
      <!-- 0.5 -->
      <g transform="translate(465.241015625 263.9375)scale(0.1 -0.1)">
       <use xlink:href="#BitstreamVeraSans-Roman-30"/>
       <use x="63.623046875" xlink:href="#BitstreamVeraSans-Roman-2e"/>
       <use x="95.41015625" xlink:href="#BitstreamVeraSans-Roman-35"/>
      </g>
     </g>
    </g>
    <g id="xtick_12">
     <g id="line2d_39">
      <g>
       <use style="stroke:#000000;stroke-width:0.5;" x="499.05703125" xlink:href="#m53c26eacb0" y="252.3390625"/>
      </g>
     </g>
     <g id="line2d_40">
      <g>
       <use style="stroke:#000000;stroke-width:0.5;" x="499.05703125" xlink:href="#ma6948d9d98" y="12.0390625"/>
      </g>
     </g>
     <g id="text_23">
      <!-- 0.6 -->
      <g transform="translate(491.10546875 263.9375)scale(0.1 -0.1)">
       <use xlink:href="#BitstreamVeraSans-Roman-30"/>
       <use x="63.623046875" xlink:href="#BitstreamVeraSans-Roman-2e"/>
       <use x="95.41015625" xlink:href="#BitstreamVeraSans-Roman-36"/>
      </g>
     </g>
    </g>
    <g id="xtick_13">
     <g id="line2d_41">
      <g>
       <use style="stroke:#000000;stroke-width:0.5;" x="524.921484375" xlink:href="#m53c26eacb0" y="252.3390625"/>
      </g>
     </g>
     <g id="line2d_42">
      <g>
       <use style="stroke:#000000;stroke-width:0.5;" x="524.921484375" xlink:href="#ma6948d9d98" y="12.0390625"/>
      </g>
     </g>
     <g id="text_24">
      <!-- 0.7 -->
      <g transform="translate(516.969921875 263.9375)scale(0.1 -0.1)">
       <use xlink:href="#BitstreamVeraSans-Roman-30"/>
       <use x="63.623046875" xlink:href="#BitstreamVeraSans-Roman-2e"/>
       <use x="95.41015625" xlink:href="#BitstreamVeraSans-Roman-37"/>
      </g>
     </g>
    </g>
    <g id="xtick_14">
     <g id="line2d_43">
      <g>
       <use style="stroke:#000000;stroke-width:0.5;" x="550.7859375" xlink:href="#m53c26eacb0" y="252.3390625"/>
      </g>
     </g>
     <g id="line2d_44">
      <g>
       <use style="stroke:#000000;stroke-width:0.5;" x="550.7859375" xlink:href="#ma6948d9d98" y="12.0390625"/>
      </g>
     </g>
     <g id="text_25">
      <!-- 0.8 -->
      <defs>
       <path d="M 31.78125 34.625 
Q 24.75 34.625 20.71875 30.859375 
Q 16.703125 27.09375 16.703125 20.515625 
Q 16.703125 13.921875 20.71875 10.15625 
Q 24.75 6.390625 31.78125 6.390625 
Q 38.8125 6.390625 42.859375 10.171875 
Q 46.921875 13.96875 46.921875 20.515625 
Q 46.921875 27.09375 42.890625 30.859375 
Q 38.875 34.625 31.78125 34.625 
M 21.921875 38.8125 
Q 15.578125 40.375 12.03125 44.71875 
Q 8.5 49.078125 8.5 55.328125 
Q 8.5 64.0625 14.71875 69.140625 
Q 20.953125 74.21875 31.78125 74.21875 
Q 42.671875 74.21875 48.875 69.140625 
Q 55.078125 64.0625 55.078125 55.328125 
Q 55.078125 49.078125 51.53125 44.71875 
Q 48 40.375 41.703125 38.8125 
Q 48.828125 37.15625 52.796875 32.3125 
Q 56.78125 27.484375 56.78125 20.515625 
Q 56.78125 9.90625 50.3125 4.234375 
Q 43.84375 -1.421875 31.78125 -1.421875 
Q 19.734375 -1.421875 13.25 4.234375 
Q 6.78125 9.90625 6.78125 20.515625 
Q 6.78125 27.484375 10.78125 32.3125 
Q 14.796875 37.15625 21.921875 38.8125 
M 18.3125 54.390625 
Q 18.3125 48.734375 21.84375 45.5625 
Q 25.390625 42.390625 31.78125 42.390625 
Q 38.140625 42.390625 41.71875 45.5625 
Q 45.3125 48.734375 45.3125 54.390625 
Q 45.3125 60.0625 41.71875 63.234375 
Q 38.140625 66.40625 31.78125 66.40625 
Q 25.390625 66.40625 21.84375 63.234375 
Q 18.3125 60.0625 18.3125 54.390625 
" id="BitstreamVeraSans-Roman-38"/>
      </defs>
      <g transform="translate(542.834375 263.9375)scale(0.1 -0.1)">
       <use xlink:href="#BitstreamVeraSans-Roman-30"/>
       <use x="63.623046875" xlink:href="#BitstreamVeraSans-Roman-2e"/>
       <use x="95.41015625" xlink:href="#BitstreamVeraSans-Roman-38"/>
      </g>
     </g>
    </g>
    <g id="text_26">
     <!-- B (T) -->
     <g transform="translate(435.353125 278.615625)scale(0.1 -0.1)">
      <use xlink:href="#BitstreamVeraSans-Roman-42"/>
      <use x="68.603515625" xlink:href="#BitstreamVeraSans-Roman-20"/>
      <use x="100.390625" xlink:href="#BitstreamVeraSans-Roman-28"/>
      <use x="139.404296875" xlink:href="#BitstreamVeraSans-Roman-54"/>
      <use x="200.48828125" xlink:href="#BitstreamVeraSans-Roman-29"/>
     </g>
    </g>
   </g>
   <g id="matplotlib.axis_4">
    <g id="ytick_6">
     <g id="line2d_45">
      <g>
       <use style="stroke:#000000;stroke-width:0.5;" x="343.8703125" xlink:href="#m4fb458e880" y="252.3390625"/>
      </g>
     </g>
     <g id="line2d_46">
      <g>
       <use style="stroke:#000000;stroke-width:0.5;" x="550.7859375" xlink:href="#m005a642abe" y="252.3390625"/>
      </g>
     </g>
     <g id="text_27">
      <!-- 0.0 -->
      <g transform="translate(323.9671875 255.0984375)scale(0.1 -0.1)">
       <use xlink:href="#BitstreamVeraSans-Roman-30"/>
       <use x="63.623046875" xlink:href="#BitstreamVeraSans-Roman-2e"/>
       <use x="95.41015625" xlink:href="#BitstreamVeraSans-Roman-30"/>
      </g>
     </g>
    </g>
    <g id="ytick_7">
     <g id="line2d_47">
      <g>
       <use style="stroke:#000000;stroke-width:0.5;" x="343.8703125" xlink:href="#m4fb458e880" y="222.3015625"/>
      </g>
     </g>
     <g id="line2d_48">
      <g>
       <use style="stroke:#000000;stroke-width:0.5;" x="550.7859375" xlink:href="#m005a642abe" y="222.3015625"/>
      </g>
     </g>
     <g id="text_28">
      <!-- 0.1 -->
      <g transform="translate(323.9671875 225.0609375)scale(0.1 -0.1)">
       <use xlink:href="#BitstreamVeraSans-Roman-30"/>
       <use x="63.623046875" xlink:href="#BitstreamVeraSans-Roman-2e"/>
       <use x="95.41015625" xlink:href="#BitstreamVeraSans-Roman-31"/>
      </g>
     </g>
    </g>
    <g id="ytick_8">
     <g id="line2d_49">
      <g>
       <use style="stroke:#000000;stroke-width:0.5;" x="343.8703125" xlink:href="#m4fb458e880" y="192.2640625"/>
      </g>
     </g>
     <g id="line2d_50">
      <g>
       <use style="stroke:#000000;stroke-width:0.5;" x="550.7859375" xlink:href="#m005a642abe" y="192.2640625"/>
      </g>
     </g>
     <g id="text_29">
      <!-- 0.2 -->
      <g transform="translate(323.9671875 195.0234375)scale(0.1 -0.1)">
       <use xlink:href="#BitstreamVeraSans-Roman-30"/>
       <use x="63.623046875" xlink:href="#BitstreamVeraSans-Roman-2e"/>
       <use x="95.41015625" xlink:href="#BitstreamVeraSans-Roman-32"/>
      </g>
     </g>
    </g>
    <g id="ytick_9">
     <g id="line2d_51">
      <g>
       <use style="stroke:#000000;stroke-width:0.5;" x="343.8703125" xlink:href="#m4fb458e880" y="162.2265625"/>
      </g>
     </g>
     <g id="line2d_52">
      <g>
       <use style="stroke:#000000;stroke-width:0.5;" x="550.7859375" xlink:href="#m005a642abe" y="162.2265625"/>
      </g>
     </g>
     <g id="text_30">
      <!-- 0.3 -->
      <g transform="translate(323.9671875 164.9859375)scale(0.1 -0.1)">
       <use xlink:href="#BitstreamVeraSans-Roman-30"/>
       <use x="63.623046875" xlink:href="#BitstreamVeraSans-Roman-2e"/>
       <use x="95.41015625" xlink:href="#BitstreamVeraSans-Roman-33"/>
      </g>
     </g>
    </g>
    <g id="ytick_10">
     <g id="line2d_53">
      <g>
       <use style="stroke:#000000;stroke-width:0.5;" x="343.8703125" xlink:href="#m4fb458e880" y="132.1890625"/>
      </g>
     </g>
     <g id="line2d_54">
      <g>
       <use style="stroke:#000000;stroke-width:0.5;" x="550.7859375" xlink:href="#m005a642abe" y="132.1890625"/>
      </g>
     </g>
     <g id="text_31">
      <!-- 0.4 -->
      <g transform="translate(323.9671875 134.9484375)scale(0.1 -0.1)">
       <use xlink:href="#BitstreamVeraSans-Roman-30"/>
       <use x="63.623046875" xlink:href="#BitstreamVeraSans-Roman-2e"/>
       <use x="95.41015625" xlink:href="#BitstreamVeraSans-Roman-34"/>
      </g>
     </g>
    </g>
    <g id="ytick_11">
     <g id="line2d_55">
      <g>
       <use style="stroke:#000000;stroke-width:0.5;" x="343.8703125" xlink:href="#m4fb458e880" y="102.1515625"/>
      </g>
     </g>
     <g id="line2d_56">
      <g>
       <use style="stroke:#000000;stroke-width:0.5;" x="550.7859375" xlink:href="#m005a642abe" y="102.1515625"/>
      </g>
     </g>
     <g id="text_32">
      <!-- 0.5 -->
      <g transform="translate(323.9671875 104.9109375)scale(0.1 -0.1)">
       <use xlink:href="#BitstreamVeraSans-Roman-30"/>
       <use x="63.623046875" xlink:href="#BitstreamVeraSans-Roman-2e"/>
       <use x="95.41015625" xlink:href="#BitstreamVeraSans-Roman-35"/>
      </g>
     </g>
    </g>
    <g id="ytick_12">
     <g id="line2d_57">
      <g>
       <use style="stroke:#000000;stroke-width:0.5;" x="343.8703125" xlink:href="#m4fb458e880" y="72.1140625"/>
      </g>
     </g>
     <g id="line2d_58">
      <g>
       <use style="stroke:#000000;stroke-width:0.5;" x="550.7859375" xlink:href="#m005a642abe" y="72.1140625"/>
      </g>
     </g>
     <g id="text_33">
      <!-- 0.6 -->
      <g transform="translate(323.9671875 74.8734375)scale(0.1 -0.1)">
       <use xlink:href="#BitstreamVeraSans-Roman-30"/>
       <use x="63.623046875" xlink:href="#BitstreamVeraSans-Roman-2e"/>
       <use x="95.41015625" xlink:href="#BitstreamVeraSans-Roman-36"/>
      </g>
     </g>
    </g>
    <g id="ytick_13">
     <g id="line2d_59">
      <g>
       <use style="stroke:#000000;stroke-width:0.5;" x="343.8703125" xlink:href="#m4fb458e880" y="42.0765625"/>
      </g>
     </g>
     <g id="line2d_60">
      <g>
       <use style="stroke:#000000;stroke-width:0.5;" x="550.7859375" xlink:href="#m005a642abe" y="42.0765625"/>
      </g>
     </g>
     <g id="text_34">
      <!-- 0.7 -->
      <g transform="translate(323.9671875 44.8359375)scale(0.1 -0.1)">
       <use xlink:href="#BitstreamVeraSans-Roman-30"/>
       <use x="63.623046875" xlink:href="#BitstreamVeraSans-Roman-2e"/>
       <use x="95.41015625" xlink:href="#BitstreamVeraSans-Roman-37"/>
      </g>
     </g>
    </g>
    <g id="ytick_14">
     <g id="line2d_61">
      <g>
       <use style="stroke:#000000;stroke-width:0.5;" x="343.8703125" xlink:href="#m4fb458e880" y="12.0390625"/>
      </g>
     </g>
     <g id="line2d_62">
      <g>
       <use style="stroke:#000000;stroke-width:0.5;" x="550.7859375" xlink:href="#m005a642abe" y="12.0390625"/>
      </g>
     </g>
     <g id="text_35">
      <!-- 0.8 -->
      <g transform="translate(323.9671875 14.7984375)scale(0.1 -0.1)">
       <use xlink:href="#BitstreamVeraSans-Roman-30"/>
       <use x="63.623046875" xlink:href="#BitstreamVeraSans-Roman-2e"/>
       <use x="95.41015625" xlink:href="#BitstreamVeraSans-Roman-38"/>
      </g>
     </g>
    </g>
    <g id="text_36">
     <!-- Delta M -->
     <defs>
      <path d="M 19.671875 64.796875 
L 19.671875 8.109375 
L 31.59375 8.109375 
Q 46.6875 8.109375 53.6875 14.9375 
Q 60.6875 21.78125 60.6875 36.53125 
Q 60.6875 51.171875 53.6875 57.984375 
Q 46.6875 64.796875 31.59375 64.796875 
z
M 9.8125 72.90625 
L 30.078125 72.90625 
Q 51.265625 72.90625 61.171875 64.09375 
Q 71.09375 55.28125 71.09375 36.53125 
Q 71.09375 17.671875 61.125 8.828125 
Q 51.171875 0 30.078125 0 
L 9.8125 0 
z
" id="BitstreamVeraSans-Roman-44"/>
      <path d="M 9.421875 75.984375 
L 18.40625 75.984375 
L 18.40625 0 
L 9.421875 0 
z
" id="BitstreamVeraSans-Roman-6c"/>
     </defs>
     <g transform="translate(316.8875 151.43203125)rotate(-90.0)scale(0.1 -0.1)">
      <use xlink:href="#BitstreamVeraSans-Roman-44"/>
      <use x="77.001953125" xlink:href="#BitstreamVeraSans-Roman-65"/>
      <use x="138.525390625" xlink:href="#BitstreamVeraSans-Roman-6c"/>
      <use x="166.30859375" xlink:href="#BitstreamVeraSans-Roman-74"/>
      <use x="205.517578125" xlink:href="#BitstreamVeraSans-Roman-61"/>
      <use x="266.796875" xlink:href="#BitstreamVeraSans-Roman-20"/>
      <use x="298.583984375" xlink:href="#BitstreamVeraSans-Roman-4d"/>
     </g>
    </g>
   </g>
  </g>
  <g id="axes_3">
   <g id="patch_12">
    <path d="M 50.160938 534.939062 
L 257.076562 534.939062 
L 257.076562 294.639062 
L 50.160938 294.639062 
z
" style="fill:#ffffff;"/>
   </g>
   <g id="line2d_63">
    <path clip-path="url(#p29d7384235)" d="M 55.333828 487.185509 
L 57.920273 443.528189 
L 60.506719 403.486143 
L 63.093164 372.160371 
L 65.679609 348.751689 
L 68.266055 333.562345 
L 70.8525 322.950489 
L 73.438945 315.962602 
L 76.025391 314.339188 
L 78.611836 316.350622 
L 81.198281 325.923948 
L 83.784727 339.211068 
L 86.371172 353.520362 
L 88.957617 371.463417 
L 91.544062 384.689853 
L 94.130508 398.9542 
L 96.716953 417.187464 
L 99.303398 431.249355 
L 101.889844 442.332535 
L 104.476289 455.535813 
L 107.062734 465.356299 
L 109.64918 473.818253 
L 112.235625 484.655519 
L 114.82207 489.787856 
L 117.408516 497.966619 
L 119.994961 506.392757 
L 122.581406 507.215084 
L 125.167852 509.316376 
L 127.754297 514.240826 
L 130.340742 517.095703 
L 132.927188 519.600808 
L 135.513633 521.354526 
L 138.100078 523.539065 
L 140.686523 525.728334 
L 143.272969 526.456621 
L 145.859414 527.248673 
L 148.445859 527.699945 
L 151.032305 528.735657 
L 153.61875 529.103961 
L 156.205195 529.632016 
L 158.791641 529.485829 
L 161.378086 529.954643 
L 163.964531 531.568918 
L 166.550977 532.176494 
L 169.137422 530.404228 
L 171.723867 531.450762 
L 174.310313 533.142626 
L 176.896758 532.116279 
L 179.483203 531.628324 
L 182.069648 532.198056 
L 184.656094 533.173697 
L 187.242539 532.85379 
L 189.828984 533.393012 
L 192.41543 534.364683 
L 195.001875 532.342869 
L 197.58832 531.324015 
L 200.174766 532.310834 
L 202.761211 530.90756 
L 205.347656 533.281318 
L 207.934102 534.088157 
L 210.520547 532.550583 
L 213.106992 532.986732 
L 215.693438 531.418002 
L 218.279883 531.301604 
L 220.866328 532.050544 
L 223.452773 533.491164 
L 226.039219 533.317703 
L 228.625664 532.967603 
L 231.212109 531.976257 
L 233.798555 530.108186 
L 236.385 531.708737 
L 238.971445 531.901042 
L 241.557891 532.78935 
L 244.144336 534.075658 
L 246.730781 534.814523 
L 249.317227 533.245023 
L 251.903672 529.100765 
L 254.490117 530.188084 
" style="fill:none;stroke:#0000ff;stroke-linecap:square;"/>
   </g>
   <g id="patch_13">
    <path d="M 50.160938 294.639062 
L 257.076563 294.639062 
" style="fill:none;stroke:#000000;stroke-linecap:square;stroke-linejoin:miter;"/>
   </g>
   <g id="patch_14">
    <path d="M 257.076562 534.939062 
L 257.076562 294.639062 
" style="fill:none;stroke:#000000;stroke-linecap:square;stroke-linejoin:miter;"/>
   </g>
   <g id="patch_15">
    <path d="M 50.160938 534.939062 
L 257.076563 534.939062 
" style="fill:none;stroke:#000000;stroke-linecap:square;stroke-linejoin:miter;"/>
   </g>
   <g id="patch_16">
    <path d="M 50.160938 534.939062 
L 50.160938 294.639062 
" style="fill:none;stroke:#000000;stroke-linecap:square;stroke-linejoin:miter;"/>
   </g>
   <g id="matplotlib.axis_5">
    <g id="xtick_15">
     <g id="line2d_64">
      <g>
       <use style="stroke:#000000;stroke-width:0.5;" x="50.1609375" xlink:href="#m53c26eacb0" y="534.9390625"/>
      </g>
     </g>
     <g id="line2d_65">
      <g>
       <use style="stroke:#000000;stroke-width:0.5;" x="50.1609375" xlink:href="#ma6948d9d98" y="294.6390625"/>
      </g>
     </g>
     <g id="text_37">
      <!-- 0.0 -->
      <g transform="translate(42.209375 546.5375)scale(0.1 -0.1)">
       <use xlink:href="#BitstreamVeraSans-Roman-30"/>
       <use x="63.623046875" xlink:href="#BitstreamVeraSans-Roman-2e"/>
       <use x="95.41015625" xlink:href="#BitstreamVeraSans-Roman-30"/>
      </g>
     </g>
    </g>
    <g id="xtick_16">
     <g id="line2d_66">
      <g>
       <use style="stroke:#000000;stroke-width:0.5;" x="76.025390625" xlink:href="#m53c26eacb0" y="534.9390625"/>
      </g>
     </g>
     <g id="line2d_67">
      <g>
       <use style="stroke:#000000;stroke-width:0.5;" x="76.025390625" xlink:href="#ma6948d9d98" y="294.6390625"/>
      </g>
     </g>
     <g id="text_38">
      <!-- 0.1 -->
      <g transform="translate(68.073828125 546.5375)scale(0.1 -0.1)">
       <use xlink:href="#BitstreamVeraSans-Roman-30"/>
       <use x="63.623046875" xlink:href="#BitstreamVeraSans-Roman-2e"/>
       <use x="95.41015625" xlink:href="#BitstreamVeraSans-Roman-31"/>
      </g>
     </g>
    </g>
    <g id="xtick_17">
     <g id="line2d_68">
      <g>
       <use style="stroke:#000000;stroke-width:0.5;" x="101.88984375" xlink:href="#m53c26eacb0" y="534.9390625"/>
      </g>
     </g>
     <g id="line2d_69">
      <g>
       <use style="stroke:#000000;stroke-width:0.5;" x="101.88984375" xlink:href="#ma6948d9d98" y="294.6390625"/>
      </g>
     </g>
     <g id="text_39">
      <!-- 0.2 -->
      <g transform="translate(93.93828125 546.5375)scale(0.1 -0.1)">
       <use xlink:href="#BitstreamVeraSans-Roman-30"/>
       <use x="63.623046875" xlink:href="#BitstreamVeraSans-Roman-2e"/>
       <use x="95.41015625" xlink:href="#BitstreamVeraSans-Roman-32"/>
      </g>
     </g>
    </g>
    <g id="xtick_18">
     <g id="line2d_70">
      <g>
       <use style="stroke:#000000;stroke-width:0.5;" x="127.754296875" xlink:href="#m53c26eacb0" y="534.9390625"/>
      </g>
     </g>
     <g id="line2d_71">
      <g>
       <use style="stroke:#000000;stroke-width:0.5;" x="127.754296875" xlink:href="#ma6948d9d98" y="294.6390625"/>
      </g>
     </g>
     <g id="text_40">
      <!-- 0.3 -->
      <g transform="translate(119.802734375 546.5375)scale(0.1 -0.1)">
       <use xlink:href="#BitstreamVeraSans-Roman-30"/>
       <use x="63.623046875" xlink:href="#BitstreamVeraSans-Roman-2e"/>
       <use x="95.41015625" xlink:href="#BitstreamVeraSans-Roman-33"/>
      </g>
     </g>
    </g>
    <g id="xtick_19">
     <g id="line2d_72">
      <g>
       <use style="stroke:#000000;stroke-width:0.5;" x="153.61875" xlink:href="#m53c26eacb0" y="534.9390625"/>
      </g>
     </g>
     <g id="line2d_73">
      <g>
       <use style="stroke:#000000;stroke-width:0.5;" x="153.61875" xlink:href="#ma6948d9d98" y="294.6390625"/>
      </g>
     </g>
     <g id="text_41">
      <!-- 0.4 -->
      <g transform="translate(145.6671875 546.5375)scale(0.1 -0.1)">
       <use xlink:href="#BitstreamVeraSans-Roman-30"/>
       <use x="63.623046875" xlink:href="#BitstreamVeraSans-Roman-2e"/>
       <use x="95.41015625" xlink:href="#BitstreamVeraSans-Roman-34"/>
      </g>
     </g>
    </g>
    <g id="xtick_20">
     <g id="line2d_74">
      <g>
       <use style="stroke:#000000;stroke-width:0.5;" x="179.483203125" xlink:href="#m53c26eacb0" y="534.9390625"/>
      </g>
     </g>
     <g id="line2d_75">
      <g>
       <use style="stroke:#000000;stroke-width:0.5;" x="179.483203125" xlink:href="#ma6948d9d98" y="294.6390625"/>
      </g>
     </g>
     <g id="text_42">
      <!-- 0.5 -->
      <g transform="translate(171.531640625 546.5375)scale(0.1 -0.1)">
       <use xlink:href="#BitstreamVeraSans-Roman-30"/>
       <use x="63.623046875" xlink:href="#BitstreamVeraSans-Roman-2e"/>
       <use x="95.41015625" xlink:href="#BitstreamVeraSans-Roman-35"/>
      </g>
     </g>
    </g>
    <g id="xtick_21">
     <g id="line2d_76">
      <g>
       <use style="stroke:#000000;stroke-width:0.5;" x="205.34765625" xlink:href="#m53c26eacb0" y="534.9390625"/>
      </g>
     </g>
     <g id="line2d_77">
      <g>
       <use style="stroke:#000000;stroke-width:0.5;" x="205.34765625" xlink:href="#ma6948d9d98" y="294.6390625"/>
      </g>
     </g>
     <g id="text_43">
      <!-- 0.6 -->
      <g transform="translate(197.39609375 546.5375)scale(0.1 -0.1)">
       <use xlink:href="#BitstreamVeraSans-Roman-30"/>
       <use x="63.623046875" xlink:href="#BitstreamVeraSans-Roman-2e"/>
       <use x="95.41015625" xlink:href="#BitstreamVeraSans-Roman-36"/>
      </g>
     </g>
    </g>
    <g id="xtick_22">
     <g id="line2d_78">
      <g>
       <use style="stroke:#000000;stroke-width:0.5;" x="231.212109375" xlink:href="#m53c26eacb0" y="534.9390625"/>
      </g>
     </g>
     <g id="line2d_79">
      <g>
       <use style="stroke:#000000;stroke-width:0.5;" x="231.212109375" xlink:href="#ma6948d9d98" y="294.6390625"/>
      </g>
     </g>
     <g id="text_44">
      <!-- 0.7 -->
      <g transform="translate(223.260546875 546.5375)scale(0.1 -0.1)">
       <use xlink:href="#BitstreamVeraSans-Roman-30"/>
       <use x="63.623046875" xlink:href="#BitstreamVeraSans-Roman-2e"/>
       <use x="95.41015625" xlink:href="#BitstreamVeraSans-Roman-37"/>
      </g>
     </g>
    </g>
    <g id="xtick_23">
     <g id="line2d_80">
      <g>
       <use style="stroke:#000000;stroke-width:0.5;" x="257.0765625" xlink:href="#m53c26eacb0" y="534.9390625"/>
      </g>
     </g>
     <g id="line2d_81">
      <g>
       <use style="stroke:#000000;stroke-width:0.5;" x="257.0765625" xlink:href="#ma6948d9d98" y="294.6390625"/>
      </g>
     </g>
     <g id="text_45">
      <!-- 0.8 -->
      <g transform="translate(249.125 546.5375)scale(0.1 -0.1)">
       <use xlink:href="#BitstreamVeraSans-Roman-30"/>
       <use x="63.623046875" xlink:href="#BitstreamVeraSans-Roman-2e"/>
       <use x="95.41015625" xlink:href="#BitstreamVeraSans-Roman-38"/>
      </g>
     </g>
    </g>
    <g id="text_46">
     <!-- B (T) -->
     <g transform="translate(141.64375 561.215625)scale(0.1 -0.1)">
      <use xlink:href="#BitstreamVeraSans-Roman-42"/>
      <use x="68.603515625" xlink:href="#BitstreamVeraSans-Roman-20"/>
      <use x="100.390625" xlink:href="#BitstreamVeraSans-Roman-28"/>
      <use x="139.404296875" xlink:href="#BitstreamVeraSans-Roman-54"/>
      <use x="200.48828125" xlink:href="#BitstreamVeraSans-Roman-29"/>
     </g>
    </g>
   </g>
   <g id="matplotlib.axis_6">
    <g id="ytick_15">
     <g id="line2d_82">
      <g>
       <use style="stroke:#000000;stroke-width:0.5;" x="50.1609375" xlink:href="#m4fb458e880" y="534.9390625"/>
      </g>
     </g>
     <g id="line2d_83">
      <g>
       <use style="stroke:#000000;stroke-width:0.5;" x="257.0765625" xlink:href="#m005a642abe" y="534.9390625"/>
      </g>
     </g>
     <g id="text_47">
      <!-- 0.0 -->
      <g transform="translate(30.2578125 537.6984375)scale(0.1 -0.1)">
       <use xlink:href="#BitstreamVeraSans-Roman-30"/>
       <use x="63.623046875" xlink:href="#BitstreamVeraSans-Roman-2e"/>
       <use x="95.41015625" xlink:href="#BitstreamVeraSans-Roman-30"/>
      </g>
     </g>
    </g>
    <g id="ytick_16">
     <g id="line2d_84">
      <g>
       <use style="stroke:#000000;stroke-width:0.5;" x="50.1609375" xlink:href="#m4fb458e880" y="508.2390625"/>
      </g>
     </g>
     <g id="line2d_85">
      <g>
       <use style="stroke:#000000;stroke-width:0.5;" x="257.0765625" xlink:href="#m005a642abe" y="508.2390625"/>
      </g>
     </g>
     <g id="text_48">
      <!-- 0.5 -->
      <g transform="translate(30.2578125 510.9984375)scale(0.1 -0.1)">
       <use xlink:href="#BitstreamVeraSans-Roman-30"/>
       <use x="63.623046875" xlink:href="#BitstreamVeraSans-Roman-2e"/>
       <use x="95.41015625" xlink:href="#BitstreamVeraSans-Roman-35"/>
      </g>
     </g>
    </g>
    <g id="ytick_17">
     <g id="line2d_86">
      <g>
       <use style="stroke:#000000;stroke-width:0.5;" x="50.1609375" xlink:href="#m4fb458e880" y="481.5390625"/>
      </g>
     </g>
     <g id="line2d_87">
      <g>
       <use style="stroke:#000000;stroke-width:0.5;" x="257.0765625" xlink:href="#m005a642abe" y="481.5390625"/>
      </g>
     </g>
     <g id="text_49">
      <!-- 1.0 -->
      <g transform="translate(30.2578125 484.2984375)scale(0.1 -0.1)">
       <use xlink:href="#BitstreamVeraSans-Roman-31"/>
       <use x="63.623046875" xlink:href="#BitstreamVeraSans-Roman-2e"/>
       <use x="95.41015625" xlink:href="#BitstreamVeraSans-Roman-30"/>
      </g>
     </g>
    </g>
    <g id="ytick_18">
     <g id="line2d_88">
      <g>
       <use style="stroke:#000000;stroke-width:0.5;" x="50.1609375" xlink:href="#m4fb458e880" y="454.8390625"/>
      </g>
     </g>
     <g id="line2d_89">
      <g>
       <use style="stroke:#000000;stroke-width:0.5;" x="257.0765625" xlink:href="#m005a642abe" y="454.8390625"/>
      </g>
     </g>
     <g id="text_50">
      <!-- 1.5 -->
      <g transform="translate(30.2578125 457.5984375)scale(0.1 -0.1)">
       <use xlink:href="#BitstreamVeraSans-Roman-31"/>
       <use x="63.623046875" xlink:href="#BitstreamVeraSans-Roman-2e"/>
       <use x="95.41015625" xlink:href="#BitstreamVeraSans-Roman-35"/>
      </g>
     </g>
    </g>
    <g id="ytick_19">
     <g id="line2d_90">
      <g>
       <use style="stroke:#000000;stroke-width:0.5;" x="50.1609375" xlink:href="#m4fb458e880" y="428.1390625"/>
      </g>
     </g>
     <g id="line2d_91">
      <g>
       <use style="stroke:#000000;stroke-width:0.5;" x="257.0765625" xlink:href="#m005a642abe" y="428.1390625"/>
      </g>
     </g>
     <g id="text_51">
      <!-- 2.0 -->
      <g transform="translate(30.2578125 430.8984375)scale(0.1 -0.1)">
       <use xlink:href="#BitstreamVeraSans-Roman-32"/>
       <use x="63.623046875" xlink:href="#BitstreamVeraSans-Roman-2e"/>
       <use x="95.41015625" xlink:href="#BitstreamVeraSans-Roman-30"/>
      </g>
     </g>
    </g>
    <g id="ytick_20">
     <g id="line2d_92">
      <g>
       <use style="stroke:#000000;stroke-width:0.5;" x="50.1609375" xlink:href="#m4fb458e880" y="401.4390625"/>
      </g>
     </g>
     <g id="line2d_93">
      <g>
       <use style="stroke:#000000;stroke-width:0.5;" x="257.0765625" xlink:href="#m005a642abe" y="401.4390625"/>
      </g>
     </g>
     <g id="text_52">
      <!-- 2.5 -->
      <g transform="translate(30.2578125 404.1984375)scale(0.1 -0.1)">
       <use xlink:href="#BitstreamVeraSans-Roman-32"/>
       <use x="63.623046875" xlink:href="#BitstreamVeraSans-Roman-2e"/>
       <use x="95.41015625" xlink:href="#BitstreamVeraSans-Roman-35"/>
      </g>
     </g>
    </g>
    <g id="ytick_21">
     <g id="line2d_94">
      <g>
       <use style="stroke:#000000;stroke-width:0.5;" x="50.1609375" xlink:href="#m4fb458e880" y="374.7390625"/>
      </g>
     </g>
     <g id="line2d_95">
      <g>
       <use style="stroke:#000000;stroke-width:0.5;" x="257.0765625" xlink:href="#m005a642abe" y="374.7390625"/>
      </g>
     </g>
     <g id="text_53">
      <!-- 3.0 -->
      <g transform="translate(30.2578125 377.4984375)scale(0.1 -0.1)">
       <use xlink:href="#BitstreamVeraSans-Roman-33"/>
       <use x="63.623046875" xlink:href="#BitstreamVeraSans-Roman-2e"/>
       <use x="95.41015625" xlink:href="#BitstreamVeraSans-Roman-30"/>
      </g>
     </g>
    </g>
    <g id="ytick_22">
     <g id="line2d_96">
      <g>
       <use style="stroke:#000000;stroke-width:0.5;" x="50.1609375" xlink:href="#m4fb458e880" y="348.0390625"/>
      </g>
     </g>
     <g id="line2d_97">
      <g>
       <use style="stroke:#000000;stroke-width:0.5;" x="257.0765625" xlink:href="#m005a642abe" y="348.0390625"/>
      </g>
     </g>
     <g id="text_54">
      <!-- 3.5 -->
      <g transform="translate(30.2578125 350.7984375)scale(0.1 -0.1)">
       <use xlink:href="#BitstreamVeraSans-Roman-33"/>
       <use x="63.623046875" xlink:href="#BitstreamVeraSans-Roman-2e"/>
       <use x="95.41015625" xlink:href="#BitstreamVeraSans-Roman-35"/>
      </g>
     </g>
    </g>
    <g id="ytick_23">
     <g id="line2d_98">
      <g>
       <use style="stroke:#000000;stroke-width:0.5;" x="50.1609375" xlink:href="#m4fb458e880" y="321.3390625"/>
      </g>
     </g>
     <g id="line2d_99">
      <g>
       <use style="stroke:#000000;stroke-width:0.5;" x="257.0765625" xlink:href="#m005a642abe" y="321.3390625"/>
      </g>
     </g>
     <g id="text_55">
      <!-- 4.0 -->
      <g transform="translate(30.2578125 324.0984375)scale(0.1 -0.1)">
       <use xlink:href="#BitstreamVeraSans-Roman-34"/>
       <use x="63.623046875" xlink:href="#BitstreamVeraSans-Roman-2e"/>
       <use x="95.41015625" xlink:href="#BitstreamVeraSans-Roman-30"/>
      </g>
     </g>
    </g>
    <g id="ytick_24">
     <g id="line2d_100">
      <g>
       <use style="stroke:#000000;stroke-width:0.5;" x="50.1609375" xlink:href="#m4fb458e880" y="294.6390625"/>
      </g>
     </g>
     <g id="line2d_101">
      <g>
       <use style="stroke:#000000;stroke-width:0.5;" x="257.0765625" xlink:href="#m005a642abe" y="294.6390625"/>
      </g>
     </g>
     <g id="text_56">
      <!-- 4.5 -->
      <g transform="translate(30.2578125 297.3984375)scale(0.1 -0.1)">
       <use xlink:href="#BitstreamVeraSans-Roman-34"/>
       <use x="63.623046875" xlink:href="#BitstreamVeraSans-Roman-2e"/>
       <use x="95.41015625" xlink:href="#BitstreamVeraSans-Roman-35"/>
      </g>
     </g>
    </g>
    <g id="text_57">
     <!-- d (Delta M)/dB -->
     <defs>
      <path d="M 45.40625 46.390625 
L 45.40625 75.984375 
L 54.390625 75.984375 
L 54.390625 0 
L 45.40625 0 
L 45.40625 8.203125 
Q 42.578125 3.328125 38.25 0.953125 
Q 33.9375 -1.421875 27.875 -1.421875 
Q 17.96875 -1.421875 11.734375 6.484375 
Q 5.515625 14.40625 5.515625 27.296875 
Q 5.515625 40.1875 11.734375 48.09375 
Q 17.96875 56 27.875 56 
Q 33.9375 56 38.25 53.625 
Q 42.578125 51.265625 45.40625 46.390625 
M 14.796875 27.296875 
Q 14.796875 17.390625 18.875 11.75 
Q 22.953125 6.109375 30.078125 6.109375 
Q 37.203125 6.109375 41.296875 11.75 
Q 45.40625 17.390625 45.40625 27.296875 
Q 45.40625 37.203125 41.296875 42.84375 
Q 37.203125 48.484375 30.078125 48.484375 
Q 22.953125 48.484375 18.875 42.84375 
Q 14.796875 37.203125 14.796875 27.296875 
" id="BitstreamVeraSans-Roman-64"/>
     </defs>
     <g transform="translate(23.178125 450.9859375)rotate(-90.0)scale(0.1 -0.1)">
      <use xlink:href="#BitstreamVeraSans-Roman-64"/>
      <use x="63.4765625" xlink:href="#BitstreamVeraSans-Roman-20"/>
      <use x="95.263671875" xlink:href="#BitstreamVeraSans-Roman-28"/>
      <use x="134.27734375" xlink:href="#BitstreamVeraSans-Roman-44"/>
      <use x="211.279296875" xlink:href="#BitstreamVeraSans-Roman-65"/>
      <use x="272.802734375" xlink:href="#BitstreamVeraSans-Roman-6c"/>
      <use x="300.5859375" xlink:href="#BitstreamVeraSans-Roman-74"/>
      <use x="339.794921875" xlink:href="#BitstreamVeraSans-Roman-61"/>
      <use x="401.07421875" xlink:href="#BitstreamVeraSans-Roman-20"/>
      <use x="432.861328125" xlink:href="#BitstreamVeraSans-Roman-4d"/>
      <use x="519.140625" xlink:href="#BitstreamVeraSans-Roman-29"/>
      <use x="558.154296875" xlink:href="#BitstreamVeraSans-Roman-2f"/>
      <use x="591.845703125" xlink:href="#BitstreamVeraSans-Roman-64"/>
      <use x="655.322265625" xlink:href="#BitstreamVeraSans-Roman-42"/>
     </g>
    </g>
   </g>
  </g>
  <g id="axes_4">
   <g id="patch_17">
    <path d="M 343.870312 534.939062 
L 550.785937 534.939062 
L 550.785937 294.639062 
L 343.870312 294.639062 
z
" style="fill:#ffffff;"/>
   </g>
   <g id="line2d_102">
    <path clip-path="url(#p5f572ac816)" d="M 550.785937 299.244812 
L 545.957906 302.749187 
L 540.922959 307.955687 
L 536.071937 314.764187 
L 531.220916 323.274812 
L 526.346903 333.287312 
L 521.334947 345.001937 
L 516.483925 357.417437 
L 511.632903 370.633937 
L 506.597956 384.651437 
L 501.723944 398.168312 
L 496.895912 411.484937 
L 491.883956 424.601312 
L 487.009944 436.416062 
L 482.181912 447.129437 
L 477.3079 456.941687 
L 472.249962 465.952937 
L 467.421931 473.562437 
L 462.5939 480.170687 
L 457.535962 486.178187 
L 452.707931 491.084312 
L 447.833919 495.289562 
L 443.005887 498.994187 
L 437.94795 502.198187 
L 433.119919 504.801437 
L 428.245906 507.104312 
L 423.23395 509.006687 
L 418.359937 510.608687 
L 413.531906 512.010437 
L 408.51995 513.211937 
L 403.645937 514.213187 
L 398.817906 515.014187 
L 393.943894 515.715062 
L 388.931938 516.415937 
L 384.057925 516.916562 
L 379.229894 517.317062 
L 374.217937 517.817687 
L 369.343925 518.218187 
L 364.469912 518.518562 
L 359.641881 518.818937 
L 354.583944 519.019187 
L 349.755912 519.219437 
L 344.8819 519.319562 
" style="fill:none;stroke:#0000ff;stroke-linecap:square;"/>
   </g>
   <g id="line2d_103">
    <path clip-path="url(#p5f572ac816)" d="M 343.870312 414.789062 
L 550.785937 414.789062 
" style="fill:none;stroke:#000000;stroke-linecap:square;"/>
   </g>
   <g id="line2d_104">
    <path clip-path="url(#p5f572ac816)" d="M 550.785937 534.939062 
L 550.785937 294.639062 
" style="fill:none;stroke:#000000;stroke-linecap:square;"/>
   </g>
   <g id="patch_18">
    <path d="M 343.870312 294.639062 
L 550.785937 294.639062 
" style="fill:none;stroke:#000000;stroke-linecap:square;stroke-linejoin:miter;"/>
   </g>
   <g id="patch_19">
    <path d="M 550.785937 534.939062 
L 550.785937 294.639062 
" style="fill:none;stroke:#000000;stroke-linecap:square;stroke-linejoin:miter;"/>
   </g>
   <g id="patch_20">
    <path d="M 343.870312 534.939062 
L 550.785937 534.939062 
" style="fill:none;stroke:#000000;stroke-linecap:square;stroke-linejoin:miter;"/>
   </g>
   <g id="patch_21">
    <path d="M 343.870312 534.939062 
L 343.870312 294.639062 
" style="fill:none;stroke:#000000;stroke-linecap:square;stroke-linejoin:miter;"/>
   </g>
   <g id="matplotlib.axis_7">
    <g id="xtick_24">
     <g id="line2d_105">
      <g>
       <use style="stroke:#000000;stroke-width:0.5;" x="343.8703125" xlink:href="#m53c26eacb0" y="534.9390625"/>
      </g>
     </g>
     <g id="line2d_106">
      <g>
       <use style="stroke:#000000;stroke-width:0.5;" x="343.8703125" xlink:href="#ma6948d9d98" y="294.6390625"/>
      </g>
     </g>
     <g id="text_58">
      <!-- −0.45 -->
      <g transform="translate(328.54765625 546.5375)scale(0.1 -0.1)">
       <use xlink:href="#BitstreamVeraSans-Roman-2212"/>
       <use x="83.7890625" xlink:href="#BitstreamVeraSans-Roman-30"/>
       <use x="147.412109375" xlink:href="#BitstreamVeraSans-Roman-2e"/>
       <use x="179.19921875" xlink:href="#BitstreamVeraSans-Roman-34"/>
       <use x="242.822265625" xlink:href="#BitstreamVeraSans-Roman-35"/>
      </g>
     </g>
    </g>
    <g id="xtick_25">
     <g id="line2d_107">
      <g>
       <use style="stroke:#000000;stroke-width:0.5;" x="366.8609375" xlink:href="#m53c26eacb0" y="534.9390625"/>
      </g>
     </g>
     <g id="line2d_108">
      <g>
       <use style="stroke:#000000;stroke-width:0.5;" x="366.8609375" xlink:href="#ma6948d9d98" y="294.6390625"/>
      </g>
     </g>
     <g id="text_59">
      <!-- −0.40 -->
      <g transform="translate(351.53828125 546.5375)scale(0.1 -0.1)">
       <use xlink:href="#BitstreamVeraSans-Roman-2212"/>
       <use x="83.7890625" xlink:href="#BitstreamVeraSans-Roman-30"/>
       <use x="147.412109375" xlink:href="#BitstreamVeraSans-Roman-2e"/>
       <use x="179.19921875" xlink:href="#BitstreamVeraSans-Roman-34"/>
       <use x="242.822265625" xlink:href="#BitstreamVeraSans-Roman-30"/>
      </g>
     </g>
    </g>
    <g id="xtick_26">
     <g id="line2d_109">
      <g>
       <use style="stroke:#000000;stroke-width:0.5;" x="389.8515625" xlink:href="#m53c26eacb0" y="534.9390625"/>
      </g>
     </g>
     <g id="line2d_110">
      <g>
       <use style="stroke:#000000;stroke-width:0.5;" x="389.8515625" xlink:href="#ma6948d9d98" y="294.6390625"/>
      </g>
     </g>
     <g id="text_60">
      <!-- −0.35 -->
      <g transform="translate(374.52890625 546.5375)scale(0.1 -0.1)">
       <use xlink:href="#BitstreamVeraSans-Roman-2212"/>
       <use x="83.7890625" xlink:href="#BitstreamVeraSans-Roman-30"/>
       <use x="147.412109375" xlink:href="#BitstreamVeraSans-Roman-2e"/>
       <use x="179.19921875" xlink:href="#BitstreamVeraSans-Roman-33"/>
       <use x="242.822265625" xlink:href="#BitstreamVeraSans-Roman-35"/>
      </g>
     </g>
    </g>
    <g id="xtick_27">
     <g id="line2d_111">
      <g>
       <use style="stroke:#000000;stroke-width:0.5;" x="412.8421875" xlink:href="#m53c26eacb0" y="534.9390625"/>
      </g>
     </g>
     <g id="line2d_112">
      <g>
       <use style="stroke:#000000;stroke-width:0.5;" x="412.8421875" xlink:href="#ma6948d9d98" y="294.6390625"/>
      </g>
     </g>
     <g id="text_61">
      <!-- −0.30 -->
      <g transform="translate(397.51953125 546.5375)scale(0.1 -0.1)">
       <use xlink:href="#BitstreamVeraSans-Roman-2212"/>
       <use x="83.7890625" xlink:href="#BitstreamVeraSans-Roman-30"/>
       <use x="147.412109375" xlink:href="#BitstreamVeraSans-Roman-2e"/>
       <use x="179.19921875" xlink:href="#BitstreamVeraSans-Roman-33"/>
       <use x="242.822265625" xlink:href="#BitstreamVeraSans-Roman-30"/>
      </g>
     </g>
    </g>
    <g id="xtick_28">
     <g id="line2d_113">
      <g>
       <use style="stroke:#000000;stroke-width:0.5;" x="435.8328125" xlink:href="#m53c26eacb0" y="534.9390625"/>
      </g>
     </g>
     <g id="line2d_114">
      <g>
       <use style="stroke:#000000;stroke-width:0.5;" x="435.8328125" xlink:href="#ma6948d9d98" y="294.6390625"/>
      </g>
     </g>
     <g id="text_62">
      <!-- −0.25 -->
      <g transform="translate(420.51015625 546.5375)scale(0.1 -0.1)">
       <use xlink:href="#BitstreamVeraSans-Roman-2212"/>
       <use x="83.7890625" xlink:href="#BitstreamVeraSans-Roman-30"/>
       <use x="147.412109375" xlink:href="#BitstreamVeraSans-Roman-2e"/>
       <use x="179.19921875" xlink:href="#BitstreamVeraSans-Roman-32"/>
       <use x="242.822265625" xlink:href="#BitstreamVeraSans-Roman-35"/>
      </g>
     </g>
    </g>
    <g id="xtick_29">
     <g id="line2d_115">
      <g>
       <use style="stroke:#000000;stroke-width:0.5;" x="458.8234375" xlink:href="#m53c26eacb0" y="534.9390625"/>
      </g>
     </g>
     <g id="line2d_116">
      <g>
       <use style="stroke:#000000;stroke-width:0.5;" x="458.8234375" xlink:href="#ma6948d9d98" y="294.6390625"/>
      </g>
     </g>
     <g id="text_63">
      <!-- −0.20 -->
      <g transform="translate(443.50078125 546.5375)scale(0.1 -0.1)">
       <use xlink:href="#BitstreamVeraSans-Roman-2212"/>
       <use x="83.7890625" xlink:href="#BitstreamVeraSans-Roman-30"/>
       <use x="147.412109375" xlink:href="#BitstreamVeraSans-Roman-2e"/>
       <use x="179.19921875" xlink:href="#BitstreamVeraSans-Roman-32"/>
       <use x="242.822265625" xlink:href="#BitstreamVeraSans-Roman-30"/>
      </g>
     </g>
    </g>
    <g id="xtick_30">
     <g id="line2d_117">
      <g>
       <use style="stroke:#000000;stroke-width:0.5;" x="481.8140625" xlink:href="#m53c26eacb0" y="534.9390625"/>
      </g>
     </g>
     <g id="line2d_118">
      <g>
       <use style="stroke:#000000;stroke-width:0.5;" x="481.8140625" xlink:href="#ma6948d9d98" y="294.6390625"/>
      </g>
     </g>
     <g id="text_64">
      <!-- −0.15 -->
      <g transform="translate(466.49140625 546.5375)scale(0.1 -0.1)">
       <use xlink:href="#BitstreamVeraSans-Roman-2212"/>
       <use x="83.7890625" xlink:href="#BitstreamVeraSans-Roman-30"/>
       <use x="147.412109375" xlink:href="#BitstreamVeraSans-Roman-2e"/>
       <use x="179.19921875" xlink:href="#BitstreamVeraSans-Roman-31"/>
       <use x="242.822265625" xlink:href="#BitstreamVeraSans-Roman-35"/>
      </g>
     </g>
    </g>
    <g id="xtick_31">
     <g id="line2d_119">
      <g>
       <use style="stroke:#000000;stroke-width:0.5;" x="504.8046875" xlink:href="#m53c26eacb0" y="534.9390625"/>
      </g>
     </g>
     <g id="line2d_120">
      <g>
       <use style="stroke:#000000;stroke-width:0.5;" x="504.8046875" xlink:href="#ma6948d9d98" y="294.6390625"/>
      </g>
     </g>
     <g id="text_65">
      <!-- −0.10 -->
      <g transform="translate(489.48203125 546.5375)scale(0.1 -0.1)">
       <use xlink:href="#BitstreamVeraSans-Roman-2212"/>
       <use x="83.7890625" xlink:href="#BitstreamVeraSans-Roman-30"/>
       <use x="147.412109375" xlink:href="#BitstreamVeraSans-Roman-2e"/>
       <use x="179.19921875" xlink:href="#BitstreamVeraSans-Roman-31"/>
       <use x="242.822265625" xlink:href="#BitstreamVeraSans-Roman-30"/>
      </g>
     </g>
    </g>
    <g id="xtick_32">
     <g id="line2d_121">
      <g>
       <use style="stroke:#000000;stroke-width:0.5;" x="527.7953125" xlink:href="#m53c26eacb0" y="534.9390625"/>
      </g>
     </g>
     <g id="line2d_122">
      <g>
       <use style="stroke:#000000;stroke-width:0.5;" x="527.7953125" xlink:href="#ma6948d9d98" y="294.6390625"/>
      </g>
     </g>
     <g id="text_66">
      <!-- −0.05 -->
      <g transform="translate(512.47265625 546.5375)scale(0.1 -0.1)">
       <use xlink:href="#BitstreamVeraSans-Roman-2212"/>
       <use x="83.7890625" xlink:href="#BitstreamVeraSans-Roman-30"/>
       <use x="147.412109375" xlink:href="#BitstreamVeraSans-Roman-2e"/>
       <use x="179.19921875" xlink:href="#BitstreamVeraSans-Roman-30"/>
       <use x="242.822265625" xlink:href="#BitstreamVeraSans-Roman-35"/>
      </g>
     </g>
    </g>
    <g id="xtick_33">
     <g id="line2d_123">
      <g>
       <use style="stroke:#000000;stroke-width:0.5;" x="550.7859375" xlink:href="#m53c26eacb0" y="534.9390625"/>
      </g>
     </g>
     <g id="line2d_124">
      <g>
       <use style="stroke:#000000;stroke-width:0.5;" x="550.7859375" xlink:href="#ma6948d9d98" y="294.6390625"/>
      </g>
     </g>
     <g id="text_67">
      <!-- 0.00 -->
      <g transform="translate(539.653125 546.5375)scale(0.1 -0.1)">
       <use xlink:href="#BitstreamVeraSans-Roman-30"/>
       <use x="63.623046875" xlink:href="#BitstreamVeraSans-Roman-2e"/>
       <use x="95.41015625" xlink:href="#BitstreamVeraSans-Roman-30"/>
       <use x="159.033203125" xlink:href="#BitstreamVeraSans-Roman-30"/>
      </g>
     </g>
    </g>
    <g id="text_68">
     <!-- B (T) -->
     <g transform="translate(435.353125 561.215625)scale(0.1 -0.1)">
      <use xlink:href="#BitstreamVeraSans-Roman-42"/>
      <use x="68.603515625" xlink:href="#BitstreamVeraSans-Roman-20"/>
      <use x="100.390625" xlink:href="#BitstreamVeraSans-Roman-28"/>
      <use x="139.404296875" xlink:href="#BitstreamVeraSans-Roman-54"/>
      <use x="200.48828125" xlink:href="#BitstreamVeraSans-Roman-29"/>
     </g>
    </g>
   </g>
   <g id="matplotlib.axis_8">
    <g id="ytick_25">
     <g id="line2d_125">
      <g>
       <use style="stroke:#000000;stroke-width:0.5;" x="343.8703125" xlink:href="#m4fb458e880" y="534.9390625"/>
      </g>
     </g>
     <g id="line2d_126">
      <g>
       <use style="stroke:#000000;stroke-width:0.5;" x="550.7859375" xlink:href="#m005a642abe" y="534.9390625"/>
      </g>
     </g>
     <g id="text_69">
      <!-- -6.00e-07 -->
      <g transform="translate(291.5109375 537.6984375)scale(0.1 -0.1)">
       <use xlink:href="#BitstreamVeraSans-Roman-2d"/>
       <use x="36.083984375" xlink:href="#BitstreamVeraSans-Roman-36"/>
       <use x="99.70703125" xlink:href="#BitstreamVeraSans-Roman-2e"/>
       <use x="131.494140625" xlink:href="#BitstreamVeraSans-Roman-30"/>
       <use x="195.1171875" xlink:href="#BitstreamVeraSans-Roman-30"/>
       <use x="258.740234375" xlink:href="#BitstreamVeraSans-Roman-65"/>
       <use x="320.263671875" xlink:href="#BitstreamVeraSans-Roman-2d"/>
       <use x="356.34765625" xlink:href="#BitstreamVeraSans-Roman-30"/>
       <use x="419.970703125" xlink:href="#BitstreamVeraSans-Roman-37"/>
      </g>
     </g>
    </g>
    <g id="ytick_26">
     <g id="line2d_127">
      <g>
       <use style="stroke:#000000;stroke-width:0.5;" x="343.8703125" xlink:href="#m4fb458e880" y="494.8890625"/>
      </g>
     </g>
     <g id="line2d_128">
      <g>
       <use style="stroke:#000000;stroke-width:0.5;" x="550.7859375" xlink:href="#m005a642abe" y="494.8890625"/>
      </g>
     </g>
     <g id="text_70">
      <!-- -4.00e-07 -->
      <g transform="translate(291.5109375 497.6484375)scale(0.1 -0.1)">
       <use xlink:href="#BitstreamVeraSans-Roman-2d"/>
       <use x="36.083984375" xlink:href="#BitstreamVeraSans-Roman-34"/>
       <use x="99.70703125" xlink:href="#BitstreamVeraSans-Roman-2e"/>
       <use x="131.494140625" xlink:href="#BitstreamVeraSans-Roman-30"/>
       <use x="195.1171875" xlink:href="#BitstreamVeraSans-Roman-30"/>
       <use x="258.740234375" xlink:href="#BitstreamVeraSans-Roman-65"/>
       <use x="320.263671875" xlink:href="#BitstreamVeraSans-Roman-2d"/>
       <use x="356.34765625" xlink:href="#BitstreamVeraSans-Roman-30"/>
       <use x="419.970703125" xlink:href="#BitstreamVeraSans-Roman-37"/>
      </g>
     </g>
    </g>
    <g id="ytick_27">
     <g id="line2d_129">
      <g>
       <use style="stroke:#000000;stroke-width:0.5;" x="343.8703125" xlink:href="#m4fb458e880" y="454.8390625"/>
      </g>
     </g>
     <g id="line2d_130">
      <g>
       <use style="stroke:#000000;stroke-width:0.5;" x="550.7859375" xlink:href="#m005a642abe" y="454.8390625"/>
      </g>
     </g>
     <g id="text_71">
      <!-- -2.00e-07 -->
      <g transform="translate(291.5109375 457.5984375)scale(0.1 -0.1)">
       <use xlink:href="#BitstreamVeraSans-Roman-2d"/>
       <use x="36.083984375" xlink:href="#BitstreamVeraSans-Roman-32"/>
       <use x="99.70703125" xlink:href="#BitstreamVeraSans-Roman-2e"/>
       <use x="131.494140625" xlink:href="#BitstreamVeraSans-Roman-30"/>
       <use x="195.1171875" xlink:href="#BitstreamVeraSans-Roman-30"/>
       <use x="258.740234375" xlink:href="#BitstreamVeraSans-Roman-65"/>
       <use x="320.263671875" xlink:href="#BitstreamVeraSans-Roman-2d"/>
       <use x="356.34765625" xlink:href="#BitstreamVeraSans-Roman-30"/>
       <use x="419.970703125" xlink:href="#BitstreamVeraSans-Roman-37"/>
      </g>
     </g>
    </g>
    <g id="ytick_28">
     <g id="line2d_131">
      <g>
       <use style="stroke:#000000;stroke-width:0.5;" x="343.8703125" xlink:href="#m4fb458e880" y="414.7890625"/>
      </g>
     </g>
     <g id="line2d_132">
      <g>
       <use style="stroke:#000000;stroke-width:0.5;" x="550.7859375" xlink:href="#m005a642abe" y="414.7890625"/>
      </g>
     </g>
     <g id="text_72">
      <!-- 0.00e+00 -->
      <defs>
       <path d="M 46 62.703125 
L 46 35.5 
L 73.1875 35.5 
L 73.1875 27.203125 
L 46 27.203125 
L 46 0 
L 37.796875 0 
L 37.796875 27.203125 
L 10.59375 27.203125 
L 10.59375 35.5 
L 37.796875 35.5 
L 37.796875 62.703125 
z
" id="BitstreamVeraSans-Roman-2b"/>
      </defs>
      <g transform="translate(290.346875 417.5484375)scale(0.1 -0.1)">
       <use xlink:href="#BitstreamVeraSans-Roman-30"/>
       <use x="63.623046875" xlink:href="#BitstreamVeraSans-Roman-2e"/>
       <use x="95.41015625" xlink:href="#BitstreamVeraSans-Roman-30"/>
       <use x="159.033203125" xlink:href="#BitstreamVeraSans-Roman-30"/>
       <use x="222.65625" xlink:href="#BitstreamVeraSans-Roman-65"/>
       <use x="284.1796875" xlink:href="#BitstreamVeraSans-Roman-2b"/>
       <use x="367.96875" xlink:href="#BitstreamVeraSans-Roman-30"/>
       <use x="431.591796875" xlink:href="#BitstreamVeraSans-Roman-30"/>
      </g>
     </g>
    </g>
    <g id="ytick_29">
     <g id="line2d_133">
      <g>
       <use style="stroke:#000000;stroke-width:0.5;" x="343.8703125" xlink:href="#m4fb458e880" y="374.7390625"/>
      </g>
     </g>
     <g id="line2d_134">
      <g>
       <use style="stroke:#000000;stroke-width:0.5;" x="550.7859375" xlink:href="#m005a642abe" y="374.7390625"/>
      </g>
     </g>
     <g id="text_73">
      <!-- 2.00e-07 -->
      <g transform="translate(295.11875 377.4984375)scale(0.1 -0.1)">
       <use xlink:href="#BitstreamVeraSans-Roman-32"/>
       <use x="63.623046875" xlink:href="#BitstreamVeraSans-Roman-2e"/>
       <use x="95.41015625" xlink:href="#BitstreamVeraSans-Roman-30"/>
       <use x="159.033203125" xlink:href="#BitstreamVeraSans-Roman-30"/>
       <use x="222.65625" xlink:href="#BitstreamVeraSans-Roman-65"/>
       <use x="284.1796875" xlink:href="#BitstreamVeraSans-Roman-2d"/>
       <use x="320.263671875" xlink:href="#BitstreamVeraSans-Roman-30"/>
       <use x="383.88671875" xlink:href="#BitstreamVeraSans-Roman-37"/>
      </g>
     </g>
    </g>
    <g id="ytick_30">
     <g id="line2d_135">
      <g>
       <use style="stroke:#000000;stroke-width:0.5;" x="343.8703125" xlink:href="#m4fb458e880" y="334.6890625"/>
      </g>
     </g>
     <g id="line2d_136">
      <g>
       <use style="stroke:#000000;stroke-width:0.5;" x="550.7859375" xlink:href="#m005a642abe" y="334.6890625"/>
      </g>
     </g>
     <g id="text_74">
      <!-- 4.00e-07 -->
      <g transform="translate(295.11875 337.4484375)scale(0.1 -0.1)">
       <use xlink:href="#BitstreamVeraSans-Roman-34"/>
       <use x="63.623046875" xlink:href="#BitstreamVeraSans-Roman-2e"/>
       <use x="95.41015625" xlink:href="#BitstreamVeraSans-Roman-30"/>
       <use x="159.033203125" xlink:href="#BitstreamVeraSans-Roman-30"/>
       <use x="222.65625" xlink:href="#BitstreamVeraSans-Roman-65"/>
       <use x="284.1796875" xlink:href="#BitstreamVeraSans-Roman-2d"/>
       <use x="320.263671875" xlink:href="#BitstreamVeraSans-Roman-30"/>
       <use x="383.88671875" xlink:href="#BitstreamVeraSans-Roman-37"/>
      </g>
     </g>
    </g>
    <g id="ytick_31">
     <g id="line2d_137">
      <g>
       <use style="stroke:#000000;stroke-width:0.5;" x="343.8703125" xlink:href="#m4fb458e880" y="294.6390625"/>
      </g>
     </g>
     <g id="line2d_138">
      <g>
       <use style="stroke:#000000;stroke-width:0.5;" x="550.7859375" xlink:href="#m005a642abe" y="294.6390625"/>
      </g>
     </g>
     <g id="text_75">
      <!-- 6.00e-07 -->
      <g transform="translate(295.11875 297.3984375)scale(0.1 -0.1)">
       <use xlink:href="#BitstreamVeraSans-Roman-36"/>
       <use x="63.623046875" xlink:href="#BitstreamVeraSans-Roman-2e"/>
       <use x="95.41015625" xlink:href="#BitstreamVeraSans-Roman-30"/>
       <use x="159.033203125" xlink:href="#BitstreamVeraSans-Roman-30"/>
       <use x="222.65625" xlink:href="#BitstreamVeraSans-Roman-65"/>
       <use x="284.1796875" xlink:href="#BitstreamVeraSans-Roman-2d"/>
       <use x="320.263671875" xlink:href="#BitstreamVeraSans-Roman-30"/>
       <use x="383.88671875" xlink:href="#BitstreamVeraSans-Roman-37"/>
      </g>
     </g>
    </g>
    <g id="text_76">
     <!-- M/Mr -->
     <g transform="translate(283.2671875 427.15703125)rotate(-90.0)scale(0.1 -0.1)">
      <use xlink:href="#BitstreamVeraSans-Roman-4d"/>
      <use x="86.279296875" xlink:href="#BitstreamVeraSans-Roman-2f"/>
      <use x="119.970703125" xlink:href="#BitstreamVeraSans-Roman-4d"/>
      <use x="206.25" xlink:href="#BitstreamVeraSans-Roman-72"/>
     </g>
    </g>
   </g>
  </g>
 </g>
 <defs>
  <clipPath id="p5f572ac816">
   <rect height="240.3" width="206.915625" x="343.8703125" y="294.6390625"/>
  </clipPath>
  <clipPath id="p15c43c9f45">
   <rect height="240.3" width="206.915625" x="50.1609375" y="12.0390625"/>
  </clipPath>
  <clipPath id="p8ea84f6380">
   <rect height="240.3" width="206.915625" x="343.8703125" y="12.0390625"/>
  </clipPath>
  <clipPath id="p29d7384235">
   <rect height="240.3" width="206.915625" x="50.1609375" y="294.6390625"/>
  </clipPath>
 </defs>
</svg>
