<?xml version="1.0" encoding="utf-8" standalone="no"?>
<!DOCTYPE svg PUBLIC "-//W3C//DTD SVG 1.1//EN"
  "http://www.w3.org/Graphics/SVG/1.1/DTD/svg11.dtd">
<!-- Created with matplotlib (http://matplotlib.org/) -->
<svg height="335pt" version="1.1" viewBox="0 0 337 335" width="337pt" xmlns="http://www.w3.org/2000/svg" xmlns:xlink="http://www.w3.org/1999/xlink">
 <defs>
  <style type="text/css">
*{stroke-linecap:butt;stroke-linejoin:round;stroke-miterlimit:100000;}
  </style>
 </defs>
 <g id="figure_1">
  <g id="patch_1">
   <path d="M 0 335.874375 
L 337.525 335.874375 
L 337.525 0 
L 0 0 
L 0 335.874375 
z
" style="fill:none;"/>
  </g>
  <g id="axes_1">
   <g id="patch_2">
    <path d="M 41.78125 300.318125 
L 320.78125 300.318125 
L 320.78125 21.318125 
L 41.78125 21.318125 
z
" style="fill:#ffffff;"/>
   </g>
   <g id="line2d_1">
    <path clip-path="url(#pe3a43e50b9)" d="M 45.65625 87.521515 
L 53.40625 30.775752 
L 57.28125 21.318125 
L 65.03125 52.528294 
L 72.78125 97.924905 
L 80.53125 139.538464 
L 88.28125 176.42321 
L 96.03125 204.796091 
L 103.78125 216.712701 
L 119.28125 237.424905 
L 134.78125 253.692023 
L 165.78125 270.242871 
L 196.78125 276.390328 
L 227.78125 284.334735 
L 266.53125 292.657447 
L 305.28125 289.631006 
" style="fill:none;stroke:#0000ff;stroke-linecap:square;"/>
   </g>
   <g id="line2d_2">
    <defs>
     <path d="M 0 3 
C 0.795609 3 1.55874 2.683901 2.12132 2.12132 
C 2.683901 1.55874 3 0.795609 3 0 
C 3 -0.795609 2.683901 -1.55874 2.12132 -2.12132 
C 1.55874 -2.683901 0.795609 -3 0 -3 
C -0.795609 -3 -1.55874 -2.683901 -2.12132 -2.12132 
C -2.683901 -1.55874 -3 -0.795609 -3 0 
C -3 0.795609 -2.683901 1.55874 -2.12132 2.12132 
C -1.55874 2.683901 -0.795609 3 0 3 
z
" id="m169cfa3e29" style="stroke:#000000;stroke-width:0.5;"/>
    </defs>
    <g clip-path="url(#pe3a43e50b9)">
     <use style="fill:#ff0000;stroke:#000000;stroke-width:0.5;" x="45.65625" xlink:href="#m169cfa3e29" y="87.5215148305"/>
     <use style="fill:#ff0000;stroke:#000000;stroke-width:0.5;" x="53.40625" xlink:href="#m169cfa3e29" y="30.7757521186"/>
     <use style="fill:#ff0000;stroke:#000000;stroke-width:0.5;" x="57.28125" xlink:href="#m169cfa3e29" y="21.318125"/>
     <use style="fill:#ff0000;stroke:#000000;stroke-width:0.5;" x="65.03125" xlink:href="#m169cfa3e29" y="52.5282944915"/>
     <use style="fill:#ff0000;stroke:#000000;stroke-width:0.5;" x="72.78125" xlink:href="#m169cfa3e29" y="97.924904661"/>
     <use style="fill:#ff0000;stroke:#000000;stroke-width:0.5;" x="80.53125" xlink:href="#m169cfa3e29" y="139.538463983"/>
     <use style="fill:#ff0000;stroke:#000000;stroke-width:0.5;" x="88.28125" xlink:href="#m169cfa3e29" y="176.423209746"/>
     <use style="fill:#ff0000;stroke:#000000;stroke-width:0.5;" x="96.03125" xlink:href="#m169cfa3e29" y="204.796091102"/>
     <use style="fill:#ff0000;stroke:#000000;stroke-width:0.5;" x="103.78125" xlink:href="#m169cfa3e29" y="216.712701271"/>
     <use style="fill:#ff0000;stroke:#000000;stroke-width:0.5;" x="119.28125" xlink:href="#m169cfa3e29" y="237.424904661"/>
     <use style="fill:#ff0000;stroke:#000000;stroke-width:0.5;" x="134.78125" xlink:href="#m169cfa3e29" y="253.692023305"/>
     <use style="fill:#ff0000;stroke:#000000;stroke-width:0.5;" x="165.78125" xlink:href="#m169cfa3e29" y="270.242870763"/>
     <use style="fill:#ff0000;stroke:#000000;stroke-width:0.5;" x="196.78125" xlink:href="#m169cfa3e29" y="276.39032839"/>
     <use style="fill:#ff0000;stroke:#000000;stroke-width:0.5;" x="227.78125" xlink:href="#m169cfa3e29" y="284.334735169"/>
     <use style="fill:#ff0000;stroke:#000000;stroke-width:0.5;" x="266.53125" xlink:href="#m169cfa3e29" y="292.657447034"/>
     <use style="fill:#ff0000;stroke:#000000;stroke-width:0.5;" x="305.28125" xlink:href="#m169cfa3e29" y="289.631006356"/>
    </g>
   </g>
   <g id="line2d_3">
    <path clip-path="url(#pe3a43e50b9)" d="M 45.65625 243.572362 
L 53.40625 243.572362 
L 53.40625 290.860498 
L 57.28125 290.860498 
L 57.28125 269.107956 
L 65.03125 269.107956 
L 65.03125 254.921515 
L 72.78125 254.921515 
L 72.78125 258.704566 
L 80.53125 258.704566 
L 80.53125 263.433379 
L 88.28125 263.433379 
L 88.28125 271.945244 
L 96.03125 271.945244 
L 96.03125 288.401515 
L 103.78125 288.401515 
L 103.78125 279.605922 
L 119.28125 279.605922 
L 119.28125 284.051006 
L 134.78125 284.051006 
L 134.78125 283.767278 
L 165.78125 283.767278 
L 165.78125 294.170667 
L 196.78125 294.170667 
L 196.78125 292.373718 
L 227.78125 292.373718 
L 227.78125 291.995413 
L 266.53125 291.995413 
L 266.53125 297.291684 
L 305.28125 297.291684 
L 305.28125 297.291684 
L 305.28125 300.318125 
" style="fill:none;stroke:#008000;stroke-linecap:square;"/>
   </g>
   <g id="line2d_4">
    <path clip-path="url(#pe3a43e50b9)" d="M 41.78125 300.318125 
L 41.78125 21.318125 
" style="fill:none;stroke:#000000;stroke-linecap:square;"/>
   </g>
   <g id="line2d_5">
    <path clip-path="url(#pe3a43e50b9)" d="M 41.78125 300.318125 
L 320.78125 300.318125 
" style="fill:none;stroke:#000000;stroke-linecap:square;"/>
   </g>
   <g id="line2d_6">
    <path clip-path="url(#pe3a43e50b9)" d="M 45.65625 67.577192 
L 53.40625 21.318125 
L 57.28125 30.714498 
L 65.03125 74.805172 
L 72.78125 126.846622 
L 80.53125 169.4917 
L 88.28125 207.077192 
L 96.03125 233.242477 
L 103.78125 243.578488 
L 119.28125 269.960612 
L 134.78125 285.356208 
L 165.78125 289.476156 
L 196.78125 287.524602 
L 227.78125 291.210871 
L 266.53125 283.621493 
L 305.28125 296.566804 
" style="fill:none;stroke:#008000;stroke-linecap:square;"/>
   </g>
   <g id="line2d_7">
    <g clip-path="url(#pe3a43e50b9)">
     <use style="fill:#ff0000;stroke:#000000;stroke-width:0.5;" x="45.65625" xlink:href="#m169cfa3e29" y="67.5771923575"/>
     <use style="fill:#ff0000;stroke:#000000;stroke-width:0.5;" x="53.40625" xlink:href="#m169cfa3e29" y="21.318125"/>
     <use style="fill:#ff0000;stroke:#000000;stroke-width:0.5;" x="57.28125" xlink:href="#m169cfa3e29" y="30.714498057"/>
     <use style="fill:#ff0000;stroke:#000000;stroke-width:0.5;" x="65.03125" xlink:href="#m169cfa3e29" y="74.8051716321"/>
     <use style="fill:#ff0000;stroke:#000000;stroke-width:0.5;" x="72.78125" xlink:href="#m169cfa3e29" y="126.846622409"/>
     <use style="fill:#ff0000;stroke:#000000;stroke-width:0.5;" x="80.53125" xlink:href="#m169cfa3e29" y="169.49170013"/>
     <use style="fill:#ff0000;stroke:#000000;stroke-width:0.5;" x="88.28125" xlink:href="#m169cfa3e29" y="207.077192358"/>
     <use style="fill:#ff0000;stroke:#000000;stroke-width:0.5;" x="96.03125" xlink:href="#m169cfa3e29" y="233.242477332"/>
     <use style="fill:#ff0000;stroke:#000000;stroke-width:0.5;" x="103.78125" xlink:href="#m169cfa3e29" y="243.578487694"/>
     <use style="fill:#ff0000;stroke:#000000;stroke-width:0.5;" x="119.28125" xlink:href="#m169cfa3e29" y="269.960612047"/>
     <use style="fill:#ff0000;stroke:#000000;stroke-width:0.5;" x="134.78125" xlink:href="#m169cfa3e29" y="285.356207902"/>
     <use style="fill:#ff0000;stroke:#000000;stroke-width:0.5;" x="165.78125" xlink:href="#m169cfa3e29" y="289.476156088"/>
     <use style="fill:#ff0000;stroke:#000000;stroke-width:0.5;" x="196.78125" xlink:href="#m169cfa3e29" y="287.524601684"/>
     <use style="fill:#ff0000;stroke:#000000;stroke-width:0.5;" x="227.78125" xlink:href="#m169cfa3e29" y="291.210871114"/>
     <use style="fill:#ff0000;stroke:#000000;stroke-width:0.5;" x="266.53125" xlink:href="#m169cfa3e29" y="283.621492876"/>
     <use style="fill:#ff0000;stroke:#000000;stroke-width:0.5;" x="305.28125" xlink:href="#m169cfa3e29" y="296.566803756"/>
    </g>
   </g>
   <g id="line2d_8">
    <path clip-path="url(#pe3a43e50b9)" d="M 45.65625 254.059058 
L 53.40625 254.059058 
L 53.40625 290.921752 
L 57.28125 290.921752 
L 57.28125 256.227451 
L 65.03125 256.227451 
L 65.03125 248.276674 
L 72.78125 248.276674 
L 72.78125 257.673047 
L 80.53125 257.673047 
L 80.53125 262.732633 
L 88.28125 262.732633 
L 88.28125 274.15284 
L 96.03125 274.15284 
L 96.03125 289.982115 
L 103.78125 289.982115 
L 103.78125 273.936001 
L 119.28125 273.936001 
L 119.28125 284.922529 
L 134.78125 284.922529 
L 134.78125 296.198177 
L 165.78125 296.198177 
L 165.78125 298.366571 
L 196.78125 298.366571 
L 196.78125 296.631856 
L 227.78125 296.631856 
L 227.78125 292.728747 
L 266.53125 292.728747 
L 266.53125 287.372814 
L 305.28125 287.372814 
L 305.28125 287.372814 
L 305.28125 300.318125 
" style="fill:none;stroke:#008000;stroke-linecap:square;"/>
   </g>
   <g id="line2d_9">
    <path clip-path="url(#pe3a43e50b9)" d="M 41.78125 300.318125 
L 41.78125 21.318125 
" style="fill:none;stroke:#000000;stroke-linecap:square;"/>
   </g>
   <g id="line2d_10">
    <path clip-path="url(#pe3a43e50b9)" d="M 41.78125 300.318125 
L 320.78125 300.318125 
" style="fill:none;stroke:#000000;stroke-linecap:square;"/>
   </g>
   <g id="line2d_11">
    <path clip-path="url(#pe3a43e50b9)" d="M 45.65625 85.10437 
L 53.40625 21.318125 
L 57.28125 26.503999 
L 65.03125 68.509575 
L 72.78125 120.368311 
L 80.53125 164.448237 
L 88.28125 201.786526 
L 96.03125 226.160132 
L 103.78125 240.161991 
L 119.28125 262.201954 
L 134.78125 276.100095 
L 165.78125 281.597121 
L 196.78125 291.865151 
L 227.78125 288.701768 
L 266.53125 286.419984 
L 305.28125 291.865151 
" style="fill:none;stroke:#ff0000;stroke-linecap:square;"/>
   </g>
   <g id="line2d_12">
    <g clip-path="url(#pe3a43e50b9)">
     <use style="fill:#ff0000;stroke:#000000;stroke-width:0.5;" x="45.65625" xlink:href="#m169cfa3e29" y="85.1043703532"/>
     <use style="fill:#ff0000;stroke:#000000;stroke-width:0.5;" x="53.40625" xlink:href="#m169cfa3e29" y="21.318125"/>
     <use style="fill:#ff0000;stroke:#000000;stroke-width:0.5;" x="57.28125" xlink:href="#m169cfa3e29" y="26.5039986059"/>
     <use style="fill:#ff0000;stroke:#000000;stroke-width:0.5;" x="65.03125" xlink:href="#m169cfa3e29" y="68.5095748141"/>
     <use style="fill:#ff0000;stroke:#000000;stroke-width:0.5;" x="72.78125" xlink:href="#m169cfa3e29" y="120.368310874"/>
     <use style="fill:#ff0000;stroke:#000000;stroke-width:0.5;" x="80.53125" xlink:href="#m169cfa3e29" y="164.448236524"/>
     <use style="fill:#ff0000;stroke:#000000;stroke-width:0.5;" x="88.28125" xlink:href="#m169cfa3e29" y="201.786526487"/>
     <use style="fill:#ff0000;stroke:#000000;stroke-width:0.5;" x="96.03125" xlink:href="#m169cfa3e29" y="226.160132435"/>
     <use style="fill:#ff0000;stroke:#000000;stroke-width:0.5;" x="103.78125" xlink:href="#m169cfa3e29" y="240.161991171"/>
     <use style="fill:#ff0000;stroke:#000000;stroke-width:0.5;" x="119.28125" xlink:href="#m169cfa3e29" y="262.201953996"/>
     <use style="fill:#ff0000;stroke:#000000;stroke-width:0.5;" x="134.78125" xlink:href="#m169cfa3e29" y="276.10009526"/>
     <use style="fill:#ff0000;stroke:#000000;stroke-width:0.5;" x="165.78125" xlink:href="#m169cfa3e29" y="281.597121283"/>
     <use style="fill:#ff0000;stroke:#000000;stroke-width:0.5;" x="196.78125" xlink:href="#m169cfa3e29" y="291.865151022"/>
     <use style="fill:#ff0000;stroke:#000000;stroke-width:0.5;" x="227.78125" xlink:href="#m169cfa3e29" y="288.701768123"/>
     <use style="fill:#ff0000;stroke:#000000;stroke-width:0.5;" x="266.53125" xlink:href="#m169cfa3e29" y="286.419983736"/>
     <use style="fill:#ff0000;stroke:#000000;stroke-width:0.5;" x="305.28125" xlink:href="#m169cfa3e29" y="291.865151022"/>
    </g>
   </g>
   <g id="line2d_13">
    <path clip-path="url(#pe3a43e50b9)" d="M 45.65625 236.53188 
L 53.40625 236.53188 
L 53.40625 295.132251 
L 57.28125 295.132251 
L 57.28125 258.312549 
L 65.03125 258.312549 
L 65.03125 248.459389 
L 72.78125 248.459389 
L 72.78125 256.238199 
L 80.53125 256.238199 
L 80.53125 262.979835 
L 88.28125 262.979835 
L 88.28125 275.944519 
L 96.03125 275.944519 
L 96.03125 286.316266 
L 103.78125 286.316266 
L 103.78125 278.278162 
L 119.28125 278.278162 
L 119.28125 286.419984 
L 134.78125 286.419984 
L 134.78125 294.821099 
L 165.78125 294.821099 
L 165.78125 290.050095 
L 196.78125 290.050095 
L 196.78125 297.154742 
L 227.78125 297.154742 
L 227.78125 298.036341 
L 266.53125 298.036341 
L 266.53125 294.872958 
L 305.28125 294.872958 
L 305.28125 294.872958 
L 305.28125 300.318125 
" style="fill:none;stroke:#008000;stroke-linecap:square;"/>
   </g>
   <g id="line2d_14">
    <path clip-path="url(#pe3a43e50b9)" d="M 41.78125 300.318125 
L 41.78125 21.318125 
" style="fill:none;stroke:#000000;stroke-linecap:square;"/>
   </g>
   <g id="line2d_15">
    <path clip-path="url(#pe3a43e50b9)" d="M 41.78125 300.318125 
L 320.78125 300.318125 
" style="fill:none;stroke:#000000;stroke-linecap:square;"/>
   </g>
   <g id="line2d_16">
    <path clip-path="url(#pe3a43e50b9)" d="M 45.65625 21.318125 
L 45.65625 61.873291 
L 53.40625 23.272591 
L 53.40625 62.361908 
L 57.28125 34.022153 
L 57.28125 71.645621 
L 65.03125 62.361908 
L 65.03125 97.053677 
L 72.78125 96.56506 
L 72.78125 127.836514 
L 80.53125 134.188528 
L 80.53125 160.573817 
L 88.28125 173.766461 
L 88.28125 193.799736 
L 96.03125 205.037915 
L 96.03125 219.696409 
L 103.78125 225.559806 
L 103.78125 235.332136 
L 119.28125 258.003939 
L 119.28125 262.352626 
L 134.78125 273.004465 
L 134.78125 276.766812 
L 165.78125 284.389228 
L 165.78125 287.71182 
L 196.78125 287.760682 
L 196.78125 291.083274 
L 227.78125 290.643519 
L 227.78125 291.425305 
L 266.53125 290.643519 
L 266.53125 292.74457 
L 305.28125 290.496934 
L 305.28125 294.210419 
" style="fill:none;stroke:#00bfbf;stroke-linecap:square;"/>
   </g>
   <g id="line2d_17">
    <g clip-path="url(#pe3a43e50b9)">
     <use style="fill:#ff0000;stroke:#000000;stroke-width:0.5;" x="45.65625" xlink:href="#m169cfa3e29" y="21.318125"/>
     <use style="fill:#ff0000;stroke:#000000;stroke-width:0.5;" x="45.65625" xlink:href="#m169cfa3e29" y="61.8732913748"/>
     <use style="fill:#ff0000;stroke:#000000;stroke-width:0.5;" x="53.40625" xlink:href="#m169cfa3e29" y="23.2725908494"/>
     <use style="fill:#ff0000;stroke:#000000;stroke-width:0.5;" x="53.40625" xlink:href="#m169cfa3e29" y="62.3619078371"/>
     <use style="fill:#ff0000;stroke:#000000;stroke-width:0.5;" x="57.28125" xlink:href="#m169cfa3e29" y="34.022153021"/>
     <use style="fill:#ff0000;stroke:#000000;stroke-width:0.5;" x="57.28125" xlink:href="#m169cfa3e29" y="71.6456206217"/>
     <use style="fill:#ff0000;stroke:#000000;stroke-width:0.5;" x="65.03125" xlink:href="#m169cfa3e29" y="62.3619078371"/>
     <use style="fill:#ff0000;stroke:#000000;stroke-width:0.5;" x="65.03125" xlink:href="#m169cfa3e29" y="97.0536766637"/>
     <use style="fill:#ff0000;stroke:#000000;stroke-width:0.5;" x="72.78125" xlink:href="#m169cfa3e29" y="96.5650602014"/>
     <use style="fill:#ff0000;stroke:#000000;stroke-width:0.5;" x="72.78125" xlink:href="#m169cfa3e29" y="127.836513792"/>
     <use style="fill:#ff0000;stroke:#000000;stroke-width:0.5;" x="80.53125" xlink:href="#m169cfa3e29" y="134.188527802"/>
     <use style="fill:#ff0000;stroke:#000000;stroke-width:0.5;" x="80.53125" xlink:href="#m169cfa3e29" y="160.573816769"/>
     <use style="fill:#ff0000;stroke:#000000;stroke-width:0.5;" x="88.28125" xlink:href="#m169cfa3e29" y="173.766461252"/>
     <use style="fill:#ff0000;stroke:#000000;stroke-width:0.5;" x="88.28125" xlink:href="#m169cfa3e29" y="193.799736208"/>
     <use style="fill:#ff0000;stroke:#000000;stroke-width:0.5;" x="96.03125" xlink:href="#m169cfa3e29" y="205.037914842"/>
     <use style="fill:#ff0000;stroke:#000000;stroke-width:0.5;" x="96.03125" xlink:href="#m169cfa3e29" y="219.696408713"/>
     <use style="fill:#ff0000;stroke:#000000;stroke-width:0.5;" x="103.78125" xlink:href="#m169cfa3e29" y="225.559806261"/>
     <use style="fill:#ff0000;stroke:#000000;stroke-width:0.5;" x="103.78125" xlink:href="#m169cfa3e29" y="235.332135508"/>
     <use style="fill:#ff0000;stroke:#000000;stroke-width:0.5;" x="119.28125" xlink:href="#m169cfa3e29" y="258.003939361"/>
     <use style="fill:#ff0000;stroke:#000000;stroke-width:0.5;" x="119.28125" xlink:href="#m169cfa3e29" y="262.352625876"/>
     <use style="fill:#ff0000;stroke:#000000;stroke-width:0.5;" x="134.78125" xlink:href="#m169cfa3e29" y="273.004464755"/>
     <use style="fill:#ff0000;stroke:#000000;stroke-width:0.5;" x="134.78125" xlink:href="#m169cfa3e29" y="276.766811515"/>
     <use style="fill:#ff0000;stroke:#000000;stroke-width:0.5;" x="165.78125" xlink:href="#m169cfa3e29" y="284.389228327"/>
     <use style="fill:#ff0000;stroke:#000000;stroke-width:0.5;" x="165.78125" xlink:href="#m169cfa3e29" y="287.711820271"/>
     <use style="fill:#ff0000;stroke:#000000;stroke-width:0.5;" x="196.78125" xlink:href="#m169cfa3e29" y="287.760681918"/>
     <use style="fill:#ff0000;stroke:#000000;stroke-width:0.5;" x="196.78125" xlink:href="#m169cfa3e29" y="291.083273862"/>
     <use style="fill:#ff0000;stroke:#000000;stroke-width:0.5;" x="227.78125" xlink:href="#m169cfa3e29" y="290.643519046"/>
     <use style="fill:#ff0000;stroke:#000000;stroke-width:0.5;" x="227.78125" xlink:href="#m169cfa3e29" y="291.425305385"/>
     <use style="fill:#ff0000;stroke:#000000;stroke-width:0.5;" x="266.53125" xlink:href="#m169cfa3e29" y="290.643519046"/>
     <use style="fill:#ff0000;stroke:#000000;stroke-width:0.5;" x="266.53125" xlink:href="#m169cfa3e29" y="292.744569834"/>
     <use style="fill:#ff0000;stroke:#000000;stroke-width:0.5;" x="305.28125" xlink:href="#m169cfa3e29" y="290.496934107"/>
     <use style="fill:#ff0000;stroke:#000000;stroke-width:0.5;" x="305.28125" xlink:href="#m169cfa3e29" y="294.210419221"/>
    </g>
   </g>
   <g id="line2d_18">
    <path clip-path="url(#pe3a43e50b9)" d="M 41.78125 300.318125 
L 41.78125 21.318125 
" style="fill:none;stroke:#000000;stroke-linecap:square;"/>
   </g>
   <g id="line2d_19">
    <path clip-path="url(#pe3a43e50b9)" d="M 41.78125 300.318125 
L 320.78125 300.318125 
" style="fill:none;stroke:#000000;stroke-linecap:square;"/>
   </g>
   <g id="line2d_20">
    <path clip-path="url(#pe3a43e50b9)" d="M 45.65625 23.379701 
L 53.40625 21.318125 
L 57.28125 30.251623 
L 65.03125 56.364923 
L 72.78125 87.97576 
L 80.53125 120.27379 
L 88.28125 152.57182 
L 96.03125 178.68512 
L 103.78125 194.490539 
L 119.28125 226.101376 
L 134.78125 244.10581 
L 165.78125 262.178962 
L 196.78125 271.524775 
L 227.78125 275.716647 
L 266.53125 278.259258 
L 305.28125 283.550637 
" style="fill:none;stroke:#bf00bf;stroke-linecap:square;"/>
   </g>
   <g id="line2d_21">
    <g clip-path="url(#pe3a43e50b9)">
     <use style="fill:#ff0000;stroke:#000000;stroke-width:0.5;" x="45.65625" xlink:href="#m169cfa3e29" y="23.3797013547"/>
     <use style="fill:#ff0000;stroke:#000000;stroke-width:0.5;" x="53.40625" xlink:href="#m169cfa3e29" y="21.318125"/>
     <use style="fill:#ff0000;stroke:#000000;stroke-width:0.5;" x="57.28125" xlink:href="#m169cfa3e29" y="30.2516225369"/>
     <use style="fill:#ff0000;stroke:#000000;stroke-width:0.5;" x="65.03125" xlink:href="#m169cfa3e29" y="56.3649230296"/>
     <use style="fill:#ff0000;stroke:#000000;stroke-width:0.5;" x="72.78125" xlink:href="#m169cfa3e29" y="87.975760468"/>
     <use style="fill:#ff0000;stroke:#000000;stroke-width:0.5;" x="80.53125" xlink:href="#m169cfa3e29" y="120.273790025"/>
     <use style="fill:#ff0000;stroke:#000000;stroke-width:0.5;" x="88.28125" xlink:href="#m169cfa3e29" y="152.571819581"/>
     <use style="fill:#ff0000;stroke:#000000;stroke-width:0.5;" x="96.03125" xlink:href="#m169cfa3e29" y="178.685120074"/>
     <use style="fill:#ff0000;stroke:#000000;stroke-width:0.5;" x="103.78125" xlink:href="#m169cfa3e29" y="194.490538793"/>
     <use style="fill:#ff0000;stroke:#000000;stroke-width:0.5;" x="119.28125" xlink:href="#m169cfa3e29" y="226.101376232"/>
     <use style="fill:#ff0000;stroke:#000000;stroke-width:0.5;" x="134.78125" xlink:href="#m169cfa3e29" y="244.105809729"/>
     <use style="fill:#ff0000;stroke:#000000;stroke-width:0.5;" x="165.78125" xlink:href="#m169cfa3e29" y="262.178962438"/>
     <use style="fill:#ff0000;stroke:#000000;stroke-width:0.5;" x="196.78125" xlink:href="#m169cfa3e29" y="271.524775246"/>
     <use style="fill:#ff0000;stroke:#000000;stroke-width:0.5;" x="227.78125" xlink:href="#m169cfa3e29" y="275.716647167"/>
     <use style="fill:#ff0000;stroke:#000000;stroke-width:0.5;" x="266.53125" xlink:href="#m169cfa3e29" y="278.259258005"/>
     <use style="fill:#ff0000;stroke:#000000;stroke-width:0.5;" x="305.28125" xlink:href="#m169cfa3e29" y="283.550637315"/>
    </g>
   </g>
   <g id="line2d_22">
    <path clip-path="url(#pe3a43e50b9)" d="M 45.65625 298.256549 
L 53.40625 298.256549 
L 53.40625 291.384627 
L 57.28125 291.384627 
L 57.28125 274.204825 
L 65.03125 274.204825 
L 65.03125 268.707288 
L 72.78125 268.707288 
L 72.78125 268.020095 
L 80.53125 268.020095 
L 80.53125 268.020095 
L 88.28125 268.020095 
L 88.28125 274.204825 
L 96.03125 274.204825 
L 96.03125 284.512706 
L 103.78125 284.512706 
L 103.78125 268.707288 
L 119.28125 268.707288 
L 119.28125 282.313692 
L 134.78125 282.313692 
L 134.78125 282.244972 
L 165.78125 282.244972 
L 165.78125 290.972312 
L 196.78125 290.972312 
L 196.78125 296.126253 
L 227.78125 296.126253 
L 227.78125 297.775514 
L 266.53125 297.775514 
L 266.53125 295.026746 
L 305.28125 295.026746 
L 305.28125 295.026746 
L 305.28125 300.318125 
" style="fill:none;stroke:#008000;stroke-linecap:square;"/>
   </g>
   <g id="line2d_23">
    <path clip-path="url(#pe3a43e50b9)" d="M 41.78125 300.318125 
L 41.78125 21.318125 
" style="fill:none;stroke:#000000;stroke-linecap:square;"/>
   </g>
   <g id="line2d_24">
    <path clip-path="url(#pe3a43e50b9)" d="M 41.78125 300.318125 
L 320.78125 300.318125 
" style="fill:none;stroke:#000000;stroke-linecap:square;"/>
   </g>
   <g id="patch_3">
    <path d="M 41.78125 21.318125 
L 320.78125 21.318125 
" style="fill:none;stroke:#000000;stroke-linecap:square;stroke-linejoin:miter;"/>
   </g>
   <g id="patch_4">
    <path d="M 320.78125 300.318125 
L 320.78125 21.318125 
" style="fill:none;stroke:#000000;stroke-linecap:square;stroke-linejoin:miter;"/>
   </g>
   <g id="patch_5">
    <path d="M 41.78125 300.318125 
L 320.78125 300.318125 
" style="fill:none;stroke:#000000;stroke-linecap:square;stroke-linejoin:miter;"/>
   </g>
   <g id="patch_6">
    <path d="M 41.78125 300.318125 
L 41.78125 21.318125 
" style="fill:none;stroke:#000000;stroke-linecap:square;stroke-linejoin:miter;"/>
   </g>
   <g id="matplotlib.axis_1">
    <g id="xtick_1">
     <g id="line2d_25">
      <defs>
       <path d="M 0 0 
L 0 -4 
" id="m86eb059915" style="stroke:#000000;stroke-width:0.5;"/>
      </defs>
      <g>
       <use style="stroke:#000000;stroke-width:0.5;" x="41.78125" xlink:href="#m86eb059915" y="300.318125"/>
      </g>
     </g>
     <g id="line2d_26">
      <defs>
       <path d="M 0 0 
L 0 4 
" id="m2943871172" style="stroke:#000000;stroke-width:0.5;"/>
      </defs>
      <g>
       <use style="stroke:#000000;stroke-width:0.5;" x="41.78125" xlink:href="#m2943871172" y="21.318125"/>
      </g>
     </g>
     <g id="text_1">
      <!-- 0 -->
      <defs>
       <path d="M 31.78125 66.40625 
Q 24.171875 66.40625 20.328125 58.90625 
Q 16.5 51.421875 16.5 36.375 
Q 16.5 21.390625 20.328125 13.890625 
Q 24.171875 6.390625 31.78125 6.390625 
Q 39.453125 6.390625 43.28125 13.890625 
Q 47.125 21.390625 47.125 36.375 
Q 47.125 51.421875 43.28125 58.90625 
Q 39.453125 66.40625 31.78125 66.40625 
M 31.78125 74.21875 
Q 44.046875 74.21875 50.515625 64.515625 
Q 56.984375 54.828125 56.984375 36.375 
Q 56.984375 17.96875 50.515625 8.265625 
Q 44.046875 -1.421875 31.78125 -1.421875 
Q 19.53125 -1.421875 13.0625 8.265625 
Q 6.59375 17.96875 6.59375 36.375 
Q 6.59375 54.828125 13.0625 64.515625 
Q 19.53125 74.21875 31.78125 74.21875 
" id="BitstreamVeraSans-Roman-30"/>
      </defs>
      <g transform="translate(38.6 311.9165625)scale(0.1 -0.1)">
       <use xlink:href="#BitstreamVeraSans-Roman-30"/>
      </g>
     </g>
    </g>
    <g id="xtick_2">
     <g id="line2d_27">
      <g>
       <use style="stroke:#000000;stroke-width:0.5;" x="72.78125" xlink:href="#m86eb059915" y="300.318125"/>
      </g>
     </g>
     <g id="line2d_28">
      <g>
       <use style="stroke:#000000;stroke-width:0.5;" x="72.78125" xlink:href="#m2943871172" y="21.318125"/>
      </g>
     </g>
     <g id="text_2">
      <!-- 20 -->
      <defs>
       <path d="M 19.1875 8.296875 
L 53.609375 8.296875 
L 53.609375 0 
L 7.328125 0 
L 7.328125 8.296875 
Q 12.9375 14.109375 22.625 23.890625 
Q 32.328125 33.6875 34.8125 36.53125 
Q 39.546875 41.84375 41.421875 45.53125 
Q 43.3125 49.21875 43.3125 52.78125 
Q 43.3125 58.59375 39.234375 62.25 
Q 35.15625 65.921875 28.609375 65.921875 
Q 23.96875 65.921875 18.8125 64.3125 
Q 13.671875 62.703125 7.8125 59.421875 
L 7.8125 69.390625 
Q 13.765625 71.78125 18.9375 73 
Q 24.125 74.21875 28.421875 74.21875 
Q 39.75 74.21875 46.484375 68.546875 
Q 53.21875 62.890625 53.21875 53.421875 
Q 53.21875 48.921875 51.53125 44.890625 
Q 49.859375 40.875 45.40625 35.40625 
Q 44.1875 33.984375 37.640625 27.21875 
Q 31.109375 20.453125 19.1875 8.296875 
" id="BitstreamVeraSans-Roman-32"/>
      </defs>
      <g transform="translate(66.41875 311.9165625)scale(0.1 -0.1)">
       <use xlink:href="#BitstreamVeraSans-Roman-32"/>
       <use x="63.623046875" xlink:href="#BitstreamVeraSans-Roman-30"/>
      </g>
     </g>
    </g>
    <g id="xtick_3">
     <g id="line2d_29">
      <g>
       <use style="stroke:#000000;stroke-width:0.5;" x="103.78125" xlink:href="#m86eb059915" y="300.318125"/>
      </g>
     </g>
     <g id="line2d_30">
      <g>
       <use style="stroke:#000000;stroke-width:0.5;" x="103.78125" xlink:href="#m2943871172" y="21.318125"/>
      </g>
     </g>
     <g id="text_3">
      <!-- 40 -->
      <defs>
       <path d="M 37.796875 64.3125 
L 12.890625 25.390625 
L 37.796875 25.390625 
z
M 35.203125 72.90625 
L 47.609375 72.90625 
L 47.609375 25.390625 
L 58.015625 25.390625 
L 58.015625 17.1875 
L 47.609375 17.1875 
L 47.609375 0 
L 37.796875 0 
L 37.796875 17.1875 
L 4.890625 17.1875 
L 4.890625 26.703125 
z
" id="BitstreamVeraSans-Roman-34"/>
      </defs>
      <g transform="translate(97.41875 311.9165625)scale(0.1 -0.1)">
       <use xlink:href="#BitstreamVeraSans-Roman-34"/>
       <use x="63.623046875" xlink:href="#BitstreamVeraSans-Roman-30"/>
      </g>
     </g>
    </g>
    <g id="xtick_4">
     <g id="line2d_31">
      <g>
       <use style="stroke:#000000;stroke-width:0.5;" x="134.78125" xlink:href="#m86eb059915" y="300.318125"/>
      </g>
     </g>
     <g id="line2d_32">
      <g>
       <use style="stroke:#000000;stroke-width:0.5;" x="134.78125" xlink:href="#m2943871172" y="21.318125"/>
      </g>
     </g>
     <g id="text_4">
      <!-- 60 -->
      <defs>
       <path d="M 33.015625 40.375 
Q 26.375 40.375 22.484375 35.828125 
Q 18.609375 31.296875 18.609375 23.390625 
Q 18.609375 15.53125 22.484375 10.953125 
Q 26.375 6.390625 33.015625 6.390625 
Q 39.65625 6.390625 43.53125 10.953125 
Q 47.40625 15.53125 47.40625 23.390625 
Q 47.40625 31.296875 43.53125 35.828125 
Q 39.65625 40.375 33.015625 40.375 
M 52.59375 71.296875 
L 52.59375 62.3125 
Q 48.875 64.0625 45.09375 64.984375 
Q 41.3125 65.921875 37.59375 65.921875 
Q 27.828125 65.921875 22.671875 59.328125 
Q 17.53125 52.734375 16.796875 39.40625 
Q 19.671875 43.65625 24.015625 45.921875 
Q 28.375 48.1875 33.59375 48.1875 
Q 44.578125 48.1875 50.953125 41.515625 
Q 57.328125 34.859375 57.328125 23.390625 
Q 57.328125 12.15625 50.6875 5.359375 
Q 44.046875 -1.421875 33.015625 -1.421875 
Q 20.359375 -1.421875 13.671875 8.265625 
Q 6.984375 17.96875 6.984375 36.375 
Q 6.984375 53.65625 15.1875 63.9375 
Q 23.390625 74.21875 37.203125 74.21875 
Q 40.921875 74.21875 44.703125 73.484375 
Q 48.484375 72.75 52.59375 71.296875 
" id="BitstreamVeraSans-Roman-36"/>
      </defs>
      <g transform="translate(128.41875 311.9165625)scale(0.1 -0.1)">
       <use xlink:href="#BitstreamVeraSans-Roman-36"/>
       <use x="63.623046875" xlink:href="#BitstreamVeraSans-Roman-30"/>
      </g>
     </g>
    </g>
    <g id="xtick_5">
     <g id="line2d_33">
      <g>
       <use style="stroke:#000000;stroke-width:0.5;" x="165.78125" xlink:href="#m86eb059915" y="300.318125"/>
      </g>
     </g>
     <g id="line2d_34">
      <g>
       <use style="stroke:#000000;stroke-width:0.5;" x="165.78125" xlink:href="#m2943871172" y="21.318125"/>
      </g>
     </g>
     <g id="text_5">
      <!-- 80 -->
      <defs>
       <path d="M 31.78125 34.625 
Q 24.75 34.625 20.71875 30.859375 
Q 16.703125 27.09375 16.703125 20.515625 
Q 16.703125 13.921875 20.71875 10.15625 
Q 24.75 6.390625 31.78125 6.390625 
Q 38.8125 6.390625 42.859375 10.171875 
Q 46.921875 13.96875 46.921875 20.515625 
Q 46.921875 27.09375 42.890625 30.859375 
Q 38.875 34.625 31.78125 34.625 
M 21.921875 38.8125 
Q 15.578125 40.375 12.03125 44.71875 
Q 8.5 49.078125 8.5 55.328125 
Q 8.5 64.0625 14.71875 69.140625 
Q 20.953125 74.21875 31.78125 74.21875 
Q 42.671875 74.21875 48.875 69.140625 
Q 55.078125 64.0625 55.078125 55.328125 
Q 55.078125 49.078125 51.53125 44.71875 
Q 48 40.375 41.703125 38.8125 
Q 48.828125 37.15625 52.796875 32.3125 
Q 56.78125 27.484375 56.78125 20.515625 
Q 56.78125 9.90625 50.3125 4.234375 
Q 43.84375 -1.421875 31.78125 -1.421875 
Q 19.734375 -1.421875 13.25 4.234375 
Q 6.78125 9.90625 6.78125 20.515625 
Q 6.78125 27.484375 10.78125 32.3125 
Q 14.796875 37.15625 21.921875 38.8125 
M 18.3125 54.390625 
Q 18.3125 48.734375 21.84375 45.5625 
Q 25.390625 42.390625 31.78125 42.390625 
Q 38.140625 42.390625 41.71875 45.5625 
Q 45.3125 48.734375 45.3125 54.390625 
Q 45.3125 60.0625 41.71875 63.234375 
Q 38.140625 66.40625 31.78125 66.40625 
Q 25.390625 66.40625 21.84375 63.234375 
Q 18.3125 60.0625 18.3125 54.390625 
" id="BitstreamVeraSans-Roman-38"/>
      </defs>
      <g transform="translate(159.41875 311.9165625)scale(0.1 -0.1)">
       <use xlink:href="#BitstreamVeraSans-Roman-38"/>
       <use x="63.623046875" xlink:href="#BitstreamVeraSans-Roman-30"/>
      </g>
     </g>
    </g>
    <g id="xtick_6">
     <g id="line2d_35">
      <g>
       <use style="stroke:#000000;stroke-width:0.5;" x="196.78125" xlink:href="#m86eb059915" y="300.318125"/>
      </g>
     </g>
     <g id="line2d_36">
      <g>
       <use style="stroke:#000000;stroke-width:0.5;" x="196.78125" xlink:href="#m2943871172" y="21.318125"/>
      </g>
     </g>
     <g id="text_6">
      <!-- 100 -->
      <defs>
       <path d="M 12.40625 8.296875 
L 28.515625 8.296875 
L 28.515625 63.921875 
L 10.984375 60.40625 
L 10.984375 69.390625 
L 28.421875 72.90625 
L 38.28125 72.90625 
L 38.28125 8.296875 
L 54.390625 8.296875 
L 54.390625 0 
L 12.40625 0 
z
" id="BitstreamVeraSans-Roman-31"/>
      </defs>
      <g transform="translate(187.2375 311.9165625)scale(0.1 -0.1)">
       <use xlink:href="#BitstreamVeraSans-Roman-31"/>
       <use x="63.623046875" xlink:href="#BitstreamVeraSans-Roman-30"/>
       <use x="127.24609375" xlink:href="#BitstreamVeraSans-Roman-30"/>
      </g>
     </g>
    </g>
    <g id="xtick_7">
     <g id="line2d_37">
      <g>
       <use style="stroke:#000000;stroke-width:0.5;" x="227.78125" xlink:href="#m86eb059915" y="300.318125"/>
      </g>
     </g>
     <g id="line2d_38">
      <g>
       <use style="stroke:#000000;stroke-width:0.5;" x="227.78125" xlink:href="#m2943871172" y="21.318125"/>
      </g>
     </g>
     <g id="text_7">
      <!-- 120 -->
      <g transform="translate(218.2375 311.9165625)scale(0.1 -0.1)">
       <use xlink:href="#BitstreamVeraSans-Roman-31"/>
       <use x="63.623046875" xlink:href="#BitstreamVeraSans-Roman-32"/>
       <use x="127.24609375" xlink:href="#BitstreamVeraSans-Roman-30"/>
      </g>
     </g>
    </g>
    <g id="xtick_8">
     <g id="line2d_39">
      <g>
       <use style="stroke:#000000;stroke-width:0.5;" x="258.78125" xlink:href="#m86eb059915" y="300.318125"/>
      </g>
     </g>
     <g id="line2d_40">
      <g>
       <use style="stroke:#000000;stroke-width:0.5;" x="258.78125" xlink:href="#m2943871172" y="21.318125"/>
      </g>
     </g>
     <g id="text_8">
      <!-- 140 -->
      <g transform="translate(249.2375 311.9165625)scale(0.1 -0.1)">
       <use xlink:href="#BitstreamVeraSans-Roman-31"/>
       <use x="63.623046875" xlink:href="#BitstreamVeraSans-Roman-34"/>
       <use x="127.24609375" xlink:href="#BitstreamVeraSans-Roman-30"/>
      </g>
     </g>
    </g>
    <g id="xtick_9">
     <g id="line2d_41">
      <g>
       <use style="stroke:#000000;stroke-width:0.5;" x="289.78125" xlink:href="#m86eb059915" y="300.318125"/>
      </g>
     </g>
     <g id="line2d_42">
      <g>
       <use style="stroke:#000000;stroke-width:0.5;" x="289.78125" xlink:href="#m2943871172" y="21.318125"/>
      </g>
     </g>
     <g id="text_9">
      <!-- 160 -->
      <g transform="translate(280.2375 311.9165625)scale(0.1 -0.1)">
       <use xlink:href="#BitstreamVeraSans-Roman-31"/>
       <use x="63.623046875" xlink:href="#BitstreamVeraSans-Roman-36"/>
       <use x="127.24609375" xlink:href="#BitstreamVeraSans-Roman-30"/>
      </g>
     </g>
    </g>
    <g id="xtick_10">
     <g id="line2d_43">
      <g>
       <use style="stroke:#000000;stroke-width:0.5;" x="320.78125" xlink:href="#m86eb059915" y="300.318125"/>
      </g>
     </g>
     <g id="line2d_44">
      <g>
       <use style="stroke:#000000;stroke-width:0.5;" x="320.78125" xlink:href="#m2943871172" y="21.318125"/>
      </g>
     </g>
     <g id="text_10">
      <!-- 180 -->
      <g transform="translate(311.2375 311.9165625)scale(0.1 -0.1)">
       <use xlink:href="#BitstreamVeraSans-Roman-31"/>
       <use x="63.623046875" xlink:href="#BitstreamVeraSans-Roman-38"/>
       <use x="127.24609375" xlink:href="#BitstreamVeraSans-Roman-30"/>
      </g>
     </g>
    </g>
    <g id="text_11">
     <!-- Step (mT) -->
     <defs>
      <path id="BitstreamVeraSans-Roman-20"/>
      <path d="M 8.015625 75.875 
L 15.828125 75.875 
Q 23.140625 64.359375 26.78125 53.3125 
Q 30.421875 42.28125 30.421875 31.390625 
Q 30.421875 20.453125 26.78125 9.375 
Q 23.140625 -1.703125 15.828125 -13.1875 
L 8.015625 -13.1875 
Q 14.5 -2 17.703125 9.0625 
Q 20.90625 20.125 20.90625 31.390625 
Q 20.90625 42.671875 17.703125 53.65625 
Q 14.5 64.65625 8.015625 75.875 
" id="BitstreamVeraSans-Roman-29"/>
      <path d="M 31 75.875 
Q 24.46875 64.65625 21.28125 53.65625 
Q 18.109375 42.671875 18.109375 31.390625 
Q 18.109375 20.125 21.3125 9.0625 
Q 24.515625 -2 31 -13.1875 
L 23.1875 -13.1875 
Q 15.875 -1.703125 12.234375 9.375 
Q 8.59375 20.453125 8.59375 31.390625 
Q 8.59375 42.28125 12.203125 53.3125 
Q 15.828125 64.359375 23.1875 75.875 
z
" id="BitstreamVeraSans-Roman-28"/>
      <path d="M 53.515625 70.515625 
L 53.515625 60.890625 
Q 47.90625 63.578125 42.921875 64.890625 
Q 37.9375 66.21875 33.296875 66.21875 
Q 25.25 66.21875 20.875 63.09375 
Q 16.5 59.96875 16.5 54.203125 
Q 16.5 49.359375 19.40625 46.890625 
Q 22.3125 44.4375 30.421875 42.921875 
L 36.375 41.703125 
Q 47.40625 39.59375 52.65625 34.296875 
Q 57.90625 29 57.90625 20.125 
Q 57.90625 9.515625 50.796875 4.046875 
Q 43.703125 -1.421875 29.984375 -1.421875 
Q 24.8125 -1.421875 18.96875 -0.25 
Q 13.140625 0.921875 6.890625 3.21875 
L 6.890625 13.375 
Q 12.890625 10.015625 18.65625 8.296875 
Q 24.421875 6.59375 29.984375 6.59375 
Q 38.421875 6.59375 43.015625 9.90625 
Q 47.609375 13.234375 47.609375 19.390625 
Q 47.609375 24.75 44.3125 27.78125 
Q 41.015625 30.8125 33.5 32.328125 
L 27.484375 33.5 
Q 16.453125 35.6875 11.515625 40.375 
Q 6.59375 45.0625 6.59375 53.421875 
Q 6.59375 63.09375 13.40625 68.65625 
Q 20.21875 74.21875 32.171875 74.21875 
Q 37.3125 74.21875 42.625 73.28125 
Q 47.953125 72.359375 53.515625 70.515625 
" id="BitstreamVeraSans-Roman-53"/>
      <path d="M -0.296875 72.90625 
L 61.375 72.90625 
L 61.375 64.59375 
L 35.5 64.59375 
L 35.5 0 
L 25.59375 0 
L 25.59375 64.59375 
L -0.296875 64.59375 
z
" id="BitstreamVeraSans-Roman-54"/>
      <path d="M 52 44.1875 
Q 55.375 50.25 60.0625 53.125 
Q 64.75 56 71.09375 56 
Q 79.640625 56 84.28125 50.015625 
Q 88.921875 44.046875 88.921875 33.015625 
L 88.921875 0 
L 79.890625 0 
L 79.890625 32.71875 
Q 79.890625 40.578125 77.09375 44.375 
Q 74.3125 48.1875 68.609375 48.1875 
Q 61.625 48.1875 57.5625 43.546875 
Q 53.515625 38.921875 53.515625 30.90625 
L 53.515625 0 
L 44.484375 0 
L 44.484375 32.71875 
Q 44.484375 40.625 41.703125 44.40625 
Q 38.921875 48.1875 33.109375 48.1875 
Q 26.21875 48.1875 22.15625 43.53125 
Q 18.109375 38.875 18.109375 30.90625 
L 18.109375 0 
L 9.078125 0 
L 9.078125 54.6875 
L 18.109375 54.6875 
L 18.109375 46.1875 
Q 21.1875 51.21875 25.484375 53.609375 
Q 29.78125 56 35.6875 56 
Q 41.65625 56 45.828125 52.96875 
Q 50 49.953125 52 44.1875 
" id="BitstreamVeraSans-Roman-6d"/>
      <path d="M 56.203125 29.59375 
L 56.203125 25.203125 
L 14.890625 25.203125 
Q 15.484375 15.921875 20.484375 11.0625 
Q 25.484375 6.203125 34.421875 6.203125 
Q 39.59375 6.203125 44.453125 7.46875 
Q 49.3125 8.734375 54.109375 11.28125 
L 54.109375 2.78125 
Q 49.265625 0.734375 44.1875 -0.34375 
Q 39.109375 -1.421875 33.890625 -1.421875 
Q 20.796875 -1.421875 13.15625 6.1875 
Q 5.515625 13.8125 5.515625 26.8125 
Q 5.515625 40.234375 12.765625 48.109375 
Q 20.015625 56 32.328125 56 
Q 43.359375 56 49.78125 48.890625 
Q 56.203125 41.796875 56.203125 29.59375 
M 47.21875 32.234375 
Q 47.125 39.59375 43.09375 43.984375 
Q 39.0625 48.390625 32.421875 48.390625 
Q 24.90625 48.390625 20.390625 44.140625 
Q 15.875 39.890625 15.1875 32.171875 
z
" id="BitstreamVeraSans-Roman-65"/>
      <path d="M 18.3125 70.21875 
L 18.3125 54.6875 
L 36.8125 54.6875 
L 36.8125 47.703125 
L 18.3125 47.703125 
L 18.3125 18.015625 
Q 18.3125 11.328125 20.140625 9.421875 
Q 21.96875 7.515625 27.59375 7.515625 
L 36.8125 7.515625 
L 36.8125 0 
L 27.59375 0 
Q 17.1875 0 13.234375 3.875 
Q 9.28125 7.765625 9.28125 18.015625 
L 9.28125 47.703125 
L 2.6875 47.703125 
L 2.6875 54.6875 
L 9.28125 54.6875 
L 9.28125 70.21875 
z
" id="BitstreamVeraSans-Roman-74"/>
      <path d="M 18.109375 8.203125 
L 18.109375 -20.796875 
L 9.078125 -20.796875 
L 9.078125 54.6875 
L 18.109375 54.6875 
L 18.109375 46.390625 
Q 20.953125 51.265625 25.265625 53.625 
Q 29.59375 56 35.59375 56 
Q 45.5625 56 51.78125 48.09375 
Q 58.015625 40.1875 58.015625 27.296875 
Q 58.015625 14.40625 51.78125 6.484375 
Q 45.5625 -1.421875 35.59375 -1.421875 
Q 29.59375 -1.421875 25.265625 0.953125 
Q 20.953125 3.328125 18.109375 8.203125 
M 48.6875 27.296875 
Q 48.6875 37.203125 44.609375 42.84375 
Q 40.53125 48.484375 33.40625 48.484375 
Q 26.265625 48.484375 22.1875 42.84375 
Q 18.109375 37.203125 18.109375 27.296875 
Q 18.109375 17.390625 22.1875 11.75 
Q 26.265625 6.109375 33.40625 6.109375 
Q 40.53125 6.109375 44.609375 11.75 
Q 48.6875 17.390625 48.6875 27.296875 
" id="BitstreamVeraSans-Roman-70"/>
     </defs>
     <g transform="translate(156.48125 326.5946875)scale(0.1 -0.1)">
      <use xlink:href="#BitstreamVeraSans-Roman-53"/>
      <use x="63.4765625" xlink:href="#BitstreamVeraSans-Roman-74"/>
      <use x="102.685546875" xlink:href="#BitstreamVeraSans-Roman-65"/>
      <use x="164.208984375" xlink:href="#BitstreamVeraSans-Roman-70"/>
      <use x="227.685546875" xlink:href="#BitstreamVeraSans-Roman-20"/>
      <use x="259.47265625" xlink:href="#BitstreamVeraSans-Roman-28"/>
      <use x="298.486328125" xlink:href="#BitstreamVeraSans-Roman-6d"/>
      <use x="395.8984375" xlink:href="#BitstreamVeraSans-Roman-54"/>
      <use x="456.982421875" xlink:href="#BitstreamVeraSans-Roman-29"/>
     </g>
    </g>
   </g>
   <g id="matplotlib.axis_2">
    <g id="ytick_1">
     <g id="line2d_45">
      <defs>
       <path d="M 0 0 
L 4 0 
" id="md9f07af799" style="stroke:#000000;stroke-width:0.5;"/>
      </defs>
      <g>
       <use style="stroke:#000000;stroke-width:0.5;" x="41.78125" xlink:href="#md9f07af799" y="300.318125"/>
      </g>
     </g>
     <g id="line2d_46">
      <defs>
       <path d="M 0 0 
L -4 0 
" id="m2c3e91da73" style="stroke:#000000;stroke-width:0.5;"/>
      </defs>
      <g>
       <use style="stroke:#000000;stroke-width:0.5;" x="320.78125" xlink:href="#m2c3e91da73" y="300.318125"/>
      </g>
     </g>
     <g id="text_12">
      <!-- 0.0 -->
      <defs>
       <path d="M 10.6875 12.40625 
L 21 12.40625 
L 21 0 
L 10.6875 0 
z
" id="BitstreamVeraSans-Roman-2e"/>
      </defs>
      <g transform="translate(21.878125 303.0775)scale(0.1 -0.1)">
       <use xlink:href="#BitstreamVeraSans-Roman-30"/>
       <use x="63.623046875" xlink:href="#BitstreamVeraSans-Roman-2e"/>
       <use x="95.41015625" xlink:href="#BitstreamVeraSans-Roman-30"/>
      </g>
     </g>
    </g>
    <g id="ytick_2">
     <g id="line2d_47">
      <g>
       <use style="stroke:#000000;stroke-width:0.5;" x="41.78125" xlink:href="#md9f07af799" y="244.518125"/>
      </g>
     </g>
     <g id="line2d_48">
      <g>
       <use style="stroke:#000000;stroke-width:0.5;" x="320.78125" xlink:href="#m2c3e91da73" y="244.518125"/>
      </g>
     </g>
     <g id="text_13">
      <!-- 0.2 -->
      <g transform="translate(21.878125 247.2775)scale(0.1 -0.1)">
       <use xlink:href="#BitstreamVeraSans-Roman-30"/>
       <use x="63.623046875" xlink:href="#BitstreamVeraSans-Roman-2e"/>
       <use x="95.41015625" xlink:href="#BitstreamVeraSans-Roman-32"/>
      </g>
     </g>
    </g>
    <g id="ytick_3">
     <g id="line2d_49">
      <g>
       <use style="stroke:#000000;stroke-width:0.5;" x="41.78125" xlink:href="#md9f07af799" y="188.718125"/>
      </g>
     </g>
     <g id="line2d_50">
      <g>
       <use style="stroke:#000000;stroke-width:0.5;" x="320.78125" xlink:href="#m2c3e91da73" y="188.718125"/>
      </g>
     </g>
     <g id="text_14">
      <!-- 0.4 -->
      <g transform="translate(21.878125 191.4775)scale(0.1 -0.1)">
       <use xlink:href="#BitstreamVeraSans-Roman-30"/>
       <use x="63.623046875" xlink:href="#BitstreamVeraSans-Roman-2e"/>
       <use x="95.41015625" xlink:href="#BitstreamVeraSans-Roman-34"/>
      </g>
     </g>
    </g>
    <g id="ytick_4">
     <g id="line2d_51">
      <g>
       <use style="stroke:#000000;stroke-width:0.5;" x="41.78125" xlink:href="#md9f07af799" y="132.918125"/>
      </g>
     </g>
     <g id="line2d_52">
      <g>
       <use style="stroke:#000000;stroke-width:0.5;" x="320.78125" xlink:href="#m2c3e91da73" y="132.918125"/>
      </g>
     </g>
     <g id="text_15">
      <!-- 0.6 -->
      <g transform="translate(21.878125 135.6775)scale(0.1 -0.1)">
       <use xlink:href="#BitstreamVeraSans-Roman-30"/>
       <use x="63.623046875" xlink:href="#BitstreamVeraSans-Roman-2e"/>
       <use x="95.41015625" xlink:href="#BitstreamVeraSans-Roman-36"/>
      </g>
     </g>
    </g>
    <g id="ytick_5">
     <g id="line2d_53">
      <g>
       <use style="stroke:#000000;stroke-width:0.5;" x="41.78125" xlink:href="#md9f07af799" y="77.118125"/>
      </g>
     </g>
     <g id="line2d_54">
      <g>
       <use style="stroke:#000000;stroke-width:0.5;" x="320.78125" xlink:href="#m2c3e91da73" y="77.118125"/>
      </g>
     </g>
     <g id="text_16">
      <!-- 0.8 -->
      <g transform="translate(21.878125 79.8775)scale(0.1 -0.1)">
       <use xlink:href="#BitstreamVeraSans-Roman-30"/>
       <use x="63.623046875" xlink:href="#BitstreamVeraSans-Roman-2e"/>
       <use x="95.41015625" xlink:href="#BitstreamVeraSans-Roman-38"/>
      </g>
     </g>
    </g>
    <g id="ytick_6">
     <g id="line2d_55">
      <g>
       <use style="stroke:#000000;stroke-width:0.5;" x="41.78125" xlink:href="#md9f07af799" y="21.318125"/>
      </g>
     </g>
     <g id="line2d_56">
      <g>
       <use style="stroke:#000000;stroke-width:0.5;" x="320.78125" xlink:href="#m2c3e91da73" y="21.318125"/>
      </g>
     </g>
     <g id="text_17">
      <!-- 1.0 -->
      <g transform="translate(21.878125 24.0775)scale(0.1 -0.1)">
       <use xlink:href="#BitstreamVeraSans-Roman-31"/>
       <use x="63.623046875" xlink:href="#BitstreamVeraSans-Roman-2e"/>
       <use x="95.41015625" xlink:href="#BitstreamVeraSans-Roman-30"/>
      </g>
     </g>
    </g>
    <g id="text_18">
     <!-- Fractional Magnetization -->
     <defs>
      <path d="M 9.8125 72.90625 
L 24.515625 72.90625 
L 43.109375 23.296875 
L 61.8125 72.90625 
L 76.515625 72.90625 
L 76.515625 0 
L 66.890625 0 
L 66.890625 64.015625 
L 48.09375 14.015625 
L 38.1875 14.015625 
L 19.390625 64.015625 
L 19.390625 0 
L 9.8125 0 
z
" id="BitstreamVeraSans-Roman-4d"/>
      <path d="M 54.890625 33.015625 
L 54.890625 0 
L 45.90625 0 
L 45.90625 32.71875 
Q 45.90625 40.484375 42.875 44.328125 
Q 39.84375 48.1875 33.796875 48.1875 
Q 26.515625 48.1875 22.3125 43.546875 
Q 18.109375 38.921875 18.109375 30.90625 
L 18.109375 0 
L 9.078125 0 
L 9.078125 54.6875 
L 18.109375 54.6875 
L 18.109375 46.1875 
Q 21.34375 51.125 25.703125 53.5625 
Q 30.078125 56 35.796875 56 
Q 45.21875 56 50.046875 50.171875 
Q 54.890625 44.34375 54.890625 33.015625 
" id="BitstreamVeraSans-Roman-6e"/>
      <path d="M 41.109375 46.296875 
Q 39.59375 47.171875 37.8125 47.578125 
Q 36.03125 48 33.890625 48 
Q 26.265625 48 22.1875 43.046875 
Q 18.109375 38.09375 18.109375 28.8125 
L 18.109375 0 
L 9.078125 0 
L 9.078125 54.6875 
L 18.109375 54.6875 
L 18.109375 46.1875 
Q 20.953125 51.171875 25.484375 53.578125 
Q 30.03125 56 36.53125 56 
Q 37.453125 56 38.578125 55.875 
Q 39.703125 55.765625 41.0625 55.515625 
z
" id="BitstreamVeraSans-Roman-72"/>
      <path d="M 30.609375 48.390625 
Q 23.390625 48.390625 19.1875 42.75 
Q 14.984375 37.109375 14.984375 27.296875 
Q 14.984375 17.484375 19.15625 11.84375 
Q 23.34375 6.203125 30.609375 6.203125 
Q 37.796875 6.203125 41.984375 11.859375 
Q 46.1875 17.53125 46.1875 27.296875 
Q 46.1875 37.015625 41.984375 42.703125 
Q 37.796875 48.390625 30.609375 48.390625 
M 30.609375 56 
Q 42.328125 56 49.015625 48.375 
Q 55.71875 40.765625 55.71875 27.296875 
Q 55.71875 13.875 49.015625 6.21875 
Q 42.328125 -1.421875 30.609375 -1.421875 
Q 18.84375 -1.421875 12.171875 6.21875 
Q 5.515625 13.875 5.515625 27.296875 
Q 5.515625 40.765625 12.171875 48.375 
Q 18.84375 56 30.609375 56 
" id="BitstreamVeraSans-Roman-6f"/>
      <path d="M 9.421875 75.984375 
L 18.40625 75.984375 
L 18.40625 0 
L 9.421875 0 
z
" id="BitstreamVeraSans-Roman-6c"/>
      <path d="M 5.515625 54.6875 
L 48.1875 54.6875 
L 48.1875 46.484375 
L 14.40625 7.171875 
L 48.1875 7.171875 
L 48.1875 0 
L 4.296875 0 
L 4.296875 8.203125 
L 38.09375 47.515625 
L 5.515625 47.515625 
z
" id="BitstreamVeraSans-Roman-7a"/>
      <path d="M 9.8125 72.90625 
L 51.703125 72.90625 
L 51.703125 64.59375 
L 19.671875 64.59375 
L 19.671875 43.109375 
L 48.578125 43.109375 
L 48.578125 34.8125 
L 19.671875 34.8125 
L 19.671875 0 
L 9.8125 0 
z
" id="BitstreamVeraSans-Roman-46"/>
      <path d="M 9.421875 54.6875 
L 18.40625 54.6875 
L 18.40625 0 
L 9.421875 0 
z
M 9.421875 75.984375 
L 18.40625 75.984375 
L 18.40625 64.59375 
L 9.421875 64.59375 
z
" id="BitstreamVeraSans-Roman-69"/>
      <path d="M 45.40625 27.984375 
Q 45.40625 37.75 41.375 43.109375 
Q 37.359375 48.484375 30.078125 48.484375 
Q 22.859375 48.484375 18.828125 43.109375 
Q 14.796875 37.75 14.796875 27.984375 
Q 14.796875 18.265625 18.828125 12.890625 
Q 22.859375 7.515625 30.078125 7.515625 
Q 37.359375 7.515625 41.375 12.890625 
Q 45.40625 18.265625 45.40625 27.984375 
M 54.390625 6.78125 
Q 54.390625 -7.171875 48.1875 -13.984375 
Q 42 -20.796875 29.203125 -20.796875 
Q 24.46875 -20.796875 20.265625 -20.09375 
Q 16.0625 -19.390625 12.109375 -17.921875 
L 12.109375 -9.1875 
Q 16.0625 -11.328125 19.921875 -12.34375 
Q 23.78125 -13.375 27.78125 -13.375 
Q 36.625 -13.375 41.015625 -8.765625 
Q 45.40625 -4.15625 45.40625 5.171875 
L 45.40625 9.625 
Q 42.625 4.78125 38.28125 2.390625 
Q 33.9375 0 27.875 0 
Q 17.828125 0 11.671875 7.65625 
Q 5.515625 15.328125 5.515625 27.984375 
Q 5.515625 40.671875 11.671875 48.328125 
Q 17.828125 56 27.875 56 
Q 33.9375 56 38.28125 53.609375 
Q 42.625 51.21875 45.40625 46.390625 
L 45.40625 54.6875 
L 54.390625 54.6875 
z
" id="BitstreamVeraSans-Roman-67"/>
      <path d="M 34.28125 27.484375 
Q 23.390625 27.484375 19.1875 25 
Q 14.984375 22.515625 14.984375 16.5 
Q 14.984375 11.71875 18.140625 8.90625 
Q 21.296875 6.109375 26.703125 6.109375 
Q 34.1875 6.109375 38.703125 11.40625 
Q 43.21875 16.703125 43.21875 25.484375 
L 43.21875 27.484375 
z
M 52.203125 31.203125 
L 52.203125 0 
L 43.21875 0 
L 43.21875 8.296875 
Q 40.140625 3.328125 35.546875 0.953125 
Q 30.953125 -1.421875 24.3125 -1.421875 
Q 15.921875 -1.421875 10.953125 3.296875 
Q 6 8.015625 6 15.921875 
Q 6 25.140625 12.171875 29.828125 
Q 18.359375 34.515625 30.609375 34.515625 
L 43.21875 34.515625 
L 43.21875 35.40625 
Q 43.21875 41.609375 39.140625 45 
Q 35.0625 48.390625 27.6875 48.390625 
Q 23 48.390625 18.546875 47.265625 
Q 14.109375 46.140625 10.015625 43.890625 
L 10.015625 52.203125 
Q 14.9375 54.109375 19.578125 55.046875 
Q 24.21875 56 28.609375 56 
Q 40.484375 56 46.34375 49.84375 
Q 52.203125 43.703125 52.203125 31.203125 
" id="BitstreamVeraSans-Roman-61"/>
      <path d="M 48.78125 52.59375 
L 48.78125 44.1875 
Q 44.96875 46.296875 41.140625 47.34375 
Q 37.3125 48.390625 33.40625 48.390625 
Q 24.65625 48.390625 19.8125 42.84375 
Q 14.984375 37.3125 14.984375 27.296875 
Q 14.984375 17.28125 19.8125 11.734375 
Q 24.65625 6.203125 33.40625 6.203125 
Q 37.3125 6.203125 41.140625 7.25 
Q 44.96875 8.296875 48.78125 10.40625 
L 48.78125 2.09375 
Q 45.015625 0.34375 40.984375 -0.53125 
Q 36.96875 -1.421875 32.421875 -1.421875 
Q 20.0625 -1.421875 12.78125 6.34375 
Q 5.515625 14.109375 5.515625 27.296875 
Q 5.515625 40.671875 12.859375 48.328125 
Q 20.21875 56 33.015625 56 
Q 37.15625 56 41.109375 55.140625 
Q 45.0625 54.296875 48.78125 52.59375 
" id="BitstreamVeraSans-Roman-63"/>
     </defs>
     <g transform="translate(14.7984375 222.58921875)rotate(-90.0)scale(0.1 -0.1)">
      <use xlink:href="#BitstreamVeraSans-Roman-46"/>
      <use x="57.41015625" xlink:href="#BitstreamVeraSans-Roman-72"/>
      <use x="98.5234375" xlink:href="#BitstreamVeraSans-Roman-61"/>
      <use x="159.802734375" xlink:href="#BitstreamVeraSans-Roman-63"/>
      <use x="214.783203125" xlink:href="#BitstreamVeraSans-Roman-74"/>
      <use x="253.9921875" xlink:href="#BitstreamVeraSans-Roman-69"/>
      <use x="281.775390625" xlink:href="#BitstreamVeraSans-Roman-6f"/>
      <use x="342.95703125" xlink:href="#BitstreamVeraSans-Roman-6e"/>
      <use x="406.3359375" xlink:href="#BitstreamVeraSans-Roman-61"/>
      <use x="467.615234375" xlink:href="#BitstreamVeraSans-Roman-6c"/>
      <use x="495.3984375" xlink:href="#BitstreamVeraSans-Roman-20"/>
      <use x="527.185546875" xlink:href="#BitstreamVeraSans-Roman-4d"/>
      <use x="613.46484375" xlink:href="#BitstreamVeraSans-Roman-61"/>
      <use x="674.744140625" xlink:href="#BitstreamVeraSans-Roman-67"/>
      <use x="738.220703125" xlink:href="#BitstreamVeraSans-Roman-6e"/>
      <use x="801.599609375" xlink:href="#BitstreamVeraSans-Roman-65"/>
      <use x="863.123046875" xlink:href="#BitstreamVeraSans-Roman-74"/>
      <use x="902.33203125" xlink:href="#BitstreamVeraSans-Roman-69"/>
      <use x="930.115234375" xlink:href="#BitstreamVeraSans-Roman-7a"/>
      <use x="982.60546875" xlink:href="#BitstreamVeraSans-Roman-61"/>
      <use x="1043.88476562" xlink:href="#BitstreamVeraSans-Roman-74"/>
      <use x="1083.09375" xlink:href="#BitstreamVeraSans-Roman-69"/>
      <use x="1110.87695312" xlink:href="#BitstreamVeraSans-Roman-6f"/>
      <use x="1172.05859375" xlink:href="#BitstreamVeraSans-Roman-6e"/>
     </g>
    </g>
   </g>
   <g id="text_19">
    <!-- SI1(58.1 to 64.1) -->
    <defs>
     <path d="M 9.8125 72.90625 
L 19.671875 72.90625 
L 19.671875 0 
L 9.8125 0 
z
" id="BitstreamVeraSans-Roman-49"/>
     <path d="M 10.796875 72.90625 
L 49.515625 72.90625 
L 49.515625 64.59375 
L 19.828125 64.59375 
L 19.828125 46.734375 
Q 21.96875 47.46875 24.109375 47.828125 
Q 26.265625 48.1875 28.421875 48.1875 
Q 40.625 48.1875 47.75 41.5 
Q 54.890625 34.8125 54.890625 23.390625 
Q 54.890625 11.625 47.5625 5.09375 
Q 40.234375 -1.421875 26.90625 -1.421875 
Q 22.3125 -1.421875 17.546875 -0.640625 
Q 12.796875 0.140625 7.71875 1.703125 
L 7.71875 11.625 
Q 12.109375 9.234375 16.796875 8.0625 
Q 21.484375 6.890625 26.703125 6.890625 
Q 35.15625 6.890625 40.078125 11.328125 
Q 45.015625 15.765625 45.015625 23.390625 
Q 45.015625 31 40.078125 35.4375 
Q 35.15625 39.890625 26.703125 39.890625 
Q 22.75 39.890625 18.8125 39.015625 
Q 14.890625 38.140625 10.796875 36.28125 
z
" id="BitstreamVeraSans-Roman-35"/>
    </defs>
    <g transform="translate(130.646875 16.318125)scale(0.12 -0.12)">
     <use xlink:href="#BitstreamVeraSans-Roman-53"/>
     <use x="63.4765625" xlink:href="#BitstreamVeraSans-Roman-49"/>
     <use x="92.96875" xlink:href="#BitstreamVeraSans-Roman-31"/>
     <use x="156.591796875" xlink:href="#BitstreamVeraSans-Roman-28"/>
     <use x="195.60546875" xlink:href="#BitstreamVeraSans-Roman-35"/>
     <use x="259.228515625" xlink:href="#BitstreamVeraSans-Roman-38"/>
     <use x="322.8515625" xlink:href="#BitstreamVeraSans-Roman-2e"/>
     <use x="354.638671875" xlink:href="#BitstreamVeraSans-Roman-31"/>
     <use x="418.26171875" xlink:href="#BitstreamVeraSans-Roman-20"/>
     <use x="450.048828125" xlink:href="#BitstreamVeraSans-Roman-74"/>
     <use x="489.2578125" xlink:href="#BitstreamVeraSans-Roman-6f"/>
     <use x="550.439453125" xlink:href="#BitstreamVeraSans-Roman-20"/>
     <use x="582.2265625" xlink:href="#BitstreamVeraSans-Roman-36"/>
     <use x="645.849609375" xlink:href="#BitstreamVeraSans-Roman-34"/>
     <use x="709.47265625" xlink:href="#BitstreamVeraSans-Roman-2e"/>
     <use x="741.259765625" xlink:href="#BitstreamVeraSans-Roman-31"/>
     <use x="804.8828125" xlink:href="#BitstreamVeraSans-Roman-29"/>
    </g>
   </g>
  </g>
 </g>
 <defs>
  <clipPath id="pe3a43e50b9">
   <rect height="279.0" width="279.0" x="41.78125" y="21.318125"/>
  </clipPath>
 </defs>
</svg>
