<?xml version="1.0" encoding="utf-8" standalone="no"?>
<!DOCTYPE svg PUBLIC "-//W3C//DTD SVG 1.1//EN"
  "http://www.w3.org/Graphics/SVG/1.1/DTD/svg11.dtd">
<!-- Created with matplotlib (http://matplotlib.org/) -->
<svg height="288pt" version="1.1" viewBox="0 0 288 288" width="288pt" xmlns="http://www.w3.org/2000/svg" xmlns:xlink="http://www.w3.org/1999/xlink">
 <defs>
  <style type="text/css">
*{stroke-linecap:butt;stroke-linejoin:round;stroke-miterlimit:100000;}
  </style>
 </defs>
 <g id="figure_1">
  <g id="patch_1">
   <path d="M 0 288 
L 288 288 
L 288 0 
L 0 0 
z
" style="fill:#ffffff;"/>
  </g>
  <g id="axes_1">
   <g id="PathCollection_1">
    <defs>
     <path d="M 0 2.236068 
C 0.593012 2.236068 1.161816 2.000462 1.581139 1.581139 
C 2.000462 1.161816 2.236068 0.593012 2.236068 0 
C 2.236068 -0.593012 2.000462 -1.161816 1.581139 -1.581139 
C 1.161816 -2.000462 0.593012 -2.236068 0 -2.236068 
C -0.593012 -2.236068 -1.161816 -2.000462 -1.581139 -1.581139 
C -2.000462 -1.161816 -2.236068 -0.593012 -2.236068 0 
C -2.236068 0.593012 -2.000462 1.161816 -1.581139 1.581139 
C -1.161816 2.000462 -0.593012 2.236068 0 2.236068 
z
" id="C0_0_5379bacb5d"/>
    </defs>
    <g clip-path="url(#p46a215189e)">
     <use style="fill:none;stroke:#ff0000;" x="242.971911" xlink:href="#C0_0_5379bacb5d" y="173.226798969"/>
    </g>
    <g clip-path="url(#p46a215189e)">
     <use style="fill:none;stroke:#ff0000;" x="206.726164365" xlink:href="#C0_0_5379bacb5d" y="171.607116883"/>
    </g>
    <g clip-path="url(#p46a215189e)">
     <use style="fill:none;stroke:#ff0000;" x="190.948149177" xlink:href="#C0_0_5379bacb5d" y="184.63120838"/>
    </g>
    <g clip-path="url(#p46a215189e)">
     <use style="fill:none;stroke:#ff0000;" x="215.439848626" xlink:href="#C0_0_5379bacb5d" y="172.547791603"/>
    </g>
    <g clip-path="url(#p46a215189e)">
     <use style="fill:none;stroke:#ff0000;" x="233.725382108" xlink:href="#C0_0_5379bacb5d" y="201.088537492"/>
    </g>
    <g clip-path="url(#p46a215189e)">
     <use style="fill:none;stroke:#ff0000;" x="228.45075654" xlink:href="#C0_0_5379bacb5d" y="158.898378551"/>
    </g>
    <g clip-path="url(#p46a215189e)">
     <use style="fill:none;stroke:#ff0000;" x="242.670450471" xlink:href="#C0_0_5379bacb5d" y="193.467317327"/>
    </g>
    <g clip-path="url(#p46a215189e)">
     <use style="fill:none;stroke:#ff0000;" x="244.640546147" xlink:href="#C0_0_5379bacb5d" y="202.006686639"/>
    </g>
    <g clip-path="url(#p46a215189e)">
     <use style="fill:none;stroke:#ff0000;" x="223.595587286" xlink:href="#C0_0_5379bacb5d" y="164.22286162"/>
    </g>
    <g clip-path="url(#p46a215189e)">
     <use style="fill:none;stroke:#ff0000;" x="241.499873301" xlink:href="#C0_0_5379bacb5d" y="181.601224821"/>
    </g>
    <g clip-path="url(#p46a215189e)">
     <use style="fill:none;stroke:#ff0000;" x="254.832504511" xlink:href="#C0_0_5379bacb5d" y="168.671873152"/>
    </g>
    <g clip-path="url(#p46a215189e)">
     <use style="fill:none;stroke:#ff0000;" x="235.55212303" xlink:href="#C0_0_5379bacb5d" y="150.060416067"/>
    </g>
    <g clip-path="url(#p46a215189e)">
     <use style="fill:none;stroke:#ff0000;" x="209.364175382" xlink:href="#C0_0_5379bacb5d" y="172.485681517"/>
    </g>
    <g clip-path="url(#p46a215189e)">
     <use style="fill:none;stroke:#ff0000;" x="194.367023266" xlink:href="#C0_0_5379bacb5d" y="171.186829299"/>
    </g>
    <g clip-path="url(#p46a215189e)">
     <use style="fill:none;stroke:#ff0000;" x="207.242332247" xlink:href="#C0_0_5379bacb5d" y="169.198271536"/>
    </g>
    <g clip-path="url(#p46a215189e)">
     <use style="fill:none;stroke:#ff0000;" x="215.506626382" xlink:href="#C0_0_5379bacb5d" y="148.639636117"/>
    </g>
    <g clip-path="url(#p46a215189e)">
     <use style="fill:none;stroke:#ff0000;" x="224.772005345" xlink:href="#C0_0_5379bacb5d" y="146.887241431"/>
    </g>
    <g clip-path="url(#p46a215189e)">
     <use style="fill:none;stroke:#ff0000;" x="197.315509765" xlink:href="#C0_0_5379bacb5d" y="162.734272499"/>
    </g>
    <g clip-path="url(#p46a215189e)">
     <use style="fill:none;stroke:#ff0000;" x="231.770525111" xlink:href="#C0_0_5379bacb5d" y="184.503485463"/>
    </g>
    <g clip-path="url(#p46a215189e)">
     <use style="fill:none;stroke:#ff0000;" x="208.442761681" xlink:href="#C0_0_5379bacb5d" y="181.972697757"/>
    </g>
    <g clip-path="url(#p46a215189e)">
     <use style="fill:none;stroke:#ff0000;" x="193.556523896" xlink:href="#C0_0_5379bacb5d" y="165.587554191"/>
    </g>
    <g clip-path="url(#p46a215189e)">
     <use style="fill:none;stroke:#ff0000;" x="191.160084945" xlink:href="#C0_0_5379bacb5d" y="159.043779073"/>
    </g>
    <g clip-path="url(#p46a215189e)">
     <use style="fill:none;stroke:#ff0000;" x="199.827663831" xlink:href="#C0_0_5379bacb5d" y="176.386764693"/>
    </g>
    <g clip-path="url(#p46a215189e)">
     <use style="fill:none;stroke:#ff0000;" x="201.507452991" xlink:href="#C0_0_5379bacb5d" y="173.852238266"/>
    </g>
    <g clip-path="url(#p46a215189e)">
     <use style="fill:none;stroke:#ff0000;" x="176.411111573" xlink:href="#C0_0_5379bacb5d" y="140.460619203"/>
    </g>
   </g>
   <g id="PathCollection_2">
    <defs>
     <path d="M 0 2.236068 
C 0.593012 2.236068 1.161816 2.000462 1.581139 1.581139 
C 2.000462 1.161816 2.236068 0.593012 2.236068 0 
C 2.236068 -0.593012 2.000462 -1.161816 1.581139 -1.581139 
C 1.161816 -2.000462 0.593012 -2.236068 0 -2.236068 
C -0.593012 -2.236068 -1.161816 -2.000462 -1.581139 -1.581139 
C -2.000462 -1.161816 -2.236068 -0.593012 -2.236068 0 
C -2.236068 0.593012 -2.000462 1.161816 -1.581139 1.581139 
C -1.161816 2.000462 -0.593012 2.236068 0 2.236068 
z
" id="C1_0_d5f30a8af8"/>
    </defs>
    <g clip-path="url(#p46a215189e)">
     <use style="fill:none;stroke:#0000ff;" x="216.31462045" xlink:href="#C1_0_d5f30a8af8" y="154.588078143"/>
    </g>
    <g clip-path="url(#p46a215189e)">
     <use style="fill:none;stroke:#0000ff;" x="192.622874536" xlink:href="#C1_0_d5f30a8af8" y="150.295155293"/>
    </g>
    <g clip-path="url(#p46a215189e)">
     <use style="fill:none;stroke:#0000ff;" x="178.946029184" xlink:href="#C1_0_d5f30a8af8" y="164.231633342"/>
    </g>
    <g clip-path="url(#p46a215189e)">
     <use style="fill:none;stroke:#0000ff;" x="199.852451744" xlink:href="#C1_0_d5f30a8af8" y="153.063641782"/>
    </g>
    <g clip-path="url(#p46a215189e)">
     <use style="fill:none;stroke:#0000ff;" x="207.717360396" xlink:href="#C1_0_d5f30a8af8" y="177.330991551"/>
    </g>
    <g clip-path="url(#p46a215189e)">
     <use style="fill:none;stroke:#0000ff;" x="199.257827781" xlink:href="#C1_0_d5f30a8af8" y="136.248517145"/>
    </g>
    <g clip-path="url(#p46a215189e)">
     <use style="fill:none;stroke:#0000ff;" x="205.903089114" xlink:href="#C1_0_d5f30a8af8" y="164.108849359"/>
    </g>
    <g clip-path="url(#p46a215189e)">
     <use style="fill:none;stroke:#0000ff;" x="211.73379632" xlink:href="#C1_0_d5f30a8af8" y="180.333623772"/>
    </g>
    <g clip-path="url(#p46a215189e)">
     <use style="fill:none;stroke:#0000ff;" x="201.326862414" xlink:href="#C1_0_d5f30a8af8" y="152.043196625"/>
    </g>
    <g clip-path="url(#p46a215189e)">
     <use style="fill:none;stroke:#0000ff;" x="209.235269826" xlink:href="#C1_0_d5f30a8af8" y="165.805495364"/>
    </g>
    <g clip-path="url(#p46a215189e)">
     <use style="fill:none;stroke:#0000ff;" x="203.882644823" xlink:href="#C1_0_d5f30a8af8" y="150.915692172"/>
    </g>
    <g clip-path="url(#p46a215189e)">
     <use style="fill:none;stroke:#0000ff;" x="205.800173058" xlink:href="#C1_0_d5f30a8af8" y="140.649371174"/>
    </g>
    <g clip-path="url(#p46a215189e)">
     <use style="fill:none;stroke:#0000ff;" x="202.256175638" xlink:href="#C1_0_d5f30a8af8" y="159.526771572"/>
    </g>
    <g clip-path="url(#p46a215189e)">
     <use style="fill:none;stroke:#0000ff;" x="182.762310647" xlink:href="#C1_0_d5f30a8af8" y="160.390077222"/>
    </g>
    <g clip-path="url(#p46a215189e)">
     <use style="fill:none;stroke:#0000ff;" x="197.453962751" xlink:href="#C1_0_d5f30a8af8" y="160.710998146"/>
    </g>
    <g clip-path="url(#p46a215189e)">
     <use style="fill:none;stroke:#0000ff;" x="190.585370453" xlink:href="#C1_0_d5f30a8af8" y="140.019243711"/>
    </g>
    <g clip-path="url(#p46a215189e)">
     <use style="fill:none;stroke:#0000ff;" x="200.453895195" xlink:href="#C1_0_d5f30a8af8" y="138.862689131"/>
    </g>
    <g clip-path="url(#p46a215189e)">
     <use style="fill:none;stroke:#0000ff;" x="189.545415791" xlink:href="#C1_0_d5f30a8af8" y="152.15903789"/>
    </g>
    <g clip-path="url(#p46a215189e)">
     <use style="fill:none;stroke:#0000ff;" x="216.399411367" xlink:href="#C1_0_d5f30a8af8" y="167.448384379"/>
    </g>
    <g clip-path="url(#p46a215189e)">
     <use style="fill:none;stroke:#0000ff;" x="191.509219876" xlink:href="#C1_0_d5f30a8af8" y="162.789587678"/>
    </g>
    <g clip-path="url(#p46a215189e)">
     <use style="fill:none;stroke:#0000ff;" x="176.100396271" xlink:href="#C1_0_d5f30a8af8" y="145.191606125"/>
    </g>
    <g clip-path="url(#p46a215189e)">
     <use style="fill:none;stroke:#0000ff;" x="180.853066825" xlink:href="#C1_0_d5f30a8af8" y="150.46763341"/>
    </g>
    <g clip-path="url(#p46a215189e)">
     <use style="fill:none;stroke:#0000ff;" x="193.007184575" xlink:href="#C1_0_d5f30a8af8" y="170.53358775"/>
    </g>
    <g clip-path="url(#p46a215189e)">
     <use style="fill:none;stroke:#0000ff;" x="194.55037542" xlink:href="#C1_0_d5f30a8af8" y="167.947047341"/>
    </g>
    <g clip-path="url(#p46a215189e)">
     <use style="fill:none;stroke:#0000ff;" x="170.124882128" xlink:href="#C1_0_d5f30a8af8" y="135.312983053"/>
    </g>
   </g>
   <g id="line2d_1">
    <path clip-path="url(#p46a215189e)" d="M 157.039977 25.525935 
L 162.907335 25.679392 
L 168.758611 26.139341 
L 174.577767 26.904522 
L 180.348853 27.972837 
L 186.056051 29.341359 
L 191.683718 31.006336 
L 197.216429 32.963205 
L 202.639019 35.206602 
L 207.936625 37.730378 
L 213.094727 40.527615 
L 218.099187 43.590648 
L 222.936288 46.911079 
L 227.592772 50.479808 
L 232.055875 54.287053 
L 236.313365 58.32238 
L 240.353573 62.574726 
L 244.165423 67.032438 
L 247.738469 71.683296 
L 251.062916 76.514553 
L 254.129653 81.512968 
L 256.930274 86.664838 
L 259.457103 91.956045 
L 261.703213 97.372084 
L 263.662449 102.898111 
L 265.32944 108.51898 
L 266.699617 114.219283 
L 267.769224 119.983397 
L 268.535331 125.795523 
L 268.995836 131.63973 
L 269.149478 137.5 
L 268.995836 143.36027 
L 268.535331 149.204477 
L 267.769224 155.016603 
L 266.699617 160.780717 
L 265.32944 166.48102 
L 263.662449 172.101889 
L 261.703213 177.627916 
L 259.457103 183.043955 
L 256.930274 188.335162 
L 254.129653 193.487032 
L 251.062916 198.485447 
L 247.738469 203.316704 
L 244.165423 207.967562 
L 240.353573 212.425274 
L 236.313365 216.67762 
L 232.055875 220.712947 
L 227.592772 224.520192 
L 222.936288 228.088921 
L 218.099187 231.409352 
L 213.094727 234.472385 
L 207.936625 237.269622 
L 202.639019 239.793398 
L 197.216429 242.036795 
L 191.683718 243.993664 
L 186.056051 245.658641 
L 180.348853 247.027163 
L 174.577767 248.095478 
L 168.758611 248.860659 
L 162.907335 249.320608 
L 157.039977 249.474065 
L 151.172619 249.320608 
L 145.321343 248.860659 
L 139.502187 248.095478 
L 133.731101 247.027163 
L 128.023902 245.658641 
L 122.396235 243.993664 
L 116.863524 242.036795 
L 111.440934 239.793398 
L 106.143328 237.269622 
L 100.985226 234.472385 
L 95.980766 231.409352 
L 91.143665 228.088921 
L 86.487181 224.520192 
L 82.024078 220.712947 
L 77.766588 216.67762 
L 73.726381 212.425274 
L 69.91453 207.967562 
L 66.341485 203.316704 
L 63.017037 198.485447 
L 59.9503 193.487032 
L 57.149679 188.335162 
L 54.622851 183.043955 
L 52.37674 177.627916 
L 50.417505 172.101889 
L 48.750514 166.48102 
L 47.380337 160.780717 
L 46.310729 155.016603 
L 45.544623 149.204477 
L 45.084117 143.36027 
L 44.930475 137.5 
L 45.084117 131.63973 
L 45.544623 125.795523 
L 46.310729 119.983397 
L 47.380337 114.219283 
L 48.750514 108.51898 
L 50.417505 102.898111 
L 52.37674 97.372084 
L 54.622851 91.956045 
L 57.149679 86.664838 
L 59.9503 81.512968 
L 63.017037 76.514553 
L 66.341485 71.683296 
L 69.91453 67.032438 
L 73.726381 62.574726 
L 77.766588 58.32238 
L 82.024078 54.287053 
L 86.487181 50.479808 
L 91.143665 46.911079 
L 95.980766 43.590648 
L 100.985226 40.527615 
L 106.143328 37.730378 
L 111.440934 35.206602 
L 116.863524 32.963205 
L 122.396235 31.006336 
L 128.023902 29.341359 
L 133.731101 27.972837 
L 139.502187 26.904522 
L 145.321343 26.139341 
L 151.172619 25.679392 
L 157.039977 25.525935 
L 157.039977 25.525935 
" style="fill:none;stroke:#000000;stroke-linecap:square;"/>
   </g>
   <g id="line2d_2">
    <defs>
     <path d="M -3 0 
L 3 0 
M 0 3 
L 0 -3 
" id="m6f60aba634" style="stroke:#000000;stroke-width:0.5;"/>
    </defs>
    <g clip-path="url(#p46a215189e)">
     <use style="stroke:#000000;stroke-width:0.5;" x="157.039976616" xlink:href="#m6f60aba634" y="35.7112132669"/>
     <use style="stroke:#000000;stroke-width:0.5;" x="157.039976616" xlink:href="#m6f60aba634" y="46.6711652884"/>
     <use style="stroke:#000000;stroke-width:0.5;" x="157.039976616" xlink:href="#m6f60aba634" y="58.322379586"/>
     <use style="stroke:#000000;stroke-width:0.5;" x="157.039976616" xlink:href="#m6f60aba634" y="70.5761833838"/>
     <use style="stroke:#000000;stroke-width:0.5;" x="157.039976616" xlink:href="#m6f60aba634" y="83.3393178357"/>
     <use style="stroke:#000000;stroke-width:0.5;" x="157.039976616" xlink:href="#m6f60aba634" y="96.5146477819"/>
     <use style="stroke:#000000;stroke-width:0.5;" x="157.039976616" xlink:href="#m6f60aba634" y="110.001901006"/>
     <use style="stroke:#000000;stroke-width:0.5;" x="157.039976616" xlink:href="#m6f60aba634" y="123.698431368"/>
     <use style="stroke:#000000;stroke-width:0.5;" x="157.039976616" xlink:href="#m6f60aba634" y="137.5"/>
    </g>
   </g>
   <g id="line2d_3">
    <g clip-path="url(#p46a215189e)">
     <use style="stroke:#000000;stroke-width:0.5;" x="258.951880779" xlink:href="#m6f60aba634" y="137.5"/>
     <use style="stroke:#000000;stroke-width:0.5;" x="247.978672276" xlink:href="#m6f60aba634" y="137.5"/>
     <use style="stroke:#000000;stroke-width:0.5;" x="236.313365389" xlink:href="#m6f60aba634" y="137.5"/>
     <use style="stroke:#000000;stroke-width:0.5;" x="224.044740147" xlink:href="#m6f60aba634" y="137.5"/>
     <use style="stroke:#000000;stroke-width:0.5;" x="211.266168196" xlink:href="#m6f60aba634" y="137.5"/>
     <use style="stroke:#000000;stroke-width:0.5;" x="198.074902184" xlink:href="#m6f60aba634" y="137.5"/>
     <use style="stroke:#000000;stroke-width:0.5;" x="184.571335612" xlink:href="#m6f60aba634" y="137.5"/>
     <use style="stroke:#000000;stroke-width:0.5;" x="170.858238773" xlink:href="#m6f60aba634" y="137.5"/>
    </g>
   </g>
   <g id="line2d_4">
    <g clip-path="url(#p46a215189e)">
     <use style="stroke:#000000;stroke-width:0.5;" x="157.039976616" xlink:href="#m6f60aba634" y="239.288786733"/>
     <use style="stroke:#000000;stroke-width:0.5;" x="157.039976616" xlink:href="#m6f60aba634" y="228.328834712"/>
     <use style="stroke:#000000;stroke-width:0.5;" x="157.039976616" xlink:href="#m6f60aba634" y="216.677620414"/>
     <use style="stroke:#000000;stroke-width:0.5;" x="157.039976616" xlink:href="#m6f60aba634" y="204.423816616"/>
     <use style="stroke:#000000;stroke-width:0.5;" x="157.039976616" xlink:href="#m6f60aba634" y="191.660682164"/>
     <use style="stroke:#000000;stroke-width:0.5;" x="157.039976616" xlink:href="#m6f60aba634" y="178.485352218"/>
     <use style="stroke:#000000;stroke-width:0.5;" x="157.039976616" xlink:href="#m6f60aba634" y="164.998098994"/>
     <use style="stroke:#000000;stroke-width:0.5;" x="157.039976616" xlink:href="#m6f60aba634" y="151.301568632"/>
    </g>
   </g>
   <g id="line2d_5">
    <g clip-path="url(#p46a215189e)">
     <use style="stroke:#000000;stroke-width:0.5;" x="55.1280724528" xlink:href="#m6f60aba634" y="137.5"/>
     <use style="stroke:#000000;stroke-width:0.5;" x="66.1012809553" xlink:href="#m6f60aba634" y="137.5"/>
     <use style="stroke:#000000;stroke-width:0.5;" x="77.7665878422" xlink:href="#m6f60aba634" y="137.5"/>
     <use style="stroke:#000000;stroke-width:0.5;" x="90.0352130842" xlink:href="#m6f60aba634" y="137.5"/>
     <use style="stroke:#000000;stroke-width:0.5;" x="102.813785035" xlink:href="#m6f60aba634" y="137.5"/>
     <use style="stroke:#000000;stroke-width:0.5;" x="116.005051047" xlink:href="#m6f60aba634" y="137.5"/>
     <use style="stroke:#000000;stroke-width:0.5;" x="129.50861762" xlink:href="#m6f60aba634" y="137.5"/>
     <use style="stroke:#000000;stroke-width:0.5;" x="143.221714458" xlink:href="#m6f60aba634" y="137.5"/>
    </g>
   </g>
   <g id="line2d_6">
    <path clip-path="url(#p46a215189e)" d="M 157.039977 25.525935 
L 157.039977 26.507345 
L 157.039977 27.497206 
L 157.039977 28.495445 
" style="fill:none;stroke:#000000;stroke-linecap:square;"/>
   </g>
   <g id="line2d_7">
    <path clip-path="url(#p46a215189e)" d="M 176.507587 27.227073 
L 176.336961 28.193572 
L 176.164866 29.168396 
L 175.991314 30.15147 
" style="fill:none;stroke:#000000;stroke-linecap:square;"/>
   </g>
   <g id="line2d_8">
    <path clip-path="url(#p46a215189e)" d="M 195.383684 32.278798 
L 195.047617 33.201021 
L 194.708654 34.131187 
L 194.366824 35.069224 
" style="fill:none;stroke:#000000;stroke-linecap:square;"/>
   </g>
   <g id="line2d_9">
    <path clip-path="url(#p46a215189e)" d="M 213.094727 40.527615 
L 212.603429 41.377541 
L 212.1079 42.234786 
L 211.608177 43.099287 
" style="fill:none;stroke:#000000;stroke-linecap:square;"/>
   </g>
   <g id="line2d_10">
    <path clip-path="url(#p46a215189e)" d="M 229.102575 51.72289 
L 228.470974 52.474693 
L 227.833934 53.232971 
L 227.191502 53.997667 
" style="fill:none;stroke:#000000;stroke-linecap:square;"/>
   </g>
   <g id="line2d_11">
    <path clip-path="url(#p46a215189e)" d="M 242.920837 65.524459 
L 242.168125 66.155296 
L 241.40893 66.791567 
L 240.643309 67.433223 
" style="fill:none;stroke:#000000;stroke-linecap:square;"/>
   </g>
   <g id="line2d_12">
    <path clip-path="url(#p46a215189e)" d="M 254.129653 81.512968 
L 253.2787 82.003672 
L 252.420417 82.498603 
L 251.554871 82.997723 
" style="fill:none;stroke:#000000;stroke-linecap:square;"/>
   </g>
   <g id="line2d_13">
    <path clip-path="url(#p46a215189e)" d="M 262.388448 99.202614 
L 261.465109 99.538276 
L 260.533819 99.876829 
L 259.594646 100.218247 
" style="fill:none;stroke:#000000;stroke-linecap:square;"/>
   </g>
   <g id="line2d_14">
    <path clip-path="url(#p46a215189e)" d="M 267.446283 118.055908 
L 266.478614 118.226328 
L 265.502612 118.398215 
L 264.518349 118.571558 
" style="fill:none;stroke:#000000;stroke-linecap:square;"/>
   </g>
   <g id="line2d_15">
    <path clip-path="url(#p46a215189e)" d="M 269.149478 137.5 
L 268.166882 137.5 
L 267.175823 137.5 
L 266.176376 137.5 
" style="fill:none;stroke:#000000;stroke-linecap:square;"/>
   </g>
   <g id="line2d_16">
    <path clip-path="url(#p46a215189e)" d="M 267.446283 156.944092 
L 266.478614 156.773672 
L 265.502612 156.601785 
L 264.518349 156.428442 
" style="fill:none;stroke:#000000;stroke-linecap:square;"/>
   </g>
   <g id="line2d_17">
    <path clip-path="url(#p46a215189e)" d="M 262.388448 175.797386 
L 261.465109 175.461724 
L 260.533819 175.123171 
L 259.594646 174.781753 
" style="fill:none;stroke:#000000;stroke-linecap:square;"/>
   </g>
   <g id="line2d_18">
    <path clip-path="url(#p46a215189e)" d="M 254.129653 193.487032 
L 253.2787 192.996328 
L 252.420417 192.501397 
L 251.554871 192.002277 
" style="fill:none;stroke:#000000;stroke-linecap:square;"/>
   </g>
   <g id="line2d_19">
    <path clip-path="url(#p46a215189e)" d="M 242.920837 209.475541 
L 242.168125 208.844704 
L 241.40893 208.208433 
L 240.643309 207.566777 
" style="fill:none;stroke:#000000;stroke-linecap:square;"/>
   </g>
   <g id="line2d_20">
    <path clip-path="url(#p46a215189e)" d="M 229.102575 223.27711 
L 228.470974 222.525307 
L 227.833934 221.767029 
L 227.191502 221.002333 
" style="fill:none;stroke:#000000;stroke-linecap:square;"/>
   </g>
   <g id="line2d_21">
    <path clip-path="url(#p46a215189e)" d="M 213.094727 234.472385 
L 212.603429 233.622459 
L 212.1079 232.765214 
L 211.608177 231.900713 
" style="fill:none;stroke:#000000;stroke-linecap:square;"/>
   </g>
   <g id="line2d_22">
    <path clip-path="url(#p46a215189e)" d="M 195.383684 242.721202 
L 195.047617 241.798979 
L 194.708654 240.868813 
L 194.366824 239.930776 
" style="fill:none;stroke:#000000;stroke-linecap:square;"/>
   </g>
   <g id="line2d_23">
    <path clip-path="url(#p46a215189e)" d="M 176.507587 247.772927 
L 176.336961 246.806428 
L 176.164866 245.831604 
L 175.991314 244.84853 
" style="fill:none;stroke:#000000;stroke-linecap:square;"/>
   </g>
   <g id="line2d_24">
    <path clip-path="url(#p46a215189e)" d="M 157.039977 249.474065 
L 157.039977 248.492655 
L 157.039977 247.502794 
L 157.039977 246.504555 
" style="fill:none;stroke:#000000;stroke-linecap:square;"/>
   </g>
   <g id="line2d_25">
    <path clip-path="url(#p46a215189e)" d="M 137.572366 247.772927 
L 137.742992 246.806428 
L 137.915088 245.831604 
L 138.08864 244.84853 
" style="fill:none;stroke:#000000;stroke-linecap:square;"/>
   </g>
   <g id="line2d_26">
    <path clip-path="url(#p46a215189e)" d="M 118.696269 242.721202 
L 119.032337 241.798979 
L 119.371299 240.868813 
L 119.71313 239.930776 
" style="fill:none;stroke:#000000;stroke-linecap:square;"/>
   </g>
   <g id="line2d_27">
    <path clip-path="url(#p46a215189e)" d="M 100.985226 234.472385 
L 101.476524 233.622459 
L 101.972054 232.765214 
L 102.471777 231.900713 
" style="fill:none;stroke:#000000;stroke-linecap:square;"/>
   </g>
   <g id="line2d_28">
    <path clip-path="url(#p46a215189e)" d="M 84.977378 223.27711 
L 85.608979 222.525307 
L 86.246019 221.767029 
L 86.888451 221.002333 
" style="fill:none;stroke:#000000;stroke-linecap:square;"/>
   </g>
   <g id="line2d_29">
    <path clip-path="url(#p46a215189e)" d="M 71.159116 209.475541 
L 71.911828 208.844704 
L 72.671024 208.208433 
L 73.436644 207.566777 
" style="fill:none;stroke:#000000;stroke-linecap:square;"/>
   </g>
   <g id="line2d_30">
    <path clip-path="url(#p46a215189e)" d="M 59.9503 193.487032 
L 60.801254 192.996328 
L 61.659536 192.501397 
L 62.525082 192.002277 
" style="fill:none;stroke:#000000;stroke-linecap:square;"/>
   </g>
   <g id="line2d_31">
    <path clip-path="url(#p46a215189e)" d="M 51.691505 175.797386 
L 52.614844 175.461724 
L 53.546135 175.123171 
L 54.485307 174.781753 
" style="fill:none;stroke:#000000;stroke-linecap:square;"/>
   </g>
   <g id="line2d_32">
    <path clip-path="url(#p46a215189e)" d="M 46.63367 156.944092 
L 47.601339 156.773672 
L 48.577341 156.601785 
L 49.561604 156.428442 
" style="fill:none;stroke:#000000;stroke-linecap:square;"/>
   </g>
   <g id="line2d_33">
    <path clip-path="url(#p46a215189e)" d="M 44.930475 137.5 
L 45.913071 137.5 
L 46.90413 137.5 
L 47.903577 137.5 
" style="fill:none;stroke:#000000;stroke-linecap:square;"/>
   </g>
   <g id="line2d_34">
    <path clip-path="url(#p46a215189e)" d="M 46.63367 118.055908 
L 47.601339 118.226328 
L 48.577341 118.398215 
L 49.561604 118.571558 
" style="fill:none;stroke:#000000;stroke-linecap:square;"/>
   </g>
   <g id="line2d_35">
    <path clip-path="url(#p46a215189e)" d="M 51.691505 99.202614 
L 52.614844 99.538276 
L 53.546135 99.876829 
L 54.485307 100.218247 
" style="fill:none;stroke:#000000;stroke-linecap:square;"/>
   </g>
   <g id="line2d_36">
    <path clip-path="url(#p46a215189e)" d="M 59.9503 81.512968 
L 60.801254 82.003672 
L 61.659536 82.498603 
L 62.525082 82.997723 
" style="fill:none;stroke:#000000;stroke-linecap:square;"/>
   </g>
   <g id="line2d_37">
    <path clip-path="url(#p46a215189e)" d="M 71.159116 65.524459 
L 71.911828 66.155296 
L 72.671024 66.791567 
L 73.436644 67.433223 
" style="fill:none;stroke:#000000;stroke-linecap:square;"/>
   </g>
   <g id="line2d_38">
    <path clip-path="url(#p46a215189e)" d="M 84.977378 51.72289 
L 85.608979 52.474693 
L 86.246019 53.232971 
L 86.888451 53.997667 
" style="fill:none;stroke:#000000;stroke-linecap:square;"/>
   </g>
   <g id="line2d_39">
    <path clip-path="url(#p46a215189e)" d="M 100.985226 40.527615 
L 101.476524 41.377541 
L 101.972054 42.234786 
L 102.471777 43.099287 
" style="fill:none;stroke:#000000;stroke-linecap:square;"/>
   </g>
   <g id="line2d_40">
    <path clip-path="url(#p46a215189e)" d="M 118.696269 32.278798 
L 119.032337 33.201021 
L 119.371299 34.131187 
L 119.71313 35.069224 
" style="fill:none;stroke:#000000;stroke-linecap:square;"/>
   </g>
   <g id="line2d_41">
    <path clip-path="url(#p46a215189e)" d="M 137.572366 27.227073 
L 137.742992 28.193572 
L 137.915088 29.168396 
L 138.08864 30.15147 
" style="fill:none;stroke:#000000;stroke-linecap:square;"/>
   </g>
   <g id="legend_1">
    <g id="patch_2">
     <path d="M 18.604977 55.6275 
L 295.474977 55.6275 
L 295.474977 16.8 
L 18.604977 16.8 
z
" style="fill:#ffffff;stroke:#000000;stroke-linejoin:miter;"/>
    </g>
    <g id="PathCollection_3">
     <path d="M 27.004977 29.804193 
C 27.597989 29.804193 28.166793 29.568587 28.586115 29.149264 
C 29.005438 28.729941 29.241045 28.161137 29.241045 27.568125 
C 29.241045 26.975113 29.005438 26.406309 28.586115 25.986986 
C 28.166793 25.567663 27.597989 25.332057 27.004977 25.332057 
C 26.411964 25.332057 25.843161 25.567663 25.423838 25.986986 
C 25.004515 26.406309 24.768909 26.975113 24.768909 27.568125 
C 24.768909 28.161137 25.004515 28.729941 25.423838 29.149264 
C 25.843161 29.568587 26.411964 29.804193 27.004977 29.804193 
L 27.004977 29.804193 
z
" style="fill:none;stroke:#ff0000;"/>
     <path d="M 35.404977 28.754193 
C 35.997989 28.754193 36.566793 28.518587 36.986115 28.099264 
C 37.405438 27.679941 37.641045 27.111137 37.641045 26.518125 
C 37.641045 25.925113 37.405438 25.356309 36.986115 24.936986 
C 36.566793 24.517663 35.997989 24.282057 35.404977 24.282057 
C 34.811964 24.282057 34.243161 24.517663 33.823838 24.936986 
C 33.404515 25.356309 33.168909 25.925113 33.168909 26.518125 
C 33.168909 27.111137 33.404515 27.679941 33.823838 28.099264 
C 34.243161 28.518587 34.811964 28.754193 35.404977 28.754193 
L 35.404977 28.754193 
z
" style="fill:none;stroke:#ff0000;"/>
     <path d="M 43.804977 30.329193 
C 44.397989 30.329193 44.966793 30.093587 45.386115 29.674264 
C 45.805438 29.254941 46.041045 28.686137 46.041045 28.093125 
C 46.041045 27.500113 45.805438 26.931309 45.386115 26.511986 
C 44.966793 26.092663 44.397989 25.857057 43.804977 25.857057 
C 43.211964 25.857057 42.643161 26.092663 42.223838 26.511986 
C 41.804515 26.931309 41.568909 27.500113 41.568909 28.093125 
C 41.568909 28.686137 41.804515 29.254941 42.223838 29.674264 
C 42.643161 30.093587 43.211964 30.329193 43.804977 30.329193 
L 43.804977 30.329193 
z
" style="fill:none;stroke:#ff0000;"/>
    </g>
    <g id="text_1">
     <!-- Halls (1974) site means (in situ) -->
     <defs>
      <path id="BitstreamVeraSans-Roman-20"/>
      <path d="M 12.40625 8.296875 
L 28.515625 8.296875 
L 28.515625 63.921875 
L 10.984375 60.40625 
L 10.984375 69.390625 
L 28.421875 72.90625 
L 38.28125 72.90625 
L 38.28125 8.296875 
L 54.390625 8.296875 
L 54.390625 0 
L 12.40625 0 
z
" id="BitstreamVeraSans-Roman-31"/>
      <path d="M 8.203125 72.90625 
L 55.078125 72.90625 
L 55.078125 68.703125 
L 28.609375 0 
L 18.3125 0 
L 43.21875 64.59375 
L 8.203125 64.59375 
z
" id="BitstreamVeraSans-Roman-37"/>
      <path d="M 37.796875 64.3125 
L 12.890625 25.390625 
L 37.796875 25.390625 
z
M 35.203125 72.90625 
L 47.609375 72.90625 
L 47.609375 25.390625 
L 58.015625 25.390625 
L 58.015625 17.1875 
L 47.609375 17.1875 
L 47.609375 0 
L 37.796875 0 
L 37.796875 17.1875 
L 4.890625 17.1875 
L 4.890625 26.703125 
z
" id="BitstreamVeraSans-Roman-34"/>
      <path d="M 8.015625 75.875 
L 15.828125 75.875 
Q 23.140625 64.359375 26.78125 53.3125 
Q 30.421875 42.28125 30.421875 31.390625 
Q 30.421875 20.453125 26.78125 9.375 
Q 23.140625 -1.703125 15.828125 -13.1875 
L 8.015625 -13.1875 
Q 14.5 -2 17.703125 9.0625 
Q 20.90625 20.125 20.90625 31.390625 
Q 20.90625 42.671875 17.703125 53.65625 
Q 14.5 64.65625 8.015625 75.875 
" id="BitstreamVeraSans-Roman-29"/>
      <path d="M 31 75.875 
Q 24.46875 64.65625 21.28125 53.65625 
Q 18.109375 42.671875 18.109375 31.390625 
Q 18.109375 20.125 21.3125 9.0625 
Q 24.515625 -2 31 -13.1875 
L 23.1875 -13.1875 
Q 15.875 -1.703125 12.234375 9.375 
Q 8.59375 20.453125 8.59375 31.390625 
Q 8.59375 42.28125 12.203125 53.3125 
Q 15.828125 64.359375 23.1875 75.875 
z
" id="BitstreamVeraSans-Roman-28"/>
      <path d="M 10.984375 1.515625 
L 10.984375 10.5 
Q 14.703125 8.734375 18.5 7.8125 
Q 22.3125 6.890625 25.984375 6.890625 
Q 35.75 6.890625 40.890625 13.453125 
Q 46.046875 20.015625 46.78125 33.40625 
Q 43.953125 29.203125 39.59375 26.953125 
Q 35.25 24.703125 29.984375 24.703125 
Q 19.046875 24.703125 12.671875 31.3125 
Q 6.296875 37.9375 6.296875 49.421875 
Q 6.296875 60.640625 12.9375 67.421875 
Q 19.578125 74.21875 30.609375 74.21875 
Q 43.265625 74.21875 49.921875 64.515625 
Q 56.59375 54.828125 56.59375 36.375 
Q 56.59375 19.140625 48.40625 8.859375 
Q 40.234375 -1.421875 26.421875 -1.421875 
Q 22.703125 -1.421875 18.890625 -0.6875 
Q 15.09375 0.046875 10.984375 1.515625 
M 30.609375 32.421875 
Q 37.25 32.421875 41.125 36.953125 
Q 45.015625 41.5 45.015625 49.421875 
Q 45.015625 57.28125 41.125 61.84375 
Q 37.25 66.40625 30.609375 66.40625 
Q 23.96875 66.40625 20.09375 61.84375 
Q 16.21875 57.28125 16.21875 49.421875 
Q 16.21875 41.5 20.09375 36.953125 
Q 23.96875 32.421875 30.609375 32.421875 
" id="BitstreamVeraSans-Roman-39"/>
      <path d="M 9.421875 75.984375 
L 18.40625 75.984375 
L 18.40625 0 
L 9.421875 0 
z
" id="BitstreamVeraSans-Roman-6c"/>
      <path d="M 54.890625 33.015625 
L 54.890625 0 
L 45.90625 0 
L 45.90625 32.71875 
Q 45.90625 40.484375 42.875 44.328125 
Q 39.84375 48.1875 33.796875 48.1875 
Q 26.515625 48.1875 22.3125 43.546875 
Q 18.109375 38.921875 18.109375 30.90625 
L 18.109375 0 
L 9.078125 0 
L 9.078125 54.6875 
L 18.109375 54.6875 
L 18.109375 46.1875 
Q 21.34375 51.125 25.703125 53.5625 
Q 30.078125 56 35.796875 56 
Q 45.21875 56 50.046875 50.171875 
Q 54.890625 44.34375 54.890625 33.015625 
" id="BitstreamVeraSans-Roman-6e"/>
      <path d="M 9.421875 54.6875 
L 18.40625 54.6875 
L 18.40625 0 
L 9.421875 0 
z
M 9.421875 75.984375 
L 18.40625 75.984375 
L 18.40625 64.59375 
L 9.421875 64.59375 
z
" id="BitstreamVeraSans-Roman-69"/>
      <path d="M 52 44.1875 
Q 55.375 50.25 60.0625 53.125 
Q 64.75 56 71.09375 56 
Q 79.640625 56 84.28125 50.015625 
Q 88.921875 44.046875 88.921875 33.015625 
L 88.921875 0 
L 79.890625 0 
L 79.890625 32.71875 
Q 79.890625 40.578125 77.09375 44.375 
Q 74.3125 48.1875 68.609375 48.1875 
Q 61.625 48.1875 57.5625 43.546875 
Q 53.515625 38.921875 53.515625 30.90625 
L 53.515625 0 
L 44.484375 0 
L 44.484375 32.71875 
Q 44.484375 40.625 41.703125 44.40625 
Q 38.921875 48.1875 33.109375 48.1875 
Q 26.21875 48.1875 22.15625 43.53125 
Q 18.109375 38.875 18.109375 30.90625 
L 18.109375 0 
L 9.078125 0 
L 9.078125 54.6875 
L 18.109375 54.6875 
L 18.109375 46.1875 
Q 21.1875 51.21875 25.484375 53.609375 
Q 29.78125 56 35.6875 56 
Q 41.65625 56 45.828125 52.96875 
Q 50 49.953125 52 44.1875 
" id="BitstreamVeraSans-Roman-6d"/>
      <path d="M 56.203125 29.59375 
L 56.203125 25.203125 
L 14.890625 25.203125 
Q 15.484375 15.921875 20.484375 11.0625 
Q 25.484375 6.203125 34.421875 6.203125 
Q 39.59375 6.203125 44.453125 7.46875 
Q 49.3125 8.734375 54.109375 11.28125 
L 54.109375 2.78125 
Q 49.265625 0.734375 44.1875 -0.34375 
Q 39.109375 -1.421875 33.890625 -1.421875 
Q 20.796875 -1.421875 13.15625 6.1875 
Q 5.515625 13.8125 5.515625 26.8125 
Q 5.515625 40.234375 12.765625 48.109375 
Q 20.015625 56 32.328125 56 
Q 43.359375 56 49.78125 48.890625 
Q 56.203125 41.796875 56.203125 29.59375 
M 47.21875 32.234375 
Q 47.125 39.59375 43.09375 43.984375 
Q 39.0625 48.390625 32.421875 48.390625 
Q 24.90625 48.390625 20.390625 44.140625 
Q 15.875 39.890625 15.1875 32.171875 
z
" id="BitstreamVeraSans-Roman-65"/>
      <path d="M 18.3125 70.21875 
L 18.3125 54.6875 
L 36.8125 54.6875 
L 36.8125 47.703125 
L 18.3125 47.703125 
L 18.3125 18.015625 
Q 18.3125 11.328125 20.140625 9.421875 
Q 21.96875 7.515625 27.59375 7.515625 
L 36.8125 7.515625 
L 36.8125 0 
L 27.59375 0 
Q 17.1875 0 13.234375 3.875 
Q 9.28125 7.765625 9.28125 18.015625 
L 9.28125 47.703125 
L 2.6875 47.703125 
L 2.6875 54.6875 
L 9.28125 54.6875 
L 9.28125 70.21875 
z
" id="BitstreamVeraSans-Roman-74"/>
      <path d="M 8.5 21.578125 
L 8.5 54.6875 
L 17.484375 54.6875 
L 17.484375 21.921875 
Q 17.484375 14.15625 20.5 10.265625 
Q 23.53125 6.390625 29.59375 6.390625 
Q 36.859375 6.390625 41.078125 11.03125 
Q 45.3125 15.671875 45.3125 23.6875 
L 45.3125 54.6875 
L 54.296875 54.6875 
L 54.296875 0 
L 45.3125 0 
L 45.3125 8.40625 
Q 42.046875 3.421875 37.71875 1 
Q 33.40625 -1.421875 27.6875 -1.421875 
Q 18.265625 -1.421875 13.375 4.4375 
Q 8.5 10.296875 8.5 21.578125 
" id="BitstreamVeraSans-Roman-75"/>
      <path d="M 34.28125 27.484375 
Q 23.390625 27.484375 19.1875 25 
Q 14.984375 22.515625 14.984375 16.5 
Q 14.984375 11.71875 18.140625 8.90625 
Q 21.296875 6.109375 26.703125 6.109375 
Q 34.1875 6.109375 38.703125 11.40625 
Q 43.21875 16.703125 43.21875 25.484375 
L 43.21875 27.484375 
z
M 52.203125 31.203125 
L 52.203125 0 
L 43.21875 0 
L 43.21875 8.296875 
Q 40.140625 3.328125 35.546875 0.953125 
Q 30.953125 -1.421875 24.3125 -1.421875 
Q 15.921875 -1.421875 10.953125 3.296875 
Q 6 8.015625 6 15.921875 
Q 6 25.140625 12.171875 29.828125 
Q 18.359375 34.515625 30.609375 34.515625 
L 43.21875 34.515625 
L 43.21875 35.40625 
Q 43.21875 41.609375 39.140625 45 
Q 35.0625 48.390625 27.6875 48.390625 
Q 23 48.390625 18.546875 47.265625 
Q 14.109375 46.140625 10.015625 43.890625 
L 10.015625 52.203125 
Q 14.9375 54.109375 19.578125 55.046875 
Q 24.21875 56 28.609375 56 
Q 40.484375 56 46.34375 49.84375 
Q 52.203125 43.703125 52.203125 31.203125 
" id="BitstreamVeraSans-Roman-61"/>
      <path d="M 44.28125 53.078125 
L 44.28125 44.578125 
Q 40.484375 46.53125 36.375 47.5 
Q 32.28125 48.484375 27.875 48.484375 
Q 21.1875 48.484375 17.84375 46.4375 
Q 14.5 44.390625 14.5 40.28125 
Q 14.5 37.15625 16.890625 35.375 
Q 19.28125 33.59375 26.515625 31.984375 
L 29.59375 31.296875 
Q 39.15625 29.25 43.1875 25.515625 
Q 47.21875 21.78125 47.21875 15.09375 
Q 47.21875 7.46875 41.1875 3.015625 
Q 35.15625 -1.421875 24.609375 -1.421875 
Q 20.21875 -1.421875 15.453125 -0.5625 
Q 10.6875 0.296875 5.421875 2 
L 5.421875 11.28125 
Q 10.40625 8.6875 15.234375 7.390625 
Q 20.0625 6.109375 24.8125 6.109375 
Q 31.15625 6.109375 34.5625 8.28125 
Q 37.984375 10.453125 37.984375 14.40625 
Q 37.984375 18.0625 35.515625 20.015625 
Q 33.0625 21.96875 24.703125 23.78125 
L 21.578125 24.515625 
Q 13.234375 26.265625 9.515625 29.90625 
Q 5.8125 33.546875 5.8125 39.890625 
Q 5.8125 47.609375 11.28125 51.796875 
Q 16.75 56 26.8125 56 
Q 31.78125 56 36.171875 55.265625 
Q 40.578125 54.546875 44.28125 53.078125 
" id="BitstreamVeraSans-Roman-73"/>
      <path d="M 9.8125 72.90625 
L 19.671875 72.90625 
L 19.671875 43.015625 
L 55.515625 43.015625 
L 55.515625 72.90625 
L 65.375 72.90625 
L 65.375 0 
L 55.515625 0 
L 55.515625 34.71875 
L 19.671875 34.71875 
L 19.671875 0 
L 9.8125 0 
z
" id="BitstreamVeraSans-Roman-48"/>
     </defs>
     <g transform="translate(57.0049766156 30.718125)scale(0.12 -0.12)">
      <use xlink:href="#BitstreamVeraSans-Roman-48"/>
      <use x="75.1953125" xlink:href="#BitstreamVeraSans-Roman-61"/>
      <use x="136.474609375" xlink:href="#BitstreamVeraSans-Roman-6c"/>
      <use x="164.2578125" xlink:href="#BitstreamVeraSans-Roman-6c"/>
      <use x="192.041015625" xlink:href="#BitstreamVeraSans-Roman-73"/>
      <use x="244.140625" xlink:href="#BitstreamVeraSans-Roman-20"/>
      <use x="275.927734375" xlink:href="#BitstreamVeraSans-Roman-28"/>
      <use x="314.94140625" xlink:href="#BitstreamVeraSans-Roman-31"/>
      <use x="378.564453125" xlink:href="#BitstreamVeraSans-Roman-39"/>
      <use x="442.1875" xlink:href="#BitstreamVeraSans-Roman-37"/>
      <use x="505.810546875" xlink:href="#BitstreamVeraSans-Roman-34"/>
      <use x="569.43359375" xlink:href="#BitstreamVeraSans-Roman-29"/>
      <use x="608.447265625" xlink:href="#BitstreamVeraSans-Roman-20"/>
      <use x="640.234375" xlink:href="#BitstreamVeraSans-Roman-73"/>
      <use x="692.333984375" xlink:href="#BitstreamVeraSans-Roman-69"/>
      <use x="720.1171875" xlink:href="#BitstreamVeraSans-Roman-74"/>
      <use x="759.326171875" xlink:href="#BitstreamVeraSans-Roman-65"/>
      <use x="820.849609375" xlink:href="#BitstreamVeraSans-Roman-20"/>
      <use x="852.63671875" xlink:href="#BitstreamVeraSans-Roman-6d"/>
      <use x="950.048828125" xlink:href="#BitstreamVeraSans-Roman-65"/>
      <use x="1011.57226562" xlink:href="#BitstreamVeraSans-Roman-61"/>
      <use x="1072.8515625" xlink:href="#BitstreamVeraSans-Roman-6e"/>
      <use x="1136.23046875" xlink:href="#BitstreamVeraSans-Roman-73"/>
      <use x="1188.33007812" xlink:href="#BitstreamVeraSans-Roman-20"/>
      <use x="1220.1171875" xlink:href="#BitstreamVeraSans-Roman-28"/>
      <use x="1259.13085938" xlink:href="#BitstreamVeraSans-Roman-69"/>
      <use x="1286.9140625" xlink:href="#BitstreamVeraSans-Roman-6e"/>
      <use x="1350.29296875" xlink:href="#BitstreamVeraSans-Roman-20"/>
      <use x="1382.08007812" xlink:href="#BitstreamVeraSans-Roman-73"/>
      <use x="1434.1796875" xlink:href="#BitstreamVeraSans-Roman-69"/>
      <use x="1461.96289062" xlink:href="#BitstreamVeraSans-Roman-74"/>
      <use x="1501.171875" xlink:href="#BitstreamVeraSans-Roman-75"/>
      <use x="1564.55078125" xlink:href="#BitstreamVeraSans-Roman-29"/>
     </g>
    </g>
    <g id="PathCollection_4">
     <path d="M 27.004977 47.417943 
C 27.597989 47.417943 28.166793 47.182337 28.586115 46.763014 
C 29.005438 46.343691 29.241045 45.774887 29.241045 45.181875 
C 29.241045 44.588863 29.005438 44.020059 28.586115 43.600736 
C 28.166793 43.181413 27.597989 42.945807 27.004977 42.945807 
C 26.411964 42.945807 25.843161 43.181413 25.423838 43.600736 
C 25.004515 44.020059 24.768909 44.588863 24.768909 45.181875 
C 24.768909 45.774887 25.004515 46.343691 25.423838 46.763014 
C 25.843161 47.182337 26.411964 47.417943 27.004977 47.417943 
L 27.004977 47.417943 
z
" style="fill:none;stroke:#0000ff;"/>
     <path d="M 35.404977 46.367943 
C 35.997989 46.367943 36.566793 46.132337 36.986115 45.713014 
C 37.405438 45.293691 37.641045 44.724887 37.641045 44.131875 
C 37.641045 43.538863 37.405438 42.970059 36.986115 42.550736 
C 36.566793 42.131413 35.997989 41.895807 35.404977 41.895807 
C 34.811964 41.895807 34.243161 42.131413 33.823838 42.550736 
C 33.404515 42.970059 33.168909 43.538863 33.168909 44.131875 
C 33.168909 44.724887 33.404515 45.293691 33.823838 45.713014 
C 34.243161 46.132337 34.811964 46.367943 35.404977 46.367943 
L 35.404977 46.367943 
z
" style="fill:none;stroke:#0000ff;"/>
     <path d="M 43.804977 47.942943 
C 44.397989 47.942943 44.966793 47.707337 45.386115 47.288014 
C 45.805438 46.868691 46.041045 46.299887 46.041045 45.706875 
C 46.041045 45.113863 45.805438 44.545059 45.386115 44.125736 
C 44.966793 43.706413 44.397989 43.470807 43.804977 43.470807 
C 43.211964 43.470807 42.643161 43.706413 42.223838 44.125736 
C 41.804515 44.545059 41.568909 45.113863 41.568909 45.706875 
C 41.568909 46.299887 41.804515 46.868691 42.223838 47.288014 
C 42.643161 47.707337 43.211964 47.942943 43.804977 47.942943 
L 43.804977 47.942943 
z
" style="fill:none;stroke:#0000ff;"/>
    </g>
    <g id="text_2">
     <!-- Halls (1974) site means (tilt-corrected) -->
     <defs>
      <path d="M 45.40625 46.390625 
L 45.40625 75.984375 
L 54.390625 75.984375 
L 54.390625 0 
L 45.40625 0 
L 45.40625 8.203125 
Q 42.578125 3.328125 38.25 0.953125 
Q 33.9375 -1.421875 27.875 -1.421875 
Q 17.96875 -1.421875 11.734375 6.484375 
Q 5.515625 14.40625 5.515625 27.296875 
Q 5.515625 40.1875 11.734375 48.09375 
Q 17.96875 56 27.875 56 
Q 33.9375 56 38.25 53.625 
Q 42.578125 51.265625 45.40625 46.390625 
M 14.796875 27.296875 
Q 14.796875 17.390625 18.875 11.75 
Q 22.953125 6.109375 30.078125 6.109375 
Q 37.203125 6.109375 41.296875 11.75 
Q 45.40625 17.390625 45.40625 27.296875 
Q 45.40625 37.203125 41.296875 42.84375 
Q 37.203125 48.484375 30.078125 48.484375 
Q 22.953125 48.484375 18.875 42.84375 
Q 14.796875 37.203125 14.796875 27.296875 
" id="BitstreamVeraSans-Roman-64"/>
      <path d="M 30.609375 48.390625 
Q 23.390625 48.390625 19.1875 42.75 
Q 14.984375 37.109375 14.984375 27.296875 
Q 14.984375 17.484375 19.15625 11.84375 
Q 23.34375 6.203125 30.609375 6.203125 
Q 37.796875 6.203125 41.984375 11.859375 
Q 46.1875 17.53125 46.1875 27.296875 
Q 46.1875 37.015625 41.984375 42.703125 
Q 37.796875 48.390625 30.609375 48.390625 
M 30.609375 56 
Q 42.328125 56 49.015625 48.375 
Q 55.71875 40.765625 55.71875 27.296875 
Q 55.71875 13.875 49.015625 6.21875 
Q 42.328125 -1.421875 30.609375 -1.421875 
Q 18.84375 -1.421875 12.171875 6.21875 
Q 5.515625 13.875 5.515625 27.296875 
Q 5.515625 40.765625 12.171875 48.375 
Q 18.84375 56 30.609375 56 
" id="BitstreamVeraSans-Roman-6f"/>
      <path d="M 41.109375 46.296875 
Q 39.59375 47.171875 37.8125 47.578125 
Q 36.03125 48 33.890625 48 
Q 26.265625 48 22.1875 43.046875 
Q 18.109375 38.09375 18.109375 28.8125 
L 18.109375 0 
L 9.078125 0 
L 9.078125 54.6875 
L 18.109375 54.6875 
L 18.109375 46.1875 
Q 20.953125 51.171875 25.484375 53.578125 
Q 30.03125 56 36.53125 56 
Q 37.453125 56 38.578125 55.875 
Q 39.703125 55.765625 41.0625 55.515625 
z
" id="BitstreamVeraSans-Roman-72"/>
      <path d="M 4.890625 31.390625 
L 31.203125 31.390625 
L 31.203125 23.390625 
L 4.890625 23.390625 
z
" id="BitstreamVeraSans-Roman-2d"/>
      <path d="M 48.78125 52.59375 
L 48.78125 44.1875 
Q 44.96875 46.296875 41.140625 47.34375 
Q 37.3125 48.390625 33.40625 48.390625 
Q 24.65625 48.390625 19.8125 42.84375 
Q 14.984375 37.3125 14.984375 27.296875 
Q 14.984375 17.28125 19.8125 11.734375 
Q 24.65625 6.203125 33.40625 6.203125 
Q 37.3125 6.203125 41.140625 7.25 
Q 44.96875 8.296875 48.78125 10.40625 
L 48.78125 2.09375 
Q 45.015625 0.34375 40.984375 -0.53125 
Q 36.96875 -1.421875 32.421875 -1.421875 
Q 20.0625 -1.421875 12.78125 6.34375 
Q 5.515625 14.109375 5.515625 27.296875 
Q 5.515625 40.671875 12.859375 48.328125 
Q 20.21875 56 33.015625 56 
Q 37.15625 56 41.109375 55.140625 
Q 45.0625 54.296875 48.78125 52.59375 
" id="BitstreamVeraSans-Roman-63"/>
     </defs>
     <g transform="translate(57.0049766156 48.331875)scale(0.12 -0.12)">
      <use xlink:href="#BitstreamVeraSans-Roman-48"/>
      <use x="75.1953125" xlink:href="#BitstreamVeraSans-Roman-61"/>
      <use x="136.474609375" xlink:href="#BitstreamVeraSans-Roman-6c"/>
      <use x="164.2578125" xlink:href="#BitstreamVeraSans-Roman-6c"/>
      <use x="192.041015625" xlink:href="#BitstreamVeraSans-Roman-73"/>
      <use x="244.140625" xlink:href="#BitstreamVeraSans-Roman-20"/>
      <use x="275.927734375" xlink:href="#BitstreamVeraSans-Roman-28"/>
      <use x="314.94140625" xlink:href="#BitstreamVeraSans-Roman-31"/>
      <use x="378.564453125" xlink:href="#BitstreamVeraSans-Roman-39"/>
      <use x="442.1875" xlink:href="#BitstreamVeraSans-Roman-37"/>
      <use x="505.810546875" xlink:href="#BitstreamVeraSans-Roman-34"/>
      <use x="569.43359375" xlink:href="#BitstreamVeraSans-Roman-29"/>
      <use x="608.447265625" xlink:href="#BitstreamVeraSans-Roman-20"/>
      <use x="640.234375" xlink:href="#BitstreamVeraSans-Roman-73"/>
      <use x="692.333984375" xlink:href="#BitstreamVeraSans-Roman-69"/>
      <use x="720.1171875" xlink:href="#BitstreamVeraSans-Roman-74"/>
      <use x="759.326171875" xlink:href="#BitstreamVeraSans-Roman-65"/>
      <use x="820.849609375" xlink:href="#BitstreamVeraSans-Roman-20"/>
      <use x="852.63671875" xlink:href="#BitstreamVeraSans-Roman-6d"/>
      <use x="950.048828125" xlink:href="#BitstreamVeraSans-Roman-65"/>
      <use x="1011.57226562" xlink:href="#BitstreamVeraSans-Roman-61"/>
      <use x="1072.8515625" xlink:href="#BitstreamVeraSans-Roman-6e"/>
      <use x="1136.23046875" xlink:href="#BitstreamVeraSans-Roman-73"/>
      <use x="1188.33007812" xlink:href="#BitstreamVeraSans-Roman-20"/>
      <use x="1220.1171875" xlink:href="#BitstreamVeraSans-Roman-28"/>
      <use x="1259.13085938" xlink:href="#BitstreamVeraSans-Roman-74"/>
      <use x="1298.33984375" xlink:href="#BitstreamVeraSans-Roman-69"/>
      <use x="1326.12304688" xlink:href="#BitstreamVeraSans-Roman-6c"/>
      <use x="1353.90625" xlink:href="#BitstreamVeraSans-Roman-74"/>
      <use x="1393.11523438" xlink:href="#BitstreamVeraSans-Roman-2d"/>
      <use x="1429.19921875" xlink:href="#BitstreamVeraSans-Roman-63"/>
      <use x="1484.1796875" xlink:href="#BitstreamVeraSans-Roman-6f"/>
      <use x="1545.36132812" xlink:href="#BitstreamVeraSans-Roman-72"/>
      <use x="1586.45898438" xlink:href="#BitstreamVeraSans-Roman-72"/>
      <use x="1627.54101562" xlink:href="#BitstreamVeraSans-Roman-65"/>
      <use x="1689.06445312" xlink:href="#BitstreamVeraSans-Roman-63"/>
      <use x="1744.04492188" xlink:href="#BitstreamVeraSans-Roman-74"/>
      <use x="1783.25390625" xlink:href="#BitstreamVeraSans-Roman-65"/>
      <use x="1844.77734375" xlink:href="#BitstreamVeraSans-Roman-64"/>
      <use x="1908.25390625" xlink:href="#BitstreamVeraSans-Roman-29"/>
     </g>
    </g>
   </g>
  </g>
 </g>
 <defs>
  <clipPath id="p46a215189e">
   <rect height="253.4" width="235.429953231" x="39.325" y="10.8"/>
  </clipPath>
 </defs>
</svg>
