<?xml version="1.0" encoding="utf-8" standalone="no"?>
<!DOCTYPE svg PUBLIC "-//W3C//DTD SVG 1.1//EN"
  "http://www.w3.org/Graphics/SVG/1.1/DTD/svg11.dtd">
<!-- Created with matplotlib (http://matplotlib.org/) -->
<svg height="288pt" version="1.1" viewBox="0 0 288 288" width="288pt" xmlns="http://www.w3.org/2000/svg" xmlns:xlink="http://www.w3.org/1999/xlink">
 <defs>
  <style type="text/css">
*{stroke-linecap:butt;stroke-linejoin:round;stroke-miterlimit:100000;}
  </style>
 </defs>
 <g id="figure_1">
  <g id="patch_1">
   <path d="M 0 288 
L 288 288 
L 288 0 
L 0 0 
z
" style="fill:#ffffff;"/>
  </g>
  <g id="axes_1">
   <g id="PathCollection_1">
    <defs>
     <path d="M 0 2.236068 
C 0.593012 2.236068 1.161816 2.000462 1.581139 1.581139 
C 2.000462 1.161816 2.236068 0.593012 2.236068 0 
C 2.236068 -0.593012 2.000462 -1.161816 1.581139 -1.581139 
C 1.161816 -2.000462 0.593012 -2.236068 0 -2.236068 
C -0.593012 -2.236068 -1.161816 -2.000462 -1.581139 -1.581139 
C -2.000462 -1.161816 -2.236068 -0.593012 -2.236068 0 
C -2.236068 0.593012 -2.000462 1.161816 -1.581139 1.581139 
C -1.161816 2.000462 -0.593012 2.236068 0 2.236068 
z
" id="m8d425a2ab9" style="stroke:#0000ff;"/>
    </defs>
    <g clip-path="url(#pba051d169e)">
     <use style="fill:#ffffff;stroke:#0000ff;" x="197.172004323" xlink:href="#m8d425a2ab9" y="156.163543975"/>
    </g>
   </g>
   <g id="PathCollection_2">
    <defs>
     <path d="M 0 2.236068 
C 0.593012 2.236068 1.161816 2.000462 1.581139 1.581139 
C 2.000462 1.161816 2.236068 0.593012 2.236068 0 
C 2.236068 -0.593012 2.000462 -1.161816 1.581139 -1.581139 
C 1.161816 -2.000462 0.593012 -2.236068 0 -2.236068 
C -0.593012 -2.236068 -1.161816 -2.000462 -1.581139 -1.581139 
C -2.000462 -1.161816 -2.236068 -0.593012 -2.236068 0 
C -2.236068 0.593012 -2.000462 1.161816 -1.581139 1.581139 
C -1.161816 2.000462 -0.593012 2.236068 0 2.236068 
z
" id="m5128bbaf53" style="stroke:#ff0000;"/>
    </defs>
    <g clip-path="url(#pba051d169e)">
     <use style="fill:#ffffff;stroke:#ff0000;" x="217.71584055" xlink:href="#m5128bbaf53" y="171.775554165"/>
    </g>
   </g>
   <g id="line2d_1">
    <path clip-path="url(#pba051d169e)" d="M 157.039977 25.525935 
L 162.907335 25.679392 
L 168.758611 26.139341 
L 174.577767 26.904522 
L 180.348853 27.972837 
L 186.056051 29.341359 
L 191.683718 31.006336 
L 197.216429 32.963205 
L 202.639019 35.206602 
L 207.936625 37.730378 
L 213.094727 40.527615 
L 218.099187 43.590648 
L 222.936288 46.911079 
L 227.592772 50.479808 
L 232.055875 54.287053 
L 236.313365 58.32238 
L 240.353573 62.574726 
L 244.165423 67.032438 
L 247.738469 71.683296 
L 251.062916 76.514553 
L 254.129653 81.512968 
L 256.930274 86.664838 
L 259.457103 91.956045 
L 261.703213 97.372084 
L 263.662449 102.898111 
L 265.32944 108.51898 
L 266.699617 114.219283 
L 267.769224 119.983397 
L 268.535331 125.795523 
L 268.995836 131.63973 
L 269.149478 137.5 
L 268.995836 143.36027 
L 268.535331 149.204477 
L 267.769224 155.016603 
L 266.699617 160.780717 
L 265.32944 166.48102 
L 263.662449 172.101889 
L 261.703213 177.627916 
L 259.457103 183.043955 
L 256.930274 188.335162 
L 254.129653 193.487032 
L 251.062916 198.485447 
L 247.738469 203.316704 
L 244.165423 207.967562 
L 240.353573 212.425274 
L 236.313365 216.67762 
L 232.055875 220.712947 
L 227.592772 224.520192 
L 222.936288 228.088921 
L 218.099187 231.409352 
L 213.094727 234.472385 
L 207.936625 237.269622 
L 202.639019 239.793398 
L 197.216429 242.036795 
L 191.683718 243.993664 
L 186.056051 245.658641 
L 180.348853 247.027163 
L 174.577767 248.095478 
L 168.758611 248.860659 
L 162.907335 249.320608 
L 157.039977 249.474065 
L 151.172619 249.320608 
L 145.321343 248.860659 
L 139.502187 248.095478 
L 133.731101 247.027163 
L 128.023902 245.658641 
L 122.396235 243.993664 
L 116.863524 242.036795 
L 111.440934 239.793398 
L 106.143328 237.269622 
L 100.985226 234.472385 
L 95.980766 231.409352 
L 91.143665 228.088921 
L 86.487181 224.520192 
L 82.024078 220.712947 
L 77.766588 216.67762 
L 73.726381 212.425274 
L 69.91453 207.967562 
L 66.341485 203.316704 
L 63.017037 198.485447 
L 59.9503 193.487032 
L 57.149679 188.335162 
L 54.622851 183.043955 
L 52.37674 177.627916 
L 50.417505 172.101889 
L 48.750514 166.48102 
L 47.380337 160.780717 
L 46.310729 155.016603 
L 45.544623 149.204477 
L 45.084117 143.36027 
L 44.930475 137.5 
L 45.084117 131.63973 
L 45.544623 125.795523 
L 46.310729 119.983397 
L 47.380337 114.219283 
L 48.750514 108.51898 
L 50.417505 102.898111 
L 52.37674 97.372084 
L 54.622851 91.956045 
L 57.149679 86.664838 
L 59.9503 81.512968 
L 63.017037 76.514553 
L 66.341485 71.683296 
L 69.91453 67.032438 
L 73.726381 62.574726 
L 77.766588 58.32238 
L 82.024078 54.287053 
L 86.487181 50.479808 
L 91.143665 46.911079 
L 95.980766 43.590648 
L 100.985226 40.527615 
L 106.143328 37.730378 
L 111.440934 35.206602 
L 116.863524 32.963205 
L 122.396235 31.006336 
L 128.023902 29.341359 
L 133.731101 27.972837 
L 139.502187 26.904522 
L 145.321343 26.139341 
L 151.172619 25.679392 
L 157.039977 25.525935 
L 157.039977 25.525935 
" style="fill:none;stroke:#000000;stroke-linecap:square;"/>
   </g>
   <g id="line2d_2">
    <defs>
     <path d="M -3 0 
L 3 0 
M 0 3 
L 0 -3 
" id="m0e2af2294b" style="stroke:#000000;stroke-width:0.5;"/>
    </defs>
    <g clip-path="url(#pba051d169e)">
     <use style="stroke:#000000;stroke-width:0.5;" x="157.039976616" xlink:href="#m0e2af2294b" y="35.7112132669"/>
     <use style="stroke:#000000;stroke-width:0.5;" x="157.039976616" xlink:href="#m0e2af2294b" y="46.6711652884"/>
     <use style="stroke:#000000;stroke-width:0.5;" x="157.039976616" xlink:href="#m0e2af2294b" y="58.322379586"/>
     <use style="stroke:#000000;stroke-width:0.5;" x="157.039976616" xlink:href="#m0e2af2294b" y="70.5761833838"/>
     <use style="stroke:#000000;stroke-width:0.5;" x="157.039976616" xlink:href="#m0e2af2294b" y="83.3393178357"/>
     <use style="stroke:#000000;stroke-width:0.5;" x="157.039976616" xlink:href="#m0e2af2294b" y="96.5146477819"/>
     <use style="stroke:#000000;stroke-width:0.5;" x="157.039976616" xlink:href="#m0e2af2294b" y="110.001901006"/>
     <use style="stroke:#000000;stroke-width:0.5;" x="157.039976616" xlink:href="#m0e2af2294b" y="123.698431368"/>
     <use style="stroke:#000000;stroke-width:0.5;" x="157.039976616" xlink:href="#m0e2af2294b" y="137.5"/>
    </g>
   </g>
   <g id="line2d_3">
    <g clip-path="url(#pba051d169e)">
     <use style="stroke:#000000;stroke-width:0.5;" x="258.951880779" xlink:href="#m0e2af2294b" y="137.5"/>
     <use style="stroke:#000000;stroke-width:0.5;" x="247.978672276" xlink:href="#m0e2af2294b" y="137.5"/>
     <use style="stroke:#000000;stroke-width:0.5;" x="236.313365389" xlink:href="#m0e2af2294b" y="137.5"/>
     <use style="stroke:#000000;stroke-width:0.5;" x="224.044740147" xlink:href="#m0e2af2294b" y="137.5"/>
     <use style="stroke:#000000;stroke-width:0.5;" x="211.266168196" xlink:href="#m0e2af2294b" y="137.5"/>
     <use style="stroke:#000000;stroke-width:0.5;" x="198.074902184" xlink:href="#m0e2af2294b" y="137.5"/>
     <use style="stroke:#000000;stroke-width:0.5;" x="184.571335612" xlink:href="#m0e2af2294b" y="137.5"/>
     <use style="stroke:#000000;stroke-width:0.5;" x="170.858238773" xlink:href="#m0e2af2294b" y="137.5"/>
    </g>
   </g>
   <g id="line2d_4">
    <g clip-path="url(#pba051d169e)">
     <use style="stroke:#000000;stroke-width:0.5;" x="157.039976616" xlink:href="#m0e2af2294b" y="239.288786733"/>
     <use style="stroke:#000000;stroke-width:0.5;" x="157.039976616" xlink:href="#m0e2af2294b" y="228.328834712"/>
     <use style="stroke:#000000;stroke-width:0.5;" x="157.039976616" xlink:href="#m0e2af2294b" y="216.677620414"/>
     <use style="stroke:#000000;stroke-width:0.5;" x="157.039976616" xlink:href="#m0e2af2294b" y="204.423816616"/>
     <use style="stroke:#000000;stroke-width:0.5;" x="157.039976616" xlink:href="#m0e2af2294b" y="191.660682164"/>
     <use style="stroke:#000000;stroke-width:0.5;" x="157.039976616" xlink:href="#m0e2af2294b" y="178.485352218"/>
     <use style="stroke:#000000;stroke-width:0.5;" x="157.039976616" xlink:href="#m0e2af2294b" y="164.998098994"/>
     <use style="stroke:#000000;stroke-width:0.5;" x="157.039976616" xlink:href="#m0e2af2294b" y="151.301568632"/>
    </g>
   </g>
   <g id="line2d_5">
    <g clip-path="url(#pba051d169e)">
     <use style="stroke:#000000;stroke-width:0.5;" x="55.1280724528" xlink:href="#m0e2af2294b" y="137.5"/>
     <use style="stroke:#000000;stroke-width:0.5;" x="66.1012809553" xlink:href="#m0e2af2294b" y="137.5"/>
     <use style="stroke:#000000;stroke-width:0.5;" x="77.7665878422" xlink:href="#m0e2af2294b" y="137.5"/>
     <use style="stroke:#000000;stroke-width:0.5;" x="90.0352130842" xlink:href="#m0e2af2294b" y="137.5"/>
     <use style="stroke:#000000;stroke-width:0.5;" x="102.813785035" xlink:href="#m0e2af2294b" y="137.5"/>
     <use style="stroke:#000000;stroke-width:0.5;" x="116.005051047" xlink:href="#m0e2af2294b" y="137.5"/>
     <use style="stroke:#000000;stroke-width:0.5;" x="129.50861762" xlink:href="#m0e2af2294b" y="137.5"/>
     <use style="stroke:#000000;stroke-width:0.5;" x="143.221714458" xlink:href="#m0e2af2294b" y="137.5"/>
    </g>
   </g>
   <g id="line2d_6">
    <path clip-path="url(#pba051d169e)" d="M 157.039977 25.525935 
L 157.039977 26.507345 
L 157.039977 27.497206 
L 157.039977 28.495445 
" style="fill:none;stroke:#000000;stroke-linecap:square;"/>
   </g>
   <g id="line2d_7">
    <path clip-path="url(#pba051d169e)" d="M 176.507587 27.227073 
L 176.336961 28.193572 
L 176.164866 29.168396 
L 175.991314 30.15147 
" style="fill:none;stroke:#000000;stroke-linecap:square;"/>
   </g>
   <g id="line2d_8">
    <path clip-path="url(#pba051d169e)" d="M 195.383684 32.278798 
L 195.047617 33.201021 
L 194.708654 34.131187 
L 194.366824 35.069224 
" style="fill:none;stroke:#000000;stroke-linecap:square;"/>
   </g>
   <g id="line2d_9">
    <path clip-path="url(#pba051d169e)" d="M 213.094727 40.527615 
L 212.603429 41.377541 
L 212.1079 42.234786 
L 211.608177 43.099287 
" style="fill:none;stroke:#000000;stroke-linecap:square;"/>
   </g>
   <g id="line2d_10">
    <path clip-path="url(#pba051d169e)" d="M 229.102575 51.72289 
L 228.470974 52.474693 
L 227.833934 53.232971 
L 227.191502 53.997667 
" style="fill:none;stroke:#000000;stroke-linecap:square;"/>
   </g>
   <g id="line2d_11">
    <path clip-path="url(#pba051d169e)" d="M 242.920837 65.524459 
L 242.168125 66.155296 
L 241.40893 66.791567 
L 240.643309 67.433223 
" style="fill:none;stroke:#000000;stroke-linecap:square;"/>
   </g>
   <g id="line2d_12">
    <path clip-path="url(#pba051d169e)" d="M 254.129653 81.512968 
L 253.2787 82.003672 
L 252.420417 82.498603 
L 251.554871 82.997723 
" style="fill:none;stroke:#000000;stroke-linecap:square;"/>
   </g>
   <g id="line2d_13">
    <path clip-path="url(#pba051d169e)" d="M 262.388448 99.202614 
L 261.465109 99.538276 
L 260.533819 99.876829 
L 259.594646 100.218247 
" style="fill:none;stroke:#000000;stroke-linecap:square;"/>
   </g>
   <g id="line2d_14">
    <path clip-path="url(#pba051d169e)" d="M 267.446283 118.055908 
L 266.478614 118.226328 
L 265.502612 118.398215 
L 264.518349 118.571558 
" style="fill:none;stroke:#000000;stroke-linecap:square;"/>
   </g>
   <g id="line2d_15">
    <path clip-path="url(#pba051d169e)" d="M 269.149478 137.5 
L 268.166882 137.5 
L 267.175823 137.5 
L 266.176376 137.5 
" style="fill:none;stroke:#000000;stroke-linecap:square;"/>
   </g>
   <g id="line2d_16">
    <path clip-path="url(#pba051d169e)" d="M 267.446283 156.944092 
L 266.478614 156.773672 
L 265.502612 156.601785 
L 264.518349 156.428442 
" style="fill:none;stroke:#000000;stroke-linecap:square;"/>
   </g>
   <g id="line2d_17">
    <path clip-path="url(#pba051d169e)" d="M 262.388448 175.797386 
L 261.465109 175.461724 
L 260.533819 175.123171 
L 259.594646 174.781753 
" style="fill:none;stroke:#000000;stroke-linecap:square;"/>
   </g>
   <g id="line2d_18">
    <path clip-path="url(#pba051d169e)" d="M 254.129653 193.487032 
L 253.2787 192.996328 
L 252.420417 192.501397 
L 251.554871 192.002277 
" style="fill:none;stroke:#000000;stroke-linecap:square;"/>
   </g>
   <g id="line2d_19">
    <path clip-path="url(#pba051d169e)" d="M 242.920837 209.475541 
L 242.168125 208.844704 
L 241.40893 208.208433 
L 240.643309 207.566777 
" style="fill:none;stroke:#000000;stroke-linecap:square;"/>
   </g>
   <g id="line2d_20">
    <path clip-path="url(#pba051d169e)" d="M 229.102575 223.27711 
L 228.470974 222.525307 
L 227.833934 221.767029 
L 227.191502 221.002333 
" style="fill:none;stroke:#000000;stroke-linecap:square;"/>
   </g>
   <g id="line2d_21">
    <path clip-path="url(#pba051d169e)" d="M 213.094727 234.472385 
L 212.603429 233.622459 
L 212.1079 232.765214 
L 211.608177 231.900713 
" style="fill:none;stroke:#000000;stroke-linecap:square;"/>
   </g>
   <g id="line2d_22">
    <path clip-path="url(#pba051d169e)" d="M 195.383684 242.721202 
L 195.047617 241.798979 
L 194.708654 240.868813 
L 194.366824 239.930776 
" style="fill:none;stroke:#000000;stroke-linecap:square;"/>
   </g>
   <g id="line2d_23">
    <path clip-path="url(#pba051d169e)" d="M 176.507587 247.772927 
L 176.336961 246.806428 
L 176.164866 245.831604 
L 175.991314 244.84853 
" style="fill:none;stroke:#000000;stroke-linecap:square;"/>
   </g>
   <g id="line2d_24">
    <path clip-path="url(#pba051d169e)" d="M 157.039977 249.474065 
L 157.039977 248.492655 
L 157.039977 247.502794 
L 157.039977 246.504555 
" style="fill:none;stroke:#000000;stroke-linecap:square;"/>
   </g>
   <g id="line2d_25">
    <path clip-path="url(#pba051d169e)" d="M 137.572366 247.772927 
L 137.742992 246.806428 
L 137.915088 245.831604 
L 138.08864 244.84853 
" style="fill:none;stroke:#000000;stroke-linecap:square;"/>
   </g>
   <g id="line2d_26">
    <path clip-path="url(#pba051d169e)" d="M 118.696269 242.721202 
L 119.032337 241.798979 
L 119.371299 240.868813 
L 119.71313 239.930776 
" style="fill:none;stroke:#000000;stroke-linecap:square;"/>
   </g>
   <g id="line2d_27">
    <path clip-path="url(#pba051d169e)" d="M 100.985226 234.472385 
L 101.476524 233.622459 
L 101.972054 232.765214 
L 102.471777 231.900713 
" style="fill:none;stroke:#000000;stroke-linecap:square;"/>
   </g>
   <g id="line2d_28">
    <path clip-path="url(#pba051d169e)" d="M 84.977378 223.27711 
L 85.608979 222.525307 
L 86.246019 221.767029 
L 86.888451 221.002333 
" style="fill:none;stroke:#000000;stroke-linecap:square;"/>
   </g>
   <g id="line2d_29">
    <path clip-path="url(#pba051d169e)" d="M 71.159116 209.475541 
L 71.911828 208.844704 
L 72.671024 208.208433 
L 73.436644 207.566777 
" style="fill:none;stroke:#000000;stroke-linecap:square;"/>
   </g>
   <g id="line2d_30">
    <path clip-path="url(#pba051d169e)" d="M 59.9503 193.487032 
L 60.801254 192.996328 
L 61.659536 192.501397 
L 62.525082 192.002277 
" style="fill:none;stroke:#000000;stroke-linecap:square;"/>
   </g>
   <g id="line2d_31">
    <path clip-path="url(#pba051d169e)" d="M 51.691505 175.797386 
L 52.614844 175.461724 
L 53.546135 175.123171 
L 54.485307 174.781753 
" style="fill:none;stroke:#000000;stroke-linecap:square;"/>
   </g>
   <g id="line2d_32">
    <path clip-path="url(#pba051d169e)" d="M 46.63367 156.944092 
L 47.601339 156.773672 
L 48.577341 156.601785 
L 49.561604 156.428442 
" style="fill:none;stroke:#000000;stroke-linecap:square;"/>
   </g>
   <g id="line2d_33">
    <path clip-path="url(#pba051d169e)" d="M 44.930475 137.5 
L 45.913071 137.5 
L 46.90413 137.5 
L 47.903577 137.5 
" style="fill:none;stroke:#000000;stroke-linecap:square;"/>
   </g>
   <g id="line2d_34">
    <path clip-path="url(#pba051d169e)" d="M 46.63367 118.055908 
L 47.601339 118.226328 
L 48.577341 118.398215 
L 49.561604 118.571558 
" style="fill:none;stroke:#000000;stroke-linecap:square;"/>
   </g>
   <g id="line2d_35">
    <path clip-path="url(#pba051d169e)" d="M 51.691505 99.202614 
L 52.614844 99.538276 
L 53.546135 99.876829 
L 54.485307 100.218247 
" style="fill:none;stroke:#000000;stroke-linecap:square;"/>
   </g>
   <g id="line2d_36">
    <path clip-path="url(#pba051d169e)" d="M 59.9503 81.512968 
L 60.801254 82.003672 
L 61.659536 82.498603 
L 62.525082 82.997723 
" style="fill:none;stroke:#000000;stroke-linecap:square;"/>
   </g>
   <g id="line2d_37">
    <path clip-path="url(#pba051d169e)" d="M 71.159116 65.524459 
L 71.911828 66.155296 
L 72.671024 66.791567 
L 73.436644 67.433223 
" style="fill:none;stroke:#000000;stroke-linecap:square;"/>
   </g>
   <g id="line2d_38">
    <path clip-path="url(#pba051d169e)" d="M 84.977378 51.72289 
L 85.608979 52.474693 
L 86.246019 53.232971 
L 86.888451 53.997667 
" style="fill:none;stroke:#000000;stroke-linecap:square;"/>
   </g>
   <g id="line2d_39">
    <path clip-path="url(#pba051d169e)" d="M 100.985226 40.527615 
L 101.476524 41.377541 
L 101.972054 42.234786 
L 102.471777 43.099287 
" style="fill:none;stroke:#000000;stroke-linecap:square;"/>
   </g>
   <g id="line2d_40">
    <path clip-path="url(#pba051d169e)" d="M 118.696269 32.278798 
L 119.032337 33.201021 
L 119.371299 34.131187 
L 119.71313 35.069224 
" style="fill:none;stroke:#000000;stroke-linecap:square;"/>
   </g>
   <g id="line2d_41">
    <path clip-path="url(#pba051d169e)" d="M 137.572366 27.227073 
L 137.742992 28.193572 
L 137.915088 29.168396 
L 138.08864 30.15147 
" style="fill:none;stroke:#000000;stroke-linecap:square;"/>
   </g>
   <g id="line2d_42">
    <path clip-path="url(#pba051d169e)" d="M 194.259523 162.147965 
L 194.612823 162.303192 
L 194.97638 162.43421 
L 195.348778 162.540446 
L 195.728554 162.621423 
L 196.114214 162.676765 
L 196.504231 162.706194 
L 196.897053 162.709538 
L 197.291113 162.68673 
L 197.684829 162.637807 
L 198.076616 162.562915 
L 198.46489 162.462306 
L 198.848076 162.336339 
L 199.224614 162.18548 
L 199.592968 162.010299 
L 199.951629 161.811467 
L 200.299125 161.589759 
L 200.634028 161.346046 
L 200.954957 161.081294 
L 201.260589 160.796558 
L 201.549661 160.492981 
L 201.820981 160.171787 
L 202.073427 159.834275 
L 202.305958 159.481817 
L 202.517615 159.115847 
L 202.707527 158.737859 
L 202.874918 158.349397 
L 203.019104 157.952049 
L 203.139501 157.547443 
L 203.235627 157.137234 
L 203.307101 156.723101 
L 203.35365 156.306737 
L 203.375103 155.889843 
L 203.371399 155.474119 
L 203.342579 155.061255 
L 203.288791 154.652929 
L 203.210289 154.250793 
L 203.107426 153.856471 
L 202.980658 153.471547 
L 202.830538 153.097564 
L 202.657713 152.736014 
L 202.462922 152.388332 
L 202.24699 152.05589 
L 202.010827 151.739995 
L 201.755422 151.441878 
L 201.481835 151.162696 
L 201.191197 150.903523 
L 200.884702 150.665348 
L 200.563604 150.449071 
L 200.229206 150.255502 
L 199.882861 150.085356 
L 199.525961 149.939254 
L 199.159934 149.817716 
L 198.786238 149.721166 
L 198.406353 149.649928 
L 198.021776 149.604226 
L 197.634018 149.584185 
L 197.244593 149.589829 
L 196.855018 149.621084 
L 196.466801 149.677779 
L 196.081443 149.759645 
L 195.700424 149.866321 
L 195.325206 149.997351 
L 194.957224 150.152191 
L 194.597879 150.330208 
L 194.248537 150.530684 
L 193.910523 150.752819 
L 193.585117 150.995736 
L 193.273549 151.258482 
L 192.976994 151.540032 
L 192.696571 151.839293 
L 192.433339 152.15511 
L 192.188289 152.486269 
L 191.962347 152.831498 
L 191.756367 153.189476 
L 191.57113 153.558837 
L 191.40734 153.938172 
L 191.265624 154.326037 
L 191.146525 154.720953 
L 191.050507 155.12142 
L 190.977947 155.52591 
L 190.929137 155.932884 
L 190.904283 156.340789 
L 190.9035 156.748066 
L 190.926818 157.153159 
L 190.974174 157.554512 
L 191.045418 157.950583 
L 191.14031 158.339844 
L 191.25852 158.72079 
L 191.399631 159.091941 
L 191.563138 159.45185 
L 191.748447 159.799108 
L 191.954884 160.132348 
L 192.181689 160.450253 
L 192.42802 160.751557 
L 192.69296 161.035056 
L 192.975514 161.299606 
L 193.274616 161.544133 
L 193.589129 161.767637 
L 193.917852 161.969195 
L 194.259523 162.147965 
" style="fill:none;stroke:#0000ff;stroke-linecap:square;"/>
   </g>
   <g id="line2d_43">
    <path clip-path="url(#pba051d169e)" d="M 211.67524 181.480058 
L 212.179598 181.765262 
L 212.706495 182.011277 
L 213.253966 182.216885 
L 213.819934 182.381019 
L 214.402221 182.502763 
L 214.998551 182.581368 
L 215.606561 182.616253 
L 216.223807 182.607019 
L 216.847779 182.553445 
L 217.475905 182.455504 
L 218.105567 182.313359 
L 218.734112 182.12737 
L 219.358867 181.898097 
L 219.977148 181.6263 
L 220.58628 181.312937 
L 221.183604 180.959166 
L 221.766501 180.566341 
L 222.332398 180.136005 
L 222.878789 179.669889 
L 223.403247 179.1699 
L 223.903438 178.638117 
L 224.377136 178.076778 
L 224.822238 177.488271 
L 225.236773 176.875119 
L 225.618914 176.239969 
L 225.966993 175.585577 
L 226.279504 174.914793 
L 226.555119 174.230543 
L 226.792685 173.535814 
L 226.99124 172.833638 
L 227.15001 172.127073 
L 227.268413 171.419188 
L 227.346063 170.713043 
L 227.382767 170.011676 
L 227.378526 169.318083 
L 227.333529 168.635206 
L 227.248151 167.965915 
L 227.12295 167.312995 
L 226.958656 166.679134 
L 226.756166 166.066909 
L 226.516538 165.478777 
L 226.240981 164.917064 
L 225.930844 164.383954 
L 225.587609 163.881485 
L 225.21288 163.411542 
L 224.808371 162.975849 
L 224.375898 162.575968 
L 223.917369 162.213292 
L 223.434771 161.889046 
L 222.930161 161.604288 
L 222.405655 161.3599 
L 221.86342 161.156598 
L 221.305663 160.994928 
L 220.734622 160.875269 
L 220.152558 160.797837 
L 219.561742 160.762683 
L 218.964454 160.769705 
L 218.36297 160.818644 
L 217.759556 160.909093 
L 217.156461 161.0405 
L 216.55591 161.212171 
L 215.9601 161.423279 
L 215.37119 161.672866 
L 214.7913 161.959851 
L 214.2225 162.283032 
L 213.666812 162.641094 
L 213.1262 163.032613 
L 212.602566 163.456064 
L 212.097751 163.909824 
L 211.613523 164.392177 
L 211.151578 164.901323 
L 210.713536 165.43538 
L 210.300938 165.992392 
L 209.915238 166.570333 
L 209.557805 167.167112 
L 209.229918 167.780582 
L 208.932761 168.408541 
L 208.667423 169.048739 
L 208.434892 169.698889 
L 208.236053 170.356662 
L 208.071686 171.019704 
L 207.942463 171.685634 
L 207.848942 172.352053 
L 207.791569 173.016553 
L 207.770673 173.676717 
L 207.786464 174.33013 
L 207.839027 174.974386 
L 207.928327 175.607091 
L 208.054199 176.225875 
L 208.216354 176.828395 
L 208.414369 177.412345 
L 208.647692 177.975464 
L 208.915638 178.51554 
L 209.217388 179.030426 
L 209.551993 179.518038 
L 209.918366 179.976374 
L 210.315291 180.403516 
L 210.741418 180.797638 
L 211.19527 181.157021 
L 211.67524 181.480058 
" style="fill:none;stroke:#ff0000;stroke-linecap:square;"/>
   </g>
   <g id="legend_1">
    <g id="patch_2">
     <path d="M 39.155914 55.6275 
L 274.924039 55.6275 
L 274.924039 16.8 
L 39.155914 16.8 
z
" style="fill:#ffffff;stroke:#000000;stroke-linejoin:miter;"/>
    </g>
    <g id="PathCollection_3">
     <path d="M 47.555914 29.804193 
C 48.148926 29.804193 48.71773 29.568587 49.137053 29.149264 
C 49.556376 28.729941 49.791982 28.161137 49.791982 27.568125 
C 49.791982 26.975113 49.556376 26.406309 49.137053 25.986986 
C 48.71773 25.567663 48.148926 25.332057 47.555914 25.332057 
C 46.962902 25.332057 46.394098 25.567663 45.974775 25.986986 
C 45.555452 26.406309 45.319846 26.975113 45.319846 27.568125 
C 45.319846 28.161137 45.555452 28.729941 45.974775 29.149264 
C 46.394098 29.568587 46.962902 29.804193 47.555914 29.804193 
z
" style="fill:#ffffff;stroke:#0000ff;"/>
     <path d="M 55.955914 28.754193 
C 56.548926 28.754193 57.11773 28.518587 57.537053 28.099264 
C 57.956376 27.679941 58.191982 27.111137 58.191982 26.518125 
C 58.191982 25.925113 57.956376 25.356309 57.537053 24.936986 
C 57.11773 24.517663 56.548926 24.282057 55.955914 24.282057 
C 55.362902 24.282057 54.794098 24.517663 54.374775 24.936986 
C 53.955452 25.356309 53.719846 25.925113 53.719846 26.518125 
C 53.719846 27.111137 53.955452 27.679941 54.374775 28.099264 
C 54.794098 28.518587 55.362902 28.754193 55.955914 28.754193 
z
" style="fill:#ffffff;stroke:#0000ff;"/>
     <path d="M 64.355914 30.329193 
C 64.948926 30.329193 65.51773 30.093587 65.937053 29.674264 
C 66.356376 29.254941 66.591982 28.686137 66.591982 28.093125 
C 66.591982 27.500113 66.356376 26.931309 65.937053 26.511986 
C 65.51773 26.092663 64.948926 25.857057 64.355914 25.857057 
C 63.762902 25.857057 63.194098 26.092663 62.774775 26.511986 
C 62.355452 26.931309 62.119846 27.500113 62.119846 28.093125 
C 62.119846 28.686137 62.355452 29.254941 62.774775 29.674264 
C 63.194098 30.093587 63.762902 30.329193 64.355914 30.329193 
z
" style="fill:#ffffff;stroke:#0000ff;"/>
    </g>
    <g id="text_1">
     <!-- Halls (1974) tilt-corrected mean -->
     <defs>
      <path id="BitstreamVeraSans-Roman-20"/>
      <path d="M 12.40625 8.296875 
L 28.515625 8.296875 
L 28.515625 63.921875 
L 10.984375 60.40625 
L 10.984375 69.390625 
L 28.421875 72.90625 
L 38.28125 72.90625 
L 38.28125 8.296875 
L 54.390625 8.296875 
L 54.390625 0 
L 12.40625 0 
z
" id="BitstreamVeraSans-Roman-31"/>
      <path d="M 8.203125 72.90625 
L 55.078125 72.90625 
L 55.078125 68.703125 
L 28.609375 0 
L 18.3125 0 
L 43.21875 64.59375 
L 8.203125 64.59375 
z
" id="BitstreamVeraSans-Roman-37"/>
      <path d="M 37.796875 64.3125 
L 12.890625 25.390625 
L 37.796875 25.390625 
z
M 35.203125 72.90625 
L 47.609375 72.90625 
L 47.609375 25.390625 
L 58.015625 25.390625 
L 58.015625 17.1875 
L 47.609375 17.1875 
L 47.609375 0 
L 37.796875 0 
L 37.796875 17.1875 
L 4.890625 17.1875 
L 4.890625 26.703125 
z
" id="BitstreamVeraSans-Roman-34"/>
      <path d="M 8.015625 75.875 
L 15.828125 75.875 
Q 23.140625 64.359375 26.78125 53.3125 
Q 30.421875 42.28125 30.421875 31.390625 
Q 30.421875 20.453125 26.78125 9.375 
Q 23.140625 -1.703125 15.828125 -13.1875 
L 8.015625 -13.1875 
Q 14.5 -2 17.703125 9.0625 
Q 20.90625 20.125 20.90625 31.390625 
Q 20.90625 42.671875 17.703125 53.65625 
Q 14.5 64.65625 8.015625 75.875 
" id="BitstreamVeraSans-Roman-29"/>
      <path d="M 31 75.875 
Q 24.46875 64.65625 21.28125 53.65625 
Q 18.109375 42.671875 18.109375 31.390625 
Q 18.109375 20.125 21.3125 9.0625 
Q 24.515625 -2 31 -13.1875 
L 23.1875 -13.1875 
Q 15.875 -1.703125 12.234375 9.375 
Q 8.59375 20.453125 8.59375 31.390625 
Q 8.59375 42.28125 12.203125 53.3125 
Q 15.828125 64.359375 23.1875 75.875 
z
" id="BitstreamVeraSans-Roman-28"/>
      <path d="M 10.984375 1.515625 
L 10.984375 10.5 
Q 14.703125 8.734375 18.5 7.8125 
Q 22.3125 6.890625 25.984375 6.890625 
Q 35.75 6.890625 40.890625 13.453125 
Q 46.046875 20.015625 46.78125 33.40625 
Q 43.953125 29.203125 39.59375 26.953125 
Q 35.25 24.703125 29.984375 24.703125 
Q 19.046875 24.703125 12.671875 31.3125 
Q 6.296875 37.9375 6.296875 49.421875 
Q 6.296875 60.640625 12.9375 67.421875 
Q 19.578125 74.21875 30.609375 74.21875 
Q 43.265625 74.21875 49.921875 64.515625 
Q 56.59375 54.828125 56.59375 36.375 
Q 56.59375 19.140625 48.40625 8.859375 
Q 40.234375 -1.421875 26.421875 -1.421875 
Q 22.703125 -1.421875 18.890625 -0.6875 
Q 15.09375 0.046875 10.984375 1.515625 
M 30.609375 32.421875 
Q 37.25 32.421875 41.125 36.953125 
Q 45.015625 41.5 45.015625 49.421875 
Q 45.015625 57.28125 41.125 61.84375 
Q 37.25 66.40625 30.609375 66.40625 
Q 23.96875 66.40625 20.09375 61.84375 
Q 16.21875 57.28125 16.21875 49.421875 
Q 16.21875 41.5 20.09375 36.953125 
Q 23.96875 32.421875 30.609375 32.421875 
" id="BitstreamVeraSans-Roman-39"/>
      <path d="M 9.421875 75.984375 
L 18.40625 75.984375 
L 18.40625 0 
L 9.421875 0 
z
" id="BitstreamVeraSans-Roman-6c"/>
      <path d="M 54.890625 33.015625 
L 54.890625 0 
L 45.90625 0 
L 45.90625 32.71875 
Q 45.90625 40.484375 42.875 44.328125 
Q 39.84375 48.1875 33.796875 48.1875 
Q 26.515625 48.1875 22.3125 43.546875 
Q 18.109375 38.921875 18.109375 30.90625 
L 18.109375 0 
L 9.078125 0 
L 9.078125 54.6875 
L 18.109375 54.6875 
L 18.109375 46.1875 
Q 21.34375 51.125 25.703125 53.5625 
Q 30.078125 56 35.796875 56 
Q 45.21875 56 50.046875 50.171875 
Q 54.890625 44.34375 54.890625 33.015625 
" id="BitstreamVeraSans-Roman-6e"/>
      <path d="M 30.609375 48.390625 
Q 23.390625 48.390625 19.1875 42.75 
Q 14.984375 37.109375 14.984375 27.296875 
Q 14.984375 17.484375 19.15625 11.84375 
Q 23.34375 6.203125 30.609375 6.203125 
Q 37.796875 6.203125 41.984375 11.859375 
Q 46.1875 17.53125 46.1875 27.296875 
Q 46.1875 37.015625 41.984375 42.703125 
Q 37.796875 48.390625 30.609375 48.390625 
M 30.609375 56 
Q 42.328125 56 49.015625 48.375 
Q 55.71875 40.765625 55.71875 27.296875 
Q 55.71875 13.875 49.015625 6.21875 
Q 42.328125 -1.421875 30.609375 -1.421875 
Q 18.84375 -1.421875 12.171875 6.21875 
Q 5.515625 13.875 5.515625 27.296875 
Q 5.515625 40.765625 12.171875 48.375 
Q 18.84375 56 30.609375 56 
" id="BitstreamVeraSans-Roman-6f"/>
      <path d="M 9.421875 54.6875 
L 18.40625 54.6875 
L 18.40625 0 
L 9.421875 0 
z
M 9.421875 75.984375 
L 18.40625 75.984375 
L 18.40625 64.59375 
L 9.421875 64.59375 
z
" id="BitstreamVeraSans-Roman-69"/>
      <path d="M 4.890625 31.390625 
L 31.203125 31.390625 
L 31.203125 23.390625 
L 4.890625 23.390625 
z
" id="BitstreamVeraSans-Roman-2d"/>
      <path d="M 41.109375 46.296875 
Q 39.59375 47.171875 37.8125 47.578125 
Q 36.03125 48 33.890625 48 
Q 26.265625 48 22.1875 43.046875 
Q 18.109375 38.09375 18.109375 28.8125 
L 18.109375 0 
L 9.078125 0 
L 9.078125 54.6875 
L 18.109375 54.6875 
L 18.109375 46.1875 
Q 20.953125 51.171875 25.484375 53.578125 
Q 30.03125 56 36.53125 56 
Q 37.453125 56 38.578125 55.875 
Q 39.703125 55.765625 41.0625 55.515625 
z
" id="BitstreamVeraSans-Roman-72"/>
      <path d="M 52 44.1875 
Q 55.375 50.25 60.0625 53.125 
Q 64.75 56 71.09375 56 
Q 79.640625 56 84.28125 50.015625 
Q 88.921875 44.046875 88.921875 33.015625 
L 88.921875 0 
L 79.890625 0 
L 79.890625 32.71875 
Q 79.890625 40.578125 77.09375 44.375 
Q 74.3125 48.1875 68.609375 48.1875 
Q 61.625 48.1875 57.5625 43.546875 
Q 53.515625 38.921875 53.515625 30.90625 
L 53.515625 0 
L 44.484375 0 
L 44.484375 32.71875 
Q 44.484375 40.625 41.703125 44.40625 
Q 38.921875 48.1875 33.109375 48.1875 
Q 26.21875 48.1875 22.15625 43.53125 
Q 18.109375 38.875 18.109375 30.90625 
L 18.109375 0 
L 9.078125 0 
L 9.078125 54.6875 
L 18.109375 54.6875 
L 18.109375 46.1875 
Q 21.1875 51.21875 25.484375 53.609375 
Q 29.78125 56 35.6875 56 
Q 41.65625 56 45.828125 52.96875 
Q 50 49.953125 52 44.1875 
" id="BitstreamVeraSans-Roman-6d"/>
      <path d="M 56.203125 29.59375 
L 56.203125 25.203125 
L 14.890625 25.203125 
Q 15.484375 15.921875 20.484375 11.0625 
Q 25.484375 6.203125 34.421875 6.203125 
Q 39.59375 6.203125 44.453125 7.46875 
Q 49.3125 8.734375 54.109375 11.28125 
L 54.109375 2.78125 
Q 49.265625 0.734375 44.1875 -0.34375 
Q 39.109375 -1.421875 33.890625 -1.421875 
Q 20.796875 -1.421875 13.15625 6.1875 
Q 5.515625 13.8125 5.515625 26.8125 
Q 5.515625 40.234375 12.765625 48.109375 
Q 20.015625 56 32.328125 56 
Q 43.359375 56 49.78125 48.890625 
Q 56.203125 41.796875 56.203125 29.59375 
M 47.21875 32.234375 
Q 47.125 39.59375 43.09375 43.984375 
Q 39.0625 48.390625 32.421875 48.390625 
Q 24.90625 48.390625 20.390625 44.140625 
Q 15.875 39.890625 15.1875 32.171875 
z
" id="BitstreamVeraSans-Roman-65"/>
      <path d="M 45.40625 46.390625 
L 45.40625 75.984375 
L 54.390625 75.984375 
L 54.390625 0 
L 45.40625 0 
L 45.40625 8.203125 
Q 42.578125 3.328125 38.25 0.953125 
Q 33.9375 -1.421875 27.875 -1.421875 
Q 17.96875 -1.421875 11.734375 6.484375 
Q 5.515625 14.40625 5.515625 27.296875 
Q 5.515625 40.1875 11.734375 48.09375 
Q 17.96875 56 27.875 56 
Q 33.9375 56 38.25 53.625 
Q 42.578125 51.265625 45.40625 46.390625 
M 14.796875 27.296875 
Q 14.796875 17.390625 18.875 11.75 
Q 22.953125 6.109375 30.078125 6.109375 
Q 37.203125 6.109375 41.296875 11.75 
Q 45.40625 17.390625 45.40625 27.296875 
Q 45.40625 37.203125 41.296875 42.84375 
Q 37.203125 48.484375 30.078125 48.484375 
Q 22.953125 48.484375 18.875 42.84375 
Q 14.796875 37.203125 14.796875 27.296875 
" id="BitstreamVeraSans-Roman-64"/>
      <path d="M 18.3125 70.21875 
L 18.3125 54.6875 
L 36.8125 54.6875 
L 36.8125 47.703125 
L 18.3125 47.703125 
L 18.3125 18.015625 
Q 18.3125 11.328125 20.140625 9.421875 
Q 21.96875 7.515625 27.59375 7.515625 
L 36.8125 7.515625 
L 36.8125 0 
L 27.59375 0 
Q 17.1875 0 13.234375 3.875 
Q 9.28125 7.765625 9.28125 18.015625 
L 9.28125 47.703125 
L 2.6875 47.703125 
L 2.6875 54.6875 
L 9.28125 54.6875 
L 9.28125 70.21875 
z
" id="BitstreamVeraSans-Roman-74"/>
      <path d="M 34.28125 27.484375 
Q 23.390625 27.484375 19.1875 25 
Q 14.984375 22.515625 14.984375 16.5 
Q 14.984375 11.71875 18.140625 8.90625 
Q 21.296875 6.109375 26.703125 6.109375 
Q 34.1875 6.109375 38.703125 11.40625 
Q 43.21875 16.703125 43.21875 25.484375 
L 43.21875 27.484375 
z
M 52.203125 31.203125 
L 52.203125 0 
L 43.21875 0 
L 43.21875 8.296875 
Q 40.140625 3.328125 35.546875 0.953125 
Q 30.953125 -1.421875 24.3125 -1.421875 
Q 15.921875 -1.421875 10.953125 3.296875 
Q 6 8.015625 6 15.921875 
Q 6 25.140625 12.171875 29.828125 
Q 18.359375 34.515625 30.609375 34.515625 
L 43.21875 34.515625 
L 43.21875 35.40625 
Q 43.21875 41.609375 39.140625 45 
Q 35.0625 48.390625 27.6875 48.390625 
Q 23 48.390625 18.546875 47.265625 
Q 14.109375 46.140625 10.015625 43.890625 
L 10.015625 52.203125 
Q 14.9375 54.109375 19.578125 55.046875 
Q 24.21875 56 28.609375 56 
Q 40.484375 56 46.34375 49.84375 
Q 52.203125 43.703125 52.203125 31.203125 
" id="BitstreamVeraSans-Roman-61"/>
      <path d="M 44.28125 53.078125 
L 44.28125 44.578125 
Q 40.484375 46.53125 36.375 47.5 
Q 32.28125 48.484375 27.875 48.484375 
Q 21.1875 48.484375 17.84375 46.4375 
Q 14.5 44.390625 14.5 40.28125 
Q 14.5 37.15625 16.890625 35.375 
Q 19.28125 33.59375 26.515625 31.984375 
L 29.59375 31.296875 
Q 39.15625 29.25 43.1875 25.515625 
Q 47.21875 21.78125 47.21875 15.09375 
Q 47.21875 7.46875 41.1875 3.015625 
Q 35.15625 -1.421875 24.609375 -1.421875 
Q 20.21875 -1.421875 15.453125 -0.5625 
Q 10.6875 0.296875 5.421875 2 
L 5.421875 11.28125 
Q 10.40625 8.6875 15.234375 7.390625 
Q 20.0625 6.109375 24.8125 6.109375 
Q 31.15625 6.109375 34.5625 8.28125 
Q 37.984375 10.453125 37.984375 14.40625 
Q 37.984375 18.0625 35.515625 20.015625 
Q 33.0625 21.96875 24.703125 23.78125 
L 21.578125 24.515625 
Q 13.234375 26.265625 9.515625 29.90625 
Q 5.8125 33.546875 5.8125 39.890625 
Q 5.8125 47.609375 11.28125 51.796875 
Q 16.75 56 26.8125 56 
Q 31.78125 56 36.171875 55.265625 
Q 40.578125 54.546875 44.28125 53.078125 
" id="BitstreamVeraSans-Roman-73"/>
      <path d="M 48.78125 52.59375 
L 48.78125 44.1875 
Q 44.96875 46.296875 41.140625 47.34375 
Q 37.3125 48.390625 33.40625 48.390625 
Q 24.65625 48.390625 19.8125 42.84375 
Q 14.984375 37.3125 14.984375 27.296875 
Q 14.984375 17.28125 19.8125 11.734375 
Q 24.65625 6.203125 33.40625 6.203125 
Q 37.3125 6.203125 41.140625 7.25 
Q 44.96875 8.296875 48.78125 10.40625 
L 48.78125 2.09375 
Q 45.015625 0.34375 40.984375 -0.53125 
Q 36.96875 -1.421875 32.421875 -1.421875 
Q 20.0625 -1.421875 12.78125 6.34375 
Q 5.515625 14.109375 5.515625 27.296875 
Q 5.515625 40.671875 12.859375 48.328125 
Q 20.21875 56 33.015625 56 
Q 37.15625 56 41.109375 55.140625 
Q 45.0625 54.296875 48.78125 52.59375 
" id="BitstreamVeraSans-Roman-63"/>
      <path d="M 9.8125 72.90625 
L 19.671875 72.90625 
L 19.671875 43.015625 
L 55.515625 43.015625 
L 55.515625 72.90625 
L 65.375 72.90625 
L 65.375 0 
L 55.515625 0 
L 55.515625 34.71875 
L 19.671875 34.71875 
L 19.671875 0 
L 9.8125 0 
z
" id="BitstreamVeraSans-Roman-48"/>
     </defs>
     <g transform="translate(77.5559141156 30.718125)scale(0.12 -0.12)">
      <use xlink:href="#BitstreamVeraSans-Roman-48"/>
      <use x="75.1953125" xlink:href="#BitstreamVeraSans-Roman-61"/>
      <use x="136.474609375" xlink:href="#BitstreamVeraSans-Roman-6c"/>
      <use x="164.2578125" xlink:href="#BitstreamVeraSans-Roman-6c"/>
      <use x="192.041015625" xlink:href="#BitstreamVeraSans-Roman-73"/>
      <use x="244.140625" xlink:href="#BitstreamVeraSans-Roman-20"/>
      <use x="275.927734375" xlink:href="#BitstreamVeraSans-Roman-28"/>
      <use x="314.94140625" xlink:href="#BitstreamVeraSans-Roman-31"/>
      <use x="378.564453125" xlink:href="#BitstreamVeraSans-Roman-39"/>
      <use x="442.1875" xlink:href="#BitstreamVeraSans-Roman-37"/>
      <use x="505.810546875" xlink:href="#BitstreamVeraSans-Roman-34"/>
      <use x="569.43359375" xlink:href="#BitstreamVeraSans-Roman-29"/>
      <use x="608.447265625" xlink:href="#BitstreamVeraSans-Roman-20"/>
      <use x="640.234375" xlink:href="#BitstreamVeraSans-Roman-74"/>
      <use x="679.443359375" xlink:href="#BitstreamVeraSans-Roman-69"/>
      <use x="707.2265625" xlink:href="#BitstreamVeraSans-Roman-6c"/>
      <use x="735.009765625" xlink:href="#BitstreamVeraSans-Roman-74"/>
      <use x="774.21875" xlink:href="#BitstreamVeraSans-Roman-2d"/>
      <use x="810.302734375" xlink:href="#BitstreamVeraSans-Roman-63"/>
      <use x="865.283203125" xlink:href="#BitstreamVeraSans-Roman-6f"/>
      <use x="926.46484375" xlink:href="#BitstreamVeraSans-Roman-72"/>
      <use x="967.5625" xlink:href="#BitstreamVeraSans-Roman-72"/>
      <use x="1008.64453125" xlink:href="#BitstreamVeraSans-Roman-65"/>
      <use x="1070.16796875" xlink:href="#BitstreamVeraSans-Roman-63"/>
      <use x="1125.1484375" xlink:href="#BitstreamVeraSans-Roman-74"/>
      <use x="1164.35742188" xlink:href="#BitstreamVeraSans-Roman-65"/>
      <use x="1225.88085938" xlink:href="#BitstreamVeraSans-Roman-64"/>
      <use x="1289.35742188" xlink:href="#BitstreamVeraSans-Roman-20"/>
      <use x="1321.14453125" xlink:href="#BitstreamVeraSans-Roman-6d"/>
      <use x="1418.55664062" xlink:href="#BitstreamVeraSans-Roman-65"/>
      <use x="1480.08007812" xlink:href="#BitstreamVeraSans-Roman-61"/>
      <use x="1541.359375" xlink:href="#BitstreamVeraSans-Roman-6e"/>
     </g>
    </g>
    <g id="PathCollection_4">
     <path d="M 47.555914 47.417943 
C 48.148926 47.417943 48.71773 47.182337 49.137053 46.763014 
C 49.556376 46.343691 49.791982 45.774887 49.791982 45.181875 
C 49.791982 44.588863 49.556376 44.020059 49.137053 43.600736 
C 48.71773 43.181413 48.148926 42.945807 47.555914 42.945807 
C 46.962902 42.945807 46.394098 43.181413 45.974775 43.600736 
C 45.555452 44.020059 45.319846 44.588863 45.319846 45.181875 
C 45.319846 45.774887 45.555452 46.343691 45.974775 46.763014 
C 46.394098 47.182337 46.962902 47.417943 47.555914 47.417943 
z
" style="fill:#ffffff;stroke:#ff0000;"/>
     <path d="M 55.955914 46.367943 
C 56.548926 46.367943 57.11773 46.132337 57.537053 45.713014 
C 57.956376 45.293691 58.191982 44.724887 58.191982 44.131875 
C 58.191982 43.538863 57.956376 42.970059 57.537053 42.550736 
C 57.11773 42.131413 56.548926 41.895807 55.955914 41.895807 
C 55.362902 41.895807 54.794098 42.131413 54.374775 42.550736 
C 53.955452 42.970059 53.719846 43.538863 53.719846 44.131875 
C 53.719846 44.724887 53.955452 45.293691 54.374775 45.713014 
C 54.794098 46.132337 55.362902 46.367943 55.955914 46.367943 
z
" style="fill:#ffffff;stroke:#ff0000;"/>
     <path d="M 64.355914 47.942943 
C 64.948926 47.942943 65.51773 47.707337 65.937053 47.288014 
C 66.356376 46.868691 66.591982 46.299887 66.591982 45.706875 
C 66.591982 45.113863 66.356376 44.545059 65.937053 44.125736 
C 65.51773 43.706413 64.948926 43.470807 64.355914 43.470807 
C 63.762902 43.470807 63.194098 43.706413 62.774775 44.125736 
C 62.355452 44.545059 62.119846 45.113863 62.119846 45.706875 
C 62.119846 46.299887 62.355452 46.868691 62.774775 47.288014 
C 63.194098 47.707337 63.762902 47.942943 64.355914 47.942943 
z
" style="fill:#ffffff;stroke:#ff0000;"/>
    </g>
    <g id="text_2">
     <!-- Halls (1974) insitu mean -->
     <defs>
      <path d="M 8.5 21.578125 
L 8.5 54.6875 
L 17.484375 54.6875 
L 17.484375 21.921875 
Q 17.484375 14.15625 20.5 10.265625 
Q 23.53125 6.390625 29.59375 6.390625 
Q 36.859375 6.390625 41.078125 11.03125 
Q 45.3125 15.671875 45.3125 23.6875 
L 45.3125 54.6875 
L 54.296875 54.6875 
L 54.296875 0 
L 45.3125 0 
L 45.3125 8.40625 
Q 42.046875 3.421875 37.71875 1 
Q 33.40625 -1.421875 27.6875 -1.421875 
Q 18.265625 -1.421875 13.375 4.4375 
Q 8.5 10.296875 8.5 21.578125 
" id="BitstreamVeraSans-Roman-75"/>
     </defs>
     <g transform="translate(77.5559141156 48.331875)scale(0.12 -0.12)">
      <use xlink:href="#BitstreamVeraSans-Roman-48"/>
      <use x="75.1953125" xlink:href="#BitstreamVeraSans-Roman-61"/>
      <use x="136.474609375" xlink:href="#BitstreamVeraSans-Roman-6c"/>
      <use x="164.2578125" xlink:href="#BitstreamVeraSans-Roman-6c"/>
      <use x="192.041015625" xlink:href="#BitstreamVeraSans-Roman-73"/>
      <use x="244.140625" xlink:href="#BitstreamVeraSans-Roman-20"/>
      <use x="275.927734375" xlink:href="#BitstreamVeraSans-Roman-28"/>
      <use x="314.94140625" xlink:href="#BitstreamVeraSans-Roman-31"/>
      <use x="378.564453125" xlink:href="#BitstreamVeraSans-Roman-39"/>
      <use x="442.1875" xlink:href="#BitstreamVeraSans-Roman-37"/>
      <use x="505.810546875" xlink:href="#BitstreamVeraSans-Roman-34"/>
      <use x="569.43359375" xlink:href="#BitstreamVeraSans-Roman-29"/>
      <use x="608.447265625" xlink:href="#BitstreamVeraSans-Roman-20"/>
      <use x="640.234375" xlink:href="#BitstreamVeraSans-Roman-69"/>
      <use x="668.017578125" xlink:href="#BitstreamVeraSans-Roman-6e"/>
      <use x="731.396484375" xlink:href="#BitstreamVeraSans-Roman-73"/>
      <use x="783.49609375" xlink:href="#BitstreamVeraSans-Roman-69"/>
      <use x="811.279296875" xlink:href="#BitstreamVeraSans-Roman-74"/>
      <use x="850.48828125" xlink:href="#BitstreamVeraSans-Roman-75"/>
      <use x="913.8671875" xlink:href="#BitstreamVeraSans-Roman-20"/>
      <use x="945.654296875" xlink:href="#BitstreamVeraSans-Roman-6d"/>
      <use x="1043.06640625" xlink:href="#BitstreamVeraSans-Roman-65"/>
      <use x="1104.58984375" xlink:href="#BitstreamVeraSans-Roman-61"/>
      <use x="1165.86914062" xlink:href="#BitstreamVeraSans-Roman-6e"/>
     </g>
    </g>
   </g>
  </g>
 </g>
 <defs>
  <clipPath id="pba051d169e">
   <rect height="253.4" width="235.429953231" x="39.325" y="10.8"/>
  </clipPath>
 </defs>
</svg>
