<?xml version="1.0" encoding="utf-8" standalone="no"?>
<!DOCTYPE svg PUBLIC "-//W3C//DTD SVG 1.1//EN"
  "http://www.w3.org/Graphics/SVG/1.1/DTD/svg11.dtd">
<!-- Created with matplotlib (http://matplotlib.org/) -->
<svg height="360pt" version="1.1" viewBox="0 0 360 360" width="360pt" xmlns="http://www.w3.org/2000/svg" xmlns:xlink="http://www.w3.org/1999/xlink">
 <defs>
  <style type="text/css">
*{stroke-linecap:butt;stroke-linejoin:round;stroke-miterlimit:100000;}
  </style>
 </defs>
 <g id="figure_1">
  <g id="patch_1">
   <path d="M 0 360 
L 360 360 
L 360 0 
L 0 0 
z
" style="fill:#ffffff;"/>
  </g>
  <g id="axes_1">
   <g id="PathCollection_1">
    <defs>
     <path d="M 0 2.236068 
C 0.593012 2.236068 1.161816 2.000462 1.581139 1.581139 
C 2.000462 1.161816 2.236068 0.593012 2.236068 0 
C 2.236068 -0.593012 2.000462 -1.161816 1.581139 -1.581139 
C 1.161816 -2.000462 0.593012 -2.236068 0 -2.236068 
C -0.593012 -2.236068 -1.161816 -2.000462 -1.581139 -1.581139 
C -2.000462 -1.161816 -2.236068 -0.593012 -2.236068 0 
C -2.236068 0.593012 -2.000462 1.161816 -1.581139 1.581139 
C -1.161816 2.000462 -0.593012 2.236068 0 2.236068 
z
" id="C0_0_1fa50b1d9d"/>
    </defs>
    <g clip-path="url(#pb38c787e04)">
     <use style="fill:none;stroke:#ff0000;" x="306.762130843" xlink:href="#C0_0_1fa50b1d9d" y="220.367963619"/>
    </g>
    <g clip-path="url(#pb38c787e04)">
     <use style="fill:none;stroke:#ff0000;" x="259.162791193" xlink:href="#C0_0_1fa50b1d9d" y="218.243194447"/>
    </g>
    <g clip-path="url(#pb38c787e04)">
     <use style="fill:none;stroke:#ff0000;" x="238.442481263" xlink:href="#C0_0_1fa50b1d9d" y="235.328762258"/>
    </g>
    <g clip-path="url(#pb38c787e04)">
     <use style="fill:none;stroke:#ff0000;" x="270.605943983" xlink:href="#C0_0_1fa50b1d9d" y="219.477212322"/>
    </g>
    <g clip-path="url(#pb38c787e04)">
     <use style="fill:none;stroke:#ff0000;" x="294.619225533" xlink:href="#C0_0_1fa50b1d9d" y="256.918200001"/>
    </g>
    <g clip-path="url(#pb38c787e04)">
     <use style="fill:none;stroke:#ff0000;" x="287.69237984" xlink:href="#C0_0_1fa50b1d9d" y="201.571320588"/>
    </g>
    <g clip-path="url(#pb38c787e04)">
     <use style="fill:none;stroke:#ff0000;" x="306.366241023" xlink:href="#C0_0_1fa50b1d9d" y="246.920353013"/>
    </g>
    <g clip-path="url(#pb38c787e04)">
     <use style="fill:none;stroke:#ff0000;" x="308.953448128" xlink:href="#C0_0_1fa50b1d9d" y="258.122667852"/>
    </g>
    <g clip-path="url(#pb38c787e04)">
     <use style="fill:none;stroke:#ff0000;" x="281.316380673" xlink:href="#C0_0_1fa50b1d9d" y="208.55620829"/>
    </g>
    <g clip-path="url(#pb38c787e04)">
     <use style="fill:none;stroke:#ff0000;" x="304.828993057" xlink:href="#C0_0_1fa50b1d9d" y="231.353898478"/>
    </g>
    <g clip-path="url(#pb38c787e04)">
     <use style="fill:none;stroke:#ff0000;" x="322.337928596" xlink:href="#C0_0_1fa50b1d9d" y="214.392614479"/>
    </g>
    <g clip-path="url(#pb38c787e04)">
     <use style="fill:none;stroke:#ff0000;" x="297.018173538" xlink:href="#C0_0_1fa50b1d9d" y="189.977298281"/>
    </g>
    <g clip-path="url(#pb38c787e04)">
     <use style="fill:none;stroke:#ff0000;" x="262.627130987" xlink:href="#C0_0_1fa50b1d9d" y="219.395733619"/>
    </g>
    <g clip-path="url(#pb38c787e04)">
     <use style="fill:none;stroke:#ff0000;" x="242.932281146" xlink:href="#C0_0_1fa50b1d9d" y="217.691842975"/>
    </g>
    <g clip-path="url(#pb38c787e04)">
     <use style="fill:none;stroke:#ff0000;" x="259.840643152" xlink:href="#C0_0_1fa50b1d9d" y="215.083166698"/>
    </g>
    <g clip-path="url(#pb38c787e04)">
     <use style="fill:none;stroke:#ff0000;" x="270.693639158" xlink:href="#C0_0_1fa50b1d9d" y="188.113457553"/>
    </g>
    <g clip-path="url(#pb38c787e04)">
     <use style="fill:none;stroke:#ff0000;" x="282.861299124" xlink:href="#C0_0_1fa50b1d9d" y="185.814590239"/>
    </g>
    <g clip-path="url(#pb38c787e04)">
     <use style="fill:none;stroke:#ff0000;" x="246.804349549" xlink:href="#C0_0_1fa50b1d9d" y="206.603412552"/>
    </g>
    <g clip-path="url(#pb38c787e04)">
     <use style="fill:none;stroke:#ff0000;" x="292.052030459" xlink:href="#C0_0_1fa50b1d9d" y="235.161209798"/>
    </g>
    <g clip-path="url(#pb38c787e04)">
     <use style="fill:none;stroke:#ff0000;" x="261.417094285" xlink:href="#C0_0_1fa50b1d9d" y="231.841212778"/>
    </g>
    <g clip-path="url(#pb38c787e04)">
     <use style="fill:none;stroke:#ff0000;" x="241.867901505" xlink:href="#C0_0_1fa50b1d9d" y="210.346471163"/>
    </g>
    <g clip-path="url(#pb38c787e04)">
     <use style="fill:none;stroke:#ff0000;" x="238.720803647" xlink:href="#C0_0_1fa50b1d9d" y="201.762063295"/>
    </g>
    <g clip-path="url(#pb38c787e04)">
     <use style="fill:none;stroke:#ff0000;" x="250.103409046" xlink:href="#C0_0_1fa50b1d9d" y="224.513343639"/>
    </g>
    <g clip-path="url(#pb38c787e04)">
     <use style="fill:none;stroke:#ff0000;" x="252.30937422" xlink:href="#C0_0_1fa50b1d9d" y="221.188442001"/>
    </g>
    <g clip-path="url(#pb38c787e04)">
     <use style="fill:none;stroke:#ff0000;" x="219.351871891" xlink:href="#C0_0_1fa50b1d9d" y="177.383868612"/>
    </g>
   </g>
   <g id="PathCollection_2">
    <defs>
     <path d="M 0 2.236068 
C 0.593012 2.236068 1.161816 2.000462 1.581139 1.581139 
C 2.000462 1.161816 2.236068 0.593012 2.236068 0 
C 2.236068 -0.593012 2.000462 -1.161816 1.581139 -1.581139 
C 1.161816 -2.000462 0.593012 -2.236068 0 -2.236068 
C -0.593012 -2.236068 -1.161816 -2.000462 -1.581139 -1.581139 
C -2.000462 -1.161816 -2.236068 -0.593012 -2.236068 0 
C -2.236068 0.593012 -2.000462 1.161816 -1.581139 1.581139 
C -1.161816 2.000462 -0.593012 2.236068 0 2.236068 
z
" id="C1_0_dfb8afaaf9"/>
    </defs>
    <g clip-path="url(#pb38c787e04)">
     <use style="fill:none;stroke:#0000ff;" x="271.754728739" xlink:href="#C1_0_dfb8afaaf9" y="195.916881663"/>
    </g>
    <g clip-path="url(#pb38c787e04)">
     <use style="fill:none;stroke:#0000ff;" x="240.641796455" xlink:href="#C1_0_dfb8afaaf9" y="190.285239375"/>
    </g>
    <g clip-path="url(#pb38c787e04)">
     <use style="fill:none;stroke:#0000ff;" x="222.68082537" xlink:href="#C1_0_dfb8afaaf9" y="208.567715416"/>
    </g>
    <g clip-path="url(#pb38c787e04)">
     <use style="fill:none;stroke:#0000ff;" x="250.135961508" xlink:href="#C1_0_dfb8afaaf9" y="193.917059963"/>
    </g>
    <g clip-path="url(#pb38c787e04)">
     <use style="fill:none;stroke:#0000ff;" x="260.464468795" xlink:href="#C1_0_dfb8afaaf9" y="225.752021362"/>
    </g>
    <g clip-path="url(#pb38c787e04)">
     <use style="fill:none;stroke:#0000ff;" x="249.355077939" xlink:href="#C1_0_dfb8afaaf9" y="171.85825054"/>
    </g>
    <g clip-path="url(#pb38c787e04)">
     <use style="fill:none;stroke:#0000ff;" x="258.081896411" xlink:href="#C1_0_dfb8afaaf9" y="208.406642064"/>
    </g>
    <g clip-path="url(#pb38c787e04)">
     <use style="fill:none;stroke:#0000ff;" x="265.739010375" xlink:href="#C1_0_dfb8afaaf9" y="229.691004471"/>
    </g>
    <g clip-path="url(#pb38c787e04)">
     <use style="fill:none;stroke:#0000ff;" x="252.072215573" xlink:href="#C1_0_dfb8afaaf9" y="192.57839577"/>
    </g>
    <g clip-path="url(#pb38c787e04)">
     <use style="fill:none;stroke:#0000ff;" x="262.457847142" xlink:href="#C1_0_dfb8afaaf9" y="210.632375842"/>
    </g>
    <g clip-path="url(#pb38c787e04)">
     <use style="fill:none;stroke:#0000ff;" x="255.428569524" xlink:href="#C1_0_dfb8afaaf9" y="191.099286552"/>
    </g>
    <g clip-path="url(#pb38c787e04)">
     <use style="fill:none;stroke:#0000ff;" x="257.946742999" xlink:href="#C1_0_dfb8afaaf9" y="177.631481629"/>
    </g>
    <g clip-path="url(#pb38c787e04)">
     <use style="fill:none;stroke:#0000ff;" x="253.29262624" xlink:href="#C1_0_dfb8afaaf9" y="202.395673793"/>
    </g>
    <g clip-path="url(#pb38c787e04)">
     <use style="fill:none;stroke:#0000ff;" x="227.692516242" xlink:href="#C1_0_dfb8afaaf9" y="203.528195568"/>
    </g>
    <g clip-path="url(#pb38c787e04)">
     <use style="fill:none;stroke:#0000ff;" x="246.986171455" xlink:href="#C1_0_dfb8afaaf9" y="203.949193548"/>
    </g>
    <g clip-path="url(#pb38c787e04)">
     <use style="fill:none;stroke:#0000ff;" x="237.966065978" xlink:href="#C1_0_dfb8afaaf9" y="176.804853108"/>
    </g>
    <g clip-path="url(#pb38c787e04)">
     <use style="fill:none;stroke:#0000ff;" x="250.925800696" xlink:href="#C1_0_dfb8afaaf9" y="175.287634673"/>
    </g>
    <g clip-path="url(#pb38c787e04)">
     <use style="fill:none;stroke:#0000ff;" x="236.600356626" xlink:href="#C1_0_dfb8afaaf9" y="192.730361363"/>
    </g>
    <g clip-path="url(#pb38c787e04)">
     <use style="fill:none;stroke:#0000ff;" x="271.866079505" xlink:href="#C1_0_dfb8afaaf9" y="212.78758887"/>
    </g>
    <g clip-path="url(#pb38c787e04)">
     <use style="fill:none;stroke:#0000ff;" x="239.179301366" xlink:href="#C1_0_dfb8afaaf9" y="206.675977402"/>
    </g>
    <g clip-path="url(#pb38c787e04)">
     <use style="fill:none;stroke:#0000ff;" x="218.943828339" xlink:href="#C1_0_dfb8afaaf9" y="183.59018234"/>
    </g>
    <g clip-path="url(#pb38c787e04)">
     <use style="fill:none;stroke:#0000ff;" x="225.185222184" xlink:href="#C1_0_dfb8afaaf9" y="190.511503645"/>
    </g>
    <g clip-path="url(#pb38c787e04)">
     <use style="fill:none;stroke:#0000ff;" x="241.146487508" xlink:href="#C1_0_dfb8afaaf9" y="216.834892393"/>
    </g>
    <g clip-path="url(#pb38c787e04)">
     <use style="fill:none;stroke:#0000ff;" x="243.173066404" xlink:href="#C1_0_dfb8afaaf9" y="213.441756559"/>
    </g>
    <g clip-path="url(#pb38c787e04)">
     <use style="fill:none;stroke:#0000ff;" x="211.096548211" xlink:href="#C1_0_dfb8afaaf9" y="170.630976363"/>
    </g>
   </g>
   <g id="line2d_1">
    <path clip-path="url(#pb38c787e04)" d="M 193.912936 26.607568 
L 196.482394 26.62994 
L 199.05107 26.697051 
L 204.182945 26.965391 
L 209.302307 27.41226 
L 214.402919 28.037115 
L 219.478568 28.839194 
L 224.523068 29.81752 
L 229.530275 30.970901 
L 234.494088 32.297932 
L 239.408459 33.796995 
L 244.267401 35.466266 
L 249.064993 37.303709 
L 253.795391 39.307086 
L 258.452832 41.473957 
L 263.03164 43.801681 
L 267.526239 46.287422 
L 271.93115 48.928153 
L 276.241009 51.720655 
L 280.450563 54.661526 
L 284.554685 57.747184 
L 288.548374 60.973869 
L 292.426764 64.337649 
L 296.18513 67.834427 
L 299.818893 71.459943 
L 303.323626 75.209778 
L 306.695059 79.079365 
L 309.929084 83.063989 
L 313.021762 87.158795 
L 315.969323 91.358794 
L 318.768178 95.658871 
L 321.414916 100.053784 
L 323.906313 104.53818 
L 326.239332 109.106596 
L 328.411133 113.753465 
L 330.419067 118.473126 
L 332.260691 123.259829 
L 333.933758 128.107742 
L 335.436232 133.010958 
L 336.766282 137.963504 
L 337.922287 142.959346 
L 338.902838 147.992397 
L 339.706742 153.056525 
L 340.333019 158.14556 
L 340.780905 163.253302 
L 341.049855 168.373528 
L 341.139541 173.5 
L 341.049855 178.626472 
L 340.780905 183.746698 
L 340.333019 188.85444 
L 339.706742 193.943475 
L 338.902838 199.007603 
L 337.922287 204.040654 
L 336.766282 209.036496 
L 335.436232 213.989042 
L 333.933758 218.892258 
L 332.260691 223.740171 
L 330.419067 228.526874 
L 328.411133 233.246535 
L 326.239332 237.893404 
L 323.906313 242.46182 
L 321.414916 246.946216 
L 318.768178 251.341129 
L 315.969323 255.641206 
L 313.021762 259.841205 
L 309.929084 263.936011 
L 306.695059 267.920635 
L 303.323626 271.790222 
L 299.818893 275.540057 
L 296.18513 279.165573 
L 292.426764 282.662351 
L 288.548374 286.026131 
L 284.554685 289.252816 
L 280.450563 292.338474 
L 276.241009 295.279345 
L 271.93115 298.071847 
L 267.526239 300.712578 
L 263.03164 303.198319 
L 258.452832 305.526043 
L 253.795391 307.692914 
L 249.064993 309.696291 
L 244.267401 311.533734 
L 239.408459 313.203005 
L 234.494088 314.702068 
L 229.530275 316.029099 
L 224.523068 317.18248 
L 219.478568 318.160806 
L 214.402919 318.962885 
L 209.302307 319.58774 
L 204.182945 320.034609 
L 199.05107 320.302949 
L 193.912936 320.392432 
L 188.774801 320.302949 
L 183.642927 320.034609 
L 178.523565 319.58774 
L 173.422953 318.962885 
L 168.347304 318.160806 
L 163.302803 317.18248 
L 158.295596 316.029099 
L 153.331784 314.702068 
L 148.417413 313.203005 
L 143.558471 311.533734 
L 138.760879 309.696291 
L 134.03048 307.692914 
L 129.37304 305.526043 
L 124.794231 303.198319 
L 120.299633 300.712578 
L 115.894721 298.071847 
L 111.584863 295.279345 
L 107.375308 292.338474 
L 103.271187 289.252816 
L 99.277498 286.026131 
L 95.399108 282.662351 
L 91.640742 279.165573 
L 88.006979 275.540057 
L 84.502246 271.790222 
L 81.130813 267.920635 
L 77.896787 263.936011 
L 74.80411 259.841205 
L 71.856548 255.641206 
L 69.057693 251.341129 
L 66.410955 246.946216 
L 63.919559 242.46182 
L 61.586539 237.893404 
L 59.414739 233.246535 
L 57.406804 228.526874 
L 55.565181 223.740171 
L 53.892113 218.892258 
L 52.389639 213.989042 
L 51.05959 209.036496 
L 49.903585 204.040654 
L 48.923033 199.007603 
L 48.119129 193.943475 
L 47.492853 188.85444 
L 47.044967 183.746698 
L 46.776017 178.626472 
L 46.68633 173.5 
L 46.776017 168.373528 
L 47.044967 163.253302 
L 47.492853 158.14556 
L 48.119129 153.056525 
L 48.923033 147.992397 
L 49.903585 142.959346 
L 51.05959 137.963504 
L 52.389639 133.010958 
L 53.892113 128.107742 
L 55.565181 123.259829 
L 57.406804 118.473126 
L 59.414739 113.753465 
L 61.586539 109.106596 
L 63.919559 104.53818 
L 66.410955 100.053784 
L 69.057693 95.658871 
L 71.856548 91.358794 
L 74.80411 87.158795 
L 77.896787 83.063989 
L 81.130813 79.079365 
L 84.502246 75.209778 
L 88.006979 71.459943 
L 91.640742 67.834427 
L 95.399108 64.337649 
L 99.277498 60.973869 
L 103.271187 57.747184 
L 107.375308 54.661526 
L 111.584863 51.720655 
L 115.894721 48.928153 
L 120.299633 46.287422 
L 124.794231 43.801681 
L 129.37304 41.473957 
L 134.03048 39.307086 
L 138.760879 37.303709 
L 143.558471 35.466266 
L 148.417413 33.796995 
L 153.331784 32.297932 
L 158.295596 30.970901 
L 163.302803 29.81752 
L 168.347304 28.839194 
L 173.422953 28.037115 
L 178.523565 27.41226 
L 183.642927 26.965391 
L 188.774801 26.697051 
L 193.912936 26.607568 
L 193.912936 26.607568 
" style="fill:none;stroke:#000000;stroke-linecap:square;"/>
   </g>
   <g id="line2d_2">
    <defs>
     <path d="M -3 0 
L 3 0 
M 0 3 
L 0 -3 
" id="mc54772539e" style="stroke:#000000;stroke-width:0.5;"/>
    </defs>
    <g clip-path="url(#pb38c787e04)">
     <use style="stroke:#000000;stroke-width:0.5;" x="193.912935799" xlink:href="#mc54772539e" y="39.9690570915"/>
     <use style="stroke:#000000;stroke-width:0.5;" x="193.912935799" xlink:href="#mc54772539e" y="54.3467972595"/>
     <use style="stroke:#000000;stroke-width:0.5;" x="193.912935799" xlink:href="#mc54772539e" y="69.6313652471"/>
     <use style="stroke:#000000;stroke-width:0.5;" x="193.912935799" xlink:href="#mc54772539e" y="85.7064362627"/>
     <use style="stroke:#000000;stroke-width:0.5;" x="193.912935799" xlink:href="#mc54772539e" y="102.44966931"/>
     <use style="stroke:#000000;stroke-width:0.5;" x="193.912935799" xlink:href="#mc54772539e" y="119.733638274"/>
     <use style="stroke:#000000;stroke-width:0.5;" x="193.912935799" xlink:href="#mc54772539e" y="137.426801717"/>
     <use style="stroke:#000000;stroke-width:0.5;" x="193.912935799" xlink:href="#mc54772539e" y="155.39450398"/>
     <use style="stroke:#000000;stroke-width:0.5;" x="193.912935799" xlink:href="#mc54772539e" y="173.5"/>
    </g>
   </g>
   <g id="line2d_3">
    <g clip-path="url(#pb38c787e04)">
     <use style="stroke:#000000;stroke-width:0.5;" x="327.747655483" xlink:href="#mc54772539e" y="173.5"/>
     <use style="stroke:#000000;stroke-width:0.5;" x="313.337206615" xlink:href="#mc54772539e" y="173.5"/>
     <use style="stroke:#000000;stroke-width:0.5;" x="298.017866936" xlink:href="#mc54772539e" y="173.5"/>
     <use style="stroke:#000000;stroke-width:0.5;" x="281.90622587" xlink:href="#mc54772539e" y="173.5"/>
     <use style="stroke:#000000;stroke-width:0.5;" x="265.124902736" xlink:href="#mc54772539e" y="173.5"/>
     <use style="stroke:#000000;stroke-width:0.5;" x="247.801613534" xlink:href="#mc54772539e" y="173.5"/>
     <use style="stroke:#000000;stroke-width:0.5;" x="230.068198955" xlink:href="#mc54772539e" y="173.5"/>
     <use style="stroke:#000000;stroke-width:0.5;" x="212.059620993" xlink:href="#mc54772539e" y="173.5"/>
    </g>
   </g>
   <g id="line2d_4">
    <g clip-path="url(#pb38c787e04)">
     <use style="stroke:#000000;stroke-width:0.5;" x="193.912935799" xlink:href="#mc54772539e" y="307.030942908"/>
     <use style="stroke:#000000;stroke-width:0.5;" x="193.912935799" xlink:href="#mc54772539e" y="292.65320274"/>
     <use style="stroke:#000000;stroke-width:0.5;" x="193.912935799" xlink:href="#mc54772539e" y="277.368634753"/>
     <use style="stroke:#000000;stroke-width:0.5;" x="193.912935799" xlink:href="#mc54772539e" y="261.293563737"/>
     <use style="stroke:#000000;stroke-width:0.5;" x="193.912935799" xlink:href="#mc54772539e" y="244.55033069"/>
     <use style="stroke:#000000;stroke-width:0.5;" x="193.912935799" xlink:href="#mc54772539e" y="227.266361726"/>
     <use style="stroke:#000000;stroke-width:0.5;" x="193.912935799" xlink:href="#mc54772539e" y="209.573198283"/>
     <use style="stroke:#000000;stroke-width:0.5;" x="193.912935799" xlink:href="#mc54772539e" y="191.60549602"/>
    </g>
   </g>
   <g id="line2d_5">
    <g clip-path="url(#pb38c787e04)">
     <use style="stroke:#000000;stroke-width:0.5;" x="60.0782161157" xlink:href="#mc54772539e" y="173.5"/>
     <use style="stroke:#000000;stroke-width:0.5;" x="74.4886649836" xlink:href="#mc54772539e" y="173.5"/>
     <use style="stroke:#000000;stroke-width:0.5;" x="89.8080046628" xlink:href="#mc54772539e" y="173.5"/>
     <use style="stroke:#000000;stroke-width:0.5;" x="105.919645728" xlink:href="#mc54772539e" y="173.5"/>
     <use style="stroke:#000000;stroke-width:0.5;" x="122.700968863" xlink:href="#mc54772539e" y="173.5"/>
     <use style="stroke:#000000;stroke-width:0.5;" x="140.024258065" xlink:href="#mc54772539e" y="173.5"/>
     <use style="stroke:#000000;stroke-width:0.5;" x="157.757672643" xlink:href="#mc54772539e" y="173.5"/>
     <use style="stroke:#000000;stroke-width:0.5;" x="175.766250606" xlink:href="#mc54772539e" y="173.5"/>
    </g>
   </g>
   <g id="line2d_6">
    <path clip-path="url(#pb38c787e04)" d="M 193.912936 26.607568 
L 193.912936 27.895023 
L 193.912936 29.193567 
L 193.912936 30.5031 
" style="fill:none;stroke:#000000;stroke-linecap:square;"/>
   </g>
   <g id="line2d_7">
    <path clip-path="url(#pb38c787e04)" d="M 219.478568 28.839194 
L 219.254495 30.10709 
L 219.028492 31.385906 
L 218.800577 32.675544 
" style="fill:none;stroke:#000000;stroke-linecap:square;"/>
   </g>
   <g id="line2d_8">
    <path clip-path="url(#pb38c787e04)" d="M 244.267401 35.466266 
L 243.826063 36.676078 
L 243.380925 37.89631 
L 242.932019 39.126868 
" style="fill:none;stroke:#000000;stroke-linecap:square;"/>
   </g>
   <g id="line2d_9">
    <path clip-path="url(#pb38c787e04)" d="M 267.526239 46.287422 
L 266.881046 47.402391 
L 266.230298 48.526963 
L 265.574041 49.661052 
" style="fill:none;stroke:#000000;stroke-linecap:square;"/>
   </g>
   <g id="line2d_10">
    <path clip-path="url(#pb38c787e04)" d="M 288.548374 60.973869 
L 287.718931 61.960117 
L 286.882344 62.954859 
L 286.038677 63.958019 
" style="fill:none;stroke:#000000;stroke-linecap:square;"/>
   </g>
   <g id="line2d_11">
    <path clip-path="url(#pb38c787e04)" d="M 306.695059 79.079365 
L 305.706567 79.906925 
L 304.709562 80.741613 
L 303.704119 81.583364 
" style="fill:none;stroke:#000000;stroke-linecap:square;"/>
   </g>
   <g id="line2d_12">
    <path clip-path="url(#pb38c787e04)" d="M 321.414916 100.053784 
L 320.297411 100.697512 
L 319.170281 101.346783 
L 318.033612 102.00155 
" style="fill:none;stroke:#000000;stroke-linecap:square;"/>
   </g>
   <g id="line2d_13">
    <path clip-path="url(#pb38c787e04)" d="M 332.260691 123.259829 
L 331.048126 123.700165 
L 329.825118 124.144293 
L 328.59176 124.59218 
" style="fill:none;stroke:#000000;stroke-linecap:square;"/>
   </g>
   <g id="line2d_14">
    <path clip-path="url(#pb38c787e04)" d="M 338.902838 147.992397 
L 337.632058 148.215961 
L 336.350333 148.441451 
L 335.057761 148.668849 
" style="fill:none;stroke:#000000;stroke-linecap:square;"/>
   </g>
   <g id="line2d_15">
    <path clip-path="url(#pb38c787e04)" d="M 341.139541 173.5 
L 339.849157 173.5 
L 338.547659 173.5 
L 337.235147 173.5 
" style="fill:none;stroke:#000000;stroke-linecap:square;"/>
   </g>
   <g id="line2d_16">
    <path clip-path="url(#pb38c787e04)" d="M 338.902838 199.007603 
L 337.632058 198.784039 
L 336.350333 198.558549 
L 335.057761 198.331151 
" style="fill:none;stroke:#000000;stroke-linecap:square;"/>
   </g>
   <g id="line2d_17">
    <path clip-path="url(#pb38c787e04)" d="M 332.260691 223.740171 
L 331.048126 223.299835 
L 329.825118 222.855707 
L 328.59176 222.40782 
" style="fill:none;stroke:#000000;stroke-linecap:square;"/>
   </g>
   <g id="line2d_18">
    <path clip-path="url(#pb38c787e04)" d="M 321.414916 246.946216 
L 320.297411 246.302488 
L 319.170281 245.653217 
L 318.033612 244.99845 
" style="fill:none;stroke:#000000;stroke-linecap:square;"/>
   </g>
   <g id="line2d_19">
    <path clip-path="url(#pb38c787e04)" d="M 306.695059 267.920635 
L 305.706567 267.093075 
L 304.709562 266.258387 
L 303.704119 265.416636 
" style="fill:none;stroke:#000000;stroke-linecap:square;"/>
   </g>
   <g id="line2d_20">
    <path clip-path="url(#pb38c787e04)" d="M 288.548374 286.026131 
L 287.718931 285.039883 
L 286.882344 284.045141 
L 286.038677 283.041981 
" style="fill:none;stroke:#000000;stroke-linecap:square;"/>
   </g>
   <g id="line2d_21">
    <path clip-path="url(#pb38c787e04)" d="M 267.526239 300.712578 
L 266.881046 299.597609 
L 266.230298 298.473037 
L 265.574041 297.338948 
" style="fill:none;stroke:#000000;stroke-linecap:square;"/>
   </g>
   <g id="line2d_22">
    <path clip-path="url(#pb38c787e04)" d="M 244.267401 311.533734 
L 243.826063 310.323922 
L 243.380925 309.10369 
L 242.932019 307.873132 
" style="fill:none;stroke:#000000;stroke-linecap:square;"/>
   </g>
   <g id="line2d_23">
    <path clip-path="url(#pb38c787e04)" d="M 219.478568 318.160806 
L 219.254495 316.89291 
L 219.028492 315.614094 
L 218.800577 314.324456 
" style="fill:none;stroke:#000000;stroke-linecap:square;"/>
   </g>
   <g id="line2d_24">
    <path clip-path="url(#pb38c787e04)" d="M 193.912936 320.392432 
L 193.912936 319.104977 
L 193.912936 317.806433 
L 193.912936 316.4969 
" style="fill:none;stroke:#000000;stroke-linecap:square;"/>
   </g>
   <g id="line2d_25">
    <path clip-path="url(#pb38c787e04)" d="M 168.347304 318.160806 
L 168.571377 316.89291 
L 168.79738 315.614094 
L 169.025295 314.324456 
" style="fill:none;stroke:#000000;stroke-linecap:square;"/>
   </g>
   <g id="line2d_26">
    <path clip-path="url(#pb38c787e04)" d="M 143.558471 311.533734 
L 143.999808 310.323922 
L 144.444947 309.10369 
L 144.893853 307.873132 
" style="fill:none;stroke:#000000;stroke-linecap:square;"/>
   </g>
   <g id="line2d_27">
    <path clip-path="url(#pb38c787e04)" d="M 120.299633 300.712578 
L 120.944825 299.597609 
L 121.595574 298.473037 
L 122.25183 297.338948 
" style="fill:none;stroke:#000000;stroke-linecap:square;"/>
   </g>
   <g id="line2d_28">
    <path clip-path="url(#pb38c787e04)" d="M 99.277498 286.026131 
L 100.106941 285.039883 
L 100.943528 284.045141 
L 101.787194 283.041981 
" style="fill:none;stroke:#000000;stroke-linecap:square;"/>
   </g>
   <g id="line2d_29">
    <path clip-path="url(#pb38c787e04)" d="M 81.130813 267.920635 
L 82.119304 267.093075 
L 83.116309 266.258387 
L 84.121752 265.416636 
" style="fill:none;stroke:#000000;stroke-linecap:square;"/>
   </g>
   <g id="line2d_30">
    <path clip-path="url(#pb38c787e04)" d="M 66.410955 246.946216 
L 67.528461 246.302488 
L 68.655591 245.653217 
L 69.79226 244.99845 
" style="fill:none;stroke:#000000;stroke-linecap:square;"/>
   </g>
   <g id="line2d_31">
    <path clip-path="url(#pb38c787e04)" d="M 55.565181 223.740171 
L 56.777745 223.299835 
L 58.000753 222.855707 
L 59.234111 222.40782 
" style="fill:none;stroke:#000000;stroke-linecap:square;"/>
   </g>
   <g id="line2d_32">
    <path clip-path="url(#pb38c787e04)" d="M 48.923033 199.007603 
L 50.193814 198.784039 
L 51.475539 198.558549 
L 52.768111 198.331151 
" style="fill:none;stroke:#000000;stroke-linecap:square;"/>
   </g>
   <g id="line2d_33">
    <path clip-path="url(#pb38c787e04)" d="M 46.68633 173.5 
L 47.976714 173.5 
L 49.278212 173.5 
L 50.590724 173.5 
" style="fill:none;stroke:#000000;stroke-linecap:square;"/>
   </g>
   <g id="line2d_34">
    <path clip-path="url(#pb38c787e04)" d="M 48.923033 147.992397 
L 50.193814 148.215961 
L 51.475539 148.441451 
L 52.768111 148.668849 
" style="fill:none;stroke:#000000;stroke-linecap:square;"/>
   </g>
   <g id="line2d_35">
    <path clip-path="url(#pb38c787e04)" d="M 55.565181 123.259829 
L 56.777745 123.700165 
L 58.000753 124.144293 
L 59.234111 124.59218 
" style="fill:none;stroke:#000000;stroke-linecap:square;"/>
   </g>
   <g id="line2d_36">
    <path clip-path="url(#pb38c787e04)" d="M 66.410955 100.053784 
L 67.528461 100.697512 
L 68.655591 101.346783 
L 69.79226 102.00155 
" style="fill:none;stroke:#000000;stroke-linecap:square;"/>
   </g>
   <g id="line2d_37">
    <path clip-path="url(#pb38c787e04)" d="M 81.130813 79.079365 
L 82.119304 79.906925 
L 83.116309 80.741613 
L 84.121752 81.583364 
" style="fill:none;stroke:#000000;stroke-linecap:square;"/>
   </g>
   <g id="line2d_38">
    <path clip-path="url(#pb38c787e04)" d="M 99.277498 60.973869 
L 100.106941 61.960117 
L 100.943528 62.954859 
L 101.787194 63.958019 
" style="fill:none;stroke:#000000;stroke-linecap:square;"/>
   </g>
   <g id="line2d_39">
    <path clip-path="url(#pb38c787e04)" d="M 120.299633 46.287422 
L 120.944825 47.402391 
L 121.595574 48.526963 
L 122.25183 49.661052 
" style="fill:none;stroke:#000000;stroke-linecap:square;"/>
   </g>
   <g id="line2d_40">
    <path clip-path="url(#pb38c787e04)" d="M 143.558471 35.466266 
L 143.999808 36.676078 
L 144.444947 37.89631 
L 144.893853 39.126868 
" style="fill:none;stroke:#000000;stroke-linecap:square;"/>
   </g>
   <g id="line2d_41">
    <path clip-path="url(#pb38c787e04)" d="M 168.347304 28.839194 
L 168.571377 30.10709 
L 168.79738 31.385906 
L 169.025295 32.675544 
" style="fill:none;stroke:#000000;stroke-linecap:square;"/>
   </g>
   <g id="legend_1">
    <g id="patch_2">
     <path d="M 55.477936 55.6275 
L 332.347936 55.6275 
L 332.347936 16.8 
L 55.477936 16.8 
z
" style="fill:#ffffff;stroke:#000000;stroke-linejoin:miter;"/>
    </g>
    <g id="PathCollection_3">
     <path d="M 63.877936 29.804193 
C 64.470948 29.804193 65.039752 29.568587 65.459075 29.149264 
C 65.878398 28.729941 66.114004 28.161137 66.114004 27.568125 
C 66.114004 26.975113 65.878398 26.406309 65.459075 25.986986 
C 65.039752 25.567663 64.470948 25.332057 63.877936 25.332057 
C 63.284924 25.332057 62.71612 25.567663 62.296797 25.986986 
C 61.877474 26.406309 61.641868 26.975113 61.641868 27.568125 
C 61.641868 28.161137 61.877474 28.729941 62.296797 29.149264 
C 62.71612 29.568587 63.284924 29.804193 63.877936 29.804193 
L 63.877936 29.804193 
z
" style="fill:none;stroke:#ff0000;"/>
     <path d="M 72.277936 28.754193 
C 72.870948 28.754193 73.439752 28.518587 73.859075 28.099264 
C 74.278398 27.679941 74.514004 27.111137 74.514004 26.518125 
C 74.514004 25.925113 74.278398 25.356309 73.859075 24.936986 
C 73.439752 24.517663 72.870948 24.282057 72.277936 24.282057 
C 71.684924 24.282057 71.11612 24.517663 70.696797 24.936986 
C 70.277474 25.356309 70.041868 25.925113 70.041868 26.518125 
C 70.041868 27.111137 70.277474 27.679941 70.696797 28.099264 
C 71.11612 28.518587 71.684924 28.754193 72.277936 28.754193 
L 72.277936 28.754193 
z
" style="fill:none;stroke:#ff0000;"/>
     <path d="M 80.677936 30.329193 
C 81.270948 30.329193 81.839752 30.093587 82.259075 29.674264 
C 82.678398 29.254941 82.914004 28.686137 82.914004 28.093125 
C 82.914004 27.500113 82.678398 26.931309 82.259075 26.511986 
C 81.839752 26.092663 81.270948 25.857057 80.677936 25.857057 
C 80.084924 25.857057 79.51612 26.092663 79.096797 26.511986 
C 78.677474 26.931309 78.441868 27.500113 78.441868 28.093125 
C 78.441868 28.686137 78.677474 29.254941 79.096797 29.674264 
C 79.51612 30.093587 80.084924 30.329193 80.677936 30.329193 
L 80.677936 30.329193 
z
" style="fill:none;stroke:#ff0000;"/>
    </g>
    <g id="text_1">
     <!-- Halls (1974) site means (in situ) -->
     <defs>
      <path id="BitstreamVeraSans-Roman-20"/>
      <path d="M 12.40625 8.296875 
L 28.515625 8.296875 
L 28.515625 63.921875 
L 10.984375 60.40625 
L 10.984375 69.390625 
L 28.421875 72.90625 
L 38.28125 72.90625 
L 38.28125 8.296875 
L 54.390625 8.296875 
L 54.390625 0 
L 12.40625 0 
z
" id="BitstreamVeraSans-Roman-31"/>
      <path d="M 8.203125 72.90625 
L 55.078125 72.90625 
L 55.078125 68.703125 
L 28.609375 0 
L 18.3125 0 
L 43.21875 64.59375 
L 8.203125 64.59375 
z
" id="BitstreamVeraSans-Roman-37"/>
      <path d="M 37.796875 64.3125 
L 12.890625 25.390625 
L 37.796875 25.390625 
z
M 35.203125 72.90625 
L 47.609375 72.90625 
L 47.609375 25.390625 
L 58.015625 25.390625 
L 58.015625 17.1875 
L 47.609375 17.1875 
L 47.609375 0 
L 37.796875 0 
L 37.796875 17.1875 
L 4.890625 17.1875 
L 4.890625 26.703125 
z
" id="BitstreamVeraSans-Roman-34"/>
      <path d="M 8.015625 75.875 
L 15.828125 75.875 
Q 23.140625 64.359375 26.78125 53.3125 
Q 30.421875 42.28125 30.421875 31.390625 
Q 30.421875 20.453125 26.78125 9.375 
Q 23.140625 -1.703125 15.828125 -13.1875 
L 8.015625 -13.1875 
Q 14.5 -2 17.703125 9.0625 
Q 20.90625 20.125 20.90625 31.390625 
Q 20.90625 42.671875 17.703125 53.65625 
Q 14.5 64.65625 8.015625 75.875 
" id="BitstreamVeraSans-Roman-29"/>
      <path d="M 31 75.875 
Q 24.46875 64.65625 21.28125 53.65625 
Q 18.109375 42.671875 18.109375 31.390625 
Q 18.109375 20.125 21.3125 9.0625 
Q 24.515625 -2 31 -13.1875 
L 23.1875 -13.1875 
Q 15.875 -1.703125 12.234375 9.375 
Q 8.59375 20.453125 8.59375 31.390625 
Q 8.59375 42.28125 12.203125 53.3125 
Q 15.828125 64.359375 23.1875 75.875 
z
" id="BitstreamVeraSans-Roman-28"/>
      <path d="M 10.984375 1.515625 
L 10.984375 10.5 
Q 14.703125 8.734375 18.5 7.8125 
Q 22.3125 6.890625 25.984375 6.890625 
Q 35.75 6.890625 40.890625 13.453125 
Q 46.046875 20.015625 46.78125 33.40625 
Q 43.953125 29.203125 39.59375 26.953125 
Q 35.25 24.703125 29.984375 24.703125 
Q 19.046875 24.703125 12.671875 31.3125 
Q 6.296875 37.9375 6.296875 49.421875 
Q 6.296875 60.640625 12.9375 67.421875 
Q 19.578125 74.21875 30.609375 74.21875 
Q 43.265625 74.21875 49.921875 64.515625 
Q 56.59375 54.828125 56.59375 36.375 
Q 56.59375 19.140625 48.40625 8.859375 
Q 40.234375 -1.421875 26.421875 -1.421875 
Q 22.703125 -1.421875 18.890625 -0.6875 
Q 15.09375 0.046875 10.984375 1.515625 
M 30.609375 32.421875 
Q 37.25 32.421875 41.125 36.953125 
Q 45.015625 41.5 45.015625 49.421875 
Q 45.015625 57.28125 41.125 61.84375 
Q 37.25 66.40625 30.609375 66.40625 
Q 23.96875 66.40625 20.09375 61.84375 
Q 16.21875 57.28125 16.21875 49.421875 
Q 16.21875 41.5 20.09375 36.953125 
Q 23.96875 32.421875 30.609375 32.421875 
" id="BitstreamVeraSans-Roman-39"/>
      <path d="M 9.421875 75.984375 
L 18.40625 75.984375 
L 18.40625 0 
L 9.421875 0 
z
" id="BitstreamVeraSans-Roman-6c"/>
      <path d="M 54.890625 33.015625 
L 54.890625 0 
L 45.90625 0 
L 45.90625 32.71875 
Q 45.90625 40.484375 42.875 44.328125 
Q 39.84375 48.1875 33.796875 48.1875 
Q 26.515625 48.1875 22.3125 43.546875 
Q 18.109375 38.921875 18.109375 30.90625 
L 18.109375 0 
L 9.078125 0 
L 9.078125 54.6875 
L 18.109375 54.6875 
L 18.109375 46.1875 
Q 21.34375 51.125 25.703125 53.5625 
Q 30.078125 56 35.796875 56 
Q 45.21875 56 50.046875 50.171875 
Q 54.890625 44.34375 54.890625 33.015625 
" id="BitstreamVeraSans-Roman-6e"/>
      <path d="M 9.421875 54.6875 
L 18.40625 54.6875 
L 18.40625 0 
L 9.421875 0 
z
M 9.421875 75.984375 
L 18.40625 75.984375 
L 18.40625 64.59375 
L 9.421875 64.59375 
z
" id="BitstreamVeraSans-Roman-69"/>
      <path d="M 52 44.1875 
Q 55.375 50.25 60.0625 53.125 
Q 64.75 56 71.09375 56 
Q 79.640625 56 84.28125 50.015625 
Q 88.921875 44.046875 88.921875 33.015625 
L 88.921875 0 
L 79.890625 0 
L 79.890625 32.71875 
Q 79.890625 40.578125 77.09375 44.375 
Q 74.3125 48.1875 68.609375 48.1875 
Q 61.625 48.1875 57.5625 43.546875 
Q 53.515625 38.921875 53.515625 30.90625 
L 53.515625 0 
L 44.484375 0 
L 44.484375 32.71875 
Q 44.484375 40.625 41.703125 44.40625 
Q 38.921875 48.1875 33.109375 48.1875 
Q 26.21875 48.1875 22.15625 43.53125 
Q 18.109375 38.875 18.109375 30.90625 
L 18.109375 0 
L 9.078125 0 
L 9.078125 54.6875 
L 18.109375 54.6875 
L 18.109375 46.1875 
Q 21.1875 51.21875 25.484375 53.609375 
Q 29.78125 56 35.6875 56 
Q 41.65625 56 45.828125 52.96875 
Q 50 49.953125 52 44.1875 
" id="BitstreamVeraSans-Roman-6d"/>
      <path d="M 56.203125 29.59375 
L 56.203125 25.203125 
L 14.890625 25.203125 
Q 15.484375 15.921875 20.484375 11.0625 
Q 25.484375 6.203125 34.421875 6.203125 
Q 39.59375 6.203125 44.453125 7.46875 
Q 49.3125 8.734375 54.109375 11.28125 
L 54.109375 2.78125 
Q 49.265625 0.734375 44.1875 -0.34375 
Q 39.109375 -1.421875 33.890625 -1.421875 
Q 20.796875 -1.421875 13.15625 6.1875 
Q 5.515625 13.8125 5.515625 26.8125 
Q 5.515625 40.234375 12.765625 48.109375 
Q 20.015625 56 32.328125 56 
Q 43.359375 56 49.78125 48.890625 
Q 56.203125 41.796875 56.203125 29.59375 
M 47.21875 32.234375 
Q 47.125 39.59375 43.09375 43.984375 
Q 39.0625 48.390625 32.421875 48.390625 
Q 24.90625 48.390625 20.390625 44.140625 
Q 15.875 39.890625 15.1875 32.171875 
z
" id="BitstreamVeraSans-Roman-65"/>
      <path d="M 18.3125 70.21875 
L 18.3125 54.6875 
L 36.8125 54.6875 
L 36.8125 47.703125 
L 18.3125 47.703125 
L 18.3125 18.015625 
Q 18.3125 11.328125 20.140625 9.421875 
Q 21.96875 7.515625 27.59375 7.515625 
L 36.8125 7.515625 
L 36.8125 0 
L 27.59375 0 
Q 17.1875 0 13.234375 3.875 
Q 9.28125 7.765625 9.28125 18.015625 
L 9.28125 47.703125 
L 2.6875 47.703125 
L 2.6875 54.6875 
L 9.28125 54.6875 
L 9.28125 70.21875 
z
" id="BitstreamVeraSans-Roman-74"/>
      <path d="M 8.5 21.578125 
L 8.5 54.6875 
L 17.484375 54.6875 
L 17.484375 21.921875 
Q 17.484375 14.15625 20.5 10.265625 
Q 23.53125 6.390625 29.59375 6.390625 
Q 36.859375 6.390625 41.078125 11.03125 
Q 45.3125 15.671875 45.3125 23.6875 
L 45.3125 54.6875 
L 54.296875 54.6875 
L 54.296875 0 
L 45.3125 0 
L 45.3125 8.40625 
Q 42.046875 3.421875 37.71875 1 
Q 33.40625 -1.421875 27.6875 -1.421875 
Q 18.265625 -1.421875 13.375 4.4375 
Q 8.5 10.296875 8.5 21.578125 
" id="BitstreamVeraSans-Roman-75"/>
      <path d="M 34.28125 27.484375 
Q 23.390625 27.484375 19.1875 25 
Q 14.984375 22.515625 14.984375 16.5 
Q 14.984375 11.71875 18.140625 8.90625 
Q 21.296875 6.109375 26.703125 6.109375 
Q 34.1875 6.109375 38.703125 11.40625 
Q 43.21875 16.703125 43.21875 25.484375 
L 43.21875 27.484375 
z
M 52.203125 31.203125 
L 52.203125 0 
L 43.21875 0 
L 43.21875 8.296875 
Q 40.140625 3.328125 35.546875 0.953125 
Q 30.953125 -1.421875 24.3125 -1.421875 
Q 15.921875 -1.421875 10.953125 3.296875 
Q 6 8.015625 6 15.921875 
Q 6 25.140625 12.171875 29.828125 
Q 18.359375 34.515625 30.609375 34.515625 
L 43.21875 34.515625 
L 43.21875 35.40625 
Q 43.21875 41.609375 39.140625 45 
Q 35.0625 48.390625 27.6875 48.390625 
Q 23 48.390625 18.546875 47.265625 
Q 14.109375 46.140625 10.015625 43.890625 
L 10.015625 52.203125 
Q 14.9375 54.109375 19.578125 55.046875 
Q 24.21875 56 28.609375 56 
Q 40.484375 56 46.34375 49.84375 
Q 52.203125 43.703125 52.203125 31.203125 
" id="BitstreamVeraSans-Roman-61"/>
      <path d="M 44.28125 53.078125 
L 44.28125 44.578125 
Q 40.484375 46.53125 36.375 47.5 
Q 32.28125 48.484375 27.875 48.484375 
Q 21.1875 48.484375 17.84375 46.4375 
Q 14.5 44.390625 14.5 40.28125 
Q 14.5 37.15625 16.890625 35.375 
Q 19.28125 33.59375 26.515625 31.984375 
L 29.59375 31.296875 
Q 39.15625 29.25 43.1875 25.515625 
Q 47.21875 21.78125 47.21875 15.09375 
Q 47.21875 7.46875 41.1875 3.015625 
Q 35.15625 -1.421875 24.609375 -1.421875 
Q 20.21875 -1.421875 15.453125 -0.5625 
Q 10.6875 0.296875 5.421875 2 
L 5.421875 11.28125 
Q 10.40625 8.6875 15.234375 7.390625 
Q 20.0625 6.109375 24.8125 6.109375 
Q 31.15625 6.109375 34.5625 8.28125 
Q 37.984375 10.453125 37.984375 14.40625 
Q 37.984375 18.0625 35.515625 20.015625 
Q 33.0625 21.96875 24.703125 23.78125 
L 21.578125 24.515625 
Q 13.234375 26.265625 9.515625 29.90625 
Q 5.8125 33.546875 5.8125 39.890625 
Q 5.8125 47.609375 11.28125 51.796875 
Q 16.75 56 26.8125 56 
Q 31.78125 56 36.171875 55.265625 
Q 40.578125 54.546875 44.28125 53.078125 
" id="BitstreamVeraSans-Roman-73"/>
      <path d="M 9.8125 72.90625 
L 19.671875 72.90625 
L 19.671875 43.015625 
L 55.515625 43.015625 
L 55.515625 72.90625 
L 65.375 72.90625 
L 65.375 0 
L 55.515625 0 
L 55.515625 34.71875 
L 19.671875 34.71875 
L 19.671875 0 
L 9.8125 0 
z
" id="BitstreamVeraSans-Roman-48"/>
     </defs>
     <g transform="translate(93.8779357993 30.718125)scale(0.12 -0.12)">
      <use xlink:href="#BitstreamVeraSans-Roman-48"/>
      <use x="75.1953125" xlink:href="#BitstreamVeraSans-Roman-61"/>
      <use x="136.474609375" xlink:href="#BitstreamVeraSans-Roman-6c"/>
      <use x="164.2578125" xlink:href="#BitstreamVeraSans-Roman-6c"/>
      <use x="192.041015625" xlink:href="#BitstreamVeraSans-Roman-73"/>
      <use x="244.140625" xlink:href="#BitstreamVeraSans-Roman-20"/>
      <use x="275.927734375" xlink:href="#BitstreamVeraSans-Roman-28"/>
      <use x="314.94140625" xlink:href="#BitstreamVeraSans-Roman-31"/>
      <use x="378.564453125" xlink:href="#BitstreamVeraSans-Roman-39"/>
      <use x="442.1875" xlink:href="#BitstreamVeraSans-Roman-37"/>
      <use x="505.810546875" xlink:href="#BitstreamVeraSans-Roman-34"/>
      <use x="569.43359375" xlink:href="#BitstreamVeraSans-Roman-29"/>
      <use x="608.447265625" xlink:href="#BitstreamVeraSans-Roman-20"/>
      <use x="640.234375" xlink:href="#BitstreamVeraSans-Roman-73"/>
      <use x="692.333984375" xlink:href="#BitstreamVeraSans-Roman-69"/>
      <use x="720.1171875" xlink:href="#BitstreamVeraSans-Roman-74"/>
      <use x="759.326171875" xlink:href="#BitstreamVeraSans-Roman-65"/>
      <use x="820.849609375" xlink:href="#BitstreamVeraSans-Roman-20"/>
      <use x="852.63671875" xlink:href="#BitstreamVeraSans-Roman-6d"/>
      <use x="950.048828125" xlink:href="#BitstreamVeraSans-Roman-65"/>
      <use x="1011.57226562" xlink:href="#BitstreamVeraSans-Roman-61"/>
      <use x="1072.8515625" xlink:href="#BitstreamVeraSans-Roman-6e"/>
      <use x="1136.23046875" xlink:href="#BitstreamVeraSans-Roman-73"/>
      <use x="1188.33007812" xlink:href="#BitstreamVeraSans-Roman-20"/>
      <use x="1220.1171875" xlink:href="#BitstreamVeraSans-Roman-28"/>
      <use x="1259.13085938" xlink:href="#BitstreamVeraSans-Roman-69"/>
      <use x="1286.9140625" xlink:href="#BitstreamVeraSans-Roman-6e"/>
      <use x="1350.29296875" xlink:href="#BitstreamVeraSans-Roman-20"/>
      <use x="1382.08007812" xlink:href="#BitstreamVeraSans-Roman-73"/>
      <use x="1434.1796875" xlink:href="#BitstreamVeraSans-Roman-69"/>
      <use x="1461.96289062" xlink:href="#BitstreamVeraSans-Roman-74"/>
      <use x="1501.171875" xlink:href="#BitstreamVeraSans-Roman-75"/>
      <use x="1564.55078125" xlink:href="#BitstreamVeraSans-Roman-29"/>
     </g>
    </g>
    <g id="PathCollection_4">
     <path d="M 63.877936 47.417943 
C 64.470948 47.417943 65.039752 47.182337 65.459075 46.763014 
C 65.878398 46.343691 66.114004 45.774887 66.114004 45.181875 
C 66.114004 44.588863 65.878398 44.020059 65.459075 43.600736 
C 65.039752 43.181413 64.470948 42.945807 63.877936 42.945807 
C 63.284924 42.945807 62.71612 43.181413 62.296797 43.600736 
C 61.877474 44.020059 61.641868 44.588863 61.641868 45.181875 
C 61.641868 45.774887 61.877474 46.343691 62.296797 46.763014 
C 62.71612 47.182337 63.284924 47.417943 63.877936 47.417943 
L 63.877936 47.417943 
z
" style="fill:none;stroke:#0000ff;"/>
     <path d="M 72.277936 46.367943 
C 72.870948 46.367943 73.439752 46.132337 73.859075 45.713014 
C 74.278398 45.293691 74.514004 44.724887 74.514004 44.131875 
C 74.514004 43.538863 74.278398 42.970059 73.859075 42.550736 
C 73.439752 42.131413 72.870948 41.895807 72.277936 41.895807 
C 71.684924 41.895807 71.11612 42.131413 70.696797 42.550736 
C 70.277474 42.970059 70.041868 43.538863 70.041868 44.131875 
C 70.041868 44.724887 70.277474 45.293691 70.696797 45.713014 
C 71.11612 46.132337 71.684924 46.367943 72.277936 46.367943 
L 72.277936 46.367943 
z
" style="fill:none;stroke:#0000ff;"/>
     <path d="M 80.677936 47.942943 
C 81.270948 47.942943 81.839752 47.707337 82.259075 47.288014 
C 82.678398 46.868691 82.914004 46.299887 82.914004 45.706875 
C 82.914004 45.113863 82.678398 44.545059 82.259075 44.125736 
C 81.839752 43.706413 81.270948 43.470807 80.677936 43.470807 
C 80.084924 43.470807 79.51612 43.706413 79.096797 44.125736 
C 78.677474 44.545059 78.441868 45.113863 78.441868 45.706875 
C 78.441868 46.299887 78.677474 46.868691 79.096797 47.288014 
C 79.51612 47.707337 80.084924 47.942943 80.677936 47.942943 
L 80.677936 47.942943 
z
" style="fill:none;stroke:#0000ff;"/>
    </g>
    <g id="text_2">
     <!-- Halls (1974) site means (tilt-corrected) -->
     <defs>
      <path d="M 45.40625 46.390625 
L 45.40625 75.984375 
L 54.390625 75.984375 
L 54.390625 0 
L 45.40625 0 
L 45.40625 8.203125 
Q 42.578125 3.328125 38.25 0.953125 
Q 33.9375 -1.421875 27.875 -1.421875 
Q 17.96875 -1.421875 11.734375 6.484375 
Q 5.515625 14.40625 5.515625 27.296875 
Q 5.515625 40.1875 11.734375 48.09375 
Q 17.96875 56 27.875 56 
Q 33.9375 56 38.25 53.625 
Q 42.578125 51.265625 45.40625 46.390625 
M 14.796875 27.296875 
Q 14.796875 17.390625 18.875 11.75 
Q 22.953125 6.109375 30.078125 6.109375 
Q 37.203125 6.109375 41.296875 11.75 
Q 45.40625 17.390625 45.40625 27.296875 
Q 45.40625 37.203125 41.296875 42.84375 
Q 37.203125 48.484375 30.078125 48.484375 
Q 22.953125 48.484375 18.875 42.84375 
Q 14.796875 37.203125 14.796875 27.296875 
" id="BitstreamVeraSans-Roman-64"/>
      <path d="M 30.609375 48.390625 
Q 23.390625 48.390625 19.1875 42.75 
Q 14.984375 37.109375 14.984375 27.296875 
Q 14.984375 17.484375 19.15625 11.84375 
Q 23.34375 6.203125 30.609375 6.203125 
Q 37.796875 6.203125 41.984375 11.859375 
Q 46.1875 17.53125 46.1875 27.296875 
Q 46.1875 37.015625 41.984375 42.703125 
Q 37.796875 48.390625 30.609375 48.390625 
M 30.609375 56 
Q 42.328125 56 49.015625 48.375 
Q 55.71875 40.765625 55.71875 27.296875 
Q 55.71875 13.875 49.015625 6.21875 
Q 42.328125 -1.421875 30.609375 -1.421875 
Q 18.84375 -1.421875 12.171875 6.21875 
Q 5.515625 13.875 5.515625 27.296875 
Q 5.515625 40.765625 12.171875 48.375 
Q 18.84375 56 30.609375 56 
" id="BitstreamVeraSans-Roman-6f"/>
      <path d="M 41.109375 46.296875 
Q 39.59375 47.171875 37.8125 47.578125 
Q 36.03125 48 33.890625 48 
Q 26.265625 48 22.1875 43.046875 
Q 18.109375 38.09375 18.109375 28.8125 
L 18.109375 0 
L 9.078125 0 
L 9.078125 54.6875 
L 18.109375 54.6875 
L 18.109375 46.1875 
Q 20.953125 51.171875 25.484375 53.578125 
Q 30.03125 56 36.53125 56 
Q 37.453125 56 38.578125 55.875 
Q 39.703125 55.765625 41.0625 55.515625 
z
" id="BitstreamVeraSans-Roman-72"/>
      <path d="M 4.890625 31.390625 
L 31.203125 31.390625 
L 31.203125 23.390625 
L 4.890625 23.390625 
z
" id="BitstreamVeraSans-Roman-2d"/>
      <path d="M 48.78125 52.59375 
L 48.78125 44.1875 
Q 44.96875 46.296875 41.140625 47.34375 
Q 37.3125 48.390625 33.40625 48.390625 
Q 24.65625 48.390625 19.8125 42.84375 
Q 14.984375 37.3125 14.984375 27.296875 
Q 14.984375 17.28125 19.8125 11.734375 
Q 24.65625 6.203125 33.40625 6.203125 
Q 37.3125 6.203125 41.140625 7.25 
Q 44.96875 8.296875 48.78125 10.40625 
L 48.78125 2.09375 
Q 45.015625 0.34375 40.984375 -0.53125 
Q 36.96875 -1.421875 32.421875 -1.421875 
Q 20.0625 -1.421875 12.78125 6.34375 
Q 5.515625 14.109375 5.515625 27.296875 
Q 5.515625 40.671875 12.859375 48.328125 
Q 20.21875 56 33.015625 56 
Q 37.15625 56 41.109375 55.140625 
Q 45.0625 54.296875 48.78125 52.59375 
" id="BitstreamVeraSans-Roman-63"/>
     </defs>
     <g transform="translate(93.8779357993 48.331875)scale(0.12 -0.12)">
      <use xlink:href="#BitstreamVeraSans-Roman-48"/>
      <use x="75.1953125" xlink:href="#BitstreamVeraSans-Roman-61"/>
      <use x="136.474609375" xlink:href="#BitstreamVeraSans-Roman-6c"/>
      <use x="164.2578125" xlink:href="#BitstreamVeraSans-Roman-6c"/>
      <use x="192.041015625" xlink:href="#BitstreamVeraSans-Roman-73"/>
      <use x="244.140625" xlink:href="#BitstreamVeraSans-Roman-20"/>
      <use x="275.927734375" xlink:href="#BitstreamVeraSans-Roman-28"/>
      <use x="314.94140625" xlink:href="#BitstreamVeraSans-Roman-31"/>
      <use x="378.564453125" xlink:href="#BitstreamVeraSans-Roman-39"/>
      <use x="442.1875" xlink:href="#BitstreamVeraSans-Roman-37"/>
      <use x="505.810546875" xlink:href="#BitstreamVeraSans-Roman-34"/>
      <use x="569.43359375" xlink:href="#BitstreamVeraSans-Roman-29"/>
      <use x="608.447265625" xlink:href="#BitstreamVeraSans-Roman-20"/>
      <use x="640.234375" xlink:href="#BitstreamVeraSans-Roman-73"/>
      <use x="692.333984375" xlink:href="#BitstreamVeraSans-Roman-69"/>
      <use x="720.1171875" xlink:href="#BitstreamVeraSans-Roman-74"/>
      <use x="759.326171875" xlink:href="#BitstreamVeraSans-Roman-65"/>
      <use x="820.849609375" xlink:href="#BitstreamVeraSans-Roman-20"/>
      <use x="852.63671875" xlink:href="#BitstreamVeraSans-Roman-6d"/>
      <use x="950.048828125" xlink:href="#BitstreamVeraSans-Roman-65"/>
      <use x="1011.57226562" xlink:href="#BitstreamVeraSans-Roman-61"/>
      <use x="1072.8515625" xlink:href="#BitstreamVeraSans-Roman-6e"/>
      <use x="1136.23046875" xlink:href="#BitstreamVeraSans-Roman-73"/>
      <use x="1188.33007812" xlink:href="#BitstreamVeraSans-Roman-20"/>
      <use x="1220.1171875" xlink:href="#BitstreamVeraSans-Roman-28"/>
      <use x="1259.13085938" xlink:href="#BitstreamVeraSans-Roman-74"/>
      <use x="1298.33984375" xlink:href="#BitstreamVeraSans-Roman-69"/>
      <use x="1326.12304688" xlink:href="#BitstreamVeraSans-Roman-6c"/>
      <use x="1353.90625" xlink:href="#BitstreamVeraSans-Roman-74"/>
      <use x="1393.11523438" xlink:href="#BitstreamVeraSans-Roman-2d"/>
      <use x="1429.19921875" xlink:href="#BitstreamVeraSans-Roman-63"/>
      <use x="1484.1796875" xlink:href="#BitstreamVeraSans-Roman-6f"/>
      <use x="1545.36132812" xlink:href="#BitstreamVeraSans-Roman-72"/>
      <use x="1586.45898438" xlink:href="#BitstreamVeraSans-Roman-72"/>
      <use x="1627.54101562" xlink:href="#BitstreamVeraSans-Roman-65"/>
      <use x="1689.06445312" xlink:href="#BitstreamVeraSans-Roman-63"/>
      <use x="1744.04492188" xlink:href="#BitstreamVeraSans-Roman-74"/>
      <use x="1783.25390625" xlink:href="#BitstreamVeraSans-Roman-65"/>
      <use x="1844.77734375" xlink:href="#BitstreamVeraSans-Roman-64"/>
      <use x="1908.25390625" xlink:href="#BitstreamVeraSans-Roman-29"/>
     </g>
    </g>
   </g>
  </g>
 </g>
 <defs>
  <clipPath id="pb38c787e04">
   <rect height="325.4" width="309.175871599" x="39.325" y="10.8"/>
  </clipPath>
 </defs>
</svg>
